<svg viewBox="0 0 16 16" xmlns="http://www.w3.org/2000/svg"><path d="M0 3C0 1.89688 0.896875 1 2 1H14C15.1031 1 16 1.89688 16 3V13C16 14.1031 15.1031 15 14 15H2C0.896875 15 0 14.1031 0 13V3ZM1.5 11.5V12.5C1.5 12.775 1.725 13 2 13H3C3.275 13 3.5 12.775 3.5 12.5V11.5C3.5 11.225 3.275 11 3 11H2C1.725 11 1.5 11.225 1.5 11.5ZM13 11C12.725 11 12.5 11.225 12.5 11.5V12.5C12.5 12.775 12.725 13 13 13H14C14.275 13 14.5 12.775 14.5 12.5V11.5C14.5 11.225 14.275 11 14 11H13ZM1.5 7.5V8.5C1.5 8.775 1.725 9 2 9H3C3.275 9 3.5 8.775 3.5 8.5V7.5C3.5 7.225 3.275 7 3 7H2C1.725 7 1.5 7.225 1.5 7.5ZM13 7C12.725 7 12.5 7.225 12.5 7.5V8.5C12.5 8.775 12.725 9 13 9H14C14.275 9 14.5 8.775 14.5 8.5V7.5C14.5 7.225 14.275 7 14 7H13ZM1.5 3.5V4.5C1.5 4.775 1.725 5 2 5H3C3.275 5 3.5 4.775 3.5 4.5V3.5C3.5 3.225 3.275 3 3 3H2C1.725 3 1.5 3.225 1.5 3.5ZM13 3C12.725 3 12.5 3.225 12.5 3.5V4.5C12.5 4.775 12.725 5 13 5H14C14.275 5 14.5 4.775 14.5 4.5V3.5C14.5 3.225 14.275 3 14 3H13ZM5 4V6C5 6.55312 5.44688 7 6 7H10C10.5531 7 11 6.55312 11 6V4C11 3.44688 10.5531 3 10 3H6C5.44688 3 5 3.44688 5 4ZM6 9C5.44688 9 5 9.44687 5 10V12C5 12.5531 5.44688 13 6 13H10C10.5531 13 11 12.5531 11 12V10C11 9.44687 10.5531 9 10 9H6Z"/></svg>