<svg viewBox="0 0 16 16" xmlns="http://www.w3.org/2000/svg"><path d="M2.92747 3.68795C3.14497 3.64656 3.36747 3.62498 3.59747 3.62498H7.60243C9.58992 3.62498 11.1999 5.26012 11.1999 7.27865C11.1999 8.16223 10.8899 8.97726 10.3699 9.61202L13.3299 11.9682C14.1924 11.6001 14.7999 10.7114 14.7999 9.7212C14.7999 8.44153 13.8224 7.37767 12.5624 7.29388L12.3599 7.27865C12.0299 7.25834 11.7799 6.96635 11.8024 6.6312C11.8224 6.29604 12.1099 6.04214 12.4399 6.06499L12.6424 6.07769C14.5324 6.20464 15.9999 7.79915 15.9999 9.7212C15.9999 11.006 15.3474 12.1358 14.3599 12.7884L15.7699 13.9106C16.0299 14.1188 16.0774 14.5022 15.8724 14.7663C15.6674 15.0303 15.2899 15.0786 15.0299 14.8704L0.229898 3.08899C-0.0308997 2.88129 -0.0765993 2.49841 0.127799 2.23349C0.332247 1.96861 0.709244 1.92217 0.970242 2.12979L2.92747 3.68795ZM4.37996 4.84372L9.40242 8.86047C9.78491 8.43391 9.99991 7.8804 9.99991 7.27865C9.99991 5.93296 8.92742 4.84372 7.60243 4.84372H4.37996ZM8.39743 13.3749C6.40994 13.3749 4.79996 11.7397 4.79996 9.7212C4.79996 9.27687 4.87746 8.85031 5.02246 8.45676L6.03995 9.27179C6.01495 9.41652 5.99995 9.56886 5.99995 9.7212C5.99995 11.0669 7.07244 12.1561 8.39743 12.1561H9.64491L11.1699 13.3749H8.39743ZM0.753493 5.03922L1.69599 5.79585C1.38499 6.20464 1.19999 6.72006 1.19999 7.27865C1.19999 8.55832 2.17823 9.62218 3.43747 9.70597L3.63997 9.7212C3.96997 9.74151 4.21996 10.0335 4.19746 10.3687C4.17746 10.7038 3.88997 10.9577 3.55997 10.9349L3.35747 10.9222C1.46799 10.7952 0 9.2007 0 7.27865C0 6.43569 0.281248 5.65875 0.753493 5.03922Z"/></svg>