<svg viewBox="0 0 16 16" xmlns="http://www.w3.org/2000/svg"><path d="M9.61371 7.31388H8.39704L8.11927 7.84721C8.09149 7.90832 8.05815 7.96943 8.01927 8.02499H8.00815C8.00815 8.02499 7.9526 7.93055 7.90815 7.84721L7.63038 7.31388H6.41371L7.36927 8.7861L6.41927 10.2583H7.61371L7.93593 9.64166C7.96927 9.5861 8.01371 9.47499 8.01371 9.47499H8.02482C8.02482 9.47499 8.06927 9.5861 8.1026 9.64166L8.43038 10.2583H9.62482L8.67482 8.7861L9.61371 7.31388Z"/><path d="M4.23593 9.51388C3.90815 9.51944 3.64148 9.26388 3.63037 8.9361V8.93055C3.63593 8.70277 3.73593 8.48055 3.89704 8.31944C4.38593 8.54166 4.83593 8.71388 4.83593 8.99721C4.83593 9.33055 4.60815 9.51388 4.23593 9.51388ZM4.26926 6.49166C4.59704 6.49166 4.79704 6.67499 4.79704 6.95277C4.79148 7.16944 4.73037 7.38055 4.61926 7.56944C4.18037 7.38055 3.81371 7.21388 3.81371 6.88055C3.81371 6.66388 3.95259 6.49166 4.26926 6.49166ZM5.50259 8.00277C5.55259 7.94166 5.99148 7.39721 5.99148 6.85833C5.99148 5.92499 5.22482 5.40833 4.29704 5.40833C3.12482 5.40833 2.61371 6.12499 2.61371 6.85277C2.61371 7.28055 2.80259 7.58055 3.06926 7.81388C2.91371 7.93055 2.37482 8.39166 2.37482 9.0361C2.37482 9.8361 3.01371 10.5917 4.23037 10.5917C5.46926 10.5917 6.08593 9.82499 6.08593 9.06388C6.09148 8.55833 5.84148 8.2361 5.50259 8.00277Z"/><path d="M11.7804 9.51388C11.4526 9.51944 11.1859 9.26388 11.1804 8.9361V8.93055C11.1859 8.70277 11.2804 8.48055 11.447 8.31944C11.9359 8.54166 12.3859 8.71388 12.3859 8.99721C12.3804 9.33055 12.1526 9.51388 11.7804 9.51388ZM11.8137 6.49166C12.1415 6.49166 12.3415 6.67499 12.3415 6.95277C12.3359 7.16944 12.2748 7.38055 12.1637 7.56944C11.7248 7.38055 11.3582 7.21388 11.3582 6.88055C11.3582 6.66388 11.5026 6.49166 11.8137 6.49166ZM13.047 8.00277C13.097 7.94166 13.5359 7.39721 13.5359 6.85833C13.5359 5.92499 12.7693 5.40833 11.8359 5.40833C10.6637 5.40833 10.1526 6.12499 10.1526 6.85277C10.1526 7.28055 10.3415 7.58055 10.6082 7.81388C10.4526 7.93055 9.91371 8.39166 9.91371 9.0361C9.91371 9.8361 10.5526 10.5917 11.7693 10.5917C13.0082 10.5917 13.6248 9.82499 13.6248 9.06388C13.6359 8.55833 13.3859 8.2361 13.047 8.00277Z"/></svg>