<svg viewBox="0 0 16 16" xmlns="http://www.w3.org/2000/svg"><path d="M9.74294 5.09271H8.52658V3.81297C8.50702 3.53409 8.29415 3.29344 8.00527 3.29344C7.71638 3.29344 7.48398 3.53409 7.48398 3.81297V5.09271H6.24808C5.97875 5.09271 5.74633 5.33336 5.74633 5.63248C5.74633 5.93072 5.9794 6.15202 6.24808 6.15202H7.46443V7.41151C7.48398 7.73088 7.71638 7.97153 8.00527 7.97153C8.29329 7.97153 8.50702 7.72998 8.50702 7.452V6.15202H9.72336C10.0318 6.15202 10.2642 5.93161 10.2642 5.63248C10.2642 5.33336 10.0318 5.09271 9.74294 5.09271Z"/><path fill-rule="evenodd" clip-rule="evenodd" d="M2.35818 0.470589C1.31859 0.470589 0.47583 1.31314 0.47583 2.35249V13.6439C0.47583 14.6832 1.31859 15.5258 2.35819 15.5258H13.6418C14.6814 15.5258 15.5241 14.6832 15.5241 13.6439V2.35249C15.5241 1.31314 14.6814 0.470589 13.6418 0.470589H2.35818ZM2.28751 10.8776C2.07959 10.8776 1.91104 11.046 1.91104 11.254V13.7145C1.91104 13.9224 2.07959 14.0909 2.28751 14.0909H4.56185C4.76977 14.0909 4.93832 13.9224 4.93832 13.7145V11.254C4.93832 11.046 4.76977 10.8776 4.56185 10.8776H2.28751ZM1.91104 2.84639C1.91104 2.32672 2.33241 1.90544 2.85222 1.90544H13.1477C13.6675 1.90544 14.0889 2.32672 14.0889 2.84639V8.50174C14.0889 9.02141 13.6675 9.44269 13.1477 9.44269H2.85222C2.33241 9.44269 1.91104 9.02141 1.91104 8.50174V2.84639ZM6.86695 10.8776C6.65903 10.8776 6.49048 11.046 6.49048 11.254V13.7145C6.49048 13.9224 6.65903 14.0909 6.86695 14.0909H9.1413C9.34921 14.0909 9.51781 13.9224 9.51781 13.7145V11.254C9.51781 11.046 9.34921 10.8776 9.1413 10.8776H6.86695ZM11.0616 11.254C11.0616 11.046 11.2302 10.8776 11.4381 10.8776H13.7124C13.9203 10.8776 14.0889 11.046 14.0889 11.254V13.7145C14.0889 13.9224 13.9203 14.0909 13.7124 14.0909H11.4381C11.2302 14.0909 11.0616 13.9224 11.0616 13.7145V11.254Z"/></svg>