<svg viewBox="0 0 16 17" xmlns="http://www.w3.org/2000/svg"><path d="M8.64866 4.14462C8.64866 3.34812 8.00301 2.70191 7.20722 2.70191H6.24625C5.45046 2.70191 4.80481 3.34812 4.80481 4.14462V14.7245C4.80481 15.521 5.45046 16.1671 6.24625 16.1671H7.20722C8.00301 16.1671 8.64866 15.521 8.64866 14.7245V4.14462ZM13.4534 10.9261C13.4534 10.1297 12.8078 9.48341 12.012 9.48341H11.0511C10.2553 9.48341 9.60962 10.1297 9.60962 10.9261V14.7245C9.60962 15.521 10.2553 16.1671 11.0511 16.1671H12.012C12.8078 16.1671 13.4534 15.521 13.4534 14.7245V10.9261ZM2.40241 4.62551H1.44145C0.645646 4.62551 0 5.27173 0 6.06822V14.7245C0 15.521 0.645646 16.1671 1.44145 16.1671H2.40241C3.1982 16.1671 3.84384 15.521 3.84384 14.7245V6.06822C3.84384 5.27173 3.1982 4.62551 2.40241 4.62551Z"/><path d="M12.423 8.37029C12.461 8.45593 12.5467 8.50985 12.6402 8.50985C12.7339 8.50985 12.8179 8.45593 12.8576 8.37029L13.6491 6.66239L15.3574 5.87266C15.443 5.83302 15.497 5.74897 15.497 5.65382C15.497 5.55867 15.443 5.47621 15.3574 5.43657L13.6476 4.64684L12.8592 2.93893C12.8195 2.8533 12.7354 2.79939 12.6419 2.79939C12.5483 2.79939 12.4642 2.8533 12.4246 2.93893L11.6346 4.64842L9.92475 5.43815C9.83909 5.47779 9.78516 5.56185 9.78516 5.6554C9.78516 5.74897 9.83909 5.83302 9.92475 5.87266L11.633 6.6608L12.423 8.37029Z"/><path d="M11.4102 2.24362L12.2992 1.91004C12.37 1.88329 12.4172 1.81563 12.4172 1.74011C12.4172 1.66458 12.37 1.59692 12.2992 1.57016L11.4102 1.23658L11.0766 0.347551C11.0498 0.276743 10.9821 0.229538 10.9066 0.229538C10.8311 0.229538 10.7634 0.276743 10.7368 0.347551L10.4031 1.23658L9.5141 1.57016C9.44329 1.59692 9.39609 1.66458 9.39609 1.74011C9.39609 1.81563 9.44329 1.88329 9.5141 1.91004L10.4031 2.24362L10.7368 3.13266C10.7634 3.20347 10.8311 3.25067 10.9066 3.25067C10.9821 3.25067 11.0498 3.20347 11.0766 3.13266L11.4102 2.24362Z"/></svg>