<svg viewBox="0 0 16 16" xmlns="http://www.w3.org/2000/svg"><path d="M12.4978 0.177058C12.4496 0.0684087 12.341 0 12.2225 0C12.1039 0 11.9974 0.0684087 11.9471 0.177058L10.9443 2.344L8.77984 3.34599C8.67132 3.39629 8.60299 3.50293 8.60299 3.62365C8.60299 3.74437 8.67132 3.84899 8.77984 3.89929L10.9463 4.90128L11.9451 7.06822C11.9954 7.17687 12.1019 7.24528 12.2204 7.24528C12.339 7.24528 12.4455 7.17687 12.4958 7.06822L13.4966 4.89927L15.6631 3.89728C15.7716 3.84698 15.8399 3.74034 15.8399 3.62164C15.8399 3.50293 15.7716 3.39629 15.6631 3.34599L13.4986 2.34601L12.4978 0.177058Z"/><path fill-rule="evenodd" clip-rule="evenodd" d="M7.57322 3.32075C7.55929 3.38777 7.55085 3.45651 7.54834 3.52639L7.5476 3.5709L7.54849 3.61601C7.56536 4.08058 7.84175 4.48487 8.25375 4.67585L8.25448 4.67615L10.1772 5.56545L11.0636 7.48821L11.064 7.48924C11.2624 7.91818 11.6903 8.19634 12.1677 8.19634C12.4065 8.19634 12.633 8.12669 12.8245 8.00339V14.1887C12.8245 15.1877 12.0132 16 11.0153 16H1.96914C0.971239 16 0.159912 15.1877 0.159912 14.1887V5.13208C0.159912 4.13302 0.971239 3.32075 1.96914 3.32075H7.57322ZM9.68385 7.66981C9.42094 7.40377 8.99122 7.40377 8.72549 7.66981L5.5876 10.8141L4.25895 9.48393C3.99605 9.21791 3.56632 9.22073 3.30059 9.48393C3.03487 9.74714 3.03488 10.1774 3.30059 10.4434L5.10983 12.2547C5.37273 12.5208 5.80245 12.5208 6.06818 12.2547L9.68664 8.63208L9.68385 8.62927C9.94957 8.36607 9.94673 7.93585 9.68385 7.66981Z"/></svg>