<svg viewBox="0 0 16 16" xmlns="http://www.w3.org/2000/svg"><path d="M12.4978 0.177058C12.4496 0.0684087 12.341 0 12.2225 0C12.1039 0 11.9974 0.0684087 11.9471 0.177058L10.9443 2.344L8.77984 3.34599C8.67132 3.39629 8.60299 3.50293 8.60299 3.62365C8.60299 3.74437 8.67132 3.84899 8.77984 3.89929L10.9463 4.90128L11.9451 7.06822C11.9954 7.17687 12.1019 7.24528 12.2204 7.24528C12.339 7.24528 12.4455 7.17687 12.4958 7.06822L13.4966 4.89927L15.6631 3.89728C15.7716 3.84698 15.8399 3.74034 15.8399 3.62164C15.8399 3.50293 15.7716 3.39629 15.6631 3.34599L13.4986 2.34601L12.4978 0.177058Z"/><path d="M7.57322 3.32075C7.55929 3.38777 7.55085 3.45651 7.54834 3.52639L7.5476 3.5709L7.54849 3.61601C7.56536 4.08058 7.84175 4.48487 8.25375 4.67585L8.25448 4.67615L8.26111 4.67925H1.96914C1.71924 4.67925 1.51684 4.88189 1.51684 5.13208V14.1887C1.51684 14.4377 1.71924 14.6415 1.96914 14.6415H11.0153C11.2641 14.6415 11.4676 14.4377 11.4676 14.1887V7.97406C11.6679 8.11554 11.9106 8.19634 12.1677 8.19634C12.4065 8.19634 12.633 8.12669 12.8245 8.00339V14.1887C12.8245 15.1877 12.0132 16 11.0153 16H1.96914C0.969826 16 0.159912 15.1877 0.159912 14.1887V5.13208C0.159912 4.1316 0.969826 3.32075 1.96914 3.32075H7.57322Z"/><path d="M8.97991 8.98113C9.35589 8.98113 9.65837 9.28396 9.65837 9.66038C9.65837 10.0368 9.35589 10.3396 8.97991 10.3396H4.00453C3.62855 10.3396 3.32607 10.0368 3.32607 9.66038C3.32607 9.28396 3.62855 8.98113 4.00453 8.98113H8.97991Z"/></svg>