<svg viewBox="0 0 16 16" xmlns="http://www.w3.org/2000/svg"><path d="M7.89258 0C8.42383 0 8.9332 0.209375 9.3082 0.584375L12.1363 3.4125C12.5113 3.7875 12.7207 4.29687 12.7207 4.82812C12.7207 5.19919 12.4199 5.5 12.0488 5.5H11.7207C11.4446 5.5 11.2207 5.27614 11.2207 5H8.7207C8.16758 5 7.7207 4.55312 7.7207 4V1.5H2.7207C2.4457 1.5 2.2207 1.725 2.2207 2V14C2.2207 14.2751 2.4457 14.5 2.7207 14.5H5.4707C5.88492 14.5 6.2207 14.8358 6.2207 15.25C6.2207 15.6643 5.88492 16 5.4707 16H2.7207C1.61758 16 0.720703 15.1031 0.720703 14V2C0.720703 0.896875 1.61758 1e-07 2.7207 0H7.89258Z"/><path d="M8.4707 11.5201C8.55917 11.5201 8.6384 11.5763 8.66976 11.6606L9.0607 12.72L10.1024 13.1175C10.1854 13.1494 10.2407 13.23 10.2407 13.32C10.2407 13.41 10.1854 13.4906 10.1024 13.5225L9.0607 13.92L8.66976 14.9794C8.63842 15.0637 8.5592 15.12 8.4707 15.12C8.3822 15.12 8.30298 15.0637 8.27164 14.9794L7.8807 13.92L6.83898 13.5225C6.75605 13.4906 6.7007 13.41 6.7007 13.32C6.70073 13.2301 6.75607 13.1494 6.83898 13.1175L7.8807 12.72L8.27164 11.6606C8.30301 11.5763 8.38223 11.5201 8.4707 11.5201Z"/><path d="M11.962 6.4C12.0707 6.4 12.1704 6.46376 12.2146 6.565L13.1329 8.58625L15.1185 9.51812C15.218 9.56501 15.2807 9.6644 15.2807 9.775C15.2807 9.88561 15.2181 9.98495 15.1185 10.0319L13.1309 10.9656L12.2127 12.9869C12.1667 13.0881 12.069 13.1518 11.9602 13.1519C11.8515 13.1519 11.7537 13.0881 11.7076 12.9869L10.7913 10.9675L8.80367 10.0337C8.70414 9.98685 8.64151 9.88933 8.64148 9.77687C8.64151 9.66442 8.70416 9.565 8.80367 9.51812L10.7893 8.58437L11.7095 6.565C11.7556 6.46377 11.8532 6.40001 11.962 6.4Z"/></svg>