<svg viewBox="0 0 16 16" xmlns="http://www.w3.org/2000/svg"><path d="M14.9334 14.6001C14.9334 14.1567 14.5767 13.8001 14.1334 13.8001H0.800003C0.356668 13.8001 0 14.1567 0 14.6001C0 15.0434 0.356668 15.4001 0.800003 15.4001H14.1334C14.5767 15.4001 14.9334 15.0434 14.9334 14.6001ZM7.72066 10.3334C7.72066 9.89003 7.364 9.53336 6.92066 9.53336H0.800003C0.356668 9.53336 0 9.89003 0 10.3334C0 10.7767 0.356668 11.1334 0.800003 11.1334H6.92066C7.364 11.1334 7.72066 10.7767 7.72066 10.3334ZM4.48256 6.86669C4.92589 6.86669 5.28256 6.51002 5.28256 6.06668C5.28256 5.62335 4.92589 5.26668 4.48256 5.26668H0.800003C0.356668 5.26668 0 5.62335 0 6.06668C0 6.51002 0.356668 6.86669 0.800003 6.86669H4.48256ZM14.9334 1.8C14.9334 1.35666 14.5767 1 14.1334 1H0.800003C0.356668 1 0 1.35666 0 1.8C0 2.24333 0.356668 2.6 0.800003 2.6H14.1334C14.5767 2.6 14.9334 2.24333 14.9334 1.8Z"/><path d="M12.7004 12.8338C12.6528 12.941 12.5456 13.0084 12.4286 13.0084C12.3115 13.0084 12.2063 12.941 12.1567 12.8338L11.1666 10.6969L9.02974 9.70878C8.92259 9.65917 8.85513 9.55401 8.85513 9.43497C8.85513 9.31592 8.92259 9.21274 9.02974 9.16314L11.1686 8.17504L12.1547 6.03813C12.2044 5.93099 12.3095 5.86352 12.4266 5.86352C12.5436 5.86352 12.6488 5.93099 12.6984 6.03813L13.6865 8.17703L15.8254 9.16512C15.9325 9.21473 16 9.31989 16 9.43695C16 9.55401 15.9325 9.65917 15.8254 9.70878L13.6885 10.6949L12.7004 12.8338Z"/><path d="M8.18031 6.05017L7.05927 5.62954C6.96999 5.59581 6.91046 5.51049 6.91046 5.41525C6.91046 5.32001 6.96999 5.2347 7.05927 5.20097L8.18031 4.78033L8.60094 3.65929C8.63467 3.57001 8.71999 3.51048 8.81523 3.51048C8.91047 3.51048 8.99579 3.57001 9.02952 3.65929L9.45015 4.78033L10.5712 5.20097C10.6605 5.2347 10.72 5.32001 10.72 5.41525C10.72 5.51049 10.6605 5.59581 10.5712 5.62954L9.45015 6.05017L9.02952 7.17121C8.99579 7.2605 8.91047 7.32002 8.81523 7.32002C8.71999 7.32002 8.63467 7.2605 8.60094 7.17121L8.18031 6.05017Z"/></svg>