<svg viewBox="0 0 16 16" xmlns="http://www.w3.org/2000/svg"><path d="M6.73684 2.16887C7.46157 2.16887 8.15917 2.28477 8.81332 2.49708L8.07566 2.84014C7.77776 2.97844 7.53741 3.20167 7.37747 3.47347C7.1673 3.44891 6.95359 3.43554 6.73684 3.43554C3.71316 3.43554 1.26316 5.89234 1.26316 8.92442C1.26316 11.9565 3.71316 14.4133 6.73684 14.4133C9.61907 14.4133 11.9778 12.1808 12.1924 9.34582C12.1982 9.34588 12.2039 9.34665 12.2097 9.34665C12.7137 9.34657 13.1744 9.10686 13.4679 8.71826C13.47 8.78676 13.4737 8.85543 13.4737 8.92442C13.4737 12.6558 10.4579 15.68 6.73684 15.68C3.01579 15.68 0 12.6558 0 8.92442C0 5.19304 3.01579 2.16887 6.73684 2.16887Z"/><path d="M6.73684 6.39109C8.13158 6.39109 9.26316 7.50206 9.26316 8.92442C9.26316 10.323 8.13158 11.4578 6.73684 11.4578C5.31842 11.4578 4.21053 10.323 4.21053 8.92442C4.21053 7.50206 5.31842 6.39109 6.73684 6.39109Z"/><path d="M12.2113 0.47998C12.3355 0.47998 12.4495 0.551629 12.5 0.665527L13.5477 2.94074L15.815 3.9897C15.9286 4.04249 16 4.15468 16 4.27916C15.9999 4.40349 15.9284 4.515 15.815 4.56778L13.5461 5.61922L12.4975 7.89443C12.4804 7.93139 12.4564 7.96304 12.4285 7.99009C12.4259 7.99253 12.4236 7.99516 12.4211 7.99752C12.404 8.01301 12.3851 8.02573 12.3651 8.0371C12.3618 8.039 12.3587 8.04109 12.3553 8.04287C12.3356 8.05316 12.3152 8.06165 12.2936 8.06761C12.289 8.06889 12.2843 8.06984 12.2796 8.07091C12.2569 8.07606 12.2337 8.07996 12.2097 8.07998C12.0856 8.07998 11.9737 8.00833 11.9211 7.89443L10.875 5.62087L8.60609 4.57026C8.4925 4.51747 8.42105 4.40739 8.42105 4.2808C8.42114 4.15431 8.49257 4.04246 8.60609 3.9897L10.8734 2.93909L11.9235 0.665527C11.9762 0.551778 12.0874 0.480069 12.2113 0.47998Z"/></svg>