<svg viewBox="0 0 16 16" xmlns="http://www.w3.org/2000/svg"><path d="M9.84783 2.51559C10.1167 2.09915 9.9933 1.42103 9.50737 1.32322C9.06298 1.23376 8.61768 1.1983 8.00003 1.1983C3.58128 1.1983 0.000878914 4.10767 0.000878914 7.6983C0.000878914 9.18673 0.623066 10.5498 1.65432 11.642C1.18932 12.8764 0.220879 13.9195 0.205254 13.9311C-0.00177729 14.1498 -0.0564649 14.4701 0.0607226 14.7436C0.181841 15.017 0.449404 15.1983 0.750029 15.1983C2.6719 15.1983 4.1594 14.3936 5.0969 13.7529C5.9719 14.0358 6.97815 14.1983 8.00003 14.1983C12.4188 14.1983 15.9719 11.2879 15.9719 7.6983C15.9719 7.44462 15.9592 7.27386 15.931 7.12665C15.8512 6.71096 15.2732 6.58447 14.8846 6.75238C14.5621 6.89174 14.4908 7.22184 14.5007 7.57302C14.5017 7.60908 14.5022 7.65038 14.5022 7.6983C14.5022 10.4561 11.5875 12.6983 8.00315 12.6983C7.16722 12.6983 6.34315 12.5693 5.55378 12.3195L4.84284 12.0968L4.23347 12.5265C3.78815 12.8428 3.17472 13.1947 2.43659 13.4328C2.66706 13.054 2.88565 12.6281 3.05784 12.175L3.38972 11.3L2.74534 10.6165C2.1819 10.0139 1.50222 9.01704 1.50222 7.6983C1.50222 4.94048 4.41628 2.6983 8.00222 2.6983C8.51782 2.6983 8.7841 2.71225 9.12767 2.78089C9.41808 2.83891 9.68721 2.7644 9.84783 2.51559Z"/><path d="M12.7429 1.16369C12.6983 1.06324 12.5978 1 12.4881 1C12.3783 1 12.2798 1.06324 12.2333 1.16369L11.3051 3.16703L9.30172 4.09337C9.20127 4.13988 9.13803 4.23846 9.13803 4.35007C9.13803 4.46168 9.20127 4.5584 9.30172 4.60491L11.3069 5.53125L12.2314 7.53459C12.2779 7.63504 12.3765 7.69828 12.4862 7.69828C12.596 7.69828 12.6946 7.63504 12.7411 7.53459L13.6674 5.52939L15.6726 4.60305C15.7731 4.55654 15.8363 4.45796 15.8363 4.34821C15.8363 4.23846 15.7731 4.13988 15.6726 4.09337L13.6693 3.16889L12.7429 1.16369Z"/><path d="M8.60598 7.79833L7.55501 8.19267C7.4713 8.2243 7.4155 8.30428 7.4155 8.39357C7.4155 8.48285 7.4713 8.56284 7.55501 8.59446L8.60598 8.98881L9.00032 10.0397C9.03194 10.1234 9.11193 10.1793 9.20121 10.1793C9.2905 10.1793 9.37049 10.1234 9.40211 10.0397L9.79645 8.98881L10.8474 8.59446C10.9311 8.56284 10.9869 8.48285 10.9869 8.39357C10.9869 8.30428 10.9311 8.2243 10.8474 8.19267L9.79645 7.79833L9.40211 6.74736C9.37049 6.66366 9.2905 6.60785 9.20121 6.60785C9.11193 6.60785 9.03194 6.66366 9.00032 6.74736L8.60598 7.79833Z"/></svg>