<svg viewBox="0 0 16 17" xmlns="http://www.w3.org/2000/svg"><path d="M5.73496 5.01853C5.85892 4.67886 6.18345 4.45267 6.54687 4.45267H6.79267C7.15589 4.45267 7.48029 4.67862 7.6044 5.01803L9.72786 10.8254C9.87737 11.2343 9.57281 11.6666 9.13522 11.6666C8.86992 11.6666 8.63297 11.5014 8.54247 11.2535L8.22684 10.3887H5.11748L4.80192 11.2533C4.71137 11.5013 4.47433 11.6666 4.2089 11.6666C3.77128 11.6666 3.46659 11.2344 3.61587 10.8254L5.73496 5.01853ZM5.5787 9.1314H7.76044L6.66698 6.15824L5.5787 9.1314Z"/><path d="M11.0839 11.6666C10.7348 11.6666 10.4517 11.3851 10.4517 11.0379V5.91368C10.4517 5.5665 10.7348 5.28505 11.0839 5.28505C11.4331 5.28505 11.7162 5.5665 11.7162 5.91368V11.0379C11.7162 11.3851 11.4331 11.6666 11.0839 11.6666Z"/><path d="M14.3862 8.21539C14.3862 11.7424 11.5269 14.6017 7.99975 14.6017C4.47266 14.6017 1.61338 11.7424 1.61338 8.21539C1.61338 4.95809 4.05195 2.27035 7.20304 1.87822C7.64056 1.82377 7.99975 1.4716 7.99975 1.03071C7.99975 0.58982 7.64132 0.228217 7.20258 0.271715C3.16799 0.671723 0.0167847 4.07555 0.0167847 8.21539C0.0167847 12.6243 3.59088 16.1983 7.99975 16.1983C12.4087 16.1983 15.9827 12.6243 15.9827 8.21539C15.9827 8.11267 15.9808 8.01043 15.9769 7.90867C15.962 7.51269 15.6236 7.21751 15.2274 7.21751C14.7448 7.21751 14.3795 7.64973 14.3856 8.13221C14.386 8.15989 14.3862 8.18762 14.3862 8.21539Z"/><path d="M11.1991 0.311341C11.1683 0.241995 11.099 0.198334 11.0232 0.198334C10.9474 0.198334 10.8793 0.241995 10.8472 0.311341L10.2065 1.69439L8.82343 2.3339C8.75408 2.366 8.71041 2.43407 8.71041 2.51112C8.71041 2.58817 8.75408 2.65494 8.82343 2.68705L10.2077 3.32656L10.8459 4.70961C10.8781 4.77896 10.9462 4.82261 11.0219 4.82261C11.0977 4.82261 11.1658 4.77896 11.1979 4.70961L11.8374 3.32528L13.2217 2.68577C13.291 2.65366 13.3347 2.5856 13.3347 2.50984C13.3347 2.43407 13.291 2.366 13.2217 2.3339L11.8387 1.69567L11.1991 0.311341Z"/><path d="M14.4581 3.59562C14.4396 3.55402 14.3979 3.52782 14.3525 3.52782C14.307 3.52782 14.2662 3.55402 14.2469 3.59562L13.8624 4.42545L13.0326 4.80916C12.991 4.82842 12.9648 4.86925 12.9648 4.91548C12.9648 4.96171 12.991 5.00178 13.0326 5.02105L13.8632 5.40476L14.2461 6.23459C14.2654 6.27619 14.3062 6.30238 14.3517 6.30238C14.3971 6.30238 14.438 6.27619 14.4573 6.23459L14.8409 5.40398L15.6716 5.02027C15.7132 5.00102 15.7394 4.96017 15.7394 4.91472C15.7394 4.86925 15.7132 4.82842 15.6716 4.80916L14.8417 4.42622L14.4581 3.59562Z"/></svg>