<svg viewBox="0 0 16 16" xmlns="http://www.w3.org/2000/svg"><path fill-rule="evenodd" clip-rule="evenodd" d="M4.08333 1H11.9167C13.6195 1 15 2.38046 15 4.08334V11.9167C15 13.6195 13.6195 15 11.9167 15H4.08333C2.38046 15 1 13.6195 1 11.9167V4.08334C1 2.38046 2.38046 1 4.08333 1ZM4.36651 4.67714C5.33018 3.87447 6.63718 3.42354 8 3.42353C9.36283 3.42354 10.6698 3.87447 11.6335 4.67714C12.5972 5.4798 13.1385 6.56845 13.1386 7.70359C13.1385 8.83873 12.5972 9.92737 11.6335 10.73C10.6698 11.5327 9.36283 11.9836 8 11.9837C7.50774 11.9829 7.01817 11.9231 6.5463 11.8064C5.93432 12.2121 5.22013 12.4927 4.45932 12.6262C4.85164 12.247 5.15534 11.8219 5.35783 11.3685C4.59755 10.9889 3.9681 10.4519 3.53067 9.80966C3.09324 9.16747 2.8627 8.44194 2.86146 7.70359C2.86147 6.56845 3.40285 5.4798 4.36651 4.67714Z"/></svg>