<svg viewBox="0 0 16 16" xmlns="http://www.w3.org/2000/svg"><g clip-path="url(#clip0_1_526)"><path d="M7.81 12.52H5.36C4.68 12.52 4.13 11.97 4.13 11.29V2.56L5.49 3.92C5.64 4.07 5.83 4.14 6.02 4.14C6.21 4.14 6.4 4.07 6.55 3.92C6.84 3.63 6.84 3.15 6.55 2.86L3.92 0.220002C3.63 -0.0699975 3.15 -0.0699975 2.86 0.220002L0.220002 2.86C-0.0699975 3.15 -0.0699975 3.63 0.220002 3.92C0.510002 4.21 0.990002 4.21 1.28 3.92L2.64 2.56V11.3C2.64 12.8 3.86 14.03 5.37 14.03H7.82C8.23 14.03 8.57 13.69 8.57 13.28C8.57 12.87 8.23 12.52 7.81 12.52Z"/><path d="M15.78 12.08C15.49 11.79 15.01 11.79 14.72 12.08L13.36 13.44V4.7C13.36 3.2 12.14 1.97 10.63 1.97H8.18C7.77 1.97 7.43 2.31 7.43 2.72C7.43 3.13 7.77 3.47 8.18 3.47H10.63C11.31 3.47 11.86 4.02 11.86 4.7V13.44L10.5 12.08C10.21 11.79 9.73 11.79 9.44 12.08C9.15 12.37 9.15 12.85 9.44 13.14L12.08 15.78C12.22 15.92 12.41 16 12.61 16C12.81 16 13 15.92 13.14 15.78L15.78 13.14C16.07 12.85 16.07 12.38 15.78 12.08Z"/></g><defs><clipPath><rect/></clipPath></defs></svg>