<svg viewBox="0 0 16 16" xmlns="http://www.w3.org/2000/svg"><path d="M13.1997 3.30024C12.9068 3.59314 12.911 4.06557 13.1667 4.39142C13.5173 4.83812 13.806 5.33145 14.0242 5.85822C14.3383 6.6165 14.5 7.42923 14.5 8.24999C14.5 9.07075 14.3383 9.88348 14.0242 10.6418C13.7101 11.4 13.2498 12.089 12.6694 12.6694C12.089 13.2498 11.4001 13.7101 10.6418 14.0242C9.88348 14.3383 9.07076 14.5 8.24999 14.5C7.42923 14.5 6.61651 14.3383 5.85822 14.0242C5.33145 13.806 4.83812 13.5173 4.39142 13.1667C4.06557 12.911 3.59314 12.9068 3.30025 13.1997C3.00735 13.4926 3.00524 13.9707 3.32506 14.2339C3.91535 14.7198 4.57536 15.1164 5.2842 15.4101C6.22447 15.7995 7.23225 16 8.24999 16C9.26774 16 10.2755 15.7995 11.2158 15.4101C12.1561 15.0206 13.0104 14.4497 13.7301 13.7301C14.4497 13.0104 15.0206 12.1561 15.4101 11.2158C15.7995 10.2755 16 9.26773 16 8.24999C16 7.23225 15.7995 6.22447 15.4101 5.28419C15.1164 4.57535 14.7198 3.91534 14.2339 3.32506C13.9707 3.00524 13.4926 3.00735 13.1997 3.30024Z"/><path d="M7.57019 1.50767L9.25953 1.50767C9.67374 1.50767 10.0095 1.17189 10.0095 0.757672C10.0095 0.343458 9.67374 0.00767159 9.25953 0.00767166L5.80501 0.00767164C5.59774 -0.00524702 5.38613 0.0674893 5.22774 0.22588C5.06935 0.384271 4.99661 0.595879 5.00953 0.803148V4.25767C5.00953 4.67189 5.34531 5.00767 5.75953 5.00767C6.17374 5.00767 6.50953 4.67189 6.50953 4.25767V2.56833L11.2381 7.29695C11.531 7.58984 12.0059 7.58984 12.2988 7.29695C12.5917 7.00405 12.5917 6.52918 12.2988 6.23629L7.57019 1.50767Z"/><path d="M5.90863 10.093H4.21929C3.80507 10.093 3.46929 10.4288 3.46929 10.843C3.46929 11.2572 3.80507 11.593 4.21929 11.593H7.67381C7.88108 11.6059 8.09269 11.5332 8.25108 11.3748C8.40947 11.2164 8.48221 11.0048 8.46929 10.7975V7.34297C8.46929 6.92876 8.1335 6.59297 7.71929 6.59297C7.30508 6.59297 6.96929 6.92876 6.96929 7.34297L6.96929 9.03231L2.24067 4.30369C1.94778 4.0108 1.47291 4.0108 1.18001 4.30369C0.887119 4.59659 0.887119 5.07146 1.18001 5.36435L5.90863 10.093Z"/></svg>