<svg viewBox="0 0 16 16" xmlns="http://www.w3.org/2000/svg"><path d="M1.85071 7.57745C1.42017 7.51772 1.01836 7.81869 1.00405 8.25312C0.961501 9.54495 1.25352 10.8307 1.85795 11.9833C2.58467 13.369 3.72661 14.4927 5.12384 15.1971C6.52108 15.9015 8.10363 16.1512 9.64987 15.9113C11.1961 15.6714 12.6286 14.9539 13.7467 13.8593C14.8648 12.7646 15.6126 11.3477 15.8852 9.80692C16.1579 8.26612 15.9418 6.67862 15.2673 5.26675C14.5927 3.85488 13.4935 2.68935 12.1235 1.93337C10.984 1.30462 9.70474 0.985371 8.4123 1.00049C7.97767 1.00558 7.66823 1.40091 7.71881 1.83262C7.76939 2.26433 8.16127 2.56777 8.59587 2.57481C9.56063 2.59042 10.5113 2.84154 11.363 3.31153C12.4455 3.90885 13.314 4.82977 13.847 5.94532C14.38 7.06088 14.5507 8.3152 14.3353 9.53263C14.1198 10.7501 13.529 11.8696 12.6456 12.7345C11.7621 13.5994 10.6303 14.1663 9.40854 14.3559C8.18682 14.5454 6.9364 14.3481 5.83241 13.7916C4.72842 13.235 3.82614 12.3471 3.25194 11.2522C2.80013 10.3907 2.56925 9.43494 2.57412 8.47007C2.57631 8.03541 2.28125 7.63718 1.85071 7.57745Z"/><path d="M1.9441 3.00475L6.67271 7.73336C6.96561 8.02626 7.44048 8.02626 7.73337 7.73336C8.02627 7.44047 8.02627 6.9656 7.73337 6.6727L3.00477 1.9441L4.6941 1.9441C5.10831 1.9441 5.4441 1.60831 5.4441 1.1941C5.4441 0.779886 5.10831 0.4441 4.6941 0.4441L1.23977 0.4441C1.03244 0.431124 0.820745 0.503856 0.662304 0.662297C0.503899 0.820702 0.431165 1.03234 0.444099 1.23962L0.4441 4.6941C0.4441 5.10831 0.779886 5.4441 1.1941 5.4441C1.60831 5.4441 1.9441 5.10831 1.9441 4.6941L1.9441 3.00475Z"/></svg>