<svg viewBox="0 0 16 16" xmlns="http://www.w3.org/2000/svg"><path d="M1.85071 7.57746C1.42017 7.51772 1.01836 7.8187 1.00405 8.25313C0.961498 9.54495 1.25352 10.8307 1.85795 11.9833C2.58467 13.369 3.72661 14.4928 5.12384 15.1971C6.52108 15.9015 8.10363 16.1512 9.64986 15.9113C11.1961 15.6714 12.6286 14.9539 13.7467 13.8593C14.8648 12.7647 15.6126 11.3477 15.8852 9.80692C16.1579 8.26613 15.9418 6.67863 15.2673 5.26676C14.5927 3.85489 13.4935 2.68935 12.1235 1.93338C10.984 1.30463 9.70474 0.985378 8.4123 1.0005C7.97766 1.00558 7.66823 1.40092 7.71881 1.83263C7.76939 2.26434 8.16126 2.56778 8.59587 2.57481C9.56063 2.59043 10.5113 2.84155 11.363 3.31154C12.4455 3.90885 13.314 4.82977 13.847 5.94533C14.38 7.06089 14.5507 8.31521 14.3353 9.53263C14.1198 10.7501 13.529 11.8696 12.6456 12.7345C11.7621 13.5994 10.6303 14.1663 9.40854 14.3559C8.18681 14.5454 6.9364 14.3481 5.83241 13.7916C4.72842 13.235 3.82614 12.3471 3.25194 11.2522C2.80013 10.3907 2.56924 9.43495 2.57411 8.47008C2.57631 8.03542 2.28125 7.63719 1.85071 7.57746Z"/><path d="M7.45177 6.38727L2.72316 1.65866C2.43027 1.36576 1.95539 1.36576 1.6625 1.65866C1.36961 1.95155 1.36961 2.42642 1.6625 2.71932L6.3911 7.44792H4.70177C4.28756 7.44792 3.95177 7.78371 3.95177 8.19792C3.95177 8.61213 4.28756 8.94792 4.70177 8.94792L8.1561 8.94792C8.36343 8.9609 8.57512 8.88817 8.73357 8.72972C8.89197 8.57132 8.96471 8.35969 8.95177 8.1524L8.95177 4.69792C8.95177 4.28371 8.61599 3.94792 8.20177 3.94792C7.78756 3.94792 7.45177 4.28371 7.45177 4.69792L7.45177 6.38727Z"/></svg>