<svg viewBox="0 0 16 16" xmlns="http://www.w3.org/2000/svg"><path d="M0.127518 1.83C0.332518 1.57 0.710018 1.5225 0.970018 1.7275L4.89002 4.8H6.61752C8.36752 4.8 10.0475 4.105 11.285 2.8675L12.235 1.9175C12.7375 1.4125 13.6 1.77 13.6 2.4825V6.09C14.065 6.31 14.4 6.9025 14.4 7.6C14.4 8.2975 14.065 8.89 13.6 9.11V11.6275L15.77 13.3275C16.03 13.5325 16.0775 13.91 15.8725 14.17C15.6675 14.43 15.29 14.4775 15.03 14.2725L0.230018 2.6725C-0.0299815 2.4675 -0.0774815 2.09 0.127518 1.83ZM1.60002 6.4C1.60002 6.06 1.70502 5.745 1.88752 5.4875L2.83752 6.235C2.81502 6.285 2.80252 6.3425 2.80252 6.4V8.8C2.80252 9.02 2.98252 9.2 3.20252 9.2H5.60252V8.4125L8.45502 10.66C7.92252 10.505 7.36752 10.4175 6.80252 10.4025L6.80002 13C6.80002 13.7725 6.17252 14.4 5.40002 14.4H4.60002C3.82752 14.4 3.20002 13.7725 3.20002 13V10.4C2.31752 10.4 1.60002 9.6825 1.60002 8.8V6.4ZM4.40002 10.4V13C4.40002 13.11 4.49002 13.2 4.60002 13.2H5.40002C5.51002 13.2 5.60002 13.11 5.60002 13V10.4H4.40002ZM6.80002 6V6.2975L12.4 10.6875V3.4525C12.31 3.54 12.2225 3.6275 12.1325 3.7175C10.7125 5.1375 8.80252 5.9525 6.80002 6Z"/></svg>