<svg viewBox="0 0 16 16" xmlns="http://www.w3.org/2000/svg"><g clip-path="url(#clip0_1_130)"><path d="M8 0C3.59 0 0 3.59 0 8C0 12.41 3.59 16 8 16C12.41 16 16 12.41 16 8C16 3.59 12.41 0 8 0ZM8 14.5C4.42 14.5 1.5 11.58 1.5 8C1.5 4.42 4.42 1.5 8 1.5C11.58 1.5 14.5 4.42 14.5 8C14.5 11.58 11.58 14.5 8 14.5Z"/><path d="M12.7483 8.35626C12.3545 7.47257 11.8388 5.51001 11.3772 4.85376C10.6556 3.83039 9.47243 3.20001 8.18984 3.20001H6.95225C4.99236 3.20001 3.2778 4.70245 3.2028 6.65939C3.16061 7.78214 3.63389 8.78939 4.40026 9.47751L4.40038 12.35C4.40038 12.5986 4.60196 12.8 4.85042 12.8C5.09887 12.8 5.28357 12.5986 5.28357 12.3669V9.07626L5.00043 8.80907C4.12137 8.01876 3.81909 6.71376 4.39795 5.57376C4.83091 4.72326 5.70716 4.20539 6.65035 4.11801V5.05101C5.70716 5.25689 4.98336 6.09501 4.98336 7.10001C4.98336 8.25989 5.92374 9.20001 7.08351 9.20001C8.24328 9.20001 9.20053 8.26064 9.20053 7.10001C9.20053 6.09501 8.49342 5.25745 7.55042 5.05064V4.10001H8.19021C9.1484 4.10001 10.0822 4.57589 10.641 5.37276C10.852 5.67051 11.1492 6.60332 11.398 7.28526C11.5201 7.64939 11.6401 7.99626 11.7545 8.30001H10.6997V10.4C10.6997 10.5657 10.5654 10.7 10.3997 10.7H8.89976V12.35C8.89976 12.5986 9.10115 12.8 9.34979 12.8C9.59825 12.8 9.78295 12.5986 9.78295 12.3669V11.6H10.3834C11.046 11.6 11.5666 11.0628 11.5666 10.4169V9.20001H12.1497C12.6339 9.20001 12.9245 8.75189 12.7483 8.35626ZM8.30047 7.10001C8.30047 7.7617 7.76212 8.30001 7.10038 8.30001C6.43865 8.30001 5.9003 7.7617 5.9003 7.10001C5.9003 6.43832 6.43865 5.90001 7.10038 5.90001C7.76212 5.90001 8.30047 6.43814 8.30047 7.10001ZM6.48347 7.10001C6.48347 7.43132 6.75217 7.70001 7.08351 7.70001C7.41484 7.70001 7.68355 7.43132 7.68355 7.10001C7.68355 6.7687 7.41484 6.50001 7.08351 6.50001C6.75217 6.50001 6.48347 6.76814 6.48347 7.10001Z"/></g><defs><clipPath><rect/></clipPath></defs></svg>