<svg viewBox="0 0 16 16" xmlns="http://www.w3.org/2000/svg"><path fill-rule="evenodd" clip-rule="evenodd" d="M0.91142 0.646987C0.693931 0.442291 0.351683 0.452662 0.146987 0.670151C-0.0577091 0.88764 -0.0473379 1.22989 0.170151 1.43458L14.7047 15.1142C14.9222 15.3189 15.2645 15.3086 15.4692 15.0911C15.6739 14.8736 15.6635 14.5314 15.4461 14.3266L13.2063 12.2187H13.2961C14.7832 12.2187 16 11.0019 16 9.51478V3.88158C16 2.38541 14.7922 1.17766 13.2961 1.17766H4.28305C3.52527 1.17766 2.83771 1.49123 2.34554 1.99676L0.91142 0.646987ZM3.32913 2.92248L6.61778 6.01767H10.3128L9.105 4.80992C8.84365 4.54854 8.84365 4.11592 9.105 3.85454C9.36638 3.59316 9.79901 3.59316 10.0604 3.85454L12.4218 6.22498C12.6832 6.48635 12.6832 6.91898 12.4218 7.18036L10.2067 9.39549L11.9501 11.0363C12.0695 10.931 12.2255 10.8667 12.3948 10.8667H13.2961C14.0442 10.8667 14.648 10.2629 14.648 9.51478V3.88158C14.648 3.13349 14.0442 2.52962 13.2961 2.52962H4.28305C3.91032 2.52962 3.5734 2.67952 3.32913 2.92248ZM9.2219 8.46863L10.3128 7.36963H8.05424L9.2219 8.46863ZM1.57913 9.51478V4.00283L2.93108 5.27527V9.51478C2.93108 10.2629 3.53495 10.8667 4.28305 10.8667H8.87199L10.8175 12.6978V14.2466H11.2681C11.6377 14.2466 11.9441 14.5531 11.9441 14.9226C11.9441 15.2922 11.6377 15.5986 11.2681 15.5986H6.31099C5.93244 15.5986 5.63501 15.2922 5.63501 14.9226C5.63501 14.5531 5.94145 14.2466 6.31099 14.2466H6.76164V12.2187H4.28305C2.79588 12.2187 1.57913 11.0019 1.57913 9.51478ZM9.46552 14.2466H8.1136V12.2187H9.46552V14.2466Z"/></svg>