<svg viewBox="0 0 16 16" xmlns="http://www.w3.org/2000/svg"><path d="M0.127641 1.23374C0.33264 0.969674 0.710141 0.921432 0.97014 1.12963L2.88764 2.65561C2.98764 2.6353 3.09264 2.62514 3.20014 2.62514H12.8001C13.6826 2.62514 14.4001 3.35385 14.4001 4.25014V10.7501C14.4001 11.0701 14.3076 11.3697 14.1501 11.621L15.7701 12.9109C16.0301 13.1191 16.0776 13.5025 15.8726 13.7665C15.6676 14.0306 15.2901 14.0789 15.0301 13.8707L0.230141 2.0894C-0.0298595 1.8812 -0.0773595 1.4978 0.127641 1.23374ZM1.60014 4.71733L8.13264 9.94526C7.50264 9.97827 6.86514 9.78022 6.35014 9.34858L2.80014 6.38803V10.7501C2.80014 10.9736 2.98014 11.1564 3.20014 11.1564H9.64514L11.1676 12.3751H3.20014C2.31764 12.3751 1.60014 11.6464 1.60014 10.7501V4.71733ZM4.38014 3.84389L9.48764 7.90893L13.2001 4.81128V4.25014C13.2001 4.02671 13.0201 3.84389 12.8001 3.84389H4.38014ZM10.4526 8.67827L13.1851 10.8542C13.1951 10.8212 13.1976 10.7857 13.1976 10.7501V6.38803L10.4526 8.67827Z"/></svg>