<svg viewBox="0 0 16 16" xmlns="http://www.w3.org/2000/svg"><path d="M0 4C0 2.89688 0.84082 2 1.875 2H13.125C14.1592 2 15 2.89688 15 4V8H13.5938V6.63125L9.43359 10.275C8.30859 11.2594 6.68848 11.2594 5.56641 10.275L1.40625 6.63125V12C1.40625 12.275 1.61719 12.5 1.875 12.5H10.5215C10.3574 12.7219 10.2402 12.9781 10.1758 13.2531L10 14H1.875C0.84082 14 0 13.1031 0 12V4ZM1.40625 4V4.69063L6.45996 9.11563C7.06641 9.64688 7.93652 9.64688 8.54297 9.11563L13.5938 4.69063V4C13.5938 3.725 13.3828 3.5 13.125 3.5H1.875C1.61719 3.5 1.40625 3.725 1.40625 4Z"/><path d="M12.5201 10.1082C12.2172 10.1082 11.966 9.85704 11.966 9.55412C11.966 9.2512 12.2172 9 12.5201 9H15.4459C15.7488 9 16 9.2512 16 9.55412V12.4799C16 12.7828 15.7488 13.034 15.4459 13.034C15.143 13.034 14.8918 12.7828 14.8918 12.4799V10.8914L11.9439 13.8393C11.7296 14.0536 11.375 14.0536 11.1607 13.8393C10.9464 13.625 10.9464 13.2704 11.1607 13.0561L14.1086 10.1082H12.5201Z"/></svg>