<svg viewBox="0 0 17 17" xmlns="http://www.w3.org/2000/svg"><path fill-rule="evenodd" clip-rule="evenodd" d="M15.5581 0.183058C15.8021 -0.0610194 16.1979 -0.0610194 16.4419 0.183058C16.686 0.427136 16.686 0.822864 16.4419 1.06694L1.44194 16.0669C1.19786 16.311 0.802135 16.311 0.558058 16.0669C0.31398 15.8229 0.313981 15.4271 0.558059 15.1831L2.48049 13.2606C1.54838 11.9525 1 10.3524 1 8.625C1 4.20625 4.58125 0.625 9 0.625C10.7284 0.625 12.3286 1.17292 13.6366 2.10456L15.5581 0.183058ZM12.0703 3.67084C11.6975 3.62205 11.2726 3.5875 10.975 3.5875C8.3 3.5875 7.06875 4.85 7.06875 7.57188V8.625H5.41875V10.3224L12.0703 3.67084ZM15.3966 3.81936L10.591 8.625H12.5844L12.1344 11.0688H9.96875V16.5656C13.9312 16.0875 17 12.7156 17 8.625C17 6.82139 16.4034 5.15732 15.3966 3.81936ZM4.19525 15.0207L7.06875 12.1472V16.3906C6.01259 16.1282 5.03912 15.656 4.19525 15.0207Z"/></svg>