<svg viewBox="0 0 16 16" xmlns="http://www.w3.org/2000/svg"><path d="M12.072 6.20795C12.248 6.39195 12.544 6.39195 12.728 6.20795L14.112 4.79195C14.496 4.40795 14.496 3.77595 14.112 3.39195C13.736 3.00795 13.12 3.00795 12.736 3.39195L12.4 3.73595L12.056 3.38395C11.672 2.99995 11.064 2.99995 10.68 3.38395C10.296 3.76795 10.296 4.39995 10.68 4.78395L12.072 6.20795Z"/><path d="M8.65593 6.65595C8.47193 6.85595 8.47993 7.17595 8.67993 7.35995C8.87993 7.54395 9.19193 7.53595 9.37593 7.33595C9.51193 7.19195 9.71993 7.09595 9.99993 7.09595C10.2639 7.09595 10.4959 7.19195 10.6239 7.33595C10.8079 7.53595 11.1199 7.54395 11.3199 7.35995C11.5199 7.16795 11.5279 6.85595 11.3439 6.65595C10.9839 6.27195 10.4559 6.09595 9.99993 6.09595C9.51993 6.10395 9.01593 6.27195 8.65593 6.65595Z"/><path d="M5.99993 7.10395C6.26393 7.10395 6.49593 7.19995 6.62393 7.34395C6.80793 7.54395 7.11993 7.55195 7.31993 7.36795C7.51993 7.17595 7.52793 6.86395 7.34393 6.65595C6.98393 6.27195 6.45593 6.09595 5.99993 6.09595C5.52793 6.09595 5.01593 6.26395 4.65593 6.65595C4.47193 6.86395 4.47993 7.17595 4.67993 7.36795C4.87993 7.55195 5.19193 7.54395 5.37593 7.34395C5.51193 7.19195 5.71993 7.10395 5.99993 7.10395Z"/><path d="M9.96003 9.55198C9.57603 9.95998 8.92803 10.4 8.00003 10.4C7.07203 10.4 6.42403 9.95998 6.04003 9.55198C5.81603 9.31198 5.44003 9.29598 5.19203 9.51998C4.92803 9.74398 4.93603 10.128 5.16003 10.368C5.70403 10.96 6.65603 11.6 8.00003 11.6C9.34403 11.6 10.296 10.96 10.84 10.368C11.064 10.128 11.048 9.74398 10.808 9.51998C10.56 9.29598 10.184 9.31198 9.96003 9.55198Z"/><path d="M14.368 7.41598C14.368 7.40798 14.368 7.39998 14.368 7.39998C14.368 7.07198 14.096 6.79998 13.768 6.79998C13.44 6.79998 13.168 7.07198 13.168 7.39998H13.16C13.176 7.59998 13.2 7.79998 13.2 7.99998C13.2 10.872 10.872 13.2 7.99998 13.2C5.12798 13.2 2.79998 10.872 2.79998 7.99998C2.79998 5.12798 5.12798 2.79998 7.99998 2.79998C8.55198 2.79998 9.07998 2.88798 9.58398 3.04798C9.58398 3.03998 9.58398 3.05598 9.58398 3.03998C9.59198 3.03998 9.59198 3.04798 9.59998 3.04798C9.92798 3.04798 10.2 2.75198 10.2 2.42398C10.2 2.09598 9.92798 1.82398 9.59998 1.82398C9.65598 1.82398 9.69598 1.82398 9.74398 1.83998C9.68798 1.82398 9.65598 1.81598 9.59998 1.79998C9.08798 1.67198 8.55198 1.59998 7.99998 1.59998C4.46398 1.59998 1.59998 4.46398 1.59998 7.99998C1.59998 11.536 4.46398 14.4 7.99998 14.4C11.536 14.4 14.4 11.536 14.4 7.99998C14.4 7.79998 14.384 7.60798 14.368 7.41598Z"/></svg>