<svg viewBox="0 0 16 17" xmlns="http://www.w3.org/2000/svg"><path fill-rule="evenodd" clip-rule="evenodd" d="M0 8.625C0 6.82139 0.59665 5.15732 1.60337 3.81936L6.06875 8.28474V8.625H4.41875V11.0688H6.06875V16.3906C2.58437 15.525 0 12.375 0 8.625ZM9.88388 8.625L11.3199 10.0611L11.5844 8.625H9.88388ZM14.5203 13.2614L15.4419 14.1831C15.686 14.4271 15.686 14.8229 15.4419 15.0669C15.1979 15.311 14.8021 15.311 14.5581 15.0669L1.55806 2.06694C1.31398 1.82286 1.31398 1.42714 1.55806 1.18306C1.80214 0.938981 2.19786 0.938981 2.44194 1.18306L3.36345 2.10456C4.67136 1.17292 6.27161 0.625 8 0.625C12.4187 0.625 16 4.20625 16 8.625C16 10.3535 15.4521 11.9537 14.5203 13.2614ZM6.52032 5.26143L8.97207 7.71318C8.98332 6.45456 9.49282 5.96875 10.7906 5.96875C11.2 5.96875 11.5281 5.98125 11.7156 6V3.7875C11.3562 3.6875 10.4813 3.5875 9.975 3.5875C8.22612 3.5875 7.09436 4.12714 6.52032 5.26143ZM8.96875 16.5656V11.1847L12.8052 15.0212C11.7107 15.8444 10.3978 16.3932 8.96875 16.5656Z"/></svg>