<svg viewBox="0 0 16 16" xmlns="http://www.w3.org/2000/svg"><path d="M7.29444 13.7778H1.77778C1.53333 13.7778 1.33333 13.5778 1.33333 13.3333V2.66667C1.33333 2.42222 1.53333 2.22222 1.77778 2.22222H6.22222V4.44444C6.22222 4.93611 6.61944 5.33333 7.11111 5.33333H9.33333V10.1583L10.6667 8.825V5.18056C10.6667 4.70833 10.4806 4.25556 10.1472 3.92222L7.63333 1.40833C7.3 1.075 6.84722 0.888889 6.375 0.888889H1.77778C0.797222 0.888889 0 1.68611 0 2.66667V13.3333C0 14.3139 0.797222 15.1111 1.77778 15.1111H7.18889C7.10278 14.8694 7.08889 14.6028 7.15278 14.3472L7.29444 13.7778Z"/><path d="M15.6722 7.83611L15.2722 7.43611C14.8361 7.00278 14.1333 7.00278 13.7 7.43611L12.8833 8.25278L14.8555 10.225L15.6722 9.40833C16.1055 8.97222 16.1055 8.26944 15.6722 7.83611Z"/><path d="M8.66383 12.4722V12.4694C8.54994 12.5833 8.46939 12.7278 8.4305 12.8833L8.01383 14.5528C7.97494 14.7056 8.01939 14.8639 8.1305 14.975C8.24161 15.0861 8.39994 15.1306 8.55272 15.0917L10.2222 14.675C10.3805 14.6361 10.5222 14.5556 10.6361 14.4417L14.2249 10.8556L12.2527 8.88333L8.66383 12.4722Z"/><path d="M5.32277 12.5339C5.81277 12.5339 6.20999 12.1526 6.20999 11.6822C6.20999 11.2119 5.81277 10.8306 5.32277 10.8306C4.83277 10.8306 4.43555 11.2119 4.43555 11.6822C4.43555 12.1526 4.83277 12.5339 5.32277 12.5339Z"/><path d="M6.01309 5.72083H4.39698C3.74004 5.72083 3.15504 6.1175 2.93337 6.71361L2.92226 6.74555C2.79754 7.07833 2.98059 7.44278 3.30198 7.5625C3.67337 7.67972 4.05337 7.50667 4.17532 7.17389L4.18921 7.13917C4.21976 7.05389 4.30282 6.97417 4.39698 6.97417H6.01309C6.24309 6.97417 6.43171 7.17917 6.43171 7.4C6.43171 7.54639 6.35143 7.67944 6.22115 7.75139L4.99309 8.4275C4.78504 8.54194 4.65754 8.75222 4.65754 8.98111V9.34028C4.65754 9.69417 4.95421 9.97889 5.32282 9.97889C5.68587 9.97889 5.98254 9.69944 5.96309 9.35083L6.88337 8.85861C7.42671 8.56055 7.76226 8.00444 7.76226 7.40028C7.76226 6.47417 6.97782 5.72083 6.01309 5.72083Z"/></svg>