<svg viewBox="0 0 16 16" xmlns="http://www.w3.org/2000/svg"><path d="M7.40278 6.96875L4.59237 9.46875C4.26302 9.76172 4.26302 10.2362 4.59237 10.5294C4.92171 10.8225 5.45516 10.8223 5.78469 10.5294L7.15687 9.30937V12.5C7.15687 12.9141 7.53452 13.25 8 13.25C8.46547 13.25 8.84312 12.9141 8.84312 12.5V9.30937L10.2143 10.5291C10.3783 10.6781 10.5926 10.75 10.8104 10.75C11.0282 10.75 11.2418 10.6767 11.4066 10.5303C11.7359 10.2373 11.7359 9.76278 11.4066 9.46966L8.59616 6.96966C8.26699 6.67812 7.73301 6.67812 7.40278 6.96875ZM14.0881 2.91812L11.4663 0.585625C11.0423 0.210687 10.4697 0 9.87595 0H3.50333C2.26148 0 1.255 0.895313 1.255 2L1.25523 14C1.25523 15.1044 2.26171 16 3.50356 16H12.4967C13.7332 16 14.745 15.1 14.745 14V4.33125C14.745 3.80313 14.5096 3.29375 14.0881 2.91812ZM13.0587 14C13.0587 14.2761 12.8071 14.5 12.4967 14.5H3.50403C3.19355 14.5 2.94195 14.2761 2.94195 14L2.94125 2.00406C2.94125 1.72794 3.19292 1.50406 3.50333 1.50406H9.12416V4C9.12416 4.55219 9.62758 5 10.2483 5H13.0271V14H13.0587Z"/></svg>