<svg viewBox="0 0 16 16" xmlns="http://www.w3.org/2000/svg"><path d="M13.7143 4.57143C14.9767 4.57143 16 3.54808 16 2.28571C16 1.02335 14.9767 0 13.7143 0C12.4519 0 11.4286 1.02335 11.4286 2.28571C11.4286 3.54808 12.4519 4.57143 13.7143 4.57143Z"/><path d="M12.0571 5.26853L9.16571 8.76568C9.05143 8.90282 8.99428 9.06282 8.99428 9.23425V12.9028L7.00571 11.3371V9.23425C7.00571 9.06282 6.94857 8.90282 6.83429 8.76568L1.72571 2.58282H10.32C10.3086 2.47996 10.2857 2.38853 10.2857 2.28568C10.2857 1.86282 10.3771 1.47425 10.5143 1.09711H1.30286C0.582857 1.09711 0 1.67996 0 2.38853C0 2.68568 0.102857 2.97139 0.297143 3.19996L5.50857 9.49711V11.4628C5.50857 11.84 5.68 12.1943 5.97714 12.4228L8.86857 14.6514C9.05143 14.8228 9.26857 14.8914 9.49714 14.8914C10.0571 14.8914 10.5029 14.4457 10.5029 13.8971V9.49711L13.6343 5.71425C13.0629 5.69139 12.5257 5.53139 12.0571 5.26853Z"/></svg>