<svg viewBox="0 0 16 16" xmlns="http://www.w3.org/2000/svg"><path d="M8.59464 1.36585C8.49554 1.14487 8.2625 1 8 1C7.7375 1 7.50446 1.14487 7.40536 1.36585L3.19464 10.8214H2.64286C2.28661 10.8214 2 11.0842 2 11.4107C2 11.7373 2.28661 12 2.64286 12H5.64286C5.9991 12 6.28571 11.7373 6.28571 11.4107C6.28571 11.0842 5.9991 10.8214 5.64286 10.8214H4.58482L5.46071 8.85714H10.542L11.4178 10.8214H10.3571C10.0009 10.8214 9.71432 11.0842 9.71432 11.4107C9.71432 11.7373 10.0009 12 10.3571 12H13.3571C13.7134 12 14 11.7373 14 11.4107C14 11.0842 13.7134 10.8214 13.3571 10.8214H12.8054L8.59464 1.36585ZM10.017 7.67857H5.98303L8 3.14844L10.017 7.67857Z"/><path d="M1.65625 13.5H14.3438C14.7074 13.5 15 13.8344 15 14.25C15 14.6656 14.7074 15 14.3438 15H1.65625C1.29258 15 1 14.6656 1 14.25C1 13.8344 1.29258 13.5 1.65625 13.5Z"/></svg>