<svg viewBox="0 0 16 16" xmlns="http://www.w3.org/2000/svg"><path d="M10.3357 4.56077C10.0769 3.81587 9.61351 3.15758 8.99777 2.66016C8.38202 2.16274 7.63845 1.846 6.85095 1.74568C6.68216 1.18245 6.31436 0.698515 5.81505 0.382684C5.31574 0.0668522 4.71841 -0.05969 4.13267 0.0262786C3.54693 0.112247 3.01208 0.40496 2.62626 0.850702C2.24044 1.29644 2.02954 1.86531 2.03225 2.45292V9.42931C2.01182 9.63199 2 9.83787 2 10.0469C2.00026 11.1234 2.29453 12.1796 2.85151 13.1032C3.40849 14.0269 4.20735 14.7834 5.1631 15.2924C6.11885 15.8013 7.19574 16.0436 8.27921 15.9935C9.36268 15.9435 10.4122 15.6028 11.3161 15.0079C12.2201 14.413 12.9446 13.586 13.4126 12.615C13.8807 11.6439 14.0747 10.5651 13.9741 9.49336C13.8736 8.42158 13.4821 7.39691 12.8414 6.52834C12.2008 5.65978 11.3348 4.97981 10.3357 4.56077V4.56077ZM8 15.0403C7.20175 15.0386 6.41543 14.8479 5.70635 14.4841C4.99726 14.1203 4.38587 13.5938 3.92297 12.9484C4.56602 13.38 5.3154 13.6294 6.09057 13.67C6.86575 13.7106 7.63743 13.5408 8.32267 13.1788C9.00791 12.8169 9.58081 12.2765 9.9798 11.6157C10.3788 10.9548 10.5888 10.1986 10.5872 9.42825V5.93579C10.5872 5.88352 10.5743 5.82911 10.5722 5.78324C11.5203 6.33894 12.2576 7.18902 12.6703 8.20215C13.0829 9.21527 13.1479 10.3351 12.8552 11.3885C12.5625 12.4419 11.9284 13.3704 11.0508 14.0304C10.1733 14.6905 9.1011 15.0454 8 15.0403V15.0403ZM9.61232 5.93579V9.43038C9.61458 10.0179 9.45727 10.5952 9.15694 11.1015C8.8566 11.6078 8.42434 12.0244 7.90562 12.3076C7.38689 12.5908 6.80086 12.73 6.20916 12.7106C5.61746 12.6912 5.04196 12.514 4.54317 12.1975C5.18895 12.1849 5.80413 11.9221 6.25712 11.4652C6.7101 11.0082 6.96491 10.3935 6.96704 9.75253V5.16561C7.30667 5.09415 7.65282 5.05768 8 5.0568C8.52927 5.06402 9.05398 5.15513 9.55428 5.32668C9.59273 5.52748 9.61217 5.7314 9.61232 5.93579V5.93579ZM5.99749 5.47496V9.74187C5.98852 10.1234 5.8321 10.4869 5.56059 10.7571C5.28908 11.0273 4.92328 11.1837 4.53887 11.1937C4.14173 11.1966 3.758 11.0512 3.46399 10.7862C3.33259 10.6606 3.22517 10.5124 3.1469 10.3488C3.07257 10.1 3.02819 9.84322 3.01469 9.58399C3.09644 8.69703 3.41625 7.84802 3.94085 7.12536C4.46544 6.40269 5.17563 5.83279 5.99749 5.47496V5.47496ZM8 4.09142C7.65355 4.09318 7.30792 4.12495 6.96704 4.18635V2.71961C7.40459 2.81027 7.81915 2.9878 8.18581 3.2415C8.55247 3.49521 8.86366 3.81986 9.10068 4.19595C8.73775 4.12798 8.36933 4.09299 8 4.09142V4.09142ZM3.00179 3.27857V2.45292C2.99952 2.12181 3.10916 1.79949 3.31319 1.53749C3.51722 1.27548 3.80385 1.08891 4.12729 1.00759C4.45073 0.926267 4.7923 0.95489 5.09742 1.08888C5.40254 1.22288 5.65359 1.4545 5.81046 1.74675C4.70862 1.87384 3.70057 2.42362 3.00179 3.27857V3.27857ZM3.00179 5.93579C3.00611 5.1217 3.31502 4.33825 3.86858 3.73745C4.42213 3.13665 5.18085 2.76136 5.99749 2.6844V4.44024C4.77306 4.87244 3.72225 5.68591 3.00179 6.7593V5.93579Z"/></svg>