<svg viewBox="0 0 16 16" xmlns="http://www.w3.org/2000/svg"><path d="M15.131 5.01693C14.6297 5.01693 14.2175 5.41932 14.2175 5.92231V8.1578L13.7162 7.59893L11.6774 5.31872C11.3607 4.93744 10.7263 4.89819 10.374 5.25166C10.2403 5.12871 10.0732 5.02811 9.88377 5.00575C9.71666 4.9834 9.54955 5.02811 9.39358 5.10635C9.49846 5.05503 8.00713 6.12397 7.7002 6.38058V5.92231C7.7002 4.72632 5.88427 4.72632 5.88427 5.92231V7.29714H3.27735C2.09644 7.29714 2.09644 9.08553 3.27735 9.09671H4.32457C3.77868 9.83442 2.54206 9.82325 2.01845 9.04082C1.64656 8.54333 1.63755 7.82864 2.01845 7.33067L2.02959 7.30832C2.43066 6.76062 3.22165 6.5706 3.83438 6.88357C4.17974 7.05123 4.60309 6.96181 4.85932 6.6712C5.04872 6.47 5.11556 6.20174 5.05986 5.92231C4.88161 5.16224 3.91237 5.05046 3.24393 5.00575C3.21051 5.00575 3.18822 5.00575 3.1548 5.00575C3.12138 5.00575 3.0991 5.00575 3.07682 5.00575C2.28583 5.05046 1.52826 5.37461 0.960089 5.94466C0.347352 6.54825 0.0131316 7.33067 0.00199092 8.16898C-0.0648531 9.95738 1.56169 11.5334 3.34419 11.4216C3.38876 11.4216 3.43332 11.4216 3.46674 11.4104C3.46674 11.4104 3.46674 11.4104 3.4556 11.4104C3.47788 11.4104 3.48902 11.4104 3.50016 11.4104C4.45826 11.321 5.30495 10.818 5.8397 10.0468V10.5386C5.85085 11.7346 7.65563 11.7346 7.65563 10.5386V10.1027L9.15963 11.254C9.36016 11.4104 9.58297 11.4775 9.82807 11.444H9.83921C9.85035 11.444 9.85035 11.444 9.86149 11.444C10.0397 11.4216 10.2068 11.3322 10.3405 11.2093C10.8753 11.7681 11.9002 11.3322 11.8668 10.5498V9.24202C11.8668 9.09671 11.8668 8.48195 11.8668 8.32546L12.4795 9.00729L14.418 11.1534C14.5882 11.3241 14.808 11.444 15.053 11.444C15.3204 11.444 15.5544 11.3322 15.7215 11.1534C15.8249 11.0495 15.922 10.9035 15.922 10.751C15.922 9.1416 15.9443 7.53192 15.9443 5.92231C15.9443 5.3362 15.6324 5.01693 15.131 5.01693ZM10.9867 10.8404C10.8084 10.8404 10.6748 10.6951 10.6748 10.5163V6.93946L11.2986 7.63246V8.78374C11.2986 8.86198 11.2986 10.4045 11.2986 10.5386C11.2986 10.7063 11.1649 10.8404 10.9867 10.8404ZM9.79464 10.8292C9.70552 10.8404 9.62753 10.818 9.54955 10.7622L7.67792 9.33144V8.68314L7.77818 8.6049L9.95061 10.2703C10.0175 10.3262 10.062 10.3933 10.0732 10.4827V10.4939C10.0732 10.4827 10.0732 10.5051 10.0732 10.5163C10.0732 10.5833 10.0509 10.6616 10.0063 10.7174C9.96175 10.7845 9.88377 10.818 9.79464 10.8292ZM6.78666 10.8404C6.61955 10.8404 6.47472 10.7063 6.47472 10.5274V9.13024L7.08746 9.62205C7.0429 10.058 7.26571 10.8404 6.78666 10.8404ZM5.34951 9.745C4.91503 10.3486 4.22431 10.7398 3.47788 10.8069C3.46674 10.8069 3.43332 10.8069 3.46674 10.8069C3.44446 10.8069 3.42218 10.8069 3.42218 10.8069H3.41104C3.38876 10.8069 3.37762 10.8069 3.35533 10.8069C3.32191 10.8069 3.27735 10.8069 3.24393 10.8069C3.24393 10.8069 3.24393 10.8069 3.23279 10.8069C3.22165 10.8069 3.19936 10.8069 3.18822 10.8069C2.34464 10.7716 1.6257 10.3448 1.1272 9.67794C-0.131697 8.10192 1.1272 5.65405 3.08796 5.62052C3.52965 5.62052 4.15385 5.62052 4.4694 6.05644C4.54024 6.3265 4.15385 6.38462 4.09062 6.34705C3.29963 5.95584 2.29697 6.1235 1.69537 6.78297C1.30545 7.19654 1.10492 7.73306 1.13834 8.30311C1.19404 9.34262 2.01845 10.1697 3.06568 10.2368C3.1548 10.2368 3.21051 10.2368 3.29963 10.2368C4.0572 10.1921 4.69221 9.73383 5.01529 9.08553H5.68373C5.59461 9.32026 5.49434 9.54381 5.34951 9.745ZM3.27735 8.48195C2.88743 8.48195 2.89857 7.88954 3.27735 7.88954H4.63651C4.63651 8.08882 4.6356 8.27507 4.60309 8.47077L3.27735 8.48195ZM6.78666 5.60934C7.26571 5.60934 7.05404 6.40294 7.0986 6.85004L6.47472 7.33067V5.92231C6.47472 5.74347 6.60841 5.60934 6.78666 5.60934ZM9.58297 5.6764C9.71666 5.56463 9.91719 5.58698 10.0175 5.72111C10.1289 5.85524 10.0954 6.04526 9.96175 6.15703L8.98137 6.92828L7.78932 7.84483L7.7002 7.76659V7.14065L9.58297 5.6764ZM10.0732 6.82768V9.5997L8.26837 8.21369L9.32674 7.39773L10.0732 6.82768ZM6.58613 8.47077C6.46358 8.37018 6.4413 8.18016 6.53043 8.04603L7.08746 7.61011C7.07632 7.83366 7.0986 8.09074 7.28799 8.22487C7.08746 8.37017 7.07632 8.62726 7.08746 8.85081L6.58613 8.47077ZM11.2986 6.72709L10.7639 6.1235C10.6185 5.97766 10.6852 5.64287 10.9199 5.64287C11.4668 5.64287 11.3077 6.38462 11.2986 6.72709ZM5.85085 7.90072C5.87313 8.0125 5.87313 8.21369 5.82856 8.49313H5.21583C5.25484 8.2974 5.24925 8.09916 5.24925 7.90072H5.85085ZM11.9002 7.39773V6.47L13.2705 8.00132L14.2175 9.052V9.97973L11.9002 7.39773ZM15.131 5.62052C15.2981 5.62052 15.443 5.76582 15.443 5.93348V8.78374C15.443 8.92905 15.443 9.37615 15.443 9.52145L14.8191 8.82845V5.92231C14.8191 5.75465 14.9528 5.62052 15.131 5.62052ZM15.1087 10.8292C14.6923 10.8462 14.8191 10.1259 14.8191 9.73383L15.3538 10.3262C15.4095 10.4045 15.443 10.4827 15.4318 10.561C15.3978 10.7398 15.2824 10.8292 15.1087 10.8292C15.1199 10.8292 15.1199 10.8292 15.1087 10.8292Z"/></svg>