<svg viewBox="0 0 16 16" xmlns="http://www.w3.org/2000/svg"><path fill-rule="evenodd" clip-rule="evenodd" d="M2.76233 12.2492C2.44863 12.5629 2.411 13.0343 2.67833 13.3016C2.94667 13.57 3.41706 13.5313 3.73076 13.2176L13.2009 3.74745C13.5158 3.43256 13.5533 2.96336 13.2849 2.69502C13.0176 2.42769 12.5474 2.46413 12.2325 2.77902L2.76233 12.2492ZM7.66558 12.3459L12.3625 7.64901C12.6395 7.37203 13.0451 7.38872 13.3054 7.64901C13.5657 7.9093 13.5657 8.33165 13.3054 8.59193L8.6085 13.2889C8.3492 13.5482 7.92586 13.5492 7.66558 13.2889C7.40529 13.0286 7.40627 12.6052 7.66558 12.3459Z"/></svg>