<svg viewBox="0 0 16 16" xmlns="http://www.w3.org/2000/svg"><path d="M1.84548e-05 3.79999C1.84548e-05 3.55749 0.0550184 3.32499 0.152518 3.11999L3.28252 5.58499L1.94252 8.59749C1.83252 8.84999 1.94502 9.14749 2.19752 9.25749C2.45002 9.36749 2.74502 9.25499 2.85752 9.00249L3.08002 8.49999H4.92002L5.14252 9.00249C5.25502 9.25499 5.55002 9.36999 5.80252 9.25749C6.05502 9.14499 6.17002 8.84999 6.05752 8.59749C5.87002 8.17499 5.68252 7.75249 5.49252 7.32749C6.32752 7.98499 7.16252 8.64499 8.00002 9.30249V10.6H9.64502L11.1675 11.8H1.60002C0.717518 11.8 1.84548e-05 11.0825 1.84548e-05 10.2V3.79999ZM0.127518 0.829994C0.332518 0.569994 0.710018 0.522494 0.970018 0.727494L2.84752 2.19999H14.4C15.2825 2.19999 16 2.91749 16 3.79999V10.2C16 10.8825 15.57 11.4675 14.965 11.6975L15.77 12.3275C16.03 12.5325 16.0775 12.91 15.8725 13.17C15.6675 13.43 15.29 13.4775 15.03 13.2725L0.230018 1.67249C-0.0299815 1.46749 -0.0774815 1.08999 0.127518 0.829994ZM3.52502 7.49999L4.00002 6.42999L4.47502 7.49999H3.52502ZM8.00002 3.39999V6.23749L10.5025 8.19749C10.5875 8.15249 10.67 8.10499 10.75 8.05749L10.4475 7.75499C10.2525 7.55999 10.2525 7.24249 10.4475 7.04749C10.6425 6.85249 10.96 6.85249 11.155 7.04749L11.5325 7.42499C11.8425 7.09749 12.095 6.71749 12.2775 6.29999H9.60002C9.32502 6.29999 9.10002 6.07499 9.10002 5.79999C9.10002 5.52499 9.32502 5.29999 9.60002 5.29999H10.9V5.19999C10.9 4.92499 11.125 4.69999 11.4 4.69999C11.675 4.69999 11.9 4.92499 11.9 5.19999V5.29999H13.4C13.675 5.29999 13.9 5.52499 13.9 5.79999C13.9 6.07499 13.675 6.29999 13.4 6.29999H13.35L13.305 6.41249C13.0825 7.02499 12.745 7.57749 12.315 8.04749C12.3375 8.05999 12.36 8.07499 12.3825 8.08749L12.855 8.36999C13.0925 8.50999 13.1675 8.81749 13.0275 9.05499C12.8875 9.29249 12.58 9.36999 12.3425 9.22749L11.87 8.94499C11.7575 8.87749 11.65 8.80749 11.5425 8.73249C11.48 8.77749 11.415 8.82249 11.35 8.86249L13.565 10.6H14.4C14.62 10.6 14.8 10.42 14.8 10.2V3.79999C14.8 3.57999 14.62 3.39999 14.4 3.39999H8.00002Z"/></svg>