<svg viewBox="0 0 16 16" xmlns="http://www.w3.org/2000/svg"><path d="M14.16 2.9L15.78 1.28C16.07 0.99 16.07 0.51 15.78 0.22C15.49 -0.07 15.01 -0.07 14.72 0.22L0.22 14.72C-0.07 15.01 -0.07 15.49 0.22 15.78C0.37 15.92 0.56 16 0.75 16C0.94 16 1.13 15.93 1.28 15.78L2.9 14.16C4.33 15.35 6.12 16 8 16C12.41 16 16 12.41 16 8C16 6.11 15.35 4.33 14.16 2.9ZM14.5 8C14.5 9.52 13.97 10.92 13.09 12.03L11.48 10.42C11.96 9.73 12.25 8.9 12.25 8C12.25 7.12 11.98 6.29 11.48 5.58L13.09 3.97C14 5.11 14.5 6.51 14.5 8ZM10.39 6.67C10.62 7.07 10.75 7.53 10.75 8C10.75 9.52 9.52 10.75 8 10.75C7.52 10.75 7.07 10.62 6.67 10.39L10.39 6.67ZM3.97 13.09L5.58 11.48C6.29 11.97 7.12 12.25 8 12.25C8.9 12.25 9.73 11.96 10.42 11.48L12.03 13.09C10.92 13.97 9.52 14.5 8 14.5C6.52 14.5 5.11 14 3.97 13.09Z"/><path d="M1.42 11.79C1.53 11.79 1.63 11.77 1.73 11.72C2.11 11.55 2.27 11.1 2.1 10.72C1.7 9.87 1.5 8.95 1.5 8C1.5 6.48 2.03 5.08 2.91 3.97L4.52 5.58C4.05 6.26 3.76 7.07 3.75 7.95C3.75 8.36 4.08 8.7 4.49 8.71H4.5C4.91 8.71 5.25 8.38 5.25 7.97C5.27 6.49 6.49 5.26 7.97 5.25C8.38 5.25 8.72 4.91 8.71 4.49C8.71 4.08 8.41 3.74 7.95 3.75C7.07 3.76 6.25 4.05 5.58 4.52L3.97 2.91C5.08 2.03 6.48 1.5 8 1.5C8.95 1.5 9.87 1.7 10.73 2.1C11.1 2.27 11.55 2.11 11.73 1.73C11.9 1.35 11.74 0.91 11.36 0.73C10.3 0.25 9.17 0 8 0C3.59 0 0 3.59 0 8C0 9.17 0.25 10.3 0.74 11.36C0.86 11.63 1.14 11.79 1.42 11.79Z"/></svg>