<svg viewBox="0 0 16 16" xmlns="http://www.w3.org/2000/svg"><path d="M14.2319 2.8275L15.7824 1.2775C16.0725 0.9875 16.0725 0.5075 15.7824 0.2175C15.4923 -0.0725 15.0122 -0.0725 14.7221 0.2175L0.217568 14.7175C-0.0725227 15.0075 -0.0725227 15.4875 0.217568 15.7775C0.367615 15.9175 0.557674 15.9975 0.747734 15.9975C0.937793 15.9975 1.12785 15.9275 1.2779 15.7775L4.39887 12.6575C5.1091 12.9475 5.86933 13.1575 6.68959 13.2675C6.94967 13.3275 7.29978 13.4375 7.38981 13.6575C7.46983 13.8575 7.43982 14.1775 7.41982 14.3775L7.30978 15.0575C7.26977 15.2675 7.14973 15.8575 8 15.4975C8.85027 15.1375 12.6014 12.7875 14.272 10.8575C15.4323 9.5875 15.9825 8.2975 15.9825 6.8675C15.9925 5.3375 15.3323 3.9375 14.2319 2.8275ZM10.3907 8.7775C10.3907 8.8675 10.3207 8.9275 10.2307 8.9275H9.67052C9.66052 8.9275 9.64051 8.9275 9.63051 8.9175L9.6105 8.9275H9.5905C9.5905 8.9275 9.58049 8.9275 9.58049 8.9175C9.57049 8.8975 9.55048 8.8775 9.54048 8.8675L8.9703 8.0875L10.3907 6.6675V8.7775ZM13.4817 5.8575C13.4817 5.9475 13.4117 6.0175 13.3217 6.0175H11.8012V6.6075H13.3217C13.4117 6.6075 13.4817 6.6775 13.4817 6.7675V7.3275C13.4817 7.4175 13.4117 7.4775 13.3217 7.4775H11.8012V8.0675H13.3217C13.4117 8.0675 13.4817 8.1375 13.4817 8.2275V8.7875C13.4817 8.8775 13.4117 8.9475 13.3217 8.9475H11.081C11.041 8.9475 11.0009 8.9275 10.9709 8.9075C10.9409 8.8775 10.9309 8.8375 10.9309 8.7975V6.1275L11.9112 5.1475H13.3217C13.4117 5.1475 13.4817 5.2175 13.4817 5.3075V5.8575Z"/><path d="M2.18818 11.3175L4.57893 8.9275H2.78837C2.74836 8.9275 2.70835 8.9075 2.67834 8.8875C2.64833 8.8575 2.62832 8.8175 2.62832 8.7775V5.2975C2.62832 5.2075 2.69834 5.1375 2.78837 5.1375H3.34855C3.43857 5.1375 3.5086 5.2075 3.5086 5.2975V8.0575H5.02907C5.1191 8.0575 5.18912 8.1275 5.18912 8.2175V8.3275L5.66927 7.8475V5.2975C5.66927 5.2075 5.73929 5.1375 5.82932 5.1375H6.3895C6.47952 5.1375 6.54955 5.2075 6.54955 5.2975V6.9775L7.08972 6.4375V5.2975C7.08972 5.2075 7.15974 5.1375 7.24977 5.1375H7.80994C7.80994 5.1375 7.80994 5.1375 7.81994 5.1375H7.87996C7.87996 5.1375 7.87996 5.1375 7.88997 5.1375C7.89997 5.1375 7.89997 5.1375 7.89997 5.1375C7.89997 5.1375 7.89997 5.1375 7.90997 5.1375L7.92998 5.1575L7.89997 5.1875L7.90997 5.1975C7.90997 5.2075 7.91997 5.2075 7.91997 5.2175L8.08002 5.4375L12.1613 1.3575C10.9509 0.7475 9.53048 0.3875 8 0.3875C3.59862 0.3875 0.00750233 3.2975 0.00750233 6.8675C0.00750233 8.5875 0.837762 10.1575 2.18818 11.3175Z"/></svg>