<svg viewBox="0 0 16 16" xmlns="http://www.w3.org/2000/svg"><path d="M14.4445 3C14.8139 3 15.1112 3.29861 15.1112 3.66667C15.1112 4.03611 14.8139 4.33333 14.4445 4.33333H6.88895C6.5195 4.33333 6.22228 4.03611 6.22228 3.66667C6.22228 3.29861 6.5195 3 6.88895 3H14.4445ZM14.4445 7.44444C14.8139 7.44444 15.1112 7.74167 15.1112 8.11111C15.1112 8.48056 14.8139 8.77778 14.4445 8.77778H6.88895C6.5195 8.77778 6.22228 8.48056 6.22228 8.11111C6.22228 7.74167 6.5195 7.44444 6.88895 7.44444H14.4445ZM14.4445 11.8889C14.8139 11.8889 15.1112 12.1861 15.1112 12.5556C15.1112 12.925 14.8139 13.2222 14.4445 13.2222H6.88895C6.5195 13.2222 6.22228 12.925 6.22228 12.5556C6.22228 12.1861 6.5195 11.8889 6.88895 11.8889H14.4445Z"/><path d="M4.17431 1.89C4.00489 1.89 3.84047 1.95305 3.71687 2.05942C3.46996 1.94333 3.18945 1.89 2.91837 1.89C1.85158 1.89 0.975586 2.76599 0.975586 3.83306V4.67017C0.975586 5.74696 1.85158 6.61323 2.91865 6.61323C3.19694 6.61323 3.46802 6.55019 3.71715 6.44381C3.8363 6.54907 3.99183 6.60907 4.15709 6.61295C4.54565 6.62212 4.86393 6.293 4.86393 5.90444V2.57963C4.86143 2.19968 4.55176 1.89 4.17431 1.89ZM3.50301 4.67239C3.50301 5.03456 3.15417 5.32452 2.77784 5.22037C2.53009 5.15177 2.36428 4.91847 2.36428 4.66156V3.83084C2.36706 3.47978 2.69118 3.19982 3.05474 3.27675C3.31915 3.33258 3.50301 3.57421 3.50301 3.84445V4.67239Z"/><path d="M2.9195 9.96255L2.917 9.96005C2.71175 9.96005 2.504 9.99171 2.30597 10.0514V8.56302C2.30597 8.16697 1.9002 7.92117 1.68078 7.92117C1.30611 7.92117 1.0006 8.21224 1.0006 8.56302V13.6826C1.0006 14.0384 1.31028 14.3333 1.69022 14.3333C1.85965 14.3333 2.02407 14.2703 2.14016 14.1711C2.38707 14.28 2.66759 14.3333 2.94588 14.3333C4.02268 14.3333 4.88895 13.5276 4.88895 12.538V11.7823C4.88895 10.7766 4.00101 9.96255 2.9195 9.96255ZM3.50025 12.5264C3.50025 12.7988 3.24223 13.0252 2.93089 13.0252C2.61954 13.0252 2.36152 12.7988 2.36152 12.5264V11.7623C2.36152 11.4898 2.61954 11.2635 2.93089 11.2635C3.24223 11.2635 3.50025 11.4898 3.50025 11.7623V12.5264Z"/></svg>