<svg viewBox="0 0 16 16" xmlns="http://www.w3.org/2000/svg"><path d="M6.11039 3.2278C5.95727 3.37357 5.75875 3.45 5.54328 3.45C5.32809 3.45 5.1293 3.37357 4.97617 3.2278C4.82305 3.08204 4.73199 2.87404 4.73199 2.66877C4.73199 2.4635 4.82305 2.25796 4.97617 2.11219C5.1293 1.96643 5.32809 1.89 5.54328 1.89C5.75848 1.89 5.95727 1.96397 6.11039 2.10974C6.26352 2.2555 6.35457 2.46104 6.35457 2.66877C6.35457 2.8765 6.26352 3.08204 6.11039 3.2278Z"/><path d="M6.0691 5.88722H6.16207C6.55117 5.88722 6.81832 6.18287 6.81832 6.55347C6.81832 6.92407 6.55117 7.21972 6.16207 7.21972L4.65625 7.22C4.31965 7.22 4 6.91713 4 6.55375C4 6.19036 4.31965 5.8875 4.65625 5.8875H4.7566V4.94725C4.41836 4.94725 4.09707 4.65327 4.09707 4.27906C4.09707 3.90485 4.41836 3.60836 4.7566 3.61086H5.40902C5.80004 3.61086 6.06855 3.91456 6.06855 4.27906L6.0691 5.88722Z"/><path d="M14.4445 3C14.8139 3 15.1111 3.29861 15.1111 3.66667C15.1111 4.03611 14.8139 4.33334 14.4445 4.33334L8.66667 4.325C8.29722 4.325 8 4.02778 8 3.65834C8 3.29028 8.29722 2.99167 8.66667 2.99167L14.4445 3Z"/><path d="M14.4445 7.44445C14.8139 7.44445 15.1111 7.74167 15.1111 8.11111C15.1111 8.48056 14.8139 8.77778 14.4445 8.77778L8.66667 8.76945C8.29722 8.76945 8 8.47222 8 8.10278C8 7.73334 8.29722 7.43611 8.66667 7.43611L14.4445 7.44445Z"/><path d="M14.4445 11.8889C14.8139 11.8889 15.1111 12.1861 15.1111 12.5556C15.1111 12.925 14.8139 13.2222 14.4445 13.2222L8.66667 13.2139C8.29722 13.2139 8 12.9167 8 12.5472C8 12.1778 8.29722 11.8806 8.66667 11.8806L14.4445 11.8889Z"/><path d="M3.11039 10.3401C2.95727 10.4861 2.75875 10.5627 2.54328 10.5627C2.32809 10.5627 2.1293 10.4861 1.97617 10.3401C1.82305 10.1941 1.73199 9.98574 1.73199 9.78012C1.73199 9.57449 1.82305 9.36859 1.97617 9.22258C2.1293 9.07656 2.32809 9 2.54328 9C2.75848 9 2.95727 9.0741 3.11039 9.22012C3.26352 9.36613 3.35457 9.57203 3.35457 9.78012C3.35457 9.9882 3.26352 10.1941 3.11039 10.3401Z"/><path d="M3.0691 13.0172H3.16207C3.55117 13.0172 3.81832 13.3084 3.81832 13.6735C3.81832 14.0385 3.55117 14.3297 3.16207 14.3297L1.65625 14.33C1.31965 14.33 1 14.0317 1 13.6737C1 13.3158 1.31965 13.0175 1.65625 13.0175H1.7566V12.0913C1.41836 12.0913 1.09707 11.8018 1.09707 11.4332C1.09707 11.0646 1.41836 10.7726 1.7566 10.775H2.40902C2.80004 10.775 3.06855 11.0742 3.06855 11.4332L3.0691 13.0172Z"/><path d="M6.29039 10.3401C6.13726 10.4861 5.93875 10.5627 5.72328 10.5627C5.50808 10.5627 5.30929 10.4861 5.15617 10.3401C5.00304 10.1941 4.91199 9.98574 4.91199 9.78012C4.91199 9.57449 5.00304 9.36859 5.15617 9.22258C5.30929 9.07656 5.50808 9 5.72328 9C5.93847 9 6.13726 9.0741 6.29039 9.22012C6.44351 9.36613 6.53457 9.57203 6.53457 9.78012C6.53457 9.9882 6.44351 10.1941 6.29039 10.3401Z"/><path d="M6.24909 13.0172H6.34206C6.73116 13.0172 6.99831 13.3084 6.99831 13.6734C6.99831 14.0385 6.73116 14.33 6.34206 14.33H4.83624C4.49964 14.33 4.17999 14.0317 4.17999 13.6737C4.17999 13.3158 4.49964 13.0175 4.83624 13.0175H4.93659V12.0913C4.59835 12.0913 4.27706 11.8018 4.27706 11.4332C4.27706 11.0646 4.59835 10.7725 4.93659 10.775H5.58902C5.98003 10.775 6.24855 11.0742 6.24855 11.4332L6.24909 13.0172Z"/></svg>