<svg viewBox="0 0 20 20" xmlns="http://www.w3.org/2000/svg"><path fill-rule="evenodd" clip-rule="evenodd" d="M14.0003 12.0571C12.5273 12.0571 11.3335 13.285 11.3335 14.8C11.3335 16.315 12.5273 17.5429 14.0003 17.5429C15.4732 17.5429 16.667 16.315 16.667 14.8C16.667 13.285 15.4732 12.0571 14.0003 12.0571ZM15.667 14.8C15.667 15.7471 14.9211 16.5143 14.0003 16.5143C13.0794 16.5143 12.3335 15.7471 12.3335 14.7807V14.7379C12.4398 14.785 12.5523 14.8 12.6669 14.8C13.4023 14.8 14.0003 14.185 14.0003 13.4286C14.0003 13.3107 13.9857 13.195 13.9398 13.0857H14.0003C14.9211 13.0857 15.667 13.8529 15.667 14.8Z"/><path fill-rule="evenodd" clip-rule="evenodd" d="M1.25 0.382143C0.851172 0.645982 0.521875 1.0317 0.301719 1.49509C0.147812 1.8192 0.0470312 2.1808 0.0129141 2.56518C0.004375 2.66116 0 2.75848 0 2.85714V17.1429C0 18.7188 1.11914 20 2.5 20H12L14.6109 19.5648C16.0123 19.4021 17.1533 18.6951 18.0129 17.8729C18.988 16.9236 19.6401 15.8286 19.9484 15.0636C19.9605 15.0339 19.9705 15.0035 19.9783 14.9729L20 15V2.85714C20 1.27902 18.8789 0 17.5 0H2.5C2.41367 0 2.32852 0.0049108 2.24453 0.0147322C1.88477 0.0562501 1.54805 0.185268 1.25 0.382143ZM18.125 11.8361V5.71429H1.875V17.1429C1.875 17.5357 2.15469 17.8571 2.5 17.8571H9.97191C9.00579 16.9115 8.35956 15.8244 8.05128 15.0636C7.98291 14.8943 7.98291 14.7057 8.05128 14.5364C8.36127 13.7521 9.01296 12.6571 9.988 11.7271C10.9689 10.7894 12.3169 10 14.0003 10C15.6837 10 17.0316 10.7894 18.0129 11.7271C18.0508 11.7632 18.0881 11.7996 18.125 11.8361ZM10.6689 12.4793C11.5252 11.6629 12.6419 11.0286 14.0003 11.0286C15.3587 11.0286 16.4754 11.6629 17.3317 12.4793C18.1338 13.2464 18.6692 14.1379 18.9713 14.8C18.6692 15.4429 18.1338 16.3536 17.3317 17.1207C16.4754 17.9371 15.3587 18.5714 14.0003 18.5714C12.6419 18.5714 11.5252 17.9371 10.6689 17.1207C9.86675 16.3536 9.31298 15.4429 9.03005 14.8C9.31298 14.1379 9.86675 13.2464 10.6689 12.4793Z"/></svg>