<svg viewBox="0 0 16 16" xmlns="http://www.w3.org/2000/svg"><path d="M6.58022 10.9198C6.34499 10.9198 6.1543 11.1083 6.1543 11.3408C6.1543 11.5734 6.34499 11.7619 6.58022 11.7619H9.41972C9.65492 11.7619 9.84566 11.5734 9.84566 11.3408C9.84566 11.1083 9.65492 10.9198 9.41972 10.9198H6.58022Z"/><path fill-rule="evenodd" clip-rule="evenodd" d="M5.6509 2.91978C4.91053 2.91978 4.30859 3.5177 4.30859 4.25311V12.2531C4.30859 12.9885 4.91053 13.5864 5.6509 13.5864H10.349C11.0894 13.5864 11.6913 12.9885 11.6913 12.2531V4.25311C11.6913 3.5177 11.0894 2.91978 10.349 2.91978H5.6509ZM5.31532 4.25311C5.31532 4.06978 5.46633 3.91978 5.6509 3.91978H10.349C10.5336 3.91978 10.6846 4.06978 10.6846 4.25311V12.2531C10.6846 12.4364 10.5336 12.5864 10.349 12.5864H5.6509C5.46633 12.5864 5.31532 12.4364 5.31532 12.2531V4.25311Z"/><path d="M2.56912 10.5948C2.33388 10.5948 2.14319 10.7833 2.14319 11.0158C2.14319 11.2484 2.33388 11.4369 2.56912 11.4369H3.45674C3.45674 11.0601 3.45674 11.0601 3.45674 10.5948H2.56912Z"/><path fill-rule="evenodd" clip-rule="evenodd" d="M1.53439 3.48119C0.871954 3.48119 0.333374 4.01616 0.333374 4.67417V11.832C0.333374 12.49 0.871954 13.025 1.53439 13.025H3.45682C3.45682 10.5948 3.45682 5.23935 3.45682 3.48119H1.53439ZM1.23413 4.67417C1.23413 4.51013 1.36925 4.37592 1.53439 4.37592H3.45682C3.45682 4.99824 3.45682 11.4962 3.45682 12.1303H1.53439C1.36925 12.1303 1.23413 11.9961 1.23413 11.832V4.67417Z"/><path d="M13.4308 10.5948C13.666 10.5948 13.8567 10.7833 13.8567 11.0158C13.8567 11.2484 13.666 11.4369 13.4308 11.4369H12.5431C12.5431 11.0601 12.5431 11.0158 12.5431 10.5948H13.4308Z"/><path fill-rule="evenodd" clip-rule="evenodd" d="M14.4656 3.48119C15.128 3.48119 15.6666 4.01616 15.6666 4.67417V11.832C15.6666 12.49 15.128 13.025 14.4656 13.025H12.5432C12.5432 11.1776 12.5432 5.53017 12.5432 3.48119H14.4656ZM14.7659 4.67417C14.7659 4.51013 14.6308 4.37592 14.4656 4.37592H12.5432C12.5432 4.97765 12.5432 11.4369 12.5432 12.1303H14.4656C14.6308 12.1303 14.7659 11.9961 14.7659 11.832V4.67417Z"/></svg>