<svg viewBox="0 0 16 16" xmlns="http://www.w3.org/2000/svg"><path d="M3.20001 13.6471H12.8C14.4 13.6471 15.6235 12.4236 15.6235 10.8236V5.1765C15.6235 3.5765 14.4 2.35297 12.8 2.35297H3.20001C1.60001 2.35297 0.376476 3.5765 0.376476 5.1765V10.8236C0.376476 12.4236 1.69412 13.6471 3.20001 13.6471ZM12.8 4.23532C13.3647 4.23532 13.7412 4.61179 13.7412 5.1765V10.8236C13.7412 11.3883 13.3647 11.7647 12.8 11.7647H3.20001C2.6353 11.7647 2.25883 11.3883 2.25883 10.8236V5.1765C2.25883 4.61179 2.6353 4.23532 3.20001 4.23532H12.8Z"/><path d="M11.8588 5.1765C12.4235 5.1765 12.8 5.55297 12.8 6.11767V9.88238C12.8 10.4471 12.4235 10.8236 11.8588 10.8236C11.2941 10.8236 10.9177 10.4471 10.9177 9.88238V6.11767C10.9177 5.55297 11.2941 5.1765 11.8588 5.1765Z"/></svg>