<svg viewBox="0 0 16 16" xmlns="http://www.w3.org/2000/svg"><path d="M12.8 13.6467H3.19999C1.59999 13.6467 0.376465 12.4231 0.376465 10.8231V5.17607C0.376465 3.57607 1.59999 2.35254 3.19999 2.35254H12.8C14.4 2.35254 15.6235 3.57607 15.6235 5.17607V10.8231C15.6235 12.4231 14.3059 13.6467 12.8 13.6467ZM3.19999 4.23489C2.63529 4.23489 2.25882 4.61136 2.25882 5.17607V10.8231C2.25882 11.3878 2.63529 11.7643 3.19999 11.7643H12.8C13.3647 11.7643 13.7412 11.3878 13.7412 10.8231V5.17607C13.7412 4.61136 13.3647 4.23489 12.8 4.23489H3.19999Z"/><path d="M11 4.98783H3.95294C3.38823 4.98783 3.01176 5.3643 3.01176 5.92901V10.1643C3.01176 10.729 3.38823 11.1055 3.95294 11.1055H11.3125C11.8772 11.1055 12.2537 10.729 12.2537 10.1643V8.04666V5.92901C12.2537 5.3643 11.4706 4.98783 11 4.98783Z"/></svg>