<svg viewBox="0 0 16 16" xmlns="http://www.w3.org/2000/svg"><path d="M12.8 13.6471H3.19999C1.59999 13.6471 0.376465 12.4236 0.376465 10.8236V5.1765C0.376465 3.5765 1.59999 2.35297 3.19999 2.35297H12.8C14.4 2.35297 15.6235 3.5765 15.6235 5.1765V10.8236C15.6235 12.4236 14.3059 13.6471 12.8 13.6471ZM3.19999 4.23532C2.63529 4.23532 2.25882 4.61179 2.25882 5.1765V10.8236C2.25882 11.3883 2.63529 11.7647 3.19999 11.7647H12.8C13.3647 11.7647 13.7412 11.3883 13.7412 10.8236V5.1765C13.7412 4.61179 13.3647 4.23532 12.8 4.23532H3.19999Z"/></svg>