<svg viewBox="0 0 16 16" xmlns="http://www.w3.org/2000/svg"><path d="M10.2812 8.95938C10.6344 8.52813 11.2281 8.38125 11.7406 8.60312L15.2406 10.1031C15.7906 10.3375 16.0969 10.9312 15.9719 11.5125L15.2219 15.0125C15.0969 15.5875 14.5875 16 14 16C13.8094 16 13.6187 15.9969 13.4312 15.9875H13.4281C13.1156 15.975 12.8094 15.9531 12.5031 15.9187C5.475 15.175 0 9.225 0 2C0 1.40937 0.4125 0.9 0.9875 0.778125L4.4875 0.028125C5.07188 -0.096875 5.6625 0.209375 5.89687 0.759375L7.39687 4.25938C7.61562 4.77187 7.47188 5.36562 7.04063 5.71875L5.77187 6.75625C6.60625 8.19375 7.80625 9.39375 9.24375 10.2281L10.2812 8.95938ZM14.4625 11.4L11.325 10.0562L10.4062 11.175C9.94063 11.7438 9.13125 11.8906 8.49375 11.5219C6.82812 10.5563 5.44062 9.16875 4.475 7.50313C4.10625 6.86563 4.25313 6.05625 4.82188 5.59062L5.94375 4.67188L4.6 1.53437L1.50312 2.20312C1.60938 8.94375 7.05625 14.3906 13.7969 14.5L14.4625 11.4Z"/><path d="M15.7785 1.38789C16.0714 1.07039 16.0714 0.555624 15.7785 0.238124C15.4856 -0.0793748 15.0107 -0.0793748 14.7178 0.238124L11.2482 3.99928L9.7785 2.40615C9.48561 2.08865 9.01073 2.08865 8.71784 2.40615C8.42495 2.72364 8.42495 3.23841 8.71784 3.55591L10.7178 5.72393C10.8585 5.8764 11.0493 5.96206 11.2482 5.96206C11.4471 5.96206 11.6378 5.8764 11.7785 5.72393L15.7785 1.38789Z"/></svg>