<svg viewBox="0 0 16 16" xmlns="http://www.w3.org/2000/svg"><path fill-rule="evenodd" clip-rule="evenodd" d="M13.7193 4.32187C13.3598 4.16647 12.9439 4.27005 12.6973 4.57123L12.3165 5.03696C11.7748 4.68754 11.3125 4.22518 10.9631 3.68354L11.4288 3.3027C11.731 3.05521 11.8311 2.63896 11.6783 2.28109L10.9284 0.531333C10.7642 0.146324 10.3505 -0.0680661 9.94142 0.0194446L8.19163 0.394399C7.78835 0.480021 7.5 0.836956 7.5 1.24985C7.5 4.99129 10.3349 8.07232 13.9746 8.45791C14.1342 8.4758 14.2931 8.48731 14.4542 8.49376H14.4596C14.5568 8.49848 14.6544 8.50001 14.7502 8.50001C15.1622 8.50001 15.5182 8.21037 15.6056 7.80863L15.9805 6.05877C16.0682 5.65112 15.8537 5.23569 15.4685 5.07152L13.7193 4.32187ZM9.90138 1.3049L10.4181 2.51148L10.0026 2.85179C9.62317 3.16244 9.5257 3.70232 9.77127 4.12686C10.2759 4.9974 11.0013 5.72262 11.8718 6.2273C12.2963 6.47285 12.836 6.37516 13.1467 5.99582L13.4867 5.58177L14.6938 6.09873L14.448 7.24326C11.3754 7.08993 8.90999 4.62432 8.7582 1.55177L9.90138 1.3049Z"/><path fill-rule="evenodd" clip-rule="evenodd" d="M11.7406 8.60277C11.2281 8.3809 10.6344 8.52777 10.2812 8.95902L9.24375 10.2278C7.80625 9.3934 6.60625 8.1934 5.77187 6.7559L7.04063 5.7184C7.47188 5.36527 7.61562 4.77152 7.39687 4.25902L5.89687 0.759023C5.6625 0.209023 5.07188 -0.0972265 4.4875 0.0277735L0.9875 0.777773C0.4125 0.899648 0 1.40902 0 1.99965C0 9.22465 5.475 15.1746 12.5031 15.9184C12.8094 15.9528 13.1156 15.9746 13.4281 15.9871H13.4312C13.6187 15.9965 13.8094 15.9996 14 15.9996C14.5875 15.9996 15.0969 15.5871 15.2219 15.0121L15.9719 11.5121C16.0969 10.9309 15.7906 10.3371 15.2406 10.1028L11.7406 8.60277ZM11.325 10.0559L14.4625 11.3996L13.7969 14.4996C7.05625 14.3903 1.60938 8.9434 1.50312 2.20277L4.6 1.53402L5.94375 4.67152L4.82188 5.59027C4.25313 6.0559 4.10625 6.86527 4.475 7.50277C5.44062 9.1684 6.82812 10.5559 8.49375 11.5215C9.13125 11.8903 9.94063 11.7434 10.4062 11.1746L11.325 10.0559Z"/></svg>