<svg viewBox="0 0 16 16" xmlns="http://www.w3.org/2000/svg"><path d="M10.2812 8.95938C10.6344 8.52813 11.2281 8.38125 11.7406 8.60312L15.2406 10.1031C15.7906 10.3375 16.0969 10.9312 15.9719 11.5125L15.2219 15.0125C15.0969 15.5875 14.5875 16 14 16C13.8094 16 13.6187 15.9969 13.4312 15.9875H13.4281C13.1156 15.975 12.8094 15.9531 12.5031 15.9187C5.475 15.175 0 9.225 0 2C0 1.40938 0.4125 0.9 0.9875 0.778125L4.4875 0.028125C5.07188 -0.096875 5.6625 0.209375 5.89687 0.759375L7.39687 4.25938C7.61562 4.77187 7.47188 5.36562 7.04063 5.71875L5.77187 6.75625C6.60625 8.19375 7.80625 9.39375 9.24375 10.2281L10.2812 8.95938ZM14.4625 11.4L11.325 10.0562L10.4062 11.175C9.94063 11.7438 9.13125 11.8906 8.49375 11.5219C6.82812 10.5563 5.44062 9.16875 4.475 7.50313C4.10625 6.86563 4.25313 6.05625 4.82188 5.59062L5.94375 4.67188L4.6 1.53437L1.50312 2.20312C1.60938 8.94375 7.05625 14.3906 13.7969 14.5L14.4625 11.4Z"/><path d="M10.2766 8C9.90171 8 9.59086 7.68914 9.59086 7.31429C9.59086 6.81143 9.17943 6.40914 8.68571 6.40914C8.31086 6.40914 8 6.09829 8 5.72343C8 5.34857 8.31086 5.03771 8.68571 5.03771C9.94743 5.03771 10.9623 6.06171 10.9623 7.31429C10.9623 7.68914 10.6606 8 10.2766 8Z"/><path d="M12.8 8C12.4251 8 12.1143 7.68914 12.1143 7.31429C12.1143 5.42171 10.5783 3.88571 8.68571 3.88571C8.31086 3.88571 8 3.57486 8 3.2C8 2.82514 8.31086 2.51429 8.68571 2.51429C11.328 2.51429 13.4857 4.66286 13.4857 7.31429C13.4857 7.68914 13.1749 8 12.8 8Z"/><path d="M15.3143 8C14.9394 8 14.6286 7.68914 14.6286 7.31429C14.6286 4.04114 11.9589 1.37143 8.68571 1.37143C8.31086 1.37143 8 1.06057 8 0.685714C8 0.310857 8.31086 0 8.68571 0C12.7177 0 16 3.28229 16 7.31429C16 7.68914 15.6891 8 15.3143 8Z"/></svg>