<svg viewBox="0 0 17 16" xmlns="http://www.w3.org/2000/svg"><path d="M10.2812 8.95938C10.6344 8.52813 11.2281 8.38125 11.7406 8.60312L15.2406 10.1031C15.7906 10.3375 16.0969 10.9312 15.9719 11.5125L15.2219 15.0125C15.0969 15.5875 14.5875 16 14 16C13.8094 16 13.6187 15.9969 13.4312 15.9875H13.4281C13.1156 15.975 12.8094 15.9531 12.5031 15.9187C5.475 15.175 0 9.225 0 2C0 1.40937 0.4125 0.9 0.9875 0.778125L4.4875 0.028125C5.07188 -0.096875 5.6625 0.209375 5.89687 0.759375L7.39687 4.25938C7.61562 4.77187 7.47188 5.36562 7.04063 5.71875L5.77187 6.75625C6.60625 8.19375 7.80625 9.39375 9.24375 10.2281L10.2812 8.95938ZM14.4625 11.4L11.325 10.0562L10.4062 11.175C9.94063 11.7438 9.13125 11.8906 8.49375 11.5219C6.82812 10.5563 5.44062 9.16875 4.475 7.50313C4.10625 6.86563 4.25313 6.05625 4.82188 5.59062L5.94375 4.67188L4.6 1.53437L1.50312 2.20312C1.60938 8.94375 7.05625 14.3906 13.7969 14.5L14.4625 11.4Z"/><path d="M16.0048 2.51011C15.9509 2.35996 15.8518 2.23024 15.721 2.13888C15.5902 2.04752 15.4343 1.99903 15.2748 2.00011L13.7748 1.92011L13.2348 0.50011C13.1824 0.351788 13.0847 0.223702 12.9555 0.133973C12.8262 0.0442433 12.6721 -0.00258593 12.5148 0.000110218C12.3578 -0.00109773 12.2044 0.0463187 12.0755 0.135847C11.9465 0.225374 11.8485 0.352622 11.7948 0.50011L11.2548 1.89011L9.7548 2.00011C9.59934 2.01198 9.45086 2.06959 9.32808 2.16569C9.20529 2.26178 9.11369 2.39206 9.0648 2.54011C9.01543 2.68732 9.01297 2.84622 9.05775 2.99489C9.10253 3.14355 9.19234 3.27466 9.3148 3.37011L10.4748 4.31011L10.0848 5.77011C10.0449 5.92009 10.0512 6.07865 10.1029 6.22498C10.1547 6.37131 10.2494 6.49858 10.3748 6.59011C10.5054 6.67613 10.6584 6.72198 10.8148 6.72198C10.9712 6.72198 11.1242 6.67613 11.2548 6.59011L12.5148 5.77011L13.7748 6.59011C13.9049 6.67739 14.0581 6.72399 14.2148 6.72399C14.3715 6.72399 14.5247 6.67739 14.6548 6.59011C14.7806 6.4992 14.875 6.3715 14.9252 6.22464C14.9753 6.07777 14.9787 5.91896 14.9348 5.77011L14.5548 4.33011L15.7148 3.33011C15.8412 3.23953 15.9368 3.11233 15.9887 2.9657C16.0406 2.81906 16.0462 2.66004 16.0048 2.51011ZM13.8048 3.60011C13.6885 3.69387 13.6021 3.81943 13.5559 3.96147C13.5097 4.10351 13.5059 4.25591 13.5448 4.40011L13.8148 5.40011L12.9248 4.82011C12.8005 4.74199 12.6566 4.70055 12.5098 4.70055C12.363 4.70055 12.2191 4.74199 12.0948 4.82011L11.2048 5.40011L11.4648 4.40011C11.5132 4.25213 11.5162 4.09306 11.4734 3.94336C11.4307 3.79366 11.3441 3.66018 11.2248 3.56011L10.4048 2.90011H11.4048C11.5549 2.89331 11.6996 2.84218 11.8206 2.75319C11.9416 2.66419 12.0336 2.54133 12.0848 2.40011L12.4648 1.40011L12.8448 2.40011C12.8982 2.53991 12.9908 2.66138 13.1113 2.75003C13.2319 2.83869 13.3754 2.89079 13.5248 2.90011H14.5248L13.8048 3.60011Z"/></svg>