<svg viewBox="0 0 16 17" xmlns="http://www.w3.org/2000/svg"><path d="M3.1111 10.6976H3.89196C5.317 10.6976 6.47221 9.60311 6.47221 8.25311C6.47221 6.90309 5.317 5.80867 3.89196 5.80867H3.1111C2.80554 6.11423 2.80554 6.5806 2.80554 6.5806H3.89196C4.86699 6.5806 5.6574 7.32938 5.6574 8.25311C5.6574 9.17685 4.86699 9.92565 3.89196 9.92565H2.80554C2.80554 9.92565 2.80554 10.392 3.1111 10.6976Z"/><path fill-rule="evenodd" clip-rule="evenodd" d="M9.69442 5.80867C8.33968 5.80867 7.23608 6.90008 7.23608 8.25311C7.23608 9.60618 8.33968 10.6976 9.69442 10.6976H11.1944C12.5491 10.6976 13.6528 9.60618 13.6528 8.25311C13.6528 6.90008 12.5491 5.80867 11.1944 5.80867H9.69442ZM8.15275 8.25311C8.15275 7.41238 8.83995 6.72533 9.69442 6.72533H11.1944C12.0489 6.72533 12.7361 7.41238 12.7361 8.25311C12.7361 9.09385 12.0489 9.78091 11.1944 9.78091H9.69442C8.83995 9.78091 8.15275 9.09385 8.15275 8.25311Z"/><path fill-rule="evenodd" clip-rule="evenodd" d="M7.99996 15.5864C12.05 15.5864 15.3333 12.3032 15.3333 8.25311C15.3333 4.20303 12.05 0.919779 7.99996 0.919779C3.94987 0.919779 0.666626 4.20303 0.666626 8.25311C0.666626 12.3032 3.94987 15.5864 7.99996 15.5864ZM7.99996 14.6698C11.5438 14.6698 14.4166 11.7969 14.4166 8.25311C14.4166 4.70929 11.5438 1.83645 7.99996 1.83645C4.45613 1.83645 1.58329 4.70929 1.58329 8.25311C1.58329 11.7969 4.45613 14.6698 7.99996 14.6698Z"/><path d="M16 8.25311C16 12.6718 12.4187 16.2531 8 16.2531C3.58125 16.2531 0 12.6718 0 8.25311C0 3.83437 3.58125 0.253113 8 0.253113C12.4187 0.253113 16 3.83437 16 8.25311ZM8 1.75311C4.40937 1.75311 1.5 4.66249 1.5 8.25311C1.5 11.8437 4.40937 14.7531 8 14.7531C11.5906 14.7531 14.5 11.8437 14.5 8.25311C14.5 4.66249 11.5906 1.75311 8 1.75311Z"/></svg>