<svg viewBox="0 0 16 17" xmlns="http://www.w3.org/2000/svg"><path d="M4.04167 5.58661V11.0972C3.93272 11.0919 3.81983 11.0777 3.72335 11.0391C3.65335 11.0111 3.60033 10.9732 3.56414 10.923C3.5287 10.874 3.5 10.8003 3.5 10.6835V6.01685C3.5 5.86737 3.54307 5.78071 3.59282 5.72653C3.64542 5.66924 3.72087 5.63171 3.81037 5.60985C3.89023 5.59035 3.97287 5.58546 4.04167 5.58661ZM5.25 5.27395C5.25 4.80889 5.64493 4.41978 6.14394 4.41978H9.85607C10.3551 4.41978 10.75 4.80889 10.75 5.27395V11.399C10.75 11.864 10.3551 12.2531 9.85607 12.2531H6.14394C5.64493 12.2531 5.25 11.864 5.25 11.399V5.27395ZM6.14394 4.85207C5.91212 4.85207 5.71212 5.03559 5.71212 5.27395V11.399C5.71212 11.6373 5.91212 11.8208 6.14394 11.8208H9.85607C10.0879 11.8208 10.2879 11.6373 10.2879 11.399V5.27395C10.2879 5.03559 10.0879 4.85207 9.85607 4.85207H6.14394ZM12.2768 11.0255C12.1803 11.064 12.0673 11.0782 11.9583 11.0834V5.58661C12.0271 5.58546 12.1098 5.59034 12.1897 5.60981C12.2793 5.63163 12.3547 5.66909 12.4073 5.72621C12.457 5.78021 12.5 5.86651 12.5 6.01545V10.6712C12.5 10.7875 12.4713 10.8609 12.436 10.9098C12.3998 10.9597 12.3468 10.9975 12.2768 11.0255Z" stroke-width="0.333333"/><path d="M16 8.25311C16 12.6718 12.4187 16.2531 8 16.2531C3.58125 16.2531 0 12.6718 0 8.25311C0 3.83437 3.58125 0.253113 8 0.253113C12.4187 0.253113 16 3.83437 16 8.25311ZM8 1.75311C4.40937 1.75311 1.5 4.66249 1.5 8.25311C1.5 11.8437 4.40937 14.7531 8 14.7531C11.5906 14.7531 14.5 11.8437 14.5 8.25311C14.5 4.66249 11.5906 1.75311 8 1.75311Z"/></svg>