<svg viewBox="0 0 16 16" xmlns="http://www.w3.org/2000/svg"><path d="M0.00160084 11.7616C-0.0269645 12.2109 0.330103 12.599 0.805002 12.6297C1.2799 12.6603 1.68339 12.3165 1.71552 11.8637L1.73338 11.5914C1.85478 9.72584 3.47587 8.27223 5.43616 8.27223H13.0738L11.11 10.1446C10.7743 10.4646 10.7743 10.982 11.11 11.2986C11.4456 11.6152 11.9883 11.6186 12.3204 11.2986L15.7483 8.03053C16.0839 7.71053 16.0839 7.19308 15.7483 6.87649L12.3204 3.60841C11.9848 3.28841 11.442 3.28841 11.11 3.60841C10.7779 3.92841 10.7743 4.44585 11.11 4.76245L13.0738 6.63479H5.43616C2.57249 6.63819 0.201559 8.76244 0.0194542 11.4892L0.00160084 11.7616Z"/></svg>