<svg viewBox="0 0 16 16" xmlns="http://www.w3.org/2000/svg"><path fill-rule="evenodd" clip-rule="evenodd" d="M4 1C3.44688 1 3 1.44687 3 2V2.5H6V2C6 1.44687 5.55312 1 5 1H4ZM2.03025 4.44445C1.95152 4.59637 1.89418 4.76191 1.8625 4.9375V4.93437L1.70625 5.7875C1.59375 6.40937 1.36875 7.00625 1.04375 7.55L0.9625 7.6875C0.33125 8.7375 0 9.9375 0 11.1625V13.25C0 14.2156 0.784375 15 1.75 15H5.25C6.21562 15 7 14.2156 7 13.25V9.4142L5.5 7.9142V13.25C5.5 13.3875 5.3875 13.5 5.25 13.5H1.75C1.6125 13.5 1.5 13.3875 1.5 13.25V11.1625C1.5 10.2094 1.75937 9.27812 2.25 8.4625L2.33125 8.325C2.75 7.625 3.0375 6.85938 3.18125 6.05937L3.25306 5.66727L2.03025 4.44445ZM3.56083 3.50016L5.06067 5H5.5V5.43933L10.5 10.4393V5H12.4156C12.5375 5 12.6406 5.0875 12.6625 5.20625L12.8188 6.05937C12.9656 6.85938 13.2531 7.62812 13.6719 8.325L13.7531 8.4625C14.2406 9.27812 14.5 10.2125 14.5 11.1625V13.25C14.5 13.3875 14.3875 13.5 14.25 13.5H13.5607L14.9253 14.8647C15.5562 14.6001 16 13.9763 16 13.25V11.1625C16 9.94063 15.6656 8.74063 15.0375 7.69063L14.9563 7.55312C14.6313 7.00938 14.4062 6.4125 14.2937 5.79063L14.1375 4.9375C13.9875 4.10625 13.2625 3.5 12.4156 3.5H9.75C9.33438 3.5 9 3.83437 9 4.25V5H7V4.25C7 3.83437 6.66563 3.5 6.25 3.5H3.58437C3.57651 3.5 3.56866 3.50005 3.56083 3.50016ZM12.5858 15L11.0858 13.5H10.75C10.6125 13.5 10.5 13.3875 10.5 13.25V12.9142L9 11.4142V13.25C9 14.2156 9.78438 15 10.75 15H12.5858ZM12 1H11C10.4469 1 10 1.44687 10 2V2.5H13V2C13 1.44687 12.5531 1 12 1Z"/><path fill-rule="evenodd" clip-rule="evenodd" d="M0.575736 0.575723C0.810051 0.341408 1.18995 0.341408 1.42426 0.575723L15.4243 14.5757C15.6586 14.81 15.6586 15.1899 15.4243 15.4243C15.19 15.6586 14.8101 15.6586 14.5757 15.4243L0.575736 1.42425C0.341421 1.18994 0.341421 0.810037 0.575736 0.575723Z"/></svg>