<svg viewBox="0 0 16 16" xmlns="http://www.w3.org/2000/svg"><path d="M11.2 3.19999H10.2H9.96002C9.77502 2.28749 8.96752 1.59999 8.00002 1.59999C7.03252 1.59999 6.22502 2.28749 6.04002 3.19999H5.80002H4.80002C4.31002 3.19999 3.87002 3.42249 3.57502 3.76999C2.70752 3.08999 1.84002 2.40749 0.970018 1.72749C0.710018 1.52249 0.332518 1.56999 0.127518 1.82999C-0.0774815 2.08999 -0.0299815 2.46749 0.230018 2.67249C5.16252 6.53999 10.095 10.405 15.03 14.2725C15.29 14.4775 15.6675 14.43 15.8725 14.17C16.0775 13.91 16.03 13.5325 15.77 13.3275C14.78 12.5525 13.79 11.775 12.8 11C12.8 8.93249 12.8 6.86749 12.8 4.79999C12.8 3.91749 12.0825 3.19999 11.2 3.19999ZM4.80002 4.39999H5.20002C5.20002 4.59999 5.20002 4.79999 5.20002 4.99999C5.20002 5.01499 5.20002 5.02999 5.20252 5.04499C4.97752 4.86749 4.75002 4.68999 4.52502 4.51249C4.59752 4.44249 4.69502 4.39999 4.80252 4.39999H4.80002ZM8.00002 5.59999H10.2C10.5325 5.59999 10.8 5.33249 10.8 4.99999C10.8 4.79999 10.8 4.59999 10.8 4.39999C10.9325 4.39999 11.0675 4.39999 11.2 4.39999C11.42 4.39999 11.6 4.57999 11.6 4.79999C11.6 6.55249 11.6 8.30749 11.6 10.06C11.065 9.63999 10.53 9.21999 9.99252 8.79999C9.99502 8.79999 9.99752 8.79999 10 8.79999C10.22 8.79999 10.4 8.61999 10.4 8.39999C10.4 8.17999 10.22 7.99999 10 7.99999C9.65752 7.99999 9.31502 7.99999 8.97252 7.99999C7.95252 7.19999 6.93002 6.39999 5.91002 5.59999C6.60752 5.59999 7.30252 5.59999 8.00002 5.59999ZM3.20002 12.8C3.20002 13.6825 3.91752 14.4 4.80002 14.4C6.93502 14.4 9.06752 14.4 11.2 14.4C11.7025 14.4 12.15 14.1675 12.445 13.805C12.13 13.5575 11.8175 13.31 11.5025 13.0625C11.43 13.1475 11.32 13.2 11.2 13.2C9.06502 13.2 6.93252 13.2 4.80002 13.2C4.58002 13.2 4.40002 13.02 4.40002 12.8C4.40002 11.0225 4.40002 9.24499 4.40002 7.46749C4.00002 7.15249 3.60002 6.83749 3.20002 6.52249C3.20002 8.61499 3.20002 10.7075 3.20002 12.8ZM7.40002 3.59999C7.40002 3.26749 7.66752 2.99999 8.00002 2.99999C8.33252 2.99999 8.60002 3.26749 8.60002 3.59999C8.60002 3.93249 8.33252 4.19999 8.00002 4.19999C7.66752 4.19999 7.40002 3.93249 7.40002 3.59999ZM5.40002 8.39999C5.40002 8.73249 5.66752 8.99999 6.00002 8.99999C6.09502 8.99999 6.18752 8.97749 6.26752 8.93749C5.98252 8.71499 5.70002 8.48999 5.41502 8.26749C5.40502 8.30999 5.40002 8.35499 5.40002 8.39999ZM7.60002 10.4C7.38002 10.4 7.20002 10.58 7.20002 10.8C7.20002 11.02 7.38002 11.2 7.60002 11.2C8.11252 11.2 8.62502 11.2 9.13752 11.2C8.80002 10.9325 8.46002 10.6675 8.12252 10.4C7.94752 10.4 7.77502 10.4 7.60002 10.4ZM6.00002 11.4C6.33252 11.4 6.60002 11.1325 6.60002 10.8C6.60002 10.4675 6.33252 10.2 6.00002 10.2C5.66752 10.2 5.40002 10.4675 5.40002 10.8C5.40002 11.1325 5.66752 11.4 6.00002 11.4Z"/></svg>