<svg viewBox="0 0 16 16" xmlns="http://www.w3.org/2000/svg"><path fill-rule="evenodd" clip-rule="evenodd" d="M0.226756 0.226756C0.529097 -0.0755853 1.01929 -0.0755853 1.32163 0.226756L3.43752 2.34264C4.59959 1.57959 5.99058 1.13549 7.48388 1.13549C11.5601 1.13549 14.8645 4.43992 14.8645 8.51613C14.8645 10.0094 14.4204 11.4004 13.6574 12.5625L15.7732 14.6784C16.0756 14.9807 16.0756 15.4709 15.7732 15.7732C15.4709 16.0756 14.9807 16.0756 14.6784 15.7732L0.226756 1.32163C-0.0755853 1.01929 -0.0755853 0.529097 0.226756 0.226756ZM12.6837 11.5888L4.41123 3.31635C5.31121 2.78325 6.36122 2.47743 7.48388 2.47743C10.819 2.47743 13.5226 5.18105 13.5226 8.51613C13.5226 9.63879 13.2168 10.6888 12.6837 11.5888Z"/><path d="M2.03622 5.91721C2.18907 5.61923 2.15387 5.25173 1.91706 5.01492C1.59511 4.69297 1.05734 4.75216 0.862819 5.16384C0.384152 6.17688 0.103232 7.36383 0.103232 8.51612C0.103232 12.5923 3.40766 15.8968 7.48388 15.8968C8.63619 15.8968 9.82387 15.6166 10.8372 15.1382C11.249 14.9438 11.3082 14.406 10.9862 14.0841C10.7494 13.8473 10.3819 13.8121 10.0839 13.9648C9.29835 14.3674 8.47194 14.5548 7.48388 14.5548C4.14879 14.5548 1.44517 11.8512 1.44517 8.51612C1.44517 7.52807 1.63341 6.70245 2.03622 5.91721Z"/></svg>