<svg viewBox="0 0 16 16" xmlns="http://www.w3.org/2000/svg"><path d="M4.82102 5.25175C4.62893 5.25175 4.47177 5.40891 4.47177 5.601V8.52596H3.42402V5.601C3.42402 4.83047 4.05049 4.204 4.82102 4.204H10.8938L10.9001 5.25175H4.82102Z"/><path fill-rule="evenodd" clip-rule="evenodd" d="M3.42402 10.7961V11.8875C3.42402 12.658 4.05049 13.2845 4.82102 13.2845H8.04503L7.87041 14.3322H6.74189C6.45158 14.3322 6.21802 14.5658 6.21802 14.8561C6.21802 15.1464 6.45158 15.38 6.74189 15.38H12.6791C12.9695 15.38 13.203 15.1464 13.203 14.8561C13.203 14.5658 12.9695 14.3322 12.6791 14.3322H11.5506L11.376 13.2845H14.6C15.3705 13.2845 15.997 12.658 15.997 11.8875V5.601C15.997 4.83046 15.3705 4.204 14.6 4.204H13.203L13.2102 5.25175H14.6C14.7921 5.25175 14.9493 5.40891 14.9493 5.601V11.8875C14.9493 12.0796 14.7921 12.2367 14.6 12.2367H4.82102C4.62893 12.2367 4.47177 12.0796 4.47177 11.8875V10.7961H3.42402ZM9.10806 13.2845L8.93344 14.3322H10.4898L10.3152 13.2845H9.10806Z"/><path d="M1.397 2.17399C1.20491 2.17399 1.04775 2.33115 1.04775 2.52323V8.80973C1.04775 9.00182 1.20491 9.15898 1.397 9.15898H5.22783C5.23438 9.15898 5.24093 9.15898 5.24529 9.15898H7.32333C7.32988 9.15898 7.33643 9.15898 7.34079 9.15898H11.176C11.3681 9.15898 11.5252 9.00182 11.5252 8.80973V2.52323C11.5252 2.33115 11.3681 2.17399 11.176 2.17399H1.397ZM4.62101 10.2067H1.397C0.626467 10.2067 0 9.58026 0 8.80973V2.52323C0 1.7527 0.626467 1.12624 1.397 1.12624H11.176C11.9465 1.12624 12.573 1.7527 12.573 2.52323V8.80973C12.573 9.58026 11.9465 10.2067 11.176 10.2067H7.95198C6.42838 10.2067 7.2251 10.2067 4.62101 10.2067Z"/></svg>