<svg viewBox="0 0 16 16" xmlns="http://www.w3.org/2000/svg"><path d="M4.75 5.42841H13.2344L9.25937 1.50692C8.94594 1.19777 8.91187 0.656547 9.18222 0.298327C9.45372 -0.0609639 9.92753 -0.102036 10.24 0.209505L15.74 5.60602C15.8781 5.79984 16 6.03556 16 6.28556C16 6.53442 15.9053 6.77057 15.7403 6.93343L10.2403 12.3299C10.0987 12.4706 9.92375 12.5388 9.75 12.5388C9.54003 12.5388 9.33094 12.4383 9.1825 12.2419C8.912 11.8837 8.94619 11.3422 9.25966 11.0333L13.2347 7.11183H4.75C2.95812 7.11183 1.5 8.77792 1.5 10.794V15.0477C1.5 15.6179 1.16406 16 0.75 16C0.335937 16 0 15.6179 0 15.1428V10.8892C0 7.86416 2.13094 5.42841 4.75 5.42841Z"/></svg>