<svg viewBox="0 0 16 16" xmlns="http://www.w3.org/2000/svg"><path d="M1.75 7.25H5.5C6.46 7.25 7.25 6.46 7.25 5.5V1.75C7.25 0.78 6.46 0 5.5 0H1.75C0.79 0 0 0.78 0 1.75V5.5C0 6.46 0.79 7.25 1.75 7.25ZM1.5 1.75C1.5 1.61 1.61 1.5 1.75 1.5H5.5C5.64 1.5 5.75 1.61 5.75 1.75V5.5C5.75 5.64 5.64 5.75 5.5 5.75H1.75C1.61 5.75 1.5 5.63 1.5 5.5V1.75Z"/><path d="M13.25 5.5C13.25 5.64 13.14 5.75 13 5.75C12.59 5.75 12.25 6.09 12.25 6.5C12.25 6.91 12.59 7.25 13 7.25C13.96 7.25 14.75 6.46 14.75 5.5C14.75 5.09 14.41 4.75 14 4.75C13.59 4.75 13.25 5.08 13.25 5.5Z"/><path d="M6.5 12.25C6.09 12.25 5.75 12.59 5.75 13C5.75 13.14 5.64 13.25 5.5 13.25C5.09 13.25 4.75 13.59 4.75 14C4.75 14.41 5.09 14.75 5.5 14.75C6.46 14.75 7.25 13.96 7.25 13C7.25 12.59 6.91 12.25 6.5 12.25Z"/><path d="M14.25 8.75H10.5C9.54 8.75 8.75 9.54 8.75 10.5V14.25C8.75 15.21 9.54 16 10.5 16H14.25C15.21 16 16 15.21 16 14.25V10.5C16 9.54 15.21 8.75 14.25 8.75ZM14.5 14.25C14.5 14.39 14.39 14.5 14.25 14.5H10.5C10.36 14.5 10.25 14.39 10.25 14.25V10.5C10.25 10.36 10.36 10.25 10.5 10.25H14.25C14.39 10.25 14.5 10.36 14.5 10.5V14.25Z"/><path d="M15.78 0.22C15.49 -0.07 15.01 -0.07 14.72 0.22L13.59 1.35C13.4 1.29 13.2 1.25 13 1.25H10.5C9.54 1.25 8.75 2.03 8.75 3V5.5C8.75 5.7 8.79 5.9 8.86 6.08L6.08 8.86C5.9 8.79 5.7 8.75 5.5 8.75H3C2.04 8.75 1.25 9.54 1.25 10.5V13C1.25 13.2 1.29 13.39 1.35 13.58L0.22 14.71C-0.07 15 -0.07 15.48 0.22 15.77C0.37 15.92 0.56 16 0.75 16C0.94 16 1.13 15.93 1.28 15.78L15.78 1.28C16.07 0.99 16.07 0.51 15.78 0.22ZM10.25 3C10.25 2.86 10.36 2.75 10.5 2.75H12.19L10.25 4.69V3ZM2.75 10.5C2.75 10.36 2.86 10.25 3 10.25H4.68L2.75 12.18V10.5Z"/></svg>