<svg viewBox="0 0 16 16" xmlns="http://www.w3.org/2000/svg"><path fill-rule="evenodd" clip-rule="evenodd" d="M7.0568 6.37909L9.79222 8.54716C9.84512 8.374 9.87359 8.19026 9.87359 7.99997C9.87359 6.96608 9.03247 6.12497 7.99859 6.12497C7.65554 6.12497 7.33371 6.21757 7.0568 6.37909ZM10.9397 9.4566L15.7278 13.2516C16.0243 13.4866 16.0741 13.9175 15.8391 14.2139C15.6042 14.5104 15.1733 14.5603 14.8768 14.3253L0.272175 2.74979C-0.0243078 2.5148 -0.0741581 2.08396 0.160832 1.78748C0.395821 1.491 0.826665 1.44115 1.12314 1.67613L2.58628 2.8358C2.61574 2.78605 2.65188 2.73914 2.69468 2.69635C2.96948 2.4217 3.41527 2.4217 3.68902 2.69635L5.01616 4.0235C5.24206 4.24928 5.28217 4.59029 5.13648 4.85707L5.90885 5.46924C6.47624 5.00032 7.20425 4.71872 7.99859 4.71872C9.81206 4.71872 11.2798 6.18649 11.2798 7.99997C11.2798 8.52315 11.1574 9.01773 10.9397 9.4566ZM4.71734 7.99997C4.71734 7.98828 4.7174 7.97661 4.71752 7.96496L8.78268 11.187C8.53144 11.2486 8.26883 11.2812 7.99859 11.2812C6.18628 11.2812 4.71734 9.81227 4.71734 7.99997ZM7.99859 3.78122C8.38677 3.78122 8.70171 3.46628 8.70171 3.07809V1.20309C8.70171 0.81491 8.38823 0.499969 7.99859 0.499969C7.60894 0.499969 7.29546 0.81491 7.29546 1.20309V3.07809C7.29546 3.46774 7.61187 3.78122 7.99859 3.78122ZM7.99859 12.2187C7.6104 12.2187 7.29546 12.5337 7.29546 12.9218V14.7968C7.29546 15.1865 7.61187 15.5 7.99859 15.5C8.3853 15.5 8.70171 15.185 8.70171 14.7968V12.9218C8.70171 12.5351 8.38823 12.2187 7.99859 12.2187ZM14.7955 7.29684H12.9205C12.5323 7.29684 12.2173 7.61178 12.2173 7.99997C12.2173 8.38815 12.5323 8.70309 12.9205 8.70309H14.7955C15.1851 8.70309 15.4986 8.38962 15.4986 7.99997C15.4986 7.61032 15.1851 7.29684 14.7955 7.29684ZM3.77984 7.99997C3.77984 7.61178 3.46489 7.29684 3.07671 7.29684H1.20171C0.813532 7.29684 0.49859 7.61325 0.49859 7.99997C0.49859 8.38669 0.813532 8.70309 1.20171 8.70309H3.07671C3.46636 8.70309 3.77984 8.38962 3.77984 7.99997ZM11.4791 5.22262C11.659 5.22262 11.8394 5.15395 11.9762 5.01664L13.3019 3.69007C13.5766 3.41542 13.5766 2.97054 13.3019 2.69574C13.0273 2.42093 12.5815 2.42108 12.3076 2.69574L10.9819 4.0223C10.7072 4.29696 10.7072 4.74183 10.9819 5.01634C11.1187 5.15524 11.3004 5.22262 11.4791 5.22262ZM4.02007 10.9824L2.69439 12.309C2.41973 12.5836 2.41973 13.0285 2.69439 13.3033C2.83173 13.4406 3.01167 13.5093 3.19155 13.5093C3.37144 13.5093 3.55191 13.4406 3.68872 13.3033L5.01441 11.9767C5.28906 11.7021 5.28906 11.2572 5.01441 10.9827C4.73975 10.7082 4.29546 10.707 4.02007 10.9824Z"/></svg>