<svg viewBox="0 0 16 16" xmlns="http://www.w3.org/2000/svg"><path d="M6.12968 11.0568H7.42205V12.4165C7.44282 12.7128 7.66899 12.9685 7.97592 12.9685C8.28286 12.9685 8.5298 12.7128 8.5298 12.4165V11.0568H9.84294C10.1291 11.0568 10.376 10.8011 10.376 10.4833C10.376 10.1664 10.1284 9.9313 9.84294 9.9313H8.55057V8.59309C8.5298 8.25377 8.28286 7.99807 7.97592 7.99807C7.66991 7.99807 7.44282 8.25472 7.44282 8.55007V9.9313H6.15045C5.82274 9.9313 5.5758 10.1654 5.5758 10.4833C5.5758 10.8011 5.82274 11.0568 6.12968 11.0568Z"/><path fill-rule="evenodd" clip-rule="evenodd" d="M13.6419 15.9961C14.6815 15.9961 15.5242 15.101 15.5242 13.9966V1.99952C15.5242 0.895215 14.6815 0 13.6419 0H2.3583C1.31871 0 0.475953 0.895213 0.475953 1.99952L0.475952 13.9966C0.475952 15.101 1.31871 15.9961 2.3583 15.9961H13.6419ZM13.7126 4.93875C13.9206 4.93875 14.089 4.75971 14.089 4.53884V1.92444C14.089 1.70358 13.9206 1.52453 13.7126 1.52453H11.4383C11.2303 1.52453 11.0618 1.70358 11.0618 1.92444V4.53884C11.0618 4.75971 11.2303 4.93875 11.4383 4.93875H13.7126ZM14.089 13.4718C14.089 14.024 13.6677 14.4716 13.1479 14.4716H2.85234C2.33254 14.4716 1.91116 14.024 1.91116 13.4718L1.91117 7.46304C1.91117 6.91089 2.33254 6.46328 2.85235 6.46328H13.1479C13.6677 6.46328 14.089 6.91089 14.089 7.46304V13.4718ZM9.1331 4.93875C9.34102 4.93875 9.50957 4.75971 9.50957 4.53884V1.92444C9.50957 1.70358 9.34102 1.52453 9.1331 1.52453H6.85876C6.65083 1.52453 6.48229 1.70358 6.48229 1.92444V4.53884C6.48229 4.75971 6.65083 4.93875 6.85876 4.93875H9.1331ZM4.93846 4.53884C4.93846 4.75971 4.7699 4.93875 4.56198 4.93875H2.28764C2.07972 4.93875 1.91117 4.75971 1.91117 4.53884V1.92444C1.91117 1.70358 2.07972 1.52453 2.28764 1.52453H4.56198C4.7699 1.52453 4.93846 1.70358 4.93846 1.92444V4.53884Z"/></svg>