<svg viewBox="0 0 16 16" xmlns="http://www.w3.org/2000/svg"><path d="M11.4037 6.30586L10.4898 7.21948L9.52812 6.25801C9.30386 6.06317 8.96309 6.04225 8.74605 6.25924C8.52901 6.47623 8.53525 6.8316 8.74482 7.04112L9.70652 8.00259L8.77799 8.93089C8.57564 9.13319 8.58187 9.48857 8.80666 9.7133C9.03078 9.93736 9.37218 9.92857 9.57405 9.72675L10.4879 8.81313L11.4344 9.75938C11.6891 9.98464 12.0445 9.99089 12.2616 9.7739C12.4779 9.55756 12.457 9.21555 12.2481 9.0067L11.2712 8.03002L12.185 7.1164C12.4168 6.88472 12.4257 6.54459 12.2009 6.31985C11.9761 6.09512 11.6207 6.08886 11.4037 6.30586Z"/><path fill-rule="evenodd" clip-rule="evenodd" d="M14 0.00559998C15.1046 0.00559998 16 0.900815 16 2.00512V13.991C16 15.0954 15.1046 15.9905 14 15.9905H2C0.895432 15.9905 0 15.0954 0 13.991V2.00512C0 0.900816 0.895432 0.00559998 2 0.00559998H14ZM4.53993 5.05907C4.76085 5.05907 4.93993 5.23812 4.93993 5.45897V6.53273C4.93993 6.7536 4.76085 6.93264 4.53993 6.93264H1.92489C1.70398 6.93264 1.52489 6.7536 1.52489 6.53273V5.45897C1.52489 5.23812 1.70398 5.05907 1.92489 5.05907H4.53993ZM4.93993 9.46288C4.93993 9.24203 4.76085 9.06298 4.53993 9.06298H1.92489C1.70398 9.06298 1.52489 9.24203 1.52489 9.46288V10.5367C1.52489 10.7576 1.70398 10.9366 1.92489 10.9366H4.53993C4.76085 10.9366 4.93993 10.7576 4.93993 10.5367V9.46288ZM13.4751 1.53062C14.0274 1.53062 14.4751 1.97823 14.4751 2.53038V13.4667C14.4751 14.0189 14.0274 14.4665 13.4751 14.4665H7.46483C6.91255 14.4665 6.46483 14.0189 6.46483 13.4667V2.53038C6.46483 1.97823 6.91255 1.53062 7.46483 1.53062H13.4751Z"/></svg>