<svg viewBox="0 0 16 16" xmlns="http://www.w3.org/2000/svg"><path fill-rule="evenodd" clip-rule="evenodd" d="M15.5294 2.35776C15.5294 1.31841 14.6867 0.475859 13.6471 0.475859H2.35293C1.31334 0.475859 0.470581 1.31841 0.470581 2.35776V13.6386C0.470581 14.678 1.31334 15.5205 2.35293 15.5205H13.6471C14.6867 15.5205 15.5294 14.678 15.5294 13.6386V2.35776ZM14.0942 2.85212C14.0942 2.33245 13.6728 1.91117 13.153 1.91117H10.7643V3.31286C10.7643 3.52072 10.5958 3.68924 10.3879 3.68924H9.37705C9.16912 3.68924 9.00057 3.52072 9.00057 3.31286V1.91117H6.99505V3.31286C6.99505 3.52072 6.82651 3.68924 6.61858 3.68924H5.60774C5.39982 3.68924 5.23127 3.52072 5.23127 3.31286V1.91117H2.84249C2.32269 1.91117 1.90131 2.33245 1.90131 2.85212V13.1737C1.90131 13.6933 2.32269 14.1146 2.84249 14.1146H5.23127V12.7129C5.23127 12.505 5.39982 12.3365 5.60774 12.3365H6.61858C6.82651 12.3365 6.99505 12.505 6.99505 12.7129V14.1146H9.00057V12.7129C9.00057 12.505 9.16912 12.3365 9.37705 12.3365H10.3879C10.5958 12.3365 10.7643 12.505 10.7643 12.7129V14.1146H13.153C13.6728 14.1146 14.0942 13.6933 14.0942 13.1737V2.85212Z"/><path d="M8.83619 6.30734L7.99057 7.16662L7.10067 6.26235C6.89315 6.0791 6.57782 6.05942 6.37698 6.26351C6.17614 6.46758 6.18192 6.80181 6.37585 6.99887L7.26575 7.90315L6.40654 8.77623C6.2193 8.9665 6.22506 9.30073 6.43307 9.5121C6.64045 9.72283 6.95637 9.71457 7.14317 9.52475L7.98878 8.66548L8.8646 9.55544C9.10028 9.7673 9.42917 9.77317 9.63002 9.5691C9.8303 9.36563 9.81091 9.04395 9.61759 8.84753L8.7136 7.92895L9.55924 7.06967C9.77364 6.85178 9.78192 6.53187 9.57392 6.32051C9.36593 6.10914 9.03704 6.10325 8.83619 6.30734Z"/></svg>