<svg viewBox="0 0 16 16" xmlns="http://www.w3.org/2000/svg"><path d="M4.95995 6.15252V7.44458H3.59991C3.30352 7.46535 3.04777 7.69146 3.04777 7.99833C3.04777 8.30519 3.30352 8.55206 3.59991 8.55206H4.95995V9.86489C4.95995 10.151 5.21571 10.3979 5.53361 10.3979C5.85055 10.3979 6.08575 10.1503 6.08575 9.86489V8.57283H7.42428C7.76369 8.55206 8.01945 8.30519 8.01945 7.99833C8.01945 7.69238 7.76274 7.46535 7.4673 7.46535H6.08575V6.17329C6.08575 5.84566 5.85151 5.59879 5.53361 5.59879C5.21571 5.59879 4.95995 5.84566 4.95995 6.15252Z"/><path fill-rule="evenodd" clip-rule="evenodd" d="M0 13.991C1e-06 15.0953 0.895433 15.9905 2 15.9905H14C15.1046 15.9905 16 15.0953 16 13.991V2.00512C16 0.900815 15.1046 0.00559994 14 0.00559998L2 0.00560051C0.895433 0.00560056 0 0.900817 0 2.00512V13.991ZM11.0601 14.0661C11.0601 14.287 11.2392 14.466 11.4601 14.466H14.0751C14.296 14.466 14.4751 14.287 14.4751 14.0661V11.6502C14.4751 11.4292 14.296 11.2503 14.0751 11.2503H11.4601C11.2392 11.2503 11.0601 11.4292 11.0601 11.6502V14.0661ZM2.5249 14.466C1.97261 14.466 1.5249 14.0183 1.5249 13.4662V2.52991C1.5249 1.97775 1.97261 1.53015 2.5249 1.53015H8.53515C9.08744 1.53015 9.53515 1.97775 9.53515 2.52991V13.4662C9.53515 14.0183 9.08744 14.466 8.53515 14.466H2.5249ZM11.0601 9.2016C11.0601 9.42247 11.2392 9.6015 11.4601 9.6015H14.0751C14.296 9.6015 14.4751 9.42247 14.4751 9.2016V6.78569C14.4751 6.56484 14.296 6.38579 14.0751 6.38579H11.4601C11.2392 6.38579 11.0601 6.56484 11.0601 6.78569V9.2016ZM11.4601 4.74586C11.2392 4.74586 11.0601 4.56682 11.0601 4.34596V1.93006C11.0601 1.7092 11.2392 1.53015 11.4601 1.53015H14.0751C14.296 1.53015 14.4751 1.7092 14.4751 1.93006V4.34596C14.4751 4.56682 14.296 4.74586 14.0751 4.74586H11.4601Z"/></svg>