<svg viewBox="0 0 16 16" xmlns="http://www.w3.org/2000/svg"><path fill-rule="evenodd" clip-rule="evenodd" d="M16 2.00512C16 0.900816 15.1046 0.00560047 14 0.00560047L2 0.00559998C0.895434 0.00559988 9.83477e-07 0.900816 9.83477e-07 2.00512L0 13.991C0 15.0954 0.895434 15.9905 2 15.9905H14C15.1046 15.9905 16 15.0954 16 13.991V2.00512ZM4.93994 1.93004C4.93994 1.70918 4.76085 1.53013 4.53994 1.53013H1.9249C1.70398 1.53013 1.5249 1.70918 1.5249 1.93004V4.34594C1.5249 4.56681 1.70398 4.74584 1.9249 4.74584H4.53994C4.76085 4.74584 4.93994 4.56681 4.93994 4.34594V1.93004ZM13.4751 1.53013C14.0274 1.53013 14.4751 1.97774 14.4751 2.52989V13.4662C14.4751 14.0184 14.0274 14.466 13.4751 14.466H7.46484C6.91255 14.466 6.46484 14.0184 6.46484 13.4662V2.52989C6.46484 1.97774 6.91256 1.53013 7.46484 1.53013H13.4751ZM4.93994 6.79452C4.93994 6.57366 4.76085 6.39462 4.53994 6.39462H1.9249C1.70398 6.39462 1.5249 6.57366 1.5249 6.79452V9.21043C1.5249 9.43129 1.70398 9.61033 1.9249 9.61033H4.53994C4.76085 9.61033 4.93994 9.43129 4.93994 9.21043V6.79452ZM4.53994 11.2503C4.76085 11.2503 4.93994 11.4293 4.93994 11.6502V14.0661C4.93994 14.287 4.76085 14.466 4.53994 14.466H1.9249C1.70398 14.466 1.5249 14.287 1.5249 14.0661V11.6502C1.5249 11.4293 1.70398 11.2503 1.9249 11.2503H4.53994Z"/><path d="M11.0595 9.84958V8.55752H12.4195C12.7159 8.53676 12.9716 8.31065 12.9716 8.00379C12.9716 7.69692 12.7159 7.45004 12.4195 7.45004H11.0595V6.13722C11.0595 5.85112 10.8037 5.60425 10.4858 5.60425C10.1689 5.60425 9.93374 5.85182 9.93374 6.13722V7.42928H8.59516C8.25575 7.45004 8 7.69692 8 8.00379C8 8.30972 8.25671 8.53676 8.55214 8.53676H9.93374V9.82882C9.93374 10.1564 10.1679 10.4033 10.4858 10.4033C10.8037 10.4033 11.0595 10.1564 11.0595 9.84958Z"/></svg>