<svg viewBox="0 0 16 16" xmlns="http://www.w3.org/2000/svg"><path d="M8.84699 7.79953L7.98689 8.65941L7.08176 7.7545C6.87069 7.57111 6.54997 7.55143 6.3457 7.75565C6.14142 7.95988 6.1473 8.29434 6.34454 8.49154L7.24967 9.39645L6.37576 10.2701C6.18531 10.4606 6.19117 10.7951 6.40274 11.0065C6.61368 11.2175 6.935 11.2092 7.12499 11.0192L7.98507 10.1594L8.87588 11.0499C9.11559 11.262 9.45016 11.2678 9.65439 11.0636C9.85806 10.86 9.83839 10.5381 9.64178 10.3415L8.7223 9.42227L9.58239 8.56239C9.80046 8.34434 9.80893 8.02422 9.59736 7.8127C9.38578 7.60119 9.05126 7.5953 8.84699 7.79953Z"/><path d="M0.697758 1.59603C0.863522 1.24721 1.11147 0.956858 1.41176 0.75825C1.63617 0.610051 1.8897 0.512931 2.16058 0.481679C2.22381 0.474285 2.28794 0.470589 2.35293 0.470589H13.6471C14.6853 0.470589 15.5294 1.43338 15.5294 2.62133V13.375C15.5294 14.5613 14.6853 15.5258 13.6471 15.5258H2.35293C1.31323 15.5258 0.470581 14.5613 0.470581 13.375V2.62133C0.470581 2.54707 0.473875 2.4738 0.480304 2.40155C0.505993 2.11221 0.581875 1.84001 0.697758 1.59603ZM1.88235 13.375C1.88235 13.6708 2.09293 13.9127 2.35293 13.9127H13.6471C13.9059 13.9127 14.1176 13.6708 14.1176 13.375V4.77207H1.88235V13.375Z"/></svg>