<svg viewBox="0 0 16 16" xmlns="http://www.w3.org/2000/svg"><path d="M5.45455 3.91978C5.25455 3.91978 5.09091 4.06978 5.09091 4.25311V12.2531C5.09091 12.4364 5.25455 12.5864 5.45455 12.5864H10.5455C10.7455 12.5864 10.9091 12.4364 10.9091 12.2531V4.25311C10.9091 4.06978 10.7455 3.91978 10.5455 3.91978H5.45455ZM4 4.25311C4 3.5177 4.65227 2.91978 5.45455 2.91978H10.5455C11.3477 2.91978 12 3.5177 12 4.25311V12.2531C12 12.9885 11.3477 13.5864 10.5455 13.5864H5.45455C4.65227 13.5864 4 12.9885 4 12.2531V4.25311Z"/><path d="M6.31579 8.69758C6.14139 8.69758 6 8.84678 6 9.03091C6 9.21498 6.14139 9.36425 6.31579 9.36425H9.6842C9.8586 9.36425 10 9.21498 10 9.03091C10 8.84678 9.8586 8.69758 9.6842 8.69758H6.31579Z"/><path d="M6 10.2531C6 10.069 6.14139 9.91978 6.31579 9.91978H9.6842C9.8586 9.91978 10 10.069 10 10.2531C10 10.4372 9.8586 10.5864 9.6842 10.5864H6.31579C6.14139 10.5864 6 10.4372 6 10.2531Z"/><path d="M6.31579 11.142C6.14139 11.142 6 11.2912 6 11.4753C6 11.6594 6.14139 11.8086 6.31579 11.8086H9.6842C9.8586 11.8086 10 11.6594 10 11.4753C10 11.2912 9.8586 11.142 9.6842 11.142H6.31579Z"/></svg>