<svg viewBox="0 0 16 16" xmlns="http://www.w3.org/2000/svg"><path d="M3.2775 9.0775C2.9975 9.1475 2.7075 9.1875 2.4075 9.1875C2.1975 9.1875 1.9975 9.1675 1.7975 9.1275C1.9975 9.7375 2.3675 10.2675 2.8575 10.6575L12.0975 1.4175C11.7775 1.3075 11.4375 1.2375 11.0775 1.2375C9.2675 1.2375 7.7975 2.7075 7.7975 4.5175C7.7975 4.7775 7.8275 5.0275 7.8775 5.2675C5.1475 5.1375 2.7275 3.8275 1.1175 1.8475C0.8275 2.3275 0.6675 2.8875 0.6675 3.4975C0.6675 4.6375 1.2475 5.6375 2.1275 6.2275C1.5875 6.2075 1.0875 6.0575 0.6475 5.8175C0.6475 5.8275 0.6475 5.8475 0.6475 5.8575C0.6475 7.4475 1.7775 8.7675 3.2775 9.0775Z"/><path d="M15.5375 1.5175L15.7775 1.2775C16.0675 0.9875 16.0675 0.5075 15.7775 0.2175C15.4875 -0.0725 15.0075 -0.0725 14.7175 0.2175L0.2175 14.7175C-0.0725 15.0075 -0.0725 15.4875 0.2175 15.7775C0.3675 15.9175 0.5575 15.9975 0.7475 15.9975C0.9375 15.9975 1.1275 15.9275 1.2775 15.7775L3.0375 14.0175C3.6775 14.1575 4.3375 14.2475 5.0275 14.2475C11.0675 14.2475 14.3675 9.2475 14.3675 4.9075C14.3675 4.7675 14.3675 4.6275 14.3575 4.4875C14.9975 4.0175 15.5575 3.4375 15.9975 2.7775C15.4075 3.0375 14.7775 3.2175 14.1175 3.2975C14.7775 2.8975 15.2875 2.2675 15.5375 1.5175Z"/></svg>