<svg viewBox="0 0 16 16" xmlns="http://www.w3.org/2000/svg"><path d="M15.9984 11.7616C16.027 12.2109 15.6699 12.599 15.195 12.6297C14.7201 12.6603 14.3166 12.3165 14.2845 11.8637L14.2666 11.5914C14.1452 9.72584 12.5241 8.27223 10.5638 8.27223H2.92617L4.89004 10.1446C5.22568 10.4646 5.22568 10.982 4.89004 11.2986C4.55439 11.6152 4.01165 11.6186 3.67958 11.2986L0.251733 8.03053C-0.083911 7.71053 -0.083911 7.19308 0.251733 6.87649L3.67958 3.60841C4.01522 3.28841 4.55796 3.28841 4.89004 3.60841C5.22211 3.92841 5.22568 4.44585 4.89004 4.76245L2.92617 6.63479H10.5638C13.4275 6.63819 15.7984 8.76244 15.9805 11.4892L15.9984 11.7616Z"/></svg>