<svg viewBox="0 0 16 16" xmlns="http://www.w3.org/2000/svg"><path fill-rule="evenodd" clip-rule="evenodd" d="M15.0324 1.43651C15.2821 1.23063 15.6516 1.26606 15.8576 1.51561C16.0636 1.76528 16.0281 2.13476 15.7785 2.3408L0.964111 14.5635C0.714403 14.7693 0.344888 14.734 0.138916 14.4844C-0.0670236 14.2347 -0.0315147 13.8652 0.218017 13.6592L2.17309 12.0449C1.3117 11.0058 0.777588 9.57645 0.777588 7.99705C0.77762 7.28745 0.913408 6.60766 1.11059 5.97947C0.468224 5.73061 0.000363065 5.01618 0.000244141 4.16404C0.000357137 3.10564 0.716371 2.24729 1.57739 2.24705C2.18506 2.24705 2.69245 2.62772 2.96997 3.18944C3.72734 2.5957 4.62755 2.24714 5.59985 2.24705C6.68475 2.24705 7.68747 2.67945 8.49243 3.40916L10.4406 5.22459L15.0324 1.43651ZM5.59985 3.68455C3.61185 3.68479 2.00035 5.61556 2.00024 7.99705C2.00024 9.27 2.46299 10.4121 3.19555 11.2012L5.39379 9.38768C4.83812 9.28275 4.40063 8.71336 4.40063 7.99705C4.40074 7.2037 4.93759 6.55979 5.59985 6.55955C6.26228 6.55955 6.79996 7.20355 6.77758 7.99705C6.77758 8.08861 6.76876 8.17846 6.75415 8.26561L9.40356 6.07908L7.76489 4.55858C7.75256 4.54701 7.74011 4.54361 7.72778 4.53416C7.13058 4.00661 6.39874 3.68455 5.59985 3.68455ZM1.57739 3.68455C1.35707 3.68478 1.17809 3.90076 1.17797 4.16404C1.17814 4.42728 1.37958 4.6423 1.57739 4.64256C1.64436 4.64256 1.68559 4.62781 1.72583 4.58592C1.80973 4.47522 1.898 4.34045 1.96899 4.21385C1.97059 4.19687 1.9777 4.1816 1.97778 4.16404C1.97767 3.90062 1.79787 3.68455 1.57739 3.68455Z"/><path d="M15.6926 10.1172C15.8725 10.2848 15.9846 10.5369 15.9982 10.8125C16.0123 11.0873 15.9282 11.3552 15.7658 11.5498L14.1662 13.4668C14.0122 13.6511 13.8068 13.7471 13.5998 13.7471C13.4774 13.747 13.3573 13.7144 13.2199 13.6465L9.44751 11.3867C8.57501 12.8152 7.16863 13.7471 5.57739 13.7471C5.05985 13.747 4.56198 13.6475 4.09497 13.4658L5.50024 12.3057C5.53336 12.3067 5.56651 12.3096 5.59985 12.3096C5.82723 12.3096 6.04757 12.277 6.26391 12.2285C6.29559 12.2214 6.32823 12.2161 6.35962 12.208C6.56494 12.1552 6.76377 12.0796 6.95629 11.9853C6.98868 11.9695 7.02011 11.9525 7.052 11.9355C7.24116 11.8349 7.42546 11.7204 7.5979 11.581C7.61728 11.5655 7.63447 11.5463 7.65356 11.5303C7.79424 11.4118 7.92736 11.2782 8.05395 11.1348C8.10093 11.082 8.14809 11.0303 8.19262 10.9746C8.30155 10.8376 8.40585 10.6931 8.50122 10.5371L9.09985 9.5576L13.5197 12.2051L14.5744 10.916L11.1037 7.6826L12.1516 6.81834L15.6926 10.1172Z"/></svg>