<svg viewBox="0 0 16 16" xmlns="http://www.w3.org/2000/svg"><path d="M1 2C1 2.41562 1.33437 2.75 1.75 2.75H14.25C14.6656 2.75 15 2.41562 15 2C15 1.58437 14.6656 1.25 14.25 1.25H1.75C1.33437 1.25 1 1.58437 1 2ZM1 14C1 14.4156 1.33437 14.75 1.75 14.75H14.25C14.6656 14.75 15 14.4156 15 14C15 13.5844 14.6656 13.25 14.25 13.25H1.75C1.33437 13.25 1 13.5844 1 14Z"/><path d="M1 6.39C1 5.788 1.44772 5.3 2 5.3H5C5.55229 5.3 6 5.788 6 6.39V9.65999C6 10.2619 5.55229 10.75 5 10.75H2C1.44772 10.75 1 10.2619 1 9.65999V6.39Z"/></svg>