<svg viewBox="0 0 16 16" xmlns="http://www.w3.org/2000/svg"><path d="M1.6 2.8H8C8.22 2.8 8.4 2.98 8.4 3.2V11.9925C8.6825 11.4925 9.0975 11.075 9.6 10.795V3.2C9.6 2.3175 8.8825 1.6 8 1.6H1.6C0.7175 1.6 0 2.3175 0 3.2V12.8C0 13.6825 0.7175 14.4 1.6 14.4H8C8.08 14.4 8.16 14.395 8.2375 14.3825C8.0875 14.1325 8 13.8375 8 13.5225C8 13.4125 8.005 13.305 8.0175 13.1975C8.0125 13.1975 8.0075 13.1975 8 13.1975H6V11.6C6 10.9375 5.4625 10.4 4.8 10.4C4.1375 10.4 3.6 10.9375 3.6 11.6V13.2H1.6C1.38 13.2 1.2 13.02 1.2 12.8V3.2C1.2 2.98 1.38 2.8 1.6 2.8ZM2.2 4.2V5.4C2.2 5.62 2.38 5.8 2.6 5.8H3.8C4.02 5.8 4.2 5.62 4.2 5.4V4.2C4.2 3.98 4.02 3.8 3.8 3.8H2.6C2.38 3.8 2.2 3.98 2.2 4.2ZM5.8 3.8C5.58 3.8 5.4 3.98 5.4 4.2V5.4C5.4 5.62 5.58 5.8 5.8 5.8H7C7.22 5.8 7.4 5.62 7.4 5.4V4.2C7.4 3.98 7.22 3.8 7 3.8H5.8ZM2.2 7.4V8.6C2.2 8.82 2.38 9 2.6 9H3.8C4.02 9 4.2 8.82 4.2 8.6V7.4C4.2 7.18 4.02 7 3.8 7H2.6C2.38 7 2.2 7.18 2.2 7.4ZM5.8 7C5.58 7 5.4 7.18 5.4 7.4V8.6C5.4 8.82 5.58 9 5.8 9H7C7.22 9 7.4 8.82 7.4 8.6V7.4C7.4 7.18 7.22 7 7 7H5.8ZM14.4 8.4C14.4 7.86957 14.1893 7.36086 13.8142 6.98579C13.4391 6.61071 12.9304 6.4 12.4 6.4C11.8696 6.4 11.3609 6.61071 10.9858 6.98579C10.6107 7.36086 10.4 7.86957 10.4 8.4C10.4 8.93043 10.6107 9.43914 10.9858 9.81421C11.3609 10.1893 11.8696 10.4 12.4 10.4C12.9304 10.4 13.4391 10.1893 13.8142 9.81421C14.1893 9.43914 14.4 8.93043 14.4 8.4ZM8.8 13.5275C8.8 14.01 9.19 14.4 9.6725 14.4H15.1275C15.61 14.4 16 14.01 16 13.5275C16 12.2425 14.9575 11.2 13.6725 11.2H11.1275C9.8425 11.2 8.8 12.2425 8.8 13.5275Z"/></svg>