<svg viewBox="0 0 16 16" xmlns="http://www.w3.org/2000/svg"><path d="M3.55556 0.888889C3.925 0.888889 4.22222 1.18611 4.22222 1.55556V2.66667H8.22222V1.55556C8.22222 1.18611 8.51944 0.888889 8.88889 0.888889C9.25833 0.888889 9.55556 1.18611 9.55556 1.55556V2.66667H10.6667C11.6472 2.66667 12.4444 3.46389 12.4444 4.44444V6.22222H1.33333V13.3333C1.33333 13.5778 1.53333 13.7778 1.77778 13.7778H7.90278C8.24444 14.3 8.68056 14.7528 9.18889 15.1111H1.77778C0.797222 15.1111 0 14.3139 0 13.3333V4.44444C0 3.46389 0.797222 2.66667 1.77778 2.66667H2.88889V1.55556C2.88889 1.18611 3.18611 0.888889 3.55556 0.888889ZM8 11.1111C8 10.0502 8.42143 9.03283 9.17157 8.28268C9.92172 7.53254 10.9391 7.11111 12 7.11111C13.0609 7.11111 14.0783 7.53254 14.8284 8.28268C15.5786 9.03283 16 10.0502 16 11.1111C16 12.172 15.5786 13.1894 14.8284 13.9395C14.0783 14.6897 13.0609 15.1111 12 15.1111C10.9391 15.1111 9.92172 14.6897 9.17157 13.9395C8.42143 13.1894 8 12.172 8 11.1111ZM14.1583 13.3528C13.9861 12.825 13.4917 12.4444 12.9056 12.4444H11.0944C10.5111 12.4444 10.0139 12.825 9.84167 13.3528C10.4028 13.8917 11.1611 14.2222 12 14.2222C12.8389 14.2222 13.5972 13.8917 14.1583 13.3528ZM13.3333 10.2222C13.3333 9.8686 13.1929 9.52946 12.9428 9.27941C12.6928 9.02936 12.3536 8.88889 12 8.88889C11.6464 8.88889 11.3072 9.02936 11.0572 9.27941C10.8071 9.52946 10.6667 9.8686 10.6667 10.2222C10.6667 10.5758 10.8071 10.915 11.0572 11.165C11.3072 11.4151 11.6464 11.5556 12 11.5556C12.3536 11.5556 12.6928 11.4151 12.9428 11.165C13.1929 10.915 13.3333 10.5758 13.3333 10.2222Z"/></svg>