<svg viewBox="0 0 16 16" xmlns="http://www.w3.org/2000/svg"><path d="M9.49967 2.99994C9.49967 2.60212 9.34163 2.22059 9.06033 1.93928C8.77902 1.65798 8.39749 1.49994 7.99967 1.49994C7.60184 1.49994 7.22031 1.65798 6.93901 1.93928C6.6577 2.22059 6.49967 2.60212 6.49967 2.99994C6.49967 3.39777 6.6577 3.7793 6.93901 4.0606C7.22031 4.34191 7.60184 4.49994 7.99967 4.49994C8.39749 4.49994 8.77902 4.34191 9.06033 4.0606C9.34163 3.7793 9.49967 3.39777 9.49967 2.99994ZM8.88717 5.86557C8.60592 5.95307 8.30904 5.99994 7.99967 5.99994C7.69029 5.99994 7.39342 5.95307 7.11217 5.86557L4.94029 9.57494C5.87154 10.0093 6.90592 10.2499 7.99967 10.2499C10.6809 10.2499 13.0247 8.79369 14.2809 6.62494C14.4872 6.26557 14.9465 6.14369 15.3059 6.34994C15.6653 6.55619 15.7872 7.01557 15.5809 7.37494C14.0684 9.98744 11.2403 11.7499 7.99967 11.7499C6.63092 11.7499 5.33404 11.4343 4.18092 10.8749L1.39654 15.6281C1.18717 15.9843 0.727792 16.1062 0.371542 15.8968C0.0152916 15.6874 -0.106583 15.2281 0.102792 14.8718L2.89342 10.1062C1.88717 9.38119 1.04342 8.44994 0.421542 7.37494C0.215292 7.01557 0.337167 6.55619 0.696542 6.34994C1.05592 6.14369 1.51529 6.26557 1.72154 6.62494C2.21529 7.47494 2.87467 8.21869 3.65592 8.80307L5.83717 5.07807C5.31842 4.53744 4.99967 3.80619 4.99967 2.99994C4.99967 1.34369 6.34342 -5.72205e-05 7.99967 -5.72205e-05C9.65592 -5.72205e-05 10.9997 1.34369 10.9997 2.99994C10.9997 3.80619 10.6809 4.53744 10.1653 5.07807L11.8372 7.93432C11.4434 8.24057 11.0122 8.49994 10.5528 8.70619L8.89029 5.86557H8.88717ZM15.8965 14.8718C16.1059 15.2281 15.9872 15.6874 15.6278 15.8968C15.2684 16.1062 14.8122 15.9874 14.6028 15.6281L12.3247 11.7406C12.7747 11.5187 13.2059 11.2593 13.6122 10.9718L15.8934 14.8718H15.8965Z"/></svg>