<svg viewBox="0 0 16 16" xmlns="http://www.w3.org/2000/svg"><path d="M2.5 2.5V5.5H5.5V2.5H2.5ZM1 2.5C1 1.67188 1.67188 1 2.5 1H5.5C6.32812 1 7 1.67188 7 2.5V5.5C7 6.32812 6.32812 7 5.5 7H2.5C1.67188 7 1 6.32812 1 5.5V2.5ZM2.5 10.5V13.5H5.5V10.5H2.5ZM1 10.5C1 9.67188 1.67188 9 2.5 9H5.5C6.32812 9 7 9.67188 7 10.5V13.5C7 14.3281 6.32812 15 5.5 15H2.5C1.67188 15 1 14.3281 1 13.5V10.5ZM13.5 2.5H10.5V5.5H13.5V2.5ZM10.5 1H13.5C14.3281 1 15 1.67188 15 2.5V5.5C15 6.32812 14.3281 7 13.5 7H10.5C9.67188 7 9 6.32812 9 5.5V2.5C9 1.67188 9.67188 1 10.5 1ZM10.5 10.5V13.5H13.5V10.5H10.5ZM9 10.5C9 9.67188 9.67188 9 10.5 9H13.5C14.3281 9 15 9.67188 15 10.5V13.5C15 14.3281 14.3281 15 13.5 15H10.5C9.67188 15 9 14.3281 9 13.5V10.5Z"/></svg>