<svg viewBox="0 0 16 16" xmlns="http://www.w3.org/2000/svg"><path d="M1.49841 8C1.49841 4.40938 4.40779 1.5 7.99841 1.5C11.589 1.5 14.4984 4.40938 14.4984 8V12.5031C14.4984 13.1938 13.939 13.7531 13.2484 13.7531L9.79841 13.75C9.53904 13.3 9.05466 13 8.49841 13H7.49841C6.67029 13 5.99841 13.6719 5.99841 14.5C5.99841 15.3281 6.67029 16 7.49841 16H8.49841C9.05466 16 9.53904 15.6969 9.79841 15.25L13.2484 15.2531C14.7672 15.2531 16.0015 14.0219 16.0015 12.5031V8C15.9984 3.58125 12.4172 0 7.99841 0C3.57966 0 -0.00158691 3.58125 -0.00158691 8V9.25C-0.00158691 9.66562 0.332788 10 0.748413 10C1.16404 10 1.49841 9.66562 1.49841 9.25V8ZM4.99841 7V10.5C4.44529 10.5 3.99841 10.0531 3.99841 9.5V8C3.99841 7.44688 4.44529 7 4.99841 7ZM2.49841 8V9.5C2.49841 10.8813 3.61716 12 4.99841 12H5.49841C6.05154 12 6.49841 11.5531 6.49841 11V6.5C6.49841 5.94688 6.05154 5.5 5.49841 5.5H4.99841C3.61716 5.5 2.49841 6.61875 2.49841 8ZM10.9984 7C11.5515 7 11.9984 7.44688 11.9984 8V9.5C11.9984 10.0531 11.5515 10.5 10.9984 10.5V7ZM13.4984 8C13.4984 6.61875 12.3797 5.5 10.9984 5.5H10.4984C9.94529 5.5 9.49841 5.94688 9.49841 6.5V11C9.49841 11.5531 9.94529 12 10.4984 12H10.9984C12.3797 12 13.4984 10.8813 13.4984 9.5V8Z"/></svg>