<svg viewBox="0 0 16 16" xmlns="http://www.w3.org/2000/svg"><path d="M2.45671 0.156439C2.15983 -0.0748113 1.73796 -0.0466863 1.46921 0.218939L0.219208 1.46894C-0.0464167 1.73456 -0.0745417 2.15644 0.153583 2.45644L2.65358 5.70644C2.79421 5.89081 3.01608 6.00019 3.24733 6.00019H4.93796L8.34421 9.40644C7.88483 10.3127 8.03171 11.4502 8.79108 12.2064L12.2911 15.7064C12.6817 16.0971 13.3161 16.0971 13.7067 15.7064L15.7067 13.7064C16.0973 13.3158 16.0973 12.6814 15.7067 12.2908L12.2067 8.79081C11.4505 8.03456 10.313 7.88456 9.40671 8.34394L6.00046 4.93769V3.25019C6.00046 3.01581 5.89108 2.79706 5.70671 2.65644L2.45671 0.156439ZM0.725458 11.7752C0.259833 12.2408 0.000458313 12.8689 0.000458313 13.5252C0.000458313 14.8908 1.10983 16.0002 2.47546 16.0002C3.13171 16.0002 3.75983 15.7408 4.22546 15.2752L7.45358 12.0471C7.17546 11.4971 7.05358 10.8877 7.09108 10.2877L3.16608 14.2158C2.98171 14.3971 2.73483 14.5002 2.47546 14.5002C1.93796 14.5002 1.50046 14.0627 1.50046 13.5252C1.50046 13.2658 1.60358 13.0189 1.78483 12.8346L6.07233 8.54706L5.01296 7.48769L0.725458 11.7752ZM14.4973 5.12519C14.4536 6.34081 13.7911 7.40019 12.8161 7.99394C12.8505 8.02519 12.8817 8.05644 12.913 8.08769L13.9005 9.07519C15.1723 8.16894 16.0005 6.68144 16.0005 5.00331C16.0005 4.22831 15.8223 3.49394 15.5098 2.83769C15.3723 2.55019 14.9942 2.50956 14.7692 2.73456L12.6473 4.85644C12.5536 4.95019 12.4255 5.00331 12.2942 5.00331H11.5005C11.2255 5.00331 11.0005 4.77831 11.0005 4.50331V3.70644C11.0005 3.57519 11.0536 3.44706 11.1473 3.35331L13.2692 1.23144C13.4942 1.00644 13.4536 0.628314 13.1661 0.490814C12.5098 0.178314 11.7755 0.000188743 11.0005 0.000188743C9.20983 0.000188743 7.63796 0.940814 6.75671 2.35644C6.91296 2.62519 7.00046 2.93144 7.00046 3.25019V4.52519L7.50046 5.02519V5.00019C7.50046 3.10956 9.00046 1.56581 10.8755 1.50331L10.0848 2.29394C9.70983 2.66894 9.50046 3.17831 9.50046 3.70956V4.50019C9.50046 5.60331 10.3973 6.50019 11.5005 6.50019H12.2942C12.8255 6.50019 13.3348 6.29081 13.7098 5.91581L14.4973 5.12519Z"/></svg>