<svg viewBox="0 0 16 16" xmlns="http://www.w3.org/2000/svg"><path d="M5.71955 9.21875L3.17663 11.7619L1.70705 10.2922C1.5156 10.101 1.26053 9.99947 0.999922 9.99947C0.871276 9.99947 0.741223 10.0247 0.617139 10.0754C0.243106 10.2302 0 10.5951 0 10.9992V15.221C0.00129052 15.6656 0.337161 16 0.751191 16H5.00086C5.4052 16 5.77049 15.7563 5.92454 15.3828C6.07981 15.0087 5.99388 14.5791 5.70774 14.2931L4.23817 12.8234L6.7811 10.2803C7.07404 9.98734 7.07404 9.51281 6.7811 9.21969C6.48815 8.92656 6.01328 8.92812 5.71955 9.21875ZM15.2219 0H10.9723C10.5679 0 10.2026 0.243656 10.0486 0.617188C9.89332 0.99125 9.97925 1.42094 10.2654 1.70687L11.7353 3.17656L9.19234 5.71969C8.8994 6.01266 8.8994 6.48719 9.19234 6.78031C9.48529 7.07344 9.95979 7.07328 10.2529 6.78031L12.7958 4.23719L14.2654 5.70687C14.4568 5.89803 14.7122 5.99906 14.9725 5.99906C15.1012 5.99906 15.2311 5.97432 15.355 5.92366C15.7563 5.76875 16 5.40313 16 4.97188V0.721875C16 0.335938 15.6657 0 15.2219 0Z"/></svg>