<svg viewBox="0 0 16 16" xmlns="http://www.w3.org/2000/svg"><path d="M8 10.9719C6.8375 10.9719 6.025 11.5469 5.55 12.0594C5.27188 12.3625 4.79687 12.3844 4.49062 12.1031C4.15937 11.8219 4.16875 11.3469 4.45 11.0437C5.13437 10.2969 6.32187 9.47188 8 9.47188C9.67813 9.47188 10.8656 10.2969 11.55 11.0437C11.8313 11.3469 11.8125 11.8219 11.5094 12.1031C11.2031 12.3844 10.7281 12.3625 10.45 12.0594C9.975 11.5469 9.1625 10.9719 8 10.9719ZM6.5125 6.5C6.5125 7.05313 6.0625 7.5 5.5125 7.5C4.95937 7.5 4.5125 7.05313 4.5125 6.5C4.5125 5.94687 4.95937 5.5 5.5125 5.5C6.0625 5.5 6.5125 5.94687 6.5125 6.5ZM9.5125 6.5C9.5125 5.94687 9.95937 5.5 10.5125 5.5C11.0625 5.5 11.5125 5.94687 11.5125 6.5C11.5125 7.05313 11.0625 7.5 10.5125 7.5C9.95937 7.5 9.5125 7.05313 9.5125 6.5ZM16 8C16 12.4187 12.4187 16 8 16C3.58125 16 0 12.4187 0 8C0 3.58125 3.58125 0 8 0C12.4187 0 16 3.58125 16 8ZM8 1.5C4.40937 1.5 1.5 4.40937 1.5 8C1.5 11.5906 4.40937 14.5 8 14.5C11.5906 14.5 14.5 11.5906 14.5 8C14.5 4.40937 11.5906 1.5 8 1.5Z"/></svg>