<svg viewBox="0 0 16 16" xmlns="http://www.w3.org/2000/svg"><path d="M4.99637 10.5714C4.44318 10.5714 3.99512 11.0509 3.99512 11.6429V12.9286C3.99512 13.5205 4.44318 14 4.99637 14H6.19787C6.75106 14 7.19912 13.5205 7.19912 12.9286V11.6429C7.19912 11.0509 6.75106 10.5714 6.19787 10.5714H4.99637ZM9.80237 10.5714C9.24918 10.5714 8.80112 11.0509 8.80112 11.6429V12.9286C8.80112 13.5205 9.24918 14 9.80237 14H11.0039C11.5571 14 12.0051 13.5205 12.0051 12.9286V11.6429C12.0051 11.0509 11.5571 10.5714 11.0039 10.5714H9.80237ZM4.99637 9.71429H6.19787C6.75106 9.71429 7.19912 9.23482 7.19912 8.64286V7.35714C7.19912 6.76518 6.75106 6.28571 6.19787 6.28571H4.99637C4.44318 6.28571 3.99512 6.76518 3.99512 7.35714V8.64286C3.99512 9.23482 4.44318 9.71429 4.99637 9.71429ZM9.80237 6.28571C9.24918 6.28571 8.80112 6.76518 8.80112 7.35714V8.64286C8.80112 9.23482 9.24918 9.71429 9.80237 9.71429H11.0039C11.5571 9.71429 12.0051 9.23482 12.0051 8.64286V7.35714C12.0051 6.76518 11.5571 6.28571 11.0039 6.28571H9.80237ZM4.99637 5.42857H6.19787C6.75106 5.42857 7.19912 4.94911 7.19912 4.35714V3.07143C7.19912 2.47946 6.75106 2 6.19787 2H4.99637C4.44318 2 3.99512 2.47946 3.99512 3.07143V4.35714C3.99512 4.94911 4.44318 5.42857 4.99637 5.42857ZM9.80237 2C9.24918 2 8.80112 2.47946 8.80112 3.07143V4.35714C8.80112 4.94911 9.24918 5.42857 9.80237 5.42857H11.0039C11.5571 5.42857 12.0051 4.94911 12.0051 4.35714V3.07143C12.0051 2.47946 11.5571 2 11.0039 2H9.80237Z"/></svg>