<svg viewBox="0 0 16 16" xmlns="http://www.w3.org/2000/svg"><path d="M8.19824 11.9688C8.06514 12.1156 8 12.3063 8 12.5C8 12.6937 8.06638 12.8838 8.19912 13.0303C8.46462 13.3233 8.89467 13.3233 9.16031 13.0303L11.4259 10.5303C11.6914 10.2373 11.6914 9.76281 11.4259 9.46969L9.16031 6.96969C8.89481 6.67672 8.46476 6.67672 8.19912 6.96969C7.93348 7.26266 7.93362 7.73719 8.19912 8.03031L9.30557 9.25H1.42969C1.05444 9.25 0.75 9.5875 0.75 10C0.75 10.4125 1.05444 10.75 1.42969 10.75H9.30557L8.19824 11.9688ZM14.7204 2.91812L12.6069 0.585625C12.265 0.210687 11.8034 0 11.3248 0H6.1875C5.18779 0 4.34951 0.895625 4.375 2L4.37522 7.25C4.37528 7.66438 4.67966 8 5.05491 8C5.43015 8 5.7346 7.66406 5.70911 7.25L5.73438 2.00406C5.73438 1.72794 5.93721 1.50406 6.1875 1.50406H10.7188V4C10.7188 4.55219 11.1246 5 11.625 5H13.8651V14C13.8651 14.2761 13.6623 14.5 13.412 14.5H6.1875C5.93721 14.5 5.73438 14.2761 5.73438 14L5.73432 12.75C5.73438 12.3344 5.43135 12 5.05469 12C4.67803 12 4.375 12.3359 4.40049 12.75L4.375 14C4.37506 15.1044 5.18638 16 6.1875 16H13.4375C14.4344 16 15.25 15.1 15.25 14V4.33125C15.25 3.80313 15.0603 3.29375 14.7204 2.91812Z"/></svg>