<svg viewBox="0 0 16 16" xmlns="http://www.w3.org/2000/svg"><path d="M15.0238 10.0096L11.9521 8.694C11.2824 8.40397 10.4932 8.59685 10.0378 9.16119L9.17944 10.2081C7.77872 9.40338 6.60541 8.2315 5.8012 6.86118L6.85064 6.00242C7.41087 5.54554 7.60418 4.76178 7.32047 4.09459L5.99638 0.985501C5.67858 0.260495 4.89095 -0.135133 4.12365 0.0420555L1.26934 0.700186C0.522377 0.870812 0 1.52613 0 2.29364C0 9.85307 6.15278 16 13.7194 16C14.4877 16 15.1436 15.4784 15.2866 14.7334L15.9453 11.879C16.153 11.1096 15.7526 10.3221 15.0238 10.0096ZM14.5108 11.5409L13.8511 14.3975C13.8365 14.4319 13.7851 14.5 13.7191 14.5C6.98142 14.5 1.50116 9.02497 1.50116 2.29367C1.50116 2.22823 1.54173 2.17698 1.60576 2.16232L4.46288 1.50357C4.47265 1.50113 4.48292 1.50015 4.49269 1.50015C4.54693 1.50015 4.59776 1.53287 4.61928 1.58168L5.93742 4.65452C5.96088 4.70971 5.94524 4.77415 5.89832 4.81271L4.37295 6.03461C4.10316 6.2553 4.02105 6.63274 4.17451 6.94524C5.20706 9.04619 6.93528 10.7734 9.03855 11.8047C9.3232 11.958 9.72953 11.8759 9.95068 11.6064L11.2022 10.0792C11.2369 10.0353 11.3019 10.0186 11.3562 10.044L14.4297 11.3594C14.4889 11.4128 14.5233 11.4784 14.5108 11.5409Z"/></svg>