<svg viewBox="0 0 16 16" xmlns="http://www.w3.org/2000/svg"><path d="M3.42857 14.25C5.32214 14.25 6.85714 12.5711 6.85714 10.5C6.85714 8.42891 5.32143 6.75 3.42857 6.75C2.80071 6.75 2.22036 6.94922 1.71429 7.26953V6.4375C1.71429 4.88672 2.86821 3.625 4.28571 3.625H4.85714C5.33214 3.625 5.71429 3.20703 5.71429 2.6875C5.71429 2.16797 5.33214 1.75 4.85714 1.75H4.28571C1.92286 1.75 0 3.85156 0 6.4375V10.5C0 12.5703 1.535 14.25 3.42857 14.25ZM3.42857 8.625C4.37393 8.625 5.14286 9.46602 5.14286 10.5C5.14286 11.534 4.375 12.375 3.42857 12.375C2.48214 12.375 1.71429 11.5352 1.71429 10.5C1.71429 9.46484 2.48321 8.625 3.42857 8.625ZM12.5714 14.25C14.465 14.25 16 12.5711 16 10.5C16 8.42891 14.465 6.75 12.5714 6.75C11.9436 6.75 11.3632 6.94797 10.8571 7.26992V6.4375C10.8571 4.88672 12.0111 3.625 13.4286 3.625H14C14.475 3.625 14.8571 3.20703 14.8571 2.6875C14.8571 2.16797 14.475 1.75 14 1.75H13.4286C11.0643 1.75 9.14286 3.85156 9.14286 6.4375V10.5C9.14286 12.5703 10.6464 14.25 12.5714 14.25ZM12.5714 8.625C13.5168 8.625 14.2857 9.46602 14.2857 10.5C14.2857 11.534 13.5168 12.375 12.5714 12.375C11.6261 12.375 10.8571 11.534 10.8571 10.5C10.8571 9.46602 11.625 8.625 12.5714 8.625Z"/></svg>