<svg viewBox="0 0 16 16" xmlns="http://www.w3.org/2000/svg"><path d="M10.8259 5.44384C11.0119 5.44384 11.1922 5.45251 11.3724 5.47563C10.8898 3.20988 8.44481 1.52502 5.66546 1.52502C2.54886 1.52502 0.00500107 3.62893 0.00500107 6.30505C0.00500107 7.8483 0.856832 9.12278 2.26977 10.1083L1.70866 11.8018L3.68561 10.8163C4.39498 10.955 4.95899 11.0966 5.66837 11.0966C5.84862 11.0966 6.02015 11.088 6.2004 11.0735C6.08411 10.7007 6.02015 10.3048 6.02015 9.89441C6.01724 7.44081 8.13955 5.44384 10.8259 5.44384V5.44384ZM7.78777 3.91504C8.20932 3.91504 8.49133 4.19537 8.49133 4.62019C8.49133 5.03924 8.20932 5.31957 7.78777 5.31957C7.35749 5.31957 6.93594 5.03924 6.93594 4.62019C6.93885 4.19537 7.3604 3.91504 7.78777 3.91504ZM3.82225 5.31957C3.4007 5.31957 2.97042 5.03924 2.97042 4.62019C2.97042 4.19248 3.4007 3.91504 3.82225 3.91504C4.25253 3.91504 4.53162 4.19537 4.53162 4.62019C4.53162 5.04213 4.25253 5.31957 3.82225 5.31957ZM15.995 9.83083C15.995 7.57953 13.7302 5.74729 11.1864 5.74729C8.49133 5.74729 6.37774 7.57953 6.37774 9.83083C6.37774 12.0821 8.49424 13.9144 11.1864 13.9144C11.7475 13.9144 12.3173 13.767 12.89 13.6283L14.4425 14.475L14.0122 13.0705C15.1519 12.2208 15.995 11.0966 15.995 9.83083ZM9.62517 9.12278C9.34316 9.12278 9.06406 8.84245 9.06406 8.55634C9.06406 8.27602 9.34607 7.99858 9.62517 7.99858C10.0554 7.99858 10.3345 8.27891 10.3345 8.55634C10.3345 8.84534 10.0525 9.12278 9.62517 9.12278ZM12.7389 9.12278C12.4568 9.12278 12.1778 8.84245 12.1778 8.55634C12.1778 8.27602 12.4598 7.99858 12.7389 7.99858C13.1604 7.99858 13.4482 8.27891 13.4482 8.55634C13.4511 8.84534 13.1604 9.12278 12.7389 9.12278Z"/></svg>