<svg viewBox="0 0 16 16" xmlns="http://www.w3.org/2000/svg"><path d="M13.6428 9.20645C12.933 8.68645 11.9933 8.58645 11.2036 8.95645L10.164 9.44645C9.69413 9.66645 9.13432 9.58645 8.74446 9.24645C8.58451 9.09645 8.42457 8.93645 8.26463 8.79645L15.772 1.28645C16.0619 0.996446 16.0619 0.516446 15.772 0.226446C15.4821 -0.0635539 15.0023 -0.0635539 14.7124 0.226446L0.217424 14.7264C-0.0724748 15.0164 -0.0724748 15.4964 0.217424 15.7864C0.377369 15.9164 0.567303 15.9964 0.757237 15.9964C0.947171 15.9964 1.1371 15.9264 1.28705 15.7764L5.06574 11.9964C6.64519 13.4764 8.39458 14.6964 10.2939 15.6164C10.8137 15.8664 11.3635 15.9864 11.9134 15.9864C13.063 15.9864 14.2026 15.4664 14.9523 14.5064L15.4121 13.9164C16.2219 12.8764 16.1919 11.5464 15.3422 10.6764C14.8024 10.1364 14.2326 9.63645 13.6428 9.20645ZM14.2226 12.9964L13.7627 13.5864C13.0929 14.4464 11.9034 14.7364 10.9437 14.2764C9.1943 13.4264 7.58486 12.3064 6.12537 10.9464L7.20499 9.85645C7.38493 10.0264 7.55487 10.1964 7.74481 10.3664C8.58451 11.1064 9.7741 11.2764 10.7837 10.8064L11.8234 10.3164C12.1233 10.1764 12.4732 10.2164 12.7431 10.4064C13.2729 10.7964 13.7827 11.2364 14.2525 11.7264C14.5824 12.0464 14.5624 12.5564 14.2226 12.9964Z"/><path d="M2.78653 9.54645C2.93648 9.73645 3.1564 9.83645 3.37633 9.83645C3.53627 9.83645 3.70621 9.78645 3.83617 9.67645C4.16605 9.41645 4.21603 8.94645 3.96612 8.62645C3.09642 7.50645 2.34668 6.30645 1.7369 5.05645C1.27706 4.09645 1.56696 2.91645 2.42666 2.23645L3.12641 1.69645C3.47629 1.41645 3.97612 1.44645 4.27601 1.73645C4.75585 2.20645 5.20569 2.71645 5.59555 3.25645C5.86546 3.61645 5.7555 4.03645 5.62554 4.31645L5.20569 5.21645C4.96577 5.73645 4.8958 6.29645 4.98577 6.85645C5.05574 7.26645 5.44561 7.54645 5.84547 7.47645C6.25533 7.40645 6.53523 7.02645 6.46525 6.61645C6.42527 6.35645 6.45526 6.08645 6.56522 5.84645L6.98507 4.94645C7.41492 4.03645 7.34495 3.09645 6.80513 2.35645C6.36529 1.76645 5.86546 1.19645 5.32565 0.666446C4.48594 -0.153554 3.14641 -0.223554 2.20673 0.516446L1.50698 1.05645C0.0874697 2.15645 -0.382367 4.11645 0.387365 5.71645C1.04714 7.05645 1.84686 8.34645 2.78653 9.54645Z"/></svg>