<svg viewBox="0 0 16 16" xmlns="http://www.w3.org/2000/svg"><path d="M15.774 13.0112L11.2028 9.64143V6.67847L14.0035 5.47142V10.0694C14.0035 10.381 14.2724 10.6338 14.6037 10.6338C14.935 10.6338 15.2039 10.3822 15.2039 10.0694V5.17819C15.2039 4.85626 15.0319 4.56043 14.744 4.38642C14.4557 4.21226 14.0968 4.1891 13.7867 4.32321L11.2028 5.43686V4.99006C11.2028 4.15879 10.4864 3.48507 9.60236 3.48507L2.84806 3.46391L0.970304 2.10027C0.708734 1.9081 0.332883 1.95071 0.127853 2.19616C-0.0765018 2.44169 -0.0310396 2.79654 0.22958 2.98866L15.011 13.8787C15.1438 13.98 15.2739 14.02 15.3814 14.02C15.5596 14.02 15.7355 13.9457 15.854 13.8038C16.0816 13.5591 16.0341 13.204 15.774 13.0112ZM10.0025 8.75724L4.38097 4.61381H9.60236C9.82332 4.61381 10.0025 4.78223 10.0025 4.99006V8.75724ZM9.60236 11.3863H2.40044C2.17983 11.3863 2.00033 11.2175 2.00033 11.01V5.71669L0.815762 4.84427C0.810511 4.89365 0.800008 4.94068 0.800008 4.99006V11.01C0.800008 11.8413 1.51645 12.515 2.40044 12.515H9.60236C10.0195 12.515 10.3961 12.3613 10.6809 12.1155L9.67338 11.3729C9.64988 11.3769 9.62737 11.3863 9.60236 11.3863Z"/></svg>