<svg viewBox="0 0 16 16" xmlns="http://www.w3.org/2000/svg"><path d="M7.16107 9.30679H4.63363C2.0746 9.30679 0 11.4521 0 14.0984C0 14.5795 0.377272 14.9696 0.842478 14.9696H10.9522C11.4174 14.9696 11.7947 14.5795 11.7947 14.0984C11.7947 11.4521 9.7201 9.30679 7.16107 9.30679ZM1.28978 13.6628C1.49777 11.9449 2.91708 10.6136 4.63363 10.6136H7.16107C8.87656 10.6136 10.2967 11.9463 10.5047 13.6628H1.28978ZM5.89735 7.99999C7.75844 7.99999 9.26726 6.43973 9.26726 4.51519C9.26726 2.59066 7.75844 1.0304 5.89735 1.0304C4.03626 1.0304 2.52744 2.59066 2.52744 4.51519C2.52744 6.44 4.036 7.99999 5.89735 7.99999ZM5.89735 2.33719C7.05865 2.33719 8.00355 3.3143 8.00355 4.51519C8.00355 5.71609 7.05865 6.69319 5.89735 6.69319C4.73605 6.69319 3.79115 5.71581 3.79115 4.51519C3.79115 3.3143 4.73631 2.33719 5.89735 2.33719Z"/><path d="M12.4225 10.0984C12.2629 10.0984 12.1033 10.0397 11.9774 9.91369C11.7338 9.67014 11.7338 9.26704 11.9774 9.0235C12.2545 8.74636 12.4057 8.38525 12.4057 7.99894C12.4057 7.61263 12.2545 7.24312 11.9774 6.97438C11.7338 6.73084 11.7338 6.32774 11.9774 6.08419C12.2209 5.84065 12.624 5.84065 12.8675 6.08419C13.3798 6.59647 13.6654 7.27671 13.6654 7.99894C13.6654 8.72117 13.3798 9.40141 12.8675 9.91369C12.7416 10.0397 12.582 10.0984 12.4225 10.0984Z"/><path d="M14.0769 11.7528C13.9173 11.7528 13.7577 11.6941 13.6318 11.5681C13.3882 11.3246 13.3882 10.9214 13.6318 10.6779C14.3456 9.96407 14.7403 9.0151 14.7403 7.99894C14.7403 6.98278 14.3456 6.03381 13.6318 5.31998C13.3882 5.07643 13.3882 4.67333 13.6318 4.42979C13.8753 4.18625 14.2784 4.18625 14.522 4.42979C15.4709 5.37876 16 6.64686 16 7.99894C16 9.35102 15.4793 10.6107 14.522 11.5681C14.396 11.6941 14.2364 11.7528 14.0769 11.7528Z"/></svg>