<svg viewBox="0 0 17 16" xmlns="http://www.w3.org/2000/svg"><path d="M8.5 9H6.5C5.11875 9 4 10.1187 4 11.5C4 11.775 4.225 12 4.5 12H10.5C10.7761 12 11 11.7761 11 11.5C11 10.1187 9.88125 9 8.5 9ZM7.5 8C8.60469 8 9.5 7.10469 9.5 6C9.5 4.89531 8.60469 4 7.5 4C6.39562 4 5.5 4.89531 5.5 6C5.5 7.10469 6.39688 8 7.5 8ZM15.5 10H15V13H15.5C15.7761 13 16 12.7761 16 12.5V10.5C16 10.225 15.775 10 15.5 10ZM15.5 2H15V5H15.5C15.775 5 16 4.775 16 4.5V2.5C16 2.22375 15.775 2 15.5 2ZM15.5 6H15V9H15.5C15.775 9 16 8.775 16 8.5V6.5C16 6.225 15.775 6 15.5 6ZM12 0H3C1.89531 0 1 0.895313 1 2V14C1 15.1047 1.89531 16 3 16H12C13.1047 16 14 15.1047 14 14V2C14 0.895313 13.1031 0 12 0ZM12.5 14C12.5 14.2761 12.2761 14.5 12 14.5H3C2.72387 14.5 2.5 14.2761 2.5 14V2C2.5 1.72381 2.72387 1.5 3 1.5H12C12.2761 1.5 12.5 1.72381 12.5 2V14Z"/></svg>