<svg viewBox="0 0 16 16" xmlns="http://www.w3.org/2000/svg"><path d="M6.13491 0.533403C5.69517 0.533403 5.33537 0.891756 5.33537 1.33345V4.20227L1.36999 0.234388C1.05767 -0.0781292 0.551794 -0.0781292 0.239307 0.234388C-0.0731793 0.546904 -0.0730127 1.0531 0.239307 1.36578L4.20602 5.33366H1.33767C0.896262 5.33366 0.538135 5.69368 0.538135 6.1337C0.538135 6.57373 0.897928 6.93575 1.33934 6.93575L6.13491 6.93375C6.23935 6.93375 6.34306 6.91239 6.4408 6.87191C6.63606 6.79077 6.7916 6.63493 6.87255 6.43955C6.91446 6.34038 6.93445 6.23704 6.93445 6.1337L6.93628 1.33678C6.93778 0.893756 6.57799 0.533403 6.13491 0.533403ZM9.55961 6.87041C9.65955 6.91374 9.76282 6.93375 9.8661 6.93375L14.66 6.93567C15.1031 6.93708 15.4629 6.57706 15.4629 6.1337C15.4629 5.69035 15.1064 5.33366 14.6633 5.33366H11.7963L15.7607 1.36678C16.073 1.05426 16.073 0.548071 15.7607 0.235388C15.4484 -0.0772958 14.9425 -0.0771292 14.63 0.235388L10.6656 4.2036V1.33345C10.6656 0.891756 10.3092 0.533403 9.8661 0.533403C9.42302 0.533403 9.06489 0.893756 9.06489 1.33545L9.06656 6.1337C9.06656 6.23814 9.0879 6.34205 9.12835 6.43972C9.20981 6.63373 9.3364 6.7904 9.55961 6.87041ZM11.795 10.6673H14.6633C15.1047 10.6673 15.4629 10.3089 15.4629 9.86724C15.4629 9.42555 15.1027 9.06519 14.6613 9.06519L9.8661 9.06719C9.76166 9.06719 9.65795 9.08855 9.56021 9.12903C9.36495 9.21017 9.20941 9.36601 9.12845 9.56139C9.08655 9.66056 9.06656 9.7639 9.06656 9.86724L9.06467 14.6642C9.06323 15.1075 9.42635 15.4675 9.8661 15.4675C10.3058 15.4675 10.6656 15.1092 10.6656 14.6675V11.7987L14.63 15.7656C14.9423 16.0781 15.4482 16.0781 15.7607 15.7656C16.0732 15.453 16.073 14.9468 15.7607 14.6342L11.795 10.6673ZM6.4414 9.13053C6.34146 9.08719 6.23819 9.06719 6.13491 9.06719L1.33967 9.06386C0.898261 9.06386 0.538135 9.42721 0.538135 9.86724C0.538135 10.3073 0.896262 10.6673 1.33767 10.6673H4.20469L0.240307 14.6342C-0.0720133 14.9467 -0.0720133 15.4529 0.240307 15.7656C0.552627 16.0782 1.0585 16.0781 1.37099 15.7656L5.33537 11.7973V14.6675C5.33537 15.1108 5.69517 15.4675 6.13491 15.4675C6.57466 15.4675 6.93645 15.1072 6.93645 14.6655L6.93445 9.86724C6.93445 9.7628 6.91311 9.65889 6.87265 9.56122C6.7912 9.33721 6.63462 9.21053 6.4414 9.13053Z"/></svg>