<svg xmlns="http://www.w3.org/2000/svg" viewBox="0 0 18 13.717"><g data-name="Group 1"><path data-name="Path 30" d="M14.929 2.844A4.453 4.453 0 0116 5.715a4.453 4.453 0 01-1.071 2.871 7.236 7.236 0 01-2.911 2.08A10.379 10.379 0 018 11.429a12.212 12.212 0 01-1.295-.071 9.759 9.759 0 01-4.105 2.16 6.728 6.728 0 01-1.018.2.35.35 0 01-.272-.08.449.449 0 01-.156-.259v-.012a.118.118 0 010-.107.239.239 0 00.018-.089q0-.018.04-.085l.054-.08q.009-.013.063-.076t.071-.08q.062-.071.277-.308l.301-.341q.094-.1.277-.353a3.629 3.629 0 00.29-.455q.107-.205.241-.527a5.675 5.675 0 00.232-.679 6.555 6.555 0 01-2.21-1.963A4.332 4.332 0 010 5.715a4.253 4.253 0 01.634-2.219A6.09 6.09 0 012.339 1.67 8.69 8.69 0 014.893.451 10.617 10.617 0 018 0a10.379 10.379 0 014.018.763 7.236 7.236 0 012.911 2.081z"/><g data-name="Path 29"><path d="M17.5 11.812H8.154v-2.14l.496-.004c1.188-.008 1.63-2.118 1.634-2.14.188-1.006.584-1.74 1.174-2.176a2.13 2.13 0 011.276-.423h.186c.322 0 .804.073 1.277.423.59.437.986 1.17 1.174 2.179.004.019.446 2.129 1.632 2.137l.497.004v2.14z"/><path d="M12.735 5.429c-.383 0-1.575.136-1.96 2.194 0 0-.482 2.533-2.121 2.545v1.145H17v-1.145c-1.638-.012-2.12-2.545-2.12-2.545-.385-2.058-1.577-2.194-1.96-2.194h-.185m0-1h.184c.559 0 2.418.217 2.942 3.006.108.543.544 1.729 1.145 1.733l.993.007v3.138H7.654V9.175l.993-.007c.602-.004 1.038-1.19 1.146-1.733.524-2.79 2.382-3.006 2.941-3.006z" fill="#fff"/></g></g></svg>