<svg viewBox="0 0 16 16" xmlns="http://www.w3.org/2000/svg"><path d="M15 3C15 2.44687 14.5531 2 14 2C13.4469 2 13 2.44687 13 3V13C13 13.5531 13.4469 14 14 14C14.5531 14 15 13.5531 15 13V3ZM10.7063 8.70625C11.0969 8.31563 11.0969 7.68125 10.7063 7.29063L6.70625 3.29063C6.31563 2.9 5.68125 2.9 5.29063 3.29063C4.9 3.68125 4.9 4.31563 5.29063 4.70625L7.58437 7H2C1.44687 7 1 7.44688 1 8C1 8.55312 1.44687 9 2 9H7.58437L5.29063 11.2937C4.9 11.6844 4.9 12.3188 5.29063 12.7094C5.68125 13.1 6.31563 13.1 6.70625 12.7094L10.7063 8.70938V8.70625Z"/></svg>