<svg viewBox="0 0 16 16" xmlns="http://www.w3.org/2000/svg"><path d="M12.7051 8.45511C12.6977 7.14416 13.3151 6.15469 14.5648 5.42599C13.8656 4.4651 12.8092 3.93643 11.4145 3.83284C10.094 3.73282 8.6509 4.57226 8.12274 4.57226C7.56482 4.57226 6.28533 3.86856 5.28108 3.86856C3.20563 3.90071 1 5.45814 1 8.62657C1 9.56245 1.17853 10.5293 1.5356 11.5271C2.01169 12.8381 3.73007 16.0529 5.52285 15.9993C6.46015 15.9779 7.12221 15.3599 8.34219 15.3599C9.52497 15.3599 10.1387 15.9993 11.1838 15.9993C12.9915 15.9743 14.5462 13.0524 15 11.7378C12.5749 10.6412 12.7051 8.52298 12.7051 8.45511V8.45511ZM10.5999 2.58976C11.6153 1.4324 11.5223 0.37864 11.4926 0C10.5962 0.0500091 9.55845 0.585821 8.96706 1.24666C8.31615 1.95393 7.93305 2.82909 8.01488 3.81498C8.98565 3.88642 9.87088 3.40776 10.5999 2.58976V2.58976Z"/></svg>