<svg viewBox="0 0 16 16" xmlns="http://www.w3.org/2000/svg"><path d="M0 2.00009C0 0.896914 0.896875 0 2 0H14C15.1031 0 16 0.896914 16 2.00009V11.0005C16 12.1036 15.1031 13.0006 14 13.0006H9.66562L5.8 15.9007C5.65 16.0132 5.44688 16.0319 5.275 15.9476C5.10313 15.8632 5 15.6913 5 15.5007V13.0006H2C0.896875 13.0006 0 12.1036 0 11.0005V2.00009ZM5.46875 3.96892C5.175 4.26268 5.175 4.7377 5.46875 5.02834L6.9375 6.49716L5.46875 7.96597C5.175 8.25973 5.175 8.73475 5.46875 9.02539C5.7625 9.31603 6.2375 9.31915 6.52812 9.02539L7.99687 7.55658L9.46562 9.02539C9.75937 9.31915 10.2344 9.31915 10.525 9.02539C10.8156 8.73163 10.8187 8.25661 10.525 7.96597L9.05625 6.49716L10.525 5.02834C10.8187 4.73458 10.8187 4.25956 10.525 3.96892C10.2312 3.67828 9.75625 3.67516 9.46562 3.96892L7.99687 5.43773L6.52812 3.96892C6.23437 3.67516 5.75938 3.67516 5.46875 3.96892V3.96892Z"/></svg>