<svg viewBox="0 0 16 16" xmlns="http://www.w3.org/2000/svg"><path d="M2.4 1C2.6875 1 2.935 1.22395 2.99 1.53348L3.0275 1.875H13.545C14.0525 1.875 14.4575 2.42871 14.315 2.9868L13.44 6.38398C13.1075 6.29648 12.7575 6.25 12.4 6.25C12.3425 6.25 12.285 6.25 12.2275 6.25273L13.015 3.1875H3.2775L4.04 7.5625H9.38C9.015 7.93984 8.71 8.3582 8.48 8.875H4.2675L4.4975 10.1875H8.0725C8.0025 10.4719 7.9775 10.7645 7.9775 11.0625C7.9775 11.2102 8.005 11.3551 8.0175 11.5H3.9775C3.7125 11.5 3.465 11.2758 3.41 10.9668L1.9035 2.3125H0.6C0.26875 2.3125 0 2.01883 0 1.65625C0 1.29395 0.26875 1.00001 0.6 1.00001L2.4 1ZM3.2 13.6875C3.2 12.9629 3.7375 12.375 4.4 12.375C5.0625 12.375 5.6 12.9629 5.6 13.6875C5.6 14.4121 5.0625 15 4.4 15C3.7375 15 3.2 14.4121 3.2 13.6875ZM16 11.0625C16 13.2363 14.3875 15 12.4 15C10.4125 15 8.8 13.2363 8.8 11.0625C8.8 8.88867 10.4125 7.125 12.4 7.125C14.3875 7.125 16 8.88867 16 11.0625ZM12 11.5383L11.2825 10.7535C11.1275 10.5813 10.8725 10.5813 10.7175 10.7535C10.56 10.923 10.56 11.202 10.7175 11.3715L11.7175 12.4652C11.8725 12.6375 12.1275 12.6375 12.2825 12.4652L14.0825 10.4965C14.24 10.327 14.24 10.048 14.0825 9.87852C13.9275 9.70625 13.6725 9.70625 13.5175 9.87852L12 11.5383Z"/></svg>