<svg viewBox="0 0 16 16" xmlns="http://www.w3.org/2000/svg"><path d="M11.3333 3.72437C11.3333 4.02105 11.2833 4.32397 11.1694 4.64563C11.0361 5.19213 10.7611 5.86043 10.4333 6.49438L10.4306 6.47252C10.3444 6.66614 10.2556 6.83477 10.1639 7.00029C10.0417 7.21889 9.91389 7.40939 9.78889 7.64985L9.77778 7.66859C9.275 8.50865 8.75833 9.26126 8.41111 9.72033C8.19722 10.0482 7.80278 10.0482 7.58889 9.72033C7.24167 9.26126 6.725 8.50865 6.22222 7.66859C5.71111 6.81604 5.21389 5.87292 4.925 5.02974C4.90278 4.96416 4.88056 4.89858 4.83611 4.833C4.73889 4.43951 4.66667 4.07414 4.66667 3.75248C4.66667 3.6057 4.675 3.46205 4.68889 3.32152C4.87778 1.45528 6.28889 0.00500488 8 0.00500488C9.84167 0.00500488 11.3333 1.68294 11.3333 3.75248V3.72437ZM8 4.7237C8.61389 4.7237 9.11111 4.19281 9.11111 3.47454C9.11111 2.8128 8.61389 2.22538 8 2.22538C7.38611 2.22538 6.88889 2.8128 6.88889 3.47454C6.88889 4.19281 7.38611 4.7237 8 4.7237ZM9.77778 9.39243C10.1528 8.82406 10.5778 8.14639 10.9639 7.44374C11.0139 7.35318 11.0611 7.26261 11.1111 7.17205V14.1736L14.6667 12.7214V4.82363L11.6472 6.05717C11.7083 5.9104 11.7667 5.76674 11.8222 5.61997C11.9861 5.18276 12.1278 4.71121 12.1889 4.23965L15.1056 3.04795C15.3111 2.96457 15.5389 2.9983 15.7167 3.13727C15.8944 3.2778 16 3.50889 16 3.72437V13.2461C16 13.5615 15.825 13.8425 15.5611 13.9519L10.6722 15.9505C10.525 16.0098 10.3639 16.0098 10.2167 15.9505L5.55556 14.0424L0.894444 15.9505C0.69 16.0317 0.462222 16.0005 0.284167 15.8599C0.106083 15.7194 0 15.4883 0 15.2447V5.72302C0 5.43572 0.175389 5.15466 0.438889 5.04536L3.77778 3.68065C3.77778 3.70563 3.77778 3.72749 3.77778 3.72437C3.77778 4.22404 3.88056 4.71121 4.025 5.17652L1.33333 6.27578V14.1736L4.88889 12.7214V7.17205C4.93889 7.26261 4.98611 7.35318 5.03611 7.44374C5.42222 8.14639 5.84722 8.82406 6.22222 9.39243V12.7214L9.77778 14.1736V9.39243Z"/></svg>