<svg viewBox="0 0 16 16" xmlns="http://www.w3.org/2000/svg"><path d="M4.5125 6.5C4.5125 5.94687 4.95937 5.5 5.5125 5.5C6.0625 5.5 6.5125 5.94687 6.5125 6.5C6.5125 7.05313 6.0625 7.5 5.5125 7.5C4.95937 7.5 4.5125 7.05313 4.5125 6.5ZM11.5125 6.5C11.5125 7.05313 11.0625 7.5 10.5125 7.5C9.95937 7.5 9.5125 7.05313 9.5125 6.5C9.5125 5.94687 9.95937 5.5 10.5125 5.5C11.0625 5.5 11.5125 5.94687 11.5125 6.5ZM10.25 10.25C10.6656 10.25 11 10.5844 11 11C11 11.4156 10.6656 11.75 10.25 11.75H5.75C5.33437 11.75 5 11.4156 5 11C5 10.5844 5.33437 10.25 5.75 10.25H10.25ZM16 8C16 12.4187 12.4187 16 8 16C3.58125 16 0 12.4187 0 8C0 3.58125 3.58125 0 8 0C12.4187 0 16 3.58125 16 8ZM8 14.5C11.5906 14.5 14.5 11.5906 14.5 8C14.5 4.40937 11.5906 1.5 8 1.5C4.40937 1.5 1.5 4.40937 1.5 8C1.5 11.5906 4.40937 14.5 8 14.5Z"/></svg>