<svg viewBox="0 0 16 16" xmlns="http://www.w3.org/2000/svg"><path d="M8 16C12.4187 16 16 12.4187 16 8C16 3.58125 12.4187 0 8 0C3.58125 0 0 3.58125 0 8C0 12.4187 3.58125 16 8 16ZM5.5125 7.5C4.95937 7.5 4.5125 7.05313 4.5125 6.5C4.5125 5.94687 4.95937 5.5 5.5125 5.5C6.06562 5.5 6.5125 5.94687 6.5125 6.5C6.5125 7.05313 6.06562 7.5 5.5125 7.5ZM11.5125 6.5C11.5125 7.05313 11.0656 7.5 10.5125 7.5C9.95937 7.5 9.5125 7.05313 9.5125 6.5C9.5125 5.94687 9.95937 5.5 10.5125 5.5C11.0656 5.5 11.5125 5.94687 11.5125 6.5ZM5 10.5H11C11.275 10.5 11.5 10.725 11.5 11C11.5 11.275 11.275 11.5 11 11.5H5C4.725 11.5 4.5 11.275 4.5 11C4.5 10.725 4.725 10.5 5 10.5Z"/></svg>