<svg viewBox="0 0 16 16" xmlns="http://www.w3.org/2000/svg"><path d="M2.25 14.5H3.75V16H2.25C1.14688 16 0.25 15.1031 0.25 14V2C0.25 0.896875 1.14688 0 2.25 0H7.42188C7.95312 0 8.4625 0.209375 8.8375 0.584375L11.6656 3.4125C12.0406 3.7875 12.25 4.29688 12.25 4.82812V9.5H10.75V5H8.25C7.69687 5 7.25 4.55313 7.25 4V1.5H2.25C1.975 1.5 1.75 1.725 1.75 2V14C1.75 14.275 1.975 14.5 2.25 14.5ZM5.75 11H6.75C7.71562 11 8.5 11.7844 8.5 12.75C8.5 13.7156 7.71562 14.5 6.75 14.5H6.25V15.5C6.25 15.775 6.025 16 5.75 16C5.475 16 5.25 15.775 5.25 15.5V11.5C5.25 11.225 5.475 11 5.75 11ZM6.75 13.5C7.16563 13.5 7.5 13.1656 7.5 12.75C7.5 12.3344 7.16563 12 6.75 12H6.25V13.5H6.75ZM9.75 11H10.75C11.5781 11 12.25 11.6719 12.25 12.5V14.5C12.25 15.3281 11.5781 16 10.75 16H9.75C9.475 16 9.25 15.775 9.25 15.5V11.5C9.25 11.225 9.475 11 9.75 11ZM10.75 15C11.025 15 11.25 14.775 11.25 14.5V12.5C11.25 12.225 11.025 12 10.75 12H10.25V15H10.75ZM13.25 11.5C13.25 11.225 13.475 11 13.75 11H15.25C15.525 11 15.75 11.225 15.75 11.5C15.75 11.775 15.525 12 15.25 12H14.25V13H15.25C15.525 13 15.75 13.225 15.75 13.5C15.75 13.775 15.525 14 15.25 14H14.25V15.5C14.25 15.775 14.025 16 13.75 16C13.475 16 13.25 15.775 13.25 15.5V11.5Z"/></svg>