<svg viewBox="0 0 16 16" xmlns="http://www.w3.org/2000/svg"><path d="M0 2.38448C0 1.67508 0.583437 1.09998 1.30312 1.09998H14.6969C15.4156 1.09998 16 1.67508 16 2.38448C16 2.6802 15.8969 2.96667 15.7062 3.19462L10.5 9.49395V13.905C10.5 14.4533 10.0469 14.9 9.49063 14.9C9.2625 14.9 9.04062 14.823 8.8625 14.6566L5.97187 12.4234C5.675 12.1893 5.5 11.835 5.5 11.4592V9.49395L0.292906 3.19462C0.103469 2.96667 0 2.6802 0 2.38448ZM1.7175 2.57855L6.83125 8.7639C6.94062 8.89636 7 9.0627 7 9.23212V11.3391L9 12.9039V9.23212C9 9.0627 9.05937 8.89636 9.16875 8.7639L14.2812 2.57855H1.7175Z"/></svg>