<svg viewBox="0 0 16 16" xmlns="http://www.w3.org/2000/svg"><path d="M3.88168 3.926C3.88694 3.92631 3.88431 3.92631 3.88168 3.926V3.926ZM15.4204 5.36709C15.072 4.55677 14.367 3.6829 13.8134 3.40549C14.2639 4.25997 14.525 5.11764 14.6244 5.75699C14.6246 5.76137 14.6252 5.76573 14.6261 5.77002C13.7205 3.58535 12.1848 2.70452 10.9306 0.786423C10.4383 0.0336254 10.5719 -0.0153113 10.5011 0.00280165L10.4972 0.00502603C8.96347 0.829735 8.02358 2.49542 7.7857 3.90534C7.24009 3.93308 6.70541 4.06413 6.21194 4.29102C6.16755 4.31053 6.13137 4.34412 6.10937 4.38622C6.08737 4.42833 6.0809 4.47644 6.09098 4.52261C6.09735 4.54927 6.10943 4.57434 6.12644 4.59621C6.14342 4.61807 6.16499 4.63625 6.18968 4.64956C6.21437 4.66287 6.24169 4.67101 6.26986 4.67349C6.298 4.67593 6.3264 4.67266 6.35316 4.66386L6.37024 4.65719C6.87917 4.42512 7.43397 4.3024 7.99653 4.29747C10.0594 4.27939 11.1866 5.69642 11.5302 6.27686C11.1033 5.9861 10.3366 5.69884 9.59885 5.82309C12.4797 7.21683 11.7068 12.0049 7.71448 11.8353C5.76201 11.7524 4.52724 10.2153 4.41364 8.94995C4.41364 8.94995 4.78302 7.6169 7.06075 7.6169C7.307 7.6169 8.01065 6.95212 8.02378 6.75892C8.02082 6.69537 6.62717 6.1591 6.08359 5.641C5.79311 5.36413 5.65504 5.23086 5.53296 5.13066C5.4669 5.07639 5.39772 5.0258 5.32578 4.97909C5.14312 4.3608 5.13527 3.70642 5.30309 3.08422C4.48026 3.4468 3.84031 4.02006 3.37538 4.52595H3.37144C3.05393 4.13668 3.07593 2.85288 3.09464 2.585C3.0907 2.56816 2.85732 2.70156 2.82704 2.72196C2.54579 2.91429 2.28373 3.13163 2.04427 3.37117C1.50937 3.89867 0.595222 4.96492 0.221961 6.58796C0.0730238 7.23567 0 7.99953 0 8.2499C0 12.5303 3.58585 16 8.00897 16C11.9701 16 15.3317 13.2282 15.9034 9.56134C16.2833 7.12416 15.4204 5.39638 15.4204 5.36709Z"/></svg>