<svg viewBox="0 0 16 16" xmlns="http://www.w3.org/2000/svg"><path d="M0.75 0C1.16406 0 1.5 0.383929 1.5 0.857143V13.4286C1.5 13.9036 1.83594 14.2857 2.25 14.2857H15.25C15.6656 14.2857 16 14.6679 16 15.1429C16 15.6179 15.6656 16 15.25 16H2.25C1.0075 16 0 14.85 0 13.4286V0.857143C0 0.383929 0.335938 0 0.75 0ZM5.25 6.85714C5.66563 6.85714 6 7.23929 6 7.71429V10.5714C6 11.0464 5.66563 11.4286 5.25 11.4286C4.83437 11.4286 4.5 11.0464 4.5 10.5714V7.71429C4.5 7.23929 4.83437 6.85714 5.25 6.85714ZM9 10.5714C9 11.0464 8.66563 11.4286 8.25 11.4286C7.83437 11.4286 7.5 11.0464 7.5 10.5714V4.28571C7.5 3.81071 7.83437 3.42857 8.25 3.42857C8.66563 3.42857 9 3.81071 9 4.28571V10.5714ZM11.25 5.71429C11.6656 5.71429 12 6.09643 12 6.57143V10.5714C12 11.0464 11.6656 11.4286 11.25 11.4286C10.8344 11.4286 10.5 11.0464 10.5 10.5714V6.57143C10.5 6.09643 10.8344 5.71429 11.25 5.71429ZM15 10.5714C15 11.0464 14.6656 11.4286 14.25 11.4286C13.8344 11.4286 13.5 11.0464 13.5 10.5714V2C13.5 1.52679 13.8344 1.14286 14.25 1.14286C14.6656 1.14286 15 1.52679 15 2V10.5714Z"/></svg>