<svg viewBox="0 0 16 16" xmlns="http://www.w3.org/2000/svg"><path fill-rule="evenodd" clip-rule="evenodd" d="M15.6898 2.80729C15.8796 3.26408 15.9773 3.75401 15.9773 4.24882C15.9773 4.74364 15.8796 5.23357 15.6898 5.69036C15.5 6.14713 15.222 6.56173 14.8717 6.91022C14.5214 7.25871 14.1057 7.53421 13.6487 7.72083C13.1917 7.90745 12.7023 8.00149 12.2089 7.99753C12.0105 7.99753 11.8204 7.91854 11.6801 7.77794C11.54 7.63733 11.4612 7.44663 11.4612 7.24779C11.4612 7.04895 11.54 6.85824 11.6801 6.71764C11.8204 6.57704 12.0105 6.49805 12.2089 6.49805C12.8038 6.49805 13.3743 6.26108 13.7949 5.83927C14.2156 5.41745 14.452 4.84536 14.452 4.24882C14.452 3.65229 14.2156 3.0802 13.7949 2.65838C13.3743 2.23657 12.8038 1.9996 12.2089 1.9996C12.0105 1.9996 11.8204 1.92061 11.6801 1.78001C11.54 1.63941 11.4612 1.4487 11.4612 1.24986C11.4612 1.05102 11.54 0.860318 11.6801 0.719714C11.8204 0.57911 12.0105 0.50012 12.2089 0.50012C12.7023 0.496161 13.1917 0.590202 13.6487 0.776819C14.1057 0.963436 14.5214 1.23894 14.8717 1.58743C15.222 1.93592 15.5 2.35052 15.6898 2.80729ZM8.00188 7.99753C7.26248 7.99753 6.53969 7.77768 5.92491 7.36576C5.31012 6.95385 4.83096 6.36838 4.548 5.68339C4.26505 4.99841 4.19102 4.24467 4.33526 3.51749C4.47952 2.79031 4.83557 2.12236 5.3584 1.59809C5.88122 1.07382 6.54735 0.716795 7.27254 0.57215C7.99773 0.427506 8.7494 0.501743 9.43249 0.785473C10.1156 1.0692 10.6995 1.54969 11.1103 2.16615C11.521 2.78263 11.7404 3.5074 11.7404 4.24882C11.7404 5.24304 11.3465 6.19654 10.6453 6.89956C9.94421 7.60258 8.99337 7.99753 8.00188 7.99753ZM8.00188 1.9996C7.55824 1.9996 7.12456 2.13152 6.75569 2.37866C6.38682 2.62582 6.09932 2.97709 5.92955 3.38808C5.75978 3.79908 5.71536 4.25132 5.80191 4.68762C5.88846 5.12393 6.10209 5.5247 6.41579 5.83927C6.72948 6.15383 7.12916 6.36804 7.56427 6.45483C7.99938 6.54161 8.45039 6.49708 8.86025 6.32684C9.2701 6.1566 9.62041 5.86831 9.86695 5.49842C10.1134 5.12854 10.245 4.69368 10.245 4.24882C10.245 3.65229 10.0086 3.0802 9.58791 2.65838C9.16731 2.23657 8.59677 1.9996 8.00188 1.9996ZM14.5018 14.9451L13.7541 12.0661C13.6586 11.6909 13.4411 11.3584 13.1359 11.1212C12.8308 10.884 12.4554 10.7557 12.0693 10.7566C11.871 10.7566 11.6808 10.6776 11.5406 10.537C11.4004 10.3964 11.3217 10.2057 11.3217 10.0068C11.3217 9.80799 11.4004 9.61729 11.5406 9.47669C11.6808 9.33609 11.871 9.2571 12.0693 9.2571C12.7871 9.25596 13.4851 9.49389 14.0534 9.93356C14.6217 10.3732 15.0285 10.9897 15.2096 11.6862L15.9773 14.5652C16.0256 14.7575 15.9962 14.9611 15.8953 15.1315C15.7944 15.302 15.6303 15.4254 15.4389 15.4749H15.2495C15.0842 15.4805 14.9218 15.4317 14.7867 15.3361C14.6518 15.2404 14.5517 15.1032 14.5018 14.9451ZM11.4702 15.3401C11.602 15.4414 11.7637 15.4959 11.9298 15.4949L12.1192 15.4749C12.2146 15.4516 12.3045 15.4094 12.3835 15.3509C12.4625 15.2923 12.529 15.2184 12.5792 15.1336C12.6293 15.049 12.6621 14.955 12.6756 14.8574C12.689 14.7598 12.6828 14.6605 12.6575 14.5652L11.9098 11.6862C11.7291 10.9914 11.3239 10.3761 10.7576 9.93662C10.1912 9.49712 9.4956 9.25816 8.77947 9.2571H7.23425C6.51555 9.25716 5.81702 9.49536 5.2473 9.93467C4.67757 10.374 4.26861 10.9898 4.08399 11.6862L3.3363 14.5652C3.29055 14.7573 3.32116 14.9597 3.42165 15.1294C3.52214 15.2993 3.6846 15.4231 3.87464 15.4749C3.96957 15.5004 4.06862 15.5065 4.16597 15.493C4.2633 15.4795 4.35699 15.4467 4.44149 15.3965C4.526 15.3462 4.59963 15.2794 4.65808 15.2002C4.71652 15.121 4.75859 15.0309 4.78183 14.9351L5.52952 12.0561C5.62649 11.6818 5.84443 11.3503 6.14925 11.1133C6.45408 10.8764 6.82862 10.7475 7.21431 10.7466H8.7695C9.15515 10.7475 9.52969 10.8764 9.83455 11.1133C10.1394 11.3503 10.3573 11.6818 10.4543 12.0561L11.202 14.9351C11.2441 15.0963 11.3384 15.2387 11.4702 15.3401ZM3.79488 1.9996C3.99318 1.9996 4.18335 1.92061 4.32358 1.78001C4.46379 1.63941 4.54257 1.4487 4.54257 1.24986C4.54257 1.05102 4.46379 0.860318 4.32358 0.719714C4.18335 0.57911 3.99318 0.50012 3.79488 0.50012C2.80338 0.50012 1.8525 0.895072 1.15141 1.59809C0.450303 2.30111 0.0564411 3.25461 0.0564411 4.24882C0.0564411 5.24304 0.450303 6.19654 1.15141 6.89956C1.8525 7.60258 2.80338 7.99753 3.79488 7.99753C3.99318 7.99753 4.18335 7.91854 4.32358 7.77794C4.46379 7.63733 4.54257 7.44663 4.54257 7.24779C4.54257 7.04895 4.46379 6.85824 4.32358 6.71764C4.18335 6.57704 3.99318 6.49805 3.79488 6.49805C3.19998 6.49805 2.62945 6.26108 2.2088 5.83927C1.78814 5.41745 1.55182 4.84536 1.55182 4.24882C1.55182 3.65229 1.78814 3.0802 2.2088 2.65838C2.62945 2.23657 3.19998 1.9996 3.79488 1.9996ZM0.584808 15.4949H0.774222C0.938584 15.4948 1.09846 15.4411 1.22972 15.342C1.361 15.2428 1.45655 15.1036 1.50197 14.9451L2.24966 12.0661C2.34508 11.6909 2.5626 11.3584 2.86778 11.1212C3.17295 10.884 3.54833 10.7557 3.93445 10.7566C4.13275 10.7566 4.32292 10.6776 4.46315 10.537C4.60336 10.3964 4.68214 10.2057 4.68214 10.0068C4.68214 9.80799 4.60336 9.61729 4.46315 9.47669C4.32292 9.33609 4.13275 9.2571 3.93445 9.2571C3.21319 9.25151 2.5107 9.4874 1.93826 9.92741C1.36583 10.3674 0.956179 10.9864 0.774222 11.6862L0.0265295 14.5652C-0.000183878 14.6631 -0.00681236 14.7654 0.00704778 14.8659C0.0209069 14.9664 0.0549656 15.0631 0.107164 15.1499C0.159353 15.2369 0.228599 15.3123 0.310705 15.3716C0.392801 15.4308 0.486053 15.4728 0.584808 15.4949Z"/></svg>