<svg viewBox="0 0 16 16" xmlns="http://www.w3.org/2000/svg"><path d="M2 0.75C2 0.335938 2.33594 0 2.75 0H13.25C13.6656 0 14 0.335938 14 0.75C14 1.16406 13.6656 1.5 13.25 1.5H13V2.09313C13 3.35313 12.4719 4.53438 11.6094 5.45312L9.05937 8L11.6094 10.5469C12.4719 11.4375 13 12.6469 13 13.9062V14.5H13.25C13.6656 14.5 14 14.8344 14 15.25C14 15.6656 13.6656 16 13.25 16H2.75C2.33594 16 2 15.6656 2 15.25C2 14.8344 2.33594 14.5 2.75 14.5H3V13.9062C3 12.6469 3.50031 11.4375 4.39125 10.5469L6.94063 8L4.39125 5.45312C3.50031 4.53438 3 3.35313 3 2.09313V1.5H2.75C2.33594 1.5 2 1.16406 2 0.75ZM5.11812 12H10.8813C10.7813 11.8625 10.6688 11.7313 10.5469 11.6094L8 9.05937L5.45312 11.6094C5.33125 11.7313 5.19062 11.8625 5.11812 12ZM10.8813 4C11.2531 3.45 11.5 2.78219 11.5 2.09313V1.5H4.5V2.09313C4.5 2.78219 4.71875 3.45 5.11812 4H10.8813Z"/></svg>