<svg viewBox="0 0 16 16" xmlns="http://www.w3.org/2000/svg"><path d="M3.55556 6.26691C3.55556 6.01758 3.63969 5.78026 3.78639 5.61673L8.67528 0.209858C8.95306 -0.102102 9.37417 -0.0612013 9.61556 0.298851C9.856 0.657759 9.82561 1.20024 9.54697 1.50976L6.01364 5.43878H11.7778C14.1058 5.43878 16 7.87849 16 10.8457V15.1075C16 15.6171 15.7014 16 15.3333 16C14.9653 16 14.6667 15.6153 14.6667 15.1734V10.9116C14.6667 8.85978 13.3706 7.22233 11.7778 7.22233H6.01389L9.54722 11.1513C9.82583 11.4611 9.85611 12.0034 9.61581 12.3623C9.48333 12.4646 9.29722 12.5648 9.11111 12.5648C8.95661 12.5648 8.80111 12.4965 8.67528 12.3556L3.78639 6.94873C3.66389 6.75357 3.55556 6.48519 3.55556 6.26691ZM0.230555 5.61923L5.11944 0.212363C5.39722 -0.0995969 5.81833 -0.0586965 6.05972 0.301356C6.30017 0.660264 6.26978 1.20274 5.99114 1.51227L1.71058 6.30009L5.99114 11.0879C6.26975 11.3976 6.30003 11.9399 6.05972 12.2988C5.92778 12.4956 5.74194 12.5962 5.55528 12.5962C5.40078 12.5962 5.24528 12.5279 5.11944 12.3871L0.230555 6.98018C0.108333 6.75357 -1.69862e-07 6.48519 -1.69862e-07 6.26691C-1.69862e-07 6.01643 0.108333 5.78026 0.230555 5.61923Z"/></svg>