<svg viewBox="0 0 16 16" xmlns="http://www.w3.org/2000/svg"><path d="M13.3977 6C12.9254 6 12.5455 6.33438 12.5455 6.72188V8C12.5455 10.3359 10.255 12.2156 7.54545 11.9812C5.1875 11.7781 3.45455 9.90937 3.45455 7.81875V6.72188C3.45455 6.33438 3.0728 6 2.60227 6C2.13175 6 1.75 6.33438 1.75 6.72188V7.72656C1.75 10.5275 4.02273 13.0266 7.14773 13.4047V14.5H5.41122C4.97088 14.5 4.59091 14.8344 4.59091 15.2219C4.59091 15.6094 4.97088 16 5.41122 16H10.5249C11.0291 16 11.4091 15.6656 11.4091 15.25C11.4091 14.8344 11.0291 14.5 10.5568 14.5H8.85227V13.4447C11.8991 13.0781 14.25 10.7781 14.25 8V6.72188C14.25 6.33438 13.87 6 13.3977 6ZM8 11C9.8821 11 11.4091 9.65625 11.4091 8V3C11.4091 1.37188 9.8821 0 8 0C6.1179 0 4.59091 1.34375 4.59091 3V8C4.59091 9.65625 6.1179 11 8 11ZM6.29545 3C6.29545 2.17188 7.05895 1.5 8 1.5C8.94105 1.5 9.70455 2.17188 9.70455 3V8C9.70455 8.82812 8.94105 9.5 8 9.5C7.05895 9.5 6.29545 8.82812 6.29545 8V3Z"/></svg>