<svg viewBox="0 0 16 16" xmlns="http://www.w3.org/2000/svg"><path d="M5 7.96689C5 8.54778 4.55313 8.96627 4 8.96627C3.44687 8.96627 3 8.54778 3 7.96689C3 7.44222 3.44687 6.96752 4 6.96752C4.55313 6.96752 5 7.44222 5 7.96689ZM4 4.96877C4 4.4441 4.44687 3.96939 5 3.96939C5.55313 3.96939 6 4.4441 6 4.96877C6 5.54965 5.55313 5.96814 5 5.96814C4.44687 5.96814 4 5.54965 4 4.96877ZM9 3.96939C9 4.55028 8.55313 4.96877 8 4.96877C7.44687 4.96877 7 4.55028 7 3.96939C7 3.44472 7.44687 2.97002 8 2.97002C8.55313 2.97002 9 3.44472 9 3.96939ZM10 4.96877C10 4.4441 10.4469 3.96939 11 3.96939C11.5531 3.96939 12 4.4441 12 4.96877C12 5.54965 11.5531 5.96814 11 5.96814C10.4469 5.96814 10 5.54965 10 4.96877ZM13.8094 9.96564H10.75C9.92188 9.96564 9.25 10.6652 9.25 11.4928C9.25 11.599 9.2625 11.7021 9.28125 11.802C9.35 12.1205 9.48437 12.4016 9.62187 12.7358C9.80937 13.1668 10 13.5946 10 14.0475C10 15.0437 9.325 15.9432 8.33125 15.9838C8.22188 15.9869 8.10938 15.99 8 15.99C3.58125 15.99 0 12.411 0 7.995C0 3.57901 3.58125 0 8 0C12.4187 0 16 3.57901 16 7.995C16 8.02311 15.9719 8.05122 15.9719 8.07932C15.9875 9.21923 14.95 9.99375 13.8094 9.99375V9.96564ZM14.4719 8.06371C14.4719 8.03872 14.5 8.01686 14.5 7.96689C14.5 4.40662 11.5906 1.47096 8 1.47096C4.40937 1.47096 1.5 4.40662 1.5 7.96689C1.5 11.5834 4.40937 14.4909 8 14.4909C8.09063 14.4909 8.18125 14.4878 8.26875 14.4847C8.29375 14.4847 8.30938 14.4784 8.31875 14.4753C8.33125 14.466 8.35313 14.4535 8.38125 14.4191C8.44063 14.3473 8.5 14.2161 8.5 14.0475C8.5 13.9944 8.48125 13.8757 8.325 13.5134C8.30625 13.4759 8.2875 13.4322 8.26562 13.3823C8.13125 13.0824 7.91875 12.6015 7.81563 12.1112C7.77188 11.9113 7.75 11.7052 7.75 11.4928C7.75 9.80949 9.06562 8.46658 10.75 8.46658H13.8094C14.05 8.46658 14.2219 8.41037 14.3656 8.31355C14.4688 8.22611 14.4719 8.14803 14.4719 8.06371Z"/></svg>