<svg viewBox="0 0 16 16" xmlns="http://www.w3.org/2000/svg"><path fill-rule="evenodd" clip-rule="evenodd" d="M3.04522 0H12.938C14.6204 0 15.9832 1.36418 16 3.03158V12.9516C16 14.6358 14.6372 16 12.9548 16H3.04522C1.36275 16 0 14.6358 0 12.9516V3.03158C0 1.36418 1.36278 0 3.04522 0ZM12.938 14.4C13.7456 14.4 14.3849 13.7432 14.3849 12.9516H14.4017V3.03158C14.4017 2.23997 13.7456 1.59994 12.9548 1.59994H3.04522C2.23768 1.59994 1.59832 2.24 1.59832 3.03158V12.9516C1.59832 13.76 2.25447 14.4 3.04522 14.4H12.938ZM6.10716 3.36841H8.21021C9.75805 3.36841 11.1208 4.54733 11.2049 6.0968C11.3228 7.79788 9.9768 9.21259 8.29436 9.21259H6.89794L6.89806 12.3115C6.89806 12.4968 6.74666 12.6316 6.57836 12.6316H5.61931C5.43422 12.6316 5.29962 12.48 5.29962 12.3115V4.1768C5.29962 3.72215 5.66975 3.36841 6.10716 3.36841ZM6.91471 7.61262H8.31113C9.03452 7.61262 9.62344 7.02312 9.62344 6.28203C9.62344 5.55788 9.03452 4.96835 8.31113 4.96835H6.91471V7.61262Z"/></svg>