<svg viewBox="0 0 18 18" xmlns="http://www.w3.org/2000/svg"><path d="M16.9887 3.5001C16.9348 3.34995 16.8357 3.22023 16.7049 3.12887C16.5741 3.03751 16.4182 2.98902 16.2587 2.9901L14.7587 2.9101L14.2187 1.4901C14.1663 1.34178 14.0686 1.21369 13.9394 1.12396C13.8101 1.03423 13.656 0.987404 13.4987 0.9901V0.9901C13.3418 0.988893 13.1883 1.03631 13.0594 1.12584C12.9304 1.21536 12.8324 1.34261 12.7787 1.4901L12.2387 2.8801L10.7387 2.9901C10.5832 3.00197 10.4348 3.05958 10.312 3.15568C10.1892 3.25177 10.0976 3.38205 10.0487 3.5301C9.99933 3.67731 9.99687 3.83621 10.0416 3.98488C10.0864 4.13354 10.1762 4.26465 10.2987 4.3601L11.4587 5.3001L11.0687 6.7601C11.0288 6.91009 11.0351 7.06864 11.0868 7.21497C11.1386 7.3613 11.2334 7.48857 11.3587 7.5801C11.4893 7.66612 11.6423 7.71197 11.7987 7.71197C11.9551 7.71197 12.1081 7.66612 12.2387 7.5801L13.4987 6.7601L14.7587 7.5801C14.8888 7.66738 15.042 7.71398 15.1987 7.71398C15.3554 7.71398 15.5086 7.66738 15.6387 7.5801C15.7645 7.48919 15.859 7.36149 15.9091 7.21463C15.9593 7.06776 15.9626 6.90895 15.9187 6.7601L15.5387 5.3201L16.6987 4.3201C16.8251 4.22952 16.9207 4.10232 16.9726 3.95569C17.0245 3.80905 17.0301 3.65003 16.9887 3.5001V3.5001ZM14.7887 4.5901C14.6724 4.68386 14.586 4.80942 14.5398 4.95146C14.4936 5.0935 14.4898 5.2459 14.5287 5.3901L14.7987 6.3901L13.9087 5.8101C13.7844 5.73198 13.6405 5.69054 13.4937 5.69054C13.3469 5.69054 13.203 5.73198 13.0787 5.8101L12.1887 6.3901L12.4487 5.3901C12.4971 5.24212 12.5001 5.08305 12.4573 4.93335C12.4146 4.78365 12.328 4.65017 12.2087 4.5501L11.3887 3.8901H12.3887C12.5388 3.8833 12.6835 3.83217 12.8045 3.74318C12.9255 3.65418 13.0175 3.53132 13.0687 3.3901L13.4487 2.3901L13.8287 3.3901C13.8821 3.5299 13.9747 3.65137 14.0952 3.74002C14.2158 3.82868 14.3593 3.88078 14.5087 3.8901H15.5087L14.7887 4.5901Z"/><path d="M12.859 10.9899C12.5433 10.7605 12.1722 10.6193 11.7838 10.5806C11.3954 10.5419 11.0038 10.6073 10.649 10.7699L10.389 10.8899L9.75901 11.1899C9.57659 11.27 9.37443 11.2937 9.17845 11.258C8.98247 11.2224 8.80159 11.129 8.65901 10.9899C8.35901 10.7199 8.07901 10.4499 7.79901 10.1799L6.98901 9.33994C6.85237 9.19124 6.76395 9.00466 6.73539 8.80474C6.70683 8.60483 6.73947 8.40095 6.82901 8.21994L7.18901 7.44994C7.37465 7.08112 7.45425 6.66801 7.41894 6.25662C7.38362 5.84523 7.23479 5.45173 6.98901 5.11994C6.61123 4.59838 6.18971 4.10995 5.72901 3.65994C5.35441 3.29754 4.86091 3.08356 4.34034 3.0578C3.81976 3.03205 3.30755 3.19628 2.89901 3.51994L2.30901 3.98994C1.69502 4.46008 1.26082 5.12655 1.07883 5.87814C0.896847 6.62974 0.978092 7.42101 1.30901 8.11994C2.20322 9.97663 3.40709 11.6675 4.86901 13.1199C6.32262 14.5805 8.01322 15.7842 9.86901 16.6799C10.3182 16.8964 10.8104 17.0091 11.309 17.0099C11.827 17.0044 12.3371 16.8819 12.8012 16.6516C13.2652 16.4213 13.6713 16.0891 13.989 15.6799L14.379 15.1799C14.7328 14.7704 14.9224 14.2445 14.9113 13.7034C14.9002 13.1624 14.6892 12.6446 14.319 12.2499C13.8608 11.798 13.3731 11.3771 12.859 10.9899V10.9899ZM13.209 14.2699L12.809 14.7699C12.5496 15.1119 12.1804 15.3543 11.7634 15.4563C11.3464 15.5582 10.907 15.5136 10.519 15.3299C8.83542 14.4947 7.30411 13.3826 5.98901 12.0399C4.63113 10.7122 3.50852 9.16349 2.66901 7.45994C2.48533 7.07195 2.44073 6.63257 2.5427 6.21558C2.64467 5.79859 2.887 5.42938 3.22901 5.16994L3.82901 4.69994C3.9443 4.60417 4.08914 4.55118 4.23901 4.54994C4.32059 4.54952 4.40144 4.56521 4.47695 4.59609C4.55245 4.62698 4.62112 4.67247 4.67901 4.72994C5.09024 5.11466 5.46516 5.53644 5.79901 5.98994C5.87212 6.11238 5.91072 6.25233 5.91072 6.39494C5.91072 6.53755 5.87212 6.6775 5.79901 6.79994L5.43901 7.57994C5.23428 8.02487 5.1631 8.51967 5.23411 9.00427C5.30511 9.48887 5.51525 9.94244 5.83901 10.3099C6.11901 10.6199 6.40901 10.9199 6.70901 11.2399L7.64901 12.1199C8.01632 12.4483 8.47311 12.6598 8.96111 12.7275C9.44911 12.7951 9.94621 12.7159 10.389 12.4999L10.999 12.2099L11.269 12.0899C11.3764 12.0393 11.4957 12.019 11.6138 12.0314C11.7319 12.0437 11.8444 12.0882 11.939 12.1599C12.4004 12.4994 12.8351 12.8738 13.239 13.2799V13.2799C13.3603 13.4142 13.425 13.5901 13.4194 13.771C13.4138 13.9518 13.3384 14.1235 13.209 14.2499V14.2699Z"/></svg>