<svg viewBox="0 0 16 16" xmlns="http://www.w3.org/2000/svg"><path d="M10.2812 8.95939C10.6344 8.52814 11.2281 8.38126 11.7406 8.60314L15.2406 10.1031C15.7906 10.3375 16.0969 10.9313 15.9719 11.5125L15.2219 15.0125C15.0969 15.5875 14.5875 16 14 16C13.8094 16 13.6187 15.9969 13.4312 15.9875H13.4281C13.1156 15.975 12.8094 15.9531 12.5031 15.9188C5.475 15.175 0 9.22501 0 2.00001C0 1.40939 0.4125 0.900015 0.9875 0.77814L4.4875 0.0281397C5.07188 -0.0968603 5.6625 0.20939 5.89687 0.75939L7.39687 4.25939C7.61562 4.77189 7.47188 5.36564 7.04063 5.71876L5.77187 6.75626C6.60625 8.19376 7.80625 9.39376 9.24375 10.2281L10.2812 8.95939ZM14.4625 11.4L11.325 10.0563L10.4062 11.175C9.94063 11.7438 9.13125 11.8906 8.49375 11.5219C6.82812 10.5563 5.44062 9.16877 4.475 7.50314C4.10625 6.86564 4.25313 6.05626 4.82188 5.59064L5.94375 4.67189L4.6 1.53439L1.50312 2.20314C1.60938 8.94376 7.05625 14.3906 13.7969 14.5L14.4625 11.4Z"/><path d="M9.22043 3.7826L11.7204 6.2826L11.7236 6.27947C12.0142 6.57323 12.4892 6.5701 12.7829 6.27947C13.0767 5.98885 13.0767 5.51385 12.7829 5.2201L11.5611 4.00135H15.2517C15.6673 4.00135 16.0017 3.66697 16.0017 3.25135C16.0017 2.83572 15.6673 2.50135 15.2517 2.50135H11.5611L12.7798 1.2826C13.0736 0.991973 13.0704 0.516973 12.7798 0.223224C12.4892 -0.0705263 12.0142 -0.0705263 11.7204 0.223224L9.22043 2.72322C8.92668 3.01385 8.92668 3.48885 9.22043 3.7826Z"/></svg>