<svg viewBox="0 0 16 16" xmlns="http://www.w3.org/2000/svg"><path d="M10.2812 8.95938C10.6344 8.52813 11.2281 8.38125 11.7406 8.60312L15.2406 10.1031C15.7906 10.3375 16.0969 10.9312 15.9719 11.5125L15.2219 15.0125C15.0969 15.5875 14.5875 16 14 16C13.8094 16 13.6187 15.9969 13.4312 15.9875H13.4281C13.1156 15.975 12.8094 15.9531 12.5031 15.9187C5.475 15.175 0 9.225 0 2C0 1.40937 0.4125 0.9 0.9875 0.778125L4.4875 0.028125C5.07188 -0.096875 5.6625 0.209375 5.89687 0.759375L7.39687 4.25938C7.61562 4.77187 7.47188 5.36562 7.04063 5.71875L5.77187 6.75625C6.60625 8.19375 7.80625 9.39375 9.24375 10.2281L10.2812 8.95938ZM14.4625 11.4L11.325 10.0562L10.4062 11.175C9.94063 11.7438 9.13125 11.8906 8.49375 11.5219C6.82812 10.5563 5.44062 9.16875 4.475 7.50313C4.10625 6.86563 4.25313 6.05625 4.82188 5.59062L5.94375 4.67188L4.6 1.53437L1.50312 2.20312C1.60938 8.94375 7.05625 14.3906 13.7969 14.5L14.4625 11.4Z"/><path d="M9.65137 1.28571H15.3486C15.7047 1.28571 16 0.994286 16 0.642857C16 0.291429 15.7047 0 15.3486 0H9.65137C9.2866 0 9 0.291429 9 0.642857C9 0.994286 9.29529 1.28571 9.65137 1.28571Z"/><path d="M15.3486 3.64286H9.65137C9.29529 3.64286 9 3.35143 9 3C9 2.64857 9.29529 2.35714 9.65137 2.35714H15.3486C15.7047 2.35714 16 2.64857 16 3C16 3.35143 15.7047 3.64286 15.3486 3.64286Z"/><path d="M15.3486 6H9.65137C9.2866 6 9 5.71714 9 5.35714C9 4.99714 9.2866 4.71429 9.65137 4.71429H15.3486C15.7047 4.71429 16 5.00571 16 5.35714C16 5.70857 15.7047 6 15.3486 6Z"/></svg>