<svg viewBox="0 0 16 16" xmlns="http://www.w3.org/2000/svg"><path d="M10.7833 6.01557C10.7833 7.4004 9.5378 8.52205 8.00001 8.52205C6.46222 8.52205 5.21667 7.4004 5.21667 6.01557C5.21667 4.63073 6.46222 3.50908 8.00001 3.50908C9.5378 3.50908 10.7833 4.63073 10.7833 6.01557ZM8.00001 5.01297C7.38419 5.01297 6.88667 5.46101 6.88667 6.01557C6.88667 6.57013 7.38419 7.01816 8.00001 7.01816C8.61582 7.01816 9.11334 6.57013 9.11334 6.01557C9.11334 5.46101 8.61582 5.01297 8.00001 5.01297ZM14.68 6.01557C14.68 8.7539 10.6094 13.629 8.82457 15.6405C8.39663 16.1198 7.60338 16.1198 7.17544 15.6405C5.35932 13.629 1.32001 8.7539 1.32001 6.01557C1.32001 2.69322 4.3107 0 8.00001 0C11.6879 0 14.68 2.69322 14.68 6.01557ZM8.00001 1.50389C5.23407 1.50389 2.99001 3.52475 2.99001 6.01557C2.99001 6.40407 3.14622 7.00563 3.52232 7.80771C3.88694 8.58472 4.40464 9.44319 5.00097 10.3111C5.98905 11.7586 7.13717 13.1309 8.00001 14.1522C8.86284 13.1309 10.011 11.7586 10.999 10.3111C11.594 9.44319 12.1124 8.58472 12.4777 7.80771C12.8534 7.00563 13.01 6.40407 13.01 6.01557C13.01 3.52475 10.7659 1.50389 8.00001 1.50389Z"/></svg>