<svg viewBox="0 0 16 16" xmlns="http://www.w3.org/2000/svg"><path d="M6.15061 4.2675C6.15061 4.2675 5.65061 4.2575 5.54061 4.2575C5.43061 4.2575 5.22061 4.3875 5.22061 4.3875C4.59061 4.7675 4.46061 5.6975 4.44061 5.8975C4.42061 6.0975 4.39061 6.5275 4.71061 7.2575C4.83061 7.5375 5.05061 7.8675 5.30061 8.2175L6.40061 7.1175C6.42061 7.0775 6.44061 7.0575 6.44061 7.0575C6.44061 7.0575 6.78061 6.6775 6.94061 6.4775C7.10061 6.2775 7.01061 6.0475 6.97061 5.9475C6.93061 5.8575 6.44061 4.6375 6.37061 4.4675C6.30061 4.2975 6.15061 4.2675 6.15061 4.2675Z"/><path d="M1.83061 11.6875L2.81061 10.7075C2.47061 10.0475 2.04061 8.9875 2.04061 7.8075C2.04061 4.4575 4.76061 1.7375 8.11061 1.7375C9.17061 1.7375 10.1606 2.0075 11.0306 2.4875L11.9206 1.5975C10.8206 0.8975 9.52061 0.4975 8.12061 0.4975C4.09061 0.4975 0.820613 3.7775 0.820613 7.7975C0.820613 9.6875 1.78061 11.4075 1.87061 11.5775L1.83061 11.6875Z"/><path d="M15.7806 0.2175C15.4906 -0.0725 15.0106 -0.0725 14.7206 0.2175L0.220613 14.7175C-0.0693872 15.0075 -0.0693872 15.4875 0.220613 15.7775C0.370613 15.9175 0.560613 15.9975 0.750613 15.9975C0.940613 15.9975 1.13061 15.9275 1.28061 15.7775L2.02061 15.0375L4.61061 14.2075C4.76061 14.2975 6.21061 15.0975 8.12061 15.0975C12.1506 15.0975 15.4206 11.8175 15.4206 7.7975C15.4206 6.0775 14.8206 4.4875 13.8106 3.2375L15.7706 1.2775C16.0706 0.9875 16.0706 0.5075 15.7806 0.2175ZM14.1906 7.7975C14.1906 11.1475 11.4706 13.8675 8.12061 13.8675C6.28061 13.8675 4.79061 12.8775 4.77061 12.8675L4.76061 12.8575L3.93061 13.1275L6.98061 10.0775C7.95061 10.9075 9.31061 11.2975 9.74061 11.4275C10.2006 11.5675 11.1806 11.3575 11.6406 10.8675C12.1106 10.3775 12.0106 9.8675 12.0106 9.6975C12.0106 9.5275 11.8506 9.4975 11.8506 9.4975C11.8506 9.4975 10.6006 8.8575 10.3406 8.7375C10.0806 8.6175 9.95061 8.8075 9.95061 8.8075C9.95061 8.8075 9.56061 9.2775 9.43061 9.4375C9.30061 9.5975 9.23061 9.7375 8.91061 9.6175C8.70061 9.5475 8.34061 9.3475 7.97061 9.0875L12.9406 4.1175C13.7206 5.1475 14.1906 6.4175 14.1906 7.7975Z"/></svg>