<svg viewBox="0 0 16 16" xmlns="http://www.w3.org/2000/svg"><path d="M8.4004 0.0911233C8.27493 0.0314218 8.14049 0 8.00008 0C7.85967 0 7.72523 0.0314218 7.59975 0.0911233L1.9743 2.60173C1.31705 2.89395 0.827104 3.5758 0.830092 4.39906C0.845029 7.5161 2.06393 13.2192 7.21138 15.8115C7.71029 16.0628 8.28987 16.0628 8.78878 15.8115C13.9362 13.2192 15.1551 7.5161 15.1701 4.39906C15.1731 3.5758 14.6831 2.89395 14.0259 2.60173L8.4004 0.0911233ZM11.3759 6.56716L7.55195 10.5892C7.27113 10.8845 6.81703 10.8845 6.53919 10.5892L4.6272 8.57816C4.34637 8.2828 4.34637 7.80518 4.6272 7.51296C4.90802 7.22074 5.36212 7.2176 5.63996 7.51296L7.04408 8.98979L10.3602 5.49882C10.641 5.20346 11.0951 5.20346 11.373 5.49882C11.6508 5.79419 11.6538 6.2718 11.373 6.56402L11.3759 6.56716Z"/></svg>