<svg viewBox="0 0 16 16" xmlns="http://www.w3.org/2000/svg"><path d="M15.25 12.495H14V11.245C14 10.835 13.66 10.495 13.25 10.495C12.84 10.495 12.5 10.835 12.5 11.245V12.495H11.25C10.84 12.495 10.5 12.835 10.5 13.245C10.5 13.655 10.84 13.995 11.25 13.995H12.5V15.245C12.5 15.655 12.84 15.995 13.25 15.995C13.66 15.995 14 15.665 14 15.245V13.995H15.25C15.66 13.995 16 13.655 16 13.245C16 12.835 15.66 12.495 15.25 12.495Z"/><path d="M15.34 6.155V2.075C15.34 0.935005 14.41 0.00500488 13.27 0.00500488H9.19C8.64 0.00500488 8.12 0.215005 7.73 0.615005L0.61 7.725C0.21 8.115 0 8.635 0 9.195C0 9.745 0.22 10.265 0.61 10.655L4.69 14.735C5.09 15.135 5.62 15.335 6.15 15.335C6.68 15.335 7.21 15.135 7.61 14.735L14.73 7.615C15.13 7.225 15.34 6.705 15.34 6.155ZM13.84 6.155C13.84 6.305 13.78 6.445 13.67 6.555L6.55 13.675C6.34 13.885 5.96 13.895 5.75 13.675L1.67 9.59501C1.56 9.48501 1.5 9.345 1.5 9.195C1.5 9.045 1.56 8.905 1.67 8.795L8.79 1.675C8.9 1.565 9.04 1.505 9.19 1.505H13.27C13.58 1.505 13.84 1.755 13.84 2.075V6.155Z"/><path d="M11.34 4.995C11.8923 4.995 12.34 4.54729 12.34 3.995C12.34 3.44272 11.8923 2.995 11.34 2.995C10.7877 2.995 10.34 3.44272 10.34 3.995C10.34 4.54729 10.7877 4.995 11.34 4.995Z"/></svg>