<svg viewBox="0 0 16 16" xmlns="http://www.w3.org/2000/svg"><path d="M15.0297 1.1396C15.2897 0.91539 15.6672 0.967342 15.8722 1.25171C16.0772 1.53608 16.0297 1.94896 15.7697 2.17317L0.96994 14.8604C0.709945 15.0846 0.332452 15.0327 0.127455 14.7483C-0.0775412 14.4639 -0.0300421 14.051 0.229953 13.8268L4.11988 10.491C2.54491 8.3828 1.59993 5.68677 1.59993 2.75012C1.59993 2.23333 1.92992 1.78764 2.38992 1.681L5.18987 1.02476C5.65736 0.91539 6.12985 1.18335 6.31735 1.66459L7.51733 4.72703C7.69232 5.17545 7.57732 5.69497 7.23233 6.00395L6.21735 6.91174C6.43234 7.31916 6.67984 7.70469 6.95234 8.06289L15.0297 1.1396ZM6.00985 8.87225C5.70236 8.46483 5.42486 8.02734 5.17987 7.56798C4.88487 7.01018 5.00237 6.30199 5.45736 5.89458L6.35485 5.09069L5.27986 2.34544L2.79991 2.92785C2.83741 5.4899 3.67989 7.83868 5.06237 9.68434L6.00735 8.87498L6.00985 8.87225ZM5.85985 12.364L6.82984 11.5273C8.45481 12.8534 10.4623 13.6491 12.6372 13.6874L13.1697 10.9749L10.6598 9.79918L9.92478 10.7781C9.55229 11.2757 8.9048 11.4042 8.39481 11.0816C8.19481 10.9558 8.00232 10.8218 7.81232 10.6796L8.8073 9.82379C8.8698 9.8648 8.9323 9.90855 8.9973 9.94683L9.59979 9.14021L10.3848 8.46483C10.5823 8.41835 10.7948 8.43476 10.9923 8.52772L13.7922 9.84019C14.2322 10.0453 14.4772 10.5648 14.3772 11.0734L13.7772 14.1358C13.6772 14.6389 13.2722 14.9998 12.7997 14.9998C12.6472 14.9998 12.4947 14.9971 12.3422 14.9889H12.3397C12.0897 14.978 11.8447 14.9588 11.5998 14.9288C9.44479 14.6772 7.46983 13.7585 5.85735 12.3612L5.85985 12.364Z"/></svg>