<svg viewBox="0 0 16 16" xmlns="http://www.w3.org/2000/svg"><path d="M13.6833 5.80847C13.5486 5.70113 13.3862 5.64873 13.2252 5.64873C13.0158 5.64873 12.8085 5.73728 12.6662 5.9092C12.4129 6.21235 12.4581 6.65954 12.7679 6.90827C13.1077 7.18374 13.3036 7.58005 13.3036 8.00003C13.3036 8.41971 13.1077 8.81691 12.7669 9.09049C12.4571 9.3391 12.4119 9.78641 12.6652 10.0896C12.8074 10.2615 13.0153 10.3502 13.2245 10.3502C13.3855 10.3502 13.5484 10.2975 13.6822 10.1903C14.3613 9.64444 14.75 8.84885 14.75 8.00003C14.75 7.15121 14.3613 6.35562 13.6833 5.80847ZM10.3263 1.45905C10.1997 1.40298 10.0633 1.375 9.92978 1.375C9.69784 1.375 9.46903 1.45734 9.28883 1.61459L5.22165 5.16076H2.69643C1.89758 5.16076 1.25 5.79634 1.25 6.55377V9.36643C1.25 10.1505 1.89758 10.7594 2.69643 10.7594H5.22286L9.28792 14.3056C9.46752 14.5422 9.69654 14.625 9.92857 14.625C10.0623 14.625 10.1985 14.5975 10.3251 14.5411C10.6729 14.3884 10.8929 14.0512 10.8929 13.6786V2.32148C10.8929 1.94912 10.6729 1.58505 10.3263 1.45905ZM9.44643 12.6257L5.7731 9.41967H2.69643V6.60701H5.7731L9.44643 3.37556V12.6257Z"/></svg>