<svg viewBox="0 0 16 16" xmlns="http://www.w3.org/2000/svg"><path d="M8 3.29104C5.85139 3.29104 4.11111 4.86705 4.11111 6.81285C4.11111 8.75778 5.85236 10.3347 8 10.3347C10.148 10.3347 11.8889 8.75778 11.8889 6.81285C11.8889 4.86705 10.1486 3.29104 8 3.29104ZM8 8.92594C6.71343 8.92594 5.66667 7.97799 5.66667 6.81285C5.66667 5.64772 6.71018 4.69977 7.99676 4.69977C9.28333 4.69977 10.3333 5.64772 10.3333 6.81285C10.3333 7.97799 9.28657 8.92594 8 8.92594ZM12.012 12.0046C13.8171 10.8571 15 8.96116 15 6.81285C15 3.31158 11.8659 0.5 8 0.5C4.1338 0.5 1 3.33829 1 6.81285C1 8.96175 2.18352 10.8571 3.98958 12.0046L1.9437 14.361C1.76041 14.5729 1.72596 14.8614 1.85559 15.1038C1.98648 15.3474 2.25773 15.5 2.55556 15.5H13.4444C13.7422 15.5 14.0135 15.3459 14.1441 15.1032C14.2737 14.8606 14.2393 14.5723 14.056 14.3604L12.012 12.0046ZM4.15648 14.0913L5.37532 12.6872C6.18518 12.9848 7.06991 13.1521 8 13.1521C8.93009 13.1521 9.81352 12.9847 10.6244 12.6872L11.8435 14.0913H4.15648ZM8 11.7434C4.9981 11.7434 2.55556 9.5314 2.55556 6.81285C2.55556 4.09519 4.99907 1.88231 8 1.88231C11.0022 1.88231 13.4444 4.09401 13.4444 6.81285C13.4444 9.53052 11.0009 11.7434 8 11.7434Z"/></svg>