<svg viewBox="0 0 16 16" xmlns="http://www.w3.org/2000/svg"><path d="M4.28571 0H1.14286C0.514286 0 0 0.514286 0 1.14286V14.8571C0 15.4857 0.514286 16 1.14286 16H4.28571C4.76071 16 5.14286 15.6179 5.14286 15.1429C5.14286 14.6679 4.76071 14.2857 4.28571 14.2857H1.71429V1.71429H4.28571C4.76071 1.71429 5.14286 1.33036 5.14286 0.857143C5.14286 0.383929 4.76071 0 4.28571 0ZM14.8571 0H11.7143C11.2393 0 10.8571 0.383928 10.8571 0.825C10.8571 1.26607 11.2393 1.71429 11.6821 1.71429H14.2857V14.2857H11.7143C11.2393 14.2857 10.8571 14.6679 10.8571 15.1107C10.8571 15.5536 11.2393 16 11.6821 16H14.8571C15.4857 16 16 15.4857 16 14.8571V1.14286C16 0.514286 15.4857 0 14.8571 0Z"/></svg>