<svg viewBox="0 0 17 17" xmlns="http://www.w3.org/2000/svg"><path fill-rule="evenodd" clip-rule="evenodd" d="M0.988892 0.0277786H16.9889V16.0278H0.988892V0.0277786ZM4.61112 8.96111C4.62223 9.28889 4.88889 9.54445 5.21667 9.53889C5.58889 9.53889 5.81667 9.35556 5.81667 9.02222C5.81667 8.7656 5.44753 8.60013 5.01469 8.40611L5.0145 8.40602C4.9695 8.38585 4.92381 8.36537 4.87778 8.34445C4.71667 8.50556 4.61667 8.72778 4.61112 8.95556V8.96111ZM5.77778 6.97778C5.77778 6.7 5.57778 6.51667 5.25 6.51667C4.93334 6.51667 4.79445 6.68889 4.79445 6.90556C4.79445 7.23889 5.16112 7.40556 5.6 7.59445C5.71112 7.40556 5.77223 7.19445 5.77778 6.97778ZM6.97223 6.88333C6.97223 7.42222 6.53334 7.96667 6.48334 8.02778C6.82223 8.26111 7.07223 8.58333 7.06667 9.08889C7.06667 9.85 6.45 10.6167 5.21112 10.6167C3.99445 10.6167 3.35556 9.86111 3.35556 9.06111C3.35556 8.41667 3.89445 7.95556 4.05 7.83889C3.78334 7.60556 3.59445 7.30556 3.59445 6.87778C3.59445 6.15 4.10556 5.43333 5.27778 5.43333C6.20556 5.43333 6.97223 5.95 6.97223 6.88333ZM9.37777 7.33889H10.5944L9.65555 8.81111L10.6056 10.2833H9.41111L9.08333 9.66667C9.05 9.61111 9.00555 9.5 9.00555 9.5H8.99444C8.99444 9.5 8.95 9.61111 8.91666 9.66667L8.59444 10.2833H7.4L8.35 8.81111L7.39444 7.33889H8.61111L8.88888 7.87222C8.93333 7.95555 8.98888 8.05 8.98888 8.05H9C9.03889 7.99444 9.07222 7.93333 9.1 7.87222L9.37777 7.33889ZM12.7611 9.53889C12.4333 9.54445 12.1667 9.28889 12.1611 8.96111V8.95556C12.1667 8.72778 12.2611 8.50556 12.4278 8.34445C12.4739 8.3654 12.5196 8.38591 12.5647 8.40611C12.9975 8.60013 13.3667 8.7656 13.3667 9.02222C13.3611 9.35556 13.1333 9.53889 12.7611 9.53889ZM12.7944 6.51667C13.1222 6.51667 13.3222 6.7 13.3222 6.97778C13.3167 7.19445 13.2556 7.40556 13.1444 7.59445C12.7056 7.40556 12.3389 7.23889 12.3389 6.90556C12.3389 6.68889 12.4833 6.51667 12.7944 6.51667ZM14.0278 8.02778C14.0778 7.96667 14.5167 7.42222 14.5167 6.88333C14.5167 5.95 13.75 5.43333 12.8167 5.43333C11.6444 5.43333 11.1333 6.15 11.1333 6.87778C11.1333 7.30556 11.3222 7.60556 11.5889 7.83889C11.4333 7.95556 10.8944 8.41667 10.8944 9.06111C10.8944 9.86111 11.5333 10.6167 12.75 10.6167C13.9889 10.6167 14.6056 9.85 14.6056 9.08889C14.6167 8.58333 14.3667 8.26111 14.0278 8.02778Z"/></svg>