<svg viewBox="0 0 17 17" xmlns="http://www.w3.org/2000/svg"><path fill-rule="evenodd" clip-rule="evenodd" d="M0.98877 0.027832H16.9888V16.0278H0.98877V0.027832ZM4.61099 8.96117C4.6221 9.28894 4.88877 9.5445 5.21655 9.53894C5.58877 9.53894 5.81655 9.35561 5.81655 9.02228C5.81655 8.76566 5.44741 8.60019 5.01457 8.40616L5.01437 8.40607C4.96938 8.3859 4.92369 8.36542 4.87766 8.3445C4.71655 8.50561 4.61655 8.72783 4.61099 8.95561V8.96117ZM5.77766 6.97783C5.77766 6.70005 5.57766 6.51672 5.24988 6.51672C4.93322 6.51672 4.79433 6.68894 4.79433 6.90561C4.79433 7.23894 5.16099 7.40561 5.59988 7.5945C5.71099 7.40561 5.7721 7.1945 5.77766 6.97783ZM6.9721 6.88339C6.9721 7.42228 6.53322 7.96672 6.48322 8.02783C6.8221 8.26117 7.0721 8.58339 7.06655 9.08894C7.06655 9.85005 6.44988 10.6167 5.21099 10.6167C3.99433 10.6167 3.35544 9.86117 3.35544 9.06117C3.35544 8.41672 3.89433 7.95561 4.04988 7.83894C3.78322 7.60561 3.59433 7.30561 3.59433 6.87783C3.59433 6.15005 4.10544 5.43339 5.27766 5.43339C6.20544 5.43339 6.9721 5.95005 6.9721 6.88339ZM9.37783 7.33891H10.5945L9.65561 8.81113L10.6056 10.2833H9.41117L9.08339 9.66668C9.05006 9.61113 9.00561 9.50002 9.00561 9.50002H8.9945C8.9945 9.50002 8.95006 9.61113 8.91672 9.66668L8.5945 10.2833H7.40006L8.35006 8.81113L7.3945 7.33891H8.61117L8.88895 7.87224C8.93339 7.95557 8.98895 8.05002 8.98895 8.05002H9.00006C9.03895 7.99446 9.07228 7.93335 9.10006 7.87224L9.37783 7.33891ZM12.7612 9.53894C12.4334 9.5445 12.1667 9.28894 12.1612 8.96117V8.95561C12.1667 8.72783 12.2612 8.50561 12.4278 8.3445C12.4739 8.36545 12.5197 8.38596 12.5647 8.40616C12.9976 8.60019 13.3667 8.76566 13.3667 9.02228C13.3612 9.35561 13.1334 9.53894 12.7612 9.53894ZM12.7945 6.51672C13.1223 6.51672 13.3223 6.70005 13.3223 6.97783C13.3167 7.1945 13.2556 7.40561 13.1445 7.5945C12.7056 7.40561 12.3389 7.23894 12.3389 6.90561C12.3389 6.68894 12.4834 6.51672 12.7945 6.51672ZM14.0278 8.02783C14.0778 7.96672 14.5167 7.42228 14.5167 6.88339C14.5167 5.95005 13.7501 5.43339 12.8167 5.43339C11.6445 5.43339 11.1334 6.15005 11.1334 6.87783C11.1334 7.30561 11.3223 7.60561 11.5889 7.83894C11.4334 7.95561 10.8945 8.41672 10.8945 9.06117C10.8945 9.86117 11.5334 10.6167 12.7501 10.6167C13.9889 10.6167 14.6056 9.85005 14.6056 9.08894C14.6167 8.58339 14.3667 8.26117 14.0278 8.02783Z"/></svg>