<svg viewBox="0 0 16 16" xmlns="http://www.w3.org/2000/svg"><path d="M9.59436 7.3389H8.3777L8.09992 7.87224C8.07214 7.93335 8.03881 7.99446 7.99992 8.05001H7.98881C7.98881 8.05001 7.93325 7.95557 7.88881 7.87224L7.61103 7.3389H6.39436L7.34992 8.81113L6.39992 10.2833H7.59436L7.91658 9.66668C7.94992 9.61113 7.99436 9.50002 7.99436 9.50002H8.00547C8.00547 9.50002 8.04992 9.61113 8.08325 9.66668L8.41103 10.2833H9.60547L8.65547 8.81113L9.59436 7.3389Z"/><path d="M4.21658 9.5389C3.8888 9.54446 3.62214 9.28891 3.61102 8.96113V8.95557C3.61658 8.72779 3.71658 8.50557 3.87769 8.34446C4.36658 8.56668 4.81658 8.7389 4.81658 9.02224C4.81658 9.35557 4.5888 9.5389 4.21658 9.5389ZM4.24991 6.51668C4.57769 6.51668 4.77769 6.70002 4.77769 6.97779C4.77213 7.19446 4.71102 7.40557 4.59991 7.59446C4.16102 7.40557 3.79436 7.23891 3.79436 6.90557C3.79436 6.68891 3.93325 6.51668 4.24991 6.51668ZM5.48325 8.02779C5.53325 7.96668 5.97213 7.42224 5.97213 6.88335C5.97213 5.95002 5.20547 5.43335 4.27769 5.43335C3.10547 5.43335 2.59436 6.15002 2.59436 6.87779C2.59436 7.30557 2.78325 7.60557 3.04991 7.83891C2.89436 7.95557 2.35547 8.41668 2.35547 9.06113C2.35547 9.86113 2.99436 10.6167 4.21102 10.6167C5.44991 10.6167 6.06658 9.85002 6.06658 9.08891C6.07213 8.58335 5.82213 8.26113 5.48325 8.02779Z"/><path d="M11.761 9.5389C11.4333 9.54446 11.1666 9.28891 11.161 8.96113V8.95557C11.1666 8.72779 11.261 8.50557 11.4277 8.34446C11.9166 8.56668 12.3666 8.7389 12.3666 9.02224C12.361 9.35557 12.1333 9.5389 11.761 9.5389ZM11.7944 6.51668C12.1221 6.51668 12.3221 6.70002 12.3221 6.97779C12.3166 7.19446 12.2555 7.40557 12.1444 7.59446C11.7055 7.40557 11.3388 7.23891 11.3388 6.90557C11.3388 6.68891 11.4833 6.51668 11.7944 6.51668ZM13.0277 8.02779C13.0777 7.96668 13.5166 7.42224 13.5166 6.88335C13.5166 5.95002 12.7499 5.43335 11.8166 5.43335C10.6444 5.43335 10.1332 6.15002 10.1332 6.87779C10.1332 7.30557 10.3221 7.60557 10.5888 7.83891C10.4333 7.95557 9.89436 8.41668 9.89436 9.06113C9.89436 9.86113 10.5333 10.6167 11.7499 10.6167C12.9888 10.6167 13.6055 9.85002 13.6055 9.08891C13.6166 8.58335 13.3666 8.26113 13.0277 8.02779Z"/></svg>