<svg viewBox="0 0 16 16" xmlns="http://www.w3.org/2000/svg"><path d="M9.59445 7.33889H8.37779L8.10001 7.87222C8.07223 7.93333 8.0389 7.99444 8.00001 8.05H7.9889C7.9889 8.05 7.93334 7.95556 7.8889 7.87222L7.61112 7.33889H6.39445L7.35001 8.81111L6.40001 10.2833H7.59445L7.91668 9.66667C7.95001 9.61111 7.99445 9.5 7.99445 9.5H8.00556C8.00556 9.5 8.05001 9.61111 8.08334 9.66667L8.41112 10.2833H9.60556L8.65556 8.81111L9.59445 7.33889Z"/><path d="M4.21667 9.53889C3.88889 9.54444 3.62223 9.28889 3.61112 8.96111V8.95556C3.61667 8.72778 3.71667 8.50556 3.87778 8.34445C4.36667 8.56667 4.81667 8.73889 4.81667 9.02222C4.81667 9.35556 4.58889 9.53889 4.21667 9.53889ZM4.25 6.51667C4.57778 6.51667 4.77778 6.7 4.77778 6.97778C4.77223 7.19445 4.71112 7.40556 4.6 7.59445C4.16112 7.40556 3.79445 7.23889 3.79445 6.90556C3.79445 6.68889 3.93334 6.51667 4.25 6.51667ZM5.48334 8.02778C5.53334 7.96667 5.97223 7.42222 5.97223 6.88333C5.97223 5.95 5.20556 5.43333 4.27778 5.43333C3.10556 5.43333 2.59445 6.15 2.59445 6.87778C2.59445 7.30556 2.78334 7.60556 3.05 7.83889C2.89445 7.95556 2.35556 8.41667 2.35556 9.06111C2.35556 9.86111 2.99445 10.6167 4.21112 10.6167C5.45 10.6167 6.06667 9.85 6.06667 9.08889C6.07223 8.58333 5.82223 8.26111 5.48334 8.02778Z"/><path d="M11.7611 9.53889C11.4333 9.54444 11.1667 9.28889 11.1611 8.96111V8.95556C11.1667 8.72778 11.2611 8.50556 11.4278 8.34445C11.9167 8.56667 12.3667 8.73889 12.3667 9.02222C12.3611 9.35556 12.1333 9.53889 11.7611 9.53889ZM11.7945 6.51667C12.1222 6.51667 12.3222 6.7 12.3222 6.97778C12.3167 7.19445 12.2556 7.40556 12.1445 7.59445C11.7056 7.40556 11.3389 7.23889 11.3389 6.90556C11.3389 6.68889 11.4833 6.51667 11.7945 6.51667ZM13.0278 8.02778C13.0778 7.96667 13.5167 7.42222 13.5167 6.88333C13.5167 5.95 12.75 5.43333 11.8167 5.43333C10.6445 5.43333 10.1333 6.15 10.1333 6.87778C10.1333 7.30556 10.3222 7.60556 10.5889 7.83889C10.4333 7.95556 9.89445 8.41667 9.89445 9.06111C9.89445 9.86111 10.5333 10.6167 11.75 10.6167C12.9889 10.6167 13.6056 9.85 13.6056 9.08889C13.6167 8.58333 13.3667 8.26111 13.0278 8.02778Z"/></svg>