<svg viewBox="0 0 16 16" xmlns="http://www.w3.org/2000/svg"><path d="M8 0C3.59 0 0 3.59 0 8C0 12.41 3.59 16 8 16C12.41 16 16 12.41 16 8C16 3.59 12.41 0 8 0ZM8 14.5C4.42 14.5 1.5 11.58 1.5 8C1.5 4.42 4.42 1.5 8 1.5C11.58 1.5 14.5 4.42 14.5 8C14.5 11.58 11.58 14.5 8 14.5Z"/><path d="M11.75 7.25H8.75V4.25C8.75 3.84 8.41 3.5 8 3.5C7.59 3.5 7.25 3.84 7.25 4.25V7.25H4.25C3.84 7.25 3.5 7.59 3.5 8C3.5 8.41 3.84 8.75 4.25 8.75H7.25V11.75C7.25 12.16 7.59 12.5 8 12.5C8.41 12.5 8.75 12.16 8.75 11.75V8.75H11.75C12.16 8.75 12.5 8.41 12.5 8C12.5 7.59 12.16 7.25 11.75 7.25Z"/></svg>