<svg viewBox="0 0 16 16" xmlns="http://www.w3.org/2000/svg"><path d="M7.97187 3.21214C8.42533 3.21214 8.76702 3.57016 8.76702 4.01518V7.76268C8.76702 8.20769 8.42533 8.56571 7.97187 8.56571C7.5759 8.56571 7.20547 8.20769 7.20547 7.76268V4.01518C7.20547 3.57016 7.5759 3.21214 7.97187 3.21214ZM9.02249 10.7071C9.02249 11.2994 8.56584 11.7779 7.97187 11.7779C7.43539 11.7779 6.95 11.2994 6.95 10.7071C6.95 10.1149 7.43539 9.63643 7.97187 9.63643C8.56584 9.63643 9.02249 10.1149 9.02249 10.7071ZM0.335256 6.2436L3.2904 1.15637C3.70554 0.438324 4.45278 0 5.22558 0H10.7469C11.5484 0 12.2957 0.438324 12.7108 1.15637L15.6647 6.2436C16.1118 7.01318 16.1118 7.97682 15.6647 8.7464L12.7108 13.8323C12.2957 14.5517 11.5484 14.99 10.7469 14.99H5.22558C4.45278 14.99 3.70554 14.5517 3.2904 13.8323L0.335256 8.7464C-0.111752 7.97682 -0.111752 7.01318 0.335256 6.2436ZM1.64454 7.07675C1.49541 7.33439 1.49541 7.65561 1.64454 7.91325L4.59968 12.9991C4.73699 13.2367 4.98608 13.3839 5.22558 13.3839H10.7469C11.0152 13.3839 11.2642 13.2367 11.4016 12.9991L14.3554 7.91325C14.5055 7.65561 14.5055 7.33439 14.3554 7.07675L11.4016 1.99153C11.2642 1.75229 11.0152 1.60607 10.7469 1.60607H5.22558C4.98608 1.60607 4.73699 1.75229 4.59968 1.99153L1.64454 7.07675ZM12.7108 1.15637L11.4016 1.99153L12.7108 1.15637ZM0.335256 8.7464L1.64454 7.91325L0.335256 8.7464Z"/></svg>