<svg viewBox="0 0 16 16" xmlns="http://www.w3.org/2000/svg"><path d="M8 16C3.59 16 0 12.41 0 8C0 3.59 3.59 0 8 0C12.41 0 16 3.59 16 8C16 12.41 12.41 16 8 16ZM8 1.5C4.42 1.5 1.5 4.41 1.5 8C1.5 11.59 4.42 14.5 8 14.5C11.58 14.5 14.5 11.58 14.5 8C14.5 4.42 11.58 1.5 8 1.5Z"/><path d="M8 12C7.59 12 7.25 11.66 7.25 11.25V6.74C7.25 6.33 7.59 5.99 8 5.99C8.41 5.99 8.75 6.33 8.75 6.74V11.25C8.75 11.66 8.41 12 8 12Z"/><path d="M8 5C8.55228 5 9 4.55228 9 4C9 3.44772 8.55228 3 8 3C7.44772 3 7 3.44772 7 4C7 4.55228 7.44772 5 8 5Z"/></svg>