<svg viewBox="0 0 16 16" xmlns="http://www.w3.org/2000/svg"><path d="M8 9C7.59 9 7.25 8.66 7.25 8.25V3.75C7.25 3.34 7.59 3 8 3C8.41 3 8.75 3.34 8.75 3.75V8.25C8.75 8.66 8.41 9 8 9Z"/><path d="M8 12C8.55228 12 9 11.5523 9 11C9 10.4477 8.55228 10 8 10C7.44772 10 7 10.4477 7 11C7 11.5523 7.44772 12 8 12Z"/><path d="M11 16H5C4.8 16 4.61 15.92 4.47 15.78L0.22 11.53C0.08 11.39 0 11.2 0 11V5C0 4.8 0.08 4.61 0.22 4.47L4.47 0.22C4.61 0.08 4.8 0 5 0H11C11.2 0 11.39 0.08 11.53 0.22L15.78 4.47C15.92 4.61 16 4.8 16 5V11C16 11.2 15.92 11.39 15.78 11.53L11.53 15.78C11.39 15.92 11.2 16 11 16ZM5.31 14.5H10.69L14.5 10.69V5.31L10.69 1.5H5.31L1.5 5.31V10.69L5.31 14.5Z"/></svg>