<svg viewBox="0 0 16 16" xmlns="http://www.w3.org/2000/svg"><path d="M8 16C3.59 16 0 12.41 0 8C0 3.59 3.59 0 8 0C12.41 0 16 3.59 16 8C16 12.41 12.41 16 8 16ZM8 1.5C4.42 1.5 1.5 4.41 1.5 8C1.5 11.59 4.42 14.5 8 14.5C11.58 14.5 14.5 11.58 14.5 8C14.5 4.42 11.58 1.5 8 1.5Z"/><path d="M6.75 11.02C6.55 11.02 6.36 10.94 6.22 10.8L4.17 8.75C3.88 8.46 3.88 7.98 4.17 7.69C4.46 7.4 4.94 7.4 5.23 7.69L6.75 9.21L10.76 5.2C11.05 4.91 11.53 4.91 11.82 5.2C12.11 5.49 12.11 5.97 11.82 6.26L7.28 10.8C7.14 10.94 6.95 11.02 6.75 11.02Z"/></svg>