<svg viewBox="0 0 16 16" xmlns="http://www.w3.org/2000/svg"><g clip-path="url(#clip0)"><path d="M13.56 16H2.44C1.59 16 0.810001 15.57 0.360001 14.84C-0.0899985 14.11 -0.129999 13.23 0.250001 12.46L5.82 1.35C6.23 0.52 7.07 0 8 0C8.93 0 9.77 0.52 10.18 1.35L15.74 12.46C16.12 13.22 16.08 14.11 15.63 14.83C15.19 15.57 14.41 16 13.56 16ZM8 1.5C7.64 1.5 7.32 1.69 7.16 2.02L1.6 13.14C1.45 13.44 1.47 13.77 1.64 14.06C1.82 14.34 2.11 14.51 2.44 14.51H13.55C13.88 14.51 14.17 14.35 14.35 14.06C14.52 13.78 14.54 13.44 14.39 13.14L8.84 2.02C8.68 1.7 8.36 1.5 8 1.5Z"/><path d="M8 10C7.59 10 7.25 9.66 7.25 9.25V4.75C7.25 4.34 7.59 4 8 4C8.41 4 8.75 4.34 8.75 4.75V9.25C8.75 9.66 8.41 10 8 10Z"/><path d="M8 13C8.55229 13 9 12.5523 9 12C9 11.4477 8.55229 11 8 11C7.44772 11 7 11.4477 7 12C7 12.5523 7.44772 13 8 13Z"/></g><defs><clipPath><rect/></clipPath></defs></svg>