<svg viewBox="0 0 16 16" xmlns="http://www.w3.org/2000/svg"><path d="M15.8215 12.882L9.16094 0.702656C8.90488 0.234219 8.45522 0 8.00556 0C7.5559 0 7.10625 0.234219 6.82209 0.702656L0.164643 12.882C-0.319052 13.8156 0.319245 14.99 1.34625 14.99H14.6674C15.6904 14.99 16.3305 13.8189 15.8215 12.882ZM1.65351 13.3839L7.97746 1.76668L14.357 13.3839H1.65351ZM8.00556 10.2086C7.46348 10.2086 7.02381 10.6797 7.02381 11.2606C7.02381 11.8414 7.46441 12.3125 8.00681 12.3125C8.54921 12.3125 8.98732 11.8414 8.98732 11.2606C8.98607 10.6804 8.5489 10.2086 8.00556 10.2086ZM7.25613 5.08589V8.29804C7.25613 8.74305 7.59338 9.10107 8.00556 9.10107C8.41775 9.10107 8.75499 8.74138 8.75499 8.29804V5.08589C8.75499 4.64422 8.42087 4.28286 8.00556 4.28286C7.59025 4.28286 7.25613 4.64422 7.25613 5.08589Z"/></svg>