<svg viewBox="0 0 16 16" xmlns="http://www.w3.org/2000/svg"><path d="M11.6819 10.9709C11.5501 10.9709 11.4212 10.9189 11.3116 10.8216C11.2019 10.7242 11.1165 10.5859 11.066 10.424C11.0156 10.2622 11.0024 10.0841 11.0281 9.91222C11.0538 9.74039 11.1173 9.58255 11.2105 9.45867C11.3038 9.33478 11.4226 9.25042 11.5519 9.21624C11.6812 9.18206 11.8152 9.1996 11.9371 9.26665C12.0589 9.33369 12.163 9.44723 12.2363 9.5929C12.3095 9.73857 12.3486 9.90984 12.3486 10.085C12.3486 10.32 12.2784 10.5453 12.1533 10.7114C12.0283 10.8775 11.8588 10.9709 11.6819 10.9709ZM4.31806 10.9709C4.1862 10.9709 4.05731 10.9189 3.94768 10.8216C3.83804 10.7242 3.75259 10.5859 3.70214 10.424C3.65168 10.2622 3.63848 10.0841 3.6642 9.91222C3.68992 9.74039 3.75342 9.58255 3.84665 9.45867C3.93989 9.33478 4.05867 9.25042 4.188 9.21624C4.31732 9.18206 4.45136 9.1996 4.57318 9.26665C4.695 9.33369 4.79911 9.44723 4.87237 9.5929C4.94562 9.73857 4.98472 9.90984 4.98472 10.085C4.98472 10.32 4.91448 10.5453 4.78946 10.7114C4.66444 10.8775 4.49487 10.9709 4.31806 10.9709ZM11.9208 5.63821L13.2525 2.57475C13.2737 2.53279 13.2882 2.48551 13.295 2.43581C13.3019 2.38612 13.301 2.33508 13.2925 2.28586C13.2839 2.23664 13.2678 2.19028 13.2452 2.14965C13.2226 2.10903 13.1939 2.075 13.161 2.04968C13.1281 2.02437 13.0917 2.00829 13.0539 2.00246C13.0161 1.99664 12.9778 2.00117 12.9414 2.01579C12.9051 2.03042 12.8713 2.05481 12.8423 2.08747C12.8133 2.12013 12.7896 2.16035 12.7728 2.20566L11.4244 5.30861C10.3474 4.66677 9.18039 4.33495 8 4.33495C6.81961 4.33495 5.65258 4.66677 4.57556 5.30861L3.22722 2.20566C3.21038 2.16035 3.18673 2.12013 3.15771 2.08747C3.1287 2.05481 3.09495 2.03042 3.05855 2.01579C3.02215 2.00117 2.98388 1.99664 2.94611 2.00246C2.90834 2.00829 2.87188 2.02437 2.83897 2.04968C2.80606 2.075 2.77742 2.10903 2.75481 2.14965C2.7322 2.19028 2.71611 2.23664 2.70754 2.28586C2.69896 2.33508 2.69809 2.38612 2.70496 2.43581C2.71183 2.48551 2.72631 2.53279 2.7475 2.57475L4.07917 5.63821C1.7925 7.29064 0.228889 10.3663 0 14H16C15.7711 10.3663 14.2072 7.29064 11.9208 5.63821Z"/></svg>