<svg viewBox="0 0 16 16" xmlns="http://www.w3.org/2000/svg"><path d="M12.5 5.75H3.5C3.09 5.75 2.75 6.09 2.75 6.5V12.5C2.75 12.91 3.09 13.25 3.5 13.25H12.5C12.91 13.25 13.25 12.91 13.25 12.5V6.5C13.25 6.09 12.91 5.75 12.5 5.75ZM11.75 8.75H8.75V7.25H11.75V8.75ZM7.25 7.25V8.75H4.25V7.25H7.25ZM4.25 10.25H7.25V11.74H4.25V10.25ZM8.75 11.75V10.26H11.75V11.75H8.75Z"/><path d="M14 0H2C0.9 0 0 0.9 0 2V14C0 15.1 0.9 16 2 16H14C15.1 16 16 15.1 16 14V2C16 0.9 15.1 0 14 0ZM14 14.5H2C1.72 14.5 1.5 14.28 1.5 14V2C1.5 1.72 1.72 1.5 2 1.5H14C14.28 1.5 14.5 1.72 14.5 2V2.75H3.25C2.84 2.75 2.5 3.09 2.5 3.5C2.5 3.91 2.84 4.25 3.25 4.25H14.5V14C14.5 14.27 14.28 14.5 14 14.5Z"/></svg>