<svg viewBox="0 0 16 16" xmlns="http://www.w3.org/2000/svg"><path d="M0.241375 1.19607C0.4175 0.825357 0.680937 0.516786 1 0.305714C1.23844 0.148214 1.50781 0.0450001 1.79562 0.0117858C1.86281 0.00392864 1.93094 0 2 0H14C15.1031 0 16 1.02321 16 2.28571V13.7143C16 14.975 15.1031 16 14 16H2C0.895313 16 0 14.975 0 13.7143V2.28571C0 2.20679 0.0035 2.12893 0.0103312 2.05214C0.037625 1.74464 0.11825 1.45536 0.241375 1.19607ZM1.5 13.7143C1.5 14.0286 1.72375 14.2857 2 14.2857H14C14.275 14.2857 14.5 14.0286 14.5 13.7143V4.57143H1.5V13.7143Z"/></svg>