<svg viewBox="0 0 16 16" xmlns="http://www.w3.org/2000/svg"><path d="M3.5 9.75C3.09 9.75 2.75 10.09 2.75 10.5V12.5C2.75 12.91 3.09 13.25 3.5 13.25C3.91 13.25 4.25 12.91 4.25 12.5V10.5C4.25 10.08 3.91 9.75 3.5 9.75Z"/><path d="M6.5 5.75C6.09 5.75 5.75 6.09 5.75 6.5V12.5C5.75 12.91 6.09 13.25 6.5 13.25C6.91 13.25 7.25 12.91 7.25 12.5V6.5C7.25 6.09 6.91 5.75 6.5 5.75Z"/><path d="M9.5 8.75C9.09 8.75 8.75 9.09 8.75 9.5V12.5C8.75 12.91 9.09 13.25 9.5 13.25C9.91 13.25 10.25 12.91 10.25 12.5V9.5C10.25 9.08 9.92 8.75 9.5 8.75Z"/><path d="M12.5 6.75C12.09 6.75 11.75 7.09 11.75 7.5V12.5C11.75 12.91 12.09 13.25 12.5 13.25C12.91 13.25 13.25 12.91 13.25 12.5V7.5C13.25 7.09 12.92 6.75 12.5 6.75Z"/><path d="M14 0H2C0.9 0 0 0.9 0 2V14C0 15.1 0.9 16 2 16H14C15.1 16 16 15.1 16 14V2C16 0.9 15.1 0 14 0ZM14 14.5H2C1.72 14.5 1.5 14.28 1.5 14V2C1.5 1.72 1.72 1.5 2 1.5H14C14.28 1.5 14.5 1.72 14.5 2V2.75H3.25C2.84 2.75 2.5 3.09 2.5 3.5C2.5 3.91 2.84 4.25 3.25 4.25H14.5V14C14.5 14.27 14.28 14.5 14 14.5Z"/></svg>