<svg viewBox="0 0 16 16" xmlns="http://www.w3.org/2000/svg"><path d="M12.2491 8.458C12.235 7.83679 12.3947 7.224 12.7104 6.68879C13.0261 6.15358 13.4851 5.71727 14.0356 5.42912C13.6887 4.94762 13.2348 4.55315 12.7096 4.27669C12.1845 4.00023 11.6023 3.84932 11.009 3.83582C9.74146 3.73295 8.35503 4.57189 7.84412 4.57189C6.94861 4.28493 6.08749 3.86782 5.1147 3.86782C3.12136 3.89982 1 5.4577 1 8.62602C1.00919 9.61482 1.18302 10.5952 1.51434 11.5269C1.97153 12.8379 3.62198 16.0531 5.3433 15.9993C6.24396 15.9788 6.87945 15.3604 8.05214 15.3604C9.18711 15.3604 9.77689 15.9993 10.7804 15.9993C12.5177 15.9753 14.0105 13.0528 14.4459 11.7383C13.7956 11.4712 13.2395 11.0166 12.8483 10.4325C12.4571 9.84834 12.2486 9.16103 12.2491 8.458ZM10.2272 2.58998C10.543 2.24201 10.7824 1.83179 10.93 1.38573C11.0776 0.939662 11.1302 0.467627 11.0845 0C10.1493 0.100428 9.28486 0.544868 8.65906 1.24698C8.33846 1.58934 8.09182 1.99406 7.9345 2.43592C7.77718 2.87778 7.71257 3.34731 7.74468 3.81524C8.22648 3.82548 8.70365 3.71947 9.13578 3.50619C9.56792 3.29291 9.9423 2.97863 10.2272 2.58998Z"/></svg>