<svg viewBox="0 0 16 16" xmlns="http://www.w3.org/2000/svg"><path fill-rule="evenodd" clip-rule="evenodd" d="M2 1.02002H14C15.1 1.02002 16 1.91002 16 3.02002V4.00002C16 4.74002 15.59 5.38002 14.98 5.73002V13C14.98 14.1 14.08 15 12.98 15H3.01C1.91 15 1.01 14.1 1.01 13V7.74002C1.01 7.33002 1.35 7.00002 1.76 7.00002C2.17 7.00002 2.5 7.33002 2.5 7.74002L2.52 13C2.52 13.28 2.74 13.5 3.02 13.5H12.99C13.27 13.5 13.49 13.28 13.49 13L13.5 6.00002H2C0.9 6.00002 0 5.10002 0 4.00002V3.02002C0 1.92002 0.9 1.02002 2 1.02002ZM1.5 4.00002C1.5 4.28002 1.72 4.50002 2 4.50002H14C14.28 4.50002 14.5 4.28002 14.5 4.00002V3.02002C14.5 2.74002 14.28 2.52002 14 2.52002H2C1.72 2.52002 1.5 2.74002 1.5 3.02002V4.00002Z"/><path d="M6.75 8H9.25C9.66 8 10 8.34 10 8.75C10 9.16 9.66 9.5 9.25 9.5H6.75C6.34 9.5 6 9.16 6 8.75C6 8.34 6.34 8 6.75 8Z"/></svg>