<svg viewBox="0 0 16 16" xmlns="http://www.w3.org/2000/svg"><path d="M3.18256 6.94664L7.81575 1.24243C7.94193 1.08686 8.11291 1 8.29493 1C8.47695 1 8.64904 1.08712 8.77424 1.24107L13.4074 6.94528C13.6591 7.25623 13.6496 7.74841 13.385 8.04529C13.123 8.34204 12.7025 8.33089 12.449 8.01895L8.95681 3.71858V14.7413C8.95681 15.1708 8.66035 15.49 8.31975 15.49C7.97916 15.49 7.63305 15.1724 7.63305 14.7413V3.71858L4.14161 8.01942C3.88844 8.33056 3.46786 8.34029 3.20499 8.04535C2.9404 7.74718 2.93091 7.25454 3.18256 6.94664Z"/></svg>