<svg viewBox="0 0 16 16" xmlns="http://www.w3.org/2000/svg"><path d="M8.00014 15.25C7.59014 15.25 7.25014 14.91 7.25014 14.5V5.04001C7.25014 4.63001 7.59014 4.29001 8.00014 4.29001C8.41014 4.29001 8.75014 4.63001 8.75014 5.04001V14.5C8.75014 14.91 8.42014 15.25 8.00014 15.25Z"/><path d="M3.45014 6.80001C3.26014 6.80001 3.07014 6.73001 2.92014 6.58001C2.63014 6.29001 2.63014 5.81001 2.92014 5.52001L7.47014 0.97001C7.75014 0.69001 8.25014 0.69001 8.53014 0.97001L13.0801 5.52001C13.3701 5.81001 13.3701 6.29001 13.0801 6.58001C12.7901 6.87001 12.3101 6.87001 12.0201 6.58001L8.00014 2.56001L3.98014 6.58001C3.84014 6.73001 3.65014 6.80001 3.45014 6.80001Z"/></svg>