<svg viewBox="0 0 16 16" xmlns="http://www.w3.org/2000/svg"><path d="M10.9698 8.75001H1.50977C1.08977 8.75001 0.759766 8.41001 0.759766 8.00001C0.759766 7.59001 1.09977 7.25001 1.50977 7.25001H10.9698C11.3798 7.25001 11.7198 7.59001 11.7198 8.00001C11.7198 8.41001 11.3798 8.75001 10.9698 8.75001Z"/><path d="M9.94977 13.3C9.75977 13.3 9.56977 13.23 9.41977 13.08C9.12977 12.79 9.12977 12.31 9.41977 12.02L13.4398 8.00001L9.41977 3.98001C9.12977 3.69001 9.12977 3.21001 9.41977 2.92001C9.70977 2.63001 10.1898 2.63001 10.4798 2.92001L15.0298 7.47001C15.3198 7.76001 15.3198 8.24001 15.0298 8.53001L10.4798 13.08C10.3398 13.23 10.1398 13.3 9.94977 13.3Z"/></svg>