<svg viewBox="0 0 16 16" xmlns="http://www.w3.org/2000/svg"><path d="M2.88757 6.70165L7.52076 0.997434C7.64693 0.841864 7.81791 0.755005 7.99993 0.755005C8.18195 0.755005 8.35404 0.842124 8.47925 0.996073L13.1124 6.70029C13.3641 7.01123 13.3546 7.50341 13.09 7.80029C12.828 8.09704 12.4075 8.08589 12.154 7.77396L8.66182 3.47358V14.4963C8.66182 14.9258 8.36535 15.245 8.02475 15.245C7.68416 15.245 7.33805 14.9274 7.33805 14.4963V3.47358L3.84661 7.77443C3.59344 8.08557 3.17287 8.09529 2.90999 7.80036C2.6454 7.50218 2.63591 7.00955 2.88757 6.70165Z"/></svg>