<svg viewBox="0 0 16 16" xmlns="http://www.w3.org/2000/svg"><path d="M5.84 10.9101C5.65 10.9101 5.46 10.8401 5.31 10.6901C5.02 10.4001 5.02 9.92005 5.31 9.63005L12.23 2.71005C12.52 2.42005 13 2.42005 13.29 2.71005C13.58 3.00005 13.58 3.48005 13.29 3.77005L6.37 10.6901C6.22 10.8401 6.03 10.9101 5.84 10.9101Z"/><path d="M9.91 13.5001H3.25C2.84 13.5001 2.5 13.1601 2.5 12.7501V6.10005C2.5 5.69005 2.84 5.35005 3.25 5.35005C3.66 5.35005 4 5.68005 4 6.10005V12.0001H9.9C10.31 12.0001 10.65 12.3401 10.65 12.7501C10.65 13.1601 10.32 13.5001 9.91 13.5001Z"/></svg>