<svg viewBox="0 0 16 16" xmlns="http://www.w3.org/2000/svg"><path d="M3.24994 13.5C3.05994 13.5 2.86994 13.43 2.71994 13.28C2.42994 12.99 2.42994 12.51 2.71994 12.22L9.63994 5.3C9.92994 5.01 10.4099 5.01 10.6999 5.3C10.9899 5.59 10.9899 6.07 10.6999 6.36L3.77994 13.28C3.63994 13.43 3.44994 13.5 3.24994 13.5Z"/><path d="M12.7499 10.65C12.3399 10.65 11.9999 10.31 11.9999 9.9V4H6.09994C5.68994 4 5.34994 3.66 5.34994 3.25C5.34994 2.84 5.68994 2.5 6.09994 2.5H12.7499C13.1599 2.5 13.4999 2.84 13.4999 3.25V9.9C13.4999 10.32 13.1699 10.65 12.7499 10.65Z"/></svg>