<svg viewBox="0 0 16 16" xmlns="http://www.w3.org/2000/svg"><path d="M8.00014 11.71C7.59014 11.71 7.25014 11.37 7.25014 10.96V1.5C7.25014 1.09 7.59014 0.75 8.00014 0.75C8.41014 0.75 8.75014 1.09 8.75014 1.5V10.96C8.75014 11.38 8.42014 11.71 8.00014 11.71Z"/><path d="M8.00014 15.25C7.80014 15.25 7.61014 15.17 7.47014 15.03L2.92014 10.48C2.63014 10.19 2.63014 9.71 2.92014 9.42C3.21014 9.13 3.69014 9.13 3.98014 9.42L8.00014 13.44L12.0201 9.42C12.3101 9.13 12.7901 9.13 13.0801 9.42C13.3701 9.71 13.3701 10.19 13.0801 10.48L8.53014 15.03C8.39014 15.17 8.20014 15.25 8.00014 15.25Z"/></svg>