<svg viewBox="0 0 16 16" xmlns="http://www.w3.org/2000/svg"><path d="M13.4077 9.56393L8.77463 15.2605C8.64777 15.4126 8.47679 15.5 8.29478 15.5C8.11276 15.5 7.94068 15.413 7.81548 15.2593L3.18244 9.5627C2.93093 9.22408 2.94042 8.76123 3.205 8.46346C3.46699 8.16711 3.88754 8.17824 4.14098 8.48976L7.63291 12.7844V1.77713C7.63291 1.34827 7.92937 1 8.26996 1C8.61054 1 8.95664 1.34827 8.95664 1.77713V12.7851L12.448 8.49C12.7005 8.17847 13.1211 8.16734 13.3839 8.4637C13.6503 8.76123 13.6586 9.22408 13.4077 9.56393Z"/></svg>