<svg viewBox="0 0 16 16" xmlns="http://www.w3.org/2000/svg"><path d="M9.55743 3.18265L15.2494 7.82019C15.4031 7.94527 15.49 8.1186 15.49 8.29996C15.49 8.48132 15.4031 8.6544 15.2494 8.77972L9.55743 13.4173C9.24715 13.6692 8.75602 13.6597 8.45978 13.3948C8.16366 13.1326 8.17479 12.7116 8.48605 12.4579L12.7777 8.96322H1.77651C1.34799 8.96322 1 8.6662 1 8.30044C1 7.93468 1.34799 7.63821 1.77651 7.63821H12.7757L8.48403 4.14349C8.17324 3.88932 8.16353 3.46836 8.45784 3.20529C8.75537 2.94028 9.21785 2.9309 9.55743 3.18265Z"/></svg>