<svg viewBox="0 0 16 16" xmlns="http://www.w3.org/2000/svg"><path d="M9.31244 2.88266L15.0045 7.5202C15.1581 7.64528 15.245 7.81861 15.245 7.99997C15.245 8.18133 15.1581 8.35441 15.0045 8.47973L9.31244 13.1173C9.00216 13.3692 8.51103 13.3597 8.21478 13.0948C7.91867 12.8326 7.92979 12.4116 8.24106 12.158L12.5327 8.66323H1.53151C1.10299 8.66323 0.755005 8.36621 0.755005 8.00045C0.755005 7.63469 1.10299 7.33822 1.53151 7.33822H12.5307L8.23904 3.8435C7.92824 3.58934 7.91854 3.16837 8.21284 2.9053C8.51038 2.6403 8.97285 2.63091 9.31244 2.88266Z"/></svg>