<svg viewBox="0 0 16 16" xmlns="http://www.w3.org/2000/svg"><path d="M10.1699 10.9099C9.97994 10.9099 9.78994 10.8399 9.63994 10.6899L2.71994 3.77994C2.42994 3.48994 2.42994 3.00994 2.71994 2.71994C3.00994 2.42994 3.48994 2.42994 3.77994 2.71994L10.6999 9.63994C10.9899 9.92994 10.9899 10.4099 10.6999 10.6999C10.5499 10.8399 10.3599 10.9099 10.1699 10.9099Z"/><path d="M12.7499 13.4999H6.09994C5.68994 13.4999 5.34994 13.1599 5.34994 12.7499C5.34994 12.3399 5.68994 11.9999 6.09994 11.9999H11.9999V6.09994C11.9999 5.68994 12.3399 5.34994 12.7499 5.34994C13.1599 5.34994 13.4999 5.67994 13.4999 6.09994V12.7499C13.4999 13.1599 13.1699 13.4999 12.7499 13.4999Z"/></svg>