<svg viewBox="0 0 16 16" xmlns="http://www.w3.org/2000/svg"><path d="M14.4998 8.75001H5.03977C4.62977 8.75001 4.28977 8.41001 4.28977 8.00001C4.28977 7.59001 4.62977 7.25001 5.03977 7.25001H14.4998C14.9098 7.25001 15.2498 7.59001 15.2498 8.00001C15.2498 8.41001 14.9198 8.75001 14.4998 8.75001Z"/><path d="M6.05977 13.3C5.86977 13.3 5.67977 13.23 5.52977 13.08L0.979766 8.53001C0.829766 8.39001 0.759766 8.20001 0.759766 8.00001C0.759766 7.80001 0.839766 7.61001 0.979766 7.47001L5.52977 2.92001C5.81977 2.63001 6.29977 2.63001 6.58977 2.92001C6.87977 3.21001 6.87977 3.69001 6.58977 3.98001L2.56977 8.00001L6.58977 12.02C6.87977 12.31 6.87977 12.79 6.58977 13.08C6.43977 13.23 6.24977 13.3 6.05977 13.3Z"/></svg>