<svg viewBox="0 0 16 16" xmlns="http://www.w3.org/2000/svg"><path d="M15.49 8.30011C15.49 8.66589 15.1413 8.96293 14.7118 8.96293H3.7189L8.01963 12.4579C8.33157 12.7106 8.34272 13.1317 8.04596 13.3948C7.74922 13.6597 7.25712 13.6692 6.94599 13.4172L1.24193 8.77942C1.08709 8.65623 1 8.48231 1 8.30011C1 8.11791 1.08709 7.94675 1.24104 7.81977L6.94509 3.18195C7.25477 2.93101 7.74739 2.94039 8.04556 3.20541C8.3423 3.46767 8.33115 3.88866 8.01922 4.14236L3.71849 7.63729H14.7409C15.1691 7.63757 15.49 7.93571 15.49 8.30011Z"/></svg>