<svg viewBox="0 0 16 16" xmlns="http://www.w3.org/2000/svg"><path d="M7.98 0.0200195C3.58 0.0200195 0 3.60002 0 8.00002C0 12.4 3.58 15.98 7.98 15.98C9.54 15.98 11.06 15.53 12.36 14.67C12.71 14.44 12.8 13.98 12.57 13.63C12.34 13.28 11.88 13.19 11.53 13.42C10.47 14.11 9.25 14.48 7.98 14.48C4.41 14.48 1.5 11.57 1.5 8.00002C1.5 4.43002 4.41 1.52002 7.98 1.52002C12.73 1.52002 14.5 5.29002 14.5 7.67002C14.5 8.98002 14.25 10.54 13.06 10.54C12.08 10.54 12.05 9.18002 12.05 9.02002V4.71002C12.05 4.30002 11.71 3.96002 11.3 3.96002C10.89 3.96002 10.55 4.30002 10.55 4.71002V4.89002C9.85 4.31002 8.97 3.95002 8 3.95002C5.77 3.95002 3.96 5.77002 3.96 8.00002C3.96 10.23 5.77 12.05 8 12.05C9.17 12.05 10.22 11.54 10.96 10.75C11.35 11.5 12.04 12.05 13.06 12.05C13.95 12.05 16 11.62 16 7.68002C16 3.96002 13.19 0.0200195 7.98 0.0200195ZM8 10.55C6.6 10.55 5.46 9.40002 5.46 8.00002C5.46 6.60002 6.6 5.45002 8 5.45002C9.4 5.45002 10.54 6.60002 10.54 8.00002C10.54 9.40002 9.4 10.55 8 10.55Z"/></svg>