<svg xmlns="http://www.w3.org/2000/svg" viewBox="0 0 16 16"><path d="M13.876 3.941c-.469-1.042-1.175-1.842-2.117-2.402S9.692.699 8.384.699c-1.286 0-2.441.312-3.465.934-1.024.622-1.832 1.504-2.426 2.644s-.922 2.43-.984 3.867c-.062 1.5.145 2.791.621 3.871.477 1.081 1.199 1.898 2.168 2.453s2.141.832 3.516.832c.547 0 1.09-.063 1.629-.191s.968-.296 1.285-.504l-.297-1.203c-.344.161-.753.29-1.227.387s-.927.145-1.359.145c-1.641 0-2.872-.504-3.695-1.512S2.957 9.988 3.04 8.145c.058-1.213.312-2.29.766-3.23.453-.94 1.073-1.665 1.859-2.176.786-.51 1.683-.766 2.688-.766 1.609 0 2.824.488 3.645 1.465s1.187 2.374 1.098 4.191c-.031.906-.208 1.64-.531 2.199-.323.561-.724.84-1.203.84-.312 0-.54-.109-.684-.328s-.188-.533-.137-.945l.398-4.516-.492-.336c-.527-.344-1.162-.516-1.907-.516-.604 0-1.167.18-1.688.539S5.9 5.44 5.559 6.109c-.341.67-.558 1.434-.652 2.293-.104 1.053.052 1.898.469 2.539s1.005.961 1.766.961c.839 0 1.519-.364 2.039-1.094.167.359.413.636.738.828s.712.289 1.16.289c1.016 0 1.824-.392 2.426-1.176.602-.783.931-1.842.988-3.176.057-1.379-.149-2.59-.617-3.632zM8.977 9.199c-.151.422-.341.745-.57.969-.229.225-.472.336-.727.336-.396 0-.683-.178-.859-.535-.177-.357-.237-.879-.18-1.567.099-.979.314-1.723.645-2.234.331-.51.796-.766 1.395-.766.214 0 .422.034.625.102l-.329 3.695z"/></svg>