<svg viewBox="0 0 16 16" xmlns="http://www.w3.org/2000/svg"><path d="M13.3025 2.16222C12.4338 1.30123 11.0182 1.30123 10.1193 2.16222L3.70814 8.28656C2.24397 9.71246 2.24397 11.9811 3.70814 13.3782C5.17163 14.7784 7.5465 14.7784 9.00899 13.3782L14.1076 8.50765C14.4229 8.20965 14.9327 8.20965 15.2179 8.50765C15.56 8.80885 15.56 9.2959 15.2179 9.56827L10.1193 14.4388C8.05636 16.4671 4.66177 16.4671 2.56968 14.4388C0.476775 12.4681 0.476775 9.22541 2.56968 7.22594L9.00899 1.07469C10.5084 -0.35823 12.9403 -0.35823 14.4128 1.07469C15.9424 2.50764 15.9424 4.83235 14.4128 6.23582L8.27774 12.1509C7.21777 13.1635 5.47352 13.0705 4.53766 11.9555C3.73866 11.0006 3.81849 9.62274 4.72215 8.75759L9.81403 3.89349C10.1293 3.5955 10.6392 3.5955 10.9243 3.89349C11.2665 4.1947 11.2665 4.68175 10.9243 4.95411L5.86262 9.84384C5.53725 10.1547 5.50707 10.6513 5.79554 10.9942C6.13097 11.3947 6.75823 11.43 7.13727 11.0647L13.3025 5.1752C14.1747 4.3453 14.1747 2.99437 13.3025 2.16222Z"/></svg>