<svg viewBox="0 0 16 16" xmlns="http://www.w3.org/2000/svg"><g clip-path="url(#clip0)"><path d="M5.55021 16C4.31021 16 3.07021 15.53 2.13021 14.59C0.250215 12.7 0.250215 9.63998 2.13021 7.74998L8.75021 1.12998C10.2002 -0.320019 12.7202 -0.320019 14.1602 1.12998C14.8802 1.84998 15.2802 2.80998 15.2802 3.83998C15.2802 4.86998 14.8802 5.81998 14.1602 6.54998L8.82021 11.9C7.72021 13 5.93021 13 4.83021 11.9C3.73021 10.8 3.73021 9.00998 4.83021 7.90998L8.78021 3.95998C9.07021 3.66998 9.55021 3.66998 9.84021 3.95998C10.1302 4.24998 10.1302 4.72998 9.84021 5.01998L5.90021 8.94998C5.39021 9.45998 5.39021 10.3 5.90021 10.82C6.42021 11.33 7.25021 11.33 7.77021 10.82L13.1102 5.46998C13.5502 5.02998 13.7902 4.44998 13.7902 3.81998C13.7902 3.18998 13.5502 2.60998 13.1102 2.16998C12.2002 1.25998 10.7302 1.25998 9.82021 2.16998L3.19021 8.80998C1.89021 10.11 1.89021 12.23 3.19021 13.53C4.49021 14.83 6.61021 14.83 7.91021 13.53L13.1402 8.29998C13.4302 7.99998 13.9002 7.99998 14.2002 8.28998C14.5002 8.57998 14.4902 9.05998 14.2002 9.34998L8.97021 14.58C8.03021 15.53 6.79021 16 5.55021 16Z"/></g><defs><clipPath><rect/></clipPath></defs></svg>