<svg viewBox="0 0 16 16" xmlns="http://www.w3.org/2000/svg"><path d="M12.0028 6.29117L10.7194 8.05L12.0028 9.77578C12.2861 10.1209 12.2861 10.6791 12.0028 10.9912C11.7667 11.3657 11.3444 11.3657 11.0833 10.9912L9.77778 9.29477L8.44722 10.9912C8.21111 11.3657 7.78889 11.3657 7.52778 10.9912C7.26944 10.6791 7.26944 10.1209 7.52778 9.77578L8.83611 8.05L7.52778 6.29117C7.26944 5.97906 7.26944 5.42094 7.52778 5.07578C7.78889 4.7343 8.21111 4.7343 8.44722 5.07578L9.77778 6.80523L11.0833 5.07578C11.3444 4.7343 11.7667 4.7343 12.0028 5.07578C12.2861 5.42094 12.2861 5.97906 12.0028 6.29117ZM14.2222 1C15.2028 1 16 2.05199 16 3.35V12.75C16 14.0462 15.2028 15.1 14.2222 15.1H5.70278C5.23056 15.1 4.77778 14.854 4.44444 14.4134L0.260333 8.87984C0.0936389 8.65953 0 8.36211 0 8.05C0 7.73789 0.0936667 7.44047 0.260333 7.22016L4.44444 1.68848C4.77778 1.24748 5.23056 1 5.70278 1H14.2222ZM14.6667 3.35C14.6667 3.02688 14.4667 2.7625 14.2222 2.7625H5.70278C5.58333 2.7625 5.46944 2.82492 5.38611 2.93508L1.5175 8.05L5.38611 13.1649C5.46944 13.2751 5.58333 13.3375 5.70278 13.3375H14.2222C14.4667 13.3375 14.6667 13.0731 14.6667 12.75V3.35Z"/></svg>