<svg viewBox="0 0 16 16" xmlns="http://www.w3.org/2000/svg"><g clip-path="url(#clip0_35_2301)"><path d="M13.305 15H5.58049C5.12603 15.011 4.6762 14.9067 4.27316 14.6968C3.87013 14.4869 3.52708 14.1783 3.27617 13.8L0.380739 9.39997C0.135178 9.01067 0.00488281 8.56001 0.00488281 8.09997C0.00488281 7.63994 0.135178 7.18928 0.380739 6.79997L3.28619 2.19997C3.56514 1.82873 3.92656 1.52714 4.34205 1.31892C4.75754 1.1107 5.21576 1.00152 5.68068 0.999973H13.295C13.6402 0.979757 13.986 1.02889 14.3118 1.14446C14.6377 1.26004 14.937 1.4397 15.192 1.67282C15.4471 1.90593 15.6527 2.18776 15.7966 2.50161C15.9406 2.81546 16.02 3.15495 16.0301 3.49997V12.5C15.9916 13.1286 15.7449 13.7266 15.3288 14.2C14.778 14.7097 14.056 14.9951 13.305 15ZM13.305 13.6C13.506 13.6093 13.707 13.5788 13.8961 13.5101C14.0853 13.4414 14.2589 13.336 14.407 13.2C14.5048 13.1119 14.5823 13.0037 14.6342 12.8829C14.6861 12.762 14.7111 12.6314 14.7076 12.5V3.49997C14.6591 3.16431 14.4901 2.85765 14.2322 2.63694C13.9742 2.41623 13.6447 2.2965 13.305 2.29997H5.68068C5.17867 2.36792 4.71894 2.61691 4.38825 2.99997L1.47279 7.59997C1.37406 7.76651 1.32197 7.95646 1.32197 8.14997C1.32197 8.34348 1.37406 8.53344 1.47279 8.69997L4.38825 13.1C4.52295 13.2918 4.7034 13.4471 4.9133 13.5518C5.12321 13.6566 5.35595 13.7075 5.59051 13.7L13.305 13.6Z"/><path d="M12.6039 9.89999L10.49 7.79999L12.6039 5.69999C12.7495 5.55384 12.8313 5.35611 12.8313 5.14999C12.8313 4.94388 12.7495 4.74615 12.6039 4.59999C12.4546 4.4564 12.2553 4.37617 12.0479 4.37617C11.8405 4.37617 11.6412 4.4564 11.4918 4.59999L9.3879 6.69999L7.29397 4.59999C7.231 4.52953 7.15382 4.47315 7.06749 4.43454C6.98116 4.39593 6.88763 4.37598 6.79303 4.37598C6.69843 4.37598 6.6049 4.39593 6.51857 4.43454C6.43224 4.47315 6.35506 4.52953 6.29209 4.59999C6.21878 4.67169 6.16054 4.75726 6.12079 4.8517C6.08103 4.94614 6.06055 5.04755 6.06055 5.14999C6.06055 5.25243 6.08103 5.35385 6.12079 5.44829C6.16054 5.54273 6.21878 5.6283 6.29209 5.69999L8.38602 7.79999L6.29209 9.89999C6.21878 9.97169 6.16054 10.0573 6.12079 10.1517C6.08103 10.2461 6.06055 10.3476 6.06055 10.45C6.06055 10.5524 6.08103 10.6538 6.12079 10.7483C6.16054 10.8427 6.21878 10.9283 6.29209 11C6.43852 11.1453 6.63663 11.2269 6.84313 11.2269C7.04963 11.2269 7.24773 11.1453 7.39416 11L9.48809 8.89999L11.602 11C11.7485 11.1453 11.9466 11.2269 12.1531 11.2269C12.3596 11.2269 12.5577 11.1453 12.7041 11C12.8323 10.8389 12.8934 10.6348 12.8747 10.43C12.8561 10.2251 12.7591 10.0353 12.6039 9.89999Z"/></g><defs><clipPath><rect/></clipPath></defs></svg>