<svg viewBox="0 0 16 16" xmlns="http://www.w3.org/2000/svg"><path d="M15.25 12.25H0.75C0.34 12.25 0 11.91 0 11.5V10.17C0 9.93 0.12 9.7 0.32 9.56C0.91 9.14 1.67 8.32 1.99 7.28L3.13 3.6C3.8 1.41 5.72 0 8 0C10.28 0 12.2 1.41 12.87 3.59L14.01 7.27C14.33 8.31 15.08 9.13 15.68 9.55C15.88 9.7 16 9.93 16 10.17V11.5C16 11.91 15.66 12.25 15.25 12.25ZM1.5 10.75H14.5V10.54C13.62 9.81 12.91 8.78 12.58 7.72L11.44 4.04C10.86 2.17 9.28 1.5 8 1.5C6.72 1.5 5.14 2.17 4.56 4.03L3.42 7.72C3.09 8.79 2.38 9.82 1.5 10.54V10.75Z"/><path d="M8 16C7.78 16 7.56 15.98 7.35 15.94C7.14 15.9 6.94 15.83 6.74 15.75C6.55 15.67 6.36 15.57 6.19 15.45C6.02 15.33 5.86 15.2 5.71 15.06C5.56 14.91 5.43 14.75 5.32 14.58C5.09 14.24 5.18 13.77 5.52 13.54C5.86 13.31 6.33 13.4 6.56 13.74C6.62 13.83 6.69 13.92 6.77 13.99C6.85 14.07 6.93 14.14 7.03 14.2C7.12 14.26 7.22 14.31 7.32 14.36C7.42 14.4 7.53 14.44 7.64 14.46C7.86 14.5 8.11 14.51 8.33 14.46C8.44 14.44 8.55 14.4 8.65 14.36C8.75 14.32 8.85 14.26 8.94 14.2C9.03 14.14 9.11 14.07 9.19 13.99C9.27 13.91 9.34 13.82 9.4 13.73C9.63 13.39 10.1 13.3 10.44 13.53C10.78 13.76 10.87 14.23 10.64 14.57C10.52 14.74 10.39 14.9 10.25 15.05C10.11 15.2 9.95 15.33 9.77 15.44C9.6 15.56 9.41 15.66 9.22 15.74C9.03 15.82 8.82 15.89 8.62 15.93C8.44 15.98 8.22 16 8 16Z"/></svg>