<svg viewBox="0 0 16 16" xmlns="http://www.w3.org/2000/svg"><g clip-path="url(#clip0_318_707)"><path d="M9.14332 1V1.55875C11.7327 1.91844 13.715 3.88125 13.715 6.25V7.29375C13.715 8.7125 14.2686 10.0906 15.2793 11.2L15.8115 11.7812C16.0187 12.0063 16.0579 12.3156 15.9151 12.575C15.7722 12.8344 15.4722 13 15.1436 13H0.857192C0.527533 13 0.227339 12.8344 0.0846179 12.575C-0.0581392 12.3156 -0.0179943 12.0063 0.187873 11.7812L0.720399 11.2C1.73366 10.0906 2.28583 8.7125 2.28583 7.29375V6.25C2.28583 3.88125 4.26807 1.91844 6.85749 1.55875V1C6.85749 0.447812 7.36823 0 8.0004 0C8.63258 0 9.14332 0.447812 9.14332 1ZM7.71467 3C5.66457 3 4.0002 4.45625 4.0002 6.25V7.29375C4.0002 8.79062 3.50447 10.25 2.58263 11.5H13.4185C12.4971 10.25 12.0006 8.79062 12.0006 7.29375V6.25C12.0006 4.45625 10.3362 3 8.28613 3H7.71467ZM10.2862 14C10.2862 14.5031 10.0469 15.0406 9.61834 15.4156C9.18975 15.7906 8.57543 16 8.0004 16C7.39323 16 6.81106 15.7906 6.38246 15.4156C5.95387 15.0406 5.71457 14.5031 5.71457 14H10.2862Z"/></g><defs><clipPath><rect/></clipPath></defs></svg>