<svg id="Layer_1" data-name="Layer 1" xmlns="http://www.w3.org/2000/svg" viewBox="0 0 14 14"><path d="M8.92193,4.09046a3.58711,3.58711,0,0,0-3.11-2.51025,1.97562,1.97562,0,0,0-3.90038.44554V8.29239a5.17265,5.17265,0,0,0-.02863.54055A5.11706,5.11706,0,0,0,12.11706,8.834V8.83294A5.11767,5.11767,0,0,0,8.92193,4.09046Zm-.52156-.179a5.10568,5.10568,0,0,0-2.536-.06757V2.02575L5.86387,2.0152A3.16308,3.16308,0,0,1,8.40037,3.9115Zm.25372,1.239v3.13a3.15757,3.15757,0,0,1-5.493,2.12507A1.97163,1.97163,0,0,0,5.86441,8.57V4.28457a4.68208,4.68208,0,0,1,2.7022.1314A3.16692,3.16692,0,0,1,8.65409,5.15049ZM5.436,2.02575V3.96026A5.13,5.13,0,0,0,2.33888,6.72213V5.15049a3.16017,3.16017,0,0,1,3.09561-3.156C5.43469,2.005,5.43605,2.0152,5.436,2.02575ZM2.44211,9.08311a3.161,3.161,0,0,1-.10223-.76284A4.692,4.692,0,0,1,5.436,4.41353V8.57a1.54825,1.54825,0,0,1-2.99393.51312ZM2.33888,2.02575a1.54831,1.54831,0,0,1,3.02889-.45691A3.58389,3.58389,0,0,0,2.33888,3.4522ZM7,13.52269A4.68961,4.68961,0,0,1,2.55524,10.3262,3.58314,3.58314,0,0,0,9.08139,8.28052v-3.13a3.613,3.613,0,0,0-.0401-.53643A4.688,4.688,0,0,1,7,13.52269Z" fill="#ff4f1f"/></svg>