<svg viewBox="0 0 16 16" xmlns="http://www.w3.org/2000/svg"><g clip-path="url(#clip0)"><path d="M8.00012 16C7.92013 16 7.84013 15.99 7.76013 15.96C7.45013 15.86 7.25013 15.57 7.25013 15.25V11.25H0.750125C0.470125 11.25 0.210125 11.09 0.0801252 10.84C-0.0498748 10.59 -0.0198748 10.28 0.150125 10.06L7.40013 0.309983C7.59013 0.0499831 7.93012 -0.0600169 8.24012 0.0499831C8.55013 0.149983 8.75012 0.439983 8.75012 0.759983V5.49998C8.75012 5.90998 8.41012 6.24998 8.00012 6.24998C7.59013 6.24998 7.25013 5.90998 7.25013 5.49998V3.01998L2.25013 9.74998H8.01013C8.42013 9.74998 8.76013 10.09 8.76013 10.5V12.98L13.7601 6.23998H10.5001C10.0901 6.23998 9.75012 5.89998 9.75012 5.48998C9.75012 5.07998 10.0901 4.73998 10.5001 4.73998H15.2501C15.5301 4.73998 15.7901 4.89998 15.9201 5.14998C16.0501 5.39998 16.0201 5.70998 15.8501 5.92998L8.60013 15.7C8.46012 15.89 8.23012 16 8.00012 16Z"/></g><defs><clipPath><rect/></clipPath></defs></svg>