<svg viewBox="0 0 16 16" xmlns="http://www.w3.org/2000/svg"><g clip-path="url(#clip0_335_151)"><path d="M12.0633 1.875e-05C12.8586 1.875e-05 13.4333 0.570625 13.2167 1.14406L10.9848 7H14.5367C15.3404 7 15.99 7.4875 15.99 8.09062C15.99 8.4125 15.8026 8.71562 15.4778 8.925L4.70123 15.7875C4.4847 15.925 4.20987 16 3.92546 16C3.13054 16 2.55673 15.4281 2.77493 14.8562L5.0052 9H1.40495C0.628774 9 0 8.52812 0 7.94688C0 7.6375 0.179679 7.34375 0.491776 7.14375L11.2888 0.215406C11.5053 0.0764063 11.7801 0 12.0633 0V1.875e-05ZM10.5601 2.65594L3.01312 7.5H6.32937C6.64168 7.5 6.93733 7.60938 7.12887 7.79688C7.31626 7.9875 7.37455 8.23125 7.29127 8.45625L5.42577 13.3594L13.0543 8.5H9.66062C9.34832 8.5 9.05267 8.39062 8.86112 8.20312C8.67374 8.0125 8.61545 7.76875 8.69873 7.54375L10.5601 2.65594Z"/></g><defs><clipPath><rect/></clipPath></defs></svg>