<svg viewBox="0 0 16 16" xmlns="http://www.w3.org/2000/svg"><g clip-path="url(#clip0_335_184)"><path d="M8.8421 12.5C8.8421 12.7761 8.65358 13 8.42105 13H7.57895C7.34737 13 7.15789 12.775 7.15789 12.5C7.15789 12.225 7.34737 12 7.57895 12H8.42105C8.65263 12 8.8421 12.225 8.8421 12.5ZM5.89474 12H4.63158C4.39905 12 4.21053 12.2238 4.21053 12.5C4.21053 12.775 4.4 13 4.63158 13H5.89474C6.12632 13 6.31579 12.775 6.31579 12.5C6.31579 12.225 6.12632 12 5.89474 12ZM4.10526 8.125C4.10526 6.95312 4.90789 6 5.89474 6C6.88158 6 7.68421 6.95312 7.68421 8.125C7.68421 9.29656 6.88158 10.25 5.89474 10.25C4.90789 10.25 4.10526 9.29688 4.10526 8.125ZM5.36842 8.125C5.36842 8.47 5.60408 8.75 5.89474 8.75C6.18553 8.75 6.42105 8.47016 6.42105 8.125C6.42105 7.75313 6.18421 7.5 5.89474 7.5C5.58158 7.5 5.36842 7.75313 5.36842 8.125ZM11.8947 8.125C11.8947 9.29656 11.09 10.2219 10.1034 10.2219C10.1028 10.2219 10.1041 10.2219 10.1034 10.2219C10.1028 10.2219 10.1041 10.2219 10.1034 10.2219C9.11658 10.2219 8.31211 9.26875 8.31211 8.125C8.31211 6.95312 9.11684 6.02812 10.1034 6.02812C10.1041 6.02812 10.1028 6.02812 10.1034 6.02812C10.1041 6.02812 10.1028 6.02812 10.1034 6.02812C11.0895 6 11.8947 6.95312 11.8947 8.125ZM10.6289 8.125C10.6289 7.78062 10.3943 7.50187 10.1045 7.50031C9.81316 7.50312 9.57895 7.75313 9.57895 8.125C9.57895 8.46937 9.81358 8.74813 10.1034 8.74969C10.3921 8.74687 10.6289 8.46875 10.6289 8.125ZM11.3684 12H10.1053C9.87274 12 9.68421 12.2238 9.68421 12.5C9.68421 12.7761 9.87274 13 10.1053 13H11.3684C11.6009 13 11.7895 12.7761 11.7895 12.5C11.7895 12.225 11.6 12 11.3684 12ZM13.8947 5.5V13.5C13.8947 14.8806 12.9521 16 11.7895 16H4.21053C3.04737 16 2.10526 14.8813 2.10526 13.5V5.5C2.10526 4.11875 3.04737 3 4.21053 3H7.36842V0.75C7.36842 0.335938 7.65263 0 8 0C8.34737 0 8.63158 0.335938 8.63158 0.75V3H11.7895C12.9526 3 13.8947 4.11875 13.8947 5.5ZM12.6316 5.5C12.6316 4.94875 12.2537 4.5 11.7895 4.5H4.21053C3.74632 4.5 3.36842 4.94875 3.36842 5.5V13.5C3.36842 14.0513 3.74632 14.5 4.21053 14.5H11.7895C12.2537 14.5 12.6316 14.0513 12.6316 13.5V5.5ZM15.1605 6H14.7368V12H15.16C15.6263 12 16 11.5531 16 11V7C16 6.44688 15.6237 6 15.1605 6ZM0 7V11C0 11.5522 0.375263 12 0.840526 12H1.26316V6H0.842895C0.377895 6 0 6.44688 0 7Z"/></g><defs><clipPath><rect/></clipPath></defs></svg>