<svg viewBox="0 0 16 16" xmlns="http://www.w3.org/2000/svg"><path d="M15.25 6.75H14V5.75C14 4.1 12.65 2.75 11 2.75H10.31C9.9 2.75 9.56 3.09 9.56 3.5C9.56 3.91 9.9 4.25 10.31 4.25H11C11.83 4.25 12.5 4.92 12.5 5.75V13C12.5 13.83 11.83 14.5 11 14.5H5C4.17 14.5 3.5 13.83 3.5 13V5.75C3.5 4.92 4.17 4.25 5 4.25H8C8.2 4.25 8.39 4.17 8.53 4.03C8.67 3.89 8.75 3.7 8.75 3.5V0.75C8.75 0.33 8.41 0 8 0C7.59 0 7.25 0.33 7.25 0.75V2.75H5C3.35 2.75 2 4.1 2 5.75V6.75H0.75C0.34 6.75 0 7.08 0 7.5V11.5C0 11.91 0.34 12.25 0.75 12.25H2V13C2 14.65 3.35 16 5 16H11C12.65 16 14 14.65 14 13V12.25H15.25C15.66 12.25 16 11.91 16 11.5V7.5C16 7.08 15.66 6.75 15.25 6.75ZM1.5 10.75V8.25H2V10.75H1.5ZM14.5 10.75H14V8.25H14.5V10.75Z"/><path d="M6 9C6.55228 9 7 8.55228 7 8C7 7.44772 6.55228 7 6 7C5.44772 7 5 7.44772 5 8C5 8.55228 5.44772 9 6 9Z"/><path d="M10 9C10.5523 9 11 8.55228 11 8C11 7.44772 10.5523 7 10 7C9.44771 7 9 7.44772 9 8C9 8.55228 9.44771 9 10 9Z"/><path d="M4.75 11.5C4.75 11.91 5.09 12.25 5.5 12.25H10.5C10.91 12.25 11.25 11.91 11.25 11.5C11.25 11.09 10.91 10.75 10.5 10.75H5.5C5.08 10.75 4.75 11.09 4.75 11.5Z"/></svg>