<svg viewBox="0 0 16 16" xmlns="http://www.w3.org/2000/svg"><path fill-rule="evenodd" clip-rule="evenodd" d="M6 2.5C6 3.61941 5.26428 4.56698 4.25 4.88555V11.1145C5.26428 11.433 6 12.3806 6 13.5C6 14.8807 4.88071 16 3.5 16C2.11929 16 1 14.8807 1 13.5C1 12.3806 1.73572 11.433 2.75 11.1145V4.88556C1.73572 4.56699 1 3.61941 1 2.5C1 1.11929 2.11929 0 3.5 0C4.88071 0 6 1.11929 6 2.5ZM4.5 2.5C4.5 3.05228 4.05228 3.5 3.5 3.5C2.94772 3.5 2.5 3.05228 2.5 2.5C2.5 1.94772 2.94772 1.5 3.5 1.5C4.05228 1.5 4.5 1.94772 4.5 2.5ZM3.5 14.5C4.05228 14.5 4.5 14.0523 4.5 13.5C4.5 12.9477 4.05228 12.5 3.5 12.5C2.94772 12.5 2.5 12.9477 2.5 13.5C2.5 14.0523 2.94772 14.5 3.5 14.5Z"/><path fill-rule="evenodd" clip-rule="evenodd" d="M10 2.5C10 3.6194 10.7357 4.56698 11.75 4.88556V6.00002C11.75 6.69038 11.1903 7.25002 10.5 7.25002H6C5.58579 7.25002 5.25 7.58581 5.25 8.00002C5.25 8.41423 5.58579 8.75002 6 8.75002H10.5C11.9345 8.75002 13.1125 7.65163 13.2388 6.25H13.25V4.88557C14.2643 4.567 15 3.61941 15 2.5C15 1.11929 13.8807 0 12.5 0C11.1193 0 10 1.11929 10 2.5ZM13.5 2.5C13.5 3.05228 13.0523 3.5 12.5 3.5C11.9477 3.5 11.5 3.05228 11.5 2.5C11.5 1.94772 11.9477 1.5 12.5 1.5C13.0523 1.5 13.5 1.94772 13.5 2.5Z"/></svg>