<svg viewBox="0 0 16 16" xmlns="http://www.w3.org/2000/svg"><path d="M5.71429 2.5C5.71429 3.61875 4.875 4.56563 3.71429 4.88438V7.97188C4.43214 7.52813 5.28929 7.25 6.28571 7.25H9.71429C11.1357 7.25 12.2857 6.24375 12.2857 5V4.88438C11.125 4.56563 10.2857 3.61875 10.2857 2.5C10.2857 1.11937 11.5643 0 13.1429 0C14.7214 0 16 1.11937 16 2.5C16 3.61875 15.1607 4.56563 14 4.88438V5C14 7.07188 12.0821 8.75 9.71429 8.75H6.28571C4.86429 8.75 3.71429 9.75625 3.71429 11V11.1156C4.875 11.4344 5.71429 12.3813 5.71429 13.5C5.71429 14.8813 4.43571 16 2.85714 16C1.27929 16 0 14.8813 0 13.5C0 12.3813 0.840714 11.4344 2 11.1156V4.88438C0.840714 4.56563 0 3.61875 0 2.5C0 1.11937 1.27929 0 2.85714 0C4.43571 0 5.71429 1.11937 5.71429 2.5ZM2.85714 3.5C3.48821 3.5 4 3.05219 4 2.5C4 1.94781 3.48821 1.5 2.85714 1.5C2.22607 1.5 1.71429 1.94781 1.71429 2.5C1.71429 3.05219 2.22607 3.5 2.85714 3.5ZM13.1429 1.5C12.5107 1.5 12 1.94781 12 2.5C12 3.05219 12.5107 3.5 13.1429 3.5C13.775 3.5 14.2857 3.05219 14.2857 2.5C14.2857 1.94781 13.775 1.5 13.1429 1.5ZM2.85714 14.5C3.48821 14.5 4 14.0531 4 13.5C4 12.9469 3.48821 12.5 2.85714 12.5C2.22607 12.5 1.71429 12.9469 1.71429 13.5C1.71429 14.0531 2.22607 14.5 2.85714 14.5Z"/></svg>