<svg viewBox="0 0 16 16" xmlns="http://www.w3.org/2000/svg"><g clip-path="url(#clip0)"><path d="M15.25 9.24997H13.65C13.68 8.94997 13.7 8.63997 13.7 8.32997C13.7 7.60997 13.62 6.90997 13.48 6.24997H15.25C15.66 6.24997 16 5.90997 16 5.49997C16 5.08997 15.66 4.74997 15.25 4.74997H13.03C12.55 3.52997 11.84 2.51997 10.97 1.79997L11.31 1.07997C11.49 0.709972 11.33 0.259972 10.95 0.0799722C10.58 -0.100028 10.13 0.0599722 9.95 0.439972L9.68 0.999972C9.15 0.779972 8.59 0.659972 8 0.659972C7.41 0.659972 6.85 0.779972 6.32 0.999972L6.05 0.439972C5.87 0.0599722 5.43 -0.100028 5.05 0.0799722C4.67 0.259972 4.51 0.699972 4.69 1.07997L5.03 1.79997C4.17 2.51997 3.45 3.52997 2.97 4.74997H0.75C0.34 4.74997 0 5.07997 0 5.49997C0 5.91997 0.34 6.24997 0.75 6.24997H2.52C2.39 6.90997 2.31 7.60997 2.31 8.32997C2.31 8.63997 2.33 8.94997 2.36 9.24997H0.76C0.34 9.24997 0 9.58997 0 9.99997C0 10.41 0.34 10.75 0.75 10.75H2.6C2.83 11.68 3.19 12.53 3.65 13.27L2.2 14.72C1.91 15.01 1.91 15.49 2.2 15.78C2.35 15.93 2.54 16 2.73 16C2.92 16 3.11 15.93 3.26 15.78L4.59 14.45C5.54 15.42 6.72 16 8 16C9.28 16 10.46 15.42 11.41 14.46L12.74 15.79C12.89 15.94 13.08 16.01 13.27 16.01C13.46 16.01 13.65 15.94 13.8 15.79C14.09 15.5 14.09 15.02 13.8 14.73L12.35 13.28C12.81 12.55 13.17 11.69 13.4 10.76H15.25C15.66 10.76 16 10.42 16 10.01C16 9.59997 15.66 9.24997 15.25 9.24997ZM3.81 8.32997C3.81 4.92997 5.69 2.15997 8 2.15997C9.4 2.15997 10.65 3.17997 11.41 4.74997H6.06C5.65 4.74997 5.31 5.08997 5.31 5.49997C5.31 5.90997 5.65 6.24997 6.06 6.24997H7.25V14.39C5.3 13.87 3.81 11.35 3.81 8.32997ZM8.75 14.39V6.24997H11.94C12.1 6.89997 12.19 7.59997 12.19 8.32997C12.19 11.35 10.7 13.87 8.75 14.39Z"/></g><defs><clipPath><rect/></clipPath></defs></svg>