<svg viewBox="0 0 16 16" xmlns="http://www.w3.org/2000/svg"><g clip-path="url(#clip0_335_135)"><path d="M11 3.00147V3.11277C11 3.60489 10.6031 4.00195 10.1125 4.00195H5.8875C5.39687 4.00195 5 3.60489 5 3.11277V3.00147C5 1.34378 6.31563 0 8 0C9.65625 0 11 1.34378 11 3.00147ZM1.21969 3.22032C1.5125 2.9283 1.9875 2.9283 2.28031 3.22032L4.54375 5.48705C5.04062 5.18065 5.59688 5.00244 6.25 5.00244H9.75C10.375 5.00244 10.9594 5.18065 11.4563 5.48705L13.7188 3.22032C14.0125 2.9283 14.4875 2.9283 14.7531 3.22032C15.0719 3.51422 15.0719 3.98945 14.7531 4.2552L12.5156 6.54695C12.8219 7.04406 13 7.60059 13 8.25403H15.25C15.6656 8.25403 16 8.58857 16 9.0044C16 9.42023 15.6656 9.75476 15.25 9.75476H13V10.0049C13 10.8553 12.7875 11.6557 12.4125 12.3592L14.7531 14.7259C15.0719 15.0198 15.0719 15.4951 14.7531 15.7608C14.4875 16.0797 14.0125 16.0797 13.7188 15.7608L11.5063 13.5723C10.6031 14.4602 9.36563 15.0073 8 15.0073C6.63438 15.0073 5.39687 14.4602 4.49375 13.5723L2.28031 15.7608C1.9875 16.0797 1.5125 16.0797 1.21969 15.7608C0.926875 15.4951 0.926875 15.0198 1.21969 14.7259L3.5875 12.3592C3.2125 11.6557 3 10.8553 3 10.0049V9.75476H0.75C0.335938 9.75476 0 9.42023 0 9.0044C0 8.58857 0.335938 8.25403 0.75 8.25403H3C3 7.60059 3.17812 7.04406 3.48438 6.54695L1.21969 4.2552C0.926875 3.98945 0.926875 3.51422 1.21969 3.22032ZM4.5 10.0049C4.5 11.6807 5.67812 13.0814 7.25 13.4253V8.75427C7.25 8.33845 7.58437 8.00391 8 8.00391C8.41562 8.00391 8.75 8.33845 8.75 8.75427V13.4253C10.3219 13.0814 11.5 11.6807 11.5 10.0049V8.25403C11.5 7.28793 10.7156 6.50318 9.75 6.50318H6.25C5.28438 6.50318 4.5 7.28793 4.5 8.25403V10.0049Z"/></g><defs><clipPath><rect/></clipPath></defs></svg>