<svg xmlns="http://www.w3.org/2000/svg" viewBox="0 0 16 16"><path d="M10.5 4.208v-.05c0-1.605-1.394-2.908-3-2.908s-3 1.303-3 2.908v.05l3 .674 3-.674zm4.066 4.626L11.5 8.21V6.264l2.422-.571a.5.5 0 0 0-.231-.974L7.5 6.161 1.308 4.719a.5.5 0 0 0-.23.974l2.422.571V8.21l-3.066.624a.5.5 0 1 0 .199.979L3.5 9.23v.946c0 .264.027.521.075.771l-2.67 2.567a.5.5 0 0 0 .692.72l2.333-2.245c.586 1.156 1.82 1.986 3.07 2.153V7.746a.5.5 0 0 1 1 0v6.396c1.25-.167 2.484-.997 3.068-2.151l2.333 2.245a.498.498 0 1 0 .692-.72l-2.67-2.567c.048-.25.075-.508.075-.771V9.23l2.867.583a.501.501 0 0 0 .201-.979z"/></svg>