<svg viewBox="0 0 16 16" xmlns="http://www.w3.org/2000/svg"><path d="M15.25 4.61C15.02 4.61 14.82 4.72 14.68 4.89V2.73C14.68 1.23 13.46 0 11.95 0H4.05C2.55 0 1.32 1.22 1.32 2.73V4.9C1.18 4.73 0.98 4.61 0.75 4.61C0.34 4.61 0 4.95 0 5.36V6.67C0 7.08 0.34 7.42 0.75 7.42C0.98 7.42 1.18 7.31 1.32 7.14V13.92C1.32 15.06 2.25 15.99 3.39 15.99H4.05C5.08 15.99 5.94 15.23 6.09 14.24H9.9C10.05 15.23 10.91 15.99 11.94 15.99H12.6C13.74 15.99 14.67 15.06 14.67 13.92V7.15C14.81 7.32 15.01 7.43 15.24 7.43C15.65 7.43 15.99 7.09 15.99 6.68V5.36C16 4.95 15.66 4.61 15.25 4.61ZM12.61 14.5H11.95C11.64 14.5 11.38 14.25 11.38 13.93V13.5C11.38 13.09 11.04 12.75 10.63 12.75H5.37C4.96 12.75 4.62 13.09 4.62 13.5V13.93C4.62 14.24 4.37 14.5 4.05 14.5H3.39C3.08 14.5 2.82 14.25 2.82 13.93V2.73C2.82 2.05 3.37 1.5 4.05 1.5H11.96C12.64 1.5 13.19 2.05 13.19 2.73V2.75H4.57C4.16 2.75 3.82 3.09 3.82 3.5C3.82 3.91 4.16 4.25 4.57 4.25H13.18V7.75H4.57C4.16 7.75 3.82 8.09 3.82 8.5C3.82 8.91 4.16 9.25 4.57 9.25H13.18V13.93C13.18 14.24 12.93 14.5 12.61 14.5Z"/><path d="M5 12C5.55228 12 6 11.5523 6 11C6 10.4477 5.55228 10 5 10C4.44772 10 4 10.4477 4 11C4 11.5523 4.44772 12 5 12Z"/><path d="M11 12C11.5523 12 12 11.5523 12 11C12 10.4477 11.5523 10 11 10C10.4477 10 10 10.4477 10 11C10 11.5523 10.4477 12 11 12Z"/></svg>