<svg viewBox="0 0 16 16" xmlns="http://www.w3.org/2000/svg"><path d="M7.25 12.75L7.25 11.125L5.625 11.125C5.21079 11.125 4.875 10.7892 4.875 10.375C4.875 9.96079 5.21079 9.625 5.625 9.625L7.25 9.625L7.25 8C7.25 7.58579 7.58578 7.25 8 7.25C8.41421 7.25 8.75 7.58579 8.75 8V9.625L10.375 9.625C10.7892 9.625 11.125 9.96079 11.125 10.375C11.125 10.7892 10.7892 11.125 10.375 11.125L8.75 11.125L8.75 12.75C8.75 13.1642 8.41421 13.5 8 13.5C7.58579 13.5 7.25 13.1642 7.25 12.75Z"/><path fill-rule="evenodd" clip-rule="evenodd" d="M12.25 1.25H13.5C14.88 1.25 16 2.37 16 3.75V13.5C16 14.88 14.88 16 13.5 16H2.5C1.12 16 0 14.88 0 13.5V3.75C0 2.37 1.12 1.25 2.5 1.25H3.75V0.75C3.75 0.33 4.09 0 4.5 0C4.91 0 5.25 0.33 5.25 0.75V1.25H10.75V0.75C10.75 0.34 11.09 0 11.5 0C11.91 0 12.25 0.33 12.25 0.75V1.25ZM2.5 14.5H13.5C14.05 14.5 14.5 14.05 14.5 13.5V6.25H3.25C2.84 6.25 2.5 5.91 2.5 5.5C2.5 5.09 2.84 4.75 3.25 4.75H14.5V3.75C14.5 3.2 14.05 2.75 13.5 2.75H12.25V3.25C12.25 3.66 11.91 4 11.5 4C11.09 4 10.75 3.67 10.75 3.25V2.75H5.25V3.25C5.25 3.66 4.91 4 4.5 4C4.09 4 3.75 3.67 3.75 3.25V2.75H2.5C1.95 2.75 1.5 3.2 1.5 3.75V13.5C1.5 14.05 1.95 14.5 2.5 14.5Z"/></svg>