<svg viewBox="0 0 16 16" xmlns="http://www.w3.org/2000/svg"><path d="M8 7.25C8.475 7.25 8.85714 7.58437 8.85714 8V9.5H10.5714C11.0464 9.5 11.4286 9.83437 11.4286 10.25C11.4286 10.6656 11.0464 11 10.5714 11H8.85714V12.5C8.85714 12.9156 8.475 13.25 8 13.25C7.525 13.25 7.14286 12.9156 7.14286 12.5V11H5.42857C4.95357 11 4.57143 10.6656 4.57143 10.25C4.57143 9.83437 4.95357 9.5 5.42857 9.5H7.14286V8C7.14286 7.58437 7.525 7.25 8 7.25ZM5.42857 2H10.5714V0.75C10.5714 0.335938 10.9536 0 11.4286 0C11.9036 0 12.2857 0.335938 12.2857 0.75V2H13.7143C14.975 2 16 2.89531 16 4V14C16 15.1031 14.975 16 13.7143 16H2.28571C1.02321 16 0 15.1031 0 14V4C0 2.89531 1.02321 2 2.28571 2H3.71429V0.75C3.71429 0.335938 4.09643 0 4.57143 0C5.04643 0 5.42857 0.335938 5.42857 0.75V2ZM1.71429 14C1.71429 14.275 1.97 14.5 2.28571 14.5H13.7143C14.0286 14.5 14.2857 14.275 14.2857 14V6H1.71429V14Z"/></svg>