<svg viewBox="0 0 16 16" xmlns="http://www.w3.org/2000/svg"><path d="M13.5 1.25H12.25V0.75C12.25 0.33 11.91 0 11.5 0C11.09 0 10.75 0.34 10.75 0.75V1.25H5.25V0.75C5.25 0.33 4.91 0 4.5 0C4.09 0 3.75 0.33 3.75 0.75V1.25H2.5C1.12 1.25 0 2.37 0 3.75V13.5C0 14.88 1.12 16 2.5 16H13.5C14.88 16 16 14.88 16 13.5V3.75C16 2.37 14.88 1.25 13.5 1.25ZM13.5 14.5H2.5C1.95 14.5 1.5 14.05 1.5 13.5V3.75C1.5 3.2 1.95 2.75 2.5 2.75H3.75V3.25C3.75 3.67 4.09 4 4.5 4C4.91 4 5.25 3.66 5.25 3.25V2.75H10.75V3.25C10.75 3.67 11.09 4 11.5 4C11.91 4 12.25 3.66 12.25 3.25V2.75H13.5C14.05 2.75 14.5 3.2 14.5 3.75V4.75H3.25C2.84 4.75 2.5 5.09 2.5 5.5C2.5 5.91 2.84 6.25 3.25 6.25H14.5V13.5C14.5 14.05 14.05 14.5 13.5 14.5Z"/></svg>