<svg xmlns="http://www.w3.org/2000/svg" viewBox="0 0 15 15.069"><path d="M14.757 11.965l-2.424-2.426a.886.886 0 00-1.242.03l-.342.341-.484.477a2.346 2.346 0 01-3.313.078l-.405-.4-2.02-2.02a2.346 2.346 0 01.08-3.314l.273-.266.21-.208.342-.345a.881.881 0 00.026-1.244L3.033.243a.88.88 0 00-1.241.029l-.546.614a4.255 4.255 0 00-1.2 2.186c-.286 1.782.76 5.2 3.743 8.178a.14.14 0 01.03.03c2.981 2.982 6.4 4.029 8.178 3.744a4.246 4.246 0 002.186-1.2l.548-.615a.885.885 0 00.026-1.244zM8.591 1.69a4.77 4.77 0 014.764 4.761.652.652 0 001.3 0 6.078 6.078 0 00-6.07-6.07.653.653 0 100 1.306z"/><path d="M8.591 4.641a1.816 1.816 0 011.813 1.813.652.652 0 001.3 0 3.124 3.124 0 00-3.12-3.12.654.654 0 100 1.307z"/></svg>