<svg viewBox="0 0 16 16" xmlns="http://www.w3.org/2000/svg"><g clip-path="url(#clip0_335_113)"><path d="M6.27187 3.99997C8.45938 3.99997 10.5594 3.13122 12.1062 1.58372L13.2937 0.396535C13.9219 -0.233528 15 0.212628 15 1.10341V5.61247C15.5813 5.88747 16 6.6281 16 7.49997C16 8.37185 15.5813 9.11247 15 9.38747V13.8968C15 14.7875 13.9219 15.2343 13.2937 14.6031L12.1062 13.4156C10.6125 11.9218 8.60625 11.0343 6.5 11.0031V14.25C6.5 15.2156 5.71562 16 4.75 16H3.75C2.78344 16 2 15.2156 2 14.25V11C0.895313 11 0 10.1031 0 8.99997V5.99997C0 4.89685 0.895313 3.99997 2 3.99997H6.27187ZM13.5 2.3106L13.1656 2.64435C11.3906 4.41872 9.00313 5.43747 6.5 5.49685V9.5031C9.00313 9.53435 11.3906 10.5812 13.1656 12.3562L13.5 12.6906V2.3106ZM3.5 14.25C3.5 14.3875 3.6125 14.5 3.75 14.5H4.75C4.8875 14.5 5 14.3875 5 14.25V11H3.5V14.25ZM1.5 5.99997V8.99997C1.5 9.27497 1.72375 9.47185 2 9.47185H5V5.49997H2C1.72375 5.49997 1.5 5.72497 1.5 5.99997Z"/></g><defs><clipPath><rect/></clipPath></defs></svg>