<svg viewBox="0 0 16 16" xmlns="http://www.w3.org/2000/svg"><g clip-path="url(#clip0)"><path d="M15.25 5.60006V0.750059C15.25 0.500059 15.12 0.260059 14.91 0.120059C14.7 -0.0199414 14.43 -0.0399414 14.2 0.0600586L7.35 3.00006H2C0.9 3.00006 0 3.90006 0 5.00006V9.00006C0 10.1001 0.9 11.0001 2 11.0001H2.18L2.75 15.3501C2.8 15.7201 3.12 16.0001 3.5 16.0001H7.25C7.66 16.0001 8 15.6601 8 15.2501C8 14.8401 7.66 14.5001 7.25 14.5001H6.82L6.36 11.0001H7.35L14.2 13.9601C14.29 14.0001 14.4 14.0201 14.5 14.0201C14.64 14.0201 14.79 13.9801 14.91 13.9001C15.12 13.7601 15.25 13.5301 15.25 13.2701V8.42006C15.66 8.42006 16 8.08006 16 7.67006V6.35006C16 5.94006 15.66 5.60006 15.25 5.60006ZM5.31 14.5001H4.16L3.69 11.0001H4.84L5.31 14.5001ZM13.75 12.1301L8.25 9.76006V6.25006C8.25 5.84006 7.91 5.50006 7.5 5.50006C7.09 5.50006 6.75 5.84006 6.75 6.25006V9.50006H2C1.73 9.50006 1.5 9.28006 1.5 9.00006V5.00006C1.5 4.72006 1.72 4.50006 2 4.50006H7.5C7.6 4.50006 7.7 4.48006 7.8 4.44006L13.75 1.89006V12.1301Z"/></g><defs><clipPath><rect/></clipPath></defs></svg>