<svg viewBox="0 0 32 32" fill="none" xmlns="http://www.w3.org/2000/svg"><path fill-rule="evenodd" clip-rule="evenodd" d="M16 32c8.837 0 16-7.163 16-16S24.837 0 16 0 0 7.163 0 16s7.163 16 16 16zm-7.638-8.438l1.543-4.646 4.234 2.957-4.392 2.764c-.752.5-1.702-.23-1.385-1.075zm12.743-5.837c0 .076 0 .115.04.192l2.097 5.682c.277.807-.673 1.536-1.425 1.037l-5.422-3.647a1.85 1.85 0 00-.277-.116l-5.777-4.032-.04-.038-3.562-2.88c-.673-.537-.277-1.612.594-1.612h4.71c.396 0 .752-.23.87-.576l2.137-5.53c.278-.807 1.465-.807 1.742 0l2.058 5.491c0 .039.04.116.079.154l2.176 5.875zm-.04-5.414h3.602c.87 0 1.267 1.075.594 1.612l-2.691 2.42-1.505-4.032z" fill="#444A52"/></svg>