<svg viewBox="0 0 32 25" xmlns="http://www.w3.org/2000/svg"><path fill-rule="evenodd" clip-rule="evenodd" d="M1 0h19.333a1 1 0 011 1v3.167h2.63c.82 0 1.608.307 2.203.859l3.771 3.499a3.09 3.09 0 01.996 2.265v7.96H31a1 1 0 011 1v.083a1 1 0 01-1 1h-2.23C28.506 23.177 26.47 25 24 25c-2.47 0-4.505-1.823-4.77-4.167h-7.526C11.44 23.177 9.404 25 6.934 25c-2.471 0-4.506-1.823-4.771-4.167H1c-.552 0-1-.445-1-.997V.993A.994.994 0 011 0zm20.333 11.458H28.8v-.668c0-.285-.12-.558-.332-.755l-3.771-3.499a1.08 1.08 0 00-.735-.286h-2.629v5.208zM9.6 20.312c0 1.439-1.194 2.605-2.667 2.605-1.472 0-2.666-1.166-2.666-2.605 0-1.438 1.194-2.604 2.666-2.604 1.473 0 2.667 1.166 2.667 2.604zM24 22.917c1.473 0 2.667-1.166 2.667-2.605 0-1.438-1.194-2.604-2.667-2.604-1.473 0-2.667 1.166-2.667 2.604 0 1.439 1.194 2.605 2.667 2.605z"/></svg>