<svg viewBox="0 0 22 28" fill="none" xmlns="http://www.w3.org/2000/svg"><path d="M5.382 14.865l.611 1.228 4.111-3.795-.777-1.619 2.445-2.399c.666-.893.777-2.121.055-3.572l-1.722-3.404C9.44-.036 7.883-.426 6.716.523a11.707 11.707 0 00-3.778 5.693 6.09 6.09 0 00.444 4.52l2 4.13v-.001zm16.387 9.71c-.666-1.34-1.333-2.623-2-3.962-.5-1.005-1.555-1.619-2.665-1.619l-3.611.056-1.056-2.064 8.945-8.26c.5-.446.5-1.228.055-1.73-.445-.501-1.222-.502-1.722-.055L.383 24.798c-.5.39-.5 1.173-.056 1.674.223.28.556.39.89.39.277 0 .61-.11.833-.334l6.277-5.804 1.778 3.572a5.997 5.997 0 003.278 3.013c2.222.837 4.722.893 7 .279 1.333-.335 2-1.842 1.389-3.013h-.002z" fill="#444A52"/></svg>