<svg viewBox="0 0 24 32" fill="none" xmlns="http://www.w3.org/2000/svg"><path clip-rule="evenodd" d="M24 28.995V8.24a2.99 2.99 0 00-.881-2.115L17.875.88A3.005 3.005 0 0015.756 0H3.006A3.005 3.005 0 000 3.005v25.99A3.004 3.004 0 003.005 32h17.996A3.006 3.006 0 0024 28.995zM16 7.998V3.243l4.756 4.755H16zm5 3v17.997L3.006 29V3.005H13v6.494a1.5 1.5 0 001.5 1.5H21zM6.8 14a.8.8 0 00-.8.8v.9a.8.8 0 00.8.8h10.4a.8.8 0 00.8-.8v-.9a.8.8 0 00-.8-.8H6.8zM6 19.3a.8.8 0 01.8-.8h10.4a.8.8 0 01.8.8v.9a.8.8 0 01-.8.8H6.8a.8.8 0 01-.8-.8v-.9zm.8 3.7a.8.8 0 00-.8.8v.9a.8.8 0 00.8.8h10.4a.8.8 0 00.8-.8v-.9a.8.8 0 00-.8-.8H6.8z"/></svg>