<svg viewBox="0 0 16 16" xmlns="http://www.w3.org/2000/svg"><path d="M15.25 0H0.75C0.34 0 0 0.34 0 0.75V12.5C0 12.91 0.34 13.25 0.75 13.25H5.52C5.93 13.25 6.27 12.91 6.27 12.5C6.27 12.09 5.93 11.75 5.52 11.75H1.5V1.5H14.5V11.75H12.73V8.01C13.14 7.45 13.39 6.77 13.39 6.02C13.39 4.15 11.87 2.63 10 2.63C8.13 2.63 6.61 4.15 6.61 6.02C6.61 6.77 6.86 7.45 7.27 8.01V15.25C7.27 15.53 7.42 15.78 7.67 15.91C7.92 16.04 8.21 16.03 8.44 15.87L10 14.83L11.56 15.87C11.69 15.95 11.83 16 11.98 16C12.1 16 12.22 15.97 12.33 15.91C12.57 15.78 12.73 15.53 12.73 15.25V13.25H15.25C15.66 13.25 16 12.91 16 12.5V0.75C16 0.34 15.66 0 15.25 0ZM10 4.14C11.04 4.14 11.89 4.99 11.89 6.03C11.89 7.07 11.04 7.92 10 7.92C8.96 7.92 8.11 7.06 8.11 6.02C8.11 4.98 8.96 4.14 10 4.14ZM10.42 13.31C10.17 13.14 9.84 13.14 9.59 13.31L8.78 13.85V9.17C9.15 9.32 9.57 9.41 10 9.41C10.43 9.41 10.84 9.32 11.23 9.17V13.85L10.42 13.31Z"/><path d="M4.5 2.75H3.5C3.09 2.75 2.75 3.09 2.75 3.5C2.75 3.91 3.08 4.25 3.5 4.25H4.5C4.91 4.25 5.25 3.91 5.25 3.5C5.25 3.09 4.92 2.75 4.5 2.75Z"/><path d="M4.5 5.75H3.5C3.09 5.75 2.75 6.09 2.75 6.5C2.75 6.91 3.08 7.25 3.5 7.25H4.5C4.91 7.25 5.25 6.91 5.25 6.5C5.25 6.09 4.92 5.75 4.5 5.75Z"/><path d="M4.5 8.75H3.5C3.09 8.75 2.75 9.09 2.75 9.5C2.75 9.91 3.09 10.25 3.5 10.25H4.5C4.91 10.25 5.25 9.91 5.25 9.5C5.25 9.09 4.92 8.75 4.5 8.75Z"/></svg>