<svg viewBox="0 0 16 16" xmlns="http://www.w3.org/2000/svg"><path d="M11.7 9C11.51 9 11.32 8.93 11.17 8.78L9.75 7.43C8.23 7.43 7 6.2 7 4.68V2.75C7 1.24 8.23 0 9.75 0H13.25C14.76 0 16 1.24 16 2.75V4.68C16 6.2 14.77 7.43 13.25 7.43C12.84 7.43 12.5 7.09 12.5 6.68C12.5 6.27 12.83 5.93 13.25 5.93C13.94 5.93 14.5 5.37 14.5 4.68V2.75C14.5 2.06 13.94 1.5 13.25 1.5H9.75C9.06 1.5 8.5 2.06 8.5 2.75V4.68C8.5 5.37 9.06 5.93 9.75 5.93H10.13C10.33 5.93 10.52 6.01 10.66 6.15L12.23 7.72C12.52 8.01 12.52 8.49 12.23 8.78C12.09 8.93 11.9 9 11.7 9Z"/><path d="M7.39 16C7.2 16 7.01 15.93 6.86 15.78C6.57 15.49 6.57 15.01 6.86 14.72L9.36 12.22C9.5 12.08 9.69 12 9.89 12H12C13.38 12 14.5 10.88 14.5 9.5V8.75C14.5 8.33 14.83 8 15.25 8C15.67 8 16 8.33 16 8.75V9.5C16 11.71 14.21 13.5 12 13.5H10.2L7.92 15.78C7.77 15.92 7.58 16 7.39 16Z"/><path d="M6.63 13.5H4C1.79 13.5 0 11.71 0 9.5V4C0 1.79 1.8 0 4 0H5.5C5.91 0 6.25 0.34 6.25 0.75C6.25 1.16 5.91 1.5 5.5 1.5H4C2.62 1.5 1.5 2.62 1.5 4V9.5C1.5 10.88 2.62 12 4 12H6.62C7.03 12 7.37 12.34 7.37 12.75C7.37 13.16 7.04 13.5 6.63 13.5Z"/></svg>