<svg xmlns="http://www.w3.org/2000/svg" viewBox="0 0 16 16"><path d="M11.5 15.2a1.224 1.224 0 0 0 1.224-1.2h-2.445a1.222 1.222 0 0 0 1.221 1.2zM8.8 9.721c.461-2.462 2.126-2.653 2.625-2.653h.148a2.673 2.673 0 0 1 2.552 2.354A3.926 3.926 0 0 0 15 7c0-2.762-3.134-5-7-5S1 4.238 1 7a4.455 4.455 0 0 0 2.149 3.6C3.59 13.133 1 14 1 14c3.213 0 4.77-1.236 5.475-2.123.172.027.349.045.525.063v-.891l.993-.007c.358-.003.719-.874.807-1.321zm4.425.187c-.326-1.742-1.341-1.842-1.652-1.84h-.139c-.311 0-1.326.1-1.652 1.84 0 0-.4 2.125-1.779 2.135V13h7v-.959c-1.377-.008-1.781-2.133-1.781-2.133z"/></svg>