<svg viewBox="0 0 16 16" xmlns="http://www.w3.org/2000/svg"><path d="M10.4 2.72539V8C10.4 8.96523 9.6825 9.74727 8.8 9.74727L5.6 9.75L2.8775 11.4344C2.8225 11.4809 2.76 11.5 2.7 11.5C2.545 11.5 2.4 11.366 2.4 11.1719V9.75H1.6C0.71875 9.75 0 8.96523 0 8V2.72539C0 1.78613 0.71875 1 1.6 1H8.8C9.6825 1 10.4 1.78613 10.4 2.72539ZM3.6 9.4793L5.285 8.4375H8.8C9.0175 8.4375 9.2 8.24063 9.2 8V2.75C9.2 2.51074 9.0175 2.3125 8.8 2.3125H1.6C1.38125 2.3125 1.2 2.51074 1.2 2.75V8C1.2 8.24063 1.38125 8.4375 1.6 8.4375H3.6V9.4793ZM6.4 11.5V10.625H7.6V11.5C7.6 11.7379 7.78 11.9375 8 11.9375H10.715L12.4 12.9793V11.9375H14.4C14.6175 11.9375 14.8 11.7379 14.8 11.5V6.25C14.8 6.01211 14.6175 5.8125 14.4 5.8125H11.2V4.5H14.4C15.2825 4.5 16 5.28477 16 6.22539V11.5C16 12.4652 15.2825 13.25 14.4 13.25H13.6V14.6719C13.6 14.866 13.455 15 13.3 15C13.24 15 13.1775 14.9809 13.1225 14.9344L10.4 13.25L8 13.2473C7.12 13.2473 6.4 12.4652 6.4 11.5Z"/></svg>