<svg viewBox="0 0 16 16" xmlns="http://www.w3.org/2000/svg"><g clip-path="url(#clip0_335_66)"><path d="M10.4 1.97187V8C10.4 9.10312 9.6825 9.99687 8.8 9.99687L5.6 10L2.8775 11.925C2.8225 11.9781 2.76 12 2.7 12C2.545 12 2.4 11.8469 2.4 11.625V10H1.6C0.71875 10 0 9.10312 0 8V1.97187C0 0.898438 0.71875 0 1.6 0H8.8C9.6825 0 10.4 0.898438 10.4 1.97187ZM3.6 9.69063L5.285 8.5H8.8C9.0175 8.5 9.2 8.275 9.2 8V2C9.2 1.72656 9.0175 1.5 8.8 1.5H1.6C1.38125 1.5 1.2 1.72656 1.2 2V8C1.2 8.275 1.38125 8.5 1.6 8.5H3.6V9.69063ZM6.4 12V11H7.6V12C7.6 12.2719 7.78 12.5 8 12.5H10.715L12.4 13.6906V12.5H14.4C14.6175 12.5 14.8 12.2719 14.8 12V6C14.8 5.72813 14.6175 5.5 14.4 5.5H11.2V4H14.4C15.2825 4 16 4.89688 16 5.97188V12C16 13.1031 15.2825 14 14.4 14H13.6V15.625C13.6 15.8469 13.455 16 13.3 16C13.24 16 13.1775 15.9781 13.1225 15.925L10.4 14L8 13.9969C7.12 13.9969 6.4 13.1031 6.4 12Z"/></g><defs><clipPath><rect/></clipPath></defs></svg>