<svg viewBox="0 0 16 16" xmlns="http://www.w3.org/2000/svg"><path d="M12.25 6H3.75C3.33 6 3 5.66 3 5.25C3 4.84 3.33 4.5 3.75 4.5H12.26C12.67 4.5 13 4.83 13 5.25C13 5.67 12.67 6 12.25 6Z"/><path d="M7.25 9H3.75C3.33 9 3 8.66 3 8.25C3 7.84 3.33 7.5 3.75 7.5H7.25C7.66 7.5 8 7.83 8 8.25C8 8.67 7.66 9 7.25 9Z"/><path d="M14 0H2C0.898438 0 0 0.904697 0 1.98561V11.02C0 12.1292 0.898438 13.0056 2 13.0056H5V15.6206C5 15.9301 5.34437 16.1099 5.5975 15.9258L9.5 13.0622H14C15.1016 13.0622 16 12.1576 16 11.0766V1.98561C16 0.904697 15.1031 0 14 0ZM14.5 11.0766C14.5 11.352 14.2734 11.5801 14 11.5801H9L6.5 13.4682V11.5801H2C1.72656 11.5801 1.5 11.352 1.5 11.0766V2.01393C1.5 1.73859 1.72656 1.51045 2 1.51045H14C14.2734 1.51045 14.5 1.73859 14.5 2.01393V11.0766Z"/></svg>