<svg viewBox="0 0 16 16" xmlns="http://www.w3.org/2000/svg"><g clip-path="url(#clip0_4786_47804)"><path d="M15.2495 8.75C15.0513 8.75259 14.8619 8.83244 14.7217 8.97253C14.5815 9.11263 14.5016 9.30189 14.499 9.5C14.499 10.1613 14.2368 10.7957 13.7699 11.2642C13.3029 11.7328 12.6692 11.9974 12.0075 12H9.88614C9.68717 12.0002 9.49641 12.0793 9.35581 12.22L6.85424 14.72C6.7137 14.8606 6.63477 15.0512 6.63477 15.25C6.63477 15.4488 6.7137 15.6394 6.85424 15.78C6.99496 15.9205 7.1857 15.9993 7.38457 15.9993C7.58345 15.9993 7.77419 15.9205 7.91491 15.78L10.1963 13.5H12.0075C13.069 13.5 14.087 13.0786 14.8377 12.3284C15.5883 11.5783 16.01 10.5609 16.01 9.5C16.0073 9.30017 15.9261 9.10942 15.7837 8.96905C15.6414 8.82868 15.4495 8.74998 15.2495 8.75Z"/><path d="M7.41463 12.75C7.41204 12.5519 7.33214 12.3626 7.19196 12.2225C7.05178 12.0824 6.8624 12.0026 6.66417 12H4.0025C3.33986 11.9974 2.7051 11.7331 2.23654 11.2649C1.76798 10.7966 1.50357 10.1622 1.50094 9.5V4C1.50357 3.33777 1.76798 2.70341 2.23654 2.23514C2.7051 1.76687 3.33986 1.50263 4.0025 1.5H7.18449C7.38272 1.49741 7.5721 1.41756 7.71229 1.27747C7.85247 1.13737 7.93237 0.948107 7.93496 0.75C7.93237 0.551893 7.85247 0.362629 7.71229 0.222534C7.5721 0.0824391 7.38272 0.00258996 7.18449 0L4.0025 0C2.94097 0 1.92292 0.421427 1.17231 1.17157C0.421691 1.92172 0 2.93913 0 4L0 9.5C0 10.5609 0.421691 11.5783 1.17231 12.3284C1.92292 13.0786 2.94097 13.5 4.0025 13.5H6.66417C6.8624 13.4974 7.05178 13.4176 7.19196 13.2775C7.33214 13.1374 7.41204 12.9481 7.41463 12.75Z"/><path d="M10.4664 4.28005L10.0762 5.74005C10.0372 5.89103 10.0451 6.05027 10.0987 6.19668C10.1523 6.3431 10.2491 6.46981 10.3763 6.56005C10.5034 6.65049 10.6556 6.69909 10.8116 6.69909C10.9676 6.69909 11.1198 6.65049 11.2469 6.56005L12.5077 5.75005L13.7685 6.56005C13.8916 6.64611 14.0385 6.69157 14.1887 6.69005C14.3541 6.68939 14.5151 6.63693 14.649 6.54005C14.7744 6.44852 14.8693 6.32125 14.9211 6.17492C14.9728 6.02859 14.9792 5.87004 14.9392 5.72005L14.549 4.27005L15.7097 3.33005C15.8369 3.23981 15.9337 3.1131 15.9873 2.96668C16.0409 2.82027 16.0488 2.66103 16.0099 2.51005C15.9581 2.35652 15.858 2.22387 15.7245 2.13194C15.5911 2.04 15.4314 1.99373 15.2694 2.00005L13.7685 1.92005L13.2381 0.500051C13.1826 0.351767 13.0827 0.224199 12.9519 0.134727C12.8212 0.0452545 12.6661 -0.00177292 12.5077 5.11223e-05C12.3535 0.00013676 12.203 0.0470428 12.0761 0.134551C11.9493 0.22206 11.852 0.346038 11.7972 0.490051L11.2569 1.89005L9.75596 2.00005C9.60002 2.0057 9.44973 2.05978 9.32598 2.15477C9.20224 2.24976 9.1112 2.38094 9.06553 2.53005C9.01681 2.67888 9.01466 2.83901 9.05936 2.98909C9.10405 3.13917 9.19347 3.27206 9.31568 3.37005L10.4664 4.28005ZM11.467 2.89005C11.6174 2.88468 11.7629 2.83542 11.8856 2.74834C12.0083 2.66127 12.1028 2.54019 12.1575 2.40005L12.5277 1.40005L12.9079 2.40005C12.9603 2.54055 13.0526 2.6627 13.1735 2.75152C13.2944 2.84034 13.4385 2.89196 13.5884 2.90005H14.589L13.7685 3.57005C13.6516 3.66087 13.565 3.78506 13.5204 3.92614C13.4757 4.06723 13.475 4.21855 13.5183 4.36005L13.7885 5.36005L12.8979 4.79005C12.7716 4.71217 12.6261 4.67093 12.4777 4.67093C12.3292 4.67093 12.1837 4.71217 12.0574 4.79005L11.1668 5.36005L11.427 4.36005C11.4813 4.21269 11.4874 4.05187 11.4442 3.90086C11.401 3.74985 11.3109 3.61648 11.1869 3.52005L10.4064 3.00005L11.467 2.89005Z"/></g><defs><clipPath><rect/></clipPath></defs></svg>