<svg xmlns="http://www.w3.org/2000/svg" viewBox="0 0 16 16"><path d="M12.814 12.487A3.431 3.431 0 0 0 15 9.5a2.873 2.873 0 0 0-.523-1.6A4.751 4.751 0 0 0 10.5 6C8.015 6 6 7.566 6 9.5a2.835 2.835 0 0 0 .413 1.447A4.692 4.692 0 0 0 10.5 13c.022 0 .042-.005.063-.005A5.251 5.251 0 0 0 15 15a3.323 3.323 0 0 1-2.186-2.513zM10.5 4.6a6.71 6.71 0 0 1 3.473.949C13.676 3 10.892 1 7.5 1 3.91 1 1 3.238 1 6a4.588 4.588 0 0 0 2.167 3.727C3.5 12.161 1 13 1 13a7.731 7.731 0 0 0 4.354-1.111 6.094 6.094 0 0 1-.148-.232A4.224 4.224 0 0 1 4.6 9.5c0-2.7 2.646-4.9 5.9-4.9z"/></svg>