<svg data-name="Layer 1" xmlns="http://www.w3.org/2000/svg" viewBox="0 0 32 32"><path d="M7 17.55a.92.92 0 00.44-1 6.21 6.21 0 01-.28-1.77c0-4.41 4.41-8 9.82-8a11.88 11.88 0 014 .72A1 1 0 0022 7.28a.9.9 0 00-.28-1.55A13.12 13.12 0 0017 4.85c-6.4 0-11.7 4.47-11.7 9.88A7.83 7.83 0 005.63 17a1 1 0 001.38.5zm19.7-6.24a1 1 0 00-.33 1.1 6.41 6.41 0 01.44 2.32c0 4.41-4.41 8-9.82 8A11.57 11.57 0 0112.8 22a.78.78 0 00-.8 0l-4.44 2.77.44-1.1L6 25a.55.55 0 00-.22.28l-.26.72a.94.94 0 00.28 1 1.26 1.26 0 00.61.17.62.62 0 00.44-.17l5.74-3.25a13.33 13.33 0 004.47.77c6.4 0 11.7-4.47 11.7-9.88a7.73 7.73 0 00-.55-3 1 1 0 00-1.49-.44zm2.82-5.79A1.12 1.12 0 0028 5.41L2.59 22.73a1.12 1.12 0 00-.11 1.55 1 1 0 00.83.39 1.16 1.16 0 00.69-.28L29.41 7.06a1.12 1.12 0 00.11-1.54z"/></svg>