<svg viewBox="0 0 16 16" xmlns="http://www.w3.org/2000/svg"><path d="M13.68 3.38L15.78 1.28C16.07 0.99 16.07 0.51 15.78 0.22C15.49 -0.07 15.01 -0.07 14.72 0.22L12.62 2.32L10.52 0.22C10.23 -0.07 9.75 -0.07 9.46 0.22C9.17 0.51 9.17 0.99 9.46 1.28L11.56 3.38L9.46 5.48C9.17 5.77 9.17 6.25 9.46 6.54C9.61 6.68 9.8 6.75 9.99 6.75C10.18 6.75 10.37 6.68 10.52 6.53L12.62 4.43L14.72 6.53C14.87 6.68 15.06 6.75 15.25 6.75C15.44 6.75 15.63 6.68 15.78 6.53C16.07 6.24 16.07 5.76 15.78 5.47L13.68 3.38Z"/><path d="M15.25 8C14.84 8 14.5 8.34 14.5 8.75V9.5C14.5 10.88 13.38 12 12 12H9.89C9.69 12 9.5 12.08 9.36 12.22L6.86 14.72C6.57 15.01 6.57 15.49 6.86 15.78C7.01 15.92 7.2 16 7.39 16C7.58 16 7.77 15.93 7.92 15.78L10.2 13.5H12C14.21 13.5 16 11.71 16 9.5V8.75C16 8.33 15.66 8 15.25 8Z"/><path d="M7.38 12.75C7.38 12.34 7.04 12 6.63 12H4C2.62 12 1.5 10.88 1.5 9.5V4C1.5 2.62 2.62 1.5 4 1.5H7.25C7.66 1.5 8 1.16 8 0.75C8 0.34 7.66 0 7.25 0H4C1.8 0 0 1.79 0 4V9.5C0 11.71 1.79 13.5 4 13.5H6.62C7.04 13.5 7.38 13.16 7.38 12.75Z"/></svg>