<svg viewBox="0 0 16 16" xmlns="http://www.w3.org/2000/svg"><path d="M7.39 16C7.2 16 7.01 15.93 6.86 15.78C6.57 15.49 6.57 15.01 6.86 14.72L9.36 12.22C9.5 12.08 9.69 12 9.89 12H12C13.38 12 14.5 10.88 14.5 9.5V8.75C14.5 8.33 14.83 8 15.25 8C15.67 8 16 8.33 16 8.75V9.5C16 11.71 14.21 13.5 12 13.5H10.2L7.92 15.78C7.77 15.92 7.58 16 7.39 16Z"/><path d="M6.63 13.5H4C1.79 13.5 0 11.71 0 9.5V4C0 1.79 1.8 0 4 0H7.25C7.66 0 8 0.34 8 0.75C8 1.16 7.66 1.5 7.25 1.5H4C2.62 1.5 1.5 2.62 1.5 4V9.5C1.5 10.88 2.62 12 4 12H6.62C7.03 12 7.37 12.34 7.37 12.75C7.37 13.16 7.04 13.5 6.63 13.5Z"/><path d="M15.25 6.58H8.34C7.93 6.58 7.59 6.24 7.59 5.83V5.72C7.59 5.43 7.76 5.17 8.02 5.04C8.33 4.89 8.57 4.62 8.68 4.28L9.48 1.71C9.79 0.67 10.71 0 11.79 0C12.87 0 13.79 0.67 14.11 1.71L14.91 4.28C15.01 4.61 15.25 4.89 15.57 5.04C15.83 5.17 16 5.43 16 5.72V5.83C16 6.24 15.66 6.58 15.25 6.58ZM9.97 5.08H13.61C13.56 4.97 13.51 4.85 13.48 4.73L12.68 2.16C12.53 1.68 12.12 1.5 11.79 1.5C11.46 1.5 11.05 1.67 10.9 2.16L10.1 4.73C10.07 4.85 10.03 4.97 9.97 5.08Z"/><path d="M12.33 8.75H11.27C10.86 8.75 10.52 8.41 10.52 8C10.52 7.59 10.86 7.25 11.27 7.25H12.33C12.74 7.25 13.08 7.59 13.08 8C13.08 8.41 12.74 8.75 12.33 8.75Z"/></svg>