<svg viewBox="0 0 16 16" xmlns="http://www.w3.org/2000/svg"><path fill-rule="evenodd" clip-rule="evenodd" d="M3.69231 1.84615H12.3077C13.3273 1.84615 14.1538 2.67271 14.1538 3.69231V12.3077C14.1538 13.3273 13.3273 14.1538 12.3077 14.1538H3.69231C2.67271 14.1538 1.84615 13.3273 1.84615 12.3077V3.69231C1.84615 2.67271 2.67271 1.84615 3.69231 1.84615ZM0 3.69231C0 1.6531 1.6531 0 3.69231 0H12.3077C14.3469 0 16 1.6531 16 3.69231V12.3077C16 14.3469 14.3469 16 12.3077 16H3.69231C1.6531 16 0 14.3469 0 12.3077V3.69231ZM4.00028 9.2308H12.0003C12.5049 9.2308 12.9234 8.81234 12.9234 8.30773C12.9234 7.80311 12.5049 7.38465 12.0003 7.38465H4.00028C3.49567 7.38465 3.07721 7.80311 3.07721 8.30773C3.07721 8.81234 3.49567 9.2308 4.00028 9.2308Z"/></svg>