<svg viewBox="0 0 16 16" xmlns="http://www.w3.org/2000/svg"><path fill-rule="evenodd" clip-rule="evenodd" d="M4 2.5H11C11.8284 2.5 12.5 3.17157 12.5 4V11C12.5 11.8284 11.8284 12.5 11 12.5H4C3.17157 12.5 2.5 11.8284 2.5 11V4C2.5 3.17157 3.17157 2.5 4 2.5ZM1 4C1 2.34315 2.34315 1 4 1H11C12.6569 1 14 2.34315 14 4V11C14 12.6569 12.6569 14 11 14H4C2.34315 14 1 12.6569 1 11V4ZM4.25 8.5H10.75C11.16 8.5 11.5 8.16 11.5 7.75C11.5 7.34 11.16 7 10.75 7H4.25C3.84 7 3.5 7.34 3.5 7.75C3.5 8.16 3.84 8.5 4.25 8.5Z"/></svg>