<svg viewBox="0 0 16 16" xmlns="http://www.w3.org/2000/svg"><path fill-rule="evenodd" clip-rule="evenodd" d="M12.3077 1.84615H3.69231C2.67271 1.84615 1.84615 2.67271 1.84615 3.69231V12.3077C1.84615 13.3273 2.67271 14.1538 3.69231 14.1538H12.3077C13.3273 14.1538 14.1538 13.3273 14.1538 12.3077V3.69231C14.1538 2.67271 13.3273 1.84615 12.3077 1.84615ZM3.69231 0C1.6531 0 0 1.6531 0 3.69231V12.3077C0 14.3469 1.6531 16 3.69231 16H12.3077C14.3469 16 16 14.3469 16 12.3077V3.69231C16 1.6531 14.3469 0 12.3077 0H3.69231Z"/></svg>