<svg viewBox="0 0 16 16" xmlns="http://www.w3.org/2000/svg"><path fill-rule="evenodd" clip-rule="evenodd" d="M3.69231 0H12.3077C13.287 0 14.2261 0.38901 14.9185 1.08145C15.611 1.77389 16 2.71305 16 3.69231V12.3077C16 13.287 15.611 14.2261 14.9185 14.9185C14.2261 15.611 13.287 16 12.3077 16H3.69231C2.71305 16 1.77389 15.611 1.08145 14.9185C0.38901 14.2261 0 13.287 0 12.3077V3.69231C0 2.71305 0.38901 1.77389 1.08145 1.08145C1.77389 0.38901 2.71305 0 3.69231 0ZM5.62483 11.5936C5.79089 11.7597 6.00122 11.8372 6.21155 11.8372C6.43295 11.8372 6.64329 11.7486 6.79827 11.5936L13.2854 5.10652C13.6064 4.78549 13.6064 4.25412 13.2854 3.93308C12.9643 3.61205 12.433 3.61205 12.1119 3.93308L6.21155 9.83348L3.87575 7.4866C3.55472 7.16557 3.02335 7.16557 2.70231 7.4866C2.38128 7.80764 2.38128 8.339 2.70231 8.66004L5.62483 11.5936Z"/></svg>