<svg viewBox="0 0 16 16" xmlns="http://www.w3.org/2000/svg"><path d="M8.7461 7.43544L4.0921 3.17151C3.85121 2.94997 3.44953 2.94186 3.19594 3.15413C3.06531 3.26351 3 3.40973 3 3.55596C3 3.69428 3.05868 3.83265 3.17601 3.94041L7.41072 7.82012L3.17717 11.6994C2.93588 11.9217 2.94331 12.2736 3.197 12.4859C3.4507 12.6981 3.85226 12.6901 4.09448 12.4685L8.74848 8.20457C8.98145 7.98929 8.98145 7.65095 8.7461 7.43544ZM13.8232 7.43544L9.16919 3.17151C8.92856 2.94997 8.52662 2.94186 8.27277 3.15413C8.1432 3.26351 8.07709 3.40973 8.07709 3.55596C8.07709 3.69428 8.13577 3.83265 8.2531 3.94041L12.4878 7.82012L8.25426 11.6994C8.01297 11.9217 8.0204 12.2736 8.27409 12.4859C8.52779 12.6981 8.92935 12.6901 9.17157 12.4685L13.8256 8.20457C14.0585 7.98929 14.0585 7.65095 13.8232 7.43544Z"/></svg>