<svg viewBox="0 0 16 16" xmlns="http://www.w3.org/2000/svg"><path d="M12.8175 6.8225C12.8175 7.0125 12.7475 7.2025 12.5975 7.3525C12.3075 7.6425 11.8275 7.6425 11.5375 7.3525L7.99749 3.8125L4.45749 7.3525C4.16749 7.6425 3.68749 7.6425 3.39749 7.3525C3.10749 7.0625 3.10749 6.5825 3.39749 6.2925L7.46749 2.2225C7.75749 1.9325 8.23749 1.9325 8.52749 2.2225L12.5975 6.2925C12.7475 6.4425 12.8175 6.6325 12.8175 6.8225Z"/><path d="M12.8175 12.2525C12.8175 12.4425 12.7475 12.6325 12.5975 12.7825C12.3075 13.0725 11.8275 13.0725 11.5375 12.7825L7.99749 9.2425L4.45749 12.7825C4.16749 13.0725 3.68749 13.0725 3.39749 12.7825C3.10749 12.4925 3.10749 12.0125 3.39749 11.7225L7.46749 7.6525C7.60749 7.5125 7.79749 7.4325 7.99749 7.4325C8.19749 7.4325 8.38749 7.5125 8.52749 7.6525L12.5975 11.7225C12.7475 11.8725 12.8175 12.0625 12.8175 12.2525Z"/></svg>