<svg viewBox="0 0 16 16" xmlns="http://www.w3.org/2000/svg"><path d="M3.94064 7.74014L7.82013 3.51102L11.6994 7.74014C11.8083 7.85901 11.945 7.91712 12.0841 7.91712C12.2303 7.91712 12.3765 7.8519 12.4859 7.72149C12.6981 7.46806 12.6901 7.06691 12.4685 6.82495L8.20457 2.17583C7.98878 1.94139 7.65119 1.94139 7.43544 2.17583L3.17151 6.82495C2.94997 7.06654 2.94186 7.46806 3.15413 7.72165C3.3664 7.97523 3.69755 7.98316 3.94064 7.74014ZM8.20481 7.24881C7.98901 7.01437 7.65142 7.01437 7.43568 7.24881L3.17174 11.8979C2.95016 12.1398 2.94218 12.5409 3.15436 12.7945C3.36654 13.0481 3.71864 13.0553 3.94087 12.8143L7.82013 8.58279L11.6994 12.8119C11.8083 12.9308 11.945 12.9889 12.0841 12.9889C12.2303 12.9889 12.3765 12.9237 12.4859 12.7933C12.6981 12.5398 12.6901 12.1387 12.4685 11.8967L8.20481 7.24881Z"/></svg>