<svg viewBox="0 0 16 16" xmlns="http://www.w3.org/2000/svg"><path d="M9.17994 12.8201C8.98994 12.8201 8.79994 12.7501 8.64994 12.6001C8.35994 12.3101 8.35994 11.8301 8.64994 11.5401L12.1899 8.00012L8.64994 4.46012C8.35994 4.17012 8.35994 3.69012 8.64994 3.40012C8.93994 3.11012 9.41994 3.11012 9.70994 3.40012L13.7799 7.47012C14.0699 7.76012 14.0699 8.24012 13.7799 8.53012L9.70994 12.6001C9.55994 12.7501 9.36994 12.8201 9.17994 12.8201Z"/><path d="M3.74994 12.8201C3.55994 12.8201 3.36994 12.7501 3.21994 12.6001C2.92994 12.3101 2.92994 11.8301 3.21994 11.5401L6.75994 8.00012L3.21994 4.46012C2.92994 4.17012 2.92994 3.69012 3.21994 3.40012C3.50994 3.11012 3.98994 3.11012 4.27994 3.40012L8.34994 7.47012C8.48994 7.61012 8.56994 7.80012 8.56994 8.00012C8.56994 8.20012 8.48994 8.39012 8.34994 8.53012L4.27994 12.6001C4.12994 12.7501 3.93994 12.8201 3.74994 12.8201Z"/></svg>