<svg viewBox="0 0 16 16" xmlns="http://www.w3.org/2000/svg"><path d="M3.18001 9.1875C3.18001 8.9975 3.25 8.8075 3.4 8.6575C3.69 8.3675 4.17 8.3675 4.46 8.6575L8 12.1975L11.54 8.6575C11.83 8.3675 12.31 8.3675 12.6 8.6575C12.89 8.9475 12.89 9.4275 12.6 9.7175L8.53 13.7875C8.24001 14.0775 7.76 14.0775 7.47001 13.7875L3.4 9.7175C3.25 9.5675 3.18001 9.3775 3.18001 9.1875Z"/><path d="M3.18001 3.7575C3.18001 3.5675 3.25 3.3775 3.4 3.2275C3.69 2.9375 4.17 2.9375 4.46 3.2275L8 6.7675L11.54 3.2275C11.83 2.9375 12.31 2.9375 12.6 3.2275C12.89 3.5175 12.89 3.9975 12.6 4.2875L8.53 8.3575C8.39001 8.4975 8.2 8.5775 8 8.5775C7.8 8.5775 7.61 8.4975 7.47001 8.3575L3.4 4.2875C3.25 4.1375 3.18001 3.9475 3.18001 3.7575Z"/></svg>