<svg viewBox="0 0 16 16" xmlns="http://www.w3.org/2000/svg"><path d="M7.43544 7.74129C7.65126 7.97578 7.98882 7.97578 8.20457 7.74129L12.4685 3.09119C12.6901 2.84928 12.6981 2.4481 12.4859 2.19446C12.376 2.06526 12.23 2 12.0841 2C11.9457 2 11.8074 2.05863 11.6996 2.17586L7.82012 6.40703L3.94064 2.17596C3.69755 1.93474 3.3664 1.94214 3.15413 2.19578C2.94186 2.44942 2.94997 2.85049 3.17151 3.09225L7.43544 7.74129ZM12.0841 7.07284C11.9457 7.07284 11.8074 7.13147 11.6996 7.2487L7.82012 11.4799L3.94064 7.24986C3.69755 7.00679 3.3664 7.01472 3.15413 7.26836C2.94186 7.522 2.94997 7.9236 3.17151 8.16403L7.43544 12.8141C7.65126 13.0486 7.98882 13.0486 8.20457 12.8141L12.4685 8.16403C12.6901 7.92212 12.6981 7.52094 12.4859 7.2673C12.376 7.13889 12.23 7.07284 12.0841 7.07284Z"/></svg>