<svg viewBox="0 0 16 16" xmlns="http://www.w3.org/2000/svg"><path d="M3.51203 7.81994L7.74589 3.94074C7.9872 3.71841 7.97977 3.3665 7.72606 3.15424C7.47234 2.94197 7.07101 2.94985 6.83036 3.17139L2.17603 7.43526C1.94132 7.65108 1.94132 7.98864 2.17603 8.20438L6.83036 12.4683C7.07249 12.6899 7.47403 12.6978 7.72791 12.4856C7.85643 12.3758 7.92254 12.2298 7.92254 12.0838C7.92254 11.9455 7.86386 11.8071 7.74652 11.6994L3.51203 7.81994ZM12.8228 11.6991L8.58896 7.81994L12.8228 3.94074C13.0641 3.71841 13.0567 3.3665 12.803 3.15424C12.5493 2.94197 12.1477 2.95001 11.9054 3.17162L7.2511 7.4355C7.0164 7.65131 7.0164 7.98887 7.2511 8.20462L11.9054 12.4685C12.1476 12.6901 12.5491 12.6981 12.803 12.4859C12.9339 12.3758 13 12.2298 13 12.0838C13 11.9448 12.9418 11.8081 12.8228 11.6991Z"/></svg>