<svg viewBox="0 0 16 16" xmlns="http://www.w3.org/2000/svg"><path d="M6.82 12.8201C6.63 12.8201 6.44 12.7501 6.29 12.6001L2.22 8.53012C2.08 8.39012 2 8.20012 2 8.00012C2 7.80012 2.08 7.61012 2.22 7.47012L6.29 3.40012C6.58 3.11012 7.06 3.11012 7.35 3.40012C7.64 3.69012 7.64 4.17012 7.35 4.46012L3.81 8.00012L7.35 11.5401C7.64 11.8301 7.64 12.3101 7.35 12.6001C7.2 12.7501 7.01 12.8201 6.82 12.8201Z"/><path d="M12.25 12.8201C12.06 12.8201 11.87 12.7501 11.72 12.6001L7.65 8.53012C7.36 8.24012 7.36 7.76012 7.65 7.47012L11.72 3.40012C12.01 3.11012 12.49 3.11012 12.78 3.40012C13.07 3.69012 13.07 4.17012 12.78 4.46012L9.24 8.00012L12.78 11.5401C13.07 11.8301 13.07 12.3101 12.78 12.6001C12.63 12.7501 12.44 12.8201 12.25 12.8201Z"/></svg>