<svg viewBox="0 0 16 16" xmlns="http://www.w3.org/2000/svg"><path d="M5.09029 7.997C5.09029 8.5727 5.26094 9.13548 5.58066 9.61416C5.90038 10.0928 6.35482 10.4659 6.8865 10.6862C7.41818 10.9065 8.00323 10.9642 8.56766 10.8519C9.13209 10.7396 9.65055 10.4623 10.0575 10.0552C10.4644 9.64817 10.7415 9.12951 10.8538 8.56487C10.9661 8.00023 10.9085 7.41496 10.6882 6.88308C10.468 6.3512 10.0951 5.8966 9.61655 5.57675C9.13805 5.25691 8.57549 5.08619 8 5.08619C7.22904 5.08861 6.49034 5.39605 5.94519 5.94141C5.40003 6.48677 5.0927 7.22575 5.09029 7.997ZM8 3.89603C8.11429 3.89603 8.23429 3.92347 8.34971 3.92347H14.8937C14.233 2.80801 13.3113 1.86983 12.2079 1.18966C11.1045 0.509481 9.85244 0.107677 8.55941 0.0188184C7.26638 -0.0700403 5.97113 0.156707 4.78511 0.679549C3.59908 1.20239 2.5578 2.00567 1.75086 3.02028L4.04343 6.97833C4.26201 6.0952 4.77094 5.31118 5.48848 4.75219C6.20603 4.1932 7.09055 3.89167 8 3.89603ZM15.4469 5.08619H10.8503C11.2486 5.45858 11.5656 5.90946 11.7812 6.41043C11.9967 6.9114 12.1063 7.4516 12.1029 7.997C12.108 8.83011 11.8536 9.64413 11.3749 10.3259L8.088 16C10.1944 15.9768 12.2067 15.1234 13.6881 13.6251C15.1694 12.1267 16.0001 10.1044 16 7.997C15.9965 7.00093 15.8089 6.01409 15.4469 5.08619ZM8 12.0991C7.22352 12.1002 6.46298 11.8788 5.80837 11.461C5.15377 11.0432 4.63251 10.4465 4.30629 9.74165L1.01829 4.06753C0.352827 5.2704 0.00252197 6.6222 0 7.997C0.00301698 9.91238 0.691263 11.7634 1.94021 13.2152C3.18915 14.667 4.9163 15.6236 6.80914 15.912L9.10629 11.9551C8.74488 12.0486 8.37329 12.097 8 12.0991Z"/></svg>