<svg viewBox="0 0 16 16" xmlns="http://www.w3.org/2000/svg"><path d="M6.4 12.7812C6.4 14.2822 5.325 15.5 4 15.5C2.6525 15.5 1.6 14.2822 1.6 12.7812C0.71625 12.7812 0 11.9685 0 10.9688V2.8125C0 1.81138 0.71625 1 1.6 1H8.8C9.6825 1 10.4 1.81138 10.4 2.8125V3.71875H11.4675C11.84 3.71875 12.195 3.88584 12.4575 4.1832L14.79 6.82549C15.0525 7.12285 15.2 7.525 15.2 7.94697V11.4219H15.4C15.7325 11.4219 16 11.7249 16 12.1016C16 12.4782 15.7325 12.7812 15.4 12.7812H14.4C14.4 14.2822 13.325 15.5 12 15.5C10.6525 15.5 9.6 14.2822 9.6 12.7812H6.4ZM8.8 2.35938H1.6C1.379 2.35938 1.2 2.56215 1.2 2.8125V10.9688C1.2 11.218 1.379 11.4219 1.6 11.4219H1.921C2.336 10.6091 3.1125 10.0625 4 10.0625C4.8875 10.0625 5.665 10.6091 6.08 11.4219H8.8C9.02 11.4219 9.2 11.218 9.2 10.9688V2.8125C9.2 2.56215 9.02 2.35938 8.8 2.35938ZM11.61 5.14326C11.5725 5.10078 11.5225 5.07812 11.4675 5.07812H10.4V7.79688H13.95C13.9475 7.79404 13.945 7.78838 13.9425 7.78555L11.61 5.14326ZM4 11.4219C3.3375 11.4219 2.8 12.0308 2.8 12.7812C2.8 13.5317 3.3375 14.1406 4 14.1406C4.6625 14.1406 5.2 13.5317 5.2 12.7812C5.2 12.0308 4.6625 11.4219 4 11.4219ZM12 14.1406C12.6625 14.1406 13.2 13.5317 13.2 12.7812C13.2 12.0308 12.6625 11.4219 12 11.4219C11.3375 11.4219 10.8 12.0308 10.8 12.7812C10.8 13.5317 11.3375 14.1406 12 14.1406Z"/></svg>