<svg viewBox="0 0 16 16" xmlns="http://www.w3.org/2000/svg"><path d="M8 0C3.58 0 0 3.58 0 8C0 12.42 3.58 16 8 16C12.42 16 16 12.42 16 8C16 3.58 12.42 0 8 0ZM13 13.5C13 13.78 12.78 14 12.5 14C12.22 14 12 13.78 12 13.5V7H9.5C8.67 7 8 6.33 8 5.5V3H4.5C4.22 3 4 3.23 4 3.5V12.5C4 12.77 4.22 13 4.5 13H7.5V9.21L5.85 10.86C5.65 11.06 5.34 11.06 5.14 10.86C4.94 10.66 4.94 10.35 5.14 10.15L7.64 7.65C7.84 7.45 8.15 7.45 8.35 7.65L10.85 10.15C11.05 10.35 11.05 10.66 10.85 10.86C10.76 10.96 10.62 11.01 10.5 11.01C10.38 11.01 10.25 10.96 10.15 10.86L8.5 9.21V13H10.5C10.78 13 11 13.22 11 13.5C11 13.78 10.78 14 10.5 14H4.5C3.67 14 3 13.33 3 12.5V3.5C3 2.67 3.67 2 4.5 2H8.58C8.98 2 9.36 2.16 9.64 2.44L12.56 5.36C12.84 5.64 13 6.02 13 6.42V13.5Z"/><path d="M9 5.5C9 5.78 9.22 6 9.5 6H11.79L9 3.21V5.5Z"/></svg>