<svg viewBox="0 0 16 16" xmlns="http://www.w3.org/2000/svg"><g clip-path="url(#clip0_318_704)"><path d="M1.75278 14.5H7.90278C8.23611 15.075 8.66389 15.5781 9.15833 15.9781C9.07222 15.9906 8.98056 16 8.88889 16H1.77778C0.795833 16 0 15.1031 0 14V2C0 0.895313 0.795833 0 1.77778 0H6.375C6.84722 0 7.29722 0.210719 7.63056 0.585938L10.1472 3.41563C10.4806 3.79063 10.6667 4.29688 10.6667 4.82812V6.20625C10.1889 6.35938 9.73889 6.59062 9.33333 6.89062V5H7.11111C6.61944 5 6.22222 4.55313 6.22222 4V1.5H1.77778C1.53222 1.5 1.33333 1.72375 1.33333 2V14C1.33333 14.275 1.53222 14.5 1.77778 14.5H1.75278ZM7.975 11.5C7.975 9.01562 9.79167 7 12 7C14.2083 7 16 9.01562 16 11.5C16 13.9844 14.2083 16 12 16C9.79167 16 7.975 13.9844 7.975 11.5ZM13.6472 10.3531C13.8222 10.1594 13.8222 9.84063 13.6472 9.64688C13.475 9.45 13.1917 9.45 13.0194 9.64688L12 10.7937L10.9806 9.64688C10.8083 9.45 10.525 9.45 10.3528 9.64688C10.1778 9.84063 10.1778 10.1594 10.3528 10.3531L11.3722 11.5L10.3528 12.6469C10.1778 12.8406 10.1778 13.1594 10.3528 13.3531C10.525 13.55 10.8083 13.55 10.9806 13.3531L12 12.2063L13.0194 13.3531C13.1917 13.55 13.475 13.55 13.6472 13.3531C13.8222 13.1594 13.8222 12.8406 13.6472 12.6469L12.6278 11.5L13.6472 10.3531Z"/></g><defs><clipPath><rect/></clipPath></defs></svg>