<svg viewBox="0 0 16 16" xmlns="http://www.w3.org/2000/svg"><path d="M8 0C3.58 0 0 3.58 0 8C0 12.42 3.58 16 8 16C12.42 16 16 12.42 16 8C16 3.58 12.42 0 8 0ZM10.34 12H9.62L7.76 13.86C7.67 13.95 7.54 14 7.41 14C7.28 14 7.15 13.95 7.06 13.85C6.86 13.65 6.86 13.34 7.06 13.14L9.06 11.14C9.15 11.05 9.28 11 9.41 11H10.33C11.71 11 12.83 9.88 12.83 8.5V5.5C12.83 4.12 11.71 3 10.33 3H5.67C4.29 3 3.17 4.12 3.17 5.5V8.5C3.17 9.88 4.29 11 5.67 11H6.86C7.14 11 7.36 11.22 7.36 11.5C7.36 11.78 7.13 12 6.86 12H5.67C3.74 12 2.17 10.43 2.17 8.5V5.5C2.17 3.57 3.74 2 5.67 2H10.34C12.27 2 13.84 3.57 13.84 5.5V8.5C13.84 10.43 12.27 12 10.34 12ZM7.48 8.95C7.38 9.05 7.25 9.1 7.12 9.1C6.99 9.1 6.86 9.05 6.77 8.95L5.32 7.51C5.12 7.31 5.12 7 5.32 6.8C5.52 6.6 5.83 6.6 6.03 6.8L7.12 7.89L9.97 5.04C10.17 4.84 10.48 4.84 10.68 5.04C10.88 5.24 10.88 5.55 10.68 5.75L7.48 8.95Z"/></svg>