<svg xmlns="http://www.w3.org/2000/svg" viewBox="0 0 16 16"><path d="M8 15A7 7 0 1 0 8 1a7 7 0 0 0 0 14zM3.45 4.85c0-.193.152-.35.34-.35h1.019a.34.34 0 0 1 .329.265l.105.435H11.5a.35.35 0 0 1 .341.428l-.878 3.85a.35.35 0 0 1-.341.272H6.347l.085.35h3.64a.345.345 0 0 1 .333.42.877.877 0 0 1 .516.805c0 .483-.38.875-.849.875a.862.862 0 0 1-.849-.875c0-.197.063-.379.17-.525H7.015c.107.146.17.328.17.525 0 .483-.38.875-.849.875a.862.862 0 0 1-.849-.875.88.88 0 0 1 .373-.724.368.368 0 0 1-.023-.066L4.543 5.2H3.79a.345.345 0 0 1-.34-.35zm4.854 1a.156.156 0 0 1 .119-.055c.047 0 .09.018.12.057a.186.186 0 0 1 .045.126v.09c.129.022.241.07.332.149a.984.984 0 0 1 .249.325.337.337 0 0 1 .039.179.214.214 0 0 1-.084.153.177.177 0 0 1-.177.032l-.001-.001h-.002a.25.25 0 0 1-.128-.124l-.001-.003a.542.542 0 0 0-.126-.177.311.311 0 0 0-.102-.061v.668a.81.81 0 0 1 .441.249.787.787 0 0 1 .194.553c0 .16-.033.301-.102.42a.74.74 0 0 1-.261.272.813.813 0 0 1-.271.109v.142a.191.191 0 0 1-.043.124.152.152 0 0 1-.123.059.154.154 0 0 1-.12-.057.193.193 0 0 1-.045-.126v-.134a1.04 1.04 0 0 1-.263-.068.906.906 0 0 1-.276-.179l-.002-.002a.756.756 0 0 1-.174-.279.245.245 0 0 1 .003-.188l.001-.001a.215.215 0 0 1 .147-.119.181.181 0 0 1 .156.031c.045.03.077.074.097.127.02.052.063.102.137.147.053.03.111.052.177.065v-.754a.861.861 0 0 1-.458-.257.766.766 0 0 1-.194-.528c0-.143.031-.271.096-.381a.712.712 0 0 1 .26-.257.89.89 0 0 1 .292-.107v-.091a.187.187 0 0 1 .048-.128zm-.184.76c-.049.046-.077.112-.077.207 0 .048.008.096.024.142a.31.31 0 0 0 .087.121.39.39 0 0 0 .103.057v-.605a.356.356 0 0 0-.137.078zm.467 1.071v.647a.385.385 0 0 0 .115-.082.3.3 0 0 0 .083-.226.4.4 0 0 0-.069-.228l-.001-.001a.32.32 0 0 0-.128-.11z" fill-rule="evenodd" clip-rule="evenodd"/></svg>