<svg xmlns="http://www.w3.org/2000/svg" viewBox="0 0 16 16"><path d="M13 13.279V4.847a1.212 1.212 0 00-.367-.859l-2.185-2.13a1.268 1.268 0 00-.883-.358H4.252c-.332 0-.651.129-.885.358A1.203 1.203 0 003 2.721V13.28c0 .324.132.634.367.863.235.228.553.357.885.357h7.498c.332-.001.65-.13.884-.358.234-.229.366-.539.366-.863zm-3.333-8.53V2.818l1.982 1.932H9.667zm2.083 1.219v7.311l-7.498.002V2.721h4.165v2.638c0 .162.066.317.183.431a.633.633 0 00.442.178h2.708zm-5.917 1.22a.328.328 0 00-.333.324v.366a.33.33 0 00.333.325h4.333a.33.33 0 00.333-.325v-.366a.33.33 0 00-.333-.325H5.833zM5.5 9.341a.33.33 0 01.333-.325h4.333a.33.33 0 01.333.325v.366a.33.33 0 01-.333.325H5.833a.33.33 0 01-.333-.325v-.366zm.333 1.503a.33.33 0 00-.333.325v.366a.33.33 0 00.333.325h4.333a.33.33 0 00.333-.325v-.366a.33.33 0 00-.333-.325H5.833z" fill-rule="evenodd" clip-rule="evenodd"/></svg>