<svg viewBox="0 0 16 16" xmlns="http://www.w3.org/2000/svg"><path d="M12.58 6.51C12.47 6.18 12.49 5.81 12.51 5.49C12.52 5.21 12.54 4.89 12.45 4.77C12.35 4.64 12.04 4.56 11.77 4.48C11.45 4.39 11.11 4.3 10.83 4.1C10.55 3.9 10.36 3.61 10.18 3.33C10.03 3.07 9.86 2.82 9.7 2.76C9.55 2.71 9.26 2.82 9 2.92C8.7 3.04 8.36 3.17 8 3.17C7.64 3.17 7.3 3.04 6.99 2.93C6.78 2.84 6.54 2.75 6.38 2.75C6.35 2.75 6.32 2.75 6.3 2.76C6.14 2.82 5.97 3.07 5.81 3.33C5.63 3.6 5.44 3.89 5.17 4.09C4.88 4.3 4.55 4.39 4.23 4.48C3.95 4.55 3.64 4.63 3.55 4.76C3.46 4.89 3.47 5.21 3.49 5.49C3.5 5.81 3.52 6.17 3.41 6.51C3.31 6.83 3.09 7.1 2.88 7.35C2.69 7.58 2.5 7.82 2.5 8C2.5 8.17 2.7 8.42 2.89 8.65C3.09 8.9 3.31 9.17 3.41 9.49C3.52 9.82 3.5 10.19 3.48 10.51C3.47 10.79 3.45 11.11 3.54 11.24C3.64 11.37 3.94 11.45 4.22 11.53C4.54 11.62 4.88 11.71 5.16 11.91C5.44 12.11 5.62 12.4 5.81 12.68C5.96 12.92 6.14 13.19 6.3 13.24C6.44 13.29 6.74 13.17 6.99 13.07C7.29 12.95 7.64 12.82 8 12.82C8.36 12.82 8.7 12.95 9.01 13.07C9.27 13.17 9.56 13.28 9.7 13.24C9.86 13.19 10.03 12.92 10.19 12.68C10.37 12.4 10.56 12.11 10.84 11.91C11.12 11.7 11.46 11.62 11.78 11.53C12.05 11.46 12.36 11.37 12.46 11.24C12.55 11.11 12.54 10.79 12.52 10.51C12.5 10.19 12.49 9.83 12.59 9.49C12.69 9.17 12.91 8.9 13.12 8.65C13.31 8.41 13.5 8.17 13.5 8C13.5 7.83 13.3 7.58 13.11 7.35C12.9 7.1 12.69 6.83 12.58 6.51ZM10.86 6.63L7.41 10.08C7.31 10.17 7.19 10.22 7.05 10.22C6.92 10.22 6.79 10.17 6.7 10.07L5.15 8.52C4.95 8.32 4.95 8.01 5.15 7.81C5.35 7.61 5.66 7.61 5.86 7.81L7.06 9.01L10.15 5.92C10.35 5.72 10.66 5.72 10.86 5.92C11.06 6.12 11.06 6.43 10.86 6.63Z"/><path d="M8 0C3.58 0 0 3.58 0 8C0 12.42 3.58 16 8 16C12.42 16 16 12.42 16 8C16 3.58 12.42 0 8 0ZM13.54 9.8C13.49 9.96 13.5 10.21 13.51 10.46C13.53 10.91 13.56 11.41 13.26 11.82C12.96 12.24 12.47 12.37 12.03 12.49C11.79 12.55 11.55 12.62 11.42 12.71C11.29 12.8 11.16 13.01 11.03 13.21C10.78 13.59 10.51 14.02 10.01 14.18C9.53 14.34 9.06 14.16 8.65 14C8.42 13.91 8.17 13.82 8 13.82C7.83 13.82 7.58 13.91 7.35 14C7.05 14.12 6.72 14.24 6.38 14.24C6.25 14.24 6.12 14.22 5.99 14.18C5.49 14.02 5.22 13.59 4.97 13.21C4.84 13.01 4.7 12.8 4.58 12.71C4.45 12.61 4.2 12.55 3.97 12.49C3.54 12.37 3.05 12.24 2.74 11.83C2.44 11.42 2.47 10.91 2.49 10.47C2.5 10.22 2.51 9.97 2.46 9.81C2.41 9.66 2.26 9.48 2.11 9.29C1.82 8.93 1.5 8.53 1.5 8C1.5 7.47 1.83 7.07 2.11 6.72C2.26 6.54 2.41 6.35 2.46 6.2C2.51 6.04 2.5 5.79 2.49 5.54C2.46 5.09 2.44 4.59 2.74 4.17C3.04 3.75 3.53 3.62 3.97 3.51C4.2 3.45 4.45 3.38 4.58 3.29C4.71 3.2 4.84 2.99 4.97 2.79C5.22 2.4 5.49 1.97 5.99 1.81C6.47 1.66 6.94 1.83 7.35 1.99C7.58 2.08 7.83 2.17 8 2.17C8.17 2.17 8.42 2.08 8.65 1.99C9.06 1.83 9.53 1.66 10.01 1.81C10.51 1.97 10.78 2.4 11.03 2.78C11.16 2.98 11.3 3.19 11.42 3.28C11.55 3.38 11.79 3.44 12.03 3.5C12.46 3.62 12.96 3.75 13.26 4.17C13.56 4.58 13.53 5.09 13.51 5.53C13.5 5.78 13.48 6.03 13.54 6.19C13.59 6.33 13.74 6.52 13.89 6.71C14.18 7.07 14.5 7.47 14.5 8C14.5 8.53 14.17 8.93 13.89 9.28C13.74 9.46 13.59 9.65 13.54 9.8Z"/></svg>