<svg width="24px" height="24px" viewBox="0 0 24 24" version="1.1" xmlns="http://www.w3.org/2000/svg" xmlns:xlink="http://www.w3.org/1999/xlink">
    <title>Page View</title>
    <g stroke="none" stroke-width="1" fill="none" fill-rule="evenodd">
        <g id="cjv-page-view">
            <circle id="Oval" fill="#FFFFFF" cx="12" cy="12" r="12"></circle>
            <g fill="#444A52">
                <path d="M17,12 C17,14.7614 14.7614,17 12,17 C9.2386,17 7,14.7614 7,12 C7,9.2386 9.2386,7 12,7 C14.7614,7 17,9.2386 17,12 Z" id="Path" fill-rule="nonzero"></path>
                <path d="M12,24 C18.6274,24 24,18.6274 24,12 C24,5.3726 18.6274,0 12,0 C5.3726,0 0,5.3726 0,12 C0,18.6274 5.3726,24 12,24 Z M12,21 C16.9706,21 21,16.9706 21,12 C21,7.0294 16.9706,3 12,3 C7.0294,3 3,7.0294 3,12 C3,16.9706 7.0294,21 12,21 Z" id="Shape"></path>
            </g>
        </g>
    </g>
</svg>