<svg viewBox="0 0 16 16" xmlns="http://www.w3.org/2000/svg"><path d="M0 2.00009C0 0.896914 0.896875 0 2 0H14C15.1031 0 16 0.896914 16 2.00009V11.0005C16 12.1036 15.1031 13.0006 14 13.0006H9.66562L5.8 15.9007C5.65 16.0132 5.44688 16.0319 5.275 15.9476C5.10313 15.8632 5 15.6913 5 15.5007V13.0006H2C0.896875 13.0006 0 12.1036 0 11.0005V2.00009ZM8.75 9.2504V5.55961L9.71875 6.52841C10.0125 6.82217 10.4875 6.82217 10.7781 6.52841C11.0687 6.23464 11.0719 5.75962 10.7781 5.46899L8.52812 3.21889C8.23437 2.92513 7.75938 2.92513 7.46875 3.21889L5.21875 5.46899C4.925 5.76275 4.925 6.23777 5.21875 6.52841C5.5125 6.81904 5.9875 6.82217 6.27812 6.52841L7.24687 5.55961V9.2504C7.24687 9.66604 7.58125 10.0004 7.99687 10.0004C8.4125 10.0004 8.74687 9.66604 8.74687 9.2504H8.75Z"/></svg>