<svg viewBox="0 0 16 14" xmlns="http://www.w3.org/2000/svg"><path d="M2.4 0C2.6875 0 2.935 0.223945 2.99 0.533477L3.0275 0.875H13.545C14.0525 0.875 14.4575 1.42871 14.315 1.9868L13.44 5.38398C13.1075 5.29648 12.7575 5.25 12.4 5.25C12.3425 5.25 12.285 5.25 12.2275 5.25273L13.015 2.1875H3.2775L4.04 6.5625H9.38C9.015 6.93984 8.71 7.3582 8.48 7.875H4.2675L4.4975 9.1875H8.0725C8.0025 9.47188 7.9775 9.76445 7.9775 10.0625C7.9775 10.2102 8.005 10.3551 8.0175 10.5H3.9775C3.7125 10.5 3.465 10.2758 3.41 9.9668L1.9035 1.3125H0.6C0.26875 1.3125 0 1.01883 0 0.65625C0 0.293945 0.26875 8.20313e-06 0.6 8.20313e-06L2.4 0ZM3.2 12.6875C3.2 11.9629 3.7375 11.375 4.4 11.375C5.0625 11.375 5.6 11.9629 5.6 12.6875C5.6 13.4121 5.0625 14 4.4 14C3.7375 14 3.2 13.4121 3.2 12.6875ZM12.4 6.125C14.3875 6.125 16 7.88867 16 10.0625C16 12.2363 14.3875 14 12.4 14C10.4125 14 8.8 12.2363 8.8 10.0625C8.8 7.88867 10.4125 6.125 12.4 6.125ZM14 10.5C14.22 10.5 14.4 10.3031 14.4 10.0625C14.4 9.82187 14.22 9.625 14 9.625H12.8V8.3125C12.8 8.07187 12.62 7.875 12.4 7.875C12.18 7.875 12 8.07187 12 8.3125V9.625H10.8C10.58 9.625 10.4 9.82187 10.4 10.0625C10.4 10.3031 10.58 10.5 10.8 10.5H12V11.8125C12 12.0531 12.18 12.25 12.4 12.25C12.62 12.25 12.8 12.0531 12.8 11.8125V10.5H14Z"/></svg>