<svg viewBox="0 0 40 40" version="1.1" xmlns="http://www.w3.org/2000/svg" xmlns:xlink="http://www.w3.org/1999/xlink">
    <title>Segment Assigned</title>
    <g stroke="none" stroke-width="1" fill="none" fill-rule="evenodd">
        <g id="cjv-segment">
            <circle id="Oval" fill="#FFFFFF" cx="20" cy="20" r="20"/>
            <g fill="#ddd856" id="Shape">
                <path d="M40,20 C40,31.0457 31.0457,40 20,40 C8.9543,40 0,31.0457 0,20 C0,8.9543 8.9543,0 20,0 C31.0457,0 40,8.9543 40,20 Z M30.3333,20.3333 C30.3333,22.443 29.7077,24.5053 28.5357,26.2594 C27.3636,28.0135 25.6977,29.3807 23.7486,30.188 C21.7995,30.9954 19.6548,31.2066 17.5857,30.795 C15.5166,30.3835 13.616,29.3676 12.1242,27.8758 C10.6324,26.384 9.6165,24.4834 9.205,22.4143 C8.7934,20.3452 9.0046,18.2005 9.812,16.2514 C10.6193,14.3023 11.9865,12.6364 13.7406,11.4643 C15.4947,10.2923 17.557,9.6667 19.6667,9.6667 L19.6667,20.3333 L30.3333,20.3333 Z M26.4153,7.812 C25.1211,7.2759 23.7341,7 22.3333,7 L22.3333,17.6667 L33,17.6667 C33,16.2659 32.7241,14.8788 32.188,13.5847 C31.652,12.2906 30.8663,11.1147 29.8758,10.1242 C28.8853,9.1337 27.7094,8.348 26.4153,7.812 Z"/>
            </g>
        </g>
    </g>
</svg>