<svg xmlns="http://www.w3.org/2000/svg" viewBox="0 0 16 16"><path d="m8.247 6.003-.001-.001A.355.355 0 0 0 8 5.9h-.001a.34.34 0 0 0-.245.102l-.001.001-1.05 1.05a.35.35 0 1 0 .495.495l.452-.453V9.4a.35.35 0 0 0 .7 0V7.095l.452.453a.35.35 0 1 0 .495-.495l-1.05-1.05zM8 1a7 7 0 1 0 0 14A7 7 0 0 0 8 1zm.005 10.325a4.95 4.95 0 0 1-1.756-.315c-.655.525-1.468.84-2.307.84-.052 0-.105-.026-.131-.079s0-.105.026-.131c.42-.446.708-.997.891-1.575-.576-.577-.917-1.339-.917-2.153 0-1.89 1.888-3.412 4.195-3.412S12.2 6.022 12.2 7.912s-1.888 3.413-4.195 3.413z"/></svg>