<svg viewBox="0 0 16 16" xmlns="http://www.w3.org/2000/svg"><path d="M13.8331 2.91812L11.2113 0.585625C10.7873 0.210687 10.2147 0 9.62095 0H3.24833C2.00648 0 1 0.895313 1 2L1.00023 14C1.00023 15.1044 2.00671 16 3.24856 16H12.2417C13.4782 16 14.49 15.1 14.49 14V4.33125C14.49 3.80313 14.2546 3.29375 13.8331 2.91812ZM12.8037 14C12.8037 14.2761 12.5521 14.5 12.2417 14.5H12.1855C11.915 13.0812 10.5379 12 8.86917 12H6.62083C4.95074 12 3.57399 13.0825 3.30489 14.5H3.24904C2.93855 14.5 2.68695 14.2761 2.68695 14L2.68625 2.00406C2.68625 1.72794 2.93792 1.50406 3.24833 1.50406H8.86917V4C8.86917 4.55219 9.37258 5 9.99333 5H12.7721V14H12.8037ZM7.745 7C6.5049 7 5.49667 7.89688 5.49667 9C5.49667 10.1044 6.50315 11 7.745 11C8.98685 11 9.99333 10.1044 9.99333 9C9.99333 7.89688 8.9851 7 7.745 7Z"/></svg>