<svg xmlns="http://www.w3.org/2000/svg" viewBox="0 0 16 16"><path d="M13 4.847v8.432c0 .323-.132.633-.366.862a1.264 1.264 0 0 1-.884.358H4.252a1.27 1.27 0 0 1-.885-.357A1.203 1.203 0 0 1 3 13.279V2.721c0-.324.132-.634.367-.863.235-.229.553-.358.885-.358h5.313c.331.001.649.129.883.358l2.185 2.13c.116.113.208.247.271.394.063.147.096.305.096.465zM9.667 2.818V4.75h1.982L9.667 2.818zm2.083 10.461V5.968H9.042A.633.633 0 0 1 8.6 5.79a.605.605 0 0 1-.183-.431V2.721H4.252v10.561l7.498-.003zm-.951-4.668H8.612a.157.157 0 0 1-.157-.155v-.311c0-.086.071-.155.157-.155h2.186c.086 0 .157.07.157.155v.311a.155.155 0 0 1-.156.155zM8.612 9.855h2.186c.086 0 .157-.07.157-.155v-.311a.156.156 0 0 0-.157-.155H8.612a.157.157 0 0 0-.157.155V9.7a.158.158 0 0 0 .157.155zm-.002 1.244h2.189c.085 0 .155-.07.155-.155v-.311a.156.156 0 0 0-.155-.155H8.61a.156.156 0 0 0-.155.155v.311a.154.154 0 0 0 .155.155zM6.22 7.15a.257.257 0 0 1 .193-.085c.076 0 .145.028.195.087a.274.274 0 0 1 .072.193v.137c.209.034.39.108.538.228.165.131.299.298.403.498a.49.49 0 0 1 .064.276v.001a.32.32 0 0 1-.136.232.298.298 0 0 1-.286.05l-.003-.001-.003-.001a.4.4 0 0 1-.208-.191l-.001-.003a.824.824 0 0 0-.204-.272.52.52 0 0 0-.164-.094v1.023c.29.062.531.187.715.382.212.221.314.508.314.849 0 .245-.053.462-.164.644a1.171 1.171 0 0 1-.424.415 1.411 1.411 0 0 1-.44.168v.218a.28.28 0 0 1-.07.19.247.247 0 0 1-.197.09.258.258 0 0 1-.195-.087.284.284 0 0 1-.072-.193v-.205a1.795 1.795 0 0 1-.426-.105H5.72a1.43 1.43 0 0 1-.447-.274l-.003-.002a1.155 1.155 0 0 1-.282-.427.357.357 0 0 1 .004-.288l.001-.002a.344.344 0 0 1 .238-.182.303.303 0 0 1 .252.048.402.402 0 0 1 .156.194c.033.08.101.156.221.225.085.046.18.08.286.099V9.828a1.417 1.417 0 0 1-.738-.394l-.001-.001a1.136 1.136 0 0 1-.313-.807c0-.219.05-.416.156-.584.106-.167.247-.299.421-.394a1.48 1.48 0 0 1 .474-.163v-.14c0-.07.021-.14.075-.195zm-.297 1.163c-.08.071-.125.172-.125.318 0 .074.013.146.038.218a.47.47 0 0 0 .142.183c.04.032.095.062.167.088v-.927a.586.586 0 0 0-.222.12zm.757 1.641v.991a.666.666 0 0 0 .187-.125.453.453 0 0 0 .133-.347.59.59 0 0 0-.111-.349l-.001-.001a.522.522 0 0 0-.208-.169z" fill-rule="evenodd" clip-rule="evenodd"/></svg>