<svg xmlns="http://www.w3.org/2000/svg" viewBox="0 0 16 16"><path d="M8 15A7 7 0 1 0 8 1a7 7 0 0 0 0 14zM3.45 4.85c0-.193.152-.35.34-.35h1.019a.34.34 0 0 1 .329.265l.105.435H11.5a.35.35 0 0 1 .341.428l-.878 3.85a.35.35 0 0 1-.341.272H6.347l.085.35h3.64a.345.345 0 0 1 .333.42.877.877 0 0 1 .516.805c0 .483-.38.875-.849.875a.862.862 0 0 1-.849-.875c0-.197.063-.379.17-.525H7.015c.107.146.17.328.17.525 0 .483-.38.875-.849.875a.862.862 0 0 1-.849-.875.88.88 0 0 1 .373-.724.368.368 0 0 1-.023-.066L4.543 5.2H3.79a.345.345 0 0 1-.34-.35zm3.571 2.275a.175.175 0 0 0-.175.175v.35c0 .097.078.175.175.175h2.706a.175.175 0 0 0 .175-.175V7.3a.175.175 0 0 0-.175-.175H7.021z" fill-rule="evenodd" clip-rule="evenodd"/></svg>