<svg viewBox="0 0 16 16" xmlns="http://www.w3.org/2000/svg"><path d="M7.14779 6.96875L4.33737 9.46875C4.00802 9.76172 4.00802 10.2362 4.33737 10.5294C4.66672 10.8225 5.20017 10.8223 5.52969 10.5294L6.90187 9.30937V12.5C6.90187 12.9141 7.27952 13.25 7.745 13.25C8.21047 13.25 8.58812 12.9141 8.58812 12.5V9.30937L9.95926 10.5291C10.1233 10.6781 10.3376 10.75 10.5554 10.75C10.7732 10.75 10.9868 10.6767 11.1516 10.5303C11.4809 10.2373 11.4809 9.76278 11.1516 9.46966L8.34116 6.96966C8.01199 6.67812 7.47801 6.67812 7.14779 6.96875ZM13.8331 2.91812L11.2113 0.585625C10.7873 0.210687 10.2147 0 9.62095 0H3.24833C2.00648 0 1 0.895313 1 2L1.00023 14C1.00023 15.1044 2.00671 16 3.24856 16H12.2417C13.4782 16 14.49 15.1 14.49 14V4.33125C14.49 3.80313 14.2546 3.29375 13.8331 2.91812ZM12.8037 14C12.8037 14.2761 12.5521 14.5 12.2417 14.5H3.24904C2.93855 14.5 2.68695 14.2761 2.68695 14L2.68625 2.00406C2.68625 1.72794 2.93792 1.50406 3.24833 1.50406H8.86917V4C8.86917 4.55219 9.37258 5 9.99333 5H12.7721V14H12.8037Z"/></svg>