<svg viewBox="0 0 32px 32px" version="1.1" xmlns="http://www.w3.org/2000/svg" xmlns:xlink="http://www.w3.org/1999/xlink">
    <title>Outcome Achieved</title>
    <g stroke="none" stroke-width="1" fill="none" fill-rule="evenodd">
        <g id="cjv-outcome-achieved">
            <circle id="Oval" fill="#FFFFFF" cx="20" cy="20" r="20"/>
            <g id="cjv-outcome-achieved﻿" fill="#A1D318">
                <path d="M20,40 C31.0457,40 40,31.0457 40,20 C40,8.9543 31.0457,0 20,0 C8.9543,0 0,8.9543 0,20 C0,31.0457 8.9543,40 20,40 Z M18.4074,29.1819 L31.1465,16.0864 C32.2845,14.9166 32.2845,13.0473 31.1465,11.8774 C30.0084,10.7075 28.19,10.7075 27.052,11.8774 L16.3601,22.8684 L12.948,19.3608 C11.81,18.191 9.9916,18.191 8.8535,19.3608 C7.7155,20.5307 7.7155,22.4 8.8535,23.5699 L14.3129,29.1819 C14.8819,29.7669 15.5643,30 16.3601,30 C17.1559,30 17.8383,29.7669 18.4074,29.1819 Z" id="Shape"/>
            </g>
        </g>
    </g>
</svg>