<svg viewBox="0 0 16 16" xmlns="http://www.w3.org/2000/svg"><path d="M8 0C3.58 0 0 3.58 0 8C0 12.42 3.58 16 8 16C12.42 16 16 12.42 16 8C16 3.58 12.42 0 8 0ZM6.5 10.5C4.3 10.5 2.5 8.71 2.5 6.5C2.5 4.29 4.29 2.5 6.5 2.5C8.71 2.5 10.5 4.29 10.5 6.5C10.5 8.71 8.7 10.5 6.5 10.5ZM12.86 12.85C12.76 12.95 12.63 13 12.5 13C12.37 13 12.24 12.95 12.15 12.85L10.15 10.85C9.95 10.65 9.95 10.34 10.15 10.14C10.35 9.94 10.66 9.94 10.86 10.14L12.86 12.14C13.06 12.34 13.06 12.65 12.86 12.85Z"/><path d="M6.5 9.5C8.15685 9.5 9.5 8.15685 9.5 6.5C9.5 4.84315 8.15685 3.5 6.5 3.5C4.84315 3.5 3.5 4.84315 3.5 6.5C3.5 8.15685 4.84315 9.5 6.5 9.5Z"/></svg>