<svg viewBox="0 0 16 16" xmlns="http://www.w3.org/2000/svg"><path d="M15.7574 14.7188L11.5687 10.5312C12.4752 9.42188 12.9754 8.025 12.9754 6.5C12.9754 2.90937 10.0643 0 6.47362 0C2.88297 0 0 2.91031 0 6.5C0 10.0897 2.91079 13 6.47362 13C7.99872 13 9.39784 12.4716 10.506 11.5925L14.6946 15.78C14.8696 15.9281 15.0634 16 15.2541 16C15.4448 16 15.638 15.9267 15.7846 15.7803C16.0762 15.4875 16.0762 15.0125 15.7574 14.7188ZM1.50041 6.5C1.50041 3.74312 3.74414 1.5 6.50175 1.5C9.25937 1.5 11.5031 3.74312 11.5031 6.5C11.5031 9.25688 9.25937 11.5 6.50175 11.5C3.74414 11.5 1.50041 9.25625 1.50041 6.5Z"/></svg>