<svg viewBox="0 0 16 16" xmlns="http://www.w3.org/2000/svg"><path d="M9 5.5C9 5.78 9.22 6 9.5 6H11.79L9 3.21V5.5Z"/><path d="M8 0C3.58 0 0 3.58 0 8C0 12.42 3.58 16 8 16C12.42 16 16 12.42 16 8C16 3.58 12.42 0 8 0ZM13 13.5C13 13.78 12.78 14 12.5 14C12.22 14 12 13.78 12 13.5V7H9.5C8.67 7 8 6.33 8 5.5V3H4.5C4.22 3 4 3.23 4 3.5V12.5C4 12.77 4.22 13 4.5 13H10.5C10.78 13 11 13.22 11 13.5C11 13.78 10.78 14 10.5 14H4.5C3.67 14 3 13.33 3 12.5V3.5C3 2.67 3.67 2 4.5 2H8.58C8.98 2 9.36 2.16 9.64 2.44L12.56 5.36C12.84 5.64 13 6.02 13 6.42V13.5ZM9.85 11.14C10.05 11.34 10.05 11.65 9.85 11.85C9.76 11.95 9.63 12 9.5 12C9.37 12 9.25 11.95 9.15 11.85L8 10.7L6.85 11.85C6.76 11.95 6.63 12 6.5 12C6.37 12 6.25 11.95 6.14 11.86C5.94 11.66 5.94 11.35 6.14 11.15L7.29 10L6.14 8.85C5.94 8.65 5.94 8.34 6.14 8.14C6.34 7.94 6.65 7.94 6.85 8.14L8 9.29L9.14 8.14C9.34 7.94 9.65 7.94 9.85 8.14C10.05 8.34 10.05 8.66 9.86 8.85L8.71 10L9.85 11.14Z"/></svg>