<svg width="32px" height="32px" viewBox="0 0 40 40" version="1.1" xmlns="http://www.w3.org/2000/svg" xmlns:xlink="http://www.w3.org/1999/xlink">
    <title>cjv-webchat-error</title>
    <g stroke="none" stroke-width="1" fill="none" fill-rule="evenodd">
        <g id="cjv-webchat-error">
            <circle id="Oval" fill="#FFFFFF" cx="20" cy="20" r="20"></circle>
            <g id="cjv-webchat-error﻿" fill="#F53131">
                <polygon id="Path" fill-rule="nonzero" points="22.8284 15.7574 24.2426 17.1716 21.4142 20 24.2426 22.8284 22.8284 24.2426 20 21.4142 17.1716 24.2426 15.7574 22.8284 18.5858 20 15.7574 17.1716 17.1716 15.7574 20 18.5858"></polygon>
                <path d="M40,20 C40,31.0457 31.0457,40 20,40 C8.9543,40 0,31.0457 0,20 C0,8.9543 8.9543,0 20,0 C31.0457,0 40,8.9543 40,20 Z M32,19.75 C32,25.15 26.607,29.5 20.0155,29.5 C18.2927,29.5 16.57,29.2 14.997,28.6 C13.1244,30.1 10.8024,31 8.4055,31 C8.2557,31 8.1059,30.925 8.031,30.775 C7.9561,30.625 8.031,30.475 8.1059,30.4 C9.3044,29.125 10.1283,27.55 10.6526,25.9 C9.0048,24.25 8.031,22.075 8.031,19.75 C8.031,14.35 13.424,10 20.0155,10 C26.607,10 32,14.35 32,19.75 Z" id="Shape"></path>
            </g>
        </g>
    </g>
</svg>