<svg xmlns="http://www.w3.org/2000/svg" width="27" height="27" viewBox="0 0 27 27">
  <title>cjv-product-added</title>
  <circle cx="13.5" cy="13.5" r="13" fill="#a1d318" stroke="#a1d318" stroke-miterlimit="10"/>
  <path d="M5.46,8.29H8a.81.81,0,0,1,.8.69l1.4,8.47a.8.8,0,0,0,.79.68h6.92" transform="translate(-0.5 -0.5)" fill="none" stroke="#fdfdfd" stroke-linecap="round" stroke-miterlimit="10" stroke-width="0.75"/>
  <path d="M11.06,18.13h7.52a.89.89,0,0,0,.79-.8l1.2-5.71c.15-.69-.25-1.38-.79-1.38l-10.42,0,.94,7.16Z" transform="translate(-0.5 -0.5)" fill="#fdfdfd" stroke="#fdfdfd" stroke-miterlimit="10" stroke-width="0.75"/>
  <circle cx="16.37" cy="19.93" r="1.35" fill="#fdfdfd"/>
  <circle cx="10.37" cy="19.93" r="1.35" fill="#fdfdfd"/>
  <line x1="14.48" y1="11.93" x2="14.48" y2="15.74" fill="none" stroke="#a1d318" stroke-linecap="round" stroke-miterlimit="10" stroke-width="0.75"/>
  <line x1="16.39" y1="13.83" x2="12.57" y2="13.83" fill="none" stroke="#a1d318" stroke-linecap="round" stroke-miterlimit="10" stroke-width="0.75"/>
</svg>
