<svg viewBox="0 0 32px 32px" version="1.1" xmlns="http://www.w3.org/2000/svg" xmlns:xlink="http://www.w3.org/1999/xlink">
    <title>Offer Closed</title>   
    <g stroke="none" stroke-width="1" fill="none" fill-rule="evenodd">
        <g id="cjv-offer-closed">
            <circle id="Oval" fill="#FFFFFF" cx="20" cy="20" r="20"/>
            <g fill="#F53131" id="Shape">
                <path d="M40,20 C40,31.0457 31.0457,40 20,40 C8.9543,40 0,31.0457 0,20 C0,8.9543 8.9543,0 20,0 C31.0457,0 40,8.9543 40,20 Z M9.4819,16.6836 L9.4825,12.5845 L13.5018,11.3195 L15.9819,8 L20,9.2719 L24.0182,8 L26.4982,11.3195 L30.5175,12.5845 L30.5181,16.6837 L33,20 L30.518,23.3164 L30.5175,27.4155 L26.4982,28.6805 L24.0181,32 L20,30.7281 L15.9818,32 L13.5018,28.6805 L9.4825,27.4155 L9.4819,23.3163 L7,20 L9.4819,16.6836 Z M17.1716,15.7574 L15.7574,17.1716 L18.5858,20 L15.7574,22.8284 L17.1716,24.2426 L20,21.4142 L22.8284,24.2426 L24.2427,22.8284 L21.4142,20 L24.2427,17.1716 L22.8284,15.7574 L20,18.5858 L17.1716,15.7574 Z"/>
            </g>
        </g>
    </g>
</svg>