<svg xmlns="http://www.w3.org/2000/svg" viewBox="0 0 16 16"><path d="M1.438 2.531h8.458c.242 0 .438.196.438.438v1.385h1.15c.359 0 .704.135.964.376l1.65 1.531c.278.258.436.616.436.991v3.482h.029c.242 0 .438.196.438.438v.036a.438.438 0 0 1-.438.438h-.975c-.116 1.025-1.006 1.823-2.087 1.823s-1.971-.798-2.087-1.823H6.121c-.116 1.025-1.006 1.823-2.087 1.823-1.081 0-1.971-.798-2.087-1.823h-.509A.437.437 0 0 1 1 11.209V2.966c0-.242.196-.435.438-.435zm8.895 5.013H13.6v-.292a.448.448 0 0 0-.145-.33l-1.65-1.531a.475.475 0 0 0-.321-.125h-1.15v2.278zM5.2 11.418c0 .629-.522 1.139-1.167 1.139-.644 0-1.167-.51-1.167-1.139s.522-1.139 1.167-1.139 1.167.51 1.167 1.139zm6.3 1.139c.644 0 1.167-.51 1.167-1.139s-.522-1.139-1.167-1.139-1.167.51-1.167 1.139.523 1.139 1.167 1.139z" fill-rule="evenodd" clip-rule="evenodd"/></svg>