<svg viewBox="0 0 16 16" xmlns="http://www.w3.org/2000/svg"><path d="M8.5 3.02V7.5H12.98C12.74 5.14 10.86 3.26 8.5 3.02Z"/><path d="M8 0C3.58 0 0 3.58 0 8C0 12.42 3.58 16 8 16C12.42 16 16 12.42 16 8C16 3.58 12.42 0 8 0ZM12.3 10.56C11.4 12.06 9.75 13 8 13C5.24 13 3 10.76 3 8C3 6.25 3.94 4.6 5.44 3.7C5.67 3.56 5.98 3.63 6.13 3.87C6.27 4.11 6.19 4.41 5.96 4.56C4.75 5.28 4 6.6 4 8C4 10.21 5.79 12 8 12C9.4 12 10.72 11.25 11.44 10.04C11.58 9.8 11.89 9.73 12.13 9.87C12.37 10.01 12.45 10.32 12.3 10.56ZM13.5 8.5H8C7.72 8.5 7.5 8.28 7.5 8V2.5C7.5 2.22 7.72 2 8 2C11.31 2 14 4.69 14 8C14 8.28 13.78 8.5 13.5 8.5Z"/></svg>