<svg viewBox="0 0 16 16" xmlns="http://www.w3.org/2000/svg"><path d="M8 0C12.4187 0 16 3.58125 16 8C16 12.4187 12.4187 16 8 16C3.58125 16 0 12.4187 0 8C0 3.58125 3.58125 0 8 0ZM8 14.5C8.23125 14.5 8.81563 14.275 9.4875 12.9875C9.7625 12.4344 9.97188 11.7625 10.175 11H5.825C6 11.7625 6.2375 12.4344 6.5125 12.9875C7.15625 14.275 7.76875 14.5 8 14.5ZM5.57812 9.5H10.4219C10.4719 9.02187 10.5 8.51875 10.5 8C10.5 7.48125 10.4719 6.97813 10.4219 6.5H5.57812C5.52812 6.97813 5.5 7.48125 5.5 8C5.5 8.51875 5.52812 9.02187 5.57812 9.5ZM10.175 5C9.97188 4.2375 9.7625 3.56562 9.4875 3.01406C8.81563 1.72562 8.23125 1.5 8 1.5C7.76875 1.5 7.15625 1.72562 6.5125 3.01406C6.2375 3.56562 6 4.2375 5.825 5H10.175ZM11.9312 6.5C11.975 6.98438 12 7.4875 12 8C12 8.5125 11.975 9.01562 11.9312 9.5H14.325C14.4406 9.01875 14.5 8.51562 14.5 8C14.5 7.48438 14.4406 6.98125 14.325 6.5H11.9312ZM10.6906 2.08156C11.1313 2.88313 11.4813 3.87812 11.7094 5H13.7688C13.1 3.71563 12.0125 2.68375 10.6906 2.08156ZM5.30937 2.08156C3.9875 2.68375 2.90125 3.71563 2.23219 5H4.29063C4.51875 3.87812 4.86875 2.88313 5.30937 2.08156ZM1.5 8C1.5 8.51562 1.56031 9.01875 1.67406 9.5H4.06875C4.025 9.01562 4 8.5125 4 8C4 7.4875 4.025 6.98438 4.06875 6.5H1.67406C1.56031 6.98125 1.5 7.48438 1.5 8ZM13.7688 11H11.7094C11.4813 12.1219 11.1313 13.1156 10.6906 13.9187C12.0125 13.3156 13.1 12.2844 13.7688 11ZM4.29063 11H2.23219C2.90125 12.2844 3.9875 13.3156 5.30937 13.9187C4.86875 13.1156 4.51875 12.1219 4.29063 11Z"/></svg>