<svg viewBox="0 0 16 16" xmlns="http://www.w3.org/2000/svg"><path d="M13.8426 2.91812L11.2189 0.585625C10.7945 0.210687 10.2215 0 9.62734 0H3.25C2.00723 0 1 0.895313 1 2L1.00023 14C1.00023 15.1044 2.00746 16 3.25023 16H12.25C13.4875 16 14.5 15.1 14.5 14V4.33125C14.5 3.80313 14.2645 3.29375 13.8426 2.91812ZM12.8125 14C12.8125 14.2761 12.5606 14.5 12.25 14.5H3.2507C2.93999 14.5 2.6882 14.2761 2.6882 14L2.6875 2.00406C2.6875 1.72794 2.93936 1.50406 3.25 1.50406H8.875V4C8.875 4.55219 9.37879 5 10 5H12.7809V14H12.8125ZM4.375 4H7.1875C7.49688 4 7.75 3.775 7.75 3.5C7.75 3.225 7.49688 3 7.1875 3H4.375C4.06422 3 3.8125 3.225 3.8125 3.5C3.8125 3.775 4.06422 4 4.375 4ZM7.75 5.5C7.75 5.225 7.49688 5 7.1875 5H4.375C4.06422 5 3.8125 5.225 3.8125 5.5C3.8125 5.775 4.06422 6 4.375 6H7.1875C7.49688 6 7.75 5.775 7.75 5.5ZM7.94336 9.65L7.71836 9.6C6.9168 9.38125 6.93438 9.25312 6.9625 9.14062C7.01084 8.8965 7.54574 8.83691 8.02668 8.90234C8.22334 8.92871 8.43906 8.99022 8.64508 9.05372C9.01035 9.16603 9.41254 8.99316 9.53981 8.66809C9.66725 8.34184 9.47332 7.98559 9.10633 7.87216C8.85254 7.79453 8.64543 7.74472 8.45383 7.70737V7.5C8.45383 7.15531 8.13907 6.875 7.7507 6.875C7.36233 6.875 7.04758 7.15528 7.04758 7.5V7.68725C6.25938 7.8375 5.70391 8.275 5.57734 8.92813C5.31698 10.2669 6.74418 10.6391 7.35344 10.7981L7.55777 10.8509C8.58714 11.1126 8.57027 11.2006 8.53933 11.3596C8.49099 11.6037 7.95609 11.6643 7.47374 11.5979C7.22983 11.5657 6.91792 11.4661 6.64195 11.3782L6.48483 11.3274C6.11886 11.2151 5.71737 11.384 5.58764 11.7093C5.45855 12.0346 5.65026 12.3918 6.01655 12.5071L6.16653 12.554C6.43927 12.6411 6.74239 12.7287 7.04754 12.7887V13C7.04754 13.3447 7.3623 13.625 7.75067 13.625C8.13904 13.625 8.45379 13.3447 8.45379 13V12.8046C9.23989 12.6548 9.79711 12.2255 9.92438 11.5724C10.1863 10.2188 8.72734 9.84687 7.94336 9.65Z"/></svg>