<svg viewBox="0 0 16 16" xmlns="http://www.w3.org/2000/svg"><path d="M8 0C3.58 0 0 3.58 0 8C0 12.42 3.58 16 8 16C12.42 16 16 12.42 16 8C16 3.58 12.42 0 8 0ZM13.36 7.21L11.16 9L11.5 10.27C11.57 10.54 11.41 10.81 11.15 10.88C10.89 10.95 10.61 10.79 10.54 10.53L10.2 9.26C10.1 8.88 10.23 8.47 10.54 8.23L12.74 6.44L9.9 6.29C9.5 6.26 9.16 6.01 9.02 5.65L8 3L6.98 5.65C6.84 6.01 6.49 6.26 6.1 6.29L3.27 6.44L5.47 8.23C5.78 8.48 5.91 8.88 5.81 9.26L5.08 12L7.46 10.46C7.79 10.25 8.22 10.25 8.55 10.46L11.06 12.09C11.29 12.24 11.36 12.55 11.21 12.78C11.1 12.92 10.94 13 10.78 13C10.69 13 10.59 12.97 10.51 12.92L8 11.29L5.62 12.83C5.27 13.06 4.83 13.04 4.49 12.8C4.15 12.56 4 12.14 4.11 11.74L4.84 9L2.64 7.21C2.32 6.95 2.19 6.52 2.32 6.13C2.45 5.74 2.8 5.46 3.22 5.44L6.05 5.29L7.07 2.65C7.22 2.25 7.58 2 8 2C8.42 2 8.78 2.25 8.93 2.64L9.95 5.28L12.78 5.43C13.2 5.45 13.55 5.72 13.68 6.12C13.81 6.52 13.68 6.94 13.36 7.21Z"/></svg>