<svg viewBox="0 0 16 16" xmlns="http://www.w3.org/2000/svg"><path d="M8 0C3.58 0 0 3.58 0 8C0 12.42 3.58 16 8 16C12.42 16 16 12.42 16 8C16 3.58 12.42 0 8 0ZM10.34 12H9.62L7.77 13.86C7.67 13.95 7.54 14 7.41 14C7.28 14 7.15 13.95 7.06 13.85C6.86 13.65 6.86 13.34 7.06 13.14L9.06 11.14C9.15 11.05 9.28 11 9.41 11H10.33C11.71 11 12.83 9.88 12.83 8.5V5.5C12.83 4.12 11.71 3 10.33 3H5.67C4.29 3 3.17 4.12 3.17 5.5V8.5C3.17 9.88 4.29 11 5.67 11H6.86C7.14 11 7.36 11.22 7.36 11.5C7.36 11.78 7.13 12 6.86 12H5.67C3.74 12 2.17 10.43 2.17 8.5V5.5C2.17 3.57 3.74 2 5.67 2H10.34C12.27 2 13.84 3.57 13.84 5.5V8.5C13.84 10.43 12.27 12 10.34 12ZM10.75 8.07C10.99 8.21 11.06 8.52 10.92 8.76C10.83 8.92 10.67 9 10.5 9C10.41 9 10.32 8.98 10.24 8.93L7.74 7.43C7.59 7.34 7.5 7.18 7.5 7V4C7.5 3.72 7.72 3.5 8 3.5C8.28 3.5 8.5 3.73 8.5 4V6.72L10.75 8.07Z"/></svg>