<svg xmlns="http://www.w3.org/2000/svg" viewBox="0 0 16 16"><path d="M8 1a7 7 0 100 14A7 7 0 008 1zm.708 2.985c.062.039.12.085.172.137l1.941 1.907a.977.977 0 01.139.169H8.708V3.985zm2.442 7.765a.445.445 0 01-.134.318.463.463 0 01-.323.132H5.307a.457.457 0 01-.457-.45v-7.5c0-.119.048-.234.134-.318a.459.459 0 01.323-.132h2.79v2.55a.445.445 0 00.135.316.462.462 0 00.323.131h2.595v4.953zM8 7.3a.348.348 0 00-.248.103l-1.05 1.05a.35.35 0 10.495.495l.453-.453V10.8a.35.35 0 00.7 0V8.495l.453.452a.35.35 0 10.495-.495l-1.05-1.05A.352.352 0 008 7.3z"/></svg>