<svg xmlns="http://www.w3.org/2000/svg" viewBox="0 0 16 16"><path d="M8 15A7 7 0 1 0 8 1a7 7 0 0 0 0 14zm-3.342-3.692.675-2.033 1.852 1.293-1.922 1.209c-.328.22-.743-.099-.605-.469zm5.575-2.553c0 .033 0 .051.017.084l.918 2.486c.121.353-.294.672-.623.454l-2.372-1.596c-.035-.017-.069-.034-.121-.051L5.524 8.368l-.017-.017-1.558-1.26c-.294-.235-.121-.706.26-.706h2.06a.397.397 0 0 0 .381-.252l.935-2.419c.121-.353.641-.353.762 0l.9 2.402c0 .017.017.051.035.067l.951 2.572zm-.017-2.369h1.576c.381 0 .554.47.26.706L10.874 8.15l-.658-1.764z" fill-rule="evenodd" clip-rule="evenodd"/></svg>