<svg xmlns="http://www.w3.org/2000/svg" viewBox="0 0 16 16"><path d="M8.001 1C4.134 1 1 4.12 1 7.973 1 11.825 4.133 15 7.999 15 11.865 15 15 11.826 15 7.972 15.001 4.12 11.866 1 8.001 1zm6.021 6.976c0 .355-.037.699-.096 1.038h-2.918c.018-.335.029-.672.029-1.01 0-.341-.012-.68-.03-1.018h2.926c.053.322.089.651.089.99zm-12.043 0c0-.338.036-.669.089-.991h2.926c-.018.339-.03.678-.03 1.018 0 .339.012.676.03 1.01H2.075a6.115 6.115 0 01-.096-1.037zm8.107.028c0 .354-.011.684-.023 1.01H5.939a26.913 26.913 0 01-.024-1.01c0-.356.011-.688.023-1.018h4.123c.013.33.025.661.025 1.018zm-3.748 4.053c-.157-.568-.268-1.248-.336-2.029h3.995c-.068.781-.18 1.461-.337 2.029H6.338zm2.944 1.015c-.324.59-.748.913-1.281.913-.535 0-.959-.323-1.281-.913h2.562zM6.003 5.971c.068-.781.179-1.461.338-2.029H9.66c.158.568.269 1.248.337 2.029H6.003zm.722-3.044c.323-.582.744-.905 1.275-.905.531 0 .952.322 1.274.905H6.725zm3.132-.655a5.99 5.99 0 011.386.655h-1.057a5.482 5.482 0 00-.329-.655zm-4.042.655H4.759a6.004 6.004 0 011.385-.655c-.121.2-.228.421-.329.655zm-.353 1.015a13.141 13.141 0 00-.384 2.029H2.332a5.968 5.968 0 011.223-2.029h1.907zm-.385 6.086c.081.719.209 1.405.382 2.029H3.577a6.075 6.075 0 01-1.231-2.029h2.731zm.734 3.044c.098.231.203.449.32.646a6.013 6.013 0 01-1.35-.646h1.03zm4.379 0h1.031a6.02 6.02 0 01-1.351.646c.116-.197.222-.415.32-.646zm.351-1.015c.173-.624.301-1.31.382-2.029h2.73a6.065 6.065 0 01-1.231 2.029h-1.881zm.382-6.086a13.044 13.044 0 00-.385-2.029h1.908c.534.582.952 1.27 1.223 2.029h-2.746z"/></svg>