<svg xmlns="http://www.w3.org/2000/svg" viewBox="0 0 16 16"><path d="M15 8A7 7 0 1 1 1 8a7 7 0 0 1 14 0zM4.319 6.839V5.404l1.407-.443.868-1.161L8 4.245 9.406 3.8l.868 1.162 1.407.443V6.84L12.55 8l-.869 1.161v1.435l-1.407.443-.868 1.161L8 11.755l-1.406.445-.868-1.162-1.407-.443V9.16L3.45 8l.869-1.161zm5.957.348L7.675 9.599a.584.584 0 0 1-.418.151.584.584 0 0 1-.418-.151L5.724 8.565a.518.518 0 0 1 0-.775.622.622 0 0 1 .836 0l.697.646L9.44 6.412a.622.622 0 0 1 .836 0 .518.518 0 0 1 0 .775z" fill-rule="evenodd" clip-rule="evenodd"/></svg>