<svg viewBox="0 0 16 16" xmlns="http://www.w3.org/2000/svg"><g clip-path="url(#clip0)"><path d="M14.09 3.88L10.87 0.66C10.45 0.24 9.87 0 9.28 0H3.5C2.26 0 1.25 1.01 1.25 2.25V13.75C1.25 14.99 2.26 16 3.5 16H11.5C11.91 16 12.25 15.66 12.25 15.25C12.25 14.84 11.91 14.5 11.5 14.5H3.5C3.09 14.5 2.75 14.16 2.75 13.75V2.25C2.75 1.84 3.09 1.5 3.5 1.5H8.64V3.86C8.64 4.17 8.7 4.46 8.81 4.73C8.55 4.65 8.28 4.6 8 4.6C6.49 4.6 5.25 5.83 5.25 7.35C5.25 8.86 6.48 10.09 8 10.09C9.51 10.09 10.74 8.86 10.74 7.35C10.74 6.89 10.61 6.46 10.41 6.07C10.56 6.1 10.72 6.12 10.88 6.12H13.24V15.26C13.24 15.67 13.58 16.01 13.99 16.01C14.4 16.01 14.74 15.67 14.74 15.26V5.48C14.75 4.88 14.52 4.31 14.09 3.88ZM8 8.58C7.31 8.58 6.75 8.02 6.75 7.34C6.75 6.65 7.31 6.1 8 6.1C8.69 6.1 9.24 6.66 9.24 7.35C9.24 8.03 8.69 8.58 8 8.58ZM10.13 3.87V2.05L12.7 4.62H10.88C10.47 4.62 10.13 4.28 10.13 3.87Z"/><path d="M9.72 10.75H6.28C5.31 10.75 4.4 11.27 3.92 12.11L3.73 12.44C3.52 12.81 3.64 13.27 4 13.48C4.36 13.69 4.82 13.56 5.02 13.21L5.21 12.88C5.43 12.5 5.84 12.27 6.27 12.27H9.71C10.15 12.27 10.55 12.51 10.77 12.88L10.96 13.21C11.1 13.45 11.35 13.59 11.61 13.59C11.74 13.59 11.87 13.56 11.98 13.49C12.34 13.28 12.46 12.82 12.25 12.47L12.06 12.14C11.59 11.28 10.69 10.75 9.72 10.75Z"/></g><defs><clipPath><rect/></clipPath></defs></svg>