<svg viewBox="0 0 16 16" xmlns="http://www.w3.org/2000/svg"><g clip-path="url(#clip0_318_695)"><path d="M13.8426 2.91812L11.2189 0.585625C10.7945 0.210687 10.2215 0 9.62734 0H3.25C2.00723 0 1 0.895313 1 2L1.00023 14C1.00023 15.1044 2.00746 16 3.25023 16H12.25C13.4875 16 14.5 15.1 14.5 14V4.33125C14.5 3.80313 14.2645 3.29375 13.8426 2.91812ZM12.8125 14C12.8125 14.2761 12.5606 14.5 12.25 14.5H3.2507C2.93999 14.5 2.6882 14.2761 2.6882 14L2.6875 2.00406C2.6875 1.72794 2.93936 1.50406 3.25 1.50406H8.875V4C8.875 4.55219 9.37879 5 10 5H12.7809V14H12.8125ZM4.375 4H7.1875C7.49688 4 7.75 3.775 7.75 3.5C7.75 3.225 7.49688 3 7.1875 3H4.375C4.06422 3 3.8125 3.225 3.8125 3.5C3.8125 3.775 4.06422 4 4.375 4ZM4.375 6H7.1875C7.49688 6 7.75 5.775 7.75 5.5C7.75 5.225 7.49688 5 7.1875 5H4.375C4.06422 5 3.8125 5.225 3.8125 5.5C3.8125 5.775 4.06422 6 4.375 6ZM7.91172 11.3562L7.42375 10.0553C7.31055 9.74687 6.99062 9.54062 6.625 9.54062C6.25938 9.54062 5.93945 9.74766 5.8252 10.0562L5.18359 11.7625C5.13086 11.9031 4.9832 12 4.81094 12H4.375C4.06299 12 3.8125 12.2227 3.8125 12.5C3.8125 12.7773 4.06316 13 4.375 13H4.81023C5.46484 13 6.04527 12.6288 6.25164 12.0781L6.625 11.0813L7.21914 12.6562C7.28945 12.8516 7.48281 12.9844 7.71133 13H7.75C7.9293 13 8.15852 12.8945 8.25098 12.7227L8.52344 12.242C8.62187 12.0719 8.80117 12.05 8.875 12.05C8.94883 12.05 9.12988 12.0695 9.23078 12.2531C9.49023 12.7156 10.0141 13 10.5906 13H11.125C11.437 13 11.6875 12.7773 11.6875 12.5C11.6875 12.2227 11.4379 12 11.125 12H10.5889C10.4438 12 10.3032 11.9219 10.2331 11.7969C9.81719 11.05 8.60781 10.8469 7.91172 11.3562Z"/></g><defs><clipPath><rect transform="translate(1)"/></clipPath></defs></svg>