<svg viewBox="0 0 16 16" xmlns="http://www.w3.org/2000/svg"><path d="M8 0C3.58 0 0 3.58 0 8C0 12.42 3.58 16 8 16C12.42 16 16 12.42 16 8C16 3.58 12.42 0 8 0ZM5.5 13.33C5.04 13.33 4.67 12.96 4.67 12.5C4.67 12.04 5.04 11.67 5.5 11.67C5.96 11.67 6.33 12.04 6.33 12.5C6.33 12.96 5.96 13.33 5.5 13.33ZM10.5 13.33C10.04 13.33 9.67 12.96 9.67 12.5C9.67 12.04 10.04 11.67 10.5 11.67C10.96 11.67 11.33 12.04 11.33 12.5C11.33 12.96 10.96 13.33 10.5 13.33ZM11.98 10.2C11.89 10.66 11.47 11 11 11H4.75C4.47 11 4.25 10.78 4.25 10.5C4.25 10.22 4.47 10 4.75 10H11L12 5H4.49L5.24 8.75C5.3 9.02 5.12 9.28 4.85 9.33C4.82 9.34 4.78 9.34 4.75 9.34C4.52 9.34 4.31 9.18 4.26 8.94L3.27 4H2.5C2.22 4 2 3.78 2 3.5C2 3.22 2.22 3 2.5 3H3.27C3.75 3 4.16 3.34 4.25 3.8L4.29 4H12C12.3 4 12.58 4.13 12.77 4.37C12.96 4.6 13.04 4.9 12.98 5.2L11.98 10.2ZM10 7C10.27 7 10.5 7.22 10.5 7.5C10.5 7.78 10.28 8 10 8H8.75V9.25C8.75 9.53 8.53 9.75 8.25 9.75C7.97 9.75 7.75 9.53 7.75 9.25V8H6.5C6.22 8 6 7.78 6 7.5C6 7.22 6.22 7 6.5 7H7.75V5.75C7.75 5.47 7.97 5.25 8.25 5.25C8.53 5.25 8.75 5.47 8.75 5.75V7H10Z"/></svg>