<svg viewBox="0 0 32px 32px" version="1.1" xmlns="http://www.w3.org/2000/svg" xmlns:xlink="http://www.w3.org/1999/xlink">
    <title>Webchat Accepted</title>
    <g stroke="none" stroke-width="1" fill="none" fill-rule="evenodd">
        <g id="cjv-webchat-accepted">
            <circle id="Oval" fill="#FFFFFF" cx="20" cy="20" r="20"/>
            <g id="cjv-webchat-accept﻿" fill="#A1D318">
                <path d="M18.6373,24.5694 L25.5377,17.6771 C26.1541,17.0613 26.1541,16.0775 25.5377,15.4618 C24.9212,14.8461 23.9363,14.8461 23.3198,15.4618 L17.5284,21.2465 L15.6802,19.4004 C15.0637,18.7847 14.0788,18.7847 13.4623,19.4004 C12.8459,20.0162 12.8459,21 13.4623,21.6157 L16.4195,24.5694 C16.7277,24.8773 17.0973,25 17.5284,25 C17.9595,25 18.3291,24.8773 18.6373,24.5694 Z" id="Path" fill-rule="nonzero"/>
                <path d="M40,20 C40,31.0457 31.0457,40 20,40 C8.9543,40 0,31.0457 0,20 C0,8.9543 8.9543,0 20,0 C31.0457,0 40,8.9543 40,20 Z M32,19.75 C32,25.15 26.607,29.5 20.0155,29.5 C18.2927,29.5 16.57,29.2 14.997,28.6 C13.1244,30.1 10.8024,31 8.4055,31 C8.2557,31 8.1059,30.925 8.031,30.775 C7.9561,30.625 8.031,30.475 8.1059,30.4 C9.3044,29.125 10.1283,27.55 10.6526,25.9 C9.0048,24.25 8.031,22.075 8.031,19.75 C8.031,14.35 13.424,10 20.0155,10 C26.607,10 32,14.35 32,19.75 Z" id="Shape"/>
            </g>
        </g>
    </g>
</svg>