<svg viewBox="0 0 16 16" xmlns="http://www.w3.org/2000/svg"><g clip-path="url(#clip0_335_95)"><path d="M2.4 0C2.6875 0 2.935 0.255938 2.99 0.609688L3.0275 1H13.545C14.0525 1 14.4575 1.63281 14.315 2.27063L13.44 6.15313C13.1075 6.05313 12.7575 6 12.4 6C12.3425 6 12.285 6 12.2275 6.00313L13.015 2.5H3.2775L4.04 7.5H9.38C9.015 7.93125 8.71 8.40938 8.48 9H4.2675L4.4975 10.5H8.0725C8.0025 10.825 7.9775 11.1594 7.9775 11.5C7.9775 11.6688 8.005 11.8344 8.0175 12H3.9775C3.7125 12 3.465 11.7438 3.41 11.3906L1.9035 1.5H0.6C0.26875 1.5 0 1.16438 0 0.75C0 0.335938 0.26875 9.375e-06 0.6 9.375e-06L2.4 0ZM3.2 14.5C3.2 13.6719 3.7375 13 4.4 13C5.0625 13 5.6 13.6719 5.6 14.5C5.6 15.3281 5.0625 16 4.4 16C3.7375 16 3.2 15.3281 3.2 14.5ZM8.8 11.5C8.8 9.01563 10.4125 7 12.4 7C14.3875 7 16 9.01563 16 11.5C16 13.9844 14.3875 16 12.4 16C10.4125 16 8.8 13.9844 8.8 11.5ZM13.8825 10.3531C14.04 10.1594 14.04 9.84063 13.8825 9.64688C13.7275 9.45 13.4725 9.45 13.3175 9.64688L12.4 10.7937L11.4825 9.64688C11.3275 9.45 11.0725 9.45 10.9175 9.64688C10.76 9.84063 10.76 10.1594 10.9175 10.3531L11.835 11.5L10.9175 12.6469C10.76 12.8406 10.76 13.1594 10.9175 13.3531C11.0725 13.55 11.3275 13.55 11.4825 13.3531L12.4 12.2063L13.3175 13.3531C13.4725 13.55 13.7275 13.55 13.8825 13.3531C14.04 13.1594 14.04 12.8406 13.8825 12.6469L12.965 11.5L13.8825 10.3531Z"/></g><defs><clipPath><rect/></clipPath></defs></svg>