<svg xmlns="http://www.w3.org/2000/svg" viewBox="0 0 16 16"><path d="M8 15A7 7 0 108 1a7 7 0 000 14zM3.45 4.85c0-.193.152-.35.34-.35h1.019a.34.34 0 01.329.265l.105.435H11.5a.35.35 0 01.341.428l-.878 3.85a.35.35 0 01-.341.272H6.347l.085.35h3.64a.345.345 0 01.333.42.877.877 0 01.516.805c0 .483-.38.875-.849.875a.862.862 0 01-.849-.875c0-.197.063-.379.17-.525H7.015c.107.146.17.328.17.525 0 .483-.38.875-.849.875a.862.862 0 01-.849-.875.88.88 0 01.373-.724.368.368 0 01-.023-.066L4.543 5.2H3.79a.345.345 0 01-.34-.35zm4.854 1a.156.156 0 01.119-.055c.047 0 .09.018.12.057a.186.186 0 01.045.126v.09c.129.022.241.07.332.149a.984.984 0 01.249.325.337.337 0 01.039.179.214.214 0 01-.084.153.177.177 0 01-.177.032l-.001-.001h-.002a.25.25 0 01-.128-.124l-.001-.003a.542.542 0 00-.126-.177.311.311 0 00-.102-.061v.668a.81.81 0 01.441.249.787.787 0 01.194.553c0 .16-.033.301-.102.42a.74.74 0 01-.261.272.813.813 0 01-.271.109v.142a.191.191 0 01-.043.124.152.152 0 01-.123.059.154.154 0 01-.12-.057.193.193 0 01-.045-.126v-.134a1.04 1.04 0 01-.263-.068.906.906 0 01-.276-.179l-.002-.002a.756.756 0 01-.174-.279.245.245 0 01.003-.188l.001-.001a.215.215 0 01.147-.119.181.181 0 01.156.031c.045.03.077.074.097.127.02.052.063.102.137.147.053.03.111.052.177.065v-.754a.861.861 0 01-.458-.257.766.766 0 01-.194-.528c0-.143.031-.271.096-.381a.712.712 0 01.26-.257.89.89 0 01.292-.107v-.091a.187.187 0 01.048-.128zm-.184.76c-.049.046-.077.112-.077.207 0 .048.008.096.024.142a.31.31 0 00.087.121.39.39 0 00.103.057v-.605a.356.356 0 00-.137.078zm.467 1.071v.647a.385.385 0 00.115-.082.3.3 0 00.083-.226.4.4 0 00-.069-.228l-.001-.001a.32.32 0 00-.128-.11z" fill-rule="evenodd" clip-rule="evenodd"/></svg>