<svg viewBox="0 0 16 16" xmlns="http://www.w3.org/2000/svg"><g clip-path="url(#clip0_318_691)"><path d="M2.4 0C2.6875 0 2.935 0.255938 2.99 0.609688L3.0275 1H13.545C14.0525 1 14.4575 1.63281 14.315 2.27063L13.44 6.15312C13.1075 6.05312 12.7575 6 12.4 6C12.3425 6 12.285 6 12.2275 6.00313L13.015 2.5H3.2775L4.04 7.5H9.38C9.015 7.93125 8.71 8.40938 8.48 9H4.2675L4.4975 10.5H8.0725C8.0025 10.825 7.9775 11.1594 7.9775 11.5C7.9775 11.6688 8.005 11.8344 8.0175 12H3.9775C3.7125 12 3.465 11.7438 3.41 11.3906L1.9035 1.5H0.6C0.26875 1.5 0 1.16438 0 0.75C0 0.335938 0.26875 9.375e-06 0.6 9.375e-06L2.4 0ZM3.2 14.5C3.2 13.6719 3.7375 13 4.4 13C5.0625 13 5.6 13.6719 5.6 14.5C5.6 15.3281 5.0625 16 4.4 16C3.7375 16 3.2 15.3281 3.2 14.5ZM16 11.5C16 13.9844 14.3875 16 12.4 16C10.4125 16 8.8 13.9844 8.8 11.5C8.8 9.01562 10.4125 7 12.4 7C14.3875 7 16 9.01562 16 11.5ZM12 12.0437L11.2825 11.1469C11.1275 10.95 10.8725 10.95 10.7175 11.1469C10.56 11.3406 10.56 11.6594 10.7175 11.8531L11.7175 13.1031C11.8725 13.3 12.1275 13.3 12.2825 13.1031L14.0825 10.8531C14.24 10.6594 14.24 10.3406 14.0825 10.1469C13.9275 9.95 13.6725 9.95 13.5175 10.1469L12 12.0437Z"/></g><defs><clipPath><rect/></clipPath></defs></svg>