<svg xmlns="http://www.w3.org/2000/svg" viewBox="0 0 16 16"><path d="M9.162 6.412 7.135 8.436l-.647-.646a.546.546 0 0 0-.776 0 .544.544 0 0 0 0 .775l1.035 1.034a.519.519 0 0 0 .388.151c.151 0 .28-.043.388-.151l2.415-2.412a.544.544 0 0 0 0-.775.546.546 0 0 0-.776 0zM8 1a7 7 0 1 0 0 14A7 7 0 0 0 8 1zm.005 10.325a4.95 4.95 0 0 1-1.756-.315c-.655.525-1.468.84-2.307.84-.052 0-.105-.026-.131-.079s0-.105.026-.131c.42-.446.708-.997.891-1.575-.576-.577-.917-1.339-.917-2.153 0-1.89 1.888-3.412 4.195-3.412S12.2 6.022 12.2 7.912s-1.888 3.413-4.195 3.413z"/></svg>