<svg viewBox="0 0 40 40" fill="none" xmlns="http://www.w3.org/2000/svg">
  <path fill-rule="evenodd" clip-rule="evenodd" d="M40 20C40 31.0457 31.0457 40 20 40C8.9543 40 0 31.0457 0 20C0 8.9543 8.9543 0 20 0C31.0457 0 40 8.9543 40 20ZM30.3333 20.3333C30.3333 22.443 29.7077 24.5053 28.5357 26.2594C27.3636 28.0135 25.6977 29.3807 23.7486 30.188C21.7995 30.9954 19.6548 31.2066 17.5857 30.795C15.5166 30.3835 13.616 29.3676 12.1242 27.8758C10.6324 26.384 9.61653 24.4834 9.20496 22.4143C8.79338 20.3452 9.00462 18.2005 9.81195 16.2514C10.6193 14.3023 11.9865 12.6364 13.7406 11.4643C15.4947 10.2923 17.557 9.66667 19.6667 9.66667V20.3333H30.3333ZM26.4153 7.81195C25.1211 7.2759 23.7341 7 22.3333 7L22.3333 17.6667H33C33 16.2659 32.7241 14.8788 32.188 13.5847C31.652 12.2906 30.8663 11.1147 29.8758 10.1242C28.8853 9.1337 27.7094 8.348 26.4153 7.81195Z"/>
</svg>
