<svg xmlns="http://www.w3.org/2000/svg" viewBox="0 0 16 16"><path d="M13 13.279V4.847c0-.16-.033-.318-.096-.465a1.223 1.223 0 00-.271-.394l-2.185-2.13a1.268 1.268 0 00-.883-.358H4.252c-.332 0-.651.129-.885.358A1.203 1.203 0 003 2.721V13.28c0 .324.132.634.367.863.235.228.553.357.885.357h7.498c.332-.001.65-.129.884-.358.234-.229.366-.539.366-.863zm-3.333-8.53V2.818l1.982 1.932H9.667zm2.083 1.219v7.311l-7.498.002V2.721h4.165v2.638c0 .162.066.316.183.431a.633.633 0 00.442.178h2.708zm-3.867 2.64c0 .561-.456 1.015-1.018 1.015a1.017 1.017 0 01-1.018-1.015c0-.561.456-1.015 1.018-1.015s1.018.454 1.018 1.015zm.407 3.047H5.44c-.197 0-.356-.136-.356-.305v-.305c0-.505.479-.914 1.069-.914.071 0 .131.02.203.044.11.037.251.083.51.083.253 0 .398-.047.512-.084a.631.631 0 01.201-.043c.59 0 1.069.409 1.069.914v.305c-.001.168-.16.305-.358.305zm.826-.556h1.68c.065 0 .119-.07.119-.155v-.311c0-.086-.054-.155-.119-.155h-1.68c-.065 0-.119.07-.119.155v.311c0 .086.054.155.119.155zm1.646-1.244H8.61a.156.156 0 01-.154-.155v-.311c0-.086.07-.155.154-.155h2.152c.084 0 .154.07.154.155V9.7a.154.154 0 01-.154.155zM8.61 8.611h2.152c.084 0 .154-.07.154-.155v-.311a.155.155 0 00-.154-.155H8.61a.156.156 0 00-.154.155v.311c0 .086.07.155.154.155z" fill-rule="evenodd" clip-rule="evenodd"/></svg>