<svg viewBox="0 0 16 16" xmlns="http://www.w3.org/2000/svg"><path d="M14.09 3.88L10.87 0.66C10.45 0.24 9.87 0 9.28 0H3.5C2.26 0 1.25 1.01 1.25 2.25V13.75C1.25 14.99 2.26 16 3.5 16H11.5C11.91 16 12.25 15.66 12.25 15.25C12.25 14.84 11.91 14.5 11.5 14.5H3.5C3.09 14.5 2.75 14.16 2.75 13.75V2.25C2.75 1.84 3.09 1.5 3.5 1.5H8.64V3.86C8.64 5.1 9.65 6.11 10.89 6.11H13.25V15.25C13.25 15.66 13.59 16 14 16C14.41 16 14.75 15.66 14.75 15.25V5.48C14.75 4.88 14.52 4.31 14.09 3.88ZM10.13 3.87V2.05L12.7 4.62H10.88C10.47 4.62 10.13 4.28 10.13 3.87Z"/><path d="M5.74 13.52C5.99 13.52 6.2 13.32 6.2 13.06V12.57C7.12 12.43 7.75 11.82 7.83 10.98C7.9 10.45 7.77 9.5 6.23 9.09L5.54 8.91C4.96 8.76 4.96 8.5 4.96 8.39C4.96 8.04 5.34 7.84 5.7 7.84C6.05 7.84 6.28 7.96 6.43 8.22C6.6 8.54 6.87 8.66 7.19 8.57C7.33 8.53 7.45 8.43 7.51 8.29C7.58 8.13 7.59 7.96 7.53 7.8C7.29 7.19 6.85 6.83 6.21 6.71V6.3C6.21 6.05 6 5.85 5.75 5.85C5.5 5.84 5.3 6.05 5.3 6.3V6.71C4.39 6.87 3.74 7.57 3.74 8.41C3.74 9.23 4.24 9.78 5.23 10.05L5.92 10.22C6.66 10.39 6.63 10.77 6.63 10.88C6.58 11.24 6.27 11.45 5.8 11.45C5.39 11.45 5.13 11.29 4.95 10.92C4.82 10.59 4.51 10.45 4.18 10.54C4.04 10.58 3.91 10.68 3.84 10.81C3.76 10.97 3.74 11.15 3.79 11.32C4.01 11.95 4.58 12.41 5.3 12.55V13.05C5.3 13.31 5.5 13.52 5.74 13.52Z"/><path d="M11.5 11.25H9.32C8.91 11.25 8.57 11.59 8.57 12C8.57 12.41 8.91 12.75 9.32 12.75H11.5C11.91 12.75 12.25 12.41 12.25 12C12.25 11.59 11.91 11.25 11.5 11.25Z"/><path d="M11.5 8.5H9.32C8.91 8.5 8.57 8.84 8.57 9.25C8.57 9.66 8.9 10 9.32 10H11.5C11.91 10 12.25 9.66 12.25 9.25C12.25 8.84 11.91 8.5 11.5 8.5Z"/></svg>