<svg viewBox="0 0 40 40" xmlns="http://www.w3.org/2000/svg"><g fill="none" fill-rule="evenodd"><circle fill="#FFF" cx="20" cy="20" r="20"/><g fill="#444A52"><path d="M20 40c11.046 0 20-8.954 20-20S31.046 0 20 0 0 8.954 0 20s8.954 20 20 20zm9-23.437h-7.414c-.345 0-.676-.134-.921-.373a1.274 1.274 0 01-.386-.904V8h-7.972c-.347 0-.68.135-.924.376a1.275 1.275 0 00-.383.909v21.43c0 .341.138.668.383.909.245.24.577.376.924.376h15.386c.347 0 .68-.135.924-.376.245-.241.383-.568.383-.909V16.563zM22.513 8.92a2.8 2.8 0 00-.491-.39v6.322h6.431a2.734 2.734 0 00-.396-.483l-5.544-5.45z"/><path d="M19 19a1 1 0 112 0v9a1 1 0 11-2 0v-9z" fill-rule="nonzero"/><path d="M19.293 18.293a1 1 0 011.414 0l3 3a1 1 0 01-1.414 1.414L20 20.414l-2.293 2.293a1 1 0 01-1.414-1.414l3-3z"/></g></g></svg>