<svg xmlns="http://www.w3.org/2000/svg" viewBox="0 0 27 27">
  <title>Product Purchased</title>
  <circle cx="13.5" cy="13.5" r="13" fill="#a1d318" stroke="#a1d318" stroke-miterlimit="10"/>
  <path d="M5.61,8.32h2.5a.82.82,0,0,1,.8.69l1.4,8.47a.81.81,0,0,0,.8.68H18" transform="translate(-0.5 -0.5)" fill="none" stroke="#fdfdfd" stroke-linecap="round" stroke-miterlimit="10" stroke-width="0.75"/>
  <path d="M11.18,18.14H18.7a.9.9,0,0,0,.8-.79l1.19-5.71c.15-.7-.25-1.38-.79-1.38l-10.42,0,.94,7.16Z" transform="translate(-0.5 -0.5)" fill="#fdfdfd" stroke="#fdfdfd" stroke-miterlimit="10" stroke-width="0.75"/>
  <circle cx="10.81" cy="20.06" r="1.35" fill="#fdfdfd"/>
  <circle cx="16.46" cy="20.06" r="1.35" fill="#fdfdfd"/>
  <polyline points="12.6 13.79 14.14 15.29 16.6 12.29" fill="none" stroke="#a1d318" stroke-linecap="round" stroke-miterlimit="10" stroke-width="0.75"/>
</svg>