<svg viewBox="0 0 16 16" xmlns="http://www.w3.org/2000/svg"><path d="M16 8C16 12.4187 12.4187 16 8 16C3.58125 16 0 12.4187 0 8C0 6.33438 0.509063 4.7875 1.37969 3.50625C1.6125 3.16562 2.07906 3.07594 2.42156 3.30938C2.76406 3.54063 2.85312 4.00937 2.62031 4.35C1.91312 5.39062 1.47187 6.64688 1.47187 8C1.47187 11.5906 4.40938 14.5 7.97188 14.5C11.5906 14.5 14.5 11.5906 14.5 8C14.5 4.6625 11.9875 1.91469 8.75 1.54281V3.25C8.75 3.66563 8.41563 4 7.97188 4C7.58438 4 7.22188 3.66563 7.22188 3.25V0.75C7.22188 0.335938 7.58438 0 7.97188 0C12.4188 0 16 3.58125 16 8ZM8.50313 7.46875C8.82188 7.7625 8.82188 8.2375 8.50313 8.50313C8.2375 8.82188 7.7625 8.82188 7.46875 8.50313L4.96875 6.00313C4.67812 5.7375 4.67812 5.2625 4.96875 4.96875C5.2625 4.67812 5.7375 4.67812 6.00313 4.96875L8.50313 7.46875Z"/></svg>