<svg viewBox="0 0 16 16" xmlns="http://www.w3.org/2000/svg"><path d="M8.29 5.04V5.37C8.76 5.45 9.09 5.71 9.26 6.15C9.3 6.25 9.3 6.37 9.25 6.47C9.2 6.56 9.13 6.63 9.03 6.65C8.82 6.72 8.64 6.63 8.53 6.42C8.38 6.15 8.14 6.12 7.96 6.12C7.68 6.12 7.38 6.29 7.38 6.57C7.38 6.7 7.43 6.89 7.84 6.99L8.35 7.13C9.16 7.35 9.56 7.82 9.49 8.47C9.43 9.08 8.96 9.52 8.29 9.6V10H11L12 5H8.28C8.28 5.02 8.29 5.03 8.29 5.04Z"/><path d="M8 0C3.58 0 0 3.58 0 8C0 12.42 3.58 16 8 16C12.42 16 16 12.42 16 8C16 3.58 12.42 0 8 0ZM5.5 13.33C5.04 13.33 4.67 12.96 4.67 12.5C4.67 12.04 5.04 11.67 5.5 11.67C5.96 11.67 6.33 12.04 6.33 12.5C6.33 12.96 5.96 13.33 5.5 13.33ZM10.5 13.33C10.04 13.33 9.67 12.96 9.67 12.5C9.67 12.04 10.04 11.67 10.5 11.67C10.96 11.67 11.33 12.04 11.33 12.5C11.33 12.96 10.96 13.33 10.5 13.33ZM11.98 10.2C11.89 10.66 11.47 11 11 11H4.75C4.47 11 4.25 10.77 4.25 10.49C4.25 10.21 4.47 9.99 4.75 9.99H7.71V9.58C7.19 9.49 6.77 9.16 6.61 8.7C6.57 8.59 6.58 8.47 6.64 8.37C6.69 8.28 6.77 8.21 6.86 8.19C7.09 8.13 7.28 8.22 7.37 8.44C7.51 8.73 7.71 8.86 8.03 8.86C8.47 8.86 8.65 8.62 8.68 8.4C8.69 8.31 8.71 8.01 8.13 7.88L7.63 7.75C6.93 7.56 6.57 7.17 6.57 6.59C6.57 5.98 7.04 5.48 7.71 5.38V5.04C7.71 5.02 7.72 5.01 7.72 5H4.49L5.24 8.75C5.3 9.02 5.12 9.28 4.85 9.33C4.82 9.34 4.78 9.34 4.75 9.34C4.52 9.34 4.31 9.18 4.26 8.94L3.27 4H2.5C2.22 4 2 3.78 2 3.5C2 3.22 2.22 3 2.5 3H3.27C3.75 3 4.16 3.34 4.25 3.8L4.29 4H12C12.3 4 12.58 4.13 12.77 4.37C12.96 4.6 13.04 4.9 12.98 5.2L11.98 10.2Z"/></svg>