<svg viewBox="0 0 16 16" xmlns="http://www.w3.org/2000/svg"><g clip-path="url(#clip0_9498_291770)"><path d="M3.53056 0C3.925 0 4.19722 0.335938 4.19722 0.75V2H8.22222V0.75C8.22222 0.335938 8.51944 0 8.88889 0C9.25833 0 9.55556 0.335938 9.55556 0.75V2H10.6667C11.6472 2 12.4444 2.89531 12.4444 4V6H1.30833V14C1.30833 14.275 1.53222 14.5 1.75278 14.5H7.90278C8.24167 15.0875 8.68056 15.5969 9.18889 16H1.77778C0.795833 16 0 15.1031 0 14V4C0 2.89531 0.795833 2 1.77778 2H2.88889V0.75C2.88889 0.335938 3.18611 0 3.55556 0H3.53056ZM16 11.5C16 13.9844 14.2083 16 12 16C9.79167 16 7.975 13.9844 7.975 11.5C7.975 9.01562 9.79167 7 12 7C14.2083 7 16 9.01562 16 11.5ZM11.5306 9.5V11.5C11.5306 11.775 11.7556 12 11.975 12H13.3333C13.5778 12 13.7778 11.775 13.7778 11.5C13.7778 11.225 13.5778 11 13.3333 11H12.4194V9.5C12.4194 9.225 12.2444 9 11.975 9C11.7556 9 11.5306 9.225 11.5306 9.5Z"/></g><defs><clipPath><rect/></clipPath></defs></svg>