<svg viewBox="0 0 16 16" xmlns="http://www.w3.org/2000/svg"><path d="M0 2.00009C0 0.896914 0.896875 0 2 0H14C15.1031 0 16 0.896914 16 2.00009V11.0005C16 12.1036 15.1031 13.0006 14 13.0006H9.66562L5.8 15.9007C5.65 16.0132 5.44688 16.0319 5.275 15.9476C5.10313 15.8632 5 15.6913 5 15.5007V13.0006H2C0.896875 13.0006 0 12.1036 0 11.0005V2.00009ZM6.25 4.00017C5.83437 4.00017 5.5 4.33456 5.5 4.7502C5.5 5.16585 5.83437 5.50024 6.25 5.50024H7.94063L5.22188 8.2191C4.92813 8.51287 4.92813 8.98789 5.22188 9.27853C5.51563 9.56916 5.99062 9.57229 6.28125 9.27853L9 6.55966V8.25036C9 8.666 9.33437 9.00039 9.75 9.00039C10.1656 9.00039 10.5 8.666 10.5 8.25036V4.7502C10.5 4.33456 10.1656 4.00017 9.75 4.00017H6.25Z"/></svg>