<svg viewBox="0 0 16 16" xmlns="http://www.w3.org/2000/svg"><path d="M8 0C3.58 0 0 3.58 0 8C0 12.42 3.58 16 8 16C12.42 16 16 12.42 16 8C16 3.58 12.42 0 8 0ZM10.33 12H9.62L7.76 13.85C7.67 13.95 7.54 14 7.41 14C7.28 14 7.16 13.95 7.06 13.86C6.86 13.66 6.86 13.35 7.06 13.15L9.06 11.15C9.15 11.05 9.28 11 9.41 11H10.34C11.72 11 12.84 9.88 12.84 8.5V5.5C12.84 4.12 11.72 3 10.34 3H5.67C4.29 3 3.17 4.12 3.17 5.5V8.5C3.17 9.88 4.29 11 5.67 11H6.86C7.13 11 7.36 11.22 7.36 11.5C7.36 11.78 7.14 12 6.86 12H5.67C3.74 12 2.17 10.43 2.17 8.5V5.5C2.17 3.57 3.74 2 5.67 2H10.33C12.26 2 13.83 3.57 13.83 5.5V8.5C13.83 10.43 12.26 12 10.33 12ZM6.35 6.85C6.15 7.05 5.84 7.05 5.64 6.85C5.44 6.65 5.44 6.34 5.64 6.14L7.64 4.14C7.84 3.94 8.15 3.94 8.35 4.14L10.35 6.14C10.55 6.34 10.55 6.65 10.35 6.85C10.26 6.95 10.13 7 10 7C9.87 7 9.74 6.95 9.65 6.86L8.5 5.71V9.5C8.5 9.78 8.28 10 8 10C7.72 10 7.5 9.78 7.5 9.5V5.71L6.35 6.85Z"/></svg>