<svg xmlns="http://www.w3.org/2000/svg" viewBox="0 0 16 16"><path d="M8 15A7 7 0 108 1a7 7 0 000 14zM3.45 4.85c0-.193.152-.35.34-.35h1.019a.34.34 0 01.329.265l.105.435H11.5a.35.35 0 01.341.428l-.878 3.85a.35.35 0 01-.341.272H6.347l.085.35h3.64a.345.345 0 01.333.42.877.877 0 01.516.805c0 .483-.38.875-.849.875a.862.862 0 01-.849-.875c0-.197.063-.379.17-.525H7.015c.107.146.17.328.17.525 0 .483-.38.875-.849.875a.862.862 0 01-.849-.875.88.88 0 01.373-.724.368.368 0 01-.023-.066L4.543 5.2H3.79a.345.345 0 01-.34-.35zM6.846 7.3c0-.097.078-.175.175-.175h1.013v-1.05c0-.097.078-.175.175-.175h.329c.097 0 .175.078.175.175v1.05h1.013c.097 0 .175.078.175.175v.35a.175.175 0 01-.175.175H8.713v1.05a.175.175 0 01-.175.175h-.329a.175.175 0 01-.175-.175v-1.05H7.021a.175.175 0 01-.175-.175V7.3z" fill-rule="evenodd" clip-rule="evenodd"/></svg>