<svg viewBox="0 0 40 40" xmlns="http://www.w3.org/2000/svg"><g fill="none" fill-rule="evenodd"><circle fill="#FFF" cx="20" cy="20" r="20"/><path d="M20 40c11.046 0 20-8.954 20-20S31.046 0 20 0 0 8.954 0 20s8.954 20 20 20zm6.511-17.204l5.3 5.368v-.001c.25.25.25.65 0 .906l-2.706 2.737a.635.635 0 01-.456.194.66.66 0 01-.456-.194l-5.275-5.349a9.751 9.751 0 01-5.006 1.4C12.45 27.857 8 23.402 8 17.929 8 12.454 12.45 8 17.912 8c5.462 0 9.912 4.455 9.912 9.928 0 1.688-.45 3.363-1.313 4.868zM23.96 17.93c0-3.344-2.712-6.062-6.05-6.062v-.001c-3.338 0-6.05 2.718-6.05 6.061 0 3.344 2.712 6.062 6.05 6.062 3.338 0 6.05-2.717 6.05-6.06z" fill="#444A52"/></g></svg>