<svg viewBox="0 0 16 16" xmlns="http://www.w3.org/2000/svg"><path d="M12.6 6.5C12.5 6.16 12.51 5.8 12.53 5.48C12.55 5.2 12.56 4.89 12.47 4.76C12.37 4.63 12.06 4.54 11.79 4.47C11.47 4.38 11.13 4.29 10.85 4.09C10.57 3.89 10.38 3.6 10.2 3.32C10.04 3.07 9.87 2.81 9.71 2.76C9.56 2.71 9.27 2.82 9.01 2.92C8.7 3.04 8.36 3.17 8 3.17C7.64 3.17 7.3 3.04 7 2.92C6.78 2.84 6.54 2.75 6.38 2.75C6.35 2.75 6.32 2.75 6.3 2.76C6.14 2.82 5.97 3.07 5.82 3.32C5.63 3.6 5.45 3.89 5.17 4.09C4.88 4.3 4.55 4.39 4.23 4.48C3.95 4.56 3.64 4.64 3.55 4.77C3.46 4.89 3.48 5.21 3.49 5.49C3.51 5.81 3.53 6.18 3.42 6.51C3.31 6.83 3.1 7.1 2.89 7.35C2.7 7.58 2.5 7.83 2.5 8C2.5 8.17 2.7 8.41 2.88 8.65C3.09 8.9 3.31 9.17 3.41 9.49C3.51 9.83 3.5 10.19 3.48 10.51C3.46 10.79 3.45 11.1 3.54 11.23C3.64 11.36 3.95 11.45 4.22 11.52C4.54 11.61 4.88 11.69 5.16 11.9C5.44 12.1 5.63 12.39 5.81 12.67C5.97 12.91 6.14 13.18 6.3 13.23C6.44 13.28 6.73 13.17 6.99 13.07C7.3 12.95 7.64 12.82 8 12.82C8.36 12.82 8.7 12.95 9 13.07C9.25 13.16 9.55 13.28 9.69 13.23C9.85 13.18 10.02 12.91 10.18 12.67C10.36 12.39 10.55 12.1 10.83 11.9C11.11 11.7 11.45 11.61 11.77 11.52C12.05 11.44 12.36 11.36 12.45 11.23C12.54 11.11 12.52 10.79 12.51 10.51C12.49 10.19 12.47 9.82 12.58 9.49C12.69 9.17 12.9 8.9 13.11 8.65C13.3 8.41 13.5 8.17 13.5 8C13.5 7.82 13.3 7.58 13.13 7.34C12.92 7.08 12.71 6.82 12.6 6.5ZM10.6 9.9C10.8 10.1 10.8 10.41 10.6 10.61C10.51 10.71 10.37 10.76 10.25 10.76C10.13 10.76 10 10.71 9.9 10.61L8 8.71L6.1 10.6C6.01 10.7 5.87 10.76 5.75 10.76C5.63 10.76 5.5 10.71 5.4 10.61C5.2 10.41 5.2 10.1 5.4 9.9L7.29 8L5.39 6.11C5.19 5.91 5.19 5.6 5.39 5.4C5.59 5.2 5.9 5.2 6.1 5.4L8 7.29L9.89 5.4C10.09 5.2 10.4 5.2 10.6 5.4C10.8 5.59 10.8 5.91 10.61 6.1L8.71 8L10.6 9.9Z"/><path d="M8 0C3.58 0 0 3.58 0 8C0 12.42 3.58 16 8 16C12.42 16 16 12.42 16 8C16 3.58 12.42 0 8 0ZM13.55 9.81C13.49 9.97 13.51 10.22 13.52 10.47C13.54 10.91 13.57 11.42 13.27 11.83C12.96 12.24 12.47 12.37 12.04 12.49C11.8 12.55 11.56 12.61 11.43 12.71C11.3 12.8 11.16 13.01 11.03 13.21C10.78 13.59 10.51 14.02 10.01 14.18C9.53 14.34 9.06 14.16 8.65 14C8.42 13.91 8.18 13.81 8 13.81C7.82 13.81 7.58 13.9 7.35 13.99C7.05 14.1 6.72 14.23 6.38 14.23C6.25 14.23 6.12 14.21 5.99 14.17C5.49 14.01 5.22 13.58 4.97 13.2C4.84 13 4.71 12.79 4.58 12.7C4.45 12.61 4.21 12.54 3.97 12.48C3.53 12.37 3.04 12.24 2.74 11.82C2.44 11.41 2.47 10.91 2.49 10.46C2.5 10.21 2.51 9.96 2.46 9.8C2.41 9.65 2.26 9.46 2.11 9.28C1.83 8.93 1.5 8.53 1.5 8C1.5 7.47 1.82 7.07 2.11 6.72C2.26 6.53 2.41 6.34 2.46 6.2C2.51 6.04 2.5 5.78 2.49 5.53C2.47 5.09 2.44 4.58 2.74 4.17C3.04 3.76 3.53 3.63 3.97 3.51C4.2 3.45 4.45 3.38 4.57 3.28C4.7 3.19 4.84 2.98 4.97 2.78C5.22 2.4 5.49 1.97 5.99 1.81C6.47 1.66 6.94 1.84 7.35 1.99C7.58 2.08 7.83 2.17 8 2.17C8.17 2.17 8.42 2.08 8.65 1.99C9.06 1.84 9.53 1.66 10.01 1.82C10.51 1.98 10.78 2.41 11.03 2.79C11.16 2.99 11.29 3.2 11.42 3.29C11.55 3.38 11.8 3.45 12.03 3.51C12.47 3.63 12.96 3.76 13.26 4.18C13.56 4.59 13.53 5.09 13.51 5.54C13.5 5.79 13.49 6.04 13.54 6.2C13.59 6.35 13.74 6.54 13.89 6.72C14.18 7.07 14.5 7.47 14.5 8C14.5 8.53 14.18 8.93 13.9 9.29C13.75 9.47 13.6 9.66 13.55 9.81Z"/></svg>