<svg viewBox="0 0 16 16" xmlns="http://www.w3.org/2000/svg"><path d="M8 0C3.58 0 0 3.58 0 8C0 12.42 3.58 16 8 16C12.42 16 16 12.42 16 8C16 3.58 12.42 0 8 0ZM10.33 12H9.62L7.76 13.85C7.67 13.95 7.54 14 7.41 14C7.28 14 7.16 13.95 7.06 13.86C6.86 13.66 6.86 13.35 7.06 13.15L9.06 11.15C9.15 11.05 9.28 11 9.41 11H10.34C11.72 11 12.84 9.88 12.84 8.5V5.5C12.84 4.12 11.72 3 10.34 3H5.67C4.29 3 3.17 4.12 3.17 5.5V8.5C3.17 9.88 4.29 11 5.67 11H6.86C7.13 11 7.36 11.22 7.36 11.5C7.36 11.78 7.14 12 6.86 12H5.67C3.74 12 2.17 10.43 2.17 8.5V5.5C2.17 3.57 3.74 2 5.67 2H10.33C12.26 2 13.83 3.57 13.83 5.5V8.5C13.83 10.43 12.26 12 10.33 12ZM5.89 5.61C5.69 5.41 5.69 5.1 5.89 4.9C6.09 4.7 6.4 4.7 6.6 4.9L8 6.29L9.4 4.89C9.6 4.69 9.91 4.69 10.11 4.89C10.31 5.09 10.31 5.4 10.11 5.6L8.71 7L10.1 8.39C10.3 8.59 10.3 8.9 10.1 9.1C10.01 9.2 9.87 9.26 9.75 9.26C9.63 9.26 9.5 9.21 9.4 9.11L8 7.71L6.6 9.1C6.51 9.2 6.38 9.25 6.25 9.25C6.12 9.25 6 9.2 5.9 9.1C5.7 8.91 5.7 8.59 5.9 8.4L7.29 7L5.89 5.61Z"/></svg>