<svg xmlns="http://www.w3.org/2000/svg" viewBox="0 0 16 16"><path d="M14.062 4.484a6.943 6.943 0 0 0-2.548-2.548C10.439 1.309 9.271 1 8 1s-2.442.312-3.516.938a7.013 7.013 0 0 0-2.549 2.548C1.312 5.558 1 6.729 1 8s.312 2.442.938 3.517c.626 1.075 1.474 1.922 2.548 2.548S6.729 15 8 15s2.442-.315 3.517-.938a6.943 6.943 0 0 0 2.548-2.548C14.688 10.442 15 9.271 15 8s-.315-2.442-.938-3.516zM12.87 8.279c0 .035.003.044-.024.055-.017.003-.044 0-.057 0H8v-5.24c0-.008-.003-.035 0-.044.017-.027.099-.01.129-.01a4.957 4.957 0 0 1 1.939.446 5.042 5.042 0 0 1 1.692 1.275c.186.219.353.451.497.7.147.257.257.522.342.801.178.574.273 1.179.273 1.78 0 .084 0 .161-.002.237z"/></svg>