<svg viewBox="0 0 16 16" xmlns="http://www.w3.org/2000/svg"><g clip-path="url(#clip0)"><path d="M12.18 1.38H11.62C11.34 0.58 10.58 0 9.68 0H6.32C5.42 0 4.67 0.58 4.38 1.38H3.82C2.68 1.38 1.75 2.31 1.75 3.45V13.94C1.75 15.08 2.68 16.01 3.82 16.01H9.68C10.09 16.01 10.43 15.67 10.43 15.26C10.43 14.85 10.09 14.51 9.68 14.51H3.82C3.51 14.51 3.25 14.26 3.25 13.94V3.44C3.25 3.13 3.5 2.87 3.82 2.87H4.25V3.5C4.25 3.91 4.59 4.25 5 4.25H11C11.41 4.25 11.75 3.91 11.75 3.5V2.88H12.18C12.49 2.88 12.75 3.13 12.75 3.45V13.94C12.75 14.25 12.5 14.51 12.18 14.51C11.77 14.51 11.43 14.85 11.43 15.26C11.43 15.67 11.77 16 12.18 16C13.32 16 14.25 15.07 14.25 13.93V3.44C14.25 2.3 13.32 1.38 12.18 1.38ZM10.25 2.75H5.75V2.07C5.75 1.76 6 1.5 6.32 1.5H9.68C9.99 1.5 10.25 1.75 10.25 2.07V2.75Z"/></g><defs><clipPath><rect/></clipPath></defs></svg>