<svg viewBox="0 0 16 16" xmlns="http://www.w3.org/2000/svg"><path fill-rule="evenodd" clip-rule="evenodd" d="M11.62 1.37914H12.18C13.32 1.37914 14.25 2.29856 14.25 3.43785V13.9213C14.25 15.0606 13.32 15.99 12.18 15.99C11.77 15.99 11.43 15.6602 11.43 15.2505C11.43 14.8407 11.77 14.5009 12.18 14.5009C12.5 14.5009 12.75 14.2411 12.75 13.9313V3.44785C12.75 3.12805 12.49 2.8782 12.18 2.8782H11.75V3.49781C11.75 3.90756 11.41 4.24735 11 4.24735H5C4.59 4.24735 4.25 3.90756 4.25 3.49781V2.86821H3.82C3.5 2.86821 3.25 3.12805 3.25 3.43785V13.9313C3.25 14.2511 3.51 14.5009 3.82 14.5009H9.68C10.09 14.5009 10.43 14.8407 10.43 15.2505C10.43 15.6602 10.09 16 9.68 16H3.82C2.68 16 1.75 15.0706 1.75 13.9313V3.44785C1.75 2.30856 2.68 1.37914 3.82 1.37914H4.38C4.67 0.579638 5.42 0 6.32 0H9.68C10.58 0 11.34 0.579638 11.62 1.37914ZM5.75 2.74828H10.25V2.06871C10.25 1.74891 9.99 1.49906 9.68 1.49906H6.32C6 1.49906 5.75 1.7589 5.75 2.06871V2.74828Z"/><path d="M6.94641 9.47416L5.2635 7.79229C4.97358 7.50256 4.96651 7.02909 5.25643 6.73936C5.54634 6.44963 6.02717 6.44963 6.31709 6.73936L7.99293 8.41416L9.67584 6.7323C9.97283 6.4355 10.4537 6.44963 10.7436 6.73936C11.0335 7.02909 11.0335 7.50963 10.7436 7.79936L9.06773 9.47416L10.7506 11.156C11.0406 11.4458 11.0406 11.9263 10.7506 12.216C10.4607 12.5057 9.9799 12.5057 9.68999 12.216L8.00707 10.5342L6.32416 12.216C6.03424 12.5057 5.55341 12.5057 5.2635 12.216C4.97358 11.9263 4.97358 11.4458 5.2635 11.156L6.94641 9.47416Z"/></svg>