<svg viewBox="0 0 16 16" xmlns="http://www.w3.org/2000/svg"><path d="M12.4167 2H10.8018C10.5319 0.85875 9.50977 0 8.25 0C6.99023 0 5.9388 0.85875 5.69792 2H4.08333C2.93262 2 2 2.89562 2 4V14C2 15.1044 2.93262 16 4.08333 16H12.4167C13.5674 16 14.5 15.1044 14.5 14V4C14.5 2.89562 13.5658 2 12.4167 2ZM8.25 1.5C8.68066 1.5 9.03125 1.83656 9.03125 2.25C9.03125 2.66344 8.67969 3 8.25 3C7.82031 3 7.46875 2.66344 7.46875 2.25C7.46875 1.83656 7.82031 1.5 8.25 1.5ZM12.9375 14C12.9375 14.2756 12.7038 14.5 12.4167 14.5H4.08333C3.79616 14.5 3.5625 14.2756 3.5625 14V4C3.5625 3.72437 3.79616 3.5 4.08333 3.5H4.67773C4.63444 3.65937 4.60417 3.825 4.60417 4V4.5C4.60417 4.775 4.83724 5 5.125 5H11.375C11.6626 5 11.8958 4.77612 11.8958 4.5V4C11.8958 3.82628 11.8655 3.66062 11.8221 3.5H12.4167C12.7038 3.5 12.9375 3.72437 12.9375 4V14Z"/></svg>