<svg viewBox="0 0 16 16" xmlns="http://www.w3.org/2000/svg"><path d="M5.19401 7.16563C5.45443 6.46563 6.14128 6 6.91276 6H8.81055C9.94336 6 10.8646 6.88438 10.8646 7.97188C10.8646 8.68125 10.4707 9.33437 9.83268 9.68437L8.75195 10.2625C8.77474 10.6719 8.42643 11 8 11C7.56706 11 7.21875 10.6656 7.21875 10.25V9.82812C7.21875 9.55937 7.36849 9.3125 7.61263 9.17813L9.05469 8.38437C9.20768 8.3 9.30208 8.14375 9.30208 7.97188C9.30208 7.7125 9.08073 7.47188 8.81055 7.47188H6.91276C6.80208 7.47188 6.70443 7.56563 6.66862 7.66563L6.65234 7.70625C6.50911 8.09688 6.06315 8.3 5.62695 8.1625C5.24935 8.02188 5.03451 7.59375 5.18099 7.20312L5.19401 7.16563ZM9.04167 13C9.04167 13.5531 8.57617 14 8 14C7.42383 14 6.95833 13.5531 6.95833 13C6.95833 12.4469 7.42383 12 8 12C8.57617 12 9.04167 12.4469 9.04167 13ZM14.25 4V14C14.25 15.1031 13.3158 16 12.1667 16H3.83333C2.68262 16 1.75 15.1031 1.75 14V4C1.75 2.89531 2.68262 2 3.83333 2H5.44792C5.6888 0.85875 6.74023 0 8 0C9.25977 0 10.2819 0.85875 10.5521 2H12.1667C13.3158 2 14.25 2.89531 14.25 4ZM4.35417 3.5H3.83333C3.54557 3.5 3.3125 3.725 3.3125 4V14C3.3125 14.275 3.54557 14.5 3.83333 14.5H12.1667C12.4531 14.5 12.6875 14.275 12.6875 14V4C12.6875 3.725 12.4531 3.5 12.1667 3.5H11.6458V4.25C11.6458 4.66563 11.2975 5 10.8646 5H5.13542C4.7041 5 4.35417 4.66563 4.35417 4.25V3.5ZM8 1.75C7.56706 1.75 7.21875 2.08594 7.21875 2.5C7.21875 2.91406 7.56706 3.25 8 3.25C8.43294 3.25 8.78125 2.91406 8.78125 2.5C8.78125 2.08594 8.43294 1.75 8 1.75Z"/></svg>