<svg viewBox="0 0 16 16" xmlns="http://www.w3.org/2000/svg"><path fill-rule="evenodd" clip-rule="evenodd" d="M12.18 1.37914H11.62C11.34 0.579638 10.58 0 9.68 0H6.32C5.42 0 4.67 0.579638 4.38 1.37914H3.82C2.68 1.37914 1.75 2.30856 1.75 3.44785V13.9313C1.75 15.0706 2.68 16 3.82 16H9.68C10.09 16 10.43 15.6602 10.43 15.2505C10.43 14.8407 10.09 14.5009 9.68 14.5009H3.82C3.51 14.5009 3.25 14.2511 3.25 13.9313V3.43785C3.25 3.12805 3.5 2.86821 3.82 2.86821H4.25V3.49781C4.25 3.90756 4.59 4.24735 5 4.24735H11C11.41 4.24735 11.75 3.90756 11.75 3.49781V2.8782H12.18C12.49 2.8782 12.75 3.12805 12.75 3.44785V13.9313C12.75 14.2411 12.5 14.5009 12.18 14.5009C11.77 14.5009 11.43 14.8407 11.43 15.2505C11.43 15.6602 11.77 15.99 12.18 15.99C13.32 15.99 14.25 15.0606 14.25 13.9213V3.43785C14.25 2.29856 13.32 1.37914 12.18 1.37914ZM10.25 2.74828H5.75V2.06871C5.75 1.7589 6 1.49906 6.32 1.49906H9.68C9.99 1.49906 10.25 1.74891 10.25 2.06871V2.74828Z"/><path d="M11.0303 8.03033C11.3232 7.73744 11.3232 7.26256 11.0303 6.96967C10.7374 6.67678 10.2626 6.67678 9.96967 6.96967L7 9.93934L6.03033 8.96967C5.73744 8.67678 5.26256 8.67678 4.96967 8.96967C4.67678 9.26256 4.67678 9.73744 4.96967 10.0303L6.46967 11.5303C6.76256 11.8232 7.23744 11.8232 7.53033 11.5303L11.0303 8.03033Z"/></svg>