<svg viewBox="0 0 16 16" xmlns="http://www.w3.org/2000/svg"><path d="M12.1667 2H10.5518C10.2819 0.85875 9.25977 0 8 0C6.74023 0 5.6888 0.85875 5.44792 2H3.83333C2.68262 2 1.75 2.89562 1.75 4V14C1.75 15.1044 2.68262 16 3.83333 16H12.1667C13.3174 16 14.25 15.1044 14.25 14V4C14.25 2.89562 13.3158 2 12.1667 2ZM8 1.5C8.43066 1.5 8.78125 1.83656 8.78125 2.25C8.78125 2.66344 8.42969 3 8 3C7.57031 3 7.21875 2.66344 7.21875 2.25C7.21875 1.83656 7.57031 1.5 8 1.5ZM12.6875 14C12.6875 14.2756 12.4538 14.5 12.1667 14.5H3.83333C3.54616 14.5 3.3125 14.2756 3.3125 14V4C3.3125 3.72437 3.54616 3.5 3.83333 3.5H4.42773C4.38444 3.65937 4.35417 3.825 4.35417 4V4.5C4.35417 4.775 4.58724 5 4.875 5H11.125C11.4126 5 11.6458 4.77612 11.6458 4.5V4C11.6458 3.82628 11.6155 3.66062 11.5721 3.5H12.1667C12.4538 3.5 12.6875 3.72437 12.6875 4V14Z"/></svg>