<svg viewBox="0 0 16 16" xmlns="http://www.w3.org/2000/svg"><path d="M5.44401 7.16563C5.70443 6.46563 6.39128 6 7.16276 6H9.06055C10.1934 6 11.1146 6.88438 11.1146 7.97188C11.1146 8.68125 10.7207 9.33437 10.0827 9.68437L9.00195 10.2625C9.02474 10.6719 8.67643 11 8.25 11C7.81706 11 7.46875 10.6656 7.46875 10.25V9.82812C7.46875 9.55937 7.61849 9.3125 7.86263 9.17813L9.30469 8.38437C9.45768 8.3 9.55208 8.14375 9.55208 7.97188C9.55208 7.7125 9.33073 7.47188 9.06055 7.47188H7.16276C7.05208 7.47188 6.95443 7.56563 6.91862 7.66563L6.90234 7.70625C6.75911 8.09688 6.31315 8.3 5.87695 8.1625C5.49935 8.02188 5.28451 7.59375 5.43099 7.20312L5.44401 7.16563ZM9.29167 13C9.29167 13.5531 8.82617 14 8.25 14C7.67383 14 7.20833 13.5531 7.20833 13C7.20833 12.4469 7.67383 12 8.25 12C8.82617 12 9.29167 12.4469 9.29167 13ZM14.5 4V14C14.5 15.1031 13.5658 16 12.4167 16H4.08333C2.93262 16 2 15.1031 2 14V4C2 2.89531 2.93262 2 4.08333 2H5.69792C5.9388 0.85875 6.99023 0 8.25 0C9.50977 0 10.5319 0.85875 10.8021 2H12.4167C13.5658 2 14.5 2.89531 14.5 4ZM4.60417 3.5H4.08333C3.79557 3.5 3.5625 3.725 3.5625 4V14C3.5625 14.275 3.79557 14.5 4.08333 14.5H12.4167C12.7031 14.5 12.9375 14.275 12.9375 14V4C12.9375 3.725 12.7031 3.5 12.4167 3.5H11.8958V4.25C11.8958 4.66563 11.5475 5 11.1146 5H5.38542C4.9541 5 4.60417 4.66563 4.60417 4.25V3.5ZM8.25 1.75C7.81706 1.75 7.46875 2.08594 7.46875 2.5C7.46875 2.91406 7.81706 3.25 8.25 3.25C8.68294 3.25 9.03125 2.91406 9.03125 2.5C9.03125 2.08594 8.68294 1.75 8.25 1.75Z"/></svg>