<svg viewBox="0 0 16 16" xmlns="http://www.w3.org/2000/svg"><path d="M9.65938 7.2875L7.39375 10.1719L6.2375 9.18125C5.92188 8.9125 5.45 8.94687 5.18125 9.2625C4.91172 9.57687 4.94784 10.0506 5.26231 10.32L7.01231 11.82C7.15 11.9094 7.32188 12 7.5 12C7.52442 12 7.54881 11.999 7.57325 11.9961C7.77687 11.9766 7.96325 11.874 8.08981 11.7129L10.8398 8.21291C11.0957 7.88759 11.039 7.41603 10.7133 7.16009C10.3875 6.87813 9.91563 6.9625 9.65938 7.2875ZM12 2H10.4497C10.1906 0.85875 9.20938 0 8 0C6.79062 0 5.78125 0.85875 5.55 2H4C2.89531 2 2 2.89562 2 4V14C2 15.1044 2.89531 16 4 16H12C13.1047 16 14 15.1044 14 14V4C14 2.89562 13.1031 2 12 2ZM8 1.5C8.41344 1.5 8.75 1.83656 8.75 2.25C8.75 2.66344 8.4125 3 8 3C7.5875 3 7.25 2.66344 7.25 2.25C7.25 1.83656 7.5875 1.5 8 1.5ZM12.5 14C12.5 14.2756 12.2757 14.5 12 14.5H4C3.72431 14.5 3.5 14.2756 3.5 14V4C3.5 3.72438 3.72431 3.5 4 3.5H4.57063C4.52906 3.65937 4.5 3.825 4.5 4V4.5C4.5 4.775 4.72375 5 5 5H11C11.2761 5 11.5 4.77613 11.5 4.5V4C11.5 3.82628 11.4709 3.66062 11.4292 3.5H12C12.2757 3.5 12.5 3.72438 12.5 4V14Z"/></svg>