<svg viewBox="0 0 16 16" xmlns="http://www.w3.org/2000/svg"><path d="M15.25 0H3.5C3.08 0 2.75 0.33 2.75 0.75V12.5C2.75 12.91 3.09 13.25 3.5 13.25H15.25C15.66 13.25 16 12.91 16 12.5V0.75C16 0.33 15.66 0 15.25 0ZM14.5 11.75H4.25V1.5H14.5V11.75Z"/><path d="M6.25 7.37H8.63V9.75C8.63 10.16 8.97 10.5 9.38 10.5C9.79 10.5 10.13 10.16 10.13 9.75V7.37H12.51C12.92 7.37 13.26 7.03 13.26 6.62C13.26 6.21 12.92 5.87 12.51 5.87H10.13V3.5C10.13 3.09 9.79 2.75 9.38 2.75C8.97 2.75 8.62 3.08 8.62 3.5V5.88H6.25C5.84 5.88 5.5 6.22 5.5 6.63C5.5 7.04 5.84 7.37 6.25 7.37Z"/><path d="M11.29 14.5H1.5V4.71C1.5 4.3 1.16 3.96 0.75 3.96C0.34 3.96 0 4.29 0 4.71V15.25C0 15.66 0.34 16 0.75 16H11.29C11.7 16 12.04 15.66 12.04 15.25C12.04 14.84 11.71 14.5 11.29 14.5Z"/></svg>