<svg xmlns="http://www.w3.org/2000/svg" viewBox="0 0 12.86 14.29"><path d="M2.5 13H1c-.6 0-1-.4-1-1V1c0-.6.4-1 1-1h9c.6 0 1 .4 1 1v3.8h-1V1H1v11h1.5v1z"/><path d="M2.8 3.1h5.3v1H2.8zm0 2.1h5.3v1H2.8zm0 2.1h1.8v1H2.8zM6 9.8c0-1.1.9-2.1 2.1-2.1l.9-.9c-.3-.1-.5-.1-.8-.1C6.4 6.7 5 8.1 5 9.8c0 .3.1.6.1.9l.9-.9zm4.3-.2v.1c0 1.2-1 2.1-2.2 2.1H8l-.9.9c.3.1.6.1.9.1 1.8 0 3.2-1.4 3.2-3.1 0-.3-.1-.7-.2-1l-.7.9z"/><path d="M9.447 11.63l.69-.724 2.752 2.62-.69.725zM2.432 14.7L13.18 3.95l.707.707L3.139 15.406z"/></svg>