<svg viewBox="0 0 16 16" xmlns="http://www.w3.org/2000/svg"><path d="M12.7444 11.7231C13.0369 12.0151 13.0369 12.4889 12.7444 12.781C12.4519 13.073 11.9772 13.073 11.6847 12.781L7.99551 9.07065L4.28009 12.7797C3.98757 13.0717 3.51297 13.0717 3.22042 12.7797C2.92787 12.4877 2.9279 12.0139 3.22042 11.7219L6.93708 8.01403L3.21939 4.27689C2.92687 3.98487 2.92687 3.51108 3.21939 3.21903C3.51191 2.92698 3.98651 2.92701 4.27906 3.21903L7.99551 6.95741L11.7109 3.24833C12.0034 2.95631 12.478 2.95631 12.7706 3.24833C13.0631 3.54035 13.0631 4.01414 12.7706 4.30619L9.05393 8.01403L12.7444 11.7231Z"/></svg>