<svg viewBox="0 0 16 16" xmlns="http://www.w3.org/2000/svg"><path d="M9.05994 7.99994L12.7799 4.27994C13.0699 3.98994 13.0699 3.50994 12.7799 3.21994C12.4899 2.92994 12.0099 2.92994 11.7199 3.21994L7.99994 6.93994L4.27994 3.21994C3.98994 2.92994 3.50994 2.92994 3.21994 3.21994C2.92994 3.50994 2.92994 3.98994 3.21994 4.27994L6.93994 7.99994L3.21994 11.7199C2.92994 12.0099 2.92994 12.4899 3.21994 12.7799C3.36994 12.9299 3.55994 12.9999 3.74994 12.9999C3.93994 12.9999 4.12994 12.9299 4.27994 12.7799L7.99994 9.05994L11.7199 12.7799C11.8699 12.9299 12.0599 12.9999 12.2499 12.9999C12.4399 12.9999 12.6299 12.9299 12.7799 12.7799C13.0699 12.4899 13.0699 12.0099 12.7799 11.7199L9.05994 7.99994Z"/></svg>