<svg viewBox="0 0 16 16" xmlns="http://www.w3.org/2000/svg"><path d="M8 0C3.59 0 0 3.59 0 8C0 12.41 3.59 16 8 16C12.41 16 16 12.41 16 8C16 3.59 12.41 0 8 0ZM8 14.5C4.42 14.5 1.5 11.58 1.5 8C1.5 4.42 4.42 1.5 8 1.5C11.58 1.5 14.5 4.42 14.5 8C14.5 11.58 11.58 14.5 8 14.5Z"/><path d="M11.182 10.1213L9.06066 8L11.182 5.87868C11.4719 5.58877 11.4719 5.10793 11.182 4.81802C10.8921 4.52811 10.4112 4.52811 10.1213 4.81802L8 6.93934L5.87868 4.81802C5.58877 4.52811 5.10793 4.52811 4.81802 4.81802C4.52811 5.10793 4.52811 5.58877 4.81802 5.87868L6.93934 8L4.81802 10.1213C4.52811 10.4112 4.52811 10.8921 4.81802 11.182C5.10793 11.4719 5.58877 11.4719 5.87868 11.182L8 9.06066L10.1213 11.182C10.4112 11.4719 10.8921 11.4719 11.182 11.182C11.4719 10.8921 11.4719 10.4112 11.182 10.1213Z"/></svg>