<svg viewBox="0 0 16 16" xmlns="http://www.w3.org/2000/svg"><path d="M12.792 13.7043V13.71H3.59775C1.61074 13.71 0 11.8801 0 9.62464C0 7.84581 1.00112 6.30813 2.3985 5.77192V5.76625C2.3985 3.13346 4.27733 1 6.59588 1C7.86758 1 9.00437 1.64117 9.77639 2.65429C10.1487 2.46619 10.5584 2.36179 10.9931 2.36179C12.6496 2.36179 13.9913 3.88528 13.9913 5.76625C13.9913 5.9535 13.9788 6.13507 13.9538 6.3138C15.153 6.90958 15.99 8.27137 15.99 9.85161C15.99 11.9056 14.5759 13.5852 12.792 13.7043ZM9.44909 4.31084L8.86695 3.54484C8.3148 2.81798 7.50281 2.36179 6.59588 2.36179C4.93941 2.36179 3.59775 3.88528 3.59775 5.74072V6.73369L2.77576 7.05427C1.86483 7.4316 1.19925 8.44159 1.19925 9.62464C1.19925 11.1283 2.27308 12.3482 3.59775 12.3482H12.6571L12.722 12.3425C13.8763 12.2688 14.7908 11.1793 14.7908 9.85161C14.7908 8.83027 14.2511 7.94794 13.4716 7.5621L12.6196 7.13938L12.7695 6.09819C12.7845 5.99038 12.792 5.87973 12.792 5.76625C12.792 4.6371 11.9875 3.72357 10.9931 3.72357C10.7308 3.72357 10.4834 3.78599 10.2636 3.89947L9.44909 4.31084Z"/></svg>