<svg viewBox="0 0 16 16" xmlns="http://www.w3.org/2000/svg"><path d="M12.8 13.9946V14H3.6C1.61175 14 0 12.2723 0 10.1429C0 8.46339 1.00175 7.01161 2.4 6.50536V6.5C2.4 4.01429 4.28 2 6.6 2C7.8725 2 9.01 2.60536 9.7825 3.56187C10.155 3.38429 10.565 3.28571 11 3.28571C12.6575 3.28571 14 4.72411 14 6.5C14 6.67679 13.9875 6.84821 13.9625 7.01696C15.1625 7.57946 16 8.86518 16 10.3571C16 12.2964 14.585 13.8821 12.8 13.9946ZM9.455 5.12589L8.8725 4.40268C8.32 3.71643 7.5075 3.28571 6.6 3.28571C4.9425 3.28571 3.6 4.72411 3.6 6.47589V7.41339L2.7775 7.71607C1.866 8.07232 1.2 9.02589 1.2 10.1429C1.2 11.5625 2.2745 12.7143 3.6 12.7143H12.665L12.73 12.7089C13.885 12.6393 14.8 11.6107 14.8 10.3571C14.8 9.39286 14.26 8.55982 13.48 8.19553L12.6275 7.79643L12.7775 6.81339C12.7925 6.71161 12.8 6.60714 12.8 6.5C12.8 5.43393 11.995 4.57143 11 4.57143C10.7375 4.57143 10.49 4.63036 10.27 4.7375L9.455 5.12589Z"/></svg>