<svg xmlns="http://www.w3.org/2000/svg" viewBox="0 0 16 16"><path d="M14.13 7.575a3.68 3.68 0 0 0 .093-.819A3.857 3.857 0 0 0 10.279 3a4.016 4.016 0 0 0-3.306 1.71 3.289 3.289 0 0 0-1.279-.251 3.135 3.135 0 0 0-3.148 2.6A3.018 3.018 0 0 0 1 9.664 3.379 3.379 0 0 0 4.181 13h7.636A3.337 3.337 0 0 0 15 9.7a3.064 3.064 0 0 0-.87-2.125zm-2.473 3.759H4.154a1.24 1.24 0 0 1-.285-.033 1.5 1.5 0 0 1 .118-2.972 1.8 1.8 0 0 1-.05-.42 1.956 1.956 0 0 1 1.989-1.915 2.008 2.008 0 0 1 1.65.847 3.927 3.927 0 0 1 1.149-1.689 2.258 2.258 0 0 1 1.625-.561 2.2 2.2 0 0 1 2.236 2.161 2.1 2.1 0 0 1-.164.813l-.191.453v.055a1.756 1.756 0 0 1 1.064 1.592 1.629 1.629 0 0 1-1.638 1.669z"/></svg>