<svg viewBox="0 0 16 16" xmlns="http://www.w3.org/2000/svg"><g clip-path="url(#clip0)"><path d="M14.75 3.99H5.99995C4.18995 3.99 2.48995 4.8 1.33995 6.21C0.199953 7.62 -0.240047 9.47 0.139953 11.28C0.609953 13.55 2.44995 15.39 4.71995 15.86C5.13995 15.95 5.56995 15.99 5.98995 15.99C7.36995 15.99 8.69995 15.53 9.77995 14.65C11.16 13.53 11.97 11.87 12 10.09H14.75C15.44 10.09 16 9.53 16 8.84V5.24C16 4.55 15.44 3.99 14.75 3.99ZM14.5 8.59H11.21C11 8.59 10.79 8.68 10.65 8.84C10.51 9 10.44 9.22 10.47 9.43C10.49 9.61 10.51 9.8 10.51 9.99C10.51 11.35 9.89995 12.62 8.84995 13.48C7.78995 14.34 6.39995 14.67 5.03995 14.38C3.34995 14.03 1.96995 12.65 1.61995 10.96C1.31995 9.6 1.64995 8.21 2.50995 7.16C3.36995 6.11 4.63995 5.49 5.99995 5.49H8.74995V6C8.74995 6.41 9.08995 6.75 9.49995 6.75C9.90995 6.75 10.25 6.41 10.25 6V5.49H14.5V8.59Z"/><path d="M5.99995 6.62C5.66995 6.62 5.34995 6.67 5.02995 6.76C4.62995 6.88 4.40995 7.3 4.52995 7.69C4.64995 8.09 5.05995 8.31 5.45995 8.2C5.63995 8.15 5.81995 8.12 5.99995 8.12C7.02995 8.12 7.87995 8.96 7.87995 10C7.87995 11.04 7.03995 11.87 5.99995 11.87C4.95995 11.87 4.11995 11.03 4.11995 9.99C4.11995 9.81 4.14995 9.63 4.19995 9.45C4.31995 9.06 4.09995 8.64 3.69995 8.53C3.29995 8.41 2.88995 8.63 2.76995 9.03C2.67995 9.34 2.62995 9.67 2.62995 9.99C2.62995 11.85 4.13995 13.37 6.00995 13.37C7.87995 13.37 9.38995 11.86 9.38995 9.99C9.38995 8.12 7.86995 6.62 5.99995 6.62Z"/><path d="M9.49995 2.82C9.90995 2.82 10.25 2.48 10.25 2.07V0.75C10.25 0.33 9.90995 0 9.49995 0C9.08995 0 8.74995 0.33 8.74995 0.75V2.07C8.74995 2.48 9.07995 2.82 9.49995 2.82Z"/><path d="M6.21995 2.92C6.35995 3.16 6.60995 3.29 6.86995 3.29C6.99995 3.29 7.12995 3.26 7.24995 3.19C7.59995 2.98 7.71995 2.53 7.51995 2.17L6.84995 1.03C6.63995 0.67 6.18995 0.55 5.82995 0.76C5.46995 0.97 5.34995 1.43 5.55995 1.78L6.21995 2.92Z"/><path d="M11.76 3.19C11.88 3.26 12.01 3.29 12.14 3.29C12.4 3.29 12.65 3.16 12.79 2.92L13.45 1.78C13.66 1.42 13.54 0.96 13.18 0.75C12.82 0.54 12.36 0.66 12.15 1.02L11.49 2.16C11.28 2.53 11.4 2.98 11.76 3.19Z"/></g><defs><clipPath><rect/></clipPath></defs></svg>