<svg viewBox="0 0 16 16" xmlns="http://www.w3.org/2000/svg"><path d="M15.6924 10.1203L8.49247 3.41198C7.68747 2.68215 6.68498 2.25 5.59998 2.25C4.62749 2.25 3.72749 2.59829 2.96999 3.19216C2.69249 2.63034 2.18525 2.25 1.5775 2.25C0.716254 2.25 0 3.10801 0 4.16667C0 5.01898 0.467498 5.73324 1.10999 5.98211C0.912753 6.61042 0.777504 7.29023 0.777504 8C0.777504 11.1745 2.92649 13.75 5.57748 13.75C7.16872 13.75 8.57497 12.8186 9.44746 11.3901L13.2199 13.6491C13.3574 13.7171 13.4774 13.75 13.5999 13.75C13.807 13.75 14.0117 13.6536 14.1657 13.4692L15.7657 11.5526C15.9282 11.3579 16.0126 11.0902 15.9985 10.8153C15.9849 10.5396 15.8724 10.288 15.6924 10.1203ZM1.72575 4.58893C1.6855 4.63086 1.6445 4.64583 1.5775 4.64583C1.3795 4.64583 1.1775 4.43021 1.1775 4.16667C1.1775 3.90313 1.35695 3.6875 1.5775 3.6875C1.79805 3.6875 1.9775 3.90313 1.9775 4.16667C1.9775 4.18445 1.97061 4.19943 1.96905 4.21662C1.898 4.34336 1.80975 4.47813 1.72575 4.58893ZM13.5199 12.2077L9.09996 9.56059L8.50122 10.5399C8.40572 10.6961 8.30157 10.8409 8.19247 10.978C8.14789 11.0338 8.10077 11.0848 8.05374 11.1376C7.92709 11.2811 7.7945 11.4144 7.65375 11.5329C7.63446 11.549 7.61722 11.568 7.59765 11.5837C7.42515 11.7232 7.24115 11.8379 7.0519 11.9386C7.01992 11.9556 6.98863 11.9729 6.95615 11.9887C6.76348 12.0831 6.5644 12.1581 6.3589 12.2109C6.3275 12.219 6.29563 12.2239 6.26393 12.2311C6.04748 12.2796 5.82748 12.3125 5.59998 12.3125C3.61174 12.3125 2 10.3815 2 8C2 5.61824 3.61174 3.6875 5.59998 3.6875C6.39898 3.6875 7.13022 4.00974 7.72747 4.53742C7.73997 4.54701 7.75247 4.55 7.76497 4.56198L9.78121 6.43283L9.52021 6.8497C9.32139 7.16745 9.37529 7.61816 9.64014 7.85625C9.74746 7.95208 9.85246 8 9.97746 8C10.1599 8 10.34 7.90081 10.458 7.71268L10.7064 7.31587L14.5739 10.9186L13.5199 12.2077ZM5.59998 6.5625C4.93748 6.5625 4.39999 7.20638 4.39999 8C4.39999 8.79392 4.93723 9.41055 5.57748 9.41055C6.24023 9.41055 6.77748 8.76697 6.77748 8C6.79998 7.20638 6.26248 6.5625 5.59998 6.5625Z"/></svg>