<svg viewBox="0 0 16 16" xmlns="http://www.w3.org/2000/svg"><path d="M15.6826 10.2125L8.48716 3.2125C7.68267 2.45094 6.6808 2 5.59648 2C4.62459 2 3.72516 2.36344 2.96814 2.98312C2.69081 2.39687 2.18388 2 1.57651 2C0.715806 2 0 2.89531 0 4C0 4.88937 0.467206 5.63469 1.1093 5.89437C0.912183 6.55 0.777018 7.25937 0.777018 8C0.777018 11.3125 2.92466 14 5.574 14C7.16424 14 8.56961 13.0281 9.44156 11.5375L13.2117 13.8947C13.3491 13.9656 13.469 14 13.5914 14C13.7983 14 14.0029 13.8994 14.1568 13.707L15.7558 11.707C15.9182 11.5039 16.0025 11.2245 15.9885 10.9377C15.9749 10.65 15.8625 10.3875 15.6826 10.2125ZM1.72467 4.44063C1.68445 4.48438 1.64347 4.5 1.57651 4.5C1.37864 4.5 1.17677 4.275 1.17677 4C1.17677 3.725 1.3561 3.5 1.57651 3.5C1.79693 3.5 1.97626 3.725 1.97626 4C1.97626 4.01856 1.96938 4.03419 1.96782 4.05212C1.89681 4.18437 1.80862 4.325 1.72467 4.44063ZM13.5115 12.3906L9.09428 9.62844L8.4959 10.6503C8.40046 10.8133 8.29638 10.9644 8.18735 11.1075C8.1428 11.1657 8.09571 11.2189 8.04871 11.274C7.92214 11.4238 7.78962 11.5628 7.64896 11.6865C7.62969 11.7033 7.61246 11.7231 7.5929 11.7395C7.42051 11.885 7.23662 12.0048 7.04749 12.1098C7.01554 12.1275 6.98426 12.1456 6.9518 12.1622C6.75925 12.2606 6.5603 12.3389 6.35493 12.394C6.32355 12.4024 6.29169 12.4076 6.26001 12.415C6.0437 12.4656 5.82384 12.5 5.59648 12.5C3.60948 12.5 1.99875 10.485 1.99875 8C1.99875 5.51469 3.60948 3.5 5.59648 3.5C6.39498 3.5 7.12577 3.83625 7.72264 4.38688C7.73513 4.39687 7.74763 4.4 7.76012 4.4125L9.7751 6.36469L9.51426 6.79969C9.31556 7.13125 9.36943 7.60156 9.63411 7.85C9.74137 7.95 9.8463 8 9.97122 8C10.1535 8 10.3335 7.8965 10.4514 7.70019L10.6997 7.28613L14.5648 11.0455L13.5115 12.3906ZM5.59648 6.5C4.9344 6.5 4.39724 7.17187 4.39724 8C4.39724 8.82844 4.93415 9.47187 5.574 9.47187C6.23633 9.47187 6.77324 8.80031 6.77324 8C6.79573 7.17187 6.25856 6.5 5.59648 6.5Z"/></svg>