<svg viewBox="0 0 16 16" xmlns="http://www.w3.org/2000/svg"><g clip-path="url(#clip0_335_37)"><path d="M2.66773 2.26113V1.03277C2.66773 0.605136 2.9422 0.22914 3.28336 0.22914C3.62452 0.22914 3.89899 0.605136 3.89899 1.03277V4.13111C3.89899 4.56036 3.62452 4.90569 3.28336 4.90569H0.820836C0.480956 4.90569 0.182118 4.56036 0.182118 4.13111C0.182118 3.70186 0.480956 3.35652 0.820836 3.35652H1.79712L0.180322 1.32227C-0.0601074 1.01986 -0.0601074 0.529291 0.180322 0.226881C0.420675 -0.0756269 0.810575 -0.0756269 1.05093 0.226881L2.66773 2.26113ZM6.36152 8.00403C6.36152 6.86475 7.09771 5.93847 8.0032 5.93847C8.9087 5.93847 9.64489 6.86475 9.64489 8.00403C9.64489 9.14331 8.9087 10.0696 8.0032 10.0696C7.09771 10.0696 6.36152 9.14331 6.36152 8.00403ZM12.7872 7.61351C12.8846 7.86202 12.8846 8.14604 12.7872 8.39455C12.1433 10.0179 10.4991 12.6515 8.0032 12.6515C5.50733 12.6515 3.86308 10.0179 3.21923 8.39455C3.12176 8.14604 3.12176 7.86202 3.21923 7.61351C3.86308 5.99011 5.50733 3.35652 8.0032 3.35652C10.4991 3.35652 12.1433 5.99011 12.7872 7.61351ZM11.5559 8.00403C10.9223 6.58719 9.65771 4.90569 8.0032 4.90569C6.34869 4.90569 5.08408 6.58719 4.4505 8.00403C5.08408 9.42087 6.34869 11.1024 8.0032 11.1024C9.65771 11.1024 10.9223 9.42087 11.5559 8.00403ZM15.8038 1.32227L14.2083 3.35652H15.1856C15.5267 3.35652 15.8012 3.70186 15.8012 4.13111C15.8012 4.56036 15.5267 4.90569 15.1856 4.90569H12.723C12.3819 4.90569 12.1074 4.56036 12.1074 4.13111V1.03277C12.1074 0.605136 12.3819 0.22914 12.723 0.22914C13.0642 0.22914 13.3387 0.605136 13.3387 1.03277V2.26113L14.9547 0.226881C15.1958 -0.0756269 15.5857 -0.0756269 15.8038 0.226881C16.0654 0.529291 16.0654 1.01986 15.8038 1.32227ZM1.05093 15.7531C0.810575 16.0823 0.420675 16.0823 0.180322 15.7531C-0.0601074 15.4788 -0.0601074 14.9882 0.180322 14.6848L1.79712 12.6515H0.820836C0.480956 12.6515 0.182118 12.3062 0.182118 11.877C0.182118 11.4477 0.480956 11.1024 0.820836 11.1024H3.28336C3.62452 11.1024 3.89899 11.4477 3.89899 11.877V14.9753C3.89899 15.4045 3.62452 15.7499 3.28336 15.7499C2.9422 15.7499 2.66773 15.4045 2.66773 14.9753V13.7456L1.05093 15.7531ZM15.8038 15.7531C15.5857 16.0823 15.1958 16.0823 14.9547 15.7531L13.3387 13.7456V14.9753C13.3387 15.4045 13.0642 15.7499 12.723 15.7499C12.3819 15.7499 12.1074 15.4045 12.1074 14.9753V11.877C12.1074 11.4477 12.3819 11.1024 12.723 11.1024H15.1856C15.5267 11.1024 15.8012 11.4477 15.8012 11.877C15.8012 12.3062 15.5267 12.6515 15.1856 12.6515H14.2083L15.8038 14.6848C16.0654 14.9882 16.0654 15.4788 15.8038 15.7531Z"/></g><defs><clipPath><rect/></clipPath></defs></svg>