<svg data-name="Layer 1" xmlns="http://www.w3.org/2000/svg" viewBox="0 0 32 32"><path d="M27.56 13.82h-2.93a22.8 22.8 0 00-.94-2.32l2.15-2.15a2.3 2.3 0 00-3.25-3.25l-2.26 2.2c-.66-.33-1.55-.61-2.1-.83v-3a2.21 2.21 0 10-4.41 0v2.95a16.74 16.74 0 00-2.21.88L9.46 6.15a2.3 2.3 0 00-3.25 3.26l2.15 2.15a11.52 11.52 0 00-.88 2.21h-3A2.31 2.31 0 002.23 16a2.23 2.23 0 002.27 2.23h2.92a4.63 4.63 0 00.83 2.1l-2 2a2.33 2.33 0 000 3.26 2.26 2.26 0 003.2 0l2-2a14.66 14.66 0 002.32.94v2.97a2.19 2.19 0 002.21 2.26 2.23 2.23 0 002.21-2.26v-2.92a16.74 16.74 0 002.21-.88l2 2a2.26 2.26 0 003.2 0 2.33 2.33 0 000-3.26l-1.88-2a5.92 5.92 0 00.88-2.21h2.9a2.21 2.21 0 10.05-4.41zM19 19c-.11.11-.17.22-.28.33A4.31 4.31 0 1120.27 16a4.44 4.44 0 01-1 2.76c-.06.06-.17.11-.28.22z"/></svg>