<svg viewBox="0 0 16 16" xmlns="http://www.w3.org/2000/svg"><g clip-path="url(#clip0)"><path d="M15.78 4.10999L11.9 0.219989C11.71 0.0299892 11.43 -0.0400108 11.17 0.0299892C10.91 0.0999892 10.71 0.299989 10.64 0.559989L9.24999 5.82999C9.18999 6.08999 9.25999 6.36999 9.44999 6.54999C9.58999 6.69999 9.77999 6.76999 9.97999 6.76999C10.04 6.76999 10.11 6.75999 10.17 6.74999L15.44 5.35999C15.7 5.28999 15.9 5.08999 15.97 4.82999C16.04 4.56999 15.97 4.29999 15.78 4.10999Z"/><path d="M5.82999 9.25999L0.559989 10.65C0.299989 10.72 0.0999892 10.92 0.0299892 11.18C-0.0400108 11.44 0.0299892 11.72 0.219989 11.91L4.09999 15.79C4.24999 15.93 4.43999 16 4.63999 16C4.70999 16 4.76999 15.99 4.83999 15.97C5.09999 15.9 5.29999 15.7 5.36999 15.44L6.75999 10.17C6.82999 9.90999 6.74999 9.63999 6.56999 9.44999C6.38999 9.25999 6.08999 9.18999 5.82999 9.25999Z"/></g><defs><clipPath><rect/></clipPath></defs></svg>