<svg viewBox="0 0 16 16" xmlns="http://www.w3.org/2000/svg"><path d="M11.2777 4.53135H4.77794C4.36545 4.53135 4.02797 4.8712 4.02797 5.28658C4.02797 5.70195 4.36545 6.0418 4.77794 6.0418H11.2777C11.6933 6.0418 12.0277 5.7051 12.0277 5.28658C12.0277 4.86806 11.6933 4.53135 11.2777 4.53135ZM8.2778 7.55225H4.77794C4.36545 7.55225 4.02797 7.8921 4.02797 8.30748C4.02797 8.72285 4.36545 9.0627 4.77794 9.0627H8.2778C8.69341 9.0627 9.02777 8.726 9.02777 8.30748C9.02777 7.88896 8.69341 7.55225 8.2778 7.55225ZM13.9995 0H1.99992C0.898402 0 0 0.904697 0 1.98561V11.02C0 12.1292 0.898402 13.0056 1.99992 13.0056H4.9998V15.6206C4.9998 15.9301 5.34417 16.1099 5.59728 15.9258L9.50025 12.9773H14.0001C15.1016 12.9773 16 12.0726 16 10.9917V1.98561C15.9994 0.904697 15.1275 0 13.9995 0ZM14.5276 11.0766C14.5276 11.352 14.301 11.5801 14.0276 11.5801H9.02777L6.52787 13.4682V11.5801H2.02805C1.75462 11.5801 1.52807 11.352 1.52807 11.0766V2.01393C1.52807 1.73859 1.75462 1.51045 2.02805 1.51045H14.0276C14.301 1.51045 14.5276 1.73859 14.5276 2.01393V11.0766Z"/></svg>