<svg viewBox="0 0 16 16" xmlns="http://www.w3.org/2000/svg"><path d="M7.25 16C7.06 16 6.87 15.93 6.72 15.78C6.43 15.49 6.43 15.01 6.72 14.72L9.47 11.97C9.61 11.83 9.8 11.75 10 11.75H12C13.38 11.75 14.5 10.63 14.5 9.25V4C14.5 2.62 13.38 1.5 12 1.5H4C2.62 1.5 1.5 2.62 1.5 4V9.25C1.5 10.63 2.62 11.75 4 11.75H6.5C6.91 11.75 7.25 12.09 7.25 12.5C7.25 12.91 6.91 13.25 6.5 13.25H4C1.79 13.25 0 11.46 0 9.25V4C0 1.79 1.79 0 4 0H12C14.21 0 16 1.79 16 4V9.25C16 11.46 14.21 13.25 12 13.25H10.31L7.78 15.78C7.64 15.92 7.45 16 7.25 16Z"/><path d="M12 5.75H4C3.59 5.75 3.25 5.41 3.25 5C3.25 4.59 3.59 4.25 4 4.25H12C12.41 4.25 12.75 4.59 12.75 5C12.75 5.41 12.42 5.75 12 5.75Z"/><path d="M12 9H4C3.59 9 3.25 8.66 3.25 8.25C3.25 7.84 3.59 7.5 4 7.5H12C12.41 7.5 12.75 7.84 12.75 8.25C12.75 8.66 12.42 9 12 9Z"/></svg>