<svg viewBox="0 0 16 16" xmlns="http://www.w3.org/2000/svg"><path d="M0 2.28571C0 1.02321 1.02321 0 2.28571 0H13.7143C14.975 0 16 1.02321 16 2.28571V13.7143C16 14.975 14.975 16 13.7143 16H2.28571C1.02321 16 0 14.975 0 13.7143V2.28571ZM5.14286 3.42857H10.8571V1.71429H5.14286V3.42857ZM3.42857 3.42857V1.71429H2.28571C1.97 1.71429 1.71429 1.97 1.71429 2.28571V3.42857H3.42857ZM1.71429 5.14286V7.14286H7.14286V5.14286H1.71429ZM3.42857 10.8571V8.85714H1.71429V10.8571H3.42857ZM1.71429 12.5714V13.7143C1.71429 14.0286 1.97 14.2857 2.28571 14.2857H7.14286V12.5714H1.71429ZM5.14286 10.8571H10.8571V8.85714H5.14286V10.8571ZM14.2857 10.8571V8.85714H12.5714V10.8571H14.2857ZM14.2857 12.5714H8.85714V14.2857H13.7143C14.0286 14.2857 14.2857 14.0286 14.2857 13.7143V12.5714ZM8.85714 5.14286V7.14286H14.2857V5.14286H8.85714ZM14.2857 3.42857V2.28571C14.2857 1.97 14.0286 1.71429 13.7143 1.71429H12.5714V3.42857H14.2857Z"/></svg>