<svg data-name="Layer 1" xmlns="http://www.w3.org/2000/svg" viewBox="0 0 32 32"><path d="M23.08 16.57a.57.57 0 00-.89-.44l-1.46.94a9.61 9.61 0 01-2.12.94 8.62 8.62 0 01-2.61.42 8.41 8.41 0 01-2.62-.43 9.15 9.15 0 01-2.12-.94c-.54-.34-1-.66-1.46-.94a.58.58 0 00-.89.44l-1.4 14.81a.59.59 0 00.57.63H23.9a.58.58 0 00.58-.63l-1.4-14.8zm1.73-9.91A9.77 9.77 0 0016 0a8.8 8.8 0 00-6.42 2.51 9.45 9.45 0 00-2.5 4.16 2.82 2.82 0 00-.27 4.83L8 14.65a.8.8 0 00.75.51 1 1 0 00.29-.05.81.81 0 00.46-1L8.36 11V8.56a7.8 7.8 0 012.35-4.89A7.18 7.18 0 0116 1.61a8.11 8.11 0 017.7 7.72V12a2.76 2.76 0 002.71-2.8 2.85 2.85 0 00-1.61-2.54zM16 16.07a6.66 6.66 0 10-6.66-6.65A6.65 6.65 0 0016 16.07zm0-10.65a4 4 0 11-4 4 4 4 0 014-4z"/></svg>