<svg viewBox="0 0 16 16" xmlns="http://www.w3.org/2000/svg"><path d="M14.9613 3C14.7355 3 14.5052 3.06314 14.3068 3.2027L8.77419 7.48591V3.87665C8.77419 3.35061 8.26774 3 7.73548 3C7.50968 3 7.27935 3.06314 7.08097 3.2027L1.54839 7.48591V3.6577C1.54839 3.29505 1.20194 3.00082 0.774194 3.00082C0.346774 3.00082 0 3.29477 0 3.63306V12.8266C0 13.1895 0.346774 13.4835 0.774194 13.4835C1.20194 13.4835 1.54839 13.1895 1.54839 12.8266V9.0542L7.08065 13.3047C7.27742 13.447 7.50968 13.51 7.73548 13.51C8.26774 13.51 8.77419 13.1597 8.77419 12.6095V9.0542L14.3065 13.3047C14.5032 13.447 14.7355 13.51 14.9613 13.51C15.4935 13.51 16 13.1597 16 12.6095V3.87665C16 3.35061 15.4935 3 14.9613 3ZM7.22581 11.6461L2.83226 8.26868L7.22581 4.86936V11.6461ZM14.4516 11.6461L10.0581 8.26868L14.4516 4.86936V11.6461Z"/></svg>