<svg viewBox="0 0 16 16" xmlns="http://www.w3.org/2000/svg"><path d="M11.6709 3C11.2076 3 10.8318 3.29507 10.8318 3.65875V6.56274L4.76879 3.16386C4.57579 3.0549 4.34783 3 4.11882 3C3.94359 3 3.76779 3.03217 3.60626 3.09686C3.23355 3.24783 3 3.54921 3 3.87858V12.6372C3 12.9666 3.2338 13.268 3.60626 13.4189C3.76814 13.5071 3.94401 13.54 4.11882 13.54C4.34825 13.54 4.57544 13.4851 4.76879 13.3762L10.8318 9.97726V12.8813C10.8318 13.2449 11.2076 13.54 11.6709 13.54C12.1341 13.54 12.51 13.2463 12.51 12.8813V3.65875C12.51 3.29507 12.1359 3 11.6709 3ZM10.8318 8.35783L4.67824 11.808V4.73196L10.8318 8.18217V8.35783Z"/></svg>