<svg viewBox="0 0 16 16" xmlns="http://www.w3.org/2000/svg"><path d="M14.96 6.88995L9.37 3.02995C8.95 2.74995 8.42 2.70995 7.97 2.94995C7.52 3.17995 7.25 3.63995 7.25 4.14995V6.57995L2.12 3.02995C1.7 2.74995 1.17 2.70995 0.72 2.94995C0.28 3.17995 0 3.63995 0 4.13995V11.8499C0 12.3499 0.28 12.8099 0.72 13.0499C0.92 13.1499 1.13 13.2099 1.35 13.2099C1.62 13.2099 1.89 13.1299 2.12 12.9699L7.25 9.42995V11.8599C7.25 12.3599 7.53 12.8199 7.97 13.0599C8.17 13.1599 8.38 13.2199 8.6 13.2199C8.87 13.2199 9.14 13.1399 9.37 12.9799L14.96 9.11995C15.33 8.86995 15.54 8.44995 15.54 8.00995C15.54 7.56995 15.32 7.13995 14.96 6.88995ZM1.5 11.5699V4.42995L6.68 7.99995L1.5 11.5699ZM8.75 11.5699V4.42995L13.93 7.99995L8.75 11.5699Z"/></svg>