<svg viewBox="0 0 16 16" xmlns="http://www.w3.org/2000/svg"><path d="M8.00113 3.62166V12.3773C8.00113 12.9047 8.49183 13.255 9.00753 13.255C9.22631 13.255 9.44978 13.1919 9.64168 13.0523L15.6425 8.69777C16.1192 8.34552 16.1192 7.70233 15.6425 7.35008L9.64168 2.99555C9.45134 2.80795 9.22631 2.745 9.00753 2.745C8.49183 2.745 8.00113 3.09561 8.00113 3.62166ZM9.50135 4.55415L14.2239 8L9.50135 11.4459V4.55415ZM0 3.62166V12.3773C0 12.6972 0.199247 12.9917 0.519449 13.1455C0.668876 13.2174 0.838244 13.2535 1.00358 13.2535C1.19014 13.2535 1.37426 13.2075 1.53741 13.116L6.65375 10.2641C7.00349 10.0695 7.10694 9.66332 6.88426 9.35705C6.66344 9.05374 6.19775 8.96342 5.8477 9.15774L1.50021 11.58V4.42003L5.8477 6.84281C6.19744 7.03782 6.66126 6.94758 6.88316 6.64139C7.10585 6.33513 7.0023 5.92896 6.65266 5.73436L1.53647 2.8824C1.22861 2.71161 0.840119 2.6993 0.519761 2.85311C0.199403 3.00693 0 3.3017 0 3.62166Z"/></svg>