<svg viewBox="0 0 16 16" xmlns="http://www.w3.org/2000/svg"><path d="M12.06 2.89999C11.63 2.65999 11.1 2.67999 10.69 2.93999L4.75 6.64999V3.49999C4.75 3.08999 4.41 2.74999 4 2.74999C3.59 2.74999 3.25 3.08999 3.25 3.49999V12.5C3.25 12.91 3.59 13.25 4 13.25C4.41 13.25 4.75 12.91 4.75 12.5V9.34999L10.69 13.06C10.91 13.2 11.16 13.27 11.41 13.27C11.63 13.27 11.86 13.21 12.06 13.1C12.49 12.86 12.76 12.41 12.76 11.92V4.07999C12.75 3.58999 12.49 3.13999 12.06 2.89999ZM11.25 11.65L5.42 7.99999L11.25 4.34999V11.65Z"/></svg>