<svg viewBox="0 0 16 16" xmlns="http://www.w3.org/2000/svg"><path d="M6.99371 3C6.77489 3 6.55152 3.06307 6.35964 3.20265L0.357424 7.58049C-0.119141 7.93264 -0.119141 8.57566 0.357424 8.92782L6.35745 13.2812C6.54995 13.4443 6.77495 13.5072 6.99371 13.5072C7.50933 13.5072 8.00059 13.1567 8.00059 12.6308V3.87752C7.97184 3.35051 7.50933 3 6.99371 3ZM6.47183 11.6985L1.77743 8.2536L6.49933 4.80866V11.6985H6.47183ZM15.4812 3.10808C15.1609 2.95417 14.7722 2.96656 14.4647 3.13714L9.34903 5.98832C8.99934 6.18284 8.8959 6.58892 9.11856 6.89511C9.34025 7.2013 9.80419 7.29132 10.1539 7.09647L14.5 4.67459V11.8354L10.1531 9.41323C9.80341 9.21827 9.33965 9.30849 9.11778 9.61459C8.89512 9.92078 8.99865 10.3268 9.34825 10.5214L14.4639 13.3726C14.627 13.4641 14.8111 13.51 14.9977 13.51C15.1627 13.51 15.332 13.4739 15.4814 13.4021C15.8 13.2445 16 12.9518 16 12.607V3.87642C16 3.55655 15.8 3.26213 15.4812 3.10808Z"/></svg>