<svg viewBox="0 0 16 16" xmlns="http://www.w3.org/2000/svg"><path d="M15.25 2.75C14.84 2.75 14.5 3.09 14.5 3.5V6.57L9.37 3.03C8.95 2.75 8.42 2.71 7.97 2.95C7.52 3.18 7.25 3.64 7.25 4.15V6.58L2.12 3.03C1.7 2.75 1.17 2.71 0.72 2.95C0.28 3.18 0 3.64 0 4.14V11.85C0 12.35 0.28 12.81 0.72 13.05C0.92 13.15 1.13 13.21 1.35 13.21C1.62 13.21 1.89 13.13 2.12 12.97L7.25 9.43V11.86C7.25 12.36 7.53 12.82 7.97 13.06C8.17 13.16 8.38 13.22 8.6 13.22C8.87 13.22 9.14 13.14 9.37 12.98L14.5 9.44V12.51C14.5 12.92 14.84 13.26 15.25 13.26C15.66 13.26 16 12.91 16 12.5V3.5C16 3.09 15.66 2.75 15.25 2.75ZM1.5 11.57V4.43L6.68 8L1.5 11.57ZM8.75 11.57V4.43L13.93 8L8.75 11.57Z"/></svg>