<svg viewBox="0 0 16 16" xmlns="http://www.w3.org/2000/svg"><path d="M0 2.87665V11.6323C0 12.1597 0.506774 12.51 1.03903 12.51C1.2649 12.51 1.49516 12.4469 1.69355 12.3073L7.22581 8.0542V11.6314C7.22581 12.1597 7.73226 12.51 8.26452 12.51C8.49039 12.51 8.72064 12.4469 8.91903 12.3073L14.4516 8.0542V11.8504C14.4516 12.2133 14.7981 12.5073 15.2258 12.5073C15.6532 12.5073 16 12.2133 16 11.8504V2.6577C16 2.29505 15.6535 2.02545 15.2548 2.02545C14.8271 2.02545 14.4806 2.31968 14.4806 2.68233V6.50863L8.94839 2.22525C8.72258 2.06322 8.49032 2 8.26452 2C7.73226 2 7.22581 2.35061 7.22581 2.87665V6.48673L1.69355 2.20281C1.49548 2.06322 1.26484 2 1.03903 2C0.506774 2 0 2.35061 0 2.87665ZM8.77419 3.86936L13.1677 7.27142L8.77419 10.6461V3.86936ZM1.54839 3.86936L5.94194 7.27142L1.54839 10.6461V3.86936Z"/></svg>