<svg viewBox="0 0 16 16" xmlns="http://www.w3.org/2000/svg"><path d="M10.5 12.75C10.09 12.75 9.75 12.41 9.75 12V4C9.75 3.59 10.09 3.25 10.5 3.25C10.91 3.25 11.25 3.59 11.25 4V12C11.25 12.41 10.92 12.75 10.5 12.75Z"/><path d="M5.5 12.75C5.09 12.75 4.75 12.41 4.75 12V4C4.75 3.59 5.09 3.25 5.5 3.25C5.91 3.25 6.25 3.59 6.25 4V12C6.25 12.41 5.91 12.75 5.5 12.75Z"/><path d="M10.5 12.75C10.09 12.75 9.75 12.41 9.75 12V4C9.75 3.59 10.09 3.25 10.5 3.25C10.91 3.25 11.25 3.59 11.25 4V12C11.25 12.41 10.92 12.75 10.5 12.75Z"/></svg>