<svg viewBox="0 0 16 16" xmlns="http://www.w3.org/2000/svg"><path d="M3 3.65875V12.8813C3 13.2463 3.37585 13.54 3.83912 13.54C4.30238 13.54 4.67824 13.2449 4.67824 12.8813V9.97726L10.7409 13.3781C10.9332 13.4851 11.1604 13.54 11.3912 13.54C11.566 13.54 11.7419 13.5083 11.9037 13.4431C12.2764 13.2921 12.51 12.9907 12.51 12.6614V3.87861C12.51 3.54923 12.2762 3.24785 11.9037 3.09689C11.7422 3.0322 11.5664 3.00003 11.3912 3.00003C11.1622 3.00008 10.9342 3.05498 10.7412 3.16381L4.67824 6.56274V3.65875C4.67824 3.29507 4.30238 3 3.83912 3C3.37585 3 3 3.29507 3 3.65875ZM4.67824 8.18217L10.8318 4.73196V11.808L4.67824 8.35783V8.18217Z"/></svg>