<svg viewBox="0 0 16 16" xmlns="http://www.w3.org/2000/svg"><path d="M8.00113 3.87665V12.6323C8.00113 13.1597 8.49183 13.51 9.00753 13.51C9.22631 13.51 9.44978 13.4469 9.64168 13.3073L15.6425 8.95276C16.1192 8.60052 16.1192 7.95733 15.6425 7.60508L9.64168 3.25054C9.45134 3.06295 9.22631 3 9.00753 3C8.49183 3 8.00113 3.35061 8.00113 3.87665ZM9.50135 4.80914L14.2239 8.255L9.50135 11.7009V4.80914ZM0 3.87665V12.6323C0 12.9522 0.199247 13.2467 0.519449 13.4005C0.668876 13.4724 0.838244 13.5085 1.00358 13.5085C1.19014 13.5085 1.37426 13.4625 1.53741 13.371L6.65375 10.5191C7.00349 10.3245 7.10694 9.91832 6.88426 9.61205C6.66344 9.30874 6.19775 9.21842 5.8477 9.41274L1.50021 11.835V4.67503L5.8477 7.09781C6.19744 7.29282 6.66126 7.20258 6.88316 6.89639C7.10585 6.59012 7.0023 6.18396 6.65266 5.98936L1.53647 3.1374C1.22861 2.96661 0.840119 2.95429 0.519761 3.10811C0.199403 3.26193 0 3.5567 0 3.87665Z"/></svg>