<svg viewBox="0 0 16 16" xmlns="http://www.w3.org/2000/svg"><path d="M12 2.74999C11.59 2.74999 11.25 3.08999 11.25 3.49999V6.64999L5.31 2.93999C4.9 2.67999 4.37 2.65999 3.94 2.89999C3.52 3.13999 3.25 3.58999 3.25 4.07999V11.92C3.25 12.41 3.52 12.86 3.95 13.1C4.15 13.21 4.38 13.27 4.6 13.27C4.85 13.27 5.1 13.2 5.32 13.06L11.26 9.34999V12.5C11.26 12.91 11.6 13.25 12.01 13.25C12.42 13.25 12.76 12.91 12.76 12.5V3.49999C12.75 3.08999 12.42 2.74999 12 2.74999ZM4.75 11.65V4.34999L10.58 7.99999L4.75 11.65Z"/></svg>