<svg data-name="Layer 1" xmlns="http://www.w3.org/2000/svg" viewBox="0 0 32 32"><path d="M27.56 3.48a1.25 1.25 0 00-1.27-1.27H5.65a1.25 1.25 0 00-1.26 1.27v25.1a1.24 1.24 0 001.27 1.21h20.68a1.28 1.28 0 001.27-1.27v-25zM13.38 5h5.24a.85.85 0 01.83.83.86.86 0 01-.88.83h-5.25a.85.85 0 01-.83-.83.86.86 0 01.89-.83zm-1.82 9.76A3.79 3.79 0 0115.64 11h.72a3.75 3.75 0 014 3.7V16a4.41 4.41 0 01-8.83 0zm10.65 11.2H9.74a.64.64 0 01-.74-.75c.33-2.21 2.1-3.53 4.58-3.53.06 0 0 0 .06.06l.06.06a4.93 4.93 0 004.14 0c.06 0 .11-.06.17-.06 2.48-.06 4.47 1.21 4.91 3.42a.68.68 0 01-.71.77z"/></svg>