<svg viewBox="0 0 16 16" xmlns="http://www.w3.org/2000/svg"><path d="M15.28 2.94997C14.83 2.71997 14.3 2.74997 13.88 3.02997L8.74996 6.56997V4.13997C8.74996 3.63997 8.46996 3.17997 8.02996 2.93997C7.58996 2.70997 7.04996 2.73997 6.63996 3.01997L1.03996 6.88997C0.679961 7.13997 0.459961 7.55997 0.459961 7.99997C0.459961 8.43997 0.679961 8.85997 1.03996 9.10997L6.62996 12.97C6.85996 13.13 7.12996 13.21 7.39996 13.21C7.60996 13.21 7.82996 13.16 8.02996 13.05C8.47996 12.82 8.74996 12.36 8.74996 11.85V9.42997L13.88 12.97C14.11 13.13 14.38 13.21 14.65 13.21C14.86 13.21 15.08 13.16 15.28 13.05C15.73 12.82 16 12.36 16 11.85V4.13997C16 3.63997 15.72 3.17997 15.28 2.94997ZM7.24996 11.57L2.06996 7.99997L7.24996 4.42997V11.57ZM14.5 11.57L9.31996 7.99997L14.5 4.42997V11.57Z"/></svg>