<svg viewBox="0 0 16 16" xmlns="http://www.w3.org/2000/svg"><path d="M15.28 2.95C14.84 2.72 14.3 2.75 13.89 3.03L8.75 6.57V4.14C8.75 3.64 8.47 3.18 8.03 2.94C7.59 2.71 7.05 2.74 6.64 3.02L1.5 6.57V3.5C1.5 3.09 1.16 2.75 0.75 2.75C0.34 2.75 0 3.09 0 3.5V12.5C0 12.91 0.34 13.25 0.75 13.25C1.16 13.25 1.5 12.91 1.5 12.5V9.43L6.63 12.97C6.86 13.13 7.13 13.21 7.4 13.21C7.61 13.21 7.83 13.16 8.03 13.05C8.48 12.82 8.75 12.36 8.75 11.85V9.43L13.88 12.97C14.11 13.13 14.38 13.21 14.65 13.21C14.86 13.21 15.08 13.16 15.28 13.05C15.73 12.82 16 12.36 16 11.85V4.14C16 3.64 15.72 3.18 15.28 2.95ZM7.25 11.57L2.07 8L7.25 4.43V11.57ZM14.5 11.57L9.32 8L14.5 4.43V11.57Z"/></svg>