<svg viewBox="0 0 16 16" xmlns="http://www.w3.org/2000/svg"><path d="M0 3.62166V12.3773C0 12.9047 0.506774 13.255 1.03903 13.255C1.2649 13.255 1.49516 13.1919 1.69355 13.0523L7.22581 8.7992V12.3764C7.22581 12.9047 7.73226 13.255 8.26452 13.255C8.49039 13.255 8.72064 13.1919 8.91903 13.0523L14.4516 8.7992V12.5954C14.4516 12.9583 14.7981 13.2523 15.2258 13.2523C15.6532 13.2523 16 12.9583 16 12.5954V3.4027C16 3.04005 15.6535 2.77046 15.2548 2.77046C14.8271 2.77046 14.4806 3.06468 14.4806 3.42733V7.25363L8.94839 2.97026C8.72258 2.80823 8.49032 2.745 8.26452 2.745C7.73226 2.745 7.22581 3.09561 7.22581 3.62166V7.23173L1.69355 2.94781C1.49548 2.80823 1.26484 2.745 1.03903 2.745C0.506774 2.745 0 3.09561 0 3.62166ZM8.77419 4.61436L13.1677 8.01642L8.77419 11.3911V4.61436ZM1.54839 4.61436L5.94194 8.01642L1.54839 11.3911V4.61436Z"/></svg>