<svg viewBox="0 0 16 16" xmlns="http://www.w3.org/2000/svg"><g clip-path="url(#clip0_2589_43381)"><path d="M11.3333 3.71937C11.3333 4.01604 11.2833 4.31896 11.1694 4.64062C11.0361 5.18713 10.7611 5.85543 10.4333 6.48937L10.4306 6.46751C10.3444 6.66113 10.2556 6.82977 10.1639 6.99528C10.0417 7.21389 9.91389 7.40438 9.78889 7.64485L9.77778 7.66358C9.275 8.50364 8.75833 9.25626 8.41111 9.71532C8.19722 10.0432 7.80278 10.0432 7.58889 9.71532C7.24167 9.25626 6.725 8.50364 6.22222 7.66358C5.71111 6.81103 5.21389 5.86792 4.925 5.02474C4.90278 4.95916 4.88056 4.89358 4.83611 4.82799C4.73889 4.43451 4.66667 4.06913 4.66667 3.74747C4.66667 3.6007 4.675 3.45704 4.68889 3.31651C4.87778 1.45027 6.28889 0 8 0C9.84167 0 11.3333 1.67793 11.3333 3.74747V3.71937ZM8 4.71869C8.61389 4.71869 9.11111 4.1878 9.11111 3.46954C9.11111 2.80779 8.61389 2.22038 8 2.22038C7.38611 2.22038 6.88889 2.80779 6.88889 3.46954C6.88889 4.1878 7.38611 4.71869 8 4.71869ZM9.77778 9.38742C10.1528 8.81905 10.5778 8.14139 10.9639 7.43873C11.0139 7.34817 11.0611 7.25761 11.1111 7.16704V14.1686L14.6667 12.7164V4.81863L11.6472 6.05217C11.7083 5.90539 11.7667 5.76174 11.8222 5.61496C11.9861 5.17776 12.1278 4.7062 12.1889 4.23464L15.1056 3.04295C15.3111 2.95957 15.5389 2.99329 15.7167 3.13226C15.8944 3.27279 16 3.50389 16 3.71937V13.2411C16 13.5565 15.825 13.8375 15.5611 13.9468L10.6722 15.9455C10.525 16.0048 10.3639 16.0048 10.2167 15.9455L5.55556 14.0374L0.894444 15.9455C0.69 16.0267 0.462222 15.9955 0.284167 15.8549C0.106083 15.7144 0 15.4833 0 15.2397V5.71802C0 5.43071 0.175389 5.14965 0.438889 5.04035L3.77778 3.67565C3.77778 3.70063 3.77778 3.72249 3.77778 3.71937C3.77778 4.21903 3.88056 4.7062 4.025 5.17151L1.33333 6.27077V14.1686L4.88889 12.7164V7.16704C4.93889 7.25761 4.98611 7.34817 5.03611 7.43873C5.42222 8.14139 5.84722 8.81905 6.22222 9.38742V12.7164L9.77778 14.1686V9.38742Z"/></g><defs><clipPath><rect/></clipPath></defs></svg>