<svg xmlns="http://www.w3.org/2000/svg" viewBox="0 0 301.47 264.75"><g data-name="Layer 2"><g data-name="Layer 1"><path class="cls-1" d="M214.68 91.18A86.79 86.79 0 10301.47 178a86.79 86.79 0 00-86.79-86.82zM231 182.83l-34.88 34.88-19 2.11a4 4 0 01-4.39-4.39l2.11-19 34.88-34.88a2 2 0 012.82 0L231 180a2 2 0 010 2.83zm24.38-24.36l-7.23 7.23a2 2 0 01-2.81 0l-18.43-18.42a2 2 0 010-2.82l7.23-7.23a8 8 0 0111.28 0l10 10a8 8 0 01-.01 11.24z"/><path class="cls-1" d="M119 205.46H96.3V51.37h51.39v53.07a100.1 100.1 0 0119.09-13.79V51.37h50.1v27.08a98.7 98.7 0 0127.12 4.3V0H0v231.15h130.58A99.2 99.2 0 01119 205.46zm-41.79 0h-50.1V51.37h50.1z"/></g></g></svg>