<svg viewBox="0 0 16 16" xmlns="http://www.w3.org/2000/svg"><path d="M11.62 4.53001C9.21 4.53001 7.24 6.49001 7.24 8.91001C7.24 9.81001 7.51 10.67 8.02 11.41L11 15.68C11.14 15.88 11.37 16 11.62 16C11.87 16 12.1 15.88 12.24 15.68L15.22 11.41C15.73 10.67 16 9.80001 16 8.90001C16 6.49001 14.04 4.53001 11.62 4.53001ZM13.99 10.54L11.63 13.93L9.27 10.54C8.93 10.06 8.75 9.50001 8.75 8.90001C8.75 7.32001 10.04 6.02001 11.63 6.02001C13.22 6.02001 14.5 7.32001 14.5 8.90001C14.5 9.50001 14.32 10.06 13.99 10.54Z"/><path d="M11.62 7.13001C10.64 7.13001 9.84 7.93001 9.84 8.91001C9.84 9.89001 10.64 10.69 11.62 10.69C12.6 10.69 13.4 9.89001 13.4 8.91001C13.4 7.93001 12.61 7.13001 11.62 7.13001ZM11.62 9.43001C11.33 9.43001 11.09 9.19001 11.09 8.90001C11.09 8.61001 11.33 8.37001 11.62 8.37001C11.91 8.37001 12.15 8.61001 12.15 8.90001C12.15 9.19001 11.92 9.43001 11.62 9.43001Z"/><path d="M3.63 4.63001C4.18228 4.63001 4.63 4.18229 4.63 3.63001C4.63 3.07773 4.18228 2.63001 3.63 2.63001C3.07772 2.63001 2.63 3.07773 2.63 3.63001C2.63 4.18229 3.07772 4.63001 3.63 4.63001Z"/><path d="M8.81 14.5H4.65C4.53 14.5 4.47 14.42 4.44 14.38C4.41 14.34 4.38 14.25 4.44 14.14L6.54 10.52C6.85 9.98001 6.86 9.32001 6.54 8.78001C6.23 8.24001 5.68 7.92001 5.06 7.91001L6.6 5.70001C7.02 5.09001 7.25 4.38001 7.25 3.63001C7.25 1.63001 5.62 0.0100098 3.63 0.0100098C1.64 0.0100098 0 1.63001 0 3.63001C0 4.37001 0.22 5.09001 0.65 5.70001L3.01 9.09001C3.15 9.29001 3.37 9.41001 3.62 9.41001C3.62 9.41001 3.62 9.41001 3.63 9.41001H5.04C5.16 9.41001 5.22 9.49001 5.25 9.53001C5.28 9.57001 5.31 9.67001 5.25 9.77001L3.15 13.39C2.83 13.93 2.83 14.58 3.15 15.13C3.46 15.67 4.02 16 4.65 16H8.82C9.23 16 9.57 15.66 9.57 15.25C9.57 14.84 9.23 14.5 8.81 14.5ZM1.88 4.84001C1.63 4.48001 1.5 4.06001 1.5 3.63001C1.5 2.46001 2.45 1.51001 3.63 1.51001C4.81 1.51001 5.75 2.46001 5.75 3.63001C5.75 4.07001 5.62 4.49001 5.37 4.84001L3.63 7.35001L1.88 4.84001Z"/></svg>