<svg viewBox="0 0 16 16" xmlns="http://www.w3.org/2000/svg"><g clip-path="url(#clip0)"><path d="M10.65 8L15.7 4.14C16.03 3.89 16.09 3.42 15.84 3.09C15.29 2.37 14.5 1.91 13.6 1.79C12.71 1.67 11.81 1.91 11.1 2.46L8.69 4.3C8.36 4.55 8.3 5.02 8.55 5.35C8.8 5.67 9.27 5.74 9.6 5.49L12.01 3.65C12.41 3.34 12.9 3.21 13.4 3.28C13.64 3.31 13.87 3.39 14.07 3.5L9.42 7.06L6.45 4.79C6.65 4.36 6.76 3.89 6.76 3.39C6.77 1.52 5.25 0 3.38 0C1.51 0 0 1.52 0 3.39C0 4.46 0.51 5.41 1.29 6.03C1.31 6.05 3.84 8 3.84 8C3.84 8 1.29 9.97 1.27 9.99C0.5 10.61 0 11.55 0 12.61C0 14.48 1.52 16 3.38 16C5.24 16 6.77 14.48 6.77 12.61C6.77 12.11 6.65 11.63 6.46 11.21L7.25 10.6L11.1 13.54C11.7 14 12.41 14.24 13.15 14.24C13.3 14.24 13.45 14.23 13.61 14.21C14.51 14.09 15.3 13.63 15.85 12.91C16.1 12.58 16.04 12.11 15.71 11.86L10.65 8ZM3.38 1.5C4.42 1.5 5.27 2.35 5.27 3.39C5.27 4.43 4.42 5.28 3.38 5.28C2.34 5.28 1.5 4.43 1.5 3.39C1.5 2.35 2.34 1.5 3.38 1.5ZM3.38 14.5C2.34 14.5 1.49 13.65 1.49 12.61C1.49 11.57 2.34 10.72 3.38 10.72C4.42 10.72 5.27 11.57 5.27 12.61C5.27 13.65 4.42 14.5 3.38 14.5ZM5.54 10.02C5.22 9.76 4.86 9.55 4.46 9.42L5.08 8.94L6.02 9.66L5.54 10.02ZM13.4 12.73C12.9 12.8 12.4 12.67 12 12.36L4.46 6.58C4.86 6.45 5.22 6.24 5.54 5.98L14.08 12.51C13.87 12.62 13.64 12.69 13.4 12.73Z"/></g><defs><clipPath><rect/></clipPath></defs></svg>