<svg xmlns="http://www.w3.org/2000/svg" viewBox="0 0 16 16"><path d="M16 3h-2c-1.479 0-3.027.027-4 1L8.2 5.8 10 7zM5 4.5a2.5 2.5 0 0 0-3.166-2.414A2.47 2.47 0 0 0 .086 3.834a2.5 2.5 0 0 0 4.182 2.434L6 8 4.268 9.732a2.51 2.51 0 0 0-2.394-.656 2.482 2.482 0 0 0-1.8 1.792 2.5 2.5 0 0 0 4.812 1.369 2.472 2.472 0 0 0-.11-1.756L7 9l1.2 1.2h-.006L9.99 12c.973.973 2.521 1 4 1h2L4.779 5.519A2.478 2.478 0 0 0 5 4.5zM2.5 6A1.5 1.5 0 1 1 4 4.5 1.5 1.5 0 0 1 2.5 6zm0 7A1.5 1.5 0 1 1 4 11.5 1.5 1.5 0 0 1 2.5 13z"/></svg>