<svg xmlns="http://www.w3.org/2000/svg" viewBox="0 0 16 16"><path d="M15.55 8.471c-.911-2.552-3.25-4.41-6.032-4.783a7.46 7.46 0 0 0-1.011-.073h-.014c-.344 0-.68.028-1.011.073-2.782.373-5.12 2.231-6.032 4.783-.032.081-.258.84-.262 1.124-.045.781.28 1.354 1.123 1.354h4.424a1.781 1.781 0 0 0 3.494 0h4.459c.844 0 1.168-.572 1.123-1.354-.002-.284-.229-1.043-.261-1.124zM10.117 9.88l-.008.009-.466.651.002.019c0 .016.004.029.004.047 0 .645-.521 1.166-1.167 1.166s-1.166-.521-1.166-1.166c0-.646.521-1.168 1.166-1.168.129 0 .25.026.366.063l.002.002h.002l.531-.422.006-.004 2.651-2.099a.067.067 0 0 1 .086.004c.022.023.026.06.011.086l-2.02 2.812z"/></svg>