<svg viewBox="0 0 16 16" xmlns="http://www.w3.org/2000/svg"><path d="M13.66 2.34C12.15 0.83 10.14 0 8 0C5.86 0 3.85 0.83 2.34 2.34C0.83 3.85 0 5.86 0 8C0 10.14 0.83 12.15 2.34 13.66C2.63 13.95 3.11 13.95 3.4 13.66C3.69 13.37 3.69 12.89 3.4 12.6C2.18 11.37 1.5 9.74 1.5 8C1.5 6.26 2.18 4.63 3.4 3.4C4.62 2.17 6.26 1.5 8 1.5C9.74 1.5 11.37 2.18 12.6 3.4C13.83 4.62 14.5 6.26 14.5 8C14.5 9.74 13.82 11.37 12.6 12.6C12.31 12.89 12.31 13.37 12.6 13.66C12.75 13.81 12.94 13.88 13.13 13.88C13.32 13.88 13.51 13.81 13.66 13.66C15.17 12.14 16 10.14 16 8C16 5.86 15.17 3.85 13.66 2.34Z"/><path d="M9.98 14.5H6.02C5.61 14.5 5.27 14.84 5.27 15.25C5.27 15.66 5.6 16 6.02 16H9.98C10.39 16 10.73 15.66 10.73 15.25C10.73 14.84 10.39 14.5 9.98 14.5Z"/><path d="M10.83 4.11L9.06 5.89C8.74 5.73 8.38 5.63 8 5.63C6.69 5.63 5.62 6.69 5.62 8C5.62 9.31 6.69 10.37 8 10.37C9.31 10.37 10.38 9.31 10.38 8C10.38 7.62 10.28 7.26 10.12 6.94L11.89 5.17C12.18 4.88 12.18 4.4 11.89 4.11C11.6 3.82 11.12 3.82 10.83 4.11ZM8 8.88C7.52 8.88 7.12 8.49 7.12 8C7.12 7.51 7.52 7.13 8 7.13C8.48 7.13 8.88 7.52 8.88 8C8.88 8.48 8.48 8.88 8 8.88Z"/></svg>