<svg viewBox="0 0 16 16" xmlns="http://www.w3.org/2000/svg"><path d="M14.5 3.25C14.09 3.25 13.75 3.59 13.75 4V13C13.75 13.83 13.08 14.5 12.25 14.5H3.75C2.92 14.5 2.25 13.83 2.25 13V4C2.25 3.59 1.91 3.25 1.5 3.25C1.09 3.25 0.75 3.59 0.75 4V13C0.75 14.65 2.1 16 3.75 16H12.25C13.9 16 15.25 14.65 15.25 13V4C15.25 3.59 14.91 3.25 14.5 3.25Z"/><path d="M4 4.75V11.5C4 11.91 4.34 12.25 4.75 12.25C5.16 12.25 5.5 11.91 5.5 11.5V4.75C5.5 4.34 5.16 4 4.75 4C4.34 4 4 4.34 4 4.75Z"/><path d="M7.26 4.75V11.5C7.26 11.91 7.6 12.25 8.01 12.25C8.42 12.25 8.76 11.91 8.76 11.5V4.75C8.76 4.34 8.42 4 8.01 4C7.6 4 7.26 4.34 7.26 4.75Z"/><path d="M10.51 4.75V11.5C10.51 11.91 10.85 12.25 11.26 12.25C11.67 12.25 12.01 11.91 12.01 11.5V4.75C12.01 4.34 11.67 4 11.26 4C10.85 4 10.51 4.34 10.51 4.75Z"/><path d="M1.5 2.25H14.5C14.91 2.25 15.25 1.91 15.25 1.5C15.25 1.09 14.91 0.75 14.5 0.75H9.49V0.65C9.49 0.29 9.2 0 8.84 0H7.15C6.79 0 6.5 0.29 6.5 0.65V0.75H1.5C1.09 0.75 0.75 1.09 0.75 1.5C0.75 1.91 1.09 2.25 1.5 2.25Z"/></svg>