<svg viewBox="0 0 16 16" xmlns="http://www.w3.org/2000/svg"><path d="M14.25 2.5C14.6656 2.5 15 2.83594 15 3.25C15 3.66563 14.6656 4 14.25 4H13.8875L13.1375 14.1469C13.0594 15.1906 12.1906 16 11.1438 16H4.85625C3.81 16 2.94031 15.1906 2.86281 14.1469L2.11125 4H1.75C1.33594 4 1 3.66563 1 3.25C1 2.83594 1.33594 2.5 1.75 2.5H3.93187L5.07812 0.779375C5.40312 0.292406 5.95 0 6.53438 0H9.46562C10.05 0 10.5969 0.292438 10.9219 0.779375L12.0688 2.5H14.25ZM6.53438 1.5C6.45313 1.5 6.34688 1.54188 6.32812 1.61125L5.73438 2.5H10.2656L9.67188 1.61125C9.625 1.54188 9.54687 1.5 9.46562 1.5H6.53438ZM12.3844 4H3.61531L4.35938 14.0375C4.37813 14.2969 4.59688 14.5 4.85625 14.5H11.1438C11.4031 14.5 11.6219 14.2969 11.6406 14.0375L12.3844 4Z"/></svg>