<svg viewBox="0 0 16 16" xmlns="http://www.w3.org/2000/svg"><path d="M15.4 11.3571H0.6C0.26875 11.3571 0 11.7067 0 12.1339V12.6518C0 14.2215 0.98675 15.5 2.2 15.5H13.8C15.0133 15.5 16 14.2225 16 12.6518V12.1339C16 11.7067 15.7325 11.3571 15.4 11.3571ZM13.8 13.9464H2.2C1.71725 13.9464 1.313 13.5007 1.22 12.9107H14.78C14.6875 13.4998 14.2825 13.9464 13.8 13.9464ZM2.8 2.8125C2.8 2.6699 2.88985 2.55357 3 2.55357H13C13.1102 2.55357 13.2 2.6699 13.2 2.8125V10.3214H14.4V2.8125C14.4 1.81336 13.7725 1 13 1H3C2.22825 1 1.6 1.81336 1.6 2.8125V10.3214H2.8V2.8125Z"/></svg>