<svg viewBox="0 0 16 16" xmlns="http://www.w3.org/2000/svg"><path d="M11.5909 0H4.90909C3.85462 0 3 0.895313 3 2V14C3 15.1047 3.85462 16 4.90909 16H11.5909C12.6454 16 13.5 15.1047 13.5 14V2C13.5 0.895313 12.6439 0 11.5909 0ZM12.0682 14C12.0682 14.2757 11.8541 14.5 11.5909 14.5H4.90909C4.64599 14.5 4.43182 14.275 4.43182 14V2C4.43182 1.72431 4.64593 1.5 4.90909 1.5H11.5909C11.8534 1.5 12.0682 1.72438 12.0682 2V14ZM9.20455 12.5H7.29545C7.03188 12.5 6.81818 12.7239 6.81818 13C6.81818 13.2761 7.03188 13.5 7.29545 13.5H9.20455C9.46818 13.5 9.68182 13.2761 9.68182 13C9.68182 12.7239 9.46705 12.5 9.20455 12.5Z"/></svg>