<svg viewBox="0 0 16 16" xmlns="http://www.w3.org/2000/svg"><path d="M16 7.91C16 3.55 12.41 0 8 0C3.59 0 0 3.55 0 7.91V13C0 14.65 1.35 16 3 16H4.5C4.91 16 5.25 15.66 5.25 15.25V8.5C5.25 8.09 4.91 7.75 4.5 7.75H3C2.45 7.75 1.94 7.91 1.5 8.17V7.91C1.5 4.37 4.42 1.5 8 1.5C11.58 1.5 14.5 4.37 14.5 7.91V8.17C14.06 7.91 13.55 7.75 13 7.75H11.5C11.09 7.75 10.75 8.09 10.75 8.5V15.25C10.75 15.66 11.09 16 11.5 16H13C14.65 16 16 14.65 16 13V7.91ZM3 9.25H3.75V14.5H3C2.17 14.5 1.5 13.83 1.5 13V10.75C1.5 9.92 2.17 9.25 3 9.25ZM13 14.5H12.25V9.25H13C13.82 9.25 14.49 9.92 14.5 10.74V12.99C14.5 13.83 13.83 14.5 13 14.5Z"/></svg>