<svg viewBox="0 0 16 16" xmlns="http://www.w3.org/2000/svg"><path d="M10.5 16H5.5C3.98 16 2.75 14.77 2.75 13.25C2.75 12.84 3.09 12.5 3.5 12.5C3.91 12.5 4.25 12.84 4.25 13.25C4.25 13.94 4.81 14.5 5.5 14.5H10.5C11.19 14.5 11.75 13.94 11.75 13.25V2.75C11.75 2.06 11.19 1.5 10.5 1.5H5.5C4.81 1.5 4.25 2.06 4.25 2.75V10.75C4.25 11.16 3.91 11.5 3.5 11.5C3.09 11.5 2.75 11.16 2.75 10.75V2.75C2.75 1.23 3.98 0 5.5 0H10.5C12.02 0 13.25 1.23 13.25 2.75V13.25C13.25 14.77 12.02 16 10.5 16Z"/><path d="M8.75 4H7.25C6.83 4 6.5 3.66 6.5 3.25C6.5 2.84 6.83 2.5 7.25 2.5H8.75C9.16 2.5 9.5 2.84 9.5 3.25C9.5 3.66 9.17 4 8.75 4Z"/><path d="M8 14C8.55228 14 9 13.5523 9 13C9 12.4477 8.55228 12 8 12C7.44772 12 7 12.4477 7 13C7 13.5523 7.44772 14 8 14Z"/></svg>