<svg viewBox="0 0 16 16" xmlns="http://www.w3.org/2000/svg"><path d="M13 0.75H3C1.35 0.75 0 2.1 0 3.75V9.74C0 10.15 0.34 10.49 0.75 10.49C1.16 10.49 1.5 10.15 1.5 9.74V3.75C1.5 2.92 2.17 2.25 3 2.25H9.99V13.75H3C2.17 13.75 1.5 13.08 1.5 12.25C1.5 11.84 1.16 11.5 0.75 11.5C0.34 11.5 0 11.84 0 12.25C0 13.9 1.35 15.25 3 15.25H13C14.65 15.25 16 13.9 16 12.25V3.75C16 2.09 14.65 0.75 13 0.75ZM14.5 12.25C14.5 13.08 13.83 13.75 13 13.75H11.49V2.25H13C13.83 2.25 14.5 2.92 14.5 3.75V12.25Z"/><path d="M13 6.75C12.59 6.75 12.25 7.09 12.25 7.5V8.51C12.25 8.92 12.59 9.26 13 9.26C13.41 9.26 13.75 8.92 13.75 8.51V7.5C13.75 7.08 13.42 6.75 13 6.75Z"/></svg>