<svg viewBox="0 0 16 16" xmlns="http://www.w3.org/2000/svg"><path d="M12 9.75C11.59 9.75 11.25 9.41 11.25 9V4.83H4.75V9C4.75 9.41 4.41 9.75 4 9.75C3.59 9.75 3.25 9.42 3.25 9V4.08C3.25 3.67 3.59 3.33 4 3.33H12C12.41 3.33 12.75 3.67 12.75 4.08V9C12.75 9.42 12.41 9.75 12 9.75Z"/><path d="M14.59 9.75C14.18 9.75 13.84 9.41 13.84 9V3C13.84 2.59 13.5 2.25 13.09 2.25H2.91C2.5 2.25 2.16 2.58 2.16 3V9C2.16 9.41 1.82 9.75 1.41 9.75C1 9.75 0.66 9.42 0.66 9V3C0.66 1.76 1.67 0.75 2.91 0.75H13.09C14.33 0.75 15.34 1.76 15.34 3V9C15.34 9.42 15 9.75 14.59 9.75Z"/><path d="M14.5 15.25H1.5C0.67 15.25 0 14.58 0 13.75V12.25C0 11.42 0.67 10.75 1.5 10.75H6.01C6.21 10.75 6.4 10.83 6.54 10.97L7.32 11.75H8.68L9.46 10.97C9.6 10.83 9.79 10.75 9.99 10.75H14.5C15.33 10.75 16 11.42 16 12.25V13.75C16 14.58 15.33 15.25 14.5 15.25ZM1.5 12.25V13.75H14.5V12.25H10.3L9.52 13.03C9.38 13.17 9.19 13.25 8.99 13.25H7.01C6.81 13.25 6.62 13.17 6.48 13.03L5.7 12.25H1.5Z"/></svg>