<svg viewBox="0 0 16 16" xmlns="http://www.w3.org/2000/svg"><g clip-path="url(#clip0_1_941)"><path d="M14.2222 0H1.77778C0.795833 0 0 0.895313 0 2V11C0 12.1047 0.795833 13 1.77778 13H5.89722L5.63056 14.5H4.22222C3.85556 14.5 3.55556 14.8375 3.55556 15.25C3.55556 15.6625 3.85556 16 4.22222 16H11.7778C12.1458 16 12.4444 15.6641 12.4444 15.25C12.4444 14.8359 12.1458 14.5 11.7778 14.5H10.3686L10.1028 13H14.2222C15.2042 13 16 12.1047 16 11V2C16 0.895313 15.2028 0 14.2222 0ZM9.00833 14.5H6.99167L7.25833 13H8.74333L9.00833 14.5ZM14.6667 11C14.6667 11.2757 14.4673 11.5 14.2222 11.5H1.77778C1.53272 11.5 1.33333 11.2757 1.33333 11V9.5H14.6667V11ZM14.6667 8H1.33333V2C1.33333 1.72431 1.53272 1.5 1.77778 1.5H14.2222C14.4673 1.5 14.6667 1.72431 14.6667 2V8Z"/></g><defs><clipPath><rect/></clipPath></defs></svg>