<svg viewBox="0 0 16 16" xmlns="http://www.w3.org/2000/svg"><path d="M13.88 0H2.12C0.95 0 0 0.95 0 2.12V10.39C0 11.56 0.95 12.51 2.12 12.51H5.75V14.51H5C4.59 14.51 4.25 14.85 4.25 15.26C4.25 15.67 4.59 16 5 16H11C11.41 16 11.75 15.66 11.75 15.25C11.75 14.84 11.42 14.5 11 14.5H10.25V11.75C10.25 11.34 9.91 11 9.5 11H2.12C1.78 11 1.5 10.72 1.5 10.38V2.12C1.5 1.78 1.78 1.5 2.12 1.5H13.88C14.22 1.5 14.5 1.78 14.5 2.12V10.39C14.5 10.73 14.22 11.01 13.88 11.01H12C11.59 11.01 11.25 11.35 11.25 11.76C11.25 12.17 11.59 12.5 12 12.5H13.88C15.05 12.5 16 11.55 16 10.38V2.12C16 0.95 15.05 0 13.88 0ZM8.75 14.5H7.25V12.5H8.75V14.5Z"/><path d="M13.37 3.5C13.37 3.09 13.03 2.75 12.62 2.75H3.38C2.97 2.75 2.63 3.09 2.63 3.5C2.63 3.91 2.97 4.25 3.38 4.25H12.61C13.03 4.25 13.37 3.91 13.37 3.5Z"/><path d="M4.7 5.5H3.38C2.97 5.5 2.63 5.84 2.63 6.25C2.63 6.66 2.97 7 3.38 7H4.7C5.11 7 5.45 6.66 5.45 6.25C5.45 5.84 5.12 5.5 4.7 5.5Z"/><path d="M4.7 8.25H3.38C2.97 8.25 2.63 8.58 2.63 9C2.63 9.42 2.97 9.75 3.38 9.75H4.7C5.11 9.75 5.45 9.41 5.45 9C5.45 8.59 5.12 8.25 4.7 8.25Z"/></svg>