<svg viewBox="0 0 16 16" xmlns="http://www.w3.org/2000/svg"><path d="M13.4286 0H3.07143C1.92729 0 1 0.895313 1 2V14C1 15.1047 1.92729 16 3.07143 16H13.4286C14.5727 16 15.5 15.1047 15.5 14V2C15.5 0.895313 14.5711 0 13.4286 0ZM13.9464 14C13.9464 14.2757 13.7141 14.5 13.4286 14.5H3.07143C2.7859 14.5 2.55357 14.2757 2.55357 14V2C2.55357 1.72431 2.7859 1.5 3.07143 1.5H13.4286C13.7141 1.5 13.9464 1.72431 13.9464 2V14ZM9.28571 12.5H7.21429C6.9283 12.5 6.69643 12.7239 6.69643 13C6.69643 13.2761 6.9283 13.5 7.21429 13.5H9.28571C9.57177 13.5 9.80357 13.2761 9.80357 13C9.80357 12.7239 9.57054 12.5 9.28571 12.5Z"/></svg>