<svg viewBox="0 0 16 16" xmlns="http://www.w3.org/2000/svg"><path d="M12.9375 0H3.5625C2.69946 0 2 1.02321 2 2.28571V4.57143C2 5.83393 2.69946 6.85714 3.5625 6.85714H12.9375C13.8005 6.85714 14.5 5.83393 14.5 4.57143V2.28571C14.5 1.02321 13.7993 0 12.9375 0ZM13.3281 4.57143C13.3281 4.8865 13.1529 5.14286 12.9375 5.14286H3.5625C3.34717 5.14286 3.17188 4.88571 3.17188 4.57143V2.28571C3.17188 1.97064 3.34712 1.71429 3.5625 1.71429H12.9375C13.1529 1.71429 13.3281 1.97064 13.3281 2.28571V4.57143ZM12.9375 9.14286H3.5625C2.69946 9.14286 2 10.1661 2 11.4286V13.7143C2 14.9768 2.69946 16 3.5625 16H12.9375C13.8005 16 14.5 14.9768 14.5 13.7143V11.4286C14.5 10.1679 13.7993 9.14286 12.9375 9.14286ZM13.3281 13.7143C13.3281 14.0294 13.1529 14.2857 12.9375 14.2857H3.5625C3.34712 14.2857 3.17188 14.0294 3.17188 13.7143V11.4286C3.17188 11.1135 3.34712 10.8571 3.5625 10.8571H12.9375C13.1529 10.8571 13.3281 11.1135 13.3281 11.4286V13.7143ZM10.5938 2.57143C10.2703 2.57143 10.0078 2.955 10.0078 3.42857C10.0078 3.90179 10.2703 4.28571 10.5938 4.28571C10.9172 4.28571 11.1797 3.90357 11.1797 3.42857C11.1797 2.95357 10.9185 2.57143 10.5938 2.57143ZM12.1562 2.57143C11.8328 2.57143 11.5703 2.955 11.5703 3.42857C11.5703 3.90179 11.8328 4.28571 12.1562 4.28571C12.4797 4.28571 12.7422 3.90357 12.7422 3.42857C12.7422 2.95357 12.481 2.57143 12.1562 2.57143ZM10.5938 11.7143C10.2703 11.7143 10.0078 12.0979 10.0078 12.5714C10.0078 13.0446 10.2703 13.4286 10.5938 13.4286C10.9172 13.4286 11.1797 13.0446 11.1797 12.5714C11.1797 12.0964 10.9185 11.7143 10.5938 11.7143ZM12.1562 11.7143C11.8328 11.7143 11.5703 12.0979 11.5703 12.5714C11.5703 13.0446 11.8328 13.4286 12.1562 13.4286C12.4797 13.4286 12.7422 13.0446 12.7422 12.5714C12.7422 12.0964 12.481 11.7143 12.1562 11.7143Z"/></svg>