<svg viewBox="0 0 16 16" xmlns="http://www.w3.org/2000/svg"><path d="M14 1H2C0.895313 1 0 1.89531 0 3V5C0 6.10469 0.895313 7 2 7H14C15.1047 7 16 6.10469 16 5V3C16 1.89531 15.1031 1 14 1ZM14.5 5C14.5 5.27569 14.2757 5.5 14 5.5H2C1.72438 5.5 1.5 5.275 1.5 5V3C1.5 2.72431 1.72431 2.5 2 2.5H14C14.2757 2.5 14.5 2.72431 14.5 3V5ZM14 9H2C0.895313 9 0 9.89531 0 11V13C0 14.1047 0.895313 15 2 15H14C15.1047 15 16 14.1047 16 13V11C16 9.89688 15.1031 9 14 9ZM14.5 13C14.5 13.2757 14.2757 13.5 14 13.5H2C1.72431 13.5 1.5 13.2757 1.5 13V11C1.5 10.7243 1.72431 10.5 2 10.5H14C14.2757 10.5 14.5 10.7243 14.5 11V13ZM11 3.25C10.5859 3.25 10.25 3.58562 10.25 4C10.25 4.41406 10.5859 4.75 11 4.75C11.4141 4.75 11.75 4.41563 11.75 4C11.75 3.58437 11.4156 3.25 11 3.25ZM13 3.25C12.5859 3.25 12.25 3.58562 12.25 4C12.25 4.41406 12.5859 4.75 13 4.75C13.4141 4.75 13.75 4.41563 13.75 4C13.75 3.58437 13.4156 3.25 13 3.25ZM11 11.25C10.5859 11.25 10.25 11.5856 10.25 12C10.25 12.4141 10.5859 12.75 11 12.75C11.4141 12.75 11.75 12.4141 11.75 12C11.75 11.5844 11.4156 11.25 11 11.25ZM13 11.25C12.5859 11.25 12.25 11.5856 12.25 12C12.25 12.4141 12.5859 12.75 13 12.75C13.4141 12.75 13.75 12.4141 13.75 12C13.75 11.5844 13.4156 11.25 13 11.25Z"/></svg>