<svg viewBox="0 0 16 16" xmlns="http://www.w3.org/2000/svg"><path d="M4.5 9.28571C4.5 7.28225 6.06563 5.66071 8 5.66071C9.93437 5.66071 11.5 7.28225 11.5 9.28571C11.5 11.2892 9.93437 12.9107 8 12.9107C6.06563 12.9107 4.5 11.2892 4.5 9.28571ZM8 7.21429C6.89687 7.21429 6 8.14319 6 9.28571C6 10.4282 6.89687 11.3571 8 11.3571C9.10312 11.3571 10 10.4282 10 9.28571C10 8.14319 9.10312 7.21429 8 7.21429ZM11.3406 2.06225L11.6656 3.07143H14C15.1031 3.07143 16 4.00033 16 5.14286V13.4286C16 14.5711 15.1031 15.5 14 15.5H2C0.895313 15.5 0 14.5711 0 13.4286V5.14286C0 4.00033 0.895313 3.07143 2 3.07143H4.33437L4.65938 2.06225C4.8625 1.42788 5.43438 1 6.08125 1H9.91875C10.5656 1 11.1375 1.42788 11.3406 2.06225ZM2 4.625C1.72375 4.625 1.5 4.85804 1.5 5.14286V13.4286C1.5 13.7134 1.72375 13.9464 2 13.9464H14C14.275 13.9464 14.5 13.7134 14.5 13.4286V5.14286C14.5 4.85804 14.275 4.625 14 4.625H10.5844L9.91875 2.55357H6.08125L5.41563 4.625H2Z"/></svg>