<svg viewBox="0 0 16 16" xmlns="http://www.w3.org/2000/svg"><path d="M11 16H5C3.21 16 1.75 14.54 1.75 12.75V3.25C1.75 1.46 3.21 0 5 0H11C12.79 0 14.25 1.46 14.25 3.25V12.75C14.25 14.54 12.79 16 11 16ZM5 1.5C4.04 1.5 3.25 2.29 3.25 3.25V12.75C3.25 13.71 4.04 14.5 5 14.5H11C11.96 14.5 12.75 13.71 12.75 12.75V3.25C12.75 2.29 11.96 1.5 11 1.5H5Z"/><path d="M10.5 5.25H5.5C5.09 5.25 4.75 4.91 4.75 4.5C4.75 4.09 5.09 3.75 5.5 3.75H10.5C10.91 3.75 11.25 4.09 11.25 4.5C11.25 4.91 10.91 5.25 10.5 5.25Z"/><path d="M10.5 8.25H5.5C5.09 8.25 4.75 7.91 4.75 7.5C4.75 7.09 5.09 6.75 5.5 6.75H10.5C10.91 6.75 11.25 7.09 11.25 7.5C11.25 7.91 10.91 8.25 10.5 8.25Z"/><path d="M8 13C8.55228 13 9 12.5523 9 12C9 11.4477 8.55228 11 8 11C7.44772 11 7 11.4477 7 12C7 12.5523 7.44772 13 8 13Z"/></svg>