<svg viewBox="0 0 16 16" xmlns="http://www.w3.org/2000/svg"><path d="M8 0C3.52812 0 0.142594 4.25357 0 9.14286L0.00013125 13.1393C0.00013125 13.1692 0.0110469 13.1972 0.0148906 13.2259C0.0927813 14.7714 1.20281 16 2.57375 16C3.3625 16 4 15.2714 4 14.3714V9.63571C4 8.73214 3.35938 8 2.57031 8C2.20844 8 1.86531 8.08572 1.55313 8.23929C1.94469 4.56786 4.68438 1.71929 8 1.71893C11.3156 1.71942 14.0562 4.56857 14.4469 8.24036C14.1344 8.08572 13.7906 8 13.4312 8C12.6406 8 12 8.73214 12 9.63571V14.3714C12 15.2714 12.6375 16 13.425 16C14.7959 16 15.9059 14.7718 15.9838 13.2271C15.9876 13.1985 15.9985 13.1705 15.9985 13.1406L16 9.13929C15.8563 4.25 12.4719 0 8 0ZM2.5 9.71786V14.2821C1.94219 14.2388 1.5 13.7064 1.5 13.0579V10.9368C1.5 10.2893 1.9425 9.75714 2.5 9.71786ZM13.5 14.2821V9.71786C14.0575 9.75943 14.5 10.2911 14.5 10.9386V13.0596C14.5 13.7071 14.0562 14.2393 13.5 14.2821Z"/></svg>