<svg viewBox="0 0 16 16" xmlns="http://www.w3.org/2000/svg"><path d="M14 15.25H2C0.9 15.25 0 14.35 0 13.25V4.75C0 3.65 0.9 2.75 2 2.75H3.7C3.87 2.75 4.03 2.66 4.12 2.52L4.67 1.67C5.04 1.1 5.67 0.75 6.35 0.75H9.65C10.33 0.75 10.96 1.09 11.33 1.67L11.88 2.52C11.97 2.66 12.13 2.75 12.3 2.75H14C15.1 2.75 16 3.65 16 4.75V13.25C16 14.35 15.1 15.25 14 15.25ZM2 4.25C1.72 4.25 1.5 4.47 1.5 4.75V13.25C1.5 13.53 1.72 13.75 2 13.75H14C14.28 13.75 14.5 13.53 14.5 13.25V4.75C14.5 4.47 14.28 4.25 14 4.25H12.3C11.62 4.25 10.99 3.91 10.62 3.33L10.07 2.48C9.98 2.33 9.82 2.25 9.65 2.25H6.35C6.18 2.25 6.02 2.34 5.93 2.48L5.38 3.33C5.01 3.9 4.38 4.25 3.7 4.25H2Z"/><path d="M13 7C13.5523 7 14 6.55228 14 6C14 5.44772 13.5523 5 13 5C12.4477 5 12 5.44772 12 6C12 6.55228 12.4477 7 13 7Z"/><path d="M8 12.75C5.79 12.75 4 10.96 4 8.75C4 8.21 4.1 7.69 4.31 7.19C4.47 6.81 4.91 6.63 5.29 6.79C5.67 6.95 5.85 7.39 5.69 7.77C5.57 8.08 5.5 8.41 5.5 8.75C5.5 10.13 6.62 11.25 8 11.25C9.38 11.25 10.5 10.13 10.5 8.75C10.5 7.37 9.38 6.25 8 6.25C7.66 6.25 7.34 6.32 7.03 6.44C6.65 6.6 6.21 6.42 6.05 6.04C5.89 5.66 6.07 5.22 6.45 5.06C6.94 4.85 7.46 4.75 8 4.75C10.21 4.75 12 6.54 12 8.75C12 10.96 10.21 12.75 8 12.75Z"/></svg>