<svg viewBox="0 0 16 16" xmlns="http://www.w3.org/2000/svg"><path d="M7.99982 9.71C7.58982 9.71 7.24982 9.37 7.24982 8.96V0.75C7.24982 0.34 7.58982 0 7.99982 0C8.40982 0 8.74982 0.34 8.74982 0.75V8.96C8.74982 9.38 8.41982 9.71 7.99982 9.71Z"/><path d="M7.99982 13.25C7.80982 13.25 7.61982 13.18 7.46982 13.03L2.96982 8.53C2.67982 8.24 2.67982 7.76 2.96982 7.47C3.25982 7.18 3.73982 7.18 4.02982 7.47L7.99982 11.44L11.9698 7.47C12.2598 7.18 12.7398 7.18 13.0298 7.47C13.3198 7.76 13.3198 8.24 13.0298 8.53L8.52982 13.03C8.38982 13.18 8.19982 13.25 7.99982 13.25Z"/><path d="M13.9298 16H2.06982C1.65982 16 1.31982 15.66 1.31982 15.25C1.31982 14.84 1.65982 14.5 2.06982 14.5H13.9398C14.3498 14.5 14.6898 14.84 14.6898 15.25C14.6898 15.66 14.3498 16 13.9298 16Z"/></svg>