<svg viewBox="0 0 16 16" xmlns="http://www.w3.org/2000/svg"><path d="M13.5344 14.2536H1.83562C1.37429 14.2536 1 14.6379 1 15.1114C1 15.6143 1.37429 16 1.83562 16H13.5344C13.9957 16 14.37 15.6157 14.37 15.1421C14.37 14.6679 13.9974 14.2536 13.5344 14.2536ZM11.5324 6.275L8.52062 9.56071V0.860714C8.52062 0.384286 8.14808 0 7.685 0C7.22192 0 6.84937 0.384286 6.84937 0.857857V9.55786L3.8366 6.275C3.67226 6.09286 3.45047 6.00357 3.22833 6.00357C3.0227 6.00357 2.81714 6.08064 2.65593 6.237C2.31973 6.56089 2.30357 7.10379 2.62003 7.44879L7.0767 12.3095C7.39222 12.6557 7.97778 12.6557 8.29323 12.3095L12.7499 7.44879C13.0665 7.10368 13.0502 6.56093 12.714 6.237C12.3784 5.91071 11.8492 5.89643 11.5324 6.275Z"/></svg>