<svg viewBox="0 0 16 16" xmlns="http://www.w3.org/2000/svg"><path d="M13.8494 14.2536H2.15063C1.68929 14.2536 1.315 14.6379 1.315 15.1114C1.315 15.6143 1.68929 16 2.15063 16H13.8494C14.3107 16 14.685 15.6157 14.685 15.1421C14.685 14.6679 14.3125 14.2536 13.8494 14.2536ZM11.8474 6.275L8.83563 9.56072V0.860714C8.83563 0.384286 8.46308 0 8 0C7.53693 0 7.16438 0.384286 7.16438 0.857857V9.55786L4.1516 6.275C3.98726 6.09286 3.76547 6.00357 3.54334 6.00357C3.3377 6.00357 3.13214 6.08064 2.97093 6.237C2.63473 6.56089 2.61858 7.10379 2.93504 7.44879L7.3917 12.3095C7.70722 12.6557 8.29278 12.6557 8.60823 12.3095L13.0649 7.44879C13.3815 7.10368 13.3652 6.56093 13.029 6.237C12.6934 5.91071 12.1642 5.89643 11.8474 6.275Z"/></svg>