<svg viewBox="0 0 16 16" xmlns="http://www.w3.org/2000/svg"><path d="M15.7703 9.28484V7.60739C15.7441 6.82087 15.6466 6.03834 15.4789 5.26947C15.3433 4.7047 15.1286 4.1619 14.8413 3.65715C14.2363 2.54575 13.3327 1.62556 12.2325 1.00042C11.1066 0.343345 9.82589 -0.00178052 8.52225 0.000577578C6.8858 -0.0200126 5.29 0.510448 3.99153 1.50663C2.31383 2.9208 1.243 4.92504 1 7.10575C1.79789 5.96177 2.81467 4.98732 3.99153 4.23877C5.24298 3.49551 6.66489 3.08739 8.12003 3.05381C8.56548 3.02181 9.01249 3.08911 9.42877 3.25086C9.84505 3.41261 10.2202 3.66477 10.5272 3.98914C10.8342 4.3135 11.0653 4.70199 11.2039 5.12654C11.3425 5.55109 11.3851 6.00112 11.3287 6.44414H5.65413C5.7176 5.9827 5.83931 5.53117 6.01636 5.10035C6.20906 4.66693 6.45927 4.26144 6.76024 3.89483C5.7894 4.33133 4.92384 4.97163 4.22235 5.77225C3.32864 6.85875 2.84637 8.22544 2.86028 9.63221C2.84255 10.2481 2.91062 10.8634 3.06253 11.4605C3.27187 12.1322 3.58535 12.7669 3.99153 13.3413C4.78322 14.4428 5.91002 15.2585 7.2036 15.6667C8.00455 15.9045 8.83762 16.0163 9.67293 15.9981C11.3295 16.0188 12.9642 15.6177 14.423 14.8325V11.4605C13.9195 11.7961 13.373 12.0621 12.7982 12.2512C11.9319 12.5566 11.0158 12.6954 10.098 12.6603C5.47587 12.6603 5.71926 9.28484 5.71926 9.28484H15.7703Z"/></svg>