<svg viewBox="0 0 16 16" xmlns="http://www.w3.org/2000/svg"><path d="M0 7.1015L0.0113987 7.08602C0.0113987 7.09118 0.0113987 7.09634 0.00911896 7.1015H0ZM15 7.60179C15 6.18253 14.7473 4.87745 14.0617 3.65366C12.7271 1.28639 10.363 1.79391e-05 7.59412 1.79391e-05C3.03824 -0.00901374 0.485583 3.39367 0.0113987 7.08602C1.39292 5.1084 3.82409 3.17078 7.18833 3.05402C7.18833 3.05402 10.76 3.05402 10.4262 6.4409H4.69918C4.90664 5.23484 5.30331 4.53779 5.81756 3.89493C3.37336 5.02067 1.84919 6.99473 1.88501 9.96938C1.91205 12.2741 3.51763 14.6413 5.81756 15.5174C8.53207 16.5444 12.0956 15.7497 13.638 14.8294V11.4609C11.0043 13.283 4.81643 13.4259 4.77116 9.28136H15V7.60179Z"/></svg>