<svg viewBox="0 0 16 16" xmlns="http://www.w3.org/2000/svg"><g clip-path="url(#clip0)"><path d="M1.41022 15.9999C1.04022 15.9999 0.68022 15.8499 0.41022 15.5899C0.0902199 15.2699 -0.0597801 14.7999 0.0202199 14.3499L0.48022 11.7199C0.55022 11.2999 0.75022 10.9099 1.06022 10.6099L9.29022 2.37994C9.58022 2.08994 10.0602 2.08994 10.3502 2.37994C10.6402 2.66994 10.6402 3.14994 10.3502 3.43994L2.12022 11.6699C2.04022 11.7499 1.98022 11.8599 1.96022 11.9799L1.52022 14.4799L4.02022 14.0399C4.14022 14.0199 4.24022 13.9699 4.33022 13.8799L14.3302 3.87994C14.5502 3.65994 14.5502 3.29994 14.3302 3.07994L12.9202 1.66994C12.7002 1.44994 12.3402 1.44994 12.1202 1.66994C11.8302 1.95994 11.3502 1.95994 11.0602 1.66994C10.7702 1.37994 10.7702 0.899941 11.0602 0.609941C11.8702 -0.200059 13.1802 -0.200059 13.9802 0.609941L15.3902 2.01994C16.2002 2.82994 16.2002 4.13994 15.3902 4.94994L5.39022 14.9499C5.09022 15.2499 4.70022 15.4499 4.28022 15.5199L1.65022 15.9799C1.57022 15.9899 1.49022 15.9999 1.41022 15.9999Z"/></g><defs><clipPath><rect/></clipPath></defs></svg>