<svg viewBox="0 0 16 16" xmlns="http://www.w3.org/2000/svg"><path d="M14.1176 1C13.0779 1 12.2353 1.9113 12.2353 3.03571C12.2353 4.16013 13.0779 5.07143 14.1176 5.07143C15.1574 5.07143 16 4.16013 16 3.03571C16 1.9113 15.1559 1 14.1176 1ZM13.4176 5.98432L8.74412 10.1989C8.06206 10.8121 6.99882 10.8118 6.31853 10.1994L1.41176 5.77757V5.07143C1.41176 4.79082 1.62288 4.5625 1.88235 4.5625H11.6853C11.4441 4.11178 11.2941 3.5949 11.2941 3.03571H1.88235C0.842647 3.03571 0 3.94701 0 5.07143V13.2143C0 14.3387 0.842647 15.25 1.88235 15.25H13.1765C14.2162 15.25 15.0588 14.3387 15.0588 13.2143V5.90162C14.7618 6.01613 14.45 6.08929 14.1176 6.08929C13.8735 6.08929 13.6441 6.04475 13.4176 5.98432ZM13.6471 13.2143C13.6471 13.4949 13.4359 13.7232 13.1765 13.7232H1.88235C1.62288 13.7232 1.41176 13.4949 1.41176 13.2143V7.76557L5.41471 11.3726C6.00882 11.9038 6.75882 12.1964 7.52941 12.1964C8.3 12.1964 9.05147 11.9043 9.64618 11.3701L13.6471 7.76557V13.2143Z"/></svg>