<svg viewBox="0 0 16 16" xmlns="http://www.w3.org/2000/svg"><g clip-path="url(#clip0_60_2421)"><path d="M15.25 7.9002C15.0511 7.9002 14.8603 7.97922 14.7197 8.11987C14.579 8.26052 14.5 8.45129 14.5 8.6502V13.0002C14.5 13.0995 14.4803 13.1979 14.442 13.2895C14.4037 13.3812 14.3475 13.4643 14.2768 13.5341C14.2061 13.6039 14.1222 13.6589 14.0301 13.696C13.9379 13.7331 13.8393 13.7515 13.74 13.7502H2.26C2.16067 13.7515 2.06207 13.7331 1.96992 13.696C1.87776 13.6589 1.7939 13.6039 1.72319 13.5341C1.65249 13.4643 1.59635 13.3812 1.55803 13.2895C1.51972 13.1979 1.49999 13.0995 1.5 13.0002V5.5802L6.41 9.7702C6.78074 10.0875 7.24458 10.2757 7.7316 10.3063C8.21861 10.337 8.70239 10.2085 9.11 9.9402L10.11 9.2802C10.2649 9.17092 10.3727 9.00702 10.4116 8.82149C10.4506 8.63596 10.4179 8.44256 10.32 8.2802C10.2123 8.12334 10.0483 8.014 9.86206 7.9749C9.67584 7.93579 9.48171 7.96992 9.32 8.0702L8.32 8.7302C8.18378 8.81917 8.02232 8.86144 7.85997 8.85062C7.69763 8.83979 7.54321 8.77647 7.42 8.6702L1.53 3.6702V3.2502C1.53263 3.05037 1.61386 2.85962 1.7561 2.71925C1.89835 2.57888 2.09016 2.50018 2.29 2.5002H7.29C7.48891 2.5002 7.67968 2.42118 7.82033 2.28053C7.96098 2.13988 8.04 1.94911 8.04 1.7502C8.04 1.55129 7.96098 1.36052 7.82033 1.21987C7.67968 1.07922 7.48891 1.0002 7.29 1.0002H2.29C1.99154 0.996234 1.69525 1.05143 1.41823 1.16261C1.14122 1.27378 0.888974 1.43873 0.676059 1.64792C0.463144 1.85712 0.293778 2.10642 0.177741 2.38143C0.0617042 2.65644 0.00129441 2.95171 0 3.2502L0 13.0002C0.00264452 13.5979 0.241918 14.1701 0.665464 14.5918C1.08901 15.0135 1.66234 15.2502 2.26 15.2502H13.74C14.3377 15.2502 14.911 15.0135 15.3345 14.5918C15.7581 14.1701 15.9974 13.5979 16 13.0002V8.6502C15.9974 8.45209 15.9176 8.26283 15.7775 8.12273C15.6374 7.98264 15.4481 7.90279 15.25 7.9002V7.9002Z"/><path d="M16 2.50005C15.9433 2.35258 15.8431 2.22581 15.7128 2.13653C15.5824 2.04724 15.428 1.99965 15.27 2.00005L13.77 1.92005L13.24 0.500051C13.1845 0.351767 13.0846 0.224199 12.954 0.134727C12.8234 0.0452545 12.6684 -0.00177292 12.51 5.11223e-05V5.11223e-05C12.3544 -0.000548678 12.2025 0.0472557 12.0753 0.136841C11.9481 0.226427 11.8519 0.353359 11.8 0.500051L11.26 1.89005L9.76003 2.00005C9.60424 2.0084 9.45466 2.06388 9.3311 2.15914C9.20754 2.2544 9.11584 2.38495 9.06813 2.53349C9.02043 2.68204 9.01897 2.84157 9.06395 2.99096C9.10893 3.14035 9.19823 3.27255 9.32003 3.37005L10.47 4.31005L10.08 5.77005C10.0411 5.92103 10.049 6.08027 10.1026 6.22669C10.1561 6.3731 10.2529 6.49981 10.38 6.59005C10.5091 6.67521 10.6604 6.7206 10.815 6.7206C10.9697 6.7206 11.1209 6.67521 11.25 6.59005L12.51 5.77005L13.77 6.59005C13.8964 6.66776 14.0417 6.70927 14.19 6.71005C14.3553 6.70939 14.5162 6.65693 14.65 6.56005C14.7754 6.46852 14.8701 6.34125 14.9219 6.19492C14.9736 6.04859 14.98 5.89004 14.94 5.74005L14.55 4.30005L15.71 3.30005C15.8337 3.21178 15.9277 3.08802 15.9795 2.94516C16.0313 2.8023 16.0384 2.64708 16 2.50005V2.50005ZM13.81 3.60005C13.6917 3.69213 13.6037 3.81757 13.5573 3.96017C13.511 4.10277 13.5084 4.25599 13.55 4.40005L13.82 5.40005L12.93 4.82005C12.8042 4.74106 12.6586 4.69915 12.51 4.69915C12.3614 4.69915 12.2159 4.74106 12.09 4.82005L11.2 5.40005L11.46 4.40005C11.5128 4.25251 11.518 4.09216 11.475 3.9415C11.4319 3.79084 11.3428 3.65745 11.22 3.56005L10.41 2.90005H11.41C11.5611 2.89261 11.7068 2.84138 11.8293 2.7526C11.9519 2.66382 12.0459 2.54133 12.1 2.40005L12.48 1.40005L12.85 2.40005C12.9035 2.53985 12.996 2.66132 13.1166 2.74997C13.2371 2.83863 13.3807 2.89073 13.53 2.90005H14.53L13.81 3.60005Z"/></g><defs><clipPath><rect/></clipPath></defs></svg>