<svg viewBox="0 0 16 16" xmlns="http://www.w3.org/2000/svg"><path d="M3.38978 8.74989C3.19978 8.55989 2.91979 8.47989 2.65978 8.54989C2.39978 8.61989 2.19978 8.82989 2.12978 9.08989L0.749785 14.3399C0.679785 14.5999 0.759785 14.8699 0.939785 15.0599C1.07978 15.1999 1.26978 15.2799 1.46978 15.2799C1.52978 15.2799 1.59978 15.2699 1.65978 15.2599L6.90978 13.8799C7.16978 13.8099 7.36978 13.6099 7.43979 13.3499C7.50979 13.0899 7.43979 12.8099 7.24978 12.6199L3.38978 8.74989Z"/><path d="M15.0598 0.939888C14.8698 0.749888 14.5998 0.679888 14.3398 0.739888L9.08979 2.12989C8.82979 2.19989 8.62979 2.39989 8.55979 2.65989C8.48979 2.91989 8.55978 3.19989 8.74978 3.38989L12.6198 7.25989C12.7598 7.39989 12.9498 7.47989 13.1498 7.47989C13.2198 7.47989 13.2798 7.46989 13.3498 7.44989C13.6098 7.37989 13.8098 7.17989 13.8798 6.91989L15.2598 1.66989C15.3298 1.40989 15.2498 1.12989 15.0598 0.939888Z"/></svg>