<svg viewBox="0 0 16 16" xmlns="http://www.w3.org/2000/svg"><path d="M14.5938 14.2537H1.90625C1.40592 14.2537 1 14.638 1 15.1115C1 15.6143 1.40592 16 1.90625 16H14.5938C15.0941 16 15.5 15.6157 15.5 15.1422C15.5 14.668 15.096 14.2537 14.5938 14.2537ZM4.07634 6.29722L7.34375 3.01177V11.7111C7.34375 12.1846 7.74967 12.5699 8.25 12.5699C8.75033 12.5699 9.15625 12.1846 9.15625 11.7111V3.01177L12.4237 6.29651C12.6038 6.47578 12.8417 6.56505 13.0833 6.56505C13.3063 6.56505 13.5293 6.48799 13.7041 6.33165C14.0687 6.00781 14.0863 5.46493 13.743 5.11996L8.90971 0.25964C8.56753 -0.0865465 7.93247 -0.0865465 7.59036 0.25964L2.75703 5.11996C2.41375 5.46514 2.4315 6.00796 2.79589 6.33293C3.15952 6.6579 3.7331 6.61148 4.07634 6.29722Z"/></svg>