<svg viewBox="0 0 16 16" xmlns="http://www.w3.org/2000/svg"><g clip-path="url(#clip0)"><path d="M8 13.25C7.59 13.25 7.25 12.91 7.25 12.5V4.28995C7.25 3.87995 7.59 3.53995 8 3.53995C8.41 3.53995 8.75 3.87995 8.75 4.28995V12.5C8.75 12.91 8.42 13.25 8 13.25Z"/><path d="M12.5 6.00995C12.31 6.00995 12.12 5.93995 11.97 5.78995L8 1.81995L4.03 5.78995C3.74 6.07995 3.26 6.07995 2.97 5.78995C2.68 5.49995 2.68 5.01995 2.97 4.72995L7.47 0.229951C7.76 -0.0600488 8.24 -0.0600488 8.53 0.229951L13.03 4.72995C13.32 5.01995 13.32 5.49995 13.03 5.78995C12.89 5.92995 12.7 6.00995 12.5 6.00995Z"/><path d="M14.5 16.01H1.5C1.09 16.01 0.75 15.67 0.75 15.26V10.5C0.75 10.09 1.09 9.74995 1.5 9.74995C1.91 9.74995 2.25 10.09 2.25 10.5V14.51H13.75V10.5C13.75 10.09 14.09 9.74995 14.5 9.74995C14.91 9.74995 15.25 10.09 15.25 10.5V15.26C15.25 15.67 14.92 16.01 14.5 16.01Z"/></g><defs><clipPath><rect/></clipPath></defs></svg>