<svg viewBox="0 0 16 16" xmlns="http://www.w3.org/2000/svg"><path d="M4.71 12.04C4.52 12.04 4.33 11.97 4.18 11.82C3.89 11.53 3.89 11.05 4.18 10.76L12.44 2.5C12.73 2.21 13.21 2.21 13.5 2.5C13.79 2.79 13.79 3.27 13.5 3.56L5.24 11.82C5.09 11.97 4.9 12.04 4.71 12.04Z"/><path d="M15.25 7.96C14.84 7.96 14.5 7.62 14.5 7.21V1.5H8.79C8.38 1.5 8.04 1.16 8.04 0.75C8.04 0.34 8.38 0 8.79 0H15.25C15.67 0 16 0.33 16 0.75V7.21C16 7.62 15.67 7.96 15.25 7.96Z"/><path d="M11.95 16H0.75C0.34 16 0 15.66 0 15.25V4.05C0 3.63 0.34 3.3 0.75 3.3H6.68C7.09 3.3 7.43 3.64 7.43 4.05C7.43 4.46 7.1 4.8 6.68 4.8H1.5V14.5H11.2V9.32C11.2 8.91 11.54 8.57 11.95 8.57C12.36 8.57 12.7 8.9 12.7 9.32V15.25C12.7 15.66 12.37 16 11.95 16Z"/></svg>