<svg data-name="Layer 1" xmlns="http://www.w3.org/2000/svg" viewBox="0 0 32 32"><path d="M30 7.25v17.5A5.26 5.26 0 0124.75 30H7.25a5.06 5.06 0 01-3.71-1.54A5.05 5.05 0 012 24.75V7.25a5.06 5.06 0 011.54-3.71A5.07 5.07 0 017.25 2h17.5a5.06 5.06 0 013.71 1.54A5.06 5.06 0 0130 7.25zm-4.67 9.33V7.83a1.18 1.18 0 00-1.17-1.17h-8.74a1.09 1.09 0 00-1.08.71 1.05 1.05 0 00.26 1.28l2.63 2.63L7.49 21a1.15 1.15 0 000 1.64l1.86 1.86a1.15 1.15 0 001.64 0l9.73-9.73 2.63 2.63a1.08 1.08 0 00.82.35 1.27 1.27 0 00.46-.09 1.09 1.09 0 00.7-1.08z"/></svg>