<svg viewBox="0 0 16 16" xmlns="http://www.w3.org/2000/svg"><g clip-path="url(#clip0_41_1378)"><path fill-rule="evenodd" clip-rule="evenodd" d="M7.5 13.5C7.93782 13.5 8.36469 13.4531 8.77585 13.3641C8.52273 13.0221 8.32922 12.6103 8.32922 12.0646C8.32922 10.7522 9.41776 9.80192 10.6669 9.80192C11.2379 9.80192 11.7657 10.0028 12.175 10.3419C12.583 9.99604 13.1122 9.7858 13.691 9.7858C14.9522 9.7858 16.0292 10.7669 16.0292 12.0673C16.0292 12.7631 15.7141 13.2385 15.3643 13.6298L15.3478 13.6483L13.4051 15.5524C12.7249 16.2191 11.6364 16.2194 10.9559 15.5531L9.96688 14.5849C9.19431 14.8538 8.36422 15 7.5 15C3.35786 15 0 11.6421 0 7.5C0 3.35786 3.35786 0 7.5 0C11.6421 0 15 3.35786 15 7.5C15 7.71818 14.9907 7.93419 14.9724 8.14764C14.9396 8.53096 14.5899 8.79533 14.2067 8.76111C13.7668 8.72184 13.4623 8.30845 13.4889 7.86762C13.4963 7.74602 13.5 7.62345 13.5 7.5C13.5 4.18629 10.8137 1.5 7.5 1.5C4.18629 1.5 1.5 4.18629 1.5 7.5C1.5 10.8137 4.18629 13.5 7.5 13.5ZM13.691 11.2858C13.3159 11.2858 12.9986 11.5324 12.8917 11.8584C12.7908 12.1664 12.5033 12.3747 12.1792 12.3748C11.855 12.3748 11.5675 12.1666 11.4664 11.8586C11.3633 11.5442 11.0542 11.3019 10.6669 11.3019C10.1623 11.3019 9.82922 11.6621 9.82922 12.0646C9.82922 12.2313 9.87657 12.3628 10.0964 12.6125L12.0052 14.4813C12.1024 14.5764 12.2579 14.5764 12.3551 14.4812L14.2616 12.6125C14.4831 12.3613 14.5292 12.2324 14.5292 12.0673C14.5292 11.6535 14.1833 11.2858 13.691 11.2858ZM9.60938 6.50876C10.1271 6.50876 10.5469 6.08903 10.5469 5.57126C10.5469 5.05349 10.1271 4.63376 9.60938 4.63376C9.09161 4.63376 8.67188 5.05349 8.67188 5.57126C8.67188 6.08903 9.09161 6.50876 9.60938 6.50876ZM5.65453 7.92376C5.34494 7.64857 4.87089 7.67646 4.5957 7.98604C4.32051 8.29563 4.3484 8.76968 4.65799 9.04487C6.3484 10.5475 8.65162 10.5475 10.342 9.04487C10.6516 8.76968 10.6795 8.29563 10.4043 7.98604C10.1291 7.67646 9.65507 7.64857 9.34549 7.92376C8.2234 8.92117 6.77662 8.92117 5.65453 7.92376ZM5.39062 6.50876C5.90839 6.50876 6.32812 6.08903 6.32812 5.57126C6.32812 5.05349 5.90839 4.63376 5.39062 4.63376C4.87287 4.63376 4.45312 5.05349 4.45312 5.57126C4.45312 6.08903 4.87287 6.50876 5.39062 6.50876Z"/></g><defs><clipPath><rect/></clipPath></defs></svg>