<svg xmlns="http://www.w3.org/2000/svg" viewBox="0 0 16 16"><path d="M14 1H2a.945.945 0 0 0-1 1v12a.945.945 0 0 0 1 1h12a.945.945 0 0 0 1-1V2a.945.945 0 0 0-1-1zM8 12.523a5.1 5.1 0 0 1-1.357-.18.371.371 0 0 0-.25.019l-.931.41a.374.374 0 0 1-.526-.331l-.025-.834a.378.378 0 0 0-.126-.267 4.45 4.45 0 0 1-1.473-3.363A4.524 4.524 0 0 1 8 3.43a4.549 4.549 0 1 1 0 9.093zm2.492-5.891L9.013 7.755a.282.282 0 0 1-.339 0l-1.095-.821a.7.7 0 0 0-1.017.188L5.185 9.306a.223.223 0 0 0 .323.3L6.987 8.48a.282.282 0 0 1 .339 0l1.095.82a.7.7 0 0 0 1.017-.187l1.377-2.185a.223.223 0 0 0-.323-.296z"/></svg>