<svg viewBox="0 0 16 16" xmlns="http://www.w3.org/2000/svg"><path d="M8 0C3.58 0 0 3.58 0 8C0 12.42 3.58 16 8 16C12.42 16 16 12.42 16 8C16 3.58 12.42 0 8 0ZM10.67 5.13C11.15 5.13 11.54 5.52 11.54 6C11.54 6.48 11.15 6.87 10.67 6.87C10.19 6.87 9.8 6.48 9.8 6C9.8 5.52 10.19 5.13 10.67 5.13ZM5.33 5.13C5.81 5.13 6.2 5.52 6.2 6C6.2 6.48 5.81 6.87 5.33 6.87C4.85 6.87 4.46 6.48 4.46 6C4.46 5.52 4.85 5.13 5.33 5.13ZM11.69 11.07C11.49 11.27 11.18 11.27 10.98 11.07C10.18 10.27 9.13 9.84 8 9.84C6.87 9.84 5.82 10.28 5.02 11.07C4.92 11.16 4.79 11.21 4.67 11.21C4.54 11.21 4.41 11.16 4.32 11.06C4.12 10.86 4.12 10.55 4.32 10.35C5.3 9.37 6.61 8.83 8 8.83C9.39 8.83 10.7 9.37 11.69 10.36C11.89 10.56 11.89 10.87 11.69 11.07Z"/></svg>