<svg viewBox="0 0 16 16" xmlns="http://www.w3.org/2000/svg"><path d="M8 16C3.59 16 0 12.41 0 8C0 3.59 3.59 0 8 0C12.41 0 16 3.59 16 8C16 12.41 12.41 16 8 16ZM8 1.5C4.42 1.5 1.5 4.41 1.5 8C1.5 11.58 4.42 14.5 8 14.5C11.58 14.5 14.5 11.58 14.5 8C14.5 4.41 11.58 1.5 8 1.5Z"/><path d="M10.64 11.34C10.45 11.34 10.26 11.27 10.11 11.12C8.98 10 7.02 10 5.89 11.12C5.6 11.41 5.12 11.41 4.83 11.12C4.54 10.83 4.54 10.35 4.83 10.06C5.68 9.21 6.8 8.75 8 8.75C9.2 8.75 10.32 9.22 11.17 10.06C11.46 10.35 11.46 10.83 11.17 11.12C11.02 11.27 10.83 11.34 10.64 11.34Z"/><path d="M10.25 7.5C10.8023 7.5 11.25 7.05228 11.25 6.5C11.25 5.94772 10.8023 5.5 10.25 5.5C9.69771 5.5 9.25 5.94772 9.25 6.5C9.25 7.05228 9.69771 7.5 10.25 7.5Z"/><path d="M5.75 7.5C6.30228 7.5 6.75 7.05228 6.75 6.5C6.75 5.94772 6.30228 5.5 5.75 5.5C5.19772 5.5 4.75 5.94772 4.75 6.5C4.75 7.05228 5.19772 7.5 5.75 7.5Z"/></svg>