<svg viewBox="0 0 16 16" xmlns="http://www.w3.org/2000/svg"><path d="M8 0C3.58 0 0 3.58 0 8C0 12.42 3.58 16 8 16C12.42 16 16 12.42 16 8C16 3.58 12.42 0 8 0ZM4.46 6C4.46 5.52 4.85 5.13 5.33 5.13C5.81 5.13 6.2 5.52 6.2 6C6.2 6.48 5.81 6.87 5.33 6.87C4.85 6.87 4.46 6.48 4.46 6ZM10 11H6C5.72 11 5.5 10.78 5.5 10.5C5.5 10.22 5.72 10 6 10H10C10.28 10 10.5 10.22 10.5 10.5C10.5 10.78 10.28 11 10 11ZM10.67 6.87C10.19 6.87 9.8 6.48 9.8 6C9.8 5.52 10.19 5.13 10.67 5.13C11.15 5.13 11.54 5.52 11.54 6C11.54 6.48 11.15 6.87 10.67 6.87Z"/></svg>