<svg viewBox="0 0 16 16" xmlns="http://www.w3.org/2000/svg"><path d="M8 16C3.59 16 0 12.41 0 8C0 3.59 3.59 0 8 0C12.41 0 16 3.59 16 8C16 12.41 12.41 16 8 16ZM8 1.5C4.42 1.5 1.5 4.41 1.5 8C1.5 11.59 4.42 14.5 8 14.5C11.58 14.5 14.5 11.58 14.5 8C14.5 4.42 11.58 1.5 8 1.5Z"/><path d="M9.98 11.25H6.02C5.61 11.25 5.27 10.91 5.27 10.5C5.27 10.09 5.61 9.75 6.02 9.75H9.98C10.39 9.75 10.73 10.09 10.73 10.5C10.73 10.91 10.39 11.25 9.98 11.25Z"/><path d="M10.25 7.5C10.8023 7.5 11.25 7.05228 11.25 6.5C11.25 5.94772 10.8023 5.5 10.25 5.5C9.69771 5.5 9.25 5.94772 9.25 6.5C9.25 7.05228 9.69771 7.5 10.25 7.5Z"/><path d="M5.75 7.5C6.30228 7.5 6.75 7.05228 6.75 6.5C6.75 5.94772 6.30228 5.5 5.75 5.5C5.19772 5.5 4.75 5.94772 4.75 6.5C4.75 7.05228 5.19772 7.5 5.75 7.5Z"/></svg>