<svg viewBox="0 0 16 16" xmlns="http://www.w3.org/2000/svg"><path d="M12.5925 9.97813C12.98 9.23926 13.2 8.39629 13.2 7.50001C13.2 6.99473 13.13 6.5047 12.9775 6.04259C12.9075 5.72013 13.0925 5.38243 13.4125 5.28849C13.73 5.19708 14.0625 5.38497 14.1525 5.70743C14.315 6.27618 14.4 6.87794 14.4 7.50001C14.4 8.44961 14.1775 9.35352 13.8375 10.1686C13.455 9.9502 13.01 9.86387 12.5925 9.97813ZM11.2025 11.6615C11.1825 12.0906 11.315 12.5045 11.595 12.8777C10.57 13.5861 9.33251 14 8.00001 14C6.46751 14 5.06001 13.4516 3.95751 12.5375L4.28251 12.2049C4.46501 11.9967 4.57751 11.8012 4.68501 11.5701C5.58501 12.3268 6.74001 12.7813 8.00001 12.7813C9.20751 12.7813 10.32 12.3623 11.2025 11.6615ZM2.00102 9.4627C1.95852 9.42969 1.91477 9.40176 1.87027 9.37383C1.69452 8.78223 1.60002 8.15254 1.60002 7.50001C1.60002 3.90978 4.46501 1.00002 8.00001 1.00002C8.94251 1.00002 9.84001 1.20773 10.6475 1.5812C10.95 1.7206 11.0825 2.08191 10.945 2.38812C10.81 2.69458 10.4525 2.82991 10.1525 2.69052C9.49751 2.38761 8.76751 2.21876 8.00001 2.21876C5.12751 2.21876 2.80002 4.58263 2.80002 7.50001C2.80002 8.06876 2.88752 8.61465 3.05252 9.12754C2.68252 9.12247 2.31377 9.23418 2.00102 9.4627ZM5.19251 9.04122C5.43751 8.8127 5.81751 8.83047 6.04001 9.07676C6.42001 9.49317 7.07001 9.9375 8.00001 9.9375C8.93001 9.9375 9.58001 9.49317 9.96001 9.07676C10.1825 8.83047 10.5625 8.8127 10.8075 9.04122C11.05 9.26973 11.065 9.65567 10.84 9.90196C10.2925 10.5088 9.34251 11.1563 8.00001 11.1563C6.65751 11.1563 5.70751 10.5088 5.16001 9.90196C4.93501 9.65567 4.92751 9.26973 5.19251 9.04122ZM4.64751 6.85509C4.44751 6.66212 4.43751 6.3422 4.62501 6.13653C4.99001 5.74298 5.50751 5.57032 5.99001 5.57032C6.45251 5.57032 6.99251 5.74298 7.35501 6.13653C7.54501 6.3422 7.53501 6.66212 7.33251 6.85509C7.13001 7.04552 6.81501 7.03536 6.62501 6.83223C6.49001 6.68243 6.25751 6.58595 5.99001 6.58595C5.70251 6.58595 5.49251 6.68243 5.35501 6.83223C5.16751 7.03536 4.85001 7.04552 4.64751 6.85509ZM9.99001 6.58595C9.70251 6.58595 9.49251 6.68243 9.35501 6.83223C9.16751 7.03536 8.85001 7.04552 8.64751 6.85509C8.44751 6.66212 8.43751 6.3422 8.62501 6.13653C8.99001 5.74298 9.50751 5.57032 9.99001 5.57032C10.4525 5.57032 10.9925 5.74298 11.355 6.13653C11.545 6.3422 11.535 6.66212 11.3325 6.85509C11.13 7.04552 10.815 7.03536 10.625 6.83223C10.49 6.68243 10.2575 6.58595 9.99001 6.58595ZM14.3425 1.292C14.7225 0.90462 15.3375 0.90462 15.715 1.292C16.095 1.67947 16.095 2.30737 15.715 2.69484L14.33 4.11036C14.1475 4.29571 13.8525 4.29571 13.6725 4.11036L12.285 2.69331C11.905 2.30585 11.905 1.67794 12.285 1.29048C12.6625 0.903173 13.2775 0.903173 13.6575 1.29048L14 1.64163L14.3425 1.292ZM15.715 12.4436L14.33 13.8604C14.1475 14.0457 13.8525 14.0457 13.6725 13.8604L12.285 12.4436C11.905 12.0551 11.905 11.4279 12.285 11.0395C12.6625 10.6535 13.2775 10.6535 13.6575 11.0395L14 11.3924L14.3425 11.042C14.7225 10.6535 15.3375 10.6535 15.715 11.042C16.095 11.4305 16.095 12.0576 15.715 12.4436ZM2.34277 10.2295C2.72252 9.84102 3.33751 9.84102 3.71501 10.2295C4.09501 10.618 4.09501 11.2451 3.71501 11.6311L2.33002 13.0479C2.14827 13.2332 1.85327 13.2332 1.67152 13.0479L0.284268 11.6311C-0.0947561 11.2426 -0.0947561 10.6154 0.284268 10.227C0.663518 9.84102 1.27802 9.84102 1.65727 10.227L2.00077 10.5799L2.34277 10.2295Z"/></svg>