<svg viewBox="0 0 16 16" xmlns="http://www.w3.org/2000/svg"><path d="M8 16C3.59 16 0 12.41 0 8C0 3.59 3.59 0 8 0C12.41 0 16 3.59 16 8C16 12.41 12.41 16 8 16ZM8 1.5C4.42 1.5 1.5 4.41 1.5 8C1.5 11.59 4.42 14.5 8 14.5C11.58 14.5 14.5 11.58 14.5 8C14.5 4.42 11.58 1.5 8 1.5Z"/><path d="M8 12C6.8 12 5.68 11.53 4.83 10.69C4.54 10.4 4.54 9.92 4.83 9.63C5.12 9.34 5.6 9.34 5.89 9.63C7.01 10.75 8.98 10.75 10.1 9.63C10.39 9.34 10.87 9.34 11.16 9.63C11.45 9.92 11.45 10.4 11.16 10.69C10.32 11.53 9.2 12 8 12Z"/><path d="M10.25 7.5C10.8023 7.5 11.25 7.05228 11.25 6.5C11.25 5.94772 10.8023 5.5 10.25 5.5C9.69771 5.5 9.25 5.94772 9.25 6.5C9.25 7.05228 9.69771 7.5 10.25 7.5Z"/><path d="M5.75 7.5C6.30228 7.5 6.75 7.05228 6.75 6.5C6.75 5.94772 6.30228 5.5 5.75 5.5C5.19772 5.5 4.75 5.94772 4.75 6.5C4.75 7.05228 5.19772 7.5 5.75 7.5Z"/></svg>