<svg viewBox="0 0 16 16" xmlns="http://www.w3.org/2000/svg"><path d="M8 16C12.4187 16 16 12.4187 16 8C16 3.58125 12.4187 0 8 0C3.58125 0 0 3.58125 0 8C0 12.4187 3.58125 16 8 16ZM10.8719 12.3281C10.3125 11.6812 9.35625 11 8 11C6.64375 11 5.6875 11.6812 5.12813 12.3281C4.94688 12.5375 4.63125 12.5594 4.42188 12.3781C4.2125 12.1969 4.19062 11.8812 4.37187 11.6719C5.06562 10.8687 6.27813 10 8 10C9.72187 10 10.9313 10.8719 11.6281 11.6719C11.8094 11.8812 11.7875 12.1969 11.5781 12.3781C11.3688 12.5594 11.0531 12.5375 10.8719 12.3281ZM6.5125 6.5C6.5125 7.05313 6.06562 7.5 5.5125 7.5C4.95937 7.5 4.5125 7.05313 4.5125 6.5C4.5125 5.94687 4.95937 5.5 5.5125 5.5C6.06562 5.5 6.5125 5.94687 6.5125 6.5ZM10.5125 7.5C9.95937 7.5 9.5125 7.05313 9.5125 6.5C9.5125 5.94687 9.95937 5.5 10.5125 5.5C11.0656 5.5 11.5125 5.94687 11.5125 6.5C11.5125 7.05313 11.0656 7.5 10.5125 7.5Z"/></svg>