<svg viewBox="0 0 16 16" xmlns="http://www.w3.org/2000/svg"><path d="M7.7674 0C3.4678 0.010669 -0.0422909 3.55277 0.000385069 7.85237C0.021723 10.0288 0.939256 11.9919 2.40091 13.3896C2.57161 13.5496 2.66763 13.7843 2.66763 14.019V15.31C2.66763 15.8114 3.19041 16.1422 3.63851 15.9395L5.05748 15.2887C5.24952 15.2033 5.4629 15.1926 5.65495 15.246C6.32709 15.438 7.03125 15.534 7.75674 15.534C12.035 15.534 15.5344 12.0453 15.5344 7.75635C15.5558 3.47809 12.067 0 7.7674 0ZM12.6111 5.94262L10.296 9.60209C9.91187 10.1995 9.1117 10.3596 8.53557 9.94349L7.87409 9.48473L6.72184 8.66321C6.50847 8.51385 6.20973 8.51385 6.00702 8.68455L3.71319 10.573C3.33978 10.8824 2.817 10.4236 3.08372 10.0075L5.39889 6.34804C5.78297 5.75058 6.58315 5.59055 7.15927 6.00664L8.973 7.29759C9.18638 7.44695 9.48511 7.44695 9.68782 7.27625L11.9923 5.39851C12.3551 5.07844 12.8778 5.5372 12.6111 5.94262Z"/></svg>