<svg viewBox="0 0 16 16" xmlns="http://www.w3.org/2000/svg"><path d="M8 0C3.58 0 0 3.58 0 8C0 12.42 3.58 16 8 16C12.42 16 16 12.42 16 8C16 3.58 12.42 0 8 0ZM10.67 5.13C11.15 5.13 11.54 5.52 11.54 6C11.54 6.48 11.15 6.87 10.67 6.87C10.19 6.87 9.8 6.48 9.8 6C9.8 5.52 10.19 5.13 10.67 5.13ZM5.33 5.13C5.81 5.13 6.2 5.52 6.2 6C6.2 6.48 5.81 6.87 5.33 6.87C4.85 6.87 4.46 6.48 4.46 6C4.46 5.52 4.85 5.13 5.33 5.13ZM11.69 10.31C10.7 11.29 9.39 11.84 8 11.84C6.61 11.84 5.3 11.3 4.31 10.31C4.11 10.12 4.11 9.8 4.31 9.6C4.51 9.4 4.82 9.4 5.02 9.6C5.82 10.4 6.87 10.83 8 10.83C9.13 10.83 10.18 10.39 10.98 9.6C11.18 9.4 11.49 9.4 11.69 9.6C11.89 9.8 11.89 10.11 11.69 10.31Z"/></svg>