<svg data-name="Layer 1" xmlns="http://www.w3.org/2000/svg" viewBox="0 0 32 32"><path d="M29.24 12.58A2.25 2.25 0 0027.09 11h-6.34c-.06 0-.06 0-.11-.06l-.22-.66L18 3.7a2.28 2.28 0 00-2.15-1.49 2.28 2.28 0 00-2.11 1.49L11 11c0 .06-.06.06-.11.06h-6a2.25 2.25 0 00-2.15 1.55 2.29 2.29 0 00.66 2.54L8 18.92c.06 0 .06.06.06.11L5.19 26.7a2.31 2.31 0 00.71 2.6 2.38 2.38 0 001.43.5 2.15 2.15 0 001.27-.39l7.17-4.85h.11l7 4.8a2.29 2.29 0 003.47-2.65l-2-5.63-.66-1.77c0-.06 0 0 .06 0l4.91-4.08a2.47 2.47 0 00.66-2.65zM7.4 27.59c-.05 0-.05.06-.11 0s-.05-.06-.05-.11l2.7-7.23 4 2.87zm16.83-.06c-.06.06-.06 0-.11 0l-7-4.8-8.51-6.18-3.75-3.14a.19.19 0 01-.05-.11c0-.05.05-.06.11-.06h6a2.33 2.33 0 002.15-1.49l2.7-7.28c0-.05 0-.05.11-.05s.06.05.11.05l2.65 7.28L21.57 20l2.7 7.45c0 .06 0 .06-.06.11zm2.92-14.07l-4.36 3.48-1.27-3.7h5.63c.06 0 .06 0 .11.06a.44.44 0 01-.11.16z"/></svg>