<svg data-name="Layer 1" xmlns="http://www.w3.org/2000/svg" viewBox="0 0 32 32"><path d="M26.53 16.55h-.88V9.16c0-.05 0-.06-.06-.11s0-.06-.06-.11-.06-.06-.06-.11a.05.05 0 00-.06-.06l-.17-.17-6.34-6-.17-.17-.06-.06c-.06 0-.06-.06-.11-.06s-.06 0-.11-.06-.06 0-.11-.06H7.5a1.11 1.11 0 00-1.1 1.1v13.26h-.89a1.11 1.11 0 00-1.1 1.1v11a1.11 1.11 0 001.1 1.1h21a1.11 1.11 0 001.1-1.1v-11a1 1 0 00-1-1.1zm-15.44 8.83a2.21 2.21 0 112.21-2.21 2.21 2.21 0 01-2.21 2.21zm12.36-8.83H8.6v-12h6.84V11a1.11 1.11 0 001.1 1.1h6.9v4.41zm0-6.62h-5.8V4.52z"/></svg>