<svg viewBox="0 0 16 16" xmlns="http://www.w3.org/2000/svg"><path fill-rule="evenodd" clip-rule="evenodd" d="M4.5 2C4.5 1.72386 4.72386 1.5 5 1.5H8.5V2.75C8.5 3.7165 9.2835 4.5 10.25 4.5H11.5V6H2C0.895431 6 0 6.89543 0 8V12C0 13.1046 0.895431 14 2 14L3.5 14C3.5 15.1046 4.39543 16 5.5 16H10.5C11.6046 16 12.5 15.1046 12.5 14H14C15.1046 14 16 13.1046 16 12V8C16 6.89543 15.1046 6 14 6H13V3.32843C13 2.79799 12.7893 2.28929 12.4142 1.91421L11.0858 0.585786C10.7107 0.210714 10.202 0 9.67157 0H5C3.89543 0 3 0.89543 3 2V4.25C3 4.66421 3.33579 5 3.75 5C4.16421 5 4.5 4.66421 4.5 4.25V2ZM11.377 3C11.3695 2.99139 11.3617 2.983 11.3536 2.97487L10.0251 1.64645C10.017 1.63832 10.0086 1.63049 10 1.62299V2.75C10 2.88807 10.1119 3 10.25 3H11.377ZM1.5 8C1.5 7.72386 1.72386 7.5 2 7.5H14C14.2761 7.5 14.5 7.72386 14.5 8V12C14.5 12.2761 14.2761 12.5 14 12.5H12.5L12.5 10.5H12.75C13.1642 10.5 13.5 10.1642 13.5 9.75C13.5 9.33579 13.1642 9 12.75 9H3.25C2.83579 9 2.5 9.33579 2.5 9.75C2.5 10.1642 2.83579 10.5 3.25 10.5H3.5V12.5H2C1.72386 12.5 1.5 12.2761 1.5 12V8ZM10.5 14.5C10.7761 14.5 11 14.2761 11 14L11 10.5L5 10.5L5 14C5 14.2761 5.22386 14.5 5.5 14.5H10.5Z"/></svg>