<svg viewBox="0 0 16 16" xmlns="http://www.w3.org/2000/svg"><path d="M15.4889 3.20086C15.1686 2.96866 14.77 2.93777 14.4256 3.11658L11.5556 4.6024V4.00667C11.5556 2.8983 10.7597 2 9.77778 2H1.77778C0.795833 2 0 2.8983 0 4.00667V12.0333C0 13.1417 0.795833 14.04 1.77778 14.04H9.77778C10.7597 14.04 11.5556 13.1417 11.5556 12.0333V11.437L14.425 12.9219C14.5734 12.9988 14.7314 13.037 14.8886 13.037C15.0978 13.037 15.3058 12.9699 15.4883 12.8377C15.8083 12.6071 16 12.2121 16 11.7543V4.2575C16 3.82795 15.8083 3.43602 15.4889 3.20086ZM10.2222 12.0333C10.2222 12.3099 10.0228 12.535 9.77778 12.535H1.77778C1.53272 12.535 1.33333 12.3099 1.33333 12.0333V4.00667C1.33333 3.73006 1.53272 3.505 1.77778 3.505H9.77778C10.0228 3.505 10.2222 3.73006 10.2222 4.00667V12.0333ZM14.6667 11.3906L11.5556 9.7821V6.2579L14.6667 4.64849V11.3906Z"/></svg>