<svg viewBox="0 0 16 16" xmlns="http://www.w3.org/2000/svg"><path d="M13 0H3C1.76 0 0.75 1.01 0.75 2.25V9.87C0.75 9.89 0.75 9.9 0.75 9.92V13.75C0.75 14.99 1.76 16 3 16H12C12.41 16 12.75 15.66 12.75 15.25C12.75 14.84 12.41 14.5 12 14.5H3C2.59 14.5 2.25 14.16 2.25 13.75V11.71L2.78 12.24C3.2 12.66 3.77 12.9 4.37 12.9C4.97 12.9 5.54 12.67 5.96 12.24L10.37 7.83C10.66 7.54 11.14 7.54 11.43 7.83L13.74 10.14V15.24C13.74 15.65 14.08 15.99 14.49 15.99C14.9 15.99 15.24 15.65 15.24 15.24V2.24C15.25 1.01 14.24 0 13 0ZM12.5 6.77C11.65 5.92 10.17 5.92 9.32 6.77L4.91 11.18C4.63 11.46 4.13 11.46 3.85 11.18L2.25 9.59V2.25C2.25 1.83 2.59 1.5 3 1.5H13C13.41 1.5 13.75 1.84 13.75 2.25V8.03L12.5 6.77Z"/><path d="M6 2C4.62 2 3.5 3.12 3.5 4.5C3.5 5.88 4.62 7 6 7C7.38 7 8.5 5.88 8.5 4.5C8.5 3.12 7.38 2 6 2ZM6 5.5C5.45 5.5 5 5.05 5 4.5C5 3.95 5.45 3.5 6 3.5C6.55 3.5 7 3.95 7 4.5C7 5.05 6.55 5.5 6 5.5Z"/></svg>