<svg viewBox="0 0 16 16" xmlns="http://www.w3.org/2000/svg"><path d="M15.4889 3.18087C15.1686 2.94866 14.77 2.91778 14.4256 3.09659L11.5556 4.5824V3.98667C11.5556 2.8783 10.7597 1.98 9.77778 1.98H1.77778C0.795833 1.98 0 2.8783 0 3.98667V12.0133C0 13.1217 0.795833 14.02 1.77778 14.02H9.77778C10.7597 14.02 11.5556 13.1217 11.5556 12.0133V11.417L14.425 12.9019C14.5734 12.9788 14.7314 13.017 14.8886 13.017C15.0978 13.017 15.3058 12.9499 15.4883 12.8177C15.8083 12.5871 16 12.1921 16 11.7343V4.2375C16 3.80795 15.8083 3.41602 15.4889 3.18087ZM10.2222 12.0133C10.2222 12.2899 10.0228 12.515 9.77778 12.515H1.77778C1.53272 12.515 1.33333 12.2899 1.33333 12.0133V3.98667C1.33333 3.71006 1.53272 3.485 1.77778 3.485H9.77778C10.0228 3.485 10.2222 3.71006 10.2222 3.98667V12.0133ZM14.6667 11.3706L11.5556 9.76211V6.2379L14.6667 4.62849V11.3706Z"/></svg>