<svg xmlns="http://www.w3.org/2000/svg" viewBox="0 0 16 16"><path d="M7.113 7H4v1h2.327a4.982 4.982 0 01.786-1zM2 13V1h10v4.852a4.881 4.881 0 011 .437V0H1v14h6.016a5.014 5.014 0 01-.739-1zm2-3h1.654a4.735 4.735 0 01.217-1H4zm11.762 4.568l-1.083-1.112a.8.8 0 00-.689-.216l-.675-.676a3.554 3.554 0 00.01-4.136 2.2 2.2 0 00-.7-.7 3.511 3.511 0 00-4.9 4.893 2.222 2.222 0 00.688.7 3.543 3.543 0 004.151-.009l.694.693a.8.8 0 00.225.643l1.084 1.11a.817.817 0 001.154 0c.006-.007.008-.018.016-.023l.023-.016a.818.818 0 00.002-1.15zm-3.429-2.627a1.377 1.377 0 01-.413.409 2.279 2.279 0 01-3.185-3.184 1.377 1.377 0 01.41-.412 2.279 2.279 0 013.188 3.188zM10 3H4v1h6zm0 2.66V5H4v1h4.607A4.9 4.9 0 0110 5.661z"/></svg>