<svg xmlns="http://www.w3.org/2000/svg" viewBox="0 0 16 16"><path d="M0 2v12h16V2zm1 9.965c.055-.022.075-.027 0 0zm14-1.834a7.341 7.341 0 00-2.291-.06 35.069 35.069 0 00-3.612.768 5.956 5.956 0 01-1.871.1 9.842 9.842 0 01-1.053-.192.454.454 0 01-.173-.393V9.019a1.224 1.224 0 00.639-.388.549.549 0 001.019-.049h.021a.808.808 0 00.866-.734.646.646 0 00-.169-.412.859.859 0 00.386-.688 1.009 1.009 0 00-1.083-.916h-.021a.717.717 0 00-.738-.553 1 1 0 00-.145.025 1.6 1.6 0 00-1.263-.575 1.567 1.567 0 00-1.319.671 1.342 1.342 0 00-.523-.113A1.111 1.111 0 002.479 6.3a.868.868 0 00.181.5.521.521 0 00.04 1.016.675.675 0 00-.083.3c0 .509.562.92 1.258.92a1.468 1.468 0 00.936-.318A1.235 1.235 0 005 8.845v1.414c0 .285-.361.461-.449.5A10.537 10.537 0 001 11.916V3h14zm-3-2.339A1.292 1.292 0 1010.708 6.5 1.291 1.291 0 0012 7.792z"/></svg>