<svg viewBox="0 0 16 16" xmlns="http://www.w3.org/2000/svg"><path d="M14.59 3.88L11.37 0.66C10.95 0.24 10.37 0 9.78 0H3C1.76 0 0.75 1.01 0.75 2.25V13.75C0.75 14.99 1.76 16 3 16H12C12.41 16 12.75 15.66 12.75 15.25C12.75 14.84 12.41 14.5 12 14.5H3C2.59 14.5 2.25 14.16 2.25 13.75V2.25C2.25 1.84 2.59 1.5 3 1.5H9V4C9 5.24 10.01 6.25 11.25 6.25H13.75V15.25C13.75 15.66 14.09 16 14.5 16C14.91 16 15.25 15.66 15.25 15.25V5.48C15.25 4.88 15.02 4.31 14.59 3.88ZM10.5 4V1.91L13.34 4.75H11.25C10.84 4.75 10.5 4.41 10.5 4Z"/><path d="M4 5.5V12.61C4 13.02 4.34 13.36 4.75 13.36C5.16 13.36 5.5 13.02 5.5 12.61V5.5C5.5 5.09 5.16 4.75 4.75 4.75C4.34 4.75 4 5.08 4 5.5Z"/><path d="M7.25 10V12.61C7.25 13.02 7.59 13.36 8 13.36C8.41 13.36 8.75 13.02 8.75 12.61V10C8.75 9.59 8.41 9.25 8 9.25C7.59 9.25 7.25 9.58 7.25 10Z"/><path d="M10.51 8.5V12.61C10.51 13.02 10.85 13.36 11.26 13.36C11.67 13.36 12.01 13.02 12.01 12.61V8.5C12.01 8.09 11.67 7.75 11.26 7.75C10.85 7.75 10.51 8.08 10.51 8.5Z"/></svg>