<svg viewBox="0 0 16 16" xmlns="http://www.w3.org/2000/svg"><g clip-path="url(#clip0_335_30)"><path d="M14.59 3.88L11.37 0.66C10.95 0.24 10.37 0 9.78 0H3C1.76 0 0.75 1.01 0.75 2.25V13.75C0.75 14.99 1.76 16 3 16H10.71C11.12 16 11.46 15.66 11.46 15.25C11.46 14.84 11.12 14.5 10.71 14.5H3C2.59 14.5 2.25 14.16 2.25 13.75V2.25C2.25 1.84 2.59 1.5 3 1.5H9V4C9 4.34 9.08 4.66 9.22 4.95C8.83 4.83 8.43 4.75 8 4.75C5.66 4.75 3.75 6.66 3.75 9C3.75 11.34 5.66 13.25 8 13.25C8.9 13.25 9.73 12.96 10.42 12.48L13.72 15.78C13.86 15.92 14.05 16 14.25 16H14.5C14.91 16 15.25 15.66 15.25 15.25V5.48C15.25 4.88 15.02 4.31 14.59 3.88ZM13.34 4.75H11.25C10.84 4.75 10.5 4.41 10.5 4V1.91L13.34 4.75ZM5.25 9C5.25 7.48 6.48 6.25 8 6.25C9.52 6.25 10.75 7.48 10.75 9C10.75 10.52 9.52 11.75 8 11.75C6.48 11.75 5.25 10.52 5.25 9ZM11.48 11.42C11.96 10.73 12.25 9.9 12.25 9C12.25 7.95 11.85 6.99 11.21 6.25C11.22 6.25 11.23 6.25 11.25 6.25H13.75V13.69L11.48 11.42Z"/></g><defs><clipPath><rect/></clipPath></defs></svg>