<svg xmlns="http://www.w3.org/2000/svg" viewBox="0 0 16 16"><path d="M9.362.826A1.054 1.054 0 008.968.75a.88.88 0 00-.484.25L4.057 5H2.151A1.154 1.154 0 00.879 6.168v3.666A1.154 1.154 0 002.151 11h1.906l4.427 4a.883.883 0 00.482.251 1.068 1.068 0 00.4-.076.888.888 0 00.517-.725V1.551a.888.888 0 00-.521-.725zm3.911 2.619a.55.55 0 00-.789.767 5.448 5.448 0 010 7.582.548.548 0 00.013.775.551.551 0 00.776-.008 6.546 6.546 0 000-9.116zm-1.607 2.071a.55.55 0 10-.791.765 2.468 2.468 0 010 3.438.55.55 0 10.791.765 3.565 3.565 0 000-4.968z"/></svg>