<svg viewBox="0 0 16 16" xmlns="http://www.w3.org/2000/svg"><path d="M13.75 0.75H2.25C1.01 0.75 0 1.76 0 3V13C0 14.24 1.01 15.25 2.25 15.25H12.75C13.16 15.25 13.5 14.91 13.5 14.5C13.5 14.09 13.16 13.75 12.75 13.75H2.25C1.84 13.75 1.5 13.41 1.5 13V10.32L2.78 11.6C3.2 12.02 3.77 12.26 4.37 12.26C4.97 12.26 5.54 12.03 5.96 11.6L11.1 6.46C11.38 6.18 11.88 6.18 12.16 6.46L14.5 8.8V14.49C14.5 14.9 14.84 15.24 15.25 15.24C15.66 15.24 16 14.91 16 14.5V3C16 1.76 14.99 0.75 13.75 0.75ZM13.22 5.41C12.37 4.56 10.89 4.56 10.04 5.41L4.9 10.55C4.62 10.83 4.12 10.83 3.84 10.55L1.5 8.2V3C1.5 2.59 1.84 2.25 2.25 2.25H13.75C14.16 2.25 14.5 2.59 14.5 3V6.68L13.22 5.41Z"/><path d="M5 3C3.62 3 2.5 4.12 2.5 5.5C2.5 6.88 3.62 8 5 8C6.38 8 7.5 6.88 7.5 5.5C7.5 4.12 6.38 3 5 3ZM5 6.5C4.45 6.5 4 6.05 4 5.5C4 4.95 4.45 4.5 5 4.5C5.55 4.5 6 4.95 6 5.5C6 6.05 5.55 6.5 5 6.5Z"/></svg>