<svg data-name="Layer 1" xmlns="http://www.w3.org/2000/svg" viewBox="0 0 32 32"><path d="M29.56 8.44A1.45 1.45 0 0028.5 8H22a4 4 0 00-2 .63V3.5A1.49 1.49 0 0018.5 2H12a3.63 3.63 0 00-1.38.31 3.7 3.7 0 00-1.19.75L3.06 9.44a3.67 3.67 0 00-.75 1.19A3.63 3.63 0 002 12v10.5A1.49 1.49 0 003.5 24H12v4.5a1.49 1.49 0 001.5 1.5h15a1.49 1.49 0 001.5-1.5v-19a1.45 1.45 0 00-.44-1.06zM20 11.33V16h-4.67zm-10-6V10H5.33zm3.06 10.11A4.16 4.16 0 0012 18v4H4V12h6.5a1.49 1.49 0 001.5-1.5V4h6v6.5zM28 28H14V18h6.5a1.49 1.49 0 001.5-1.5V10h6z"/></svg>