<svg viewBox="0 0 16 16" xmlns="http://www.w3.org/2000/svg"><path d="M8.85882 1.08402C8.73526 1.02795 8.60209 1 8.47176 1C8.24538 1 8.02206 1.08234 7.84618 1.23956L3.87647 4.78574H1.41176C0.632059 4.78574 0 5.42132 0 6.17876V8.99142C0 9.77547 0.632059 10.3844 1.41176 10.3844H3.87765L7.84529 13.9306C8.02059 14.1672 8.24412 14.25 8.47059 14.25C8.60112 14.25 8.73409 14.2225 8.85765 14.1661C9.19706 14.0134 9.41176 13.6762 9.41176 13.3036V1.94646C9.41176 1.5741 9.19706 1.21002 8.85882 1.08402ZM8 12.2507L4.41471 9.04465H1.41176V6.23199H4.41471L8 3.00054V12.2507ZM12.1353 5.43345C12.0038 5.32612 11.8454 5.27371 11.6882 5.27371C11.4839 5.27371 11.2815 5.36226 11.1426 5.53418C10.8954 5.83733 10.9395 6.28452 11.2419 6.53325C11.5735 6.80872 11.7647 7.20504 11.7647 7.62501C11.7647 8.04499 11.5735 8.4419 11.2409 8.71548C10.9385 8.96409 10.8944 9.41139 11.1416 9.71455C11.2804 9.88644 11.4834 9.97517 11.6875 9.97517C11.8447 9.97517 12.0037 9.92249 12.1343 9.81528C12.7971 9.26943 13.1765 8.47384 13.1765 7.62501C13.1765 6.77619 12.7971 5.9806 12.1353 5.43345ZM13.9147 3.24779C13.7837 3.14022 13.6252 3.08758 13.4676 3.08758C13.2637 3.08758 13.0612 3.17569 12.9212 3.34669C12.6739 3.64985 12.7181 4.09703 13.0195 4.34576C14.0176 5.16726 14.5882 6.36213 14.5882 7.62501C14.5882 8.88761 14.0165 10.0825 13.0203 10.905C12.7188 11.1536 12.6747 11.6009 12.9219 11.904C13.0616 12.075 13.2637 12.1637 13.4678 12.1637C13.6259 12.1637 13.784 12.1111 13.9155 12.0029C15.2412 10.9109 16 9.31379 16 7.62501C16 5.93623 15.2412 4.33914 13.9147 3.24779Z"/></svg>