<svg viewBox="0 0 16 16" xmlns="http://www.w3.org/2000/svg"><path d="M14.7939 2.91812L11.9758 0.585625C11.5201 0.210687 10.9046 0 10.2664 0H3.41667C2.08184 0 1 0.895313 1 2L1.00025 14C1.00025 15.1044 2.08208 16 3.41691 16H13.0833C14.4125 16 15.5 15.1 15.5 14V4.33125C15.5 3.80313 15.247 3.29375 14.7939 2.91812ZM13.6875 14C13.6875 14.2761 13.417 14.5 13.0833 14.5H3.41742C3.0837 14.5 2.81326 14.2761 2.81326 14L2.8125 2.00406C2.8125 1.72794 3.08302 1.50406 3.41667 1.50406H9.45833V4C9.45833 4.55219 9.99944 5 10.6667 5H13.6535V14H13.6875ZM8.25 8C7.75156 8 7.34375 8.3375 7.34375 8.75V12.75C7.34375 13.1641 7.74967 13.5 8.25 13.5C8.75033 13.5 9.15625 13.1641 9.15625 12.75V8.75C9.15625 8.3375 8.75221 8 8.25 8ZM10.6667 12.75C10.6667 13.1641 11.0726 13.5 11.5729 13.5C12.0732 13.5 12.4792 13.1641 12.4792 12.75V9.75C12.4792 9.3375 12.0751 9 11.5729 9C11.0707 9 10.6667 9.3375 10.6667 9.75V12.75ZM4.92708 10C4.42676 10 4.02083 10.3359 4.02083 10.75V12.75C4.02083 13.1641 4.42676 13.5 4.92708 13.5C5.42741 13.5 5.83333 13.1656 5.83333 12.75V10.75C5.83333 10.3375 5.4293 10 4.92708 10Z"/></svg>