<svg viewBox="0 0 16 16" xmlns="http://www.w3.org/2000/svg"><path d="M14.84 3.88L11.62 0.66C11.2 0.24 10.62 0 10.03 0H3.25C2.01 0 1 1.01 1 2.25V13.75C1 14.99 2.01 16 3.25 16H12.25C12.66 16 13 15.66 13 15.25C13 14.84 12.66 14.5 12.25 14.5H3.25C2.84 14.5 2.5 14.16 2.5 13.75V2.25C2.5 1.84 2.84 1.5 3.25 1.5H9.25V4C9.25 5.24 10.26 6.25 11.5 6.25H14V15.25C14 15.66 14.34 16 14.75 16C15.16 16 15.5 15.66 15.5 15.25V5.48C15.5 4.88 15.27 4.31 14.84 3.88ZM10.75 4V1.91L13.59 4.75H11.5C11.09 4.75 10.75 4.41 10.75 4Z"/><path d="M11.8553 9.61945C11.671 9.68483 11.4003 9.69222 11.1101 9.64164C10.7987 9.58735 10.481 9.47298 10.1689 9.30445C10.7256 9.20711 11.1575 9.23709 11.527 9.39439C11.6145 9.43164 11.7582 9.53123 11.8553 9.61945ZM8.74887 9.00584C8.72623 9.01324 8.70391 9.02024 8.68171 9.02764C8.53188 9.07664 8.38612 9.12445 8.24564 9.16697L8.05624 9.22469C7.67524 9.34052 7.28566 9.45886 6.90092 9.59979C7.04712 9.1761 7.18298 8.74779 7.316 8.32897C7.41449 8.01899 7.51507 7.70228 7.61907 7.38967C7.67184 7.4944 7.72691 7.59913 7.78418 7.70413C8.04525 8.18185 8.37339 8.62348 8.74887 9.00584ZM7.77968 4.22836C7.80441 4.75111 7.71053 5.25405 7.5728 5.7365C7.40318 5.13991 7.32415 4.48113 7.53619 3.94929C7.5906 3.81299 7.63512 3.74008 7.66404 3.70204C7.70866 3.78485 7.76736 3.97004 7.77968 4.22836ZM5.79058 10.8506C5.69527 11.0554 5.59799 11.2472 5.49828 11.4283C5.25765 11.864 4.86412 12.3305 4.66196 12.3305C4.64206 12.3305 4.61799 12.3267 4.58282 12.282C4.56017 12.2535 4.55654 12.233 4.55764 12.2051C4.56446 12.0449 4.74111 11.7596 4.997 11.4951C5.22928 11.2551 5.4918 11.0418 5.79058 10.8506ZM12.499 9.64213C12.4681 9.10856 11.7205 8.76622 11.7132 8.76305C11.4242 8.63995 11.1102 8.58012 10.7534 8.58012C10.3714 8.58012 9.95966 8.64655 9.43081 8.79501C8.96021 8.39418 8.55372 7.89242 8.24999 7.33691C8.11589 7.09151 7.9953 6.84651 7.89021 6.6072C8.14678 5.87008 8.37784 5.07752 8.33585 4.18984C8.30199 3.47809 8.03488 3 7.67159 3C7.42239 3 7.20783 3.22175 7.03335 3.65972C6.72215 4.44015 6.80394 5.43876 7.2764 6.63032C7.10623 7.11054 6.94816 7.60834 6.79513 8.09028C6.60475 8.68952 6.40854 9.30775 6.18746 9.89586C5.56738 10.1907 5.05798 10.5482 4.63345 10.987C4.35534 11.274 4.02006 11.7128 4.00093 12.1708C3.99158 12.3865 4.05314 12.5843 4.17823 12.7429C4.31114 12.9111 4.4781 12.9997 4.66169 13C5.26804 13 5.85163 11.999 5.96233 11.7983C6.18515 11.3948 6.39367 10.9447 6.59803 10.4255C7.1127 10.202 7.66122 10.0352 8.19282 9.87393L8.38321 9.81582C8.52633 9.7721 8.67506 9.72376 8.82764 9.67358C8.98912 9.62114 9.15523 9.56673 9.32407 9.51509C9.86995 9.93218 10.457 10.2043 11.0295 10.3041C11.5117 10.3884 11.94 10.3395 12.2298 10.1579C12.4907 9.99465 12.5051 9.74279 12.499 9.64213Z"/></svg>