<svg viewBox="0 0 16 16" xmlns="http://www.w3.org/2000/svg"><path d="M14.09 3.88L10.87 0.66C10.45 0.24 9.87 0 9.28 0H3.5C2.26 0 1.25 1.01 1.25 2.25V13.75C1.25 14.99 2.26 16 3.5 16H11.5C11.91 16 12.25 15.66 12.25 15.25C12.25 14.84 11.91 14.5 11.5 14.5H3.5C3.09 14.5 2.75 14.16 2.75 13.75V2.25C2.75 1.84 3.09 1.5 3.5 1.5H8.64V3.86C8.64 5.1 9.65 6.11 10.89 6.11H13.25V15.25C13.25 15.66 13.59 16 14 16C14.41 16 14.75 15.66 14.75 15.25V5.48C14.75 4.88 14.52 4.31 14.09 3.88ZM10.13 3.87V2.05L12.7 4.62H10.88C10.47 4.62 10.13 4.28 10.13 3.87Z"/><path d="M11.5 11.25H4.5C4.09 11.25 3.75 11.59 3.75 12C3.75 12.41 4.09 12.75 4.5 12.75H11.5C11.91 12.75 12.25 12.41 12.25 12C12.25 11.59 11.91 11.25 11.5 11.25Z"/><path d="M11.5 8.5H4.5C4.09 8.5 3.75 8.84 3.75 9.25C3.75 9.66 4.08 10 4.5 10H11.5C11.91 10 12.25 9.66 12.25 9.25C12.25 8.84 11.91 8.5 11.5 8.5Z"/></svg>