<svg viewBox="0 0 16 16" xmlns="http://www.w3.org/2000/svg"><path d="M9.37 0.66C8.95 0.24 8.37 0 7.78 0H2.25C1.01 0 0 1.01 0 2.25V13.75C0 14.99 1.01 16 2.25 16H10C10.41 16 10.75 15.66 10.75 15.25C10.75 14.84 10.42 14.5 10 14.5H2.25C1.84 14.5 1.5 14.16 1.5 13.75V2.25C1.5 1.84 1.84 1.5 2.25 1.5H7V4C7 5.24 8.01 6.25 9.25 6.25H11.75V15.25C11.75 15.66 12.09 16 12.5 16C12.91 16 13.25 15.66 13.25 15.25V5.48C13.25 4.89 13.01 4.31 12.59 3.89L9.37 0.66ZM8.5 4V1.92L11.33 4.75H9.25C8.84 4.75 8.5 4.41 8.5 4Z"/><path d="M15.34 2.74L12.82 0.22C12.53 -0.07 12.05 -0.07 11.76 0.22C11.47 0.51 11.47 0.99 11.76 1.28L14.28 3.8C14.42 3.94 14.5 4.13 14.5 4.33V15.25C14.5 15.66 14.84 16 15.25 16C15.66 16 16 15.66 16 15.25V4.33C16 3.74 15.76 3.16 15.34 2.74Z"/></svg>