<svg viewBox="0 0 16 16" xmlns="http://www.w3.org/2000/svg"><path d="M13.8426 2.91813L11.2189 0.585628C10.7945 0.210691 10.2215 3.125e-06 9.62734 3.125e-06L3.25 0C2.00723 0 1 0.895313 1 2L1.00023 14C1.00023 15.1044 2.00746 16 3.25023 16H12.25C13.4875 16 14.5 15.1 14.5 14V4.33125C14.5 3.80313 14.2645 3.29375 13.8426 2.91813ZM12.8125 14C12.8125 14.2761 12.5606 14.5 12.25 14.5H3.2507C2.93999 14.5 2.6882 14.2761 2.6882 14L2.6875 2.00407C2.6875 1.72794 2.93936 1.50407 3.25 1.50407H8.875V4C8.875 4.55219 9.37879 5 10 5H12.7809V14H12.8125ZM4.375 8.75C4.375 9.16563 4.75469 9.5 5.21875 9.5H10.2812C10.7488 9.5 11.125 9.16563 11.125 8.75C11.125 8.33438 10.7488 8 10.2812 8H5.21875C4.75469 8 4.375 8.3375 4.375 8.75ZM10.2812 11H5.21875C4.75469 11 4.375 11.3375 4.375 11.75C4.375 12.1625 4.75293 12.5 5.21875 12.5H10.2812C10.7471 12.5 11.125 12.1641 11.125 11.75C11.125 11.3359 10.7488 11 10.2812 11Z"/></svg>