<svg viewBox="0 0 16 16" xmlns="http://www.w3.org/2000/svg"><path d="M12.5 14.5C12.8094 14.5 13.0625 14.275 13.0625 14V13H14.75V14C14.75 15.1031 13.741 16 12.5 16H3.5C2.25723 16 1.25 15.1031 1.25 14V13H2.9375V14C2.9375 14.275 3.18922 14.5 3.5 14.5H12.5ZM10.25 5C9.62773 5 9.125 4.55313 9.125 4V1.5H3.5C3.18922 1.5 2.9375 1.72375 2.9375 2V6H1.25V2C1.25 0.895313 2.25723 0 3.5 0H9.31836C9.91602 0 10.4855 0.210719 10.9074 0.585938L14.0926 3.41563C14.5145 3.79063 14.75 4.29688 14.75 4.82812V6H13.0625V5H10.25ZM4.34375 7C5.43008 7 6.3125 7.78438 6.3125 8.75C6.3125 9.71562 5.43008 10.5 4.34375 10.5H4.0625V11.5C4.0625 11.775 3.81078 12 3.5 12C3.18922 12 2.9375 11.775 2.9375 11.5V7.5C2.9375 7.225 3.18922 7 3.5 7H4.34375ZM5.1875 8.75C5.1875 8.33437 4.81133 8 4.34375 8H4.0625V9.5H4.34375C4.81133 9.5 5.1875 9.16563 5.1875 8.75ZM6.875 7.5C6.875 7.225 7.12812 7 7.4375 7H8.28125C9.21289 7 9.96875 7.67188 9.96875 8.5V10.5C9.96875 11.3281 9.21289 12 8.28125 12H7.4375C7.12812 12 6.875 11.775 6.875 11.5V7.5ZM8 11H8.28125C8.59063 11 8.84375 10.775 8.84375 10.5V8.5C8.84375 8.225 8.59063 8 8.28125 8H8V11ZM13.0625 7C13.3719 7 13.625 7.225 13.625 7.5C13.625 7.775 13.3719 8 13.0625 8H11.9375V9H13.0625C13.3719 9 13.625 9.225 13.625 9.5C13.625 9.775 13.3719 10 13.0625 10H11.9375V11.5C11.9375 11.775 11.6844 12 11.375 12C11.0656 12 10.8125 11.775 10.8125 11.5V7.5C10.8125 7.225 11.0656 7 11.375 7H13.0625Z"/></svg>