<svg viewBox="0 0 16 16" xmlns="http://www.w3.org/2000/svg"><path d="M4.75865 3.84821C3.92875 3.84821 3.25601 4.54376 3.25601 5.40179C3.25601 6.25981 3.92875 6.95536 4.75865 6.95536C5.58854 6.95536 6.26129 6.25981 6.26129 5.40179C6.26129 4.54376 5.58823 3.84821 4.75865 3.84821ZM13.9968 1H1.97563C0.897174 1 0 1.92729 0 3.07143V13.4286C0 14.5727 0.896889 15.5 1.97535 15.5H13.9965C15.1031 15.5 16 14.5727 16 13.4286V3.07143C16.0003 1.92729 15.13 1 13.9968 1ZM14.4976 13.2117L10.2151 7.19487C10.1369 7.04598 9.95841 6.95536 9.76745 6.95536C9.57609 6.95536 9.39743 7.04495 9.2913 7.19419L5.95419 11.8581L4.79308 10.3661C4.68536 10.2276 4.51341 10.1457 4.33071 10.1457C4.14783 10.1457 3.97602 10.2275 3.86802 10.3661L1.50387 13.4023C1.50387 13.4014 1.50387 13.4033 1.50387 13.4023L1.50261 3.07143C1.50261 2.7859 1.72732 2.55357 2.00349 2.55357H14.0246C14.3008 2.55357 14.5255 2.7859 14.5255 3.07143V13.2117H14.4976Z"/></svg>