<svg viewBox="0 0 16 16" xmlns="http://www.w3.org/2000/svg"><path d="M8 8C9.24277 8 10.25 7.10469 10.25 6C10.25 4.89531 9.24277 4 8 4C6.75723 4 5.75 4.89688 5.75 6C5.75 7.10312 6.75898 8 8 8ZM12.5 0H3.5C2.25723 0 1.25 0.895313 1.25 2V14C1.25 15.1047 2.25723 16 3.5 16H12.5C13.7428 16 14.75 15.1047 14.75 14V2C14.75 0.895313 13.741 0 12.5 0ZM13.0625 14C13.0625 14.2757 12.8101 14.5 12.5 14.5H3.5C3.18985 14.5 2.9375 14.2757 2.9375 14V2C2.9375 1.72431 3.18985 1.5 3.5 1.5H12.5C12.8101 1.5 13.0625 1.72431 13.0625 2V14ZM9.125 9H6.875C5.3218 9 4.0625 10.1194 4.0625 11.5C4.0625 11.775 4.31422 12 4.625 12H11.375C11.6856 12 11.9375 11.7761 11.9375 11.5C11.9375 10.1187 10.6789 9 9.125 9Z"/></svg>