<svg viewBox="0 0 16 16" xmlns="http://www.w3.org/2000/svg"><path d="M14.59 3.88L11.37 0.66C10.95 0.24 10.37 0 9.78 0H3C1.76 0 0.75 1.01 0.75 2.25V13.75C0.75 14.99 1.76 16 3 16H12C12.41 16 12.75 15.66 12.75 15.25C12.75 14.84 12.41 14.5 12 14.5H3C2.59 14.5 2.25 14.16 2.25 13.75V2.25C2.25 1.84 2.59 1.5 3 1.5H9V4C9 5.24 10.01 6.25 11.25 6.25H13.75V15.25C13.75 15.66 14.09 16 14.5 16C14.91 16 15.25 15.66 15.25 15.25V5.48C15.25 4.88 15.02 4.31 14.59 3.88ZM10.5 4V1.91L13.34 4.75H11.25C10.84 4.75 10.5 4.41 10.5 4Z"/></svg>