<svg xmlns="http://www.w3.org/2000/svg" viewBox="0 0 16 16"><path d="M10.083 5.584a1.292 1.292 0 10-1.292-1.292 1.292 1.292 0 001.292 1.292zM3 1v13h10V1zm9 11H8.74c-.1-.027-.233-.094-.233-.236v-1.475a1.224 1.224 0 00.639-.389.549.549 0 001.019-.049h.021a.808.808 0 00.866-.734.646.646 0 00-.169-.412.859.859 0 00.386-.688 1.009 1.009 0 00-1.083-.916h-.021a.717.717 0 00-.738-.553 1 1 0 00-.145.025 1.6 1.6 0 00-1.263-.575 1.567 1.567 0 00-1.319.671 1.342 1.342 0 00-.523-.113 1.111 1.111 0 00-1.191 1.009.868.868 0 00.181.5.521.521 0 00.033 1.021.675.675 0 00-.083.3c0 .509.562.92 1.258.92a1.468 1.468 0 00.936-.318 1.235 1.235 0 00.193.131v1.594c0 .209-.193.262-.332.291H4V2h8z"/></svg>