<svg viewBox="0 0 16 16" xmlns="http://www.w3.org/2000/svg"><path d="M13.0833 14.5C13.4156 14.5 13.6875 14.275 13.6875 14V13H15.5V14C15.5 15.1031 14.4163 16 13.0833 16H3.41667C2.08184 16 1 15.1031 1 14V13H2.8125V14C2.8125 14.275 3.08286 14.5 3.41667 14.5H13.0833ZM10.6667 5C9.99831 5 9.45833 4.55312 9.45833 4V1.5H3.41667C3.08286 1.5 2.8125 1.72375 2.8125 2V6H1V2C1 0.895313 2.08184 0 3.41667 0H9.66602C10.3079 0 10.9197 0.210719 11.3728 0.585938L14.7939 3.41563C15.247 3.79063 15.5 4.29688 15.5 4.82812V6H13.6875V5H10.6667ZM4.32292 7C5.48971 7 6.4375 7.78438 6.4375 8.75C6.4375 9.71562 5.48971 10.5 4.32292 10.5H4.02083V11.5C4.02083 11.775 3.75047 12 3.41667 12C3.08286 12 2.8125 11.775 2.8125 11.5V7.5C2.8125 7.225 3.08286 7 3.41667 7H4.32292ZM5.22917 8.75C5.22917 8.33438 4.82513 8 4.32292 8H4.02083V9.5H4.32292C4.82513 9.5 5.22917 9.16562 5.22917 8.75ZM7.04167 7.5C7.04167 7.225 7.31354 7 7.64583 7H8.55208C9.55273 7 10.3646 7.67188 10.3646 8.5V10.5C10.3646 11.3281 9.55273 12 8.55208 12H7.64583C7.31354 12 7.04167 11.775 7.04167 11.5V7.5ZM8.25 11H8.55208C8.88438 11 9.15625 10.775 9.15625 10.5V8.5C9.15625 8.225 8.88438 8 8.55208 8H8.25V11ZM13.6875 7C14.0198 7 14.2917 7.225 14.2917 7.5C14.2917 7.775 14.0198 8 13.6875 8H12.4792V9H13.6875C14.0198 9 14.2917 9.225 14.2917 9.5C14.2917 9.775 14.0198 10 13.6875 10H12.4792V11.5C12.4792 11.775 12.2073 12 11.875 12C11.5427 12 11.2708 11.775 11.2708 11.5V7.5C11.2708 7.225 11.5427 7 11.875 7H13.6875Z"/></svg>