<svg viewBox="0 0 16 16" xmlns="http://www.w3.org/2000/svg"><path d="M8.245 8C9.57891 8 10.66 7.10469 10.66 6C10.66 4.89531 9.57891 4 8.245 4C6.91109 4 5.83 4.89687 5.83 6C5.83 7.10313 6.91298 8 8.245 8ZM13.075 0H3.415C2.08109 0 1 0.895313 1 2V14C1 15.1047 2.08109 16 3.415 16H13.075C14.4089 16 15.49 15.1047 15.49 14V2C15.49 0.895313 14.407 0 13.075 0ZM13.6788 14C13.6788 14.2757 13.4079 14.5 13.075 14.5H3.415C3.08211 14.5 2.81125 14.2757 2.81125 14V2C2.81125 1.72431 3.08211 1.5 3.415 1.5H13.075C13.4079 1.5 13.6788 1.72431 13.6788 2V14ZM9.4525 9H7.0375C5.3704 9 4.01875 10.1194 4.01875 11.5C4.01875 11.775 4.28893 12 4.6225 12H11.8675C12.2009 12 12.4712 11.7761 12.4712 11.5C12.4712 10.1187 11.1204 9 9.4525 9Z"/></svg>