<svg viewBox="0 0 16 16" xmlns="http://www.w3.org/2000/svg"><path d="M0 2.28451C0 1.5751 0.583438 1 1.30313 1H14.6969C15.4156 1 16 1.5751 16 2.28451C16 2.58022 15.8969 2.8667 15.7062 3.09464L10.5 9.39397V13.805C10.5 14.3533 10.0469 14.8 9.49063 14.8C9.2625 14.8 9.04062 14.723 8.8625 14.5567L5.97187 12.3234C5.675 12.0893 5.5 11.735 5.5 11.3592V9.39397L0.292906 3.09464C0.103469 2.8667 0 2.58022 0 2.28451ZM1.7175 2.47857L6.83125 8.66393C6.94062 8.79638 7 8.96272 7 9.13214V11.2391L9 12.8039V9.13214C9 8.96272 9.05937 8.79638 9.16875 8.66393L14.2812 2.47857H1.7175Z"/></svg>