<svg viewBox="0 0 16 16" xmlns="http://www.w3.org/2000/svg"><g clip-path="url(#clip0)"><path d="M8.52 4.2501H15.25C15.66 4.2501 16 3.9101 16 3.5001C16 3.0901 15.66 2.7501 15.25 2.7501H8.52C8.11 2.7501 7.77 3.0901 7.77 3.5001C7.77 3.9101 8.11 4.2501 8.52 4.2501Z"/><path d="M15.25 11.7501H6.64C6.32 10.8001 5.43 10.1001 4.37 10.1001C3.31 10.1001 2.42 10.7901 2.1 11.7501H0.75C0.34 11.7501 0 12.0901 0 12.5001C0 12.9101 0.34 13.2501 0.75 13.2501H2.11C2.43 14.2001 3.32 14.9001 4.38 14.9001C5.44 14.9001 6.33 14.2101 6.65 13.2501H15.26C15.67 13.2501 16.01 12.9101 16.01 12.5001C16.01 12.0901 15.66 11.7501 15.25 11.7501ZM4.37 13.4001C3.88 13.4001 3.47 13.0001 3.47 12.5101C3.47 12.0201 3.87 11.6201 4.37 11.6201C4.86 11.6201 5.27 12.0201 5.27 12.5201C5.27 13.0001 4.87 13.4001 4.37 13.4001Z"/><path d="M0.75 4.2501H2.11C2.42 5.2001 3.32 5.9001 4.37 5.9001C5.69 5.9001 6.77 4.8201 6.77 3.5001C6.77 2.1801 5.69 1.1001 4.37 1.1001C3.31 1.1001 2.42 1.7901 2.1 2.7501H0.75C0.34 2.7501 0 3.0901 0 3.5001C0 3.9101 0.34 4.2501 0.75 4.2501ZM4.37 2.6001C4.86 2.6001 5.27 3.0001 5.27 3.5001C5.27 4.0001 4.87 4.4001 4.37 4.4001C3.88 4.4001 3.47 4.0001 3.47 3.5101C3.48 3.0001 3.88 2.6001 4.37 2.6001Z"/><path d="M15.25 7.2601H13.9C13.58 6.3101 12.69 5.6101 11.63 5.6101C10.57 5.6101 9.68 6.3001 9.36 7.2601H0.75C0.34 7.2601 0 7.5901 0 8.0101C0 8.4301 0.34 8.7601 0.75 8.7601H9.36C9.68 9.7101 10.57 10.4101 11.63 10.4101C12.69 10.4101 13.58 9.7201 13.9 8.7601H15.25C15.66 8.7601 16 8.4201 16 8.0101C16 7.6001 15.66 7.2601 15.25 7.2601ZM11.63 8.9001C11.13 8.9001 10.73 8.5001 10.73 8.0001C10.73 7.5001 11.13 7.1001 11.63 7.1001C12.13 7.1001 12.53 7.5001 12.53 8.0001C12.53 8.5001 12.12 8.9001 11.63 8.9001Z"/></g><defs><clipPath><rect/></clipPath></defs></svg>