<svg xmlns="http://www.w3.org/2000/svg" viewBox="0 0 16 16"><path d="M12.896 9.032a4.916 4.916 0 00-.305-1.014 5.399 5.399 0 00-.699-1.16c-.439-.561-.966-1.041-1.5-1.511a9.723 9.723 0 01-1.259-1.3 2.742 2.742 0 01-.193-.289 3.177 3.177 0 01-.321-1.066c-.001-.022-.005-.043-.006-.066C8.532 1.665 8.95 1 8.95 1c-.051.015-.097.038-.145.056l.005-.009s-.062.023-.158.069a2.868 2.868 0 00-.221.113l-.02.011c-.07.04-.139.08-.204.126-.727.477-1.855 1.553-1.876 3.645l-.002.014.001.008-.002.034.005-.008c-.007.465.114.897.38 1.285.273.395.597.748.956 1.071.292.263.557.549.791.862.309.411.402.872.311 1.368-.142.772-.957 1.366-1.955 1.268-.768-.133-1.194-.439-1.526-1.147l-.152-.38c-.512-1.707.674-3.242.674-3.242a4.237 4.237 0 00-1.6.924l-.001-.004-.017.021c-1.056 1-1.13 2.23-1.13 2.23l.018.008c-.022.141-.051.272-.064.429-.041.479-.011.955.099 1.424.27 1.149.891 2.084 1.841 2.806a4.923 4.923 0 002.858 1.014c.5.019.992-.03 1.474-.162 1.349-.371 2.369-1.156 3.07-2.337a4.53 4.53 0 00.627-2.019 5.44 5.44 0 00-.091-1.446z"/></svg>