<svg viewBox="0 0 16 16" xmlns="http://www.w3.org/2000/svg"><path d="M15.9255 6.57524C15.8354 5.66982 15.5847 4.7877 15.1851 3.97028C14.7801 3.16624 14.2121 2.4553 13.5174 1.88271C12.8226 1.31011 12.0163 0.888396 11.1497 0.644385L11.0503 0.622677C11.8308 1.30127 12.4422 2.15252 12.8361 3.10881C13.2545 4.05524 13.4285 5.0916 13.3422 6.1228C13.1661 5.74334 12.9138 5.40412 12.6011 5.12621C12.2884 4.84831 11.922 4.63763 11.5244 4.50727C11.6387 4.6695 11.7461 4.79175 11.8272 4.92886C12.2767 5.69711 12.503 6.57548 12.4807 7.46527C12.4869 7.89739 12.4063 8.32636 12.2436 8.72673C12.0809 9.1271 11.8395 9.49072 11.5336 9.79602C10.8696 10.4527 10.0321 10.9065 9.11943 11.1042C8.59159 11.2378 8.04018 11.2487 7.50745 11.1363C6.97472 11.0238 6.47481 10.7908 6.04603 10.4553L5.94892 10.3639C6.00496 10.3713 6.0615 10.3744 6.11801 10.373C6.46867 10.3709 6.8189 10.348 7.16685 10.3044C7.55149 10.2296 7.91604 10.0745 8.23672 9.84925C8.55741 9.62405 8.82703 9.33379 9.02803 8.99739C9.04514 8.96469 9.07148 8.93773 9.10377 8.91986C9.13606 8.90199 9.17289 8.89399 9.20969 8.89685C9.34064 8.89952 9.47144 8.88648 9.59929 8.858C9.70749 8.84297 9.80876 8.79603 9.89016 8.72318C9.97156 8.65032 10.0294 8.55486 10.0563 8.44898C10.0773 8.3432 10.0684 8.23365 10.0304 8.1327C9.99247 8.03174 9.92703 7.94342 9.84151 7.87772L9.67584 7.76347C9.48294 7.66266 9.26853 7.61001 9.05088 7.61001C8.83323 7.61001 8.61881 7.66266 8.42592 7.76347C8.18256 7.89143 7.94491 8.03539 7.69584 8.15078C7.44359 8.27213 7.18088 8.37041 6.91093 8.44441C6.55827 8.54487 6.18032 8.50363 5.85763 8.32948C5.53493 8.15533 5.29302 7.86204 5.18343 7.51211C5.09764 7.25395 5.11693 6.97239 5.23712 6.72834C5.64958 6.92485 6.05175 7.11565 6.47334 7.31902C6.42992 6.74776 6.38651 6.19706 6.34309 5.64408L6.48019 5.60409C6.9108 5.51656 7.31638 5.33387 7.66728 5.06939C7.83752 4.93723 7.97271 4.76529 8.06096 4.56866C8.14921 4.37204 8.18783 4.15675 8.17342 3.94172C8.17606 3.91811 8.17342 3.89422 8.16568 3.87176C8.15794 3.84931 8.14529 3.82886 8.12866 3.81191C8.11203 3.79495 8.09184 3.78191 8.06954 3.77373C8.04724 3.76555 8.0234 3.76244 7.99975 3.76462C7.74269 3.75434 7.48676 3.74863 7.23083 3.72007C6.82524 3.67322 6.4185 3.61153 6.01519 3.5544C5.92835 3.54183 5.88494 3.49842 5.90093 3.41158C5.93261 3.18714 5.98618 2.96634 6.06089 2.75235C6.37487 2.04636 6.8151 1.40362 7.35994 0.855752L7.4422 0.771205L7.41707 0.727789C6.74862 0.746869 6.09244 0.912011 5.4946 1.21162C4.89675 1.51124 4.37172 1.93806 3.95635 2.46214C3.56428 2.32517 3.13773 2.32276 2.74413 2.45529C2.77498 1.64638 2.80583 0.843184 2.8401 0C2.77498 0.0594114 2.74071 0.0879745 2.70643 0.12225C2.23615 0.570261 1.83529 1.08587 1.51706 1.65209C0.418235 3.54484 -0.103204 5.71757 0.0169223 7.90285C0.0590028 9.25824 0.471957 10.5761 1.21086 11.7132C2.02372 13.0649 3.22586 14.1397 4.65984 14.7968C6.09382 15.4538 7.69281 15.6625 9.24739 15.3955C10.7604 15.1928 12.1714 14.5193 13.2805 13.4704C14.4932 12.4124 15.3637 11.0177 15.7815 9.46354C16.0117 8.51854 16.0606 7.53845 15.9255 6.57524Z"/></svg>