<svg viewBox="0 0 16 16" xmlns="http://www.w3.org/2000/svg"><path d="M10.6472 1.60056C10.0299 2.20175 9.46929 2.83416 8.97425 3.4697C8.16012 2.29919 7.14918 1.10868 6.01 0C3.08004 2.84572 1 6.5584 1 8.7945C1 12.7701 3.98811 15.99 7.68 15.99C11.3719 15.99 14.36 12.7701 14.36 8.7945C14.36 7.13304 12.8093 3.70081 10.6472 1.60056ZM7.68 14.4909C4.78732 14.4909 2.43143 11.9338 2.43143 8.7945C2.43143 7.37726 3.75103 4.6346 6.01298 2.10806C6.68098 2.83822 7.29232 3.59775 7.8142 4.35353L8.90656 5.92692L10.0809 4.42005C10.2561 4.19753 10.4352 3.97907 10.6177 3.76421C12.0011 5.55902 12.9286 7.82011 12.9286 8.7945C12.9286 11.9332 10.5727 14.4909 7.68 14.4909ZM10.349 7.59213L8.81679 9.41911C8.81679 9.41911 6.42004 6.21486 6.24112 5.99625C4.97221 7.58588 4.34 8.51343 4.34 9.56902C4.34 11.6896 5.87282 12.9919 7.75455 12.9919C8.50754 12.9919 9.20477 12.7459 9.77138 12.3323C11.0537 11.3916 11.3555 9.56433 10.6437 8.13803C10.5548 7.96377 10.4564 7.77951 10.349 7.59213Z"/></svg>