<svg viewBox="0 0 16 16" xmlns="http://www.w3.org/2000/svg"><g clip-path="url(#clip0)"><path d="M9.14982 15.9901C8.78982 15.9901 8.47982 15.7401 8.40982 15.3701C8.33982 14.9601 8.60982 14.5701 9.00982 14.5001C11.4198 14.0601 13.1798 12.1101 13.1798 9.86006C13.1798 7.75006 11.8398 6.49006 10.6598 5.39006L10.3498 5.10006C9.38982 4.18006 8.55982 3.30006 8.27982 2.18006C7.51982 3.08006 7.53982 4.36006 7.87982 5.19006C9.12982 8.16006 7.86982 9.32006 7.00982 9.74006C6.19982 10.1401 5.32982 10.1501 4.55982 9.76006C3.90982 9.44006 3.39982 8.85006 3.15982 8.18006C2.93982 8.71006 2.81982 9.28006 2.81982 9.87006C2.81982 12.1201 4.56982 14.0701 6.98982 14.5101C7.39982 14.5801 7.66982 14.9701 7.58982 15.3801C7.51982 15.7901 7.11982 16.0501 6.71982 15.9801C3.58982 15.4101 1.31982 12.8401 1.31982 9.86006C1.31982 8.16006 2.04982 6.56006 3.37982 5.38006C3.64982 5.14006 4.12982 5.12006 4.41982 5.34006C4.70982 5.55006 4.81982 5.97006 4.66982 6.32006C4.49982 6.68006 4.44982 7.11006 4.52982 7.52006C4.59982 7.89006 4.87982 8.24006 5.22982 8.42006C5.47982 8.54006 5.86982 8.63006 6.34982 8.40006C6.60982 8.27006 7.38982 7.88006 6.49982 5.77006C5.68982 3.84006 6.28982 1.10006 8.68982 0.0600591C8.94982 -0.0499409 9.23982 -0.00994089 9.45982 0.160059C9.67982 0.330059 9.77982 0.620059 9.72982 0.890059C9.50982 2.01006 10.0398 2.73006 11.3898 4.01006L11.6898 4.30006C12.9498 5.49006 14.6798 7.11006 14.6798 9.87006C14.6798 12.8501 12.4098 15.4201 9.27982 15.9901C9.23982 15.9901 9.18982 15.9901 9.14982 15.9901Z"/></g><defs><clipPath><rect/></clipPath></defs></svg>