<svg viewBox="0 0 16 16" xmlns="http://www.w3.org/2000/svg"><path d="M10.9672 1.60557C10.3499 2.20675 9.78929 2.83917 9.29426 3.47471C8.48013 2.30419 7.46919 1.11369 6.33001 0.00500488C3.40005 2.85073 1.32001 6.5634 1.32001 8.7995C1.32001 12.7751 4.30811 15.995 8.00001 15.995C11.6919 15.995 14.68 12.7751 14.68 8.7995C14.68 7.13804 13.1293 3.70582 10.9672 1.60557ZM8.00001 14.4959C5.10733 14.4959 2.75144 11.9388 2.75144 8.7995C2.75144 7.38227 4.07103 4.63961 6.33299 2.11306C7.00099 2.84323 7.61233 3.60275 8.1342 4.35853L9.22656 5.93192L10.4009 4.42505C10.5761 4.20254 10.7552 3.98408 10.9377 3.76921C12.3211 5.56403 13.2486 7.82511 13.2486 8.7995C13.2486 11.9382 10.8927 14.4959 8.00001 14.4959ZM10.669 7.59713L9.1368 9.42411C9.1368 9.42411 6.74005 6.21987 6.56112 6.00125C5.29222 7.59089 4.66001 8.51843 4.66001 9.57402C4.66001 11.6946 6.19283 12.9969 8.07456 12.9969C8.82755 12.9969 9.52478 12.7509 10.0914 12.3373C11.3737 11.3966 11.6755 9.56934 10.9637 8.14304C10.8748 7.96877 10.7764 7.78451 10.669 7.59713Z"/></svg>