<svg viewBox="0 0 16 16" xmlns="http://www.w3.org/2000/svg"><path d="M7.69517 0.637228C5.91574 0.142373 4.41916 0.00858045 3.35786 0.000407392C2.82726 -0.00367875 2.40523 0.0236273 2.11062 0.0529556C1.96329 0.0676222 1.84773 0.0828035 1.7663 0.0948412C1.72558 0.100861 1.69337 0.106096 1.66998 0.11009L1.64153 0.115095L1.63233 0.116794L1.62899 0.117424L1.62765 0.117681C1.62765 0.117681 1.66998 0.11009 1.62651 0.1179C1.26236 0.18817 1 0.499114 1 0.860424V15.243C1 15.6611 1.34822 16 1.77778 16C2.20733 16 2.55556 15.6611 2.55556 15.243V1.53566C2.76955 1.52175 3.03464 1.51192 3.34555 1.51432C4.28416 1.52155 5.63943 1.64008 7.26779 2.09292C9.14154 2.61401 10.6944 2.79821 11.9188 2.75239C12.4824 2.7313 12.9951 2.66056 13.4444 2.54181V8.61442C13.1233 8.75597 12.6099 8.88464 11.859 8.91274C10.8364 8.95101 9.45105 8.79873 7.69517 8.31042C6.45333 7.96507 5.34914 7.79554 4.43452 7.72188C4.00643 7.6874 3.63067 7.9972 3.59524 8.41385C3.55981 8.83049 3.87813 9.1962 4.30622 9.23068C5.12778 9.29685 6.1312 9.45004 7.26779 9.76612C9.14154 10.2872 10.6944 10.4714 11.9188 10.4256C13.1204 10.3806 14.0909 10.11 14.7081 9.62946C14.8926 9.48581 15 9.26832 15 9.03836V1.36516C15 1.07418 14.8286 0.808949 14.5591 0.682897C14.2897 0.556845 13.9698 0.592286 13.7363 0.774063C13.4893 0.966402 12.9043 1.20043 11.859 1.23955C10.8364 1.27782 9.45105 1.12553 7.69517 0.637228Z"/></svg>