<svg viewBox="0 0 16 16" xmlns="http://www.w3.org/2000/svg"><path d="M14 2.07143H8.62187L7.1125 0.606864C6.7375 0.218147 6.23125 0 5.7 0H2C0.895313 0 0 0.927612 0 2.07143V12.4286C0 13.5724 0.895313 14.5 2 14.5H14C15.1047 14.5 16 13.5724 16 12.4286V4.14286C16 3.00033 15.1313 2.07143 14 2.07143ZM14.5 12.4286C14.5 12.7142 14.2757 12.9464 14 12.9464H2C1.72431 12.9464 1.5 12.7142 1.5 12.4286V2.07143C1.5 1.78583 1.72431 1.55357 2 1.55357H5.67188C5.80541 1.55357 5.93103 1.60743 6.02531 1.7053L8 3.625H14C14.2757 3.625 14.5 3.85726 14.5 4.14286V12.4286Z"/></svg>