<svg viewBox="0 0 16 16" xmlns="http://www.w3.org/2000/svg"><path d="M15.5 6.49C15.23 6.18 14.89 5.96 14.5 5.85V4.83C14.5 3.67 13.56 2.73 12.4 2.73H8.83999C8.64999 2.73 8.46999 2.64 8.35999 2.49L7.68999 1.59C7.28999 1.06 6.65999 0.75 6.00999 0.75H3.59999C2.43999 0.75 1.49999 1.69 1.49999 2.85V5.85C1.11999 5.97 0.76999 6.18 0.49999 6.49C0.0999903 6.96 -0.0700097 7.58 0.0299903 8.19L0.90999 13.49C1.07999 14.51 1.94999 15.25 2.97999 15.25H10.51C10.92 15.25 11.26 14.91 11.26 14.5C11.26 14.09 10.92 13.75 10.51 13.75H2.97999C2.68999 13.75 2.43999 13.54 2.38999 13.25L1.50999 7.95C1.46999 7.71 1.57999 7.54 1.64999 7.46C1.70999 7.38 1.85999 7.25 2.09999 7.25H13.9C14.14 7.25 14.29 7.38 14.36 7.46C14.43 7.54 14.53 7.71 14.49 7.95L13.61 13.25C13.56 13.54 13.31 13.75 13.02 13.75C12.61 13.75 12.27 14.09 12.27 14.5C12.27 14.91 12.61 15.25 13.02 15.25C14.05 15.25 14.92 14.51 15.09 13.49L15.97 8.19C16.07 7.58 15.9 6.96 15.5 6.49ZM3.59999 2.25H6.00999C6.19999 2.25 6.37999 2.34 6.48999 2.49L7.15999 3.39C7.54999 3.92 8.17999 4.23 8.83999 4.23H12.4C12.73 4.23 13 4.5 13 4.83V5.75H2.99999V2.85C2.99999 2.52 3.26999 2.25 3.59999 2.25Z"/></svg>