<svg viewBox="0 0 16 16" xmlns="http://www.w3.org/2000/svg"><path d="M14 2.82143H8.62187L7.1125 1.35686C6.7375 0.968147 6.23125 0.75 5.7 0.75H2C0.895313 0.75 0 1.67761 0 2.82143V13.1786C0 14.3224 0.895313 15.25 2 15.25H14C15.1047 15.25 16 14.3224 16 13.1786V4.89286C16 3.75033 15.1313 2.82143 14 2.82143ZM14.5 13.1786C14.5 13.4642 14.2757 13.6964 14 13.6964H2C1.72431 13.6964 1.5 13.4642 1.5 13.1786V2.82143C1.5 2.53583 1.72431 2.30357 2 2.30357H5.67188C5.80541 2.30357 5.93103 2.35743 6.02531 2.4553L8 4.375H14C14.2757 4.375 14.5 4.60726 14.5 4.89286V13.1786Z"/></svg>