<svg viewBox="0 0 16 16" xmlns="http://www.w3.org/2000/svg"><path d="M14 3.75H8.9C8.74 3.75 8.59 3.68 8.5 3.55L7 1.55C6.62 1.05 6.03 0.75 5.4 0.75H2C0.9 0.75 0 1.65 0 2.75V13.25C0 14.35 0.9 15.25 2 15.25H9.5C9.91 15.25 10.25 14.91 10.25 14.5C10.25 14.09 9.91 13.75 9.5 13.75H2C1.72 13.75 1.5 13.53 1.5 13.25V2.75C1.5 2.47 1.72 2.25 2 2.25H5.4C5.56 2.25 5.71 2.33 5.8 2.45L7.3 4.45C7.68 4.95 8.27 5.25 8.9 5.25H14C14.28 5.25 14.5 5.47 14.5 5.75V8.5C14.5 8.91 14.84 9.25 15.25 9.25C15.66 9.25 16 8.91 16 8.5V5.75C16 4.65 15.1 3.75 14 3.75Z"/><path d="M15.25 10.75H13.25V8.75C13.25 8.34 12.91 8 12.5 8C12.09 8 11.75 8.34 11.75 8.75V10.75H9.75C9.34 10.75 9 11.09 9 11.5C9 11.91 9.34 12.25 9.75 12.25H11.75V14.25C11.75 14.66 12.09 15 12.5 15C12.91 15 13.25 14.66 13.25 14.25V12.25H15.25C15.66 12.25 16 11.91 16 11.5C16 11.09 15.66 10.75 15.25 10.75Z"/></svg>