<svg viewBox="0 0 16 16" xmlns="http://www.w3.org/2000/svg"><path d="M15.9056 7.71283L13.239 13.9271C13.089 14.2799 12.7806 14.5 12.4195 14.5H1.77779C0.795838 14.5 0 13.5724 0 12.4286V2.07143C0 0.927612 0.795838 0 1.77779 0H5.04169C5.51309 0 5.96531 0.218212 6.29892 0.606864L7.66393 2.07143H11.5556C12.5376 2.07143 13.3334 2.99904 13.3334 4.14286V5.17857H12.0001V4.14286C12.0001 3.85726 11.8007 3.625 11.5556 3.625H7.11115L5.35558 1.70537C5.27225 1.6073 5.16114 1.55357 5.04169 1.55357H1.77779C1.53279 1.55357 1.33334 1.78596 1.33334 2.07143V11.3929L3.31002 6.78717C3.46113 6.43437 3.76946 6.21429 4.10558 6.21429H15.1112C15.7695 6.21429 16.2001 7.02344 15.9056 7.71283Z"/></svg>