<svg viewBox="0 0 16 16" xmlns="http://www.w3.org/2000/svg"><path d="M14 2.07143H8.62187L7.08437 0.606864C6.70937 0.218147 6.20312 0 5.67188 0H2C0.895625 0 0 0.927612 0 2.07143V12.4286C0 13.5724 0.895625 14.5 2 14.5H14C15.1044 14.5 16 13.5724 16 12.4286V4.14286C16 3.00033 15.1031 2.07143 14 2.07143ZM14.5 12.4286C14.5 12.7142 14.2756 12.9464 14 12.9464H2C1.72438 12.9464 1.5 12.7142 1.5 12.4286V2.07143C1.5 1.78583 1.72438 1.55357 2 1.55357H5.67188C5.80541 1.55357 5.93091 1.60743 6.02531 1.7053L8 3.625H14C14.2756 3.625 14.5 3.85726 14.5 4.14286V12.4286ZM10.5 7.50893H8.75V5.6673C8.72188 5.26596 8.41562 4.91964 8 4.91964C7.58437 4.91964 7.25 5.26596 7.25 5.6673V7.50893H5.47187C5.08437 7.50893 4.75 7.85525 4.75 8.28571C4.75 8.71489 5.08531 9.03337 5.47187 9.03337H7.22187V10.8459C7.25 11.3055 7.58437 11.6518 8 11.6518C8.41437 11.6518 8.72188 11.3042 8.72188 10.9041V9.03337H10.4719C10.9156 9.03337 11.25 8.71618 11.25 8.28571C11.25 7.85525 10.9156 7.50893 10.5 7.50893Z"/></svg>