<svg viewBox="0 0 16 16" xmlns="http://www.w3.org/2000/svg"><path d="M15.9056 8.46283L13.239 14.6771C13.089 15.0299 12.7806 15.25 12.4195 15.25H1.77779C0.795838 15.25 0 14.3224 0 13.1786V2.82143C0 1.67761 0.795838 0.75 1.77779 0.75H5.04169C5.51309 0.75 5.96531 0.968212 6.29892 1.35686L7.66393 2.82143H11.5556C12.5376 2.82143 13.3334 3.74904 13.3334 4.89286V5.92857H12.0001V4.89286C12.0001 4.60726 11.8007 4.375 11.5556 4.375H7.11115L5.35558 2.45537C5.27225 2.3573 5.16114 2.30357 5.04169 2.30357H1.77779C1.53279 2.30357 1.33334 2.53596 1.33334 2.82143V12.1429L3.31002 7.53716C3.46113 7.18437 3.76946 6.96429 4.10558 6.96429H15.1112C15.7695 6.96429 16.2001 7.77344 15.9056 8.46283Z"/></svg>