<svg viewBox="0 0 16 16" xmlns="http://www.w3.org/2000/svg"><path d="M14 15.25C13.59 15.25 13.25 14.91 13.25 14.5C13.25 14.09 13.59 13.75 14 13.75C14.28 13.75 14.5 13.53 14.5 13.25V5.75C14.5 5.47 14.28 5.25 14 5.25H8.9C8.27 5.25 7.68 4.95 7.3 4.45L5.8 2.45C5.71 2.32 5.56 2.25 5.4 2.25H2C1.72 2.25 1.5 2.47 1.5 2.75V13.25C1.5 13.53 1.72 13.75 2 13.75H11.5C11.91 13.75 12.25 14.09 12.25 14.5C12.25 14.91 11.91 15.25 11.5 15.25H2C0.9 15.25 0 14.35 0 13.25V2.75C0 1.65 0.9 0.75 2 0.75H5.4C6.03 0.75 6.63 1.05 7 1.55L8.5 3.55C8.59 3.68 8.74 3.75 8.9 3.75H14C15.1 3.75 16 4.65 16 5.75V13.25C16 14.35 15.1 15.25 14 15.25Z"/></svg>