<svg viewBox="0 0 16 16" xmlns="http://www.w3.org/2000/svg"><path d="M12.95 1.71429H9.97997V0.571429C9.97997 0.257143 10.2027 0 10.475 0H12.455C12.7272 0 12.95 0.257143 12.95 0.571429V1.71429ZM6.02 0.571429C6.02 0.257143 5.79725 0 5.525 0H3.54502C3.27277 0 3.05002 0.257143 3.05002 0.571429V1.71429H6.02V0.571429ZM15.9199 14.2857C15.9269 15.23 15.2656 16 14.4476 16H10.475C9.65482 16 8.98998 15.2325 8.98998 14.2857V9.14286H7.00999V14.2857C7.00999 15.2321 6.34484 16 5.525 16H1.55235C0.734365 16 0.073068 15.2286 0.0800412 14.2857L0.0916427 12.7143C0.196025 8.08214 1.97758 7.35357 2.05616 4.00357C2.07091 3.37464 2.50104 2.85714 3.04615 2.85714H5.99216C6.56759 2.85714 7.00999 3.36786 7.00999 4V4.57143H8.98998V4C8.98998 3.36893 9.43331 2.85714 9.97997 2.85714L12.9537 2.85715C13.4988 2.85715 13.9291 3.37465 13.9437 4.00358C14.0235 7.35357 15.8055 8.08214 15.9076 12.7143L15.9199 14.2857ZM5.525 4.57143H3.51717C3.40271 6.17857 2.94947 7.30714 2.54729 8.31429C2.07147 9.49286 1.62288 10.6089 1.57277 12.7607L1.56503 14.3L5.525 14.2857V4.57143ZM14.4349 14.2857L14.4233 12.7275C14.3769 10.6068 13.9283 9.49071 13.4525 8.31321C13.052 7.30714 12.5973 6.17857 12.4828 4.57143H10.475V14.2857H14.4349Z"/></svg>