<svg viewBox="0 0 16 16" xmlns="http://www.w3.org/2000/svg"><path d="M14.8201 4.09C14.7401 3.32 14.1001 2.75 13.3301 2.75H13.2501V0.75C13.2501 0.33 12.9101 0 12.5001 0H9.50008C9.08008 0 8.75008 0.33 8.75008 0.75V2.75H7.25008V0.75C7.25008 0.33 6.91008 0 6.50008 0H3.50008C3.08008 0 2.75008 0.33 2.75008 0.75V2.75H2.67008C1.90008 2.75 1.26008 3.33 1.18008 4.09L0.090083 14.34C0.050083 14.76 0.180083 15.19 0.470083 15.5C0.750083 15.82 1.16008 16 1.58008 16H5.92008C6.34008 16 6.75008 15.82 7.04008 15.5C7.32008 15.18 7.46008 14.76 7.42008 14.34L6.99008 10.25H9.02008L8.59008 14.34C8.55008 14.76 8.68008 15.19 8.97008 15.5C9.25008 15.81 9.66008 16 10.0801 16H14.4201C14.8401 16 15.2501 15.82 15.5401 15.5C15.8201 15.18 15.9601 14.76 15.9201 14.34L14.8201 4.09ZM10.2501 1.5H11.7501V2.75H10.2501V1.5ZM4.25008 1.5H5.75008V2.75H4.25008V1.5ZM5.92008 14.5H1.58008L2.67008 4.25H13.3301L13.8101 8.75H3.83008C3.42008 8.75 3.08008 9.09 3.08008 9.5C3.08008 9.91 3.42008 10.25 3.83008 10.25H5.47008L5.92008 14.5ZM10.0801 14.5L10.5301 10.25H13.9801L14.4301 14.5H10.0801Z"/><path d="M9.50008 8C9.91008 8 10.2501 7.66 10.2501 7.25V6C10.2501 5.59 9.91008 5.25 9.50008 5.25C9.09008 5.25 8.75008 5.59 8.75008 6V7.25C8.75008 7.66 9.08008 8 9.50008 8Z"/><path d="M6.50008 8C6.91008 8 7.25008 7.66 7.25008 7.25V6C7.25008 5.59 6.91008 5.25 6.50008 5.25C6.09008 5.25 5.75008 5.59 5.75008 6V7.25C5.75008 7.66 6.08008 8 6.50008 8Z"/></svg>