<svg viewBox="0 0 16 16" xmlns="http://www.w3.org/2000/svg"><g clip-path="url(#clip0_318_693)"><path d="M12.87 1.71429H9.89999V0.571429C9.89999 0.257143 10.1227 0 10.395 0H12.375C12.6472 0 12.87 0.257143 12.87 0.571429V1.71429ZM5.94001 0.571429C5.94001 0.257143 5.71727 0 5.44502 0H3.46503C3.19278 0 2.97003 0.257143 2.97003 0.571429V1.71429H5.94001V0.571429ZM15.8399 14.2857C15.8469 15.23 15.1856 16 14.3676 16H10.395C9.57484 16 8.90999 15.2325 8.90999 14.2857V9.14286H6.93001V14.2857C6.93001 15.2321 6.26486 16 5.44502 16H1.47236C0.654378 16 -0.00691862 15.2286 5.46463e-05 14.2857L0.0116561 12.7143C0.116039 8.08214 1.89759 7.35357 1.97617 4.00357C1.99092 3.37464 2.42105 2.85714 2.96617 2.85714H5.91217C6.4876 2.85714 6.93001 3.36786 6.93001 4V4.57143H8.90999V4C8.90999 3.36893 9.35332 2.85714 9.89999 2.85714L12.8737 2.85715C13.4188 2.85715 13.8491 3.37465 13.8637 4.00358C13.9435 7.35357 15.7255 8.08214 15.8276 12.7143L15.8399 14.2857ZM5.44502 4.57143H3.43719C3.32272 6.17857 2.86949 7.30714 2.4673 8.31429C1.99149 9.49286 1.5429 10.6089 1.49278 12.7607L1.48504 14.3L5.44502 14.2857V4.57143ZM14.355 14.2857L14.3434 12.7275C14.2969 10.6068 13.8484 9.49071 13.3725 8.31321C12.9721 7.30714 12.5173 6.17857 12.4028 4.57143H10.395V14.2857H14.355Z"/></g><defs><clipPath><rect/></clipPath></defs></svg>