<svg viewBox="0 0 16 16" xmlns="http://www.w3.org/2000/svg"><g clip-path="url(#clip0)"><path d="M15.92 14.91L10.65 4.37C10.4 3.86 9.56 3.86 9.31 4.37L7.31 8.36C6.64 7.61 6.25 6.66 6.25 5.62C6.25 3.35 8.1 1.5 10.37 1.5C12.64 1.5 14.49 3.35 14.49 5.62C14.49 6.39 14.28 7.15 13.87 7.8C13.65 8.15 13.76 8.61 14.11 8.83C14.46 9.05 14.92 8.94 15.14 8.59C15.71 7.71 16 6.68 16 5.62C16 2.52 13.48 0 10.37 0C7.26 0 4.75 2.52 4.75 5.62C4.75 7.23 5.42 8.72 6.6 9.78L6.12 10.74H1.5V4.24H3.38C3.79 4.24 4.13 3.9 4.13 3.49C4.13 3.08 3.79 2.75 3.38 2.75H0.75C0.34 2.75 0 3.09 0 3.5V11.5C0 11.91 0.34 12.25 0.75 12.25H5.37L4.04 14.92C3.92 15.15 3.94 15.43 4.07 15.65C4.21 15.86 4.45 16 4.71 16H15.25C15.51 16 15.75 15.87 15.89 15.64C16.03 15.42 16.04 15.15 15.92 14.91ZM5.92 14.5L9.98 6.38L14.04 14.5H5.92Z"/></g><defs><clipPath><rect/></clipPath></defs></svg>