<svg viewBox="0 0 16 16" xmlns="http://www.w3.org/2000/svg"><path d="M8 0C3.59 0 0 3.59 0 8C0 12.41 3.59 16 8 16C12.41 16 16 12.41 16 8C16 3.59 12.41 0 8 0ZM1.5 8C1.5 4.42 4.42 1.5 8 1.5C8.37 1.5 8.73 1.54 9.09 1.6L9.24 1.74L8.74 2.59C8.46 3.06 8.32 3.59 8.32 4.13V4.28H7.27C6.49 4.28 5.86 4.91 5.86 5.69V6.02C5.86 6.7 6.16 7.33 6.68 7.77L6.83 7.9C7.23 8.23 7.75 8.42 8.27 8.42H8.92C9.12 8.42 9.32 8.5 9.46 8.64L11.27 10.45C11.52 10.7 11.6 11.08 11.47 11.41L10.45 14.01C10.13 14.14 9.79 14.25 9.44 14.33V13.08C9.44 12.51 9.12 11.99 8.61 11.73L7.6 11.22C7.34 11.09 7.18 10.83 7.18 10.54V9.63C7.18 9.11 6.92 8.63 6.47 8.35L4.5 7.13C4.27 6.99 4.14 6.75 4.14 6.48V6.02C4.14 5.61 3.8 5.27 3.39 5.27C2.98 5.27 2.64 5.61 2.64 6.02V6.48C2.64 7.27 3.04 7.98 3.7 8.4L5.66 9.63V10.54C5.66 11.4 6.14 12.18 6.91 12.56L7.93 13.07V14.48C4.38 14.46 1.5 11.56 1.5 8ZM12.63 12.56L12.86 11.97C13.21 11.08 13 10.07 12.33 9.4L10.52 7.59C10.09 7.16 9.52 6.92 8.92 6.92H8.27C8.09 6.92 7.92 6.86 7.78 6.74L7.63 6.61C7.45 6.47 7.35 6.25 7.35 6.03V5.78H8.64L8.84 6.11C8.98 6.34 9.23 6.46 9.48 6.46C9.62 6.46 9.75 6.42 9.88 6.35C10.23 6.13 10.34 5.67 10.12 5.32L9.81 4.82V4.13C9.81 3.86 9.88 3.59 10.02 3.35L10.75 2.12C12.96 3.16 14.5 5.4 14.5 8C14.5 9.77 13.78 11.38 12.63 12.56Z"/></svg>