<svg viewBox="0 0 16 16" xmlns="http://www.w3.org/2000/svg"><path d="M16 8C16 12.4187 12.4187 16 8 16C3.58125 16 0 12.4187 0 8C0 3.58125 3.58125 0 8 0C12.4187 0 16 3.58125 16 8ZM14.2625 6.25313L13.3781 6.08125C13.1656 6.03438 12.925 6.15 12.8156 6.36875C12.6344 6.73125 12.2156 6.87812 11.8313 6.77812L11.3906 6.63125C11.15 6.55 10.8875 6.6125 10.7094 6.79063C10.5656 6.90625 10.5656 7.06562 10.7094 7.20937L11.7563 8.25625C11.9125 8.4125 12 8.59688 12 8.84688C12 9.23125 11.7375 9.56563 11.3656 9.65938L11.2 9.7C11.0812 9.72812 11 9.83438 11 9.95625V10.3344C11 10.7656 10.8594 11.1594 10.6 11.5344L9.8 12.6C9.6125 12.8531 9.31563 13 9 13C8.44687 13 7.97188 12.5531 7.97188 12V10.5C7.97188 10.225 7.775 10 7.47188 10H6.47188C5.67188 10 4.97188 9.32812 4.97188 8.5V7.625C4.97188 7.23125 5.18438 6.8625 5.47188 6.625L6.73125 5.70312C6.87812 5.57188 7.11875 5.5 7.3375 5.5C7.44375 5.5 7.55313 5.51875 7.62813 5.55312L8.62813 5.88438C8.88125 5.95938 9.12187 5.96875 9.35312 5.9125L10.4594 5.63438C10.7781 5.55625 11 5.26875 11 4.94063C11 4.67188 10.8469 4.425 10.6062 4.30312L9.69063 3.84687C9.57813 3.7875 9.4375 3.78438 9.34688 3.90313L9.225 4.025C9.08125 4.16875 8.88437 4.22188 8.68125 4.22188C8.53437 4.22188 8.44375 4.22187 8.3375 4.16875L7.8625 3.93125C7.65 3.825 7.39375 3.88125 7.24687 4.06563L6.82188 4.59688C6.65 4.78438 6.33125 4.83125 6.13438 4.63438C6.05 4.55 5.97188 4.43125 5.97188 4.30937V3.01562C5.97188 2.84156 5.95313 2.67063 5.86875 2.51938L5.55625 1.97469C3.17813 2.94031 1.47187 5.275 1.47187 7.97188C1.47187 11.5906 4.40938 14.5 7.97188 14.5C11.5906 14.5 14.5 11.5906 14.5 7.97188C14.5 7.39375 14.4187 6.80938 14.2625 6.25313Z"/></svg>