<svg viewBox="0 0 16 16" xmlns="http://www.w3.org/2000/svg"><path d="M8.75 4H7.25C6.84 4 6.5 4.33 6.5 4.75V6.25C6.5 6.66 6.84 7 7.25 7H8.75C9.16 7 9.5 6.66 9.5 6.25V4.75C9.5 4.33 9.16 4 8.75 4Z"/><path d="M3.25 4H1.75C1.33 4 1 4.33 1 4.75V6.25C1 6.66 1.33 7 1.75 7H3.25C3.66 7 4 6.66 4 6.25V4.75C4 4.33 3.66 4 3.25 4Z"/><path d="M14.26 4H12.76C12.35 4 12.01 4.34 12.01 4.75V6.25C12.01 6.66 12.35 7 12.76 7H14.26C14.67 7 15.01 6.66 15.01 6.25V4.75C15.01 4.33 14.67 4 14.26 4Z"/><path d="M8.75 9H7.25C6.84 9 6.5 9.34 6.5 9.75V11.25C6.5 11.67 6.84 12 7.25 12H8.75C9.16 12 9.5 11.66 9.5 11.25V9.75C9.5 9.34 9.16 9 8.75 9Z"/><path d="M3.25 9H1.75C1.33 9 1 9.34 1 9.75V11.25C1 11.67 1.33 12 1.75 12H3.25C3.66 12 4 11.67 4 11.25V9.75C4 9.34 3.66 9 3.25 9Z"/><path d="M14.26 9H12.76C12.35 9 12.01 9.34 12.01 9.75V11.25C12.01 11.66 12.35 12 12.76 12H14.26C14.67 12 15.01 11.66 15.01 11.25V9.75C15.01 9.34 14.67 9 14.26 9Z"/></svg>