<svg viewBox="0 0 16 16" xmlns="http://www.w3.org/2000/svg"><path d="M4.99785 5C4.99785 4.4475 4.43808 4 3.74696 4H2.24589C1.55477 4 0.994995 4.4475 0.994995 5V6.2C0.994995 6.7525 1.55477 7.2 2.24589 7.2H3.74696C4.43808 7.2 4.99785 6.7525 4.99785 6.2V5ZM4.99785 9.8C4.99785 9.2475 4.43808 8.8 3.74696 8.8H2.24589C1.55477 8.8 0.994995 9.2475 0.994995 9.8V11C0.994995 11.5525 1.55477 12 2.24589 12H3.74696C4.43808 12 4.99785 11.5525 4.99785 11V9.8ZM5.99857 5V6.2C5.99857 6.7525 6.55834 7.2 7.24946 7.2H8.75053C9.44165 7.2 10.0014 6.7525 10.0014 6.2V5C10.0014 4.4475 9.44165 4 8.75053 4H7.24946C6.55834 4 5.99857 4.4475 5.99857 5ZM10.0014 9.8C10.0014 9.2475 9.44165 8.8 8.75053 8.8H7.24946C6.55834 8.8 5.99857 9.2475 5.99857 9.8V11C5.99857 11.5525 6.55834 12 7.24946 12H8.75053C9.44165 12 10.0014 11.5525 10.0014 11V9.8ZM11.0021 5V6.2C11.0021 6.7525 11.5619 7.2 12.253 7.2H13.7541C14.4452 7.2 15.005 6.7525 15.005 6.2V5C15.005 4.4475 14.4452 4 13.7541 4H12.253C11.5619 4 11.0021 4.4475 11.0021 5ZM15.005 9.8C15.005 9.2475 14.4452 8.8 13.7541 8.8H12.253C11.5619 8.8 11.0021 9.2475 11.0021 9.8V11C11.0021 11.5525 11.5619 12 12.253 12H13.7541C14.4452 12 15.005 11.5525 15.005 11V9.8Z"/></svg>