<svg viewBox="0 0 16 16" xmlns="http://www.w3.org/2000/svg"><path d="M5.42857 5C5.42857 4.4475 4.94911 4 4.35714 4H3.07143C2.47946 4 2 4.4475 2 5V6.2C2 6.7525 2.47946 7.2 3.07143 7.2H4.35714C4.94911 7.2 5.42857 6.7525 5.42857 6.2V5ZM5.42857 9.8C5.42857 9.2475 4.94911 8.8 4.35714 8.8H3.07143C2.47946 8.8 2 9.2475 2 9.8V11C2 11.5525 2.47946 12 3.07143 12H4.35714C4.94911 12 5.42857 11.5525 5.42857 11V9.8ZM6.28571 5V6.2C6.28571 6.7525 6.76518 7.2 7.35714 7.2H8.64286C9.23482 7.2 9.71429 6.7525 9.71429 6.2V5C9.71429 4.4475 9.23482 4 8.64286 4H7.35714C6.76518 4 6.28571 4.4475 6.28571 5ZM9.71429 9.8C9.71429 9.2475 9.23482 8.8 8.64286 8.8H7.35714C6.76518 8.8 6.28571 9.2475 6.28571 9.8V11C6.28571 11.5525 6.76518 12 7.35714 12H8.64286C9.23482 12 9.71429 11.5525 9.71429 11V9.8ZM10.5714 5V6.2C10.5714 6.7525 11.0509 7.2 11.6429 7.2H12.9286C13.5205 7.2 14 6.7525 14 6.2V5C14 4.4475 13.5205 4 12.9286 4H11.6429C11.0509 4 10.5714 4.4475 10.5714 5ZM14 9.8C14 9.2475 13.5205 8.8 12.9286 8.8H11.6429C11.0509 8.8 10.5714 9.2475 10.5714 9.8V11C10.5714 11.5525 11.0509 12 11.6429 12H12.9286C13.5205 12 14 11.5525 14 11V9.8Z"/></svg>