<svg viewBox="0 0 16 16" xmlns="http://www.w3.org/2000/svg"><path d="M6.25 6.5H4.75C4.34 6.5 4 6.84 4 7.25V8.75C4 9.17 4.34 9.5 4.75 9.5H6.25C6.67 9.5 7 9.17 7 8.75V7.25C7 6.84 6.67 6.5 6.25 6.5Z"/><path d="M6.25 12H4.75C4.34 12 4 12.34 4 12.75V14.25C4 14.67 4.34 15 4.75 15H6.25C6.67 15 7 14.67 7 14.25V12.75C7 12.34 6.67 12 6.25 12Z"/><path d="M6.25 1H4.75C4.34 1 4 1.33 4 1.75V3.25C4 3.66 4.34 4 4.75 4H6.25C6.67 4 7 3.66 7 3.25V1.75C7 1.33 6.67 1 6.25 1Z"/><path d="M11.26 6.5H9.76C9.35 6.5 9.01 6.84 9.01 7.25V8.75C9.01 9.16 9.35 9.5 9.76 9.5H11.26C11.67 9.5 12.01 9.16 12.01 8.75V7.25C12.01 6.84 11.67 6.5 11.26 6.5Z"/><path d="M11.26 12H9.76C9.35 12 9.01 12.34 9.01 12.75V14.25C9.01 14.66 9.35 15 9.76 15H11.26C11.67 15 12.01 14.66 12.01 14.25V12.75C12.01 12.34 11.67 12 11.26 12Z"/><path d="M11.26 1H9.76C9.34 1 9.01 1.33 9.01 1.75V3.25C9.01 3.66 9.34 4 9.76 4H11.26C11.67 4 12.01 3.66 12.01 3.25V1.75C12.01 1.33 11.67 1 11.26 1Z"/></svg>