<svg viewBox="0 0 16 16" xmlns="http://www.w3.org/2000/svg"><path d="M5.00286 5C5.00286 4.4475 4.44308 4 3.75196 4H2.25089C1.55977 4 1 4.4475 1 5V6.2C1 6.7525 1.55977 7.2 2.25089 7.2H3.75196C4.44308 7.2 5.00286 6.7525 5.00286 6.2V5ZM5.00286 9.8C5.00286 9.2475 4.44308 8.8 3.75196 8.8H2.25089C1.55977 8.8 1 9.2475 1 9.8V11C1 11.5525 1.55977 12 2.25089 12H3.75196C4.44308 12 5.00286 11.5525 5.00286 11V9.8ZM6.00357 5V6.2C6.00357 6.7525 6.56335 7.2 7.25446 7.2H8.75554C9.44665 7.2 10.0064 6.7525 10.0064 6.2V5C10.0064 4.4475 9.44665 4 8.75554 4H7.25446C6.56335 4 6.00357 4.4475 6.00357 5ZM10.0064 9.8C10.0064 9.2475 9.44665 8.8 8.75554 8.8H7.25446C6.56335 8.8 6.00357 9.2475 6.00357 9.8V11C6.00357 11.5525 6.56335 12 7.25446 12H8.75554C9.44665 12 10.0064 11.5525 10.0064 11V9.8ZM11.0071 5V6.2C11.0071 6.7525 11.5669 7.2 12.258 7.2H13.7591C14.4502 7.2 15.01 6.7525 15.01 6.2V5C15.01 4.4475 14.4502 4 13.7591 4H12.258C11.5669 4 11.0071 4.4475 11.0071 5ZM15.01 9.8C15.01 9.2475 14.4502 8.8 13.7591 8.8H12.258C11.5669 8.8 11.0071 9.2475 11.0071 9.8V11C11.0071 11.5525 11.5669 12 12.258 12H13.7591C14.4502 12 15.01 11.5525 15.01 11V9.8Z"/></svg>