<svg viewBox="0 0 16 16" xmlns="http://www.w3.org/2000/svg"><path d="M5.00125 11C4.44806 11 4 11.5594 4 12.25V13.75C4 14.4406 4.44806 15 5.00125 15H6.20275C6.75594 15 7.204 14.4406 7.204 13.75V12.25C7.204 11.5594 6.75594 11 6.20275 11H5.00125ZM9.80725 11C9.25406 11 8.806 11.5594 8.806 12.25V13.75C8.806 14.4406 9.25406 15 9.80725 15H11.0087C11.5619 15 12.01 14.4406 12.01 13.75V12.25C12.01 11.5594 11.5619 11 11.0087 11H9.80725ZM5.00125 10H6.20275C6.75594 10 7.204 9.44063 7.204 8.75V7.25C7.204 6.55937 6.75594 6 6.20275 6H5.00125C4.44806 6 4 6.55937 4 7.25V8.75C4 9.44063 4.44806 10 5.00125 10ZM9.80725 6C9.25406 6 8.806 6.55937 8.806 7.25V8.75C8.806 9.44063 9.25406 10 9.80725 10H11.0087C11.5619 10 12.01 9.44063 12.01 8.75V7.25C12.01 6.55937 11.5619 6 11.0087 6H9.80725ZM5.00125 5H6.20275C6.75594 5 7.204 4.44062 7.204 3.75V2.25C7.204 1.55937 6.75594 1 6.20275 1H5.00125C4.44806 1 4 1.55937 4 2.25V3.75C4 4.44062 4.44806 5 5.00125 5ZM9.80725 1C9.25406 1 8.806 1.55937 8.806 2.25V3.75C8.806 4.44062 9.25406 5 9.80725 5H11.0087C11.5619 5 12.01 4.44062 12.01 3.75V2.25C12.01 1.55937 11.5619 1 11.0087 1H9.80725Z"/></svg>