<svg xmlns="http://www.w3.org/2000/svg" viewBox="0 0 16 16"><path d="m15.751 8.474-2-3a.917.917 0 0 0-.805-.399.901.901 0 0 0-.749.496l-.966 1.931-1.364-4.775c-.114-.395-.472-.643-.892-.652a.9.9 0 0 0-.853.704L6.827 8.607 5.854 5.69a.901.901 0 0 0-.828-.615c-.374.013-.721.215-.862.566L2.8 9.052 1.749 7.477a.9.9 0 0 0-1.498.998l2 3a.902.902 0 0 0 1.585-.166L4.923 8.59l1.223 3.669a.902.902 0 0 0 .854.616l.046-.002a.9.9 0 0 0 .833-.703l1.23-5.537 1.027 3.587a.9.9 0 0 0 1.67.155l1.307-2.612 1.14 1.709a.9.9 0 0 0 1.498-.998z"/></svg>