<svg viewBox="0 0 16 16" xmlns="http://www.w3.org/2000/svg"><g clip-path="url(#clip0_1_444)"><path d="M0.75 0C1.16406 0 1.5 0.383929 1.5 0.857143V13.4286C1.5 13.9036 1.83594 14.2857 2.25 14.2857H15.25C15.6656 14.2857 16 14.6679 16 15.1429C16 15.6179 15.6656 16 15.25 16H2.25C1.0075 16 0 14.85 0 13.4286V0.857143C0 0.383929 0.335938 0 0.75 0ZM4 3.71429C4 3.23929 4.33437 2.85714 4.75 2.85714H11.25C11.6656 2.85714 12 3.23929 12 3.71429C12 4.18929 11.6656 4.57143 11.25 4.57143H4.75C4.33437 4.57143 4 4.18929 4 3.71429ZM9.25 6.28571C9.66563 6.28571 10 6.66786 10 7.14286C10 7.61786 9.66563 8 9.25 8H4.75C4.33437 8 4 7.61786 4 7.14286C4 6.66786 4.33437 6.28571 4.75 6.28571H9.25ZM13.25 9.71429C13.6656 9.71429 14 10.0964 14 10.5714C14 11.0464 13.6656 11.4286 13.25 11.4286H4.75C4.33437 11.4286 4 11.0464 4 10.5714C4 10.0964 4.33437 9.71429 4.75 9.71429H13.25Z"/></g><defs><clipPath><rect/></clipPath></defs></svg>