<svg viewBox="0 0 16 16" xmlns="http://www.w3.org/2000/svg"><path d="M6.67 1.49H3.25C2.84 1.49 2.51 1.16 2.51 0.75C2.51 0.34 2.84 0.01 3.25 0.01H6.67C7.08 0.01 7.41 0.34 7.41 0.75C7.41 1.16 7.08 1.49 6.67 1.49Z"/><path d="M12.61 5.07H3.25C2.84 5.07 2.51 4.74 2.51 4.33C2.51 3.92 2.84 3.59 3.25 3.59H12.61C13.02 3.59 13.35 3.92 13.35 4.33C13.35 4.74 13.02 5.07 12.61 5.07Z"/><path d="M9.97 8.66H3.25C2.84 8.66 2.51 8.33 2.51 7.92C2.51 7.51 2.84 7.18 3.25 7.18H9.97C10.38 7.18 10.71 7.51 10.71 7.92C10.71 8.33 10.38 8.66 9.97 8.66Z"/><path d="M15.25 12.24H3.25C2.84 12.24 2.51 11.91 2.51 11.5C2.51 11.09 2.84 10.76 3.25 10.76H15.25C15.66 10.76 15.99 11.09 15.99 11.5C15.99 11.91 15.66 12.24 15.25 12.24Z"/><path d="M15.25 16H0.75C0.34 16 0 15.66 0 15.25V0.75C0 0.33 0.34 0 0.75 0C1.16 0 1.5 0.33 1.5 0.75V14.5H15.25C15.66 14.5 16 14.84 16 15.25C16 15.66 15.66 16 15.25 16Z"/></svg>