<svg viewBox="0 0 17 16" xmlns="http://www.w3.org/2000/svg"><g clip-path="url(#clip0_1_431)"><path d="M7.92121 7.5V0.518125C7.92121 0.236094 8.10131 0 8.3936 0C12.0457 0 15.007 3.13438 15.007 7C15.007 7.28125 14.7826 7.5 14.5169 7.5H7.92121ZM13.5042 6C13.0909 3.76562 11.4494 2.00125 9.33837 1.59063V6H13.5042ZM6.50405 1.55031V9L11.1246 13.8906C11.3224 14.1 11.3076 14.4438 11.0803 14.6156C9.92295 15.4875 8.50579 16 6.97644 16C3.06448 16 -0.109375 12.6438 -0.109375 8.5C-0.109375 4.70937 2.55076 1.57313 5.97557 1.07031C6.27376 1.03094 6.50405 1.26125 6.50405 1.55031ZM5.08689 9.62187V2.84094C2.88438 3.66563 1.30779 5.8875 1.30779 8.5C1.30779 11.8125 3.8203 14.5 6.97644 14.5C7.7795 14.5 8.51465 14.325 9.23209 14.0063L5.08689 9.62187ZM15.4322 9C15.7038 9 15.9223 9.24375 15.8868 9.53125C15.6595 11.2781 14.8624 12.8312 13.705 13.9781C13.5279 14.1281 13.2503 14.1406 13.0791 13.9594L8.3936 9H15.4322Z"/></g><defs><clipPath><rect transform="translate(0.00195312)"/></clipPath></defs></svg>