<svg viewBox="0 0 17 16" xmlns="http://www.w3.org/2000/svg"><g clip-path="url(#clip0)"><path d="M15.25 16H0.75C0.34 16 0 15.66 0 15.25V0.75C0 0.33 0.34 0 0.75 0C1.16 0 1.5 0.33 1.5 0.75V14.5H15.25C15.66 14.5 16 14.84 16 15.25C16 15.66 15.66 16 15.25 16Z"/><path d="M6.12 12.24H3.27C2.86 12.24 2.52 11.9 2.52 11.49C2.52 11.08 2.86 10.74 3.27 10.74H5.7L11.41 1.33C11.55 1.11 11.79 0.97 12.05 0.97H15.25C15.66 0.97 16 1.31 16 1.72C16 2.13 15.66 2.47 15.25 2.47H12.47L6.76 11.88C6.63 12.11 6.38 12.24 6.12 12.24Z"/></g><defs><clipPath><rect transform="translate(0.00195312)"/></clipPath></defs></svg>