<svg viewBox="0 0 17 16" xmlns="http://www.w3.org/2000/svg"><g clip-path="url(#clip0)"><path d="M14.21 10.2501H7.5C6.54 10.2501 5.75 9.47006 5.75 8.50006V1.79006C5.75 1.29006 5.97 0.800055 6.35 0.470055C6.73 0.140055 7.23 -0.00994465 7.72 0.0500553C12.02 0.600055 15.41 3.98006 15.96 8.29006C16.02 8.78006 15.87 9.28006 15.54 9.66006C15.2 10.0301 14.71 10.2501 14.21 10.2501ZM7.5 1.53006C7.42 1.53006 7.37 1.57006 7.34 1.59006C7.31 1.62006 7.25 1.69006 7.25 1.79006V8.50006C7.25 8.64006 7.36 8.75006 7.5 8.75006H14.21C14.31 8.75006 14.38 8.69005 14.41 8.66006C14.44 8.63006 14.48 8.56006 14.47 8.47006C14 4.85006 11.15 2.00006 7.53 1.54006C7.52 1.53006 7.51 1.53006 7.5 1.53006Z"/><path d="M6.98 16.0001C3.13 16.0001 0 12.8701 0 9.02006C0 6.46006 1.4 4.12006 3.64 2.89006C4.01 2.69006 4.46 2.83006 4.66 3.19006C4.86 3.55006 4.72 4.01006 4.36 4.21006C2.6 5.17006 1.5 7.02006 1.5 9.02006C1.5 12.0401 3.96 14.5001 6.98 14.5001C8.99 14.5001 10.83 13.4001 11.79 11.6401C11.99 11.2801 12.44 11.1401 12.81 11.3401C13.17 11.5401 13.31 11.9901 13.11 12.3601C11.88 14.6001 9.53 16.0001 6.98 16.0001Z"/></g><defs><clipPath><rect transform="translate(0.00195312)"/></clipPath></defs></svg>