<svg xmlns="http://www.w3.org/2000/svg" viewBox="0 0 16.002 16"><path d="M5.587 8.124c1.902 0 3.444-1.595 3.444-3.562C9.031 2.595 7.489 1 5.587 1S2.144 2.595 2.144 4.562c0 1.967 1.542 3.562 3.443 3.562zM3.451 9.292c-1.185 0-2.145.993-2.145 2.219s.96 2.219 2.145 2.219 2.145-.993 2.145-2.219-.96-2.219-2.145-2.219zm9.808-6.905c-1.122 0-2.032.941-2.032 2.102s.91 2.102 2.032 2.102 2.032-.941 2.032-2.102-.91-2.102-2.032-2.102zm-.791 5.621c-.686 0-1.242.575-1.242 1.284s.556 1.284 1.242 1.284c.686 0 1.242-.575 1.242-1.284s-.556-1.284-1.242-1.284zm-2.993 2.537c-1.189 0-2.153.997-2.153 2.228 0 1.23.964 2.227 2.153 2.227s2.153-.997 2.153-2.227c0-1.231-.964-2.228-2.153-2.228z"/></svg>