<svg viewBox="0 0 17 16" xmlns="http://www.w3.org/2000/svg"><g clip-path="url(#clip0_335_90)"><path d="M1.5 13.4286C1.5 13.9036 1.83594 14.2857 2.25 14.2857H15.25C15.6656 14.2857 16 14.6679 16 15.1429C16 15.6179 15.6656 16 15.25 16H2.25C1.0075 16 0 14.85 0 13.4286V0.857143C0 0.383929 0.335938 0 0.75 0C1.16406 0 1.5 0.383929 1.5 0.857143V13.4286ZM10.5031 9.71786C10.2375 10.0821 9.7625 10.0821 9.46875 9.71786L6.97188 6.925L4.50313 9.71786C4.2375 10.0821 3.7625 10.0821 3.46875 9.71786C3.17812 9.41429 3.17812 8.87143 3.46875 8.53572L6.46875 5.10714C6.60938 4.94643 6.8 4.85714 6.97188 4.85714C7.2 4.85714 7.39062 4.94643 7.50313 5.10714L10 7.93214L13.7188 3.67857C14.0125 3.34643 14.4875 3.34643 14.7531 3.67857C15.0719 4.01429 15.0719 4.55714 14.7531 4.86071L10.5031 9.71786Z"/></g><defs><clipPath><rect transform="translate(0.00195312)"/></clipPath></defs></svg>