<svg viewBox="0 0 17 16" xmlns="http://www.w3.org/2000/svg"><g clip-path="url(#clip0_335_143)"><g clip-path="url(#clip1_335_143)"><path d="M7.91926 7.5V0.518125C7.91926 0.236094 8.09936 0 8.39165 0C12.0438 0 15.0051 3.13438 15.0051 7C15.0051 7.28125 14.7807 7.5 14.515 7.5H7.91926ZM13.5023 6C13.089 3.76562 11.4474 2.00125 9.33642 1.59063V6H13.5023ZM6.5021 1.55031V9L11.1226 13.8906C11.3204 14.1 11.3057 14.4438 11.0784 14.6156C9.921 15.4875 8.50384 16 6.97448 16C3.06253 16 -0.111328 12.6438 -0.111328 8.5C-0.111328 4.70937 2.5488 1.57313 5.97361 1.07031C6.27181 1.03094 6.5021 1.26125 6.5021 1.55031ZM5.08493 9.62187V2.84094C2.88243 3.66563 1.30583 5.8875 1.30583 8.5C1.30583 11.8125 3.81835 14.5 6.97448 14.5C7.77754 14.5 8.5127 14.325 9.23013 14.0063L5.08493 9.62187ZM15.4302 9C15.7018 9 15.9203 9.24375 15.8849 9.53125C15.6576 11.2781 14.8604 12.8312 13.7031 13.9781C13.5259 14.1281 13.2484 14.1406 13.0771 13.9594L8.39165 9H15.4302Z"/></g></g><defs><clipPath><rect transform="translate(0.00195312)"/></clipPath><clipPath><rect/></clipPath></defs></svg>