<svg viewBox="0 0 17 16" xmlns="http://www.w3.org/2000/svg"><g clip-path="url(#clip0)"><path d="M15.25 16H0.75C0.34 16 0 15.66 0 15.25V0.75C0 0.33 0.34 0 0.75 0C1.16 0 1.5 0.33 1.5 0.75V14.5H14.5V6.51L11.17 9.84C10.88 10.13 10.4 10.13 10.11 9.84L7.34 7.08L3.76 10.65C3.47 10.94 2.99 10.94 2.7 10.65C2.41 10.36 2.41 9.88 2.7 9.59L6.81 5.49C7.1 5.2 7.58 5.2 7.87 5.49L10.63 8.25L14.71 4.17C14.92 3.96 15.25 3.89 15.53 4.01C15.82 4.12 16 4.4 16 4.7V15.25C16 15.66 15.66 16 15.25 16Z"/></g><defs><clipPath><rect transform="translate(0.00195312)"/></clipPath></defs></svg>