<svg viewBox="0 0 17 16" xmlns="http://www.w3.org/2000/svg"><path d="M15.25 16H0.75C0.34 16 0 15.66 0 15.25V0.75C0 0.33 0.34 0 0.75 0C1.16 0 1.5 0.33 1.5 0.75V14.5H15.25C15.66 14.5 16 14.84 16 15.25C16 15.66 15.66 16 15.25 16Z"/><path d="M12.63 12.74C10.77 12.74 9.25 11.23 9.25 9.36C9.25 7.5 10.76 5.98 12.63 5.98C14.49 5.99 16 7.5 16 9.37C16 11.23 14.49 12.74 12.63 12.74ZM12.63 7.49C11.6 7.49 10.75 8.33 10.75 9.37C10.75 10.41 11.59 11.25 12.63 11.25C13.67 11.25 14.51 10.41 14.51 9.37C14.5 8.33 13.66 7.49 12.63 7.49Z"/><path d="M5.26 13C3.74 13 2.51 11.77 2.51 10.25C2.51 8.73 3.74 7.5 5.26 7.5C6.78 7.5 8.01 8.73 8.01 10.25C8.01 11.77 6.78 13 5.26 13ZM5.26 9C4.57 9 4.01 9.56 4.01 10.25C4.01 10.94 4.57 11.5 5.26 11.5C5.95 11.5 6.51 10.94 6.51 10.25C6.51 9.56 5.95 9 5.26 9Z"/><path d="M7.35 6.79C5.48 6.79 3.95 5.27 3.95 3.39C3.95 1.51 5.48 0 7.35 0C9.22 0 10.75 1.52 10.75 3.4C10.75 5.28 9.23 6.79 7.35 6.79ZM7.35 1.5C6.3 1.5 5.45 2.35 5.45 3.4C5.45 4.45 6.3 5.3 7.35 5.3C8.4 5.3 9.25 4.45 9.25 3.4C9.25 2.35 8.4 1.5 7.35 1.5Z"/></svg>