<svg viewBox="0 0 17 16" xmlns="http://www.w3.org/2000/svg"><g clip-path="url(#clip0_335_89)"><path d="M1.5 13.4286C1.5 13.9036 1.83594 14.2857 2.25 14.2857H15.25C15.6656 14.2857 16 14.6679 16 15.1429C16 15.6179 15.6656 16 15.25 16H2.25C1.0075 16 0 14.85 0 13.4286V0.857143C0 0.383929 0.335938 0 0.75 0C1.16406 0 1.5 0.383929 1.5 0.857143V13.4286ZM11.2375 4.3C11.6469 3.83214 12.325 3.86071 12.7031 4.36429L14.6375 6.94643C14.8719 7.25714 15 7.65357 15 8.06429V11.4286C15 12.0607 14.5531 12.5714 14 12.5714H4C3.44688 12.5714 3 12.0607 3 11.4286V7.56786C3 7.11429 3.15937 6.675 3.44062 6.35357L6.29375 3.09286C6.68437 2.64643 7.31563 2.64643 7.70625 3.09286L10 5.71429L11.2375 4.3ZM7 4.71071L4.5 7.56786V10.8571H13.5V8.06429L11.9156 5.95L11.0594 6.925C10.7781 7.24643 10.3969 7.42857 10 7.42857C9.60312 7.42857 9.22188 7.24643 8.94063 6.925L7 4.71071Z"/></g><defs><clipPath><rect transform="translate(0.00195312)"/></clipPath></defs></svg>