<svg xmlns="http://www.w3.org/2000/svg" viewBox="0 0 16 16"><path d="M7 15h2v-2H7v2zm4.703-11.84a3.357 3.357 0 00-.812-1.183c-.344-.316-.745-.559-1.205-.726S8.728 1 8.192 1c-.641 0-1.22.109-1.738.326s-.961.525-1.327.922c-.367.398-.647 1.125-.839 1.684C4.1 4.479 4.006 5 4.002 6h1.992C6 5 6.17 4.268 6.507 3.773c.343-.502.876-.878 1.597-.878.151 0 .326-.025.524.049.197.074.384.162.559.322.175.162.323.36.445.627.124.267.184.579.184.951 0 .311-.038.574-.113.797-.076.223-.181.423-.314.603s-.285.344-.454.492c-.169.15-.347.311-.533.485a5.162 5.162 0 00-.603.641 3.177 3.177 0 00-.428.754 4.157 4.157 0 00-.253.997A10.24 10.24 0 007.039 11h1.887c0-.447.113-1.136.113-1.136s.184-.58.323-.81c.14-.23.303-.438.489-.625.187-.186.39-.378.611-.576.187-.174.373-.352.559-.531.187-.18.353-.385.498-.614.145-.229.262-.503.35-.819.087-.317.131-.693.131-1.127 0-.596-.099-1.129-.297-1.602z"/></svg>