<svg viewBox="0 0 16 16" xmlns="http://www.w3.org/2000/svg"><g clip-path="url(#clip0_335_203)"><g clip-path="url(#clip1_335_203)"><path d="M15.7639 7.17812C16.0444 7.44688 16.0806 7.91875 15.8417 8.23438C15.6028 8.55 15.1833 8.59062 14.9028 8.32187L14.2222 7.67188V13.5C14.2222 14.8813 13.2278 16 12 16H4C2.77278 16 1.77778 14.8813 1.77778 13.5V7.67188L1.09805 8.32187C0.817221 8.59062 0.396665 8.55 0.158332 8.23438C-0.0798623 7.91875 -0.0453901 7.44688 0.23536 7.17812L7.56944 0.178125C7.81667 -0.059375 8.18333 -0.059375 8.43055 0.178125L15.7639 7.17812ZM4 14.5H5.33333V9.75C5.33333 9.05937 5.83055 8.5 6.44444 8.5H9.55555C10.1694 8.5 10.6667 9.05937 10.6667 9.75V14.5H12C12.4917 14.5 12.8889 14.0531 12.8889 13.5V6.4L8 1.73344L3.11111 6.4V13.5C3.11111 14.0531 3.50833 14.5 4 14.5ZM6.66667 14.5H9.33333V10H6.66667V14.5Z"/></g></g><defs><clipPath><rect/></clipPath><clipPath><rect/></clipPath></defs></svg>