<svg viewBox="0 0 16 16" xmlns="http://www.w3.org/2000/svg"><g clip-path="url(#clip0)"><path d="M15.25 16.0001H10.5C10.09 16.0001 9.75 15.6601 9.75 15.2501V10.2501H6.25V15.2501C6.25 15.6601 5.91 16.0001 5.5 16.0001H0.75C0.34 16.0001 0 15.6601 0 15.2501C0 14.8401 0.34 14.5001 0.75 14.5001H4.75V9.50006C4.75 9.09006 5.09 8.75006 5.5 8.75006H10.5C10.91 8.75006 11.25 9.09006 11.25 9.50006V14.5001H14.5V7.03006L8 1.72006L1.5 7.03006V12.7401C1.5 13.1501 1.16 13.4901 0.75 13.4901C0.34 13.4901 0 13.1601 0 12.7501V6.68006C0 6.45006 0.1 6.24006 0.28 6.10006L7.53 0.170059C7.81 -0.0599414 8.2 -0.0599414 8.48 0.170059L15.73 6.10006C15.9 6.24006 16 6.45006 16 6.68006V15.2501C16 15.6601 15.66 16.0001 15.25 16.0001Z"/></g><defs><clipPath><rect/></clipPath></defs></svg>