<svg viewBox="0 0 16 16" xmlns="http://www.w3.org/2000/svg"><path d="M15.7639 7.28086C16.0444 7.51602 16.0806 7.92891 15.8417 8.20508C15.6028 8.48125 15.1833 8.5168 14.9028 8.28164L14.2222 7.71289V12.8125C14.2222 14.0211 13.2278 15 12 15H4C2.77278 15 1.77778 14.0211 1.77778 12.8125V7.71289L1.09805 8.28164C0.817221 8.5168 0.396665 8.48125 0.158332 8.20508C-0.0798623 7.92891 -0.0453901 7.51602 0.23536 7.28086L7.56944 1.15586C7.81667 0.948047 8.18333 0.948047 8.43055 1.15586L15.7639 7.28086ZM4 13.6875H5.33333V9.53125C5.33333 8.92695 5.83055 8.4375 6.44444 8.4375H9.55555C10.1694 8.4375 10.6667 8.92695 10.6667 9.53125V13.6875H12C12.4917 13.6875 12.8889 13.2965 12.8889 12.8125V6.6L8 2.51676L3.11111 6.6V12.8125C3.11111 13.2965 3.50833 13.6875 4 13.6875ZM6.66667 13.6875H9.33333V9.75H6.66667V13.6875Z"/></svg>