<svg viewBox="0 0 12 16" xmlns="http://www.w3.org/2000/svg"><path d="M0 0.75C0 0.335938 0.335938 0 0.75 0H11.25C11.6656 0 12 0.335938 12 0.75C12 1.16406 11.6656 1.5 11.25 1.5H11V2.09313C11 3.35313 10.4719 4.53438 9.60938 5.45312L7.05937 8L9.60938 10.5469C10.4719 11.4375 11 12.6469 11 13.9062V14.5H11.25C11.6656 14.5 12 14.8344 12 15.25C12 15.6656 11.6656 16 11.25 16H0.75C0.335938 16 0 15.6656 0 15.25C0 14.8344 0.335938 14.5 0.75 14.5H1V13.9062C1 12.6469 1.50031 11.4375 2.39125 10.5469L4.94063 8L2.39125 5.45312C1.50031 4.53438 1 3.35313 1 2.09313V1.5H0.75C0.335938 1.5 0 1.16406 0 0.75ZM3.11812 12H8.88125C8.78125 11.8625 8.66875 11.7312 8.54688 11.6094L6 9.05937L3.45312 11.6094C3.33125 11.7312 3.19062 11.8625 3.11812 12ZM8.88125 4C9.25313 3.45 9.5 2.78219 9.5 2.09313V1.5H2.5V2.09313C2.5 2.78219 2.71875 3.45 3.11812 4H8.88125Z"/></svg>