<svg id="Layer_1" data-name="Layer 1" xmlns="http://www.w3.org/2000/svg" viewBox="0 0 24 24"><defs><clipPath id="clip-path"><path class="cls-1" d="M189 273h-7l-3.818 6-1.273 2-1.909 3h-7v2h7l3.182-5 1.273-2 2.545-4h7v-2z"/></clipPath><clipPath id="clip-path-2"><path class="cls-1" d="M190 274h-7l-3.818 6-1.273 2-1.909 3h-7v2h7l3.182-5 1.273-2 2.545-4h7v-2z"/></clipPath><clipPath id="clip-path-3"><path class="cls-1" d="M208 269v-4h-3v4h3zm-6 0v-7h-3v7h3zm-6 0v-10h-3v10h3zm-6 0v-13h-3v13h3z"/></clipPath><style>.cls-1{fill:none;clip-rule:evenodd}.cls-4{fill:#282828;fill-rule:evenodd}</style></defs><path class="cls-4" d="M1 16h8v2H1v-2z"/><path class="cls-4" d="M14 5L8 16l1 2 6-11z"/><path class="cls-4" d="M14 5h8v2h-8V5z"/></svg>