<svg id="Layer_1" data-name="Layer 1" xmlns="http://www.w3.org/2000/svg" viewBox="0 0 24 24"><defs><clipPath id="clip-path"><path class="cls-1" d="M145 273h-7l-3.818 6-1.273 2-1.909 3h-7v2h7l3.182-5 1.273-2 2.545-4h7v-2z"/></clipPath><clipPath id="clip-path-2"><path class="cls-1" d="M146 274h-7l-3.818 6-1.273 2-1.909 3h-7v2h7l3.182-5 1.273-2 2.545-4h7v-2z"/></clipPath><clipPath id="clip-path-3"><path class="cls-1" d="M164 269v-4h-3v4h3zm-6 0v-7h-3v7h3zm-6 0v-10h-3v10h3zm-6 0v-13h-3v13h3z"/></clipPath><style>.cls-1{fill:none;clip-rule:evenodd}</style></defs><path d="M4 18V5H1v13h3zm6 0V8H7v10h3zm6 0v-7h-3v7h3zm6 0v-4h-3v4h3z"/></svg>