<svg xmlns="http://www.w3.org/2000/svg" viewBox="0 0 48 48"><path d="M38.5 19.1c-2.811 0-5.094 2.156-5.35 4.9h-4.3c-.256-2.744-2.539-4.9-5.35-4.9s-5.094 2.156-5.35 4.9h-4.3c-.256-2.744-2.539-4.9-5.35-4.9a5.401 5.401 0 000 10.8c2.811 0 5.094-2.157 5.35-4.9h4.301c.256 2.743 2.539 4.9 5.35 4.9s5.094-2.157 5.35-4.9h4.3c.256 2.743 2.539 4.9 5.35 4.9 2.982 0 5.4-2.42 5.4-5.4a5.402 5.402 0 00-5.401-5.4zm-15 9.8a4.405 4.405 0 01-4.4-4.4c0-2.426 1.974-4.4 4.4-4.4s4.4 1.975 4.4 4.4c0 2.427-1.974 4.4-4.4 4.4zm15 0a4.405 4.405 0 01-4.4-4.4c0-2.426 1.974-4.4 4.4-4.4s4.4 1.975 4.4 4.4c0 2.427-1.974 4.4-4.4 4.4z"/></svg>