<svg xmlns="http://www.w3.org/2000/svg" viewBox="0 0 48 48"><path d="M39.5 33.1c-2.812 0-5.094 2.157-5.35 4.9H25v-4.15c2.744-.256 4.9-2.539 4.9-5.35s-2.156-5.094-4.9-5.35V19h9.15c.256 2.743 2.539 4.9 5.35 4.9a5.4 5.4 0 000-10.8c-2.812 0-5.094 2.156-5.35 4.9H24v5.15A5.366 5.366 0 0019.15 28h-4.3A5.365 5.365 0 0010 23.15V9h9.15c.256 2.744 2.539 4.9 5.35 4.9a5.401 5.401 0 000-10.8c-2.811 0-5.094 2.156-5.35 4.9H9v15.15c-2.744.256-4.9 2.539-4.9 5.35 0 2.981 2.418 5.4 5.4 5.4 2.811 0 5.094-2.157 5.35-4.9h4.301a5.366 5.366 0 004.85 4.85V39h10.15c.256 2.743 2.538 4.9 5.35 4.9a5.401 5.401 0 00-.001-10.8z"/></svg>