<svg xmlns="http://www.w3.org/2000/svg" viewBox="0 0 16 16"><path d="M2.861 9.685a.994.994 0 001.411-.092 2.435 2.435 0 00.089-3.108 1 1 0 10-1.574 1.233.445.445 0 01-.017.555.999.999 0 00.091 1.412zm7.681-5.611l1.486-1.48A10.928 10.928 0 0010.34.305a1.001 1.001 0 00-1.438 1.392 8.953 8.953 0 011.64 2.377zm.713 2.105c.119.588.182 1.191.182 1.805A9 9 0 018.871 14.3a1.001 1.001 0 001.432 1.398 10.99 10.99 0 003.135-7.715c0-1.182-.194-2.334-.551-3.43l2.404-2.394a.5.5 0 000-.707.5.5 0 00-.671-.029L1.08 14.9a.502.502 0 00.003.704.502.502 0 00.707 0L5.409 12l.081-.082a.994.994 0 001.718.658 6.595 6.595 0 001.826-4.187l2.221-2.21zM7.016 7.583l1.689-1.681a6.563 6.563 0 00-1.459-2.474 1.001 1.001 0 00-1.454 1.379 4.581 4.581 0 011.224 2.776z"/></svg>