<svg xmlns="http://www.w3.org/2000/svg" viewBox="0 0 16 16"><path d="M8 11.955a3 3 0 003-3V7.007l3.295-3.295a.5.5 0 00-.707-.707L2.384 14.209a.5.5 0 00.707.707l1.893-1.893A4.939 4.939 0 007 13.942V15h-.786a.5.5 0 000 1h3.572a.5.5 0 000-1H9v-1.058a5.02 5.02 0 004-4.931V7.627a.5.5 0 00-1 0v1.385c0 2.223-1.777 4.031-4 4.031-.86 0-1.652-.273-2.302-.734l.775-.774c.448.265.968.42 1.527.42zM4 9.012V7.627a.5.5 0 00-1 0v1.385c0 .771.174 1.5.481 2.153l.766-.767A4.025 4.025 0 014 9.012zM8 1a3 3 0 00-3 3v2h3.646l2.334-2.334A3 3 0 008 1zM5 7v1.955c0 .214.026.421.069.622L7.646 7H5z"/></svg>