<svg xmlns="http://www.w3.org/2000/svg" viewBox="0 0 16 16"><path d="M7 13H2a1 1 0 01-1-1V3a1 1 0 011-1h6v1H2v1h5v3H2v5h5zm7.83-2.24a3.23 3.23 0 00-.77-2.28 5.89 5.89 0 00-2.32-1.41 3.75 3.75 0 01-1.19-.79 1.47 1.47 0 01-.31-1 1.71 1.71 0 01.29-1.05 1.11 1.11 0 011-.39 1.33 1.33 0 011.07.47 2.14 2.14 0 01.4 1.3V6h1.79v-.37a3.72 3.72 0 00-.69-2.4 2.92 2.92 0 00-2-1h-.13V1H11v1.17a3 3 0 00-2 .92 3.19 3.19 0 00-.76 2.2A3.17 3.17 0 009 7.56 6.29 6.29 0 0011.3 9a3.21 3.21 0 011.17.76 1.59 1.59 0 01.33 1 1.51 1.51 0 01-.34 1 1.31 1.31 0 01-1 .38 1.38 1.38 0 01-1.07-.44 1.93 1.93 0 01-.39-1.32V10H7.87v.36a3.47 3.47 0 00.83 2.59 3.41 3.41 0 002.22.92H11V15h1v-1.15a3.09 3.09 0 002.08-.85 3.17 3.17 0 00.75-2.24z"/></svg>