<svg xmlns="http://www.w3.org/2000/svg" viewBox="0 0 16 16"><path d="M2 1v1h1v1H2v1h1v1H2v1h1v1H2v1h1v1H2v1h1v1H2v1h1v1H2v1h1v1h11V1H2zm5 4.498v-.004c0-.694.542-1.31 1.266-1.417.151-.024.415-.012.469 0C9.458 4.183 10 4.799 10 5.492v.006c0 .077.242.195.242.281 0 .439-.044.822-.189.868-.122.037-.128.628-.434 1.046-.203.278-.476.616-.793.749-.181.085-.513.07-.656 0-.318-.133-.595-.471-.799-.749-.306-.418-.321-1.009-.443-1.047-.145-.046-.17-.428-.17-.868 0-.085.242-.204.242-.28zM4.43 12c.06-.75.198-1.26.575-1.626.207-.2 1.354-.463 2.17-1.062.157-.129.316-.539.316-.539l1.009.691 1.009-.696s.159.401.316.529c.816.6 1.961.876 2.17 1.077.377.366.515.876.575 1.626H4.43z"/></svg>