<svg xmlns="http://www.w3.org/2000/svg" viewBox="0 0 16 16"><path d="M11.833 10.761c0-.967-.256-1.729-.77-2.283-.513-.556-1.285-1.025-2.319-1.408-.588-.282-.985-.545-1.193-.789-.207-.246-.311-.573-.311-.982 0-.441.098-.791.293-1.052.196-.263.513-.393.952-.393.413 0 .837.157 1.068.467.224.304.447.734.447 1.29V6h1.79l.014-.373c.015-.984-.215-1.787-.692-2.402-.475-.612-1.144-.905-1.983-1.038L9 2.169V1h-.974l-.01 1.166c-.87.102-1.547.349-2.055.921-.506.569-.761 1.305-.761 2.205 0 .973.255 1.729.762 2.265S7.25 8.565 8.304 8.969c.558.245.948.499 1.167.76.218.265.328.612.328 1.05 0 .44-.115.789-.343 1.045-.227.255-.571.383-1.026.383-.465 0-.774-.144-1.066-.436-.281-.28-.364-.745-.364-1.392V10H4.872l-.021.357c-.019 1.137.258 2.001.833 2.589.577.588 1.323.83 2.217.921L8 13.866V15h.984l.017-1.148c.876-.101 1.568-.313 2.074-.869.506-.555.758-1.296.758-2.222z"/></svg>