<svg xmlns="http://www.w3.org/2000/svg" viewBox="0 0 16 16"><path d="M14.83 6.652a4.399 4.399 0 00-4.29-5.353c-1.508 0-2.887.78-3.684 2.001a3.523 3.523 0 00-1.425-.294 3.544 3.544 0 00-3.508 3.041A3.564 3.564 0 00.2 9.096C.2 11.052 1.791 13 3.745 13h8.508c1.956 0 3.547-1.891 3.547-3.861 0-.914-.354-1.834-.97-2.487zm-2.755 4.399l-.018.004-8.342.003c-.108 0-.214-.013-.318-.039a1.75 1.75 0 01-1.418-1.728c0-.907.679-1.654 1.549-1.749a2.254 2.254 0 01-.055-.492c0-1.242.993-2.248 2.216-2.248.766 0 1.44.393 1.839.991.351-.943.797-1.57 1.28-1.976.59-.546 1.183-.656 1.811-.656 1.374 0 2.491 1.136 2.491 2.528 0 .33-.062.649-.183.952l-.212.529c-.002.021-.002.045-.003.065.696.289 1.186 1.072 1.186 1.863 0 1.058-.756 1.953-1.823 1.953z"/></svg>