<svg xmlns="http://www.w3.org/2000/svg" viewBox="0 0 16 16"><path d="M14.704 5.542c.004.016.005.032.007.048l.002.001-.009-.049zm.007.048C13.723 2.699 11.258.75 8.22.75c-3.239 0-5.829 2.217-6.669 5.429-.043-.004-.085-.01-.134-.01a1.36 1.36 0 00-1.361 1.36V8.89c0 .704.537 1.276 1.223 1.347l.004.007 1.315 3.284a.68.68 0 001.263-.505l-1.33-3.32.006-.013h-.009.008c.133-.346.119-.807.101-1.048a5.337 5.337 0 01-.012-.437C2.743 4.712 5.108 2.11 8.22 2.11c2.375 0 4.311 1.519 5.149 3.789l.041.109v-.001a.689.689 0 001.301-.417z"/><path fill="none" d="M6 5h4v6H6z"/><path d="M10 4H6a1 1 0 00-1 1v7a1 1 0 001 1h4a1 1 0 001-1V5a1 1 0 00-1-1zm-1.7 8.5h-.6c-.249 0-.45-.224-.45-.5s.201-.5.45-.5h.6c.249 0 .45.224.45.5s-.201.5-.45.5zM10 11H6V5h4v6z"/></svg>