<svg xmlns="http://www.w3.org/2000/svg" viewBox="0 0 16 16"><path d="M13.369 9h-1.736l.867.869z"/><path d="M15.301 10.351l-.651-.652-2.15 2.15-2.148-2.15-.653.652L11.85 12.5l-2.149 2.149.651.652 2.148-2.15 2.15 2.15.651-.652-2.149-2.149z"/><path d="M9.869 12.5l-.5-.5H6.352a11.516 11.516 0 01-.328-2h2.045L9.07 9H5.964a26.415 26.415 0 010-2h4.072c.013.323-.036.656-.036 1.004v.013l.324-.297.65.636c.002-.117.012-.234.012-.352 0-.335-.002-.671-.021-1.004h2.889c.053.318.082.644.082.977 0 .161-.01.32-.021.479l.736-.736.249.25C14.898 4.174 11.809 1.1 8 1.1c-3.811 0-6.901 3.076-6.901 6.874 0 3.788 3.074 6.911 6.872 6.927l-.25-.251.965-.966A1.181 1.181 0 018 13.9c-.527 0-.945-.317-1.266-.9h2.635l.5-.5zM13.594 6h-2.711a13.053 13.053 0 00-.377-2h1.887a5.921 5.921 0 011.201 2zm-2.391-3h-1.045a5.37 5.37 0 00-.328-.648c.488.158.949.377 1.373.648zM8 2.108c.523 0 .939.315 1.258.892H6.74c.319-.576.735-.892 1.26-.892zM7 4h2.645c.154.56.265 1.231.332 2H6.025c.066-.769.176-1.44.33-2H7zm-.83-1.647A5.284 5.284 0 005.841 3H4.798c.424-.271.883-.49 1.372-.647zM3.609 4h1.885c-.17.614-.295 1.292-.375 2H2.406a5.894 5.894 0 011.203-2zM2.066 7.977c0-.332.029-.658.082-.977h2.887a18.634 18.634 0 00-.001 2H2.156a5.853 5.853 0 01-.09-1.023zM2.419 10h2.697c.08.708.205 1.386.375 2H3.632a6.014 6.014 0 01-1.213-2zm2.399 3h1.02a5.6 5.6 0 00.321.639A5.945 5.945 0 014.818 13z"/></svg>