<svg xmlns="http://www.w3.org/2000/svg" viewBox="0 0 16 16"><path d="M8 1.1c-3.811 0-6.9 3.076-6.9 6.874 0 3.797 3.088 6.927 6.899 6.927 3.81 0 6.9-3.129 6.9-6.928C14.9 4.176 11.81 1.1 8 1.1zm5.935 6.877c0 .35-.036.689-.095 1.023h-2.876c.018-.33.029-.662.029-.996 0-.336-.012-.67-.03-1.004h2.884c.053.318.088.643.088.977zm-11.87 0c0-.333.035-.659.088-.977h2.884c-.018.334-.03.668-.03 1.004 0 .334.012.666.03.996H2.16a5.96 5.96 0 01-.095-1.023zm7.991.027c0 .349-.011.674-.023.996H5.968a26.153 26.153 0 01-.024-.996c0-.351.011-.678.023-1.004h4.064c.013.326.025.653.025 1.004zM6.361 12c-.155-.56-.264-1.23-.331-2h3.938c-.067.77-.177 1.44-.332 2H6.361zm2.902 1c-.319.582-.737.9-1.263.9-.527 0-.945-.318-1.263-.9h2.526zM6.031 6c.067-.77.177-1.44.333-2h3.271c.156.56.266 1.23.333 2H6.031zm.712-3c.318-.574.733-.892 1.257-.892.523 0 .938.317 1.256.892H6.743zm3.087-.646A5.92 5.92 0 0111.196 3h-1.042a5.331 5.331 0 00-.324-.646zM5.846 3H4.805c.422-.27.879-.488 1.365-.646A5.26 5.26 0 005.846 3zm-.348 1a12.93 12.93 0 00-.379 2H2.413a5.89 5.89 0 011.205-2h1.88zm-.38 6c.08.709.206 1.385.377 2H3.64a5.997 5.997 0 01-1.213-2h2.691zm.724 3c.097.228.2.443.315.637A5.952 5.952 0 014.826 13h1.016zm4.316 0h1.016c-.413.264-.858.48-1.332.637.115-.194.219-.409.316-.637zm.346-1c.171-.615.297-1.291.377-2h2.691a5.987 5.987 0 01-1.213 2h-1.855zm.377-6a12.93 12.93 0 00-.379-2h1.881a5.89 5.89 0 011.205 2h-2.707z"/></svg>