<svg xmlns="http://www.w3.org/2000/svg" viewBox="0 0 16 16"><path d="M13 13l-3 1.5 3 1.5v-1h2a1 1 0 001-1v-2h-1v2h-2v-1zM9.356 9.731c-.056-.038-.115-.076-.169-.116-.26-.213-.521-.872-.521-.872l-.003.002-.001-.002L7 9.89 5.336 8.743h-.001s-.26.659-.52.872c-.055.04-.111.078-.168.116v.001c-.332.227-.69.422-1.047.592-.891.425-1.767.694-2.177.91a.816.816 0 00-.186.123C.614 11.961.389 13 .29 14h6.996L9 13.144V11a1.963 1.963 0 01.401-1.241l-.042-.027-.003-.001zM14 9.5L13 9v1h-2a1 1 0 00-1 1v2h1v-2h2v1l1-.5 2-1-2-1zM4.404 5.488c.2.064.229 1.038.731 1.728.395.536.952 1.214 1.59 1.318.076.016.472.016.547 0 .639-.104 1.196-.782 1.588-1.318.507-.689.532-1.663.732-1.728.237-.075.371-.705.371-1.43 0-.141-.282-.337-.309-.464l.002-.019C9.541 2.306 8.413 1 7.033 1h-.068c-1.38 0-2.509 1.306-2.626 2.576-.002.002.001.012.001.015-.026.126-.306.325-.306.465 0 .725.133 1.357.37 1.432z"/></svg>