<svg xmlns="http://www.w3.org/2000/svg" viewBox="0 0 16 16"><path d="M14.704 5.542c.004.016.004.032.007.048l.001.001-.008-.049zm.007.048C13.722 2.699 11.258.75 8.219.75 4.979.75 2.39 2.967 1.55 6.179c-.043-.004-.084-.01-.133-.01a1.36 1.36 0 00-1.361 1.36V8.89c0 .704.537 1.276 1.223 1.347l.003.007 1.315 3.284a.68.68 0 001.264-.505l-1.33-3.32a.07.07 0 00.005-.013h-.008.007c.133-.346.119-.807.1-1.048a6.358 6.358 0 01-.01-.436C2.743 4.712 5.108 2.11 8.22 2.11c2.375 0 4.311 1.519 5.149 3.789l.042.109v-.002a.688.688 0 001.3-.416z"/><path d="M8.174 7.043c.158-.017.233.214.436.132-.155-.063-.261-.202-.436-.132zm.531.343c.015.004.03.006.045.006.046 0 .087-.016.126-.031l.131-.046-.06-.079c-.065-.087-.145-.09-.203-.092l-.026-.002c-.039 0-.106.015-.125.116a.104.104 0 00.017.085c.027.036.069.041.095.043z"/><path d="M12.551 7.578a.296.296 0 00-.25-.145.297.297 0 00-.262.161 4.063 4.063 0 01-1.694 3.419 1.936 1.936 0 00-.303.196 3.984 3.984 0 01-.643.302c.119-.089.129-.202.083-.254a.236.236 0 00.023-.21.099.099 0 00.066-.033c.021-.024.028-.058.023-.1v-.003a.197.197 0 00.034-.004c.094-.02.153-.06.177-.121a.171.171 0 00-.002-.122c.057.008.134-.007.161-.141a.758.758 0 00.193-.396.222.222 0 00.001-.077c-.001-.01-.002-.026.009-.036.027-.011.053-.029.079-.045a.234.234 0 01.068-.037.3.3 0 00.03.001c.139 0 .181-.107.204-.165a.864.864 0 00.066-.255c.013-.169.023-.314.137-.427a.313.313 0 00.046-.053c.042-.066.056-.129.041-.189-.016-.063-.065-.118-.145-.161l-.077-.045c-.092-.056-.187-.114-.309-.114-.02 0-.04.001-.055.004-.057-.094-.146-.119-.235-.086a.11.11 0 00-.008-.015.12.12 0 00-.067-.047.332.332 0 00-.035-.21.27.27 0 00-.219-.14c-.14-.007-.222-.072-.325-.19-.086-.07-.189-.083-.28-.097-.087-.013-.162-.019-.219-.071l-.026-.013h-.027c-.015 0-.028-.003-.038.001l-.023-.006c-.131.007-.292.016-.381.18-.013-.002-.019.003-.029.004l-.126-.041a.195.195 0 00-.066-.055.27.27 0 01.013-.096l.012-.049c.016-.083.003-.153-.039-.206a.23.23 0 00-.16-.081.216.216 0 00.02-.051c.081-.141-.01-.229-.04-.251-.065-.052-.155-.046-.225-.023-.105.024-.142.108-.162.152-.005.008-.017.027-.07.032a.275.275 0 01-.029-.057c-.02-.045-.009-.086.023-.177l.019-.054c.016-.051.094-.175.229-.131.11.036.196-.01.245-.062a.47.47 0 01.096.027.213.213 0 00.024.119c.033.143.128.165.182.165l.033-.002c.043-.007.183-.047.16-.281l-.006-.042c-.009-.059-.012-.092-.004-.115a.636.636 0 01.098-.061.923.923 0 00.127-.078.466.466 0 00.103-.105.415.415 0 00.06-.15 2.21 2.21 0 01.332-.229c.061-.039.123-.077.183-.117.07-.047.148-.057.246-.033l.139-.123-.02-.129a.586.586 0 00-.045-.03.279.279 0 00.005-.019h.029a.842.842 0 00.41-.12.22.22 0 00.125-.215.187.187 0 00-.16-.171l-.003-.015a.369.369 0 01-.009-.058c-.008-.053-.017-.12-.055-.187l-.073-.109-.145.067a.267.267 0 00-.111-.105.382.382 0 00-.197-.054.376.376 0 00-.38.363l.142.004-.163.023c-.03.017-.077.041-.121.079-.048-.06-.122-.079-.149-.086-.008-.001-.026-.013-.042-.023-.024-.014-.054-.033-.09-.047a.2.2 0 00.069-.144l.06-.007v-.053a.491.491 0 00.122-.011l.002.004c.016-.001.033-.002.051-.006v.002c.012 0 .034 0 .058-.01l.003-.002.011-.002.043-.012.031-.046h-.001l.008-.014c.094.005.212.003.288-.074.037-.021.107-.064.119-.149a.17.17 0 00-.049-.143l-.067-.057h-.06a.186.186 0 00-.13.06.165.165 0 00-.165-.138l-.045.005a.238.238 0 00-.191.19s-.009.004-.037.004l-.036-.002c-.033-.002-.066-.01-.1-.017-.109-.023-.249-.035-.352.02-.053.029-.136.005-.157-.008a.826.826 0 00-.451-.124c-.093 0-.183.013-.258.024a.99.99 0 01-.398-.018 1.896 1.896 0 00-1.061.053c-.084.028-.135.07-.15.134l-.047-.004a.25.25 0 00-.229.134l-.041.083.021.025c-.125.029-.167.128-.186.174a.201.201 0 01-.012.025.188.188 0 00-.048.108l-.104.038-.12.088.113.275.137-.067c.012-.005.024-.011.039-.015l.039-.014a.557.557 0 00.222-.113.595.595 0 00.04-.011c.028-.006.057-.014.083-.022.023-.008.045-.018.072-.03a.711.711 0 00.04-.023c.071-.047.167-.052.27-.058l.129-.006c.088.001.099.026.108.048l.055.078.071.005.005.005.093-.008v.054l-.1-.018-.008.04a.417.417 0 00.006.263l-.037.076c-.021.044-.057.088-.094.135a1.104 1.104 0 00-.12.171l-.029.061a.222.222 0 00-.085.171l-.001.065c-.005.12-.012.3.152.43a.277.277 0 00.028.186c.004.122.065.213.115.29.012.019.025.037.036.057l.188.312.052-.245c.01.012.02.02.022.021-.063.205.089.303.158.347.083.055.153.09.224.111.046.014.094.027.141.039.13.035.253.067.359.14l.063.039a.267.267 0 01.057.037c.056.153.18.217.261.258l.021.008a.171.171 0 00.167.028l.076-.041c.036.1.014.185-.07.259-.101.089-.1.198-.099.286 0 .054 0 .101-.019.138-.032.063.03.137.057.158.031.025.048.062.068.105.012.026.023.051.038.074.021.034.039.068.058.104.07.134.15.287.335.361a.262.262 0 01.166.255l-.001.12c-.001.062-.002.123.001.185l.021.314c.012.151.022.301.029.452.003.079.037.132.067.18a.313.313 0 01.022.036l.021.037c.05.081.059.109.021.152l-.042.049.045.047c.036.037.061.088.087.141a.95.95 0 00.064.11 4.035 4.035 0 01-3.362-.5c-.063-.041-.123-.086-.184-.131a.382.382 0 00-.451.554c.061.058.126.111.19.165a4.423 4.423 0 004.243.833 4.434 4.434 0 003.018-4.726c-.008-.074-.024-.147-.036-.22z"/></svg>