<svg xmlns="http://www.w3.org/2000/svg" viewBox="0 0 24 24"><path d="M12 2.042c-4.156 0-7.721 1.931-9.516 4.73-.773 1.205-1.253 2.555-1.253 4.008 0 3.176 2.109 5.93 5.231 7.459C6.497 22.291 1.989 23 1.989 23c5.882 0 8.287-1.313 9.858-3.493.052 0 .1.013.152.013 4.354 0 8.083-2.107 9.78-5.124.621-1.104.988-2.321.988-3.615.002-4.827-4.82-8.739-10.767-8.739zm3 8v3C15 14.146 14.104 15 13 15H8c-1.104 0-2-.854-2-1.958v-4C6 7.938 6.896 7 8 7h5c1.104 0 2 .938 2 2.042v1zm4 3.266c0 .232-.377.692-.692.692H18l-2-2.333v-1.384L18 8h.308c.315 0 .692.41.692.643v4.665z"/></svg>