<svg xmlns="http://www.w3.org/2000/svg" viewBox="0 0 16 16"><path d="M14.855 4.667l-.745.667a3.25 3.25 0 010 4.333l.745.667a4.25 4.25 0 000-5.667zM12 5.204l2.764-2.794a.5.5 0 00-.016-.707.51.51 0 00-.68-.029L12 3.74l-1 .999-4.337 4.333-.928.928-1.192 1.191-2.202 2.2-.999.999a.502.502 0 00-.002.707c.195.195.512.32.707.125L3.393 14h1.795a.5.5 0 000-1h-.364l-.062-.494 2.059-2.122c.017-.014.045-.02.067-.028 1.353.685 4.202 2.13 4.223 2.147.147.128.388.096.566.015A.63.63 0 0012 12V8.5l1-.5V7l-1-.5V5.204zm-1 1v5.046L7.641 9.563 11 6.204zm-8.932 5.479L6 7.783V6.25l2.905-1.446.116-.074 2.274-2.29a.257.257 0 00-.17.057C11.099 2.521 6.188 5 6.188 5H.938L0 6v3l.938 1h.863l.267 1.683z"/></svg>