<svg xmlns="http://www.w3.org/2000/svg" viewBox="0 0 16 16"><g fill-rule="evenodd" clip-rule="evenodd"><path d="M10.868 6.021c-.021-.02-.054-.018-.078-.004L8.442 7.84A1.227 1.227 0 008 7.75 1.25 1.25 0 109.25 9c0-.168-.035-.328-.096-.475.518-.712 1.17-1.619 1.722-2.426a.059.059 0 00-.008-.078zM7 0h2v2H7z"/><path d="M13.954 4.461L12.54 3.048 11.4 4.186A5.866 5.866 0 008 3.1 5.907 5.907 0 002.1 9c0 3.254 2.646 5.901 5.9 5.901S13.9 12.254 13.9 9a5.854 5.854 0 00-1.086-3.399l1.14-1.14zM8 13.901c-2.702 0-4.9-2.2-4.9-4.901 0-2.7 2.198-4.9 4.9-4.9s4.9 2.2 4.9 4.9A4.907 4.907 0 018 13.901z"/></g></svg>