<svg xmlns="http://www.w3.org/2000/svg" viewBox="0 0 16 16"><path d="M4.404 5.488c.2.064.229 1.038.731 1.728.395.536.952 1.214 1.59 1.318.076.016.472.016.547 0 .639-.104 1.196-.782 1.588-1.318.507-.689.532-1.663.732-1.728.237-.075.371-.705.371-1.43 0-.141-.282-.337-.309-.464l.002-.019C9.541 2.306 8.413 1 7.033 1h-.068c-1.38 0-2.509 1.306-2.626 2.576-.002.002.001.012.001.015-.026.126-.306.325-.306.465 0 .725.133 1.357.37 1.432zm7.096 5.406v-.1l-.55-.212c-.5-.224-1.099-.497-1.616-.85l.01-.001a3.997 3.997 0 01-.164-.116c-.26-.213-.518-.872-.518-.872L6.999 9.891 5.335 8.743s-.261.659-.521.872a4.952 4.952 0 01-.166.117c-1.331.906-3.083 1.308-3.411 1.625C.614 11.961.389 13 .29 14h9.346l-.62-.57 2.484-2.536zm3.804 1.883L14 14.082V9h-1v5.082l-1.304-1.305-.651.652 2.456 2.455 2.454-2.454z"/></svg>