<svg xmlns="http://www.w3.org/2000/svg" viewBox="0 0 16 16"><path d="M4.405 5.48c.2.064.229 1.038.731 1.728.395.536.951 1.214 1.589 1.318.076.016.472.016.547 0 .64-.104 1.196-.782 1.589-1.318.507-.689.533-1.663.733-1.728.237-.075.371-.705.371-1.43 0-.141-.282-.337-.309-.464l.002-.015C9.542 2.302 8.414 1 7.034 1h-.007l-.026.001L6.975 1h-.009C5.586 1 4.457 2.302 4.34 3.572c-.002.002.001.01.001.013-.026.126-.306.324-.306.464 0 .725.133 1.356.37 1.431zM16 12h-3V9h-1v3H9v1h3v3h1v-3h3z"/><path d="M11 11v-.418c-.5-.224-1.123-.497-1.641-.85l-.003-.001c-.056-.038-.115-.076-.169-.116-.26-.213-.521-.872-.521-.872L7 9.891 5.336 8.743s-.261.659-.521.872a4.994 4.994 0 01-.167.117c-1.331.906-3.083 1.308-3.411 1.625C.614 11.961.389 13 .29 14H8v-3h3z"/></svg>