<svg xmlns="http://www.w3.org/2000/svg" viewBox="0 0 16 16"><path d="M3 14V2h3.99c1.489 0 2.65.276 3.482.828.832.553 1.249 1.375 1.249 2.469 0 .571-.132 1.078-.396 1.52-.264.443-.676.777-1.236 1.002.714.154 1.243.473 1.586.956s.515 1.042.515 1.673c0 1.171-.393 2.056-1.178 2.654-.785.598-1.911.898-3.379.898H3zm3-7.25h.995c.581 0 1.014-.066 1.299-.27.286-.202.428-.486.428-.885 0-.442-.138-.677-.414-.879s-.7-.216-1.27-.216H6v2.25zM6 9v2.5h1.627c.528 0 .923-.015 1.187-.223.264-.207.396-.481.396-.91 0-.455-.116-.779-.348-1.014S8.248 9 7.715 9H6z"/></svg>