<svg xmlns="http://www.w3.org/2000/svg" viewBox="0 0 16 16"><path d="M16 14h-2v2h-2v-2h-2v-2h2v-2h2v2h2z"/><path d="M9 11h.39l.13-.09.27.09H11V9h1.67a1.82 1.82 0 00-.27-.29l-1-.94a4.51 4.51 0 000-1.46l1-.95a1 1 0 00.36-1.37L12.22 3a1 1 0 00-1.37-.36l-1.33.45a4.88 4.88 0 00-1.26-.75L8 1c-.13-.64-.47-1-1-1H5.92c-.55 0-.88.36-1 1l-.28 1.34a4.88 4.88 0 00-1.26.75L2 2.64A1 1 0 00.68 3l-.54.92A1 1 0 00.5 5.29l1 .95a4.51 4.51 0 000 1.46l-1 .94a1 1 0 00-.36 1.37l.54.99a1 1 0 001.32.36l1.33-.45a4.86 4.86 0 001.26.75L4.92 13c.12.64.45 1 1 1H7c.55 0 .88-.36 1-1l.28-1.34a4.85 4.85 0 00.72-.39zM6.45 9.88A2.88 2.88 0 119.33 7a2.88 2.88 0 01-2.88 2.88z"/></svg>