<svg xmlns="http://www.w3.org/2000/svg" viewBox="0 0 16 16"><path d="M7 12.875a.902.902 0 01-.854-.616L4.923 8.59l-1.087 2.719a.902.902 0 01-1.585.166l-2-3a.9.9 0 011.498-.998L2.8 9.052l1.364-3.411c.141-.351.488-.553.862-.566a.901.901 0 01.828.615l.973 2.917 1.295-5.828a.9.9 0 01.853-.704c.42.009.778.257.892.652l1.364 4.775.966-1.931a.901.901 0 01.749-.496.917.917 0 01.805.399l2 3a.9.9 0 01-1.498.998l-1.14-1.709-1.307 2.612a.9.9 0 01-1.67-.155L9.109 6.633l-1.23 5.537a.9.9 0 01-.833.703L7 12.875z"/></svg>