<svg xmlns="http://www.w3.org/2000/svg" xmlns:xlink="http://www.w3.org/1999/xlink" viewBox="0 0 16 16"><defs><path id="a" d="M0 0h16v16H0z"/></defs><clipPath id="b"><use xlink:href="#a" overflow="visible"/></clipPath><path clip-path="url(#b)" d="M8 .813A7.188 7.188 0 1015.188 8 7.188 7.188 0 008 .813m1.944 8.273a3.594 3.594 0 01-.999 1.639 3.587 3.587 0 01-1.617.842 4.23 4.23 0 01-2.019-.022 3.922 3.922 0 01-1.435-.723 4.005 4.005 0 01-1.073-1.318 3.957 3.957 0 01.001-3.546 3.966 3.966 0 012.237-1.96 3.99 3.99 0 012.659.024c.471.173.902.446 1.27.787-.123.134-.256.258-.383.388-.242.242-.484.485-.727.726a2.135 2.135 0 00-.851-.5 2.335 2.335 0 00-1.159-.047 2.35 2.35 0 00-1.179.655 2.448 2.448 0 00-.573.931 2.393 2.393 0 00-.001 1.537c.165.486.485.917.905 1.212.263.186.564.317.879.38.31.063.631.057.942.003a2.24 2.24 0 00.869-.344c.403-.269.686-.701.778-1.177l.006-.057H6.5V6.982h3.543c.047.292.072.53.075.794.005.441-.051.886-.174 1.31M13 8v1h-1V8h-1V7h1V6h1v1h1v1h-1z"/></svg>