<svg id="Layer_1" data-name="Layer 1" xmlns="http://www.w3.org/2000/svg" viewBox="0 0 23.651 23.058"><defs><clipPath id="clip-path" transform="translate(3.527 4)"><ellipse class="cls-1" cx="9.475" cy="12.773" rx="2.153" ry="2.227" id="ellipse8"/></clipPath><clipPath id="clip-path-5" transform="translate(3.527 4)"><ellipse class="cls-1" cx="13.258" cy="4.489" rx="2.032" ry="2.102" id="ellipse20"/></clipPath><clipPath id="clip-path-2" transform="translate(3.527 4)"><path class="cls-1" id="rect11" d="M-687.209-112.413H317.019v831.028H-687.209z"/></clipPath><clipPath id="clip-path-3" transform="translate(3.527 4)"><ellipse class="cls-1" cx="5.588" cy="4.562" rx="3.443" ry="3.562" id="ellipse14"/></clipPath><clipPath id="clip-path-4" transform="translate(3.527 4)"><path class="cls-1" id="rect17" d="M-849.485-140h1237.42V884h-1237.42z"/></clipPath><clipPath id="clip-path-10" transform="translate(3.527 4)"><path class="cls-1" id="rect35" d="M-851.016-141.985h1237.42v1024h-1237.42z"/></clipPath><clipPath id="clip-path-6" transform="translate(3.527 4)"><path class="cls-1" id="rect23" d="M-848.42-142H389V882H-848.42z"/></clipPath><clipPath id="clip-path-7" transform="translate(3.527 4)"><ellipse class="cls-1" cx="3.452" cy="11.511" rx="2.145" ry="2.219" id="ellipse26"/></clipPath><clipPath id="clip-path-8" transform="translate(3.527 4)"><path class="cls-1" id="rect29" d="M-849.42-140H388V884H-849.42z"/></clipPath><clipPath id="clip-path-9" transform="translate(3.527 4)"><ellipse class="cls-1" cx="12.468" cy="9.292" rx="1.242" ry="1.285" id="ellipse32"/></clipPath><style>.cls-1{fill:none}</style></defs><ellipse id="path4215" cx="9.475" cy="12.772" rx="2.153" ry="2.228" fill-opacity="1" stroke="none" stroke-width="2" stroke-miterlimit="4" stroke-dasharray="none" stroke-opacity="1"/><ellipse id="path4211" cx="12.468" cy="9.292" rx="1.242" ry="1.284" fill-opacity="1" stroke="none" stroke-width="2" stroke-miterlimit="4" stroke-dasharray="none" stroke-opacity="1"/><ellipse id="path4199" cx="5.588" cy="4.562" rx="3.443" ry="3.562" fill-opacity="1" stroke="none" stroke-width="2" stroke-miterlimit="4" stroke-dasharray="none" stroke-opacity="1"/><ellipse id="path4209" cx="13.258" cy="4.489" rx="2.033" ry="2.102" fill-opacity="1" stroke="none" stroke-width="2" stroke-miterlimit="4" stroke-dasharray="none" stroke-opacity="1"/><ellipse id="path4213" cx="3.451" cy="11.511" rx="2.145" ry="2.219" fill-opacity="1" stroke="none" stroke-width="2" stroke-miterlimit="4" stroke-dasharray="none" stroke-opacity="1"/></svg>