<svg xmlns="http://www.w3.org/2000/svg" viewBox="0 0 16 16"><path d="M8.475 14.452l-.077-.08.073-.084c.062-.072.049-.12-.035-.259l-.038-.063a1.282 1.282 0 00-.038-.062.583.583 0 01-.113-.306 21.996 21.996 0 00-.049-.771 23.616 23.616 0 01-.037-.535 4.061 4.061 0 01-.002-.312c.002-.069.004-.137.003-.205a.444.444 0 00-.285-.433c-.315-.127-.451-.387-.572-.616a3.781 3.781 0 00-.097-.177 1.065 1.065 0 01-.064-.126.436.436 0 00-.116-.18c-.045-.035-.15-.163-.097-.271.034-.063.033-.144.033-.233-.003-.151-.005-.338.167-.488.144-.126.181-.271.12-.44l-.13.07a.306.306 0 01-.286-.049l-.034-.015c-.139-.069-.35-.177-.446-.439a.547.547 0 00-.098-.062c-.035-.022-.071-.044-.105-.067-.181-.125-.391-.18-.613-.238a10.71 10.71 0 01-.24-.066 1.572 1.572 0 01-.381-.188c-.117-.075-.377-.241-.27-.594a.307.307 0 01-.038-.038l-.088.419-.319-.531c-.02-.033-.041-.064-.062-.096-.086-.13-.19-.286-.197-.493a.483.483 0 01-.048-.318c-.279-.222-.267-.529-.259-.732l.004-.111c0-.146.082-.239.145-.291.014-.034.03-.069.049-.105a1.96 1.96 0 01.204-.292c.063-.079.124-.153.161-.229l.062-.129c-.073-.165-.036-.336-.012-.448l.014-.069.171.029v-.091l-.159.013-.008-.007-.121-.01-.094-.134c-.016-.034-.034-.078-.185-.079l-.22.011c-.173.008-.337.016-.459.097a.86.86 0 01-.191.09 1.685 1.685 0 01-.141.04.886.886 0 00-.069.019.806.806 0 01-.295.165 6.9 6.9 0 006.226 11.02 2.117 2.117 0 01-.097-.171 1.012 1.012 0 00-.147-.24z"/><path d="M14.9 8A6.9 6.9 0 004.57 2.014c.221.005.438.034.652.087.229.057.443.065.675.03.13-.02.281-.04.44-.04.292 0 .544.069.77.211.036.023.178.063.266.016.178-.095.416-.074.602-.035.057.012.114.024.17.027l.062.004c.048 0 .062-.008.062-.008a.404.404 0 01.326-.321l.076-.009c.039 0 .23.012.28.236.049-.046.117-.104.223-.104h.103l.112.097a.294.294 0 01.084.243c-.021.147-.14.217-.203.254-.128.133-.33.135-.49.127l-.013.024.002.002-.053.079-.073.018-.02.005-.006.002c-.041.015-.078.016-.098.017l-.001-.004c-.03.006-.059.008-.086.01l-.002-.006a.786.786 0 01-.207.017v.092l-.102.014a.35.35 0 01-.117.243c.061.023.11.056.152.081a.325.325 0 00.07.039c.046.012.171.044.254.146.076-.066.154-.107.207-.135l.277-.039-.241-.008a.64.64 0 01.647-.617c.117 0 .233.031.335.092.045.026.141.081.19.177l.246-.111.125.187c.064.114.079.229.092.318a.85.85 0 00.016.099l.007.025a.317.317 0 01.271.29c.014.149-.065.287-.212.366a1.44 1.44 0 01-.697.205l-.052-.001c-.002.01-.004.02-.008.03.027.017.052.034.077.052l.035.221-.236.21c-.17-.04-.301-.023-.421.058-.103.068-.208.131-.313.195-.205.124-.399.241-.565.389a.68.68 0 01-.276.437l-.066.047c-.048.03-.1.06-.151.088a1.068 1.068 0 00-.167.102c-.014.04-.008.097.007.196l.01.072c.038.399-.199.467-.273.478l-.057.005c-.092 0-.254-.036-.311-.28a.364.364 0 01-.04-.204.725.725 0 00-.163-.044.39.39 0 01-.417.104c-.231-.074-.362.137-.39.223l-.032.092c-.055.154-.075.224-.041.302a.581.581 0 00.05.097c.09-.01.111-.041.121-.056.032-.075.094-.217.273-.258.122-.038.273-.05.386.038.051.04.206.188.067.43a.357.357 0 01-.034.086c.082.01.194.04.273.14.071.091.094.209.065.351l-.018.083c-.023.093-.029.136-.023.162.05.027.086.061.112.095l.214.069c.017-.002.028-.011.051-.008.15-.279.426-.294.649-.306l.038.01c.018-.007.039-.001.064-.001h.047l.043.021c.098.089.226.101.373.121.156.023.331.045.478.165.176.203.316.312.554.324.155.007.29.097.371.248.059.111.078.24.059.357a.188.188 0 01.113.081c.006.007.01.016.014.024.15-.057.304-.014.399.146a.552.552 0 01.095-.008c.208 0 .37.099.527.193.043.026.086.053.131.077.137.074.22.166.247.274a.394.394 0 01-.069.319.538.538 0 01-.078.093c-.193.191-.212.438-.233.727a1.494 1.494 0 01-.113.436c-.038.097-.109.279-.347.279l-.051-.002c-.021 0-.078.038-.115.062-.045.029-.09.059-.135.078-.02.016-.017.043-.015.061.003.037.008.082-.003.132-.062.294-.168.511-.33.675-.045.227-.176.253-.272.239a.296.296 0 01.003.207c-.039.104-.141.173-.301.206a.597.597 0 01-.059.008l.001.003c.011.073-.003.13-.04.171a.163.163 0 01-.11.057.404.404 0 01-.041.357c.122.138.091.301.067.414a.628.628 0 00-.008.056A6.904 6.904 0 0014.9 8z"/></svg>