<svg xmlns="http://www.w3.org/2000/svg" viewBox="0 0 16 16"><path d="M8.474 14.452l-.077-.08.073-.084c.063-.072.049-.12-.036-.259l-.038-.063a1.282 1.282 0 00-.038-.062.6.6 0 01-.114-.306 19.81 19.81 0 00-.049-.771 46.441 46.441 0 01-.037-.535c-.006-.104-.003-.209-.001-.312.002-.069.003-.137.002-.205a.443.443 0 00-.285-.433c-.315-.127-.451-.387-.572-.616a3.781 3.781 0 00-.097-.177 1.49 1.49 0 01-.064-.126.436.436 0 00-.116-.18c-.045-.035-.15-.163-.096-.271.034-.063.033-.144.033-.233-.001-.151-.003-.338.169-.488.144-.126.181-.271.12-.44l-.129.07a.306.306 0 01-.287-.049l-.034-.015c-.138-.069-.35-.177-.446-.439a.57.57 0 00-.097-.062 2.739 2.739 0 01-.106-.067c-.18-.125-.39-.18-.612-.238-.081-.022-.162-.043-.242-.067a1.572 1.572 0 01-.381-.188c-.116-.075-.376-.241-.269-.594a.218.218 0 01-.038-.037l-.088.419-.318-.531c-.02-.033-.042-.064-.062-.096-.086-.13-.19-.286-.197-.493a.48.48 0 01-.049-.317c-.279-.223-.267-.53-.259-.733l.003-.111c0-.146.083-.239.146-.291.014-.034.03-.069.048-.105a1.96 1.96 0 01.204-.292c.064-.079.125-.153.161-.229l.062-.129c-.072-.165-.035-.336-.011-.448l.013-.069.171.029v-.091l-.158.013-.008-.007-.122-.01-.093-.134c-.015-.034-.034-.078-.185-.079l-.219.011c-.174.008-.338.016-.46.097a.9.9 0 01-.19.09 1.8 1.8 0 01-.141.04.8.8 0 00-.07.019.806.806 0 01-.295.165 6.9 6.9 0 006.226 11.02 1.852 1.852 0 01-.097-.171.983.983 0 00-.148-.24z"/><path d="M14.9 8A6.9 6.9 0 004.57 2.014c.221.005.439.034.652.087.229.057.443.065.675.03.129-.02.281-.04.44-.04.292 0 .544.069.77.211.036.023.177.063.266.016.177-.095.416-.075.601-.036.058.012.115.025.171.028l.062.004c.048 0 .062-.008.063-.008a.404.404 0 01.326-.321l.076-.009c.039 0 .231.012.281.236a.308.308 0 01.221-.104h.103l.112.097a.29.29 0 01.083.243c-.02.147-.139.217-.202.254-.128.133-.33.135-.49.127l-.013.024.002.002-.053.079-.074.018a.167.167 0 01-.018.005l-.007.002c-.041.015-.077.016-.098.017v-.004c-.031.006-.06.008-.087.01l-.003-.006a.777.777 0 01-.207.017v.092l-.101.014a.347.347 0 01-.118.243c.061.023.111.056.152.081.025.016.056.036.07.039a.472.472 0 01.255.146c.076-.066.155-.107.207-.135l.278-.039-.243-.008a.641.641 0 01.648-.617c.117 0 .233.031.335.092.045.026.141.081.19.177l.246-.111.125.187c.065.114.08.229.092.318a.85.85 0 00.016.099l.006.025a.317.317 0 01.271.29.375.375 0 01-.211.366c-.175.096-.413.205-.698.205l-.05-.001-.007.03.075.052.035.221-.236.21c-.169-.04-.3-.023-.42.058-.104.068-.209.131-.314.195-.205.124-.399.241-.565.389a.68.68 0 01-.276.437l-.067.047c-.047.03-.099.06-.151.088a1.104 1.104 0 00-.166.102c-.014.04-.008.097.006.196l.01.072c.039.399-.198.467-.272.478l-.056.005c-.092 0-.254-.036-.311-.28a.374.374 0 01-.041-.204.725.725 0 00-.163-.044.39.39 0 01-.417.104c-.231-.074-.362.137-.39.223l-.032.092c-.055.154-.075.224-.041.302.011.024.037.082.05.097.09-.01.111-.041.121-.056.032-.075.094-.217.273-.258.122-.038.273-.05.386.038.051.04.206.188.067.43a.32.32 0 01-.034.086c.082.01.194.04.272.14.072.091.094.209.066.351l-.018.083c-.023.093-.029.136-.023.162.05.027.086.061.112.095l.214.069c.018-.002.028-.011.05-.008.15-.279.426-.294.65-.306l.038.01c.018-.007.039-.001.064-.001h.047l.043.021c.098.089.226.101.374.121.155.023.33.045.477.165.176.203.316.312.554.324.155.007.29.097.371.248.059.111.079.24.059.357a.193.193 0 01.127.105c.15-.057.304-.014.399.146a.54.54 0 01.094-.008c.208 0 .371.099.527.193.043.026.086.053.131.077.136.074.22.166.247.274a.394.394 0 01-.069.319.54.54 0 01-.079.093c-.193.191-.212.438-.233.727a1.464 1.464 0 01-.113.436c-.038.097-.109.279-.347.279l-.05-.002c-.021 0-.078.038-.116.062-.044.029-.089.059-.134.078-.02.016-.017.043-.015.061.003.037.008.082-.003.132-.062.294-.167.511-.33.675-.045.227-.176.253-.272.239a.29.29 0 01.003.207c-.04.104-.142.173-.301.206a.597.597 0 01-.059.008v.003c.01.073-.003.13-.04.171a.163.163 0 01-.111.057.404.404 0 01-.041.357c.123.138.09.301.067.414-.004.021-.005.037-.007.056A6.904 6.904 0 0014.9 8z"/></svg>