<svg xmlns="http://www.w3.org/2000/svg" viewBox="0 0 16 16"><path d="M13.185 9.758l-.653.647L14.114 12H9v1h5.114l-1.582 1.603.653.653 2.731-2.75z"/><path d="M10.553 10.397L12 8.961V1a1 1 0 00-1-1H1a1 1 0 00-1 1v10a1 1 0 001 1h7v-1h3.172l-.418-.4-.201-.203zm-.647-5.979c0 2.605-1.959 5.611-5.542 5.611a5.473 5.473 0 01-2.987-.887 3.872 3.872 0 002.885-.816 1.955 1.955 0 01-1.821-1.371 1.93 1.93 0 00.88-.033 1.966 1.966 0 01-1.562-1.934l.001-.024c.262.147.562.237.882.247a1.98 1.98 0 01-.867-1.643c0-.361.096-.7.264-.992a5.508 5.508 0 004.015 2.062 2.009 2.009 0 01-.05-.45c0-1.089.872-1.972 1.947-1.972.561 0 1.066.239 1.422.623a3.894 3.894 0 001.238-.479 1.98 1.98 0 01-.857 1.091c.395-.048.77-.154 1.119-.311A3.993 3.993 0 019.9 4.162c.004.084.006.169.006.256z"/></svg>