<svg xmlns="http://www.w3.org/2000/svg" viewBox="0 0 16 16"><path d="M8 1.1a6.9 6.9 0 100 13.8A6.9 6.9 0 008 1.1zm3.401 10.87l-.312.349c-.361.363-.834.618-1.243.683-1.013.163-2.956-.433-4.651-2.128l-.008-.01a.07.07 0 00-.009-.007c-1.696-1.696-2.29-3.638-2.127-4.652.064-.409.32-.881.682-1.244l.311-.349a.5.5 0 01.706-.017l1.38 1.379a.502.502 0 01-.016.707l-.196.196-.119.118-.155.151c-.533.534-.553 1.376-.046 1.885l1.148 1.148.231.229c.509.507 1.351.487 1.884-.044l.275-.271.195-.194a.505.505 0 01.706-.018l1.379 1.38a.503.503 0 01-.015.709zm.365-4.09l-.016 1.903-1.562-1.567c-1.557-.027-2.809-1.001-2.809-2.202 0-1.219 1.285-2.206 2.871-2.206s2.871.987 2.871 2.206c0 .789-.543 1.476-1.355 1.866z"/></svg>