<svg xmlns="http://www.w3.org/2000/svg" viewBox="0 0 16 16"><path d="M15.543 14.562l-.911-.912a.32.32 0 00-.224-.09.342.342 0 00-.243.102l-.128.129-.182.179a.92.92 0 01-.649.272.84.84 0 01-.596-.243l-.152-.151-.33-.33-.429-.429c-.336-.336-.322-.893.029-1.245l.103-.1.079-.078.129-.13a.331.331 0 00.01-.466l-.387-.388-.524-.524a.311.311 0 00-.223-.09.34.34 0 00-.243.102l-.205.23c-.24.239-.408.551-.451.821-.023.145-.018.322.008.517.086.649.463 1.526 1.209 2.348.063.069.12.14.188.208l.006.005.005.006c1.002 1.003 2.136 1.424 2.842 1.424.083 0 .16-.006.23-.018.27-.043.582-.211.821-.45l.206-.231a.33.33 0 00.012-.468z"/><path d="M8 12.146c-3.744 0-5.348-3.718-5.414-3.877L2.472 8l.114-.27C2.652 7.571 4.256 3.854 8 3.854c3.74 0 5.348 3.718 5.414 3.876l.114.27-.114.271a7.227 7.227 0 01-.812 1.37l.438.439c.656.658.666 1.723.033 2.402l.081.08A6.84 6.84 0 0014.9 8a6.894 6.894 0 00-3.577-6.045c-.009-.005-.016-.012-.024-.017a6.864 6.864 0 00-.966-.43c-.148-.054-.344-.102-.496-.145a1.03 1.03 0 00-.087-.009v-.002c-.5-.163-1.158-.252-1.797-.252-3.811 0-6.877 3.09-6.877 6.9s3.102 6.9 6.912 6.9c.652 0 1.28-.098 1.879-.268-.626-.799-1.049-1.693-1.198-2.535-.215.03-.436.049-.669.049z"/><path d="M8 5.334a2.666 2.666 0 100 5.332c.264 0 .515-.045.753-.119.142-.396.381-.783.693-1.103l.208-.235.03-.029c.245-.244.548-.407.878-.475.065-.225.105-.459.105-.705A2.666 2.666 0 008 5.334zm0 3.939a1.272 1.272 0 11-.001-2.545A1.272 1.272 0 018 9.273z"/></svg>