<svg xmlns="http://www.w3.org/2000/svg" viewBox="0 0 16 16"><path d="M15 8h-5l-.628-.553C9.102 7.195 8.82 7 8.508 7H6a1 1 0 00-.999.961L5 8v7a1 1 0 001 1h9a1 1 0 001-1V9a1 1 0 00-1-1z"/><path d="M8.508 6c.24 0 .458.051.655.127L9.042 6h-.534z" fill="none"/><path d="M13 4l1.5 3L16 4h-1V2a1 1 0 00-1-1h-1v1h1v2h-1zM3.5 7.75V6H5V4.734c0-.479.074-1.466.427-1.924.372-.482.904-.81 1.783-.81 1.432 0 2.047.201 2.047.201l-.279 1.653s-.588-.135-1.03-.135c-.441 0-.948.154-.948.589V6h1.59c.398 0 .677.127.677.127.37.143.665.379.88.578l.334.295H12V1a1 1 0 00-1-1H1a1 1 0 00-1 1v10a1 1 0 001 1h3V8h-.5v-.25z"/></svg>