<svg xmlns="http://www.w3.org/2000/svg" viewBox="0 0 16 16"><path d="M3.822 10.211A9.013 9.013 0 012.175 8C2.744 6.917 4.592 4 8 4c.639 0 1.22.106 1.751.281l1.533-1.533A7.449 7.449 0 008 2C2.581 2 .261 7.38.165 7.609L0 8l.165.391c.052.124.76 1.754 2.252 3.225l1.405-1.405z"/><path d="M5.079 8c0 .288.048.562.128.824l3.617-3.616A2.84 2.84 0 008 5.08 2.92 2.92 0 005.079 8zm10.756-.392c-.055-.131-.847-1.95-2.526-3.481l1.398-1.398A.5.5 0 0014 2.022L1.98 14.042a.502.502 0 000 .708.502.502 0 00.707 0l1.677-1.678A7.474 7.474 0 008 14c.424 0 .828-.036 1.215-.098-.303-.571-.505-1.16-.578-1.707a1.678 1.678 0 01-.014-.229 5.56 5.56 0 01-2.763-.39l.928-.929c.37.171.777.273 1.211.273.261 0 .513-.038.753-.102.142-.397.381-.783.693-1.104l.208-.234.029-.029a1.733 1.733 0 011.077-.505c.102-.297.16-.615.16-.947 0-.434-.103-.842-.273-1.211l1.255-1.255c1 .878 1.631 1.912 1.922 2.466a9.155 9.155 0 01-1.29 1.846l.506.506c.358.359.522.84.496 1.312 1.525-1.483 2.247-3.147 2.299-3.272L16 8l-.165-.392z"/><path d="M14.633 13.923a.316.316 0 00-.224-.091.346.346 0 00-.243.102l-.128.129-.182.18a.92.92 0 01-.649.271.84.84 0 01-.596-.242l-.152-.152-.33-.329-.429-.429c-.011-.012-.015-.027-.025-.039a.879.879 0 01.055-1.207l.103-.1.079-.078.129-.129a.332.332 0 00.01-.467l-.387-.388-.008-.007-.516-.517a.312.312 0 00-.223-.091.343.343 0 00-.243.102l-.205.231c-.24.239-.408.551-.451.821-.018.111-.006.255.006.398.003.042-.004.073.001.117.066.493.301 1.117.735 1.748.138.201.294.402.474.601.063.069.12.14.188.208.001.002.004.004.006.004l.005.006C12.437 15.58 13.57 16 14.276 16c.083 0 .16-.006.23-.018.27-.042.582-.211.821-.449l.206-.232a.331.331 0 00.01-.467l-.91-.911z"/></svg>