<svg xmlns="http://www.w3.org/2000/svg" viewBox="0 0 16 16"><path d="M15 8h-5l-.628-.553C9.102 7.195 8.82 7 8.508 7H6a1 1 0 00-.999.961L5 8v7a1 1 0 001 1h9a1 1 0 001-1V9a1 1 0 00-1-1zm-2-4l1.5 3L16 4h-1V2a1 1 0 00-1-1h-1v1h1v2h-1z"/><path d="M11 0H1a1 1 0 00-1 1v10a1 1 0 001 1h3v-1.999a5.455 5.455 0 01-2.623-.859 3.853 3.853 0 002.626-.643v-.22a1.944 1.944 0 01-1.561-1.324 1.972 1.972 0 00.879-.032 1.97 1.97 0 01-1.562-1.934v-.025c.262.147.563.236.883.247a1.98 1.98 0 01-.867-1.643c0-.361.096-.7.263-.991a5.507 5.507 0 004.015 2.061 2.02 2.02 0 01-.05-.449c0-1.09.873-1.973 1.948-1.973a1.93 1.93 0 011.422.623 3.88 3.88 0 001.237-.479 1.97 1.97 0 01-.857 1.091c.394-.048.77-.154 1.12-.311A3.989 3.989 0 019.9 4.161a5.733 5.733 0 01-.339 2.175c.19.122.36.256.491.379l.325.285H12V1a1 1 0 00-1-1z"/></svg>