<svg xmlns="http://www.w3.org/2000/svg" viewBox="0 0 16 16"><path d="M8 1.1a6.9 6.9 0 10.002 13.802A6.9 6.9 0 008 1.1zm3.401 10.869l-.312.35c-.361.363-.834.617-1.243.684-1.013.162-2.956-.434-4.651-2.129l-.008-.01a.073.073 0 00-.009-.008C3.482 9.16 2.888 7.219 3.051 6.205c.064-.41.32-.881.682-1.244l.311-.35a.501.501 0 01.706-.016l1.38 1.379a.505.505 0 01-.017.708l-.195.195-.119.117-.155.152c-.533.534-.553 1.375-.046 1.885l1.148 1.148.231.229c.509.508 1.351.488 1.884-.043l.275-.271.195-.195a.505.505 0 01.706-.018l1.379 1.381a.5.5 0 01-.015.707zM7.012 6.25c0-.408.331-.738.738-.738a2.865 2.865 0 012.862 2.863.737.737 0 01-1.475 0A1.39 1.39 0 007.75 6.986a.738.738 0 01-.738-.736zm5.404 2.861a.737.737 0 01-.737-.736 3.934 3.934 0 00-3.929-3.93.738.738 0 110-1.474 5.41 5.41 0 015.404 5.404.738.738 0 01-.738.736z"/></svg>