<svg xmlns="http://www.w3.org/2000/svg" viewBox="0 0 16 16"><path d="M12.5 9a3.475 3.475 0 100 6.95 3.475 3.475 0 000-6.95zm1.802 4H12v-2.302a.5.5 0 011 0V12h1.302a.5.5 0 010 1z"/><path d="M6.918 5.877l-.12.118-.154.151c-.533.534-.553 1.376-.046 1.885L7.747 9.18l.231.23c.262.26.612.379.963.363A4.467 4.467 0 0112.5 8c.869 0 1.679.253 2.366.684a6.9 6.9 0 10-6.144 6.178 4.441 4.441 0 01-.697-2.388c0-.39.055-.766.149-1.126a8.323 8.323 0 01-1.978-1.476l-.008-.009a.07.07 0 01-.009-.007C4.483 8.161 3.888 6.219 4.05 5.205c.065-.409.321-.881.683-1.244l.311-.349a.5.5 0 01.706-.017l1.379 1.379a.502.502 0 01-.015.707l-.196.196z"/></svg>