<svg xmlns="http://www.w3.org/2000/svg" viewBox="0 0 16 16"><path d="M13.924 6.895l-.955-.958a.351.351 0 00-.491.013l-.135.135-.191.188c-.37.37-.954.383-1.308.031l-.159-.158-.798-.799c-.353-.354-.338-.94.031-1.308l.107-.105.083-.083.136-.136a.347.347 0 00.011-.49l-.957-.957a.345.345 0 00-.489.012l-.217.242c-.251.251-.429.58-.474.862-.112.704.301 2.052 1.478 3.228.001.003.004.004.006.005l.006.008c1.176 1.178 2.525 1.59 3.228 1.476.284-.044.611-.221.863-.473l.216-.241c.137-.14.143-.361.009-.492zm.367 4.914l-2.088-2.09c-.29-.285-.77-.273-1.07.026l-.295.294-.417.411c-.808.806-2.084.836-2.854.067l-.349-.347-1.739-1.74c-.77-.771-.739-2.047.068-2.855l.235-.229.181-.179.295-.297c.301-.302.31-.781.023-1.07l-2.09-2.089c-.287-.287-.765-.277-1.068.025l-.471.53c-.548.548-.935 1.263-1.034 1.882-.246 1.535.655 4.478 3.224 7.045.004.005.01.009.014.012l.013.014c2.567 2.569 5.511 3.471 7.045 3.225.619-.098 1.335-.485 1.883-1.033l.472-.53c.299-.304.31-.783.022-1.072z"/></svg>