<svg xmlns="http://www.w3.org/2000/svg" viewBox="0 0 16 16"><path d="M12.166 1.748l-.652.652L13.096 4H8v1h5.096l-1.582 1.598.652.651 2.731-2.751zm2.125 10.061l-2.088-2.09c-.29-.285-.77-.273-1.07.026l-.295.294-.417.411c-.808.806-2.084.836-2.854.067l-.349-.347-1.74-1.74c-.769-.771-.738-2.047.069-2.855l.235-.229.181-.179.295-.297c.301-.302.311-.781.023-1.07L4.192 1.711c-.288-.287-.766-.277-1.069.025l-.47.529c-.549.549-.936 1.264-1.035 1.883-.246 1.535.655 4.478 3.224 7.045.004.005.01.009.014.012.003.004.007.01.012.014 2.568 2.569 5.511 3.471 7.045 3.225.619-.098 1.335-.485 1.883-1.033l.472-.53c.3-.304.311-.783.023-1.072z"/></svg>