<svg xmlns="http://www.w3.org/2000/svg" viewBox="0 0 16 16"><path d="M14.291 11.809l-2.088-2.09c-.29-.285-.77-.273-1.07.025l-.295.295-.417.41c-.808.807-2.084.836-2.854.068l-.349-.347-1.74-1.74c-.769-.772-.738-2.047.069-2.856l.235-.229.181-.18.295-.297c.301-.301.311-.781.023-1.07L4.192 1.711c-.288-.287-.766-.277-1.069.025l-.47.529c-.549.549-.936 1.264-1.035 1.883-.246 1.535.655 4.477 3.224 7.045l.014.012c.003.004.007.01.012.014 2.568 2.568 5.511 3.471 7.045 3.225.619-.098 1.335-.486 1.883-1.033l.472-.531c.3-.304.311-.782.023-1.071zM14 2V1h-1v1h.5zm0 2V3h-1v1h.5zm0 2V5h-1v1h.5zm-2-4V1h-1v1h.5zm0 2V3h-1v1h.5zm0 2V5h-1v1h.5zm0 2V7h-1v1h.5zm-2-6V1H9v1h.5zm0 2V3H9v1h.5zm0 2V5H9v1h.5z"/></svg>