<svg xmlns="http://www.w3.org/2000/svg" viewBox="0 0 16 16"><path d="M6.77 1.129C2.667 1.247.204 4.219.204 6.23c0 1.717.821 2.977 2.462 2.977s2.462.424 2.462 1.697c0 1.701 1.231 2.977 2.872 2.977 5.334 0 7.796-2.977 7.796-5.949 0-5.103-3.796-6.953-9.026-6.803zM3 7.209a1.2 1.2 0 110-2.4 1.2 1.2 0 010 2.4zm2.75-2.031a1.2 1.2 0 110-2.4 1.2 1.2 0 010 2.4zm1.736 7a1.2 1.2 0 110-2.398 1.2 1.2 0 010 2.398zm1.764-7a1.2 1.2 0 110-2.4 1.2 1.2 0 010 2.4zM12 7.209a1.2 1.2 0 110-2.4 1.2 1.2 0 010 2.4z"/></svg>