<svg xmlns="http://www.w3.org/2000/svg" viewBox="0 0 16 16"><path d="M8.956 11.278c1.601-1.292 2.04-2.557 2.117-3.425a1.496 1.496 0 01-.759.212c-.864 0-1.563-.727-1.563-1.623 0-.897.699-1.624 1.563-1.624.195 0 .375.051.545.12l-.006-.013s.075.027.18.086l.016.007.008.006c.072.042.155.097.247.175.04.034.072.074.108.11.385.384.808 1.114.696 2.507-.065 1.089-.557 2.719-2.523 4.306l-.629-.844zm-4.75 0c1.601-1.292 2.04-2.557 2.117-3.425a1.496 1.496 0 01-.759.212c-.864 0-1.563-.727-1.563-1.623 0-.897.699-1.624 1.563-1.624.195 0 .375.051.545.12l-.006-.012s.075.027.18.086l.016.007.008.006c.073.041.156.096.248.174.04.034.072.074.108.11.385.384.808 1.114.696 2.507-.065 1.089-.557 2.719-2.523 4.306l-.63-.844zM8 1a7 7 0 100 14A7 7 0 008 1"/></svg>