<svg xmlns="http://www.w3.org/2000/svg" viewBox="0 0 16 16"><path d="M6 10.25v.117c0 .484.142.865.538 1.143.396.277.843.416 1.399.416.689 0 1.202-.18 1.537-.536s.503-.815.503-1.372c0-.604-.154-1.076-.462-1.41-.31-.336-.745-.504-1.307-.496a2.147 2.147 0 00-.842.177L7.518 7H9.75V6H6.469l-.407 3.25h1.147a.598.598 0 01.167-.176c.124-.08.457-.121.689-.121.282 0 .556.098.7.291.144.194.217.455.217.783s-.064.581-.195.758c-.132.178-.468.266-.756.266-.247 0-.523-.066-.675-.199-.153-.133-.213-.317-.213-.555l.002-.046L6 10.25z"/><path d="M10 2.084V.047L6 2.463V.047L1.588 2.712 6 5.328V2.956l4 2.372V3.921c1.82.773 3.105 2.543 3.105 4.646A5.1 5.1 0 018 13.665c-2.671 0-4.838-2.055-5.062-4.664H1.214A6.798 6.798 0 008 15.363a6.802 6.802 0 006.808-6.799C14.806 5.509 12.78 2.936 10 2.084z"/></svg>