<svg xmlns="http://www.w3.org/2000/svg" viewBox="0 0 16 16"><path d="M10.055 6.991l2.459.828c.038.657.57 1.181 1.236 1.181a1.25 1.25 0 000-2.5c-.351 0-.667.146-.894.38l-1.791-.603 2.069-1.462c.185.107.387.185.616.185a1.25 1.25 0 10-1.25-1.25c0 .09.033.169.051.253L9.893 5.881 3.495 3.726A1.247 1.247 0 001 3.75C1 4.44 1.56 5 2.25 5c.334 0 .635-.136.859-.35l5.772 1.945L6.06 8.59l-2.565-.864A1.247 1.247 0 001 7.75C1 8.44 1.56 9 2.25 9c.334 0 .635-.136.859-.35l1.939.653-2.066 1.46a1.225 1.225 0 00-.732-.263 1.25 1.25 0 101.25 1.25c0-.039-.019-.073-.022-.111L6.222 9.7l6.292 2.12c.038.656.57 1.18 1.236 1.18a1.25 1.25 0 000-2.5c-.351 0-.667.146-.894.38L7.233 8.985l2.822-1.994z"/></svg>