<svg xmlns="http://www.w3.org/2000/svg" viewBox="0 0 16 16"><path d="M15 2h-4a1 1 0 00-1 1v2a1 1 0 001 1h1v1.5L13.5 6H15a1 1 0 001-1V3a1 1 0 00-1-1z"/><path d="M5.705 5.833c.216.07.246 1.119.787 1.861.425.578 1.025 1.308 1.713 1.42.081.017.507.017.588 0 .689-.112 1.289-.843 1.713-1.42.16-.218.275-.462.363-.701A2 2 0 019 5V3a1.99 1.99 0 01.811-1.603 2.53 2.53 0 00-1.274-.355h-.074c-1.486 0-2.702 1.384-2.828 2.752-.002.003.001.001.001.006-.029.136-.331.344-.331.495 0 .781.144 1.456.4 1.538zm.441 4.463c-1.451 1.065-3.486 1.508-3.855 1.863C1.619 12.81 1.377 14 1.271 15H7.5l.813-2.784c-.343-.148-.919-.576-1.126-.826-.169-.311.295-.772 1.307-.779l.003-.025-1.79-1.231c0-.001-.281.712-.561.941zm2.351.289l.003.002.003-.003-.003-.028zm6.212 1.574c-.369-.355-2.404-.796-3.855-1.862-.279-.229-.561-.945-.561-.945l-1.79 1.232.003.026c1.01.007 1.475.469 1.306.779-.205.25-.777.672-1.12.823L9.5 15h6.229c-.106-1-.348-2.19-1.02-2.841z"/></svg>