<svg xmlns="http://www.w3.org/2000/svg" viewBox="0 0 16 16"><path d="M9.217.085c-.182.099-.186.29-.186.498v6.792c0 .208.004.399.186.498.183.099.288.089.46-.025l5.065-3.396c.158-.104.225-.283.225-.473s-.109-.368-.268-.473L9.685.11c-.173-.114-.286-.124-.468-.025z"/><path d="M9.004 4.998H2.996A.999.999 0 012 4.002c0-.548.448-.996.996-.996h6.008a1 1 0 01.996.996.999.999 0 01-.996.996zM6.797 15.889c.182-.099.187-.29.187-.498V8.599c0-.208-.005-.399-.187-.498-.182-.099-.287-.089-.46.025l-5.065 3.396c-.158.104-.225.283-.225.473s.109.368.268.473l5.016 3.396c.171.114.284.123.466.025z"/><path d="M6.947 11.007h6.008c.548 0 .996.448.996.996a.999.999 0 01-.996.996H6.947a.999.999 0 01-.996-.996c0-.548.448-.996.996-.996z"/></svg>