<svg xmlns="http://www.w3.org/2000/svg" viewBox="0 0 16 16"><path fill="none" d="M7.879 12.073zm-.022.427zm.079-.823zm.082-.365c-.008.031-.017.062-.023.092.006-.03.015-.06.023-.092z"/><path d="M7.857 12.5c0-.145.009-.286.021-.427.007-.069.018-.138.027-.207.009-.063.018-.127.029-.189.016-.092.036-.183.059-.272l.023-.092c.027-.105.059-.21.094-.312H2V3h11v4.886c.73.078 1.41.329 2 .708V2a1 1 0 00-1-1H1a1 1 0 00-1 1v10a1 1 0 001 1h6.886l-.007-.084a4.387 4.387 0 01-.022-.416z"/><path d="M7.906 11.866c-.01.069-.021.138-.027.207.007-.069.017-.137.027-.207zm-.027 1.05l.007.084-.007-.084zM5.75 14l-.25 1h3.095a4.639 4.639 0 01-.483-1H5.75zm6.75-4.742a3.241 3.241 0 10-.001 6.483 3.241 3.241 0 00.001-6.483zM14 14h-3v-3h3v3z"/></svg>