<svg xmlns="http://www.w3.org/2000/svg" viewBox="0 0 16 16"><path fill="none" d="M7.879 12.073zm-.021.427zm.077-.823c-.011.062-.02.126-.029.189.009-.063.018-.126.029-.189zm.083-.365l-.024.092.024-.092z"/><path d="M7.858 12.5c0-.145.008-.286.021-.427.006-.069.017-.138.027-.207.009-.063.018-.127.029-.189.017-.092.037-.183.059-.272l.024-.092c.028-.105.059-.21.094-.312H2V3h11v4.886c.731.078 1.41.329 2 .708V2a1 1 0 00-1-1H1a1 1 0 00-1 1v10a1 1 0 001 1h6.886l-.007-.084a4.388 4.388 0 01-.021-.416z"/><path d="M7.906 11.866c-.01.069-.021.138-.027.207.007-.069.017-.137.027-.207zm-.027 1.05l.007.084-.007-.084zM5.75 14l-.25 1h3.095a4.639 4.639 0 01-.483-1H5.75zm6.75-4.742a3.242 3.242 0 10-.002 6.484 3.242 3.242 0 00.002-6.484zM12 14h-1v-3h1v3zm2 0h-1v-3h1v3z"/></svg>