<svg xmlns="http://www.w3.org/2000/svg" viewBox="0 0 16 16"><path d="M6.956 3.96c-.074.193.038.312.164.437L11.222 8.5c.126.125.244.238.438.164.194-.075.266-.158.323-.354l1.679-5.78a.438.438 0 00-.121-.45c-.114-.115-.303-.142-.482-.088L7.315 3.631c-.196.058-.285.135-.359.329zm-4.824.384c-.47.471-.808 1.076-.902 1.599-.235 1.291.464 3.739 2.57 5.843a.036.036 0 01.011.01l.006.007a.055.055 0 01.017.016c2.104 2.105 4.552 2.805 5.844 2.569.522-.093 1.127-.432 1.599-.9l.453-.404c.258-.261.274-.661.039-.897l-1.711-1.712c-.237-.235-.637-.219-.898.04l-.253.254-.152.154-.198.202c-.691.691-1.761.741-2.394.112l-.889-.889-.89-.89c-.629-.632-.579-1.702.112-2.394l.201-.198.154-.152.254-.254c.258-.26.275-.66.041-.898L3.433 3.851c-.236-.235-.636-.219-.896.04l-.405.453z"/></svg>