<svg xmlns="http://www.w3.org/2000/svg" viewBox="0 0 16 16"><path d="M14.824 5.909c.077-.201-.04-.324-.171-.455l-4.26-4.26c-.131-.131-.254-.248-.454-.17-.202.078-.276.165-.335.369L7.86 7.396c-.055.186.006.348.125.467s.315.148.501.092l5.964-1.704c.204-.06.296-.14.374-.342zM2.131 4.603c-.469.472-.807 1.076-.9 1.599-.236 1.292.463 3.739 2.569 5.843a.036.036 0 01.011.01l.006.007.007.005.01.011c2.104 2.105 4.552 2.805 5.843 2.569.523-.093 1.128-.432 1.6-.9l.452-.404c.259-.261.275-.661.04-.897l-1.711-1.712c-.238-.235-.638-.219-.898.04l-.254.253-.151.155-.198.202c-.692.691-1.762.741-2.395.112l-.888-.889-.89-.889c-.629-.633-.579-1.702.112-2.395l.201-.198.154-.152.254-.253c.258-.261.275-.66.04-.898L3.433 4.11c-.237-.235-.636-.218-.898.04l-.404.453z"/></svg>