<svg xmlns="http://www.w3.org/2000/svg" viewBox="0 0 16 16"><path d="M11.364 3.789c0-.004.003-.013.001-.016-.12-1.301-1.225-2.632-2.61-2.761A2.257 2.257 0 008.537 1h-.074c-.073 0-.146.005-.218.013-1.385.129-2.491 1.46-2.61 2.761-.002.002.001.011.001.015-.028.136-.331.349-.331.5 0 .781.145 1.461.4 1.543.152.05.213.588.426 1.161v.001c.02.054.042.107.064.161l.015.033c.02.048.043.096.066.144l.015.028c.059.115.125.228.202.333.425.578 1.025 1.308 1.713 1.42.04.01.167.014.294.014s.254-.004.295-.013c.688-.112 1.288-.843 1.713-1.42.077-.106.143-.218.202-.333l.014-.028c.023-.048.046-.096.066-.144l.015-.033c.022-.054.044-.107.064-.161v-.001c.213-.573.273-1.111.426-1.161.256-.082.4-.762.4-1.543 0-.152-.302-.365-.331-.501zm-5.218 6.507c-1.451 1.065-3.486 1.508-3.855 1.863C1.619 12.81 1.377 14 1.271 15H7.5l.813-2.784c-.343-.148-.919-.576-1.126-.826-.169-.311.295-.772 1.307-.779l.003-.025-1.79-1.231c0-.001-.281.712-.561.941zm2.351.289l.003.002.003-.003-.003-.028zm6.212 1.574c-.369-.355-2.404-.796-3.855-1.862-.279-.229-.561-.945-.561-.945l-1.79 1.232.003.026c1.01.007 1.475.469 1.306.779-.205.25-.777.672-1.12.823L9.5 15h6.229c-.106-1-.348-2.19-1.02-2.841zM4 8.467l-.004-1.44a.374.374 0 00-.38-.359h-.488c-.557.001-1.009-.427-1.011-.958l-.002-.24-.004-1.2c-.002-.531.448-.934 1.005-.936l.16.029H3.4l.204-.029a.38.38 0 00.375-.376l-.005-1.447a.373.373 0 00-.378-.363l-.345.02c-.378.001-.758.115-1.005.295C1.633 1.91.934 3.238.941 5.009l.001.009v.009c.006 1.771.714 3.094 1.33 3.535.248.18.629.291 1.007.291l.345-.021A.373.373 0 004 8.467z"/></svg>