<svg xmlns="http://www.w3.org/2000/svg" viewBox="0 0 13.787 13.786"><circle cx="4.028" cy="6.893" r="1.063"/><circle cx="6.894" cy="9.777" r="1.063"/><circle cx="6.894" cy="4.027" r="1.063"/><circle cx="9.777" cy="6.893" r="1.064"/><path d="M9.996 2.82l1.267-1.266c-2.523-2.075-6.181-2.072-8.717 0L3.811 2.82a5.111 5.111 0 016.185 0zm.989 7.174l1.266 1.265c2.057-2.525 2.042-6.185-.003-8.711l-1.265 1.265a5.151 5.151 0 01.002 6.181zM2.822 3.811L1.556 2.545c-2.073 2.536-2.075 6.192-.001 8.716l1.266-1.266a5.107 5.107 0 01.001-6.184zm.991 7.171l-1.264 1.264c2.525 2.045 6.185 2.061 8.711.003l-1.266-1.266a5.148 5.148 0 01-6.181-.001z"/></svg>