<svg xmlns="http://www.w3.org/2000/svg" viewBox="0 0 16 16"><path d="M14 9a1 1 0 001-1V2a1 1 0 00-1-1h-2v8h2zM1.562 8.232c0 1.296 2.472 1.905 3.627 1.905.279.003.576-.122.779-.363.246-.292.589-.02.605-.004.242.242-.917 2.04-.932 2.144-.44.823-.962 1.754-.438 2.586.029.046.239.26.266.281.446.356.856.095 1.042-.243C6.761 14.084 11 8.454 11 8.454V3.093c-.099-.104-2.247-1.062-3.627-1.062-.055-.02-1.027 0-2.729 0-1.027 0-1.693 1.268-2.041 2.256-.157.445-.741.889-.816 1.415-.073.51.126.763.097 1.296-.012.217-.322 1.02-.322 1.234z"/></svg>