<svg data-name="Layer 1" xmlns="http://www.w3.org/2000/svg" viewBox="0 0 32 32"><path d="M29.31 5.49a2.24 2.24 0 00-1.65-.69H4.33a2.25 2.25 0 00-1.65.69A2.25 2.25 0 002 7.13v17.74a2.25 2.25 0 00.68 1.65 2.25 2.25 0 001.65.69h23.34A2.35 2.35 0 0030 24.87V7.13a2.25 2.25 0 00-.69-1.64zm-1.18 19.38a.47.47 0 01-.47.47H4.33a.45.45 0 01-.33-.15.44.44 0 01-.14-.33V7.13a.47.47 0 01.47-.47h23.34a.47.47 0 01.47.47z"/><path d="M10.52 9.35a2.82 2.82 0 010 4 2.7 2.7 0 01-2 .82 2.79 2.79 0 01-2.8-2.8 2.79 2.79 0 012.8-2.8 2.7 2.7 0 012 .78zm15.75 7.58v6.54H5.73v-2.8L10.4 16l2.33 2.33 7.47-7.46 6.07 6.06z"/></svg>