<svg viewBox="0 0 16 16" xmlns="http://www.w3.org/2000/svg"><g clip-path="url(#clip0)"><path d="M8 12.47C7.59 12.47 7.25 12.13 7.25 11.72V3.52001C7.25 3.10001 7.59 2.77001 8 2.77001C8.41 2.77001 8.75 3.10001 8.75 3.52001V11.73C8.75 12.14 8.42 12.47 8 12.47Z"/><path d="M8 16.01C7.81 16.01 7.62 15.94 7.47 15.79L2.97 11.29C2.68 11 2.68 10.52 2.97 10.23C3.26 9.94001 3.74 9.94001 4.03 10.23L8 14.2L11.97 10.23C12.26 9.94001 12.74 9.94001 13.03 10.23C13.32 10.52 13.32 11 13.03 11.29L8.53 15.79C8.39 15.94 8.19 16.01 8 16.01Z"/><path d="M14.5 6.27001C14.09 6.27001 13.75 5.93001 13.75 5.52001V1.51001H2.25V5.52001C2.25 5.93001 1.91 6.27001 1.5 6.27001C1.09 6.27001 0.75 5.93001 0.75 5.52001V0.76001C0.75 0.35001 1.09 0.0100098 1.5 0.0100098H14.5C14.91 0.0100098 15.25 0.35001 15.25 0.76001V5.52001C15.25 5.93001 14.92 6.27001 14.5 6.27001Z"/></g><defs><clipPath><rect/></clipPath></defs></svg>