<svg viewBox="0 0 16 16" xmlns="http://www.w3.org/2000/svg"><path d="M8.44824 11.9688C8.31514 12.1156 8.25 12.3062 8.25 12.5C8.25 12.6938 8.31638 12.8837 8.44912 13.0303C8.71462 13.3233 9.14467 13.3233 9.41031 13.0303L11.6759 10.5303C11.9414 10.2373 11.9414 9.76281 11.6759 9.46969L9.41031 6.96969C9.14481 6.67672 8.71476 6.67672 8.44912 6.96969C8.18348 7.26266 8.18362 7.73719 8.44912 8.03031L9.55557 9.25H1.67969C1.30444 9.25 1 9.5875 1 10C1 10.4125 1.30444 10.75 1.67969 10.75H9.55557L8.44824 11.9688ZM14.9704 2.91812L12.8569 0.585625C12.515 0.210687 12.0534 0 11.5748 0H6.4375C5.43779 0 4.59951 0.895625 4.625 2L4.62522 7.25C4.62528 7.66437 4.92966 8 5.30491 8C5.68015 8 5.9846 7.66406 5.95911 7.25L5.98438 2.00406C5.98438 1.72794 6.1872 1.50406 6.4375 1.50406H10.9688V4C10.9688 4.55219 11.3746 5 11.875 5H14.1151V14C14.1151 14.2761 13.9123 14.5 13.662 14.5H6.4375C6.1872 14.5 5.98438 14.2761 5.98438 14L5.98432 12.75C5.98438 12.3344 5.68135 12 5.30469 12C4.92803 12 4.625 12.3359 4.65049 12.75L4.625 14C4.62506 15.1044 5.43638 16 6.4375 16H13.6875C14.6844 16 15.5 15.1 15.5 14V4.33125C15.5 3.80313 15.3103 3.29375 14.9704 2.91812Z"/></svg>