<svg viewBox="0 0 16 16" xmlns="http://www.w3.org/2000/svg"><path d="M15.8844 9.75897L13.9703 0.894631C13.8594 0.356427 13.4594 0 13 0H3C2.54094 0 2.14156 0.356427 2.03031 0.864335L0.116094 9.75897C0.039 10.1154 0 10.4825 0 10.8496V13.7189C0 14.9788 0.895313 16 2 16H14C15.1047 16 16 14.9788 16 13.7189V10.8507C16 10.4825 15.9625 10.1154 15.8844 9.75897ZM3.39375 1.74293H12.6094L14.2094 9.15661H11.5C11.2158 9.15661 10.9559 9.33927 10.8291 9.62994L10.0375 11.4377H5.9625L5.17188 9.63065C5.04375 9.33838 4.78438 9.15661 4.5 9.15661H1.79125L3.39375 1.74293ZM14.5 13.7189C14.5 14.0333 14.2757 14.2892 14 14.2892H2C1.72431 14.2892 1.5 14.0333 1.5 13.7189V10.8675H4.03625L4.82937 12.6753C4.95625 12.9668 5.21562 13.1486 5.5 13.1486H10.5C10.7842 13.1486 11.0441 12.9659 11.1709 12.6753L11.9625 10.8675H14.5V13.7189Z"/></svg>