<svg data-name="Layer 1" xmlns="http://www.w3.org/2000/svg" viewBox="0 0 32 32"><path d="M27.81 2.4H4.18A4.19 4.19 0 000 6.58v18.84a4.19 4.19 0 004.18 4.18h23.64A4.19 4.19 0 0032 25.42V6.58a4.2 4.2 0 00-4.19-4.18zm.63 23a.63.63 0 01-.62.62H4.18a.63.63 0 01-.62-.62V6.58A.63.63 0 014.18 6h23.64a.63.63 0 01.62.62zM12.26 11.2a1.33 1.33 0 000-2.66h-1.33a2.39 2.39 0 00-1.07.25 2.37 2.37 0 00-1.06-.26H7.46a1.33 1.33 0 000 2.66h1.07v9.6H7.46a1.33 1.33 0 100 2.66H8.8a2.37 2.37 0 001.07-.25 2.36 2.36 0 001.07.25h1.33a1.33 1.33 0 100-2.66H11.2V11.2z"/></svg>