<svg viewBox="0 0 16 16" xmlns="http://www.w3.org/2000/svg"><g clip-path="url(#clip0_335_96)"><path d="M3.76511 2.89903C4.87191 1.82091 6.29101 0.999984 7.99493 0.999984C10.0136 0.999984 11.6301 2.15122 12.8069 3.51871C13.9761 4.87494 14.7581 6.4718 15.1279 7.61554C15.2104 7.86241 15.2104 8.13741 15.1279 8.38428C14.7931 9.39364 14.121 10.8155 13.1317 12.0842L15.76 14.6592C16.0198 14.9155 16.0673 15.3873 15.8624 15.7123C15.6576 16.0373 15.2803 16.0967 15.0205 15.8405L0.22975 1.34029C-0.0308849 1.08467 -0.076581 0.613425 0.127715 0.287366C0.332035 -0.0386302 0.708796 -0.0957859 0.969631 0.159743L3.76511 2.89903ZM4.74199 3.85933L5.89126 4.98432C6.4534 4.37182 7.19044 3.99995 7.99493 3.99995C9.76131 3.99995 11.1929 5.79056 11.1929 7.99991C11.1929 8.6624 11.0655 9.28427 10.8381 9.83427L12.1823 11.153C13.0192 10.0874 13.6388 8.84678 13.9561 7.99991C13.5939 7.03429 12.9518 5.73431 11.9899 4.61557C10.963 3.42496 9.62389 2.47184 7.99493 2.47184C6.73323 2.47184 5.62393 3.05402 4.74199 3.85933ZM9.86624 8.88115C9.94869 8.60615 9.99366 8.30928 9.99366 7.97178C9.99366 6.61867 9.09923 5.47181 7.99493 5.47181C7.97744 5.47181 7.96245 5.49994 7.92247 5.49994C7.97744 5.65931 7.99493 5.82806 7.99493 5.97181C7.99493 6.31868 7.93497 6.61867 7.83003 6.8843L9.86624 8.88115ZM10.1011 12.953L11.1479 13.9842C10.241 14.5967 9.18917 14.9998 7.99493 14.9998C5.97621 14.9998 4.35973 13.8498 3.18298 12.4811C2.01422 11.0968 1.23271 9.49989 0.86095 8.38428C0.779002 8.13741 0.779002 7.86241 0.86095 7.61554C1.0993 6.89992 1.50629 5.97493 2.07593 5.04682L3.01808 5.97493C2.55088 6.70305 2.24257 7.42492 2.03496 7.97178C2.37399 8.9374 3.03807 10.2655 3.99996 11.3842C5.02681 12.5749 6.36596 13.4999 7.99493 13.4999C8.76194 13.4999 9.464 13.2936 10.1011 12.953ZM4.79695 7.97178C4.79695 7.90929 4.79945 7.82179 4.80445 7.73429L6.20606 9.11552C6.46839 9.77489 6.95808 10.2686 7.54521 10.4093L8.94932 11.8186C8.64701 11.9092 8.32722 11.9999 7.97244 11.9999C6.22855 11.9999 4.77447 10.2093 4.77447 7.97178H4.79695Z"/></g><defs><clipPath><rect/></clipPath></defs></svg>