<svg viewBox="0 0 16 16" xmlns="http://www.w3.org/2000/svg"><g clip-path="url(#clip0)"><path d="M10.5399 8.18994C10.4499 9.42994 9.43994 10.4399 8.19994 10.5299C7.78994 10.5599 7.47994 10.9199 7.50994 11.3299C7.53994 11.7199 7.86994 12.0199 8.25994 12.0199C8.27994 12.0199 8.29994 12.0199 8.31994 12.0199C10.2899 11.8699 11.8899 10.2699 12.0399 8.29994C12.0699 7.88994 11.7599 7.52994 11.3499 7.49994C10.9299 7.46994 10.5699 7.77994 10.5399 8.18994Z"/><path d="M14.8199 4.89994C14.5899 4.55994 14.1199 4.47994 13.7799 4.70994C13.4399 4.94994 13.3599 5.40994 13.5899 5.74994C13.8999 6.18994 14.1499 6.66994 14.3399 7.16994C14.5399 7.68994 14.5399 8.28994 14.3399 8.81994C13.3099 11.4699 10.8199 13.1799 7.97994 13.1799C7.33994 13.1799 6.70994 13.0899 6.09994 12.9199C5.69994 12.7999 5.28994 13.0399 5.16994 13.4299C5.04994 13.8199 5.28994 14.2399 5.67994 14.3599C6.41994 14.5699 7.18994 14.6799 7.97994 14.6799C11.4399 14.6799 14.4899 12.5899 15.7399 9.36994C16.0799 8.49994 16.0799 7.50994 15.7399 6.63994C15.5099 6.01994 15.1999 5.43994 14.8199 4.89994Z"/><path d="M15.7799 0.219941C15.4899 -0.0700586 15.0099 -0.0700586 14.7199 0.219941L12.3499 2.58994C11.0399 1.76994 9.54994 1.31994 7.98994 1.31994C4.64994 1.31994 1.64994 3.29994 0.339941 6.36994C-0.100059 7.40994 -0.100059 8.58994 0.339941 9.62994C0.809941 10.7399 1.52994 11.7199 2.41994 12.5199L0.219941 14.7199C-0.0700586 15.0099 -0.0700586 15.4899 0.219941 15.7799C0.369941 15.9299 0.559941 15.9999 0.749941 15.9999C0.939941 15.9999 1.12994 15.9299 1.27994 15.7799L15.7799 1.27994C16.0699 0.989941 16.0699 0.509941 15.7799 0.219941ZM1.70994 9.03994C1.42994 8.37994 1.42994 7.61994 1.70994 6.95994C2.78994 4.43994 5.24994 2.81994 7.97994 2.81994C9.13994 2.81994 10.2599 3.11994 11.2599 3.66994L10.2699 4.65994C9.14994 3.90994 7.66994 3.73994 6.40994 4.27994C6.02994 4.43994 5.84994 4.87994 6.01994 5.25994C6.17994 5.64994 6.61994 5.81994 6.99994 5.65994C7.69994 5.35994 8.50994 5.40994 9.17994 5.74994L5.75994 9.17994C5.56994 8.81994 5.45994 8.41994 5.45994 7.99994C5.45994 7.64994 5.52994 7.31994 5.65994 6.99994C5.81994 6.61994 5.64994 6.17994 5.26994 6.01994C4.88994 5.84994 4.43994 6.02994 4.27994 6.40994C4.06994 6.90994 3.95994 7.44994 3.95994 7.99994C3.95994 8.81994 4.20994 9.60994 4.66994 10.2799L3.48994 11.4599C2.71994 10.7899 2.10994 9.96994 1.70994 9.03994Z"/></g><defs><clipPath><rect/></clipPath></defs></svg>