<svg viewBox="0 0 16 16" xmlns="http://www.w3.org/2000/svg"><path d="M4.44186 7.68C4.44186 5.57163 6.0326 3.86286 7.99535 3.86286C9.95809 3.86286 11.5488 5.57163 11.5488 7.68C11.5488 9.78837 9.95809 11.4971 7.99535 11.4971C6.0326 11.4971 4.44186 9.78837 4.44186 7.68ZM7.99535 10.0657C9.22241 10.0657 10.2163 8.99811 10.2163 7.68C10.2163 6.36189 9.22241 5.29429 7.99535 5.29429C7.97592 5.29429 7.95926 5.29429 7.91484 5.29429C7.97592 5.44638 7.99535 5.60741 7.99535 5.77143C7.99535 6.82413 7.19859 7.68 6.2186 7.68C6.06592 7.68 5.916 7.65913 5.77442 7.59352C5.77442 7.64123 5.77442 7.65913 5.77442 7.65316C5.77442 8.99811 6.76828 10.0657 7.99535 10.0657ZM2.64902 3.40361C3.95603 2.09862 5.75221 1 7.99535 1C10.2385 1 12.0347 2.09862 13.3422 3.40361C14.6415 4.69786 15.5104 6.22173 15.9213 7.3132C16.0129 7.54879 16.0129 7.81121 15.9213 8.0468C15.5104 9.11143 14.6415 10.6353 13.3422 11.9564C12.0347 13.2626 10.2385 14.36 7.99535 14.36C5.75221 14.36 3.95603 13.2626 2.64902 11.9564C1.34977 10.6353 0.48139 9.11143 0.0683248 8.0468C-0.0227749 7.81121 -0.0227749 7.54879 0.0683248 7.3132C0.48139 6.22173 1.34977 4.69786 2.64902 3.40361ZM7.99535 2.43143C6.18529 2.43143 4.69727 3.31414 3.55627 4.45034C2.48744 5.51795 1.74954 6.75852 1.37254 7.68C1.74954 8.57464 2.48744 9.84205 3.55627 10.9097C4.69727 12.0459 6.18529 12.9286 7.99535 12.9286C9.80541 12.9286 11.2934 12.0459 12.4344 10.9097C13.5033 9.84205 14.2167 8.57464 14.6193 7.68C14.2167 6.75852 13.5033 5.51795 12.4344 4.45034C11.2934 3.31414 9.80541 2.43143 7.99535 2.43143Z"/></svg>