<svg viewBox="0 0 16 16" xmlns="http://www.w3.org/2000/svg"><g clip-path="url(#clip0)"><path d="M7.99977 12.0399C5.76977 12.0399 3.95977 10.2299 3.95977 7.99995C3.95977 7.44995 4.06977 6.91995 4.27977 6.40995C4.43977 6.02995 4.87977 5.84995 5.25977 6.00995C5.63977 6.17995 5.81977 6.61995 5.65977 6.99995C5.51977 7.31995 5.45977 7.64995 5.45977 7.99995C5.45977 9.39995 6.59977 10.5399 7.99977 10.5399C9.39977 10.5399 10.5398 9.39995 10.5398 7.99995C10.5398 6.59995 9.39977 5.45995 7.99977 5.45995C7.64977 5.45995 7.31977 5.52995 6.99977 5.65995C6.61977 5.81995 6.17977 5.63995 6.01977 5.25995C5.84977 4.87995 6.02977 4.43995 6.40977 4.27995C6.90977 4.05995 7.44977 3.95995 7.99977 3.95995C10.2298 3.95995 12.0398 5.76995 12.0398 7.99995C12.0398 10.2299 10.2298 12.0399 7.99977 12.0399Z"/><path d="M7.98977 14.6799C4.64977 14.6799 1.64977 12.6999 0.339766 9.62995C-0.100234 8.59995 -0.100234 7.40995 0.339766 6.36995C1.64977 3.29995 4.64977 1.31995 7.98977 1.31995C11.4498 1.31995 14.4998 3.40995 15.7498 6.62995C16.0898 7.49995 16.0898 8.48995 15.7498 9.35995C14.4898 12.5899 11.4498 14.6799 7.98977 14.6799ZM7.98977 2.81995C5.25977 2.81995 2.78977 4.44995 1.71977 6.95995C1.43977 7.61995 1.43977 8.37995 1.71977 9.03995C2.79977 11.5599 5.25977 13.1799 7.98977 13.1799C10.8298 13.1799 13.3198 11.4699 14.3498 8.81995C14.5498 8.29995 14.5498 7.69995 14.3498 7.16995C13.3198 4.52995 10.8198 2.81995 7.98977 2.81995Z"/></g><defs><clipPath><rect/></clipPath></defs></svg>