<svg xmlns="http://www.w3.org/2000/svg" viewBox="0 0 16 16"><path d="M8 6.476A1.522 1.522 0 1 0 9.524 8 1.531 1.531 0 0 0 8 6.476zM14 1H2a.945.945 0 0 0-1 1v12a.945.945 0 0 0 1 1h12a.945.945 0 0 0 1-1V2a.945.945 0 0 0-1-1zm-1.547 8.935a2.468 2.468 0 0 1-1.1 2.107 2.82 2.82 0 0 1-1.441.409 40.194 40.194 0 0 1-3.787.008 2.643 2.643 0 0 1-1.925-.786 2.641 2.641 0 0 1-.656-1.745q-.1-1.965 0-3.93a2.439 2.439 0 0 1 2.5-2.453c.648-.024 1.3-.06 1.855-.038a17.794 17.794 0 0 1 2.319.07 2.394 2.394 0 0 1 2.231 2.449q.097 1.954.004 3.909zm-2.446-5.6A27.094 27.094 0 0 0 6 4.337 1.57 1.57 0 0 0 4.334 6a26.04 26.04 0 0 0 0 4.028 1.564 1.564 0 0 0 1.612 1.628c.684.069 1.377.054 2.066.076.615.008 1.228-.029 1.842-.046a1.657 1.657 0 0 0 1.818-1.675 26.287 26.287 0 0 0 0-4.008 1.576 1.576 0 0 0-1.665-1.668zm-2 5.95A2.288 2.288 0 1 1 10.289 8 2.276 2.276 0 0 1 8 10.285zm2.4-4.18a.515.515 0 1 1 .015-1.03.521.521 0 0 1 .5.515.506.506 0 0 1-.517.515z"/></svg>