<svg data-name="Layer 1" xmlns="http://www.w3.org/2000/svg" viewBox="0 0 32 32"><path d="M12.41 17.6a6.36 6.36 0 006.34-6.4V9.49a6 6 0 00-6-5.9h-1a5.73 5.73 0 00-5.68 5.9v1.71a6.36 6.36 0 006.34 6.4zM8.28 9.49a3.52 3.52 0 013.48-3.7h1a3.79 3.79 0 013.81 3.7v1.71a4.14 4.14 0 11-8.28 0zm7 9.71h-.22c-.06 0-.06 0-.11.06a6.35 6.35 0 01-5.3 0H9.6a.19.19 0 01-.11-.06h-.27c-4.14 0-7 2.65-7 6.29v1.88a1.06 1.06 0 001.1 1h17.87a.93.93 0 00.94-1v-1.88c-.06-3.64-2.87-6.29-6.84-6.29zm4.58 7H4.41v-.72c0-2.37 1.82-4 4.47-4.08a8.65 8.65 0 003.31.66 8.18 8.18 0 003.26-.66c2.65.06 4.41 1.71 4.41 4.08zM28.08 5a1.1 1.1 0 00-1.77 1.32 7.14 7.14 0 01.39 7.5 1.11 1.11 0 00.5 1.49 1.62 1.62 0 00.5.11 1.16 1.16 0 001-.61A9.33 9.33 0 0028.08 5zm-5.85 1.68A1.08 1.08 0 0022 8.22a4.83 4.83 0 01.17 4.52 1.11 1.11 0 00.5 1.49 1.62 1.62 0 00.5.11 1.16 1.16 0 001-.61A7 7 0 0023.78 7a1 1 0 00-1.55-.28z"/></svg>