<svg xmlns="http://www.w3.org/2000/svg" viewBox="0 0 17.774 14.928"><path d="M4.736 5.138c.23.074.263 1.194.841 1.988.454.617 1.1 1.4 1.829 1.517a3.67 3.67 0 00.629 0 3.448 3.448 0 001.829-1.517c.582-.794.611-1.914.842-1.988.273-.087.428-.812.428-1.646 0-.162-.325-.388-.355-.533v-.011A3.271 3.271 0 007.761 0h-.079a3.271 3.271 0 00-3.021 2.953v.012c-.029.145-.352.371-.352.533 0 .834.153 1.558.427 1.64zm9.616 6.758c-.4-.379-2.568-.849-4.117-1.987a3.324 3.324 0 01-.6-1.008l-1.914 1.318-1.915-1.316a3.3 3.3 0 01-.6 1.007c-1.549 1.138-3.724 1.607-4.117 1.987A5.238 5.238 0 000 14.928h15.441a5.233 5.233 0 00-1.089-3.032zm-1.426-5.822a.53.53 0 11-.794-.7.23.23 0 00.057-.152.229.229 0 00-.048-.141.529.529 0 11.833-.652 1.29 1.29 0 01.272.792 1.291 1.291 0 01-.32.853zm1.553 1.578a.53.53 0 11-.763-.734 2.439 2.439 0 00.681-1.7 2.437 2.437 0 00-.667-1.676.53.53 0 11.77-.728 3.5 3.5 0 01.957 2.409 3.5 3.5 0 01-.978 2.429zM16.116 9.3a.529.529 0 11-.757-.739 4.759 4.759 0 001.357-3.34A4.762 4.762 0 0015.375 1.9a.53.53 0 01.76-.739 5.817 5.817 0 011.639 4.061A5.812 5.812 0 0116.116 9.3z"/></svg>