<svg data-name="Layer 1" xmlns="http://www.w3.org/2000/svg" viewBox="0 0 32 32"><path d="M12.55 16.33a6.36 6.36 0 006.35-6.4V8.22a6 6 0 00-6-5.9h-1a5.73 5.73 0 00-5.68 5.9v1.71a6.36 6.36 0 006.33 6.4zM8.41 8.22a3.52 3.52 0 013.48-3.7h1a3.79 3.79 0 013.81 3.7v1.71a4.14 4.14 0 11-8.28 0zm11.59 16v.72h-7.39l-3.26 2.2h12a.93.93 0 00.94-1v-1.92a6.28 6.28 0 00-2-4.52L18.35 21A3.9 3.9 0 0120 24.22zM9 20.14c.17.06.39.17.55.22l2.65-1.77A6.23 6.23 0 019.79 18h-.05a.19.19 0 01-.11 0h-.28c-4.14 0-7 2.65-7 6.29v1l2.21-1.55c.28-2.15 2-3.59 4.47-3.64zM29.66 7.28h.11a8.44 8.44 0 00-1.55-3.53 1.1 1.1 0 00-1.77 1.32 6.46 6.46 0 011.21 3l.28-.22a3.15 3.15 0 011.71-.55zm-5.74-1.6a1 1 0 00-1.55-.28 1.08 1.08 0 00-.22 1.6 4.83 4.83 0 01.17 4.52c-.06.11-.06.17-.11.28L25 9.88a6.23 6.23 0 00-1-4.19zm6.56 3.59a1.14 1.14 0 00-.55-.33 1.09 1.09 0 00-1 .22l-1.32.84-3.25 2.21-1.16.79-7.2 4.93-4.14 2.81-6.09 4.14-3 2-1.16.83a1.12 1.12 0 00-.11 1.55 1 1 0 00.83.39 1.16 1.16 0 00.72-.28l3.31-2.26 3.26-2.21 17.11-11.6 2.92-1.93.72-.5a1.19 1.19 0 00.11-1.6z"/></svg>