<svg viewBox="0 0 16 16" xmlns="http://www.w3.org/2000/svg"><path d="M15.2 4.87475C15.9497 3.04426 16 1.52117 15.096 0.611722C14.096 -0.404444 11.6961 -0.099362 9.15324 1.11865H8.85153C7.06974 1.11091 5.34579 1.76014 4.00017 2.94566C2.89228 3.95788 2.10885 5.28403 1.75106 6.7528C2.67359 5.61676 3.7712 4.63978 5.0013 3.85974C5.15609 3.78611 5.30544 3.70121 5.44815 3.6057C5.39787 3.6057 4.64816 4.36782 4.50074 4.51979C1.00365 8.17381 -1.04661 13.707 0.549937 15.3287C1.60021 16.3948 3.50075 16.1407 5.70186 14.9227C6.69041 15.3774 7.76643 15.6025 8.85153 15.5816C10.3075 15.5998 11.7355 15.1756 12.952 14.3636C14.2047 13.5058 15.1517 12.2611 15.6526 10.814H11.7521C11.4596 11.3152 11.0422 11.7292 10.5417 12.0144C10.0413 12.2995 9.47565 12.4456 8.90182 12.438C8.09321 12.433 7.31694 12.115 6.73141 11.549C6.14589 10.9829 5.79523 10.2114 5.751 9.39181V9.23753H15.9497V9.08441C15.9497 8.83153 16 8.52645 16 8.32345C15.9917 7.12751 15.7183 5.9488 15.2 4.87475ZM1.65049 15.0236C0.850504 14.2116 1.10079 12.6375 2.05049 10.7629C2.47944 12.0016 3.22107 13.1044 4.20131 13.9611C4.51482 14.2256 4.84928 14.4634 5.2013 14.6722C3.60132 15.5317 2.30077 15.6872 1.65049 15.0236ZM12.0503 7.31192H5.80472V7.26088C5.89319 6.45021 6.27357 5.70129 6.87282 5.1579C7.47208 4.61452 8.24797 4.31497 9.05153 4.31678C9.82889 4.32124 10.5746 4.62973 11.1336 5.17809C11.6926 5.72645 12.0218 6.47245 12.0526 7.26088L12.0503 7.31192ZM13.8 3.04774C13.1043 2.38773 12.2893 1.87053 11.4001 1.52465C13 0.763683 14.3475 0.659282 15.0503 1.37269C15.6011 2.03273 15.5509 3.14866 14.9509 4.46875C14.6391 3.9402 14.2521 3.46135 13.8023 3.04774H13.8Z"/></svg>