<svg viewBox="0 0 16 16" xmlns="http://www.w3.org/2000/svg"><path d="M15.0953 4.99082C15.4345 4.22286 15.7648 3.10214 15.7648 2.24486C15.7648 -0.0277073 13.276 -0.829239 9.21251 1.03932C5.849 0.814918 2.61185 3.34151 1.80319 6.86611C2.76731 5.77667 4.24916 4.29429 5.61497 3.70492C3.91888 5.21407 2.47275 7.12507 1.37475 9.11642C0.726438 10.3016 0 12.2169 0 13.6484C0 16.7288 2.90169 16.3515 5.63285 14.961C6.61482 15.4432 7.71282 15.4477 8.81082 15.4477C11.8459 15.4477 14.5686 13.751 15.5863 10.8845H11.8102C10.1693 13.653 5.65963 12.5406 5.65963 9.40214H15.9344C16.1346 8.04023 15.8827 6.41104 15.0953 4.99082V4.99082ZM2.01747 10.8399C2.57094 12.4384 3.69569 13.8359 5.15078 14.6932C2.37763 16.2225 -0.263813 15.6024 2.01747 10.8399V10.8399ZM5.64175 7.43764C5.70425 5.71417 7.21288 4.47292 8.89113 4.47292C10.5604 4.47292 12.078 5.71417 12.1405 7.43764H5.64175ZM11.4085 1.57514C12.078 1.25367 12.9261 0.887543 13.6759 0.887543C14.6579 0.887543 15.372 1.5662 15.372 2.56636C15.372 3.19145 15.1399 4.09782 14.9167 4.6872C14.0955 3.36557 12.8547 2.1377 11.4085 1.57514V1.57514Z"/></svg>