<svg viewBox="0 0 16 16" xmlns="http://www.w3.org/2000/svg"><path d="M4.05 16H0.75C0.34 16 0 15.66 0 15.25V11.96C0 11.76 0.08 11.57 0.22 11.43L4.15 7.5C4.02 7 3.96 6.51 3.96 6.02C3.96 2.7 6.66 0 9.98 0C13.3 0 16 2.7 16 6.02C16 9.34 13.3 12.04 9.98 12.04C9.42 12.04 8.86 11.96 8.32 11.81C7.92 11.7 7.69 11.28 7.81 10.88C7.92 10.48 8.34 10.25 8.74 10.36C9.14 10.48 9.56 10.53 9.99 10.53C12.48 10.53 14.51 8.5 14.51 6.01C14.51 3.52 12.47 1.5 9.98 1.5C7.49 1.5 5.46 3.53 5.46 6.02C5.46 6.49 5.54 6.98 5.71 7.47C5.8 7.74 5.73 8.04 5.53 8.24L1.5 12.26V14.49H3.3V13.26C3.3 12.85 3.64 12.51 4.05 12.51H5.28V11.08C5.28 10.67 5.62 10.33 6.03 10.33C6.44 10.33 6.78 10.67 6.78 11.08V13.26C6.78 13.67 6.44 14.01 6.03 14.01H4.8V15.24C4.8 15.66 4.46 16 4.05 16Z"/><path d="M11.62 5.38C12.1723 5.38 12.62 4.93228 12.62 4.38C12.62 3.82772 12.1723 3.38 11.62 3.38C11.0677 3.38 10.62 3.82772 10.62 4.38C10.62 4.93228 11.0677 5.38 11.62 5.38Z"/></svg>