<svg viewBox="0 0 17 16" xmlns="http://www.w3.org/2000/svg"><path d="M6.00312 14.198C6.00312 14.3948 6.05988 14.5868 6.16825 14.7508L6.70388 15.5537C6.86794 15.7998 7.24044 16 7.53638 16H9.46356C9.7585 16 10.1311 15.8 10.2951 15.5537L10.8289 14.7512C10.9207 14.6125 10.996 14.3646 10.996 14.198L11 12.9729H6L6.00312 14.198ZM8.5 0C5.31312 0.0100102 3 2.59302 3 5.4723C3 6.85929 3.51375 8.12376 4.36125 9.09134C4.87781 9.68013 5.68437 10.9112 5.99312 11.9494C5.9941 11.9572 5.99606 11.9655 5.99703 11.9738H11.0033C11.0043 11.9655 11.0062 11.9577 11.0072 11.9494C11.3158 10.9112 12.1225 9.68013 12.6391 9.09134C13.4875 8.15064 14 6.88804 14 5.4723C14 2.46269 11.5375 0.000121885 8.5 0ZM11.5125 8.12876C11.0231 8.68662 10.4175 9.57575 9.97969 10.5005H7.02313C6.58531 9.57575 5.97969 8.68662 5.49062 8.12907C4.85125 7.40058 4.5 6.44113 4.5 5.4723C4.5 3.5409 6.00313 1.50793 8.47188 1.50012C10.7063 1.50012 12.5 3.29401 12.5 5.4723C12.5 6.44113 12.15 7.40058 11.5125 8.12876ZM8 2.5002C6.62188 2.5002 5.5 3.62216 5.5 5.00039C5.5 5.27679 5.72363 5.50043 6 5.50043C6.27637 5.50043 6.5 5.27541 6.5 5.00039C6.5 4.17314 7.17281 3.50027 8 3.50027C8.27637 3.50027 8.5 3.27688 8.5 3.00055C8.5 2.72421 8.275 2.5002 8 2.5002Z"/></svg>