<svg viewBox="0 0 16 16" xmlns="http://www.w3.org/2000/svg"><path d="M5.00312 14.198C5.00312 14.3948 5.05988 14.5868 5.16825 14.7508L5.70388 15.5537C5.86794 15.7998 6.24044 16 6.53638 16H8.46356C8.7585 16 9.13106 15.8 9.29513 15.5537L9.82887 14.7512C9.92069 14.6125 9.996 14.3646 9.996 14.198L10 12.9729H5L5.00312 14.198ZM7.5 0C4.31312 0.0100102 2 2.59302 2 5.4723C2 6.85929 2.51375 8.12376 3.36125 9.09134C3.87781 9.68013 4.68438 10.9112 4.99312 11.9494C4.9941 11.9572 4.99606 11.9655 4.99703 11.9738H10.0033C10.0043 11.9655 10.0062 11.9577 10.0072 11.9494C10.3158 10.9112 11.1225 9.68013 11.6391 9.09134C12.4875 8.15064 13 6.88804 13 5.4723C13 2.46269 10.5375 0.000121885 7.5 0ZM10.5125 8.12876C10.0231 8.68662 9.4175 9.57575 8.97969 10.5005H6.02313C5.58531 9.57575 4.97969 8.68662 4.49062 8.12907C3.85125 7.40058 3.5 6.44113 3.5 5.4723C3.5 3.5409 5.00313 1.50793 7.47188 1.50012C9.70625 1.50012 11.5 3.29401 11.5 5.4723C11.5 6.44113 11.15 7.40058 10.5125 8.12876ZM7 2.5002C5.62188 2.5002 4.5 3.62216 4.5 5.00039C4.5 5.27679 4.72362 5.50043 5 5.50043C5.27638 5.50043 5.5 5.27541 5.5 5.00039C5.5 4.17314 6.17281 3.50027 7 3.50027C7.27637 3.50027 7.5 3.27688 7.5 3.00055C7.5 2.72421 7.275 2.5002 7 2.5002Z"/></svg>