<svg viewBox="0 0 16 16" xmlns="http://www.w3.org/2000/svg"><path d="M16 6.87C16 3.29 12.42 0.369995 8 0.369995C3.58 0.369995 0 3.28 0 6.87C0 10.08 2.85 12.77 6.69 13.28C6.95 13.34 7.31 13.45 7.4 13.68C7.48 13.88 7.46 14.2 7.43 14.4L7.31 15.09C7.28 15.29 7.15 15.88 8 15.52C8.85 15.16 12.61 12.8 14.29 10.88C15.45 9.59 16 8.29999 16 6.87ZM5.18 8.77999C5.18 8.85999 5.11 8.93 5.03 8.93H2.78C2.74 8.93 2.7 8.92 2.67 8.89C2.67 8.89 2.67 8.89 2.66 8.88C2.63 8.85999 2.62 8.81999 2.62 8.77999V5.3C2.62 5.22 2.69 5.15 2.77 5.15H3.33C3.41 5.15 3.48 5.22 3.48 5.3V8.06999H5.01C5.09 8.06999 5.16 8.14 5.16 8.22V8.79H5.18V8.77999ZM6.53 8.77999C6.53 8.85999 6.46 8.93 6.38 8.93H5.81C5.73 8.93 5.66 8.85999 5.66 8.77999V5.3C5.66 5.22 5.73 5.15 5.81 5.15H6.37C6.45 5.15 6.52 5.22 6.52 5.3L6.53 8.77999ZM10.39 8.77999C10.39 8.85999 10.32 8.93 10.24 8.93H9.68C9.67 8.93 9.65 8.93 9.64 8.92H9.62C9.62 8.92 9.61 8.92 9.61 8.91C9.61 8.91 9.6 8.91 9.6 8.89999C9.6 8.89999 9.6 8.89999 9.59 8.89999L9.58 8.89C9.57 8.89 9.56 8.88 9.55 8.85999L7.94 6.7V8.77C7.94 8.85 7.87 8.92 7.78 8.92H7.22C7.14 8.92 7.07 8.85 7.07 8.77V5.3C7.07 5.22 7.14 5.15 7.22 5.15H7.85C7.85 5.15 7.85 5.15 7.86 5.15C7.86 5.15 7.87 5.14999 7.87 5.16H7.88L7.89 5.17H7.9L7.91 5.18C7.91 5.18 7.91 5.18 7.92 5.18L7.9 5.17V5.18C7.91 5.19 7.91 5.19 7.91 5.19L9.51 7.35V5.3C9.51 5.22 9.58 5.15 9.67 5.15H10.23C10.31 5.15 10.38 5.22 10.38 5.3L10.39 8.77999ZM13.49 5.86C13.49 5.94 13.42 6.01 13.34 6.01H11.81V6.6H13.34C13.42 6.6 13.49 6.67 13.49 6.76V7.32C13.49 7.4 13.42 7.47 13.34 7.47H11.81V8.06H13.34C13.42 8.06 13.49 8.13 13.49 8.21V8.77C13.49 8.85 13.42 8.92 13.34 8.92H11.09C11.05 8.92 11.01 8.91 10.98 8.88L10.97 8.87C10.94 8.84 10.93 8.8 10.93 8.76V5.3C10.93 5.26 10.94 5.22 10.97 5.19C10.97 5.19 10.97 5.19 10.98 5.18C11.01 5.14999 11.05 5.14 11.09 5.14H13.34C13.42 5.14 13.49 5.21 13.49 5.29V5.86Z"/></svg>