<svg viewBox="0 0 16 16" xmlns="http://www.w3.org/2000/svg"><path d="M9.71786 6.15V8.68928C9.71786 8.75357 9.66785 8.80357 9.60357 8.80357H9.19643C9.15714 8.80357 9.12143 8.78214 9.10357 8.75714L7.93929 7.18571V8.69286C7.93929 8.75714 7.88929 8.80714 7.825 8.80714H7.41786C7.35357 8.80714 7.30357 8.75714 7.30357 8.69286V6.15357C7.30357 6.08929 7.35357 6.03929 7.41786 6.03929H7.82143C7.85714 6.03929 7.89643 6.05714 7.91429 6.08929L9.07857 7.66071V6.15357C9.07857 6.08929 9.12857 6.03929 9.19286 6.03929H9.6C9.66428 6.03572 9.71786 6.08929 9.71786 6.15V6.15ZM6.78929 6.03572H6.38214C6.31786 6.03572 6.26786 6.08572 6.26786 6.15V8.68928C6.26786 8.75357 6.31786 8.80357 6.38214 8.80357H6.78929C6.85357 8.80357 6.90357 8.75357 6.90357 8.68928V6.15C6.90357 6.08929 6.85357 6.03572 6.78929 6.03572V6.03572ZM5.80714 8.16429H4.69643V6.15C4.69643 6.08572 4.64643 6.03572 4.58215 6.03572H4.175C4.11072 6.03572 4.06072 6.08572 4.06072 6.15V8.68928C4.06072 8.72143 4.07143 8.74643 4.09286 8.76786C4.11429 8.78571 4.13929 8.8 4.17143 8.8H5.80357C5.86786 8.8 5.91786 8.75 5.91786 8.68571V8.27857C5.91786 8.21786 5.86786 8.16429 5.80714 8.16429V8.16429ZM11.8607 6.03572H10.2286C10.1679 6.03572 10.1143 6.08572 10.1143 6.15V8.68928C10.1143 8.75 10.1643 8.80357 10.2286 8.80357H11.8607C11.925 8.80357 11.975 8.75357 11.975 8.68928V8.28214C11.975 8.21786 11.925 8.16786 11.8607 8.16786H10.75V7.73929H11.8607C11.925 7.73929 11.975 7.68929 11.975 7.625V7.21429C11.975 7.15 11.925 7.1 11.8607 7.1H10.75V6.67143H11.8607C11.925 6.67143 11.975 6.62143 11.975 6.55714V6.15C11.9714 6.08929 11.9214 6.03572 11.8607 6.03572V6.03572ZM16 2.91786V13.1071C15.9964 14.7071 14.6857 16.0036 13.0821 16H2.89286C1.29286 15.9964 -0.00356406 14.6821 7.36129e-06 13.0821V2.89286C0.00357879 1.29286 1.31786 -0.00356406 2.91786 7.36129e-06H13.1071C14.7071 0.00357879 16.0036 1.31429 16 2.91786ZM13.8 7.29643C13.8 4.68929 11.1857 2.56786 7.975 2.56786C4.76429 2.56786 2.15001 4.68929 2.15001 7.29643C2.15001 9.63214 4.22143 11.5893 7.02143 11.9607C7.70357 12.1071 7.625 12.3571 7.47143 13.275C7.44643 13.4214 7.35357 13.85 7.975 13.5893C8.59643 13.3286 11.3286 11.6143 12.5536 10.2071C13.3964 9.27857 13.8 8.33929 13.8 7.29643Z"/></svg>