<svg xmlns="http://www.w3.org/2000/svg" viewBox="0 0 16 16"><path d="M9.031 6.336h-.02a.234.234 0 00-.234.234v1.02L7.93 6.454a.232.232 0 00-.203-.118h-.02a.234.234 0 00-.234.234v1.738c0 .129.105.234.234.234h.02a.234.234 0 00.234-.234V7.269l.853 1.165.018.024a.19.19 0 00.091.067.236.236 0 00.089.018c.127 0 .254-.034.254-.234V6.57a.235.235 0 00-.235-.234zM6.299 8.052h-.652V6.568a.234.234 0 00-.234-.234h-.02a.234.234 0 00-.234.234v1.738c0 .129.105.234.234.234h.906a.234.234 0 00.234-.234v-.02a.234.234 0 00-.234-.234zm.677-1.719h-.02a.234.234 0 00-.234.234v1.738c0 .129.105.234.234.234h.02a.234.234 0 00.234-.234V6.568a.235.235 0 00-.234-.235zm3.798.004h-.906a.234.234 0 00-.234.234V8.31c0 .129.105.234.234.234h.906a.234.234 0 00.234-.234v-.02a.234.234 0 00-.234-.234h-.652v-.371h.652a.234.234 0 00.234-.234v-.02a.234.234 0 00-.234-.234h-.652v-.371h.652a.234.234 0 00.234-.234v-.02a.235.235 0 00-.234-.235zM14 1H2c-.6 0-1 .4-1 1v12c0 .6.4 1 1 1h12c.6 0 1-.4 1-1V2c0-.6-.4-1-1-1zm-2.177 8.285a1.014 1.014 0 01-.083.104l-.003.003a3.887 3.887 0 01-.489.488c-1.243 1.149-3.288 2.516-3.558 2.305-.235-.183.387-1.08-.33-1.23l-.149-.019H7.21c-2.105-.299-3.704-1.771-3.704-3.543 0-1.987 2.012-3.598 4.494-3.598s4.494 1.611 4.494 3.598c0 .694-.246 1.342-.671 1.892z"/></svg>