<svg xmlns="http://www.w3.org/2000/svg" viewBox="0 0 16 16"><path d="M14 1H2a.945.945 0 0 0-1 1v12a.945.945 0 0 0 1 1h12a.945.945 0 0 0 1-1V2a.945.945 0 0 0-1-1zM5.55 12.333c0 .094-.027.131-.125.131q-.814-.006-1.629 0c-.107 0-.128-.043-.127-.139v-5.69c0-.109.026-.147.141-.145.535.006 1.071 0 1.606 0 .1 0 .136.025.135.13q-.004 2.856-.001 5.713zM4.608 5.7A1.08 1.08 0 1 1 5.69 4.624 1.07 1.07 0 0 1 4.608 5.7zm7.709 6.769c-.524 0-1.048-.005-1.572 0-.118 0-.154-.036-.153-.153 0-.978.007-1.955 0-2.933a3.49 3.49 0 0 0-.077-.736A.763.763 0 0 0 9.7 8a1.649 1.649 0 0 0-.4.037.926.926 0 0 0-.687.834 3.409 3.409 0 0 0-.048.589c-.005.95 0 1.9 0 2.851 0 .152 0 .153-.156.153H6.838c-.116 0-.153-.032-.153-.151q.006-2.835 0-5.669c0-.151 0-.152.155-.152h1.513c.107 0 .143.029.14.138-.007.212 0 .426 0 .639a2.188 2.188 0 0 1 .752-.687 1.918 1.918 0 0 1 1.154-.229 4.793 4.793 0 0 1 .72.11 1.663 1.663 0 0 1 1.21 1.331 5.472 5.472 0 0 1 .141 1.125c.018 1.132 0 2.265.01 3.4-.01.118-.05.146-.163.145z"/></svg>