<svg viewBox="0 0 16 16" xmlns="http://www.w3.org/2000/svg"><g clip-path="url(#clip0_335_210)"><path d="M4.11173 3.75052C5.59826 1.83111 8.00792 1.83111 9.49445 3.75052C10.9096 5.57673 10.9863 8.50892 9.66638 10.4546L9.52619 10.6628C9.29343 11.0042 8.89402 11.0383 8.62951 10.7413C8.365 10.4444 8.33855 9.92552 8.56868 9.58417L8.71151 9.37595C9.58967 8.07882 9.53942 6.12631 8.59513 4.90769C7.60587 3.60032 6.00031 3.60032 4.98725 4.90769L2.01234 8.77517C1.02202 10.0552 1.02202 12.1272 2.01234 13.4039C2.95583 14.5918 4.47146 14.6873 5.47394 13.5541L5.63794 13.3697C5.8998 13.0728 6.30185 13.1069 6.53197 13.4482C6.76474 13.7862 6.73564 14.305 6.47378 14.602L6.30978 14.7863C4.80209 16.4862 2.52998 16.3907 1.1146 14.561C-0.371533 12.6461 -0.371533 9.50566 1.1146 7.618L4.11173 3.75052ZM11.8882 12.2501C10.4017 14.1685 7.99205 14.1685 6.50552 12.2501C5.0666 10.3932 5.0137 7.4917 6.33094 5.54601L6.45526 5.36168C6.68538 5.02033 7.08744 4.9862 7.35194 5.28317C7.61645 5.58015 7.6429 6.099 7.41278 6.44035L7.28846 6.62468C6.40765 7.9218 6.46055 9.87432 7.4022 11.0929C8.3941 12.3696 9.99966 12.3696 10.9916 11.0929L13.9884 7.22545C14.9777 5.94539 14.9777 3.8734 13.9884 2.59676C13.0441 1.37882 11.5285 1.31363 10.526 2.44827L10.362 2.63089C10.1002 2.92787 9.69812 2.89373 9.468 2.55375C9.23523 2.21342 9.26433 1.6956 9.52619 1.39794L9.69018 1.21498C11.1979 -0.4874 13.47 -0.389706 14.8851 1.43822C16.3716 3.35455 16.3716 6.46424 14.8851 8.38262L11.8882 12.2501Z"/></g><defs><clipPath><rect/></clipPath></defs></svg>