<svg viewBox="0 0 16 16" xmlns="http://www.w3.org/2000/svg"><path d="M10.25 12.25H7C6.59 12.25 6.25 11.91 6.25 11.5C6.25 11.09 6.58 10.75 7 10.75H10.25C10.53 10.75 10.75 10.53 10.75 10.25V2C10.75 1.72 10.53 1.5 10.25 1.5H2C1.72 1.5 1.5 1.72 1.5 2V10.25C1.5 10.53 1.72 10.75 2 10.75C2.41 10.75 2.75 11.09 2.75 11.5C2.75 11.91 2.41 12.25 2 12.25C0.9 12.25 0 11.35 0 10.25V2C0 0.9 0.9 0 2 0H10.25C11.35 0 12.25 0.9 12.25 2V10.25C12.25 11.35 11.35 12.25 10.25 12.25Z"/><path d="M14 16H5.75C4.65 16 3.75 15.1 3.75 14V5.75C3.75 4.65 4.65 3.75 5.75 3.75H9C9.41 3.75 9.75 4.09 9.75 4.5C9.75 4.91 9.42 5.25 9 5.25H5.75C5.47 5.25 5.25 5.47 5.25 5.75V14C5.25 14.28 5.47 14.5 5.75 14.5H14C14.28 14.5 14.5 14.28 14.5 14V5.75C14.5 5.47 14.28 5.25 14 5.25C13.59 5.25 13.25 4.91 13.25 4.5C13.25 4.09 13.59 3.75 14 3.75C15.1 3.75 16 4.65 16 5.75V14C16 15.1 15.1 16 14 16Z"/></svg>