<svg data-name="Layer 1" xmlns="http://www.w3.org/2000/svg" viewBox="0 0 32 32"><path d="M31 23.06a5 5 0 01-1.56 3.73l-2.7 2.68A5.08 5.08 0 0123 31a5 5 0 01-3.75-1.56l-3.79-3.8a5.08 5.08 0 01-1.53-3.73 5.16 5.16 0 011.62-3.84l-1.62-1.62a5.14 5.14 0 01-3.82 1.62 5.1 5.1 0 01-3.75-1.54l-3.82-3.84A5.11 5.11 0 011 8.94a5 5 0 011.56-3.73l2.7-2.68A5.07 5.07 0 019 1a5 5 0 013.75 1.56l3.79 3.81a5.08 5.08 0 011.53 3.73 5.17 5.17 0 01-1.62 3.84l1.62 1.62a5.33 5.33 0 017.57-.07l3.83 3.82A5.1 5.1 0 0131 23.06zm-16.45-13A1.71 1.71 0 0014 8.85L10.25 5A1.7 1.7 0 009 4.53 1.78 1.78 0 007.74 5L5 7.71a1.68 1.68 0 00-.51 1.23A1.7 1.7 0 005 10.19L8.87 14a1.68 1.68 0 001.25.5 1.78 1.78 0 001.32-.57l-.35-.34-.39-.39a4.29 4.29 0 01-.28-.35 1.41 1.41 0 01-.24-.47 1.87 1.87 0 01-.06-.5 1.76 1.76 0 011.76-1.76 1.89 1.89 0 01.51.06 1.47 1.47 0 01.47.24 4 4 0 01.35.28l.39.39.34.35a1.78 1.78 0 00.61-1.34zm12.92 13a1.7 1.7 0 00-.47-1.25L23.13 18a1.71 1.71 0 00-1.25-.51 1.75 1.75 0 00-1.32.59l.35.34.39.39c.07.08.16.19.28.35a1.47 1.47 0 01.24.47 1.87 1.87 0 01.06.51 1.76 1.76 0 01-1.76 1.76 1.87 1.87 0 01-.5-.06 1.47 1.47 0 01-.47-.24 4.29 4.29 0 01-.35-.28l-.39-.39-.34-.35a1.78 1.78 0 00-.61 1.34 1.7 1.7 0 00.54 1.23L21.75 27a1.7 1.7 0 001.25.49 1.77 1.77 0 001.25-.49L27 24.29a1.68 1.68 0 00.47-1.23z"/></svg>