<svg viewBox="0 0 16 16" xmlns="http://www.w3.org/2000/svg"><path d="M13.5352 12.6327V12.5677C13.4163 12.3824 13.3404 12.1722 13.3132 11.953C13.2885 11.6886 13.1737 11.4412 12.9885 11.2533L12.8622 11.1653L12.7388 11.1213C12.9896 10.3126 12.948 9.43984 12.6214 8.65936C12.2753 7.81077 11.7928 7.02613 11.1934 6.33734C10.5914 5.74382 10.2255 4.94704 10.1652 4.09828C10.1819 2.65888 10.3201 0.00599748 7.83425 0C7.73557 0 7.628 0.00599748 7.51649 0.011995C4.73756 0.233902 5.47473 3.21865 5.42835 4.21223C5.40282 4.938 5.16211 5.63916 4.73756 6.22439C3.97031 7.11288 3.36547 8.13272 2.95139 9.23612C2.76158 9.76674 2.69735 10.3351 2.76389 10.8954L2.68988 10.9834C2.52014 11.1643 2.39383 11.3832 2.25469 11.5422C2.09828 11.6637 1.92044 11.7539 1.73068 11.808C1.61108 11.8426 1.49939 11.9008 1.40202 11.9792C1.30465 12.0576 1.22351 12.1546 1.16325 12.2648C1.10341 12.3893 1.07364 12.5263 1.0764 12.6647C1.07767 12.7842 1.08989 12.9033 1.11292 13.0205C1.16657 13.2319 1.17498 13.4524 1.13759 13.6673C1.06028 13.819 1.01444 13.9852 1.0029 14.1555C0.991358 14.3259 1.01436 14.4968 1.07048 14.6578C1.14179 14.7628 1.23309 14.8522 1.33901 14.9208C1.44493 14.9895 1.56333 15.036 1.68726 15.0577C2.3103 15.1105 2.92397 15.2449 3.5129 15.4575C4.03096 15.7646 4.63943 15.8764 5.23098 15.7734C5.4008 15.7345 5.55986 15.6576 5.69648 15.5482C5.8331 15.4389 5.9438 15.3 6.02045 15.1416C6.4063 15.1416 6.82867 14.9607 7.50761 14.9167C7.96748 14.8768 8.54379 15.0947 9.20398 15.0487C9.22225 15.126 9.24803 15.2014 9.28095 15.2736C9.38908 15.5105 9.56765 15.7073 9.79168 15.8364C10.0157 15.9654 10.274 16.0203 10.5303 15.9933C11.1161 15.9059 11.6462 15.5934 12.0105 15.1206C12.4713 14.6994 13 14.3613 13.5737 14.1211C13.6869 14.0711 13.7855 13.9926 13.8601 13.893C13.9348 13.7935 13.9829 13.6761 14 13.5523C13.9871 13.3753 13.9394 13.2028 13.8595 13.0448C13.7797 12.8869 13.6694 12.7467 13.5352 12.6327ZM7.40893 3.27462C7.40423 3.09843 7.43792 2.92335 7.50761 2.76184C7.55922 2.61477 7.65923 2.49018 7.79083 2.40899C7.90152 2.31981 8.03823 2.27025 8.17964 2.26805H8.19149C8.33007 2.26757 8.46483 2.31401 8.57438 2.39999C8.69682 2.49364 8.7953 2.61567 8.86155 2.75584C8.92787 2.90801 8.96536 3.07145 8.97207 3.23764V3.19966V3.26863V3.23764C8.97092 3.39972 8.93735 3.55987 8.87339 3.70844C8.84314 3.79348 8.7946 3.87065 8.73129 3.93435L8.67602 3.90536C8.60962 3.88509 8.54622 3.85584 8.48754 3.8184C8.44063 3.79922 8.39207 3.7845 8.34247 3.77441L8.46287 3.64347C8.49669 3.55781 8.5154 3.4668 8.51813 3.37458V3.36259C8.5189 3.27282 8.50455 3.18358 8.4757 3.0987C8.44652 3.01974 8.40703 2.94511 8.35826 2.87679C8.31017 2.82797 8.24725 2.79699 8.17964 2.78883H8.17076C8.13706 2.788 8.10367 2.79559 8.07355 2.81093C8.04343 2.82627 8.01751 2.84889 7.99807 2.87679C7.93567 2.93801 7.8898 3.01441 7.86484 3.0987C7.8292 3.18286 7.80945 3.27305 7.80662 3.36459V3.37658C7.80762 3.43605 7.81157 3.49544 7.81846 3.55451C7.68919 3.51053 7.53228 3.46455 7.41781 3.42056L7.40893 3.28862V3.27462ZM5.77374 2.79882C5.81172 2.66853 5.87552 2.54745 5.96124 2.44297C5.99381 2.40131 6.03518 2.36756 6.08231 2.34421C6.12944 2.32086 6.18114 2.30849 6.23361 2.30803H6.25433C6.34795 2.31099 6.43846 2.34272 6.51387 2.39899C6.60993 2.48435 6.68668 2.58971 6.73887 2.70786C6.79978 2.849 6.83328 3.0007 6.83755 3.15468C6.84324 3.21384 6.84324 3.27343 6.83755 3.3326V3.38658L6.78821 3.39857C6.6984 3.43604 6.61191 3.48119 6.52966 3.53352C6.53706 3.47411 6.53706 3.414 6.52966 3.35459V3.34959C6.52225 3.27356 6.50465 3.19891 6.47735 3.12769C6.45656 3.05934 6.41805 2.9979 6.36584 2.94976L6.25137 2.90878H6.23657C6.21081 2.91169 6.18631 2.92159 6.16565 2.93742C6.14498 2.95325 6.12891 2.97443 6.11913 2.99874C6.07642 3.05047 6.04844 3.11303 6.03821 3.17966C6.01924 3.25094 6.01322 3.32512 6.02045 3.39857V3.40457C6.02704 3.48171 6.04466 3.55747 6.07275 3.62948C6.09278 3.69751 6.12984 3.75915 6.18032 3.8084L6.20203 3.82339C6.15565 3.86438 6.12505 3.87037 6.08854 3.91436L6.0017 3.96134C5.93316 3.88035 5.87328 3.79222 5.82308 3.69845C5.76084 3.55775 5.72727 3.40578 5.7244 3.25163C5.71338 3.09891 5.7301 2.94544 5.77374 2.79882ZM5.83788 4.20523C5.98295 4.11727 6.08854 4.02331 6.15269 3.97933C6.21683 3.93535 6.25137 3.91136 6.27012 3.89536C6.41255 3.71105 6.60442 3.57223 6.82275 3.49553C6.92262 3.46497 7.02631 3.44914 7.13064 3.44855C7.41861 3.44631 7.69938 3.5397 7.92998 3.71444C8.14542 3.8485 8.37779 3.9524 8.62076 4.02331C8.74917 4.0802 8.85852 4.17361 8.93556 4.2922V4.19824C8.95906 4.24668 8.97209 4.29964 8.97379 4.35359C8.97549 4.40754 8.96583 4.46124 8.94543 4.51111C8.79454 4.78516 8.54261 4.98751 8.24478 5.07387C8.06912 5.16083 7.91419 5.29578 7.73557 5.38274C7.53345 5.50184 7.30328 5.56333 7.06946 5.56066C6.96898 5.56528 6.86855 5.5507 6.7734 5.51768C6.70294 5.482 6.63472 5.44194 6.56913 5.39773C6.44157 5.28574 6.30673 5.18255 6.16551 5.08886C5.96693 4.98525 5.80744 4.81843 5.71157 4.61406C5.68241 4.54183 5.67907 4.46154 5.70213 4.38708C5.7252 4.31262 5.77321 4.24765 5.83788 4.20523ZM5.94348 14.6409C5.93897 14.8497 5.86237 15.0504 5.72698 15.208C5.59158 15.3656 5.40596 15.4701 5.20236 15.5035C4.65677 15.582 4.10091 15.4733 3.62343 15.1946C3.02479 14.9484 2.38739 14.813 1.74153 14.7948C1.64778 14.7885 1.55658 14.7611 1.47451 14.7148C1.39243 14.6685 1.32151 14.6043 1.26686 14.5269C1.1868 14.2523 1.21658 13.9568 1.34976 13.7042C1.40191 13.4574 1.39583 13.2016 1.33199 12.9576C1.27844 12.7513 1.28808 12.5334 1.35963 12.3328C1.46423 12.1079 1.62114 12.0669 1.81258 11.977C2.03126 11.9129 2.23566 11.8067 2.41455 11.6641C2.58133 11.4892 2.7106 11.2643 2.85567 11.1073C2.90685 11.0391 2.97255 10.9835 3.0479 10.9445C3.12325 10.9056 3.2063 10.8844 3.29086 10.8824H3.29974L3.39843 10.8924C3.6784 10.964 3.91981 11.1433 4.07145 11.3922L4.67835 12.4948C4.90472 12.8855 5.16707 13.2536 5.4619 13.5943C5.72923 13.8817 5.89809 14.2487 5.94348 14.6409ZM5.89709 13.8192C5.82369 13.6898 5.7345 13.5702 5.63164 13.4633C5.58245 13.3806 5.52124 13.3058 5.45006 13.2414C5.55316 13.2403 5.65567 13.2255 5.75499 13.1975C5.84864 13.1521 5.9222 13.073 5.96124 12.9756C5.98626 12.8374 5.97864 12.6951 5.93902 12.5605C5.89941 12.4259 5.82891 12.3026 5.73328 12.2009C5.40767 11.7917 5.00896 11.4482 4.55796 11.1883C4.20091 10.9824 3.93088 10.6509 3.79908 10.2567C3.69972 9.89749 3.69666 9.51796 3.7902 9.15715C3.97271 8.50149 4.25683 7.87933 4.63197 7.31393C4.70006 7.27295 4.65664 7.40489 4.36355 7.96366C4.1186 8.34256 3.98154 8.78255 3.96744 9.23523C3.95334 9.68792 4.06274 10.1358 4.28362 10.5296C4.31014 9.87009 4.45423 9.2209 4.70895 8.61338C5.29809 7.51846 5.7077 6.33385 5.92177 5.10586C5.95236 5.13085 6.06387 5.19582 6.11321 5.2398C6.25433 5.32776 6.36288 5.46171 6.50104 5.54967C6.57769 5.62412 6.66822 5.68236 6.76734 5.72097C6.86646 5.75959 6.97219 5.77781 7.07834 5.77457H7.14939C7.37625 5.77034 7.59858 5.70957 7.79675 5.59765C7.98721 5.50669 8.14215 5.37274 8.28326 5.32876C8.55701 5.2623 8.79925 5.10108 8.96813 4.87295C9.24982 5.90284 9.63299 6.90144 10.1119 7.8537C10.4543 8.48373 10.6989 9.16341 10.8372 9.86886C10.9508 9.86741 11.0641 9.88221 11.1737 9.91284C11.2972 9.44759 11.2963 8.95743 11.1711 8.49264C11.0459 8.02786 10.8009 7.60517 10.4612 7.26795C10.3132 7.137 10.3073 7.04604 10.3783 7.04604C10.9042 7.54108 11.2806 8.17713 11.4638 8.88027C11.5559 9.24561 11.5616 9.62779 11.4806 9.9958C11.5219 10.018 11.5666 10.0329 11.6128 10.0398C12.2918 10.3956 12.5444 10.6645 12.4211 11.0644V11.0364H12.2947C12.3934 10.7235 12.1744 10.4836 11.5941 10.2177C10.9931 9.95182 10.5086 9.9928 10.4286 10.5266C10.4233 10.5566 10.42 10.587 10.4188 10.6175C10.3741 10.6354 10.3278 10.6492 10.2806 10.6585C10.146 10.7481 10.0304 10.8641 9.94093 10.9998C9.85142 11.1354 9.78975 11.2879 9.75957 11.4482C9.67814 11.8591 9.63355 12.2766 9.62635 12.6957C9.58194 13.0014 9.51061 13.3025 9.41319 13.5953C8.92322 13.999 8.32104 14.2377 7.69069 14.278C7.06035 14.3183 6.43331 14.1583 5.89709 13.8202V13.8192ZM13.4859 13.8752C12.8909 14.1263 12.3439 14.4808 11.8694 14.9227C11.543 15.3548 11.0621 15.6398 10.5303 15.7164C10.3165 15.7458 10.0991 15.7029 9.91179 15.5945C9.72447 15.4861 9.57767 15.3181 9.49411 15.1167C9.37826 14.7496 9.39011 14.3534 9.52766 13.9941C9.66582 13.5821 9.76818 13.1587 9.83358 12.7287C9.83961 12.3215 9.88189 11.9157 9.9599 11.5162C9.98109 11.3831 10.03 11.256 10.1033 11.1435C10.1766 11.031 10.2727 10.9355 10.3852 10.8634L10.4129 10.8444C10.4064 11.0391 10.4584 11.2311 10.562 11.3951C10.6656 11.5592 10.8159 11.6875 10.9931 11.7631C11.2149 11.7758 11.4366 11.7365 11.641 11.6483C11.8454 11.56 12.0269 11.4252 12.1714 11.2543L12.3105 11.2473C12.4108 11.2333 12.5128 11.2421 12.6093 11.273C12.7057 11.304 12.7941 11.3563 12.8681 11.4262C13.0038 11.5938 13.0921 11.7956 13.1237 12.01C13.1482 12.2667 13.241 12.512 13.3921 12.7197C13.6157 12.9147 13.7642 13.1834 13.8115 13.4783C13.8066 13.6543 13.6921 13.7412 13.4859 13.8752ZM7.5007 3.86238L7.5905 3.8184C7.59643 3.77142 7.53129 3.72743 7.49182 3.72743C7.46518 3.71511 7.43624 3.70873 7.40695 3.70873C7.37767 3.70873 7.34872 3.71511 7.32208 3.72743L7.30037 3.76242V3.77441L7.40794 3.8184L7.5007 3.86238ZM6.19019 4.87795C6.43276 5.06401 6.72509 5.17165 7.029 5.18682C7.37694 5.13899 7.7111 5.01777 8.00991 4.83097C8.16577 4.73403 8.31632 4.62859 8.46089 4.5151C8.5803 4.38116 8.63951 4.30219 8.55958 4.2932C8.47964 4.2842 8.47964 4.38416 8.378 4.47412C8.24576 4.56208 8.08195 4.69603 7.95267 4.78399C7.67524 4.96119 7.35978 5.06816 7.03294 5.09586C6.75169 5.07333 6.48388 4.96454 6.26518 4.78399C6.18837 4.7048 6.10662 4.63068 6.02045 4.56208C5.97407 4.5181 5.96223 4.43714 5.89117 4.42714C5.84479 4.42714 5.83196 4.56508 5.94052 4.65305C6.00466 4.69803 6.08854 4.78699 6.19019 4.87795ZM6.82571 3.8154L6.93327 3.77142V3.75942L6.91452 3.72444C6.88736 3.71211 6.85794 3.70574 6.82817 3.70574C6.79841 3.70574 6.76899 3.71211 6.74183 3.72444L6.64314 3.8124L6.73294 3.85938L6.82571 3.8154Z"/></svg>