<svg viewBox="0 0 16 16" xmlns="http://www.w3.org/2000/svg"><g clip-path="url(#clip0_2702_23081)"><path d="M7.89994 3.85313C7.93119 3.86876 7.95619 3.90626 7.99369 3.90626C8.02806 3.90626 8.08119 3.89376 8.08431 3.85938C8.09056 3.81563 8.02494 3.78751 7.98431 3.76876C7.93119 3.74688 7.86244 3.73751 7.81244 3.76563C7.79994 3.77188 7.78744 3.78751 7.79369 3.80001C7.80306 3.84063 7.86556 3.83438 7.89994 3.85313ZM7.21556 3.90626C7.25306 3.90626 7.27806 3.86876 7.30931 3.85313C7.34369 3.83438 7.40619 3.84063 7.41869 3.80313C7.42494 3.79063 7.41244 3.77501 7.39994 3.76876C7.34994 3.74063 7.28119 3.75001 7.22806 3.77188C7.18744 3.79063 7.12181 3.81876 7.12806 3.86251C7.13119 3.89376 7.18431 3.90938 7.21556 3.90626ZM14.1249 12.6188C14.0124 12.4938 13.9593 12.2563 13.8999 12.0031C13.8437 11.75 13.7781 11.4781 13.5718 11.3031C13.5312 11.2688 13.4906 11.2375 13.4468 11.2125C13.4062 11.1875 13.3624 11.1656 13.3187 11.15C13.6062 10.2969 13.4937 9.44688 13.2031 8.67813C12.8468 7.73751 12.2249 6.91563 11.7499 6.35313C11.2156 5.68126 10.6968 5.04376 10.7062 4.10313C10.7218 2.66876 10.8656 0.00313404 8.33744 9.0367e-06C5.13744 -0.00624096 5.93744 3.23126 5.90306 4.22501C5.84994 4.95626 5.70306 5.53126 5.19994 6.24688C4.60931 6.95001 3.77806 8.08438 3.38431 9.26876C3.19681 9.82813 3.10931 10.3969 3.19056 10.9344C2.98744 11.1156 2.83431 11.3938 2.67181 11.5656C2.54056 11.7 2.34994 11.75 2.14056 11.825C1.93119 11.9 1.70306 12.0125 1.56244 12.2781C1.49681 12.4 1.47494 12.5313 1.47494 12.6656C1.47494 12.7875 1.49369 12.9125 1.51244 13.0344C1.54994 13.2875 1.59056 13.525 1.53744 13.6844C1.37494 14.1344 1.35306 14.4469 1.46869 14.675C1.58744 14.9031 1.82494 15.0031 2.09681 15.0594C2.63744 15.1719 3.37181 15.1438 3.94994 15.45C4.56869 15.775 5.19681 15.8906 5.69681 15.775C6.05931 15.6938 6.35619 15.475 6.50619 15.1438C6.89681 15.1406 7.32806 14.975 8.01556 14.9375C8.48119 14.9 9.06556 15.1031 9.73744 15.0656C9.75619 15.1375 9.78119 15.2094 9.81556 15.275V15.2781C10.0749 15.8 10.5593 16.0375 11.0749 15.9969C11.5937 15.9563 12.1406 15.6531 12.5843 15.125C13.0093 14.6125 13.7093 14.4 14.1749 14.1188C14.4062 13.9781 14.5937 13.8031 14.6093 13.5469C14.6218 13.2906 14.4718 13.0063 14.1249 12.6188ZM7.99056 2.72813C8.29681 2.03438 9.05931 2.04688 9.36556 2.71563C9.56869 3.15938 9.47806 3.68126 9.23119 3.97813C9.18119 3.95313 9.04681 3.89688 8.83744 3.82501C8.87181 3.78751 8.93431 3.74063 8.95931 3.68126C9.10931 3.31251 8.95306 2.83751 8.67494 2.82813C8.44681 2.81251 8.24056 3.16563 8.30619 3.54688C8.17806 3.48438 8.01244 3.43751 7.89994 3.40938C7.86869 3.19376 7.89056 2.95313 7.99056 2.72813ZM6.71869 2.36876C7.03431 2.36876 7.36869 2.81251 7.31556 3.41563C7.20619 3.44688 7.09369 3.49376 6.99681 3.55938C7.03431 3.28126 6.89369 2.93126 6.69681 2.94688C6.43431 2.96876 6.39056 3.60938 6.64056 3.82501C6.67181 3.85001 6.69994 3.81876 6.45619 3.99688C5.96869 3.54063 6.12806 2.36876 6.71869 2.36876ZM6.29369 4.26563C6.48744 4.12188 6.71869 3.95313 6.73431 3.93751C6.88119 3.80001 7.15619 3.49376 7.60619 3.49376C7.82806 3.49376 8.09369 3.56563 8.41556 3.77188C8.61244 3.90001 8.76869 3.90938 9.12181 4.06251C9.38431 4.17188 9.54994 4.36563 9.44994 4.63126C9.36869 4.85313 9.10619 5.08126 8.74056 5.19688C8.39369 5.30938 8.12181 5.69688 7.54681 5.66251C7.42494 5.65626 7.32806 5.63126 7.24681 5.59688C6.99681 5.48751 6.86556 5.27188 6.62181 5.12813C6.35306 4.97813 6.20931 4.80313 6.16244 4.65001C6.11869 4.49688 6.16244 4.36876 6.29369 4.26563ZM6.39681 14.7031C6.31244 15.8 5.02494 15.7781 4.04369 15.2656C3.10931 14.7719 1.89994 15.0625 1.65306 14.5813C1.57806 14.4344 1.57806 14.1844 1.73431 13.7563V13.75C1.80931 13.5125 1.75306 13.25 1.71556 13.0031C1.67806 12.7594 1.65931 12.5344 1.74369 12.3781C1.85306 12.1688 2.00931 12.0938 2.20619 12.025C2.52806 11.9094 2.57494 11.9188 2.81869 11.7156C2.99056 11.5375 3.11556 11.3125 3.26556 11.1531C3.42494 10.9813 3.57806 10.9 3.81869 10.9375C4.07181 10.975 4.29056 11.15 4.50306 11.4375L5.11556 12.55C5.41244 13.1719 6.46244 14.0625 6.39681 14.7031ZM6.35306 13.8938C6.22494 13.6875 6.05306 13.4688 5.90306 13.2813C6.12494 13.2813 6.34681 13.2125 6.42494 13.0031C6.49681 12.8094 6.42494 12.5375 6.19369 12.225C5.77181 11.6563 4.99681 11.2094 4.99681 11.2094C4.57494 10.9469 4.33744 10.625 4.22806 10.275C4.11869 9.92501 4.13431 9.54688 4.21869 9.17501C4.38119 8.45938 4.79994 7.76251 5.06869 7.32501C5.14056 7.27188 5.09369 7.42501 4.79681 7.97501C4.53119 8.47813 4.03431 9.64063 4.71556 10.55C4.73431 9.90313 4.88744 9.24376 5.14681 8.62813C5.52181 7.77188 6.31244 6.28751 6.37494 5.10626C6.40931 5.13126 6.51869 5.20626 6.56869 5.23438C6.71244 5.31876 6.82181 5.44376 6.96244 5.55626C7.34994 5.86876 7.85306 5.84376 8.28744 5.59376C8.48119 5.48438 8.63744 5.35938 8.78431 5.31251C9.09369 5.21563 9.34056 5.04376 9.48119 4.84376C9.72181 5.79376 10.2843 7.16563 10.6437 7.83438C10.8343 8.19063 11.2156 8.94376 11.3812 9.85313C11.4843 9.85001 11.5999 9.86563 11.7218 9.89688C12.1531 8.78126 11.3562 7.57813 10.9937 7.24376C10.8468 7.10001 10.8406 7.03751 10.9124 7.04063C11.3062 7.39063 11.8249 8.09376 12.0124 8.88438C12.0999 9.24688 12.1156 9.62501 12.0249 10C12.5374 10.2125 13.1468 10.5594 12.9843 11.0875C12.9156 11.0844 12.8843 11.0875 12.8531 11.0875C12.9531 10.7719 12.7312 10.5375 12.1406 10.2719C11.5281 10.0031 11.0156 10.0031 10.9437 10.6625C10.5656 10.7938 10.3718 11.1219 10.2749 11.5156C10.1874 11.8656 10.1624 12.2875 10.1374 12.7625C10.1218 13.0031 10.0249 13.325 9.92494 13.6688C8.92181 14.3844 7.52806 14.6969 6.35306 13.8938ZM14.3968 13.5344C14.3687 14.0594 13.1093 14.1563 12.4218 14.9875C12.0093 15.4781 11.5031 15.75 11.0593 15.7844C10.6156 15.8188 10.2312 15.6344 10.0062 15.1813C9.85931 14.8344 9.93119 14.4594 10.0406 14.0469C10.1562 13.6031 10.3281 13.1469 10.3499 12.7781C10.3749 12.3031 10.4031 11.8875 10.4812 11.5688C10.5624 11.2469 10.6874 11.0313 10.9093 10.9094C10.9187 10.9031 10.9312 10.9 10.9406 10.8938C10.9656 11.3063 11.1687 11.725 11.5281 11.8156C11.9218 11.9188 12.4874 11.5813 12.7281 11.3063C13.0093 11.2969 13.2187 11.2781 13.4343 11.4656C13.7437 11.7313 13.6562 12.4125 13.9687 12.7656C14.2999 13.1281 14.4062 13.375 14.3968 13.5344ZM6.41556 4.64688C6.47806 4.70626 6.56244 4.78751 6.66556 4.86876C6.87181 5.03126 7.15931 5.20001 7.51869 5.20001C7.88119 5.20001 8.22181 5.01563 8.51244 4.86251C8.66556 4.78126 8.85306 4.64376 8.97494 4.53751C9.09681 4.43126 9.15931 4.34063 9.07181 4.33126C8.98431 4.32188 8.99056 4.41251 8.88431 4.49063C8.74681 4.59063 8.58119 4.72188 8.44994 4.79688C8.21869 4.92813 7.84056 5.11563 7.51556 5.11563C7.19056 5.11563 6.93119 4.96563 6.73744 4.81251C6.64056 4.73438 6.55931 4.65626 6.49681 4.59688C6.44994 4.55313 6.43744 4.45313 6.36244 4.44376C6.31869 4.44063 6.30619 4.55938 6.41556 4.64688Z"/></g><defs><clipPath><rect transform="translate(1)"/></clipPath></defs></svg>