<svg data-name="Layer 1" xmlns="http://www.w3.org/2000/svg" viewBox="0 0 32 32"><path d="M30.08 1.92A6.31 6.31 0 0025.46 0H6.55a6.3 6.3 0 00-4.63 1.92A6.31 6.31 0 000 6.55v18.9a6.29 6.29 0 001.92 4.63A6.3 6.3 0 006.55 32h18.9A6.55 6.55 0 0032 25.45V6.55a6.27 6.27 0 00-1.91-4.62zm-1 23.54a3.65 3.65 0 01-3.64 3.64H6.55A3.5 3.5 0 014 28a3.5 3.5 0 01-1.07-2.57V6.55A3.5 3.5 0 014 4a3.5 3.5 0 012.55-1.09h18.9A3.5 3.5 0 0128 4a3.5 3.5 0 011.07 2.57v18.89zM8.36 13.91a2.08 2.08 0 100 4.16 2.08 2.08 0 100-4.16zm0 5.56A2.08 2.08 0 109.83 23a2.08 2.08 0 00-1.48-3.56zm0-11.12a2.07 2.07 0 00-2.08 2.08 2.07 2.07 0 002.08 2.08 2.07 2.07 0 002.08-2.08 2.07 2.07 0 00-2.08-2.07zm17 11.81H12.18a.34.34 0 00-.24.11.33.33 0 00-.11.24v2.09a.31.31 0 00.11.24.34.34 0 00.24.11h13.2a.31.31 0 00.24-.11.34.34 0 00.11-.24v-2.08a.34.34 0 00-.11-.24.33.33 0 00-.24-.11zm0-11.12H12.18a.36.36 0 00-.35.35v2.09a.31.31 0 00.11.24.33.33 0 00.24.1h13.2a.33.33 0 00.24-.1.34.34 0 00.11-.24V9.4a.34.34 0 00-.11-.24.33.33 0 00-.24-.11zm0 5.56H12.18a.35.35 0 00-.24.1.34.34 0 00-.11.24V17a.31.31 0 00.11.24.34.34 0 00.24.11h13.2a.31.31 0 00.24-.11.34.34 0 00.11-.24v-2a.34.34 0 00-.11-.24.33.33 0 00-.24-.1z"/></svg>