<svg viewBox="0 0 16 16" xmlns="http://www.w3.org/2000/svg"><path fill-rule="evenodd" clip-rule="evenodd" d="M13.25 7.75V5.25C13.25 2.35 10.9 0 8 0C5.1 0 2.75 2.35 2.75 5.25V7.75C1.65 7.75 0.75 8.65 0.75 9.75V14C0.75 15.1 1.65 16 2.75 16H10.75C11.16 16 11.5 15.66 11.5 15.25C11.5 14.84 11.16 14.5 10.75 14.5H2.75C2.47 14.5 2.25 14.28 2.25 14V9.75C2.25 9.47 2.47 9.25 2.75 9.25H13.25C13.53 9.25 13.75 9.47 13.75 9.75V14C13.75 14.28 13.53 14.5 13.25 14.5C12.84 14.5 12.5 14.84 12.5 15.25C12.5 15.66 12.84 16 13.25 16C14.35 16 15.25 15.1 15.25 14V9.75C15.25 8.65 14.35 7.75 13.25 7.75ZM4.25 5.25C4.25 3.18 5.93 1.5 8 1.5C10.07 1.5 11.75 3.18 11.75 5.25V7.75H10.25V5.25C10.25 4.01 9.24 3 8 3C6.76 3 5.75 4.01 5.75 5.25V7.75H4.25V5.25ZM8.75 7.75H7.25V5.25C7.25 4.83 7.58 4.5 8 4.5C8.42 4.5 8.75 4.84 8.75 5.25V7.75Z"/><path d="M6.25 10C6.66421 10 7 10.3358 7 10.75V12.75C7 13.1642 6.66421 13.5 6.25 13.5C5.83579 13.5 5.5 13.1642 5.5 12.75V10.75C5.5 10.3358 5.83579 10 6.25 10Z"/><path d="M10.5 10.75C10.5 10.3358 10.1642 10 9.75 10C9.33579 10 9 10.3358 9 10.75V12.75C9 13.1642 9.33579 13.5 9.75 13.5C10.1642 13.5 10.5 13.1642 10.5 12.75V10.75Z"/></svg>