<svg viewBox="0 0 16 16" xmlns="http://www.w3.org/2000/svg"><path d="M4.10714 6V4C4.10714 1.79094 5.96172 0 8.25 0C10.5383 0 12.3929 1.79094 12.3929 4V6H13.4286C14.5711 6 15.5 6.89688 15.5 8V14C15.5 15.1031 14.5711 16 13.4286 16H3.07143C1.92729 16 1 15.1031 1 14V8C1 6.89688 1.92729 6 3.07143 6H4.10714ZM5.66071 6H10.8393V4C10.8393 2.61937 9.68058 1.5 8.25 1.5C6.81942 1.5 5.66071 2.61937 5.66071 4V6ZM2.55357 14C2.55357 14.275 2.78531 14.5 3.07143 14.5H13.4286C13.7134 14.5 13.9464 14.275 13.9464 14V8C13.9464 7.725 13.7134 7.5 13.4286 7.5H3.07143C2.78531 7.5 2.55357 7.725 2.55357 8V14Z"/></svg>