<svg viewBox="0 0 16 16" xmlns="http://www.w3.org/2000/svg"><path d="M11.71 8.75H3.51C3.09 8.75 2.76 8.41 2.76 8C2.76 7.59 3.1 7.25 3.51 7.25H11.72C12.13 7.25 12.47 7.59 12.47 8C12.47 8.41 12.13 8.75 11.71 8.75Z"/><path d="M10.75 13.25C10.56 13.25 10.37 13.18 10.22 13.03C9.93 12.74 9.93 12.26 10.22 11.97L14.19 8L10.22 4.03C9.93 3.74 9.93 3.26 10.22 2.97C10.51 2.68 10.99 2.68 11.28 2.97L15.78 7.47C16.07 7.76 16.07 8.24 15.78 8.53L11.28 13.03C11.13 13.18 10.94 13.25 10.75 13.25Z"/><path d="M8 16H0.75C0.33 16 0 15.66 0 15.25V0.75C0 0.34 0.33 0 0.75 0H8C8.41 0 8.75 0.34 8.75 0.75C8.75 1.16 8.41 1.5 8 1.5H1.5V14.5H8C8.41 14.5 8.75 14.84 8.75 15.25C8.75 15.66 8.41 16 8 16Z"/></svg>