<svg viewBox="0 0 16 16" xmlns="http://www.w3.org/2000/svg"><path d="M2.98728 8.71956C2.7471 8.93518 2.73959 9.29143 2.96977 9.51409C3.20042 9.73967 3.58049 9.7448 3.81892 9.5302C4.33082 9.05003 4.98132 8.67503 5.66935 8.41722L4.60603 7.63675C4.01557 7.92269 3.47015 8.28363 2.98728 8.71956ZM0.186951 5.52973C-0.0538599 5.7436 -0.0632421 6.0995 0.165839 6.3245C0.392564 6.54935 0.774057 6.55887 1.01424 6.34427C1.29248 6.09692 1.59621 5.87192 1.9112 5.65864L0.927946 4.93677C0.670248 5.12427 0.421556 5.32114 0.186951 5.52973ZM7.98363 10.6039C7.23305 10.6039 6.60507 11.2133 6.60507 11.9375C6.60507 12.6617 7.2323 13.25 8.00589 13.25C8.77949 13.25 9.40722 12.6617 9.40722 11.9375C9.40722 11.2133 8.77924 10.6039 7.98363 10.6039ZM9.10199 8.08909C10.2804 8.27889 11.353 8.77229 12.1944 9.53002C12.3095 9.63596 12.4371 9.68752 12.5872 9.68752C12.7443 9.68752 12.9022 9.62966 13.0203 9.51467C13.2501 9.29129 13.2423 8.9353 13.0031 8.71921C11.7065 7.52894 9.92262 6.87504 8.00614 6.87504C7.83254 6.87504 7.66463 6.89802 7.4935 6.90874L4.22824 4.51255C5.40414 4.10146 6.68763 3.87506 8.00614 3.87506C10.6882 3.87506 13.2352 4.77529 14.999 6.34536C15.1141 6.44848 15.2642 6.50004 15.3893 6.50004C15.548 6.50004 15.7068 6.44145 15.8242 6.32499C16.0532 6.10013 16.0439 5.74421 15.8031 5.53023C13.8431 3.76303 10.9934 2.75006 7.98363 2.75006C6.28982 2.75006 4.62604 3.09201 3.1399 3.71264L0.970979 2.11986C0.709027 1.92832 0.333238 1.97079 0.128105 2.21543C-0.0763522 2.46012 -0.0308672 2.81379 0.229884 3.00527L15.0416 13.8805C15.1516 13.9602 15.2817 14 15.3893 14C15.5676 14 15.7436 13.9259 15.8619 13.7845C16.0664 13.5399 16.0209 13.1862 15.7602 12.9947L9.10199 8.08909Z"/></svg>