<svg viewBox="0 0 16 16" xmlns="http://www.w3.org/2000/svg"><path d="M15.7799 5.22004C13.6999 3.14004 10.9399 2.00004 7.99994 2.00004C6.97994 2.00004 5.95994 2.14004 4.97994 2.41004C4.57994 2.52004 4.34994 2.94004 4.45994 3.34004C4.56994 3.74004 4.98994 3.97004 5.38994 3.86004C6.23994 3.62004 7.11994 3.50004 7.99994 3.50004C10.5399 3.50004 12.9199 4.49004 14.7199 6.28004C14.8699 6.43004 15.0599 6.50004 15.2499 6.50004C15.4399 6.50004 15.6299 6.43004 15.7799 6.28004C16.0699 5.99004 16.0699 5.51004 15.7799 5.22004Z"/><path d="M7.99994 5.30004C7.59994 5.30004 7.19994 5.33004 6.80994 5.39004C6.39994 5.46004 6.11994 5.84004 6.17994 6.25004C6.23994 6.66004 6.62994 6.94004 7.03994 6.88004C8.96994 6.58004 10.9799 7.22004 12.3799 8.62004C12.5299 8.77004 12.7199 8.84004 12.9099 8.84004C13.0999 8.84004 13.2899 8.77004 13.4399 8.62004C13.7299 8.33004 13.7299 7.85004 13.4399 7.56004C11.9899 6.10004 10.0599 5.30004 7.99994 5.30004Z"/><path d="M9.01994 8.73004C8.60994 8.63004 8.20994 8.88004 8.11994 9.29004C8.01994 9.69004 8.26994 10.1 8.67994 10.19C9.19994 10.31 9.66994 10.58 10.0499 10.96C10.1999 11.11 10.3899 11.18 10.5799 11.18C10.7699 11.18 10.9599 11.11 11.1099 10.96C11.3999 10.67 11.3999 10.19 11.1099 9.90004C10.5299 9.32004 9.79994 8.92004 9.01994 8.73004Z"/><path d="M8.32994 12.07L2.72994 2.38004C2.51994 2.01004 2.06994 1.89004 1.70994 2.10004C1.34994 2.31004 1.22994 2.76004 1.42994 3.12004L1.86994 3.88004C1.27994 4.28004 0.719941 4.71004 0.219941 5.21004C-0.0700586 5.50004 -0.0700586 5.98004 0.219941 6.27004C0.369941 6.42004 0.559941 6.50004 0.749941 6.50004C0.939941 6.50004 1.12994 6.43004 1.27994 6.28004C1.68994 5.87004 2.14994 5.51004 2.61994 5.19004L3.51994 6.76004C3.17994 7.00004 2.85994 7.26004 2.55994 7.56004C2.26994 7.85004 2.26994 8.33004 2.55994 8.62004C2.70994 8.76004 2.89994 8.84004 3.08994 8.84004C3.27994 8.84004 3.46994 8.77004 3.61994 8.62004C3.81994 8.42004 4.04994 8.23004 4.27994 8.05004L5.19994 9.64004C5.08994 9.72004 4.98994 9.80004 4.89994 9.90004C4.60994 10.19 4.60994 10.67 4.89994 10.96C5.04994 11.11 5.23994 11.18 5.42994 11.18C5.61994 11.18 5.80994 11.11 5.95994 10.96L7.03994 12.83C7.01994 12.88 6.99994 12.94 6.99994 13C6.99994 13.55 7.44994 14 7.99994 14C8.54994 14 8.99994 13.55 8.99994 13C8.99994 12.56 8.71994 12.2 8.32994 12.07Z"/></svg>