<svg xmlns="http://www.w3.org/2000/svg" viewBox="0 0 16 16"><path d="M3.847 4.526A9.775 9.775 0 001 6.419l1.191 1.143a8.08 8.08 0 012.142-1.464l-.486-1.572zm-.464 4.179l1.191 1.143c.23-.22.481-.405.742-.57l-.495-1.6a6.403 6.403 0 00-1.438 1.027zm10.426-1.143L15 6.419c-2.684-2.575-6.537-3.354-9.934-2.348l-.265-.535c-.016-.03-.056-.043-.09-.032a.077.077 0 00-.048.08l.174.563h-.001l.48 1.55h.001l.479 1.549.481 1.554.357 1.152.004.012.198.834-.01.018-.01.019a1.19 1.19 0 00.166 1.25c.033.042.052.093.09.131l.006.009c.108.104.235.173.366.233.02.009.033.027.054.035H7.5c.161.064.331.098.503.097.079 0 .152-.029.228-.043.088-.015.178-.017.261-.05.156-.061.299-.152.421-.268l.008-.005c.099-.095.163-.209.223-.322.015-.028.041-.047.054-.076v-.002a1.21 1.21 0 00-.278-1.367 1.291 1.291 0 00-.658-.317c-.054-.01-.108-.031-.163-.036l-.003.001-.002-.001-.361-.636-.005-.006-.447-.906c1.468-.21 3.017.211 4.145 1.293l1.191-1.143C10.969 7.125 8.652 6.574 6.531 7.04l-.735-1.489c2.762-.734 5.846-.067 8.013 2.011z"/></svg>