<svg viewBox="0 0 16 16" xmlns="http://www.w3.org/2000/svg"><path d="M2.98915 8.77952C2.74881 9.01312 2.7413 9.39905 2.97163 9.64026C3.20242 9.88464 3.58273 9.89021 3.82131 9.65772C4.33352 9.13753 4.98443 8.73128 5.67289 8.45199L4.60891 7.60648C4.01808 7.91625 3.47232 8.30726 2.98915 8.77952ZM0.187067 5.32388C-0.0538936 5.55557 -0.0632817 5.94112 0.165943 6.18487C0.392809 6.42847 0.774542 6.43878 1.01488 6.2063C1.29328 5.93833 1.59721 5.69458 1.9124 5.46353L0.928526 4.6815C0.670667 4.88462 0.42182 5.0979 0.187067 5.32388ZM7.98862 10.8209C7.23757 10.8209 6.6092 11.4811 6.6092 12.2656C6.6092 13.0502 7.23682 13.6875 8.0109 13.6875C8.78498 13.6875 9.41311 13.0502 9.41311 12.2656C9.41311 11.4811 8.78473 10.8209 7.98862 10.8209ZM9.10768 8.09652C10.2868 8.30213 11.3601 8.83665 12.202 9.65753C12.3172 9.77229 12.4448 9.82815 12.595 9.82815C12.7523 9.82815 12.9102 9.76546 13.0284 9.6409C13.2584 9.3989 13.2506 9.01324 13.0112 8.77914C11.7138 7.48969 9.92883 6.78129 8.01115 6.78129C7.83744 6.78129 7.66943 6.80619 7.49819 6.8178L4.23088 4.22193C5.40752 3.77658 6.69181 3.53131 8.01115 3.53131C10.6949 3.53131 13.2434 4.50656 15.0084 6.20747C15.1236 6.31919 15.2738 6.37505 15.399 6.37505C15.5578 6.37505 15.7166 6.31157 15.8341 6.1854C16.0633 5.94181 16.0539 5.55623 15.8129 5.32441C13.8518 3.40994 11.0003 2.31257 7.98862 2.31257C6.29376 2.31257 4.62894 2.68301 3.14186 3.35535L0.971586 1.62984C0.709471 1.42235 0.333447 1.46836 0.128185 1.73339C-0.0763999 1.99846 -0.0308865 2.3816 0.230027 2.58904L15.051 14.3705C15.1611 14.4568 15.2913 14.5 15.399 14.5C15.5773 14.5 15.7534 14.4197 15.8719 14.2666C16.0764 14.0015 16.0309 13.6184 15.77 13.4109L9.10768 8.09652Z"/></svg>