<svg viewBox="0 0 16 16" xmlns="http://www.w3.org/2000/svg"><path d="M15.25 2.22813C15.25 2.23531 15.25 2.24281 15.25 2.25V15.25C15.25 15.45 15.1676 15.6406 14.9897 15.7531C14.871 15.9219 14.67 16 14.4591 16C14.2482 16 14.0472 15.9219 13.8989 15.7531C13.7506 15.6406 13.6682 15.45 13.6682 15.25V11H12.06C11.7832 11 11.5064 10.9469 11.2493 10.8469C10.9956 10.7438 10.7616 10.5969 10.5639 10.4094C10.3694 10.2219 10.2145 10 10.0794 9.75625C10.0036 9.5125 9.95091 9.25 9.95091 8.9875L9.97727 5.43125C9.94761 4.27813 10.3431 3.15 11.0219 2.19625C11.7041 1.24094 12.673 0.50125 13.8033 0.073C13.9285 0.0248187 14.0603 3.125e-05 14.1955 9.375e-06C14.4756 9.375e-06 14.7425 0.105375 14.9402 0.292906C15.138 0.480313 15.25 0.734688 15.25 1V2.22813ZM13.6682 1.815C13.0223 2.19781 12.4884 2.73094 12.0897 3.3625C11.7502 3.99687 11.5558 4.70938 11.5591 5.43125L11.5327 9C11.5327 9.13125 11.5887 9.25937 11.6876 9.35312C11.7865 9.44687 11.8919 9.5 12.06 9.5H13.6352L13.6682 1.815ZM8.39875 0.219656C8.5767 0.360312 8.65909 0.550938 8.65909 0.75V5.75C8.62943 6.47812 8.35261 7.17812 7.80886 7.69375C7.26511 8.20937 6.52693 8.47188 5.75909 8.5H5.49545V15.25C5.49545 15.45 5.41307 15.6406 5.23511 15.7531C5.11648 15.9219 4.91545 16 4.70455 16C4.49364 16 4.29261 15.9219 4.14432 15.7531C3.99602 15.6406 3.91364 15.45 3.91364 15.25V8.5H3.65C2.88117 8.47188 2.14365 8.20937 1.5999 7.69375C1.05615 7.17812 0.75056 6.47812 0.75 5.75V0.75C0.75 0.550938 0.833375 0.360312 0.98167 0.219656C1.12997 0.0790312 1.33099 0 1.54091 0C1.75083 0 1.95185 0.0790312 2.10015 0.219656C2.24844 0.360312 2.33182 0.550938 2.33182 0.75V4.5H3.91364V0.8C3.91364 0.600938 3.99602 0.410312 4.14432 0.269656C4.29261 0.129031 4.49364 0.05 4.70455 0.05C4.91545 0.05 5.11648 0.129031 5.23511 0.269656C5.41307 0.410312 5.49545 0.600938 5.49545 0.8V4.5H7.07727V0.75C7.07727 0.550938 7.15966 0.360312 7.30795 0.219656C7.45625 0.0790312 7.65727 0 7.86818 0C8.07909 0 8.28011 0.0790312 8.39875 0.219656ZM6.57966 6.71562C6.81034 6.53125 6.96852 6.25313 7.02454 6H2.38455C2.44123 6.25313 2.59809 6.53125 2.82877 6.71562C3.05945 6.89687 3.34978 6.99687 3.65 7H5.75909C6.05898 6.99687 6.34898 6.89687 6.57966 6.71562Z"/></svg>