<svg viewBox="0 0 16 16" xmlns="http://www.w3.org/2000/svg"><path d="M13 16C11.76 16 10.75 14.99 10.75 13.75V11.38H10.5C9.54 11.38 8.75 10.59 8.75 9.63V4.75C8.75 2.13 10.88 0 13.5 0C14.46 0 15.25 0.79 15.25 1.75V13.75C15.25 14.99 14.24 16 13 16ZM13.5 1.5C11.71 1.5 10.25 2.96 10.25 4.75V9.63C10.25 9.77 10.36 9.88 10.5 9.88H11.5C11.91 9.88 12.25 10.22 12.25 10.63V13.75C12.25 14.16 12.59 14.5 13 14.5C13.41 14.5 13.75 14.16 13.75 13.75V1.75C13.75 1.61 13.64 1.5 13.5 1.5Z"/><path d="M4.5 4.12C4.09 4.12 3.75 3.78 3.75 3.37V0.75C3.75 0.33 4.09 0 4.5 0C4.91 0 5.25 0.34 5.25 0.75V3.38C5.25 3.79 4.91 4.12 4.5 4.12Z"/><path d="M4.5 16C3.26 16 2.25 14.99 2.25 13.75V6.12C1.38 5.81 0.75 4.98 0.75 4V0.75C0.75 0.33 1.09 0 1.5 0C1.91 0 2.25 0.34 2.25 0.75V4C2.25 4.41 2.58 4.75 3 4.75C3.41 4.75 3.75 5.09 3.75 5.5V13.75C3.75 14.17 4.09 14.5 4.5 14.5C4.91 14.5 5.25 14.16 5.25 13.75V5.5C5.25 5.09 5.59 4.75 6 4.75C6.41 4.75 6.75 4.42 6.75 4V0.75C6.75 0.33 7.08 0 7.5 0C7.92 0 8.25 0.34 8.25 0.75V4C8.25 4.98 7.62 5.81 6.75 6.12V13.74C6.75 14.99 5.74 16 4.5 16Z"/></svg>