<svg viewBox="0 0 16 16" xmlns="http://www.w3.org/2000/svg"><path d="M14.75 2.22813C14.75 2.23531 14.75 2.24281 14.75 2.25V15.25C14.75 15.45 14.6676 15.6406 14.4897 15.7531C14.371 15.9219 14.17 16 13.9591 16C13.7482 16 13.5472 15.9219 13.3989 15.7531C13.2506 15.6406 13.1682 15.45 13.1682 15.25V11H11.56C11.2832 11 11.0064 10.9469 10.7493 10.8469C10.4956 10.7438 10.2616 10.5969 10.0639 10.4094C9.86943 10.2219 9.71455 10 9.57943 9.75625C9.50364 9.5125 9.45091 9.25 9.45091 8.9875L9.47727 5.43125C9.44761 4.27812 9.84307 3.15 10.5219 2.19625C11.2041 1.24094 12.173 0.50125 13.3033 0.073C13.4285 0.0248187 13.5603 3.125e-05 13.6955 9.375e-06C13.9756 9.375e-06 14.2425 0.105375 14.4402 0.292906C14.638 0.480313 14.75 0.734688 14.75 1V2.22813ZM13.1682 1.815C12.5223 2.19781 11.9884 2.73094 11.5897 3.3625C11.2502 3.99687 11.0558 4.70937 11.0591 5.43125L11.0327 9C11.0327 9.13125 11.0887 9.25937 11.1876 9.35312C11.2865 9.44687 11.3919 9.5 11.56 9.5H13.1352L13.1682 1.815ZM7.89875 0.219656C8.0767 0.360312 8.15909 0.550938 8.15909 0.75V5.75C8.12943 6.47813 7.85261 7.17812 7.30886 7.69375C6.76511 8.20938 6.02693 8.47188 5.25909 8.5H4.99545V15.25C4.99545 15.45 4.91307 15.6406 4.73511 15.7531C4.61648 15.9219 4.41545 16 4.20455 16C3.99364 16 3.79261 15.9219 3.64432 15.7531C3.49602 15.6406 3.41364 15.45 3.41364 15.25V8.5H3.15C2.38117 8.47188 1.64365 8.20938 1.0999 7.69375C0.556148 7.17812 0.25056 6.47813 0.25 5.75V0.75C0.25 0.550938 0.333375 0.360312 0.48167 0.219656C0.629966 0.0790312 0.830989 0 1.04091 0C1.25083 0 1.45185 0.0790312 1.60015 0.219656C1.74844 0.360312 1.83182 0.550938 1.83182 0.75V4.5H3.41364V0.8C3.41364 0.600937 3.49602 0.410312 3.64432 0.269656C3.79261 0.129031 3.99364 0.05 4.20455 0.05C4.41545 0.05 4.61648 0.129031 4.73511 0.269656C4.91307 0.410312 4.99545 0.600937 4.99545 0.8V4.5H6.57727V0.75C6.57727 0.550938 6.65966 0.360312 6.80795 0.219656C6.95625 0.0790312 7.15727 0 7.36818 0C7.57909 0 7.78011 0.0790312 7.89875 0.219656ZM6.07966 6.71562C6.31034 6.53125 6.46852 6.25313 6.52454 6H1.88455C1.94123 6.25313 2.09809 6.53125 2.32877 6.71562C2.55945 6.89687 2.84978 6.99687 3.15 7H5.25909C5.55898 6.99687 5.84898 6.89687 6.07966 6.71562Z"/></svg>