<svg viewBox="0 0 16 16" xmlns="http://www.w3.org/2000/svg"><path d="M8.00012 9.38012C8.76227 9.38012 9.38012 8.76227 9.38012 8.00012C9.38012 7.23796 8.76227 6.62012 8.00012 6.62012C7.23796 6.62012 6.62012 7.23796 6.62012 8.00012C6.62012 8.76227 7.23796 9.38012 8.00012 9.38012Z"/><path d="M8.00012 14.3801C8.76227 14.3801 9.38012 13.7623 9.38012 13.0001C9.38012 12.238 8.76227 11.6201 8.00012 11.6201C7.23796 11.6201 6.62012 12.238 6.62012 13.0001C6.62012 13.7623 7.23796 14.3801 8.00012 14.3801Z"/><path d="M8.00012 4.38012C8.76227 4.38012 9.38012 3.76227 9.38012 3.00012C9.38012 2.23796 8.76227 1.62012 8.00012 1.62012C7.23796 1.62012 6.62012 2.23796 6.62012 3.00012C6.62012 3.76227 7.23796 4.38012 8.00012 4.38012Z"/></svg>