<svg viewBox="0 0 15 16" xmlns="http://www.w3.org/2000/svg"><path d="M10.7934 8C10.7934 7.23812 11.4529 6.62 12.2657 6.62C13.0785 6.62 13.738 7.23812 13.738 8C13.738 8.76187 13.0785 9.38 12.2657 9.38C11.4529 9.38 10.7934 8.76187 10.7934 8ZM5.88569 8C5.88569 7.23812 6.54516 6.62 7.358 6.62C8.17083 6.62 8.8303 7.23812 8.8303 8C8.8303 8.76187 8.17083 9.38 7.358 9.38C6.54516 9.38 5.88569 8.76187 5.88569 8ZM3.92261 8C3.92261 8.76187 3.26345 9.38 2.4503 9.38C1.63716 9.38 0.977997 8.76187 0.977997 8C0.977997 7.23812 1.63716 6.62 2.4503 6.62C3.26345 6.62 3.92261 7.23812 3.92261 8Z"/></svg>