<svg viewBox="0 0 16 16" xmlns="http://www.w3.org/2000/svg"><path d="M8.00012 9.38012C8.76227 9.38012 9.38012 8.76227 9.38012 8.00012C9.38012 7.23796 8.76227 6.62012 8.00012 6.62012C7.23796 6.62012 6.62012 7.23796 6.62012 8.00012C6.62012 8.76227 7.23796 9.38012 8.00012 9.38012Z"/><path d="M3.00012 9.38012C3.76227 9.38012 4.38012 8.76227 4.38012 8.00012C4.38012 7.23796 3.76227 6.62012 3.00012 6.62012C2.23796 6.62012 1.62012 7.23796 1.62012 8.00012C1.62012 8.76227 2.23796 9.38012 3.00012 9.38012Z"/><path d="M13.0001 9.38012C13.7623 9.38012 14.3801 8.76227 14.3801 8.00012C14.3801 7.23796 13.7623 6.62012 13.0001 6.62012C12.238 6.62012 11.6201 7.23796 11.6201 8.00012C11.6201 8.76227 12.238 9.38012 13.0001 9.38012Z"/></svg>