<svg viewBox="0 0 16 16" xmlns="http://www.w3.org/2000/svg"><path d="M8 11.4354C8.76216 11.4354 9.38 12.0949 9.38 12.9077C9.38 13.7205 8.76216 14.38 8 14.38C7.23783 14.38 6.62 13.7205 6.62 12.9077C6.62 12.0949 7.23783 11.4354 8 11.4354ZM8 6.52769C8.76216 6.52769 9.38 7.18716 9.38 8C9.38 8.81283 8.76216 9.4723 8 9.4723C7.23783 9.4723 6.62 8.81283 6.62 8C6.62 7.18716 7.23783 6.52769 8 6.52769ZM8 4.56461C7.23783 4.56461 6.62 3.90514 6.62 3.0923C6.62 2.27916 7.23783 1.62 8 1.62C8.76216 1.62 9.38 2.27916 9.38 3.0923C9.38 3.90514 8.76216 4.56461 8 4.56461Z"/></svg>