<svg viewBox="0 0 16 16" xmlns="http://www.w3.org/2000/svg"><path d="M11.8154 8.38C11.8154 7.61813 12.4749 7 13.2877 7C14.1005 7 14.76 7.61813 14.76 8.38C14.76 9.14188 14.1005 9.76 13.2877 9.76C12.4749 9.76 11.8154 9.14188 11.8154 8.38ZM6.90769 8.38C6.90769 7.61813 7.56716 7 8.38 7C9.19284 7 9.85231 7.61813 9.85231 8.38C9.85231 9.14188 9.19284 9.76 8.38 9.76C7.56716 9.76 6.90769 9.14188 6.90769 8.38ZM4.94462 8.38C4.94462 9.14188 4.28545 9.76 3.47231 9.76C2.65916 9.76 2 9.14188 2 8.38C2 7.61813 2.65916 7 3.47231 7C4.28545 7 4.94462 7.61813 4.94462 8.38Z"/></svg>