<svg viewBox="0 0 16 16" xmlns="http://www.w3.org/2000/svg"><path d="M7.38 11.8154C8.14216 11.8154 8.76 12.4749 8.76 13.2877C8.76 14.1005 8.14216 14.76 7.38 14.76C6.61784 14.76 6 14.1005 6 13.2877C6 12.4749 6.61784 11.8154 7.38 11.8154ZM7.38 6.90769C8.14216 6.90769 8.76 7.56716 8.76 8.38C8.76 9.19284 8.14216 9.85231 7.38 9.85231C6.61784 9.85231 6 9.19284 6 8.38C6 7.56716 6.61784 6.90769 7.38 6.90769ZM7.38 4.94462C6.61784 4.94462 6 4.28514 6 3.47231C6 2.65916 6.61784 2 7.38 2C8.14216 2 8.76 2.65916 8.76 3.47231C8.76 4.28514 8.14216 4.94462 7.38 4.94462Z"/></svg>