<svg viewBox="0 0 16 16" xmlns="http://www.w3.org/2000/svg"><path d="M0 3.68478C0 3.30673 0.383929 3 0.857143 3H15.1429C15.6179 3 16 3.30673 16 3.68478C16 4.06427 15.6179 4.36957 15.1429 4.36957H0.857143C0.383929 4.36957 0 4.06427 0 3.68478ZM0 8.25C0 7.87052 0.383929 7.56522 0.857143 7.56522H15.1429C15.6179 7.56522 16 7.87052 16 8.25C16 8.62948 15.6179 8.93478 15.1429 8.93478H0.857143C0.383929 8.93478 0 8.62948 0 8.25ZM15.1429 13.5H0.857143C0.383929 13.5 0 13.1947 0 12.8152C0 12.4357 0.383929 12.1304 0.857143 12.1304H15.1429C15.6179 12.1304 16 12.4357 16 12.8152C16 13.1947 15.6179 13.5 15.1429 13.5Z"/></svg>