<svg viewBox="0 0 16 16" xmlns="http://www.w3.org/2000/svg"><path d="M8.00012 11.2308C8.76228 11.2308 9.38012 11.851 9.38012 12.6154C9.38012 13.3798 8.76228 14 8.00012 14C7.23795 14 6.62012 13.3798 6.62012 12.6154C6.62012 11.851 7.23795 11.2308 8.00012 11.2308ZM8.00012 6.61538C8.76228 6.61538 9.38012 7.23558 9.38012 8C9.38012 8.76442 8.76228 9.38462 8.00012 9.38462C7.23795 9.38462 6.62012 8.76442 6.62012 8C6.62012 7.23558 7.23795 6.61538 8.00012 6.61538ZM8.00012 4.76923C7.23795 4.76923 6.62012 4.14904 6.62012 3.38462C6.62012 2.6199 7.23795 2 8.00012 2C8.76228 2 9.38012 2.6199 9.38012 3.38462C9.38012 4.14904 8.76228 4.76923 8.00012 4.76923Z"/></svg>