<svg viewBox="0 0 16 16" xmlns="http://www.w3.org/2000/svg"><g clip-path="url(#clip0)"><path d="M10.3099 16.0001H9.98994C9.57994 16.0001 9.23994 15.6601 9.23994 15.2501C9.23994 14.8401 9.57994 14.5001 9.98994 14.5001H10.3099C12.6199 14.5001 14.4999 12.6201 14.4999 10.3001C14.4999 7.98005 12.6199 6.10005 10.3099 6.10005H7.31994C6.90994 6.10005 6.56994 5.76005 6.56994 5.35005C6.56994 4.94005 6.89994 4.61005 7.31994 4.61005H10.3099C13.4499 4.61005 15.9999 7.16005 15.9999 10.3101C15.9999 13.4601 13.4499 16.0001 10.3099 16.0001Z"/><path d="M5.36994 10.7201C5.17994 10.7201 4.98994 10.6501 4.83994 10.5001L0.219941 5.89005C-0.0700586 5.60005 -0.0700586 5.12005 0.219941 4.83005L4.83994 0.210054C5.12994 -0.0799463 5.60994 -0.0799463 5.89994 0.210054C6.18994 0.500054 6.18994 0.980054 5.89994 1.27005L1.80994 5.36005L5.89994 9.44005C6.18994 9.73005 6.18994 10.2101 5.89994 10.5001C5.74994 10.6501 5.55994 10.7201 5.36994 10.7201Z"/><path d="M8.66994 10.7201C8.47994 10.7201 8.28994 10.6501 8.13994 10.5001L3.51994 5.89005C3.22994 5.60005 3.22994 5.12005 3.51994 4.83005L8.12994 0.210054C8.41994 -0.0799463 8.89994 -0.0799463 9.18994 0.210054C9.47994 0.500054 9.47994 0.980054 9.18994 1.27005L5.10994 5.36005L9.19994 9.44005C9.48994 9.73005 9.48994 10.2101 9.19994 10.5001C9.04994 10.6501 8.85994 10.7201 8.66994 10.7201Z"/></g><defs><clipPath><rect/></clipPath></defs></svg>