<svg viewBox="0 0 16 17" xmlns="http://www.w3.org/2000/svg"><path fill-rule="evenodd" clip-rule="evenodd" d="M2 1.50134C0.897771 1.50134 0.00379532 2.33369 1.20525e-05 3.36179L0 3.3658V12.9342C0 13.9653 0.895432 14.8012 2 14.8012H7C7.41421 14.8012 7.75 14.4877 7.75 14.1011C7.75 13.7144 7.41421 13.4009 7 13.4009H2C1.72386 13.4009 1.5 13.192 1.5 12.9342V5.82579L5.90701 9.20242C7.12367 10.1346 8.87624 10.135 10.0933 9.2032L14.4964 5.83225V7.09981C14.4964 7.48647 14.8322 7.79993 15.2464 7.79993C15.6606 7.79993 15.9964 7.48647 15.9964 7.09981V3.88864C15.9988 3.85114 16 3.81346 16 3.77566V3.3658C16 3.33594 15.998 3.30652 15.9941 3.27764C15.9434 2.28865 15.0684 1.50134 13.9964 1.50134H7.75001C7.70742 1.50134 7.66566 1.50466 7.625 1.51102C7.58435 1.50466 7.54259 1.50134 7.5 1.50134H2ZM2 2.90159C1.72386 2.90159 1.5 3.11056 1.5 3.36834V3.77264C1.50038 3.92592 1.5741 4.07105 1.70106 4.16833L6.85866 8.12007C7.5223 8.62854 8.47824 8.62871 9.14209 8.12049L14.2988 4.17266C14.4099 4.08759 14.4803 3.96587 14.4964 3.8341V3.36834C14.4964 3.11056 14.2726 2.90159 13.9964 2.90159H7.75001C7.70742 2.90159 7.66566 2.89828 7.625 2.89191C7.58435 2.89828 7.54259 2.90159 7.5 2.90159H2Z"/><path d="M11.3022 10.5968C10.8932 10.5968 10.5541 10.2803 10.5541 9.89851C10.5541 9.51676 10.8932 9.2002 11.3022 9.2002H15.2519C15.6609 9.2002 16 9.51676 16 9.89851V13.5856C16 13.9674 15.6609 14.2839 15.2519 14.2839C14.843 14.2839 14.5039 13.9674 14.5039 13.5856V11.5838L10.5242 15.2988C10.2349 15.5688 9.75619 15.5688 9.46694 15.2988C9.17769 15.0288 9.17769 14.5819 9.46694 14.3119L13.4466 10.5968H11.3022Z"/></svg>