<svg viewBox="0 0 16 16" xmlns="http://www.w3.org/2000/svg"><g clip-path="url(#clip0_4235_25556)"><path fill-rule="evenodd" clip-rule="evenodd" d="M2 1.00269C0.897771 1.00269 0.00379532 1.89433 1.20525e-05 2.99567L0 2.99997V13.25C0 14.3546 0.895432 15.25 2 15.25H7C7.41421 15.25 7.75 14.9142 7.75 14.5C7.75 14.0858 7.41421 13.75 7 13.75H2C1.72386 13.75 1.5 13.5262 1.5 13.25V5.6352L5.90701 9.25237C7.12367 10.251 8.87624 10.2514 10.0933 9.2532L14.4964 5.64212V6.99997C14.4964 7.41418 14.8322 7.74997 15.2464 7.74997C15.6606 7.74997 15.9964 7.41418 15.9964 6.99997V3.56005C15.9988 3.51988 16 3.47952 16 3.43902V2.99997C16 2.96798 15.998 2.93646 15.9941 2.90553C15.9434 1.84608 15.0684 1.00269 13.9964 1.00269H7.75001C7.70742 1.00269 7.66566 1.00624 7.625 1.01306C7.58435 1.00624 7.54259 1.00269 7.5 1.00269H2ZM2 2.50269C1.72386 2.50269 1.5 2.72654 1.5 3.00269V3.43579C1.50038 3.59999 1.5741 3.75546 1.70106 3.85967L6.85866 8.09291C7.5223 8.6376 8.47824 8.63779 9.14209 8.09336L14.2988 3.8643C14.4099 3.77317 14.4803 3.64278 14.4964 3.50162V3.00269C14.4964 2.72654 14.2726 2.50269 13.9964 2.50269H7.75001C7.70742 2.50269 7.66566 2.49914 7.625 2.49232C7.58435 2.49914 7.54259 2.50269 7.5 2.50269H2Z"/><path d="M11.3022 10.7461C10.8932 10.7461 10.5541 10.407 10.5541 9.99806C10.5541 9.58912 10.8932 9.25 11.3022 9.25H15.2519C15.6609 9.25 16 9.58912 16 9.99806V13.9478C16 14.3568 15.6609 14.6959 15.2519 14.6959C14.843 14.6959 14.5039 14.3568 14.5039 13.9478V11.8034L10.5242 15.7831C10.2349 16.0723 9.75619 16.0723 9.46694 15.7831C9.17769 15.4938 9.17769 15.0151 9.46694 14.7258L13.4466 10.7461H11.3022Z"/></g><defs><clipPath><rect/></clipPath></defs></svg>