<svg viewBox="0 0 16 16" xmlns="http://www.w3.org/2000/svg"><g clip-path="url(#clip0)"><path d="M6.02 15.9999H5.7C2.56 15.9999 0 13.4499 0 10.2999C0 7.14994 2.55 4.59994 5.69 4.59994H11.98C12.39 4.59994 12.73 4.93994 12.73 5.34994C12.73 5.75994 12.39 6.09994 11.98 6.09994H5.7C3.39 6.09994 1.51 7.97994 1.51 10.2999C1.51 12.6199 3.39 14.4999 5.7 14.4999H6.02C6.43 14.4999 6.77 14.8399 6.77 15.2499C6.77 15.6599 6.44 15.9999 6.02 15.9999Z"/><path d="M10.64 10.7199C10.45 10.7199 10.26 10.6499 10.11 10.4999C9.82 10.2099 9.82 9.72994 10.11 9.43994L14.19 5.35994L10.11 1.27994C9.82 0.989941 9.82 0.509941 10.11 0.219941C10.4 -0.0700586 10.88 -0.0700586 11.17 0.219941L15.79 4.83994C16.08 5.12994 16.08 5.60994 15.79 5.89994L11.17 10.5199C11.02 10.6499 10.83 10.7199 10.64 10.7199Z"/></g><defs><clipPath><rect/></clipPath></defs></svg>