<svg viewBox="0 0 16 16" xmlns="http://www.w3.org/2000/svg"><path fill-rule="evenodd" clip-rule="evenodd" d="M2 1.00272C0.897771 1.00272 0.00379532 1.89436 1.20525e-05 2.9957L0 3V13.25C0 14.3546 0.895432 15.25 2 15.25H7C7.41421 15.25 7.75 14.9142 7.75 14.5C7.75 14.0858 7.41421 13.75 7 13.75H2C1.72386 13.75 1.5 13.5262 1.5 13.25V5.63523L5.90701 9.2524C7.12367 10.251 8.87624 10.2514 10.0933 9.25323L14.4964 5.64215V7C14.4964 7.41421 14.8322 7.75 15.2464 7.75C15.6606 7.75 15.9964 7.41421 15.9964 7V3.56008C15.9988 3.51991 16 3.47955 16 3.43905V3C16 2.96801 15.998 2.93649 15.9941 2.90556C15.9434 1.84611 15.0684 1.00272 13.9964 1.00272H7.75001C7.70742 1.00272 7.66566 1.00627 7.625 1.01309C7.58435 1.00627 7.54259 1.00272 7.5 1.00272H2ZM2 2.50272C1.72386 2.50272 1.5 2.72657 1.5 3.00272L1.5 3.43582C1.50038 3.60002 1.5741 3.75549 1.70106 3.8597L6.85866 8.09294C7.5223 8.63763 8.47824 8.63782 9.14209 8.09339L14.2988 3.86433C14.4099 3.7732 14.4803 3.64281 14.4964 3.50165V3.00272C14.4964 2.72657 14.2726 2.50272 13.9964 2.50272H7.75001C7.70742 2.50272 7.66566 2.49917 7.625 2.49235C7.58435 2.49917 7.54259 2.50272 7.5 2.50272H2Z"/><path d="M11.3022 10.7461C10.8932 10.7461 10.5541 10.407 10.5541 9.99806C10.5541 9.58912 10.8932 9.25 11.3022 9.25H15.2519C15.6609 9.25 16 9.58912 16 9.99806V13.9478C16 14.3568 15.6609 14.6959 15.2519 14.6959C14.843 14.6959 14.5039 14.3568 14.5039 13.9478V11.8034L10.5242 15.7831C10.2349 16.0723 9.75619 16.0723 9.46694 15.7831C9.17769 15.4938 9.17769 15.0151 9.46694 14.7258L13.4466 10.7461H11.3022Z"/></svg>