<svg viewBox="0 0 16 16" xmlns="http://www.w3.org/2000/svg"><path d="M0.00500107 3.66667C0.00500107 2.46992 0.899754 1.5 2.00375 1.5H13.9963C15.0987 1.5 15.995 2.46992 15.995 3.66667V12.3333C15.995 13.5284 15.0987 14.5 13.9963 14.5H2.00375C0.899754 14.5 0.00500107 13.5284 0.00500107 12.3333V3.66667ZM1.50406 3.66667V4.41484L6.89132 9.20859C7.53467 9.78412 8.46533 9.78412 9.10868 9.20859L14.4959 4.41484V3.6362C14.4959 3.36875 14.2711 3.09453 13.9963 3.09453H2.00375C1.72767 3.09453 1.50406 3.36875 1.50406 3.6362V3.66667ZM1.50406 6.51719V12.3333C1.50406 12.6313 1.72767 12.875 2.00375 12.875H13.9963C14.2711 12.875 14.4959 12.6313 14.4959 12.3333V6.51719L10.0612 10.4646C8.86196 11.531 7.13804 11.531 5.91068 10.4646L1.50406 6.51719Z"/></svg>