<svg viewBox="0 0 16 16" xmlns="http://www.w3.org/2000/svg"><path d="M0 3.33333C0 2.04453 0.894753 1 1.99875 1H13.9913C15.0937 1 15.99 2.04453 15.99 3.33333V12.6667C15.99 13.9536 15.0937 15 13.9913 15H1.99875C0.894753 15 0 13.9536 0 12.6667V3.33333ZM1.49906 3.33333V4.13906L6.88632 9.30156C7.52967 9.92135 8.46033 9.92135 9.10368 9.30156L14.4909 4.13906V3.30052C14.4909 3.0125 14.2661 2.71719 13.9913 2.71719H1.99875C1.72267 2.71719 1.49906 3.0125 1.49906 3.30052V3.33333ZM1.49906 6.40312V12.6667C1.49906 12.9875 1.72267 13.25 1.99875 13.25H13.9913C14.2661 13.25 14.4909 12.9875 14.4909 12.6667V6.40312L10.0562 10.6542C8.85696 11.8026 7.13304 11.8026 5.90568 10.6542L1.49906 6.40312Z"/></svg>