<svg data-name="Layer 1" xmlns="http://www.w3.org/2000/svg" viewBox="0 0 32 32"><path d="M11.34 24c-4.19 0-6.4-2-7.45-3.64a1.21 1.21 0 01.33-1.6 1.21 1.21 0 011.6.33c1.16 1.77 3 2.59 5.57 2.59s4.47-.83 5.52-2.48a1.16 1.16 0 011.93 1.27c-1.21 1.65-3.31 3.53-7.5 3.53z"/><path d="M11.34 28.69a1.17 1.17 0 01-1.16-1.16v-4.69a1.16 1.16 0 012.32 0v4.69a1.29 1.29 0 01-1.16 1.16z"/><path d="M15.59 29.63H7a1.17 1.17 0 01-1.16-1.16A1.13 1.13 0 017 27.31h8.55a1.17 1.17 0 011.16 1.16 1.2 1.2 0 01-1.12 1.16zM11.45 2.37h-1.38c-2 0-3.14 1.54-3.14 3.53v2.43h3.64a.78.78 0 01.83.83.78.78 0 01-.83.83H6.93v2.7h3.64a.83.83 0 110 1.66H6.93v1.88a3.71 3.71 0 003.7 3.59H12c2 0 3.09-1.6 3.09-3.59V5.85a3.61 3.61 0 00-3.64-3.48zm11.26 8a4.63 4.63 0 01.77 2.63 5.09 5.09 0 01-.77 2.65 4.22 4.22 0 01-2.1 1.71 1 1 0 01-.44.11A1.13 1.13 0 0119 16.33a.88.88 0 01.22-.66 2.17 2.17 0 01.55-.44 2.46 2.46 0 00.61-.44 2.21 2.21 0 00.55-.66 2.09 2.09 0 00.22-1 2.09 2.09 0 00-.22-1 2.2 2.2 0 00-.55-.66 5.8 5.8 0 01-.61-.44 2.17 2.17 0 01-.55-.44.88.88 0 01-.22-.77 1.13 1.13 0 011.16-1.16 1 1 0 01.44.11 3.37 3.37 0 012.11 1.6zm4-2.59a9.38 9.38 0 010 10.48 8.91 8.91 0 01-4.19 3.48 1.72 1.72 0 01-.44.11 1.13 1.13 0 01-1.16-1.16 1.17 1.17 0 01.72-1.1 11.2 11.2 0 001.36-.83 6.41 6.41 0 002.15-2.54 7 7 0 000-6.4A7.26 7.26 0 0023 7.28a15.19 15.19 0 00-1.43-.83 1.12 1.12 0 01-.72-1.1A1.13 1.13 0 0122 4.19a1.62 1.62 0 01.5.11 9 9 0 014.14 3.48z"/></svg>