<svg viewBox="0 0 16 16" xmlns="http://www.w3.org/2000/svg"><path d="M13.27 6.55C12.86 6.55 12.52 6.89 12.52 7.3V8C12.52 10.49 10.49 12.52 7.99998 12.52C5.50998 12.52 3.47998 10.49 3.47998 8V7.3C3.47998 6.89 3.13998 6.55 2.72998 6.55C2.31998 6.55 1.97998 6.89 1.97998 7.3V8C1.97998 11.07 4.28998 13.6 7.24998 13.97V14.5H5.60998C5.19998 14.5 4.85998 14.84 4.85998 15.25C4.85998 15.66 5.18998 16 5.60998 16H10.4C10.81 16 11.15 15.66 11.15 15.25C11.15 14.84 10.81 14.5 10.4 14.5H8.74998V13.97C11.72 13.6 14.02 11.07 14.02 8V7.3C14.02 6.89 13.69 6.55 13.27 6.55Z"/><path d="M7.99998 10.96C9.92998 10.96 11.5 9.39 11.5 7.46V3.5C11.5 1.57 9.92998 0 7.99998 0C6.06998 0 4.49998 1.57 4.49998 3.5V7.46C4.49998 9.39 6.06998 10.96 7.99998 10.96ZM5.99998 3.5C5.99998 2.4 6.89998 1.5 7.99998 1.5C9.09998 1.5 9.99998 2.4 9.99998 3.5V4.74H7.74998C7.32998 4.73 6.99998 5.07 6.99998 5.48C6.99998 5.89 7.33998 6.23 7.74998 6.23H9.99998V7.46C9.99998 8.56 9.09998 9.46 7.99998 9.46C6.89998 9.46 5.99998 8.56 5.99998 7.46V3.5Z"/></svg>