<svg viewBox="0 0 16 16" xmlns="http://www.w3.org/2000/svg"><path fill-rule="evenodd" clip-rule="evenodd" d="M2.43542 6.41846H3.82171V9.8036H4.51771V6.41846H5.91313V5.74075H2.43542V6.41846ZM8.52227 1.00019C9.11307 0.99255 9.6828 1.21948 10.1066 1.63124C10.5303 2.043 10.7735 2.60597 10.7828 3.19675C10.7795 3.69855 10.6054 4.18426 10.2893 4.57394C9.97314 4.96363 9.53374 5.23407 9.04341 5.34075V4.72475C9.04058 4.49943 8.99335 4.27687 8.90443 4.06982C8.81551 3.86277 8.68664 3.67527 8.52519 3.51807C8.36374 3.36087 8.17288 3.23704 7.96353 3.15367C7.75418 3.07029 7.53045 3.02901 7.30513 3.03218H6.26856C6.31944 2.47197 6.57976 1.95157 6.99754 1.5749C7.41532 1.19822 7.9598 0.992989 8.52227 1.00019ZM0 10.8196V4.72475C0.00163918 4.58948 0.029947 4.45586 0.0833022 4.33154C0.136657 4.20723 0.214012 4.09466 0.310936 4.00028C0.40786 3.90591 0.522449 3.83158 0.648141 3.78155C0.773833 3.73153 0.908159 3.70679 1.04343 3.70875H7.30513C7.4404 3.70679 7.57472 3.73153 7.70041 3.78155C7.82611 3.83158 7.9407 3.90591 8.03762 4.00028C8.13454 4.09466 8.2119 4.20723 8.26525 4.33154C8.31861 4.45586 8.34692 4.58948 8.34855 4.72475V10.8196C8.34692 10.9549 8.31861 11.0885 8.26525 11.2128C8.2119 11.3371 8.13454 11.4497 8.03762 11.5441C7.9407 11.6384 7.82611 11.7128 7.70041 11.7628C7.57472 11.8128 7.4404 11.8376 7.30513 11.8356H1.04343C0.908159 11.8376 0.773833 11.8128 0.648141 11.7628C0.522449 11.7128 0.40786 11.6384 0.310936 11.5441C0.214012 11.4497 0.136657 11.3371 0.0833022 11.2128C0.029947 11.0885 0.00163918 10.9549 0 10.8196ZM12.1748 11.8356C12.1622 12.7458 11.7887 13.6138 11.1363 14.2488C10.484 14.8838 9.60625 15.2338 8.69598 15.2219C7.77806 15.2252 6.89529 14.8691 6.23656 14.2299C5.75662 13.7656 5.42597 13.1687 5.28685 12.5156H7.30513C7.53073 12.5188 7.75474 12.4774 7.96431 12.3938C8.17389 12.3102 8.3649 12.1861 8.52639 12.0285C8.68788 11.8709 8.81668 11.683 8.90541 11.4756C8.99413 11.2681 9.04103 11.0452 9.04341 10.8196V6.41846H12.1748V11.8356ZM12.1748 3.8779C12.1753 3.67684 12.2159 3.4779 12.2944 3.29281C12.3729 3.10772 12.4877 2.94022 12.632 2.80018C12.9298 2.51518 13.3261 2.3561 13.7383 2.3561C14.1505 2.3561 14.5468 2.51518 14.8445 2.80018C14.9898 2.93959 15.1054 3.10691 15.1843 3.29212C15.2633 3.47732 15.304 3.67657 15.304 3.8779C15.304 4.07922 15.2633 4.27847 15.1843 4.46368C15.1054 4.64888 14.9898 4.8162 14.8445 4.95561C14.5476 5.24219 14.151 5.40235 13.7383 5.40235C13.3256 5.40235 12.929 5.24219 12.632 4.95561C12.4881 4.81623 12.3735 4.64949 12.295 4.4652C12.2165 4.28091 12.1757 4.08278 12.1748 3.88247V3.8779ZM16 10.6505C15.9961 10.9434 15.9345 11.2328 15.8188 11.5019C15.7031 11.7711 15.5355 12.0149 15.3256 12.2193C15.1157 12.4237 14.8676 12.5847 14.5954 12.6932C14.3232 12.8017 14.0324 12.8555 13.7394 12.8516C13.4117 12.8519 13.0879 12.7817 12.7897 12.6459C12.8431 12.3791 12.8699 12.1077 12.8697 11.8356V6.41846H16V10.6505Z"/></svg>