<svg xmlns="http://www.w3.org/2000/svg" viewBox="0 0 16 16"><path d="M9.5 7.127a.5.5 0 0 0-.5.5v1.385a4 4 0 1 1-8 0V7.627a.5.5 0 1 0-1 0v1.385a5.02 5.02 0 0 0 4 4.931V15h-.786a.5.5 0 1 0 0 1h3.572a.5.5 0 1 0 0-1H6v-1.058a5.02 5.02 0 0 0 4-4.931V7.627a.5.5 0 0 0-.5-.5zM8 4a2.843 2.843 0 0 0-.016-.307A3 3 0 0 0 2 4v2h6zm-3 7.955a3 3 0 0 0 3-3V7H2v1.955a3 3 0 0 0 3 3zm8.651-10.013a.55.55 0 0 0-.789.767 5.449 5.449 0 0 1 0 7.582.55.55 0 0 0 .4.931.556.556 0 0 0 .393-.164 6.548 6.548 0 0 0 0-9.116zm-1.607 2.071a.55.55 0 1 0-.79.765 2.471 2.471 0 0 1 0 3.438.55.55 0 1 0 .79.765 3.565 3.565 0 0 0 0-4.968z"/></svg>