<svg xmlns="http://www.w3.org/2000/svg" viewBox="0 0 16 16"><path d="M7.646 7H5v1.955a2.964 2.964 0 00.069.622zm3.334-3.334A3 3 0 005 4v2h3.646zM4.247 10.4A4.025 4.025 0 014 9.012V7.627a.5.5 0 10-1 0v1.385a5.046 5.046 0 00.481 2.153zM8 11.955a3 3 0 003-3V7.007l3.3-3.295a.5.5 0 00-.707-.707l-11.2 11.2a.5.5 0 10.707.707l1.893-1.893A4.939 4.939 0 007 13.942V15h-.786a.5.5 0 100 1h3.572a.5.5 0 100-1H9v-1.058a5.02 5.02 0 004-4.931V7.627a.5.5 0 10-1 0v1.385a4.009 4.009 0 01-4 4.031 3.962 3.962 0 01-2.3-.734l.775-.774a2.987 2.987 0 001.525.42z"/></svg>