<svg viewBox="0 0 16 16" xmlns="http://www.w3.org/2000/svg"><path d="M13.2191 6C12.7642 6 12.3982 6.33438 12.3982 6.72188V8C12.3982 10.3359 10.192 12.2156 7.58218 11.9812C5.311 11.7781 3.64182 9.90938 3.64182 7.81875V6.72188C3.64182 6.33438 3.27412 6 2.82091 6C2.3677 6 2 6.33438 2 6.72188V7.72656C2 10.5275 4.18909 13.0266 7.19909 13.4047V14.5H5.52649C5.10235 14.5 4.73636 14.8344 4.73636 15.2219C4.73636 15.6094 5.10235 16 5.52649 16H10.4519C10.9376 16 11.3036 15.6656 11.3036 15.25C11.3036 14.8344 10.9376 14.5 10.4827 14.5H8.84091V13.4447C11.7757 13.0781 14.04 10.7781 14.04 8V6.72188C14.04 6.33438 13.674 6 13.2191 6ZM8.02 11C9.83284 11 11.3036 9.65625 11.3036 8V3C11.3036 1.37188 9.83284 0 8.02 0C6.20716 0 4.73636 1.34375 4.73636 3V8C4.73636 9.65625 6.20716 11 8.02 11ZM6.37818 3C6.37818 2.17188 7.11358 1.5 8.02 1.5C8.92642 1.5 9.66182 2.17188 9.66182 3V8C9.66182 8.82812 8.92642 9.5 8.02 9.5C7.11358 9.5 6.37818 8.82812 6.37818 8V3Z"/></svg>