<svg viewBox="0 0 16 16" xmlns="http://www.w3.org/2000/svg"><g clip-path="url(#clip0_335_103)"><path d="M15.7543 14.6594L11.7757 10.7563C12.1608 9.94691 12.3884 9.00973 12.3884 7.99973V6.75005C12.3884 6.33568 12.1199 6.00006 11.8114 6.00006C11.503 6.00006 11.212 6.33568 11.212 6.75005L11.212 7.97192C11.212 8.6316 11.0714 9.2441 10.8431 9.79191L10.2008 9.16191C10.3306 8.79629 10.4129 8.39848 10.4129 7.97192L10.3671 3.00007C10.3671 1.34383 9.31564 8.90058e-05 7.99195 8.90058e-05C6.66825 8.90058e-05 5.57183 1.34383 5.57183 3.00007V4.69538L0.969114 0.159807C0.707622 -0.0955667 0.332491 -0.038942 0.127693 0.287244C-0.0764061 0.613523 -0.0310008 1.08508 0.229293 1.34039L14.9923 15.8122C15.1249 15.9469 15.2548 16 15.3622 16C15.5401 16 15.7158 15.9012 15.8342 15.7127C16.0615 15.3875 16.014 14.9156 15.7543 14.6594ZM9.19077 8.00004C9.19077 8.06932 9.17379 8.13207 9.16652 8.19882L6.79313 5.87193V3.00007C6.79313 2.17195 7.3301 1.50008 7.99195 1.50008C8.65379 1.50008 9.19077 2.17195 9.19077 3.00007V8.00004ZM9.79018 14.5L8.59136 14.5V13.4447C9.1096 13.3558 9.59712 13.1499 10.0417 12.8553L8.96824 11.8025C8.56463 11.9652 8.12856 12.0365 7.67351 11.9806C6.0139 11.7781 4.7951 9.90941 4.7951 7.82192V7.70942L3.62625 6.56255C3.61376 6.59693 3.59628 6.68443 3.59628 6.75005L3.5738 7.75317C3.5738 10.5541 5.14975 13.0531 7.34758 13.4313V14.4984L6.19372 14.5C5.86155 14.5 5.59431 14.8344 5.59431 15.25C5.59431 15.6656 5.86155 16 6.19372 16H9.79018C10.1211 16 10.3896 15.6641 10.3896 15.25C10.3896 14.8344 10.1223 14.5 9.79018 14.5Z"/></g><defs><clipPath><rect/></clipPath></defs></svg>