<svg viewBox="0 0 16 16" xmlns="http://www.w3.org/2000/svg"><path d="M13.2702 6.55C12.8602 6.55 12.5202 6.89 12.5202 7.3V8C12.5202 10.49 10.4902 12.52 8.0002 12.52C7.4902 12.52 6.9902 12.44 6.5102 12.27C6.1202 12.14 5.6902 12.34 5.5602 12.73C5.4202 13.12 5.6302 13.55 6.0202 13.69C6.4202 13.83 6.8302 13.91 7.2502 13.96V14.5H5.6102C5.2002 14.5 4.8602 14.84 4.8602 15.25C4.8602 15.66 5.1902 16 5.6102 16H10.4002C10.8102 16 11.1502 15.66 11.1502 15.25C11.1502 14.84 10.8102 14.5 10.4002 14.5H8.7502V13.97C11.7202 13.6 14.0202 11.07 14.0202 8V7.3C14.0202 6.89 13.6902 6.55 13.2702 6.55Z"/><path d="M9.8702 10.42C10.3102 10.14 10.6802 9.77 10.9602 9.33C11.1802 8.98 11.0802 8.52 10.7302 8.29C10.3802 8.07 9.92019 8.17 9.6902 8.52C9.5302 8.78 9.3202 8.99 9.0702 9.15C8.72019 9.37 8.6202 9.84 8.8402 10.19C8.9802 10.42 9.2302 10.54 9.4702 10.54C9.6102 10.53 9.7502 10.5 9.8702 10.42Z"/><path d="M15.7802 0.22C15.4902 -0.07 15.0102 -0.07 14.7202 0.22L11.4902 3.45C11.4602 1.54 9.9102 0 8.0002 0C6.0702 0 4.5002 1.57 4.5002 3.5V7.46C4.5002 8.28 4.7802 9.04 5.2802 9.66L4.3202 10.62C3.7802 9.85 3.4802 8.95 3.4802 8V7.3C3.4802 6.89 3.1402 6.55 2.7302 6.55C2.3202 6.55 1.9802 6.89 1.9802 7.3V8C1.9802 9.35 2.4302 10.64 3.2502 11.69L0.230195 14.71C-0.0598047 15 -0.0598047 15.48 0.230195 15.77C0.370195 15.92 0.560195 16 0.750195 16C0.940195 16 1.1302 15.93 1.2802 15.78L15.7802 1.28C16.0702 0.99 16.0702 0.51 15.7802 0.22ZM6.0002 7.46V3.5C6.0002 2.4 6.9002 1.5 8.0002 1.5C9.1002 1.5 10.0002 2.4 10.0002 3.5V4.74H7.7502C7.3302 4.73 7.0002 5.07 7.0002 5.48C7.0002 5.89 7.3402 6.23 7.7502 6.23H8.7002L6.3602 8.58C6.1402 8.25 6.0002 7.87 6.0002 7.46Z"/></svg>