<svg viewBox="0 0 16 16" xmlns="http://www.w3.org/2000/svg"><g clip-path="url(#clip0_335_102)"><path d="M11.29 6.54999C10.88 6.54999 10.54 6.88999 10.54 7.29999V7.99999C10.54 10.49 8.51 12.52 6.02 12.52C3.53 12.52 1.5 10.49 1.5 7.99999V7.29999C1.5 6.88999 1.16 6.54999 0.75 6.54999C0.34 6.54999 0 6.88999 0 7.29999V7.99999C0 11.07 2.31 13.6 5.27 13.97V14.5H3.63C3.22 14.5 2.88 14.84 2.88 15.25C2.88 15.66 3.21 16 3.63 16H8.42C8.83 16 9.17 15.66 9.17 15.25C9.17 14.84 8.83 14.5 8.41 14.5H6.77V13.97C9.74 13.6 12.04 11.07 12.04 7.99999V7.29999C12.04 6.88999 11.71 6.54999 11.29 6.54999Z"/><path d="M6.02 10.96C7.95 10.96 9.52 9.38999 9.52 7.45999V3.49999C9.52 1.56999 7.95 -7.33137e-06 6.02 -7.33137e-06C4.09 -7.33137e-06 2.52 1.56999 2.52 3.49999V7.45999C2.52 9.38999 4.09 10.96 6.02 10.96ZM4.02 3.49999C4.02 2.39999 4.92 1.49999 6.02 1.49999C7.12 1.49999 8.02 2.39999 8.02 3.49999V4.73999H5.77C5.36 4.73999 5.02 5.07999 5.02 5.48999C5.02 5.89999 5.36 6.23999 5.77 6.23999H8.02V7.46999C8.02 8.56999 7.12 9.46999 6.02 9.46999C4.92 9.46999 4.02 8.56999 4.02 7.46999V3.49999Z"/><path d="M14.43 0.209993C14.14 -0.0800073 13.66 -0.0800073 13.37 0.209993C13.08 0.499993 13.08 0.979993 13.37 1.26999C14.1 1.99999 14.5 2.96999 14.5 3.99999C14.5 5.02999 14.1 5.99999 13.37 6.71999C13.08 7.00999 13.08 7.48999 13.37 7.77999C13.52 7.92999 13.71 7.99999 13.9 7.99999C14.09 7.99999 14.28 7.92999 14.43 7.77999C15.44 6.76999 16 5.42999 16 3.99999C16 2.56999 15.44 1.22999 14.43 0.209993Z"/><path d="M12.59 2.04999C12.3 1.75999 11.82 1.75999 11.53 2.04999C11.24 2.33999 11.24 2.81999 11.53 3.10999C12.02 3.59999 12.02 4.38999 11.53 4.87999C11.24 5.16999 11.24 5.64999 11.53 5.93999C11.68 6.08999 11.87 6.15999 12.06 6.15999C12.25 6.15999 12.44 6.08999 12.59 5.93999C13.67 4.86999 13.67 3.12999 12.59 2.04999Z"/></g><defs><clipPath><rect/></clipPath></defs></svg>