<svg data-name="Layer 1" xmlns="http://www.w3.org/2000/svg" viewBox="0 0 32 32"><path d="M20.5 22.48a3 3 0 00-2.65-1.6l-3.59.06-4.14-8.17 2.43-2.37a3.22 3.22 0 00.06-3.53L10.9 3.5a2.15 2.15 0 00-3.37-.77 11.57 11.57 0 00-3.75 5.63 6 6 0 00.44 4.47l2 4L8.91 22 11 26.12a6 6 0 003.26 3 11.51 11.51 0 007 .28 2.11 2.11 0 001.32-3c-.72-1.32-1.38-2.59-2-3.92zm4.97-10.37L28 9.57a1.48 1.48 0 10-2.1-2.1L23.37 10l-2.54-2.52a1.43 1.43 0 00-2.1 0 1.48 1.48 0 000 2.1l2.54 2.54-2.54 2.48a1.43 1.43 0 000 2.1 1.47 1.47 0 002.1 0l2.48-2.48 2.48 2.48a1.47 1.47 0 002.1 0 1.43 1.43 0 000-2.1l-2.43-2.48z"/></svg>