<svg viewBox="0 0 16 16" xmlns="http://www.w3.org/2000/svg"><g clip-path="url(#clip0)"><path d="M8.17995 16C7.96995 16 7.76995 15.99 7.55995 15.98C3.55995 15.68 0.319951 12.44 0.0199506 8.43997C-0.260049 4.71997 1.99995 1.27997 5.51995 0.0599671C5.97995 -0.110033 6.48995 0.0599671 6.76995 0.459967C7.04995 0.859967 7.02995 1.37997 6.72995 1.75997C5.80995 2.90997 5.40995 4.35997 5.60995 5.83997C5.91995 8.15997 7.83995 10.08 10.16 10.39C11.63 10.59 13.08 10.19 14.2299 9.26997C14.61 8.95997 15.13 8.94997 15.53 9.22997C15.9299 9.50997 16.09 10.01 15.93 10.48C14.79 13.8 11.66 16 8.17995 16ZM4.76995 2.04997C2.61995 3.32997 1.32995 5.74997 1.51995 8.31997C1.76995 11.58 4.40995 14.23 7.67995 14.48C10.25 14.68 12.67 13.38 13.95 11.23C12.7299 11.84 11.36 12.07 9.96995 11.88C6.98995 11.48 4.52995 9.01997 4.12995 6.03997C3.93995 4.64997 4.16995 3.26997 4.76995 2.04997Z"/></g><defs><clipPath><rect/></clipPath></defs></svg>