<svg viewBox="0 0 16 16" xmlns="http://www.w3.org/2000/svg"><g clip-path="url(#clip0_335_158)"><path d="M15.5811 12.4252C15.5546 12.4252 15.5272 12.4274 15.4992 12.4322C15.0497 12.5087 14.6046 12.5454 14.1666 12.5454C10.3749 12.5454 7.20392 9.79056 7.20392 6.27791C7.20392 4.02125 8.55527 1.94602 10.7525 0.828226C11.0911 0.656379 11.006 0.197549 10.6213 0.133981C10.1734 0.0597712 9.44035 0.000203295 8.98563 0.000203295C4.01126 -0.0311984 0 3.5793 0 8.00047C0 12.4145 4.00327 16 8.95036 16C11.7115 16 14.2334 14.8769 15.9011 13.0384C16.129 12.7538 15.8811 12.4252 15.5811 12.4252ZM8.95036 14.2858C5.07507 14.2858 1.91965 11.4646 1.91965 8.00047C1.91965 5.27492 3.87009 2.95077 6.58679 2.07939C5.72695 3.32218 5.24704 4.77209 5.24704 6.27914C5.24704 9.83036 7.85176 12.8466 11.4419 13.8787C10.658 14.1465 9.8142 14.2858 8.95036 14.2858Z"/></g><defs><clipPath><rect/></clipPath></defs></svg>