<svg data-name="Layer 1" xmlns="http://www.w3.org/2000/svg" viewBox="0 0 32 32"><path d="M27.33 27.67l-.12.11a3.33 3.33 0 01-.87.59v1.33H3.49V2.3H17.2v7.42a1.72 1.72 0 001.71 1.71h7.43v1.33a3.49 3.49 0 01.87.59l.12.11 1.29 1.31V9.72a4.76 4.76 0 00-1.21-2.93l-5.57-5.57A4.78 4.78 0 0018.91 0h-16a1.71 1.71 0 00-1.7 1.72v28.56A1.71 1.71 0 002.92 32h24a1.71 1.71 0 001.71-1.71v-3.92l-1.29 1.31zM19.49 2.44a2.28 2.28 0 01.73.39l5.59 5.59a2.22 2.22 0 01.39.73h-6.71V2.44zm11.3 18.12a1.34 1.34 0 00-.42-1L25.83 15a1.38 1.38 0 00-1.88 0 1.34 1.34 0 00-.37.89v1.48a.43.43 0 01-.43.43h-5.53a.42.42 0 00-.41.29v5.01a.42.42 0 00.41.29H23a.43.43 0 01.43.43v1.42a1.35 1.35 0 00.38.89 1.38 1.38 0 001.88 0l4.54-4.6a1.36 1.36 0 00.42-1l.14.03z"/></svg>