<svg viewBox="0 0 16 16" xmlns="http://www.w3.org/2000/svg"><path d="M15.72 0.160008C15.54 0.0200079 15.31 -0.0299921 15.08 0.0200079L6.33 2.04001C5.99 2.12001 5.75 2.42001 5.75 2.77001V11.24C5.16 10.93 4.43 10.75 3.63 10.75C1.59 10.75 0 11.9 0 13.37C0 14.84 1.59 16 3.63 16C5.66 16 7.25 14.85 7.25 13.37C7.25 13.37 7.25 13.37 7.25 13.36V3.36001L14.5 1.69001V3.16001L8.83 4.48001C8.43 4.57001 8.17 4.98001 8.27 5.38001C8.35 5.73001 8.65 5.96001 9 5.96001C9.06 5.96001 9.11 5.95001 9.17 5.94001L14.5 4.71001V9.25001C13.91 8.94001 13.18 8.75001 12.38 8.75001C10.35 8.75001 8.76 9.91001 8.76 11.39C8.76 12.87 10.35 14.03 12.38 14.03C14.41 14.03 16 12.87 16 11.4V0.750008C16 0.520008 15.9 0.310008 15.72 0.160008ZM3.63 14.5C2.41 14.5 1.5 13.91 1.5 13.37C1.5 12.84 2.41 12.24 3.63 12.24C4.85 12.24 5.75 12.83 5.75 13.37C5.75 13.91 4.84 14.5 3.63 14.5ZM12.38 12.52C11.16 12.52 10.26 11.92 10.26 11.38C10.26 10.84 11.17 10.24 12.38 10.24C13.59 10.24 14.5 10.84 14.5 11.38C14.5 11.92 13.59 12.52 12.38 12.52Z"/></svg>