<svg viewBox="0 0 16 16" xmlns="http://www.w3.org/2000/svg"><path d="M4.05 13.36C3.68 13.36 3.32 13.21 3.05 12.95C2.73 12.63 2.58 12.16 2.66 11.71L3 9.77C3.07 9.35 3.27 8.97 3.58 8.66L11.63 0.61C12.41 -0.17 13.77 -0.17 14.55 0.61L15.39 1.45C16.2 2.26 16.2 3.57 15.39 4.37L7.34 12.42C7.04 12.72 6.66 12.92 6.23 13L4.29 13.34C4.21 13.35 4.13 13.36 4.05 13.36ZM13.09 1.5C12.94 1.5 12.8 1.56 12.69 1.67L4.63 9.72C4.55 9.8 4.5 9.91 4.48 10.02L4.16 11.83L5.97 11.51C6.09 11.49 6.19 11.43 6.27 11.35L14.32 3.3C14.54 3.08 14.54 2.72 14.32 2.5L13.48 1.66C13.38 1.56 13.23 1.5 13.09 1.5Z"/><path d="M12.61 16H2.07C0.93 16 0 15.07 0 13.93V2.07C0 0.93 0.93 0 2.07 0H9.01C9.42 0 9.76 0.34 9.76 0.75C9.76 1.16 9.42 1.5 9.01 1.5H2.07C1.75 1.5 1.5 1.75 1.5 2.07V13.93C1.5 14.24 1.75 14.5 2.07 14.5H12.61C12.92 14.5 13.18 14.25 13.18 13.93V8.3C13.18 7.89 13.52 7.55 13.93 7.55C14.34 7.55 14.68 7.89 14.68 8.3V13.92C14.68 15.07 13.75 16 12.61 16Z"/></svg>