<svg viewBox="0 0 16 16" xmlns="http://www.w3.org/2000/svg"><g clip-path="url(#clip0_2589_43380)"><path d="M11 7H5C4.45 7 4 7.3375 4 7.75C4 8.1625 4.45 8.5 5 8.5H11C11.5542 8.5 12 8.16562 12 7.75C12 7.33437 11.5542 7 11 7ZM7 10H5C4.45 10 4 10.3375 4 10.75C4 11.1625 4.44792 11.5 5 11.5H7C7.55208 11.5 8 11.1641 8 10.75C8 10.3359 7.55417 10 7 10ZM11 4H5C4.45 4 4 4.3375 4 4.75C4 5.1625 4.45 5.5 5 5.5H11C11.5542 5.5 12 5.16563 12 4.75C12 4.33437 11.5542 4 11 4ZM13.3333 0H2.66667C1.19375 0 0 0.895313 0 2V14C0 15.1047 1.19375 16 2.66667 16H13.3333C14.8063 16 16 15.1047 16 14V2C16 0.895313 14.8042 0 13.3333 0ZM14 14C14 14.2757 13.7009 14.5 13.3333 14.5H2.66667C2.29908 14.5 2 14.2757 2 14V2C2 1.72431 2.29908 1.5 2.66667 1.5H13.3333C13.7009 1.5 14 1.72431 14 2V14Z"/></g><defs><clipPath><rect/></clipPath></defs></svg>