<svg xmlns="http://www.w3.org/2000/svg" viewBox="0 0 33.39 31.27"><defs><style>.cls-1{fill:#b3b3b3}</style></defs><g id="Layer_2" data-name="Layer 2"><g id="Layer_1-2" data-name="Layer 1"><path class="cls-1" d="M23.26 16l.13.07a7 7 0 00-.81-1.23 11 11 0 00-4.4-3.14c-.32-.14-.65-.24-1-.35l1 1-1.19 7z"/><path class="cls-1" d="M23.26 18.24L17.93 21l-3.59 1.89.69-4 1-5.93-2.48-2.41c-.48 0-1-.07-1.47-.07a16.24 16.24 0 00-4.7.68 13.18 13.18 0 00-3.86 1.85A9.14 9.14 0 001 15.81a6.45 6.45 0 00-1 3.36A6.57 6.57 0 001.22 23a9.91 9.91 0 003.35 3 7.79 7.79 0 01-.36 1c-.13.32-.25.59-.36.8a6.3 6.3 0 01-.44.69A4.84 4.84 0 013 29l-.46.51-.43.49-.11.08a.58.58 0 00-.1.12l-.08.12a.33.33 0 00-.06.13v.13a.17.17 0 000 .16.72.72 0 00.24.39.52.52 0 00.41.12A9.35 9.35 0 003.93 31a14.65 14.65 0 006.21-3.27 16.67 16.67 0 002 .11 15.68 15.68 0 006.08-1.15 10.88 10.88 0 004.4-3.15 6.71 6.71 0 001.63-4.34v-.46z"/><path class="cls-1" d="M23.26 0l-3.13 6.34-7 1.02 5.06 4.94L17 19.27l6.26-3.29 6.26 3.29-1.19-6.97 5.06-4.94-7-1.02L23.26 0z"/></g></g></svg>