<svg viewBox="0 0 16 16" xmlns="http://www.w3.org/2000/svg"><path d="M10.1253 1.05484C4.63524 1.05484 1.97732 8.27419 5.36746 12.5097C6.54482 13.9742 8.22537 14.9484 10.1253 14.9484C11.2962 14.9484 12.3929 14.5903 13.3316 13.9677C11.9187 15.2323 10.0446 16 7.99958 16C7.87378 16 7.74153 16 7.61573 15.9903C3.37402 15.7935 0 12.2935 0 8C0 3.58065 3.58046 0 7.99958 0H8.02538C10.0608 0.00967742 11.9187 0.777419 13.3283 2.03548C12.3929 1.40968 11.293 1.05484 10.1253 1.05484V1.05484ZM13.409 13.8839C12.0897 14.6806 10.4833 14.6452 9.15113 13.6968C10.9639 13.0355 12.3026 10.7419 12.3026 8C12.3026 5.26774 10.9736 2.97419 9.16081 2.30323C10.5091 1.36129 12.1026 1.32581 13.4477 2.14194C16.8636 5.32581 16.8507 10.7129 13.409 13.8839Z"/></svg>