<svg viewBox="0 0 16 16" xmlns="http://www.w3.org/2000/svg"><path d="M13.3581 2.03624H13.3457C11.9121 0.730705 10.0527 0.00641916 8.12395 0.00223802H8.09571C5.99876 -0.0479187 3.968 0.746714 2.45017 2.21133C0.932348 3.67594 0.0517901 5.69056 0.00221219 7.81199C-0.0473657 9.93342 0.738098 11.9879 2.18581 13.5234C3.63352 15.059 5.62489 15.9498 7.72184 16H8.09571C10.039 16.005 11.9147 15.2788 13.3581 13.9625C12.428 14.6105 11.3247 14.9561 10.1955 14.9533C9.27627 14.9425 8.37205 14.7163 7.55383 14.2924C6.73562 13.8685 6.02568 13.2584 5.47977 12.5102C4.51784 11.2872 3.99956 9.76741 4.0114 8.20451V7.82627C4.00756 6.25598 4.5246 4.72979 5.47977 3.49203C6.02998 2.74837 6.74084 2.14169 7.5581 1.71828C8.37536 1.29488 9.27743 1.06595 10.1955 1.04895C11.3122 1.05986 12.4017 1.39933 13.331 2.02595C12.6227 1.67582 11.8403 1.50709 11.0525 1.53458C10.2647 1.56208 9.49565 1.78497 8.81295 2.18364C10.8235 2.62015 12.3212 5.06095 12.3212 7.99768C12.3212 10.9344 10.7964 13.3786 8.81295 13.8163C9.49912 14.2189 10.2733 14.4431 11.0662 14.4686C11.859 14.4941 12.6457 14.3202 13.3558 13.9625C14.1874 13.2135 14.853 12.295 15.3087 11.2672C15.7644 10.2395 16 9.12581 16 7.99939C16 6.87297 15.7644 5.7593 15.3087 4.73155C14.853 3.70381 14.1874 2.78525 13.3558 2.03624H13.3581Z"/></svg>