<svg viewBox="0 0 16 16" xmlns="http://www.w3.org/2000/svg"><g clip-path="url(#clip0_335_217)"><path d="M1.0887 0.219656C1.35012 -0.0732187 1.77419 -0.0732187 2.03561 0.219656L4.52786 3.0125L6.16834 1.17687C6.95231 0.298094 8.22452 0.298094 9.00849 1.17687L13.2325 5.90938C14.0192 6.7875 14.0192 8.2125 13.2325 9.09062L7.92042 15.0437C6.87419 16.2156 5.17791 16.2156 4.13169 15.0437L0.854347 11.3719C-0.191683 10.2 -0.191683 8.3 0.854347 7.12813L3.58207 4.07188L1.0887 1.28031C0.827285 0.9875 0.827285 0.5125 1.0887 0.219656ZM6.44454 7.25313L4.52786 5.13438L1.80125 8.19063C1.59675 8.41875 1.47204 8.70312 1.42768 9H11.4218L12.2867 8.00313C12.5489 7.7375 12.5489 7.2625 12.2867 6.96875L8.0376 2.2375C7.80045 1.94469 7.37638 1.94469 7.11413 2.2375L5.47644 4.07188L7.36801 6.21875C7.65259 6.5125 7.65259 6.9875 7.36801 7.25313C7.13087 7.57188 6.7068 7.57188 6.44454 7.25313ZM12.4987 14C12.4987 13.2125 13.4082 11.5125 13.9272 10.6031C14.0973 10.3094 14.4712 10.3094 14.6414 10.6031C15.1603 11.5125 16.0698 13.2125 16.0698 14C16.0698 15.1031 15.2691 16 14.2843 16C13.2994 16 12.4987 15.1031 12.4987 14Z"/></g><defs><clipPath><rect/></clipPath></defs></svg>