<svg viewBox="0 0 16 16" xmlns="http://www.w3.org/2000/svg"><g clip-path="url(#clip0)"><path d="M15.5998 11.99L13.9998 9.40002C13.7298 8.96002 12.9998 8.96002 12.7298 9.40002C12.7298 9.41002 11.1698 11.94 11.1298 11.99C10.8798 12.4 10.7398 12.87 10.7398 13.36C10.7398 14.8 11.9098 15.98 13.3598 15.98C14.8098 15.98 15.9798 14.81 15.9798 13.36C15.9898 12.88 15.8498 12.4 15.5998 11.99ZM13.3698 14.48C12.7498 14.48 12.2498 13.98 12.2498 13.36C12.2498 13.15 12.3098 12.95 12.4198 12.77C12.4498 12.72 12.9398 11.92 13.3698 11.22L14.3298 12.77C14.4398 12.94 14.4898 13.15 14.4898 13.35C14.4898 13.98 13.9898 14.48 13.3698 14.48Z"/><path d="M13.3798 4.61002L6.03979 0.0900179C5.68979 -0.119982 5.21979 -0.00998214 5.00979 0.340018L4.62979 0.950018L4.53979 0.900018C3.26979 0.110018 1.57979 0.510018 0.799787 1.79002L0.419787 2.41002C0.0397874 3.03002 -0.0802126 3.76002 0.0897874 4.47002C0.259787 5.18002 0.689787 5.78002 1.30979 6.16002L1.39979 6.21002L0.0797874 8.34002C-0.0202127 8.51002 -0.0602126 8.71002 -0.0102126 8.91002C0.0397874 9.11002 0.159787 9.27002 0.329787 9.37002L7.67979 13.89C7.79979 13.96 7.92979 14 8.06979 14C8.31979 14 8.56979 13.87 8.70979 13.64L13.6298 5.64002C13.8498 5.29002 13.7398 4.83002 13.3798 4.61002ZM2.09979 4.88002C1.81979 4.71002 1.61979 4.44002 1.54979 4.12002C1.46979 3.80002 1.51979 3.47002 1.69979 3.19002L2.07979 2.57002C2.24979 2.30002 2.51979 2.10002 2.82979 2.03002C3.14979 1.95002 3.47979 2.00002 3.75979 2.18002L3.83979 2.23002L2.17979 4.93002L2.09979 4.88002ZM7.81979 12.22L1.74979 8.49002L5.88979 1.77002L10.7398 4.76002H5.63979C5.22979 4.76002 4.88979 5.10002 4.88979 5.51002C4.88979 5.92002 5.22979 6.26002 5.63979 6.26002H11.4898L7.81979 12.22Z"/></g><defs><clipPath><rect/></clipPath></defs></svg>