<svg viewBox="0 0 16 16" xmlns="http://www.w3.org/2000/svg"><path d="M4 8C4.55228 8 5 7.55228 5 7C5 6.44772 4.55228 6 4 6C3.44772 6 3 6.44772 3 7C3 7.55228 3.44772 8 4 8Z"/><path d="M12 8C12.5523 8 13 7.55228 13 7C13 6.44772 12.5523 6 12 6C11.4477 6 11 6.44772 11 7C11 7.55228 11.4477 8 12 8Z"/><path d="M6 5C6.55228 5 7 4.55228 7 4C7 3.44772 6.55228 3 6 3C5.44772 3 5 3.44772 5 4C5 4.55228 5.44772 5 6 5Z"/><path d="M10 5C10.5523 5 11 4.55228 11 4C11 3.44772 10.5523 3 10 3C9.44771 3 9 3.44772 9 4C9 4.55228 9.44771 5 10 5Z"/><path d="M8.18 15.99C7.19 15.99 6.41 15.54 6.09 14.78C5.8 14.09 5.95 13.3 6.47 12.75C6.64 12.58 6.75 12.31 6.62 12.17C6.5 12.04 5.97 12.05 5.77 12.05H4.71C2.11 12.04 0 9.86 0 7.18C0 3.65 2.99 0 8 0C12.41 0 16 3.59 16 8C16 9.27 15.71 10.48 15.15 11.6C14.96 11.97 14.51 12.12 14.14 11.93C13.77 11.74 13.62 11.29 13.81 10.92C14.27 10.01 14.5 9.03 14.5 8C14.5 4.42 11.58 1.5 8 1.5C3.93 1.5 1.5 4.39 1.5 7.18C1.5 9 2.97 10.55 4.7 10.55H5.67C6.29 10.55 7.16 10.54 7.72 11.16C8.38 11.89 8.31 12.99 7.55 13.79C7.44 13.9 7.41 14.06 7.46 14.19C7.54 14.38 7.81 14.49 8.17 14.49C9.04 14.49 11.09 14.09 12.59 12.59C12.88 12.3 13.36 12.3 13.65 12.59C13.94 12.88 13.94 13.36 13.65 13.65C11.82 15.5 9.35 15.99 8.18 15.99Z"/></svg>