<svg viewBox="0 0 16 16" xmlns="http://www.w3.org/2000/svg"><path d="M15.25 16H0.75C0.34 16 0 15.66 0 15.25V0.75C0 0.33 0.34 0 0.75 0H15.25C15.66 0 16 0.33 16 0.75V15.25C16 15.66 15.66 16 15.25 16ZM1.5 14.5H14.5V1.5H1.5V14.5Z"/><path d="M12.5 13.25H11.25C10.84 13.25 10.5 12.91 10.5 12.5C10.5 12.09 10.84 11.75 11.25 11.75H11.75V11.25C11.75 10.84 12.09 10.5 12.5 10.5C12.91 10.5 13.25 10.84 13.25 11.25V12.5C13.25 12.91 12.91 13.25 12.5 13.25Z"/><path d="M12.5 9.52C12.09 9.52 11.75 9.18 11.75 8.77V7.22C11.75 6.81 12.09 6.47 12.5 6.47C12.91 6.47 13.25 6.81 13.25 7.22V8.77C13.25 9.19 12.91 9.52 12.5 9.52Z"/><path d="M12.5 5.5C12.09 5.5 11.75 5.16 11.75 4.75V4.25H11.25C10.84 4.25 10.5 3.91 10.5 3.5C10.5 3.09 10.84 2.75 11.25 2.75H12.5C12.91 2.75 13.25 3.09 13.25 3.5V4.75C13.25 5.16 12.91 5.5 12.5 5.5Z"/><path d="M8.77 4.25H7.23C6.82 4.25 6.48 3.91 6.48 3.5C6.48 3.09 6.82 2.75 7.23 2.75H8.78C9.19 2.75 9.53 3.09 9.53 3.5C9.53 3.91 9.19 4.25 8.77 4.25Z"/><path d="M3.5 5.5C3.09 5.5 2.75 5.16 2.75 4.75V3.5C2.75 3.09 3.09 2.75 3.5 2.75H4.75C5.16 2.75 5.5 3.09 5.5 3.5C5.5 3.91 5.16 4.25 4.75 4.25H4.25V4.75C4.25 5.16 3.91 5.5 3.5 5.5Z"/><path d="M3.5 9.52C3.09 9.52 2.75 9.18 2.75 8.77V7.22C2.75 6.81 3.09 6.47 3.5 6.47C3.91 6.47 4.25 6.81 4.25 7.22V8.77C4.25 9.19 3.91 9.52 3.5 9.52Z"/><path d="M4.75 13.25H3.5C3.09 13.25 2.75 12.91 2.75 12.5V11.25C2.75 10.84 3.09 10.5 3.5 10.5C3.91 10.5 4.25 10.84 4.25 11.25V11.75H4.75C5.16 11.75 5.5 12.09 5.5 12.5C5.5 12.91 5.16 13.25 4.75 13.25Z"/><path d="M8.77 13.25H7.23C6.82 13.25 6.48 12.91 6.48 12.5C6.48 12.09 6.82 11.75 7.23 11.75H8.78C9.19 11.75 9.53 12.09 9.53 12.5C9.53 12.91 9.19 13.25 8.77 13.25Z"/></svg>