<svg viewBox="0 0 16 16" xmlns="http://www.w3.org/2000/svg"><path d="M15.7059 6.20625L13.7919 4.29219C13.606 4.10625 13.3529 4 13.0872 4H7.99985C6.89674 4 5.97176 4.89688 5.99988 6L6.00009 13.9719C5.99988 15.1031 6.89674 16 7.99985 16H13.9997C15.0997 16 15.9997 15.1 15.9997 14L16 6.91563C15.9997 6.65 15.8934 6.39375 15.7059 6.20625ZM14.4997 14C14.4997 14.2761 14.2759 14.5 13.9997 14.5H7.99985C7.72366 14.5 7.49986 14.2761 7.49986 14V6.00313C7.49986 5.727 7.72373 5.50313 7.99985 5.50313H11.9998V7C11.9998 7.55219 12.4476 8 12.9998 8H14.5V14H14.4997ZM9.92793 3C9.70606 2.13906 8.93108 1.5 7.99985 1.5H6.72487C6.603 0.654063 5.87801 0 4.9999 0C4.1218 0 3.39681 0.654063 3.27494 1.5H1.99996C0.895295 1.5 0 2.39531 0 3.5V12C0 13.1044 0.895295 14 1.99996 14H4.9999V12.5H1.99996C1.72384 12.5 1.49997 12.2761 1.49997 12V3.5C1.49997 3.225 1.72434 3 1.99996 3H2.49995V3.5C2.49995 4.05219 2.94776 4.5 3.49993 4.5H5.41708C5.93739 3.60625 6.89362 3 7.99985 3H9.92793ZM4.9999 2.25C4.72422 2.25 4.49991 2.02575 4.49991 1.75C4.49991 1.47425 4.72422 1.25 4.9999 1.25C5.27559 1.25 5.49989 1.47425 5.49989 1.75C5.49989 2.02575 5.2749 2.25 4.9999 2.25Z"/></svg>