<svg data-name="Layer 1" xmlns="http://www.w3.org/2000/svg" viewBox="0 0 32 32"><path d="M10.73 17.3A5.24 5.24 0 0016 12.05v-1.43A4.81 4.81 0 0011 6h-.83a4.48 4.48 0 00-4.63 4.58v1.43a5.27 5.27 0 005.24 5.24zm2.37 1.54a.94.94 0 00-.39.06 5.28 5.28 0 01-4.47 0 1.08 1.08 0 00-.44-.06C4.61 18.84 2.18 21 2.18 24v1.55c0 .44.5.44 1 .44h14.67c.44 0 .88 0 .88-.5v-1.57c0-2.92-2.37-5.08-5.63-5.08zm14.46-4.03v-1A3.68 3.68 0 0023.92 10h-.61a4 4 0 00-4 3.81v1a4.14 4.14 0 008.28 0zm-2.1 5.52a.7.7 0 00-.33.06 3.9 3.9 0 01-3.15 0 .79.79 0 00-1 .28.91.91 0 000 1c.06.06.94 1.21.55 3.7-.06.22.06.28.22.44s.39.06.66.06h6.69c.44 0 .72.06.72-.44V24.3a4.09 4.09 0 00-4.36-3.97z"/></svg>