<svg viewBox="0 0 16 16" xmlns="http://www.w3.org/2000/svg"><g clip-path="url(#clip0_35_2293)"><path d="M7.99992 8.41001C7.24398 8.41199 6.50444 8.18963 5.87493 7.77109C5.24542 7.35255 4.75424 6.75664 4.46358 6.0588C4.17292 5.36096 4.09584 4.59258 4.24211 3.85091C4.38837 3.10925 4.7514 2.42765 5.28524 1.89242C5.81907 1.35718 6.49971 0.992364 7.24099 0.844156C7.98227 0.695949 8.75086 0.771011 9.44946 1.05984C10.1481 1.34867 10.7452 1.83828 11.1654 2.46669C11.5856 3.0951 11.8099 3.83406 11.8099 4.59001C11.8099 5.60141 11.4088 6.57152 10.6946 7.28763C9.98038 8.00373 9.01132 8.40736 7.99992 8.41001ZM7.99992 2.27001C7.54065 2.26803 7.09112 2.40241 6.70829 2.65613C6.32545 2.90985 6.02654 3.27149 5.84941 3.69523C5.67228 4.11898 5.6249 4.58576 5.71329 5.03646C5.80167 5.48715 6.02184 5.90147 6.3459 6.22693C6.66995 6.55239 7.08332 6.77434 7.53362 6.86467C7.98393 6.955 8.45092 6.90965 8.87542 6.73435C9.29993 6.55905 9.66286 6.2617 9.91823 5.87996C10.1736 5.49823 10.3099 5.04929 10.3099 4.59001C10.3099 3.97643 10.0669 3.38784 9.63395 2.95305C9.20103 2.51825 8.61349 2.27265 7.99992 2.27001Z"/><path d="M12.1203 15.22C11.9528 15.2187 11.7905 15.1621 11.6585 15.059C11.5265 14.956 11.4322 14.8122 11.3903 14.65L10.6703 11.65C10.6166 11.4072 10.483 11.1895 10.2907 11.0317C10.0985 10.874 9.85893 10.7853 9.61033 10.78H6.40033C6.15173 10.7853 5.91212 10.874 5.71992 11.0317C5.52771 11.1895 5.39404 11.4072 5.34033 11.65L4.62033 14.65C4.59735 14.7459 4.55571 14.8363 4.49779 14.916C4.43988 14.9958 4.36681 15.0634 4.28278 15.1149C4.19874 15.1665 4.10537 15.2009 4.00801 15.2164C3.91065 15.2318 3.8112 15.228 3.71533 15.205C3.61947 15.182 3.52907 15.1404 3.44929 15.0824C3.36952 15.0245 3.30194 14.9515 3.2504 14.8674C3.19886 14.7834 3.16438 14.69 3.14893 14.5927C3.13348 14.4953 3.13735 14.3959 3.16033 14.3L3.88033 11.3C4.0166 10.733 4.3388 10.228 4.79553 9.86554C5.25227 9.50305 5.81724 9.30395 6.40033 9.29999H9.61033C10.1934 9.30395 10.7584 9.50305 11.2151 9.86554C11.6719 10.228 11.9941 10.733 12.1303 11.3L12.8503 14.3C12.8956 14.4922 12.8632 14.6945 12.7603 14.863C12.6573 15.0315 12.492 15.1526 12.3003 15.2C12.2418 15.2166 12.181 15.2233 12.1203 15.22Z"/><path d="M0.7498 13.45C0.68683 13.4596 0.622769 13.4596 0.5598 13.45C0.458514 13.4282 0.362849 13.3856 0.278837 13.325C0.194824 13.2643 0.124287 13.1869 0.0716728 13.0977C0.0190584 13.0084 -0.0144916 12.9092 -0.0268619 12.8064C-0.0392321 12.7035 -0.0301541 12.5992 -0.000200409 12.5L0.4498 10.8C0.586571 10.3224 0.877528 9.90359 1.2773 9.60874C1.67706 9.31389 2.16317 9.15962 2.6598 9.16999H3.1698C3.36871 9.16999 3.55948 9.249 3.70013 9.38966C3.84078 9.53031 3.9198 9.72107 3.9198 9.91999C3.9198 10.1189 3.84078 10.3097 3.70013 10.4503C3.55948 10.591 3.36871 10.67 3.1698 10.67H2.6598C2.49763 10.6632 2.33781 10.7106 2.2056 10.8048C2.0734 10.8989 1.97635 11.0345 1.9298 11.19L1.4698 12.89C1.42959 13.0503 1.33684 13.1926 1.20634 13.2941C1.07584 13.3956 0.915119 13.4505 0.7498 13.45Z"/><path d="M3.57971 8.50998C2.9256 8.50043 2.29684 8.25546 1.80868 7.81996C1.32053 7.38446 1.00568 6.78762 0.921847 6.13883C0.838015 5.49005 0.990816 4.83278 1.35224 4.28751C1.71367 3.74223 2.25951 3.34548 2.88971 3.16998C2.98492 3.14427 3.08426 3.13759 3.18206 3.15032C3.27985 3.16305 3.37418 3.19494 3.45963 3.24417C3.54509 3.2934 3.61999 3.359 3.68006 3.43721C3.74013 3.51543 3.78419 3.60472 3.80971 3.69998C3.85854 3.89352 3.82928 4.0985 3.72824 4.27064C3.6272 4.44279 3.4625 4.56827 3.26971 4.61998C2.99791 4.70723 2.76532 4.88701 2.6124 5.12805C2.45949 5.36909 2.39593 5.65612 2.4328 5.93918C2.46967 6.22224 2.60463 6.48341 2.81419 6.67724C3.02375 6.87106 3.29463 6.98527 3.57971 6.99998C3.77862 6.99998 3.96939 7.079 4.11004 7.21965C4.25069 7.3603 4.32971 7.55107 4.32971 7.74998C4.32971 7.94889 4.25069 8.13966 4.11004 8.28031C3.96939 8.42096 3.77862 8.49998 3.57971 8.49998V8.50998Z"/><path d="M15.2501 13.45C15.0848 13.4505 14.924 13.3956 14.7935 13.2941C14.663 13.1926 14.5703 13.0503 14.5301 12.89L14.0701 11.19C14.0235 11.0345 13.9265 10.8989 13.7943 10.8048C13.6621 10.7106 13.5023 10.6632 13.3401 10.67H12.8301C12.6312 10.67 12.4404 10.591 12.2997 10.4503C12.1591 10.3097 12.0801 10.1189 12.0801 9.91999C12.0801 9.72107 12.1591 9.53031 12.2997 9.38966C12.4404 9.249 12.6312 9.16999 12.8301 9.16999H13.3401C13.8316 9.16625 14.3108 9.32359 14.7045 9.61794C15.0982 9.91229 15.3846 10.3275 15.5201 10.8L16.0001 12.5C16.0258 12.5952 16.0325 12.6945 16.0197 12.7923C16.007 12.8901 15.9751 12.9845 15.9259 13.0699C15.8767 13.1554 15.8111 13.2303 15.7328 13.2903C15.6546 13.3504 15.5653 13.3945 15.4701 13.42C15.3991 13.4429 15.3246 13.4531 15.2501 13.45Z"/><path d="M12.4404 8.50998C12.2415 8.50998 12.0508 8.43097 11.9101 8.29031C11.7694 8.14966 11.6904 7.9589 11.6904 7.75998C11.6904 7.56107 11.7694 7.37031 11.9101 7.22965C12.0508 7.089 12.2415 7.00998 12.4404 7.00998C12.6006 7.00998 12.7593 6.97843 12.9073 6.91712C13.0553 6.85581 13.1898 6.76594 13.3031 6.65265C13.4164 6.53937 13.5063 6.40487 13.5676 6.25686C13.6289 6.10884 13.6604 5.9502 13.6604 5.78998C13.6599 5.52167 13.5703 5.26113 13.4055 5.04934C13.2408 4.83754 13.0104 4.68651 12.7504 4.61998C12.5646 4.56384 12.4078 4.43786 12.313 4.26852C12.2182 4.09918 12.1927 3.89966 12.2419 3.71191C12.2911 3.52416 12.4111 3.36279 12.5768 3.26173C12.7425 3.16067 12.941 3.12778 13.1304 3.16998C13.7759 3.33012 14.3399 3.72201 14.7152 4.27106C15.0905 4.82011 15.2507 5.48797 15.1655 6.14752C15.0803 6.80708 14.7555 7.41227 14.253 7.84789C13.7505 8.28352 13.1054 8.51917 12.4404 8.50998Z"/></g><defs><clipPath><rect/></clipPath></defs></svg>