<svg viewBox="0 0 16 16" xmlns="http://www.w3.org/2000/svg"><path d="M7.9975 10.375C9.43275 10.375 10.575 9.01094 10.575 7.32812C10.575 5.64531 9.4115 4.28125 7.9975 4.28125C6.56225 4.28125 5.42 5.64531 5.42 7.32812C5.3975 9.00977 6.5625 10.375 7.9975 10.375ZM7.9975 5.6875C8.76875 5.6875 9.3965 6.42344 9.3965 7.32812C9.3965 8.23281 8.7675 8.96875 7.9975 8.96875C7.2275 8.96875 6.5975 8.2334 6.5975 7.32812C6.5975 6.42285 7.225 5.6875 7.9975 5.6875ZM12.8 5.6875C13.9045 5.6875 14.8 4.63809 14.8 3.34375C14.8 2.04941 13.905 1 12.8 1C11.6955 1 10.8 2.04941 10.8 3.34375C10.8 4.63809 11.695 5.6875 12.8 5.6875ZM9.2475 11.3125H6.7525C4.79 11.3125 3.2 13.0615 3.2 15.2178C3.2 15.6514 3.5175 16 3.91 16H12.09C12.4825 16 12.8 15.6514 12.8 15.2178C12.8 13.0615 11.21 11.3125 9.2475 11.3125ZM4.4525 14.5938C4.71425 13.5168 5.6365 12.7188 6.731 12.7188H9.2475C10.3418 12.7188 11.264 13.5168 11.526 14.5938H4.4525ZM13.7975 6.625H12.2515C11.9315 6.625 11.6295 6.71397 11.355 6.86641C11.37 7.02051 11.395 7.16992 11.395 7.32812C11.395 8.31572 11.0755 9.20928 10.566 9.90625H15.5585C15.8025 9.90625 16 9.66016 16 9.3584C16 7.84961 15.015 6.625 13.7975 6.625ZM4.5975 7.32812C4.5975 7.16849 4.62206 7.0167 4.63773 6.86201C4.365 6.68652 4.065 6.625 3.7475 6.625H2.202C0.986 6.625 0 7.84961 0 9.3584C0 9.66016 0.197175 9.90625 0.4405 9.90625H5.428C4.9175 9.20898 4.5975 8.31543 4.5975 7.32812ZM3.2 5.6875C4.3045 5.6875 5.2 4.63809 5.2 3.34375C5.2 2.04941 4.305 1 3.2 1C2.0955 1 1.2 2.04941 1.2 3.34375C1.2 4.63809 2.0955 5.6875 3.2 5.6875Z"/></svg>