<svg viewBox="0 0 16 16" xmlns="http://www.w3.org/2000/svg"><path d="M4.94063 9.90312L4.31875 11.3469C4.28125 11.4406 4.19062 11.5 4.09375 11.5H1.75C1.33594 11.5 1 11.8359 1 12.25C1 12.6641 1.33594 13 1.75 13H4.09375C4.79312 13 5.42562 12.5859 5.70312 11.9656L6.125 10.9531L5.82812 10.7734C5.45625 10.5469 5.1625 10.2469 4.94063 9.90312ZM9.5 3C10.3281 3 11 2.32812 11 1.5C11 0.671875 10.3281 0 9.5 0C8.67188 0 8 0.671875 8 1.5C8 2.32812 8.67188 3 9.5 3ZM13.25 7.51562L11.7381 7.51172C11.6287 7.51172 11.5311 7.44141 11.4998 7.33594L11.0661 5.89844C10.777 4.95687 10.0036 4.23438 9.03859 4.01937L6.59375 3.46563C6.39062 3.41875 6.15938 3.39687 5.98438 3.39687C5.38219 3.39687 4.79344 3.59675 4.30562 3.97375L2.79312 5.14062C2.60219 5.2875 2.5025 5.50625 2.5025 5.73125C2.5025 6.12031 2.8115 6.4825 3.25187 6.4825C3.41306 6.4825 3.57531 6.43097 3.71094 6.32478L5.2225 5.16072C5.44425 4.98856 5.71406 4.89925 5.9875 4.89925C6.08022 4.89925 6.17341 4.9095 6.26534 4.93026L6.73125 5.03125L5.625 7.7625C5.5375 7.97812 5.49687 8.2 5.49687 8.41875C5.49687 9.01625 5.80281 9.58938 6.34281 9.91813L8.96 11.4963C9.03738 11.5427 9.08288 11.6259 9.08288 11.7129C9.08288 11.7357 9.07975 11.7587 9.07327 11.7814L8.03125 15.0437C8.01172 15.1124 8.00241 15.1817 8.00241 15.2499C8.00313 15.4969 8.19063 16 8.75313 16C9.08125 16 9.38188 15.7852 9.47563 15.4569L10.5147 12.1912C10.5607 12.0318 10.5829 11.87 10.5829 11.7097C10.5829 11.1091 10.2709 10.5344 9.73725 10.2106L8.11875 9.23438L9.43125 5.9625C9.51719 6.07578 9.5875 6.19688 9.63047 6.3375L10.068 7.775C10.2906 8.51313 10.9627 9.01313 11.7361 9.01313L13.248 9.02094C13.662 9.02094 14.0017 8.685 14.0017 8.27094C14 7.85625 13.6687 7.51875 13.25 7.51562Z"/></svg>