<svg data-name="Layer 1" xmlns="http://www.w3.org/2000/svg" viewBox="0 0 32 32"><path d="M16.55 7h-1a5 5 0 00-5.3 5.19v1.71a6 6 0 1011.92 0v-1.76C22.18 9 19.64 7 16.55 7z"/><path d="M16 .06a15.93 15.93 0 00-9.54 28.68 16.67 16.67 0 003.64 2 16.08 16.08 0 005.9 1.21 15 15 0 005.9-1.16 14.74 14.74 0 003.64-2A15.93 15.93 0 0016 .05zM25.27 26c-.72-2.54-3-4.19-6.18-4.19-.11 0-.17 0-.22.06a6.61 6.61 0 01-5.68 0h-.06c-.11-.06-.11-.06-.17-.06A6.16 6.16 0 006.73 26a13.68 13.68 0 1123-10 13.59 13.59 0 01-4.46 10z"/></svg>