<svg xmlns="http://www.w3.org/2000/svg" viewBox="0 0 16 16"><path d="M14.291 11.809 12.2 9.719a.764.764 0 0 0-1.07.026l-.295.294-.417.411a2.021 2.021 0 0 1-2.854.067l-.349-.347-1.736-1.74a2.02 2.02 0 0 1 .068-2.855l.235-.229.181-.179.295-.3A.76.76 0 0 0 6.281 3.8l-2.09-2.089a.757.757 0 0 0-1.068.025l-.471.53a3.664 3.664 0 0 0-1.034 1.882c-.246 1.535.655 4.478 3.224 7.045a.075.075 0 0 0 .014.012l.013.014c2.567 2.569 5.511 3.471 7.045 3.225a3.657 3.657 0 0 0 1.886-1.033l.472-.53a.763.763 0 0 0 .019-1.072z"/><path d="M11.5 1.258A3.242 3.242 0 1 0 14.742 4.5 3.242 3.242 0 0 0 11.5 1.258zM13.25 5H11V2.75a.5.5 0 0 1 1 0V4h1.25a.5.5 0 0 1 0 1z"/></svg>