<svg xmlns="http://www.w3.org/2000/svg" viewBox="0 0 16 16"><path d="m13.884 6.9-.955-.958a.351.351 0 0 0-.491.013l-.135.135-.191.188a.926.926 0 0 1-1.308.031l-.159-.158-.8-.8a.926.926 0 0 1 .031-1.308l.107-.105.083-.083.136-.136a.347.347 0 0 0 .011-.49l-.957-.957a.345.345 0 0 0-.489.012l-.217.242a1.682 1.682 0 0 0-.474.862 4.326 4.326 0 0 0 1.48 3.231h.006l.006.008A4.312 4.312 0 0 0 12.8 8.108a1.665 1.665 0 0 0 .863-.473l.216-.241a.349.349 0 0 0 .005-.494zm.367 4.916-2.088-2.09a.764.764 0 0 0-1.07.026l-.295.294-.417.411a2.021 2.021 0 0 1-2.854.067l-.349-.347-1.739-1.74a2.02 2.02 0 0 1 .068-2.855l.235-.229.181-.179.295-.3a.76.76 0 0 0 .023-1.07l-2.09-2.086a.757.757 0 0 0-1.068.025l-.471.53a3.664 3.664 0 0 0-1.034 1.882C1.332 5.69 2.233 8.633 4.8 11.2a.075.075 0 0 0 .014.012l.013.014C7.4 13.8 10.34 14.7 11.874 14.451a3.657 3.657 0 0 0 1.883-1.033l.472-.53a.763.763 0 0 0 .022-1.072z"/></svg>