<svg xmlns="http://www.w3.org/2000/svg" viewBox="0 0 16 16"><path d="M5.173 2.708 8.6 6.135l3.227-3.226-.707-.709L8.6 4.721 5.879 2H7.99V1H4.173v3.817h1zm10.686 8.8a3.664 3.664 0 0 0-.6-2.063c-.911-1.259-3.629-2.7-7.261-2.7a.052.052 0 0 0-.018 0 .055.055 0 0 0-.019 0C4.329 6.737 1.61 8.181.7 9.439A3.661 3.661 0 0 0 .1 11.5l.041.709a.763.763 0 0 0 .742.774h2.952a.764.764 0 0 0 .739-.775v-1.002a2.022 2.022 0 0 1 1.975-2.063H9.5a2.021 2.021 0 0 1 1.97 2.067v1.001a.758.758 0 0 0 .74.773h2.954a.758.758 0 0 0 .739-.773z"/></svg>