<svg xmlns="http://www.w3.org/2000/svg" viewBox="0 0 16 16"><path d="M12.163 9.726a.765.765 0 00-1.07.025l-.295.295-.417.41a2.021 2.021 0 01-2.854.068l-.349-.347-1.74-1.74a2.022 2.022 0 01.069-2.856l.235-.229.181-.18.295-.3a.759.759 0 00.023-1.07L4.152 1.718a.758.758 0 00-1.069.025l-.47.529a3.665 3.665 0 00-1.035 1.883C1.332 5.69 2.233 8.632 4.8 11.2l.014.012a.075.075 0 00.012.014c2.568 2.568 5.511 3.471 7.045 3.225a3.664 3.664 0 001.883-1.033l.472-.531a.758.758 0 00.023-1.07z"/><path d="M12.163 9.726a.765.765 0 00-1.07.025l-.295.295-.417.41a2.021 2.021 0 01-2.854.068l-.349-.347-1.74-1.74a2.022 2.022 0 01.069-2.856l.235-.229.181-.18.295-.3a.759.759 0 00.023-1.07L4.152 1.718a.758.758 0 00-1.069.025l-.47.529a3.665 3.665 0 00-1.035 1.883C1.332 5.69 2.233 8.632 4.8 11.2l.014.012a.075.075 0 00.012.014c2.568 2.568 5.511 3.471 7.045 3.225a3.664 3.664 0 001.883-1.033l.472-.531a.758.758 0 00.023-1.07z"/><path d="M13.181 2.913c-.326-1.742-1.341-1.842-1.652-1.84h-.139c-.311 0-1.326.1-1.652 1.84 0 0-.4 2.125-1.779 2.135v.959h7v-.959c-1.374-.01-1.778-2.135-1.778-2.135zM11.46 8.206a1.224 1.224 0 001.223-1.2h-2.445a1.222 1.222 0 001.222 1.2z"/></svg>