<svg viewBox="0 0 16 17" xmlns="http://www.w3.org/2000/svg"><path d="M15.7803 2.53033C16.0732 2.23744 16.0732 1.76256 15.7803 1.46967C15.4874 1.17678 15.0126 1.17678 14.7197 1.46967L11.25 4.93934L9.78033 3.46967C9.48744 3.17678 9.01256 3.17678 8.71967 3.46967C8.42678 3.76256 8.42678 4.23744 8.71967 4.53033L10.7197 6.53033C10.8603 6.67098 11.0511 6.75 11.25 6.75C11.4489 6.75 11.6397 6.67098 11.7803 6.53033L15.7803 2.53033Z"/><path fill-rule="evenodd" clip-rule="evenodd" d="M9.61001 9.78C10.33 9.44 11.17 9.53 11.81 10C12.33 10.38 12.82 10.81 13.28 11.29C14.05 12.07 14.07 13.27 13.35 14.2L12.96 14.7C12.3 15.55 11.3 16.01 10.28 16.01C9.79001 16.01 9.31001 15.9 8.85001 15.68C7.02001 14.79 5.35001 13.6 3.88001 12.13C2.41001 10.66 1.21001 8.99 0.330006 7.16C-0.349994 5.75 0.0600061 4.02 1.31001 3.05L1.91001 2.58C2.75001 1.92 3.96001 1.98 4.72001 2.72C5.18001 3.18 5.61001 3.67 5.99001 4.18C6.48001 4.84 6.54001 5.68 6.16001 6.5L5.80001 7.27C5.63001 7.63 5.70001 8.06 5.96001 8.36C6.22001 8.65 6.49001 8.94 6.77001 9.22C7.05001 9.5 7.34001 9.77 7.63001 10.03C7.93001 10.3 8.35001 10.36 8.72001 10.19L9.61001 9.78ZM11.77 13.76L12.16 13.26C12.41 12.93 12.43 12.55 12.2 12.32C11.8 11.92 11.37 11.54 10.92 11.21C10.73 11.06 10.47 11.04 10.25 11.14L9.36001 11.55C8.45001 11.97 7.39001 11.82 6.64001 11.16C6.32001 10.88 6.01001 10.59 5.71001 10.29C5.41001 9.98 5.12001 9.67 4.84001 9.36C4.18001 8.61 4.02001 7.54 4.44001 6.64L4.79001 5.87C4.94001 5.55 4.94001 5.28 4.78001 5.07C4.45001 4.62 4.08001 4.19 3.67001 3.79C3.55001 3.68 3.40001 3.62 3.24001 3.62C3.10001 3.62 2.95001 3.66 2.83001 3.76L2.23001 4.23C1.54001 4.77 1.30001 5.73 1.68001 6.5C2.49001 8.18 3.58001 9.71 4.93001 11.06C6.28001 12.42 7.82001 13.51 9.49001 14.32C10.27 14.69 11.23 14.46 11.77 13.76Z"/></svg>