<svg viewBox="0 0 16 16" xmlns="http://www.w3.org/2000/svg"><path d="M8.0001 15.7001C7.5901 15.7001 7.2501 15.3601 7.2501 14.9501V7.75005C7.2501 7.33005 7.5901 7.00005 8.0001 7.00005C8.4101 7.00005 8.7501 7.34005 8.7501 7.75005V14.9601C8.7501 15.3701 8.4101 15.7001 8.0001 15.7001Z"/><path d="M8.0001 16.0001C7.8001 16.0001 7.6101 15.9201 7.4701 15.7801L4.8401 13.1501C4.5501 12.8601 4.5501 12.3801 4.8401 12.0901C5.1301 11.8001 5.6101 11.8001 5.9001 12.0901L8.0001 14.1901L10.1001 12.0901C10.3901 11.8001 10.8701 11.8001 11.1601 12.0901C11.4501 12.3801 11.4501 12.8601 11.1601 13.1501L8.5301 15.7801C8.3901 15.9201 8.2001 16.0001 8.0001 16.0001Z"/><path d="M2.2601 7.55005C2.2301 7.55005 2.1901 7.55005 2.1601 7.55005C1.0901 7.54005 0.250099 6.73005 0.100099 5.59005L0.030099 4.97005C-0.159901 3.44005 0.740099 1.96005 2.1801 1.46005C5.8801 0.170054 10.1101 0.170054 13.8201 1.46005C15.2601 1.96005 16.1601 3.44005 15.9701 4.97005L15.8801 5.70005C15.7501 6.74005 14.8701 7.54005 13.8401 7.55005C13.2301 7.56005 12.5901 7.51005 11.9701 7.42005C11.1801 7.30005 10.5501 6.76005 10.2501 5.93005L9.9701 5.16005C9.8401 4.81005 9.5101 4.56005 9.1401 4.54005C8.3901 4.49005 7.6101 4.49005 6.8601 4.54005C6.4901 4.56005 6.1601 4.81005 6.0301 5.16005L5.7101 6.05005C5.4401 6.78005 4.8001 7.30005 4.0301 7.42005C3.4501 7.50005 2.8601 7.55005 2.2601 7.55005ZM2.1801 6.05005C2.7201 6.06005 3.2801 6.02005 3.8101 5.94005C4.0301 5.90005 4.2201 5.75005 4.3001 5.54005L4.6201 4.65005C4.9601 3.73005 5.8001 3.10005 6.7701 3.04005C7.5801 2.99005 8.4201 2.99005 9.2301 3.04005C10.2001 3.10005 11.0401 3.73005 11.3801 4.64005L11.6601 5.41005C11.7701 5.72005 11.9501 5.89005 12.1901 5.93005C12.7301 6.01005 13.2901 6.04005 13.8201 6.04005C14.1101 6.04005 14.3501 5.81005 14.3901 5.51005L14.4801 4.78005C14.5801 3.95005 14.1001 3.15005 13.3201 2.88005C9.9301 1.70005 6.0501 1.70005 2.6701 2.88005C1.9001 3.15005 1.4101 3.95005 1.5201 4.79005L1.5901 5.40005C1.6401 5.79005 1.8701 6.04005 2.1801 6.05005Z"/></svg>