<svg viewBox="0 0 16 16" xmlns="http://www.w3.org/2000/svg"><path d="M14.5901 6.05H8.4001C7.9901 6.05 7.6501 5.71 7.6501 5.3C7.6501 5.01 7.8201 4.65 8.0801 4.53C8.3401 4.4 8.5401 4.17 8.6301 3.89L9.3401 1.58C9.6401 0.62 10.4901 0 11.5001 0C12.5101 0 13.3601 0.62 13.6601 1.59L14.3701 3.9C14.4501 4.18 14.6501 4.41 14.9201 4.53C15.1801 4.65 15.3501 4.92 15.3501 5.21V5.31C15.3401 5.71 15.0101 6.05 14.5901 6.05ZM9.9901 4.55H13.0201C12.9901 4.48 12.9701 4.41 12.9401 4.34L12.2301 2.04C12.0701 1.54 11.6301 1.5 11.5001 1.5C11.3701 1.5 10.9301 1.54 10.7801 2.03L10.0701 4.34C10.0401 4.41 10.0101 4.48 9.9901 4.55Z"/><path d="M11.9701 8.25H11.0201C10.6101 8.25 10.2701 7.91 10.2701 7.5C10.2701 7.09 10.6101 6.75 11.0201 6.75H11.9701C12.3801 6.75 12.7201 7.09 12.7201 7.5C12.7201 7.91 12.3901 8.25 11.9701 8.25Z"/><path d="M10.2701 15.99C9.7801 15.99 9.2901 15.88 8.8401 15.66C7.0101 14.78 5.3401 13.58 3.8701 12.11C2.4001 10.65 1.2101 8.98 0.330098 7.15C-0.349902 5.74 0.0600977 4.01 1.3101 3.04L1.9101 2.57C2.7601 1.91 3.9701 1.97 4.7201 2.71C5.1801 3.16 5.6101 3.65 5.9901 4.17C6.4801 4.84 6.5401 5.68 6.1601 6.5L5.8001 7.27C5.6301 7.63 5.7001 8.06 5.9601 8.36C6.2201 8.65 6.4901 8.94 6.7701 9.22C7.0501 9.5 7.3401 9.77 7.6301 10.03C7.9301 10.29 8.3601 10.36 8.7201 10.19L9.6101 9.78C10.3301 9.45 11.1701 9.53 11.8101 10C12.3201 10.38 12.8201 10.81 13.2701 11.27C14.0401 12.05 14.0701 13.25 13.3401 14.18L12.9501 14.68C12.2901 15.53 11.2901 15.99 10.2701 15.99ZM3.2401 3.62C3.1001 3.62 2.9501 3.67 2.8301 3.76L2.2301 4.23C1.5401 4.77 1.3001 5.73 1.6801 6.5C2.4901 8.17 3.5801 9.71 4.9401 11.06C6.2901 12.41 7.8201 13.51 9.5001 14.32C10.2801 14.69 11.2301 14.46 11.7801 13.76L12.1701 13.26C12.4201 12.93 12.4401 12.56 12.2101 12.32C11.8101 11.92 11.3801 11.54 10.9301 11.21C10.7301 11.06 10.4701 11.04 10.2601 11.14L9.3701 11.55C8.4601 11.97 7.4001 11.82 6.6501 11.16C6.3401 10.88 6.0301 10.59 5.7201 10.29C5.4101 9.99 5.1201 9.67 4.8401 9.36C4.1801 8.61 4.0201 7.54 4.4401 6.64L4.8001 5.87C4.9501 5.55 4.9401 5.29 4.7901 5.07C4.4501 4.62 4.0801 4.19 3.6701 3.79C3.5601 3.68 3.4001 3.62 3.2401 3.62Z"/></svg>