<svg viewBox="0 0 16 16" xmlns="http://www.w3.org/2000/svg"><path d="M11.6162 8.755C9.20619 8.755 7.23619 6.795 7.23619 4.375C7.23619 1.955 9.20619 0.00500488 11.6162 0.00500488C14.0262 0.00500488 15.9962 1.965 15.9962 4.375C15.9962 6.785 14.0362 8.755 11.6162 8.755ZM11.6162 1.505C10.0362 1.505 8.73619 2.795 8.73619 4.385C8.73619 5.97501 10.0262 7.26501 11.6162 7.26501C13.2062 7.26501 14.4962 5.97501 14.4962 4.385C14.4962 2.795 13.2062 1.505 11.6162 1.505Z"/><path d="M10.2662 15.995C9.77619 15.995 9.28619 15.885 8.83619 15.665C7.01619 14.785 5.33619 13.595 3.86619 12.115C2.39619 10.655 1.20619 8.98501 0.326192 7.155C-0.353808 5.74501 0.0561914 4.015 1.30619 3.045L1.90619 2.575C2.75619 1.915 3.96619 1.975 4.71619 2.715C5.17619 3.165 5.60619 3.655 5.98619 4.175C6.47619 4.845 6.53619 5.685 6.15619 6.505L5.79619 7.275C5.62619 7.635 5.69619 8.065 5.95619 8.365C6.21619 8.655 6.48619 8.94501 6.76619 9.22501C7.04619 9.50501 7.33619 9.775 7.62619 10.035C7.92619 10.305 8.35619 10.355 8.71619 10.195L9.60619 9.785C10.3262 9.455 11.1662 9.535 11.8062 10.005C12.3162 10.385 12.8162 10.815 13.2662 11.275C14.0362 12.055 14.0662 13.255 13.3362 14.185L12.9462 14.685C12.2862 15.535 11.2862 15.995 10.2662 15.995ZM3.23619 3.625C3.09619 3.625 2.94619 3.67501 2.82619 3.76501L2.22619 4.235C1.53619 4.775 1.29619 5.735 1.67619 6.505C2.48619 8.185 3.57619 9.71501 4.92619 11.065C6.27619 12.415 7.80619 13.515 9.48619 14.325C10.2662 14.695 11.2162 14.465 11.7662 13.765L12.1562 13.265C12.4062 12.935 12.4262 12.565 12.1962 12.325C11.7962 11.925 11.3662 11.545 10.9162 11.215C10.7162 11.065 10.4662 11.045 10.2462 11.145L9.35619 11.555C8.45619 11.975 7.38619 11.825 6.63619 11.165C6.31619 10.885 6.01619 10.595 5.70619 10.295C5.40619 9.99501 5.11619 9.685 4.83619 9.365C4.17619 8.615 4.01619 7.545 4.43619 6.645L4.79619 5.875C4.94619 5.555 4.93619 5.29501 4.78619 5.07501C4.44619 4.62501 4.07619 4.195 3.66619 3.795C3.55619 3.685 3.39619 3.625 3.23619 3.625Z"/><path d="M12.7462 5.525C12.6662 5.525 12.5762 5.505 12.4962 5.455L11.3762 4.80501C11.2162 4.71501 11.1262 4.555 11.1262 4.375V2.625C11.1262 2.345 11.3462 2.125 11.6262 2.125C11.9062 2.125 12.1262 2.345 12.1262 2.625V4.085L12.9962 4.59501C13.2362 4.73501 13.3162 5.035 13.1762 5.275C13.0862 5.435 12.9162 5.525 12.7462 5.525Z"/></svg>