<svg xmlns="http://www.w3.org/2000/svg" viewBox="0 0 16 16"><path d="M14.251 11.816l-2.088-2.09a.764.764 0 00-1.07.026l-.295.294-.417.411a2.021 2.021 0 01-2.854.067l-.349-.347-1.74-1.74a2.021 2.021 0 01.069-2.855l.235-.229.181-.179.295-.3a.759.759 0 00.023-1.07L4.152 1.718a.758.758 0 00-1.069.025l-.47.529a3.665 3.665 0 00-1.035 1.883C1.332 5.69 2.233 8.633 4.8 11.2a.12.12 0 01.026.026C7.4 13.8 10.339 14.7 11.873 14.451a3.657 3.657 0 001.883-1.033l.472-.53a.762.762 0 00.023-1.072zM8.939 2.965a4.109 4.109 0 014.1 4.1.562.562 0 101.124 0A5.235 5.235 0 008.938 1.84a.563.563 0 100 1.125z"/><path d="M8.939 5.507A1.564 1.564 0 0110.5 7.069a.562.562 0 101.124 0 2.691 2.691 0 00-2.687-2.688.563.563 0 100 1.126z"/></svg>