<svg viewBox="0 0 16 16" xmlns="http://www.w3.org/2000/svg"><g clip-path="url(#clip0_4786_47805)"><path d="M15.9999 2.51011C15.9461 2.35996 15.8469 2.23024 15.7161 2.13888C15.5854 2.04752 15.4294 1.99903 15.2699 2.00011L13.7699 1.92011L13.2299 0.50011C13.1775 0.351788 13.0798 0.223702 12.9506 0.133973C12.8214 0.0442433 12.6672 -0.00258593 12.5099 0.000110218C12.353 -0.00109773 12.1995 0.0463187 12.0706 0.135847C11.9416 0.225374 11.8436 0.352622 11.7899 0.50011L11.2499 1.89011L9.74992 2.00011C9.59445 2.01198 9.44598 2.06959 9.3232 2.16569C9.20041 2.26178 9.10881 2.39206 9.05992 2.54011C9.01055 2.68732 9.00809 2.84622 9.05286 2.99489C9.09764 3.14355 9.18746 3.27466 9.30992 3.37011L10.4699 4.31011L10.0799 5.77011C10.04 5.92009 10.0463 6.07865 10.0981 6.22498C10.1498 6.37131 10.2446 6.49858 10.3699 6.59011C10.5005 6.67613 10.6535 6.72198 10.8099 6.72198C10.9663 6.72198 11.1193 6.67613 11.2499 6.59011L12.5099 5.77011L13.7699 6.59011C13.9001 6.67739 14.0532 6.72399 14.2099 6.72399C14.3666 6.72399 14.5198 6.67739 14.6499 6.59011C14.7757 6.4992 14.8702 6.3715 14.9203 6.22464C14.9705 6.07777 14.9738 5.91896 14.9299 5.77011L14.5499 4.33011L15.7099 3.33011C15.8364 3.23953 15.932 3.11233 15.9838 2.9657C16.0357 2.81906 16.0413 2.66004 15.9999 2.51011ZM13.7999 3.60011C13.6837 3.69387 13.5972 3.81943 13.551 3.96147C13.5049 4.10351 13.501 4.25591 13.5399 4.40011L13.8099 5.40011L12.9199 4.82011C12.7956 4.74199 12.6517 4.70055 12.5049 4.70055C12.3581 4.70055 12.2142 4.74199 12.0899 4.82011L11.1999 5.40011L11.4599 4.40011C11.5083 4.25213 11.5113 4.09306 11.4686 3.94336C11.4258 3.79366 11.3392 3.66018 11.2199 3.56011L10.3999 2.90011H11.3999C11.55 2.89331 11.6947 2.84218 11.8157 2.75319C11.9367 2.66419 12.0287 2.54133 12.0799 2.40011L12.4599 1.40011L12.8399 2.40011C12.8934 2.53991 12.9859 2.66138 13.1064 2.75003C13.227 2.83869 13.3706 2.89079 13.5199 2.90011H14.5199L13.7999 3.60011Z"/><path d="M11.8702 9.99995C11.5545 9.77055 11.1834 9.62927 10.795 9.59061C10.4067 9.55195 10.015 9.6173 9.66023 9.77995L9.40023 9.89995L8.77023 10.2C8.58781 10.28 8.38565 10.3037 8.18966 10.268C7.99368 10.2324 7.81281 10.1391 7.67023 9.99995C7.37023 9.72995 7.09023 9.45995 6.81023 9.18995L6.00023 8.34995C5.86359 8.20125 5.77517 8.01467 5.74661 7.81475C5.71805 7.61484 5.75069 7.41096 5.84023 7.22995L6.20023 6.45995C6.38587 6.09113 6.46546 5.67802 6.43015 5.26663C6.39484 4.85524 6.246 4.46174 6.00023 4.12995C5.62244 3.60839 5.20092 3.11996 4.74023 2.66995C4.36562 2.30755 3.87213 2.09357 3.35155 2.06781C2.83097 2.04206 2.31877 2.20629 1.91023 2.52995L1.32023 2.99995C0.706238 3.47009 0.272031 4.13656 0.0900463 4.88815C-0.091938 5.63975 -0.0106932 6.43102 0.320226 7.12995C1.21443 8.98664 2.41831 10.6775 3.88023 12.13C5.33383 13.5905 7.02443 14.7942 8.88023 15.6899C9.32946 15.9064 9.82157 16.0192 10.3202 16.02C10.8383 16.0144 11.3483 15.8919 11.8124 15.6616C12.2764 15.4313 12.6825 15.0991 13.0002 14.6899L13.3902 14.1899C13.744 13.7804 13.9336 13.2545 13.9225 12.7134C13.9115 12.1724 13.7005 11.6546 13.3302 11.26C12.872 10.808 12.3843 10.3871 11.8702 9.99995ZM12.2202 13.28L11.8202 13.78C11.5608 14.122 11.1916 14.3643 10.7746 14.4663C10.3576 14.5682 9.91822 14.5236 9.53023 14.34C7.84664 13.5047 6.31533 12.3926 5.00023 11.05C3.64235 9.72216 2.51973 8.1735 1.68023 6.46995C1.49654 6.08196 1.45194 5.64258 1.55391 5.22559C1.65588 4.8086 1.89822 4.43939 2.24023 4.17995L2.84023 3.70995C2.95551 3.61418 3.10035 3.56119 3.25023 3.55995C3.3318 3.55953 3.41266 3.57522 3.48816 3.6061C3.56367 3.63699 3.63233 3.68248 3.69023 3.73995C4.10146 4.12467 4.47637 4.54645 4.81023 4.99995C4.88333 5.12239 4.92194 5.26234 4.92194 5.40495C4.92194 5.54756 4.88333 5.68751 4.81023 5.80995L4.45023 6.58995C4.2455 7.03488 4.17432 7.52968 4.24532 8.01428C4.31632 8.49888 4.52646 8.95245 4.85023 9.31995C5.13023 9.62995 5.42023 9.92995 5.72023 10.25L6.66023 11.13C7.02754 11.4583 7.48432 11.6698 7.97232 11.7375C8.46032 11.8051 8.95742 11.7259 9.40023 11.51L10.0102 11.22L10.2802 11.1C10.3876 11.0493 10.5069 11.029 10.625 11.0414C10.7431 11.0537 10.8556 11.0982 10.9502 11.17C11.4117 11.5094 11.8463 11.8838 12.2502 12.29C12.3716 12.4242 12.4362 12.6002 12.4306 12.781C12.425 12.9618 12.3496 13.1335 12.2202 13.26V13.28Z"/></g><defs><clipPath><rect/></clipPath></defs></svg>