<svg viewBox="0 0 16 16" xmlns="http://www.w3.org/2000/svg"><g clip-path="url(#clip0)"><path d="M11.8101 10C11.1701 9.53 10.3301 9.44 9.6101 9.78L8.7201 10.2C8.3601 10.37 7.9301 10.31 7.6301 10.04C7.3401 9.78 7.0501 9.5 6.7701 9.22C6.4901 8.94 6.2201 8.65 5.9601 8.36C5.7001 8.06 5.6301 7.63 5.8001 7.27L6.1601 6.5C6.5401 5.68 6.4801 4.84 5.9901 4.18C5.6101 3.67 5.1801 3.18 4.7201 2.72C3.9601 1.98 2.7501 1.92 1.9101 2.58L1.3101 3.05C0.0600977 4.02 -0.349902 5.75 0.330098 7.16C1.2101 8.99 2.4101 10.66 3.8801 12.13C5.3501 13.6 7.0201 14.79 8.8501 15.68C9.3101 15.9 9.7901 16.01 10.2801 16.01C11.3001 16.01 12.3001 15.55 12.9601 14.7L13.3501 14.2C14.0801 13.27 14.0501 12.07 13.2801 11.29C12.8201 10.81 12.3301 10.38 11.8101 10ZM12.1601 13.26L11.7701 13.76C11.2301 14.46 10.2701 14.69 9.4901 14.32C7.8201 13.51 6.2801 12.41 4.9301 11.06C3.5801 9.71 2.4901 8.18 1.6801 6.5C1.3001 5.73 1.5401 4.77 2.2301 4.23L2.8301 3.76C2.9501 3.66 3.1001 3.62 3.2401 3.62C3.4001 3.62 3.5501 3.68 3.6701 3.79C4.0801 4.19 4.4501 4.62 4.7801 5.07C4.9401 5.28 4.9401 5.55 4.7901 5.87L4.4401 6.64C4.0201 7.54 4.1801 8.61 4.8401 9.36C5.1201 9.68 5.4101 9.98 5.7101 10.29C6.0101 10.59 6.3201 10.88 6.6401 11.16C7.3901 11.82 8.4601 11.98 9.3601 11.55L10.2501 11.14C10.4701 11.04 10.7301 11.06 10.9201 11.21C11.3701 11.54 11.8001 11.92 12.2001 12.32C12.4301 12.55 12.4201 12.93 12.1601 13.26Z"/><path d="M14.5001 0.75H10.7501C10.3401 0.75 10.0001 1.09 10.0001 1.5C10.0001 1.91 10.3401 2.25 10.7501 2.25H12.6901L8.7601 6.17C8.4701 6.46 8.4701 6.94 8.7601 7.23C8.9101 7.38 9.1001 7.46 9.2901 7.46C9.4801 7.46 9.6701 7.39 9.8201 7.24L13.7401 3.32V5.26C13.7501 5.66 14.0801 6 14.5001 6C14.9201 6 15.2501 5.66 15.2501 5.25V1.5C15.2501 1.09 14.9101 0.75 14.5001 0.75Z"/></g><defs><clipPath><rect/></clipPath></defs></svg>