<svg xmlns="http://www.w3.org/2000/svg" viewBox="0 0 16 16"><path d="M8.5 12.348V7.5h-1v4.847l-1.492-1.491-.707.707 2.7 2.7 2.7-2.7-.707-.707zM15.859 7.5a3.664 3.664 0 0 0-.6-2.063c-.911-1.259-3.629-2.7-7.261-2.7a.052.052 0 0 0-.018 0 .055.055 0 0 0-.019 0C4.329 2.737 1.61 4.181.7 5.439A3.661 3.661 0 0 0 .1 7.5l.041.709a.763.763 0 0 0 .742.774h2.952a.764.764 0 0 0 .739-.775v-1a2.022 2.022 0 0 1 1.975-2.065H9.5a2.021 2.021 0 0 1 1.97 2.067v1.001a.758.758 0 0 0 .74.773h2.954a.758.758 0 0 0 .736-.774z"/></svg>