<svg xmlns="http://www.w3.org/2000/svg" viewBox="0 0 16 16"><path d="M5.187 8.125a2.048 2.048 0 01.32-2.543l.235-.229.181-.179.295-.3a.759.759 0 00.023-1.07L4.152 1.718a.758.758 0 00-1.069.025l-.47.529a3.665 3.665 0 00-1.035 1.883c-.2 1.251.38 3.438 1.986 5.594zm9.064 3.691l-2.088-2.09a.764.764 0 00-1.07.026l-.295.294-.417.411a2.021 2.021 0 01-2.854.067l-.349-.347-.324-.324 6.982-6.982a.5.5 0 10-.707-.707L6.147 9.146l-1.682 1.682-2.307 2.307a.5.5 0 00.707.707l2.3-2.3c2.484 2.318 5.236 3.15 6.7 2.914a3.657 3.657 0 001.883-1.033l.472-.53a.762.762 0 00.031-1.077z"/></svg>