<svg viewBox="0 0 16 16" xmlns="http://www.w3.org/2000/svg"><path d="M13.8201 9.42C10.1201 8.13 5.8801 8.13 2.1801 9.42C0.740099 9.92 -0.159901 11.4 0.030099 12.93L0.110099 13.54C0.250099 14.69 1.1001 15.49 2.1701 15.5C2.7901 15.5 3.4201 15.46 4.0401 15.37C4.8001 15.25 5.4401 14.73 5.7101 14L6.0301 13.11C6.1601 12.76 6.4901 12.51 6.8601 12.49C7.6101 12.45 8.3901 12.45 9.1401 12.49C9.5101 12.51 9.8401 12.76 9.9701 13.11L10.2501 13.88C10.5501 14.71 11.1801 15.25 11.9701 15.37C12.5401 15.46 13.1401 15.5 13.7401 15.5C13.7701 15.5 13.8101 15.5 13.8401 15.5C14.8801 15.49 15.7501 14.7 15.8801 13.65L15.9701 12.92C16.1601 11.39 15.2601 9.92 13.8201 9.42ZM14.3901 13.47C14.3501 13.77 14.1101 14 13.8201 14C13.2801 14 12.7201 13.97 12.1901 13.89C11.9501 13.85 11.7701 13.68 11.6601 13.37L11.3801 12.6C11.0501 11.68 10.2001 11.05 9.2301 10.99C8.8301 10.97 8.4101 10.96 8.0001 10.96C7.5901 10.96 7.1701 10.97 6.7701 11C5.8001 11.06 4.9601 11.69 4.6201 12.61L4.3001 13.49C4.2201 13.7 4.0401 13.85 3.8101 13.88C3.2701 13.96 2.7201 14.01 2.1801 14C1.8701 14 1.6401 13.74 1.5901 13.35L1.5101 12.74C1.4101 11.91 1.8901 11.11 2.6701 10.83C6.0501 9.65 9.9401 9.65 13.3201 10.83C14.0901 11.1 14.5801 11.9 14.4801 12.73L14.3901 13.47Z"/><path d="M2.7501 6C3.1601 6 3.5001 5.67 3.5001 5.25V3.05L7.4701 7.02C7.6101 7.17 7.8001 7.25 8.0001 7.25C8.2001 7.25 8.3901 7.17 8.5301 7.03L12.2801 3.28C12.5701 2.99 12.5701 2.51 12.2801 2.22C11.9901 1.93 11.5101 1.93 11.2201 2.22L8.0001 5.44L4.5601 2H6.7601C7.1701 2 7.5101 1.66 7.5101 1.25C7.5101 0.84 7.1701 0.5 6.7601 0.5H2.7501C2.3401 0.5 2.0001 0.83 2.0001 1.25V5.26C2.0001 5.67 2.3401 6 2.7501 6Z"/></svg>