<svg viewBox="0 0 16 17" xmlns="http://www.w3.org/2000/svg"><path d="M15.7784 2.8344C16.0713 2.55659 16.0713 2.10617 15.7784 1.82835C15.4855 1.55054 15.0106 1.55054 14.7177 1.82835L11.2481 5.11937L9.77841 3.72537C9.48551 3.44756 9.01064 3.44756 8.71775 3.72537C8.42485 4.00318 8.42485 4.45361 8.71775 4.73142L10.7177 6.62844C10.8584 6.76185 11.0492 6.83679 11.2481 6.83679C11.447 6.83679 11.6378 6.76185 11.7784 6.62844L15.7784 2.8344Z"/><path fill-rule="evenodd" clip-rule="evenodd" d="M9.60808 9.71078C10.3281 9.38829 11.1681 9.47365 11.8081 9.91945C12.3281 10.2799 12.8181 10.6877 13.2781 11.143C14.0481 11.8829 14.0681 13.0211 13.3481 13.9032L12.9581 14.3774C12.2981 15.1837 11.2981 15.62 10.2781 15.62C9.78808 15.62 9.30808 15.5157 8.84808 15.307C7.01808 14.4628 5.34808 13.3341 3.87808 11.9398C2.40808 10.5455 1.20808 8.96146 0.328084 7.22569C-0.351916 5.88829 0.0580835 4.24737 1.30808 3.32731L1.90808 2.88151C2.74808 2.2555 3.95808 2.31241 4.71808 3.0143C5.17808 3.45062 5.60808 3.91539 5.98808 4.39913C6.47808 5.02514 6.53808 5.82189 6.15808 6.59967L5.79808 7.33002C5.62808 7.67149 5.69808 8.07934 5.95808 8.3639C6.21808 8.63897 6.48808 8.91403 6.76808 9.17962C7.04808 9.4452 7.33808 9.7013 7.62808 9.94791C7.92808 10.204 8.34808 10.2609 8.71808 10.0997L9.60808 9.71078ZM11.7681 13.4858L12.1581 13.0116C12.4081 12.6986 12.4281 12.3382 12.1981 12.12C11.7981 11.7406 11.3681 11.3802 10.9181 11.0671C10.7281 10.9249 10.4681 10.9059 10.2481 11.0008L9.35808 11.3896C8.44808 11.788 7.38808 11.6457 6.63808 11.0197C6.31808 10.7541 6.00808 10.4791 5.70808 10.1945C5.40808 9.90048 5.11808 9.60644 4.83808 9.31241C4.17808 8.60102 4.01808 7.58612 4.43808 6.73246L4.78808 6.00211C4.93808 5.69859 4.93808 5.44249 4.77808 5.2433C4.44808 4.81647 4.07808 4.40861 3.66808 4.02921C3.54808 3.92487 3.39808 3.86796 3.23808 3.86796C3.09808 3.86796 2.94808 3.9059 2.82808 4.00075L2.22808 4.44655C1.53808 4.95875 1.29808 5.86932 1.67808 6.59967C2.48808 8.19317 3.57808 9.64439 4.92808 10.9249C6.27808 12.2148 7.81808 13.2487 9.48808 14.017C10.2681 14.368 11.2281 14.1498 11.7681 13.4858Z"/></svg>