<svg viewBox="0 0 16 16" xmlns="http://www.w3.org/2000/svg"><path d="M15.774 12.9107L11.948 9.86643C13.4809 7.95199 14.4037 5.51704 14.4037 2.86348C14.4037 2.23989 13.986 1.70745 13.3881 1.56907L11.1063 1.03435C10.4929 0.890335 9.86293 1.21168 9.60912 1.80089L8.55258 4.30337C8.32557 4.84521 8.48029 5.482 8.92793 5.85346L9.76691 6.55119C9.56215 6.9125 9.32454 7.25172 9.06147 7.56884L0.970304 1.12984C0.708483 0.922352 0.332883 0.96836 0.127853 1.23339C-0.0765018 1.49849 -0.0310396 1.88163 0.22958 2.08907L15.011 13.8474C15.1438 13.9568 15.2739 14 15.3814 14C15.5596 14 15.7355 13.9197 15.854 13.7666C16.0816 13.5023 16.0341 13.1189 15.774 12.9107ZM9.97997 8.31761C10.3931 7.80955 10.7567 7.25984 11.0443 6.6652C11.1669 6.41129 11.1013 6.10458 10.8856 5.92532L9.66578 4.91046C9.62827 4.87913 9.61577 4.82675 9.63452 4.78193L10.6883 2.28529C10.7055 2.24563 10.7461 2.21904 10.7895 2.21904C10.7973 2.21904 10.8055 2.21984 10.8133 2.22182L13.0975 2.75705C13.1486 2.76895 13.1811 2.8106 13.1811 2.86377C13.1811 5.23397 12.3476 7.40359 10.9755 9.10983L9.97997 8.31761ZM3.43571 12.7813C3.38297 12.7813 3.34194 12.7487 3.33021 12.698L2.80307 10.377C2.79174 10.327 2.81948 10.2715 2.86636 10.2508L5.32352 9.18216C5.36688 9.16153 5.41882 9.17501 5.44655 9.21072L6.44732 10.4518C6.62392 10.6708 6.92645 10.7374 7.17627 10.6129C7.54061 10.4313 7.88771 10.2186 8.22105 9.98675L7.21853 9.18899C7.16569 9.22166 7.118 9.26203 7.06434 9.29337L6.37815 8.44278C6.0139 7.98499 5.38374 7.82757 4.84859 8.0637L2.39293 9.13214C1.81003 9.38756 1.49119 10.0264 1.63423 10.6525L2.16087 12.9717C2.29766 13.576 2.82305 14 3.43571 14C6.0039 14 8.33953 13.0931 10.2325 11.5871L9.25552 10.8097C7.62934 12.0424 5.6188 12.7813 3.43571 12.7813Z"/></svg>