<svg viewBox="0 0 16 16" xmlns="http://www.w3.org/2000/svg"><g clip-path="url(#clip0)"><path d="M11.91 15.98C11.36 15.98 10.81 15.86 10.29 15.61C8.16001 14.58 6.22001 13.19 4.51001 11.48C2.80001 9.76996 1.41001 7.81996 0.380006 5.68996C-0.389994 4.09996 0.0800061 2.13996 1.50001 1.02996L2.20001 0.489963C3.14001 -0.240037 4.49001 -0.180037 5.33001 0.649963C5.86001 1.16996 6.35001 1.73996 6.80001 2.33996C7.34001 3.06996 7.41001 4.01996 6.98001 4.92996L6.56001 5.82996C6.34001 6.29996 6.42001 6.85996 6.77001 7.24996C7.08001 7.58996 7.39001 7.92996 7.73001 8.26996C8.05001 8.59996 8.39001 8.91996 8.74001 9.21996C9.13001 9.55996 9.68001 9.63996 10.16 9.41996L11.2 8.92996C12 8.55996 12.93 8.64996 13.64 9.17996C14.24 9.61996 14.81 10.12 15.34 10.65C16.19 11.52 16.22 12.85 15.41 13.89L14.95 14.48C14.2 15.45 13.07 15.98 11.91 15.98ZM3.68001 1.47996C3.48001 1.47996 3.29001 1.53996 3.12001 1.66996L2.42001 2.20996C1.55001 2.88996 1.26001 4.07996 1.73001 5.03996C2.69001 7.01996 3.98001 8.82996 5.57001 10.42C7.16001 12.01 8.97001 13.3 10.95 14.26C11.91 14.73 13.1 14.44 13.77 13.57L14.23 12.98C14.57 12.54 14.59 12.03 14.27 11.71C13.8 11.23 13.29 10.79 12.75 10.39C12.48 10.19 12.13 10.16 11.83 10.3L10.79 10.79C9.77001 11.26 8.58001 11.09 7.74001 10.35C7.37001 10.02 7.01001 9.67996 6.66001 9.32996C6.31001 8.96996 5.97001 8.60996 5.64001 8.23996C4.90001 7.40996 4.73001 6.20996 5.20001 5.19996L5.62001 4.29996C5.75001 4.00996 5.86001 3.58996 5.59001 3.23996C5.19001 2.69996 4.75001 2.18996 4.27001 1.72996C4.11001 1.55996 3.90001 1.47996 3.68001 1.47996Z"/></g><defs><clipPath><rect/></clipPath></defs></svg>