<svg viewBox="0 0 16 16" xmlns="http://www.w3.org/2000/svg"><g clip-path="url(#clip0_335_169)"><path d="M10.2698 16C9.77976 16 9.28976 15.89 8.83976 15.67C7.00976 14.79 5.33976 13.59 3.86976 12.12C2.39976 10.65 1.20976 8.98 0.329759 7.16C-0.350241 5.75 0.0597587 4.02 1.31976 3.05L1.91976 2.58C2.76976 1.92 3.97976 1.98 4.72976 2.72C5.18976 3.17 5.60976 3.66 5.99976 4.18C6.48976 4.84 6.54976 5.68 6.16976 6.5L5.79976 7.27C5.63976 7.64 5.69976 8.06 5.95976 8.36C6.21976 8.65 6.48976 8.94 6.76976 9.22C7.04976 9.5 7.33976 9.77 7.62976 10.03C7.92976 10.29 8.35976 10.35 8.71976 10.19L9.60976 9.77C10.3298 9.44 11.1698 9.52 11.8098 9.99C12.3198 10.37 12.8098 10.8 13.2698 11.26C14.0398 12.04 14.0698 13.24 13.3398 14.17L12.9498 14.67C12.2898 15.53 11.2898 16 10.2698 16ZM3.23976 3.62C3.09976 3.62 2.94976 3.67 2.82976 3.76L2.22976 4.23C1.53976 4.77 1.29976 5.73 1.67976 6.5C2.48976 8.17 3.57976 9.71 4.92976 11.06C6.27976 12.41 7.81976 13.51 9.48976 14.32C10.2698 14.69 11.2198 14.46 11.7698 13.76L12.1598 13.26C12.4198 12.93 12.4398 12.56 12.1998 12.32C11.7998 11.91 11.3698 11.54 10.9198 11.21C10.7198 11.06 10.4598 11.04 10.2498 11.14L9.35976 11.56C8.45976 11.98 7.38976 11.83 6.63976 11.17C6.31976 10.89 6.00976 10.6 5.70976 10.3C5.40976 10 5.11976 9.69 4.83976 9.37C4.17976 8.61 4.01976 7.54 4.44976 6.64L4.79976 5.87C4.94976 5.55 4.93976 5.29 4.78976 5.07C4.45976 4.62 4.07976 4.19 3.66976 3.79C3.55976 3.68 3.39976 3.62 3.23976 3.62Z"/><path d="M15.2498 7H8.68976C8.26976 7 7.93976 6.67 7.93976 6.25C7.93976 5.83 8.26976 5.5 8.68976 5.5H15.2498C15.6598 5.5 15.9998 5.84 15.9998 6.25C15.9998 6.66 15.6598 7 15.2498 7Z"/><path d="M15.2498 4.25H8.68976C8.27976 4.25 7.93976 3.91 7.93976 3.5C7.93976 3.09 8.27976 2.75 8.68976 2.75H15.2498C15.6598 2.75 15.9998 3.09 15.9998 3.5C15.9998 3.91 15.6598 4.25 15.2498 4.25Z"/><path d="M15.2498 1.5H8.68976C8.27976 1.5 7.93976 1.16 7.93976 0.75C7.93976 0.34 8.26976 0 8.68976 0H15.2498C15.6598 0 15.9998 0.34 15.9998 0.75C15.9998 1.16 15.6598 1.5 15.2498 1.5Z"/></g><defs><clipPath><rect/></clipPath></defs></svg>