<svg viewBox="0 0 16 16" xmlns="http://www.w3.org/2000/svg"><path d="M11.7301 8.75C11.3201 8.75 10.9801 8.41 10.9801 8C10.9801 6.36 9.6401 5.02 8.0001 5.02C7.5901 5.02 7.2501 4.68 7.2501 4.27C7.2501 3.86 7.5901 3.52 8.0001 3.52C10.4701 3.52 12.4801 5.53 12.4801 8C12.4801 8.41 12.1501 8.75 11.7301 8.75Z"/><path d="M14.7501 8.75C14.3401 8.75 14.0001 8.42 14.0001 8C14.0001 4.69 11.3101 2 8.0001 2C7.5901 2 7.2501 1.66 7.2501 1.25C7.2501 0.84 7.5901 0.5 8.0001 0.5C12.1401 0.5 15.5001 3.87 15.5001 8C15.5001 8.42 15.1701 8.75 14.7501 8.75Z"/><path d="M10.2701 15.99C9.7801 15.99 9.3001 15.88 8.8401 15.66C7.0101 14.78 5.3401 13.58 3.8701 12.11C2.4001 10.65 1.2101 8.98 0.330098 7.15C-0.349902 5.74 0.0600977 4.01 1.3101 3.04L1.9101 2.57C2.7601 1.91 3.9701 1.97 4.7201 2.71C5.1801 3.16 5.6101 3.65 5.9901 4.17C6.4801 4.84 6.5401 5.68 6.1601 6.5L5.8001 7.27C5.6301 7.63 5.7001 8.06 5.9601 8.36C6.2201 8.65 6.4901 8.94 6.7701 9.22C7.0501 9.5 7.3401 9.77 7.6301 10.03C7.9301 10.3 8.3601 10.36 8.7201 10.19L9.6101 9.77C10.3301 9.44 11.1701 9.52 11.8101 9.99C12.3201 10.37 12.8101 10.8 13.2701 11.26C14.0401 12.04 14.0701 13.24 13.3401 14.17L12.9501 14.67C12.2901 15.53 11.2901 15.99 10.2701 15.99ZM3.2401 3.62C3.1001 3.62 2.9501 3.67 2.8301 3.76L2.2301 4.23C1.5401 4.77 1.3001 5.73 1.6801 6.5C2.4901 8.18 3.5801 9.71 4.9301 11.06C6.2801 12.41 7.8101 13.51 9.4901 14.32C10.2601 14.69 11.2201 14.46 11.7701 13.76L12.1601 13.26C12.4101 12.93 12.4301 12.56 12.2001 12.32C11.8001 11.91 11.3701 11.54 10.9201 11.21C10.7201 11.06 10.4601 11.04 10.2501 11.14L9.3601 11.55C8.4501 11.97 7.3801 11.82 6.6401 11.16C6.3301 10.88 6.0201 10.59 5.7101 10.29C5.4101 9.98 5.1101 9.68 4.8301 9.36C4.1801 8.61 4.0201 7.54 4.4401 6.64L4.8001 5.87C4.9501 5.55 4.9401 5.29 4.7901 5.07C4.4501 4.62 4.0801 4.19 3.6701 3.79C3.5601 3.68 3.4001 3.62 3.2401 3.62Z"/></svg>