<svg viewBox="0 0 16 16" xmlns="http://www.w3.org/2000/svg"><g clip-path="url(#clip0)"><path d="M13.3301 9.72003C12.9401 9.72003 12.5501 9.63003 12.1901 9.45003C10.9901 8.86003 9.8901 8.06003 8.9101 7.09003C7.9401 6.12003 7.1401 5.02003 6.5501 3.82003C6.0001 2.72003 6.3101 1.38003 7.2701 0.630032L7.6201 0.360032C8.2901 -0.159968 9.2401 -0.109968 9.8401 0.480032C10.1501 0.790032 10.4401 1.12003 10.7001 1.47003C11.0801 1.98003 11.1301 2.64003 10.8401 3.27003L10.7601 3.45003C10.6901 3.60003 10.7201 3.77003 10.8301 3.90003C11.0301 4.12003 11.2301 4.34003 11.4501 4.56003C11.6601 4.77003 11.8801 4.98003 12.1101 5.18003C12.2301 5.29003 12.4101 5.32003 12.5601 5.25003L12.8201 5.13003C13.3801 4.87003 14.0201 4.93003 14.5001 5.28003C14.8701 5.55003 15.2201 5.85003 15.5401 6.18003C16.1301 6.78003 16.1601 7.74003 15.6101 8.45003L15.3801 8.74003C14.8701 9.37003 14.1101 9.72003 13.3301 9.72003ZM8.6601 1.50003C8.6201 1.50003 8.5801 1.51003 8.5401 1.54003L8.1901 1.82003C7.7901 2.13003 7.6601 2.69003 7.8901 3.15003C8.4101 4.21003 9.1101 5.18003 9.9701 6.03003C10.8301 6.89003 11.8001 7.59003 12.8501 8.11003C13.3101 8.34003 13.8701 8.21003 14.1801 7.81003L14.4101 7.52003C14.4801 7.43003 14.5301 7.30003 14.4601 7.22003C14.2001 6.95003 13.9101 6.70003 13.6101 6.48003C13.5701 6.45003 13.5001 6.45003 13.4401 6.48003L13.1801 6.60003C12.4901 6.92003 11.6801 6.80003 11.1101 6.30003C10.8601 6.08003 10.6201 5.85003 10.3801 5.62003C10.1401 5.39003 9.9101 5.15003 9.6901 4.90003C9.1901 4.33003 9.0701 3.51003 9.3901 2.83003L9.4701 2.65003C9.5501 2.47003 9.5001 2.40003 9.4901 2.37003C9.2801 2.08003 9.0401 1.80003 8.7801 1.55003C8.7501 1.52003 8.7101 1.50003 8.6601 1.50003Z"/><path d="M10.2701 15.99C9.7801 15.99 9.2901 15.88 8.8401 15.66C7.0201 14.78 5.3401 13.58 3.8701 12.11C2.4001 10.65 1.2101 8.98003 0.330098 7.15003C-0.349902 5.74003 0.0600977 4.01003 1.3101 3.04003L1.9101 2.57003C2.7601 1.91003 3.9701 1.97003 4.7201 2.71003C5.1801 3.16003 5.6101 3.65003 5.9901 4.17003C6.4801 4.84003 6.5401 5.68003 6.1601 6.50003L5.8001 7.27003C5.6301 7.63003 5.7001 8.06003 5.9601 8.36003C6.2201 8.65003 6.4901 8.94003 6.7701 9.22003C7.0501 9.50003 7.3401 9.77003 7.6301 10.03C7.9301 10.29 8.3601 10.36 8.7201 10.19L9.6101 9.78003C10.3301 9.45003 11.1701 9.53003 11.8101 10C12.3301 10.38 12.8201 10.81 13.2701 11.27C14.0401 12.05 14.0701 13.25 13.3401 14.18L12.9501 14.68C12.2901 15.53 11.2901 15.99 10.2701 15.99ZM3.2401 3.62003C3.1001 3.62003 2.9501 3.67003 2.8301 3.76003L2.2301 4.23003C1.5401 4.77003 1.3001 5.73003 1.6801 6.50003C2.4901 8.17003 3.5801 9.71003 4.9401 11.06C6.2901 12.41 7.8201 13.51 9.5001 14.32C10.2801 14.69 11.2301 14.46 11.7801 13.77L12.1701 13.27C12.4201 12.94 12.4401 12.57 12.2101 12.33C11.8101 11.93 11.3801 11.55 10.9301 11.22C10.7301 11.07 10.4701 11.05 10.2601 11.15L9.3701 11.56C8.4701 11.98 7.4001 11.83 6.6501 11.17C6.3401 10.89 6.0301 10.6 5.7201 10.3C5.4101 10 5.1201 9.67003 4.8401 9.36003C4.1801 8.61003 4.0201 7.54003 4.4401 6.64003L4.8001 5.87003C4.9501 5.55003 4.9401 5.29003 4.7901 5.07003C4.4501 4.62003 4.0801 4.19003 3.6701 3.79003C3.5601 3.68003 3.4001 3.62003 3.2401 3.62003Z"/></g><defs><clipPath><rect/></clipPath></defs></svg>