<svg data-name="Layer 1" xmlns="http://www.w3.org/2000/svg" viewBox="0 0 32 32"><path d="M10.42 16.85l.58 1.22 4.08-3.75-.77-1.6 2.43-2.37a3.22 3.22 0 00.06-3.53l-1.69-3.37a2.15 2.15 0 00-3.37-.77A11.57 11.57 0 008 8.3a6 6 0 00.44 4.47l2 4.08zm16.28 9.6c-.66-1.32-1.32-2.59-2-3.92a3 3 0 00-2.65-1.6l-3.57.07-1-2 8.88-8.17A1.21 1.21 0 0024.66 9L5.46 26.68a1.15 1.15 0 00-.05 1.66 1.1 1.1 0 00.88.39 1.22 1.22 0 00.83-.33l6.23-5.74 1.77 3.53a6 6 0 003.25 3 11.51 11.51 0 007 .28 2.1 2.1 0 001.38-3z"/></svg>