<svg viewBox="0 0 16 16" xmlns="http://www.w3.org/2000/svg"><g clip-path="url(#clip0_335_120)"><path d="M11.6201 8.75C9.2101 8.75 7.2401 6.79 7.2401 4.37C7.2401 1.95 9.2101 0 11.6201 0C14.0301 0 16.0001 1.96 16.0001 4.37C16.0001 6.78 14.0401 8.75 11.6201 8.75ZM11.6201 1.5C10.0401 1.5 8.7401 2.79 8.7401 4.38C8.7401 5.97 10.0301 7.26 11.6201 7.26C13.2101 7.26 14.5001 5.97 14.5001 4.38C14.5001 2.79 13.2101 1.5 11.6201 1.5Z"/><path d="M10.2701 15.99C9.7801 15.99 9.2901 15.88 8.8401 15.66C7.0201 14.78 5.3401 13.59 3.8701 12.11C2.4001 10.65 1.2101 8.98 0.330098 7.15C-0.349902 5.74 0.0600977 4.01 1.3101 3.04L1.9101 2.57C2.7601 1.91 3.9701 1.97 4.7201 2.71C5.1801 3.16 5.6101 3.65 5.9901 4.17C6.4801 4.84 6.5401 5.68 6.1601 6.5L5.8001 7.27C5.6301 7.63 5.7001 8.06 5.9601 8.36C6.2201 8.65 6.4901 8.94 6.7701 9.22C7.0501 9.5 7.3401 9.77 7.6301 10.03C7.9301 10.3 8.3601 10.35 8.7201 10.19L9.6101 9.78C10.3301 9.45 11.1701 9.53 11.8101 10C12.3201 10.38 12.8201 10.81 13.2701 11.27C14.0401 12.05 14.0701 13.25 13.3401 14.18L12.9501 14.68C12.2901 15.53 11.2901 15.99 10.2701 15.99ZM3.2401 3.62C3.1001 3.62 2.9501 3.67 2.8301 3.76L2.2301 4.23C1.5401 4.77 1.3001 5.73 1.6801 6.5C2.4901 8.18 3.5801 9.71 4.9301 11.06C6.2801 12.41 7.8101 13.51 9.4901 14.32C10.2701 14.69 11.2201 14.46 11.7701 13.76L12.1601 13.26C12.4101 12.93 12.4301 12.56 12.2001 12.32C11.8001 11.92 11.3701 11.54 10.9201 11.21C10.7201 11.06 10.4701 11.04 10.2501 11.14L9.3601 11.55C8.4601 11.97 7.3901 11.82 6.6401 11.16C6.3201 10.88 6.0201 10.59 5.7101 10.29C5.4101 9.99 5.1201 9.68 4.8401 9.36C4.1801 8.61 4.0201 7.54 4.4401 6.64L4.8001 5.87C4.9501 5.55 4.9401 5.29 4.7901 5.07C4.4501 4.62 4.0801 4.19 3.6701 3.79C3.5601 3.68 3.4001 3.62 3.2401 3.62Z"/><path d="M12.7501 5.52C12.6701 5.52 12.5801 5.5 12.5001 5.45L11.3801 4.8C11.2201 4.71 11.1301 4.55 11.1301 4.37V2.62C11.1301 2.34 11.3501 2.12 11.6301 2.12C11.9101 2.12 12.1301 2.34 12.1301 2.62V4.08L13.0001 4.59C13.2401 4.73 13.3201 5.03 13.1801 5.27C13.0901 5.43 12.9201 5.52 12.7501 5.52Z"/></g><defs><clipPath><rect/></clipPath></defs></svg>