<svg viewBox="0 0 16 16" xmlns="http://www.w3.org/2000/svg"><path d="M15.774 13.827L11.948 10.5485C13.4809 8.48675 14.4037 5.8645 14.4037 3.00682C14.4037 2.33527 13.986 1.76187 13.3881 1.61285L11.1063 1.03699C10.4929 0.881899 9.86293 1.22796 9.60912 1.86249L8.55258 4.55748C8.32557 5.14099 8.48029 5.82677 8.92793 6.22681L9.76691 6.97821C9.56215 7.36731 9.32454 7.73262 9.06147 8.07414L0.970304 1.13983C0.708483 0.916379 0.332883 0.965926 0.127853 1.25134C-0.0765018 1.53683 -0.0310396 1.94945 0.22958 2.17284L15.011 14.8357C15.1438 14.9535 15.2739 15 15.3814 15C15.5596 15 15.7355 14.9136 15.854 14.7486C16.0816 14.4641 16.0341 14.0512 15.774 13.827ZM9.97997 8.8805C10.3931 8.33336 10.7567 7.74137 11.0443 7.10098C11.1669 6.82755 11.1013 6.49723 10.8856 6.30419L9.66578 5.21127C9.62827 5.17752 9.61577 5.12111 9.63452 5.07285L10.6883 2.38416C10.7055 2.34145 10.7461 2.31282 10.7895 2.31282C10.7973 2.31282 10.8055 2.31367 10.8133 2.31581L13.0975 2.89221C13.1486 2.90503 13.1811 2.94988 13.1811 3.00714C13.1811 5.55966 12.3476 7.89617 10.9755 9.73366L9.97997 8.8805ZM3.43571 13.6875C3.38297 13.6875 3.34194 13.6525 3.33021 13.5978L2.80307 11.0983C2.79174 11.0445 2.81948 10.9847 2.86636 10.9624L5.32352 9.81155C5.36688 9.78934 5.41882 9.80386 5.44655 9.84231L6.44732 11.1789C6.62392 11.4147 6.92645 11.4865 7.17627 11.3523C7.54061 11.1568 7.88771 10.9277 8.22105 10.678L7.21853 9.81891C7.16569 9.8541 7.118 9.89757 7.06434 9.93132L6.37815 9.01531C6.0139 8.5223 5.38374 8.35277 4.84859 8.60707L2.39293 9.75768C1.81003 10.0328 1.49119 10.7207 1.63423 11.395L2.16087 13.8926C2.29766 14.5434 2.82305 15 3.43571 15C6.0039 15 8.33953 14.0233 10.2325 12.4015L9.25552 11.5643C7.62934 12.8918 5.6188 13.6875 3.43571 13.6875Z"/></svg>