<svg data-name="Layer 1" xmlns="http://www.w3.org/2000/svg" viewBox="0 0 32 32"><path d="M9.06 18a1.16 1.16 0 001 .61 1.62 1.62 0 00.5-.11A1.11 1.11 0 0011 17l-2.16-4.42a4.22 4.22 0 01-.33-3.26 9.46 9.46 0 013.09-4.63.82.82 0 01.77-.22A1.07 1.07 0 0113 5l1.55 3.09c.66 1.32.22 1.93.06 2.1L13 12.41a1.1 1.1 0 001.77 1.32l1.66-2.21a3.94 3.94 0 00.17-4.41L14.91 4a3.05 3.05 0 00-4.74-1 11.61 11.61 0 00-3.81 5.66 6.38 6.38 0 00.5 4.91L9.06 18zm16.55 7.1c-.33-.61-.61-1.21-.94-1.82s-.61-1.21-.88-1.82a3.94 3.94 0 00-3.42-2.15h-.06l-2.21.06a1.16 1.16 0 00-1.1 1.15 1.06 1.06 0 001.1 1l2.21-.06a1.64 1.64 0 011.43.94c.28.61.61 1.21.94 1.82s.61 1.21.94 1.82a.82.82 0 010 .72.79.79 0 01-.55.44 9.65 9.65 0 01-5.74-.2A4.4 4.4 0 0115 24.83l-.55-1.1a1.11 1.11 0 00-2 1l.55 1.1a6.46 6.46 0 003.59 3.25 12.38 12.38 0 004 .72 11.86 11.86 0 003.09-.39 3 3 0 001.93-4.3zm.06-17.05A1.07 1.07 0 0024.12 8L6.41 24.28a1.07 1.07 0 00-.05 1.55 1.12 1.12 0 00.83.33 1.31 1.31 0 00.81-.28L25.61 9.6a1.11 1.11 0 00.06-1.55z"/></svg>