<svg viewBox="0 0 16 16" xmlns="http://www.w3.org/2000/svg"><g clip-path="url(#clip0_335_49)"><path d="M11.8101 9.99994C11.1701 9.52994 10.3301 9.43994 9.6101 9.77994L8.7201 10.1899C8.3601 10.3599 7.9301 10.2999 7.6301 10.0299C7.3401 9.77994 7.0501 9.50994 6.7701 9.21994C6.4901 8.92994 6.2201 8.64994 5.9601 8.35994C5.7001 8.05994 5.6301 7.62994 5.8001 7.26994L6.1601 6.49994C6.5401 5.67994 6.4801 4.83994 5.9901 4.17994C5.6101 3.66994 5.1801 3.17994 4.7201 2.71994C3.9601 1.97994 2.7501 1.91994 1.9101 2.57994L1.3101 3.04994C0.0600977 4.01994 -0.349902 5.74994 0.330098 7.15994C1.2101 8.98994 2.4101 10.6599 3.8801 12.1299C5.3501 13.5999 7.0201 14.7899 8.8501 15.6799C9.3101 15.8999 9.7901 16.0099 10.2801 16.0099C11.3001 16.0099 12.3001 15.5499 12.9601 14.6999L13.3501 14.1999C14.0701 13.2699 14.0501 12.0699 13.2801 11.2899C12.8201 10.8099 12.3301 10.3799 11.8101 9.99994ZM12.1601 13.2599L11.7701 13.7599C11.2301 14.4599 10.2701 14.6899 9.4901 14.3199C7.8201 13.5099 6.2801 12.4199 4.9301 11.0599C3.5801 9.70994 2.4901 8.17994 1.6801 6.49994C1.3001 5.72994 1.5401 4.76994 2.2301 4.22994L2.8301 3.75994C2.9501 3.65994 3.1001 3.61994 3.2401 3.61994C3.4001 3.61994 3.5501 3.67994 3.6701 3.78994C4.0801 4.18994 4.4501 4.61994 4.7801 5.06994C4.9401 5.27994 4.9401 5.54994 4.7901 5.86994L4.4401 6.63994C4.0201 7.53994 4.1801 8.60994 4.8401 9.35994C5.1201 9.66994 5.4101 9.97994 5.7101 10.2899C6.0101 10.5999 6.3201 10.8799 6.6401 11.1599C7.3901 11.8199 8.4501 11.9699 9.3601 11.5499L10.2501 11.1399C10.4701 11.0399 10.7301 11.0599 10.9201 11.2099C11.3701 11.5399 11.8001 11.9199 12.2001 12.3199C12.4301 12.5499 12.4101 12.9299 12.1601 13.2599Z"/><path d="M15.7801 3.09994L13.1501 0.469941C12.8601 0.179941 12.3801 0.179941 12.0901 0.469941C11.8001 0.759941 11.8001 1.23994 12.0901 1.52994L13.4401 2.87994H8.0001C7.5901 2.87994 7.2501 3.21994 7.2501 3.62994C7.2501 4.03994 7.5901 4.37994 8.0001 4.37994H13.4401L12.0901 5.72994C11.8001 6.01994 11.8001 6.49994 12.0901 6.78994C12.2401 6.93994 12.4301 7.00994 12.6201 7.00994C12.8101 7.00994 13.0001 6.93994 13.1501 6.79994L15.7801 4.16994C16.0701 3.86994 16.0701 3.39994 15.7801 3.09994Z"/></g><defs><clipPath><rect/></clipPath></defs></svg>