<svg viewBox="0 0 16 16" xmlns="http://www.w3.org/2000/svg"><path d="M15.6227 9.7293C13.5919 7.63711 10.8867 6.46152 7.98415 6.46152C5.10407 6.46152 2.39884 7.61451 0.36805 9.70898C-0.0568436 10.1477 -0.10905 10.8193 0.186577 11.3419L1.40455 13.35C1.73428 13.8967 2.39897 14.1181 2.98822 13.8832L5.42742 12.878C5.97834 12.6797 6.28558 12.0982 6.25061 11.5396L6.1457 10.4479C7.36018 10.1107 8.65359 10.1114 9.87007 10.4479L9.76508 11.5346C9.70381 12.1201 10.0351 12.682 10.5682 12.9001L13.0039 13.9038C13.1623 13.9695 13.3047 14 13.487 14C13.9234 14 14.3428 13.7731 14.5844 13.3731L15.8028 11.3639C16.1223 10.8389 16.0474 10.1686 15.6227 9.7293ZM14.7834 10.7018L13.5642 12.7119C13.5412 12.7516 13.4928 12.7675 13.4542 12.7516L11.017 11.7471C10.9791 11.7321 10.953 11.6852 10.958 11.6361L11.1114 10.0504C11.1383 9.76985 10.9728 9.50731 10.711 9.41514C8.9672 8.80094 7.04657 8.80145 5.30553 9.41474C5.04375 9.50678 4.87814 9.76945 4.90511 10.05L5.05811 11.6369C5.06318 11.6845 5.03704 11.7321 4.99841 11.748L2.56495 12.7509C2.52047 12.7692 2.47363 12.7525 2.44865 12.7105L1.22993 10.7005C1.20235 10.6789 1.20859 10.623 1.24481 10.585C3.0483 8.72637 5.44878 7.68027 7.98415 7.68027C10.542 7.68027 12.9425 8.70377 14.746 10.5646C14.8059 10.623 14.8109 10.6789 14.7834 10.7018ZM3.01083 5.0625C3.3418 5.0625 3.58785 4.78955 3.58785 4.45312V3.08051L4.97243 4.48816C5.73604 5.24023 6.76018 5.67188 7.8068 5.67188C8.85342 5.67188 9.87831 5.24023 10.6194 4.48791L12.8276 2.24312C13.0617 2.00509 13.0617 1.61953 12.8276 1.38137C12.5934 1.14333 12.2141 1.14333 11.9798 1.38137L9.77165 3.62615C8.73827 4.67682 6.87658 4.67682 5.84495 3.62615L4.43713 2.21875H5.7875C6.11847 2.21875 6.36451 1.9458 6.36451 1.60938C6.36451 1.27295 6.1407 1 5.80848 1H3.01083C2.68111 1 2.41183 1.27295 2.41183 1.60938V4.45312C2.41183 4.79082 2.68111 5.0625 3.01083 5.0625Z"/></svg>