<svg viewBox="0 0 16 16" xmlns="http://www.w3.org/2000/svg"><path d="M10.7844 3.34688C10.465 3.08613 9.9925 3.1311 9.72875 3.45135C9.46606 3.77166 9.51294 4.24416 9.83325 4.50698C10.892 5.3751 11.4992 6.63791 11.4992 7.9726C11.4992 9.30729 10.8917 10.5692 9.83325 11.4382C9.51294 11.7008 9.46606 12.1735 9.72875 12.4938C9.87719 12.6745 10.0919 12.7683 10.3088 12.7683C10.4767 12.7683 10.6447 12.7126 10.7844 12.5983C12.1938 11.4719 13 9.78438 13 7.97188C13 6.21563 12.1938 4.52813 10.7844 3.34688ZM12.7 1.03595C12.3806 0.775261 11.9081 0.821167 11.6444 1.14045C11.3817 1.46076 11.4286 1.93357 11.7489 2.19607C13.4969 3.62813 14.5 5.74376 14.5 7.97188C14.5 10.2275 13.4972 12.3438 11.7481 13.775C11.4278 14.0377 11.3809 14.5103 11.6436 14.8306C11.7921 15.0112 12.0068 15.105 12.2236 15.105C12.3916 15.105 12.5596 15.0494 12.6993 14.9351C14.7969 13.2438 16 10.7063 16 7.97188C16 5.29376 14.7969 2.75438 12.7 1.03595ZM4.9625 6.40938C5.605 6.48263 6.20563 6.11057 6.44094 5.51876L7.39906 3.12938C7.65494 2.48595 7.41371 1.75251 6.82688 1.38626L4.9125 0.219323C4.34375 -0.135176 3.61562 -0.0541138 3.14062 0.420323C1.11625 2.44157 0 5.13438 0 7.97188C0 10.8384 1.11531 13.5313 3.14062 15.5531C3.41875 15.8563 3.78437 16 4.15312 16C4.41387 16 4.6775 15.9278 4.91281 15.7813L6.82594 14.5872C7.41187 14.2219 7.65406 13.4897 7.39906 12.8394L6.44094 10.4478C6.20313 9.8625 5.60625 9.49688 4.96875 9.55938L4.075 9.64688C3.80744 8.56688 3.80744 7.42782 4.075 6.34688L4.9625 6.40938ZM2.82219 10.7C2.9345 11.0291 3.24688 11.24 3.60625 11.2028L5.04875 11.0095L6.03125 13.3125L4.20125 14.5166C2.45906 12.7781 1.5 10.4656 1.5 7.97188C1.5 5.52376 2.44625 3.22501 4.16406 1.49064L6.00594 2.57251L5.11875 4.94376L3.60625 4.79376C3.25281 4.7591 2.93531 4.96857 2.82219 5.29719C2.22656 7.04063 2.2275 8.95625 2.82219 10.7ZM8.89375 5.68438C8.5725 5.42363 8.09969 5.46954 7.83906 5.79082C7.575 6.11251 7.62187 6.58438 7.94375 6.84688C8.29719 7.13594 8.50031 7.55594 8.50031 7.99907C8.50031 8.4425 8.29719 8.86219 7.94375 9.15125C7.62187 9.41563 7.575 9.8875 7.8375 10.2063C7.98497 10.3879 8.20062 10.4816 8.4175 10.4816C8.5845 10.4816 8.75344 10.426 8.89219 10.3127C9.59625 9.73644 9.99969 8.89394 9.99969 7.99863C9.97187 7.10313 9.59688 6.26251 8.89375 5.68438Z"/></svg>