<svg viewBox="0 0 16 16" xmlns="http://www.w3.org/2000/svg"><path d="M11.8093 9.86875C11.1693 9.39875 10.3293 9.30875 9.60935 9.64875L8.71935 10.0587C8.35935 10.2287 7.92935 10.1687 7.62935 9.89875C7.33935 9.64875 7.04935 9.37875 6.76935 9.08875C6.48935 8.79875 6.21935 8.51875 5.95935 8.22875C5.69935 7.92875 5.62935 7.49875 5.79935 7.13875L6.15935 6.36875C6.53935 5.54875 6.47935 4.70875 5.98935 4.04875C5.60935 3.53875 5.17935 3.04875 4.71935 2.58875C3.95935 1.84875 2.74935 1.78875 1.90935 2.44875L1.30935 2.91875C0.0593462 3.88875 -0.350654 5.61875 0.329346 7.02875C1.20935 8.85875 2.40935 10.5287 3.87935 11.9987C5.34935 13.4687 7.01935 14.6587 8.84935 15.5487C9.30935 15.7687 9.78935 15.8787 10.2793 15.8787C11.2993 15.8787 12.2993 15.4187 12.9593 14.5687L13.3493 14.0687C14.0693 13.1387 14.0493 11.9387 13.2793 11.1587C12.8193 10.6787 12.3293 10.2487 11.8093 9.86875ZM12.1593 13.1287L11.7693 13.6287C11.2293 14.3287 10.2693 14.5587 9.48935 14.1887C7.81935 13.3787 6.27935 12.2887 4.92935 10.9287C3.57935 9.57875 2.48935 8.04875 1.67935 6.36875C1.29935 5.59875 1.53935 4.63875 2.22935 4.09875L2.82935 3.62875C2.94935 3.52875 3.09935 3.48875 3.23935 3.48875C3.39935 3.48875 3.54935 3.54875 3.66935 3.65875C4.07935 4.05875 4.44935 4.48875 4.77935 4.93875C4.93935 5.14875 4.93935 5.41875 4.78935 5.73875L4.43935 6.50875C4.01935 7.40875 4.17935 8.47875 4.83935 9.22875C5.11935 9.53875 5.40935 9.84875 5.70935 10.1587C6.00935 10.4687 6.31935 10.7487 6.63935 11.0287C7.38935 11.6887 8.44935 11.8387 9.35935 11.4187L10.2493 11.0087C10.4693 10.9087 10.7293 10.9287 10.9193 11.0787C11.3693 11.4087 11.7993 11.7887 12.1993 12.1887C12.4293 12.4187 12.4093 12.7987 12.1593 13.1287Z"/><path d="M15.7793 2.96875L13.1493 0.338746C12.8593 0.0487463 12.3793 0.0487463 12.0893 0.338746C11.7993 0.628746 11.7993 1.10875 12.0893 1.39875L13.4393 2.74875H7.99935C7.58935 2.74875 7.24935 3.08875 7.24935 3.49875C7.24935 3.90875 7.58935 4.24875 7.99935 4.24875H13.4393L12.0893 5.59875C11.7993 5.88875 11.7993 6.36875 12.0893 6.65875C12.2393 6.80875 12.4293 6.87875 12.6193 6.87875C12.8093 6.87875 12.9993 6.80875 13.1493 6.66875L15.7793 4.03875C16.0693 3.73875 16.0693 3.26875 15.7793 2.96875Z"/></svg>