<svg viewBox="0 0 16 16" xmlns="http://www.w3.org/2000/svg"><path d="M4.05 4.8H0.75C0.34 4.8 0 4.46 0 4.05V0.75C0 0.34 0.34 0 0.75 0H4.05C4.46 0 4.8 0.34 4.8 0.75V4.05C4.8 4.46 4.46 4.8 4.05 4.8ZM1.5 3.3H3.3V1.5H1.5V3.3Z"/><path d="M9.65 4.8H6.35C5.94 4.8 5.6 4.46 5.6 4.05V0.75C5.6 0.34 5.94 0 6.35 0H9.65C10.06 0 10.4 0.34 10.4 0.75V4.05C10.4 4.46 10.06 4.8 9.65 4.8ZM7.1 3.3H8.9V1.5H7.1V3.3Z"/><path d="M15.25 4.8H11.95C11.54 4.8 11.2 4.46 11.2 4.05V0.75C11.2 0.34 11.54 0 11.95 0H15.25C15.66 0 16 0.34 16 0.75V4.05C16 4.46 15.66 4.8 15.25 4.8ZM12.7 3.3H14.5V1.5H12.7V3.3Z"/><path d="M4.05 10.4H0.75C0.34 10.4 0 10.06 0 9.65V6.35C0 5.94 0.34 5.6 0.75 5.6H4.05C4.46 5.6 4.8 5.94 4.8 6.35V9.65C4.8 10.06 4.46 10.4 4.05 10.4ZM1.5 8.9H3.3V7.1H1.5V8.9Z"/><path d="M9.65 10.4H6.35C5.94 10.4 5.6 10.06 5.6 9.65V6.35C5.6 5.94 5.94 5.6 6.35 5.6H9.65C10.06 5.6 10.4 5.94 10.4 6.35V9.65C10.4 10.06 10.06 10.4 9.65 10.4ZM7.1 8.9H8.9V7.1H7.1V8.9Z"/><path d="M15.25 10.4H11.95C11.54 10.4 11.2 10.06 11.2 9.65V6.35C11.2 5.94 11.54 5.6 11.95 5.6H15.25C15.66 5.6 16 5.94 16 6.35V9.65C16 10.06 15.66 10.4 15.25 10.4ZM12.7 8.9H14.5V7.1H12.7V8.9Z"/><path d="M4.05 16H0.75C0.34 16 0 15.66 0 15.25V11.95C0 11.54 0.34 11.2 0.75 11.2H4.05C4.46 11.2 4.8 11.54 4.8 11.95V15.25C4.8 15.66 4.46 16 4.05 16ZM1.5 14.5H3.3V12.7H1.5V14.5Z"/><path d="M9.65 16H6.35C5.94 16 5.6 15.66 5.6 15.25V11.95C5.6 11.54 5.94 11.2 6.35 11.2H9.65C10.06 11.2 10.4 11.54 10.4 11.95V15.25C10.4 15.66 10.06 16 9.65 16ZM7.1 14.5H8.9V12.7H7.1V14.5Z"/><path d="M15.25 16H11.95C11.54 16 11.2 15.66 11.2 15.25V11.95C11.2 11.54 11.54 11.2 11.95 11.2H15.25C15.66 11.2 16 11.54 16 11.95V15.25C16 15.66 15.66 16 15.25 16ZM12.7 14.5H14.5V12.7H12.7V14.5Z"/></svg>