<svg viewBox="0 0 16 17" xmlns="http://www.w3.org/2000/svg"><path d="M15.7804 2.53033C16.0733 2.23744 16.0733 1.76256 15.7804 1.46967C15.4875 1.17678 15.0127 1.17678 14.7198 1.46967L11.2501 4.93934L9.78042 3.46967C9.48753 3.17678 9.01265 3.17678 8.71976 3.46967C8.42687 3.76256 8.42687 4.23744 8.71976 4.53033L10.7198 6.53033C10.8604 6.67098 11.0512 6.75 11.2501 6.75C11.449 6.75 11.6398 6.67098 11.7804 6.53033L15.7804 2.53033Z"/><path fill-rule="evenodd" clip-rule="evenodd" d="M9.6101 9.78C10.3301 9.44 11.1701 9.53 11.8101 10C12.3301 10.38 12.8201 10.81 13.2801 11.29C14.0501 12.07 14.0701 13.27 13.3501 14.2L12.9601 14.7C12.3001 15.55 11.3001 16.01 10.2801 16.01C9.7901 16.01 9.3101 15.9 8.8501 15.68C7.0201 14.79 5.3501 13.6 3.8801 12.13C2.4101 10.66 1.2101 8.99 0.330098 7.16C-0.349902 5.75 0.0600977 4.02 1.3101 3.05L1.9101 2.58C2.7501 1.92 3.9601 1.98 4.7201 2.72C5.1801 3.18 5.6101 3.67 5.9901 4.18C6.4801 4.84 6.5401 5.68 6.1601 6.5L5.8001 7.27C5.6301 7.63 5.7001 8.06 5.9601 8.36C6.2201 8.65 6.4901 8.94 6.7701 9.22C7.0501 9.5 7.3401 9.77 7.6301 10.03C7.9301 10.3 8.3501 10.36 8.7201 10.19L9.6101 9.78ZM11.7701 13.76L12.1601 13.26C12.4101 12.93 12.4301 12.55 12.2001 12.32C11.8001 11.92 11.3701 11.54 10.9201 11.21C10.7301 11.06 10.4701 11.04 10.2501 11.14L9.3601 11.55C8.4501 11.97 7.3901 11.82 6.6401 11.16C6.3201 10.88 6.0101 10.59 5.7101 10.29C5.4101 9.98 5.1201 9.67 4.8401 9.36C4.1801 8.61 4.0201 7.54 4.4401 6.64L4.7901 5.87C4.9401 5.55 4.9401 5.28 4.7801 5.07C4.4501 4.62 4.0801 4.19 3.6701 3.79C3.5501 3.68 3.4001 3.62 3.2401 3.62C3.1001 3.62 2.9501 3.66 2.8301 3.76L2.2301 4.23C1.5401 4.77 1.3001 5.73 1.6801 6.5C2.4901 8.18 3.5801 9.71 4.9301 11.06C6.2801 12.42 7.8201 13.51 9.4901 14.32C10.2701 14.69 11.2301 14.46 11.7701 13.76Z"/></svg>