<svg xmlns="http://www.w3.org/2000/svg" viewBox="0 0 16 16"><path d="M12.683 6.135h-2.111L14 2.707 13.293 2 9.865 5.428v-2.11h-1v3.817h3.818zm1.568 5.681-2.088-2.09a.764.764 0 0 0-1.07.026l-.295.294-.417.411a2.021 2.021 0 0 1-2.854.067l-.349-.347-1.74-1.74a2.021 2.021 0 0 1 .069-2.855l.235-.229.181-.179.295-.3a.759.759 0 0 0 .023-1.07L4.152 1.718a.758.758 0 0 0-1.069.025l-.47.529a3.665 3.665 0 0 0-1.035 1.883C1.332 5.69 2.233 8.633 4.8 11.2a.12.12 0 0 1 .026.026C7.4 13.8 10.339 14.7 11.873 14.451a3.657 3.657 0 0 0 1.883-1.033l.472-.53a.762.762 0 0 0 .023-1.072z"/></svg>