<svg viewBox="0 0 16 16" xmlns="http://www.w3.org/2000/svg"><g clip-path="url(#clip0_60_2418)"><path d="M16.0004 2.51011C15.9465 2.35996 15.8474 2.23024 15.7166 2.13888C15.5858 2.04752 15.4299 1.99903 15.2704 2.00011L13.7704 1.92011L13.2304 0.50011C13.178 0.351788 13.0803 0.223702 12.9511 0.133973C12.8218 0.0442433 12.6677 -0.00258593 12.5104 0.000110218V0.000110218C12.3535 -0.00109773 12.2 0.0463187 12.0711 0.135847C11.9421 0.225374 11.8441 0.352622 11.7904 0.50011L11.2504 1.89011L9.75041 2.00011C9.59494 2.01198 9.44647 2.06959 9.32368 2.16569C9.2009 2.26178 9.10929 2.39206 9.06041 2.54011C9.01104 2.68732 9.00857 2.84622 9.05335 2.99489C9.09813 3.14355 9.18795 3.27466 9.31041 3.37011L10.4704 4.31011L10.0804 5.77011C10.0405 5.92009 10.0468 6.07865 10.0985 6.22498C10.1503 6.37131 10.2451 6.49858 10.3704 6.59011C10.501 6.67613 10.654 6.72198 10.8104 6.72198C10.9668 6.72198 11.1198 6.67613 11.2504 6.59011L12.5104 5.77011L13.7704 6.59011C13.9006 6.67739 14.0537 6.72399 14.2104 6.72399C14.3671 6.72399 14.5203 6.67739 14.6504 6.59011C14.7762 6.4992 14.8707 6.3715 14.9208 6.22464C14.971 6.07777 14.9743 5.91896 14.9304 5.77011L14.5504 4.33011L15.7104 3.33011C15.8368 3.23953 15.9324 3.11233 15.9843 2.9657C16.0362 2.81906 16.0418 2.66004 16.0004 2.51011V2.51011ZM13.8004 3.60011C13.6842 3.69387 13.5977 3.81943 13.5515 3.96147C13.5053 4.10351 13.5015 4.25591 13.5404 4.40011L13.8104 5.40011L12.9204 4.82011C12.7961 4.74199 12.6522 4.70055 12.5054 4.70055C12.3586 4.70055 12.2147 4.74199 12.0904 4.82011L11.2004 5.40011L11.4604 4.40011C11.5088 4.25213 11.5118 4.09306 11.469 3.94336C11.4263 3.79366 11.3397 3.66018 11.2204 3.56011L10.4004 2.90011H11.4004C11.5505 2.89331 11.6952 2.84218 11.8162 2.75319C11.9372 2.66419 12.0292 2.54133 12.0804 2.40011L12.4604 1.40011L12.8404 2.40011C12.8938 2.53991 12.9864 2.66138 13.1069 2.75003C13.2275 2.83869 13.371 2.89079 13.5204 2.90011H14.5204L13.8004 3.60011Z"/><path d="M11.8692 10.0002C11.5535 9.77079 11.1824 9.62951 10.794 9.59085C10.4057 9.55219 10.014 9.61754 9.65925 9.78019L9.39925 9.90019L8.76925 10.2002C8.58683 10.2802 8.38467 10.3039 8.18869 10.2683C7.99271 10.2326 7.81183 10.1393 7.66925 10.0002C7.36925 9.73019 7.08925 9.46019 6.80925 9.19019L5.99925 8.35019C5.86261 8.2015 5.77419 8.01491 5.74563 7.815C5.71707 7.61508 5.74971 7.4112 5.83925 7.23019L6.19925 6.46019C6.38489 6.09138 6.46449 5.67826 6.42917 5.26688C6.39386 4.85549 6.24503 4.46198 5.99925 4.13019C5.62147 3.60863 5.19994 3.1202 4.73925 2.67019C4.36465 2.30779 3.87115 2.09381 3.35057 2.06806C2.83 2.0423 2.31779 2.20654 1.90925 2.53019L1.31925 3.00019C0.705262 3.47034 0.271054 4.1368 0.0890697 4.8884C-0.0929146 5.63999 -0.0116698 6.43126 0.319249 7.13019C1.21345 8.98688 2.41733 10.6777 3.87925 12.1302C5.33286 13.5908 7.02345 14.7945 8.87925 15.6902C9.32849 15.9066 9.8206 16.0194 10.3192 16.0202C10.8373 16.0146 11.3474 15.8921 11.8114 15.6618C12.2755 15.4315 12.6815 15.0994 12.9992 14.6902L13.3892 14.1902C13.743 13.7807 13.9326 13.2547 13.9216 12.7137C13.9105 12.1726 13.6995 11.6549 13.3292 11.2602C12.8711 10.8083 12.3833 10.3874 11.8692 10.0002V10.0002ZM12.2192 13.2802L11.8192 13.7802C11.5598 14.1222 11.1906 14.3645 10.7736 14.4665C10.3566 14.5685 9.91724 14.5239 9.52925 14.3402C7.84566 13.505 6.31435 12.3928 4.99925 11.0502C3.64137 9.72241 2.51876 8.17374 1.67925 6.47019C1.49557 6.0822 1.45096 5.64282 1.55294 5.22583C1.65491 4.80884 1.89724 4.43963 2.23925 4.18019L2.83925 3.71019C2.95453 3.61442 3.09938 3.56143 3.24925 3.56019C3.33083 3.55978 3.41168 3.57546 3.48719 3.60635C3.56269 3.63724 3.63136 3.68272 3.68925 3.74019C4.10048 4.12491 4.4754 4.5467 4.80925 5.00019C4.88236 5.12264 4.92096 5.26259 4.92096 5.40519C4.92096 5.5478 4.88236 5.68775 4.80925 5.81019L4.44925 6.59019C4.24452 7.03513 4.17334 7.52992 4.24434 8.01452C4.31535 8.49912 4.52548 8.9527 4.84925 9.32019C5.12925 9.63019 5.41925 9.93019 5.71925 10.2502L6.65925 11.1302C7.02656 11.4585 7.48335 11.67 7.97135 11.7377C8.45935 11.8054 8.95645 11.7262 9.39925 11.5102L10.0092 11.2202L10.2792 11.1002C10.3867 11.0495 10.5059 11.0293 10.624 11.0416C10.7421 11.054 10.8546 11.0984 10.9492 11.1702C11.4107 11.5096 11.8453 11.8841 12.2492 12.2902V12.2902C12.3706 12.4244 12.4352 12.6004 12.4296 12.7812C12.424 12.9621 12.3486 13.1337 12.2192 13.2602V13.2802Z"/></g><defs><clipPath><rect/></clipPath></defs></svg>