<svg viewBox="0 0 16 16" xmlns="http://www.w3.org/2000/svg"><g clip-path="url(#clip0)"><path d="M13.5601 3.49994L15.7801 1.27994C16.0701 0.989941 16.0701 0.509941 15.7801 0.219941C15.4901 -0.0700586 15.0101 -0.0700586 14.7201 0.219941L12.5001 2.43994L10.2801 0.219941C9.9901 -0.0700586 9.5101 -0.0700586 9.2201 0.219941C8.9301 0.509941 8.9301 0.989941 9.2201 1.27994L11.4401 3.49994L9.2201 5.71994C8.9301 6.00994 8.9301 6.48994 9.2201 6.77994C9.3701 6.92994 9.5601 6.99994 9.7501 6.99994C9.9401 6.99994 10.1301 6.92994 10.2801 6.77994L12.5001 4.55994L14.7201 6.77994C14.8701 6.92994 15.0601 6.99994 15.2501 6.99994C15.4401 6.99994 15.6301 6.92994 15.7801 6.77994C16.0701 6.48994 16.0701 6.00994 15.7801 5.71994L13.5601 3.49994Z"/><path d="M11.8101 9.99994C11.1701 9.52994 10.3301 9.43994 9.6101 9.77994L8.7201 10.1899C8.3501 10.3599 7.9301 10.2999 7.6301 10.0299C7.3401 9.76994 7.0501 9.49994 6.7701 9.21994C6.4901 8.93994 6.2201 8.64994 5.9601 8.35994C5.7001 8.05994 5.6301 7.62994 5.8001 7.26994L6.1601 6.49994C6.5401 5.67994 6.4801 4.83994 5.9901 4.17994C5.6101 3.66994 5.1801 3.17994 4.7201 2.71994C3.9601 1.97994 2.7501 1.91994 1.9101 2.57994L1.3101 3.04994C0.0600977 4.01994 -0.349902 5.74994 0.330098 7.15994C1.2101 8.98994 2.4101 10.6599 3.8801 12.1299C5.3501 13.5999 7.0201 14.7899 8.8501 15.6799C9.3101 15.8999 9.7901 16.0099 10.2801 16.0099C11.3001 16.0099 12.3001 15.5499 12.9601 14.6999L13.3501 14.1999C14.0701 13.2699 14.0501 12.0699 13.2801 11.2899C12.8201 10.8099 12.3301 10.3799 11.8101 9.99994ZM12.1601 13.2599L11.7701 13.7599C11.2301 14.4599 10.2701 14.6899 9.4901 14.3199C7.8201 13.5099 6.2801 12.4199 4.9301 11.0599C3.5801 9.70994 2.4901 8.17994 1.6801 6.49994C1.3001 5.72994 1.5401 4.76994 2.2301 4.22994L2.8301 3.75994C2.9501 3.65994 3.1001 3.61994 3.2401 3.61994C3.4001 3.61994 3.5501 3.67994 3.6701 3.78994C4.0801 4.18994 4.4501 4.61994 4.7801 5.06994C4.9401 5.27994 4.9401 5.54994 4.7901 5.86994L4.4401 6.63994C4.0201 7.53994 4.1801 8.60994 4.8401 9.35994C5.1201 9.66994 5.4101 9.97994 5.7101 10.2899C6.0101 10.5899 6.3201 10.8799 6.6401 11.1599C7.3901 11.8199 8.4501 11.9699 9.3601 11.5499L10.2501 11.1399C10.4701 11.0399 10.7301 11.0599 10.9201 11.2099C11.3701 11.5399 11.8001 11.9199 12.2001 12.3199C12.4301 12.5499 12.4101 12.9299 12.1601 13.2599Z"/></g><defs><clipPath><rect/></clipPath></defs></svg>