<svg viewBox="0 0 16 16" xmlns="http://www.w3.org/2000/svg"><path d="M3.14286 0C3.93214 0 4.57143 0.639643 4.57143 1.42857V3.14286C4.57143 3.93214 3.93214 4.57143 3.14286 4.57143H1.42857C0.639643 4.57143 0 3.93214 0 3.14286V1.42857C0 0.639643 0.639643 0 1.42857 0H3.14286ZM3.14286 1.42857H1.42857V3.14286H3.14286V1.42857ZM3.14286 5.71429C3.93214 5.71429 4.57143 6.35357 4.57143 7.14286V8.85714C4.57143 9.64643 3.93214 10.2857 3.14286 10.2857H1.42857C0.639643 10.2857 0 9.64643 0 8.85714V7.14286C0 6.35357 0.639643 5.71429 1.42857 5.71429H3.14286ZM3.14286 7.14286H1.42857V8.85714H3.14286V7.14286ZM0 12.8571C0 12.0679 0.639643 11.4286 1.42857 11.4286H3.14286C3.93214 11.4286 4.57143 12.0679 4.57143 12.8571V14.5714C4.57143 15.3607 3.93214 16 3.14286 16H1.42857C0.639643 16 0 15.3607 0 14.5714V12.8571ZM1.42857 14.5714H3.14286V12.8571H1.42857V14.5714ZM8.85714 0C9.64643 0 10.2857 0.639643 10.2857 1.42857V3.14286C10.2857 3.93214 9.64643 4.57143 8.85714 4.57143H7.14286C6.35357 4.57143 5.71429 3.93214 5.71429 3.14286V1.42857C5.71429 0.639643 6.35357 0 7.14286 0H8.85714ZM8.85714 1.42857H7.14286V3.14286H8.85714V1.42857ZM5.71429 7.14286C5.71429 6.35357 6.35357 5.71429 7.14286 5.71429H8.85714C9.64643 5.71429 10.2857 6.35357 10.2857 7.14286V8.85714C10.2857 9.64643 9.64643 10.2857 8.85714 10.2857H7.14286C6.35357 10.2857 5.71429 9.64643 5.71429 8.85714V7.14286ZM7.14286 8.85714H8.85714V7.14286H7.14286V8.85714ZM8.85714 11.4286C9.64643 11.4286 10.2857 12.0679 10.2857 12.8571V14.5714C10.2857 15.3607 9.64643 16 8.85714 16H7.14286C6.35357 16 5.71429 15.3607 5.71429 14.5714V12.8571C5.71429 12.0679 6.35357 11.4286 7.14286 11.4286H8.85714ZM8.85714 12.8571H7.14286V14.5714H8.85714V12.8571ZM11.4286 1.42857C11.4286 0.639643 12.0679 0 12.8571 0H14.5714C15.3607 0 16 0.639643 16 1.42857V3.14286C16 3.93214 15.3607 4.57143 14.5714 4.57143H12.8571C12.0679 4.57143 11.4286 3.93214 11.4286 3.14286V1.42857ZM12.8571 3.14286H14.5714V1.42857H12.8571V3.14286ZM14.5714 5.71429C15.3607 5.71429 16 6.35357 16 7.14286V8.85714C16 9.64643 15.3607 10.2857 14.5714 10.2857H12.8571C12.0679 10.2857 11.4286 9.64643 11.4286 8.85714V7.14286C11.4286 6.35357 12.0679 5.71429 12.8571 5.71429H14.5714ZM14.5714 7.14286H12.8571V8.85714H14.5714V7.14286ZM11.4286 12.8571C11.4286 12.0679 12.0679 11.4286 12.8571 11.4286H14.5714C15.3607 11.4286 16 12.0679 16 12.8571V14.5714C16 15.3607 15.3607 16 14.5714 16H12.8571C12.0679 16 11.4286 15.3607 11.4286 14.5714V12.8571ZM12.8571 14.5714H14.5714V12.8571H12.8571V14.5714Z"/></svg>