<svg viewBox="0 0 16 16" xmlns="http://www.w3.org/2000/svg"><path d="M7.99982 9.93C6.20982 9.93 4.74982 8.47 4.74982 6.68C4.74982 6.38 4.78982 6.07 4.86982 5.78C4.98982 5.39 5.39982 5.15 5.79982 5.27C6.19982 5.38 6.42982 5.8 6.31982 6.2C6.26982 6.35 6.24982 6.52 6.24982 6.68C6.24982 7.64 7.03982 8.43 7.99982 8.43C8.95982 8.43 9.74982 7.64 9.74982 6.68C9.74982 5.72 8.96982 4.93 7.99982 4.93C7.82982 4.93 7.66982 4.96 7.51982 5C7.11982 5.11 6.70982 4.89 6.58982 4.49C6.46982 4.09 6.69982 3.67 7.09982 3.56C7.38982 3.48 7.68982 3.43 7.99982 3.43C9.78982 3.43 11.2498 4.89 11.2498 6.68C11.2498 8.47 9.78982 9.93 7.99982 9.93Z"/><path d="M7.99982 16C7.79982 16 7.59982 15.92 7.45982 15.77L3.17982 11.31C1.97982 10.06 1.31982 8.42 1.31982 6.68C1.31982 3 4.31982 0 7.99982 0C11.6798 0 14.6798 3 14.6798 6.68C14.6798 8.41 14.0198 10.06 12.8198 11.3L8.53982 15.76C8.39982 15.92 8.19982 16 7.99982 16ZM7.99982 1.5C5.13982 1.5 2.81982 3.83 2.81982 6.68C2.81982 8.02 3.32982 9.3 4.25982 10.27L7.99982 14.17L11.7398 10.27C12.6698 9.3 13.1798 8.03 13.1798 6.68C13.1798 3.83 10.8598 1.5 7.99982 1.5Z"/></svg>