<svg viewBox="0 0 16 16" xmlns="http://www.w3.org/2000/svg"><path d="M10.4633 6.01557C10.4633 7.4004 9.21779 8.52205 7.68 8.52205C6.14221 8.52205 4.89667 7.4004 4.89667 6.01557C4.89667 4.63073 6.14221 3.50908 7.68 3.50908C9.21779 3.50908 10.4633 4.63073 10.4633 6.01557ZM7.68 5.01297C7.06419 5.01297 6.56667 5.46101 6.56667 6.01557C6.56667 6.57013 7.06419 7.01816 7.68 7.01816C8.29581 7.01816 8.79333 6.57013 8.79333 6.01557C8.79333 5.46101 8.29581 5.01297 7.68 5.01297ZM14.36 6.01557C14.36 8.7539 10.2894 13.629 8.50456 15.6405C8.07662 16.1198 7.28337 16.1198 6.85544 15.6405C5.03931 13.629 1 8.7539 1 6.01557C1 2.69322 3.99069 0 7.68 0C11.3679 0 14.36 2.69322 14.36 6.01557ZM7.68 1.50389C4.91406 1.50389 2.67 3.52475 2.67 6.01557C2.67 6.40407 2.82621 7.00563 3.20231 7.80771C3.56693 8.58472 4.08463 9.44319 4.68096 10.3111C5.66904 11.7586 6.81717 13.1309 7.68 14.1523C8.54283 13.1309 9.69096 11.7586 10.679 10.3111C11.274 9.44319 11.7924 8.58472 12.1577 7.80771C12.5334 7.00563 12.69 6.40407 12.69 6.01557C12.69 3.52475 10.4459 1.50389 7.68 1.50389Z"/></svg>