<svg viewBox="0 0 16 16" xmlns="http://www.w3.org/2000/svg"><g clip-path="url(#clip0)"><path d="M15.78 4.82994L11.17 0.219941C10.88 -0.0700586 10.4 -0.0700586 10.11 0.219941C9.82 0.499941 9.82 0.959941 10.09 1.24994L6.51 4.82994C4.26 4.22994 1.88 4.85994 0.22 6.51994C0.08 6.66994 0 6.85994 0 7.05994C0 7.25994 0.08 7.44994 0.22 7.58994L3.79 11.1599L0.23 14.7199C-0.06 15.0099 -0.06 15.4899 0.23 15.7799C0.37 15.9199 0.56 15.9999 0.75 15.9999C0.94 15.9999 1.13 15.9299 1.28 15.7799L4.84 12.2199L8.4 15.7799C8.56 15.9199 8.75 15.9999 8.94 15.9999C9.13 15.9999 9.32 15.9299 9.47 15.7799C11.13 14.1199 11.76 11.7399 11.16 9.48994L14.74 5.90994C14.88 6.03994 15.06 6.10994 15.25 6.10994C15.44 6.10994 15.63 6.03994 15.78 5.88994C16.07 5.58994 16.07 5.11994 15.78 4.82994ZM10.32 8.20994L8.89 6.77994C8.6 6.48994 8.12 6.48994 7.83 6.77994C7.54 7.06994 7.54 7.54994 7.83 7.83994L9.65 9.65994C10.13 11.2099 9.85 12.8599 8.9 14.1399L1.85 7.09994C3.17 6.11994 4.88 5.84994 6.48 6.38994C6.75 6.47994 7.05 6.40994 7.25 6.20994L11.14 2.31994L13.67 4.84994L10.32 8.20994Z"/></g><defs><clipPath><rect/></clipPath></defs></svg>