<svg data-name="Layer 1" xmlns="http://www.w3.org/2000/svg" viewBox="0 0 32 32"><path d="M31.8.2a.76.76 0 00-.5-.2H19.9a.76.76 0 00-.5.2.76.76 0 00-.2.5v2.5a.76.76 0 00.2.5.76.76 0 00.5.2h5.4L16 13.2a.76.76 0 00-.2.5c0 .2.1.3.2.5l1.8 1.8a.72.72 0 001 0L28 6.7v5.4a.68.68 0 00.7.7h2.5a.68.68 0 00.7-.7V.7c.1-.2 0-.3-.1-.5z"/><path d="M3.9 28.1V3.9h10.2a.76.76 0 00.5-.2.76.76 0 00.2-.5V.7a.76.76 0 00-.2-.5.76.76 0 00-.5-.2H.7C.5 0 .4.1.2.2S0 .5 0 .7v30.6a.76.76 0 00.2.5.76.76 0 00.5.2h30.6a.68.68 0 00.7-.7V17.9a.68.68 0 00-.7-.7h-2.5a.68.68 0 00-.7.7v10.2z"/></svg>