<svg viewBox="0 0 16 16" xmlns="http://www.w3.org/2000/svg"><g clip-path="url(#clip0_335_198)"><path d="M14.25 0H4.75C3.78437 0 3 0.8975 3 2V13.4286C3 13.9007 2.66344 14.2857 2.25 14.2857C1.83656 14.2857 1.5 13.9 1.5 13.4286V2.85714C1.5 2.38393 1.16406 2 0.75 2C0.335938 2 0 2.38393 0 2.85714V13.4286C0 14.8464 1.00937 16 2.25 16H13.25C14.7666 16 16 14.5904 16 12.8571V2C16 0.8975 15.2156 0 14.25 0ZM14.5 12.8571C14.5 13.645 13.9394 14.2857 13.25 14.2857H4.37187C4.45312 14.0179 4.5 13.7286 4.5 13.4286V2C4.5 1.84264 4.61231 1.71429 4.75 1.71429H14.25C14.3877 1.71429 14.5 1.84264 14.5 2V12.8571ZM8.25 8.57143H6.25C5.8375 8.57143 5.5 8.95714 5.5 9.42857C5.5 9.9 5.8375 10.2857 6.25 10.2857H8.25C8.66562 10.2857 9 9.90357 9 9.42857C9 8.95357 8.66562 8.57143 8.25 8.57143ZM12.75 8.57143H10.75C10.3375 8.57143 10 8.95714 10 9.42857C10 9.9 10.3375 10.2857 10.75 10.2857H12.75C13.1641 10.2857 13.5 9.90179 13.5 9.42857C13.5 8.95536 13.1656 8.57143 12.75 8.57143ZM8.25 11.4286H6.25C5.83594 11.4286 5.5 11.8125 5.5 12.2857C5.5 12.7589 5.83594 13.1429 6.25 13.1429H8.25C8.66406 13.1429 9 12.7589 9 12.2857C9 11.8125 8.66562 11.4286 8.25 11.4286ZM12.75 11.4286H10.75C10.3375 11.4286 10 11.8143 10 12.2857C10 12.7571 10.3359 13.1429 10.75 13.1429H12.75C13.1641 13.1429 13.5 12.7589 13.5 12.2857C13.5 11.8125 13.1656 11.4286 12.75 11.4286ZM12.5 2.85714H6.5C5.94781 2.85714 5.5 3.36893 5.5 4V6.28571C5.5 6.91679 5.94781 7.42857 6.5 7.42857H12.5C13.0522 7.42857 13.5 6.91679 13.5 6.28571V4C13.5 3.36786 13.0531 2.85714 12.5 2.85714Z"/></g><defs><clipPath><rect/></clipPath></defs></svg>