<svg viewBox="0 0 16 16" xmlns="http://www.w3.org/2000/svg"><path d="M15.25 0H4.5C4.08 0 3.75 0.34 3.75 0.75V5.75H0.75C0.34 5.75 0 6.08 0 6.5V13.38C0 14.82 1.18 16 2.62 16C4.06 16 5.24 14.82 5.24 13.38V1.5H14.49V13.38C14.49 14 13.99 14.5 13.37 14.5H7C6.59 14.5 6.25 14.84 6.25 15.25C6.25 15.66 6.59 16 7 16H13.38C14.83 16 16 14.82 16 13.38V0.75C16 0.34 15.66 0 15.25 0ZM3.75 13.38C3.75 14 3.25 14.5 2.63 14.5C2.01 14.5 1.5 14 1.5 13.38V7.25H3.75V13.38Z"/><path d="M7 7.25H12.75C13.16 7.25 13.5 6.91 13.5 6.5V3.5C13.5 3.09 13.16 2.75 12.75 2.75H7C6.59 2.75 6.25 3.09 6.25 3.5V6.5C6.25 6.91 6.58 7.25 7 7.25ZM7.75 4.25H12V5.75H7.75V4.25Z"/><path d="M7 10.17H12.75C13.16 10.17 13.5 9.83 13.5 9.42C13.5 9.01 13.16 8.67 12.75 8.67H7C6.58 8.67 6.25 9 6.25 9.42C6.25 9.84 6.58 10.17 7 10.17Z"/><path d="M7 13.08H12.75C13.16 13.08 13.5 12.74 13.5 12.33C13.5 11.92 13.16 11.58 12.75 11.58H7C6.59 11.58 6.25 11.92 6.25 12.33C6.25 12.74 6.58 13.08 7 13.08Z"/></svg>