<svg xmlns="http://www.w3.org/2000/svg" viewBox="0 0 16 16"><path d="M10.883 3.333h.067c.867 0 1.6-.733 1.6-1.6 0-.933-.733-1.6-1.6-1.6-.867 0-1.6.733-1.6 1.6 0 .867.667 1.534 1.533 1.6zM10.95 1c.4 0 .667.333.667.667 0 .333-.333.667-.667.667h-.067c-.4 0-.667-.333-.667-.733.001-.248.188-.601.734-.601zM9.883 4H5.817C4.35 4 3.15 5.2 3.15 6.667s1.2 2.667 2.667 2.667h4.067c1.467 0 2.667-1.2 2.667-2.667S11.35 4 9.883 4zm0 4.2H5.817c-.867 0-1.6-.733-1.6-1.6 0-.867.733-1.6 1.6-1.6h4.067c.867 0 1.6.733 1.6 1.6a1.623 1.623 0 0 1-1.601 1.6zm0 1.933H8.15c-1.467 0-2.667 1.2-2.667 2.667s1.2 2.667 2.667 2.667h1.733c1.467 0 2.667-1.2 2.667-2.667s-1.2-2.667-2.667-2.667zm0 4.267H8.15c-.867 0-1.6-.733-1.6-1.6 0-.867.733-1.6 1.6-1.6h1.733c.867 0 1.6.733 1.6 1.6 0 .867-.733 1.6-1.6 1.6z"/></svg>