<svg xmlns="http://www.w3.org/2000/svg" viewBox="0 0 16 16"><path d="M10.173 4.776a3.963 3.963 0 00-3.242-2.639A2.29 2.29 0 004.745.5a2.3 2.3 0 00-2.297 2.295V9.34A5.588 5.588 0 008 15.5a5.595 5.595 0 005.581-5.581 5.589 5.589 0 00-3.408-5.143zM8 14.599a4.668 4.668 0 01-3.793-1.961c.635.429 1.399.68 2.22.681a3.987 3.987 0 003.978-3.978V6.065c0-.049-.013-.094-.014-.143 1.362.819 2.287 2.297 2.289 3.997 0 2.58-2.1 4.68-4.68 4.68zm1.504-8.534v3.276a3.08 3.08 0 01-3.077 3.077 3.044 3.044 0 01-1.639-.483 2.302 2.302 0 002.251-2.291V5.342A4.69 4.69 0 018 5.241c.508 0 .988.103 1.446.254.035.185.058.374.058.57zm-3.367-.432v4.004a1.394 1.394 0 01-1.357 1.357c-.373-.009-.726-.125-.996-.382a1.39 1.39 0 01-.295-.41 3.031 3.031 0 01-.123-.717 4.668 4.668 0 012.771-3.852zM8 4.336a5.54 5.54 0 00-.961.089V3.05a3.085 3.085 0 011.985 1.384A5.652 5.652 0 008 4.336zm-4.65-.762v-.779a1.39 1.39 0 011.393-1.396c.529.001.983.3 1.22.734A3.952 3.952 0 003.35 3.574zm0 2.491c.002-1.595 1.23-2.896 2.787-3.048v1.645A5.614 5.614 0 003.35 6.837v-.772z"/></svg>