<svg data-name="Layer 1" xmlns="http://www.w3.org/2000/svg" viewBox="0 0 32 32"><path d="M29.86 8A15.88 15.88 0 0024 2.14 15.64 15.64 0 0016 0a15.67 15.67 0 00-8 2.14A16 16 0 002.14 8 15.69 15.69 0 000 16a15.68 15.68 0 002.14 8A15.88 15.88 0 008 29.86 15.64 15.64 0 0016 32a15.73 15.73 0 008-2.14A15.88 15.88 0 0029.86 24 15.69 15.69 0 0032 16a15.73 15.73 0 00-2.14-8zm-2.73 8.67c0 .08 0 .1-.06.13H16v-12a.56.56 0 010-.1c0-.06.23 0 .29 0a4.61 4.61 0 01.51 0 11.19 11.19 0 016.38 2.54 11.65 11.65 0 011.41 1.37 11 11 0 011.14 1.6 8.79 8.79 0 01.78 1.79 13.83 13.83 0 01.63 4.07v.54z"/></svg>