<svg data-name="Layer 1" xmlns="http://www.w3.org/2000/svg" viewBox="0 0 32 32"><path d="M9.74 29.52H3a.5.5 0 01-.5-.5V9.71a.5.5 0 01.5-.5h6.79a.47.47 0 00.44-.55c-.06-.22-.06-.39-.11-.55a5 5 0 00-.5-.94 3.26 3.26 0 01.77-4 3.73 3.73 0 014.41 0 3.3 3.3 0 01.83 4 7.18 7.18 0 00-.63 1.5.47.47 0 00.44.55h6.84a.5.5 0 01.5.5v6.84a.47.47 0 00.55.44c.22-.06.39-.11.55-.17a8.21 8.21 0 001-.5 3.08 3.08 0 013.48.39 3.05 3.05 0 011.16 2.65 3.53 3.53 0 01-2.32 3.2 3.05 3.05 0 01-2.59-.39 2.56 2.56 0 00-1.27-.5.48.48 0 00-.55.5V29a.5.5 0 01-.5.5h-6.82a.47.47 0 01-.44-.55c.06-.17.06-.28.11-.44a7.6 7.6 0 01.5-.94 3.07 3.07 0 00-.33-3.57 3.2 3.2 0 00-3.53-1.1 3.05 3.05 0 00-2.43 2.54 3.21 3.21 0 00.44 2.37 5.92 5.92 0 01.44 1 .55.55 0 01-.5.66z"/></svg>