<svg xmlns="http://www.w3.org/2000/svg" viewBox="0 0 16 16"><path d="M6.902 4.04c-1.97 1.592-2.511 3.151-2.605 4.22a1.84 1.84 0 0 1 .933-.261c1.063 0 1.924.896 1.924 2 0 1.105-.86 2.001-1.924 2.001-.24 0-.462-.063-.671-.148l.007.016s-.092-.033-.222-.106c-.006-.004-.014-.005-.02-.009l-.01-.007a2.097 2.097 0 0 1-.304-.216c-.049-.042-.089-.091-.133-.136-.474-.473-.994-1.373-.857-3.089.083-1.341.688-3.349 3.108-5.305l.774 1.04zm5.846 0c-1.97 1.592-2.511 3.151-2.605 4.22.278-.163.593-.261.934-.261 1.063 0 1.924.896 1.924 2C13 11.104 12.14 12 11.076 12c-.24 0-.462-.063-.671-.148l.007.015s-.092-.033-.222-.106c-.006-.004-.014-.005-.02-.009l-.01-.007a1.947 1.947 0 0 1-.305-.214c-.049-.042-.089-.091-.133-.136-.474-.473-.994-1.373-.857-3.089.082-1.342.688-3.35 3.107-5.306l.776 1.04z"/></svg>