<svg viewBox="0 0 16 16" xmlns="http://www.w3.org/2000/svg"><path d="M3.42857 13.5C5.32214 13.5 6.85714 11.8211 6.85714 9.75C6.85714 7.67891 5.32143 6 3.42857 6C2.80071 6 2.22036 6.19922 1.71429 6.51953V5.6875C1.71429 4.13672 2.86821 2.875 4.28571 2.875H4.85714C5.33214 2.875 5.71429 2.45703 5.71429 1.9375C5.71429 1.41797 5.33214 1 4.85714 1H4.28571C1.92286 1 0 3.10156 0 5.6875V9.75C0 11.8203 1.535 13.5 3.42857 13.5ZM3.42857 7.875C4.37393 7.875 5.14286 8.71602 5.14286 9.75C5.14286 10.784 4.375 11.625 3.42857 11.625C2.48214 11.625 1.71429 10.7852 1.71429 9.75C1.71429 8.71484 2.48321 7.875 3.42857 7.875ZM12.5714 13.5C14.465 13.5 16 11.8211 16 9.75C16 7.67891 14.465 6 12.5714 6C11.9436 6 11.3632 6.19797 10.8571 6.51992V5.6875C10.8571 4.13672 12.0111 2.875 13.4286 2.875H14C14.475 2.875 14.8571 2.45703 14.8571 1.9375C14.8571 1.41797 14.475 1 14 1H13.4286C11.0643 1 9.14286 3.10156 9.14286 5.6875V9.75C9.14286 11.8203 10.6464 13.5 12.5714 13.5ZM12.5714 7.875C13.5168 7.875 14.2857 8.71602 14.2857 9.75C14.2857 10.784 13.5168 11.625 12.5714 11.625C11.6261 11.625 10.8571 10.784 10.8571 9.75C10.8571 8.71602 11.625 7.875 12.5714 7.875Z"/></svg>