<svg xmlns="http://www.w3.org/2000/svg" viewBox="0 0 16 16"><path d="M9.098 11.96c1.97-1.592 2.511-3.151 2.605-4.22a1.835 1.835 0 01-.934.261c-1.063 0-1.924-.896-1.924-2C8.846 4.896 9.706 4 10.77 4c.24 0 .462.063.671.148l-.007-.016s.092.033.222.106c.006.004.014.005.02.009l.01.007c.089.052.191.12.304.216.049.042.089.091.133.136.474.473.994 1.373.857 3.089-.08 1.342-.686 3.35-3.105 5.306l-.777-1.041zm-5.846 0c1.97-1.592 2.511-3.151 2.605-4.22a1.838 1.838 0 01-.933.261C3.86 8.001 3 7.105 3 6.001 3 4.896 3.86 4 4.924 4c.24 0 .462.063.671.148l-.008-.015s.092.033.222.106c.006.004.014.005.02.009l.01.007c.09.051.192.118.305.214.049.042.089.091.133.136.473.473.994 1.373.856 3.089-.08 1.342-.686 3.35-3.105 5.306l-.776-1.04z"/></svg>