<svg viewBox="0 0 16 16" xmlns="http://www.w3.org/2000/svg"><path d="M6.5 1.75H0.75C0.34 1.75 0 2.08 0 2.5V9.67C0 12.19 2.05 14.25 4.58 14.25C4.99 14.25 5.33 13.91 5.33 13.5C5.33 13.09 4.99 12.75 4.58 12.75C2.88 12.75 1.5 11.37 1.5 9.67V3.25H5.75V7.75H3.25C2.84 7.75 2.5 8.09 2.5 8.5C2.5 8.91 2.84 9.25 3.25 9.25H6.5C6.91 9.25 7.25 8.91 7.25 8.5V2.5C7.25 2.08 6.91 1.75 6.5 1.75Z"/><path d="M15.25 1.75H9.5C9.09 1.75 8.75 2.09 8.75 2.5V9.67C8.75 12.19 10.8 14.25 13.33 14.25C13.74 14.25 14.08 13.91 14.08 13.5C14.08 13.09 13.74 12.75 13.33 12.75C11.63 12.75 10.25 11.37 10.25 9.67V3.25H14.5V7.75H12C11.59 7.75 11.25 8.09 11.25 8.5C11.25 8.91 11.59 9.25 12 9.25H15.25C15.66 9.25 16 8.92 16 8.5V2.5C16 2.08 15.66 1.75 15.25 1.75Z"/></svg>