<svg viewBox="0 0 16 16" xmlns="http://www.w3.org/2000/svg"><path d="M15.25 1.75H9.5C9.09 1.75 8.75 2.09 8.75 2.5V8.5C8.75 8.91 9.09 9.25 9.5 9.25H12.75C13.16 9.25 13.5 8.91 13.5 8.5C13.5 8.09 13.16 7.75 12.75 7.75H10.25V3.25H14.5V9.67C14.5 11.37 13.12 12.75 11.42 12.75C11.01 12.75 10.67 13.09 10.67 13.5C10.67 13.91 11.01 14.25 11.42 14.25C13.94 14.25 16 12.2 16 9.67V2.5C16 2.08 15.66 1.75 15.25 1.75Z"/><path d="M6.5 1.75H0.75C0.34 1.75 0 2.08 0 2.5V8.5C0 8.91 0.34 9.25 0.75 9.25H4C4.41 9.25 4.75 8.91 4.75 8.5C4.75 8.09 4.41 7.75 4 7.75H1.5V3.25H5.75V9.67C5.75 11.37 4.37 12.75 2.67 12.75C2.26 12.75 1.92 13.09 1.92 13.5C1.92 13.91 2.26 14.25 2.67 14.25C5.19 14.25 7.25 12.2 7.25 9.67V2.5C7.25 2.08 6.91 1.75 6.5 1.75Z"/></svg>