<svg viewBox="0 0 16 16" xmlns="http://www.w3.org/2000/svg"><path d="M12.5714 1C10.6779 1 9.14286 2.67891 9.14286 4.75C9.14286 6.82109 10.6779 8.5 12.5714 8.5C13.1993 8.5 13.7796 8.30203 14.2857 7.98008V8.8125C14.2857 10.3633 13.1318 11.625 11.7143 11.625H11.1429C10.6696 11.625 10.2857 12.0449 10.2857 12.5625C10.2857 13.0801 10.6714 13.5 11.1429 13.5H11.7143C14.0786 13.5 16 11.3984 16 8.8125V4.75C16 2.64453 14.4643 1 12.5714 1ZM12.5714 6.625C11.6261 6.625 10.8571 5.78398 10.8571 4.75C10.8571 3.71602 11.6261 2.875 12.5714 2.875C13.5168 2.875 14.2857 3.71602 14.2857 4.75C14.2857 5.78398 13.5179 6.625 12.5714 6.625ZM3.42857 1C1.535 1 0 2.64453 0 4.75C0 6.85547 1.535 8.5 3.42857 8.5C4.05643 8.5 4.63679 8.30203 5.14286 7.98008V8.8125C5.14286 10.3633 3.98893 11.625 2.57143 11.625H2C1.52679 11.625 1.14286 12.0469 1.14286 12.5625C1.14286 13.0781 1.52679 13.5 2 13.5H2.57143C4.93571 13.5 6.85714 11.3984 6.85714 8.8125V4.75C6.85714 2.64453 5.32143 1 3.42857 1ZM3.42857 6.625C2.48321 6.625 1.71429 5.78516 1.71429 4.75C1.71429 3.71484 2.48321 2.875 3.42857 2.875C4.37393 2.875 5.14286 3.71484 5.14286 4.75C5.14286 5.78516 4.375 6.625 3.42857 6.625Z"/></svg>