<svg viewBox="0 0 16 16" xmlns="http://www.w3.org/2000/svg"><path d="M15.93 6.03002C15.75 5.47002 15.25 5.09002 14.66 5.06002L10.75 4.90002L9.30995 1.17002C9.09995 0.620019 8.58995 0.27002 7.99995 0.27002C7.40995 0.27002 6.89995 0.620019 6.68995 1.17002L5.32995 4.84002L1.33995 5.06002C0.749953 5.09002 0.249953 5.47002 0.0699532 6.03002C-0.110047 6.59002 0.0699532 7.19002 0.519953 7.56002L3.57995 10.04L2.55995 13.85C2.40995 14.41 2.61995 15 3.09995 15.35C3.34995 15.53 3.63995 15.62 3.92995 15.62C4.19995 15.62 4.45995 15.54 4.69995 15.39L7.99995 13.25L11.31 15.39C11.8 15.71 12.43 15.69 12.9 15.35C13.38 15 13.59 14.41 13.43 13.85L12.37 10.08L15.47 7.56002C15.93 7.19002 16.11 6.59002 15.93 6.03002Z"/></svg>