<svg viewBox="0 0 16 16" xmlns="http://www.w3.org/2000/svg"><path d="M15.93 6.03002C15.75 5.47002 15.25 5.09002 14.67 5.06002L10.75 4.90002L9.31995 1.17002C9.09995 0.620019 8.58995 0.27002 7.99995 0.27002C7.40995 0.27002 6.89995 0.620019 6.68995 1.17002L5.32995 4.84002L1.33995 5.06002C0.749953 5.09002 0.249953 5.47002 0.0699532 6.03002C-0.110047 6.59002 0.0699532 7.19002 0.519953 7.56002L3.57995 10.04L2.55995 13.85C2.40995 14.41 2.61995 15 3.09995 15.35C3.57995 15.7 4.19995 15.71 4.68995 15.39L7.99995 13.25L11.31 15.39C11.55 15.54 11.81 15.62 12.08 15.62C12.37 15.62 12.66 15.53 12.91 15.35C13.39 15.01 13.6 14.41 13.44 13.85L12.42 10.04L15.48 7.56002C15.93 7.19002 16.11 6.59002 15.93 6.03002ZM11.43 8.91002C11 9.26002 10.81 9.83002 10.96 10.37L11.92 14L8.75995 11.95C8.52995 11.8 8.25995 11.72 7.99995 11.72V1.94002L9.34995 5.44002C9.54995 5.96002 10.04 6.31002 10.59 6.34002L14.35 6.54002L11.43 8.91002Z"/></svg>