<svg viewBox="0 0 16 16" xmlns="http://www.w3.org/2000/svg"><path d="M3.92995 15.62C3.63995 15.62 3.34995 15.53 3.09995 15.35C2.61995 15 2.40995 14.41 2.56995 13.85L3.58995 10.04L0.519953 7.56002C0.0699532 7.19002 -0.110047 6.59002 0.0699532 6.03002C0.249953 5.47002 0.749953 5.09002 1.33995 5.06002L5.32995 4.85002L6.68995 1.18002C6.89995 0.620019 7.40995 0.27002 7.99995 0.27002C8.58995 0.27002 9.09995 0.620019 9.30995 1.17002L10.75 4.90002L14.66 5.06002C15.25 5.09002 15.74 5.47002 15.93 6.03002C16.11 6.59002 15.93 7.19002 15.48 7.56002L12.38 10.08L13.44 13.85C13.59 14.42 13.38 15.01 12.91 15.35C12.43 15.7 11.81 15.71 11.32 15.39L7.99995 13.25L4.68995 15.39C4.45995 15.54 4.18995 15.62 3.92995 15.62ZM1.64995 6.54002L4.56995 8.91002C4.99995 9.26002 5.18995 9.83002 5.04995 10.37L4.07995 14L7.23995 11.95C7.69995 11.65 8.30995 11.65 8.76995 11.95L11.92 14L10.95 10.36C10.81 9.83002 11 9.26002 11.43 8.91002L14.35 6.54002L10.59 6.34002C10.04 6.31002 9.54995 5.96002 9.34995 5.44002L7.99995 1.93002L6.64995 5.44002C6.44995 5.96002 5.95995 6.31002 5.40995 6.34002L1.64995 6.54002Z"/></svg>