<svg viewBox="0 0 16 16" xmlns="http://www.w3.org/2000/svg"><g clip-path="url(#clip0_149_289)"><path d="M10.7329 4.64183L15.3794 5.32251C15.6522 5.36149 15.8765 5.5504 15.9644 5.80828C16.0493 6.06916 15.9796 6.35403 15.7856 6.54294L12.4151 9.84739L13.2122 14.5102C13.2577 14.7801 13.1456 15.056 12.9182 15.2149C12.6939 15.3738 12.3696 15.3948 12.1514 15.2659L7.99888 13.0709L3.82213 15.2659C3.6039 15.3948 3.30686 15.3738 3.07953 15.2149C2.85523 15.056 2.74309 14.7801 2.76127 14.5102L3.58268 9.84739L0.215517 6.54294C0.019713 6.35403 -0.0496973 6.06916 0.0363837 5.80828C0.122162 5.5504 0.348579 5.36149 0.621068 5.32251L5.2649 4.64183L7.34418 0.40541C7.46845 0.157396 7.72002 0 7.99888 0C8.27773 0 8.53234 0.157426 8.65358 0.40541L10.7329 4.64183ZM7.97463 11.5356C8.12012 11.5356 8.2353 11.5626 8.34138 11.6196L11.53 13.3048L10.9178 9.71845C10.8783 9.48756 10.9572 9.25067 11.1239 9.08575L13.7275 6.53394L10.1418 6.01219C9.90236 5.9762 9.69625 5.82627 9.59319 5.61337L7.97463 2.37159V11.5356Z"/></g><defs><clipPath><rect/></clipPath></defs></svg>