<svg viewBox="0 0 16 16" xmlns="http://www.w3.org/2000/svg"><g clip-path="url(#clip0_149_290)"><path d="M8.87046 0.539588C8.70987 0.20984 8.37051 0 7.99782 0C7.62514 0 7.28881 0.20984 7.12519 0.539588L5.17691 4.50556L0.825864 5.14108C0.462267 5.19503 0.159269 5.44684 0.04716 5.79158C-0.0649492 6.13632 0.02595 6.51702 0.286528 6.77183L3.44377 9.86247L2.69839 14.2301C2.63779 14.5899 2.78929 14.9556 3.08926 15.1684C3.38923 15.3813 3.78615 15.4082 4.11339 15.2374L8.00085 13.1839L11.8883 15.2374C12.2156 15.4082 12.6125 15.3843 12.9124 15.1684C13.2124 14.9526 13.3639 14.5899 13.3033 14.2301L12.5549 9.86247L15.7121 6.77183C15.9727 6.51702 16.0667 6.13632 15.9515 5.79158C15.8364 5.44684 15.5364 5.19503 15.1728 5.14108L10.8187 4.50556L8.87046 0.539588Z"/></g><defs><clipPath><rect/></clipPath></defs></svg>