<svg viewBox="0 0 16 16" xmlns="http://www.w3.org/2000/svg"><path d="M8.87046 0.8646C8.70987 0.534852 8.37051 0.325012 7.99782 0.325012C7.62514 0.325012 7.28881 0.534852 7.12519 0.8646L5.17691 4.83057L0.825865 5.46609C0.462267 5.52005 0.159269 5.77185 0.04716 6.11659C-0.0649492 6.46133 0.02595 6.84204 0.286528 7.09684L3.44377 10.1875L2.69839 14.5551C2.63779 14.9149 2.78929 15.2806 3.08926 15.4934C3.38923 15.7063 3.78615 15.7332 4.11339 15.5624L8.00085 13.5089L11.8883 15.5624C12.2156 15.7332 12.6125 15.7093 12.9124 15.4934C13.2124 15.2776 13.3639 14.9149 13.3033 14.5551L12.5549 10.1875L15.7121 7.09684C15.9727 6.84204 16.0667 6.46133 15.9515 6.11659C15.8364 5.77185 15.5364 5.52005 15.1728 5.46609L10.8187 4.83057L8.87046 0.8646Z"/></svg>