<svg xmlns="http://www.w3.org/2000/svg" viewBox="0 0 16 16"><path d="M12.981 8.387l-.004-.015a12.926 12.926 0 00-.347-1.382c-.155-.479-.368-.426-.366-.426-.005 0-.449-.165-.718 1.754l-.015.109c-.299 2.75-.848 2.902-1.381 2.902-.878 0-1.133-1.263-1.42-3.192l-.002-.025c-.095-.673-.194-1.496-.358-2.05-.154-.523-.211-.646-.358-.646L8 5.418l-.012-.002c-.147 0-.204.123-.358.646-.164.554-.263 1.377-.358 2.05l-.002.026c-.287 1.93-.542 3.192-1.42 3.192-.533 0-1.082-.152-1.381-2.902l-.015-.11c-.269-1.919-.713-1.754-.718-1.754.001 0-.211-.053-.366.426-.124.383-.249.888-.347 1.382l-.004.015c-.289 1.256-.544 2.076-1.418 2.076A.955.955 0 011 10.27V13a1 1 0 001 1h12a1 1 0 001-1v-2.73a.949.949 0 01-.601.193c-.873 0-1.129-.82-1.418-2.076zM14 2H2a1 1 0 00-1 1v4.568c0 1.39.387 1.475.602 1.447.109 0 .235-.1.334-.353.134-.345.262-.856.375-1.349l.007-.02c.289-1.461.591-2.2 1.421-2.2.503 0 1.119.254 1.421 2.103.002.006.029.178.029.178s.194 1.23.324 1.666c.15.504.219.648.333.645.126 0 .184-.165.339-.693.154-.523.265-1.226.375-1.961.266-1.896.523-3.232 1.429-3.232h.026c.905 0 1.163 1.336 1.429 3.232.109.735.22 1.438.375 1.961.156.528.213.693.339.693.113.004.183-.141.333-.645.129-.436.324-1.666.324-1.666s.026-.172.029-.178c.302-1.849.918-2.103 1.421-2.103.83 0 1.132.739 1.421 2.2l.007.02c.113.492.241 1.004.375 1.349.099.253.225.353.334.353.186.025.511-.038.583-1.015.01-.128.015-.271.015-.432V3a1 1 0 00-1-1z"/></svg>