<svg viewBox="0 0 16 16" xmlns="http://www.w3.org/2000/svg"><path d="M8 0C7.65897 0 7.38462 0.335938 7.38462 0.721875V15.25C7.38462 15.6656 7.65897 16 7.97692 16C8.29487 16 8.61538 15.6656 8.61538 15.25V0.721875C8.61538 0.335938 8.34103 0 8 0ZM5.53846 3C5.19744 3 4.92308 3.33437 4.92308 3.72187V12.2219C4.92308 12.6656 5.19744 13 5.51538 13C5.83333 13 6.15385 12.6656 6.15385 12.25V3.72187C6.15385 3.33437 5.87949 3 5.53846 3ZM10.4615 4C10.1205 4 9.84615 4.33438 9.84615 4.72188V11.2219C9.84615 11.6656 10.1205 12 10.4385 12C10.7564 12 11.0769 11.6656 11.0769 11.25V4.72188C11.0769 4.33438 10.8026 4 10.4615 4ZM12.9231 2C12.5833 2 12.3077 2.33594 12.3077 2.72187V13.25C12.3077 13.6656 12.5821 14 12.9 14C13.2641 14 13.5385 13.6656 13.5385 13.25V2.72187C13.5385 2.33594 13.2641 2 12.9231 2ZM3.07692 6C2.7359 6 2.46154 6.33438 2.46154 6.72188V9.25C2.46154 9.66563 2.7359 10 3.05385 10C3.37179 10 3.69231 9.66563 3.69231 9.25V6.72188C3.69231 6.33438 3.41795 6 3.07692 6ZM0.615385 7C0.275641 7 0 7.33438 0 7.72188V8.25C0 8.66563 0.275641 9 0.592308 9C0.908974 9 1.23077 8.66563 1.23077 8.25V7.72188C1.23077 7.33438 0.955128 7 0.615385 7ZM15.3846 7C15.0449 7 14.7692 7.33594 14.7692 7.72188V8.25C14.7692 8.66563 15.0436 9 15.3846 9C15.7256 9 16 8.66406 16 8.27812V7.72188C16 7.33438 15.7256 7 15.3846 7Z"/></svg>