<svg viewBox="0 0 16 16" xmlns="http://www.w3.org/2000/svg"><path d="M12 0H4C1.79 0 0 1.79 0 4V12C0 14.21 1.79 16 4 16H12C14.21 16 16 14.21 16 12V4C16 1.79 14.21 0 12 0ZM12 14.5H4C2.62 14.5 1.5 13.38 1.5 12V11.88C2.13 11.3 2.38 9.9 2.7 8.13C2.82 7.47 2.99 6.51 3.17 5.87C3.35 6.51 3.52 7.47 3.64 8.14C4.05 10.48 4.35 12.18 5.59 12.18C6.82 12.18 7.12 10.49 7.54 8.14C7.66 7.48 7.83 6.52 8.01 5.88C8.08 6.12 8.16 6.46 8.26 6.93C8.32 7.32 8.71 7.58 9.12 7.5C9.53 7.42 9.79 7.02 9.71 6.62C9.42 5.15 9.07 3.83 7.99 3.83C6.76 3.83 6.46 5.52 6.04 7.87C5.93 8.53 5.76 9.5 5.58 10.14C5.4 9.5 5.23 8.53 5.11 7.87C4.7 5.53 4.4 3.83 3.16 3.83C2.21 3.83 1.82 4.84 1.5 6.36V4C1.5 2.62 2.62 1.5 4 1.5H12C13.38 1.5 14.5 2.62 14.5 4V6.39C14.18 4.85 13.78 3.83 12.83 3.83C11.6 3.83 11.3 5.52 10.88 7.87C10.76 8.53 10.59 9.5 10.41 10.14C10.34 9.89 10.26 9.55 10.16 9.08C10.08 8.67 9.68 8.41 9.28 8.49C8.88 8.57 8.61 8.97 8.69 9.37C8.98 10.84 9.34 12.17 10.41 12.17C11.64 12.17 11.94 10.48 12.36 8.13C12.48 7.47 12.65 6.5 12.83 5.86C13.01 6.5 13.18 7.47 13.3 8.13C13.61 9.9 13.86 11.3 14.5 11.88V12C14.5 13.38 13.38 14.5 12 14.5Z"/></svg>