<svg viewBox="0 0 16 16" xmlns="http://www.w3.org/2000/svg"><path d="M14.5 5.25H10.76C10.35 5.25 10.01 4.91 10.01 4.5C10.01 4.09 10.35 3.75 10.76 3.75H13.75V0.75C13.75 0.34 14.09 0 14.5 0C14.91 0 15.25 0.34 15.25 0.75V4.5C15.25 4.91 14.92 5.25 14.5 5.25Z"/><path d="M0.75 8.75C0.34 8.75 0 8.41 0 8C0 3.59 3.59 0 8 0C9.83 0 11.63 0.64 13.05 1.79C13.37 2.05 13.42 2.52 13.16 2.85C12.9 3.17 12.43 3.22 12.1 2.96C10.95 2.02 9.49 1.5 8 1.5C4.42 1.5 1.5 4.42 1.5 8C1.5 8.41 1.17 8.75 0.75 8.75Z"/><path d="M1.5 16C1.09 16 0.75 15.66 0.75 15.25V11.5C0.75 11.09 1.09 10.75 1.5 10.75H5.24C5.65 10.75 5.99 11.09 5.99 11.5C5.99 11.91 5.65 12.25 5.24 12.25H2.25V15.24C2.25 15.66 1.91 16 1.5 16Z"/><path d="M8 16C6.16 16 4.37 15.36 2.95 14.2C2.63 13.94 2.58 13.47 2.84 13.14C3.1 12.82 3.58 12.77 3.89 13.03C5.05 13.98 6.51 14.5 8 14.5C11.58 14.5 14.5 11.58 14.5 8C14.5 7.59 14.84 7.25 15.25 7.25C15.66 7.25 16 7.59 16 8C16 12.41 12.41 16 8 16Z"/></svg>