<svg viewBox="0 0 16 16" xmlns="http://www.w3.org/2000/svg"><path d="M14.6236 9.07C14.1977 8.945 13.7551 9.1898 13.6322 9.61367C12.9106 12.13 10.5945 13.8667 7.97167 13.8667C5.75447 13.8667 3.74589 12.5907 2.75609 10.6667H6.10206C6.54364 10.6667 6.9019 10.3083 6.9019 9.86667C6.9019 9.425 6.5753 9.06667 6.13206 9.06667H0.799833C0.358259 9.06667 0 9.425 0 9.86667V15.2C0 15.6417 0.358259 16 0.799833 16C1.24141 16 1.59967 15.6417 1.59967 15.2V11.7967C2.92606 14.0133 5.33889 15.4667 7.97167 15.4667C11.271 15.4667 14.217 13.2563 15.1402 10.09C15.2935 9.63667 15.0469 9.22333 14.6236 9.07ZM15.2002 0C14.7603 0 14.4003 0.358333 14.4003 0.8V4.20333C13.0773 1.985 10.6611 0.533333 8.00167 0.533333C4.70235 0.533333 1.75397 2.74367 0.833493 5.91C0.709519 6.33333 0.953135 6.77667 1.37705 6.9C1.80496 7.02603 2.24653 6.77917 2.36851 6.35633C3.09269 3.87 5.40887 2.13333 8.00167 2.13333C10.2189 2.13333 12.2275 3.40933 13.2172 5.33333H9.86794C9.42804 5.33333 9.06811 5.69333 9.06811 6.13333C9.06811 6.57333 9.42804 6.93333 9.86794 6.93333H15.2002C15.6417 6.93333 16 6.575 16 6.13333V0.8C16 0.358333 15.6434 0 15.2002 0Z"/></svg>