<svg viewBox="0 0 16 16" xmlns="http://www.w3.org/2000/svg"><g clip-path="url(#clip0)"><path d="M10.3102 15.9999H9.5002C9.0902 15.9999 8.7502 15.6599 8.7502 15.2499C8.7502 14.8399 9.0902 14.4999 9.5002 14.4999H10.3102C12.6202 14.4999 14.5002 12.6199 14.5002 10.3099C14.5002 7.99994 12.6202 6.11994 10.3102 6.11994H4.29019C3.88019 6.11994 3.5402 5.77994 3.5402 5.36994C3.5402 4.95994 3.88019 4.61994 4.29019 4.61994H10.3102C13.4502 4.61994 16.0002 7.16994 16.0002 10.3099C16.0002 13.4499 13.4502 15.9999 10.3102 15.9999Z"/><path d="M5.3702 10.7199C5.1802 10.7199 4.9902 10.6499 4.8402 10.4999L0.230195 5.88994C-0.0598047 5.59994 -0.0598047 5.11994 0.230195 4.82994L4.8402 0.219941C5.1302 -0.0700586 5.6102 -0.0700586 5.9002 0.219941C6.1902 0.509941 6.1902 0.989941 5.9002 1.27994L1.8202 5.35994L5.9002 9.43994C6.1902 9.72994 6.1902 10.2099 5.9002 10.4999C5.7502 10.6499 5.5602 10.7199 5.3702 10.7199Z"/><path d="M7.0002 15.9999H6.3402C5.9302 15.9999 5.5902 15.6599 5.5902 15.2499C5.5902 14.8399 5.9302 14.4999 6.3402 14.4999H7.0002C7.4102 14.4999 7.7502 14.8399 7.7502 15.2499C7.7502 15.6599 7.4102 15.9999 7.0002 15.9999Z"/><path d="M3.8302 15.9999H3.1802C2.7702 15.9999 2.4302 15.6599 2.4302 15.2499C2.4302 14.8399 2.7702 14.4999 3.1802 14.4999H3.8402C4.2502 14.4999 4.5902 14.8399 4.5902 15.2499C4.5902 15.6599 4.2502 15.9999 3.8302 15.9999Z"/></g><defs><clipPath><rect/></clipPath></defs></svg>