<svg viewBox="0 0 16 16" xmlns="http://www.w3.org/2000/svg"><path d="M15.25 0H2.5C2.09 0 1.75 0.33 1.75 0.75V1.75H0.75C0.34 1.75 0 2.09 0 2.5C0 2.91 0.34 3.25 0.75 3.25H1.75V4.5H0.75C0.34 4.5 0 4.84 0 5.25C0 5.66 0.34 6 0.75 6H1.75V7.25H0.75C0.34 7.25 0 7.59 0 8C0 8.41 0.34 8.75 0.75 8.75H1.75V10H0.75C0.34 10.01 0 10.34 0 10.76C0 11.18 0.34 11.51 0.75 11.51H1.75V12.76H0.75C0.34 12.76 0 13.09 0 13.51C0 13.93 0.34 14.26 0.75 14.26H1.75V15.25C1.75 15.66 2.09 16 2.5 16C2.91 16 3.25 15.66 3.25 15.25V1.5H14.5V14.5H4.99C4.58 14.5 4.24 14.84 4.24 15.25C4.24 15.66 4.58 16 4.99 16H15.25C15.66 16 16 15.66 16 15.25V0.75C16 0.33 15.66 0 15.25 0Z"/><path d="M5.8 5.25H11.95C12.36 5.25 12.7 4.91 12.7 4.5C12.7 4.09 12.36 3.75 11.95 3.75H5.8C5.39 3.75 5.05 4.09 5.05 4.5C5.05 4.91 5.39 5.25 5.8 5.25Z"/><path d="M5.8 8.25H11.95C12.36 8.25 12.7 7.91 12.7 7.5C12.7 7.09 12.36 6.75 11.95 6.75H5.8C5.39 6.75 5.05 7.09 5.05 7.5C5.05 7.91 5.39 8.25 5.8 8.25Z"/></svg>