<svg viewBox="0 0 16 16" xmlns="http://www.w3.org/2000/svg"><path d="M13 0H4C2.89531 0 2 0.895313 2 2V3H0.75C0.335938 3 0 3.3375 0 3.75C0 4.1625 0.335938 4.5 0.75 4.5H2V7.25H0.75C0.335938 7.25 0 7.5875 0 8C0 8.4125 0.335938 8.75 0.75 8.75H2V11.5H0.75C0.335938 11.5 0 11.8375 0 12.25C0 12.6625 0.335938 13 0.75 13H2V14C2 15.1047 2.89531 16 4 16H13C14.1047 16 15 15.1047 15 14V2C15 0.895313 14.1031 0 13 0ZM3.5 14V13H4.25C4.66563 13 5 12.6656 5 12.25C5 11.8344 4.66563 11.5 4.25 11.5H3.5V8.75H4.25C4.66563 8.75 5 8.41562 5 8C5 7.58437 4.66563 7.25 4.25 7.25H3.5V4.5H4.25C4.66563 4.5 5 4.16563 5 3.75C5 3.33437 4.66563 3 4.25 3H3.5V2C3.5 1.72381 3.72388 1.5 4 1.5H6V14.5H4C3.725 14.5 3.5 14.275 3.5 14ZM13.5 14C13.5 14.2761 13.2761 14.5 13 14.5H7.5V1.5H13C13.2761 1.5 13.5 1.72381 13.5 2V14Z"/></svg>