<svg viewBox="0 0 16 16" xmlns="http://www.w3.org/2000/svg"><path d="M7.80994 12.5199H5.35994C4.67994 12.5199 4.12994 11.9699 4.12994 11.2899V2.55994L5.48994 3.91994C5.63994 4.06994 5.82994 4.13994 6.01994 4.13994C6.20994 4.13994 6.39994 4.06994 6.54994 3.91994C6.83994 3.62994 6.83994 3.14994 6.54994 2.85994L3.91994 0.219941C3.62994 -0.0700586 3.14994 -0.0700586 2.85994 0.219941L0.219941 2.85994C-0.0700586 3.14994 -0.0700586 3.62994 0.219941 3.91994C0.509941 4.20994 0.989941 4.20994 1.27994 3.91994L2.63994 2.55994V11.2999C2.63994 12.7999 3.85994 14.0299 5.36994 14.0299H7.81994C8.22994 14.0299 8.56994 13.6899 8.56994 13.2799C8.56994 12.8699 8.22994 12.5199 7.80994 12.5199Z"/><path d="M15.7799 12.0799C15.4899 11.7899 15.0099 11.7899 14.7199 12.0799L13.3599 13.4399V4.69994C13.3599 3.19994 12.1399 1.96994 10.6299 1.96994H8.17994C7.76994 1.96994 7.42994 2.30994 7.42994 2.71994C7.42994 3.12994 7.76994 3.46994 8.17994 3.46994H10.6299C11.3099 3.46994 11.8599 4.01994 11.8599 4.69994V13.4399L10.4999 12.0799C10.2099 11.7899 9.72994 11.7899 9.43994 12.0799C9.14994 12.3699 9.14994 12.8499 9.43994 13.1399L12.0799 15.7799C12.2199 15.9199 12.4099 15.9999 12.6099 15.9999C12.8099 15.9999 12.9999 15.9199 13.1399 15.7799L15.7799 13.1399C16.0699 12.8499 16.0699 12.3799 15.7799 12.0799Z"/></svg>