<svg data-name="Layer 1" xmlns="http://www.w3.org/2000/svg" viewBox="0 0 32 32"><path d="M31.13 14h-.91V9.28a.87.87 0 00-.87-.87h-4.41V5.83a2 2 0 10-1.78 0v2.58H8.6V5.83a2 2 0 10-1.77 0v2.58H2.64a.87.87 0 00-.87.87V14H.86a.87.87 0 00-.86.9v7.75a.87.87 0 00.87.87h.91v5.65a.87.87 0 00.87.87h26.71a.87.87 0 00.87-.87v-5.65h.91a.87.87 0 00.87-.87V14.9a.88.88 0 00-.88-.87zM8.6 12a4.17 4.17 0 11-4.17 4.17A4.17 4.17 0 018.6 12zm17.86 14.1H5.31a.89.89 0 110-1.77h21.15a.89.89 0 010 1.77zm-3.28-5.76a4.17 4.17 0 114.17-4.17 4.17 4.17 0 01-4.17 4.19zm2.4-4.17a2.4 2.4 0 11-2.4-2.4 2.4 2.4 0 012.4 2.41zM11 16.18a2.4 2.4 0 11-2.4-2.4 2.4 2.4 0 012.4 2.4z"/></svg>