<svg viewBox="0 0 16 16" xmlns="http://www.w3.org/2000/svg"><path d="M12.25 6H3.75C3.33 6 3 5.66 3 5.25C3 4.84 3.33 4.5 3.75 4.5H12.26C12.67 4.5 13 4.83 13 5.25C13 5.67 12.67 6 12.25 6Z"/><path d="M7.25 9H3.75C3.33 9 3 8.66 3 8.25C3 7.84 3.33 7.5 3.75 7.5H7.25C7.66 7.5 8 7.83 8 8.25C8 8.67 7.66 9 7.25 9Z"/><path d="M7.39 16C7.2 16 7.01 15.93 6.86 15.78C6.57 15.49 6.57 15.01 6.86 14.72L9.36 12.22C9.5 12.07 9.69 12 9.89 12H12C13.38 12 14.5 10.88 14.5 9.5V4C14.5 2.62 13.38 1.5 12 1.5H4C2.62 1.5 1.5 2.62 1.5 4V9.5C1.5 10.87 2.62 12 4 12H6.62C7.03 12 7.37 12.34 7.37 12.75C7.37 13.16 7.04 13.5 6.63 13.5H4C1.79 13.5 0 11.71 0 9.5V4C0 1.79 1.8 0 4 0H12C14.21 0 16 1.79 16 4V9.5C16 11.71 14.21 13.5 12 13.5H10.2L7.92 15.78C7.77 15.92 7.58 16 7.39 16Z"/></svg>