<svg viewBox="0 0 16 16" xmlns="http://www.w3.org/2000/svg"><path d="M8.25128 8.58632H4.73911C4.32518 8.58632 3.9865 8.97126 3.9865 9.44175C3.9865 9.91223 4.32518 10.2972 4.73911 10.2972H8.25128C8.66835 10.2972 9.00389 9.91579 9.00389 9.44175C9.00389 8.9677 8.66835 8.58632 8.25128 8.58632ZM11.2617 5.16462H4.73911C4.32518 5.16462 3.9865 5.54957 3.9865 6.02005C3.9865 6.49053 4.32518 6.87547 4.73911 6.87547H11.2617C11.6788 6.87547 12.0143 6.4941 12.0143 6.02005C12.0143 5.546 11.6788 5.16462 11.2617 5.16462ZM8.00041 0C3.5663 0 0.000821881 3.3194 0.000821881 7.41368C0.000821881 9.11098 0.625172 10.6661 1.66001 11.9153C1.1937 13.3232 0.221587 14.513 0.205907 14.5262C-0.00178088 14.7757 -0.0566585 15.141 0.0609364 15.4529C0.154981 15.7968 0.423536 16 0.725206 16C2.65345 16 4.14643 15.0822 5.08719 14.3515C5.99252 14.6723 6.97373 14.8594 8.00041 14.8594C12.4345 14.8594 16 11.54 16 7.47783C16 3.41564 12.4345 0 8.00041 0ZM8.00041 13.1486C7.16157 13.1486 6.33464 13.0016 5.54315 12.7166L4.82974 12.4626L4.21856 12.9526C3.7717 13.3133 3.15644 13.7146 2.41575 13.9862C2.64696 13.5542 2.86637 13.0684 3.03885 12.5516L3.37188 11.5536L2.72526 10.7737C2.16175 10.0869 1.4797 8.95344 1.4797 7.44576C1.4797 4.30029 4.40358 1.74293 7.97407 1.74293C11.5709 1.74293 14.4684 4.30029 14.4684 7.44576C14.4684 10.5912 11.6004 13.1486 8.00041 13.1486Z"/></svg>