<svg viewBox="0 0 16 16" xmlns="http://www.w3.org/2000/svg"><path d="M0.749648 11.9045C1.15946 11.9045 1.4993 11.6069 1.4993 11.2481V5.93602L4.4779 8.07136C4.61783 8.16762 4.78775 8.22013 4.94768 8.22013C5.16758 8.22013 5.37748 8.14137 5.52741 7.97509C5.79728 7.69505 5.7573 7.28374 5.43745 7.0562L1.7092 4.38703C1.57926 4.29077 1.4993 4.15075 1.4993 4.00197V3.62566C1.4993 3.38063 1.71919 3.1881 1.99906 3.1881H10.705C11.1148 3.1881 11.4546 2.89055 11.4546 2.53174C11.4546 2.17294 11.1248 1.87539 10.705 1.87539H1.99906C0.899578 1.87539 0 2.66301 0 3.62566V11.2481C0 11.6069 0.339841 11.9045 0.749648 11.9045Z"/><path d="M15.7726 2.12043C16.0625 1.86664 16.0625 1.44657 15.7726 1.19278C15.4827 0.938994 15.003 0.938994 14.7131 1.19278L0.219897 13.8823C-0.0699672 14.1361 -0.0699672 14.5561 0.219897 14.8099C0.369827 14.9324 0.559737 15.0024 0.749648 15.0024C0.939559 15.0024 1.12947 14.9412 1.2794 14.8099L2.05903 14.1273H13.9834C15.0829 14.1273 15.9825 13.3397 15.9825 12.377V7.38C15.9825 7.02119 15.6427 6.72365 15.2329 6.72365C14.823 6.72365 14.4832 7.02119 14.4832 7.38V12.377C14.4832 12.6221 14.2633 12.8146 13.9834 12.8146H3.55833L7.17663 9.6466C7.44651 9.71662 7.72638 9.75162 7.99625 9.75162C8.72591 9.75162 9.45556 9.53284 10.0453 9.10402L15.2229 5.39344C15.7026 5.05214 15.9825 4.53581 15.9825 3.99322V3.62566C15.9825 3.16184 15.7726 2.74178 15.4228 2.41798L15.7726 2.12043ZM14.4832 3.62566V4.00197C14.4832 4.15075 14.4032 4.29077 14.2733 4.38703L9.10573 8.09761C8.98578 8.18513 8.85585 8.25514 8.71591 8.30765L14.3733 3.35437C14.4432 3.42438 14.4832 3.52065 14.4832 3.62566Z"/></svg>