<svg viewBox="0 0 16 16" xmlns="http://www.w3.org/2000/svg"><path d="M15.774 14.6594L11.948 10.9125C13.4809 8.55629 14.4037 5.55943 14.4037 2.29351C14.4037 1.52602 13.986 0.870709 13.3881 0.700398L11.1063 0.0422763C10.4929 -0.134973 9.86293 0.260525 9.60912 0.985708L8.55258 4.06569C8.32557 4.73256 8.48029 5.51631 8.92793 5.97349L9.76691 6.83224C9.56215 7.27692 9.32454 7.69442 9.06147 8.08473L0.970304 0.159807C0.708483 -0.0955667 0.332883 -0.038942 0.127853 0.287244C-0.0765018 0.613523 -0.0310396 1.08508 0.22958 1.34039L15.011 15.8122C15.1438 15.9469 15.2739 16 15.3814 16C15.5596 16 15.7355 15.9012 15.854 15.7127C16.0816 15.3875 16.0341 14.9156 15.774 14.6594ZM9.97997 9.00629C10.3931 8.38098 10.7567 7.70442 11.0443 6.97255C11.1669 6.66005 11.1013 6.28255 10.8856 6.06193L9.66578 4.81287C9.62827 4.77431 9.61577 4.70984 9.63452 4.65469L10.6883 1.58189C10.7055 1.53308 10.7461 1.50036 10.7895 1.50036C10.7973 1.50036 10.8055 1.50134 10.8133 1.50378L13.0975 2.16253C13.1486 2.17717 13.1811 2.22843 13.1811 2.29387C13.1811 5.21104 12.3476 7.88134 10.9755 9.98133L9.97997 9.00629ZM3.43571 14.5C3.38297 14.5 3.34194 14.46 3.33021 14.3975L2.80307 11.5409C2.79174 11.4794 2.81948 11.4111 2.86636 11.3856L5.32352 10.0703C5.36688 10.045 5.41882 10.0616 5.44655 10.1055L6.44732 11.633C6.62392 11.9025 6.92645 11.9846 7.17627 11.8312C7.54061 11.6077 7.88771 11.3459 8.22105 11.0606L7.21853 10.0788C7.16569 10.119 7.118 10.1687 7.06434 10.2072L6.37815 9.16035C6.0139 8.59692 5.38374 8.40317 4.84859 8.69379L2.39293 10.0088C1.81003 10.3232 1.49119 11.1094 1.63423 11.88L2.16087 14.7344C2.29766 15.4781 2.82305 16 3.43571 16C6.0039 16 8.33953 14.8838 10.2325 13.0303L9.25552 12.0735C7.62934 13.5906 5.6188 14.5 3.43571 14.5Z"/></svg>