<svg viewBox="0 0 18 16" xmlns="http://www.w3.org/2000/svg"><path d="M15.0418 0H2.95819C1.84896 0 0.94426 0.904697 0.94426 1.98561V11.02C0.94426 12.1292 1.84896 13.0056 2.95819 13.0056H5.97909V15.6206C5.97909 15.9301 6.32587 16.1099 6.58076 15.9258L10.5104 13.0622H15.0418C16.151 13.0622 17.0557 12.1576 17.0557 11.0766V1.98561C17.0557 0.904697 16.1526 0 15.0418 0ZM15.5453 11.0766C15.5453 11.352 15.3171 11.5801 15.0418 11.5801H10.007L7.48954 13.4682V11.5801H2.95819C2.68285 11.5801 2.45471 11.352 2.45471 11.0766V2.01393C2.45471 1.73859 2.68285 1.51045 2.95819 1.51045H15.0418C15.3171 1.51045 15.5453 1.73859 15.5453 2.01393V11.0766ZM11.5206 3.9964C11.2255 3.70139 10.7477 3.70139 10.4525 3.9964L8.99999 5.47853L7.49269 3.9964C7.19768 3.70139 6.71984 3.70139 6.42468 3.9964C6.12951 4.29141 6.12967 4.76925 6.42468 5.06441L7.93324 6.54528L6.45111 8.02427C6.1561 8.31928 6.1561 8.79711 6.45111 9.09228C6.74612 9.38717 7.22364 9.38742 7.51912 9.09228L8.99999 7.61204L10.4799 9.09197C10.7749 9.38685 11.2525 9.3871 11.5479 9.09197C11.8429 8.79696 11.8429 8.31912 11.5479 8.02395L10.0667 6.54528L11.5467 5.06536C11.8415 4.77051 11.8415 4.2922 11.5206 3.9964Z"/></svg>