<svg viewBox="0 0 16 16" xmlns="http://www.w3.org/2000/svg"><g clip-path="url(#clip0_2589_43539)"><path d="M15.774 14.6594L12.8208 11.7659C13.8035 10.625 14.4037 9.13748 14.4037 7.49998C14.4037 3.90935 11.5379 1.02809 8.02451 1.02809C6.33057 1.02809 4.79617 1.7009 3.65087 2.79278L0.970422 0.159868C0.708604 -0.0955076 0.333007 -0.0390387 0.127703 0.28715C-0.0765248 0.6134 -0.030938 1.08496 0.22968 1.34028L15.011 15.8122C15.1439 15.9469 15.2739 16 15.3814 16C15.5596 16 15.7358 15.9013 15.854 15.7128C16.0816 15.3875 16.0341 14.9156 15.774 14.6594ZM11.868 10.8312L4.60862 3.72185C5.52136 2.96403 6.70416 2.49997 8.0045 2.49997C10.8752 2.49997 13.2059 4.74216 13.2059 7.49998C13.2059 8.78123 12.6957 9.94686 11.868 10.8312ZM8.0045 12.5C7.33558 12.5 6.67591 12.3711 6.04449 12.1212L5.47384 11.9L4.98622 12.3281C4.62987 12.6444 4.139 12.9962 3.54834 13.2344C3.73276 12.8556 3.90794 12.4297 4.04547 11.9766L4.31104 11.1016L3.79541 10.4178C3.34579 9.81561 2.80315 8.82186 2.80315 7.49998C2.80315 6.97373 2.88912 6.46716 3.04639 5.9906L2.07871 5.04372C1.77338 5.8031 1.60109 6.63123 1.60109 7.47185C1.60109 8.9603 2.09897 10.3234 2.92418 11.4187C2.55208 12.6531 1.77713 13.6962 1.76463 13.7078C1.59896 13.9266 1.55522 14.2469 1.649 14.5203C1.74587 14.8219 1.95993 15 2.20049 15C3.73839 15 4.9287 14.1953 5.6789 13.5547C6.40108 13.8359 7.18304 14 8.002 14C8.93999 14 9.82948 13.7902 10.6327 13.4219L9.47913 12.2922C9.01226 12.425 8.51713 12.5 8.0045 12.5Z"/></g><defs><clipPath><rect/></clipPath></defs></svg>