<svg viewBox="0 0 16 16" xmlns="http://www.w3.org/2000/svg"><g clip-path="url(#clip0)"><path d="M3.27994 9.07994C2.99994 9.14994 2.70994 9.18994 2.40994 9.18994C2.19994 9.18994 1.99994 9.16994 1.79994 9.12994C1.99994 9.73994 2.36994 10.2699 2.85994 10.6599L12.0999 1.41994C11.7799 1.30994 11.4399 1.23994 11.0799 1.23994C9.26994 1.23994 7.79994 2.70994 7.79994 4.51994C7.79994 4.77994 7.82994 5.02994 7.87994 5.26994C5.14994 5.13994 2.72994 3.82994 1.11994 1.84994C0.829941 2.32994 0.669941 2.88994 0.669941 3.49994C0.669941 4.63994 1.24994 5.63994 2.12994 6.22994C1.58994 6.20994 1.08994 6.05994 0.649941 5.81994C0.649941 5.82994 0.649941 5.84994 0.649941 5.85994C0.649941 7.44994 1.77994 8.76994 3.27994 9.07994Z"/><path d="M15.5399 1.51994L15.7799 1.27994C16.0699 0.989941 16.0699 0.509941 15.7799 0.219941C15.4899 -0.0700586 15.0099 -0.0700586 14.7199 0.219941L0.219941 14.7199C-0.0700586 15.0099 -0.0700586 15.4899 0.219941 15.7799C0.369941 15.9199 0.559941 15.9999 0.749941 15.9999C0.939941 15.9999 1.12994 15.9299 1.27994 15.7799L3.03994 14.0199C3.67994 14.1599 4.33994 14.2499 5.02994 14.2499C11.0699 14.2499 14.3699 9.24994 14.3699 4.90994C14.3699 4.76994 14.3699 4.62994 14.3599 4.48994C14.9999 4.01994 15.5599 3.43994 15.9999 2.77994C15.4099 3.03994 14.7799 3.21994 14.1199 3.29994C14.7799 2.89994 15.2899 2.26994 15.5399 1.51994Z"/></g><defs><clipPath><rect/></clipPath></defs></svg>