<svg viewBox="0 0 16 16" xmlns="http://www.w3.org/2000/svg"><path d="M14.3374 4.23734C14.3476 4.37941 14.3476 4.52151 14.3476 4.66358C14.3476 8.99695 11.0522 13.99 5.02926 13.99C3.1737 13.99 1.44997 13.4521 0 12.5185C0.26364 12.5489 0.517105 12.5591 0.790888 12.5591C2.32195 12.5591 3.73138 12.0415 4.85688 11.1586C3.41705 11.1281 2.21043 10.1843 1.7947 8.88533C1.99751 8.91576 2.20029 8.93606 2.41324 8.93606C2.70728 8.93606 3.00135 8.89545 3.2751 8.82445C1.77444 8.51997 0.648909 7.20069 0.648909 5.60738V5.56681C1.0849 5.81037 1.59192 5.96259 2.12928 5.98287C1.24713 5.39425 0.669196 4.38956 0.669196 3.25293C0.669196 2.64404 0.8314 2.08587 1.11533 1.59874C2.72753 3.58783 5.15092 4.88681 7.86831 5.02892C7.81762 4.78535 7.78719 4.53167 7.78719 4.27795C7.78719 2.47151 9.24731 1 11.0623 1C12.0053 1 12.857 1.39579 13.4552 2.03514C14.1954 1.89307 14.9052 1.61905 15.5339 1.24356C15.2905 2.00471 14.7734 2.64407 14.094 3.04998C14.7531 2.97897 15.3919 2.79626 15.98 2.54257C15.5339 3.19205 14.9762 3.77048 14.3374 4.23734Z"/></svg>