<svg viewBox="0 0 16 16" xmlns="http://www.w3.org/2000/svg"><path d="M13.99 15H2C0.9 15 0 14.1 0 13V3C0 1.9 0.9 1 2 1H13.99C14.53 1 15.03 1.21 15.41 1.59C15.79 1.96 16 2.47 15.99 3V3.43C15.99 4.05 15.71 4.64 15.23 5.03L10.05 9.27C8.86 10.25 7.13 10.24 5.94 9.27L1.5 5.64V13C1.5 13.28 1.72 13.5 2 13.5H13.99C14.27 13.5 14.49 13.28 14.49 13V7.29C14.49 6.88 14.83 6.54 15.24 6.54C15.65 6.54 15.99 6.88 15.99 7.29V13C15.99 14.1 15.1 15 13.99 15ZM1.5 3.43C1.5 3.6 1.58 3.76 1.71 3.87L6.89 8.11C7.53 8.64 8.46 8.64 9.11 8.11L14.29 3.87C14.42 3.76 14.5 3.6 14.5 3.43V3C14.5 2.87 14.45 2.74 14.35 2.65C14.26 2.56 14.13 2.5 14 2.5H2C1.73 2.5 1.5 2.72 1.5 3V3.43Z"/></svg>