<svg viewBox="0 0 16 16" xmlns="http://www.w3.org/2000/svg"><path d="M8.12008 0.5C4.09008 0.5 0.820078 3.78 0.820078 7.8C0.820078 9.69 1.78008 11.41 1.87008 11.58L0.580078 15.5L4.61008 14.21C4.76008 14.3 6.21008 15.1 8.12008 15.1C12.1501 15.1 15.4201 11.82 15.4201 7.8C15.4201 3.78 12.1401 0.5 8.12008 0.5ZM3.23008 11.41C3.22008 11.39 2.05008 9.75 2.05008 7.81C2.05008 4.46 4.77008 1.74 8.12008 1.74C11.4701 1.74 14.1901 4.46 14.1901 7.81C14.1901 11.16 11.4701 13.88 8.12008 13.88C6.28008 13.88 4.79008 12.89 4.77008 12.88L4.76008 12.87L2.51008 13.6L3.24008 11.42L3.23008 11.41Z"/><path d="M6.79008 9.92C7.77008 10.87 9.28008 11.29 9.74008 11.43C10.2001 11.57 11.1801 11.36 11.6401 10.87C12.1101 10.38 12.0101 9.87 12.0101 9.7C12.0001 9.53 11.8501 9.5 11.8501 9.5C11.8501 9.5 10.6001 8.86 10.3401 8.74C10.0801 8.62 9.95008 8.81 9.95008 8.81C9.95008 8.81 9.56008 9.28 9.43008 9.44C9.30008 9.6 9.23008 9.74 8.91008 9.62C8.59008 9.51 7.95008 9.15 7.44008 8.67C6.93008 8.19 6.53008 7.56 6.42008 7.36C6.31008 7.17 6.44008 7.06 6.44008 7.06C6.44008 7.06 6.78008 6.68 6.94008 6.48C7.10008 6.28 7.01008 6.05 6.97008 5.95C6.93008 5.85 6.44008 4.64 6.37008 4.47C6.30008 4.3 6.14008 4.27 6.14008 4.27C6.14008 4.27 5.64008 4.26 5.53008 4.26C5.42008 4.26 5.21008 4.39 5.21008 4.39C4.59008 4.77 4.46008 5.7 4.44008 5.9C4.42008 6.1 4.39008 6.53 4.71008 7.25C5.02008 7.98 5.81008 8.97 6.79008 9.92Z"/></svg>