<svg viewBox="0 0 16 16" xmlns="http://www.w3.org/2000/svg"><g clip-path="url(#clip0)"><path d="M6.14994 4.26994C6.14994 4.26994 5.64994 4.25994 5.53994 4.25994C5.42994 4.25994 5.21994 4.38994 5.21994 4.38994C4.58994 4.76994 4.45994 5.69994 4.43994 5.89994C4.41994 6.09994 4.38994 6.52994 4.70994 7.25994C4.82994 7.53994 5.04994 7.86994 5.29994 8.21994L6.39994 7.11994C6.41994 7.07994 6.43994 7.05994 6.43994 7.05994C6.43994 7.05994 6.77994 6.67994 6.93994 6.47994C7.09994 6.27994 7.00994 6.04994 6.96994 5.94994C6.92994 5.85994 6.43994 4.63994 6.36994 4.46994C6.29994 4.29994 6.14994 4.26994 6.14994 4.26994Z"/><path d="M1.82994 11.6899L2.80994 10.7099C2.46994 10.0499 2.03994 8.98994 2.03994 7.80994C2.03994 4.45994 4.75994 1.73994 8.10994 1.73994C9.16994 1.73994 10.1599 2.00994 11.0299 2.48994L11.9199 1.59994C10.8199 0.899941 9.51994 0.499941 8.11994 0.499941C4.08994 0.499941 0.819941 3.77994 0.819941 7.79994C0.819941 9.68994 1.77994 11.4099 1.86994 11.5799L1.82994 11.6899Z"/><path d="M15.7799 0.219941C15.4899 -0.0700586 15.0099 -0.0700586 14.7199 0.219941L0.219941 14.7199C-0.0700586 15.0099 -0.0700586 15.4899 0.219941 15.7799C0.369941 15.9199 0.559941 15.9999 0.749941 15.9999C0.939941 15.9999 1.12994 15.9299 1.27994 15.7799L2.01994 15.0399L4.60994 14.2099C4.75994 14.2999 6.20994 15.0999 8.11994 15.0999C12.1499 15.0999 15.4199 11.8199 15.4199 7.79994C15.4199 6.07994 14.8199 4.48994 13.8099 3.23994L15.7699 1.27994C16.0699 0.989941 16.0699 0.509941 15.7799 0.219941ZM14.1899 7.79994C14.1899 11.1499 11.4699 13.8699 8.11994 13.8699C6.27994 13.8699 4.78994 12.8799 4.76994 12.8699L4.75994 12.8599L3.92994 13.1299L6.97994 10.0799C7.94994 10.9099 9.30994 11.2999 9.73994 11.4299C10.1999 11.5699 11.1799 11.3599 11.6399 10.8699C12.1099 10.3799 12.0099 9.86994 12.0099 9.69994C12.0099 9.52994 11.8499 9.49994 11.8499 9.49994C11.8499 9.49994 10.5999 8.85994 10.3399 8.73994C10.0799 8.61994 9.94994 8.80994 9.94994 8.80994C9.94994 8.80994 9.55994 9.27994 9.42994 9.43994C9.29994 9.59994 9.22994 9.73994 8.90994 9.61994C8.69994 9.54994 8.33994 9.34994 7.96994 9.08994L12.9399 4.11994C13.7199 5.14994 14.1899 6.41994 14.1899 7.79994Z"/></g><defs><clipPath><rect/></clipPath></defs></svg>