<svg viewBox="0 0 16 16" xmlns="http://www.w3.org/2000/svg"><g clip-path="url(#clip0_35_2292)"><path d="M4.76996 10.17H4.75996L2.20996 12.73L4.76996 10.17Z"/><path d="M9.16953 5.77002L5.76953 9.17002L9.16953 5.77002Z"/><path d="M12.7304 2.21002L11.8604 3.08002L12.7304 2.21002Z"/><path d="M11.1699 3.77002L10.1699 4.77002L11.1699 3.77002Z"/><path d="M4.09961 7.99998C4.09972 8.22133 4.1198 8.44223 4.15961 8.65998L5.60961 7.20998C5.73171 6.83626 5.94023 6.4966 6.21823 6.2186C6.49624 5.94059 6.83589 5.73207 7.20961 5.60998L8.64961 4.15998C8.43463 4.12467 8.21742 4.10462 7.99961 4.09998C6.96608 4.10262 5.97563 4.51435 5.24481 5.24518C4.51399 5.976 4.10225 6.96644 4.09961 7.99998Z"/><path d="M0.590156 12.23L1.82016 11C1.82016 10.25 1.82016 9.99997 1.82016 7.99997C1.82016 5.99997 1.82016 5.72997 1.82016 4.92997C1.83125 4.44913 1.91902 3.97315 2.08016 3.51997C2.20837 3.1939 2.40241 2.89774 2.65017 2.64998C2.89792 2.40223 3.19408 2.20819 3.52016 2.07997C3.97333 1.91884 4.44932 1.83107 4.93016 1.81997C5.73016 1.81997 5.93016 1.81997 8.00016 1.81997C10.0702 1.81997 10.2502 1.81997 11.0002 1.81997L12.2202 0.589973C11.8573 0.51922 11.4896 0.475765 11.1202 0.459973C10.3102 0.419973 10.0602 0.409973 8.00016 0.409973C5.94016 0.409973 5.68016 0.419973 4.87016 0.459973C4.23134 0.468338 3.59875 0.586738 3.00016 0.809973C2.49037 0.999366 2.02919 1.29999 1.65016 1.68997C1.279 2.06098 0.992449 2.50786 0.810156 2.99997C0.581866 3.59715 0.463297 4.23065 0.460156 4.86997C0.420156 5.67997 0.410156 5.93997 0.410156 7.99997C0.410156 10.06 0.410156 10.32 0.460156 11.13C0.472209 11.4997 0.515699 11.8677 0.590156 12.23Z"/><path d="M15.7796 0.220011C15.6389 0.079561 15.4483 0.000671387 15.2496 0.000671387C15.0508 0.000671387 14.8602 0.079561 14.7196 0.220011L13.7196 1.22001L12.7196 2.22001L11.8496 3.09001L11.1596 3.78001L10.1596 4.78001L9.15957 5.78001L5.75957 9.18001L4.75957 10.18L2.20957 12.73L1.20957 13.73L0.209574 14.73C0.0691239 14.8706 -0.00976563 15.0613 -0.00976562 15.26C-0.00976563 15.4588 0.0691239 15.6494 0.209574 15.79C0.3502 15.9305 0.540824 16.0094 0.739574 16.0094C0.938325 16.0094 1.12895 15.9305 1.26957 15.79L2.26957 14.79C2.50868 14.9488 2.76333 15.0828 3.02957 15.19C3.62004 15.4051 4.24139 15.5233 4.86957 15.54C5.67957 15.54 5.93957 15.54 7.99957 15.54C10.0596 15.54 10.3096 15.54 11.1196 15.54C11.7609 15.5246 12.3956 15.4064 12.9996 15.19C13.5025 14.9929 13.9589 14.6932 14.3396 14.31C14.7107 13.939 14.9973 13.4921 15.1796 13C15.4014 12.4111 15.5231 11.7891 15.5396 11.16C15.5396 10.35 15.5396 10.09 15.5396 8.03001C15.5396 5.97001 15.5396 5.71001 15.5396 4.90001C15.5321 4.25045 15.4102 3.60728 15.1796 3.00001C15.0799 2.73225 14.949 2.47716 14.7896 2.24001L15.7896 1.24001C15.9168 1.10007 15.9865 0.917201 15.9847 0.72805C15.9828 0.538898 15.9096 0.357433 15.7796 0.220011ZM10.2296 6.83001C10.418 7.19137 10.5174 7.59249 10.5196 8.00001C10.5251 8.43568 10.4166 8.86522 10.2049 9.24605C9.99325 9.62688 9.68573 9.94578 9.31283 10.1711C8.93993 10.3965 8.51461 10.5205 8.07903 10.5308C7.64345 10.5411 7.21273 10.4374 6.82957 10.23L10.2296 6.83001ZM14.1696 11.06C14.1638 11.5414 14.0758 12.0182 13.9096 12.47C13.7905 12.8007 13.5952 13.0988 13.3396 13.34C13.0967 13.5937 12.7991 13.7886 12.4696 13.91C12.0191 14.0809 11.5414 14.169 11.0596 14.17C10.2596 14.17 10.0596 14.22 7.99957 14.22C5.93957 14.22 5.72957 14.22 4.92957 14.17C4.44775 14.169 3.97008 14.0809 3.51957 13.91L3.26957 13.79L5.82957 11.23C6.46995 11.6635 7.22629 11.8935 7.99957 11.89C8.70504 11.8903 9.3973 11.6987 10.0022 11.3358C10.6072 10.9729 11.1021 10.4523 11.4339 9.82972C11.7657 9.20716 11.922 8.50609 11.886 7.80155C11.85 7.097 11.6231 6.41551 11.2296 5.83001L12.2296 4.83001C12.3961 4.7937 12.5488 4.71031 12.6693 4.58976C12.7899 4.46921 12.8733 4.31658 12.9096 4.15001L13.7696 3.29001C13.8188 3.36666 13.8623 3.44689 13.8996 3.53001C14.0658 3.98179 14.1538 4.45864 14.1596 4.94001C14.1596 5.74001 14.2096 5.94001 14.2096 8.01001C14.2096 10.08 14.2096 10.26 14.1696 11.06Z"/></g><defs><clipPath><rect/></clipPath></defs></svg>