<svg viewBox="0 0 16 16" xmlns="http://www.w3.org/2000/svg"><g clip-path="url(#clip0_4577_26470)"><path d="M4.76996 10.1699H4.75996L2.20996 12.7299L4.76996 10.1699Z"/><path d="M9.16953 5.77002L5.76953 9.17002L9.16953 5.77002Z"/><path d="M12.7304 2.20996L11.8604 3.07996L12.7304 2.20996Z"/><path d="M11.1699 3.77002L10.1699 4.77002L11.1699 3.77002Z"/><path d="M4.09961 8.0001C4.09972 8.22145 4.1198 8.44235 4.15961 8.6601L5.60961 7.2101C5.73171 6.83638 5.94023 6.49672 6.21823 6.21872C6.49624 5.94071 6.83589 5.7322 7.20961 5.6101L8.64961 4.1601C8.43463 4.1248 8.21742 4.10475 7.99961 4.1001C6.96608 4.10274 5.97563 4.51448 5.24481 5.2453C4.51399 5.97612 4.10225 6.96657 4.09961 8.0001Z"/><path d="M0.590156 12.2302L1.82016 11.0002C1.82016 10.2502 1.82016 10.0002 1.82016 8.00016C1.82016 6.00016 1.82016 5.73016 1.82016 4.93016C1.83125 4.44932 1.91902 3.97333 2.08016 3.52016C2.20837 3.19408 2.40241 2.89792 2.65017 2.65017C2.89792 2.40241 3.19408 2.20837 3.52016 2.08016C3.97333 1.91902 4.44932 1.83125 4.93016 1.82016C5.73016 1.82016 5.93016 1.82016 8.00016 1.82016C10.0702 1.82016 10.2502 1.82016 11.0002 1.82016L12.2202 0.590156C11.8573 0.519403 11.4896 0.475948 11.1202 0.460156C10.3102 0.420156 10.0602 0.410156 8.00016 0.410156C5.94016 0.410156 5.68016 0.420156 4.87016 0.460156C4.23134 0.468521 3.59875 0.586921 3.00016 0.810156C2.49037 0.999549 2.02919 1.30017 1.65016 1.69016C1.279 2.06116 0.992449 2.50804 0.810156 3.00016C0.581866 3.59734 0.463297 4.23084 0.460156 4.87016C0.420156 5.68016 0.410156 5.94016 0.410156 8.00016C0.410156 10.0602 0.410156 10.3202 0.460156 11.1302C0.472209 11.4998 0.515699 11.8678 0.590156 12.2302Z"/><path d="M15.7796 0.220072C15.6389 0.079622 15.4483 0.000732422 15.2496 0.000732422C15.0508 0.000732422 14.8602 0.079622 14.7196 0.220072L13.7196 1.22007L12.7196 2.22007L11.8496 3.09007L11.1596 3.78007L10.1596 4.78007L9.15957 5.78007L5.75957 9.18007L4.75957 10.1801L2.20957 12.7301L1.20957 13.7301L0.209574 14.7301C0.0691239 14.8707 -0.00976563 15.0613 -0.00976562 15.2601C-0.00976563 15.4588 0.0691239 15.6494 0.209574 15.7901C0.3502 15.9305 0.540824 16.0094 0.739574 16.0094C0.938325 16.0094 1.12895 15.9305 1.26957 15.7901L2.26957 14.7901C2.50868 14.9488 2.76333 15.0829 3.02957 15.1901C3.62004 15.4051 4.24139 15.5233 4.86957 15.5401C5.67957 15.5401 5.93957 15.5401 7.99957 15.5401C10.0596 15.5401 10.3096 15.5401 11.1196 15.5401C11.7609 15.5247 12.3956 15.4065 12.9996 15.1901C13.5025 14.993 13.9589 14.6933 14.3396 14.3101C14.7107 13.9391 14.9973 13.4922 15.1796 13.0001C15.4014 12.4111 15.5231 11.7892 15.5396 11.1601C15.5396 10.3501 15.5396 10.0901 15.5396 8.03007C15.5396 5.97007 15.5396 5.71007 15.5396 4.90007C15.5321 4.25051 15.4102 3.60735 15.1796 3.00007C15.0799 2.73231 14.949 2.47722 14.7896 2.24007L15.7896 1.24007C15.9168 1.10013 15.9865 0.917262 15.9847 0.728111C15.9828 0.538959 15.9096 0.357494 15.7796 0.220072ZM10.2296 6.83007C10.418 7.19143 10.5174 7.59255 10.5196 8.00007C10.5251 8.43574 10.4166 8.86528 10.2049 9.24611C9.99325 9.62694 9.68573 9.94584 9.31283 10.1712C8.93993 10.3966 8.51461 10.5205 8.07903 10.5309C7.64345 10.5412 7.21273 10.4375 6.82957 10.2301L10.2296 6.83007ZM14.1696 11.0601C14.1638 11.5414 14.0758 12.0183 13.9096 12.4701C13.7905 12.8008 13.5952 13.0988 13.3396 13.3401C13.0967 13.5937 12.7991 13.7887 12.4696 13.9101C12.0191 14.081 11.5414 14.169 11.0596 14.1701C10.2596 14.1701 10.0596 14.2201 7.99957 14.2201C5.93957 14.2201 5.72957 14.2201 4.92957 14.1701C4.44775 14.169 3.97008 14.081 3.51957 13.9101L3.26957 13.7901L5.82957 11.2301C6.46995 11.6636 7.22629 11.8936 7.99957 11.8901C8.70504 11.8903 9.3973 11.6988 10.0022 11.3358C10.6072 10.9729 11.1021 10.4523 11.4339 9.82978C11.7657 9.20723 11.922 8.50616 11.886 7.80161C11.85 7.09707 11.6231 6.41557 11.2296 5.83007L12.2296 4.83007C12.3961 4.79376 12.5488 4.71037 12.6693 4.58982C12.7899 4.46927 12.8733 4.31664 12.9096 4.15007L13.7696 3.29007C13.8188 3.36672 13.8623 3.44695 13.8996 3.53007C14.0658 3.98185 14.1538 4.4587 14.1596 4.94007C14.1596 5.74007 14.2096 5.94007 14.2096 8.01007C14.2096 10.0801 14.2096 10.2601 14.1696 11.0601Z"/></g><defs><clipPath><rect/></clipPath></defs></svg>