<svg viewBox="0 0 16 18" xmlns="http://www.w3.org/2000/svg"><path d="M4.78249 11.165H4.77249L2.22249 13.725L4.78249 11.165Z"/><path d="M9.18206 6.76501L5.78206 10.165L9.18206 6.76501Z"/><path d="M12.7429 3.20502L11.8729 4.07502L12.7429 3.20502Z"/><path d="M11.1824 4.76501L10.1824 5.76501L11.1824 4.76501Z"/><path d="M4.11213 8.99497C4.11224 9.21633 4.13233 9.43722 4.17213 9.65497L5.62214 8.20497C5.74423 7.83125 5.95275 7.4916 6.23076 7.21359C6.50876 6.93559 6.84842 6.72707 7.22214 6.60497L8.66213 5.15497C8.44715 5.11967 8.22995 5.09962 8.01214 5.09497C6.9786 5.09761 5.98816 5.50935 5.25733 6.24017C4.52651 6.97099 4.11477 7.96144 4.11213 8.99497V8.99497Z"/><path d="M0.602682 13.225L1.83268 11.995C1.83268 11.245 1.83268 10.995 1.83268 8.99497C1.83268 6.99497 1.83268 6.72497 1.83268 5.92497C1.84378 5.44413 1.93155 4.96814 2.09268 4.51497C2.2209 4.18889 2.41494 3.89273 2.66269 3.64498C2.91045 3.39722 3.2066 3.20318 3.53268 3.07497C3.98586 2.91384 4.46184 2.82606 4.94268 2.81497C5.74268 2.81497 5.94268 2.81497 8.01268 2.81497C10.0827 2.81497 10.2627 2.81497 11.0127 2.81497L12.2327 1.58497C11.8698 1.51422 11.5021 1.47076 11.1327 1.45497C10.3227 1.41497 10.0727 1.40497 8.01268 1.40497C5.95268 1.40497 5.69268 1.41497 4.88268 1.45497C4.24387 1.46333 3.61128 1.58173 3.01268 1.80497C2.50289 1.99436 2.04171 2.29498 1.66268 2.68497C1.29152 3.05598 1.00497 3.50285 0.822682 3.99497C0.594392 4.59215 0.475822 5.22565 0.472682 5.86497C0.432682 6.67497 0.422682 6.93497 0.422682 8.99497C0.422682 11.055 0.422682 11.315 0.472682 12.125C0.484735 12.4947 0.528225 12.8627 0.602682 13.225V13.225Z"/><path d="M15.7921 1.21501C15.6515 1.07456 15.4609 0.995667 15.2621 0.995667C15.0633 0.995667 14.8727 1.07456 14.7321 1.21501L13.7321 2.21501L12.7321 3.21501L11.8621 4.08501L11.1721 4.77501L10.1721 5.77501L9.1721 6.77501L5.7721 10.175L4.7721 11.175L2.2221 13.725L1.2221 14.725L0.2221 15.725C0.0816495 15.8656 0.00275993 16.0563 0.00275993 16.255C0.00275993 16.4538 0.0816495 16.6444 0.2221 16.785C0.362725 16.9255 0.553349 17.0043 0.7521 17.0043C0.950851 17.0043 1.14147 16.9255 1.2821 16.785L2.2821 15.785C2.52121 15.9438 2.77585 16.0778 3.0421 16.185C3.63256 16.4001 4.25391 16.5183 4.8821 16.535C5.6921 16.535 5.9521 16.535 8.0121 16.535C10.0721 16.535 10.3221 16.535 11.1321 16.535C11.7734 16.5196 12.4082 16.4014 13.0121 16.185C13.515 15.9879 13.9714 15.6882 14.3521 15.305C14.7233 14.934 15.0098 14.4871 15.1921 13.995C15.4139 13.4061 15.5356 12.7841 15.5521 12.155C15.5521 11.345 15.5521 11.085 15.5521 9.02501C15.5521 6.96501 15.5521 6.70501 15.5521 5.89501C15.5446 5.24544 15.4228 4.60228 15.1921 3.99501C15.0924 3.72724 14.9615 3.47215 14.8021 3.23501L15.8021 2.23501C15.9294 2.09506 15.9991 1.9122 15.9972 1.72304C15.9953 1.53389 15.9221 1.35243 15.7921 1.21501V1.21501ZM10.2421 7.82501C10.4305 8.18636 10.5299 8.58748 10.5321 8.99501C10.5376 9.43068 10.4291 9.86021 10.2174 10.241C10.0058 10.6219 9.69825 10.9408 9.32535 11.1661C8.95246 11.3915 8.52714 11.5155 8.09156 11.5258C7.65598 11.5361 7.22526 11.4324 6.8421 11.225L10.2421 7.82501ZM14.1821 12.055C14.1763 12.5364 14.0884 13.0132 13.9221 13.465C13.803 13.7957 13.6077 14.0937 13.3521 14.335C13.1092 14.5887 12.8117 14.7836 12.4821 14.905C12.0316 15.0759 11.5539 15.164 11.0721 15.165C10.2721 15.165 10.0721 15.215 8.0121 15.215C5.9521 15.215 5.7421 15.215 4.9421 15.165C4.46028 15.164 3.9826 15.0759 3.5321 14.905L3.2821 14.785L5.8421 12.225C6.48248 12.6585 7.23881 12.8885 8.0121 12.885C8.71756 12.8853 9.40982 12.6937 10.0148 12.3308C10.6197 11.9679 11.1146 11.4473 11.4464 10.8247C11.7782 10.2022 11.9345 9.50109 11.8985 8.79654C11.8625 8.092 11.6356 7.4105 11.2421 6.82501L12.2421 5.82501C12.4087 5.78869 12.5613 5.7053 12.6818 5.58476C12.8024 5.46421 12.8858 5.31157 12.9221 5.14501L13.7821 4.28501C13.8313 4.36166 13.8748 4.44188 13.9121 4.52501C14.0784 4.97679 14.1663 5.45364 14.1721 5.93501C14.1721 6.73501 14.2221 6.93501 14.2221 9.00501C14.2221 11.075 14.2221 11.255 14.1821 12.055Z"/></svg>