<svg viewBox="0 0 16 16" xmlns="http://www.w3.org/2000/svg"><path d="M15.9898 6.86989C15.9898 3.29989 12.4098 0.389893 7.99977 0.389893C3.58977 0.389893 0.00976562 3.29989 0.00976562 6.86989C0.00976562 10.0699 2.84977 12.7599 6.68977 13.2599C6.94977 13.3199 7.29977 13.4299 7.38977 13.6499C7.46977 13.8499 7.43977 14.1699 7.41977 14.3699L7.30977 15.0499C7.26977 15.2699 7.14977 15.8599 7.99977 15.4999C8.84977 15.1399 12.5998 12.7899 14.2698 10.8599C15.4298 9.58989 15.9898 8.29989 15.9898 6.86989ZM5.17977 8.77989C5.17977 8.86989 5.10977 8.93989 5.01977 8.93989H2.78977C2.74977 8.93989 2.70977 8.91989 2.67977 8.89989C2.64977 8.85989 2.62977 8.81989 2.62977 8.77989V5.29989C2.62977 5.20989 2.69977 5.13989 2.78977 5.13989H3.34977C3.43977 5.13989 3.50977 5.20989 3.50977 5.29989V8.05989H5.02977C5.11977 8.05989 5.18977 8.12989 5.18977 8.21989V8.77989H5.17977ZM6.52977 8.77989C6.52977 8.86989 6.45977 8.93989 6.36977 8.92989H5.81977C5.72977 8.92989 5.66977 8.85989 5.66977 8.77989V5.29989C5.66977 5.20989 5.73977 5.13989 5.82977 5.13989H6.38977C6.47977 5.13989 6.54977 5.20989 6.54977 5.29989V8.77989H6.52977ZM10.3898 8.77989C10.3898 8.86989 10.3198 8.93989 10.2298 8.92989H9.66977C9.65977 8.92989 9.63977 8.92989 9.62977 8.91989L9.60977 8.92989H9.58977C9.58977 8.92989 9.57977 8.92989 9.57977 8.91989C9.56977 8.89989 9.54977 8.87989 9.53977 8.86989L7.93977 6.70989V8.77989C7.93977 8.86989 7.86977 8.92989 7.77977 8.92989H7.22977C7.13977 8.92989 7.07977 8.85989 7.07977 8.77989V5.29989C7.07977 5.20989 7.14977 5.13989 7.23977 5.13989H7.79977C7.79977 5.13989 7.79977 5.13989 7.80977 5.13989H7.87977C7.87977 5.13989 7.87977 5.13989 7.88977 5.13989H7.89977L7.90977 5.14989L7.89977 5.18989L7.90977 5.19989C7.90977 5.19989 7.91977 5.20989 7.91977 5.21989L9.51977 7.36989V5.29989C9.51977 5.20989 9.58977 5.13989 9.67977 5.13989H10.2398C10.3298 5.13989 10.3998 5.20989 10.3998 5.29989V8.77989H10.3898ZM13.4798 5.85989C13.4798 5.94989 13.4098 6.01989 13.3198 6.01989H11.7998V6.60989H13.3198C13.4098 6.60989 13.4798 6.67989 13.4798 6.76989V7.32989C13.4798 7.41989 13.4098 7.47989 13.3198 7.47989H11.7998V8.06989H13.3198C13.4098 8.06989 13.4798 8.13989 13.4798 8.22989V8.78989C13.4798 8.87989 13.4098 8.94989 13.3198 8.94989H11.0798C11.0398 8.94989 10.9998 8.92989 10.9698 8.90989C10.9398 8.87989 10.9298 8.83989 10.9298 8.79989V5.29989C10.9298 5.25989 10.9498 5.21989 10.9698 5.18989C10.9998 5.15989 11.0398 5.14989 11.0798 5.14989H13.3198C13.4098 5.14989 13.4798 5.21989 13.4798 5.30989V5.85989Z"/></svg>