<svg viewBox="0 0 16 16" xmlns="http://www.w3.org/2000/svg"><path d="M14 0.0554199H2C0.898438 0.0554199 0 0.953857 0 2.02729V10.9992C0 12.1007 0.898438 12.971 2 12.971H5V15.5679C5 15.8753 5.34437 16.0539 5.5975 15.871L9.5 13.0273H14C15.1016 13.0273 16 12.1289 16 11.0554V2.02729C16 0.953857 15.1031 0.0554199 14 0.0554199ZM14.5 11.0554C14.5 11.3289 14.2734 11.5554 14 11.5554H9L6.5 13.4304V11.5554H2C1.72656 11.5554 1.5 11.3289 1.5 11.0554V2.05542C1.5 1.78198 1.72656 1.55542 2 1.55542H14C14.2734 1.55542 14.5 1.78198 14.5 2.05542V11.0554ZM10.5031 4.02417C10.2102 3.7312 9.73563 3.7312 9.4425 4.02417L8 5.49605L6.50313 4.02417C6.21016 3.7312 5.73563 3.7312 5.4425 4.02417C5.14938 4.31714 5.14953 4.79167 5.4425 5.08479L6.94063 6.55542L5.46875 8.02417C5.17578 8.31714 5.17578 8.79167 5.46875 9.08479C5.76172 9.37764 6.23594 9.37789 6.52938 9.08479L8 7.61479L9.46969 9.08448C9.76266 9.37733 10.2369 9.37758 10.5303 9.08448C10.8233 8.79151 10.8233 8.31698 10.5303 8.02386L9.05937 6.55542L10.5291 5.08573C10.8219 4.79292 10.8219 4.31792 10.5031 4.02417Z"/></svg>