<svg viewBox="0 0 16 16" xmlns="http://www.w3.org/2000/svg"><path d="M7.98983 0.48999C3.95983 0.49999 0.669834 3.81999 0.709834 7.84999C0.729834 9.88999 1.58983 11.73 2.95983 13.04C3.11983 13.19 3.20983 13.41 3.20983 13.63V14.84C3.20983 15.31 3.69983 15.62 4.11983 15.43L5.44983 14.82C5.62983 14.74 5.82983 14.73 6.00983 14.78C6.63983 14.96 7.29983 15.05 7.97983 15.05C11.9898 15.05 15.2698 11.78 15.2698 7.75999C15.2898 3.74999 12.0198 0.48999 7.98983 0.48999ZM12.5298 6.05999L10.3598 9.48999C9.99983 10.05 9.24983 10.2 8.70983 9.80999L8.08983 9.37999L7.00983 8.60999C6.80983 8.46999 6.52983 8.46999 6.33983 8.62999L4.18983 10.4C3.83983 10.69 3.34983 10.26 3.59983 9.86999L5.76983 6.43999C6.12983 5.87999 6.87983 5.72999 7.41983 6.11999L9.11983 7.32999C9.31983 7.46999 9.59983 7.46999 9.78983 7.30999L11.9498 5.54999C12.2898 5.24999 12.7798 5.67999 12.5298 6.05999Z"/></svg>