<svg viewBox="0 0 16 16" xmlns="http://www.w3.org/2000/svg"><g clip-path="url(#clip0)"><path d="M15.9899 9.96994C15.9899 7.74994 13.8299 5.94994 11.1699 5.94994C10.7299 5.94994 10.3099 6.01994 9.89994 6.10994L6.38994 9.60994C6.37994 9.72994 6.33994 9.84994 6.33994 9.96994C6.33994 12.1899 8.49994 13.9899 11.1599 13.9899C11.7399 13.9899 12.2899 13.9099 12.7999 13.7499C12.8899 13.7199 12.9899 13.7299 13.0699 13.7799L14.1199 14.3899C14.3499 14.5199 14.4899 14.4199 14.4199 14.1599L14.1999 13.2999C14.1699 13.1999 14.2099 13.0999 14.2999 13.0399C15.3299 12.2999 15.9899 11.1999 15.9899 9.96994ZM9.55994 9.32994C9.19994 9.32994 8.90994 9.03994 8.90994 8.67994C8.90994 8.31994 9.19994 8.02994 9.55994 8.02994C9.91994 8.02994 10.2099 8.31994 10.2099 8.67994C10.2099 9.03994 9.91994 9.32994 9.55994 9.32994ZM12.7599 9.32994C12.3999 9.32994 12.1099 9.03994 12.1099 8.67994C12.1099 8.31994 12.3999 8.02994 12.7599 8.02994C13.1199 8.02994 13.4099 8.31994 13.4099 8.67994C13.4099 9.03994 13.1199 9.32994 12.7599 9.32994Z"/><path d="M2.02994 9.97994C2.14994 10.0599 2.19994 10.2099 2.15994 10.3499L1.88994 11.3699C1.85994 11.4799 1.86994 11.5599 1.89994 11.6199L8.03994 5.47994C7.93994 5.51994 7.83994 5.54994 7.71994 5.54994C7.28994 5.54994 6.94994 5.20994 6.94994 4.77994C6.95994 4.34994 7.30994 3.99994 7.72994 3.99994C8.14994 3.99994 8.49994 4.34994 8.49994 4.76994C8.49994 4.87994 8.46994 4.98994 8.42994 5.08994L10.2699 3.24994C9.20994 2.17994 7.59994 1.49994 5.80994 1.49994C2.60994 1.49994 0.00994139 3.65994 0.00994139 6.31994C0.00994139 7.77994 0.789941 9.09994 2.02994 9.97994ZM3.85994 3.99994C4.28994 3.99994 4.62994 4.33994 4.62994 4.76994C4.62994 5.19994 4.28994 5.53994 3.85994 5.53994C3.42994 5.53994 3.08994 5.19994 3.08994 4.76994C3.08994 4.34994 3.43994 3.99994 3.85994 3.99994Z"/><path d="M0.749941 15.9999C0.559941 15.9999 0.369941 15.9299 0.219941 15.7799C-0.0700586 15.4899 -0.0700586 15.0099 0.219941 14.7199L14.7199 0.219941C15.0099 -0.0700586 15.4899 -0.0700586 15.7799 0.219941C16.0699 0.509941 16.0699 0.989941 15.7799 1.27994L1.27994 15.7799C1.13994 15.9199 0.939941 15.9999 0.749941 15.9999Z"/></g><defs><clipPath><rect/></clipPath></defs></svg>