<svg viewBox="0 0 16 16" xmlns="http://www.w3.org/2000/svg"><path d="M7.99996 0.419983C5.93996 0.419983 5.67996 0.419983 4.86996 0.419983C4.22954 0.447186 3.59787 0.578924 2.99996 0.809983C2.4958 1.00469 2.03897 1.3047 1.65996 1.68998C1.28899 2.0631 0.999548 2.50918 0.809961 2.99998C0.59256 3.60018 0.474346 4.23178 0.459961 4.86998C0.459961 5.67998 0.459961 5.93998 0.459961 7.99998C0.459961 10.06 0.459961 10.32 0.459961 11.13C0.474346 11.7682 0.59256 12.3998 0.809961 13C1.00467 13.5041 1.30467 13.961 1.68996 14.34C2.06307 14.711 2.50916 15.0004 2.99996 15.19C3.59065 15.4042 4.21187 15.5224 4.83996 15.54C5.64996 15.54 5.90996 15.54 7.96996 15.54C10.03 15.54 10.29 15.54 11.1 15.54C11.7483 15.5289 12.3903 15.4106 13 15.19C13.4922 14.9889 13.9395 14.6916 14.3155 14.3155C14.6916 13.9395 14.9888 13.4923 15.19 13C15.4042 12.4093 15.5224 11.7881 15.54 11.16C15.54 10.35 15.54 10.09 15.54 8.02998C15.54 5.96998 15.54 5.70998 15.54 4.89998C15.5288 4.25168 15.4106 3.60969 15.19 2.99998C14.9953 2.49582 14.6952 2.03899 14.31 1.65998C13.9368 1.28901 13.4908 0.99957 13 0.809983C12.3998 0.592582 11.7682 0.474368 11.13 0.459983C10.32 0.419983 10.06 0.419983 7.99996 0.419983ZM7.99996 1.77998C9.99996 1.77998 10.26 1.77998 11.06 1.82998C11.5419 1.82946 12.0199 1.91759 12.47 2.08998C12.8009 2.20975 13.1014 2.40083 13.3503 2.64968C13.5991 2.89853 13.7902 3.19906 13.91 3.52998C14.0824 3.98006 14.1705 4.45802 14.17 4.93998C14.17 5.73998 14.22 5.93998 14.22 7.99998C14.22 10.06 14.22 10.26 14.17 11.06C14.1705 11.542 14.0824 12.0199 13.91 12.47C13.7902 12.8009 13.5991 13.1014 13.3503 13.3503C13.1014 13.5991 12.8009 13.7902 12.47 13.91C12.0199 14.0824 11.5419 14.1705 11.06 14.17C10.27 14.17 10.06 14.22 7.99996 14.22C5.93996 14.22 5.72996 14.22 4.93996 14.17C4.45799 14.1705 3.98004 14.0824 3.52996 13.91C3.19904 13.7902 2.8985 13.5991 2.64965 13.3503C2.4008 13.1014 2.20973 12.8009 2.08996 12.47C1.91757 12.0199 1.82943 11.542 1.82996 11.06C1.82996 10.26 1.77996 10.06 1.77996 7.99998C1.77996 5.93998 1.77996 5.73998 1.82996 4.93998C1.82943 4.45802 1.91757 3.98006 2.08996 3.52998C2.20973 3.19906 2.4008 2.89853 2.64965 2.64968C2.8985 2.40083 3.19904 2.20975 3.52996 2.08998C3.98004 1.91759 4.45799 1.82946 4.93996 1.82998C5.73996 1.78998 5.99996 1.77998 7.99996 1.77998Z"/><path d="M8.00035 10.53C7.49997 10.53 7.01082 10.3816 6.59476 10.1036C6.1787 9.82561 5.85443 9.43048 5.66294 8.96818C5.47145 8.50589 5.42135 7.99719 5.51897 7.50642C5.61659 7.01564 5.85755 6.56484 6.21137 6.21101C6.5652 5.85719 7.016 5.61623 7.50677 5.51861C7.99755 5.42099 8.50625 5.47109 8.96854 5.66258C9.43084 5.85407 9.82597 6.17834 10.104 6.5944C10.382 7.01046 10.5304 7.49961 10.5304 7.99999C10.5304 8.67099 10.2638 9.31451 9.78933 9.78897C9.31487 10.2634 8.67135 10.53 8.00035 10.53ZM8.00035 4.10999C7.23098 4.10999 6.47889 4.33814 5.83919 4.76558C5.19948 5.19302 4.70089 5.80055 4.40646 6.51136C4.11204 7.22216 4.035 8.00431 4.1851 8.7589C4.3352 9.51348 4.70568 10.2066 5.24971 10.7506C5.79373 11.2947 6.48687 11.6652 7.24145 11.8152C7.99604 11.9653 8.77819 11.8883 9.48899 11.5939C10.1998 11.2995 10.8073 10.8009 11.2348 10.1612C11.6622 9.52145 11.8904 8.76936 11.8904 7.99999C11.8904 6.9683 11.4805 5.97886 10.751 5.24935C10.0215 4.51983 9.03205 4.10999 8.00035 4.10999ZM13.0004 3.99999C12.9829 4.17332 12.9161 4.338 12.8078 4.47447C12.6996 4.61094 12.5544 4.71347 12.3896 4.76987C12.2248 4.82628 12.0472 4.8342 11.878 4.79268C11.7089 4.75116 11.5552 4.66196 11.4352 4.53566C11.3152 4.40937 11.234 4.25129 11.2012 4.0802C11.1684 3.90912 11.1854 3.73221 11.2502 3.5705C11.315 3.4088 11.4248 3.26908 11.5666 3.16795C11.7085 3.06682 11.8764 3.00853 12.0504 2.99999C12.1811 2.99358 12.3118 3.01547 12.4333 3.06416C12.5549 3.11285 12.6645 3.18721 12.7547 3.28214C12.8449 3.37707 12.9135 3.49035 12.9559 3.61424C12.9983 3.73813 13.0135 3.86971 13.0004 3.99999Z"/></svg>