<svg viewBox="0 0 16 16" xmlns="http://www.w3.org/2000/svg"><g clip-path="url(#clip0_2589_43525)"><path d="M15.774 14.6594L13.7125 12.6403C14.1286 12.2784 14.4034 11.6778 14.4034 10.9991V1.97187C14.4034 0.870312 13.6845 0 12.8255 0H3.17823C2.59057 0 2.07944 0.403125 1.80112 0.995625L0.9704 0.16025C0.708581 -0.0950937 0.332983 -0.038625 0.127804 0.287531C-0.0765492 0.613781 -0.0309623 1.08534 0.229656 1.34066L15.011 15.8125C15.1439 15.9469 15.2739 16 15.3814 16C15.5596 16 15.7358 15.9013 15.854 15.7128C16.0816 15.3875 16.0341 14.9156 15.774 14.6594ZM13.2033 11C13.2033 11.2734 13.022 11.5 12.8032 11.5H12.5484L2.80813 1.95906C2.80313 1.70531 2.99318 1.5 3.20073 1.5H12.8032C13.022 1.5 13.2033 1.72656 13.2033 2V11ZM6.80167 13.375V11.5H3.20073C2.98193 11.5 2.80063 11.2734 2.80063 11V5.75L1.60031 4.575L1.60031 11C1.60031 12.1016 2.31925 12.9719 3.17822 12.9719H5.55634V15.5966C5.55634 15.9039 5.83192 16.0825 6.03447 15.8997L9.15778 12.9719L10.1575 12.9726L8.69041 11.5357L6.80167 13.375Z"/></g><defs><clipPath><rect/></clipPath></defs></svg>