<svg viewBox="0 0 16 16" xmlns="http://www.w3.org/2000/svg"><g clip-path="url(#clip0)"><path d="M3.55994 9.95994C3.56994 9.92994 3.56994 9.89994 3.58994 9.86994L5.75994 6.43994C6.10994 5.87994 6.85994 5.72994 7.39994 6.10994L11.8799 1.62994C10.7499 0.909941 9.40994 0.489941 7.97994 0.499941C3.95994 0.499941 0.669941 3.81994 0.709941 7.84994C0.719941 9.24994 1.13994 10.5599 1.83994 11.6599L3.55994 9.95994Z"/><path d="M15.7799 0.219941C15.4899 -0.0700586 15.0099 -0.0700586 14.7199 0.219941L0.219941 14.7199C-0.0700586 15.0099 -0.0700586 15.4899 0.219941 15.7799C0.369941 15.9199 0.559941 15.9999 0.749941 15.9999C0.939941 15.9999 1.12994 15.9299 1.27994 15.7799L3.20994 13.8499V14.8599C3.20994 15.3299 3.69994 15.6399 4.11994 15.4499L5.44994 14.8399C5.62994 14.7599 5.82994 14.7499 6.00994 14.7999C6.63994 14.9799 7.29994 15.0699 7.97994 15.0699C11.9899 15.0699 15.2699 11.7999 15.2699 7.77994C15.2699 6.08994 14.6899 4.54994 13.7299 3.30994L15.7599 1.27994C16.0699 0.989941 16.0699 0.509941 15.7799 0.219941ZM9.77994 7.29994L11.9399 5.53994C12.2899 5.24994 12.7799 5.67994 12.5299 6.06994L10.3599 9.49994C9.99994 10.0599 9.24994 10.2099 8.70994 9.81994L7.84994 9.20994L9.71994 7.33994C9.73994 7.31994 9.75994 7.31994 9.77994 7.29994Z"/></g><defs><clipPath><rect/></clipPath></defs></svg>