<svg viewBox="0 0 16 16" xmlns="http://www.w3.org/2000/svg"><path d="M10.8209 4.91881C11.0069 4.91881 11.1872 4.92748 11.3674 4.9506C10.8848 2.68486 8.43981 1 5.66046 1C2.54386 1 0 3.10391 0 5.78003C0 7.32328 0.851831 8.59776 2.26477 9.58324L1.70366 11.2768L3.68061 10.2913C4.38998 10.43 4.95399 10.5716 5.66337 10.5716C5.84362 10.5716 6.01515 10.5629 6.1954 10.5485C6.07911 10.1757 6.01515 9.77976 6.01515 9.36938C6.01224 6.91579 8.13455 4.91881 10.8209 4.91881ZM7.78277 3.39001C8.20432 3.39001 8.48633 3.67034 8.48633 4.09517C8.48633 4.51422 8.20432 4.79454 7.78277 4.79454C7.35249 4.79454 6.93094 4.51422 6.93094 4.09517C6.93385 3.67034 7.3554 3.39001 7.78277 3.39001ZM3.81725 4.79454C3.39569 4.79454 2.96542 4.51422 2.96542 4.09517C2.96542 3.66745 3.39569 3.39001 3.81725 3.39001C4.24753 3.39001 4.52662 3.67034 4.52662 4.09517C4.52662 4.51711 4.24753 4.79454 3.81725 4.79454ZM15.99 9.3058C15.99 7.05451 13.7252 5.22226 11.1814 5.22226C8.48633 5.22226 6.37274 7.05451 6.37274 9.3058C6.37274 11.5571 8.48924 13.3893 11.1814 13.3893C11.7425 13.3893 12.3123 13.242 12.885 13.1032L14.4375 13.95L14.0072 12.5455C15.1469 11.6958 15.99 10.5716 15.99 9.3058ZM9.62016 8.59776C9.33816 8.59776 9.05906 8.31743 9.05906 8.03132C9.05906 7.75099 9.34107 7.47355 9.62016 7.47355C10.0504 7.47355 10.3295 7.75388 10.3295 8.03132C10.3295 8.32032 10.0475 8.59776 9.62016 8.59776ZM12.7339 8.59776C12.4518 8.59776 12.1728 8.31743 12.1728 8.03132C12.1728 7.75099 12.4548 7.47355 12.7339 7.47355C13.1554 7.47355 13.4432 7.75388 13.4432 8.03132C13.4461 8.32032 13.1554 8.59776 12.7339 8.59776Z"/></svg>