<svg viewBox="0 0 16 16" xmlns="http://www.w3.org/2000/svg"><path d="M7.39 16C7.2 16 7.01 15.93 6.86 15.78C6.57 15.49 6.57 15.01 6.86 14.72L9.36 12.22C9.5 12.07 9.69 12 9.89 12H12C13.38 12 14.5 10.88 14.5 9.5V4C14.5 2.62 13.38 1.5 12 1.5H4C2.62 1.5 1.5 2.62 1.5 4V9.5C1.5 10.87 2.62 12 4 12H6.62C7.03 12 7.37 12.34 7.37 12.75C7.37 13.16 7.04 13.5 6.63 13.5H4C1.79 13.5 0 11.71 0 9.5V4C0 1.79 1.8 0 4 0H12C14.21 0 16 1.79 16 4V9.5C16 11.71 14.21 13.5 12 13.5H10.2L7.92 15.78C7.77 15.92 7.58 16 7.39 16Z"/><path d="M8 7.75C8.55228 7.75 9 7.30228 9 6.75C9 6.19772 8.55228 5.75 8 5.75C7.44772 5.75 7 6.19772 7 6.75C7 7.30228 7.44772 7.75 8 7.75Z"/><path d="M4.7 7.75C5.25228 7.75 5.7 7.30228 5.7 6.75C5.7 6.19772 5.25228 5.75 4.7 5.75C4.14772 5.75 3.7 6.19772 3.7 6.75C3.7 7.30228 4.14772 7.75 4.7 7.75Z"/><path d="M11.31 7.75C11.8623 7.75 12.31 7.30228 12.31 6.75C12.31 6.19772 11.8623 5.75 11.31 5.75C10.7577 5.75 10.31 6.19772 10.31 6.75C10.31 7.30228 10.7577 7.75 11.31 7.75Z"/></svg>