<svg viewBox="0 0 16 16" xmlns="http://www.w3.org/2000/svg"><path d="M16 2.77999C15.41 3.03999 14.78 3.21999 14.12 3.29999C14.8 2.88999 15.32 2.24999 15.56 1.47999C14.93 1.85999 14.22 2.12999 13.48 2.27999C12.88 1.63999 12.03 1.23999 11.09 1.23999C9.28002 1.23999 7.81002 2.70999 7.81002 4.51999C7.81002 4.77999 7.84002 5.02999 7.89002 5.26999C5.15002 5.13999 2.73002 3.82999 1.12002 1.84999C0.83002 2.32999 0.67002 2.88999 0.67002 3.49999C0.67002 4.63999 1.25002 5.63999 2.13002 6.22999C1.59002 6.20999 1.09002 6.05999 0.65002 5.81999C0.65002 5.82999 0.65002 5.84999 0.65002 5.85999C0.65002 7.44999 1.78002 8.77999 3.28002 9.07999C3.00002 9.14999 2.71002 9.18999 2.41002 9.18999C2.20002 9.18999 2.00002 9.16999 1.80002 9.12999C2.22002 10.43 3.43002 11.38 4.87002 11.41C3.75002 12.29 2.33002 12.81 0.80002 12.81C0.54002 12.81 0.27002 12.79 0.0200195 12.76C1.47002 13.69 3.20002 14.23 5.05002 14.23C11.09 14.23 14.39 9.22999 14.39 4.88999C14.39 4.74999 14.39 4.60999 14.38 4.46999C15 4.01999 15.56 3.43999 16 2.77999Z"/></svg>