<svg viewBox="0 0 16 16" xmlns="http://www.w3.org/2000/svg"><path d="M14.3474 4.74234C14.3576 4.88442 14.3576 5.02652 14.3576 5.16859C14.3576 9.50195 11.0622 14.495 5.03926 14.495C3.1837 14.495 1.45997 13.9571 0.0100021 13.0235C0.273642 13.0539 0.527107 13.0641 0.80089 13.0641C2.33195 13.0641 3.74138 12.5465 4.86688 11.6636C3.42705 11.6331 2.22043 10.6893 1.8047 9.39034C2.00751 9.42076 2.21029 9.44107 2.42324 9.44107C2.71728 9.44107 3.01135 9.40046 3.2851 9.32946C1.78444 9.02498 0.658911 7.70569 0.658911 6.11239V6.07181C1.0949 6.31538 1.60192 6.4676 2.13928 6.48787C1.25713 5.89925 0.679198 4.89457 0.679198 3.75794C0.679198 3.14904 0.841402 2.59088 1.12533 2.10375C2.73754 4.09284 5.16092 5.39182 7.87831 5.53392C7.82762 5.29036 7.79719 5.03667 7.79719 4.78295C7.79719 2.97651 9.25731 1.505 11.0723 1.505C12.0153 1.505 12.867 1.90079 13.4652 2.54015C14.2054 2.39807 14.9152 2.12405 15.5439 1.74857C15.3005 2.50972 14.7834 3.14907 14.104 3.55498C14.7631 3.48398 15.4019 3.30126 15.99 3.04758C15.5439 3.69705 14.9862 4.27549 14.3474 4.74234V4.74234Z"/></svg>