<svg viewBox="0 0 16 16" xmlns="http://www.w3.org/2000/svg"><path d="M14.2898 13.03C15.3298 12.29 15.9898 11.19 15.9898 9.97C15.9898 7.75 13.8298 5.95 11.1698 5.95C8.50977 5.95 6.34977 7.75 6.34977 9.97C6.34977 12.19 8.50977 13.99 11.1698 13.99C11.7498 13.99 12.2998 13.91 12.8098 13.75C12.8998 13.72 12.9998 13.73 13.0798 13.78L14.1298 14.39C14.3598 14.52 14.4998 14.42 14.4298 14.16L14.1998 13.3C14.1698 13.2 14.2098 13.09 14.2898 13.03ZM9.55977 9.33C9.19977 9.33 8.90977 9.04 8.90977 8.68C8.90977 8.32 9.19977 8.03 9.55977 8.03C9.91977 8.03 10.2098 8.32 10.2098 8.68C10.2098 9.04 9.91977 9.33 9.55977 9.33ZM12.7598 9.33C12.3998 9.33 12.1098 9.04 12.1098 8.68C12.1098 8.32 12.3998 8.03 12.7598 8.03C13.1198 8.03 13.4098 8.32 13.4098 8.68C13.4098 9.04 13.1198 9.33 12.7598 9.33Z"/><path d="M5.80977 1.5C2.60977 1.5 0.00976562 3.66 0.00976562 6.32C0.00976562 7.78 0.789766 9.1 2.02977 9.98C2.14977 10.06 2.19977 10.21 2.15977 10.35L1.88977 11.37C1.80977 11.68 1.95977 11.8 2.23977 11.64L3.47977 10.92C3.58977 10.85 3.72977 10.84 3.84977 10.88C4.45977 11.06 5.11977 11.16 5.79977 11.16C5.89977 11.16 6.00977 11.16 6.10977 11.15C5.97977 10.77 5.90977 10.37 5.90977 9.96C5.90977 7.54 8.27977 5.57 11.2098 5.57C11.3098 5.57 11.4098 5.57 11.5198 5.58C11.0998 3.26 8.69977 1.5 5.80977 1.5ZM3.85977 5.54C3.42977 5.54 3.08977 5.2 3.08977 4.77C3.08977 4.35 3.43977 4 3.85977 4C4.27977 4 4.62977 4.34 4.62977 4.77C4.62977 5.2 4.28977 5.54 3.85977 5.54ZM7.72977 5.54C7.29977 5.54 6.95977 5.2 6.95977 4.77C6.95977 4.35 7.30977 4 7.72977 4C8.15977 4 8.49977 4.35 8.49977 4.77C8.49977 5.2 8.15977 5.54 7.72977 5.54Z"/></svg>