<svg viewBox="0 0 16 16" xmlns="http://www.w3.org/2000/svg"><path d="M15.774 14.0351L12.8208 11.4129C13.8035 10.3789 14.4037 9.03084 14.4037 7.54686C14.4037 4.29284 11.5379 1.68171 8.02451 1.68171C6.33057 1.68171 4.79617 2.29144 3.65087 3.28096L0.970422 0.89488C0.708604 0.663446 0.333007 0.714621 0.127703 1.01023C-0.0765248 1.30589 -0.030938 1.73325 0.22968 1.96463L15.011 15.0798C15.1439 15.2019 15.2739 15.25 15.3814 15.25C15.5596 15.25 15.7358 15.1605 15.854 14.9897C16.0816 14.6949 16.0341 14.2673 15.774 14.0351ZM11.868 10.5658L4.60862 4.12292C5.52136 3.43615 6.70416 3.0156 8.0045 3.0156C10.8752 3.0156 13.2059 5.04758 13.2059 7.54686C13.2059 8.70799 12.6957 9.76434 11.868 10.5658ZM8.0045 12.0781C7.33558 12.0781 6.67591 11.9613 6.04449 11.7349L5.47384 11.5344L4.98622 11.9224C4.62987 12.209 4.139 12.5278 3.54834 12.7436C3.73276 12.4004 3.90794 12.0144 4.04547 11.6038L4.31104 10.8108L3.79541 10.1911C3.34579 9.6454 2.80315 8.74481 2.80315 7.54686C2.80315 7.06994 2.88912 6.61087 3.04639 6.17898L2.07871 5.32087C1.77338 6.00906 1.60109 6.75955 1.60109 7.52137C1.60109 8.87027 2.09897 10.1056 2.92418 11.0982C2.55208 12.2169 1.77713 13.1622 1.76463 13.1727C1.59896 13.3709 1.55522 13.6612 1.649 13.909C1.74587 14.1823 1.95993 14.3437 2.20049 14.3437C3.73839 14.3437 4.9287 13.6145 5.6789 13.0339C6.40108 13.2888 7.18304 13.4375 8.002 13.4375C8.93999 13.4375 9.82947 13.2473 10.6327 12.9136L9.47913 11.8898C9.01226 12.0101 8.51713 12.0781 8.0045 12.0781Z"/></svg>