<svg viewBox="0 0 16 16" xmlns="http://www.w3.org/2000/svg"><path d="M15.78 1.28C16.07 0.99 16.07 0.51 15.78 0.22C15.49 -0.07 15.01 -0.07 14.72 0.22L0.22 14.72C-0.07 15.01 -0.07 15.49 0.22 15.78C0.37 15.93 0.56 16 0.75 16C0.94 16 1.13 15.93 1.28 15.78L3.6 13.46C3.74 13.47 3.87 13.5 4 13.5H6.62C7.03 13.5 7.37 13.16 7.37 12.75C7.37 12.34 7.04 12 6.63 12H5.06L14.2 2.86C14.39 3.2 14.5 3.59 14.5 4V9.5C14.5 10.88 13.38 12 12 12H9.89C9.69 12 9.5 12.08 9.36 12.22L6.86 14.72C6.57 15.01 6.57 15.49 6.86 15.78C7.01 15.92 7.2 16 7.39 16C7.58 16 7.77 15.93 7.92 15.78L10.2 13.5H12C14.21 13.5 16 11.71 16 9.5V4C16 3.19 15.76 2.41 15.31 1.75L15.78 1.28Z"/><path d="M7.96 5.25C7.96 4.84 7.62 4.5 7.21 4.5H3.75C3.33 4.5 3 4.83 3 5.25C3 5.67 3.33 6 3.75 6H7.22C7.63 6 7.96 5.66 7.96 5.25Z"/><path d="M3.75 7.5C3.33 7.5 3 7.83 3 8.25C3 8.67 3.33 9 3.75 9H4.22C4.63 9 4.97 8.66 4.97 8.25C4.97 7.84 4.63 7.5 4.21 7.5H3.75Z"/><path d="M1.25 11.97C1.39 11.97 1.52 11.93 1.65 11.86C2 11.64 2.11 11.18 1.89 10.83C1.63 10.42 1.5 9.97 1.5 9.5V4C1.5 2.62 2.62 1.5 4 1.5H11.71C12.12 1.5 12.46 1.16 12.46 0.75C12.46 0.34 12.13 0 11.71 0H4C1.8 0 0 1.79 0 4V9.5C0 10.25 0.21 10.98 0.61 11.62C0.75 11.84 1 11.97 1.25 11.97Z"/></svg>