<svg viewBox="0 0 16 16" xmlns="http://www.w3.org/2000/svg"><g clip-path="url(#clip0)"><path d="M14.2299 2.82994L15.7799 1.27994C16.0699 0.989941 16.0699 0.509941 15.7799 0.219941C15.4899 -0.0700586 15.0099 -0.0700586 14.7199 0.219941L0.219941 14.7199C-0.0700586 15.0099 -0.0700586 15.4899 0.219941 15.7799C0.369941 15.9199 0.559941 15.9999 0.749941 15.9999C0.939941 15.9999 1.12994 15.9299 1.27994 15.7799L4.39994 12.6599C5.10994 12.9499 5.86994 13.1599 6.68994 13.2699C6.94994 13.3299 7.29994 13.4399 7.38994 13.6599C7.46994 13.8599 7.43994 14.1799 7.41994 14.3799L7.30994 15.0599C7.26994 15.2699 7.14994 15.8599 7.99994 15.4999C8.84994 15.1399 12.5999 12.7899 14.2699 10.8599C15.4299 9.58994 15.9799 8.29994 15.9799 6.86994C15.9899 5.33994 15.3299 3.93994 14.2299 2.82994ZM10.3899 8.77994C10.3899 8.86994 10.3199 8.92994 10.2299 8.92994H9.66994C9.65994 8.92994 9.63994 8.92994 9.62994 8.91994L9.60994 8.92994H9.58994C9.58994 8.92994 9.57994 8.92994 9.57994 8.91994C9.56994 8.89994 9.54994 8.87994 9.53994 8.86994L8.96994 8.08994L10.3899 6.66994V8.77994ZM13.4799 5.85994C13.4799 5.94994 13.4099 6.01994 13.3199 6.01994H11.7999V6.60994H13.3199C13.4099 6.60994 13.4799 6.67994 13.4799 6.76994V7.32994C13.4799 7.41994 13.4099 7.47994 13.3199 7.47994H11.7999V8.06994H13.3199C13.4099 8.06994 13.4799 8.13994 13.4799 8.22994V8.78994C13.4799 8.87994 13.4099 8.94994 13.3199 8.94994H11.0799C11.0399 8.94994 10.9999 8.92994 10.9699 8.90994C10.9399 8.87994 10.9299 8.83994 10.9299 8.79994V6.12994L11.9099 5.14994H13.3199C13.4099 5.14994 13.4799 5.21994 13.4799 5.30994V5.85994Z"/><path d="M2.18994 11.3199L4.57994 8.92994H2.78994C2.74994 8.92994 2.70994 8.90994 2.67994 8.88994C2.64994 8.85994 2.62994 8.81994 2.62994 8.77994V5.29994C2.62994 5.20994 2.69994 5.13994 2.78994 5.13994H3.34994C3.43994 5.13994 3.50994 5.20994 3.50994 5.29994V8.05994H5.02994C5.11994 8.05994 5.18994 8.12994 5.18994 8.21994V8.32994L5.66994 7.84994V5.29994C5.66994 5.20994 5.73994 5.13994 5.82994 5.13994H6.38994C6.47994 5.13994 6.54994 5.20994 6.54994 5.29994V6.97994L7.08994 6.43994V5.29994C7.08994 5.20994 7.15994 5.13994 7.24994 5.13994H7.80994C7.80994 5.13994 7.80994 5.13994 7.81994 5.13994H7.87994C7.87994 5.13994 7.87994 5.13994 7.88994 5.13994C7.89994 5.13994 7.89994 5.13994 7.89994 5.13994C7.89994 5.13994 7.89994 5.13994 7.90994 5.13994L7.92994 5.15994L7.89994 5.18994L7.90994 5.19994C7.90994 5.20994 7.91994 5.20994 7.91994 5.21994L8.07994 5.43994L12.1599 1.35994C10.9499 0.749941 9.52994 0.389941 7.99994 0.389941C3.59994 0.389941 0.00994139 3.29994 0.00994139 6.86994C0.00994139 8.58994 0.839941 10.1599 2.18994 11.3199Z"/></g><defs><clipPath><rect/></clipPath></defs></svg>