<svg viewBox="0 0 16 16" xmlns="http://www.w3.org/2000/svg"><g clip-path="url(#clip0)"><path d="M11.91 15.9801C11.36 15.9801 10.81 15.8601 10.29 15.6101C8.16001 14.5801 6.22001 13.1901 4.51001 11.4801C2.80001 9.77009 1.41001 7.82009 0.380006 5.69009C-0.389994 4.10009 0.0800061 2.14009 1.50001 1.03009L2.20001 0.490086C3.14001 -0.239914 4.49001 -0.179914 5.33001 0.650086C5.86001 1.17009 6.35001 1.74009 6.80001 2.34009C7.34001 3.07009 7.41001 4.02009 6.98001 4.93009L6.56001 5.83009C6.34001 6.30009 6.42001 6.86009 6.77001 7.25009C7.08001 7.59009 7.39001 7.93009 7.73001 8.27009C8.05001 8.60009 8.39001 8.92009 8.74001 9.22009C9.13001 9.56009 9.68001 9.64009 10.16 9.42009L11.2 8.93009C12 8.56009 12.93 8.65009 13.64 9.18009C14.24 9.62009 14.81 10.1201 15.34 10.6501C16.19 11.5201 16.22 12.8501 15.41 13.8901L14.95 14.4801C14.2 15.4501 13.07 15.9801 11.91 15.9801ZM3.68001 1.48009C3.48001 1.48009 3.29001 1.54009 3.12001 1.67009L2.42001 2.21009C1.55001 2.89009 1.26001 4.08009 1.73001 5.04009C2.69001 7.02009 3.98001 8.83009 5.57001 10.4201C7.16001 12.0101 8.97001 13.3001 10.95 14.2601C11.91 14.7301 13.1 14.4401 13.77 13.5701L14.23 12.9801C14.57 12.5401 14.59 12.0301 14.27 11.7101C13.8 11.2301 13.29 10.7901 12.75 10.3901C12.48 10.1901 12.13 10.1601 11.83 10.3001L10.79 10.7901C9.77001 11.2601 8.58001 11.0901 7.74001 10.3501C7.37001 10.0201 7.01001 9.68009 6.66001 9.33009C6.31001 8.97009 5.97001 8.61009 5.64001 8.24009C4.90001 7.41009 4.73001 6.21008 5.20001 5.20009L5.62001 4.30009C5.75001 4.01009 5.86001 3.59009 5.59001 3.24009C5.19001 2.70009 4.75001 2.19009 4.27001 1.73009C4.11001 1.56009 3.90001 1.48009 3.68001 1.48009Z"/></g><defs><clipPath><rect/></clipPath></defs></svg>