<svg viewBox="0 0 16 16" xmlns="http://www.w3.org/2000/svg"><g clip-path="url(#clip0)"><path d="M0.75 12.4599C1.16 12.4599 1.5 12.1199 1.5 11.7099V5.63994L4.48 8.07994C4.62 8.18994 4.79 8.24994 4.95 8.24994C5.17 8.24994 5.38 8.15994 5.53 7.96994C5.8 7.64994 5.76 7.17994 5.44 6.91994L1.71 3.86994C1.58 3.75994 1.5 3.59994 1.5 3.42994V2.99994C1.5 2.71994 1.72 2.49994 2 2.49994H10.71C11.12 2.49994 11.46 2.15994 11.46 1.74994C11.46 1.33994 11.13 0.999941 10.71 0.999941H2C0.9 0.999941 0 1.89994 0 2.99994V11.7099C0 12.1199 0.34 12.4599 0.75 12.4599Z"/><path d="M15.78 1.27994C16.07 0.989941 16.07 0.509941 15.78 0.219941C15.49 -0.0700586 15.01 -0.0700586 14.72 0.219941L0.22 14.7199C-0.07 15.0099 -0.07 15.4899 0.22 15.7799C0.37 15.9199 0.56 15.9999 0.75 15.9999C0.94 15.9999 1.13 15.9299 1.28 15.7799L2.06 14.9999H13.99C15.09 14.9999 15.99 14.0999 15.99 12.9999V7.28994C15.99 6.87994 15.65 6.53994 15.24 6.53994C14.83 6.53994 14.49 6.87994 14.49 7.28994V12.9999C14.49 13.2799 14.27 13.4999 13.99 13.4999H3.56L7.18 9.87994C7.45 9.95994 7.73 9.99994 8 9.99994C8.73 9.99994 9.46 9.74994 10.05 9.25994L15.23 5.01994C15.71 4.62994 15.99 4.03994 15.99 3.41994V2.99994C15.99 2.46994 15.78 1.98994 15.43 1.61994L15.78 1.27994ZM14.49 2.99994V3.42994C14.49 3.59994 14.41 3.75994 14.28 3.86994L9.11 8.10994C8.99 8.20994 8.86 8.28994 8.72 8.34994L14.38 2.68994C14.45 2.76994 14.49 2.87994 14.49 2.99994Z"/></g><defs><clipPath><rect/></clipPath></defs></svg>