<svg viewBox="0 0 16 16" xmlns="http://www.w3.org/2000/svg"><g clip-path="url(#clip0)"><path fill-rule="evenodd" clip-rule="evenodd" d="M9.87985 0.219959C5.58985 -0.820041 1.25985 1.82996 0.229847 6.11996C-0.810153 10.42 1.83985 14.74 6.12985 15.77C10.4298 16.81 14.7498 14.16 15.7798 9.86996C16.8098 5.57996 14.1698 1.25996 9.87985 0.219959ZM4.56985 12.76C3.84985 12.76 3.26985 12.19 3.26985 11.47C3.26985 10.75 3.83985 10.17 4.55985 10.17C5.26985 10.17 5.85985 10.75 5.85985 11.46C5.85985 12.18 5.28985 12.76 4.56985 12.76ZM9.41985 12.76C9.14985 12.75 8.88985 12.76 8.61985 12.76C8.36985 12.76 8.10985 12.75 7.85985 12.76C7.73985 12.76 7.70985 12.73 7.70985 12.61C7.62985 10.63 6.27985 8.95996 4.36985 8.45996C4.04985 8.37996 3.71985 8.32996 3.38985 8.31996C3.29985 8.31996 3.26985 8.29996 3.26985 8.20996C3.26985 7.66996 3.27985 7.13996 3.26985 6.59996C3.26985 6.47996 3.32985 6.48996 3.40985 6.48996C4.37985 6.50996 5.29985 6.73996 6.15985 7.19996C8.05985 8.22996 9.16985 9.81996 9.48985 11.96C9.51985 12.19 9.53985 12.41 9.53985 12.64C9.53985 12.73 9.50985 12.76 9.41985 12.76ZM12.5998 12.76C12.3298 12.75 12.0598 12.76 11.7898 12.76C11.5298 12.76 11.2698 12.75 11.0098 12.76C10.8898 12.76 10.8498 12.73 10.8498 12.6C10.8198 11.14 10.4098 9.78996 9.58985 8.57996C8.33985 6.73996 6.60985 5.63996 4.41985 5.26996C4.07985 5.20996 3.73985 5.18996 3.39985 5.18996C3.28985 5.18996 3.26985 5.14996 3.26985 5.04996C3.26985 4.50996 3.27985 3.96996 3.26985 3.42996C3.26985 3.31996 3.30985 3.29996 3.40985 3.29996C7.64985 3.36996 11.2798 6.21996 12.3998 10.25C12.6098 11.03 12.7198 11.82 12.7398 12.62C12.7398 12.73 12.7098 12.77 12.5998 12.76Z"/></g><defs><clipPath><rect/></clipPath></defs></svg>