<svg viewBox="0 0 16 16" xmlns="http://www.w3.org/2000/svg"><g clip-path="url(#clip0_33_62)"><path fill-rule="evenodd" clip-rule="evenodd" d="M12.0125 3.35506C11.541 4.6525 10.1085 5.32147 8.81296 4.84924C7.51742 4.37701 6.84943 2.9424 7.32097 1.64496C7.79251 0.347514 9.22501 -0.321454 10.5206 0.150777C11.8161 0.623009 12.4841 2.05761 12.0125 3.35506ZM10.6051 2.84203C10.4165 3.36101 9.84346 3.62859 9.32524 3.4397C8.80702 3.25081 8.53983 2.67697 8.72844 2.15799C8.91706 1.63901 9.49006 1.37142 10.0083 1.56032C10.5265 1.74921 10.7937 2.32305 10.6051 2.84203Z"/><path d="M14.0449 5.43203C14.3293 5.73282 14.3163 6.20751 14.016 6.4923L13.2909 7.17983C12.5356 7.89597 11.4411 8.12331 10.4638 7.76705L8.57404 7.07825L7.80653 9.19006L7.80563 9.19253L7.72025 9.42745L8.60025 9.74822C9.9271 10.2319 10.6714 11.6444 10.3213 13.0143L9.70231 15.436C9.59975 15.8373 9.19178 16.0793 8.79109 15.9766C8.3904 15.8739 8.14873 15.4653 8.25129 15.064L8.87026 12.6423C9.02941 12.0197 8.69109 11.3776 8.08797 11.1578L7.20753 10.8368C6.82451 11.8331 5.89885 12.5191 4.83226 12.5921L2.54996 12.7483C2.13732 12.7765 1.77994 12.4644 1.75174 12.0511C1.72354 11.6379 2.0352 11.28 2.44784 11.2517L4.73014 11.0955C5.22268 11.0618 5.64909 10.7406 5.81794 10.276L6.05578 9.62156L6.05664 9.61919L7.16656 6.56522L5.85674 6.08778C5.37714 5.91296 4.83958 6.04818 4.49939 6.42921L3.6085 7.42702C3.33281 7.7358 2.85938 7.76229 2.55105 7.4862C2.24272 7.21011 2.21626 6.73597 2.49195 6.42719L3.38284 5.42938C4.13127 4.59112 5.3139 4.29364 6.36902 4.67824L8.37662 5.41002L8.38259 5.41217L8.38854 5.41436L10.976 6.35751C11.4203 6.51945 11.9178 6.41612 12.2611 6.09059L12.9862 5.40306C13.2865 5.11828 13.7605 5.13125 14.0449 5.43203Z"/></g><defs><clipPath><rect/></clipPath></defs></svg>