<svg viewBox="0 0 16 16" xmlns="http://www.w3.org/2000/svg"><path d="M8 0C6.41775 0 4.87103 0.469192 3.55544 1.34824C2.23985 2.22729 1.21447 3.47672 0.608967 4.93853C0.00346625 6.40034 -0.15496 8.00887 0.153721 9.56072C0.462403 11.1126 1.22433 12.538 2.34315 13.6569C3.46197 14.7757 4.88743 15.5376 6.43928 15.8463C7.99113 16.155 9.59966 15.9965 11.0615 15.391C12.5233 14.7855 13.7727 13.7602 14.6518 12.4446C15.5308 11.129 16 9.58225 16 8C15.9967 5.87929 15.1528 3.84639 13.6532 2.34682C12.1536 0.847247 10.1207 0.00332471 8 0ZM3.08572 12.9451L3.056 12.9143L6.688 7.46743L8.53257 9.312L3.08572 12.9451ZM9.29714 8.55543L7.44457 6.704L12.9143 3.05486L12.9417 3.08343L9.29714 8.55543Z"/></svg>