<svg data-name="Layer 1" xmlns="http://www.w3.org/2000/svg" viewBox="0 0 32 32"><path d="M14.81 11H7.29a12.06 12.06 0 01-.58-2.88h7.53a12.07 12.07 0 00.57 2.88zm2.68 6.06H10c-.46-1-.94-1.92-1.39-2.88h7.53c.4.97.86 1.92 1.35 2.88zm7.61 6.04h-13a14.22 14.22 0 00-.76-2.88h13a14.23 14.23 0 01.76 2.88zm-5.39-15c.18 3 1.81 6 3.26 9h-2.88c-1.44-3-3.08-6-3.26-9z"/><path d="M25.38 9.74h1.44a4.17 4.17 0 100-8.34H7.28c-2.21 0-5.19 1.71-5.73 3.91-1 3.85.82 7.56 2.57 11.15a29.09 29.09 0 012.36 5.8H5.17a4.17 4.17 0 100 8.34h19.52a4.16 4.16 0 00.76-.08l.23-.06c2-.43 4.18-1.92 4.63-3.77 1-3.85-.82-7.56-2.57-11.15a29.68 29.68 0 01-2.36-5.8zm.92-6h.53a2 2 0 010 4h-1.62A7.56 7.56 0 0126.3 3.7zM5.17 28.52a2.09 2.09 0 110-4.17h16.36a3.87 3.87 0 00.1 4.17zm23.26-3.9a4.19 4.19 0 00-.23-.42l-.12-.2a4.19 4.19 0 00-.38-.47 4.14 4.14 0 00-3-1.29H8.62A28.68 28.68 0 006 15.54c-1.66-3.4-3.23-6.61-2.43-9.72a1.85 1.85 0 01.37-.68h19.42c-1.1 3.92.8 7.8 2.52 11.32 1.41 2.88 2.74 5.62 2.62 8.29z"/></svg>