<svg viewBox="0 0 16 16" xmlns="http://www.w3.org/2000/svg"><g clip-path="url(#clip0)"><path d="M2.73012 0C1.22012 0 0.000117188 1.22 0.000117188 2.73C0.000117188 3.08 0.0701172 3.42 0.200117 3.75L2.57012 9.6C2.69012 9.89 2.97012 10.07 3.27012 10.07C3.36012 10.07 3.46012 10.05 3.55012 10.02C3.93012 9.86 4.12012 9.43 3.96012 9.04L1.59012 3.19C1.53012 3.04 1.50012 2.88 1.50012 2.73C1.50012 2.05 2.05012 1.5 2.73012 1.5H10.8501C10.6601 1.88 10.5501 2.29 10.5501 2.73C10.5501 3.08 10.6201 3.42 10.7401 3.75C10.8001 3.9 11.7801 6.32 12.7101 8.63C13.5501 10.72 14.3601 12.71 14.4101 12.83C14.4901 13.04 14.5201 13.26 14.4801 13.49C14.4001 13.99 13.9901 14.41 13.5001 14.49C13.1301 14.56 12.7701 14.46 12.4801 14.22C12.2001 13.99 12.0401 13.64 12.0401 13.28C12.0401 13.18 12.0501 13.07 12.0801 12.98C12.1901 12.54 12.1001 12.09 11.8301 11.74C11.5701 11.41 11.1801 11.21 10.7501 11.21H1.57012C1.08012 11.21 0.620117 11.47 0.370117 11.89C0.0701172 12.39 -0.0498828 12.97 0.0101172 13.56C0.160117 14.93 1.39012 16 2.83012 16H13.2401C13.2501 16 13.2601 16 13.2701 16C13.4301 16 13.6001 15.99 13.7701 15.96C14.8901 15.76 15.8001 14.84 15.9701 13.71C16.0501 13.22 15.9901 12.72 15.8101 12.26C15.7601 12.14 14.9601 10.15 14.1101 8.06C13.6501 6.93 13.1901 5.78 12.8201 4.88H14.3501C14.8401 4.88 15.2901 4.64 15.5601 4.23C15.9501 3.64 16.1001 2.91 15.9601 2.2C15.7501 1.11 14.8801 0.24 13.7801 0.04C13.6301 0.02 13.4901 0 13.3501 0H2.73012ZM12.2101 3.37C12.1701 3.27 12.1401 3.2 12.1301 3.18C12.0701 3.03 12.0401 2.88 12.0401 2.72C12.0401 2.36 12.2001 2.01 12.4801 1.78C12.7601 1.54 13.1301 1.45 13.5001 1.52C13.9801 1.61 14.3801 2 14.4701 2.48C14.5301 2.81 14.4701 3.13 14.3401 3.38L12.2101 3.37ZM2.83012 14.5C2.15012 14.5 1.58012 14.02 1.51012 13.4C1.48012 13.15 1.53012 12.91 1.64012 12.7H10.6101C10.5701 12.89 10.5501 13.08 10.5501 13.27C10.5501 13.7 10.6501 14.12 10.8401 14.5H2.83012Z"/><path d="M5.85012 9.32C5.85012 9.73 6.19012 10.07 6.60012 10.07H10.5501C10.9601 10.07 11.3001 9.73 11.3001 9.32C11.3001 8.91 10.9601 8.57 10.5501 8.57H6.60012C6.19012 8.57 5.85012 8.9 5.85012 9.32Z"/><path d="M9.49012 5.91H5.54012C5.13012 5.91 4.79012 6.25 4.79012 6.66C4.79012 7.07 5.13012 7.41 5.54012 7.41H9.49012C9.90012 7.41 10.2401 7.07 10.2401 6.66C10.2401 6.25 9.91012 5.91 9.49012 5.91Z"/><path d="M8.43012 3.25H4.47012C4.06012 3.25 3.72012 3.59 3.72012 4C3.72012 4.41 4.06012 4.75 4.47012 4.75H8.42012C8.83012 4.75 9.17012 4.41 9.17012 4C9.17012 3.59 8.84012 3.25 8.43012 3.25Z"/></g><defs><clipPath><rect/></clipPath></defs></svg>