<svg xmlns="http://www.w3.org/2000/svg" viewBox="0 0 16 16"><path d="M9 7.001H5v1h4v-1zm0-2H5v1h4v-1zm-4 5h6v-1H5v1zM10 8h1V5h-1v3zm3.5-7h-9C3.673 1 3 1.673 3 2.5V12H1v1.506C1 14.33 1.67 15 2.494 15l8.952-.001A1.502 1.502 0 0 0 13 13.5V3.908c.157.056.324.092.5.092.827 0 1.5-.673 1.5-1.5S14.327 1 13.5 1zM2.494 14A.495.495 0 0 1 2 13.506V13h8v.5c0 .175.03.343.085.499L2.494 14zM12 2.502V13.5c0 .275-.225.5-.5.5l-.031-.001A.501.501 0 0 1 11 13.5V12H4V2.5a.5.5 0 0 1 .5-.5h7.592a1.483 1.483 0 0 0-.092.5v.002zM13.5 3a.5.5 0 1 1 .002-1.002A.5.5 0 0 1 13.5 3z"/></svg>