<svg viewBox="0 0 16 16" xmlns="http://www.w3.org/2000/svg"><g clip-path="url(#clip0_335_107)"><path d="M14.6667 9.71429H13.3333V2.85714C13.3333 1.28179 12.3361 0 11.1111 0H2.22222C0.996944 0 0 1.28179 0 2.85714V4.57143C0 5.51821 0.596944 6.28571 1.33333 6.28571H2.22222V4.57143H1.33333V2.85714C1.33333 2.22786 1.73278 1.71429 2.22222 1.71429C2.71167 1.71429 3.11111 2.22786 3.11111 2.85714V13.1429C3.11111 14.7179 4.10833 16 5.33333 16H12.7389C14.5361 16 16 14.1179 16 11.8071V11.4286C16 10.4821 15.4028 9.71429 14.6667 9.71429ZM6.22222 10.8571V13.1429C6.22222 13.7721 5.82278 14.2857 5.33333 14.2857C4.84389 14.2857 4.44444 13.7721 4.44444 13.1429V2.85714C4.44444 2.45036 4.37575 2.065 4.25608 1.71429H11.1111C11.6 1.71429 12 2.22857 12 2.85714V9.71429H7.11111C6.61944 9.71429 6.22222 10.225 6.22222 10.8571ZM14.6667 11.8071C14.6667 13.175 13.8028 14.2857 12.7389 14.2857H7.36667C7.48611 13.9357 7.55556 13.55 7.55556 13.1429V11.4286H14.6667V11.8071Z"/></g><defs><clipPath><rect/></clipPath></defs></svg>