<svg viewBox="0 0 16 16" xmlns="http://www.w3.org/2000/svg"><path d="M6.63 13.25C2.97 13.25 0 10.28 0 6.63C0 2.98 2.97 0 6.63 0C10.28 0 13.25 2.97 13.25 6.62C13.25 10.27 10.28 13.25 6.63 13.25ZM6.63 1.5C3.8 1.5 1.5 3.8 1.5 6.63C1.5 9.46 3.8 11.75 6.62 11.75C9.44 11.75 11.74 9.45 11.74 6.63C11.74 3.81 9.45 1.5 6.63 1.5Z"/><path d="M15.25 16C15.06 16 14.87 15.93 14.72 15.78L12.02 13.08C11.73 12.79 11.73 12.31 12.02 12.02C12.31 11.73 12.79 11.73 13.08 12.02L15.78 14.72C16.07 15.01 16.07 15.49 15.78 15.78C15.63 15.93 15.44 16 15.25 16Z"/></svg>