<svg viewBox="0 0 16 16" xmlns="http://www.w3.org/2000/svg"><g clip-path="url(#clip0)"><path d="M15.78 0.22003C15.57 2.9698e-05 15.24 -0.0599703 14.96 0.0600297L3.23002 5.04003C2.85002 5.20003 2.67002 5.64003 2.83002 6.02003C2.99002 6.40003 3.43002 6.58003 3.81002 6.42003L12 2.95003L6.15002 8.79003L1.09002 6.23003C0.720022 6.04003 0.270022 6.19003 0.080022 6.56003C-0.099978 6.93003 0.040022 7.38003 0.410022 7.57003L5.73002 10.26L8.42002 15.58C8.56002 15.84 8.82002 16 9.10002 16C9.11002 16 9.12002 16 9.13002 16C9.42002 15.99 9.68002 15.81 9.80002 15.54L15.95 1.04003C16.06 0.76003 16 0.43003 15.78 0.22003ZM9.04002 13.47L7.21002 9.85003L13.06 4.00003L9.04002 13.47Z"/></g><defs><clipPath><rect/></clipPath></defs></svg>