<svg viewBox="0 0 16 16" xmlns="http://www.w3.org/2000/svg"><path d="M15.25 0H0.75C0.34 0 0 0.33 0 0.75V11.5C0 11.91 0.34 12.25 0.75 12.25H15.25C15.66 12.25 16 11.91 16 11.5V0.75C16 0.33 15.66 0 15.25 0ZM14.5 1.5V5.37H1.5V1.5H14.5ZM1.5 10.75V6.87H14.5V10.75H1.5Z"/><path d="M15.25 14.5H8.75V14C8.75 13.59 8.41 13.25 8 13.25C7.59 13.25 7.25 13.59 7.25 14V14.5H0.75C0.34 14.5 0 14.83 0 15.25C0 15.67 0.34 16 0.75 16H15.25C15.66 16 16 15.66 16 15.25C16 14.84 15.66 14.5 15.25 14.5Z"/><path d="M12 9.81C12.5523 9.81 13 9.36229 13 8.81C13 8.25772 12.5523 7.81 12 7.81C11.4477 7.81 11 8.25772 11 8.81C11 9.36229 11.4477 9.81 12 9.81Z"/><path d="M12 4.43C12.5523 4.43 13 3.98228 13 3.43C13 2.87772 12.5523 2.43 12 2.43C11.4477 2.43 11 2.87772 11 3.43C11 3.98228 11.4477 4.43 12 4.43Z"/></svg>