<svg viewBox="0 0 16 16" xmlns="http://www.w3.org/2000/svg"><path d="M14 0H2C0.895313 0 0 1.02321 0 2.28571V4.57143C0 5.83393 0.895313 6.85714 2 6.85714H14C15.1047 6.85714 16 5.83393 16 4.57143V2.28571C16 1.02321 15.1031 0 14 0ZM14.5 4.57143C14.5 4.8865 14.2757 5.14286 14 5.14286H2C1.72438 5.14286 1.5 4.88571 1.5 4.57143V2.28571C1.5 1.97064 1.72431 1.71429 2 1.71429H14C14.2757 1.71429 14.5 1.97064 14.5 2.28571V4.57143ZM14 9.14286H2C0.895313 9.14286 0 10.1661 0 11.4286V13.7143C0 14.9768 0.895313 16 2 16H14C15.1047 16 16 14.9768 16 13.7143V11.4286C16 10.1679 15.1031 9.14286 14 9.14286ZM14.5 13.7143C14.5 14.0294 14.2757 14.2857 14 14.2857H2C1.72431 14.2857 1.5 14.0294 1.5 13.7143V11.4286C1.5 11.1135 1.72431 10.8571 2 10.8571H14C14.2757 10.8571 14.5 11.1135 14.5 11.4286V13.7143ZM11 2.57143C10.5859 2.57143 10.25 2.955 10.25 3.42857C10.25 3.90179 10.5859 4.28571 11 4.28571C11.4141 4.28571 11.75 3.90357 11.75 3.42857C11.75 2.95357 11.4156 2.57143 11 2.57143ZM13 2.57143C12.5859 2.57143 12.25 2.955 12.25 3.42857C12.25 3.90179 12.5859 4.28571 13 4.28571C13.4141 4.28571 13.75 3.90357 13.75 3.42857C13.75 2.95357 13.4156 2.57143 13 2.57143ZM11 11.7143C10.5859 11.7143 10.25 12.0979 10.25 12.5714C10.25 13.0446 10.5859 13.4286 11 13.4286C11.4141 13.4286 11.75 13.0446 11.75 12.5714C11.75 12.0964 11.4156 11.7143 11 11.7143ZM13 11.7143C12.5859 11.7143 12.25 12.0979 12.25 12.5714C12.25 13.0446 12.5859 13.4286 13 13.4286C13.4141 13.4286 13.75 13.0446 13.75 12.5714C13.75 12.0964 13.4156 11.7143 13 11.7143Z"/></svg>