<svg xmlns="http://www.w3.org/2000/svg" viewBox="0 0 16 16"><path d="M13.951 9.713l-1.046-.945a.022.022 0 01-.004-.005l-.004-.006-.025-.029c.036-.238.058-.48.058-.728 0-.247-.022-.489-.059-.727l.025-.029.005-.006.004-.005 1.046-.945c.496-.427.636-.893.356-1.369L13.768 4c-.279-.477-.754-.581-1.368-.356l-1.327.448a4.857 4.857 0 00-1.263-.749L9.533 2c-.118-.644-.448-1-1-1H7.467c-.552 0-.882.356-1 1l-.278 1.342c-.46.186-.884.438-1.263.749L3.6 3.643c-.614-.225-1.089-.12-1.368.356l-.54.919c-.279.477-.139.942.357 1.369l1.046.945a.022.022 0 01.004.005l.005.007v-.001l.025.029c-.037.238-.059.48-.059.728s.022.49.059.728l-.025.029-.005.006-.004.005-1.046.945c-.495.427-.636.893-.356 1.369l.539.919c.279.477.754.581 1.369.356l1.328-.448c.378.31.802.562 1.261.748L6.467 14c.118.644.448 1 1 1h1.066c.552 0 .882-.356 1-1l.278-1.343a4.887 4.887 0 001.261-.748l1.328.448c.614.225 1.089.12 1.369-.356l.539-.919c.279-.477.138-.942-.357-1.369zM8 10.877a2.877 2.877 0 110-5.754 2.877 2.877 0 010 5.754z"/></svg>