<svg viewBox="0 0 16 16" xmlns="http://www.w3.org/2000/svg"><path d="M4.57838 8C4.57838 6.31562 5.85753 5 7.4952 5C9.10554 5 10.412 6.31562 10.412 8C10.412 9.65625 9.10554 11 7.4952 11C5.85753 11 4.57838 9.65625 4.57838 8ZM7.4952 6.5C6.69004 6.5 6.03679 7.17188 6.03679 8C6.03679 8.82812 6.69004 9.5 7.4952 9.5C8.30037 9.5 8.95362 8.82812 8.95362 8C8.95362 7.17188 8.30037 6.5 7.4952 6.5ZM8.62244 9.375e-06C9.29695 9.375e-06 9.88336 0.474688 10.0414 1.14813L10.2783 2.16281C10.5366 2.2925 10.7827 2.43969 11.0167 2.6025L11.992 2.30719C12.6391 2.11125 13.3319 2.39594 13.6692 2.99594L14.7964 5.00313C15.1306 5.60313 15.0243 6.3625 14.5381 6.84062L13.7998 7.53438C13.8089 7.70625 13.815 7.85313 13.815 8C13.815 8.14687 13.8089 8.29375 13.7998 8.4375L14.5381 9.15938C15.0243 9.6375 15.1306 10.3969 14.7964 10.9969L13.6692 13.0031C13.3319 13.6031 12.6391 13.8875 11.992 13.6938L11.0167 13.3969C10.7827 13.5594 10.5366 13.7062 10.2783 13.8375L10.0414 14.8531C9.88336 15.525 9.29695 16 8.62244 16H6.36797C5.69346 16 5.10705 15.525 4.94906 14.8531L4.71207 13.8375C4.45381 13.7062 4.2077 13.5594 3.97374 13.3969L2.97108 13.6938C2.35217 13.8875 1.65973 13.6031 1.32277 13.0031L0.195542 10.9969C-0.141412 10.3969 -0.0348266 9.6375 0.453195 9.15938L1.18969 8.4375C1.18027 8.29375 1.17541 8.14688 1.17541 7.97188C1.17541 7.85313 1.18027 7.70625 1.18969 7.53438L0.453195 6.84062C-0.034857 6.3625 -0.141412 5.60313 0.195542 5.00313L1.32277 2.99594C1.65973 2.39594 2.35217 2.11125 2.97108 2.30719L3.97374 2.6025C4.2077 2.43969 4.45381 2.2925 4.71207 2.16281L4.94906 1.14813C5.10705 0.474375 5.69346 0 6.36797 0L8.62244 9.375e-06ZM5.96083 3.2375L5.62054 3.38438C5.23466 3.55 4.87614 3.76562 4.55103 4.02187L4.25631 4.25313L2.58582 3.74688L1.45828 5.75313L2.7192 6.9875L2.67272 7.3625C2.6472 7.57188 2.63383 7.78437 2.63383 8C2.63383 8.21563 2.6472 8.42812 2.67272 8.6375L2.7192 9.0125L1.45859 10.2469L2.58582 12.2531L4.25631 11.7469L4.55103 11.9781C4.87614 12.2344 5.23466 12.45 5.62054 12.6156L5.96083 12.7625L6.36797 14.5H8.62244L9.02958 12.7625L9.36987 12.6156C9.75575 12.45 10.1143 12.2344 10.4394 11.9781L10.7341 11.7469L12.4052 12.2531L13.5324 10.2469L12.2715 9.0125L12.3171 8.6375C12.3444 8.42812 12.3566 8.21563 12.3566 8C12.3566 7.78437 12.3444 7.57188 12.3171 7.3625L12.2715 6.9875L13.5324 5.75313L12.4052 3.74688L10.7341 4.25313L10.4394 4.02187C10.1143 3.76562 9.75575 3.55 9.36987 3.38438L9.02958 3.2375L8.62244 1.5H6.36797L5.96083 3.2375Z"/></svg>