<svg viewBox="0 0 16 16" xmlns="http://www.w3.org/2000/svg"><path d="M8.00006 11.25C6.21006 11.25 4.75006 9.79 4.75006 8C4.75006 7.7 4.79006 7.4 4.87006 7.11C4.98006 6.71 5.40006 6.48 5.80006 6.59C6.20006 6.7 6.43006 7.12 6.32006 7.52C6.27006 7.67 6.25006 7.83 6.25006 8C6.25006 8.96 7.04006 9.75 8.00006 9.75C8.96006 9.75 9.75006 8.96 9.75006 8C9.75006 7.04 8.96006 6.25 8.00006 6.25C7.84006 6.25 7.68006 6.27 7.52006 6.32C7.12006 6.43 6.71006 6.2 6.59006 5.8C6.47006 5.4 6.71006 4.99 7.11006 4.87C7.40006 4.79 7.70006 4.75 8.00006 4.75C9.79006 4.75 11.2501 6.21 11.2501 8C11.2501 9.79 9.79006 11.25 8.00006 11.25Z"/><path d="M8.66006 16H7.60006C6.61006 16 5.77006 15.29 5.56006 14.29L5.47006 13.83C5.44006 13.67 5.33006 13.53 5.18006 13.45C4.99006 13.35 4.80006 13.24 4.62006 13.12C4.58006 13.09 4.47006 13.03 4.37006 13.06L3.47006 13.36C2.69006 13.62 1.82006 13.29 1.40006 12.57L0.740063 11.43C0.330063 10.72 0.480063 9.8 1.10006 9.25L1.69006 8.73C1.82006 8.62 1.88006 8.46 1.88006 8.29C1.88006 8.2 1.87006 8.1 1.87006 8C1.87006 7.91 1.87006 7.82 1.88006 7.72C1.89006 7.55 1.82006 7.39 1.69006 7.28L1.09006 6.75C0.480063 6.21 0.330063 5.29 0.740063 4.57L1.27006 3.65C1.77006 2.79 2.80006 2.42 3.77006 2.74L4.21006 2.89C4.37006 2.94 4.54006 2.92 4.68006 2.83C4.87006 2.71 5.06006 2.6 5.25006 2.51C5.30006 2.49 5.40006 2.42 5.43006 2.32L5.63006 1.4C5.79006 0.59 6.51006 0 7.34006 0H8.40006C9.39006 0 10.2301 0.71 10.4401 1.71L10.5301 2.17C10.5601 2.33 10.6701 2.47 10.8201 2.55C11.0201 2.65 11.2001 2.76 11.3801 2.88C11.4201 2.91 11.5401 2.97 11.6301 2.94L12.5301 2.64C13.3201 2.38 14.1801 2.71 14.6001 3.43L15.2601 4.57C15.6701 5.28 15.5301 6.2 14.9101 6.75L14.3201 7.28C14.1901 7.39 14.1301 7.55 14.1301 7.72C14.1301 7.81 14.1401 7.9 14.1401 8C14.1401 8.09 14.1401 8.18 14.1301 8.28C14.1201 8.45 14.1901 8.61 14.3201 8.73L14.9101 9.26C15.5301 9.81 15.6801 10.73 15.2601 11.44L14.6001 12.58C14.1901 13.29 13.3201 13.63 12.5401 13.37L11.6401 13.07C11.5401 13.04 11.4301 13.1 11.3901 13.13C11.1801 13.27 10.9701 13.39 10.7501 13.5C10.7101 13.52 10.6001 13.59 10.5801 13.69L10.3901 14.62C10.2101 15.41 9.49006 16 8.66006 16ZM4.43006 11.55C4.78006 11.55 5.13006 11.66 5.45006 11.87C5.58006 11.96 5.73006 12.04 5.87006 12.12C6.42006 12.41 6.81006 12.92 6.94006 13.53L7.03006 13.99C7.10006 14.3 7.32006 14.5 7.60006 14.5H8.66006C8.78006 14.5 8.88006 14.42 8.91006 14.3L9.10006 13.37C9.21006 12.84 9.56006 12.4 10.0701 12.14C10.2401 12.06 10.4001 11.96 10.5601 11.86C11.0401 11.54 11.6001 11.46 12.1101 11.63L13.0101 11.93C13.1201 11.97 13.2501 11.92 13.3101 11.82L13.9701 10.68C14.0301 10.58 14.0101 10.45 13.9201 10.37L13.3301 9.84C12.8601 9.42 12.6101 8.83 12.6401 8.21V8C12.6401 7.93 12.6401 7.86 12.6401 7.79C12.6101 7.17 12.8601 6.57 13.3301 6.16L13.9201 5.63C14.0101 5.55 14.0301 5.42 13.9701 5.32L13.3001 4.18C13.2401 4.08 13.1201 4.03 13.0001 4.07L12.1001 4.37C11.5901 4.54 11.0201 4.45 10.5501 4.14C10.4101 4.05 10.2701 3.97 10.1201 3.89C9.58006 3.6 9.19006 3.08 9.06006 2.47L8.97006 2.02C8.90006 1.7 8.68006 1.5 8.40006 1.5H7.34006C7.22006 1.5 7.12006 1.58 7.09006 1.7L6.90006 2.62C6.80006 3.15 6.44006 3.6 5.93006 3.85C5.78006 3.92 5.64006 4.01 5.50006 4.1C4.98006 4.43 4.34006 4.51 3.74006 4.32L3.30006 4.17C3.00006 4.07 2.71006 4.16 2.57006 4.41L2.04006 5.32C1.98006 5.42 2.00006 5.56 2.09006 5.63L2.68006 6.16C3.15006 6.57 3.40006 7.17 3.37006 7.79V8C3.37006 8.07 3.37006 8.14 3.37006 8.22C3.40006 8.83 3.15006 9.43 2.68006 9.84L2.09006 10.36C2.00006 10.45 1.98006 10.58 2.04006 10.68L2.70006 11.82C2.76006 11.92 2.88006 11.97 3.00006 11.93L3.90006 11.63C4.07006 11.58 4.25006 11.55 4.43006 11.55Z"/></svg>