<svg viewBox="0 0 16 16" xmlns="http://www.w3.org/2000/svg"><g clip-path="url(#clip0)"><path d="M12.94 9.87999C12.02 9.87999 11.2 10.3 10.64 10.95L6.04 8.64999C6.09 8.43999 6.11 8.21999 6.11 7.99999C6.11 6.30999 4.74 4.93999 3.05 4.93999C1.37 4.94999 0 6.31999 0 7.99999C0 9.67999 1.37 11.06 3.06 11.06C3.98 11.06 4.8 10.64 5.36 9.98999L9.96 12.29C9.91 12.5 9.89 12.72 9.89 12.94C9.89 14.63 11.26 16 12.95 16C14.64 16 16 14.62 16 12.94C16 11.26 14.62 9.87999 12.94 9.87999ZM3.06 9.55999C2.2 9.55999 1.5 8.85999 1.5 7.99999C1.5 7.13999 2.2 6.43999 3.06 6.43999C3.92 6.43999 4.62 7.13999 4.62 7.99999C4.61 8.85999 3.92 9.55999 3.06 9.55999ZM12.94 14.49C12.08 14.49 11.38 13.79 11.38 12.93C11.38 12.07 12.08 11.37 12.94 11.37C13.8 11.37 14.5 12.07 14.5 12.93C14.5 13.79 13.8 14.49 12.94 14.49Z"/><path d="M7.18 6.68999C7.29 6.68999 7.41 6.65999 7.51 6.60999L10.64 5.04999C11.2 5.68999 12.02 6.10999 12.94 6.10999C14.62 6.09999 16 4.72999 16 3.04999C16 1.35999 14.63 -0.0100098 12.94 -0.0100098C11.25 -0.0100098 9.88 1.35999 9.88 3.04999C9.88 3.27999 9.91 3.49999 9.96 3.70999L6.85 5.25999C6.48 5.44999 6.33 5.89999 6.51 6.26999C6.64 6.52999 6.91 6.68999 7.18 6.68999ZM12.94 1.48999C13.8 1.48999 14.5 2.18999 14.5 3.04999C14.5 3.90999 13.8 4.60999 12.94 4.60999C12.08 4.60999 11.38 3.90999 11.38 3.04999C11.38 2.18999 12.08 1.48999 12.94 1.48999Z"/></g><defs><clipPath><rect/></clipPath></defs></svg>