<svg xmlns="http://www.w3.org/2000/svg" xmlns:xlink="http://www.w3.org/1999/xlink" x="0px" y="0px" viewBox="0 0 14 16" xml:space="preserve"><path d="M7,1.7C7,1.7,7.1,1.7,7,1.7C7.9,2.5,8.9,3,10,3.3c0.7,0.2,1.4,0.3,2.1,0.4c0.1,0,0.1,0.1,0.1,0.1
		c0,1.4,0.1,2.6-0.1,3.8c-0.1,0.9-0.2,1.7-0.5,2.3c-0.5,1.4-1.3,2.6-2.5,3.4c-0.7,0.5-1.4,0.8-2.2,1.1c-0.8-0.3-1.4-0.6-2.1-1
		c-1-0.6-1.7-1.4-2.2-2.4c-0.5-1-0.8-2.2-1-3.7c-0.1-1.1-0.1-2.2,0-3.5c0,0,0,0,0-0.1c0,0,0.1-0.1,0.3-0.1C3.8,3.5,5.4,3,6.6,2
		C6.8,1.9,6.9,1.8,7,1.7 M7,0C6.8,0,6.6,0.1,6.4,0.2C6.2,0.4,5.9,0.6,5.7,0.8C4.6,1.7,3.3,2.1,1.9,2.2c-0.6,0-1.1,0.2-1.4,0.7
		C0.3,3.1,0.2,3.5,0.2,3.8c0,1.2-0.1,2.4,0,3.7c0.1,1.5,0.4,3,1.1,4.3C2,13,3,14,4.1,14.7c0.8,0.5,1.6,0.9,2.5,1.2
		c0.1,0,0.2,0.1,0.3,0.1c0.1,0,0.2,0,0.3,0c1-0.3,2-0.8,2.9-1.4c1.5-1,2.5-2.4,3.1-4.2c0.3-0.9,0.4-1.8,0.5-2.7
		c0.1-1.3,0.1-2.6,0.1-4c0-0.8-0.7-1.5-1.5-1.6c-0.6-0.1-1.3-0.1-1.9-0.3C9.5,1.6,8.8,1.2,8.1,0.6C7.9,0.5,7.8,0.3,7.6,0.2
		C7.4,0.1,7.2,0,7,0L7,0z"/><path d="M10.3,5c-0.2,0-0.4,0.1-0.5,0.2l-4,4L4.2,7.7C4.1,7.5,3.9,7.5,3.7,7.5c-0.2,0-0.4,0.1-0.5,0.2
		C2.9,8,2.9,8.5,3.2,8.8l2,2.1C5.4,10.9,5.5,11,5.7,11c0.2,0,0.4-0.1,0.5-0.2l4.5-4.5c0.3-0.3,0.3-0.8,0-1.1C10.7,5.1,10.5,5,10.3,5
		L10.3,5z"/></svg>