<svg viewBox="0 0 18 16" xmlns="http://www.w3.org/2000/svg"><path d="M15.2887 2.61531L9.5527 0.115C9.40632 0.05175 9.15835 0 9.003 0C8.84467 0 8.5967 0.05175 8.45032 0.11525L2.71432 2.61556C2.17926 2.84625 1.83002 3.39375 1.83002 3.97187C1.83002 12.0375 7.48237 16 8.97313 16C10.5266 16 16.17 11.9938 16.17 3.97187C16.17 3.39375 15.8205 2.84625 15.2887 2.61531ZM9.003 1.50094C9.003 1.50062 9.00599 1.50094 9.003 1.50094V1.50094ZM8.97313 14.5C6.23658 13.2969 3.26581 9.49688 3.26581 4.00313C3.26581 4.00156 3.26581 4.00469 3.26581 4.00313L8.96596 1.51437C8.97588 1.5112 8.98813 1.50493 9.00405 1.50188L14.736 3.97187C14.736 10.3281 10.9837 13.6344 8.97313 14.5ZM7.32702 6.5C7.32702 7.19687 7.71928 7.79375 8.28302 8.07531V10.25C8.28302 10.6656 8.60567 11 9.00002 11C9.39437 11 9.71702 10.6641 9.71702 10.25V8.075C10.2808 7.7935 10.673 7.19656 10.673 6.49969C10.673 5.53313 9.92405 4.74969 9.00002 4.74969C8.07598 4.74969 7.32702 5.53438 7.32702 6.5Z"/></svg>