<svg viewBox="0 0 16 16" xmlns="http://www.w3.org/2000/svg"><path d="M14.4587 2.61575L8.72269 0.11572C8.54717 0.0375943 8.35941 0 8.17179 0C7.98418 0 7.79656 0.0373755 7.6203 0.115502L1.8846 2.61575C1.35043 2.84607 1 3.39358 1 3.97171C1 12.0437 6.65833 16 8.16701 16C9.63985 16 15.34 12.1031 15.34 3.97171C15.34 3.39358 14.9905 2.84607 14.4587 2.61575ZM8.17 14.5C5.25719 13.2312 2.434 9.29053 2.434 3.99984L8.17 1.4998L13.906 3.99984C13.906 9.43116 10.9663 13.2812 8.17 14.5ZM6.49999 7.71864C6.38646 7.57176 6.20124 7.47176 6.019 7.47176C5.60941 7.47176 5.302 7.82208 5.302 8.22177C5.302 8.44052 5.37071 8.63427 5.51113 8.75303L6.94513 10.253C7.07956 10.4218 7.26479 10.4718 7.453 10.4718C7.53053 10.4718 7.79537 10.4563 7.99732 10.2101L10.8653 6.71003C10.9813 6.56853 11.038 6.39471 11.038 6.2219C11.038 5.99049 10.8651 5.4722 10.3216 5.4722C10.1198 5.4722 9.91891 5.56067 9.77671 5.73352L7.41416 8.64678L6.49999 7.71864Z"/></svg>