<svg viewBox="0 0 15 17" xmlns="http://www.w3.org/2000/svg"><path fill-rule="evenodd" clip-rule="evenodd" d="M7.71096 0.444631C7.57981 0.316815 7.40297 0.246773 7.21987 0.250114C7.03677 0.253455 6.86261 0.329901 6.7362 0.462415C6.43733 0.775735 5.66326 1.32855 4.67102 1.79618C3.68261 2.262 2.58843 2.59006 1.65937 2.55605C1.36937 2.54543 1.10409 2.71851 0.996984 2.98822C-0.562701 6.9157 0.00711125 9.95943 1.5018 12.1718C2.96846 14.3426 5.2666 15.6279 7.04857 16.2155C7.19473 16.2637 7.35285 16.2613 7.4975 16.2088C11.5445 14.7381 13.4521 12.2257 14.1176 9.62656C14.7707 7.07596 14.206 4.53298 13.4928 2.95837C13.3817 2.71313 13.1374 2.55559 12.8682 2.55559C11.8463 2.55559 10.7627 2.23591 9.80938 1.79427C8.85342 1.3514 8.09137 0.815354 7.71096 0.444631ZM5.25567 3.03674C6.0295 2.67205 6.73319 2.23812 7.23802 1.84388C7.75657 2.24668 8.45163 2.67671 9.2329 3.03865C10.1685 3.47209 11.2764 3.83066 12.4056 3.91045C12.9408 5.28749 13.2964 7.30492 12.7891 9.28636C12.2556 11.3695 10.7476 13.5015 7.25394 14.836C5.70055 14.2804 3.82633 13.1626 2.63818 11.404C1.46967 9.67445 0.90967 7.24646 2.11005 3.92047C3.20108 3.85666 4.32134 3.47707 5.25567 3.03674ZM10.9591 6.55798C11.2293 6.29265 11.2333 5.85849 10.9679 5.58827C10.7026 5.31805 10.2684 5.31408 9.99822 5.57941L6.08548 9.4213L4.50547 7.66841C4.25191 7.38711 3.81832 7.36462 3.53702 7.61818C3.25572 7.87174 3.23323 8.30532 3.48679 8.58662L5.54594 10.8711C5.6711 11.0099 5.84753 11.0917 6.03438 11.0974C6.22124 11.1031 6.40231 11.0322 6.5357 10.9012L10.9591 6.55798Z"/></svg>