<svg viewBox="0 0 16 16" xmlns="http://www.w3.org/2000/svg"><path d="M14.2888 2.61575L8.55277 0.11572C8.37725 0.0375943 8.18949 0 8.00187 0C7.81426 0 7.62664 0.0373755 7.45038 0.115502L1.71468 2.61575C1.18051 2.84607 0.830078 3.39358 0.830078 3.97171C0.830078 12.0437 6.4884 16 7.99709 16C9.46993 16 15.1701 12.1031 15.1701 3.97171C15.1701 3.39358 14.8205 2.84607 14.2888 2.61575ZM8.00008 14.5C5.08727 13.2312 2.26408 9.29053 2.26408 3.99984L8.00008 1.4998L13.7361 3.99984C13.7361 9.43116 10.7964 13.2812 8.00008 14.5ZM6.33007 7.71864C6.21654 7.57176 6.03132 7.47176 5.84908 7.47176C5.43949 7.47176 5.13208 7.82208 5.13208 8.22177C5.13208 8.44052 5.20079 8.63427 5.3412 8.75303L6.7752 10.253C6.90964 10.4218 7.09487 10.4718 7.28308 10.4718C7.3606 10.4718 7.62545 10.4563 7.8274 10.2101L10.6954 6.71003C10.8113 6.56853 10.8681 6.39471 10.8681 6.2219C10.8681 5.99049 10.6951 5.4722 10.1517 5.4722C9.94987 5.4722 9.74899 5.56067 9.60679 5.73352L7.24424 8.64678L6.33007 7.71864Z"/></svg>