<svg viewBox="0 0 15 17" xmlns="http://www.w3.org/2000/svg"><path fill-rule="evenodd" clip-rule="evenodd" d="M7.89162 0.444631C7.76047 0.316815 7.58364 0.246773 7.40053 0.250114C7.21743 0.253455 7.04327 0.329901 6.91686 0.462415C6.61799 0.775735 5.84393 1.32855 4.85168 1.79618C3.86327 2.262 2.76909 2.59006 1.84003 2.55605C1.55004 2.54543 1.28475 2.71851 1.17765 2.98822C-0.382037 6.9157 0.187775 9.95943 1.68247 12.1718C3.14912 14.3426 5.44726 15.6279 7.22924 16.2155C7.37539 16.2637 7.53352 16.2613 7.67816 16.2088C11.7252 14.7381 13.6328 12.2257 14.2983 9.62656C14.9514 7.07596 14.3867 4.53298 13.6734 2.95837C13.5624 2.71313 13.3181 2.55559 13.0488 2.55559C12.027 2.55559 10.9434 2.23591 9.99005 1.79427C9.03409 1.3514 8.27203 0.815354 7.89162 0.444631ZM11.1486 5.58827C11.4139 5.85849 11.41 6.29265 11.1397 6.55798L6.71637 10.9012C6.58298 11.0322 6.4019 11.1031 6.21505 11.0974C6.02819 11.0917 5.85177 11.0099 5.72661 10.8711L3.66745 8.58662C3.4139 8.30532 3.43639 7.87174 3.71769 7.61818C3.99898 7.36462 4.43257 7.38711 4.68613 7.66841L6.26615 9.4213L10.1789 5.57941C10.4491 5.31408 10.8833 5.31805 11.1486 5.58827Z"/></svg>