<svg viewBox="0 0 16 16" xmlns="http://www.w3.org/2000/svg"><path d="M8.57032 0.0911233C8.44485 0.0314218 8.31041 0 8.17 0C8.02959 0 7.89515 0.0314218 7.76968 0.0911233L2.14422 2.60173C1.48698 2.89395 0.997026 3.5758 1.00001 4.39906C1.01495 7.5161 2.23385 13.2192 7.3813 15.8115C7.88021 16.0628 8.45979 16.0628 8.9587 15.8115C14.1062 13.2192 15.325 7.5161 15.34 4.39906C15.343 3.5758 14.853 2.89395 14.1958 2.60173L8.57032 0.0911233ZM11.5459 6.56716L7.72188 10.5892C7.44105 10.8845 6.98695 10.8845 6.70912 10.5892L4.79712 8.57816C4.51629 8.2828 4.51629 7.80518 4.79712 7.51296C5.07794 7.22074 5.53204 7.2176 5.80988 7.51296L7.214 8.98979L10.5301 5.49882C10.8109 5.20346 11.265 5.20346 11.5429 5.49882C11.8207 5.79419 11.8237 6.2718 11.5429 6.56402L11.5459 6.56716Z"/></svg>