<svg xmlns="http://www.w3.org/2000/svg" xmlns:xlink="http://www.w3.org/1999/xlink" x="0px" y="0px" viewBox="0 0 14 16" xml:space="preserve"><path d="M13.8,3.8c0-0.8-0.7-1.5-1.5-1.6c-0.6-0.1-1.3-0.1-1.9-0.3C9.5,1.6,8.8,1.2,8.1,0.6C7.9,0.5,7.8,0.3,7.6,0.2
		c-0.4-0.3-0.8-0.3-1.2,0C6.2,0.4,5.9,0.6,5.7,0.8C4.6,1.7,3.3,2.1,1.9,2.2c-0.6,0-1.1,0.2-1.4,0.7C0.3,3.1,0.2,3.5,0.2,3.8
		c0,1.2-0.1,2.4,0,3.7c0.1,1.5,0.4,3,1.1,4.3C2,13,3,14,4.1,14.7c0.8,0.5,1.6,0.9,2.5,1.2c0.1,0,0.2,0.1,0.3,0.1c0.1,0,0.2,0,0.3,0
		c1-0.3,2-0.8,2.9-1.4c1.5-1,2.5-2.4,3.1-4.2c0.3-0.9,0.4-1.8,0.5-2.7C13.8,6.4,13.8,5.1,13.8,3.8z M10.8,6.3l-4.5,4.5
		C6.1,10.9,5.9,11,5.7,11s-0.4-0.1-0.5-0.2l-2-2C2.9,8.5,2.9,8,3.2,7.7c0.3-0.3,0.8-0.3,1.1,0l1.5,1.5l4-4c0.3-0.3,0.8-0.3,1.1,0
		C11.1,5.5,11.1,6,10.8,6.3z"/></svg>