<svg viewBox="0 0 17 16" xmlns="http://www.w3.org/2000/svg"><path d="M15.1188 2.61531L9.38284 0.115C9.23646 0.05175 8.98849 0 8.83314 0C8.67481 0 8.42684 0.05175 8.28046 0.11525L2.54446 2.61556C2.00939 2.84625 1.66016 3.39375 1.66016 3.97187C1.66016 12.0375 7.31251 16 8.80327 16C10.3568 16 16.0002 11.9938 16.0002 3.97187C16.0002 3.39375 15.6506 2.84625 15.1188 2.61531ZM8.83314 1.50094C8.83314 1.50063 8.83613 1.50094 8.83314 1.50094V1.50094ZM8.80327 14.5C6.06672 13.2969 3.09595 9.49688 3.09595 4.00313C3.09595 4.00156 3.09595 4.00469 3.09595 4.00313L8.7961 1.51437C8.80602 1.5112 8.81827 1.50493 8.83419 1.50188L14.5662 3.97187C14.5662 10.3281 10.8139 13.6344 8.80327 14.5ZM7.15716 6.5C7.15716 7.19688 7.54942 7.79375 8.11316 8.07531V10.25C8.11316 10.6656 8.43581 11 8.83016 11C9.22451 11 9.54716 10.6641 9.54716 10.25V8.075C10.1109 7.7935 10.5032 7.19656 10.5032 6.49969C10.5032 5.53312 9.75419 4.74969 8.83016 4.74969C7.90612 4.74969 7.15716 5.53438 7.15716 6.5Z"/></svg>