<svg viewBox="0 0 16 16" xmlns="http://www.w3.org/2000/svg"><path fill-rule="evenodd" clip-rule="evenodd" d="M8.64162 0.194631C8.51047 0.066815 8.33364 -0.00322655 8.15053 0.000114255C7.96743 0.00345506 7.79327 0.0799007 7.66686 0.212415C7.36799 0.525735 6.59393 1.07855 5.60168 1.54618C4.61327 2.012 3.51909 2.34006 2.59003 2.30605C2.30004 2.29543 2.03475 2.46851 1.92765 2.73822C0.367963 6.6657 0.937775 9.70943 2.43247 11.9218C3.89912 14.0926 6.19726 15.3779 7.97924 15.9655C8.12539 16.0137 8.28352 16.0113 8.42816 15.9588C12.4752 14.4881 14.3828 11.9757 15.0483 9.37656C15.7014 6.82596 15.1367 4.28298 14.4234 2.70837C14.3124 2.46313 14.0681 2.30559 13.7988 2.30559C12.777 2.30559 11.6934 1.98591 10.74 1.54427C9.78409 1.1014 9.02203 0.565354 8.64162 0.194631ZM6.18633 2.78674C6.96016 2.42205 7.66386 1.98812 8.16868 1.59388C8.68723 1.99668 9.38229 2.42671 10.1636 2.78865C11.0992 3.22209 12.2071 3.58066 13.3363 3.66045C13.8715 5.03749 14.2271 7.05492 13.7197 9.03636C13.1863 11.1195 11.6782 13.2515 8.1846 14.586C6.63122 14.0304 4.75699 12.9126 3.56885 11.154C2.40033 9.42445 1.84033 6.99646 3.04071 3.67047C4.13175 3.60666 5.25201 3.22707 6.18633 2.78674Z"/><path fill-rule="evenodd" clip-rule="evenodd" d="M8.15 4C7.10066 4 6.25 4.85066 6.25 5.9V7.13501H5.9C5.40294 7.13501 5 7.53795 5 8.03501V10.535C5 11.0321 5.40294 11.435 5.9 11.435H10.4C10.8971 11.435 11.3 11.0321 11.3 10.535V8.03501C11.3 7.53795 10.8971 7.13501 10.4 7.13501H10.05V5.9C10.05 4.85066 9.19934 4 8.15 4ZM7.55 5.9C7.55 5.56863 7.81863 5.3 8.15 5.3C8.48137 5.3 8.75 5.56863 8.75 5.9V7.125H7.55V5.9ZM6.3 10.135V8.43501H10V10.135H6.3Z"/></svg>