<svg viewBox="0 0 16 16" xmlns="http://www.w3.org/2000/svg"><path d="M14.4587 2.61531L8.72269 0.115C8.5763 0.05175 8.32834 0 8.17299 0C8.01465 0 7.76669 0.05175 7.6203 0.11525L1.8843 2.61556C1.34924 2.84625 1 3.39375 1 3.97187C1 12.0375 6.65235 16 8.14311 16C9.69661 16 15.34 11.9938 15.34 3.97187C15.34 3.39375 14.9905 2.84625 14.4587 2.61531ZM8.17299 1.50094C8.17299 1.50063 8.17598 1.50094 8.17299 1.50094V1.50094ZM8.14311 14.5C5.40656 13.2969 2.43579 9.49688 2.43579 4.00313C2.43579 4.00156 2.43579 4.00469 2.43579 4.00313L8.13594 1.51437C8.14586 1.5112 8.15812 1.50493 8.17403 1.50188L13.906 3.97187C13.906 10.3281 10.1537 13.6344 8.14311 14.5ZM6.497 6.5C6.497 7.19688 6.88926 7.79375 7.453 8.07531V10.25C7.453 10.6656 7.77565 11 8.17 11C8.56435 11 8.887 10.6641 8.887 10.25V8.075C9.45074 7.7935 9.843 7.19656 9.843 6.49969C9.843 5.53312 9.09403 4.74969 8.17 4.74969C7.24597 4.74969 6.497 5.53438 6.497 6.5Z"/></svg>