<svg data-name="Layer 1" xmlns="http://www.w3.org/2000/svg" viewBox="0 0 32 32"><path d="M31.61 15.08L20.51 4a1.29 1.29 0 00-.92-.39 1.32 1.32 0 00-1.3 1.29v5.88H9.14a1.32 1.32 0 00-1.31 1.31v7.84a1.32 1.32 0 001.31 1.31h9.14v5.86a1.32 1.32 0 001.31 1.31 1.29 1.29 0 00.92-.39l11.1-11.1a1.28 1.28 0 000-1.84z"/><path d="M12.59 25.32a.66.66 0 00-.5-.19H3.94V6.87h8.16a.72.72 0 00.5-.19.66.66 0 00.19-.5V3.64a.67.67 0 00-.21-.5.64.64 0 00-.49-.2H.7a.72.72 0 00-.5.2.63.63 0 00-.2.5v24.72a.72.72 0 00.19.5.61.61 0 00.51.2h11.4a.64.64 0 00.5-.21.7.7 0 00.21-.5v-2.54a.67.67 0 00-.22-.49z"/></svg>