<svg viewBox="0 0 16 16" xmlns="http://www.w3.org/2000/svg"><path d="M4.32292 3.25C4.32292 2.97375 4.59328 2.75 4.92708 2.75H6.73958C7.07188 2.75 7.34375 2.97375 7.34375 3.25V4.75C7.34375 5.025 7.07188 5.25 6.73958 5.25H4.92708C4.59328 5.25 4.32292 5.025 4.32292 4.75V3.25ZM11.5729 2.75C11.9052 2.75 12.1771 2.97375 12.1771 3.25V4.75C12.1771 5.025 11.9052 5.25 11.5729 5.25H9.76042C9.42813 5.25 9.15625 5.025 9.15625 4.75V3.25C9.15625 2.97375 9.42813 2.75 9.76042 2.75H11.5729ZM4.32292 7.25C4.32292 6.975 4.59328 6.75 4.92708 6.75H6.73958C7.07188 6.75 7.34375 6.975 7.34375 7.25V8.75C7.34375 9.025 7.07188 9.25 6.73958 9.25H4.92708C4.59328 9.25 4.32292 9.025 4.32292 8.75V7.25ZM11.5729 6.75C11.9052 6.75 12.1771 6.975 12.1771 7.25V8.75C12.1771 9.025 11.9052 9.25 11.5729 9.25H9.76042C9.42813 9.25 9.15625 9.025 9.15625 8.75V7.25C9.15625 6.975 9.42813 6.75 9.76042 6.75H11.5729ZM1 2C1 0.895313 2.08184 0 3.41667 0H13.0833C14.4163 0 15.5 0.895313 15.5 2V14C15.5 15.1031 14.4163 16 13.0833 16H3.41667C2.08184 16 1 15.1031 1 14V2ZM2.8125 2V14C2.8125 14.275 3.08286 14.5 3.41667 14.5H6.4375V12.5C6.4375 11.6719 7.24935 11 8.25 11C9.25065 11 10.0625 11.6719 10.0625 12.5V14.5H13.0833C13.4156 14.5 13.6875 14.275 13.6875 14V2C13.6875 1.72375 13.4156 1.5 13.0833 1.5H3.41667C3.08286 1.5 2.8125 1.72375 2.8125 2Z"/></svg>