<svg viewBox="0 0 16 16" xmlns="http://www.w3.org/2000/svg"><path d="M4.07292 3.25C4.07292 2.97375 4.34328 2.75 4.67708 2.75H6.48958C6.82188 2.75 7.09375 2.97375 7.09375 3.25V4.75C7.09375 5.025 6.82188 5.25 6.48958 5.25H4.67708C4.34328 5.25 4.07292 5.025 4.07292 4.75V3.25ZM11.3229 2.75C11.6552 2.75 11.9271 2.97375 11.9271 3.25V4.75C11.9271 5.025 11.6552 5.25 11.3229 5.25H9.51042C9.17813 5.25 8.90625 5.025 8.90625 4.75V3.25C8.90625 2.97375 9.17813 2.75 9.51042 2.75H11.3229ZM4.07292 7.25C4.07292 6.975 4.34328 6.75 4.67708 6.75H6.48958C6.82188 6.75 7.09375 6.975 7.09375 7.25V8.75C7.09375 9.025 6.82188 9.25 6.48958 9.25H4.67708C4.34328 9.25 4.07292 9.025 4.07292 8.75V7.25ZM11.3229 6.75C11.6552 6.75 11.9271 6.975 11.9271 7.25V8.75C11.9271 9.025 11.6552 9.25 11.3229 9.25H9.51042C9.17813 9.25 8.90625 9.025 8.90625 8.75V7.25C8.90625 6.975 9.17813 6.75 9.51042 6.75H11.3229ZM0.75 2C0.75 0.895313 1.83184 0 3.16667 0H12.8333C14.1663 0 15.25 0.895313 15.25 2V14C15.25 15.1031 14.1663 16 12.8333 16H3.16667C1.83184 16 0.75 15.1031 0.75 14V2ZM2.5625 2V14C2.5625 14.275 2.83286 14.5 3.16667 14.5H6.1875V12.5C6.1875 11.6719 6.99935 11 8 11C9.00065 11 9.8125 11.6719 9.8125 12.5V14.5H12.8333C13.1656 14.5 13.4375 14.275 13.4375 14V2C13.4375 1.72375 13.1656 1.5 12.8333 1.5H3.16667C2.83286 1.5 2.5625 1.72375 2.5625 2Z"/></svg>