<svg viewBox="0 0 16 16" xmlns="http://www.w3.org/2000/svg"><path d="M14.5 16H9.75C9.34 16 9 15.66 9 15.25V13.25H7V15.25C7 15.66 6.67 16 6.25 16H1.5C1.09 16 0.75 15.66 0.75 15.25V0.75C0.75 0.33 1.08 0 1.5 0H14.5C14.91 0 15.25 0.34 15.25 0.75V12.74C15.25 13.15 14.91 13.49 14.5 13.49C14.09 13.49 13.75 13.15 13.75 12.74V1.5H2.25V14.5H5.5V12.5C5.5 12.09 5.84 11.75 6.25 11.75H9.75C10.16 11.75 10.5 12.09 10.5 12.5V14.5H14.5C14.91 14.5 15.25 14.84 15.25 15.25C15.25 15.66 14.92 16 14.5 16Z"/><path d="M11.5 4.25H4.5C4.09 4.25 3.75 3.91 3.75 3.5C3.75 3.09 4.08 2.75 4.5 2.75H11.51C11.92 2.75 12.26 3.09 12.26 3.5C12.26 3.91 11.92 4.25 11.5 4.25Z"/><path d="M11.5 10.25H4.5C4.09 10.25 3.75 9.91 3.75 9.5C3.75 9.09 4.08 8.75 4.5 8.75H11.51C11.92 8.75 12.26 9.09 12.26 9.5C12.26 9.91 11.92 10.25 11.5 10.25Z"/><path d="M11.5 7.25H4.5C4.09 7.25 3.75 6.91 3.75 6.5C3.75 6.09 4.08 5.75 4.5 5.75H11.51C11.92 5.75 12.26 6.09 12.26 6.5C12.26 6.91 11.92 7.25 11.5 7.25Z"/></svg>