<svg viewBox="0 0 16 16" xmlns="http://www.w3.org/2000/svg"><g clip-path="url(#clip0)"><path d="M16 6.02006C16 5.78006 15.88 5.55006 15.69 5.41006L8.44 0.140059C8.18 -0.0499414 7.82 -0.0499414 7.56 0.140059L0.31 5.41006C0.12 5.55006 0 5.78006 0 6.02006C0 6.26006 0.12 6.49006 0.31 6.63006L2.85 8.47006L2.01 11.2001C1.92 11.5101 2.03 11.8401 2.29 12.0301L7.56 15.8601C7.69 15.9501 7.85 16.0001 8 16.0001C8.15 16.0001 8.31 15.9501 8.44 15.8601L10.97 14.0201C11.3 13.7801 11.38 13.3101 11.14 12.9701C10.9 12.6401 10.43 12.5601 10.09 12.8001L8 14.3201L3.6 11.1201L4.13 9.40006L7.56 11.8901C7.69 11.9901 7.85 12.0301 8 12.0301C8.15 12.0301 8.31 11.9801 8.44 11.8901L11.86 9.40006V15.2401C11.86 15.6501 12.2 15.9901 12.61 15.9901C13.02 15.9901 13.36 15.6501 13.36 15.2401V8.71006C13.36 8.59006 13.33 8.48006 13.28 8.37006L15.69 6.62006C15.88 6.48006 16 6.26006 16 6.02006ZM12.08 7.40006L8.44 4.75006C8.1 4.51006 7.64 4.59006 7.39 4.92006C7.15 5.25006 7.22 5.72006 7.56 5.97006L10.8 8.33006L8 10.3601L2.03 6.02006L8 1.68006L13.97 6.02006L12.08 7.40006Z"/></g><defs><clipPath><rect/></clipPath></defs></svg>