<svg viewBox="0 0 16 16" xmlns="http://www.w3.org/2000/svg"><g clip-path="url(#clip0_335_132)"><path d="M15.5775 3.74643L8.51 0.132143C8.3575 0.0439286 8.18 0 8 0C7.82 0 7.6425 0.0439286 7.47 0.131429L0.40125 3.74643C0.16095 3.87143 0 4.2 0 4.57143C0 4.94286 0.16095 5.27321 0.40125 5.39607L1.90175 6.16429C1.6045 6.72857 1.39525 7.38428 1.288 8.09107C1.00125 8.26429 0.8 8.67143 0.8 9.14286C0.8 9.49832 0.92035 9.80321 1.0985 10.0129L0.47775 15.3343C0.437 15.6821 0.625 16 0.87225 16H2.32775C2.57493 16 2.763 15.6829 2.72225 15.3346L2.1015 10.0132C2.27975 9.80357 2.4 9.46786 2.4 9.14286C2.4 8.77536 2.27065 8.46321 2.082 8.25393C2.1883 7.61964 2.404 7.04607 2.7055 6.57429L7.4705 9.01107C7.6425 9.1 7.82 9.14286 8 9.14286C8.18 9.14286 8.35875 9.09896 8.53025 9.01129L15.5977 5.397C15.84 5.27143 16 4.94286 16 4.57143C16 4.2 15.84 3.87143 15.5775 3.74643ZM8.1275 7.39643C8.0168 7.453 7.92258 7.42077 7.87525 7.39664L4.3875 5.61429L8.1175 3.97429C8.32883 3.88164 8.4465 3.56179 8.38175 3.25929C8.3169 2.95793 8.0925 2.78536 7.8815 2.8825L3.13 4.97143L2.349 4.57143L7.8515 1.74571C7.9622 1.68914 8.05643 1.7213 8.10375 1.7455L13.65 4.57143L8.1275 7.39643ZM11.3075 8.80357L11.6 12.8107C11.6 13.1893 10.3625 14.2857 8 14.2857C5.6375 14.2857 4.4 13.1886 4.4 12.8093L4.693 8.80571L3.541 8.21643L3.20325 12.72C3.2 14.9036 5.615 16 8 16C10.385 16 12.8 14.9039 12.7975 12.7211L12.4598 8.2175L11.3075 8.80357Z"/></g><defs><clipPath><rect/></clipPath></defs></svg>