<svg xmlns="http://www.w3.org/2000/svg" viewBox="0 0 16 16"><path d="M14 1H2a.945.945 0 0 0-1 1v12a.945.945 0 0 0 1 1h12a.945.945 0 0 0 1-1V2a.945.945 0 0 0-1-1zm-1.615 7.16a4.261 4.261 0 0 1-1.25.948c-.191.1-.388.189-.592.288.036.16.078.322.108.486a2.923 2.923 0 0 1-.063 1.522 1.64 1.64 0 0 1-1.251 1.163.968.968 0 0 1-1.053-.355.814.814 0 0 1-.156-.486c0-.526-.006-1.052-.009-1.578 0-.226 0-.226-.247-.255v.129c0 .526-.013 1.052 0 1.578a.938.938 0 0 1-1.221.967 1.64 1.64 0 0 1-1.241-1.159 3.185 3.185 0 0 1 .007-1.862l.04-.153c-.087-.039-.174-.076-.26-.116A4.712 4.712 0 0 1 3.6 8.156a.408.408 0 0 1-.1-.2.239.239 0 0 1 .052-.192.263.263 0 0 1 .2-.024.771.771 0 0 1 .2.1V4.387A1.045 1.045 0 0 1 4.1 3.78a.818.818 0 0 1 .718-.38h6.361a.87.87 0 0 1 .872.969V7.84c.078-.041.135-.079.2-.1a.171.171 0 0 1 .251.192.5.5 0 0 1-.117.228zM11.6 4.544a.6.6 0 0 0-.659-.662H5.243c-.077 0-.153 0-.229.006a.511.511 0 0 0-.536.411.969.969 0 0 0-.031.226v3.554a.147.147 0 0 0 .067.108 4.2 4.2 0 0 0 1.668.466c.384.021.77.006 1.155.006a.639.639 0 0 1 .469.181c.093.091.2.169.305.257.1-.344.228-.438.576-.438.08 0 .16 0 .24.009a4.911 4.911 0 0 0 2.573-.485.173.173 0 0 0 .109-.183V5.494c-.003-.316 0-.633-.009-.95zM7.206 8.15a1.127 1.127 0 0 1-1.426-.5 2.637 2.637 0 0 1-.14-.441A1.1 1.1 0 0 1 6.488 6.2a1.135 1.135 0 0 1 1.306.608 1.016 1.016 0 0 1-.588 1.342zm2.343.067a1.132 1.132 0 0 1-1.062-.373 1 1 0 0 1 .281-1.525 1.135 1.135 0 0 1 .514-.151 1.074 1.074 0 0 1 1.161 1.151 1.072 1.072 0 0 1-.894.898z"/></svg>