<svg xmlns="http://www.w3.org/2000/svg" xmlns:xlink="http://www.w3.org/1999/xlink" x="0px" y="0px" viewBox="0 0 16 16" xml:space="preserve"><path d="M4.84,9.9c0.15,0.15,0.34,0.22,0.53,0.22s0.38-0.07,0.53-0.22L8,7.8l2.09,2.09c0.15,0.15,0.34,0.22,0.53,0.22
		s0.38-0.07,0.53-0.22c0.29-0.29,0.29-0.77,0-1.06L9.06,6.74l2.09-2.09c0.29-0.29,0.29-0.77,0-1.06s-0.77-0.29-1.06,0L8,5.68
		L5.91,3.59c-0.29-0.29-0.77-0.29-1.06,0s-0.29,0.77,0,1.06l2.09,2.09L4.84,8.84C4.55,9.13,4.55,9.61,4.84,9.9z"/><path d="M12,0H4C1.8,0,0,1.79,0,4v5.5c0,2.21,1.79,4,4,4h2.62c0.41,0,0.75-0.34,0.75-0.75S7.04,12,6.63,12H4
		c-1.38,0-2.5-1.12-2.5-2.5V4c0-1.38,1.12-2.5,2.5-2.5h8c1.38,0,2.5,1.12,2.5,2.5v5.5c0,1.38-1.12,2.5-2.5,2.5H9.89
		c-0.2,0-0.39,0.08-0.53,0.22l-2.5,2.5c-0.29,0.29-0.29,0.77,0,1.06C7.01,15.92,7.2,16,7.39,16s0.38-0.07,0.53-0.22l2.28-2.28H12
		c2.21,0,4-1.79,4-4V4C16,1.79,14.2,0,12,0z"/></svg>