<svg viewBox="0 0 32 32" xmlns="http://www.w3.org/2000/svg"><g stroke="null"><path d="M21.08 22.013v3.124H7.414V4.57H21.09l.004 3.142 1.126 1.131 1.139-1.14V2.285A2.28 2.28 0 0021.08 0H7.413a2.28 2.28 0 00-2.278 2.285v27.422a2.28 2.28 0 002.278 2.285H21.08a2.28 2.28 0 002.278-2.285V22.01l-1.14-1.14-1.138 1.143zm-5.694 7.694h-2.278a1.142 1.142 0 010-2.285h2.278a1.142 1.142 0 110 2.285z"/><path d="M28.6 9.916L27.117 8.43l-4.897 4.9-4.893-4.9-1.488 1.487 4.9 4.893-4.895 4.898 1.483 1.483 4.893-4.896 4.897 4.896 1.483-1.483-4.895-4.898z"/></g></svg>