<svg viewBox="0 0 16 16" xmlns="http://www.w3.org/2000/svg"><path d="M4.84 9.9C4.99 10.05 5.18 10.12 5.37 10.12C5.56 10.12 5.75 10.05 5.9 9.9L8 7.8L10.09 9.89C10.24 10.04 10.43 10.11 10.62 10.11C10.81 10.11 11 10.04 11.15 9.89C11.44 9.6 11.44 9.12 11.15 8.83L9.06 6.74L11.15 4.65C11.44 4.36 11.44 3.88 11.15 3.59C10.86 3.3 10.38 3.3 10.09 3.59L8 5.68L5.91 3.59C5.62 3.3 5.14 3.3 4.85 3.59C4.56 3.88 4.56 4.36 4.85 4.65L6.94 6.74L4.84 8.84C4.55 9.13 4.55 9.61 4.84 9.9Z"/><path d="M12 0H4C1.8 0 0 1.79 0 4V9.5C0 11.71 1.79 13.5 4 13.5H6.62C7.03 13.5 7.37 13.16 7.37 12.75C7.37 12.34 7.04 12 6.63 12H4C2.62 12 1.5 10.88 1.5 9.5V4C1.5 2.62 2.62 1.5 4 1.5H12C13.38 1.5 14.5 2.62 14.5 4V9.5C14.5 10.88 13.38 12 12 12H9.89C9.69 12 9.5 12.08 9.36 12.22L6.86 14.72C6.57 15.01 6.57 15.49 6.86 15.78C7.01 15.92 7.2 16 7.39 16C7.58 16 7.77 15.93 7.92 15.78L10.2 13.5H12C14.21 13.5 16 11.71 16 9.5V4C16 1.79 14.2 0 12 0Z"/></svg>