<svg viewBox="0 0 16 16" xmlns="http://www.w3.org/2000/svg"><path d="M14.6 9.75H11.09C10.45 9.35 10.06 8.66 10.06 7.9C10.06 7.17 10.36 6.75 10.73 6.22C11.22 5.53 11.83 4.68 11.65 3.13C11.44 1.35 9.9 0 8.07 0C6.08 0 4.4 1.58 4.33 3.52C4.28 4.83 4.83 5.6 5.28 6.22C5.65 6.75 5.95 7.16 5.95 7.9C5.95 8.49 5.71 9.04 5.28 9.46C5.08 9.65 4.79 9.75 4.49 9.75H1.4C0.63 9.75 0 10.38 0 11.15V14.6C0 15.37 0.63 16 1.4 16H14.6C15.37 16 16 15.37 16 14.6V11.15C16 10.38 15.37 9.75 14.6 9.75ZM14.49 14.5H1.49V11.25H4.47C5.17 11.25 5.82 11 6.3 10.54C7.04 9.84 7.45 8.9 7.45 7.9C7.45 6.68 6.92 5.95 6.5 5.35C6.11 4.8 5.8 4.37 5.83 3.57C5.87 2.43 6.88 1.5 8.07 1.5C9.14 1.5 10.03 2.28 10.15 3.31C10.26 4.29 9.94 4.74 9.5 5.36C9.08 5.95 8.55 6.68 8.55 7.9C8.55 8.57 8.73 9.2 9.05 9.75H8.28C7.87 9.75 7.53 10.09 7.53 10.5C7.53 10.91 7.87 11.25 8.28 11.25H14.5L14.49 14.5Z"/></svg>