<svg data-name="Layer 1" xmlns="http://www.w3.org/2000/svg" viewBox="0 0 32 32"><path d="M32 15.33c-.09-4.1-3.52-5.54-7.62-5.48-2.24 0-4.24.06-5.61 1.64A3.61 3.61 0 0116 12.75a3.62 3.62 0 01-2.74-1.26C11.88 9.9 9.88 9.88 7.63 9.85 3.53 9.8.09 11.22 0 15.33s3.31 6.82 7.53 6.82c2.61 0 4.89-.43 6.24-2.44a2.29 2.29 0 011.88-1h.66a2.23 2.23 0 011.88 1c1.35 2 3.64 2.44 6.24 2.44 4.26 0 7.66-2.58 7.57-6.82zm-20.35.87a6.33 6.33 0 01-7.06 0 .89.89 0 010-1.54 6.7 6.7 0 017 0 .88.88 0 01.06 1.54zm16.11.09a6.3 6.3 0 01-7.06 0 .89.89 0 010-1.54 6.7 6.7 0 017 0 .89.89 0 01.06 1.55z"/></svg>