<svg xmlns="http://www.w3.org/2000/svg" viewBox="0 0 16 16"><path d="M3.051 11.536l-.707.707a.999.999 0 101.414 1.414l.707-.707a1 1 0 00-1.414-1.414zM3 8a1 1 0 00-1-1H1a1 1 0 000 2h1a1 1 0 001-1zm5-5a1 1 0 001-1V1a1 1 0 00-2 0v1a1 1 0 001 1zm4.949 1.464l.707-.707a.999.999 0 10-1.414-1.414l-.707.707a1 1 0 001.414 1.414zm-9.898 0A1 1 0 104.465 3.05l-.707-.707a1 1 0 00-1.414 1.414l.707.707zm9.898 7.072a1 1 0 00-1.414 1.414l.707.707a1.001 1.001 0 001.414-1.414l-.707-.707zM15 7h-1a1 1 0 000 2h1a1 1 0 000-2zM8 4.1a3.9 3.9 0 100 7.8 3.9 3.9 0 000-7.8zM8 13a1 1 0 00-1 1v1a1 1 0 002 0v-1a1 1 0 00-1-1z"/></svg>