<svg viewBox="0 0 16 16" xmlns="http://www.w3.org/2000/svg"><path d="M8 12.25C5.66 12.25 3.75 10.34 3.75 8C3.75 5.66 5.66 3.75 8 3.75C10.34 3.75 12.25 5.66 12.25 8C12.25 10.34 10.34 12.25 8 12.25ZM8 5.25C6.48 5.25 5.25 6.48 5.25 8C5.25 9.52 6.48 10.75 8 10.75C9.52 10.75 10.75 9.52 10.75 8C10.75 6.48 9.52 5.25 8 5.25Z"/><path d="M8 2.49C7.59 2.49 7.25 2.15 7.25 1.74V0.75C7.25 0.34 7.59 0 8 0C8.41 0 8.75 0.34 8.75 0.75V1.73C8.75 2.15 8.41 2.49 8 2.49Z"/><path d="M3.57 4.32C3.38 4.32 3.19 4.25 3.04 4.1L2.34 3.4C2.05 3.11 2.05 2.63 2.34 2.34C2.63 2.05 3.11 2.05 3.4 2.34L4.1 3.04C4.39 3.33 4.39 3.81 4.1 4.1C3.95 4.25 3.76 4.32 3.57 4.32Z"/><path d="M1.73 8.75H0.75C0.34 8.75 0 8.42 0 8C0 7.58 0.34 7.25 0.75 7.25H1.73C2.14 7.25 2.48 7.59 2.48 8C2.48 8.41 2.15 8.75 1.73 8.75Z"/><path d="M2.87 13.88C2.68 13.88 2.49 13.81 2.34 13.66C2.05 13.37 2.05 12.89 2.34 12.6L3.04 11.9C3.33 11.61 3.81 11.61 4.1 11.9C4.39 12.19 4.39 12.67 4.1 12.96L3.4 13.66C3.26 13.8 3.07 13.88 2.87 13.88Z"/><path d="M8 16C7.59 16 7.25 15.66 7.25 15.25V14.27C7.25 13.86 7.59 13.52 8 13.52C8.41 13.52 8.75 13.86 8.75 14.27V15.25C8.75 15.67 8.41 16 8 16Z"/><path d="M13.13 13.88C12.94 13.88 12.75 13.81 12.6 13.66L11.9 12.96C11.61 12.67 11.61 12.19 11.9 11.9C12.19 11.61 12.67 11.61 12.96 11.9L13.66 12.6C13.95 12.89 13.95 13.37 13.66 13.66C13.51 13.8 13.32 13.88 13.13 13.88Z"/><path d="M15.25 8.75H14.27C13.86 8.75 13.52 8.41 13.52 8C13.52 7.59 13.86 7.25 14.27 7.25H15.25C15.66 7.25 16 7.59 16 8C16 8.41 15.66 8.75 15.25 8.75Z"/><path d="M12.43 4.32C12.24 4.32 12.05 4.25 11.9 4.1C11.61 3.81 11.61 3.33 11.9 3.04L12.6 2.34C12.89 2.05 13.37 2.05 13.66 2.34C13.95 2.63 13.95 3.11 13.66 3.4L12.96 4.1C12.81 4.25 12.62 4.32 12.43 4.32Z"/></svg>