<svg viewBox="0 0 16 16" xmlns="http://www.w3.org/2000/svg"><g clip-path="url(#clip0_335_124)"><path d="M15.25 12.5H14V11.25C14 10.84 13.66 10.5 13.25 10.5C12.84 10.5 12.5 10.84 12.5 11.25V12.5H11.25C10.84 12.5 10.5 12.84 10.5 13.25C10.5 13.66 10.84 14 11.25 14H12.5V15.25C12.5 15.66 12.84 16 13.25 16C13.66 16 14 15.67 14 15.25V14H15.25C15.66 14 16 13.66 16 13.25C16 12.84 15.66 12.5 15.25 12.5Z"/><path d="M15.34 6.16001V2.08001C15.34 0.94001 14.41 0.0100098 13.27 0.0100098H9.19C8.64 0.0100098 8.12 0.22001 7.73 0.62001L0.61 7.73001C0.21 8.12001 0 8.64001 0 9.20001C0 9.75001 0.22 10.27 0.61 10.66L4.69 14.74C5.09 15.14 5.62 15.34 6.15 15.34C6.68 15.34 7.21 15.14 7.61 14.74L14.73 7.62001C15.13 7.23001 15.34 6.71001 15.34 6.16001ZM13.84 6.16001C13.84 6.31001 13.78 6.45001 13.67 6.56001L6.55 13.68C6.34 13.89 5.96 13.9 5.75 13.68L1.67 9.60001C1.56 9.49001 1.5 9.35001 1.5 9.20001C1.5 9.05001 1.56 8.91001 1.67 8.80001L8.79 1.68001C8.9 1.57001 9.04 1.51001 9.19 1.51001H13.27C13.58 1.51001 13.84 1.76001 13.84 2.08001V6.16001Z"/><path d="M11.34 5.00001C11.8923 5.00001 12.34 4.55229 12.34 4.00001C12.34 3.44773 11.8923 3.00001 11.34 3.00001C10.7877 3.00001 10.34 3.44773 10.34 4.00001C10.34 4.55229 10.7877 5.00001 11.34 5.00001Z"/></g><defs><clipPath><rect/></clipPath></defs></svg>