<svg viewBox="0 0 16 16" xmlns="http://www.w3.org/2000/svg"><g clip-path="url(#clip0_335_199)"><path d="M6.15 15.35C5.62 15.35 5.09 15.15 4.69 14.75L0.61 10.67C0.21 10.27 0 9.75001 0 9.20001C0 8.65001 0.22 8.13001 0.61 7.74001L7.73 0.62001C8.12 0.23001 8.64 0.0100098 9.19 0.0100098H13.27C14.41 0.0100098 15.34 0.94001 15.34 2.08001V6.16001C15.34 6.71001 15.13 7.23001 14.74 7.62001L7.62 14.74C7.21 15.15 6.68 15.35 6.15 15.35ZM9.19 1.51001C9.04 1.51001 8.9 1.57001 8.79 1.68001L1.67 8.79001C1.56 8.90001 1.5 9.04001 1.5 9.20001C1.5 9.35001 1.56 9.49001 1.67 9.60001L5.75 13.68C5.96 13.9 6.34 13.89 6.55 13.68L13.67 6.56001C13.78 6.45001 13.84 6.31001 13.84 6.16001V2.08001C13.84 1.77001 13.59 1.51001 13.27 1.51001H9.19Z"/><path d="M11.34 5.00001C11.8923 5.00001 12.34 4.55229 12.34 4.00001C12.34 3.44773 11.8923 3.00001 11.34 3.00001C10.7877 3.00001 10.34 3.44773 10.34 4.00001C10.34 4.55229 10.7877 5.00001 11.34 5.00001Z"/><path d="M15.25 14H11.25C10.84 14 10.5 13.66 10.5 13.25C10.5 12.84 10.84 12.5 11.25 12.5H15.25C15.66 12.5 16 12.84 16 13.25C16 13.66 15.66 14 15.25 14Z"/></g><defs><clipPath><rect/></clipPath></defs></svg>