<svg viewBox="0 0 16 16" xmlns="http://www.w3.org/2000/svg"><g clip-path="url(#clip0)"><path d="M6.41006 16C5.87006 16 5.32006 15.79 4.90006 15.38L0.620059 11.1C-0.209941 10.27 -0.209941 8.92 0.620059 8.09L8.08006 0.63C8.48006 0.23 9.03006 0 9.59006 0H13.8701C15.0401 0 16.0001 0.96 16.0001 2.13V6.41C16.0001 6.97 15.7701 7.52 15.3801 7.92L7.92006 15.38C7.50006 15.79 6.95006 16 6.41006 16ZM9.59006 1.5C9.42006 1.5 9.26006 1.57 9.14006 1.68L1.68006 9.15C1.43006 9.4 1.43006 9.8 1.68006 10.04L5.96006 14.32C6.21006 14.57 6.61006 14.57 6.85006 14.32L14.3101 6.86C14.4301 6.74 14.4901 6.58 14.4901 6.41V2.13C14.4901 1.78 14.2101 1.5 13.8601 1.5H9.59006Z"/><path d="M12.0001 5C12.5523 5 13.0001 4.55228 13.0001 4C13.0001 3.44772 12.5523 3 12.0001 3C11.4478 3 11.0001 3.44772 11.0001 4C11.0001 4.55228 11.4478 5 12.0001 5Z"/></g><defs><clipPath><rect/></clipPath></defs></svg>