<svg viewBox="0 0 16 16" xmlns="http://www.w3.org/2000/svg"><g clip-path="url(#clip0)"><path d="M15.56 3.36005L8.31 0.0600537C8.11 -0.0299463 7.89 -0.0299463 7.69 0.0600537L0.44 3.36005C0.17 3.49005 0 3.75005 0 4.05005V11.9501C0 12.2401 0.17 12.5101 0.44 12.6301L7.69 15.9301H7.7C7.79 15.9701 7.89 16.0001 8 16.0001C8.11 16.0001 8.21 15.9801 8.3 15.9301H8.31L15.56 12.6301C15.83 12.5101 16 12.2401 16 11.9501V4.05005C16 3.75005 15.83 3.49005 15.56 3.36005ZM1.5 4.53005L8 1.57005L13.44 4.04005L8 6.52005L4.04 4.72005C3.66 4.55005 3.22 4.72005 3.05 5.09005C2.88 5.46005 3.05 5.91005 3.42 6.08005L7.25 7.82005V14.0701L1.5 11.4701V4.53005ZM8.75 14.0801V7.83005L14.5 5.21005V11.4701L8.75 14.0801Z"/></g><defs><clipPath><rect/></clipPath></defs></svg>