<svg viewBox="0 0 16 16" xmlns="http://www.w3.org/2000/svg"><path d="M12.2286 0C13.1321 0 13.95 0.532143 14.3179 1.3575L15.8036 4.7C15.9321 4.99286 16 5.30714 16 5.62857V13.7143C16 14.975 14.975 16 13.7143 16H2.28571C1.02321 16 0 14.975 0 13.7143V5.62857C0 5.30714 0.0671071 4.99286 0.197 4.7L1.6825 1.3575C2.04929 0.531786 2.86786 0 3.77143 0H12.2286ZM12.2286 1.71429H8.85714V4.57143H13.8714L12.75 2.05357C12.6607 1.84714 12.4536 1.71429 12.2286 1.71429ZM14.2857 6.28571H1.71429V13.7143C1.71429 14.0286 1.97 14.2857 2.28571 14.2857H13.7143C14.0286 14.2857 14.2857 14.0286 14.2857 13.7143V6.28571ZM2.13 4.57143H7.14286V1.71429H3.77143C3.54536 1.71429 3.34071 1.84714 3.24893 2.05357L2.13 4.57143Z"/></svg>