<svg data-name="Layer 1" xmlns="http://www.w3.org/2000/svg" viewBox="0 0 32 32"><path d="M30.5 4.07c0-.67 0-1.26.06-1.82s.1-1 .16-1.4a.68.68 0 00-.59-.68A5.78 5.78 0 0028.65 0H3.41a5.62 5.62 0 00-1.46.19c-.45.13-.67.36-.67.71a27.92 27.92 0 01.21 3.61c0 1.21-.09 2.39-.21 3.56a.39.39 0 00.21.33.86.86 0 00.51.17 1.07 1.07 0 00.52-.06.46.46 0 00.31-.39 19.67 19.67 0 01.83-3.06A5.06 5.06 0 014.8 3.18a4 4 0 011.87-1A13.14 13.14 0 019.55 2a7 7 0 012.94.45c.57.29.87 1 .87 2.19v21A14.28 14.28 0 0113.2 28a2.52 2.52 0 01-.67 1.34 2.93 2.93 0 01-1.37.68 16.92 16.92 0 01-2.33.34.58.58 0 00-.43.31 1.14 1.14 0 00-.14.54 1 1 0 00.14.52.46.46 0 00.43.24c1 0 2.2-.07 3.47-.19s2.51-.19 3.71-.19a33.32 33.32 0 013.42.19A33.39 33.39 0 0023 32a.59.59 0 00.49-.24.89.89 0 00.16-.52 1 1 0 00-.16-.54.63.63 0 00-.45-.31 18.15 18.15 0 01-2.37-.39 3 3 0 01-1.4-.68 2.26 2.26 0 01-.64-1.32 16.19 16.19 0 01-.14-2.43v-21c0-1.16.31-1.89 1-2.19A7.56 7.56 0 0122.48 2a12.52 12.52 0 012.69.26 4.33 4.33 0 011.91 1 4.65 4.65 0 011.26 1.88 14.76 14.76 0 01.76 3.09.45.45 0 00.31.39 1.6 1.6 0 00.54.06 1.08 1.08 0 00.52-.19.42.42 0 00.24-.34c-.07-.64-.12-1.31-.16-2s0-1.36 0-2z"/></svg>