<svg xmlns="http://www.w3.org/2000/svg" viewBox="0 0 16 16"><path d="M4.082 2.08c-1.027 0-1.693 1.268-2.041 2.256-.157.445-.741.889-.816 1.415-.073.51.126.763.1 1.3C1.31 7.264 1 8.067 1 8.281c0 1.3 2.472 1.9 3.627 1.9a1.019 1.019 0 00.779-.363c.246-.292.589-.02.605 0 .242.242-.917 2.04-.932 2.144-.44.823-.962 1.754-.438 2.586a3.17 3.17 0 00.266.281.656.656 0 001.042-.243C6.2 14.133 10.438 8.5 10.438 8.5V3.142A9.864 9.864 0 006.811 2.08c-.055-.02-1.027 0-2.729 0zm9.356-1.031h-2v8h2a1 1 0 001-1v-6a1 1 0 00-1-1z"/></svg>