<svg viewBox="0 0 16 16" xmlns="http://www.w3.org/2000/svg"><g clip-path="url(#clip0)"><path d="M15.25 0.660034H12.5C12.09 0.660034 11.75 1.00003 11.75 1.41003V9.31003C11.38 9.55003 11.03 9.82003 10.72 10.13C9.67998 11.17 9.01998 12.54 8.85998 13.99C8.82998 14.25 8.62998 14.46 8.36998 14.49C8.10998 14.52 7.85998 14.38 7.76998 14.13C7.46998 13.36 7.36998 12.55 7.46998 11.71C7.52998 11.22 7.65998 10.74 7.87998 10.28C7.98998 10.05 7.96998 9.78004 7.82998 9.56003C7.67998 9.36003 7.44998 9.23003 7.18998 9.23003H2.72998C2.35998 9.23003 2.01998 9.07003 1.77998 8.78003C1.53998 8.49003 1.44998 8.13003 1.51998 7.77003L2.40998 3.16003C2.51998 2.58003 3.02998 2.17003 3.61998 2.17003H9.99998C10.41 2.17003 10.75 1.83003 10.75 1.42003C10.75 1.01003 10.41 0.660034 9.99998 0.660034H3.61998C2.31998 0.660034 1.18998 1.59003 0.939978 2.87003L0.0499785 7.48003C-0.100022 8.29003 0.0999785 9.11003 0.619978 9.74003C1.13998 10.37 1.90998 10.73 2.71998 10.73H6.11998C6.05998 11 6.00998 11.27 5.97998 11.55C5.84998 12.63 5.97998 13.69 6.36998 14.68C6.67998 15.49 7.44998 16 8.28998 16C8.37998 16 8.46998 15.99 8.55998 15.98C9.50998 15.86 10.24 15.11 10.35 14.16C10.48 13.03 10.97 12 11.78 11.19C11.82 11.15 11.87 11.12 11.91 11.08C12.05 11.26 12.25 11.39 12.5 11.39H15.25C15.66 11.39 16 11.05 16 10.64V1.41003C16 1.00003 15.66 0.660034 15.25 0.660034ZM14.5 9.89003H13.25V2.16003H14.5V9.89003Z"/></g><defs><clipPath><rect/></clipPath></defs></svg>