<svg viewBox="0 0 16 16" xmlns="http://www.w3.org/2000/svg"><g clip-path="url(#clip0_335_93)"><path d="M3 5.44731H1C0.447812 5.44731 0 5.93801 0 6.51226V14.1518C0 14.7568 0.447812 15.2167 1 15.2167H3C3.55219 15.2167 4 14.726 4 14.1518V6.54308C4 5.9678 3.55312 5.44731 3 5.44731ZM16 6.67662C16 5.41341 15.0609 4.38511 13.9072 4.38511H10.7866C11.0844 3.52973 11.25 2.79009 11.25 2.35521C11.25 1.19781 10.4312 0 9.06063 0C7.60406 0 7.20563 1.11083 6.88531 2.00319C5.89594 4.75972 5 4.27656 5 5.20385C5 5.64352 5.32375 6.02533 5.75062 6.02533C5.91488 6.02533 6.08031 5.9664 6.21844 5.84521C8.61719 3.74374 8.03 1.64364 9.06063 1.64364C9.56312 1.64364 9.75 2.08024 9.75 2.35555C9.75 2.60908 9.51269 3.70984 8.95156 4.80698C8.88763 4.93182 8.85575 5.07016 8.85575 5.2083C8.85575 5.68496 9.21294 5.9993 9.60575 5.9993H13.9058C14.2344 6.02944 14.5 6.3205 14.5 6.67662C14.5 7.01251 14.2573 7.29402 13.9478 7.3173C13.5522 7.34673 13.2491 7.70767 13.2491 8.13707C13.2491 8.6668 13.605 8.68324 13.605 9.12702C13.605 9.99576 12.5103 9.54958 12.5103 10.5703C12.5103 10.9546 12.7101 11.0165 12.7101 11.3322C12.7101 12.1082 11.7797 11.8034 11.7797 12.7239C11.7797 12.8785 11.8144 12.928 11.8144 13.0477C11.8144 13.4055 11.5483 13.6966 11.2216 13.6966H9.58006C8.77944 13.6966 7.98569 13.4067 7.34569 12.8812L6.20006 11.9392C6.06522 11.8281 5.90725 11.7745 5.75069 11.7745C5.31788 11.7745 4.99975 12.1642 4.99975 12.5977C4.99975 12.8472 5.10325 13.0915 5.29962 13.2527L6.44556 14.1951C7.34375 14.9325 8.45625 15.34 9.58125 15.34H11.2228C12.3269 15.34 13.2341 14.3987 13.3103 13.2101C13.8656 12.7913 14.2112 12.0969 14.2112 11.3326C14.2112 11.2283 14.2044 11.1235 14.1912 11.0202C14.7487 10.6042 15.1062 9.9046 15.1062 9.1273C15.1062 8.94543 15.0862 8.76638 15.0476 8.59174C15.6219 8.15248 16 7.47105 16 6.67662Z"/></g><defs><clipPath><rect/></clipPath></defs></svg>