<svg viewBox="0 0 16 16" xmlns="http://www.w3.org/2000/svg"><path d="M3 5.77731H1C0.447812 5.77731 0 6.26801 0 6.84226V14.4818C0 15.0869 0.447812 15.5467 1 15.5467H3C3.55219 15.5467 4 15.056 4 14.4818V6.87308C4 6.2978 3.55312 5.77731 3 5.77731ZM16 7.00662C16 5.74341 15.0609 4.71511 13.9072 4.71511H10.7866C11.0844 3.85973 11.25 3.12009 11.25 2.68521C11.25 1.52781 10.4312 0.330002 9.06062 0.330002C7.60406 0.330002 7.20562 1.44083 6.88531 2.33319C5.89594 5.08972 5 4.60656 5 5.53385C5 5.97352 5.32375 6.35533 5.75062 6.35533C5.91487 6.35533 6.08031 6.2964 6.21844 6.17521C8.61719 4.07375 8.03 1.97365 9.06062 1.97365C9.56312 1.97365 9.75 2.41024 9.75 2.68555C9.75 2.93908 9.51269 4.03984 8.95156 5.13698C8.88763 5.26183 8.85575 5.40017 8.85575 5.5383C8.85575 6.01496 9.21294 6.32931 9.60575 6.32931H13.9058C14.2344 6.35944 14.5 6.6505 14.5 7.00662C14.5 7.34251 14.2573 7.62402 13.9478 7.6473C13.5522 7.67673 13.2491 8.03767 13.2491 8.46707C13.2491 8.9968 13.605 9.01324 13.605 9.45702C13.605 10.3258 12.5103 9.87958 12.5103 10.9004C12.5103 11.2846 12.7101 11.3465 12.7101 11.6622C12.7101 12.4382 11.7797 12.1334 11.7797 13.0539C11.7797 13.2085 11.8144 13.258 11.8144 13.3777C11.8144 13.7355 11.5483 14.0266 11.2216 14.0266H9.58006C8.77944 14.0266 7.98569 13.7367 7.34569 13.2112L6.20006 12.2692C6.06522 12.1581 5.90725 12.1045 5.75069 12.1045C5.31788 12.1045 4.99975 12.4942 4.99975 12.9277C4.99975 13.1772 5.10325 13.4215 5.29962 13.5827L6.44556 14.5251C7.34375 15.2625 8.45625 15.67 9.58125 15.67H11.2228C12.3269 15.67 13.2341 14.7287 13.3103 13.5401C13.8656 13.1213 14.2112 12.4269 14.2112 11.6626C14.2112 11.5583 14.2044 11.4535 14.1912 11.3502C14.7487 10.9342 15.1062 10.2346 15.1062 9.4573C15.1062 9.27544 15.0862 9.09638 15.0476 8.92174C15.6219 8.48248 16 7.80105 16 7.00662Z"/></svg>