<svg viewBox="0 0 16 16" xmlns="http://www.w3.org/2000/svg"><path d="M15.38 6.25995C14.86 5.62995 14.09 5.26995 13.28 5.26995H9.88C9.94 4.99995 9.99 4.72995 10.02 4.44995C10.15 3.36995 10.02 2.30995 9.63 1.31995C9.29 0.429953 8.39 -0.110047 7.43 0.0199532C6.49 0.139953 5.75 0.889953 5.65 1.83995C5.52 2.96995 5.03 3.99995 4.22 4.80995C4.18 4.84995 4.13 4.87995 4.09 4.91995C3.95 4.73995 3.74 4.60995 3.5 4.60995H0.75C0.33 4.60995 0 4.94995 0 5.35995V14.59C0 15 0.34 15.34 0.75 15.34H3.5C3.91 15.34 4.25 15 4.25 14.59V6.68995C4.62 6.44995 4.97 6.17995 5.28 5.86995C6.33 4.80995 6.97 3.47995 7.14 1.99995C7.17 1.73995 7.37 1.52995 7.63 1.49995C7.89 1.46995 8.14 1.60995 8.23 1.85995C8.53 2.62995 8.63 3.43995 8.53 4.27995C8.47 4.75995 8.34 5.24995 8.12 5.70995C8.01 5.93995 8.03 6.20995 8.17 6.42995C8.31 6.63995 8.55 6.76995 8.8 6.76995H13.26C13.63 6.76995 13.97 6.92995 14.21 7.21995C14.45 7.50995 14.54 7.86995 14.47 8.22995L13.58 12.84C13.47 13.42 12.96 13.83 12.37 13.83H6C5.59 13.83 5.25 14.17 5.25 14.58C5.25 14.99 5.58 15.34 6 15.34H12.38C13.68 15.34 14.81 14.41 15.06 13.13L15.95 8.51995C16.1 7.70995 15.9 6.88995 15.38 6.25995ZM2.75 13.84H1.5V6.10995H2.75V13.84Z"/></svg>