<svg viewBox="0 0 16 16" xmlns="http://www.w3.org/2000/svg"><g clip-path="url(#clip0_335_207)"><path d="M4 8.7653V1.09585C4 0.490774 3.55219 0.0308874 3 0.0308874H1C0.447812 0.0308874 0 0.521593 0 1.09585V8.73551C0 9.34059 0.447812 9.80048 1 9.80048H3C3.55312 9.86109 4 9.37141 4 8.7653ZM15.0469 6.74838C15.0854 6.57401 15.1055 6.39499 15.1055 6.21282C15.1055 5.43549 14.748 4.7359 14.1905 4.31985C14.2037 4.21661 14.2105 4.11179 14.2105 4.00748C14.2105 3.24317 13.8649 2.54872 13.3096 2.12993C13.2334 0.941346 12.3261 0 11.222 0H9.58049C8.45736 0 7.34455 0.406467 6.44611 1.14407L5.3 2.08548C5.10359 2.24677 5.00012 2.49126 5.00012 2.74055C5.00012 3.1775 5.32169 3.56376 5.75106 3.56376C5.90772 3.56376 6.06575 3.51017 6.20044 3.39902L7.34606 2.45698C7.98606 1.93169 8.77981 1.64165 9.58044 1.64165H11.222C11.5486 1.64165 11.8148 1.93262 11.8148 2.29056C11.8148 2.41041 11.7801 2.45972 11.7801 2.61437C11.7801 3.53791 12.7104 3.22766 12.7104 4.00601C12.7104 4.3229 12.5107 4.38132 12.5107 4.76792C12.5107 5.2463 12.8497 5.51956 13.1226 5.57572C13.4023 5.63294 13.6054 5.90038 13.6054 6.21127C13.6054 6.65781 13.2494 6.66911 13.2494 7.20125C13.2494 7.63066 13.5526 7.99158 13.9482 8.02103C14.2563 8.01538 14.5 8.32699 14.5 8.63176C14.5 8.98891 14.2339 9.27998 13.9072 9.27998H9.60625C9.2175 9.27998 8.85625 9.6231 8.85625 10.071C8.85625 10.2093 8.88813 10.3476 8.95206 10.4723C9.5125 11.6315 9.75 12.7307 9.75 12.9841C9.75 13.2595 9.563 13.696 9.06063 13.696C8.66906 13.696 8.61469 13.665 8.28125 12.7348C7.50781 10.5805 6.35188 9.31388 5.75063 9.31388C5.31938 9.31388 5 9.6998 5 10.1354C5 10.3765 5.09634 10.6155 5.28175 10.7778C7.44063 12.669 6.60625 15.34 9.05937 15.34C10.4312 15.34 11.25 14.1415 11.25 12.9841C11.25 12.5492 11.0835 11.7784 10.7866 10.9524H13.9072C15.0344 10.9534 16 9.92615 16 8.63176C16 7.86813 15.6219 7.15587 15.0469 6.74838Z"/></g><defs><clipPath><rect/></clipPath></defs></svg>