<svg viewBox="0 0 16 14" xmlns="http://www.w3.org/2000/svg"><path d="M12.4 0C10.4125 0 8.8 1.76285 8.8 3.9375C8.8 6.11215 10.4125 7.875 12.4 7.875C14.3875 7.875 16 6.11133 16 3.9375C16 1.76367 14.3875 0 12.4 0ZM13.6 4.375H12.4C12.18 4.375 12 4.17812 12 3.9375V2.1875C12 1.94578 12.18 1.75 12.4 1.75C12.62 1.75 12.8 1.94578 12.8 2.1875V3.5H13.6C13.8211 3.5 14 3.69567 14 3.9375C14 4.17933 13.82 4.375 13.6 4.375ZM6.4 7H2.21275L5.39275 3.99766C5.6425 3.75977 5.67 3.34414 5.455 3.0707C5.2375 2.79727 4.8575 2.76719 4.6075 3.00234L0.2075 7.15859C0.075775 7.28437 0 7.46484 0 7.65625C0 7.84766 0.075775 8.02785 0.2078 8.15281L4.6078 12.3091C4.72 12.4168 4.86 12.4688 5 12.4688C5.16797 12.4688 5.33525 12.3919 5.454 12.2415C5.6704 11.9672 5.64305 11.5527 5.39227 11.3162L2.21275 8.3125H6.4C8.9375 8.3125 11 10.5692 11 13.3438C11 13.7061 11.2688 14 11.6 14C11.9313 14 12.2 13.7061 12.2 13.3438C12.2 9.84648 9.5975 7 6.4 7Z"/></svg>