<svg viewBox="0 0 16 16" xmlns="http://www.w3.org/2000/svg"><g clip-path="url(#clip0_335_112)"><path d="M12.4 0C10.4125 0 8.8 2.01343 8.8 4.49719C8.8 6.98095 10.4125 8.99438 12.4 8.99438C14.3875 8.99438 16 6.98001 16 4.49719C16 2.01437 14.3875 0 12.4 0ZM13.6 4.99687H12.4C12.18 4.99687 12 4.77202 12 4.49719V2.49844C12 2.22236 12.18 1.99875 12.4 1.99875C12.62 1.99875 12.8 2.22236 12.8 2.49844V3.9975H13.6C13.8211 3.9975 14 4.22099 14 4.49719C14 4.77339 13.82 4.99687 13.6 4.99687ZM6.4 7.995H2.21275L5.39275 4.56589C5.6425 4.29419 5.67 3.81949 5.455 3.50718C5.2375 3.19488 4.8575 3.16052 4.6075 3.42911L0.2075 8.17614C0.075775 8.3198 0 8.52592 0 8.74453C0 8.96314 0.075775 9.16895 0.2078 9.31168L4.6078 14.0587C4.72 14.1818 4.86 14.2411 5 14.2411C5.16797 14.2411 5.33525 14.1533 5.454 13.9815C5.6704 13.6683 5.64305 13.1948 5.39227 12.9247L2.21275 9.49406H6.4C8.9375 9.49406 11 12.0715 11 15.2405C11 15.6543 11.2688 15.99 11.6 15.99C11.9313 15.99 12.2 15.6543 12.2 15.2405C12.2 11.2461 9.5975 7.995 6.4 7.995Z"/></g><defs><clipPath><rect/></clipPath></defs></svg>