<svg viewBox="0 0 16 16" xmlns="http://www.w3.org/2000/svg"><path d="M12.4 1.25C10.4125 1.25 8.8 2.94989 8.8 5.04688C8.8 7.14386 10.4125 8.84375 12.4 8.84375C14.3875 8.84375 16 7.14307 16 5.04688C16 2.95068 14.3875 1.25 12.4 1.25ZM13.6 5.46875H12.4C12.18 5.46875 12 5.27891 12 5.04688V3.35938C12 3.12629 12.18 2.9375 12.4 2.9375C12.62 2.9375 12.8 3.12629 12.8 3.35938V4.625H13.6C13.8211 4.625 14 4.81368 14 5.04688C14 5.28007 13.82 5.46875 13.6 5.46875ZM6.4 8H2.21275L5.39275 5.10488C5.6425 4.87549 5.67 4.47471 5.455 4.21104C5.2375 3.94736 4.8575 3.91836 4.6075 4.14512L0.2075 8.15293C0.075775 8.27422 0 8.44824 0 8.63281C0 8.81738 0.075775 8.99114 0.2078 9.11164L4.6078 13.1195C4.72 13.2233 4.86 13.2734 5 13.2734C5.16798 13.2734 5.33525 13.1993 5.454 13.0543C5.6704 12.7898 5.64305 12.3901 5.39227 12.162L2.21275 9.26562H6.4C8.9375 9.26562 11 11.4417 11 14.1172C11 14.4666 11.2688 14.75 11.6 14.75C11.9313 14.75 12.2 14.4666 12.2 14.1172C12.2 10.7448 9.5975 8 6.4 8Z"/></svg>