<svg viewBox="0 0 16 16" xmlns="http://www.w3.org/2000/svg"><path d="M8 0C3.59 0 0 3.59 0 8C0 10.18 0.91 12.25 2.45 13.75H1.21C0.8 13.75 0.46 14.09 0.46 14.5C0.46 14.91 0.8 15.25 1.21 15.25H4.51C4.92 15.25 5.26 14.91 5.26 14.5V11.2C5.26 10.79 4.92 10.45 4.51 10.45C4.1 10.45 3.76 10.79 3.76 11.2V12.91C2.33 11.68 1.5 9.89 1.5 8C1.5 4.42 4.42 1.5 8 1.5C11.58 1.5 14.5 4.42 14.5 8C14.5 11.58 11.58 14.5 8 14.5C7.59 14.5 7.25 14.84 7.25 15.25C7.25 15.66 7.59 16 8 16C12.41 16 16 12.41 16 8C16 3.59 12.41 0 8 0Z"/><path d="M8 2.75C7.59 2.75 7.25 3.09 7.25 3.5V8C7.25 8.41 7.59 8.75 8 8.75H11.5C11.91 8.75 12.25 8.41 12.25 8C12.25 7.59 11.91 7.25 11.5 7.25H8.75V3.5C8.75 3.08 8.41 2.75 8 2.75Z"/></svg>