<svg xmlns="http://www.w3.org/2000/svg" viewBox="0 0 16 16"><path d="M6.988 9.009c-.661-.003-1.322-.001-1.983-.001l-.058.001A1.11 1.11 0 0 0 3.885 10.1c-.002.679-.004 1.358.001 2.037.002.335.14.613.394.831.211.181.46.263.736.263h.983c.321 0 .642.001.962-.001.069 0 .139-.005.207-.015.52-.072.936-.541.939-1.067.004-.686.002-1.372 0-2.058a.996.996 0 0 0-.162-.55 1.086 1.086 0 0 0-.957-.531zm-.012 3.308c-.378-.004-.755-.001-1.133-.001h-.825c-.083 0-.151-.029-.19-.104a.231.231 0 0 1-.026-.103c-.002-.332-.001-.664-.001-.996v-.987c0-.124.084-.21.208-.21h1.983c.125 0 .209.086.209.21 0 .655-.002 1.311.002 1.966 0 .11-.077.226-.227.225zm1.102-9.143A1.482 1.482 0 0 0 6.61 2h-3.1c-.229 0-.451.039-.657.144-.549.28-.844.73-.85 1.346C1.994 4.536 2 5.583 2.002 6.63a1.48 1.48 0 0 0 1.504 1.485h3.108a1.485 1.485 0 0 0 1.499-1.474c.002-1.055.001-2.111-.001-3.166a1.454 1.454 0 0 0-.034-.301zm-.877 3.438a.566.566 0 0 1-.591.587L3.506 7.2a.57.57 0 0 1-.585-.497c-.005-.03-.005-.061-.005-.091V3.504c0-.287.171-.507.45-.573a.608.608 0 0 1 .141-.014h3.104a.57.57 0 0 1 .59.592v3.103zm2.788 1.504c.257.002.514 0 .771 0h.775a.969.969 0 0 0 .981-.95c.006-.539.003-1.077 0-1.616a.901.901 0 0 0-.167-.523.958.958 0 0 0-.818-.427c-.439-.002-.878 0-1.316 0-.093 0-.186-.002-.279.002a.969.969 0 0 0-.935.975v1.575c0 .194.053.373.164.533a.961.961 0 0 0 .824.431zm-.077-2.511c0-.072.017-.089.088-.089l1.508-.005c.083 0 .097.014.097.097v1.508c0 .075-.016.092-.089.092h-1.512c-.074 0-.091-.017-.091-.091l-.001-1.512zM14 10.238a1.16 1.16 0 0 0-.197-.648 1.246 1.246 0 0 0-1.091-.586h-2.416a1.26 1.26 0 0 0-1.29 1.253c-.003.829-.003 1.658 0 2.487.002.395.163.721.467.972.236.195.511.284.817.283h1.212c.404 0 .808.002 1.212-.002.103-.001.209-.011.309-.034.564-.128.975-.634.977-1.202.003-.84.003-1.681 0-2.523zm-.911 2.478c0 .185-.104.323-.276.362a.484.484 0 0 1-.107.009h-2.408c-.202 0-.342-.11-.376-.295-.005-.024-.005-.05-.005-.075v-2.432c0-.22.148-.369.368-.369h2.433c.222 0 .371.149.371.371v2.429z"/></svg>