<svg xmlns="http://www.w3.org/2000/svg" viewBox="0 0 16 16"><path d="M2.745 13.534a.74.74 0 01-.301-.093.463.463 0 01-.139-.509l.903-2.848a4.293 4.293 0 01-.972-2.732c0-2.686 2.593-4.885 5.766-4.885s5.766 2.2 5.766 4.885-2.593 4.885-5.766 4.885a6.36 6.36 0 01-2.2-.371l-2.825 1.598a.452.452 0 01-.232.07zM8.001 3.392c-2.663 0-4.839 1.783-4.839 3.959 0 .833.324 1.644.926 2.315a.443.443 0 01.093.44l-.857 2.2 2.2-1.366a.466.466 0 01.394-.023 5.647 5.647 0 002.084.394c2.663 0 4.839-1.783 4.839-3.959s-2.177-3.96-4.84-3.96z"/></svg>