<svg viewBox="0 0 16 16" xmlns="http://www.w3.org/2000/svg"><path d="M13.25 16H2.75C1.23 16 0 14.77 0 13.25V2.75C0 1.23 1.23 0 2.75 0H13.25C14.77 0 16 1.23 16 2.75V8.5C16 10.02 14.76 11.25 13.25 11.25H11.12C11.01 11.25 10.93 11.37 10.9 11.47C10.48 12.72 9.32 13.56 8 13.56C6.68 13.56 5.51 12.72 5.1 11.47C5.07 11.37 4.99 11.25 4.88 11.25H2.75C2.3 11.25 1.87 11.14 1.5 10.95V13.25C1.5 13.94 2.06 14.5 2.75 14.5H13.25C13.94 14.5 14.5 13.94 14.5 13.25V12.75C14.5 12.34 14.84 12 15.25 12C15.66 12 16 12.33 16 12.75V13.25C16 14.77 14.77 16 13.25 16ZM1.5 8.5C1.5 9.19 2.06 9.75 2.75 9.75H4.88C5.63 9.75 6.27 10.24 6.52 10.99C6.73 11.63 7.33 12.05 8 12.05C8.67 12.05 9.27 11.62 9.48 10.99C9.73 10.24 10.38 9.75 11.12 9.75H13.25C13.94 9.75 14.5 9.19 14.5 8.5V2.75C14.5 2.06 13.94 1.5 13.25 1.5H2.75C2.06 1.5 1.5 2.06 1.5 2.75V8.5Z"/></svg>