<svg xmlns="http://www.w3.org/2000/svg" viewBox="0 0 16 16"><path d="M9.989 8.116c.257.002.514 0 .771 0h.775a.969.969 0 0 0 .981-.95c.006-.539.003-1.078 0-1.616a.901.901 0 0 0-.167-.523.958.958 0 0 0-.818-.427c-.439-.002-.878 0-1.316 0-.094 0-.189-.002-.283.002a.969.969 0 0 0-.93.975v1.575c0 .194.053.373.164.533a.958.958 0 0 0 .823.431zM14 10.239c0-.234-.066-.454-.196-.649a1.248 1.248 0 0 0-1.095-.587h-2.412a1.255 1.255 0 0 0-1.291 1.252c-.003.83-.004 1.661.001 2.491.002.395.165.72.47.971.235.194.51.281.813.281h1.212c.404 0 .808.002 1.212-.002.103-.001.209-.011.309-.034.564-.128.976-.633.977-1.201.003-.839.003-1.681 0-2.522zm-6.071-.725a1.094 1.094 0 0 0-.947-.506c-.657-.002-1.314-.001-1.971 0-.022 0-.044 0-.067.002a1.11 1.11 0 0 0-1.06 1.092c-.002.679-.004 1.358.001 2.037.002.333.139.611.392.828a1.1 1.1 0 0 0 .74.265h.979c.325 0 .65.001.975-.001a1.107 1.107 0 0 0 1.137-1.087c.003-.683.002-1.366 0-2.05a1.026 1.026 0 0 0-.179-.58zm.15-6.336A1.482 1.482 0 0 0 6.61 2h-3.1c-.229 0-.451.039-.657.143-.549.28-.845.729-.85 1.345-.01 1.049-.003 2.098-.001 3.146A1.482 1.482 0 0 0 3.51 8.116c1.033.001 2.067.001 3.1-.001a1.485 1.485 0 0 0 1.503-1.477c.001-1.051.001-2.103-.001-3.154a1.5 1.5 0 0 0-.033-.306zm-.878 3.433a.566.566 0 0 1-.593.588l-3.1.001a.57.57 0 0 1-.587-.499c-.004-.029-.004-.059-.004-.088V3.501a.567.567 0 0 1 .588-.585h3.108c.342 0 .587.248.587.59l.001 3.105z"/></svg>