<svg viewBox="0 0 16 16" xmlns="http://www.w3.org/2000/svg"><g clip-path="url(#clip0_497_7132)"><path d="M7.99888 0C8.27773 0 8.53234 0.157837 8.65358 0.406467L10.7329 4.65392L15.3794 5.33638C15.6522 5.37546 15.8765 5.56487 15.9644 5.82342C16.0493 6.08497 15.9796 6.37058 15.7856 6.55999L12.4151 9.87305L13.2122 14.548C13.2577 14.8186 13.1456 15.0952 12.9182 15.2545C12.6939 15.4139 12.3696 15.4349 12.1514 15.3056L7.99888 13.1049L3.82213 15.3056C3.6039 15.4349 3.30686 15.4139 3.07953 15.2545C2.85523 15.0952 2.74309 14.8186 2.76127 14.548L3.58268 9.87305L0.215517 6.55999C0.019713 6.37058 -0.0496973 6.08497 0.0363837 5.82342C0.122162 5.56487 0.348579 5.37546 0.621068 5.33638L5.2649 4.65392L7.34418 0.406467C7.46845 0.157807 7.72002 0 7.99888 0ZM7.99888 2.37356L6.40759 5.628C6.3015 5.84146 6.0954 5.99178 5.85898 6.02785L2.27267 6.55097L4.87692 9.10942C5.04363 9.27478 5.11941 9.51228 5.08 9.74378L4.46774 13.3394L7.65637 11.6498C7.87157 11.5356 8.12921 11.5356 8.34138 11.6498L11.53 13.3394L10.9178 9.74378C10.8783 9.51228 10.9572 9.27478 11.1239 9.10942L13.7275 6.55097L10.1418 6.02785C9.90236 5.99178 9.69625 5.84146 9.59319 5.628L7.99888 2.37356Z"/></g><defs><clipPath><rect/></clipPath></defs></svg>