<svg viewBox="0 0 16 16" xmlns="http://www.w3.org/2000/svg"><path d="M14.54 2.52L15.78 1.28C16.07 0.99 16.07 0.51 15.78 0.22C15.49 -0.07 15.01 -0.07 14.72 0.22L0.22 14.72C-0.07 15.01 -0.07 15.49 0.22 15.78C0.37 15.93 0.56 16 0.75 16C0.94 16 1.13 15.93 1.28 15.78L4.19 12.87C4.98 13.19 5.82 13.36 6.68 13.36C7.09 13.36 7.43 13.02 7.43 12.61C7.43 12.2 7.09 11.86 6.68 11.86C6.23 11.86 5.79 11.8 5.37 11.69L13.46 3.6C14.12 4.49 14.5 5.55 14.5 6.68C14.5 8.4 13.65 10 12.22 10.97L6.83 14.62C6.49 14.85 6.4 15.32 6.63 15.66C6.78 15.87 7.01 15.99 7.25 15.99C7.4 15.99 7.54 15.95 7.67 15.86L13.06 12.21C14.9 10.97 16 8.9 16 6.68C16 5.15 15.49 3.7 14.54 2.52Z"/><path d="M2.19 11.3C2.36 11.3 2.54 11.24 2.68 11.12C2.99 10.85 3.03 10.38 2.76 10.06C1.95 9.12 1.5 7.92 1.5 6.68C1.5 3.82 3.82 1.5 6.68 1.5H9.32C10 1.5 10.65 1.63 11.27 1.88C11.65 2.04 12.09 1.85 12.25 1.47C12.41 1.09 12.22 0.65 11.84 0.49C11.04 0.16 10.19 0 9.32 0H6.68C3 0 0 3 0 6.68C0 8.28 0.57 9.83 1.62 11.04C1.77 11.21 1.98 11.3 2.19 11.3Z"/></svg>