<svg viewBox="0 0 16 16" xmlns="http://www.w3.org/2000/svg"><path d="M10 14.02H2C0.9 14.02 0 13.12 0 12.02V3.97998C0 2.87998 0.9 1.97998 2 1.97998H10C11.1 1.97998 12 2.87998 12 3.97998C12 4.38998 11.66 4.72998 11.25 4.72998C10.84 4.72998 10.5 4.38998 10.5 3.97998C10.5 3.69998 10.28 3.47998 10 3.47998H2C1.72 3.47998 1.5 3.69998 1.5 3.97998V12.02C1.5 12.3 1.72 12.52 2 12.52H10C10.28 12.52 10.5 12.3 10.5 12.02V6.38998C10.5 6.08998 10.68 5.81998 10.96 5.69998L13.57 4.58998C14.11 4.35998 14.73 4.41998 15.22 4.73998C15.71 5.06998 16 5.60998 16 6.19998V9.78998C16 10.38 15.71 10.92 15.22 11.25C14.73 11.58 14.11 11.63 13.57 11.4L12 10.74V12.02C12 13.12 11.1 14.02 10 14.02ZM12 9.10998L14.15 10.03C14.26 10.08 14.34 10.04 14.39 10.01C14.43 9.97998 14.5 9.91998 14.5 9.79998V6.19998C14.5 6.07998 14.43 6.01998 14.39 5.98998C14.35 5.95998 14.26 5.91998 14.15 5.96998L12 6.88998V9.10998Z"/></svg>