<svg xmlns="http://www.w3.org/2000/svg" viewBox="0 0 16 16"><path d="M14.484 5.628a.562.562 0 00-.717-.331c-.276.11-.441.497-.331.773.193.497.304 1.103.331 1.655H11.34c-.304 0-.552.166-.552.469v.165c0 1.407-1.186 2.427-2.786 2.427a.552.552 0 00-.551.552v2.456a5.533 5.533 0 01-1.876-.497c-.276-.138-.607 0-.745.276s0 .607.276.745c.911.358 1.876.58 2.897.58a6.899 6.899 0 006.896-6.897c0-.801-.138-1.601-.415-2.373zm-5.931 8.138v-1.904c1.821-.22 3.172-1.38 3.311-3.035h1.876c-.304 2.484-2.484 4.69-5.187 4.939zM2.181 11.09c.083 0 .138-.028.22-.055.276-.111.414-.386.276-.662a4.972 4.972 0 01-.414-1.545h2.345c.22 0 .442-.22.524-.441l.055-.165c.028-.055.028-.138.028-.193a2.778 2.778 0 012.786-2.786.553.553 0 00.552-.551V2.235a5.287 5.287 0 012.042.579c.276.138.607.027.745-.249s.028-.607-.248-.745a7.05 7.05 0 00-3.09-.717A6.9 6.9 0 001.105 8c0 .965.193 1.903.58 2.759a.527.527 0 00.496.331zM7.45 2.235v1.931c-1.738.248-3.145 1.627-3.311 3.558H2.236c.193-3.034 2.4-5.214 5.214-5.489zm7.31-.442a.535.535 0 00-.773-.028L1.298 13.435a.535.535 0 00-.028.773c.083.137.249.192.386.192s.276-.055.386-.138l12.69-11.669c.22-.22.22-.579.028-.8z"/></svg>