<svg viewBox="0 0 16 16" xmlns="http://www.w3.org/2000/svg"><g clip-path="url(#clip0)"><path d="M0.75 12.46C1.16 12.46 1.5 12.12 1.5 11.71V3.98C1.5 3.7 1.72 3.48 2 3.48H9.73C10.14 3.48 10.48 3.14 10.48 2.73C10.48 2.32 10.14 1.98 9.73 1.98H2C0.9 1.98 0 2.88 0 3.98V11.71C0 12.13 0.34 12.46 0.75 12.46Z"/><path d="M15.22 4.74C14.73 4.42 14.11 4.36 13.57 4.59L12 5.26V5.06L15.78 1.28C16.07 0.990002 16.07 0.510002 15.78 0.220002C15.49 -0.0699975 15.01 -0.0699975 14.72 0.220002L0.22 14.72C-0.07 15.01 -0.07 15.49 0.22 15.78C0.37 15.93 0.56 16 0.75 16C0.94 16 1.13 15.93 1.28 15.78L3.04 14.02H10C11.1 14.02 12 13.12 12 12.02V10.74L13.57 11.41C14.11 11.64 14.73 11.58 15.22 11.26C15.71 10.93 16 10.38 16 9.79V6.2C16 5.61 15.71 5.07 15.22 4.74ZM10 12.52H4.54L10.5 6.56V12.02C10.5 12.3 10.27 12.52 10 12.52ZM14.5 9.79C14.5 9.91 14.43 9.97 14.39 10C14.35 10.03 14.27 10.07 14.15 10.02L12 9.11V6.89L14.15 5.97C14.26 5.92 14.34 5.96 14.39 5.99C14.43 6.02 14.5 6.08 14.5 6.2V9.79Z"/></g><defs><clipPath><rect/></clipPath></defs></svg>