<svg viewBox="0 0 16 16" xmlns="http://www.w3.org/2000/svg"><path d="M4.13991 15.71C3.77991 15.71 3.41991 15.6 3.10991 15.37C2.51991 14.94 2.25991 14.21 2.44991 13.5L3.29991 10.31C3.32991 10.22 3.28991 10.11 3.21991 10.05L0.649911 7.97001C0.0799111 7.51001 -0.140089 6.76001 0.0899111 6.07001C0.309911 5.38001 0.929911 4.90001 1.65991 4.86001L4.95991 4.68001C5.05991 4.67001 5.13991 4.61001 5.17991 4.52001L6.36991 1.44001C6.62991 0.760007 7.26991 0.320007 7.99991 0.320007C8.72991 0.320007 9.36991 0.760007 9.62991 1.44001L10.8199 4.52001C10.8599 4.61001 10.9399 4.67001 11.0399 4.68001L14.3399 4.86001C15.0699 4.90001 15.6899 5.37001 15.9099 6.07001C16.1399 6.76001 15.9199 7.51001 15.3499 7.97001L12.7799 10.05C12.6999 10.11 12.6699 10.21 12.6999 10.31L13.2799 12.5C13.3899 12.9 13.1499 13.31 12.7499 13.42C12.3499 13.52 11.9399 13.29 11.8299 12.89L11.2499 10.7C11.0699 10.03 11.2999 9.32001 11.8399 8.89001L14.4099 6.81001C14.5199 6.72001 14.5099 6.61001 14.4899 6.54001C14.4699 6.47001 14.4099 6.37001 14.2699 6.37001L10.9699 6.19001C10.2799 6.15001 9.67991 5.71001 9.42991 5.07001L8.22991 1.98001C8.12991 1.72001 7.86991 1.71001 7.75991 1.98001L6.57991 5.07001C6.32991 5.71001 5.72991 6.15001 5.03991 6.19001L1.73991 6.37001C1.59991 6.38001 1.53991 6.47001 1.51991 6.54001C1.48991 6.61001 1.48991 6.72001 1.59991 6.81001L4.16991 8.89001C4.69991 9.32001 4.93991 10.03 4.75991 10.7L3.89991 13.89C3.85991 14.03 3.92991 14.11 3.98991 14.16C4.04991 14.21 4.14991 14.24 4.26991 14.17L7.03991 12.37C7.61991 11.99 8.36991 11.99 8.93991 12.37L11.8399 14.25C12.1899 14.48 12.2899 14.94 12.0599 15.29C11.8299 15.64 11.3699 15.74 11.0199 15.51L8.11991 13.63C8.03991 13.58 7.92991 13.58 7.84991 13.63L5.07991 15.43C4.79991 15.61 4.46991 15.71 4.13991 15.71Z"/></svg>