<svg viewBox="0 0 16 16" xmlns="http://www.w3.org/2000/svg"><g clip-path="url(#clip0_497_7120)"><path d="M11.7401 10.75C11.5501 10.75 11.3601 10.68 11.2101 10.53C10.9201 10.24 10.9201 9.76 11.2101 9.47C11.5401 9.14 11.7201 8.71 11.7201 8.25C11.7201 7.79 11.5401 7.35 11.2101 7.03C10.9201 6.74 10.9201 6.26 11.2101 5.97C11.5001 5.68 11.9801 5.68 12.2701 5.97C12.8801 6.58 13.2201 7.39 13.2201 8.25C13.2201 9.11 12.8801 9.92 12.2701 10.53C12.1201 10.68 11.9301 10.75 11.7401 10.75Z"/><path d="M13.7101 12.72C13.5201 12.72 13.3301 12.65 13.1801 12.5C12.8901 12.21 12.8901 11.73 13.1801 11.44C14.0301 10.59 14.5001 9.46 14.5001 8.25C14.5001 7.04 14.0301 5.91 13.1801 5.06C12.8901 4.77 12.8901 4.29 13.1801 4C13.4701 3.71 13.9501 3.71 14.2401 4C15.3701 5.13 16.0001 6.64 16.0001 8.25C16.0001 9.86 15.3801 11.36 14.2401 12.5C14.0901 12.65 13.9001 12.72 13.7101 12.72Z"/><path d="M6.00014 8.75C3.79014 8.75 2.00014 6.96 2.00014 4.75C2.00014 2.54 3.79014 0.75 6.00014 0.75C8.21014 0.75 10.0001 2.54 10.0001 4.75C10.0001 6.96 8.21014 8.75 6.00014 8.75ZM6.00014 2.25C4.62014 2.25 3.50014 3.37 3.50014 4.75C3.50014 6.13 4.62014 7.25 6.00014 7.25C7.38014 7.25 8.50014 6.13 8.50014 4.75C8.50014 3.37 7.38014 2.25 6.00014 2.25Z"/><path d="M11.2501 16C10.9201 16 10.6201 15.78 10.5301 15.44L9.83014 12.82C9.61014 12.01 8.88014 11.45 8.04014 11.45H3.97014C3.13014 11.45 2.40014 12.01 2.18014 12.82L1.48014 15.44C1.37014 15.84 0.970135 16.08 0.560135 15.97C0.160135 15.86 -0.0798645 15.45 0.0301355 15.05L0.730136 12.43C1.12014 10.97 2.45014 9.95 3.97014 9.95H8.03014C9.54014 9.95 10.8701 10.97 11.2701 12.43L11.9701 15.05C12.0801 15.45 11.8401 15.86 11.4401 15.97C11.3801 15.99 11.3101 16 11.2501 16Z"/></g><defs><clipPath><rect/></clipPath></defs></svg>