<svg viewBox="0 0 16 16" xmlns="http://www.w3.org/2000/svg"><path d="M10.14 16C9.65997 16 9.17997 15.9 8.71997 15.68C6.91997 14.81 5.26997 13.63 3.81997 12.18C2.36997 10.73 1.18997 9.08 0.319966 7.28C-0.350034 5.89 0.0599658 4.18 1.28997 3.21L1.87997 2.75C2.71997 2.09 3.91997 2.16 4.66997 2.89C5.11997 3.34 5.54997 3.82 5.91997 4.33C6.39997 4.98 6.45997 5.82 6.08997 6.63L5.74997 7.39C5.57997 7.74 5.63997 8.16 5.89997 8.45C6.14997 8.74 6.41997 9.03 6.69997 9.3C6.97997 9.58 7.25997 9.84 7.54997 10.1C7.83997 10.36 8.25997 10.42 8.61997 10.25L9.49997 9.84C10.21 9.51 11.05 9.59 11.68 10.06C12.19 10.44 12.67 10.86 13.12 11.31C13.88 12.08 13.91 13.27 13.19 14.19L12.8 14.69C12.14 15.54 11.15 16 10.14 16ZM3.20997 3.79C3.06997 3.79 2.92997 3.84 2.80997 3.93L2.21997 4.39C1.53997 4.92 1.30997 5.86 1.67997 6.62C2.47997 8.27 3.55997 9.78 4.88997 11.11C6.21997 12.44 7.72997 13.52 9.37997 14.32C10.14 14.68 11.08 14.46 11.61 13.78L12 13.28C12.25 12.96 12.27 12.6 12.04 12.37C11.65 11.97 11.22 11.6 10.78 11.27C10.59 11.13 10.34 11.1 10.12 11.2L9.23997 11.61C8.33997 12.03 7.28997 11.87 6.54997 11.22C6.23997 10.95 5.92997 10.66 5.62997 10.36C5.32997 10.06 5.03997 9.75 4.76997 9.44C4.11997 8.7 3.95997 7.64 4.37997 6.75L4.73997 6C4.87997 5.69 4.87997 5.43 4.72997 5.22C4.39997 4.77 4.02997 4.35 3.62997 3.96C3.51997 3.85 3.35997 3.79 3.20997 3.79Z"/><path d="M9.73997 8.75C9.32997 8.75 8.98997 8.41 8.98997 8C8.98997 7.45 8.53997 7.01 7.99997 7.01C7.58997 7.01 7.24997 6.67 7.24997 6.26C7.24997 5.85 7.58997 5.51 7.99997 5.51C9.37997 5.51 10.49 6.63 10.49 8C10.49 8.41 10.16 8.75 9.73997 8.75Z"/><path d="M12.5 8.75C12.09 8.75 11.75 8.41 11.75 8C11.75 5.93 10.07 4.25 7.99997 4.25C7.58997 4.25 7.24997 3.91 7.24997 3.5C7.24997 3.09 7.58997 2.75 7.99997 2.75C10.89 2.75 13.25 5.1 13.25 8C13.25 8.41 12.91 8.75 12.5 8.75Z"/><path d="M15.25 8.75C14.84 8.75 14.5 8.41 14.5 8C14.5 4.42 11.58 1.5 7.99997 1.5C7.58997 1.5 7.24997 1.16 7.24997 0.75C7.24997 0.34 7.58997 0 7.99997 0C12.41 0 16 3.59 16 8C16 8.41 15.66 8.75 15.25 8.75Z"/></svg>