<svg viewBox="0 0 16 16" xmlns="http://www.w3.org/2000/svg"><path d="M15.774 13.0312L11.2028 9.66141V6.69846L14.0035 5.49141V10.0894C14.0035 10.401 14.2724 10.6538 14.6037 10.6538C14.935 10.6538 15.2039 10.4022 15.2039 10.0894V5.19817C15.2039 4.87625 15.0319 4.58042 14.744 4.40641C14.4557 4.23225 14.0968 4.20909 13.7867 4.3432L11.2028 5.45684V5.01005C11.2028 4.17878 10.4864 3.50506 9.60236 3.50506L2.84806 3.48389L0.970304 2.12025C0.708733 1.92809 0.332883 1.9707 0.127853 2.21615C-0.0765018 2.46168 -0.0310396 2.81652 0.22958 3.00865L15.011 13.8987C15.1438 14 15.2739 14.04 15.3814 14.04C15.5596 14.04 15.7355 13.9657 15.854 13.8238C16.0816 13.5791 16.0341 13.224 15.774 13.0312ZM10.0025 8.77723L4.38097 4.6338H9.60236C9.82332 4.6338 10.0025 4.80222 10.0025 5.01005V8.77723ZM9.60236 11.4063H2.40044C2.17983 11.4063 2.00033 11.2375 2.00033 11.03V5.73668L0.815762 4.86425C0.810511 4.91364 0.800008 4.96067 0.800008 5.01005V11.03C0.800008 11.8613 1.51645 12.535 2.40044 12.535H9.60236C10.0195 12.535 10.3961 12.3813 10.6809 12.1355L9.67338 11.3929C9.64988 11.3969 9.62737 11.4063 9.60236 11.4063Z"/></svg>