<svg viewBox="0 0 16 16" xmlns="http://www.w3.org/2000/svg"><g clip-path="url(#clip0_497_7124)"><path d="M11.91 15.98C11.36 15.98 10.81 15.86 10.29 15.61C8.16001 14.58 6.22001 13.19 4.51001 11.48C2.80001 9.77002 1.41001 7.82002 0.380006 5.69002C-0.389994 4.10002 0.0800061 2.14002 1.50001 1.03002L2.20001 0.490025C3.14001 -0.239976 4.49001 -0.179976 5.33001 0.650024C5.86001 1.17002 6.35001 1.74002 6.80001 2.34002C7.34001 3.07002 7.41001 4.02002 6.98001 4.93002L6.56001 5.83002C6.34001 6.30002 6.42001 6.86002 6.77001 7.25002C7.08001 7.59002 7.39001 7.93003 7.73001 8.27003C8.05001 8.60003 8.39001 8.92002 8.74001 9.22003C9.13001 9.56003 9.68001 9.64003 10.16 9.42002L11.2 8.93003C12 8.56003 12.93 8.65003 13.64 9.18003C14.24 9.62002 14.81 10.12 15.34 10.65C16.19 11.52 16.22 12.85 15.41 13.89L14.95 14.48C14.2 15.45 13.07 15.98 11.91 15.98ZM3.68001 1.48002C3.48001 1.48002 3.29001 1.54002 3.12001 1.67002L2.42001 2.21002C1.55001 2.89002 1.26001 4.08002 1.73001 5.04002C2.69001 7.02002 3.98001 8.83002 5.57001 10.42C7.16001 12.01 8.97001 13.3 10.95 14.26C11.91 14.73 13.1 14.44 13.77 13.57L14.23 12.98C14.57 12.54 14.59 12.03 14.27 11.71C13.8 11.23 13.29 10.79 12.75 10.39C12.48 10.19 12.13 10.16 11.83 10.3L10.79 10.79C9.77001 11.26 8.58001 11.09 7.74001 10.35C7.37001 10.02 7.01001 9.68003 6.66001 9.33002C6.31001 8.97003 5.97001 8.61002 5.64001 8.24002C4.90001 7.41002 4.73001 6.21002 5.20001 5.20002L5.62001 4.30002C5.75001 4.01002 5.86001 3.59002 5.59001 3.24002C5.19001 2.70002 4.75001 2.19002 4.27001 1.73002C4.11001 1.56002 3.90001 1.48002 3.68001 1.48002Z"/></g><defs><clipPath><rect/></clipPath></defs></svg>