<svg viewBox="0 0 18 16" xmlns="http://www.w3.org/2000/svg"><path d="M14.6447 9.20645C13.9347 8.68645 12.9947 8.58645 12.2047 8.95645L11.1647 9.44645C10.6947 9.66645 10.1347 9.58645 9.74472 9.24645C9.58472 9.09645 9.42472 8.93645 9.26472 8.79645L16.7747 1.28645C17.0647 0.996446 17.0647 0.516446 16.7747 0.226446C16.4847 -0.0635539 16.0047 -0.0635539 15.7147 0.226446L1.21472 14.7264C0.924723 15.0164 0.924723 15.4964 1.21472 15.7864C1.37472 15.9164 1.56472 15.9964 1.75472 15.9964C1.94472 15.9964 2.13472 15.9264 2.28472 15.7764L6.06472 11.9964C7.64472 13.4764 9.39472 14.6964 11.2947 15.6164C11.8147 15.8664 12.3647 15.9864 12.9147 15.9864C14.0647 15.9864 15.2047 15.4664 15.9547 14.5064L16.4147 13.9164C17.2247 12.8764 17.1947 11.5464 16.3447 10.6764C15.8047 10.1364 15.2347 9.63645 14.6447 9.20645ZM15.2247 12.9964L14.7647 13.5864C14.0947 14.4464 12.9047 14.7364 11.9447 14.2764C10.1947 13.4264 8.58472 12.3064 7.12472 10.9464L8.20472 9.85645C8.38472 10.0264 8.55472 10.1964 8.74472 10.3664C9.58472 11.1064 10.7747 11.2764 11.7847 10.8064L12.8247 10.3164C13.1247 10.1764 13.4747 10.2164 13.7447 10.4064C14.2747 10.7964 14.7847 11.2364 15.2547 11.7264C15.5847 12.0464 15.5647 12.5564 15.2247 12.9964Z"/><path d="M3.78472 9.54645C3.93472 9.73645 4.15472 9.83645 4.37472 9.83645C4.53472 9.83645 4.70472 9.78645 4.83472 9.67645C5.16472 9.41645 5.21472 8.94645 4.96472 8.62645C4.09472 7.50645 3.34472 6.30645 2.73472 5.05645C2.27472 4.09645 2.56472 2.91645 3.42472 2.23645L4.12472 1.69645C4.47472 1.41645 4.97472 1.44645 5.27472 1.73645C5.75472 2.20645 6.20472 2.71645 6.59472 3.25645C6.86472 3.61645 6.75472 4.03645 6.62472 4.31645L6.20472 5.21645C5.96472 5.73645 5.89472 6.29645 5.98472 6.85645C6.05472 7.26645 6.44472 7.54645 6.84472 7.47645C7.25472 7.40645 7.53472 7.02645 7.46472 6.61645C7.42472 6.35645 7.45472 6.08645 7.56472 5.84645L7.98472 4.94645C8.41472 4.03645 8.34472 3.09645 7.80472 2.35645C7.36472 1.76645 6.86472 1.19645 6.32472 0.666446C5.48472 -0.153554 4.14472 -0.223554 3.20472 0.516446L2.50472 1.05645C1.08472 2.15645 0.614723 4.11645 1.38472 5.71645C2.04472 7.05645 2.84472 8.34645 3.78472 9.54645Z"/></svg>