<svg viewBox="0 0 16 16" xmlns="http://www.w3.org/2000/svg"><path d="M14.5031 13.4688C14.8219 13.7625 14.8219 14.2375 14.5031 14.5031C14.2375 14.8219 13.7625 14.8219 13.4688 14.5031L13.1031 14.1625C11.7156 15.3094 9.94062 16 8 16C6.05938 16 4.28437 15.3094 2.89812 14.1625L2.53031 14.5031C2.2375 14.8219 1.7625 14.8219 1.46969 14.5031C1.17687 14.2375 1.17687 13.7625 1.46969 13.4688L1.8375 13.1031C0.69 11.7156 0 9.94062 0 8C0 6.05938 0.69 4.28437 1.8375 2.89812L1.46969 2.53031C1.17687 2.2375 1.17687 1.7625 1.46969 1.46969C1.7625 1.17687 2.2375 1.17687 2.53031 1.46969L2.89812 1.8375C4.28437 0.69 6.05938 0 8 0C9.94062 0 11.7156 0.69 13.1031 1.8375L13.4688 1.46969C13.7625 1.17687 14.2375 1.17687 14.5031 1.46969C14.8219 1.7625 14.8219 2.2375 14.5031 2.53031L14.1625 2.89812C15.3094 4.28437 16 6.05938 16 8C16 9.94062 15.3094 11.7156 14.1625 13.1031L14.5031 13.4688ZM9.525 10.5844C9.07812 10.85 8.55625 11 8 11C7.44375 11 6.92187 10.85 6.475 10.5844L3.96563 13.0969C5.07188 13.975 6.475 14.5 8 14.5C9.525 14.5 10.9281 13.975 12.0344 13.0969L9.525 10.5844ZM14.5 8C14.5 6.475 13.975 5.07188 13.0969 3.96563L10.5844 6.475C10.85 6.92187 11 7.44375 11 8C11 8.55625 10.85 9.07812 10.5844 9.525L13.0969 12.0344C13.975 10.9281 14.5 9.525 14.5 8ZM8 1.5C6.475 1.5 5.07188 2.025 3.96563 2.90406L6.475 5.41563C6.92187 5.15 7.44375 5 8 5C8.55625 5 9.07812 5.15 9.525 5.41563L12.0344 2.90406C10.9281 2.025 9.525 1.5 8 1.5ZM5.41563 9.525C5.15 9.07812 5 8.55625 5 8C5 7.44375 5.15 6.92187 5.41563 6.475L2.90406 3.96563C2.025 5.07188 1.5 6.475 1.5 8C1.5 9.525 2.025 10.9281 2.90406 12.0344L5.41563 9.525ZM8 6.5C7.17188 6.5 6.5 7.17188 6.5 8C6.5 8.82812 7.17188 9.5 8 9.5C8.82812 9.5 9.5 8.82812 9.5 8C9.5 7.17188 8.82812 6.5 8 6.5Z"/></svg>