<svg viewBox="0 0 16 16" xmlns="http://www.w3.org/2000/svg"><path d="M11.8331 16C11.273 16 10.7128 15.8716 10.176 15.6264C8.07546 14.6106 6.14995 13.233 4.45783 11.5401C2.7657 9.84715 1.38867 7.92074 0.373394 5.8192C-0.408483 4.19634 0.069979 2.19987 1.50536 1.06737L2.19388 0.530313C3.17415 -0.240252 4.57452 -0.158526 5.44976 0.693767C5.9749 1.21915 6.4767 1.77956 6.90848 2.375C7.46863 3.13389 7.53865 4.11461 7.10687 5.0603L6.7101 5.94762C6.51171 6.35626 6.58173 6.84662 6.88514 7.1852C7.17689 7.52378 7.49197 7.86236 7.81873 8.17759C8.14548 8.5045 8.47224 8.80806 8.81066 9.11161C9.14909 9.41517 9.63922 9.48522 10.0593 9.28674L11.0863 8.80806C11.9148 8.42277 12.8951 8.51617 13.6303 9.06491C14.2255 9.50857 14.7973 9.99893 15.3107 10.5243C16.1976 11.4233 16.2327 12.8127 15.3924 13.8868L14.9373 14.4705C14.1671 15.4629 13.0118 16 11.8331 16ZM3.74597 1.74454C3.58259 1.74454 3.41921 1.80291 3.27918 1.90799L2.59066 2.44505C1.79711 3.06384 1.5287 4.16131 1.96049 5.04863C2.89407 6.97504 4.15441 8.738 5.70649 10.2908C7.25858 11.8436 9.02072 13.1045 10.9462 14.0386C11.8331 14.4705 12.9301 14.202 13.5486 13.4081L14.0037 12.8243C14.2955 12.4507 14.3188 12.0304 14.0504 11.7619C13.5953 11.2949 13.1051 10.8629 12.58 10.4776C12.3583 10.3142 12.0665 10.2791 11.8215 10.3959L10.7945 10.8746C9.74425 11.3649 8.51892 11.1781 7.65535 10.4192C7.29359 10.104 6.93182 9.76542 6.58173 9.41517C6.23164 9.06491 5.89321 8.70298 5.57813 8.34105C4.81959 7.47708 4.63287 6.2395 5.123 5.20041L5.53145 4.32476C5.69482 3.96283 5.69482 3.65928 5.51978 3.4141C5.13467 2.88871 4.70289 2.39835 4.2361 1.94302C4.10773 1.81459 3.92101 1.74454 3.74597 1.74454Z"/><path d="M11.3663 7.53545C10.8879 7.53545 10.4911 7.1385 10.4911 6.65981C10.4911 6.01767 9.96597 5.50396 9.3358 5.50396C8.85734 5.50396 8.46057 5.10701 8.46057 4.62832C8.46057 4.14964 8.85734 3.75268 9.3358 3.75268C10.9346 3.75268 12.2416 5.0603 12.2416 6.65981C12.2416 7.1385 11.8565 7.53545 11.3663 7.53545Z"/></svg>