<svg xmlns="http://www.w3.org/2000/svg" viewBox="0 0 16 16"><path d="M8 1.103c-3.807 0-6.897 3.09-6.897 6.897S4.193 14.896 8 14.896s6.896-3.09 6.896-6.897S11.807 1.103 8 1.103zm5.766 6.621h-1.903c-.193-1.931-1.573-3.311-3.311-3.559V2.234c2.814.276 5.02 2.455 5.214 5.49zM8 10.786c-1.545 0-2.786-1.241-2.786-2.786S6.455 5.214 8 5.214 10.786 6.455 10.786 8 9.545 10.786 8 10.786zm-.552-8.552v1.931c-1.738.249-3.145 1.628-3.31 3.559H2.234c.194-3.035 2.401-5.214 5.214-5.49zM2.262 8.828h1.931c.276 1.38 1.6 2.786 3.255 3.007v1.931c-2.704-.249-4.883-2.455-5.186-4.938zm6.29 4.938v-1.931c1.655-.22 2.979-1.627 3.283-3.007h1.931c-.332 2.483-2.511 4.689-5.214 4.938z"/></svg>