<svg xmlns="http://www.w3.org/2000/svg" viewBox="0 0 16 16"><path d="M11.017 4.465c.374.715.396 1.441.07 2.179a4.604 4.604 0 00-.062.147l.009.008.03-.018c.439-.302.878-.603 1.316-.907a.099.099 0 00.036-.062 3.082 3.082 0 00-.459-1.984c-.03-.048-.079-.084-.115-.13a.499.499 0 00-.472-.208.575.575 0 00-.309.149.538.538 0 00-.101.737c.021.03.041.058.057.089zm3.578.919c-.087.024-.168.08-.246.129-.229.143-.46.285-.684.437-1.952 1.331-3.902 2.666-5.855 3.996-1.686 1.149-3.375 2.294-5.063 3.439-.666.452-1.347.882-1.997 1.358a.559.559 0 00-.166.673.528.528 0 00.618.303c.113-.028.201-.098.294-.161 3.837-2.604 7.675-5.209 11.513-7.811.672-.456 1.35-.903 2.025-1.353a.545.545 0 00.248-.435c.003-.41-.327-.672-.687-.575zm-.905-.736c.022.096.038.193.058.299.301-.267.657-.376 1.055-.391-.027-.115-.049-.22-.077-.323a4.178 4.178 0 00-.703-1.445.55.55 0 00-.948.112.535.535 0 00.069.555c.264.361.446.758.546 1.193zM1.12 13.534l1.043-.733a.097.097 0 00.033-.058c.097-.594.382-1.068.89-1.4.337-.22.712-.329 1.11-.366.095-.009.192-.034.283.03.044.031.103.04.153.064.039.019.068.014.104-.01.406-.273.813-.544 1.22-.816l.047-.033c-.011-.005-.014-.007-.017-.007a3.103 3.103 0 01-1.155-.282.091.091 0 00-.04-.01 5.13 5.13 0 00-.959.061c-.515.09-.999.263-1.431.562-.788.546-1.221 1.3-1.3 2.253-.02.245-.009.492-.012.739 0 .006.003.012.006.02a.14.14 0 00.025-.014zm4.929-4.462a3.179 3.179 0 003.314-3.211c-.004-.266-.002-.531 0-.797a2.614 2.614 0 00-.086-.705c-.311-1.13-1.029-1.861-2.155-2.188-.423-.123-.859-.103-1.293-.095a2.685 2.685 0 00-.429.04 2.806 2.806 0 00-1.64.904 2.802 2.802 0 00-.733 1.772c-.011.209-.002.42-.002.63h-.002c0 .149.002.299 0 .448-.006.42.074.824.23 1.213a3.174 3.174 0 002.796 1.989zM4.122 4.825c.049-.641.358-1.123.918-1.44.26-.147.545-.212.843-.211.21 0 .421-.004.63.009.476.03.881.224 1.212.564.359.369.536.815.538 1.33.001.307.011.615-.007.921a1.988 1.988 0 01-.845 1.55 2.064 2.064 0 01-3.247-1.274c-.034-.17-.032-.348-.041-.523-.006-.123-.001-.246-.001-.37h-.003c0-.185-.012-.372.003-.556zm6.244 6.27c-.093-.118-.2-.224-.302-.337l-.974.653.043.034c.338.254.565.586.695.988.1.307.087.623.083.938 0 .003-.004.005-.008.01h-.06l-3.567.001a.208.208 0 00-.105.032c-.507.34-1.013.682-1.519 1.024-.016.01-.031.022-.046.033l.004.011h5.961c.295-.003.49-.204.488-.498-.002-.309.001-.618-.001-.927a3.107 3.107 0 00-.692-1.962z"/></svg>