<svg xmlns="http://www.w3.org/2000/svg" viewBox="0 0 16 16"><path d="M14.896 9.449c0-.083 0-.165-.028-.22l-2.234-6.234c-.083-.22-.276-.331-.524-.331H3.834a.566.566 0 0 0-.524.359L1.13 9.202c-.027.082-.027.164-.027.247v3.917c0 .276.248.58.551.58h12.689c.304 0 .552-.304.552-.607l.001-3.89c0 .028 0 .028 0 0zM4.22 3.738h7.503L13.6 8.979H9.627a.544.544 0 0 0-.552.497c-.027.552-.523 1.021-1.075 1.021s-1.049-.469-1.076-1.021a.572.572 0 0 0-.58-.497H2.399L4.22 3.738zm9.573 9.104H2.207v-2.759h3.696c.276 1.104 1.131 1.573 2.097 1.573s1.82-.469 2.096-1.573h3.696l.001 2.759z"/></svg>