<svg xmlns="http://www.w3.org/2000/svg" viewBox="0 0 16 16"><path d="M3.504 8.8a.46.46 0 00.22-.524 3.105 3.105 0 01-.138-.883c0-2.207 2.207-4 4.91-4 .717 0 1.407.138 2.014.358a.484.484 0 00.469-.083.448.448 0 00-.138-.772 6.557 6.557 0 00-2.344-.442c-3.2 0-5.848 2.234-5.848 4.938 0 .414.055.8.165 1.158.083.277.441.387.69.25zm9.847-3.118c-.165.138-.248.358-.165.551.138.358.22.745.22 1.158 0 2.207-2.207 4-4.91 4a5.782 5.782 0 01-2.096-.386.388.388 0 00-.386.028L3.78 12.412l.22-.55-.993.662c-.055.028-.083.083-.111.138l-.138.386c-.083.193 0 .386.138.524.083.055.22.083.303.083s.165-.028.22-.083l2.869-1.627a6.675 6.675 0 002.234.386c3.2 0 5.848-2.234 5.848-4.938 0-.524-.083-1.02-.276-1.489-.164-.305-.495-.415-.743-.222zm1.407-2.896a.561.561 0 00-.773-.055L1.297 11.393a.56.56 0 00-.055.772c.11.138.248.193.414.193a.577.577 0 00.358-.138l12.689-8.662a.558.558 0 00.055-.772z"/></svg>