<svg xmlns="http://www.w3.org/2000/svg" viewBox="0 0 16 16"><path d="M10.253 14.905c-.689 0-1.38-.111-2.014-.358-.773-.276-1.407-.855-1.793-1.628L3.329 6.795a3.458 3.458 0 01-.248-2.455c.331-1.131.993-2.096 1.903-2.869.386-.303.855-.441 1.297-.331a1.6 1.6 0 011.076.855l.772 1.545c.552 1.103.193 1.876-.083 2.207l-.634.828.938 1.958.662 1.186 1.049-.028h.028c.717 0 1.38.414 1.71 1.049.138.304.304.58.441.883.165.304.331.607.469.91.22.414.22.883.028 1.324a1.497 1.497 0 01-.993.828c-.47.166-.994.221-1.491.22zM6.005 2.216a.457.457 0 00-.304.111 4.733 4.733 0 00-1.544 2.316 2.112 2.112 0 00.166 1.628l3.089 6.151c.276.524.69.91 1.186 1.104.91.331 1.931.358 2.869.111a.479.479 0 00.276-.22.411.411 0 000-.359c-.165-.304-.304-.607-.469-.91s-.304-.58-.469-.883a.795.795 0 00-.717-.441l-1.38.028a.62.62 0 01-.497-.276l-.827-1.49s0-.028-.028-.028L6.281 6.795a.618.618 0 01.055-.58l.827-1.103c.083-.11.304-.386-.028-1.049l-.716-1.572c-.083-.166-.193-.249-.331-.276l-.083.001z"/></svg>