<svg xmlns="http://www.w3.org/2000/svg" viewBox="0 0 16 16"><path d="M8 1.103c-3.807 0-6.897 3.09-6.897 6.897S4.193 14.896 8 14.896s6.896-3.09 6.896-6.897S11.807 1.103 8 1.103zm.055 11.642c-1.049 0-1.049-1.627 0-1.627 1.104 0 1.104 1.627 0 1.627zm2.455-6.18a2.54 2.54 0 0 1-1.269 1.876c-.276.138-.717.441-.717.91 0 .304-.248.524-.552.524a.514.514 0 0 1-.524-.552c0-.745.469-1.407 1.269-1.849.386-.22.662-.607.717-1.049v-.193c0-.773-.634-1.407-1.407-1.407s-1.38.607-1.407 1.38c0 .304-.276.551-.551.524-.304 0-.524-.248-.524-.551A2.48 2.48 0 0 1 8.028 3.75a2.49 2.49 0 0 1 2.483 2.483c.028.11.028.22 0 .331l-.001.001z"/></svg>