<svg xmlns="http://www.w3.org/2000/svg" viewBox="0 0 16 16"><path d="M4.519 8.993c.11.193.304.304.496.304.083 0 .166-.028.248-.055a.552.552 0 00.249-.745L4.409 6.29a2.116 2.116 0 01-.166-1.628c.276-.91.8-1.71 1.545-2.317.11-.111.248-.138.386-.111s.248.138.331.276l.772 1.545c.331.662.11.965.028 1.048l-.827 1.105c-.193.248-.138.579.11.772s.579.138.772-.11l.828-1.103c.276-.358.634-1.103.083-2.207l-.827-1.573c-.22-.441-.634-.772-1.076-.855a1.584 1.584 0 00-1.297.331 5.808 5.808 0 00-1.903 2.869c-.248.8-.165 1.683.249 2.455L4.52 8.994l-.001-.001zm8.276 3.559c-.165-.304-.304-.607-.469-.91-.138-.303-.304-.607-.441-.91-.331-.635-.993-1.076-1.71-1.076h-.028l-1.104.026c-.303 0-.551.276-.551.58s.248.524.551.524l1.104-.028c.304 0 .58.193.717.469.138.304.303.607.469.91s.304.607.469.91a.409.409 0 010 .358c-.028.055-.111.193-.276.22-.965.248-1.986.22-2.869-.111a2.2 2.2 0 01-1.186-1.104l-.276-.552a.553.553 0 00-.745-.248.552.552 0 00-.248.745l.276.552c.386.773 1.02 1.351 1.793 1.627.634.22 1.324.358 2.014.358.524 0 1.02-.055 1.545-.193.441-.111.8-.414.993-.828.192-.437.192-.906-.028-1.319zm.027-8.524A.532.532 0 0012.05 4l-8.855 8.138a.534.534 0 00-.027.773.56.56 0 00.414.165.656.656 0 00.386-.138L12.795 4.8c.22-.193.22-.524.027-.772z"/></svg>