<svg viewBox="0 0 16 16" xmlns="http://www.w3.org/2000/svg"><path d="M8 10.01C7.59 10.01 7.25 9.67 7.25 9.26V9.12C7.25 7.93 8 7.35 8.55 6.93C9.07 6.53 9.32 6.31 9.32 5.78C9.32 5.19 8.71 4.73 7.94 4.73C7.28 4.73 6.75 5.17 6.66 5.79C6.61 6.21 6.22 6.48 5.82 6.43C5.41 6.37 5.12 5.99 5.18 5.58C5.37 4.22 6.53 3.23 7.94 3.23C9.55 3.23 10.82 4.35 10.82 5.78C10.82 7.06 10.03 7.67 9.46 8.11C8.93 8.52 8.74 8.7 8.74 9.11V9.25C8.75 9.67 8.41 10.01 8 10.01Z"/><path d="M8 16C3.59 16 0 12.41 0 8C0 3.59 3.59 0 8 0C12.41 0 16 3.59 16 8C16 12.41 12.41 16 8 16ZM8 1.5C4.42 1.5 1.5 4.41 1.5 8C1.5 11.59 4.42 14.5 8 14.5C11.58 14.5 14.5 11.58 14.5 8C14.5 4.42 11.58 1.5 8 1.5Z"/><path d="M8 13C8.55228 13 9 12.5523 9 12C9 11.4477 8.55228 11 8 11C7.44772 11 7 11.4477 7 12C7 12.5523 7.44772 13 8 13Z"/></svg>