<svg xmlns="http://www.w3.org/2000/svg" viewBox="0 0 16 16"><path d="M14.592 4.069a.618.618 0 00-.58.055l-2.51 1.986v-.855c0-.993-.773-1.793-1.71-1.793h-6.98c-.938 0-1.71.8-1.71 1.793v5.434c0 .993.772 1.793 1.71 1.793h6.951c.938 0 1.71-.8 1.71-1.793v-.716l2.538 1.849c.083.083.22.111.331.111.083 0 .165-.028.248-.055a.522.522 0 00.304-.497V4.566a.58.58 0 00-.302-.497zm-4.827 7.31H2.813c-.331 0-.607-.304-.607-.689V5.283c0-.386.276-.689.607-.689h6.951c.331 0 .607.304.607.689v5.406c.001.386-.275.69-.606.69zm4.027-1.076L11.475 8.62V7.544l2.317-1.82v4.579z"/></svg>