<svg xmlns="http://www.w3.org/2000/svg" viewBox="0 0 16 16"><path d="M9.095 11.623c-.138-.248-.248-.497-.386-.745a1.726 1.726 0 0 0-1.545-.938h-.828l-.524-.966-.773-1.6.497-.662c.248-.304.58-.993.083-1.958l-.662-1.297a1.352 1.352 0 0 0-.993-.773c-.414-.082-.827.028-1.186.304a5.211 5.211 0 0 0-1.655 2.455c-.22.69-.138 1.462.193 2.152l2.621 5.214a2.855 2.855 0 0 0 1.572 1.434 5.232 5.232 0 0 0 3.062.139 1.48 1.48 0 0 0 .91-.773c.165-.386.165-.828-.028-1.186-.083-.276-.22-.524-.358-.8zm-.579 1.517c-.028.055-.055.111-.165.138-.8.22-1.655.165-2.4-.111-.414-.138-.745-.469-.965-.883l-2.65-5.186c-.22-.441-.276-.91-.138-1.324a3.879 3.879 0 0 1 1.296-1.931.303.303 0 0 1 .194-.083h.055a.37.37 0 0 1 .221.193l.661 1.297c.248.497.083.745.028.8l-.69.938c-.138.166-.138.386-.055.58l.91 1.931s0 .028.028.028l.689 1.269c.11.165.276.304.497.276l1.159-.028c.248 0 .442.138.551.331.138.248.249.497.386.745s.276.524.386.773a.377.377 0 0 1 0 .248l.002-.001zm2.896-11.586c-.276-.138-.607-.055-.745.22s-.055.607.22.745c1.849 1.049 2.924 3.089 2.842 5.49 0 .304.22.552.524.552h.028c.304 0 .552-.22.552-.524.082-2.815-1.187-5.215-3.421-6.483zm-1.71 1.793a.569.569 0 0 0-.745.22.568.568 0 0 0 .22.745c1.352.717 2.151 2.18 2.124 3.917 0 .304.248.58.552.58a.553.553 0 0 0 .552-.552c.027-2.151-.994-4-2.703-4.91zM8.24 5.085a.568.568 0 0 0-.745.22.568.568 0 0 0 .22.745c.689.359 1.297 1.517 1.269 2.427 0 .304.248.607.552.607.304 0 .552-.276.552-.58.027-1.323-.801-2.868-1.848-3.419z"/></svg>