<svg viewBox="0 0 16 16" xmlns="http://www.w3.org/2000/svg"><path d="M11.7367 10.375C11.5467 10.375 11.3567 10.305 11.2067 10.155C10.9167 9.865 10.9167 9.385 11.2067 9.095C11.5367 8.765 11.7167 8.335 11.7167 7.875C11.7167 7.415 11.5367 6.975 11.2067 6.655C10.9167 6.365 10.9167 5.885 11.2067 5.595C11.4967 5.305 11.9767 5.305 12.2667 5.595C12.8767 6.205 13.2167 7.015 13.2167 7.875C13.2167 8.735 12.8767 9.545 12.2667 10.155C12.1167 10.305 11.9267 10.375 11.7367 10.375Z"/><path d="M13.7067 12.345C13.5167 12.345 13.3267 12.275 13.1767 12.125C12.8867 11.835 12.8867 11.355 13.1767 11.065C14.0267 10.215 14.4967 9.085 14.4967 7.875C14.4967 6.665 14.0267 5.535 13.1767 4.685C12.8867 4.395 12.8867 3.915 13.1767 3.625C13.4667 3.335 13.9467 3.335 14.2367 3.625C15.3667 4.755 15.9967 6.265 15.9967 7.875C15.9967 9.485 15.3767 10.985 14.2367 12.125C14.0867 12.275 13.8967 12.345 13.7067 12.345Z"/><path d="M5.99672 8.375C3.78672 8.375 1.99672 6.585 1.99672 4.375C1.99672 2.165 3.78672 0.375 5.99672 0.375C8.20672 0.375 9.99672 2.165 9.99672 4.375C9.99672 6.585 8.20672 8.375 5.99672 8.375ZM5.99672 1.875C4.61672 1.875 3.49672 2.995 3.49672 4.375C3.49672 5.755 4.61672 6.875 5.99672 6.875C7.37672 6.875 8.49672 5.755 8.49672 4.375C8.49672 2.995 7.37672 1.875 5.99672 1.875Z"/><path d="M11.2467 15.625C10.9167 15.625 10.6167 15.405 10.5267 15.065L9.82672 12.445C9.60672 11.635 8.87672 11.075 8.03672 11.075H3.96672C3.12672 11.075 2.39672 11.635 2.17672 12.445L1.47672 15.065C1.36672 15.465 0.966718 15.705 0.556718 15.595C0.156718 15.485 -0.0832825 15.075 0.0267175 14.675L0.726718 12.055C1.11672 10.595 2.44672 9.575 3.96672 9.575H8.02672C9.53672 9.575 10.8667 10.595 11.2667 12.055L11.9667 14.675C12.0767 15.075 11.8367 15.485 11.4367 15.595C11.3767 15.615 11.3067 15.625 11.2467 15.625Z"/></svg>