<svg xmlns="http://www.w3.org/2000/svg" viewBox="0 0 16 16"><path d="M1.572 10.625a.546.546 0 0 0 .634-.552V5.329c0-.386.276-.689.607-.689h5.655c.304 0 .552-.248.552-.58s-.248-.552-.551-.552H2.814c-.938 0-1.71.8-1.71 1.793v4.745a.588.588 0 0 0 .468.579zm13.021-6.51a.618.618 0 0 0-.58.055l-2.51 1.986c-.607.358-1.131.827-1.131 1.655v2.924c0 .386-.276.689-.607.689H5.323a.592.592 0 0 0-.58.469.545.545 0 0 0 .551.634h4.469c.938 0 1.71-.8 1.71-1.793v-.717l2.538 1.848c.083.083.22.111.331.111.083 0 .165-.028.248-.055a.522.522 0 0 0 .304-.496V4.584c.002-.165-.109-.358-.301-.469zm-.8 6.235-2.317-1.683V7.591l2.317-1.82v4.579zm-1.159-7.311a.56.56 0 0 0-.772-.055L1.296 12.198a.561.561 0 0 0-.055.773c.11.138.248.193.414.193a.577.577 0 0 0 .358-.138l10.565-9.214a.558.558 0 0 0 .056-.773z"/></svg>