<svg xmlns="http://www.w3.org/2000/svg" viewBox="0 0 16 16"><path d="M6.207 9.076c1.766 0 3.172-1.434 3.172-3.2v-.855c0-1.628-1.351-2.951-3.007-2.951h-.496c-1.628 0-2.842 1.324-2.842 2.951v.855c0 1.766 1.407 3.2 3.173 3.2zM4.138 5.021c0-1.02.717-1.849 1.738-1.849h.497c1.021 0 1.904.828 1.904 1.849v.855c0 1.158-.91 2.096-2.069 2.096s-2.07-.937-2.07-2.096v-.855zm3.503 4.855s.028 0 0 0h-.11c-.028 0-.028 0-.055.028a3.174 3.174 0 0 1-2.649 0H4.8c-.028 0-.055-.028-.055-.028h-.137c-2.069 0-3.503 1.324-3.503 3.145v.938c0 .304.249.524.552.524h8.938c.304 0 .469-.22.469-.524v-.938c-.029-1.82-1.436-3.145-3.423-3.145zm2.29 3.504H2.207v-.359c0-1.186.911-2.014 2.234-2.042.524.22 1.103.331 1.655.331a4.1 4.1 0 0 0 1.628-.331c1.324.028 2.207.855 2.207 2.042v.359zm4.11-10.593c-.193-.249-.524-.303-.773-.111s-.303.524-.11.773c.773 1.02.828 2.428.193 3.751a.553.553 0 0 0 .248.745.804.804 0 0 0 .249.055c.193 0 .386-.11.497-.304.827-1.71.717-3.558-.304-4.909zm-2.924.827c-.248.193-.304.524-.111.772.386.524.441 1.573.083 2.262a.553.553 0 0 0 .248.745.798.798 0 0 0 .249.055c.193 0 .386-.11.497-.304.524-1.049.441-2.565-.193-3.393a.521.521 0 0 0-.773-.137z"/></svg>