<svg xmlns="http://www.w3.org/2000/svg" xmlns:xlink="http://www.w3.org/1999/xlink" x="0px" y="0px" viewBox="0 0 16 16" xml:space="preserve"><path d="M13.64,9.21c-0.71-0.52-1.65-0.62-2.44-0.25l-1.04,0.49c-0.47,0.22-1.03,0.14-1.42-0.2
		C8.58,9.1,8.42,8.94,8.26,8.8l7.51-7.51c0.29-0.29,0.29-0.77,0-1.06s-0.77-0.29-1.06,0l-14.5,14.5c-0.29,0.29-0.29,0.77,0,1.06
		C0.37,15.92,0.56,16,0.75,16s0.38-0.07,0.53-0.22L5.06,12c1.58,1.48,3.33,2.7,5.23,3.62c0.52,0.25,1.07,0.37,1.62,0.37
		c1.15,0,2.29-0.52,3.04-1.48l0.46-0.59c0.81-1.04,0.78-2.37-0.07-3.24C14.8,10.14,14.23,9.64,13.64,9.21z M14.22,13l-0.46,0.59
		c-0.67,0.86-1.86,1.15-2.82,0.69c-1.75-0.85-3.36-1.97-4.82-3.33L7.2,9.86c0.18,0.17,0.35,0.34,0.54,0.51
		c0.84,0.74,2.03,0.91,3.04,0.44l1.04-0.49c0.3-0.14,0.65-0.1,0.92,0.09c0.53,0.39,1.04,0.83,1.51,1.32
		C14.58,12.05,14.56,12.56,14.22,13z"/><path d="M2.78,9.55c0.15,0.19,0.37,0.29,0.59,0.29c0.16,0,0.33-0.05,0.46-0.16c0.33-0.26,0.38-0.73,0.13-1.05
		C3.09,7.51,2.34,6.31,1.73,5.06C1.27,4.1,1.56,2.92,2.42,2.24l0.7-0.54c0.35-0.28,0.85-0.25,1.15,0.04
		C4.75,2.21,5.2,2.72,5.59,3.26c0.27,0.36,0.16,0.78,0.03,1.06L5.2,5.22C4.96,5.74,4.89,6.3,4.98,6.86
		c0.07,0.41,0.46,0.69,0.86,0.62c0.41-0.07,0.69-0.45,0.62-0.86c-0.04-0.26-0.01-0.53,0.1-0.77l0.42-0.9
		C7.41,4.04,7.34,3.1,6.8,2.36C6.36,1.77,5.86,1.2,5.32,0.67C4.48-0.15,3.14-0.22,2.2,0.52L1.5,1.06c-1.42,1.1-1.89,3.06-1.12,4.66
		C1.04,7.06,1.84,8.35,2.78,9.55z"/></svg>