<svg viewBox="0 0 16 16" xmlns="http://www.w3.org/2000/svg"><path d="M8 0C3.59 0 0 3.59 0 8C0 12.41 3.59 16 8 16C12.41 16 16 12.41 16 8C16 3.59 12.41 0 8 0ZM13.09 12.03L11.01 9.94C10.72 9.65 10.24 9.65 9.95 9.94C8.91 10.98 7.1 10.98 6.06 9.94C5.54 9.42 5.25 8.73 5.25 8C5.25 7.27 5.54 6.58 6.06 6.06C7.1 5.02 8.91 5.02 9.95 6.06C10.47 6.58 10.76 7.27 10.76 8C10.76 8.09 10.76 8.17 10.75 8.25C10.71 8.66 11.02 9.03 11.43 9.06C11.84 9.1 12.21 8.79 12.24 8.38C12.25 8.25 12.26 8.12 12.26 7.99C12.26 7.11 11.99 6.27 11.49 5.57L13.1 3.96C13.97 5.08 14.5 6.48 14.5 8C14.5 9.52 13.97 10.92 13.09 12.03ZM12.03 2.91L10.42 4.52C9.72 4.02 8.88 3.75 8 3.75C7.12 3.75 6.28 4.02 5.58 4.52L3.97 2.91C5.08 2.03 6.48 1.5 8 1.5C9.52 1.5 10.92 2.03 12.03 2.91ZM2.91 3.97L4.52 5.58C4.02 6.28 3.75 7.12 3.75 8C3.75 8.88 4.02 9.72 4.52 10.42L2.91 12.03C2.03 10.92 1.5 9.52 1.5 8C1.5 6.48 2.03 5.08 2.91 3.97ZM3.97 13.09L5.58 11.48C6.29 11.97 7.12 12.25 8 12.25C8.88 12.25 9.72 11.98 10.43 11.49L12.03 13.09C10.92 13.97 9.52 14.5 8 14.5C6.48 14.5 5.08 13.97 3.97 13.09Z"/></svg>