<svg viewBox="0 0 16 16" xmlns="http://www.w3.org/2000/svg"><path d="M15.7699 12.9108L12.8174 10.5599C13.7999 9.63284 14.3999 8.42425 14.3999 7.09378C14.3999 4.1764 11.5349 1.83538 8.02242 1.83538C6.32892 1.83538 4.79492 2.38204 3.64992 3.26919L0.97017 1.12995C0.70842 0.922461 0.33292 0.968342 0.12767 1.23337C-0.0765049 1.49845 -0.0309299 1.88159 0.22962 2.08903L15.0071 13.8474C15.1399 13.9569 15.2699 14 15.3774 14C15.5555 14 15.7317 13.9198 15.8499 13.7667C16.0774 13.5024 16.0299 13.119 15.7699 12.9108ZM11.8649 9.80042L4.60742 4.02405C5.51992 3.40833 6.70242 3.03128 8.00242 3.03128C10.8724 3.03128 13.2024 4.85306 13.2024 7.09378C13.2024 8.13479 12.6924 9.08186 11.8649 9.80042ZM8.00242 11.1563C7.33367 11.1563 6.67417 11.0515 6.04292 10.8485L5.47242 10.6688L4.98492 11.0166C4.62867 11.2736 4.13792 11.5595 3.54742 11.753C3.7318 11.4452 3.90692 11.0991 4.04442 10.731L4.30992 10.02L3.79442 9.4645C3.34492 8.97522 2.80242 8.1678 2.80242 7.09378C2.80242 6.6662 2.88837 6.25462 3.0456 5.86741L2.07817 5.09808C1.77292 5.71507 1.60067 6.38792 1.60067 7.07093C1.60067 8.28028 2.09842 9.38782 2.92342 10.2778C2.55142 11.2807 1.77667 12.1282 1.76417 12.1376C1.59855 12.3154 1.55482 12.5756 1.64857 12.7978C1.74542 13.0428 1.95942 13.1875 2.19992 13.1875C3.73742 13.1875 4.92742 12.5337 5.67742 12.0132C6.39942 12.2417 7.18117 12.375 7.99992 12.375C8.93767 12.375 9.82692 12.2045 10.6299 11.9053L9.47667 10.9874C9.00992 11.0953 8.51492 11.1563 8.00242 11.1563Z"/></svg>