<svg xmlns="http://www.w3.org/2000/svg" viewBox="0 0 16 16"><path d="M14.619 6.289a1.127 1.127 0 00-1.076-.773h-3.172c-.028 0-.028 0-.055-.028l-.111-.331-1.186-3.31a1.138 1.138 0 00-1.076-.744c-.497 0-.911.304-1.076.745L5.516 5.489c0 .028-.028.028-.055.028H2.454c-.497 0-.911.304-1.076.773s-.028.965.331 1.268l2.289 1.903c.027 0 .027.028.027.055l-1.434 3.835c-.165.469-.027.993.359 1.297.22.165.469.248.717.248.22 0 .441-.055.634-.193l3.586-2.427h.055l3.476 2.4c.414.304.938.276 1.351-.028s.552-.828.386-1.297l-1.021-2.814-.331-.883c0-.028 0 0 .028 0l2.455-2.041c.359-.304.497-.855.331-1.324h.002zM3.695 13.793c-.027 0-.027.028-.055 0s-.027-.028-.027-.055l1.351-3.614 2.014 1.434-3.283 2.235zm8.414-.028c-.028.028-.028 0-.055 0l-3.476-2.4-4.276-3.09-1.876-1.572s-.027-.028-.027-.055.027-.028.055-.028h3.007c.469 0 .911-.304 1.076-.745l1.352-3.641c0-.027 0-.027.055-.027.028 0 .028.027.055.027l1.324 3.641 1.462 4.11 1.351 3.724c0 .028 0 .028-.028.055l.001.001zm1.462-7.034l-2.18 1.738-.634-1.849h2.814c.028 0 .028 0 .055.028-.027.055-.027.055-.055.083z"/></svg>