<svg xmlns="http://www.w3.org/2000/svg" xmlns:xlink="http://www.w3.org/1999/xlink" x="0px" y="0px" viewBox="0 0 16 16" xml:space="preserve"><path d="M4.14,15.71c-0.36,0-0.72-0.11-1.03-0.34c-0.59-0.43-0.85-1.16-0.66-1.87l0.85-3.19
	c0.03-0.09-0.01-0.2-0.08-0.26L0.65,7.97c-0.57-0.46-0.79-1.21-0.56-1.9C0.31,5.38,0.93,4.9,1.66,4.86l3.3-0.18
	c0.1-0.01,0.18-0.07,0.22-0.16l1.19-3.08C6.63,0.76,7.27,0.32,8,0.32c0.73,0,1.37,0.44,1.63,1.12l1.19,3.08
	c0.04,0.09,0.12,0.15,0.22,0.16l3.3,0.18c0.73,0.04,1.35,0.51,1.57,1.21c0.23,0.69,0.01,1.44-0.56,1.9l-2.57,2.08
	c-0.08,0.06-0.11,0.16-0.08,0.26l0.58,2.19c0.11,0.4-0.13,0.81-0.53,0.92c-0.4,0.1-0.81-0.13-0.92-0.53l-0.58-2.19
	c-0.18-0.67,0.05-1.38,0.59-1.81l2.57-2.08c0.11-0.09,0.1-0.2,0.08-0.27c-0.02-0.07-0.08-0.17-0.22-0.17l-3.3-0.18
	c-0.69-0.04-1.29-0.48-1.54-1.12L8.23,1.98c-0.1-0.26-0.36-0.27-0.47,0L6.58,5.07C6.33,5.71,5.73,6.15,5.04,6.19l-3.3,0.18
	c-0.14,0.01-0.2,0.1-0.22,0.17C1.49,6.61,1.49,6.72,1.6,6.81l2.57,2.08c0.53,0.43,0.77,1.14,0.59,1.81L3.9,13.89
	c-0.04,0.14,0.03,0.22,0.09,0.27c0.06,0.05,0.16,0.08,0.28,0.01l2.77-1.8c0.58-0.38,1.33-0.38,1.9,0l2.9,1.88
	c0.35,0.23,0.45,0.69,0.22,1.04c-0.23,0.35-0.69,0.45-1.04,0.22l-2.9-1.88c-0.08-0.05-0.19-0.05-0.27,0l-2.77,1.8
	C4.8,15.61,4.47,15.71,4.14,15.71z"/></svg>