<svg viewBox="0 0 16 16" xmlns="http://www.w3.org/2000/svg"><g clip-path="url(#clip0)"><path d="M15.25 9.76999H13.95L8.52 5.20999C7.75 4.55999 6.63 4.55999 5.85 5.20999L5.6 5.42999C5.33 5.64999 4.99 5.72998 4.65 5.65999C4.4 5.59999 4.19 5.45999 4.03 5.26999L6.14 3.48999C6.24 3.39999 6.38 3.35999 6.51 3.35999H10.36C10.49 3.35999 10.63 3.40999 10.73 3.48999L12.62 5.07999C12.76 5.18999 12.93 5.25999 13.1 5.25999H15.25C15.66 5.24999 16 4.91999 16 4.49999C16 4.07999 15.66 3.74999 15.25 3.74999H13.38L11.7 2.33999C11.33 2.02999 10.85 1.85999 10.37 1.85999H6.52C6.03 1.85999 5.56 2.02999 5.19 2.34999L3.51 3.74999H0.75C0.34 3.74999 0 4.08999 0 4.49999C0 4.90999 0.34 5.24999 0.75 5.24999H2.43C2.44 5.37999 2.46 5.51999 2.52 5.64999C2.86 6.39999 3.51 6.92999 4.31 7.11999C5.11 7.29998 5.93 7.09999 6.56 6.57999L6.82 6.35999C7.04 6.17999 7.34 6.17999 7.56 6.35999L12.68 10.65C12.52 10.75 12.31 10.77 12.12 10.7C11.65 10.52 11.12 10.68 10.84 11.09C10.67 11.33 10.35 11.43 10.08 11.33C9.61 11.15 9.09 11.31 8.8 11.72C8.63 11.96 8.31 12.06 8.04 11.96C7.57 11.77 7.03 11.95 6.72 12.4C6.61 12.53 6.45 12.61 6.28 12.63C6.11 12.64 5.94 12.59 5.81 12.48L2.79 9.93999C2.66 9.82999 2.49 9.76999 2.31 9.76999H0.75C0.34 9.76999 0 10.1 0 10.52C0 10.94 0.34 11.27 0.75 11.27H2.04L4.85 13.63C5.25 13.97 5.74 14.13 6.23 14.13C6.81 14.13 7.38 13.9 7.8 13.45C8.53 13.62 9.33 13.37 9.84 12.82C10.57 12.99 11.37 12.74 11.88 12.19C12.75 12.39 13.65 11.99 14.13 11.26H15.26C15.67 11.26 16.01 10.92 16.01 10.51C16.01 10.1 15.66 9.76999 15.25 9.76999Z"/></g><defs><clipPath><rect/></clipPath></defs></svg>