<svg xmlns="http://www.w3.org/2000/svg" viewBox="0 0 16 16"><path d="M13.131 5.395l-1.193-1.368a1.626 1.626 0 00-1.285-.578h-1.27c-.451 0-.821.17-1.11.509L6.685 5.806a.856.856 0 00-.213.57c0 .213.068.403.205.57.218.258.497.39.836.395.325.005.592-.116.81-.347l.004.004.017-.02.012-.009L9.711 5.44a.42.42 0 01.317-.143h.002a.418.418 0 01.314.142L12.59 8.14l.063.083c.264.334.416.689.456 1.064H15V5.395h-1.869zm-1.524 3.071l-.316-.411-.289-.373a15.165 15.165 0 00-.973-1.132l-.95 1.064c-.421.476-.949.71-1.585.699a1.983 1.983 0 01-1.562-.745 1.819 1.819 0 01-.43-1.201c.003-.451.151-.849.445-1.193l1.346-1.566a1.511 1.511 0 00-.388-.125 2.266 2.266 0 00-.361-.045 8.449 8.449 0 00-.43.004c-.192.004-.316.007-.372.007-.466 0-.867.167-1.201.502L3.34 5.152H1v4.136a205.305 205.305 0 001.488-.004l.148.015a.613.613 0 01.289.099.542.542 0 01.141.102l2.258 2.22c.583.563 1.158.844 1.726.844.395 0 .712-.119.95-.357.289.101.574.081.855-.061.281-.142.465-.357.551-.646.375.03.697-.081.965-.334.101-.091.193-.207.274-.346a.65.65 0 00.106-.384c.051.051.16.076.327.076.218 0 .413-.053.585-.16a.966.966 0 00.376-.403c.079-.162.109-.343.091-.544a1.037 1.037 0 00-.232-.559 50.02 50.02 0 00-.291-.38z"/></svg>