<svg xmlns="http://www.w3.org/2000/svg" viewBox="0 0 16 16"><path d="m13.131 5.4-1.193-1.373a1.627 1.627 0 0 0-1.285-.578H9.384a1.394 1.394 0 0 0-1.11.509L6.685 5.806a.856.856 0 0 0-.213.57.874.874 0 0 0 .2.57 1.069 1.069 0 0 0 .837.4 1.049 1.049 0 0 0 .81-.347l.017-.019.012-.009L9.711 5.44a.417.417 0 0 1 .316-.143.419.419 0 0 1 .314.141l2.246 2.7.062.083a2.061 2.061 0 0 1 .457 1.064H15V5.4zm-1.524 3.066-.315-.41c-.066-.086-.162-.211-.289-.373s-.235-.3-.323-.4-.192-.225-.308-.357-.231-.256-.342-.372l-.951 1.061a1.979 1.979 0 0 1-1.584.7 1.986 1.986 0 0 1-1.563-.745 1.86 1.86 0 0 1 .015-2.394l1.346-1.567a1.473 1.473 0 0 0-.388-.126 2.266 2.266 0 0 0-.361-.045h-.429c-.192 0-.317.008-.373.008a1.638 1.638 0 0 0-1.2.5l-1.2 1.2H1v4.141h1.489l.148.016a.572.572 0 0 1 .156.034c.035.015.079.037.133.064a.583.583 0 0 1 .14.1l2.258 2.22a2.539 2.539 0 0 0 1.726.844 1.281 1.281 0 0 0 .95-.359 1.049 1.049 0 0 0 .855-.06 1.03 1.03 0 0 0 .551-.647 1.206 1.206 0 0 0 .966-.334 1.458 1.458 0 0 0 .274-.346.657.657 0 0 0 .106-.384.485.485 0 0 0 .327.076 1.092 1.092 0 0 0 .585-.159.966.966 0 0 0 .376-.4 1.025 1.025 0 0 0 .092-.544 1.037 1.037 0 0 0-.232-.559 41.898 41.898 0 0 0-.293-.383z"/></svg>