<svg viewBox="0 0 16 16" xmlns="http://www.w3.org/2000/svg"><g clip-path="url(#clip0)"><path d="M11.71 5.24969H1.5C1.09 5.24969 0.75 4.90969 0.75 4.49969C0.75 4.08969 1.09 3.74969 1.5 3.74969H11.71C12.12 3.74969 12.46 4.08969 12.46 4.49969C12.46 4.90969 12.13 5.24969 11.71 5.24969Z"/><path d="M11.5 8.98969C11.31 8.98969 11.12 8.91969 10.97 8.76969C10.68 8.47969 10.68 7.99969 10.97 7.70969L14.19 4.48969L10.97 1.26969C10.68 0.979688 10.68 0.499687 10.97 0.209688C11.26 -0.0803125 11.74 -0.0803125 12.03 0.209688L15.78 3.95969C16.07 4.24969 16.07 4.72969 15.78 5.01969L12.03 8.76969C11.89 8.91969 11.7 8.98969 11.5 8.98969Z"/><path d="M14.5 12.2497H4.29C3.88 12.2497 3.54 11.9097 3.54 11.4997C3.54 11.0897 3.88 10.7497 4.29 10.7497H14.5C14.91 10.7497 15.25 11.0897 15.25 11.4997C15.25 11.9097 14.92 12.2497 14.5 12.2497Z"/><path d="M4.5 15.9997C4.31 15.9997 4.12 15.9297 3.97 15.7797L0.22 12.0297C0.08 11.8897 0 11.6997 0 11.4997C0 11.2997 0.08 11.1097 0.22 10.9697L3.97 7.21969C4.26 6.92969 4.74 6.92969 5.03 7.21969C5.32 7.50969 5.32 7.98969 5.03 8.27969L1.81 11.4997L5.03 14.7097C5.32 14.9997 5.32 15.4797 5.03 15.7697C4.88 15.9197 4.69 15.9997 4.5 15.9997Z"/></g><defs><clipPath><rect/></clipPath></defs></svg>