<svg viewBox="0 0 16 16" xmlns="http://www.w3.org/2000/svg"><path d="M15.2487 10.75H2.47603L4.79739 8.26156C5.08081 7.95937 5.06518 7.48437 4.76208 7.20312C4.45899 6.91875 3.98403 6.93437 3.7028 7.2375L0.203107 10.9875C-0.0664004 11.2756 -0.0664004 11.7228 0.203107 12.0109L3.7028 15.7609C3.84966 15.9187 4.04965 16 4.24963 16C4.43321 16 4.61678 15.9336 4.76146 15.7978C5.06418 15.5156 5.08081 15.041 4.79758 14.7382L2.47603 12.25H15.2487C15.6627 12.25 15.9986 11.9141 15.9986 11.5C15.9986 11.0859 15.6643 10.75 15.2487 10.75ZM0.749934 5.25H13.5238L11.2025 7.73844C10.9193 8.04119 10.9359 8.51594 11.2386 8.79812C11.5403 9.08231 12.016 9.06569 12.2982 8.762L15.7979 5.012C16.0674 4.72391 16.0674 4.27669 15.7979 3.98856L12.2982 0.238562C12.1489 0.0800625 11.949 0 11.749 0C11.5654 0 11.3818 0.0664062 11.2371 0.202156C10.9344 0.484375 10.9178 0.959031 11.201 1.26184L13.5238 3.75H0.749934C0.335908 3.75 0 4.0875 0 4.5C0 4.9125 0.335908 5.25 0.749934 5.25Z"/></svg>