<svg data-name="Layer 1" xmlns="http://www.w3.org/2000/svg" viewBox="0 0 32 32"><path d="M29.75 6.63v1.25a.61.61 0 01-.18.45.61.61 0 01-.45.18h-1.87V27a4.44 4.44 0 01-.92 2.8 2.73 2.73 0 01-2.21 1.2H7.88a2.75 2.75 0 01-2.21-1.14 4.28 4.28 0 01-.92-2.77V8.5H2.87a.6.6 0 01-.62-.62V6.63a.61.61 0 01.18-.45.61.61 0 01.44-.18h6l1.37-3.26a2.71 2.71 0 011.06-1.23A2.74 2.74 0 0112.87 1h6.25a2.75 2.75 0 011.54.51 2.71 2.71 0 011.06 1.23L23.09 6h6a.6.6 0 01.63.63zm-17.5 18.74V11.62a.62.62 0 00-.18-.45.61.61 0 00-.45-.17h-1.24a.61.61 0 00-.45.17.62.62 0 00-.18.45v13.75a.6.6 0 00.63.62h1.25a.61.61 0 00.45-.18.61.61 0 00.17-.44zM11.62 6h8.75l-.94-2.28a.55.55 0 00-.33-.21h-6.19a.55.55 0 00-.33.21zm5.63 19.38V11.62a.6.6 0 00-.62-.62h-1.26a.6.6 0 00-.62.62v13.75a.6.6 0 00.17.45.61.61 0 00.45.18h1.25a.62.62 0 00.45-.18.6.6 0 00.18-.45zm5 0V11.62a.62.62 0 00-.18-.45.61.61 0 00-.45-.17h-1.25a.6.6 0 00-.45.17.62.62 0 00-.18.45v13.75a.6.6 0 00.62.62h1.25a.61.61 0 00.45-.18.61.61 0 00.19-.44z"/></svg>