<svg viewBox="0 0 16 16" xmlns="http://www.w3.org/2000/svg"><path d="M14.3554 4.99061C14.3655 5.12186 14.3655 5.25313 14.3655 5.38437C14.3655 9.38748 11.066 14 5.03555 14C3.17767 14 1.45179 13.5031 0 12.6406C0.26397 12.6687 0.517752 12.6781 0.791878 12.6781C2.32485 12.6781 3.73605 12.2 4.86296 11.3844C3.42133 11.3563 2.2132 10.4844 1.79694 9.28437C2.00001 9.31248 2.20304 9.33124 2.41626 9.33124C2.71067 9.33124 3.00511 9.29372 3.2792 9.22813C1.77666 8.94686 0.649721 7.72812 0.649721 6.25624V6.21876C1.08625 6.44376 1.59391 6.58438 2.13195 6.60311C1.24869 6.05935 0.670034 5.13124 0.670034 4.08123C0.670034 3.51874 0.832441 3.00311 1.11672 2.55311C2.73095 4.39061 5.15736 5.59059 7.87816 5.72186C7.82741 5.49686 7.79694 5.26251 7.79694 5.02813C7.79694 3.35936 9.25888 2 11.0761 2C12.0203 2 12.8731 2.36562 13.4721 2.95625C14.2132 2.82501 14.9238 2.57187 15.5533 2.225C15.3096 2.92814 14.7919 3.51877 14.1117 3.89374C14.7716 3.82815 15.4112 3.65936 16 3.42501C15.5534 4.02499 14.995 4.55934 14.3554 4.99061V4.99061Z"/></svg>