<svg viewBox="0 0 16 16" xmlns="http://www.w3.org/2000/svg"><path d="M16 2.77999C15.41 3.03999 14.78 3.21999 14.11 3.29999C14.79 2.88999 15.31 2.24999 15.55 1.47999C14.92 1.85999 14.21 2.12999 13.47 2.27999C12.87 1.63999 12.02 1.23999 11.07 1.23999C9.26 1.23999 7.79 2.70999 7.79 4.51999C7.79 4.77999 7.82 5.02999 7.87 5.26999C5.15 5.13999 2.73 3.82999 1.11 1.83999C0.83 2.32999 0.67 2.88999 0.67 3.48999C0.67 4.62999 1.25 5.62999 2.13 6.21999C1.59 6.20999 1.09 6.05999 0.64 5.81999C0.64 5.82999 0.64 5.84999 0.64 5.85999C0.64 7.44999 1.77 8.77999 3.27 9.07999C3 9.14999 2.71 9.18999 2.41 9.18999C2.2 9.18999 1.99 9.16999 1.79 9.12999C2.21 10.43 3.42 11.38 4.86 11.41C3.74 12.29 2.32 12.82 0.78 12.82C0.52 12.82 0.25 12.8 0 12.77C1.45 13.7 3.18 14.24 5.03 14.24C11.07 14.24 14.37 9.23999 14.37 4.89999C14.37 4.75999 14.37 4.61999 14.36 4.47999C15 4.01999 15.56 3.43999 16 2.77999Z"/></svg>