<svg xmlns="http://www.w3.org/2000/svg" viewBox="0 0 16 16"><path d="M14 1H2a1 1 0 0 0-1 1v12a1 1 0 0 0 1 1h12a1 1 0 0 0 1-1V2a1 1 0 0 0-1-1zm-1.906 5.062c.004.087.006.177.006.268 0 2.739-2.06 5.899-5.826 5.899a5.742 5.742 0 0 1-3.139-.933 4.077 4.077 0 0 0 3.031-.858 2.053 2.053 0 0 1-1.913-1.44 2.038 2.038 0 0 0 .925-.034 2.068 2.068 0 0 1-1.643-2.033v-.026c.275.155.592.249.928.26a2.081 2.081 0 0 1-.91-1.727c0-.38.1-.736.276-1.042a5.79 5.79 0 0 0 4.222 2.166 2.104 2.104 0 0 1-.054-.473c0-1.145.917-2.073 2.048-2.073.59 0 1.121.251 1.495.655a4.12 4.12 0 0 0 1.301-.504 2.074 2.074 0 0 1-.901 1.147c.414-.05.811-.163 1.178-.327a4.24 4.24 0 0 1-1.024 1.075z"/></svg>