<svg viewBox="0 0 16 16" xmlns="http://www.w3.org/2000/svg"><g clip-path="url(#clip0_335_91)"><path d="M4.64246 3.7562C6.05244 2.36122 8.10743 2.47841 9.41242 4.10933C10.4949 5.46244 10.7274 7.48117 10.1424 9.14677L11.2824 10.2624L13.6599 7.29054C14.5949 6.11868 14.5949 4.22182 13.6599 3.0534C12.7674 1.9381 11.3349 1.87841 10.3874 2.91715L10.2324 3.08434C9.98491 3.35621 9.60491 3.32496 9.38742 3.01371C9.16742 2.70215 9.19492 2.22841 9.44242 1.9556L9.59741 1.7881C11.0224 0.229711 13.1699 0.319053 14.5074 1.99279C15.9124 3.74683 15.9124 6.59367 14.5074 8.34991L12.2324 11.1936L15.7699 14.6592C16.0299 14.9155 16.0774 15.3873 15.8724 15.7123C15.6674 16.0373 15.2899 16.0967 15.0299 15.8405L0.229894 1.34029C-0.0309042 1.08467 -0.0766288 0.613425 0.127794 0.287366C0.332243 -0.0386302 0.70924 -0.0957859 0.970237 0.159743L4.64246 3.7562ZM5.62745 4.72182L9.15742 8.18116C9.41492 7.14679 9.21242 5.98118 8.56242 5.16869C7.76743 4.17182 6.52744 4.02495 5.62745 4.72182ZM6.58744 11.8905C5.83495 10.953 5.48245 9.69364 5.53995 8.45615L6.89494 9.79052C7.00994 10.1686 7.19243 10.5249 7.43493 10.8311C7.80243 11.3155 8.31243 11.5999 8.81492 11.6811L10.1724 13.0186C8.94492 13.478 7.55743 13.103 6.58744 11.8905ZM2.91497 5.87181L3.86496 6.80617L2.34073 8.70928C1.40473 9.88114 1.40473 11.778 2.34073 12.9467C3.23247 14.0342 4.66496 14.1217 5.61245 13.0842L5.76745 12.9155C6.01494 12.6436 6.39494 12.6749 6.61244 12.9874C6.82994 13.2967 6.80494 13.7717 6.55744 14.0436L6.40244 14.2123C4.97745 15.7717 2.82997 15.6811 1.49223 14.0061C0.0876197 12.253 0.0876197 9.37802 1.49223 7.64991L2.91497 5.87181Z"/></g><defs><clipPath><rect/></clipPath></defs></svg>