<svg viewBox="0 0 16 16" xmlns="http://www.w3.org/2000/svg"><path d="M15.78 0.22C15.49 -0.07 15.01 -0.07 14.72 0.22L12.25 2.69V2C12.25 0.9 11.35 0 10.25 0H2C0.9 0 0 0.9 0 2V10.25C0 11.35 0.9 12.25 2 12.25C2.41 12.25 2.75 11.91 2.75 11.5C2.75 11.09 2.41 10.75 2 10.75C1.72 10.75 1.5 10.53 1.5 10.25V2C1.5 1.72 1.72 1.5 2 1.5H10.25C10.53 1.5 10.75 1.72 10.75 2V4.19L5.25 9.69V5.75C5.25 5.47 5.47 5.25 5.75 5.25H9C9.41 5.25 9.75 4.91 9.75 4.5C9.75 4.09 9.42 3.75 9 3.75H5.75C4.65 3.75 3.75 4.65 3.75 5.75V11.19L0.22 14.72C-0.07 15.01 -0.07 15.49 0.22 15.78C0.37 15.93 0.56 16 0.75 16C0.94 16 1.13 15.93 1.28 15.78L15.78 1.28C16.07 0.99 16.07 0.51 15.78 0.22Z"/><path d="M10.75 8.04V10.25C10.75 10.53 10.53 10.75 10.25 10.75H8.04C7.63 10.75 7.29 11.09 7.29 11.5C7.29 11.91 7.63 12.25 8.04 12.25H10.25C11.35 12.25 12.25 11.35 12.25 10.25V8.04C12.25 7.63 11.91 7.29 11.5 7.29C11.09 7.29 10.75 7.62 10.75 8.04Z"/><path d="M15.23 4.18C14.9 3.92 14.43 3.98 14.18 4.31C13.92 4.64 13.98 5.11 14.31 5.36C14.43 5.46 14.5 5.6 14.5 5.75V14C14.5 14.28 14.28 14.5 14 14.5H5.75C5.6 14.5 5.45 14.43 5.35 14.31C5.09 13.99 4.62 13.93 4.3 14.18C3.97 14.44 3.92 14.91 4.17 15.23C4.56 15.72 5.13 16 5.75 16H14C15.1 16 16 15.1 16 14V5.75C16 5.13 15.72 4.56 15.23 4.18Z"/></svg>