<svg xmlns="http://www.w3.org/2000/svg" viewBox="0 0 16 16"><path d="M14.114 1.387a.502.502 0 0 0-.354.146l-.702.702-.001.003-1.267 1.264-.497.498h-.001L9.953 5.336 9.29 6h.003l-1 1-.029.028h-.001L6.293 9l-2.418 2.42-.579.58-.836.836-.937.937a.5.5 0 0 0 .008.694.502.502 0 0 0 .707 0l1.631-1.631.836-.836h.949C6.398 12 7 11.397 7 10.654V10h-.297l.999-1H11a1 1 0 0 0 0-2H9.701l.999-1H14v4H9v.654C9 11.397 9.602 12 10.346 12h4.309c.743 0 1.345-.603 1.345-1.346V5.346C16 4.602 15.398 4 14.654 4h-1.953l1.765-1.762a.498.498 0 0 0-.352-.851zM5.654 4H1.346C.602 4 0 4.602 0 5.346v5.309c0 .177.039.344.101.498.045.109.071.176.143.268.024.032.084.097.111.127.215.229.51.384.842.422L3.17 10H2V6h5v-.654C7 4.602 6.398 4 5.654 4zm.519 3H5a1 1 0 0 0-1 .997V8c0 .321.161.593.395.776L6.173 7z"/></svg>