<svg viewBox="0 0 16 16" xmlns="http://www.w3.org/2000/svg"><path d="M4.66071 6H12.4286C13.5711 6 14.5 6.89688 14.5 8V14C14.5 15.1031 13.5711 16 12.4286 16H2.07143C0.927288 16 0 15.1031 0 14V8C0 6.89688 0.927288 6 2.07143 6H3.10714V4C3.10714 1.79094 4.96172 0 7.25 0C9.06574 0 10.6549 1.16313 11.1922 2.76938C11.3249 3.1625 11.0724 3.5875 10.6937 3.7125C10.2827 3.84063 9.84576 3.59688 9.71306 3.23125C9.37969 2.22563 8.40223 1.5 7.22087 1.5C5.81942 1.5 4.63158 2.61937 4.63158 4L4.66071 6ZM1.55357 14C1.55357 14.275 1.78531 14.5 2.07143 14.5H12.4286C12.7134 14.5 12.9464 14.275 12.9464 14V8C12.9464 7.725 12.7134 7.5 12.4286 7.5H2.07143C1.78531 7.5 1.55357 7.725 1.55357 8V14Z"/></svg>