<svg viewBox="0 0 16 16" xmlns="http://www.w3.org/2000/svg"><path d="M12.6987 9.50003H9.35625V11H12.6987C12.9291 11 13.1166 11.2243 13.1166 11.5V14C13.1166 14.2757 12.9291 14.5 12.6987 14.5H2.67125C2.44088 14.5 2.25344 14.2757 2.25344 14V11.5C2.25344 11.225 2.44093 11 2.67125 11H6.01375V9.50003H2.67125C1.74815 9.50003 1 10.3953 1 11.5V14C1 15.1047 1.74815 16 2.67125 16H12.6987C13.6219 16 14.37 15.1047 14.37 14V11.5C14.37 10.3969 13.6205 9.50003 12.6987 9.50003ZM4.55402 5.50317L7.05828 2.56068V11C7.05828 11.4141 7.339 11.75 7.685 11.75C8.031 11.75 8.31172 11.4141 8.31172 11V2.56068L10.7933 5.53036C10.9152 5.67817 11.0745 5.75004 11.2364 5.75004C11.3983 5.75004 11.5571 5.6768 11.6795 5.53033C11.9244 5.23736 11.9244 4.76283 11.6795 4.46971L8.12814 0.219726C7.88333 -0.0732419 7.4868 -0.0732419 7.24186 0.219726L3.69045 4.46971C3.44564 4.76267 3.44564 5.2372 3.69045 5.53033C3.93526 5.82345 4.33205 5.82192 4.55402 5.50317ZM12.2809 12.75C12.2809 12.3356 12.0002 12 11.6542 12C11.3082 12 11.0275 12.3344 11.0275 12.75C11.0275 13.1641 11.3082 13.5 11.6542 13.5C12.0002 13.5 12.2809 13.1656 12.2809 12.75Z"/></svg>