<svg viewBox="0 0 16 16" xmlns="http://www.w3.org/2000/svg"><path d="M7.99982 16C7.58982 16 7.24982 15.66 7.24982 15.25V7.04C7.24982 6.63 7.58982 6.29 7.99982 6.29C8.40982 6.29 8.74982 6.63 8.74982 7.04V15.25C8.74982 15.67 8.41982 16 7.99982 16Z"/><path d="M12.4998 8.75C12.3098 8.75 12.1198 8.68 11.9698 8.53L7.99982 4.56L4.02982 8.53C3.73982 8.82 3.25982 8.82 2.96982 8.53C2.67982 8.24 2.67982 7.76 2.96982 7.47L7.46982 2.97C7.75982 2.68 8.23982 2.68 8.52982 2.97L13.0298 7.47C13.3198 7.76 13.3198 8.24 13.0298 8.53C12.8898 8.68 12.6898 8.75 12.4998 8.75Z"/><path d="M13.9298 1.5H2.06982C1.65982 1.5 1.31982 1.16 1.31982 0.75C1.31982 0.34 1.64982 0 2.06982 0H13.9398C14.3498 0 14.6898 0.34 14.6898 0.75C14.6898 1.16 14.3498 1.5 13.9298 1.5Z"/></svg>