<svg viewBox="0 0 16 16" xmlns="http://www.w3.org/2000/svg"><path d="M10.2222 11.1609H12.8889C13.2569 11.1609 13.5556 10.8108 13.5556 10.3793C13.5556 9.94777 13.2569 9.59768 12.8889 9.59768H10.2222C9.85417 9.59768 9.55556 9.94777 9.55556 10.3793C9.55556 10.8108 9.85556 11.1609 10.2222 11.1609ZM5.77778 10.3793C6.75972 10.3793 7.55556 9.44624 7.55556 8.295C7.55556 7.14376 6.75972 6.21071 5.77778 6.21071C4.79583 6.21071 4 7.14376 4 8.295C4 9.44461 4.79722 10.3793 5.77778 10.3793ZM14.2222 1H1.77778C0.795833 1 0 1.93304 0 3.08429V13.5057C0 14.657 0.795833 15.59 1.77778 15.59H14.2222C15.2042 15.59 16 14.657 16 13.5057V3.08429C16 1.93304 15.2028 1 14.2222 1ZM14.6667 13.5057C14.6667 13.793 14.4673 14.0268 14.2222 14.0268H8.88889C8.88889 12.588 7.89389 11.4214 6.66667 11.4214H4.88889C3.66111 11.4214 2.66667 12.5873 2.66667 14.0268H1.77778C1.53272 14.0268 1.33333 13.793 1.33333 13.5057V5.16857H14.6667V13.5057ZM10.2222 8.55554H12.8889C13.2569 8.55554 13.5556 8.20544 13.5556 7.77393C13.5556 7.34242 13.2569 6.99232 12.8889 6.99232H10.2222C9.85417 6.99232 9.55556 7.34242 9.55556 7.77393C9.55556 8.20544 9.85556 8.55554 10.2222 8.55554Z"/></svg>