<svg viewBox="0 0 16 16" xmlns="http://www.w3.org/2000/svg"><path d="M5.6 7.25C7.3675 7.25 8.8 5.62696 8.8 3.625C8.8 1.62304 7.3675 0 5.6 0C3.8325 0 2.4 1.62304 2.4 3.625C2.4 5.62696 3.8325 7.25 5.6 7.25ZM5.6 1.35938C6.70275 1.35938 7.6 2.37579 7.6 3.625C7.6 4.87421 6.70275 5.89062 5.6 5.89062C4.4975 5.89062 3.6 4.87393 3.6 3.625C3.6 2.37579 4.4975 1.35938 5.6 1.35938ZM6.8675 8.60938H4.3325C1.94025 8.60938 0 10.807 0 13.5173C0 14.061 0.388 14.5 0.8665 14.5H10.334C10.8125 14.5 11.2 14.061 11.2 13.5173C11.2 10.807 9.26 8.60938 6.8675 8.60938ZM1.21775 13.1406C1.3845 11.3593 2.7175 9.96875 4.3325 9.96875H6.8675C8.48275 9.96875 9.795 11.3601 9.9825 13.1406H1.21775ZM15.4 5.66406H14.2V4.30469C14.2 3.93086 13.9325 3.625 13.6 3.625C13.2675 3.625 13 3.92944 13 4.30469V5.66406H11.8C11.47 5.66406 11.2 5.96992 11.2 6.34375C11.2 6.71758 11.4688 7.02344 11.8 7.02344H13V8.38281C13 8.75947 13.27 9.0625 13.6 9.0625C13.93 9.0625 14.2 8.75806 14.2 8.38281V7.02344H15.4C15.7325 7.02344 16 6.72041 16 6.34375C16 5.96709 15.7325 5.66406 15.4 5.66406Z"/></svg>