<svg viewBox="0 0 16 16" xmlns="http://www.w3.org/2000/svg"><g clip-path="url(#clip0_335_197)"><path d="M8 8.57812H5.86667C4.39333 8.57812 3.2 9.64443 3.2 10.9609C3.2 11.223 3.44 11.4375 3.73333 11.4375H10.1333C10.4279 11.4375 10.6667 11.2241 10.6667 10.9609C10.6667 9.64443 9.47333 8.57812 8 8.57812ZM6.93333 7.625C8.11167 7.625 9.06667 6.77166 9.06667 5.71875C9.06667 4.66584 8.11167 3.8125 6.93333 3.8125C5.75533 3.8125 4.8 4.66584 4.8 5.71875C4.8 6.77166 5.75667 7.625 6.93333 7.625ZM15.4667 9.53125H14.9333V12.3906H15.4667C15.7612 12.3906 16 12.1772 16 11.9141V10.0078C16 9.7457 15.76 9.53125 15.4667 9.53125ZM15.4667 1.90625H14.9333V4.76562H15.4667C15.76 4.76562 16 4.55117 16 4.28906V2.38281C16 2.11951 15.76 1.90625 15.4667 1.90625ZM15.4667 5.71875H14.9333V8.57812H15.4667C15.76 8.57812 16 8.36367 16 8.10156V6.19531C16 5.9332 15.76 5.71875 15.4667 5.71875ZM11.7333 0H2.13333C0.955 0 0 0.853345 0 1.90625V13.3438C0 14.3967 0.955 15.25 2.13333 15.25H11.7333C12.9117 15.25 13.8667 14.3967 13.8667 13.3438V1.90625C13.8667 0.853345 12.91 0 11.7333 0ZM12.2667 13.3438C12.2667 13.6069 12.0279 13.8203 11.7333 13.8203H2.13333C1.8388 13.8203 1.6 13.6069 1.6 13.3438V1.90625C1.6 1.64301 1.8388 1.42969 2.13333 1.42969H11.7333C12.0279 1.42969 12.2667 1.64301 12.2667 1.90625V13.3438Z"/></g><defs><clipPath><rect/></clipPath></defs></svg>