<svg viewBox="0 0 16 16" xmlns="http://www.w3.org/2000/svg"><path d="M13.25 0.75H2.75C1.23 0.75 0 1.98 0 3.5V12.59C0 14.11 1.23 15.34 2.75 15.34H10.31C10.54 15.34 10.76 15.23 10.9 15.05C11.04 14.86 11.09 14.62 11.03 14.4L10.64 12.96C10.26 11.54 8.97 10.55 7.5 10.55H4.54C3.18 10.55 1.97 11.4 1.5 12.65C1.5 12.63 1.5 12.61 1.5 12.6V3.5C1.5 2.81 2.06 2.25 2.75 2.25H13.25C13.94 2.25 14.5 2.81 14.5 3.5V12.59C14.5 13.28 13.94 13.84 13.25 13.84H12.61C12.2 13.84 11.86 14.18 11.86 14.59C11.86 15 12.2 15.34 12.61 15.34H13.25C14.77 15.34 16 14.11 16 12.59V3.5C16 1.98 14.77 0.75 13.25 0.75ZM2.85 13.34C3.05 12.58 3.75 12.04 4.54 12.04H7.5C8.29 12.04 8.99 12.57 9.19 13.34L9.32 13.84H2.75C2.74 13.84 2.73 13.84 2.72 13.84L2.85 13.34Z"/><path d="M2.75 6.24C2.75 8.03 4.21 9.49 6 9.49C7.79 9.49 9.25 8.03 9.25 6.24C9.25 4.45 7.79 2.99 6 2.99C4.21 2.99 2.75 4.44 2.75 6.24ZM7.75 6.24C7.75 7.2 6.96 7.99 6 7.99C5.04 7.99 4.25 7.2 4.25 6.24C4.25 5.28 5.04 4.49 6 4.49C6.96 4.49 7.75 5.27 7.75 6.24Z"/><path d="M10.64 11H13.28C13.69 11 14.03 10.66 14.03 10.25C14.03 9.84 13.69 9.5 13.28 9.5H10.64C10.23 9.5 9.89 9.84 9.89 10.25C9.89 10.66 10.22 11 10.64 11Z"/><path d="M10.64 8.25H13.28C13.69 8.25 14.03 7.91 14.03 7.5C14.03 7.09 13.69 6.75 13.28 6.75H10.64C10.23 6.75 9.89 7.09 9.89 7.5C9.89 7.91 10.22 8.25 10.64 8.25Z"/></svg>