<svg viewBox="0 0 16 16" xmlns="http://www.w3.org/2000/svg"><g clip-path="url(#clip0_335_27)"><path d="M8.0075 10.375C9.44454 10.375 10.5882 9.01094 10.5882 7.32812C10.5882 5.64531 9.42326 4.28125 8.0075 4.28125C6.57045 4.28125 5.42677 5.64531 5.42677 7.32812C5.40425 9.00977 6.5707 10.375 8.0075 10.375ZM8.0075 5.6875C8.77971 5.6875 9.40825 6.42344 9.40825 7.32812C9.40825 8.23281 8.77846 8.96875 8.0075 8.96875C7.23653 8.96875 6.60575 8.2334 6.60575 7.32812C6.60575 6.42285 7.23403 5.6875 8.0075 5.6875ZM12.816 5.6875C13.9219 5.6875 14.8185 4.63809 14.8185 3.34375C14.8185 2.04941 13.9224 1 12.816 1C11.7101 1 10.8135 2.04941 10.8135 3.34375C10.8135 4.63809 11.7096 5.6875 12.816 5.6875ZM9.25906 11.3125H6.76094C4.79599 11.3125 3.204 13.0615 3.204 15.2178C3.204 15.6514 3.5219 16 3.91489 16H12.1051C12.4981 16 12.816 15.6514 12.816 15.2178C12.816 13.0615 11.224 11.3125 9.25906 11.3125ZM4.45807 14.5938C4.72014 13.5168 5.64355 12.7188 6.73941 12.7188H9.25906C10.3547 12.7188 11.2781 13.5168 11.5404 14.5938H4.45807ZM13.8147 6.625H12.2668C11.9464 6.625 11.644 6.71397 11.3692 6.86641C11.3842 7.02051 11.4092 7.16992 11.4092 7.32812C11.4092 8.31572 11.0893 9.20928 10.5792 9.90625H15.5779C15.8223 9.90625 16.02 9.66016 16.02 9.3584C16.02 7.84961 15.0338 6.625 13.8147 6.625ZM4.60325 7.32812C4.60325 7.16849 4.62784 7.0167 4.64352 6.86201C4.37046 6.68652 4.07008 6.625 3.75218 6.625H2.20475C0.987233 6.625 0 7.84961 0 9.3584C0 9.66016 0.197421 9.90625 0.441051 9.90625H5.43478C4.92365 9.20898 4.60325 8.31543 4.60325 7.32812ZM3.204 5.6875C4.30988 5.6875 5.2065 4.63809 5.2065 3.34375C5.2065 2.04941 4.31038 1 3.204 1C2.09812 1 1.2015 2.04941 1.2015 3.34375C1.2015 4.63809 2.09812 5.6875 3.204 5.6875Z"/></g><defs><clipPath><rect/></clipPath></defs></svg>