<svg viewBox="0 0 16 16" xmlns="http://www.w3.org/2000/svg"><path d="M8.89286 9.05469H6.10714C3.28661 9.05469 1 11.4018 1 14.2969C1 14.8232 1.41583 15.25 1.92857 15.25H13.0714C13.5842 15.25 14 14.8232 14 14.2969C14 11.4018 11.7134 9.05469 8.89286 9.05469ZM2.42158 13.8203C2.65083 11.9409 4.21518 10.4844 6.10714 10.4844H8.89286C10.7837 10.4844 12.3489 11.9424 12.5781 13.8203H2.42158ZM7.5 7.625C9.55127 7.625 11.2143 5.91801 11.2143 3.8125C11.2143 1.70699 9.55127 0 7.5 0C5.44873 0 3.78571 1.70699 3.78571 3.8125C3.78571 5.91831 5.44844 7.625 7.5 7.625ZM7.5 1.42969C8.77998 1.42969 9.82143 2.49868 9.82143 3.8125C9.82143 5.12632 8.77998 6.19531 7.5 6.19531C6.22002 6.19531 5.17857 5.12603 5.17857 3.8125C5.17857 2.49868 6.22031 1.42969 7.5 1.42969Z"/></svg>