<svg viewBox="0 0 16 16" xmlns="http://www.w3.org/2000/svg"><path d="M7.99988 8.75C5.78988 8.75 3.99988 6.96 3.99988 4.75C3.99988 2.54 5.78988 0.75 7.99988 0.75C10.2099 0.75 11.9999 2.54 11.9999 4.75C11.9999 6.96 10.2099 8.75 7.99988 8.75ZM7.99988 2.25C6.61988 2.25 5.49988 3.37 5.49988 4.75C5.49988 6.13 6.61988 7.25 7.99988 7.25C9.37988 7.25 10.4999 6.13 10.4999 4.75C10.4999 3.37 9.37988 2.25 7.99988 2.25Z"/><path d="M13.7499 16C13.4199 16 13.1199 15.78 13.0299 15.44L12.3299 12.82C12.1099 12.01 11.3799 11.45 10.5399 11.45H5.45988C4.61988 11.45 3.88988 12.01 3.66988 12.82L2.96988 15.44C2.85988 15.84 2.44988 16.08 2.04988 15.97C1.64988 15.86 1.40988 15.45 1.51988 15.05L2.21988 12.43C2.60988 10.97 3.93988 9.95 5.45988 9.95H10.5299C12.0399 9.95 13.3699 10.97 13.7699 12.43L14.4699 15.05C14.5799 15.45 14.3399 15.86 13.9399 15.97C13.8799 15.99 13.8099 16 13.7499 16Z"/></svg>