<svg xmlns="http://www.w3.org/2000/svg" xmlns:xlink="http://www.w3.org/1999/xlink" x="0px" y="0px" viewBox="0 0 16 16" xml:space="preserve"><path d="M13.01,6.57C12.82,6.2,12.37,6.06,12,6.25c-0.37,0.19-0.51,0.64-0.32,1.01c0.32,0.62,0.21,1.38-0.29,1.87
		c-0.29,0.29-0.29,0.77,0,1.06c0.15,0.15,0.34,0.22,0.53,0.22s0.38-0.07,0.53-0.22C13.42,9.23,13.64,7.77,13.01,6.57z"/><path d="M13.8,4.41c-0.33,0.25-0.4,0.72-0.15,1.05c1.26,1.67,1.09,4.05-0.4,5.54c-0.29,0.29-0.29,0.77,0,1.06
		c0.15,0.15,0.34,0.22,0.53,0.22s0.38-0.07,0.53-0.22c2.01-2.01,2.24-5.23,0.53-7.5C14.61,4.23,14.14,4.16,13.8,4.41z"/><path d="M15.78,0.22c-0.29-0.29-0.77-0.29-1.06,0L9.98,4.96C9.98,4.89,10,4.82,10,4.75c0-2.21-1.79-4-4-4s-4,1.79-4,4
		s1.79,4,4,4c0.07,0,0.14-0.02,0.21-0.02L5.05,9.88H4.01c-1.53,0-2.87,1.03-3.27,2.51l-0.71,2.66c-0.09,0.33,0.06,0.67,0.35,0.84
		C0.49,15.96,0.62,16,0.75,16c0.19,0,0.39-0.08,0.53-0.22l14.5-14.5C16.07,0.99,16.07,0.51,15.78,0.22z M3.5,4.75
		c0-1.38,1.12-2.5,2.5-2.5s2.5,1.12,2.5,2.5S7.38,7.25,6,7.25S3.5,6.13,3.5,4.75z M2.2,12.74c0.18-0.62,0.67-1.1,1.28-1.28
		L2.2,12.74z"/><path d="M11.3,12.39c-0.33-1.24-1.32-2.18-2.58-2.44c-0.4-0.08-0.8,0.17-0.89,0.58c-0.08,0.41,0.18,0.8,0.58,0.89
		c0.7,0.15,1.25,0.67,1.44,1.36l0.71,2.66c0.09,0.34,0.39,0.56,0.72,0.56c0.06,0,0.13-0.01,0.19-0.03c0.4-0.11,0.64-0.52,0.53-0.92
		L11.3,12.39z"/></svg>