<svg viewBox="0 0 16 16" xmlns="http://www.w3.org/2000/svg"><g clip-path="url(#clip0)"><path d="M10.3102 8.5C8.24023 8.5 6.56023 6.82 6.56023 4.75C6.56023 2.68 8.24023 1 10.3102 1C12.3802 1 14.0602 2.68 14.0602 4.75C14.0602 6.82 12.3702 8.5 10.3102 8.5ZM10.3102 2.5C9.07023 2.5 8.06023 3.51 8.06023 4.75C8.06023 5.99 9.07023 7 10.3102 7C11.5502 7 12.5602 5.99 12.5602 4.75C12.5602 3.51 11.5502 2.5 10.3102 2.5Z"/><path d="M15.2502 16C14.9202 16 14.6102 15.78 14.5202 15.44L13.7702 12.56C13.5702 11.79 12.8702 11.25 12.0802 11.25H8.53023C7.73023 11.25 7.04023 11.79 6.84023 12.56L6.09023 15.44C5.99023 15.84 5.58023 16.08 5.18023 15.98C4.78023 15.88 4.54023 15.47 4.64023 15.07L5.39023 12.19C5.76023 10.76 7.06023 9.76 8.54023 9.76H12.0902C13.5702 9.76 14.8602 10.76 15.2402 12.19L15.9902 15.07C16.0902 15.47 15.8502 15.88 15.4502 15.98C15.3802 15.99 15.3102 16 15.2502 16Z"/><path d="M5.71023 8.5C3.64023 8.5 1.96023 6.82 1.96023 4.75C1.96023 2.68 3.64023 1 5.71023 1C6.12023 1 6.46023 1.34 6.46023 1.75C6.46023 2.16 6.12023 2.5 5.71023 2.5C4.47023 2.5 3.46023 3.51 3.46023 4.75C3.46023 5.99 4.47023 7 5.71023 7C6.12023 7 6.46023 7.34 6.46023 7.75C6.46023 8.16 6.12023 8.5 5.71023 8.5Z"/><path d="M0.750226 16C0.690226 16 0.620226 15.99 0.560226 15.98C0.160226 15.88 -0.0797738 15.47 0.0202262 15.07L0.770226 12.19C1.14023 10.76 2.44023 9.76 3.92023 9.76C4.33023 9.76 4.67023 10.1 4.67023 10.51C4.67023 10.92 4.33023 11.26 3.92023 11.26C3.12023 11.26 2.43023 11.8 2.23023 12.57L1.48023 15.45C1.39023 15.78 1.08023 16 0.750226 16Z"/></g><defs><clipPath><rect/></clipPath></defs></svg>