<svg viewBox="0 0 16 16" xmlns="http://www.w3.org/2000/svg"><path d="M6.00014 8.75C3.79014 8.75 2.00014 6.96 2.00014 4.75C2.00014 2.54 3.79014 0.75 6.00014 0.75C8.21014 0.75 10.0001 2.54 10.0001 4.75C10.0001 6.96 8.21014 8.75 6.00014 8.75ZM6.00014 2.25C4.62014 2.25 3.50014 3.37 3.50014 4.75C3.50014 6.13 4.62014 7.25 6.00014 7.25C7.38014 7.25 8.50014 6.13 8.50014 4.75C8.50014 3.37 7.38014 2.25 6.00014 2.25Z"/><path d="M11.2501 16C10.9201 16 10.6201 15.78 10.5301 15.44L9.83014 12.82C9.61014 12.01 8.88014 11.45 8.04014 11.45H3.97014C3.13014 11.45 2.40014 12.01 2.18014 12.82L1.48014 15.44C1.37014 15.84 0.960135 16.08 0.560135 15.97C0.160135 15.86 -0.0798645 15.45 0.0301355 15.05L0.730136 12.43C1.12014 10.97 2.45014 9.95 3.97014 9.95H8.03014C9.54014 9.95 10.8701 10.97 11.2701 12.43L11.9701 15.05C12.0801 15.45 11.8401 15.86 11.4401 15.97C11.3801 15.99 11.3101 16 11.2501 16Z"/><path d="M15.2501 9H11.7501C11.3301 9 11.0001 8.66 11.0001 8.25C11.0001 7.84 11.3401 7.5 11.7501 7.5H15.2501C15.6601 7.5 16.0001 7.84 16.0001 8.25C16.0001 8.66 15.6601 9 15.2501 9Z"/><path d="M15.2501 11.5H11.7501C11.3401 11.5 11.0001 11.16 11.0001 10.75C11.0001 10.34 11.3301 10 11.7501 10H15.2501C15.6601 10 16.0001 10.34 16.0001 10.75C16.0001 11.16 15.6601 11.5 15.2501 11.5Z"/><path d="M15.2501 6.49H11.7501C11.3301 6.49 11.0001 6.16 11.0001 5.74C11.0001 5.32 11.3401 4.99 11.7501 4.99H15.2501C15.6601 4.99 16.0001 5.33 16.0001 5.74C16.0001 6.15 15.6601 6.49 15.2501 6.49Z"/></svg>