<svg xmlns="http://www.w3.org/2000/svg" viewBox="0 0 16 16"><path d="M5.249 8.838 9.585 4.5a3.49 3.49 0 1 0-4.336 4.338zm-.855.76a3.408 3.408 0 0 0-3.384 3.479l3.455-3.455c-.023-.01-.049-.014-.071-.022zm10.691-7.772a.5.5 0 0 0-.707 0L1.557 14.646A.533.533 0 0 0 1.41 15a.5.5 0 0 0 .854.354L2.617 15H11.5v-1.8a3.422 3.422 0 0 0-3.4-3.6c-.04.018-.085.025-.125.041L11.4 6.214a3.064 3.064 0 0 1-.145.466.5.5 0 1 0 .92.391A3.984 3.984 0 0 0 12.5 5.5c0-.118-.025-.232-.036-.348L13.7 3.917a4.486 4.486 0 0 1-.247 3.724.5.5 0 0 0 .88.475 5.457 5.457 0 0 0 .124-4.956l.627-.627a.5.5 0 0 0 .001-.707zM1.41 15z"/></svg>