<svg viewBox="0 0 16 16" xmlns="http://www.w3.org/2000/svg"><path d="M8 0C3.59 0 0 3.59 0 8C0 12.41 3.59 16 8 16C12.41 16 16 12.41 16 8C16 3.59 12.41 0 8 0ZM8 14.5C4.42 14.5 1.5 11.58 1.5 8C1.5 4.42 4.42 1.5 8 1.5C11.58 1.5 14.5 4.42 14.5 8C14.5 11.58 11.58 14.5 8 14.5Z"/><path d="M8 8.69C9.65 8.69 11 7.34 11 5.69C11 4.04 9.65 2.69 8 2.69C6.35 2.69 5 4.04 5 5.69C5 7.34 6.35 8.69 8 8.69ZM8 4.19C8.83 4.19 9.5 4.86 9.5 5.69C9.5 6.52 8.83 7.19 8 7.19C7.17 7.19 6.5 6.52 6.5 5.69C6.5 4.86 7.17 4.19 8 4.19Z"/><path d="M12.08 10.86C11.6 10.02 10.69 9.5 9.72 9.5H6.28C5.31 9.5 4.4 10.02 3.92 10.86L3.73 11.19C3.52 11.55 3.64 12.01 4 12.22C4.36 12.43 4.82 12.3 5.02 11.95L5.21 11.62C5.43 11.23 5.84 11 6.28 11H9.73C10.17 11 10.57 11.24 10.79 11.61L10.98 11.94C11.12 12.18 11.37 12.32 11.63 12.32C11.76 12.32 11.88 12.29 12 12.22C12.36 12.01 12.48 11.55 12.28 11.2L12.08 10.86Z"/></svg>