<svg xmlns="http://www.w3.org/2000/svg" viewBox="0 0 16 16"><path d="M14 1H2c-.6 0-1 .4-1 1v12c0 .6.4 1 1 1h12c.6 0 1-.4 1-1V2c0-.6-.4-1-1-1zM8.398 3.786c1.98.067 3.685 1.879 3.661 3.835-.002.192.066.476-.219.471-.274-.005-.202-.294-.227-.486C11.351 5.53 10.4 4.55 8.339 4.233c-.171-.026-.431.011-.418-.215.019-.335.328-.21.477-.232zm.268 1.475c-.187-.042-.479-.012-.43-.301.046-.275.308-.182.506-.158 1.272.153 2.311 1.256 2.301 2.469-.019.143.064.389-.167.424-.313.047-.252-.239-.283-.423-.21-1.263-.653-1.726-1.927-2.011zm1.409 1.78c.006.16-.011.328-.201.351-.137.016-.226-.098-.24-.24-.052-.521-.327-.829-.849-.912-.156-.025-.31-.076-.237-.287.049-.141.179-.156.311-.159.564-.014 1.225.662 1.216 1.247zm2.007 3.952c-.217.614-.969 1.232-1.611 1.226-.09-.025-.269-.052-.43-.122-2.82-1.214-4.868-3.203-6.032-6.061-.389-.957.018-1.765 1.002-2.096a.77.77 0 0 1 .523 0c.419.154 1.482 1.616 1.505 2.054.018.335-.21.517-.436.671-.427.29-.43.658-.247 1.069.413.928 1.118 1.566 2.031 1.979.331.15.648.135.874-.207.403-.61.897-.581 1.436-.201.271.19.546.376.803.583.35.281.792.515.582 1.105z"/></svg>