<svg viewBox="0 0 16 16" xmlns="http://www.w3.org/2000/svg"><g clip-path="url(#clip0)"><path d="M13.6202 1.37998C13.2502 1.03998 11.6302 0.0199815 8.25022 0.00998146C8.25022 0.00998146 4.25022 -0.250018 2.32022 1.49998C1.24022 2.56998 0.870224 4.15998 0.830224 6.08998C0.790224 8.01998 0.580224 11.72 4.12022 12.7C4.12022 12.7 4.11022 15.44 4.10022 15.68C4.10022 15.85 4.13022 15.96 4.22022 15.99C4.29022 16.01 4.39022 15.97 4.48022 15.88C5.05022 15.31 6.86022 13.13 6.86022 13.13C9.29022 13.29 11.2202 12.81 11.4302 12.74C11.9202 12.58 14.5702 12.35 15.0202 8.72998C15.4902 4.99998 14.8602 2.44998 13.6202 1.37998ZM12.1502 10.2V10.21C11.9702 10.53 11.7302 10.82 11.4602 11.06C11.4602 11.06 11.4602 11.06 11.4502 11.06C11.2102 11.26 10.9802 11.37 10.7502 11.4C10.7202 11.41 10.6802 11.41 10.6502 11.41C10.5502 11.41 10.4502 11.4 10.3502 11.36L10.3402 11.35C9.99022 11.25 9.39022 11 8.41022 10.46C7.84022 10.15 7.30022 9.78998 6.79022 9.38998C6.53022 9.18998 6.29022 8.96998 6.06022 8.73998L6.01022 8.70998L5.99022 8.68998L5.97022 8.65998C5.96022 8.65998 5.95022 8.64998 5.94022 8.63998C5.71022 8.40998 5.49022 8.16998 5.29022 7.90998C4.89022 7.39998 4.53022 6.85998 4.22022 6.27998C3.68022 5.29998 3.43022 4.70998 3.32022 4.34998L3.31022 4.33998C3.28022 4.23998 3.26022 4.13998 3.26022 4.03998C3.26022 4.00998 3.26022 3.96998 3.27022 3.93998C3.30022 3.70998 3.41022 3.47998 3.61022 3.23998C3.61022 3.23998 3.61022 3.23998 3.61022 3.22998C3.86022 2.95998 4.14022 2.71998 4.46022 2.53998C4.46022 2.53998 4.46022 2.53998 4.47022 2.53998C4.80022 2.36998 5.11022 2.42998 5.31022 2.66998C5.31022 2.66998 5.74022 3.18998 5.93022 3.43998C6.12022 3.70998 6.30022 3.97998 6.46022 4.26998C6.67022 4.64998 6.53022 5.03998 6.33022 5.19998L5.91022 5.52998C5.70022 5.69998 5.72022 6.01998 5.72022 6.01998C5.72022 6.01998 6.35022 8.35998 8.66022 8.94998C8.66022 8.94998 8.98022 8.97998 9.15022 8.76998L9.48022 8.34998C9.64022 8.13998 10.0302 8.00998 10.4102 8.21998C10.6902 8.37998 10.9702 8.55998 11.2402 8.74998C11.4902 8.93998 12.0102 9.36998 12.0102 9.36998C12.2602 9.57998 12.3102 9.87998 12.1502 10.2ZM8.26022 3.54998C8.13022 3.54998 8.04022 3.43998 8.05022 3.30998C8.06022 3.18998 8.17022 3.09998 8.29022 3.09998C9.25022 3.16998 10.0102 3.50998 10.5602 4.09998C11.1002 4.68998 11.3702 5.43998 11.3502 6.31998C11.3502 6.44998 11.2502 6.54998 11.1202 6.54998C10.9902 6.54998 10.8902 6.43998 10.8902 6.31998C10.9102 5.54998 10.6902 4.91998 10.2202 4.40998C9.76022 3.89998 9.11022 3.61998 8.26022 3.54998ZM10.1902 5.91998C10.2002 6.03998 10.1002 6.14998 9.98022 6.15998C9.97022 6.15998 9.97022 6.15998 9.97022 6.15998C9.85022 6.15998 9.75022 6.06998 9.74022 5.94998C9.70022 5.17998 9.34022 4.79998 8.61022 4.76998C8.48022 4.75998 8.39022 4.64998 8.39022 4.52998C8.40022 4.39998 8.50022 4.30998 8.63022 4.30998C9.60022 4.35998 10.1402 4.91998 10.1902 5.91998ZM12.3102 7.00998C12.1902 7.00998 12.0902 6.90998 12.0802 6.78998C12.0702 5.42998 11.6602 4.34998 10.8702 3.56998C10.0702 2.78998 9.07022 2.39998 7.88022 2.38998C7.76022 2.38998 7.66022 2.28998 7.66022 2.15998C7.66022 2.03998 7.76022 1.93998 7.89022 1.93998C9.20022 1.94998 10.3102 2.38998 11.1902 3.24998C12.0702 4.10998 12.5302 5.29998 12.5402 6.78998C12.5302 6.90998 12.4302 7.00998 12.3102 7.00998Z"/></g><defs><clipPath><rect/></clipPath></defs></svg>