<svg viewBox="0 0 16 16" xmlns="http://www.w3.org/2000/svg"><path d="M13.3084 1.558C12.9161 1.19242 11.3283 0.0269432 7.7881 0.0113202C7.7881 0.0113202 3.61464 -0.241773 1.58197 1.64549C0.451339 2.7891 0.0528365 4.46701 0.00958822 6.54487C-0.0336601 8.62274 -0.0861759 12.516 3.62391 13.5721H3.627L3.62391 15.1844C3.62391 15.1844 3.5992 15.8375 4.0255 15.9687C4.5383 16.1312 4.84104 15.6344 5.33222 15.1C5.60097 14.8063 5.97167 14.3751 6.25279 14.0471C8.79208 14.2627 10.7413 13.769 10.9638 13.6971C11.4766 13.5284 14.3773 13.1534 14.8468 9.26016C15.3349 5.24191 14.6121 2.70473 13.3084 1.558ZM13.7378 8.96644C13.3393 12.216 10.9885 12.4223 10.556 12.5629C10.3706 12.6222 8.65616 13.0534 6.50301 12.9128C6.50301 12.9128 4.89665 14.872 4.3962 15.3813C4.23247 15.5469 4.0533 15.5312 4.05639 15.2032C4.05639 14.9876 4.06875 12.5254 4.06875 12.5254C4.06566 12.5254 4.06566 12.5254 4.06875 12.5254C0.92398 11.6442 1.10933 8.32903 1.14331 6.59487C1.17729 4.86071 1.50165 3.43901 2.4593 2.48288C4.17996 0.904958 7.72323 1.1393 7.72323 1.1393C10.7166 1.1518 12.15 2.06419 12.4836 2.3704C13.5865 3.32653 14.1487 5.61374 13.7378 8.96644ZM9.44389 6.44176C9.45625 6.71048 9.05775 6.72923 9.04539 6.46051C9.01141 5.7731 8.69323 5.43876 8.03832 5.40127C7.77266 5.38564 7.79737 4.98257 8.05995 4.99819C8.92183 5.04506 9.40065 5.545 9.44389 6.44176ZM10.071 6.79484C10.1019 5.47001 9.28326 4.43264 7.72941 4.31703C7.46683 4.29828 7.49463 3.89521 7.75721 3.91395C9.54893 4.04519 10.5035 5.29191 10.4695 6.80422C10.4664 7.07293 10.0648 7.06043 10.071 6.79484ZM11.5229 7.21354C11.526 7.48226 11.1244 7.48538 11.1244 7.21666C11.1059 4.67011 9.42845 3.28278 7.39269 3.26716C7.13011 3.26404 7.13011 2.86409 7.39269 2.86409C9.6694 2.87971 11.5013 4.47013 11.5229 7.21354ZM11.1738 10.2788V10.285C10.8402 10.8787 10.2162 11.5349 9.57364 11.3255L9.56746 11.3161C8.91565 11.1318 7.38033 10.3319 6.41034 9.55075C5.90989 9.1508 5.45269 8.67898 5.10053 8.22591C4.78235 7.82284 4.46107 7.34477 4.14907 6.76985C3.49108 5.56687 3.34588 5.02944 3.34588 5.02944C3.13891 4.37952 3.78455 3.74835 4.37458 3.41089H4.38075C4.66496 3.26091 4.9368 3.31091 5.11906 3.53275C5.11906 3.53275 5.50212 3.99519 5.66585 4.22329C5.8203 4.43576 6.02728 4.77635 6.1354 4.96695C6.32384 5.30753 6.20645 5.65436 6.0211 5.79809L5.6504 6.09806C5.46196 6.25116 5.48668 6.5355 5.48668 6.5355C5.48668 6.5355 6.03655 8.63836 8.09084 9.16954C8.09084 9.16954 8.37195 9.19454 8.52332 9.00394L8.81988 8.62899C8.96199 8.44151 9.30488 8.32278 9.6416 8.51338C10.0957 8.77272 10.6734 9.17579 11.0564 9.54137C11.2727 9.71947 11.3221 9.99132 11.1738 10.2788Z"/></svg>