<svg viewBox="0 0 16 16" xmlns="http://www.w3.org/2000/svg"><g clip-path="url(#clip0_335_201)"><path d="M15.774 14.6594L11.2028 10.1813V6.2438L14.0035 4.63975V10.75C14.0035 11.1641 14.2724 11.5 14.6037 11.5C14.935 11.5 15.2039 11.1657 15.2039 10.75V4.25007C15.2039 3.82226 15.0319 3.42913 14.744 3.19788C14.4557 2.96645 14.0968 2.93567 13.7867 3.11388L11.2028 4.59381V4.00007C11.2028 2.89539 10.4864 2.00008 9.60236 2.00008L2.84806 1.97195L0.970304 0.159807C0.708733 -0.0955667 0.332883 -0.038942 0.127853 0.287244C-0.0765018 0.613523 -0.0310396 1.08508 0.22958 1.34039L15.011 15.8122C15.1438 15.9469 15.2739 16 15.3814 16C15.5596 16 15.7355 15.9012 15.854 15.7127C16.0816 15.3875 16.0341 14.9156 15.774 14.6594ZM10.0025 9.00629L4.38097 3.50007H9.60236C9.82332 3.50007 10.0025 3.72388 10.0025 4.00007V9.00629ZM9.60236 12.5H2.40044C2.17983 12.5 2.00033 12.2757 2.00033 12V4.96569L0.815762 3.80632C0.810511 3.87194 0.800008 3.93444 0.800008 4.00007V12C0.800008 13.1047 1.51645 14 2.40044 14H9.60236C10.0195 14 10.3961 13.7957 10.6809 13.4691L9.67338 12.4822C9.64988 12.4875 9.62737 12.5 9.60236 12.5Z"/></g><defs><clipPath><rect/></clipPath></defs></svg>