<svg viewBox="0 0 16 16" xmlns="http://www.w3.org/2000/svg"><path d="M15.774 14.0351L11.2028 9.97679V6.40845L14.0035 4.95477V10.4922C14.0035 10.8675 14.2724 11.1719 14.6037 11.1719C14.935 11.1719 15.2039 10.8689 15.2039 10.4922V4.60162C15.2039 4.21392 15.0319 3.85765 14.744 3.64808C14.4557 3.43834 14.0968 3.41045 13.7867 3.57196L11.2028 4.91314V4.37506C11.2028 3.37394 10.4864 2.56257 9.60236 2.56257L2.84806 2.53708L0.970304 0.894825C0.708734 0.663393 0.332883 0.714709 0.127853 1.01031C-0.0765018 1.30601 -0.0310396 1.73336 0.22958 1.96473L15.011 15.0798C15.1438 15.2019 15.2739 15.25 15.3814 15.25C15.5596 15.25 15.7355 15.1605 15.854 14.9897C16.0816 14.6949 16.0341 14.2673 15.774 14.0351ZM10.0025 8.91195L4.38097 3.92194H9.60236C9.82332 3.92194 10.0025 4.12477 10.0025 4.37506V8.91195ZM9.60236 12.0781H2.40044C2.17983 12.0781 2.00033 11.8749 2.00033 11.625V5.25015L0.815762 4.19948C0.810511 4.25895 0.800008 4.31559 0.800008 4.37506V11.625C0.800008 12.6261 1.51645 13.4375 2.40044 13.4375H9.60236C10.0195 13.4375 10.3961 13.2524 10.6809 12.9564L9.67338 12.062C9.64988 12.0668 9.62737 12.0781 9.60236 12.0781Z"/></svg>