<svg viewBox="0 0 16 16" xmlns="http://www.w3.org/2000/svg"><path d="M4.57143 5.71429C3.93929 5.71429 3.42857 5.20357 3.42857 4.57143C3.42857 3.93929 3.93929 3.42857 4.57143 3.42857C5.20357 3.42857 5.71429 3.93929 5.71429 4.57143C5.71429 5.20357 5.20357 5.71429 4.57143 5.71429ZM7.14286 4.57143C7.14286 4.09643 7.525 3.71429 8 3.71429H11.4286C11.9036 3.71429 12.2857 4.09643 12.2857 4.57143C12.2857 5.04643 11.9036 5.42857 11.4286 5.42857H8C7.525 5.42857 7.14286 5.04643 7.14286 4.57143ZM7.14286 8C7.14286 7.525 7.525 7.14286 8 7.14286H11.4286C11.9036 7.14286 12.2857 7.525 12.2857 8C12.2857 8.475 11.9036 8.85714 11.4286 8.85714H8C7.525 8.85714 7.14286 8.475 7.14286 8ZM7.14286 11.4286C7.14286 10.9536 7.525 10.5714 8 10.5714H11.4286C11.9036 10.5714 12.2857 10.9536 12.2857 11.4286C12.2857 11.9036 11.9036 12.2857 11.4286 12.2857H8C7.525 12.2857 7.14286 11.9036 7.14286 11.4286ZM4.57143 6.85714C5.20357 6.85714 5.71429 7.36786 5.71429 8C5.71429 8.63214 5.20357 9.14286 4.57143 9.14286C3.93929 9.14286 3.42857 8.63214 3.42857 8C3.42857 7.36786 3.93929 6.85714 4.57143 6.85714ZM4.57143 12.5714C3.93929 12.5714 3.42857 12.0607 3.42857 11.4286C3.42857 10.7964 3.93929 10.2857 4.57143 10.2857C5.20357 10.2857 5.71429 10.7964 5.71429 11.4286C5.71429 12.0607 5.20357 12.5714 4.57143 12.5714ZM0 2.28571C0 1.02321 1.02321 0 2.28571 0H13.7143C14.975 0 16 1.02321 16 2.28571V13.7143C16 14.975 14.975 16 13.7143 16H2.28571C1.02321 16 0 14.975 0 13.7143V2.28571ZM1.71429 2.28571V13.7143C1.71429 14.0286 1.97 14.2857 2.28571 14.2857H13.7143C14.0286 14.2857 14.2857 14.0286 14.2857 13.7143V2.28571C14.2857 1.97 14.0286 1.71429 13.7143 1.71429H2.28571C1.97 1.71429 1.71429 1.97 1.71429 2.28571Z"/></svg>