<svg viewBox="0 0 16 16" xmlns="http://www.w3.org/2000/svg"><path d="M12.25 4.25C10.18 4.25 8.5 5.94 8.5 8C8.5 8.85 8.79 9.62 9.27 10.25H6.75C7.22 9.63 7.5 8.85 7.5 8C7.5 5.93 5.82 4.25 3.75 4.25C1.68 4.25 0 5.94 0 8C0 8.91 0.33 9.79 0.93 10.47C1.2 10.78 1.68 10.81 1.99 10.54C2.3 10.27 2.33 9.8 2.06 9.49C1.7 9.08 1.5 8.55 1.5 8C1.5 6.76 2.51 5.75 3.75 5.75C4.99 5.75 6 6.76 6 8C6 9.24 4.99 10.25 3.75 10.25C3.34 10.25 3 10.59 3 11C3 11.41 3.34 11.75 3.75 11.75H12.25C14.32 11.75 16 10.07 16 8C16 5.93 14.32 4.25 12.25 4.25ZM12.25 10.25C11.01 10.25 10 9.24 10 8C10 6.76 11.01 5.75 12.25 5.75C13.49 5.75 14.5 6.76 14.5 8C14.5 9.24 13.49 10.25 12.25 10.25Z"/></svg>