<svg viewBox="0 0 16 16" xmlns="http://www.w3.org/2000/svg"><path d="M12.3775 4C10.4125 4 8.8 5.56771 8.8 7.5C8.8 8.39931 9.1595 9.21354 9.7345 9.83333H6.2645C6.84 9.21354 7.2 8.39931 7.2 7.5C7.2 5.56771 5.5875 4 3.6 4C1.6125 4 0 5.56771 0 7.5C0 9.43229 1.61225 11 3.5775 11H12.3775C14.3875 11 16 9.43229 16 7.5C16 5.56771 14.3875 4 12.3775 4ZM1.2 7.5C1.2 6.21181 2.275 5.16667 3.6 5.16667C4.925 5.16667 6 6.21181 6 7.5C6 8.78819 4.925 9.83333 3.6 9.83333C2.275 9.83333 1.2 8.78819 1.2 7.5ZM12.4 9.83333C11.075 9.83333 10 8.78819 10 7.5C10 6.21181 11.075 5.16667 12.4 5.16667C13.725 5.16667 14.8 6.21181 14.8 7.5C14.8 8.78819 13.725 9.83333 12.4 9.83333Z"/></svg>