<svg viewBox="0 0 16 16" xmlns="http://www.w3.org/2000/svg"><path d="M11.96 10.4C11.77 10.4 11.58 10.33 11.43 10.18C11.14 9.89 11.14 9.41 11.43 9.12C12.05 8.5 12.05 7.5 11.43 6.88C11.14 6.59 11.14 6.11 11.43 5.82C11.72 5.53 12.2 5.53 12.49 5.82C13.69 7.02 13.69 8.98 12.49 10.18C12.34 10.32 12.15 10.4 11.96 10.4Z"/><path d="M13.8 12.25C13.61 12.25 13.42 12.18 13.27 12.03C12.98 11.74 12.98 11.26 13.27 10.97C14.91 9.33 14.91 6.67 13.27 5.04C12.98 4.75 12.98 4.27 13.27 3.98C13.56 3.69 14.04 3.69 14.33 3.98C15.41 5.05 16 6.48 16 8C16 9.52 15.41 10.95 14.33 12.03C14.19 12.17 14 12.25 13.8 12.25Z"/><path d="M8.72 14.62C8.22 14.62 7.74 14.43 7.35 14.07L5.5 12.31C5.2 12.02 5.19 11.55 5.47 11.25C5.75 10.95 6.23 10.94 6.53 11.22L8.38 12.97C8.6 13.18 8.83 13.1 8.92 13.07C9.01 13.03 9.22 12.91 9.22 12.61V3.38C9.22 3.08 9.01 2.96 8.92 2.92C8.83 2.88 8.6 2.81 8.38 3.02L5.56 5.7C5.19 6.05 4.7 6.25 4.19 6.25H2C1.72 6.25 1.5 6.47 1.5 6.75V9.25C1.5 9.53 1.72 9.75 2 9.75H3.88C4.29 9.75 4.63 10.09 4.63 10.5C4.63 10.91 4.29 11.25 3.88 11.25H2C0.9 11.25 0 10.35 0 9.25V6.75C0 5.65 0.9 4.75 2 4.75H4.19C4.32 4.75 4.44 4.7 4.54 4.61L7.36 1.93C7.95 1.37 8.78 1.22 9.53 1.54C10.28 1.86 10.74 2.56 10.74 3.38V12.61C10.74 13.42 10.28 14.13 9.53 14.45C9.26 14.56 8.99 14.62 8.72 14.62Z"/></svg>