<svg viewBox="0 0 16 16" xmlns="http://www.w3.org/2000/svg"><path d="M13.0996 1.08402C12.9587 1.02795 12.807 1 12.6583 1C12.4003 1.00006 12.1456 1.0824 11.9451 1.23956L7.41942 4.78574H4.6095C3.72059 4.78574 3 5.42132 3 6.17876V8.99142C3 9.77547 3.72059 10.3844 4.6095 10.3844H7.42076L11.9441 13.9306C12.144 14.1672 12.3988 14.25 12.657 14.25C12.8058 14.25 12.9574 14.2225 13.0983 14.1661C13.4852 14.0134 13.73 13.6762 13.73 13.3036V1.94646C13.73 1.5741 13.4852 1.21002 13.0996 1.08402ZM12.1205 12.2507L8.03304 9.04465H4.6095V6.23199H8.03304L12.1205 3.00054V12.2507Z"/></svg>