<svg data-name="Layer 1" xmlns="http://www.w3.org/2000/svg" viewBox="0 0 32 32"><path d="M17.23 9.75v-3.2a1.11 1.11 0 00-1.1-1.1 1.14 1.14 0 00-.8.3l-5.9 5.8h-4.7a1.11 1.11 0 00-1.1 1.1v6.7a1.11 1.11 0 001.1 1.1h1.5zm7.9-.75l1.2-1a1.27 1.27 0 00-1.8-1.8l-12 11.6-3 2.9-3.8 3.7a1 1 0 000 1.6 1.09 1.09 0 00.9.4.91.91 0 00.8-.4l3.8-3.7 4 4a1.14 1.14 0 00.8.3 1.11 1.11 0 001.1-1.1v-9l2.9-2.8c.6.5 1.7.7 1.7 2.3 0 2.1-2.1 1.7-2.1 3.1a1.11 1.11 0 001.1 1.1.6.6 0 00.4-.1 4.35 4.35 0 002.7-4.1 4.54 4.54 0 00-2.3-3.9l1.6-1.6a.1.1 0 01.1.1 6.61 6.61 0 010 10.8c-.4.3-.9.5-1.3.8a1.09 1.09 0 00-.7 1 1.13 1.13 0 001.2 1.1.6.6 0 00.4-.1 9 9 0 005.5-8.2 7.8 7.8 0 00-3.2-7z"/></svg>