<svg viewBox="0 0 16 16" xmlns="http://www.w3.org/2000/svg"><path d="M13.32 10.4C13.13 10.4 12.94 10.33 12.79 10.18C12.5 9.89 12.5 9.41 12.79 9.12C13.41 8.5 13.41 7.5 12.79 6.88C12.5 6.59 12.5 6.11 12.79 5.82C13.08 5.53 13.56 5.53 13.85 5.82C15.05 7.02 15.05 8.98 13.85 10.18C13.7 10.32 13.51 10.4 13.32 10.4Z"/><path d="M9.97 14.62C9.47 14.62 8.99 14.43 8.6 14.07L6.75 12.32C6.45 12.03 6.44 11.56 6.72 11.26C7.01 10.96 7.48 10.95 7.78 11.23L9.63 12.98C9.85 13.19 10.08 13.11 10.17 13.08C10.26 13.04 10.47 12.92 10.47 12.62V3.38C10.47 3.08 10.26 2.96 10.17 2.92C10.08 2.88 9.84 2.81 9.63 3.02L6.82 5.7C6.44 6.05 5.95 6.25 5.44 6.25H3.25C2.97 6.25 2.75 6.47 2.75 6.75V9.25C2.75 9.53 2.97 9.75 3.25 9.75H5.13C5.54 9.75 5.88 10.09 5.88 10.5C5.88 10.91 5.54 11.25 5.13 11.25H3.25C2.15 11.25 1.25 10.35 1.25 9.25V6.75C1.25 5.65 2.15 4.75 3.25 4.75H5.44C5.57 4.75 5.69 4.7 5.79 4.61L8.6 1.93C9.19 1.37 10.02 1.22 10.77 1.54C11.52 1.86 11.98 2.56 11.98 3.38V12.61C11.98 13.42 11.52 14.13 10.77 14.45C10.51 14.56 10.24 14.62 9.97 14.62Z"/></svg>