<svg viewBox="0 0 16 16" xmlns="http://www.w3.org/2000/svg"><g clip-path="url(#clip0_335_31)"><path d="M15.7642 14.6594L13.5455 12.4847C14.5921 11.3375 15.1944 9.71566 15.1944 8.00004C15.1944 6.21505 14.5486 4.52819 13.423 3.4032C13.3117 3.28954 13.177 3.23395 13.0431 3.23395C12.8698 3.23395 12.6978 3.32704 12.5788 3.50769C12.3687 3.82801 12.4062 4.30082 12.6624 4.56331C13.51 5.40318 13.9948 6.66568 13.9948 8.00004C13.9948 9.3341 13.509 10.5966 12.6625 11.4657C12.6364 11.4925 12.6226 11.529 12.601 11.5598L11.4932 10.4742C11.5059 10.4752 11.5174 10.4843 11.5301 10.4843C11.6637 10.4843 11.7988 10.4287 11.9097 10.3154C12.4728 9.73753 12.7952 8.89691 12.7952 8.00004C12.7952 7.10474 12.4726 6.26193 11.9095 5.68568C11.7978 5.57228 11.6632 5.51693 11.5297 5.51693C11.356 5.51693 11.1841 5.6105 11.0661 5.79215C10.856 6.11246 10.8935 6.58527 11.1504 6.84777C11.4332 7.13755 11.5957 7.5563 11.5957 8.00004C11.5957 8.44379 11.4332 8.86316 11.1506 9.15254C10.9576 9.34985 10.8884 9.66535 10.955 9.94597L9.59637 8.61567V2.00008C9.59637 1.60664 9.41301 1.24977 9.12554 1.08883C9.02055 1.02958 8.90739 1.00005 8.79666 1.00005C8.6043 1.00005 8.41454 1.08705 8.2651 1.25318L5.37038 4.47194L0.969711 0.159807C0.708054 -0.0955667 0.332689 -0.038942 0.127762 0.287244C-0.0764395 0.613523 -0.0310308 1.08508 0.229426 1.34039L15.0016 15.8122C15.1344 15.9469 15.2643 16 15.3718 16C15.5499 16 15.7257 15.9012 15.8441 15.7127C16.0716 15.3875 16.0241 14.9156 15.7642 14.6594ZM8.3968 7.43755L6.33004 5.41256L8.3968 3.11382V7.43755ZM8.3968 12.8875L5.35039 9.50004H2.79881V6.52818H3.54904L2.21776 5.19694C1.85064 5.45318 1.59924 5.90943 1.59924 6.50005V9.50004C1.59924 10.3285 2.13629 10.9719 2.79881 10.9719H4.89405L8.26535 14.7188C8.41429 14.9125 8.60423 15 8.79666 15C8.90757 15 9.02055 14.9709 9.12554 14.9113C9.41393 14.75 9.59637 14.3938 9.59637 14V12.4269L8.3968 11.2513V12.8875Z"/></g><defs><clipPath><rect/></clipPath></defs></svg>