<svg viewBox="0 0 16 16" xmlns="http://www.w3.org/2000/svg"><path d="M10.47 14.62C9.97 14.62 9.49 14.43 9.1 14.07L7.25 12.32C6.95 12.03 6.94 11.56 7.22 11.26C7.5 10.96 7.98 10.95 8.28 11.23L10.13 12.98C10.34 13.18 10.58 13.12 10.67 13.08C10.76 13.04 10.97 12.92 10.97 12.62V3.38C10.97 3.08 10.76 2.96 10.67 2.92C10.58 2.88 10.34 2.81 10.13 3.02L7.31 5.7C6.94 6.05 6.45 6.25 5.94 6.25H3.75C3.47 6.25 3.25 6.47 3.25 6.75V9.25C3.25 9.53 3.47 9.75 3.75 9.75H5.63C6.04 9.75 6.38 10.09 6.38 10.5C6.38 10.91 6.04 11.25 5.63 11.25H3.75C2.65 11.25 1.75 10.35 1.75 9.25V6.75C1.75 5.65 2.65 4.75 3.75 4.75H5.94C6.07 4.75 6.19 4.7 6.28 4.61L9.1 1.93C9.69 1.37 10.52 1.22 11.27 1.54C12.02 1.86 12.48 2.56 12.48 3.38V12.61C12.48 13.42 12.02 14.13 11.27 14.45C11.01 14.56 10.74 14.62 10.47 14.62Z"/></svg>