<svg viewBox="0 0 16 16" xmlns="http://www.w3.org/2000/svg"><g clip-path="url(#clip0)"><path d="M11.7299 7.05994C11.3199 7.05994 10.9799 7.39994 10.9799 7.80994V12.6199C10.9799 12.9199 10.7699 13.0399 10.6799 13.0799C10.5899 13.1199 10.3499 13.1899 10.1399 12.9799L8.28994 11.2299C7.98994 10.9399 7.50994 10.9599 7.22994 11.2599C6.93994 11.5599 6.95994 12.0399 7.25994 12.3199L9.10994 14.0699C9.48994 14.4299 9.97994 14.6199 10.4799 14.6199C10.7499 14.6199 11.0199 14.5699 11.2799 14.4499C12.0299 14.1299 12.4899 13.4299 12.4899 12.6099V7.80994C12.4799 7.38994 12.1399 7.05994 11.7299 7.05994Z"/><path d="M15.7799 0.219941C15.4899 -0.0700586 15.0099 -0.0700586 14.7199 0.219941L12.3099 2.62994C12.1199 2.15994 11.7599 1.75994 11.2599 1.54994C10.5199 1.22994 9.68994 1.36994 9.09994 1.92994L6.27994 4.60994C6.18994 4.69994 6.06994 4.74994 5.93994 4.74994H3.74994C2.64994 4.74994 1.74994 5.64994 1.74994 6.74994V9.24994C1.74994 10.3299 2.61994 11.2099 3.69994 11.2399L0.219941 14.7199C-0.0700586 15.0099 -0.0700586 15.4899 0.219941 15.7799C0.369941 15.9299 0.559941 15.9999 0.749941 15.9999C0.939941 15.9999 1.12994 15.9299 1.27994 15.7799L15.7799 1.27994C16.0699 0.989941 16.0699 0.509941 15.7799 0.219941ZM3.74994 9.74994C3.46994 9.74994 3.24994 9.52994 3.24994 9.24994V6.74994C3.24994 6.46994 3.46994 6.24994 3.74994 6.24994H5.93994C6.44994 6.24994 6.93994 6.05994 7.31994 5.69994L10.1399 3.01994C10.3499 2.81994 10.5899 2.87994 10.6799 2.91994C10.7699 2.95994 10.9799 3.07994 10.9799 3.37994V3.95994L5.18994 9.74994H3.74994Z"/></g><defs><clipPath><rect/></clipPath></defs></svg>