<svg viewBox="0 0 16 16" xmlns="http://www.w3.org/2000/svg"><path d="M13.4333 5.43347C13.2986 5.32613 13.1362 5.27373 12.9752 5.27373C12.7658 5.27373 12.5585 5.36228 12.4162 5.5342C12.1629 5.83735 12.2081 6.28454 12.5179 6.53327C12.8577 6.80874 13.0536 7.20505 13.0536 7.62503C13.0536 8.04471 12.8577 8.44191 12.5169 8.71549C12.2071 8.9641 12.1619 9.41141 12.4152 9.71456C12.5574 9.88645 12.7653 9.97518 12.9745 9.97518C13.1355 9.97518 13.2984 9.9225 13.4322 9.81529C14.1113 9.26944 14.5 8.47385 14.5 7.62503C14.5 6.77621 14.1113 5.98062 13.4333 5.43347ZM10.0763 1.08405C9.94975 1.02798 9.8133 1 9.67978 1C9.44784 1 9.21903 1.08234 9.03883 1.23959L4.97165 4.78576H2.44643C1.64758 4.78576 1 5.42134 1 6.17877V8.99143C1 9.77548 1.64758 10.3844 2.44643 10.3844H4.97286L9.03792 13.9306C9.21752 14.1672 9.44654 14.25 9.67857 14.25C9.81231 14.25 9.94854 14.2225 10.0751 14.1661C10.4229 14.0134 10.6429 13.6762 10.6429 13.3036V1.94648C10.6429 1.57412 10.4229 1.21005 10.0763 1.08405ZM9.19643 12.2507L5.5231 9.04467H2.44643V6.23201H5.5231L9.19643 3.00056V12.2507Z"/></svg>