<svg viewBox="0 0 16 16" xmlns="http://www.w3.org/2000/svg"><path d="M15.25 3.18C14.84 3.18 14.5 3.52 14.5 3.93V10.25C14.5 10.94 13.94 11.5 13.25 11.5H6.93C6.52 11.5 6.18 11.84 6.18 12.25C6.18 12.66 6.52 13 6.93 13H7.25V14.5H4.75C4.34 14.5 4 14.84 4 15.25C4 15.66 4.34 16 4.75 16H11.25C11.66 16 12 15.66 12 15.25C12 14.84 11.66 14.5 11.25 14.5H8.75V13H13.25C14.77 13 16 11.77 16 10.25V3.93C16 3.52 15.66 3.18 15.25 3.18Z"/><path d="M15.78 0.22C15.49 -0.07 15.01 -0.07 14.72 0.22L14.58 0.36C14.18 0.13 13.73 0 13.25 0H2.75C1.23 0 0 1.23 0 2.75V10.25C0 11.52 0.87 12.58 2.04 12.9L0.22 14.72C-0.07 15.01 -0.07 15.49 0.22 15.78C0.37 15.93 0.56 16 0.75 16C0.94 16 1.13 15.93 1.28 15.78L15.78 1.28C16.07 0.99 16.07 0.51 15.78 0.22ZM2.75 11.5C2.06 11.5 1.5 10.94 1.5 10.25V2.75C1.5 2.06 2.06 1.5 2.75 1.5H13.25C13.31 1.5 13.35 1.52 13.41 1.53L11.21 3.73C10.41 2.8 9.26 2.25 8 2.25C7.39 2.25 6.8 2.38 6.24 2.63C5.86 2.8 5.7 3.25 5.87 3.62C6.04 4 6.49 4.17 6.86 4C7.22 3.83 7.6 3.75 8 3.75C8.85 3.75 9.62 4.15 10.14 4.8L8.88 6.05C8.72 5.73 8.39 5.5 8 5.5C7.45 5.5 7 5.95 7 6.5C7 6.89 7.23 7.22 7.56 7.38L6.3 8.64C5.65 8.12 5.25 7.35 5.25 6.5C5.25 6.1 5.33 5.72 5.5 5.36C5.67 4.98 5.5 4.54 5.13 4.37C4.75 4.2 4.31 4.37 4.14 4.74C3.88 5.3 3.75 5.89 3.75 6.5C3.75 7.76 4.3 8.91 5.23 9.71L3.44 11.5H2.75Z"/><path d="M10.47 7.71C10.2 8.26 9.75 8.71 9.2 8.98C8.83 9.16 8.67 9.61 8.85 9.98C8.98 10.25 9.25 10.4 9.52 10.4C9.63 10.4 9.74 10.38 9.85 10.32C10.7 9.91 11.4 9.21 11.81 8.36C11.99 7.99 11.84 7.54 11.46 7.36C11.1 7.18 10.66 7.33 10.47 7.71Z"/></svg>