<svg viewBox="0 0 16 16" xmlns="http://www.w3.org/2000/svg"><path d="M13.25 0H2.75C1.23 0 0 1.23 0 2.75V10.25C0 11.77 1.23 13 2.75 13H7.25V14.5H4.75C4.34 14.5 4 14.84 4 15.25C4 15.66 4.34 16 4.75 16H11.25C11.66 16 12 15.66 12 15.25C12 14.84 11.66 14.5 11.25 14.5H8.75V13H13.25C14.77 13 16 11.77 16 10.25V2.75C16 1.23 14.77 0 13.25 0ZM14.5 10.25C14.5 10.94 13.94 11.5 13.25 11.5H2.75C2.06 11.5 1.5 10.94 1.5 10.25V2.75C1.5 2.06 2.06 1.5 2.75 1.5H13.25C13.94 1.5 14.5 2.06 14.5 2.75V10.25Z"/><path d="M8 7.5C8.55228 7.5 9 7.05228 9 6.5C9 5.94772 8.55228 5.5 8 5.5C7.44772 5.5 7 5.94772 7 6.5C7 7.05228 7.44772 7.5 8 7.5Z"/><path d="M8 2.25C7.39 2.25 6.8 2.38 6.24 2.63C5.86 2.8 5.7 3.25 5.87 3.62C6.04 3.99 6.49 4.17 6.86 4C7.22 3.83 7.6 3.75 8 3.75C9.52 3.75 10.75 4.98 10.75 6.5C10.75 8.02 9.52 9.25 8 9.25C6.48 9.25 5.25 8.02 5.25 6.5C5.25 6.1 5.33 5.72 5.5 5.36C5.67 4.98 5.5 4.54 5.13 4.37C4.75 4.2 4.31 4.37 4.14 4.74C3.88 5.3 3.75 5.89 3.75 6.5C3.75 8.84 5.66 10.75 8 10.75C10.34 10.75 12.25 8.84 12.25 6.5C12.25 4.16 10.34 2.25 8 2.25Z"/></svg>