<svg xmlns="http://www.w3.org/2000/svg" viewBox="0 0 16 16"><path d="m3.02 9.559 2.217-2.217a2.863 2.863 0 0 1-.049-.519A2.808 2.808 0 0 1 8 4.012a2.852 2.852 0 0 1 .518.049l2.22-2.221A5.675 5.675 0 0 0 3.02 9.559zM7 2.484A.483.483 0 0 1 7.482 2h1.035A.484.484 0 0 1 9 2.484v.033A.482.482 0 0 1 8.517 3H7.482A.482.482 0 0 1 7 2.518zM8 13.5a6.6 6.6 0 0 1-3.195-.824L2.5 15h11l-2.3-2.324A6.6 6.6 0 0 1 8 13.5zm6.267-12.494a.5.5 0 0 0-.707 0l-11.7 11.7a.5.5 0 0 0 .707.707l2.042-2.042a5.677 5.677 0 0 0 7.961-7.933c.885-.895 1.7-1.727 1.7-1.727a.5.5 0 0 0-.003-.705zm-3.676 6.912A2.812 2.812 0 0 1 8 9.637 2.773 2.773 0 0 1 6.678 9.3l3.7-3.7s.039-.026.1-.085c.038.071.075.143.107.217a2.815 2.815 0 0 1 0 2.189z"/></svg>