<svg viewBox="0 0 16 16" xmlns="http://www.w3.org/2000/svg"><g clip-path="url(#clip0_335_36)"><path d="M8 2.97711C5.54444 2.97711 3.55556 4.65819 3.55556 6.73371C3.55556 8.8083 5.54556 10.4903 8 10.4903C10.4548 10.4903 12.4444 8.8083 12.4444 6.73371C12.4444 4.65819 10.4556 2.97711 8 2.97711ZM8 8.98767C6.52963 8.98767 5.33333 7.97652 5.33333 6.73371C5.33333 5.4909 6.52593 4.47975 7.9963 4.47975C9.46667 4.47975 10.6667 5.4909 10.6667 6.73371C10.6667 7.97652 9.47037 8.98767 8 8.98767ZM12.5852 12.2716C14.6481 11.0475 16 9.02524 16 6.73371C16 2.99902 12.4181 0 8 0C3.58148 0 0 3.02751 0 6.73371C0 9.02587 1.35259 11.0475 3.41667 12.2716L1.07852 14.7851C0.869037 15.011 0.829667 15.3188 0.977815 15.5774C1.12741 15.8372 1.43741 16 1.77778 16H14.2222C14.5625 16 14.8726 15.8356 15.0219 15.5768C15.17 15.318 15.1307 15.0104 14.9211 14.7844L12.5852 12.2716ZM3.60741 14.4974L5.00037 12.9997C5.92593 13.3172 6.93704 13.4956 8 13.4956C9.06296 13.4956 10.0726 13.317 10.9993 12.9997L12.3926 14.4974H3.60741ZM8 11.993C4.56926 11.993 1.77778 9.6335 1.77778 6.73371C1.77778 3.83487 4.57037 1.47447 8 1.47447C11.4311 1.47447 14.2222 3.83361 14.2222 6.73371C14.2222 9.63256 11.4296 11.993 8 11.993Z"/></g><defs><clipPath><rect/></clipPath></defs></svg>