<svg viewBox="0 0 16 16" xmlns="http://www.w3.org/2000/svg"><path d="M15.774 13.2023L12.1305 10.4133C12.9233 9.49746 13.4034 8.29345 13.4034 7.02106C13.4034 4.1075 10.985 1.76786 8.00193 1.76786C6.20869 1.76786 4.63102 2.62996 3.65075 3.94363L0.972531 1.8929C0.70871 1.6712 0.333108 1.71545 0.127853 1.97034C-0.0765019 2.22531 -0.0310397 2.59384 0.229581 2.79337L15.0111 14.1032C15.1438 14.2085 15.2739 14.25 15.3814 14.25C15.5596 14.25 15.7355 14.1728 15.854 14.0255C16.0816 13.7713 16.0341 13.4026 15.774 13.2023ZM9.29477 8.22018L6.48152 6.08813C6.7991 5.5948 7.35925 5.24068 7.99942 5.24068C8.99219 5.24068 9.80241 6.0515 9.80241 7.02106C9.80241 7.49485 9.60736 7.92712 9.29477 8.22018ZM10.24 8.96506C10.7127 8.44975 11.0027 7.77082 11.0027 7.02106C11.0027 5.40236 9.65912 4.0904 8.00193 4.0904C6.9754 4.0904 6.07991 4.60058 5.54001 5.36866L4.60101 4.64967C5.35871 3.60587 6.59405 2.91814 8.00193 2.91814C10.3185 2.91814 12.2031 4.75859 12.2031 7.02106C12.2031 8.04117 11.8125 8.9675 11.178 9.68307L10.24 8.96506ZM5.03613 13.0777L5.97663 11.9094C6.60155 12.157 7.28423 12.2962 8.00193 12.2962C8.76388 12.2962 9.48807 12.1403 10.1455 11.8623L9.0082 10.9916C8.68411 11.0701 8.35052 11.1238 8.00193 11.1238C5.6863 11.102 3.80079 9.28254 3.80079 7.02106C3.80079 7.01614 3.80226 7.01166 3.80226 7.00675L2.68049 6.14919C2.63298 6.43248 2.60047 6.72311 2.60047 7.02106C2.60047 8.80924 3.51372 10.3864 4.90734 11.3413L3.32867 13.3022C3.18723 13.4785 3.16065 13.7186 3.26067 13.9203C3.36067 14.123 3.57073 14.25 3.80079 14.25H13.2658L11.7344 13.0777H5.03613Z"/></svg>