<svg viewBox="0 0 16 16" xmlns="http://www.w3.org/2000/svg"><g clip-path="url(#clip0_335_60)"><path d="M15.774 14.6589L12.1305 11.089C12.9233 9.91675 13.4034 8.37561 13.4034 6.74695C13.4034 3.0176 10.985 0.0228615 8.00193 0.0228615C6.20869 0.0228615 4.63102 1.12635 3.65075 2.80784L0.972531 0.182914C0.70871 -0.100867 0.333108 -0.0442231 0.127853 0.282041C-0.0765019 0.608398 -0.0310397 1.08012 0.229581 1.33551L15.0111 15.8122C15.1438 15.9469 15.2739 16 15.3814 16C15.5596 16 15.7355 15.9012 15.854 15.7126C16.0816 15.3873 16.0341 14.9153 15.774 14.6589ZM9.29477 8.28183L6.48152 5.55281C6.7991 4.92135 7.35925 4.46808 7.99942 4.46808C8.99219 4.46808 9.80241 5.50592 9.80241 6.74695C9.80241 7.3534 9.60736 7.90671 9.29477 8.28183ZM10.24 9.23527C10.7127 8.57568 11.0027 7.70664 11.0027 6.74695C11.0027 4.67502 9.65912 2.99572 8.00193 2.99572C6.9754 2.99572 6.07991 3.64874 5.54001 4.63188L4.60101 3.71158C5.35871 2.37551 6.59405 1.49522 8.00193 1.49522C10.3186 1.49522 12.2031 3.851 12.2031 6.74695C12.2031 8.05269 11.8125 9.2384 11.178 10.1543L10.24 9.23527ZM5.03613 14.4995L5.97663 13.004C6.60155 13.321 7.28423 13.4992 8.00193 13.4992C8.76388 13.4992 9.48808 13.2996 10.1455 12.9437L9.0082 11.8293C8.68411 11.9298 8.35052 11.9984 8.00193 11.9984C5.6863 11.9705 3.80079 9.64166 3.80079 6.74695C3.80079 6.74066 3.80226 6.73492 3.80226 6.72864L2.68049 5.63096C2.63298 5.99358 2.60047 6.36558 2.60047 6.74695C2.60047 9.03583 3.51372 11.0546 4.90734 12.2769L3.32867 14.7868C3.18723 15.0125 3.16065 15.3198 3.26067 15.578C3.36067 15.8374 3.57073 16 3.80079 16H13.2658L11.7344 14.4995H5.03613Z"/></g><defs><clipPath><rect/></clipPath></defs></svg>