<svg xmlns="http://www.w3.org/2000/svg" viewBox="0 0 16 16"><path d="M5.325 5.785a.406.406 0 0 0-.423.392.402.402 0 0 0 .398.417.414.414 0 0 0 .428-.391.418.418 0 0 0-.403-.418zm2.592.811a.401.401 0 0 0 .404-.411.404.404 0 0 0-.414-.4.42.42 0 0 0-.41.412.41.41 0 0 0 .42.399zm2.863 1.791a.34.34 0 0 0-.336.323.333.333 0 0 0 .331.35.328.328 0 0 0 .335-.321.334.334 0 0 0-.33-.352zm-2.106-.001a.344.344 0 0 0-.342.35.34.34 0 0 0 .339.326.338.338 0 1 0 .003-.676zM14 1H2a1 1 0 0 0-1 1v12a1 1 0 0 0 1 1h12a1 1 0 0 0 1-1V2a1 1 0 0 0-1-1zM5.702 9.747a.623.623 0 0 0-.34.058c-.315.178-.618.379-.976.603.065-.297.108-.558.183-.808.055-.184.03-.287-.14-.407-1.089-.769-1.548-1.92-1.204-3.105.318-1.096 1.099-1.761 2.159-2.107 1.448-.473 3.075.009 3.955 1.159.318.415.513.881.564 1.432-.907.048-1.696.323-2.336.944-.647.628-.943 1.397-.862 2.351-.355-.044-.678-.092-1.003-.12zm6.385 1.489c-.28.248-.38.452-.201.78.033.06.037.137.056.213-.287-.128-.551-.32-.831-.349-.28-.029-.573.132-.866.162-.891.091-1.689-.157-2.347-.766-1.252-1.158-1.073-2.933.375-3.881 1.287-.843 3.174-.562 4.082.608.792 1.021.699 2.376-.268 3.233z"/></svg>