<svg viewBox="0 0 16 16" xmlns="http://www.w3.org/2000/svg"><path d="M14.3 12.79C15.34 12.05 16 10.95 16 9.71999C16 7.48999 13.84 5.68999 11.17 5.68999C8.5 5.68999 6.34 7.49999 6.34 9.71999C6.34 11.95 8.5 13.75 11.17 13.75C11.75 13.75 12.3 13.67 12.82 13.51C12.91 13.48 13.01 13.49 13.09 13.54L14.14 14.15C14.37 14.28 14.51 14.18 14.44 13.92L14.21 13.05C14.18 12.96 14.22 12.85 14.3 12.79ZM9.56 9.08999C9.2 9.08999 8.9 8.79999 8.9 8.42999C8.9 8.06999 9.19 7.76999 9.56 7.76999C9.92 7.76999 10.22 8.05999 10.22 8.42999C10.22 8.78999 9.92 9.08999 9.56 9.08999ZM12.76 9.08999C12.4 9.08999 12.1 8.79999 12.1 8.42999C12.1 8.06999 12.39 7.76999 12.76 7.76999C13.12 7.76999 13.42 8.05999 13.42 8.42999C13.42 8.78999 13.12 9.08999 12.76 9.08999Z"/><path d="M5.8 1.23999C2.6 1.23999 0 3.39999 0 6.06999C0 7.53999 0.79 8.84999 2.02 9.73999C2.14 9.81999 2.19 9.96999 2.15 10.11L1.88 11.13C1.8 11.44 1.96 11.56 2.23 11.4L3.47 10.67C3.58 10.6 3.72 10.59 3.84 10.63C4.46 10.8 5.12 10.9 5.8 10.9C5.9 10.9 6.01 10.9 6.11 10.89C5.98 10.51 5.91 10.11 5.91 9.69999C5.91 7.26999 8.29 5.29999 11.22 5.29999C11.32 5.29999 11.42 5.29999 11.53 5.30999C11.1 3.00999 8.7 1.23999 5.8 1.23999ZM3.86 5.28999C3.43 5.28999 3.09 4.93999 3.09 4.51999C3.09 4.08999 3.44 3.74999 3.86 3.74999C4.29 3.74999 4.63 4.09999 4.63 4.51999C4.63 4.93999 4.28 5.28999 3.86 5.28999ZM7.73 5.28999C7.3 5.28999 6.96 4.93999 6.96 4.51999C6.96 4.08999 7.31 3.74999 7.73 3.74999C8.16 3.74999 8.5 4.09999 8.5 4.51999C8.5 4.93999 8.16 5.28999 7.73 5.28999Z"/></svg>