<svg viewBox="0 0 16 16" xmlns="http://www.w3.org/2000/svg"><path d="M10.8276 4.93394C11.0138 4.93394 11.1942 4.94265 11.3745 4.96586C10.8916 2.69136 8.44509 1 5.664 1C2.54545 1 0 3.11203 0 5.79848C0 7.34769 0.852364 8.62709 2.26618 9.61638L1.70473 11.3164L3.68291 10.3272C4.39273 10.4664 4.95709 10.6086 5.66691 10.6086C5.84727 10.6086 6.01891 10.5999 6.19927 10.5854C6.08291 10.2111 6.01891 9.81366 6.01891 9.4017C6.016 6.93863 8.13964 4.93394 10.8276 4.93394ZM7.78764 3.39924C8.20945 3.39924 8.49164 3.68065 8.49164 4.10712C8.49164 4.52778 8.20945 4.80919 7.78764 4.80919C7.35709 4.80919 6.93527 4.52778 6.93527 4.10712C6.93818 3.68065 7.36 3.39924 7.78764 3.39924ZM3.81964 4.80919C3.39782 4.80919 2.96727 4.52778 2.96727 4.10712C2.96727 3.67775 3.39782 3.39924 3.81964 3.39924C4.25018 3.39924 4.52945 3.68065 4.52945 4.10712C4.52945 4.53069 4.25018 4.80919 3.81964 4.80919ZM16 9.33787C16 7.07788 13.7338 5.23856 11.1884 5.23856C8.49164 5.23856 6.37673 7.07788 6.37673 9.33787C6.37673 11.5979 8.49455 13.4372 11.1884 13.4372C11.7498 13.4372 12.32 13.2892 12.8931 13.15L14.4465 14L14.016 12.59C15.1564 11.7371 16 10.6086 16 9.33787ZM9.62618 8.62709C9.344 8.62709 9.06473 8.34568 9.06473 8.05847C9.06473 7.77706 9.34691 7.49855 9.62618 7.49855C10.0567 7.49855 10.336 7.77996 10.336 8.05847C10.336 8.34858 10.0538 8.62709 9.62618 8.62709ZM12.7418 8.62709C12.4596 8.62709 12.1804 8.34568 12.1804 8.05847C12.1804 7.77706 12.4625 7.49855 12.7418 7.49855C13.1636 7.49855 13.4516 7.77996 13.4516 8.05847C13.4545 8.34858 13.1636 8.62709 12.7418 8.62709Z"/></svg>