<svg viewBox="0 0 16 16" xmlns="http://www.w3.org/2000/svg"><path d="M10.8276 5.43394C11.0138 5.43394 11.1942 5.44265 11.3745 5.46586C10.8916 3.19136 8.44509 1.5 5.664 1.5C2.54545 1.5 0 3.61203 0 6.29848C0 7.84769 0.852364 9.12709 2.26618 10.1164L1.70473 11.8164L3.68291 10.8272C4.39273 10.9664 4.95709 11.1086 5.66691 11.1086C5.84727 11.1086 6.01891 11.0999 6.19927 11.0854C6.08291 10.7111 6.01891 10.3137 6.01891 9.9017C6.016 7.43863 8.13964 5.43394 10.8276 5.43394V5.43394ZM7.78764 3.89924C8.20945 3.89924 8.49164 4.18065 8.49164 4.60712C8.49164 5.02778 8.20945 5.30919 7.78764 5.30919C7.35709 5.30919 6.93527 5.02778 6.93527 4.60712C6.93818 4.18065 7.36 3.89924 7.78764 3.89924ZM3.81964 5.30919C3.39782 5.30919 2.96727 5.02778 2.96727 4.60712C2.96727 4.17775 3.39782 3.89924 3.81964 3.89924C4.25018 3.89924 4.52945 4.18065 4.52945 4.60712C4.52945 5.03069 4.25018 5.30919 3.81964 5.30919ZM16 9.83787C16 7.57788 13.7338 5.73856 11.1884 5.73856C8.49164 5.73856 6.37673 7.57788 6.37673 9.83787C6.37673 12.0979 8.49455 13.9372 11.1884 13.9372C11.7498 13.9372 12.32 13.7892 12.8931 13.65L14.4465 14.5L14.016 13.09C15.1564 12.2371 16 11.1086 16 9.83787ZM9.62618 9.12709C9.344 9.12709 9.06473 8.84568 9.06473 8.55847C9.06473 8.27706 9.34691 7.99855 9.62618 7.99855C10.0567 7.99855 10.336 8.27996 10.336 8.55847C10.336 8.84858 10.0538 9.12709 9.62618 9.12709ZM12.7418 9.12709C12.4596 9.12709 12.1804 8.84568 12.1804 8.55847C12.1804 8.27706 12.4625 7.99855 12.7418 7.99855C13.1636 7.99855 13.4516 8.27996 13.4516 8.55847C13.4545 8.84858 13.1636 9.12709 12.7418 9.12709Z"/></svg>