<svg xmlns="http://www.w3.org/2000/svg" viewBox="0 0 16 16"><path d="M7.793 4.294c-2.703.197-4.326 3.423-2.662 5.784-.147.404-.285.817-.413 1.239.451-.131.867-.296 1.331-.413 2.456 1.49 5.396-.181 5.646-2.616.226-2.205-1.534-4.166-3.902-3.994zm1.377 5.784c-1.187-.055-2.819-1.555-3.213-2.662-.233-.658.035-1.915 1.056-1.607.258.54.658 1.339 0 1.698.334.706.887 1.194 1.607 1.515.239-.158.397-.399.597-.597.418.164.809.354 1.147.597.035.789-.631 1.081-1.194 1.056zM14 1H2a1 1 0 0 0-1 1v12a1 1 0 0 0 1 1h12a1 1 0 0 0 1-1V2a1 1 0 0 0-1-1zM6.738 12.051c-.229-.072-.513-.306-.78-.321-.373-.022-.862.246-1.239.367-.413.133-.772.266-1.193.367.242-.783.523-1.527.78-2.295-1.704-2.978.403-6.331 3.258-6.609 2.695-.263 4.905 1.673 4.911 4.315.007 2.787-2.696 5.128-5.737 4.176z"/></svg>