<svg viewBox="0 0 16 16" xmlns="http://www.w3.org/2000/svg"><path d="M8.13008 0C3.83008 0 0.340078 3.49 0.340078 7.79C0.340078 9.81 1.36008 11.64 1.46008 11.82L0.0800781 16L4.38008 14.63C4.54008 14.72 6.08008 15.58 8.12008 15.58C12.4201 15.58 15.9101 12.09 15.9101 7.79C15.9101 3.49 12.4201 0 8.13008 0ZM2.91008 11.63C2.90008 11.62 1.65008 9.86 1.65008 7.79C1.65008 4.22 4.56008 1.31 8.13008 1.31C11.7001 1.31 14.6101 4.22 14.6101 7.79C14.6101 11.36 11.7001 14.27 8.13008 14.27C6.17008 14.27 4.58008 13.21 4.56008 13.2L4.55008 13.19L2.15008 13.97L2.93008 11.65L2.91008 11.63Z"/><path d="M6.71008 10.05C7.75008 11.06 9.37008 11.52 9.86008 11.66C10.3501 11.81 11.3901 11.58 11.8901 11.06C12.3901 10.54 12.2901 9.99 12.2801 9.81C12.2701 9.63 12.1101 9.6 12.1101 9.6C12.1101 9.6 10.7701 8.92 10.5001 8.79C10.2301 8.66 10.0801 8.86 10.0801 8.86C10.0801 8.86 9.66008 9.37 9.53008 9.53C9.39008 9.7 9.31008 9.85 8.97008 9.73C8.63008 9.61 7.95008 9.23 7.40008 8.71C6.85008 8.2 6.43008 7.53 6.31008 7.32C6.19008 7.12 6.33008 6.99 6.33008 6.99C6.33008 6.99 6.69008 6.59 6.87008 6.37C7.04008 6.15 6.94008 5.91 6.90008 5.81C6.86008 5.71 6.35008 4.42 6.27008 4.23C6.20008 4.05 6.02008 4.02 6.02008 4.02C6.02008 4.02 5.49008 4.01 5.37008 4.01C5.26008 4 5.03008 4.14 5.03008 4.14C4.36008 4.55 4.23008 5.55 4.20008 5.76C4.18008 5.98 4.15008 6.43 4.49008 7.21C4.83008 7.98 5.67008 9.04 6.71008 10.05Z"/></svg>