<svg viewBox="0 0 16 16" xmlns="http://www.w3.org/2000/svg"><path d="M0.75 5.99625C0.33 5.99625 0 5.65646 0 5.24672V0.749532C0 0.329794 0.33 0 0.75 0H5.25C5.66 0 6 0.329794 6 0.749532C6 1.16927 5.66 1.49906 5.25 1.49906H1.5V5.24672C1.5 5.65646 1.16 5.99625 0.75 5.99625Z"/><path d="M15.25 5.99625C14.84 5.99625 14.5 5.65646 14.5 5.24672V1.49906H10.75C10.34 1.49906 10 1.15928 10 0.749532C10 0.339788 10.34 0 10.75 0H15.25C15.67 0 16 0.329794 16 0.749532V5.24672C16 5.65646 15.67 5.99625 15.25 5.99625Z"/><path d="M5.25 16H0.75C0.33 16 0 15.6602 0 15.2505V10.7533C0 10.3435 0.34 10.0037 0.75 10.0037C1.16 10.0037 1.5 10.3435 1.5 10.7533V14.5009H5.25C5.66 14.5009 6 14.8407 6 15.2505C6 15.6602 5.66 16 5.25 16Z"/><path d="M15.25 16H10.75C10.34 16 10 15.6602 10 15.2505C10 14.8407 10.34 14.5009 10.75 14.5009H14.5V10.7533C14.5 10.3435 14.84 10.0037 15.25 10.0037C15.66 10.0037 16 10.3335 16 10.7533V15.2505C16 15.6602 15.67 16 15.25 16Z"/></svg>