<svg viewBox="0 0 16 16" xmlns="http://www.w3.org/2000/svg"><path d="M5.49977 6.25H0.759766C0.349766 6.25 0.00976562 5.91 0.00976562 5.5C0.00976562 5.09 0.349766 4.75 0.759766 4.75H4.74977V0.75C4.74977 0.34 5.08977 0 5.49977 0C5.90977 0 6.24977 0.34 6.24977 0.75V5.5C6.24977 5.91 5.90977 6.25 5.49977 6.25Z"/><path d="M15.2498 6.25H10.4998C10.0898 6.25 9.74977 5.91 9.74977 5.5V0.75C9.74977 0.34 10.0898 0 10.4998 0C10.9098 0 11.2498 0.34 11.2498 0.75V4.74H15.2398C15.6598 4.75 15.9998 5.08 15.9998 5.5C15.9998 5.92 15.6598 6.25 15.2498 6.25Z"/><path d="M5.49977 16C5.08977 16 4.74977 15.66 4.74977 15.25V11.26H0.759766C0.349766 11.26 0.00976562 10.92 0.00976562 10.51C0.00976562 10.1 0.349766 9.76 0.759766 9.76H5.49977C5.90977 9.76 6.24977 10.1 6.24977 10.51V15.25C6.24977 15.66 5.90977 16 5.49977 16Z"/><path d="M10.4998 16C10.0898 16 9.74977 15.66 9.74977 15.25V10.5C9.74977 10.09 10.0898 9.75 10.4998 9.75H15.2398C15.6498 9.75 15.9898 10.09 15.9898 10.5C15.9898 10.91 15.6498 11.25 15.2398 11.25H11.2498V15.24C11.2498 15.66 10.9198 16 10.4998 16Z"/></svg>