<svg xmlns="http://www.w3.org/2000/svg" xmlns:xlink="http://www.w3.org/1999/xlink" x="0px" y="0px" viewBox="0 0 16 16" xml:space="preserve"><g/><g/><line x1="9.98" y1="9.98" x2="15.04" y2="15.04"/><polyline points="15.25,11.29 15.25,15.25 11.29,15.25 		"/><line x1="6.02" y1="6.02" x2="0.96" y2="0.96"/><polyline points="0.75,4.71 0.75,0.75 4.71,0.75 		"/><polyline points="15.24,4.7 15.24,0.76 11.3,0.76 	"/><polyline points="0.76,11.31 0.76,15.25 4.7,15.25 	"/><path d="M15.25,10.54c-0.41,0-0.75,0.34-0.75,0.75v2.15l-3.99-3.99c-0.29-0.29-0.77-0.29-1.06,0s-0.29,0.77,0,1.06
			l3.99,3.99h-2.15c-0.41,0-0.75,0.34-0.75,0.75S10.87,16,11.29,16h3.96c0.41,0,0.75-0.34,0.75-0.75v-3.96
			C16,10.88,15.66,10.54,15.25,10.54z"/><path d="M2.56,1.5h2.15c0.41,0,0.75-0.34,0.75-0.75S5.12,0,4.71,0H0.75C0.34,0,0,0.34,0,0.75v3.96
			c0,0.41,0.34,0.75,0.75,0.75S1.5,5.12,1.5,4.71V2.56l3.99,3.99C5.64,6.7,5.83,6.77,6.02,6.77S6.4,6.7,6.55,6.55
			c0.29-0.29,0.29-0.77,0-1.06L2.56,1.5z"/><path d="M11.3,1.51h3.19V4.7c0,0.41,0.34,0.75,0.75,0.75s0.75-0.34,0.75-0.75V0.76c0-0.41-0.34-0.75-0.75-0.75H11.3
			c-0.41,0-0.75,0.34-0.75,0.75S10.89,1.51,11.3,1.51z"/><path d="M4.7,14.5H1.5V11.3c0-0.41-0.34-0.75-0.75-0.75S0,10.89,0,11.3v3.94C0,15.66,0.34,16,0.75,16H4.7
			c0.41,0,0.75-0.34,0.75-0.75S5.11,14.5,4.7,14.5z"/></svg>