<svg viewBox="0 0 16 16" xmlns="http://www.w3.org/2000/svg"><path d="M15.25 10.54C14.84 10.54 14.5 10.88 14.5 11.29V13.44L10.51 9.45C10.22 9.16 9.74 9.16 9.45 9.45C9.16 9.74 9.16 10.22 9.45 10.51L13.44 14.5H11.29C10.88 14.5 10.54 14.84 10.54 15.25C10.54 15.66 10.87 16 11.29 16H15.25C15.66 16 16 15.66 16 15.25V11.29C16 10.88 15.66 10.54 15.25 10.54Z"/><path d="M2.56 1.5H4.71C5.12 1.5 5.46 1.16 5.46 0.75C5.46 0.34 5.12 0 4.71 0H0.75C0.34 0 0 0.34 0 0.75V4.71C0 5.12 0.34 5.46 0.75 5.46C1.16 5.46 1.5 5.12 1.5 4.71V2.56L5.49 6.55C5.64 6.7 5.83 6.77 6.02 6.77C6.21 6.77 6.4 6.7 6.55 6.55C6.84 6.26 6.84 5.78 6.55 5.49L2.56 1.5Z"/><path d="M11.3 1.51H14.49V4.7C14.49 5.11 14.83 5.45 15.24 5.45C15.65 5.45 15.99 5.11 15.99 4.7V0.76C15.99 0.35 15.65 0.01 15.24 0.01H11.3C10.89 0.01 10.55 0.35 10.55 0.76C10.55 1.17 10.89 1.51 11.3 1.51Z"/><path d="M4.7 14.5H1.5V11.3C1.5 10.89 1.16 10.55 0.75 10.55C0.34 10.55 0 10.89 0 11.3V15.24C0 15.66 0.34 16 0.75 16H4.7C5.11 16 5.45 15.66 5.45 15.25C5.45 14.84 5.11 14.5 4.7 14.5Z"/></svg>