<svg viewBox="0 0 16 16" xmlns="http://www.w3.org/2000/svg"><path d="M14.2857 6V2.925L9.21071 8L14.2857 13.075V10C14.2857 9.52857 14.6714 9.14286 15.1429 9.14286C15.6143 9.14286 16 9.52857 16 10V15.1429C16 15.2545 15.9772 15.3656 15.9338 15.4704C15.8469 15.6798 15.6801 15.8469 15.4709 15.9336C15.3643 15.9786 15.2536 16 15.1429 16H10C9.52857 16 9.14286 15.6179 9.14286 15.1429C9.14286 14.6679 9.52679 14.2857 10 14.2857H13.0736L8 9.21071L2.92643 14.2857H6C6.475 14.2857 6.85714 14.6714 6.85714 15.1429C6.85714 15.6143 6.475 16 6 16H0.857143C0.745536 16 0.634357 15.9771 0.529571 15.9339C0.320179 15.8469 0.153143 15.6801 0.0663571 15.4706C0.0228786 15.3679 0 15.2536 0 15.1429V10C0 9.52857 0.383929 9.14286 0.857143 9.14286C1.33036 9.14286 1.71429 9.52857 1.71429 10V13.0736L6.78929 8L1.71429 2.925V6C1.71429 6.475 1.33036 6.85714 0.857143 6.85714C0.383929 6.85714 0 6.475 0 6V0.857143C0 0.745536 0.0228107 0.634357 0.0662143 0.529571C0.153071 0.320179 0.319929 0.153143 0.529071 0.0663572C0.633929 0.0228572 0.745357 0 0.857143 0H6C6.475 0 6.85714 0.383929 6.85714 0.857143C6.85714 1.33036 6.475 1.71429 6 1.71429H2.92643L8 6.78929L13.075 1.71429H10C9.52857 1.71429 9.14286 1.33036 9.14286 0.857143C9.14286 0.383929 9.52857 0 10 0H15.1429C15.2545 0 15.3656 0.0228786 15.4704 0.0661429C15.6798 0.153071 15.8469 0.319893 15.9336 0.529357C15.9786 0.633928 16 0.745357 16 0.857143V6C16 6.475 15.6179 6.85714 15.1429 6.85714C14.6679 6.85714 14.2857 6.475 14.2857 6Z"/></svg>