<svg viewBox="0 0 16 16" xmlns="http://www.w3.org/2000/svg"><g clip-path="url(#clip0_335_157)"><path d="M6.12991 0.533403C5.69016 0.533403 5.33037 0.891756 5.33037 1.33345V4.20227L1.36498 0.234388C1.05266 -0.0781292 0.546789 -0.0781292 0.234303 0.234388C-0.0781841 0.546904 -0.0780176 1.0531 0.234303 1.36578L4.20102 5.33366H1.33267C0.891258 5.33366 0.53313 5.69368 0.53313 6.1337C0.53313 6.57373 0.892923 6.93575 1.33434 6.93575L6.12991 6.93375C6.23435 6.93375 6.33805 6.91239 6.4358 6.87191C6.63105 6.79077 6.7866 6.63493 6.86755 6.43955C6.90946 6.34038 6.92945 6.23704 6.92945 6.1337L6.93128 1.33678C6.93278 0.893756 6.57299 0.533403 6.12991 0.533403ZM9.5546 6.87041C9.65454 6.91374 9.75782 6.93375 9.86109 6.93375L14.655 6.93567C15.0981 6.93708 15.4579 6.57706 15.4579 6.1337C15.4579 5.69035 15.1014 5.33366 14.6583 5.33366H11.7913L15.7557 1.36678C16.068 1.05426 16.068 0.548071 15.7557 0.235388C15.4434 -0.0772958 14.9375 -0.0771292 14.625 0.235388L10.6606 4.2036V1.33345C10.6606 0.891756 10.3042 0.533403 9.86109 0.533403C9.41801 0.533403 9.05989 0.893756 9.05989 1.33545L9.06155 6.1337C9.06155 6.23814 9.08289 6.34205 9.12335 6.43972C9.2048 6.63373 9.3314 6.7904 9.5546 6.87041ZM11.79 10.6673H14.6583C15.0997 10.6673 15.4579 10.3089 15.4579 9.86724C15.4579 9.42554 15.0977 9.06519 14.6563 9.06519L9.86109 9.06719C9.75665 9.06719 9.65294 9.08855 9.5552 9.12903C9.35995 9.21017 9.2044 9.36601 9.12345 9.56139C9.08154 9.66056 9.06155 9.7639 9.06155 9.86724L9.05966 14.6642C9.05822 15.1075 9.42134 15.4675 9.86109 15.4675C10.3008 15.4675 10.6606 15.1092 10.6606 14.6675V11.7987L14.625 15.7656C14.9373 16.0781 15.4432 16.0781 15.7557 15.7656C16.0682 15.453 16.068 14.9468 15.7557 14.6342L11.79 10.6673ZM6.4364 9.13053C6.33645 9.08719 6.23318 9.06719 6.12991 9.06719L1.33467 9.06386C0.893256 9.06386 0.53313 9.42721 0.53313 9.86724C0.53313 10.3073 0.891258 10.6673 1.33267 10.6673H4.19969L0.235302 14.6342C-0.0770182 14.9467 -0.0770182 15.4529 0.235302 15.7656C0.547622 16.0782 1.0535 16.0781 1.36598 15.7656L5.33037 11.7973V14.6675C5.33037 15.1108 5.69016 15.4675 6.12991 15.4675C6.56965 15.4675 6.93145 15.1072 6.93145 14.6655L6.92945 9.86724C6.92945 9.7628 6.90811 9.65889 6.86765 9.56122C6.7862 9.33721 6.62962 9.21053 6.4364 9.13053Z"/></g><defs><clipPath><rect/></clipPath></defs></svg>