<svg viewBox="0 0 16 16" xmlns="http://www.w3.org/2000/svg"><path d="M15.25 0H4.05C3.63 0 3.3 0.33 3.3 0.75V3.3H0.75C0.34 3.3 0 3.63 0 4.05V15.25C0 15.66 0.34 16 0.75 16H11.95C12.36 16 12.7 15.66 12.7 15.25V12.7H15.25C15.66 12.7 16 12.36 16 11.95V0.75C16 0.33 15.66 0 15.25 0ZM14.5 11.2H7.67C7.26 11.2 6.92 11.54 6.92 11.95C6.92 12.36 7.26 12.7 7.67 12.7H11.2V14.5H1.5V4.8H3.3V8.33C3.3 8.74 3.64 9.08 4.05 9.08C4.46 9.08 4.8 8.74 4.8 8.33V1.5H14.5V11.2Z"/><path d="M7.67 4.8H10.15L3.52 11.43C3.23 11.72 3.23 12.2 3.52 12.49C3.67 12.64 3.86 12.71 4.05 12.71C4.24 12.71 4.43 12.64 4.58 12.49L11.21 5.86V8.33C11.21 8.74 11.55 9.08 11.96 9.08C12.37 9.08 12.71 8.74 12.71 8.33V4.05C12.71 3.64 12.37 3.3 11.96 3.3H7.67C7.26 3.3 6.92 3.64 6.92 4.05C6.92 4.46 7.25 4.8 7.67 4.8Z"/></svg>