<svg viewBox="0 0 16 16" xmlns="http://www.w3.org/2000/svg"><path d="M1.13709 7.99968C1.13709 10.7162 2.71571 13.0637 5.00484 14.1762L1.73124 5.20667C1.33881 6.08547 1.13635 7.03723 1.13709 7.99968ZM12.6326 7.65336C12.6326 6.80519 12.328 6.21781 12.0667 5.76062C11.7188 5.19531 11.3927 4.71658 11.3927 4.15127C11.3927 3.5204 11.8712 2.93315 12.5451 2.93315C12.5755 2.93315 12.6044 2.93693 12.634 2.93863C11.4131 1.82002 9.78641 1.13705 7.99977 1.13705C5.60226 1.13705 3.49294 2.36718 2.26585 4.2304C2.42686 4.23523 2.5786 4.23863 2.70748 4.23863C3.4253 4.23863 4.53644 4.15153 4.53644 4.15153C4.90638 4.12972 4.94999 4.67309 4.58044 4.71684C4.58044 4.71684 4.20867 4.76059 3.79498 4.78226L6.29409 12.2159L7.79593 7.7116L6.72671 4.782C6.35716 4.76032 6.00707 4.71658 6.00707 4.71658C5.63725 4.6949 5.68061 4.12946 6.05042 4.15127C6.05042 4.15127 7.18375 4.23837 7.85809 4.23837C8.57577 4.23837 9.68704 4.15127 9.68704 4.15127C10.0572 4.12946 10.1007 4.67283 9.73104 4.71658C9.73104 4.71658 9.35849 4.76032 8.94559 4.782L11.4256 12.1594L12.1101 9.87191C12.4068 8.92267 12.6326 8.24087 12.6326 7.65336Z"/><path d="M8.12032 8.6001L6.06128 14.5835C6.6908 14.7689 7.34367 14.8631 7.99992 14.8631C8.79909 14.8631 9.56549 14.7249 10.2789 14.474C10.2598 14.444 10.2435 14.4124 10.23 14.3795L8.12032 8.6001ZM14.0216 4.70717C14.0512 4.92577 14.0679 5.16044 14.0679 5.41286C14.0679 6.10928 13.9378 6.89215 13.5461 7.87104L11.4498 13.932C13.49 12.7422 14.8623 10.5318 14.8623 7.99993C14.8625 6.80675 14.5577 5.68474 14.0216 4.70717Z"/><path d="M7.9998 0C3.58883 0 0 3.58867 0 7.99977C0 12.4114 3.58883 15.9999 7.9998 15.9999C12.4107 15.9999 16 12.4114 16 7.99977C15.9999 3.58867 12.4107 0 7.9998 0ZM7.9998 15.6332C3.7911 15.6332 0.366809 12.2089 0.366809 7.99977C0.366809 3.79095 3.79097 0.366819 7.9998 0.366819C12.2084 0.366819 15.6324 3.79095 15.6324 7.99977C15.6324 12.2089 12.2084 15.6332 7.9998 15.6332Z"/></svg>