<svg xmlns="http://www.w3.org/2000/svg" viewBox="0 0 16 16"><path d="M8.074 8.428c-.4 1.163-.783 2.294-1.176 3.422-.047.135-.078.125.116.213a3.905 3.905 0 0 0 2.353-.1l-.652-1.766c-.208-.566-.415-1.151-.641-1.769zM14 1H2a.945.945 0 0 0-1 1v12a.945.945 0 0 0 1 1h12a.945.945 0 0 0 1-1V2a.945.945 0 0 0-1-1zM7.968 12.688A4.689 4.689 0 1 1 12.684 8.2a4.668 4.668 0 0 1-4.716 4.488zm-1.848-.966c-.655-1.8-1.294-3.55-1.941-5.325a4.127 4.127 0 0 0 1.941 5.325zm4.041-.157a4.121 4.121 0 0 0 1.591-5.32 8.4 8.4 0 0 1-.692 2.694l-.899 2.626zm.516-4.486c-.126-.262-.274-.514-.418-.767-.364-.636-.231-1.293.446-1.444a4.091 4.091 0 0 0-6.143.8.707.707 0 0 0 .1.011q.588-.023 1.177-.049c.123 0 .229 0 .232.171s-.1.2-.233.208c-.118.008-.235.028-.381.045.263.778.5 1.5.749 2.216s.485 1.425.736 2.16c.039-.049.068-.071.077-.1.267-.8.534-1.594.792-2.393a.462.462 0 0 0-.013-.275c-.162-.457-.354-.9-.5-1.366a.372.372 0 0 0-.431-.287c-.135 0-.242 0-.242-.188s.1-.2.237-.191c.425.018.851.044 1.276.046.3 0 .6-.026.9-.046.16-.011.209.072.184.211-.027.157-.147.168-.28.169-.317 0-.345.045-.246.338q.549 1.619 1.1 3.236c.093.275.187.549.3.867.2-.652.4-1.242.573-1.838a2.068 2.068 0 0 0 .008-1.534z"/></svg>