<svg viewBox="0 0 16 16" xmlns="http://www.w3.org/2000/svg"><path fill-rule="evenodd" clip-rule="evenodd" d="M14.2511 12.9362C14.9395 12.751 15.4817 12.2053 15.6657 11.5125C16 10.2566 16 7.63633 16 7.63633C16 7.63633 16 5.01616 15.6657 3.76012C15.4817 3.06739 14.9395 2.52173 14.2511 2.33648C13.0034 2 7.99999 2 7.99999 2C7.99999 2 2.99666 2 1.74893 2.33648C1.0605 2.52173 0.518319 3.06732 0.334364 3.76018C0 5.0161 0 7.63633 0 7.63633C0 7.63633 0 10.2566 0.334364 11.5125C0.518319 12.2053 1.0605 12.751 1.74893 12.9362C2.99666 13.2727 7.99999 13.2727 7.99999 13.2727C7.99999 13.2727 13.0034 13.2727 14.2511 12.9362ZM10.5455 7.6363L6.3636 5.25744V10.0154L10.5455 7.6363Z"/></svg>