<svg viewBox="0 0 16 16" xmlns="http://www.w3.org/2000/svg"><path d="M15.6657 4.22113C15.4817 3.54365 14.9395 3.0101 14.2511 2.82903C13.0033 2.5 8 2.5 8 2.5C8 2.5 2.99669 2.5 1.7489 2.82903C1.06052 3.01013 0.518349 3.54365 0.334336 4.22113C0 5.44909 0 8.01111 0 8.01111C0 8.01111 0 10.5731 0.334336 11.8011C0.518349 12.4786 1.06052 12.9899 1.7489 13.171C2.99669 13.5 8 13.5 8 13.5C8 13.5 13.0033 13.5 14.2511 13.171C14.9395 12.9899 15.4817 12.4786 15.6657 11.8011C16 10.5731 16 8.01111 16 8.01111C16 8.01111 16 5.44909 15.6657 4.22113V4.22113ZM6.36362 10.3372V5.68499L10.5454 8.01117L6.36362 10.3372V10.3372Z"/></svg>