<svg xmlns="http://www.w3.org/2000/svg" viewBox="0 0 16 16"><path d="M7.08 9.338 9.432 8 7.08 6.662zM14 1H2a.945.945 0 0 0-1 1v12a.945.945 0 0 0 1 1h12a.945.945 0 0 0 1-1V2a.945.945 0 0 0-1-1zm-1.688 9.18a1.132 1.132 0 0 1-.8.8A26.762 26.762 0 0 1 8 11.17a26.762 26.762 0 0 1-3.516-.189 1.132 1.132 0 0 1-.8-.8A11.862 11.862 0 0 1 3.5 8a11.862 11.862 0 0 1 .188-2.18 1.132 1.132 0 0 1 .8-.8A26.762 26.762 0 0 1 8 4.83a26.762 26.762 0 0 1 3.516.189 1.132 1.132 0 0 1 .8.8A11.862 11.862 0 0 1 12.5 8a11.862 11.862 0 0 1-.188 2.18z"/></svg>