<svg viewBox="0 0 16 16" xmlns="http://www.w3.org/2000/svg"><path d="M15.6657 3.72113C15.4817 3.04365 14.9395 2.5101 14.2511 2.32903C13.0033 2 8 2 8 2C8 2 2.99669 2 1.7489 2.32903C1.06052 2.51013 0.518349 3.04365 0.334336 3.72113C0 4.94909 0 7.51111 0 7.51111C0 7.51111 0 10.0731 0.334336 11.3011C0.518349 11.9786 1.06052 12.4899 1.7489 12.671C2.99669 13 8 13 8 13C8 13 13.0033 13 14.2511 12.671C14.9395 12.4899 15.4817 11.9786 15.6657 11.3011C16 10.0731 16 7.51111 16 7.51111C16 7.51111 16 4.94909 15.6657 3.72113ZM6.36363 9.83724V5.18499L10.5454 7.51117L6.36363 9.83724Z"/></svg>