<svg viewBox="0 0 16 16" xmlns="http://www.w3.org/2000/svg"><path d="M6.5 0C2.92 0 0 2.92 0 6.5C0 10.08 2.92 13 6.5 13C10.08 13 13 10.09 13 6.5C13 2.91 10.08 0 6.5 0ZM6.5 11.5C3.74 11.5 1.5 9.26 1.5 6.5C1.5 3.74 3.74 1.5 6.5 1.5C9.26 1.5 11.5 3.74 11.5 6.5C11.5 9.26 9.26 11.5 6.5 11.5Z"/><path d="M15.78 14.72L12.86 11.8C12.57 11.51 12.09 11.51 11.8 11.8C11.51 12.09 11.51 12.57 11.8 12.86L14.72 15.78C14.87 15.93 15.06 16 15.25 16C15.44 16 15.63 15.93 15.78 15.78C16.07 15.49 16.07 15.01 15.78 14.72Z"/><path d="M9.25 5.75H7.25V3.75C7.25 3.34 6.92 3 6.5 3C6.08 3 5.75 3.34 5.75 3.75V5.75H3.75C3.34 5.75 3 6.09 3 6.5C3 6.91 3.34 7.25 3.75 7.25H5.75V9.25C5.75 9.67 6.09 10 6.5 10C6.91 10 7.25 9.66 7.25 9.25V7.25H9.25C9.67 7.25 10 6.92 10 6.5C10 6.08 9.67 5.75 9.25 5.75Z"/></svg>