<svg viewBox="0 0 16 16" xmlns="http://www.w3.org/2000/svg"><path d="M3.6 2.39999C1.6125 2.39999 0 4.01249 0 5.99999V9.99999C0 11.9875 1.6125 13.6 3.6 13.6C5.5875 13.6 7.2 11.9875 7.2 9.99999V5.99999C7.2 4.01249 5.5875 2.39999 3.6 2.39999ZM1.6 5.99999C1.6 4.89499 2.495 3.99999 3.6 3.99999C4.705 3.99999 5.6 4.89499 5.6 5.99999V9.99999C5.6 11.105 4.705 12 3.6 12C2.495 12 1.6 11.105 1.6 9.99999V5.99999ZM12.4 2.39999C10.4125 2.39999 8.8 4.01249 8.8 5.99999V9.99999C8.8 11.9875 10.4125 13.6 12.4 13.6C14.3875 13.6 16 11.9875 16 9.99999V5.99999C16 4.01249 14.3875 2.39999 12.4 2.39999ZM10.4 5.99999C10.4 4.89499 11.295 3.99999 12.4 3.99999C13.505 3.99999 14.4 4.89499 14.4 5.99999V9.99999C14.4 11.105 13.505 12 12.4 12C11.295 12 10.4 11.105 10.4 9.99999V5.99999Z"/></svg>