<svg viewBox="0 0 16 16" xmlns="http://www.w3.org/2000/svg"><g clip-path="url(#clip0_11902_178444)"><path d="M5.46875 5.46875C5.7625 5.17812 6.2375 5.17812 6.50313 5.46875L7.97188 6.94063L9.46875 5.46875C9.7625 5.17812 10.2375 5.17812 10.5031 5.46875C10.8219 5.7625 10.8219 6.2375 10.5031 6.50313L9.05937 7.97188L10.5031 9.46875C10.8219 9.7625 10.8219 10.2375 10.5031 10.5031C10.2375 10.8219 9.7625 10.8219 9.46875 10.5031L7.97188 9.05937L6.50313 10.5031C6.2375 10.8219 5.7625 10.8219 5.46875 10.5031C5.17812 10.2375 5.17812 9.7625 5.46875 9.46875L6.94063 7.97188L5.46875 6.50313C5.17812 6.2375 5.17812 5.7625 5.46875 5.46875ZM16 8C16 12.4187 12.4187 16 8 16C3.58125 16 0 12.4187 0 8C0 3.58125 3.58125 0 8 0C12.4187 0 16 3.58125 16 8ZM8 1.5C4.40938 1.5 1.5 4.40938 1.5 8C1.5 11.5906 4.40938 14.5 8 14.5C11.5906 14.5 14.5 11.5906 14.5 8C14.5 4.40938 11.5906 1.5 8 1.5Z"/></g><defs><clipPath><rect/></clipPath></defs></svg>