<svg viewBox="0 0 17 16" xmlns="http://www.w3.org/2000/svg"><path d="M0 3.8C0 3.0275 0.6275 2.4 1.4 2.4C2.0675 2.4 2.7325 2.4 3.4 2.4C4.1725 2.4 4.8 3.0275 4.8 3.8C4.8 3.9325 4.8 4.0675 4.8 4.2C6.4 4.2 8 4.2 9.6 4.2C9.6 4.0675 9.6 3.9325 9.6 3.8C9.6 3.0275 10.2275 2.4 11 2.4C11.6675 2.4 12.3325 2.4 13 2.4C13.7725 2.4 14.4 3.0275 14.4 3.8C14.4 4.4675 14.4 5.1325 14.4 5.8C14.4 6.115 14.295 6.405 14.12 6.64C13.9625 6.3825 13.71 6.1875 13.395 6.115C12.7425 5.9675 12.0575 5.9675 11.405 6.115C10.9175 6.225 10.5775 6.635 10.51 7.1125C9.98 6.915 9.6 6.4 9.6 5.8C9.6 5.6675 9.6 5.5325 9.6 5.4C8 5.4 6.4 5.4 4.8 5.4C4.8 5.5325 4.8 5.6675 4.8 5.8C4.8 5.9875 4.765 6.1675 4.6975 6.33C5.33 7.1725 5.9625 8.0175 6.595 8.86C6.7225 8.82 6.86 8.8 7 8.8C7.4075 8.8 7.8175 8.8 8.225 8.8C8.1575 8.955 8.1 9.1125 8.05 9.2725C7.9725 9.5275 7.985 9.7775 8.0675 10C7.7125 10 7.355 10 7 10C6.89 10 6.8 10.09 6.8 10.2C6.8 10.8675 6.8 11.5325 6.8 12.2C6.8 12.31 6.89 12.4 7 12.4C7.4075 12.4 7.815 12.4 8.2225 12.4C8.41 12.835 8.6675 13.2425 8.98 13.6C8.32 13.6 7.66 13.6 7 13.6C6.2275 13.6 5.6 12.9725 5.6 12.2C5.6 11.5325 5.6 10.8675 5.6 10.2C5.6 10.0125 5.635 9.8325 5.7025 9.67C5.07 8.8275 4.4375 7.9825 3.805 7.14C3.6775 7.18 3.54 7.2 3.4 7.2C2.7325 7.2 2.0675 7.2 1.4 7.2C0.6275 7.2 0 6.5725 0 5.8C0 5.1325 0 4.4675 0 3.8ZM1.2 3.8C1.2 4.4675 1.2 5.1325 1.2 5.8C1.2 5.91 1.29 6 1.4 6C2.0675 6 2.7325 6 3.4 6C3.51 6 3.6 5.91 3.6 5.8C3.6 5.1325 3.6 4.4675 3.6 3.8C3.6 3.69 3.51 3.6 3.4 3.6C2.7325 3.6 2.0675 3.6 1.4 3.6C1.29 3.6 1.2 3.69 1.2 3.8ZM8.825 9.5025C8.905 9.2375 9.0175 8.9775 9.1625 8.7275C9.3075 8.4775 9.4775 8.25 9.665 8.0475C9.785 7.92 9.975 7.9 10.1275 7.9875C10.335 8.1075 10.54 8.225 10.7475 8.345C10.92 8.2175 11.11 8.1075 11.31 8.0225C11.31 7.77 11.31 7.515 11.31 7.2625C11.31 7.0875 11.4225 6.93 11.5925 6.8925C11.5925 6.89 11.5925 6.8925 11.5925 6.89C11.855 6.83 12.13 6.7975 12.41 6.7975C12.69 6.7975 12.965 6.83 13.2275 6.89C13.3975 6.9275 13.51 7.085 13.51 7.26C13.51 7.515 13.51 7.77 13.51 8.025C13.71 8.11 13.895 8.2175 14.0675 8.345C14.275 8.225 14.4825 8.1075 14.69 7.9875C14.8425 7.9 15.035 7.92 15.15 8.0475C15.34 8.25 15.51 8.4775 15.6525 8.7275C15.795 8.9775 15.9075 9.2375 15.99 9.5025C16.04 9.67 15.9625 9.845 15.81 9.9325C15.6025 10.0525 15.3925 10.1725 15.185 10.2925C15.1975 10.395 15.2025 10.495 15.2025 10.6C15.2025 10.705 15.195 10.8075 15.185 10.9075C15.3925 11.0275 15.6025 11.1475 15.81 11.2675C15.9625 11.355 16.0425 11.53 15.99 11.6975C15.91 11.9625 15.7975 12.2225 15.6525 12.4725C15.5075 12.7225 15.34 12.95 15.15 13.1525C15.03 13.28 14.84 13.3 14.6875 13.2125C14.48 13.0925 14.2725 12.975 14.065 12.855C13.8925 12.9825 13.705 13.09 13.5075 13.175C13.5075 13.43 13.5075 13.685 13.5075 13.94C13.5075 14.115 13.395 14.2725 13.225 14.31C12.9625 14.37 12.6875 14.4025 12.4075 14.4025C12.1275 14.4025 11.8525 14.37 11.59 14.31C11.42 14.2725 11.3075 14.115 11.3075 13.94C11.3075 13.685 11.3075 13.4325 11.3075 13.1775C11.1075 13.09 10.9175 12.9825 10.745 12.855C10.54 12.975 10.3325 13.0925 10.1275 13.2125C9.9775 13.3 9.785 13.28 9.665 13.1525C9.475 12.95 9.305 12.7225 9.1625 12.4725C9.02 12.2225 8.9075 11.9625 8.825 11.6975C8.775 11.53 8.8525 11.355 9.005 11.2675C9.2125 11.1475 9.4175 11.03 9.625 10.91C9.6125 10.8075 9.6075 10.705 9.6075 10.6C9.6075 10.495 9.615 10.3925 9.625 10.29C9.4175 10.17 9.2125 10.0525 9.005 9.9325C8.8525 9.845 8.7725 9.67 8.825 9.5025ZM10.8 3.8C10.8 4.4675 10.8 5.1325 10.8 5.8C10.8 5.91 10.89 6 11 6C11.6675 6 12.3325 6 13 6C13.11 6 13.2 5.91 13.2 5.8C13.2 5.1325 13.2 4.4675 13.2 3.8C13.2 3.69 13.11 3.6 13 3.6C12.3325 3.6 11.6675 3.6 11 3.6C10.89 3.6 10.8 3.69 10.8 3.8ZM11.37 10C11.155 10.3725 11.155 10.8275 11.37 11.2C11.585 11.5725 11.98 11.8 12.41 11.8C12.84 11.8 13.235 11.5725 13.45 11.2C13.665 10.8275 13.665 10.3725 13.45 10C13.235 9.6275 12.84 9.4 12.41 9.4C11.98 9.4 11.585 9.6275 11.37 10Z"/></svg>