<svg viewBox="0 0 16 16" xmlns="http://www.w3.org/2000/svg"><path d="M0.969896 1.7275C0.709896 1.5225 0.332396 1.57 0.127396 1.83C-0.0776036 2.09 -0.0301036 2.4675 0.229896 2.6725L15.0299 14.2725C15.2899 14.4775 15.6674 14.43 15.8724 14.17C16.0774 13.91 16.0299 13.5325 15.7699 13.3275L13.1399 11.2675C14.1299 10.2525 14.7999 9.115 15.1374 8.3075C15.2199 8.11 15.2199 7.89 15.1374 7.6925C14.7649 6.8 13.9824 5.5 12.8124 4.415C11.6374 3.32 10.0199 2.4 7.9999 2.4C6.2949 2.4 4.8749 3.0575 3.7674 3.92L0.969896 1.7275ZM4.7449 4.685C5.6499 4.0425 6.7374 3.6 7.9999 3.6C9.6299 3.6 10.9699 4.34 11.9974 5.2925C12.9599 6.1875 13.6249 7.25 13.9649 8C13.6499 8.7 13.0499 9.67 12.1924 10.5225L10.8474 9.4675C11.0749 9.0275 11.2024 8.53 11.2024 8C11.2024 6.2325 9.7699 4.8 8.0024 4.8C7.1974 4.8 6.4599 5.0975 5.8974 5.5875L4.7449 4.685ZM9.8724 8.705L7.8349 7.1075C7.9399 6.895 7.9999 6.6525 7.9999 6.4C7.9999 6.2625 7.9824 6.1275 7.9499 6C7.9674 6 7.9824 6 7.9999 6C9.1049 6 9.9999 6.895 9.9999 8C9.9999 8.2475 9.9549 8.485 9.8724 8.705ZM10.1074 11.9625C9.4699 12.235 8.7674 12.4 7.9999 12.4C6.3699 12.4 5.0299 11.66 4.0024 10.7075C3.0399 9.8125 2.3749 8.75 2.0349 8C2.2424 7.54 2.5724 6.9625 3.0199 6.38L2.0774 5.6375C1.5074 6.38 1.0999 7.12 0.862396 7.6925C0.779896 7.89 0.779896 8.11 0.862396 8.3075C1.2349 9.2 2.0174 10.5 3.1874 11.585C4.3624 12.68 5.9799 13.6 7.9999 13.6C9.1949 13.6 10.2474 13.2775 11.1549 12.7875L10.1074 11.9625ZM4.7999 8C4.7999 9.7675 6.2324 11.2 7.9999 11.2C8.3324 11.2 8.6524 11.15 8.9549 11.055L7.5499 9.95C6.9624 9.815 6.4724 9.42 6.2074 8.8925L4.8049 7.7875C4.7999 7.8575 4.7974 7.9275 4.7974 8H4.7999Z"/></svg>