<svg viewBox="0 0 16 16" xmlns="http://www.w3.org/2000/svg"><path d="M1.25 1.5C0.834375 1.5 0.5 1.83437 0.5 2.25V3.75C0.5 4.16563 0.834375 4.5 1.25 4.5H2.75C3.16563 4.5 3.5 4.16563 3.5 3.75V2.25C3.5 1.83437 3.16563 1.5 2.75 1.5H1.25ZM5.75 2.25C5.33437 2.25 5 2.58438 5 3C5 3.41562 5.33437 3.75 5.75 3.75H15.25C15.6656 3.75 16 3.41562 16 3C16 2.58438 15.6656 2.25 15.25 2.25H5.75ZM5.75 7.25C5.33437 7.25 5 7.58437 5 8C5 8.41563 5.33437 8.75 5.75 8.75H15.25C15.6656 8.75 16 8.41563 16 8C16 7.58437 15.6656 7.25 15.25 7.25H5.75ZM5.75 12.25C5.33437 12.25 5 12.5844 5 13C5 13.4156 5.33437 13.75 5.75 13.75H15.25C15.6656 13.75 16 13.4156 16 13C16 12.5844 15.6656 12.25 15.25 12.25H5.75ZM0.5 7.25V8.75C0.5 9.16563 0.834375 9.5 1.25 9.5H2.75C3.16563 9.5 3.5 9.16563 3.5 8.75V7.25C3.5 6.83437 3.16563 6.5 2.75 6.5H1.25C0.834375 6.5 0.5 6.83437 0.5 7.25ZM1.25 11.5C0.834375 11.5 0.5 11.8344 0.5 12.25V13.75C0.5 14.1656 0.834375 14.5 1.25 14.5H2.75C3.16563 14.5 3.5 14.1656 3.5 13.75V12.25C3.5 11.8344 3.16563 11.5 2.75 11.5H1.25Z"/></svg>