<svg viewBox="0 0 16 16" xmlns="http://www.w3.org/2000/svg"><path d="M5.33058 6.49722L8.44447 3.73056V12.2694L5.33058 9.50278C5.20836 9.39445 5.05003 9.33333 4.88892 9.33333H2.44447C2.32225 9.33333 2.22225 9.23333 2.22225 9.11111V6.88889C2.22225 6.76667 2.32225 6.66667 2.44447 6.66667H4.88892C5.0528 6.66667 5.21114 6.60556 5.33058 6.49722ZM8.95003 1.77778C8.74725 1.77778 8.5528 1.85278 8.40003 1.98611L4.63614 5.33333H2.44447C1.58614 5.33333 0.888916 6.03056 0.888916 6.88889V9.11111C0.888916 9.96945 1.58614 10.6667 2.44447 10.6667H4.63614L8.40003 14.0139C8.5528 14.1472 8.74725 14.2222 8.95003 14.2222C9.40836 14.2222 9.7778 13.8528 9.7778 13.3944V2.60556C9.7778 2.14722 9.40836 1.77778 8.95003 1.77778ZM14.0306 3.86111C13.7445 3.62778 13.325 3.67222 13.0917 3.95833C12.8584 4.24445 12.9028 4.66389 13.1889 4.89722C14.0917 5.63056 14.6667 6.74722 14.6667 8C14.6667 9.25278 14.0917 10.3694 13.1889 11.1056C12.9028 11.3389 12.8611 11.7583 13.0917 12.0444C13.3222 12.3306 13.7445 12.3722 14.0306 12.1417C15.2306 11.1639 16 9.67222 16 8.00278C16 6.33333 15.2306 4.84167 14.0306 3.86389V3.86111ZM12.35 5.93056C12.0639 5.69722 11.6445 5.74167 11.4111 6.02778C11.1778 6.31389 11.2222 6.73333 11.5084 6.96667C11.8084 7.21111 12 7.58333 12 8C12 8.41667 11.8084 8.78889 11.5084 9.03611C11.2222 9.26944 11.1806 9.68889 11.4111 9.975C11.6417 10.2611 12.0639 10.3028 12.35 10.0722C12.9472 9.58056 13.3334 8.83611 13.3334 8C13.3334 7.16389 12.9472 6.41945 12.35 5.93056Z"/></svg>