<svg viewBox="0 0 16 16" xmlns="http://www.w3.org/2000/svg"><path fill-rule="evenodd" clip-rule="evenodd" d="M7.85461 10.2516L5.89335 12.2128C5.8131 12.2931 5.8131 12.4232 5.89335 12.5034L7.85461 14.4647C7.93485 14.5449 8.06493 14.5449 8.14518 14.4647L10.1064 12.5034C10.1867 12.4232 10.1867 12.2931 10.1064 12.2128L8.14518 10.2516C8.06493 10.1713 7.93485 10.1713 7.85461 10.2516ZM5.02166 11.3411C4.46001 11.9028 4.46001 12.8134 5.02166 13.3751L6.98295 15.3363C7.54459 15.898 8.45519 15.898 9.01684 15.3363L10.9781 13.3751C11.5397 12.8134 11.5397 11.9028 10.9781 11.3411L9.01684 9.37988C8.45519 8.81823 7.54459 8.81823 6.98295 9.37988L5.02166 11.3411Z"/><path fill-rule="evenodd" clip-rule="evenodd" d="M3.49625 5.89343L1.53498 7.85474C1.45474 7.93493 1.45474 8.06507 1.53498 8.14526L3.49625 10.1066C3.57648 10.1868 3.70657 10.1868 3.7868 10.1066L5.74809 8.14526C5.82833 8.06507 5.82833 7.93493 5.74809 7.85474L3.7868 5.89343C3.70657 5.81324 3.57648 5.81324 3.49625 5.89343ZM0.663302 6.98303C0.101653 7.54468 0.101654 8.45532 0.663302 9.01697L2.62457 10.9782C3.18622 11.5399 4.09683 11.5399 4.65848 10.9782L6.61975 9.01697C7.18139 8.45532 7.18139 7.54468 6.61975 6.98303L4.65848 5.02177C4.09683 4.46013 3.18622 4.46013 2.62457 5.02177L0.663302 6.98303Z"/><path fill-rule="evenodd" clip-rule="evenodd" d="M12.2132 5.89343L10.2519 7.85474C10.1717 7.93493 10.1717 8.06507 10.2519 8.14526L12.2132 10.1066C12.2934 10.1868 12.4235 10.1868 12.5038 10.1066L14.465 8.14526C14.5453 8.06507 14.5453 7.93493 14.465 7.85474L12.5038 5.89343C12.4235 5.81324 12.2934 5.81324 12.2132 5.89343ZM9.38023 6.98303C8.81858 7.54468 8.81858 8.45532 9.38023 9.01697L11.3415 10.9782C11.9032 11.5399 12.8138 11.5399 13.3754 10.9782L15.3367 9.01697C15.8983 8.45532 15.8983 7.54468 15.3367 6.98303L13.3754 5.02177C12.8138 4.46013 11.9032 4.46013 11.3415 5.02177L9.38023 6.98303Z"/><path fill-rule="evenodd" clip-rule="evenodd" d="M7.85461 1.53534L5.89335 3.49661C5.8131 3.57684 5.8131 3.70693 5.89335 3.78717L7.85461 5.74841C7.93485 5.82865 8.06493 5.82865 8.14518 5.74841L10.1064 3.78717C10.1867 3.70693 10.1867 3.57684 10.1064 3.49661L8.14518 1.53534C8.06493 1.4551 7.93485 1.4551 7.85461 1.53534ZM5.02166 2.62493C4.46001 3.18658 4.46001 4.09719 5.02166 4.65884L6.98295 6.62012C7.54459 7.18177 8.45519 7.18177 9.01684 6.62012L10.9781 4.65884C11.5397 4.09719 11.5397 3.18658 10.9781 2.62493L9.01684 0.66366C8.45519 0.102012 7.54459 0.102012 6.98295 0.66366L5.02166 2.62493Z"/></svg>