<?xml version="1.0" encoding="utf-8"?><svg xmlns="http://www.w3.org/2000/svg" xmlns:xlink="http://www.w3.org/1999/xlink" x="0px" y="0px" viewBox="0 0 512 512" xml:space="preserve"><path d="M345.7,8.8C343.3,3.4,337.9,0,332,0s-11.2,3.4-13.7,8.8l-49.9,107.7l-107.7,49.8c-5.4,2.5-8.8,7.8-8.8,13.8
	s3.4,11.2,8.8,13.7l107.8,49.8l49.7,107.7c2.5,5.4,7.8,8.8,13.7,8.8s11.2-3.4,13.7-8.8l49.8-107.8l107.8-49.8
	c5.4-2.5,8.8-7.8,8.8-13.7c0-5.9-3.4-11.2-8.8-13.7l-107.7-49.7L345.7,8.8z"/><path d="M64,298.7L7.5,319.9c-4.5,1.7-7.5,6-7.5,10.8s3,9.1,7.5,10.8L64,362.7l21.2,56.5c1.7,4.5,6,7.5,10.8,7.5s9.1-3,10.8-7.5
	l21.2-56.5l56.5-21.2c4.5-1.7,7.5-6,7.5-10.8s-3-9.1-7.5-10.8L128,298.7l-21.2-56.5c-1.7-4.5-6-7.5-10.8-7.5s-9.1,3-10.8,7.5
	L64,298.7z"/><path d="M193.1,440.8c-3,1.1-5,4-5,7.2s2,6.1,5,7.2l37.7,14.1l14.1,37.7c1.1,3,4,5,7.2,5s6.1-2,7.2-5l14.1-37.7l37.7-14.1
	c3-1.1,5-4,5-7.2s-2-6.1-5-7.2l-37.7-14.1L259.3,389c-1.1-3-4-5-7.2-5s-6.1,2-7.2,5l-14.1,37.7L193.1,440.8z"/></svg>