<svg viewBox="0 0 16 16" xmlns="http://www.w3.org/2000/svg"><path d="M5.2 2C8.0725 2 10.4 3.97 10.4 6.4C10.4 8.83 8.0725 10.8 5.2 10.8C4.7325 10.8 4.28 10.7425 3.8475 10.645C3.0825 11.12 1.97825 11.6 0.62375 11.6C0.37425 11.6 0.14825 11.4525 0.05045 11.2225C-0.0474 10.9925 -0.000185001 10.7275 0.168475 10.5475C0.1815 10.5375 0.7345 9.935 1.14325 9.1475C0.4295 8.395 0 7.44 0 6.4C0 3.97 2.32825 2 5.2 2ZM4.115 9.4525C4.48 9.5575 4.845 9.6 5.2 9.6C7.405 9.6 9.2 8.165 9.2 6.4C9.2 4.635 7.405 3.2 5.2 3.2C2.995 3.2 1.2 4.635 1.2 6.4C1.2 7.28 1.64275 7.93 2.01425 8.3225L2.6025 8.945L2.20775 9.7025C2.1185 9.8525 2.01825 10.0475 1.91375 10.2125C2.3565 10.085 2.7925 9.8875 3.2175 9.6025L3.635 9.365L4.115 9.4525ZM11.04 5.205C13.8 5.31 16 7.2375 16 9.6C16 10.64 15.57 11.595 14.8575 12.3475C15.265 13.135 15.8175 13.7375 15.8325 13.7475C16 13.9275 16.0475 14.1925 15.9275 14.4225C15.8525 14.6525 15.625 14.8 15.375 14.8C14.0225 14.8 12.9175 14.32 12.1525 13.845C11.72 13.9425 11.2675 14 10.8 14C8.75 14 6.9775 12.995 6.13 11.5375C6.5625 11.48 6.9775 11.3825 7.3725 11.2475C8.0725 12.1775 9.3475 12.8 10.8 12.8C11.155 12.8 11.52 12.7575 11.885 12.6525L12.365 12.565L12.7825 12.8025C13.2075 13.0875 13.6425 13.285 14.0875 13.4125C13.9825 13.2475 13.8825 13.0525 13.7925 12.9025L13.3975 12.145L13.985 11.5225C14.3575 11.1325 14.8 10.48 14.8 9.6C14.8 7.9425 13.2175 6.5775 11.1775 6.415L11.2 6.4C11.2 5.9875 11.145 5.5875 11.04 5.205Z"/></svg>