<svg viewBox="0 0 16 16" xmlns="http://www.w3.org/2000/svg"><path d="M14.25 13.4999H13.2675L8.7 1.48337C8.59062 1.19431 8.30906 1.00306 8.00063 1.00024C8.00258 1.00024 7.99769 1.00024 8.00063 1.00024C7.694 1.00024 7.41687 1.18653 7.3025 1.47181L2.4925 13.4999H1.75C1.33594 13.4999 1 13.8374 1 14.2499C1 14.6624 1.33594 14.9999 1.75 14.9999H5.25C5.66563 14.9999 6 14.6656 6 14.2499C6 13.8343 5.66563 13.4999 5.25 13.4999H4.10781L5.20813 10.7499H10.6175L11.6625 13.4999H10.75C10.3359 13.4999 10 13.8359 10 14.2499C10 14.664 10.3375 14.9999 10.75 14.9999H14.25C14.6641 14.9999 15 14.664 15 14.2499C15 13.8359 14.6656 13.4999 14.25 13.4999ZM5.80937 9.24993L7.98375 3.81556L10.0469 9.24993H5.80937Z"/></svg>