<svg viewBox="0 0 16 16" xmlns="http://www.w3.org/2000/svg"><g clip-path="url(#clip0_11902_178436)"><path d="M2.97767 6.2C2.97767 5.6475 3.44767 5.2 3.97767 5.2C4.55267 5.2 4.97767 5.6475 4.97767 6.2C4.97767 6.7525 4.55267 7.2 3.97767 7.2C3.44767 7.2 2.97767 6.7525 2.97767 6.2ZM5.18267 2.384L5.34767 3.079C5.58517 3.1825 5.81017 3.3125 6.01517 3.46525L6.69267 3.263C6.83017 3.22125 6.98267 3.2575 7.08267 3.3655C7.48767 3.811 7.79767 4.345 7.98267 4.935C8.02767 5.0725 7.98267 5.2225 7.87767 5.3225L7.35267 5.8C7.39267 5.9375 7.37767 6.0775 7.37767 6.22C7.37767 6.3275 7.39267 6.4775 7.38017 6.6025L7.87767 7.0775C7.98267 7.1775 8.02767 7.3275 7.98267 7.465C7.79767 8.055 7.48767 8.59 7.08267 9.035C6.98267 9.1425 6.83017 9.18 6.69267 9.1375L6.05267 8.945C5.83267 9.1125 5.59267 9.2525 5.33767 9.365L5.18267 10.015C5.12767 10.1575 5.04267 10.27 4.90017 10.3025C4.61017 10.365 4.31017 10.4 3.97767 10.4C3.69017 10.4 3.39017 10.365 3.07767 10.3025C2.95767 10.27 2.85017 10.1575 2.81767 10.015L2.66267 9.365C2.40667 9.2525 2.16692 9.1125 1.94792 8.945L1.30867 9.1375C1.16892 9.18 1.01642 9.1425 0.918421 9.035C0.512671 8.59 0.201546 8.055 0.0164539 7.465C-0.0267786 7.3275 0.0174939 7.1775 0.122146 7.0775L0.621421 6.6025C0.607421 6.4775 0.600171 6.3275 0.600171 6.22C0.600171 6.0775 0.608671 5.9375 0.625421 5.8L0.122146 5.3225C0.0175114 5.2225 -0.0267536 5.0725 0.0164714 4.935C0.201571 4.345 0.512921 3.811 0.918421 3.3655C1.01642 3.2575 1.16892 3.22125 1.30867 3.263L1.98467 3.46525C2.19067 3.3125 2.41442 3.1825 2.65267 3.07925L2.81767 2.384C2.85017 2.24275 2.95767 2.12925 3.07767 2.09775C3.39017 2.03375 3.69017 2 3.97767 2C4.31017 2 4.61017 2.03375 4.90017 2.09775C5.04267 2.129 5.12767 2.24275 5.18267 2.384ZM1.57767 6.22C1.57767 6.3125 1.60542 6.4025 1.61517 6.4925L1.66992 6.985L1.10642 7.5225C1.19217 7.7125 1.29617 7.8925 1.41592 8.06L2.14917 7.8425L2.55517 8.15C2.71017 8.2675 2.87767 8.3675 3.05767 8.445L3.52017 8.645L3.69517 9.385C3.79517 9.395 3.89767 9.4 3.97767 9.4C4.10267 9.4 4.20517 9.395 4.30517 9.385L4.48017 8.645L4.94267 8.445C5.12267 8.3675 5.29017 8.2675 5.44517 8.15L5.85017 7.8425L6.58517 8.06C6.70517 7.8925 6.80767 7.7125 6.89267 7.5225L6.33017 6.985L6.38517 6.4925C6.39517 6.4025 6.37767 6.3125 6.37767 6.22C6.37767 6.1175 6.39517 6.0175 6.38267 5.92L6.32267 5.4225L6.89267 4.8775C6.80767 4.6875 6.70517 4.5075 6.58517 4.34L5.82267 4.5675L5.42017 4.2685C5.25267 4.1605 5.11767 4.069 4.92767 3.99625L4.49017 3.79675L4.30517 3.0145C4.20517 3.005 4.10267 3 3.97767 3C3.89767 3 3.79517 3.005 3.69517 3.0145L3.51017 3.79675L3.05017 3.99625C2.88267 4.069 2.72517 4.1605 2.58017 4.2685L2.17767 4.5675L1.41592 4.34C1.29617 4.5075 1.19217 4.6875 1.10642 4.8775L1.67867 5.4225L1.61817 5.92C1.60642 6.0175 1.57767 6.1175 1.57767 6.22ZM11.6002 9.6C12.1527 9.6 12.6002 10.0475 12.6002 10.6C12.6002 11.1525 12.1527 11.6 11.6002 11.6C11.0477 11.6 10.6002 11.1525 10.6002 10.6C10.6002 10.0475 11.0477 9.6 11.6002 9.6ZM14.5377 7.9075L14.3352 8.585C14.4877 8.79 14.6177 9.015 14.7202 9.2525L15.4152 9.4175C15.5577 9.45 15.6702 9.5575 15.7027 9.6775C15.7652 9.99 15.8002 10.29 15.8002 10.6C15.8002 10.91 15.7652 11.21 15.7027 11.5C15.6702 11.6425 15.5577 11.7275 15.4152 11.7825L14.7202 11.9475C14.6177 12.185 14.4877 12.41 14.3352 12.615L14.5377 13.2925C14.5802 13.4325 14.5427 13.585 14.4352 13.6825C13.9902 14.0875 13.4552 14.3975 12.8652 14.585C12.7277 14.6275 12.5777 14.5825 12.4777 14.4775L11.9777 13.9525C11.8627 13.9925 11.7227 14 11.5802 14C11.4502 14 11.3227 13.9925 11.1977 13.98L10.7227 14.4775C10.6227 14.5825 10.4727 14.6275 10.3352 14.585C9.74517 14.3975 9.21017 14.0875 8.76517 13.6825C8.65767 13.585 8.62017 13.4325 8.66267 13.2925L8.85517 12.6525C8.68767 12.4325 8.54767 12.1925 8.43517 11.9375L7.78517 11.7825C7.64267 11.7275 7.53017 11.6425 7.49767 11.5C7.43267 11.21 7.37767 10.91 7.37767 10.6C7.37767 10.29 7.43517 9.99 7.49767 9.6775C7.53017 9.5575 7.64267 9.45 7.78517 9.4175L8.43517 9.2625C8.54767 9.0075 8.68767 8.7675 8.85517 8.5475L8.66267 7.9075C8.62017 7.77 8.65767 7.6175 8.76517 7.5175C9.21017 7.1125 9.74517 6.8025 10.3352 6.6175C10.4727 6.5725 10.6227 6.6175 10.7227 6.7225L11.1977 7.2225C11.3227 7.2075 11.4502 7.2 11.5802 7.2C11.7227 7.2 11.8627 7.21 11.9777 7.225L12.4777 6.7225C12.5777 6.6175 12.7277 6.5725 12.8652 6.6175C13.4552 6.8025 13.9902 7.1125 14.4352 7.5175C14.5427 7.6175 14.5802 7.77 14.5377 7.9075ZM11.5802 8.2C11.4877 8.2 11.3977 8.205 11.3077 8.215L10.8152 8.27L10.2777 7.7075C10.0877 7.7925 9.90767 7.895 9.74017 8.015L9.95767 8.7275L9.62767 9.155C9.53267 9.31 9.43267 9.4775 9.35517 9.6575L9.15517 10.12L8.41517 10.295C8.40517 10.395 8.40017 10.4975 8.40017 10.6C8.40017 10.7025 8.40517 10.805 8.41517 10.905L9.15517 11.08L9.35517 11.5425C9.43267 11.7225 9.53267 11.89 9.62767 12.045L9.95767 12.45L9.74017 13.185C9.90767 13.305 10.0877 13.4075 10.2777 13.495L10.8152 12.93L11.3077 12.985C11.3977 12.995 11.4877 13 11.5802 13C11.6827 13 11.7827 12.995 11.8802 12.9825L12.3777 12.9225L12.9227 13.495C13.1127 13.4075 13.2927 13.305 13.4602 13.185L13.2327 12.4225L13.5327 12.02C13.6402 11.8525 13.7302 11.7175 13.8052 11.5275L14.0027 11.09L14.7852 10.905C14.7952 10.805 14.8002 10.7025 14.8002 10.6C14.8002 10.4975 14.7952 10.395 14.7852 10.295L14.0027 10.11L13.8052 9.65C13.7302 9.485 13.6402 9.325 13.5327 9.18L13.2327 8.7775L13.4602 8.015C13.2927 7.895 13.1127 7.7925 12.9227 7.7075L12.3777 8.2775L11.8802 8.2175C11.7827 8.2075 11.6827 8.2 11.5802 8.2Z"/></g><defs><clipPath><rect/></clipPath></defs></svg>