<svg viewBox="0 0 16 16" xmlns="http://www.w3.org/2000/svg"><g clip-path="url(#clip0_11851_178352)"><path d="M8.88889 1.5H1.75278C1.53222 1.5 1.30833 1.72375 1.30833 2V14C1.30833 14.275 1.53222 14.5 1.75278 14.5H7.90278C8.23611 15.075 8.66389 15.5781 9.15833 15.9781C9.07222 15.9906 8.98056 16 8.88889 16H1.77778C0.795833 16 0 15.1031 0 14V2C0 0.895313 0.795833 0 1.77778 0H8.88889C9.86944 0 10.6667 0.895313 10.6667 2V6.20625C10.1889 6.35938 9.73889 6.59062 9.33333 6.89062V1.97187C9.33333 1.72375 9.13333 1.47187 8.88889 1.47187V1.5ZM2.64167 4.75C2.64167 4.33437 2.96389 4 3.30833 4H7.30833C7.70278 4 7.975 4.33437 7.975 4.75C7.975 5.16563 7.70278 5.5 7.30833 5.5H3.30833C2.96389 5.5 2.64167 5.16563 2.64167 4.75ZM7.30833 7C7.70278 7 7.975 7.33437 7.975 7.75C7.975 8.16562 7.70278 8.5 7.30833 8.5H3.30833C2.96389 8.5 2.64167 8.16562 2.64167 7.75C2.64167 7.33437 2.96389 7 3.30833 7H7.30833ZM4.64167 10C5.03611 10 5.30833 10.3344 5.30833 10.75C5.30833 11.1656 5.03611 11.5 4.64167 11.5H3.30833C2.96389 11.5 2.64167 11.1656 2.64167 10.75C2.64167 10.3344 2.96389 10 3.30833 10H4.64167ZM16 11.5C16 13.9844 14.2083 16 12 16C9.79167 16 7.975 13.9844 7.975 11.5C7.975 9.01562 9.79167 7 12 7C14.2083 7 16 9.01562 16 11.5ZM13.2417 10.1469L11.5556 12.0437L10.7583 11.1469C10.5861 10.95 10.3028 10.95 10.1306 11.1469C9.95556 11.3406 9.95556 11.6594 10.1306 11.8531L11.2417 13.1031C11.4139 13.3 11.6972 13.3 11.8694 13.1031L13.8694 10.8531C14.0444 10.6594 14.0444 10.3406 13.8694 10.1469C13.6972 9.95 13.4139 9.95 13.2417 10.1469Z"/></g><defs><clipPath><rect/></clipPath></defs></svg>