<svg viewBox="0 0 16 16" xmlns="http://www.w3.org/2000/svg"><g clip-path="url(#clip0_11902_178421)"><path d="M13.9717 0H1.97168C0.870117 0 -0.0283203 0.898438 -0.0283203 1.97187V10.9438C-0.0283203 12.0453 0.870117 12.9156 1.97168 12.9156H4.97168V15.54C4.97168 15.8474 5.31605 16.0259 5.56918 15.8431L9.4723 12.9156H13.9723C15.0739 12.9156 15.9723 12.0172 15.9723 10.9438V1.97187C15.9717 0.898438 15.0998 0 13.9717 0ZM14.4998 11C14.4998 11.2734 14.2732 11.5 13.9998 11.5H8.9998L6.4998 13.375V11.5H1.9998C1.72637 11.5 1.4998 11.2734 1.4998 11V2C1.4998 1.72656 1.72637 1.5 1.9998 1.5H13.9998C14.2732 1.5 14.4998 1.72656 14.4998 2V11Z"/></g><defs><clipPath><rect/></clipPath></defs></svg>