<svg viewBox="0 0 16 16" xmlns="http://www.w3.org/2000/svg"><path d="M16 4V12C16 13.6569 14.6569 15 13 15H10.75C10.3344 15 10 14.6656 10 14.25C10 13.8356 10.3359 13.5 10.75 13.5H13C13.825 13.5 14.5 12.825 14.5 12V4C14.5 3.175 13.825 2.5 13 2.5H10.75C10.3344 2.5 10 2.16406 10 1.75C10 1.33562 10.3344 1 10.75 1H13C14.6562 1 16 2.34312 16 4ZM11.4969 8.55937L6.73438 12.7375C6.54063 12.9094 6.29063 13 6.04063 13C5.89412 13 5.74669 12.9697 5.60813 12.9072C5.2375 12.7406 5 12.3781 5 11.9781V10.25H1.25C0.560625 10.25 0 9.69063 0 9V7C0 6.31063 0.560625 5.75 1.25 5.75H5V4.02187C5 3.62344 5.23828 3.25906 5.60656 3.09313C5.98438 2.92375 6.42812 2.99031 6.73438 3.2625L11.4969 7.4375C11.6594 7.58125 11.75 7.78438 11.75 8C11.75 8.21562 11.6594 8.41875 11.4969 8.55937ZM9.86875 8L6.5 5.03438V7.25H1.5V8.75H6.5V10.9384L9.86875 8Z"/></svg>