<svg viewBox="0 0 16 16" xmlns="http://www.w3.org/2000/svg"><path d="M8.66672 9.33333C8.66672 9.70278 8.3695 10 7.97505 10C7.63061 10 7.30839 9.70278 7.30839 9.33333V7.11111C7.30839 6.74167 7.63061 6.44444 7.97505 6.44444C8.3695 6.44444 8.66672 6.74167 8.66672 7.11111V9.33333ZM10.8417 2C11.6834 2 12.4362 2.52917 12.7223 3.3225L15.7612 11.7667C16.2306 13.0694 15.2667 14.4444 13.8806 14.4444H2.1195C0.734218 14.4444 -0.231587 13.0694 0.237607 11.7667L3.25283 3.3225C3.56394 2.52917 4.31672 2 5.15839 2H10.8417ZM1.492 12.2194C1.33561 12.6528 1.65755 13.1111 2.1195 13.1111H7.30839V12.4444C7.30839 12.075 7.63061 11.7778 7.97505 11.7778C8.3695 11.7778 8.66672 12.075 8.66672 12.4444V13.1111H13.8806C14.3417 13.1111 14.6639 12.6528 14.5084 12.2194L11.4667 3.77417C11.3723 3.50972 11.1223 3.33333 10.8417 3.33333H8.66672V4C8.66672 4.36944 8.3695 4.66667 7.97505 4.66667C7.63061 4.66667 7.30839 4.36944 7.30839 4V3.33333H5.15839C4.87783 3.33333 4.62783 3.50972 4.53339 3.77417L1.492 12.2194Z"/></svg>