<svg viewBox="0 0 16 16" xmlns="http://www.w3.org/2000/svg"><path d="M12.4719 4.25L12.4719 2.5H4.61221L9.76846 7.45937C9.91565 7.6 9.9719 7.79688 9.9719 8C9.9719 8.20312 9.8889 8.39937 9.74143 8.54094L4.61221 13.5H12.4997L12.4997 11.75C12.4997 11.3359 12.8356 11 13.2497 11C13.6625 11 14 11.3375 14 11.75V14.25C14 14.6641 13.6641 15 13.25 15H2.74971C2.44402 15 2.16877 14.8144 2.0544 14.5303C1.94002 14.2462 2.00946 13.9219 2.23018 13.7091L8.16877 8L2.23015 2.29094C2.00945 2.07812 1.94012 1.75406 2.05437 1.46969C2.16862 1.18531 2.44409 1 2.74971 1H13.2497C13.6625 1 14 1.33594 14 1.75V4.25C14 4.66563 13.6625 5 13.2219 5C12.8344 5 12.4719 4.66563 12.4719 4.25Z"/></svg>