<svg viewBox="0 0 16 16" xmlns="http://www.w3.org/2000/svg"><path d="M15 11V1.5C15 0.672813 14.3281 0 13.5 0H3.5C2.12156 0 1 1.12125 1 2.5V13.5C1 14.8781 2.12156 16 3.5 16H14.25C14.6641 16 15 15.6641 15 15.25C15 14.8359 14.6641 14.5 14.25 14.5H14V12.4078C14.5813 12.2 15 11.65 15 11ZM12.5 14.5H3.5C2.94875 14.5 2.5 14.0519 2.5 13.5C2.5 12.9481 2.94875 12.5 3.5 12.5H12.5V14.5ZM13.5 11H3.5C3.14438 11 2.80625 11.0742 2.5 11.209V2.5C2.5 1.94813 2.94875 1.5 3.5 1.5H13.5V11ZM5.75 5H11.25C11.6656 5 12 4.66563 12 4.25C12 3.83437 11.6656 3.5 11.25 3.5H5.75C5.3375 3.5 5 3.8375 5 4.25C5 4.6625 5.3375 5 5.75 5ZM5.75 7.5H11.25C11.6656 7.5 12 7.16563 12 6.75C12 6.33437 11.6656 6 11.25 6H5.75C5.3375 6 5 6.3375 5 6.75C5 7.1625 5.3375 7.5 5.75 7.5Z"/></svg>