<svg viewBox="0 0 16 16" xmlns="http://www.w3.org/2000/svg"><path d="M5.75 2H10.25V0.75C10.25 0.335938 10.5844 0 11 0C11.4156 0 11.75 0.335938 11.75 0.75V2H13C14.1031 2 15 2.89531 15 4V14C15 15.1031 14.1031 16 13 16H3C1.89531 16 1 15.1031 1 14V4C1 2.89531 1.89531 2 3 2H4.25V0.75C4.25 0.335938 4.58437 0 5 0C5.41563 0 5.75 0.335938 5.75 0.75V2ZM2.5 7.75H5V6H2.5V7.75ZM2.5 9.25V11.25H5V9.25H2.5ZM6.5 9.25V11.25H9.5V9.25H6.5ZM11 9.25V11.25H13.5V9.25H11ZM13.5 6H11V7.75H13.5V6ZM13.5 12.75H11V14.5H13C13.275 14.5 13.5 14.275 13.5 14V12.75ZM9.5 12.75H6.5V14.5H9.5V12.75ZM5 12.75H2.5V14C2.5 14.275 2.72375 14.5 3 14.5H5V12.75ZM9.5 6H6.5V7.75H9.5V6Z"/></svg>