<svg viewBox="0 0 16 16" xmlns="http://www.w3.org/2000/svg"><path d="M5.33333 8.11117C5.33333 6.61394 6.50278 5.4445 8 5.4445C9.47222 5.4445 10.6667 6.61394 10.6667 8.11117C10.6667 9.58339 9.47222 10.7778 8 10.7778C6.50278 10.7778 5.33333 9.58339 5.33333 8.11117ZM0 4.55561C0 3.57367 0.795833 2.77783 1.77778 2.77783H14.2222C15.2028 2.77783 16 3.57367 16 4.55561V11.6667C16 12.6473 15.2028 13.4445 14.2222 13.4445H1.77778C0.795833 13.4445 0 12.6473 0 11.6667V4.55561ZM1.33333 5.88894V10.3334C2.31528 10.3334 3.11111 11.1306 3.11111 12.1112H12.8889C12.8889 11.1306 13.6861 10.3334 14.6667 10.3334V5.88894C13.6861 5.88894 12.8889 5.09172 12.8889 4.11117H3.11111C3.11111 5.09172 2.31528 5.88894 1.33333 5.88894Z"/></svg>