<svg viewBox="0 0 16 16" xmlns="http://www.w3.org/2000/svg"><g clip-path="url(#clip0_11902_178424)"><path d="M7.24981 0.75C7.24981 0.335938 7.58418 0 7.99981 0C8.41543 0 8.74981 0.335938 8.74981 0.75V1H13.7592C13.9123 1 14.0561 1.06906 14.1498 1.1875L15.7498 3.1875C15.8967 3.36875 15.8967 3.63125 15.7498 3.78437L14.1498 5.78438C14.0561 5.93125 13.9123 6 13.7592 6H8.74981V7H13.9998C14.5529 7 14.9998 7.44688 14.9998 8V11C14.9998 11.5531 14.5529 12 13.9998 12H8.74981V15.25C8.74981 15.6656 8.41543 16 7.99981 16C7.58418 16 7.24981 15.6656 7.24981 15.25V12H2.24012C2.08825 12 1.9445 11.9313 1.84981 11.7844L0.249684 9.78438C0.103621 9.63125 0.103621 9.36875 0.249684 9.1875L1.84981 7.1875C1.9445 7.06875 2.08825 7 2.24012 7H7.24981V6H1.99981C1.44762 6 0.999809 5.55312 0.999809 5V2C0.999809 1.44781 1.44762 1 1.99981 1H7.24981V0.75ZM2.49981 2.5V4.5H13.2779L14.0779 3.5L13.2779 2.5H2.49981ZM13.4998 8.5H2.72075L1.92075 9.5L2.72075 10.5H13.4998V8.5Z"/></g><defs><clipPath><rect/></clipPath></defs></svg>