<svg data-name="Layer 1" xmlns="http://www.w3.org/2000/svg" viewBox="0 0 32 32"><path d="M27.5 4.48a8 8 0 00-11.2 0L15 5.75v.05l-9.1 9-.05.06-1.3 1.31a8.15 8.15 0 00-2.37 5.74 7.68 7.68 0 002.37 5.57 7.86 7.86 0 0011.14 0L27.5 15.73a8 8 0 000-11.26zm-17 9.82A1.66 1.66 0 118.85 16a1.63 1.63 0 011.66-1.7zm3.64 11.59a5.73 5.73 0 01-8.06 0 5.47 5.47 0 01-1.71-4 5.72 5.72 0 011.73-4.06l.55-.55 8.11 8zM16 23.13a1.66 1.66 0 111.66-1.66A1.63 1.63 0 0116 23.13zm0-5.52A1.66 1.66 0 1117.68 16 1.63 1.63 0 0116 17.61zm0-5.52a1.65 1.65 0 111.66-1.65A1.63 1.63 0 0116 12.09zm5.52 5.52A1.66 1.66 0 1123.2 16a1.63 1.63 0 01-1.66 1.61zM26 14.13l-.61.61-8.09-8.11.6-.63a5.63 5.63 0 014-1.66A5.86 5.86 0 0126 6a5.85 5.85 0 010 8.13z"/></svg>