<svg data-name="Layer 1" xmlns="http://www.w3.org/2000/svg" viewBox="0 0 32 32"><path d="M4.55 13h-3a1.49 1.49 0 00-1.49 1.49v3A1.49 1.49 0 001.54 19h3A1.49 1.49 0 006 17.5v-3A1.49 1.49 0 004.55 13zm8.67 0h-3a1.49 1.49 0 00-1.54 1.44v3.06a1.49 1.49 0 001.48 1.5h3a1.49 1.49 0 001.48-1.5v-3A1.49 1.49 0 0013.2 13zm8.64 0h-3a1.49 1.49 0 00-1.54 1.44v3.06A1.49 1.49 0 0018.8 19h3a1.49 1.49 0 001.52-1.46v-3A1.49 1.49 0 0021.84 13zm8.67 0h-3A1.49 1.49 0 0026 14.44v3.06a1.49 1.49 0 001.45 1.5h3a1.49 1.49 0 001.49-1.49v-3A1.49 1.49 0 0030.47 13h.06z"/></svg>