<svg data-name="Layer 1" xmlns="http://www.w3.org/2000/svg" viewBox="0 0 32 32"><path d="M28.53 30.81a1.15 1.15 0 01-1.14 1.14H4.61a1.15 1.15 0 01-1.14-1.14V1.19A1.15 1.15 0 014.61.05h22.78a1.15 1.15 0 011.14 1.14zm-2.28-1.14V2.33H5.75v27.34h6.83v-4a.59.59 0 01.57-.57h5.69a.59.59 0 01.57.57v4zM10.31 6.32a.59.59 0 01-.57.57H8.6a.59.59 0 01-.6-.57V5.18a.59.59 0 01.57-.57h1.17a.59.59 0 01.57.57zm0 4.56a.59.59 0 01-.57.57H8.6a.59.59 0 01-.6-.58V9.74a.59.59 0 01.57-.57h1.17a.59.59 0 01.57.57zm0 4.56a.59.59 0 01-.57.57H8.6a.59.59 0 01-.6-.58v-1.14a.59.59 0 01.57-.57h1.17a.59.59 0 01.57.57zm0 4.56a.59.59 0 01-.57.57H8.6A.59.59 0 018 20v-1.15a.59.59 0 01.57-.57h1.17a.59.59 0 01.57.57zm0 4.56a.59.59 0 01-.57.57H8.6a.59.59 0 01-.6-.59V23.4a.59.59 0 01.57-.57h1.17a.59.59 0 01.57.57zm4.55-18.24a.59.59 0 01-.57.57h-1.14a.59.59 0 01-.57-.57V5.18a.59.59 0 01.57-.57h1.14a.59.59 0 01.57.57zm0 4.56a.59.59 0 01-.57.57h-1.14a.59.59 0 01-.57-.57V9.74a.59.59 0 01.57-.57h1.14a.59.59 0 01.57.57zm0 4.56a.59.59 0 01-.57.57h-1.14a.59.59 0 01-.57-.57v-1.15a.59.59 0 01.57-.57h1.14a.59.59 0 01.57.57zm0 4.56a.59.59 0 01-.57.57h-1.14a.59.59 0 01-.57-.57v-1.15a.59.59 0 01.57-.57h1.14a.59.59 0 01.57.57zm4.56-13.68a.59.59 0 01-.57.57h-1.14a.59.59 0 01-.57-.57V5.18a.59.59 0 01.57-.57h1.14a.59.59 0 01.57.57zm0 4.56a.59.59 0 01-.57.57h-1.14a.59.59 0 01-.57-.57V9.74a.59.59 0 01.57-.57h1.14a.59.59 0 01.57.57zm0 4.56a.59.59 0 01-.57.57h-1.14a.59.59 0 01-.57-.57v-1.15a.59.59 0 01.57-.57h1.14a.59.59 0 01.57.57zm0 4.56a.59.59 0 01-.57.57h-1.14a.59.59 0 01-.57-.57v-1.15a.59.59 0 01.57-.57h1.14a.59.59 0 01.57.57zM24 6.32a.59.59 0 01-.57.57h-1.16a.59.59 0 01-.57-.57V5.18a.59.59 0 01.57-.57h1.13a.59.59 0 01.57.57zm0 4.56a.59.59 0 01-.57.57h-1.16a.59.59 0 01-.57-.57V9.74a.59.59 0 01.57-.57h1.13a.59.59 0 01.57.57zm0 4.56a.59.59 0 01-.57.57h-1.16a.59.59 0 01-.57-.57v-1.15a.59.59 0 01.57-.57h1.13a.59.59 0 01.57.57zM24 20a.59.59 0 01-.57.57h-1.16a.59.59 0 01-.57-.57v-1.15a.59.59 0 01.57-.57h1.13a.59.59 0 01.57.57zm0 4.56a.59.59 0 01-.57.57h-1.16a.59.59 0 01-.57-.57V23.4a.59.59 0 01.57-.57h1.13a.59.59 0 01.57.57z"/></svg>