<svg xmlns="http://www.w3.org/2000/svg" viewBox="0 0 16 16"><path d="M4.334 9.593a.998.998 0 01-1.41.092 1.002 1.002 0 01-.092-1.414.434.434 0 00.107-.288.432.432 0 00-.09-.266 1.002 1.002 0 01.172-1.405.998.998 0 011.403.172 2.44 2.44 0 01-.09 3.109zm2.937 2.984a.998.998 0 01-1.414.029 1.003 1.003 0 01-.028-1.416 4.612 4.612 0 001.288-3.206 4.607 4.607 0 00-1.262-3.178 1.002 1.002 0 011.453-1.377 6.608 6.608 0 011.809 4.555 6.61 6.61 0 01-1.846 4.593zm3.094 3.121a.997.997 0 01-1.414.018 1.002 1.002 0 01-.018-1.416 9 9 0 002.566-6.316c0-2.36-.9-4.593-2.535-6.286A1.004 1.004 0 018.988.281a1 1 0 011.414.023A11 11 0 0113.5 7.983a10.99 10.99 0 01-3.135 7.715z"/></svg>