<svg xmlns="http://www.w3.org/2000/svg" viewBox="0 0 16 16"><path d="M14.704 5.542c.004.016.005.032.007.048l.002.001-.009-.049zm.007.048C13.723 2.699 11.258.75 8.22.75c-3.239 0-5.829 2.217-6.669 5.429-.043-.004-.085-.01-.134-.01a1.36 1.36 0 00-1.36 1.36V8.89c0 .704.536 1.276 1.223 1.347l.003.007 1.315 3.284a.68.68 0 001.263-.505l-1.33-3.32a.07.07 0 00.005-.013h-.008.008c.133-.346.119-.807.1-1.048a6.358 6.358 0 01-.01-.436C2.743 4.712 5.108 2.11 8.22 2.11c2.375 0 4.311 1.519 5.149 3.789l.041.109v-.001a.689.689 0 001.301-.417z"/><path d="M10.94 6H6a1 1 0 00-1 1v3a1 1 0 001 1h2.25l1.173 1.387L10.597 11h.344c.553 0 1.06-.448 1.06-1V7c-.001-.552-.508-1-1.061-1z"/></svg>