<svg xmlns="http://www.w3.org/2000/svg" viewBox="0 0 16 16"><path d="M8 1.1c-3.811 0-6.9 3.077-6.9 6.874 0 3.797 3.089 6.927 6.9 6.927 3.81 0 6.9-3.13 6.9-6.928S11.81 1.1 8 1.1zm0 12.563c-3.127 0-5.662-2.568-5.662-5.684S4.873 2.338 8 2.338c3.126 0 5.662 2.524 5.662 5.64 0 3.116-2.536 5.685-5.662 5.685z"/><path d="M4.459 11.006a.5.5 0 01-.426-.76C4.814 8.96 6.224 8.252 8 8.252c1.776 0 3.185.708 3.966 1.991a.5.5 0 01-.854.521C10.52 9.789 9.414 9.252 8 9.252c-1.414 0-2.52.538-3.113 1.514a.501.501 0 01-.428.24z"/><circle cx="5.5" cy="6.25" r="1"/><circle cx="10.5" cy="6.25" r="1"/></svg>