<svg viewBox="0 0 16 16" xmlns="http://www.w3.org/2000/svg"><path d="M14.3002 5.30598C14.9562 3.72798 15.0002 2.41498 14.2092 1.63098C13.3342 0.754981 11.2342 1.01798 9.0092 2.06798H8.7452C7.18611 2.06131 5.67763 2.62099 4.5002 3.64298C3.53078 4.51558 2.84527 5.65881 2.5322 6.92498C3.33943 5.94564 4.29985 5.10342 5.3762 4.43098C5.51165 4.36751 5.64232 4.29432 5.7672 4.21198C5.7232 4.21198 5.0672 4.86898 4.9382 4.99998C1.8782 8.14998 0.0842019 12.92 1.4812 14.318C2.4002 15.237 4.0632 15.018 5.9892 13.968C6.8542 14.3599 7.79573 14.554 8.7452 14.536C10.0192 14.5517 11.2687 14.186 12.3332 13.486C13.4293 12.7465 14.258 11.6735 14.6962 10.426H11.2832C11.0273 10.8581 10.662 11.215 10.2242 11.4608C9.78627 11.7066 9.29131 11.8326 8.7892 11.826C8.08166 11.8217 7.40241 11.5476 6.89007 11.0596C6.37773 10.5716 6.0709 9.90648 6.0322 9.19998V9.06698H14.9562V8.93498C14.9562 8.71698 15.0002 8.45398 15.0002 8.27898C14.993 7.248 14.7537 6.23188 14.3002 5.30598ZM2.4442 14.055C1.7442 13.355 1.9632 11.998 2.7942 10.382C3.16954 11.4498 3.81848 12.4005 4.6762 13.139C4.95052 13.367 5.24318 13.5721 5.5512 13.752C4.1512 14.493 3.0132 14.627 2.4442 14.055ZM11.5442 7.40698H6.0792V7.36298C6.15661 6.66413 6.48945 6.01851 7.01381 5.55008C7.53817 5.08165 8.21708 4.82342 8.9202 4.82498C9.60041 4.82882 10.2529 5.09476 10.7421 5.56748C11.2312 6.04021 11.5192 6.6833 11.5462 7.36298L11.5442 7.40698ZM13.0752 3.73098C12.4664 3.16201 11.7533 2.71616 10.9752 2.41798C12.3752 1.76198 13.5542 1.67198 14.1692 2.28698C14.6512 2.85598 14.6072 3.81798 14.0822 4.95598C13.8094 4.50034 13.4708 4.08755 13.0772 3.73098H13.0752Z"/></svg>