<svg viewBox="0 0 16 16" xmlns="http://www.w3.org/2000/svg"><path d="M6.07113 6.46895C6.64707 6.67563 7.19709 6.94845 7.71012 7.28195L9.22312 2.19295C6.51912 0.166954 3.36012 1.84995 3.36012 1.84995L1.84813 6.97695C2.31512 6.77564 2.79901 6.61602 3.29412 6.49995C4.20476 6.27359 5.15567 6.26297 6.07113 6.46895ZM12.5781 3.72695C11.6519 3.62733 10.7692 3.2821 10.0211 2.72695L8.50513 7.78895C9.32104 8.51241 10.381 8.89944 11.4711 8.87195C12.4769 8.82548 13.4641 8.58436 14.3781 8.16195L15.8781 3.06195C14.8318 3.49598 13.7109 3.72186 12.5781 3.72695ZM4.68512 7.19995C3.61631 7.20889 2.56089 7.4387 1.58513 7.87495L0.078125 13C1.01567 12.6166 2.01381 12.4026 3.02612 12.368C4.06195 12.4457 5.06128 12.7842 5.93113 13.352L7.45913 8.20995C6.63562 7.64243 5.68074 7.29477 4.68512 7.19995ZM10.9181 9.70995C9.96583 9.57785 9.05465 9.23632 8.25012 8.70995L6.74412 13.81C7.53371 14.3839 8.4618 14.7373 9.43312 14.834C10.527 14.8235 11.6071 14.5894 12.6071 14.146C12.6071 14.146 14.0881 9.06795 14.1191 9.04595C14.1098 9.05274 14.0997 9.05844 14.0891 9.06295C13.0869 9.49127 12.008 9.7114 10.9181 9.70995Z"/></svg>