<svg data-name="Layer 1" xmlns="http://www.w3.org/2000/svg" viewBox="0 0 32 32"><path d="M19.35 22.48a3 3 0 00-2.65-1.6l-3.59.06L9 12.77l2.43-2.37a3.22 3.22 0 00.06-3.53L9.75 3.5a2.15 2.15 0 00-3.37-.77 11.8 11.8 0 00-3.8 5.63A6 6 0 003 12.83l2 4L7.71 22l2.1 4.08a6 6 0 003.26 3 11.51 11.51 0 007 .28 2.11 2.11 0 001.32-3c-.66-1.32-1.32-2.59-2-3.92z"/><path d="M29.61 9.52v-.61a1.26 1.26 0 01-.06-.22v-.06c-.06-.11-.11-.17-.17-.28s-.06-.06-.06-.11-.06-.11-.11-.11-.09-.13-.15-.13H29c-.11-.05-.17-.11-.28-.11l-6-2.26a1.5 1.5 0 00-1 2.81l2.54.94-8.5 3.75a1.5 1.5 0 00-.77 2 1.45 1.45 0 001.38.88 2.35 2.35 0 00.61-.11l8.61-3.81-1 2.59a1.51 1.51 0 00.88 1.93 1.64 1.64 0 00.55.11 1.47 1.47 0 001.38-1l2.26-6v-.09c-.11 0-.11-.06-.06-.11z"/></svg>