<svg width="24" height="24" xmlns="http://www.w3.org/2000/svg"><path d="M16.333 11.6l4.164 2.081-4.164 2.083v-1.188a2.501 2.501 0 103.17 1.466L21 15.294a4.167 4.167 0 11-4.665-2.444V11.6zM10.983 4c.552 0 .882.356 1 1l.277 1.343c.46.186.884.438 1.263.749l1.327-.448c.614-.225 1.089-.121 1.368.356l.539.919c.28.476.14.942-.356 1.369l-.876.79-.192-.096v.277l-.012.014.014.097-.002 1.264-.011.094.012.014-.001.36-.063.024A5.17 5.17 0 0012 16.91l-.017.089c-.118.644-.448 1-1 1H9.917c-.552 0-.882-.356-1-1l-.277-1.343a4.87 4.87 0 01-1.261-.748l-1.328.448c-.615.225-1.09.121-1.37-.356l-.538-.919c-.28-.476-.14-.942.356-1.369l1.046-.945a.022.022 0 00.004-.005l.002-.003.003-.003.013-.015.012-.014a4.725 4.725 0 01-.06-.728c0-.248.023-.49.06-.728-.01-.01-.015-.018-.025-.029l-.005-.006-.002-.003-.002-.002-1.046-.945c-.496-.427-.636-.892-.357-1.369l.54-.919c.279-.476.754-.581 1.368-.356l1.326.448a4.857 4.857 0 011.263-.749L8.917 5c.118-.644.448-1 1-1zm-.533 4.122a2.877 2.877 0 100 5.754 2.877 2.877 0 000-5.754z"/></svg>