<svg viewBox="0 0 16 16" xmlns="http://www.w3.org/2000/svg"><path d="M14.0002 0.999994H2.00024C1.86682 0.991974 1.73323 1.01235 1.60827 1.05976C1.48331 1.10718 1.36983 1.18057 1.27532 1.27508C1.18081 1.36958 1.10743 1.48306 1.06001 1.60802C1.01259 1.73298 0.992218 1.86658 1.00024 1.99999V14C0.992218 14.1334 1.01259 14.267 1.06001 14.392C1.10743 14.5169 1.18081 14.6304 1.27532 14.7249C1.36983 14.8194 1.48331 14.8928 1.60827 14.9402C1.73323 14.9876 1.86682 15.008 2.00024 15H14.0002C14.1337 15.008 14.2672 14.9876 14.3922 14.9402C14.5172 14.8928 14.6306 14.8194 14.7252 14.7249C14.8197 14.6304 14.8931 14.5169 14.9405 14.392C14.9879 14.267 15.0083 14.1334 15.0002 14V1.99999C15.0083 1.86658 14.9879 1.73298 14.9405 1.60802C14.8931 1.48306 14.8197 1.36958 14.7252 1.27508C14.6306 1.18057 14.5172 1.10718 14.3922 1.05976C14.2672 1.01235 14.1337 0.991974 14.0002 0.999994ZM12.3852 8.15999C12.0308 8.55064 11.607 8.87208 11.1352 9.10799C10.9442 9.20799 10.7472 9.29699 10.5432 9.39599C10.5792 9.55599 10.6212 9.71799 10.6512 9.88199C10.7651 10.386 10.7434 10.9111 10.5882 11.404C10.5067 11.6941 10.3468 11.9561 10.1261 12.1612C9.90541 12.3664 9.63247 12.5068 9.33724 12.567C9.14651 12.6231 8.94312 12.6192 8.75472 12.5556C8.56633 12.4921 8.40205 12.3721 8.28424 12.212C8.18148 12.0709 8.12679 11.9005 8.12824 11.726C8.12824 11.2 8.12224 10.674 8.11924 10.148C8.11924 9.92199 8.11924 9.92199 7.87224 9.89299V10.022C7.87224 10.548 7.85924 11.074 7.87224 11.6C7.88432 11.7534 7.85846 11.9075 7.79694 12.0485C7.73543 12.1896 7.64014 12.3134 7.51949 12.4089C7.39884 12.5045 7.25653 12.5689 7.10511 12.5965C6.95369 12.624 6.79782 12.6139 6.65124 12.567C6.35831 12.5055 6.08781 12.3649 5.86906 12.1606C5.6503 11.9563 5.49163 11.696 5.41024 11.408C5.22704 10.8005 5.22948 10.1521 5.41724 9.54599L5.45724 9.39299C5.37024 9.35399 5.28324 9.31699 5.19724 9.27699C4.59252 9.01884 4.04853 8.63699 3.60024 8.15599C3.54893 8.09994 3.5143 8.03067 3.50024 7.95599C3.49461 7.92213 3.49634 7.88746 3.50531 7.85433C3.51429 7.8212 3.53029 7.79039 3.55224 7.76399C3.58236 7.74705 3.61553 7.73621 3.64985 7.73209C3.68417 7.72797 3.71896 7.73066 3.75224 7.73999C3.82341 7.76343 3.89078 7.79712 3.95224 7.83999V4.38699C3.93852 4.1743 3.99016 3.9625 4.10024 3.77999C4.17646 3.65961 4.2828 3.56122 4.40873 3.49457C4.53467 3.42791 4.67583 3.39531 4.81824 3.39999C6.93824 3.39999 9.05857 3.39999 11.1792 3.39999C11.3025 3.39891 11.4246 3.42402 11.5374 3.47368C11.6502 3.52333 11.7511 3.59638 11.8336 3.688C11.916 3.77961 11.9781 3.8877 12.0156 4.00511C12.0531 4.12251 12.0653 4.24654 12.0512 4.36899C12.0512 5.46899 12.0512 6.57799 12.0512 7.68199V7.83999C12.1292 7.79899 12.1862 7.76099 12.2512 7.73999C12.2805 7.72302 12.3141 7.71512 12.3479 7.71727C12.3817 7.71943 12.414 7.73155 12.4409 7.7521C12.4678 7.77266 12.4879 7.80072 12.4989 7.83274C12.5098 7.86477 12.511 7.89931 12.5022 7.93199C12.4837 8.01687 12.4434 8.09545 12.3852 8.15999ZM11.6002 4.54399C11.61 4.45494 11.5997 4.36484 11.57 4.28029C11.5404 4.19575 11.4922 4.11891 11.429 4.05542C11.3658 3.99193 11.2892 3.9434 11.2048 3.91339C11.1204 3.88338 11.0303 3.87265 10.9412 3.88199H10.7972H5.24324C5.16624 3.88199 5.09024 3.88199 5.01424 3.88799C4.89019 3.87956 4.76732 3.91665 4.66865 3.99231C4.56998 4.06797 4.50228 4.177 4.47824 4.29899C4.45904 4.37284 4.44864 4.4487 4.44724 4.52499C4.44724 5.71033 4.44724 6.89499 4.44724 8.07899C4.44961 8.10086 4.45687 8.12192 4.46846 8.14061C4.48006 8.1593 4.4957 8.17515 4.51424 8.18699C5.03183 8.45652 5.5999 8.61523 6.18224 8.65299C6.56624 8.67399 6.95224 8.65899 7.33724 8.65899C7.42359 8.65589 7.50967 8.67033 7.59029 8.70144C7.6709 8.73255 7.74436 8.77968 7.80624 8.83999C7.89924 8.93099 8.00624 9.00899 8.11124 9.09699C8.21124 8.75299 8.33924 8.65899 8.68724 8.65899C8.76724 8.65899 8.84724 8.65899 8.92724 8.66799C9.81299 8.74215 10.7023 8.57453 11.5002 8.18299C11.5362 8.16902 11.5665 8.14342 11.5862 8.11026C11.606 8.0771 11.6141 8.03828 11.6092 7.99999C11.6092 7.16499 11.6092 6.32999 11.6092 5.49399C11.6062 5.17799 11.6092 4.86099 11.6002 4.54399ZM7.20624 8.14999C6.94883 8.25807 6.66047 8.26677 6.39702 8.1744C6.13357 8.08202 5.91379 7.89515 5.78024 7.64999C5.72074 7.50738 5.67389 7.35981 5.64024 7.20899C5.65366 6.97179 5.74353 6.74531 5.89639 6.56343C6.04924 6.38154 6.25688 6.25404 6.48824 6.19999C6.74266 6.13454 7.0119 6.15936 7.25006 6.27024C7.48822 6.38111 7.68055 6.57117 7.79424 6.80799C7.84656 6.93442 7.8728 7.07012 7.87139 7.20694C7.86998 7.34376 7.84095 7.47889 7.78603 7.60422C7.73112 7.72954 7.65146 7.84249 7.55183 7.93627C7.4522 8.03006 7.33465 8.10275 7.20624 8.14999ZM9.54924 8.21699C9.35506 8.25284 9.15489 8.23728 8.96859 8.17185C8.78229 8.10641 8.61635 7.99339 8.48724 7.84399C8.39101 7.73091 8.32118 7.59782 8.2828 7.45438C8.24443 7.31094 8.23848 7.16075 8.26539 7.01473C8.29229 6.8687 8.35138 6.7305 8.43836 6.61016C8.52534 6.48982 8.63803 6.39035 8.76824 6.31899C8.92507 6.22837 9.10131 6.17659 9.28224 6.16799C9.43713 6.15496 9.59301 6.17571 9.73911 6.2288C9.8852 6.28189 10.018 6.36606 10.1284 6.4755C10.2388 6.58494 10.3241 6.71704 10.3785 6.86267C10.4328 7.0083 10.4549 7.16399 10.4432 7.31899C10.409 7.54426 10.3039 7.75275 10.1431 7.91422C9.98237 8.0757 9.77434 8.18175 9.54924 8.21699Z"/></svg>