<svg data-name="Layer 1" xmlns="http://www.w3.org/2000/svg" viewBox="0 0 32 32"><path d="M30 16.77a2.28 2.28 0 01-.67 1.62L28 19.74a2.23 2.23 0 01-1.64.68 2.13 2.13 0 01-1.62-.68l-5.28-5.27v12.65a1.92 1.92 0 01-.67 1.52 2.41 2.41 0 01-1.63.58h-2.3a2.4 2.4 0 01-1.62-.58 1.91 1.91 0 01-.67-1.52V14.47l-5.3 5.27a2.14 2.14 0 01-1.62.68A2.14 2.14 0 014 19.74l-1.32-1.35A2.21 2.21 0 012 16.77a2.23 2.23 0 01.68-1.64l11.7-11.7A2.13 2.13 0 0116 2.77a2.22 2.22 0 011.64.67l11.7 11.7a2.3 2.3 0 01.66 1.63z"/></svg>