<svg data-name="Layer 1" xmlns="http://www.w3.org/2000/svg" viewBox="0 0 32 32"><path d="M27.65 26.85a1.79 1.79 0 01-1.8 1.8H6.05a1.79 1.79 0 01-1.8-1.8v-18a1.79 1.79 0 011.8-1.8h1.8v-1.4a2.33 2.33 0 012.3-2.3H11a2.33 2.33 0 012.3 2.3v1.4h5.4v-1.4a2.33 2.33 0 012.3-2.3h.9a2.33 2.33 0 012.3 2.3v1.4H26a1.79 1.79 0 011.8 1.8v18zm-1.8 0v-14.4H6v14.4zm-14.4-21.2a.47.47 0 00-.5-.5H10a.47.47 0 00-.5.5v4.1a.47.47 0 00.5.5h.9a.47.47 0 00.5-.5zm10.8 0a.47.47 0 00-.5-.5h-.8a.47.47 0 00-.5.5v4.1a.47.47 0 00.5.5h.9a.47.47 0 00.5-.5v-4.1z"/><path d="M22.95 18.85l-3-3a1 1 0 00-1.4 1.4l1.3 1.3h-7.7l1.3-1.3a1 1 0 00-1.4-1.4l-3 2.9-.1.1a1 1 0 00-.3.8 1.14 1.14 0 00.3.8l2.9 3a1.06 1.06 0 001.2.2c.1-.1.2-.1.3-.2a1 1 0 000-1.4L12 20.65h7.8L18.55 22a1 1 0 000 1.4c.1.1.2.2.3.2a1.09 1.09 0 001.2-.2l2.9-3 .1-.1a1.14 1.14 0 00.3-.8.75.75 0 00-.4-.65z"/></svg>