<svg viewBox="0 0 24 33" fill="none" xmlns="http://www.w3.org/2000/svg"><path clip-rule="evenodd" d="M24 8.24V29a3.005 3.005 0 01-3 3.005H3.006A3.005 3.005 0 010 29V3.005A3.005 3.005 0 013.005 0h12.751a3.005 3.005 0 012.12.881l5.243 5.244A2.99 2.99 0 0124 8.24zm-8-4.996V8h4.756L16 3.244zM21 29V11h-6.5A1.5 1.5 0 0113 9.5V3.005H3.005v26L21.001 29zm-2.282-11.492H13.47a.381.381 0 01-.376-.383v-.766c0-.21.17-.382.376-.382h5.248a.38.38 0 01.376.382v.766c0 .21-.17.383-.377.383zM13.47 20.57h5.248a.381.381 0 00.376-.382v-.766c0-.21-.17-.383-.377-.383H13.47a.381.381 0 00-.376.383v.766c0 .21.17.382.376.382zm-.007 3.063h5.254a.38.38 0 00.373-.383v-.765a.38.38 0 00-.373-.383h-5.254a.38.38 0 00-.373.383v.765c0 .211.17.383.373.383zm-5.735-9.724a.61.61 0 01.462-.209.59.59 0 01.468.215.678.678 0 01.174.475v.338c.502.082.936.265 1.29.561.395.322.717.732.969 1.225.113.22.174.45.153.68v.002a.794.794 0 01-.325.572.703.703 0 01-.688.122l-.007-.002-.007-.003a.95.95 0 01-.498-.47l-.004-.007a2.047 2.047 0 00-.49-.67 1.232 1.232 0 00-.393-.23v2.52c.696.15 1.274.459 1.715.937.51.544.753 1.25.753 2.09 0 .602-.127 1.136-.395 1.585-.253.428-.593.77-1.018 1.022a3.3 3.3 0 01-1.055.413v.535a.705.705 0 01-.168.468.59.59 0 01-.474.222.61.61 0 01-.468-.215.704.704 0 01-.174-.475v-.505a4.154 4.154 0 01-1.022-.259h-.002a3.451 3.451 0 01-1.073-.675l-.006-.005c-.303-.3-.53-.651-.677-1.052a.896.896 0 01.01-.708l.002-.005a.827.827 0 01.57-.449.714.714 0 01.606.118.98.98 0 01.375.477c.08.198.244.386.531.554a2.3 2.3 0 00.686.245v-2.843c-.718-.163-1.313-.483-1.77-.97l-.001-.002c-.503-.545-.752-1.214-.752-1.988 0-.54.12-1.023.375-1.438v-.001a2.754 2.754 0 011.012-.97 3.48 3.48 0 011.136-.402v-.342c0-.173.05-.346.18-.481zm-.714 2.864c-.19.175-.298.423-.298.783 0 .182.03.36.092.537.06.152.168.303.34.451.097.079.229.152.4.218v-2.284a1.41 1.41 0 00-.534.295zm1.818 4.04v2.442a1.57 1.57 0 00.448-.308c.205-.203.318-.477.318-.855 0-.316-.088-.6-.267-.86l-.002-.003a1.231 1.231 0 00-.497-.415z"/></svg>