<svg viewBox="0 0 24 33" fill="none" xmlns="http://www.w3.org/2000/svg"><path clip-rule="evenodd" d="M24 29V8.24a2.99 2.99 0 00-.881-2.115L17.875.88A3.005 3.005 0 0015.756 0H3.006A3.005 3.005 0 000 3.005V29a3.005 3.005 0 003.005 3.005h17.996A3.005 3.005 0 0024 29zM16 8V3.244L20.756 8H16zm5 3v18l-17.995.005v-26H13V9.5a1.5 1.5 0 001.5 1.5H21zm-9.28 6.5c0 1.38-1.095 2.5-2.444 2.5-1.35 0-2.444-1.12-2.444-2.5S7.926 15 9.276 15c1.35 0 2.443 1.12 2.443 2.5zm1.832 6.75c0 .414-.382.75-.855.75H5.855C5.382 25 5 24.664 5 24.25v-.75c0-1.242 1.15-2.25 2.566-2.25.171 0 .314.049.486.107.266.09.602.206 1.224.206.606 0 .955-.116 1.229-.207.175-.058.32-.106.481-.106 1.417 0 2.566 1.008 2.566 2.25v.75zm1.126-.617h4.032c.156 0 .286-.172.286-.383v-.765c0-.211-.13-.383-.286-.383h-4.032c-.157 0-.286.172-.286.383v.765c0 .211.13.383.286.383zm3.952-3.063h-5.166a.378.378 0 01-.37-.382v-.766a.38.38 0 01.37-.383h5.166c.202 0 .37.172.37.383v.766a.378.378 0 01-.37.382zm-5.166-3.062h5.166c.202 0 .37-.172.37-.383v-.766a.378.378 0 00-.37-.382h-5.166a.378.378 0 00-.37.382v.766c0 .21.168.383.37.383z"/></svg>