<svg viewBox="0 0 25 28" fill="none" xmlns="http://www.w3.org/2000/svg"><path d="M17.015 20.583c-.498-1.009-1.55-1.625-2.657-1.625l-3.597.056L6.61 10.72l2.435-2.408c.665-.897.775-2.13.056-3.586L7.385 1.31C6.721-.035 5.171-.427 4.008.525 2.237 1.981.908 3.999.244 6.24a6.156 6.156 0 00.443 4.538l2.047 4.09 2.657 5.267 2.103 4.146a5.992 5.992 0 003.266 3.025c2.214.84 4.705.897 6.974.28 1.273-.336 1.938-1.849 1.329-3.025a135.692 135.692 0 01-2.048-3.977v-.001zm4.982-10.533l2.546-2.577c.61-.616.61-1.569 0-2.13-.609-.616-1.55-.616-2.104 0l-2.546 2.578-2.546-2.578c-.609-.616-1.55-.616-2.104 0-.553.617-.609 1.57 0 2.13l2.547 2.577-2.547 2.522c-.609.616-.609 1.569 0 2.13.277.28.665.447 1.052.447s.774-.169 1.051-.448l2.491-2.521 2.491 2.521c.277.28.664.448 1.052.448.387 0 .774-.169 1.05-.448.61-.616.61-1.569 0-2.13l-2.435-2.52h.002z"/></svg>