<svg data-name="Layer 1" xmlns="http://www.w3.org/2000/svg" viewBox="0 0 32 32"><path d="M25.71 17.65V23a4.86 4.86 0 01-4.85 4.85h-14a4.67 4.67 0 01-3.43-1.42A4.67 4.67 0 012 23V9a4.67 4.67 0 011.42-3.43 4.68 4.68 0 013.43-1.42h14a4.64 4.64 0 012 .42.51.51 0 01.3.39.53.53 0 01-.15.49l-.83.83a.53.53 0 01-.39.17h-.15a3 3 0 00-.76-.1h-14A2.7 2.7 0 004.16 9v14a2.7 2.7 0 002.69 2.7h14a2.7 2.7 0 002.7-2.7v-4.27a.51.51 0 01.15-.37l1.08-1.08a.53.53 0 01.39-.17.46.46 0 01.2.05.49.49 0 01.34.49z"/><path d="M29.6 9.42l-13.71 13.7a1.34 1.34 0 01-1.92 0l-7.24-7.24a1.34 1.34 0 010-1.92l1.85-1.85a1.34 1.34 0 011.92 0l4.43 4.43 10.9-10.89a1.34 1.34 0 011.92 0L29.6 7.5a1.35 1.35 0 010 1.92z"/></svg>