<svg viewBox="0 0 16 16" xmlns="http://www.w3.org/2000/svg"><path d="M5.454 8C5.454 8.50355 5.60332 8.99579 5.88308 9.41448C6.16284 9.83317 6.56047 10.1595 7.02569 10.3522C7.49091 10.5449 8.00282 10.5953 8.4967 10.4971C8.99058 10.3988 9.44423 10.1564 9.80029 9.80029C10.1564 9.44423 10.3988 8.99058 10.4971 8.4967C10.5953 8.00283 10.5449 7.49091 10.3522 7.02569C10.1595 6.56047 9.83317 6.16284 9.41448 5.88308C8.99579 5.60332 8.50355 5.454 8 5.454C7.32541 5.45611 6.67905 5.72503 6.20204 6.20204C5.72503 6.67905 5.45611 7.32541 5.454 8ZM8 4.413C8.1 4.413 8.205 4.437 8.306 4.437H14.032C13.4539 3.46134 12.6474 2.64074 11.6819 2.04581C10.7165 1.45088 9.62088 1.09943 8.48948 1.02171C7.35808 0.943987 6.22474 1.14232 5.18697 1.59963C4.1492 2.05695 3.23808 2.75955 2.532 3.647L4.538 7.109C4.72925 6.33655 5.17457 5.65079 5.80242 5.16186C6.43027 4.67292 7.20423 4.40918 8 4.413ZM14.516 5.454H10.494C10.8426 5.77972 11.1199 6.17409 11.3085 6.61227C11.4971 7.05045 11.593 7.52295 11.59 8C11.5945 8.7287 11.3719 9.4407 10.953 10.037L8.077 15C9.92014 14.9797 11.6809 14.2333 12.977 12.9227C14.2732 11.6122 15.0001 9.84325 15 8C14.9969 7.12876 14.8328 6.2656 14.516 5.454ZM8 11.588C7.32058 11.589 6.6551 11.3953 6.08233 11.0298C5.50955 10.6644 5.05345 10.1425 4.768 9.526L1.891 4.563C1.30872 5.61512 1.00221 6.7975 1 8C1.00264 9.67533 1.60486 11.2944 2.69768 12.5642C3.79051 13.834 5.30176 14.6708 6.958 14.923L8.968 11.462C8.65177 11.5438 8.32663 11.5861 8 11.588Z"/></svg>