<svg data-name="Layer 1" xmlns="http://www.w3.org/2000/svg" viewBox="0 0 32 32"><path d="M31.5 16.5a15.83 15.83 0 00-4.86-11.14 15.69 15.69 0 00-5.16-3.3 15.54 15.54 0 00-11.87.23 15.29 15.29 0 00-8.09 8.42 15 15 0 00.23 11.48A14.79 14.79 0 009.9 30a14.54 14.54 0 0011.1-.22 14.3 14.3 0 007.55-7.88 14 14 0 00.83-3.24h.12a2 2 0 002-2v-.17zm-3.18 5.31a13.79 13.79 0 01-7.61 7.28 13.55 13.55 0 01-10.34-.23 13.29 13.29 0 01-7-7.34 13 13 0 01.23-10 12.79 12.79 0 017.07-6.74A12.54 12.54 0 0115.5 4a12.33 12.33 0 018.66 3.84 12.22 12.22 0 012.54 4 12 12 0 01.8 4.64v.17a2 2 0 001.78 2 13.89 13.89 0 01-1 3.16z"/></svg>