<svg data-name="Layer 1" xmlns="http://www.w3.org/2000/svg" viewBox="0 0 32 32"><path d="M28.46 3.54A5.06 5.06 0 0024.75 2H7.25a5.07 5.07 0 00-3.71 1.54A5.06 5.06 0 002 7.25v17.5a5.05 5.05 0 001.54 3.71A5.06 5.06 0 007.25 30h17.5A5.26 5.26 0 0030 24.75V7.25a5.06 5.06 0 00-1.54-3.71zm-3.13 21.21a.59.59 0 01-.58.58H7.25a.59.59 0 01-.58-.58V7.25a.59.59 0 01.58-.58h17.5a.59.59 0 01.58.58z"/><path d="M22.87 12a1.06 1.06 0 01-.09 1.2l-5.83 8.17a1.16 1.16 0 01-1.9 0l-5.83-8.2a1.16 1.16 0 01.95-1.84h11.66a1.07 1.07 0 011.04.67z"/></svg>