<svg viewBox="0 0 16 16" xmlns="http://www.w3.org/2000/svg"><path d="M14.4631 9.12502V7.65702C14.4402 6.9687 14.3549 6.28389 14.2081 5.61102C14.0894 5.11677 13.9016 4.64174 13.6501 4.20002C13.1207 3.22739 12.3299 2.4221 11.3671 1.87502C10.3818 1.29999 9.26097 0.997954 8.12011 1.00002C6.68799 0.981998 5.29144 1.44622 4.15511 2.31802C2.68689 3.55561 1.74977 5.30959 1.53711 7.21802C2.23537 6.21687 3.12519 5.3641 4.15511 4.70902C5.25029 4.05856 6.49466 3.7014 7.76811 3.67202C8.15794 3.64401 8.54913 3.70291 8.91344 3.84446C9.27774 3.98601 9.60607 4.20669 9.87473 4.49055C10.1434 4.77442 10.3457 5.11439 10.4669 5.48594C10.5882 5.85748 10.6255 6.25131 10.5761 6.63902H5.61011C5.66566 6.2352 5.77217 5.84005 5.92711 5.46302C6.09575 5.08371 6.31472 4.72885 6.57811 4.40802C5.72849 4.79002 4.97101 5.35037 4.35711 6.05102C3.57499 7.00186 3.15294 8.19789 3.16511 9.42902C3.14959 9.96798 3.20917 10.5065 3.34211 11.029C3.5253 11.6168 3.79964 12.1723 4.15511 12.675C4.84795 13.6389 5.83405 14.3528 6.96611 14.71C7.66705 14.9182 8.3961 15.016 9.12711 15C10.5769 15.0181 12.0074 14.6671 13.2841 13.98V11.029C12.8435 11.3227 12.3651 11.5555 11.8621 11.721C11.1041 11.9883 10.3023 12.1097 9.49911 12.079C5.45411 12.079 5.66711 9.12502 5.66711 9.12502H14.4631Z"/></svg>