<svg data-name="Layer 1" xmlns="http://www.w3.org/2000/svg" viewBox="0 0 32 32"><path d="M30.08 1.92A6.3 6.3 0 0025.46 0H6.54a6.3 6.3 0 00-4.62 1.92A6.3 6.3 0 000 6.54v18.91a6.3 6.3 0 001.92 4.63A6.31 6.31 0 006.54 32h18.92A6.55 6.55 0 0032 25.46V6.54a6.3 6.3 0 00-1.92-4.62zm-1 23.54a3.65 3.65 0 01-3.64 3.64H6.54A3.5 3.5 0 014 28a3.5 3.5 0 01-1.07-2.57V6.54A3.5 3.5 0 014 4a3.5 3.5 0 012.54-1.1h18.92A3.5 3.5 0 0128 4a3.5 3.5 0 011.07 2.57zm-5.58-13.1a.77.77 0 00-.54-.23.73.73 0 00-.54.23.74.74 0 00-.23.54v1.55H9.81V12.9a.72.72 0 00-.23-.54.77.77 0 00-.58-.23.72.72 0 00-.54.23l-3.1 3.1a.73.73 0 00-.23.54.72.72 0 00.23.54l3.1 3.1a.74.74 0 00.54.23.72.72 0 00.54-.23.73.73 0 00.23-.54v-1.55H22.2v1.55a.73.73 0 00.23.54.74.74 0 00.54.23.73.73 0 00.54-.23l3.1-3.1a.73.73 0 00.23-.54.72.72 0 00-.23-.54z"/></svg>