<svg xmlns="http://www.w3.org/2000/svg" viewBox="0 0 92 92"><path d="M0 0v92h92V0H0zm74.333 45.393l-.089.076c-.038.051-.056.102-.103.158l-.819.854a1.756 1.756 0 01-1.211.549c-.428.016-.818-.145-1.179-.477L70 45.551V64H52V46H40v18H22V45.551l-.867 1.002c-.36.332-.722.492-1.148.477a1.7 1.7 0 01-1.191-.549l-.812-.861c-.048-.049-.059-.105-.103-.155l-.085-.075c-.495-.584-.447-1.412.059-1.961.072-.1.108-.205.198-.293l26.167-23.041s.835-.88 1.882-.88c.935 0 1.816.88 1.816.88l26.162 23.041c.089.085.125.193.196.293.506.548.554 1.376.059 1.964z"/></svg>