<svg xmlns="http://www.w3.org/2000/svg" viewBox="0 0 24 24"><path d="M20 11V9h-3.793l5.121-5.121-1.311-1.415L15 7.586V4h-2v7h7z"/><path d="M21.645 17.713l-3.132-3.135c-.436-.428-1.154-.41-1.605.04l-.442.441-.626.617c-1.211 1.208-3.126 1.254-4.281.101l-.523-.521-2.609-2.61c-1.153-1.156-1.106-3.07.104-4.282l.353-.344.271-.268.442-.445c.451-.453.466-1.172.034-1.605L6.495 2.567c-.432-.431-1.148-.416-1.602.038l-.706.794c-.824.823-1.404 1.895-1.552 2.824-.369 2.303.982 6.716 4.836 10.567.006.007.015.013.021.018.005.006.011.015.019.021 3.852 3.854 8.267 5.206 10.567 4.837.929-.146 2.003-.728 2.824-1.55l.708-.795c.451-.455.466-1.174.035-1.608z"/></svg>