<svg xmlns="http://www.w3.org/2000/svg" viewBox="0 0 92 92"><path d="M0 0v92h92V0H0zm73 63.7c0 1.894-1.405 3.3-3.3 3.3H22.4c-1.895 0-3.4-1.406-3.4-3.3V32.286C19 30.393 20.505 29 22.4 29h47.3c1.895 0 3.3 1.393 3.3 3.286V63.7z"/><path d="M25 42h16v4H25zm33.054 10.771c-.616-.505-1.239-2.083-1.239-2.083l-3.958 2.726-3.958-2.722s-.623 1.575-1.239 2.079c-3.201 2.351-7.694 3.251-8.511 4.036C37.669 58.243 37.234 61 37 63h31.821c-.234-2-.777-4.757-2.256-6.193-.811-.786-5.311-1.686-8.511-4.036zM25 35h16v4H25zm21.683 7.918c.476.149.542 2.468 1.741 4.106.944 1.279 2.263 2.89 3.783 3.138.174.036 1.118.036 1.299 0 1.52-.248 2.846-1.858 3.783-3.138 1.199-1.639 1.259-3.957 1.734-4.106.569-.181.884-1.679.884-3.403 0-.335-.67-.801-.73-1.102v-.023c-.275-3.023-2.96-6.104-6.241-6.104h-.16c-3.281 0-5.967 3.08-6.248 6.104v.018c-.06.307-.723.772-.723 1.107.001 1.724.316 3.222.878 3.403z"/></svg>