<svg xmlns="http://www.w3.org/2000/svg" viewBox="0 0 16 16"><path d="M3.384 10.401l-.653-.651L0 12.499l2.732 2.751.652-.651L1.802 13H7v-1H1.802zM15.015 3H4.016C3.463 3 3 3.433 3 3.985v1.25l6.473 3.499L16 5.235v-1.25A.975.975 0 0015.015 3z"/><path d="M4.016 2H13V.982A.975.975 0 0012.012 0H1.013C.46 0 0 .43 0 .982v1.25l2.107 1.144A2.005 2.005 0 014.016 2zM3 6.574v1.48l2.352 2.341-.199.205-.437.4H8v2h7.015c.552 0 .985-.463.985-1.016v-5.41l-6.527 3.5L3 6.574zM.598 9.896L2 8.484v-3.83L0 3.571v5.41c0 .41.246.761.598.915z"/></svg>