<svg xmlns="http://www.w3.org/2000/svg" viewBox="0 0 16 16"><path d="M15.812 1.005A.501.501 0 0015.111 1l-.006.005-1.014 1.014-4.696 4.697-.757.757-1.502 1.502-2.01 2.011L2.111 14l-.703.703-.006.006a.5.5 0 00.707.707L3.524 14H14a1 1 0 001-1v-2.73a.949.949 0 01-.601.193c-.874 0-1.129-.82-1.418-2.076l-.004-.015a12.926 12.926 0 00-.347-1.382c-.155-.479-.368-.426-.366-.426-.005 0-.449-.165-.718 1.754l-.015.109c-.299 2.75-.848 2.902-1.381 2.902-.789 0-1.074-1.022-1.332-2.626l.768-.768c.068.392.141.755.23 1.056.156.528.213.693.339.693.113.004.183-.141.333-.645.129-.436.324-1.666.324-1.666s.026-.172.029-.178c.04-.246.086-.46.137-.652L12.41 5.11c.715.089 1.003.815 1.273 2.183l.007.02c.113.492.241 1.004.375 1.349.099.253.225.353.334.353.189.025.514-.038.586-1.015.01-.128.015-.271.015-.432V3a.989.989 0 00-.083-.396l.892-.893a.498.498 0 00.003-.706zM1.602 9.016c.109 0 .235-.1.334-.353.134-.345.262-.856.375-1.349l.007-.02c.289-1.461.591-2.2 1.421-2.2.503 0 1.119.254 1.421 2.103.002.006.029.178.029.178s.124.788.241 1.326l1.029-1.028c.034-.209.067-.423.1-.642.266-1.896.523-3.232 1.429-3.232h.026c.538 0 .844.479 1.062 1.259L12.135 2H2a1 1 0 00-1 1v4.568c0 1.39.387 1.475.602 1.448z"/><path d="M8 5.418l-.012-.002c-.147 0-.204.123-.358.646-.05.168-.092.366-.132.572l.801-.8c-.103-.32-.166-.418-.287-.418L8 5.418zm-3.531 3.01l-.015-.11c-.269-1.919-.713-1.754-.718-1.754.001 0-.211-.053-.366.426-.124.383-.249.888-.347 1.382l-.004.015c-.289 1.256-.544 2.076-1.418 2.076A.955.955 0 011 10.27V13c0 .038.018.069.021.106l3.601-3.599a14.716 14.716 0 01-.153-1.079z"/></svg>