<svg xmlns="http://www.w3.org/2000/svg" viewBox="0 0 16 16"><path d="M8 1.101a6.9 6.9 0 10.001 13.801A6.9 6.9 0 008 1.101zm3.401 10.869l-.312.349c-.361.363-.834.618-1.243.684-1.013.162-2.956-.434-4.651-2.129l-.008-.01a.07.07 0 00-.009-.007c-1.696-1.696-2.29-3.638-2.127-4.652.064-.409.32-.881.682-1.244l.311-.349a.5.5 0 01.706-.017l1.38 1.379a.502.502 0 01-.016.707l-.196.196-.119.118-.155.151c-.533.534-.553 1.376-.046 1.885l1.148 1.148.231.229c.509.507 1.351.487 1.884-.044l.275-.271.195-.194a.505.505 0 01.706-.018l1.379 1.38a.503.503 0 01-.015.709zm1.453-3.583l-.216.241c-.252.252-.579.429-.863.473-.702.114-2.052-.298-3.228-1.476l-.005-.008c-.002-.001-.005-.002-.006-.005-1.177-1.177-1.59-2.524-1.478-3.229.045-.282.223-.61.474-.861l.217-.242a.344.344 0 01.489-.013l.957.957a.347.347 0 01-.011.49l-.135.137-.083.083-.108.105c-.369.368-.383.954-.031 1.308l.798.798.159.158c.354.352.938.339 1.308-.031l.191-.188.135-.135a.351.351 0 01.491-.013l.955.958a.35.35 0 01-.01.493z"/></svg>