<svg data-name="Layer 1" xmlns="http://www.w3.org/2000/svg" viewBox="0 0 24 24"><path d="M22 18.84A1.58 1.58 0 0120.4 20H16a4 4 0 01-4 4 4 4 0 01-2.92-1.29l.7-.7a3 3 0 003.57.69A2.93 2.93 0 0015 20v-.12a.89.89 0 01.88-.88h4.62a.52.52 0 00.5-.52.5.5 0 00-.13-.33l-.07-.06-.12-.09A5.85 5.85 0 0119 14.05V11a7 7 0 00-3.46-6 6.94 6.94 0 00-1.31-.62A1.74 1.74 0 0113 2.74V2a1 1 0 10-2 0v.74a1.74 1.74 0 01-1.23 1.64A6.94 6.94 0 008.46 5 7 7 0 005 11v3c0 2.93-1.19 3.51-1.69 4l-.18.16a.5.5 0 00-.14.34.52.52 0 00.5.52H13v1H3.59A1.59 1.59 0 012 18.76a1.47 1.47 0 01.51-1.42A4.69 4.69 0 004 14v-3a8.07 8.07 0 012.77-6 8 8 0 012.38-1.47A1.35 1.35 0 0010 2.14V2a2 2 0 013.93-.51A2 2 0 0114 2v.14a1.35 1.35 0 00.86 1.39A8.19 8.19 0 0120 11v3a4.82 4.82 0 001.39 3.29l.06.06a1.47 1.47 0 01.55 1.49z"/></svg>