<svg xmlns="http://www.w3.org/2000/svg" viewBox="0 0 16 16"><path d="M8 1.101a6.9 6.9 0 10.001 13.801A6.9 6.9 0 008 1.101zM9 4h1v1H9V4zm0 2h1v1H9V6zm0 2h1v1H9V8zM7 4h1v1H7V4zm0 2h1v1H7V6zm0 2h1v1H7V8zm4.401 3.97l-.312.349c-.361.363-.834.618-1.243.684-1.013.162-2.956-.434-4.651-2.129l-.008-.01a.07.07 0 00-.009-.007c-1.696-1.696-2.29-3.638-2.127-4.652.064-.409.32-.881.682-1.244l.311-.349a.5.5 0 01.706-.017l1.38 1.379a.502.502 0 01-.016.707l-.196.196-.119.118-.155.151c-.533.534-.553 1.376-.046 1.885l1.148 1.148.231.229c.509.507 1.351.487 1.884-.044l.275-.271.195-.194a.505.505 0 01.706-.018l1.379 1.38a.503.503 0 01-.015.709zM12 9h-1V8h1v1zm0-2h-1V6h1v1zm0-2h-1V4h1v1z"/></svg>