<svg xmlns="http://www.w3.org/2000/svg" viewBox="0 0 16 16"><path d="M15 1.6V14h-1.2c-.8 0-2.9 0-4.3 1h5.3c.6 0 1.2-.9 1.2-1.4v-11c0-.6 0-1-1-1zM1 14V1.6c-1 0-1 .4-1 1v11c0 .5.2 1.4.8 1.4H6c-.9-1-2.3-1-4.2-1H1z"/><path d="M14 .6c-2 0-3.6.5-4.6 1s-1.6 1-1.6 1c-.4-.4-.8-.7-1.3-1-2-1-4.5-1-4.5-1v12c4 0 6 2 6 2 1.9-2 6-2 6-2V.6zM6.3 11h-3c-.3 0-.5-.2-.5-.5s.2-.5.5-.5h3c.3 0 .5.2.5.5s-.2.5-.5.5zm0-2h-3c-.3 0-.5-.2-.5-.5S3 8 3.3 8h3c.3 0 .5.2.5.5s-.2.5-.5.5zm0-2h-3c-.3 0-.5-.2-.5-.5S3 6 3.3 6h3c.3 0 .5.2.5.5s-.2.5-.5.5zm0-2h-3c-.3 0-.5-.2-.5-.5S3 4 3.3 4h3c.3 0 .5.2.5.5s-.2.5-.5.5zm6 6h-3c-.3 0-.5-.2-.5-.5s.2-.5.5-.5h3c.3 0 .5.2.5.5s-.2.5-.5.5zm0-2h-3c-.3 0-.5-.2-.5-.5S9 8 9.3 8h3c.3 0 .5.2.5.5s-.2.5-.5.5zm0-2h-3c-.3 0-.5-.2-.5-.5S9 6 9.3 6h3c.3 0 .5.2.5.5s-.2.5-.5.5zm0-2h-3c-.3 0-.5-.2-.5-.5S9 4 9.3 4h3c.3 0 .5.2.5.5s-.2.5-.5.5z"/></svg>