<svg xmlns="http://www.w3.org/2000/svg" viewBox="0 0 16 16"><path d="M14.413 4.151l-.365-.497C11.802.526 7.497-.398 4.156 1.633a7.384 7.384 0 00-3.087 3.738l1.688.859c.402-1.208 1.193-2.292 2.366-3.006 2.462-1.5 5.604-.842 7.315 1.407l.362.468-1.745 1.061 4.938 2.626-.003-5.64-1.577 1.005zm.535 6.477l-1.689-.857c-.401 1.206-1.191 2.291-2.364 3.006-2.463 1.498-5.606.842-7.315-1.407l-.357-.474 1.74-1.055L.008 7.204l.019 5.65 1.596-.993.345.484c2.246 3.129 6.552 4.053 9.894 2.02a7.39 7.39 0 003.086-3.737z"/></svg>