<svg xmlns="http://www.w3.org/2000/svg" viewBox="0 0 16 16"><path d="M15.924 6.095c-.105-1.023-.387-2.077-.806-3.095h-1.861l1.038-1.038a.5.5 0 00-.707-.707L1.634 13.209a.5.5 0 00.707.707L4 12.257V14h8v-2H4.257l1-1h9.861c.419-1.018.701-2.072.807-3.095.028-.3.051-.601.051-.905s-.023-.605-.052-.905zM8 9.812c-.452 0-.877-.11-1.255-.301l3.767-3.767c.19.378.301.803.301 1.255A2.812 2.812 0 018 9.812zM5.257 7.605A2.736 2.736 0 015.188 7 2.812 2.812 0 018 4.188c.208 0 .41.026.605.069L9.862 3H.882a11.257 11.257 0 00-.806 3.094c-.029.3-.051.6-.051.906s.022.606.051.906C.182 8.928.463 9.983.882 11h.98l3.395-3.395zM3.5 4.625a.875.875 0 110 1.75.875.875 0 010-1.75z"/></svg>