<svg viewBox="0 0 16 16" xmlns="http://www.w3.org/2000/svg"><path d="M8.00024 6.47599C7.69939 6.47639 7.4054 6.56594 7.15541 6.73333C6.90543 6.90072 6.71066 7.13845 6.59571 7.41647C6.48076 7.6945 6.45079 8.00036 6.50958 8.29541C6.56837 8.59046 6.71329 8.86147 6.92602 9.07421C7.13876 9.28694 7.40977 9.43186 7.70482 9.49065C7.99987 9.54944 8.30573 9.51947 8.58376 9.40452C8.86179 9.28957 9.09951 9.0948 9.2669 8.84482C9.43429 8.59483 9.52384 8.30085 9.52424 7.99999C9.5224 7.59637 9.36124 7.2098 9.07583 6.9244C8.79043 6.63899 8.40386 6.47783 8.00024 6.47599ZM14.0002 0.999994H2.00024C1.86682 0.991974 1.73323 1.01235 1.60827 1.05976C1.48331 1.10718 1.36983 1.18057 1.27532 1.27508C1.18081 1.36958 1.10743 1.48306 1.06001 1.60802C1.01259 1.73298 0.992218 1.86658 1.00024 1.99999V14C0.992218 14.1334 1.01259 14.267 1.06001 14.392C1.10743 14.5169 1.18081 14.6304 1.27532 14.7249C1.36983 14.8194 1.48331 14.8928 1.60827 14.9402C1.73323 14.9876 1.86682 15.008 2.00024 15H14.0002C14.1337 15.008 14.2672 14.9876 14.3922 14.9402C14.5172 14.8928 14.6306 14.8194 14.7252 14.7249C14.8197 14.6304 14.8931 14.5169 14.9405 14.392C14.9879 14.267 15.0083 14.1334 15.0002 14V1.99999C15.0083 1.86658 14.9879 1.73298 14.9405 1.60802C14.8931 1.48306 14.8197 1.36958 14.7252 1.27508C14.6306 1.18057 14.5172 1.10718 14.3922 1.05976C14.2672 1.01235 14.1337 0.991974 14.0002 0.999994ZM12.4532 9.93499C12.4621 10.3504 12.3659 10.7613 12.1736 11.1296C11.9813 11.498 11.6991 11.8118 11.3532 12.042C10.9186 12.3057 10.4207 12.4471 9.91224 12.451C8.65024 12.507 7.38724 12.522 6.12524 12.459C5.7679 12.4649 5.41307 12.3983 5.0822 12.2632C4.75133 12.1281 4.45129 11.9274 4.20024 11.673C3.77672 11.1904 3.54352 10.5701 3.54424 9.92799C3.47757 8.61799 3.47757 7.30799 3.54424 5.99799C3.54226 5.67133 3.60593 5.34759 3.73146 5.046C3.85699 4.7444 4.04183 4.4711 4.275 4.24231C4.50818 4.01352 4.78494 3.8339 5.08886 3.71411C5.39278 3.59433 5.71767 3.53682 6.04424 3.54499C6.69224 3.52099 7.34424 3.48499 7.89924 3.50699C8.67294 3.47986 9.44758 3.50324 10.2182 3.57699C10.8341 3.61883 11.41 3.89694 11.8258 4.35328C12.2415 4.80961 12.4648 5.40889 12.4492 6.02599C12.5139 7.32866 12.5152 8.63166 12.4532 9.93499ZM10.0072 4.33499C8.67335 4.23676 7.33402 4.23743 6.00024 4.33699C5.77807 4.32296 5.55546 4.35634 5.34717 4.43491C5.13888 4.51348 4.94969 4.63545 4.79214 4.79272C4.63458 4.94998 4.51228 5.13896 4.43333 5.3471C4.35439 5.55525 4.32061 5.7778 4.33424 5.99999C4.23024 7.34065 4.23024 8.68734 4.33424 10.028C4.32533 10.2428 4.36081 10.4571 4.43846 10.6576C4.51611 10.8581 4.63426 11.0404 4.78553 11.1932C4.93681 11.346 5.11795 11.4659 5.31766 11.5456C5.51737 11.6252 5.73135 11.6628 5.94624 11.656C6.63024 11.725 7.32324 11.71 8.01224 11.732C8.62724 11.74 9.24024 11.703 9.85424 11.686C10.0865 11.7087 10.3209 11.6821 10.5422 11.6079C10.7635 11.5337 10.9666 11.4136 11.1382 11.2555C11.3098 11.0973 11.4461 10.9047 11.5382 10.6903C11.6302 10.4758 11.6759 10.2443 11.6722 10.011C11.7742 8.67694 11.7742 7.33705 11.6722 6.00299C11.6856 5.78072 11.6517 5.55813 11.5728 5.3499C11.4939 5.14167 11.3718 4.95252 11.2145 4.79492C11.0572 4.63732 10.8682 4.51485 10.6602 4.43557C10.4521 4.3563 10.2295 4.32202 10.0072 4.33499ZM8.00724 10.285C7.55433 10.2862 7.11126 10.1529 6.73415 9.90211C6.35704 9.65129 6.06285 9.29419 5.88884 8.87604C5.71484 8.4579 5.66884 7.99752 5.75669 7.55321C5.84454 7.10891 6.06227 6.70067 6.38232 6.3802C6.70236 6.05974 7.11031 5.84147 7.5545 5.75304C7.99869 5.66461 8.45913 5.70999 8.87751 5.88345C9.29588 6.05691 9.65337 6.35063 9.90468 6.72741C10.156 7.10419 10.2898 7.54709 10.2892 7.99999C10.2904 8.30074 10.232 8.59873 10.1174 8.87676C10.0027 9.15479 9.83407 9.40734 9.62122 9.61981C9.40838 9.83228 9.15553 10.0005 8.87731 10.1146C8.59908 10.2288 8.30098 10.2867 8.00024 10.285H8.00724ZM10.4072 6.10499C10.3396 6.10401 10.2728 6.08971 10.2107 6.06292C10.1486 6.03613 10.0924 5.99737 10.0453 5.94885C9.99815 5.90033 9.96104 5.84301 9.93607 5.78015C9.9111 5.71729 9.89875 5.65012 9.89974 5.58249C9.90072 5.51486 9.91502 5.44809 9.94181 5.38598C9.9686 5.32388 10.0074 5.26766 10.0559 5.22053C10.1044 5.1734 10.1617 5.1363 10.2246 5.11133C10.2874 5.08635 10.3546 5.07401 10.4222 5.07499C10.5557 5.08037 10.682 5.13681 10.7751 5.23265C10.8681 5.3285 10.9208 5.45642 10.9222 5.58999C10.9235 5.65813 10.9109 5.72582 10.8853 5.78899C10.8598 5.85216 10.8217 5.90951 10.7734 5.9576C10.7251 6.0057 10.6676 6.04355 10.6044 6.06887C10.5411 6.0942 10.4734 6.10649 10.4052 6.10499H10.4072Z"/></svg>