<svg data-name="Layer 1" xmlns="http://www.w3.org/2000/svg" viewBox="0 0 32 32"><path d="M29.27 5.73A2.41 2.41 0 0027.5 5h-23a2.41 2.41 0 00-1.77.73A2.41 2.41 0 002 7.5v17a2.41 2.41 0 00.73 1.77A2.41 2.41 0 004.5 27h23a2.51 2.51 0 002.5-2.5v-17a2.41 2.41 0 00-.73-1.77zM28 24.5a.47.47 0 01-.15.35.48.48 0 01-.35.15h-23a.48.48 0 01-.35-.15.47.47 0 01-.15-.35v-13a.51.51 0 01.5-.5h23a.51.51 0 01.5.5z"/><path d="M8 13.5v1a.51.51 0 01-.5.5h-1a.51.51 0 01-.5-.5v-1a.51.51 0 01.5-.5h1a.51.51 0 01.5.5zm0 4v1a.51.51 0 01-.5.5h-1a.51.51 0 01-.5-.5v-1a.51.51 0 01.5-.5h1a.51.51 0 01.5.5zm0 4v1a.49.49 0 01-.15.35.48.48 0 01-.35.15h-1a.48.48 0 01-.35-.15.48.48 0 01-.15-.35v-1a.51.51 0 01.5-.5h1a.51.51 0 01.5.5zm18-8v1a.51.51 0 01-.5.5h-15a.51.51 0 01-.5-.5v-1a.48.48 0 01.15-.35.48.48 0 01.35-.15h15a.51.51 0 01.5.5zm0 4v1a.51.51 0 01-.5.5h-15a.51.51 0 01-.5-.5v-1a.51.51 0 01.5-.5h15a.51.51 0 01.5.5zm0 4v1a.51.51 0 01-.5.5h-15a.5.5 0 01-.5-.5v-1a.51.51 0 01.5-.5h15a.51.51 0 01.5.5z"/></svg>