<svg viewBox="0 0 16 16" xmlns="http://www.w3.org/2000/svg"><path fill-rule="evenodd" clip-rule="evenodd" d="M3.08705 6.519H4.30006V9.481H4.90905V6.519H6.13005V5.926H3.08705V6.519ZM8.41305 1.778C8.93001 1.77131 9.42852 1.96988 9.79931 2.33017C10.1701 2.69045 10.3829 3.18306 10.3911 3.7C10.3881 4.13906 10.2358 4.56406 9.95921 4.90504C9.68257 5.24601 9.2981 5.48265 8.86906 5.576V5.037C8.86658 4.83984 8.82525 4.6451 8.74745 4.46393C8.66964 4.28276 8.55688 4.1187 8.41561 3.98115C8.27434 3.8436 8.10734 3.73524 7.92416 3.66229C7.74098 3.58934 7.54521 3.55322 7.34805 3.556H6.44105C6.48558 3.06581 6.71336 2.61046 7.07891 2.28087C7.44447 1.95127 7.92089 1.7717 8.41305 1.778ZM0.956055 10.37V5.037C0.957489 4.91863 0.982258 4.80172 1.02894 4.69294C1.07563 4.58416 1.14332 4.48567 1.22812 4.40309C1.31293 4.32051 1.4132 4.25547 1.52318 4.2117C1.63316 4.16792 1.7507 4.14628 1.86905 4.148H7.34805C7.46641 4.14628 7.58395 4.16792 7.69393 4.2117C7.80391 4.25547 7.90418 4.32051 7.98899 4.40309C8.07379 4.48567 8.14148 4.58416 8.18817 4.69294C8.23485 4.80172 8.25962 4.91863 8.26105 5.037V10.37C8.25962 10.4884 8.23485 10.6053 8.18817 10.7141C8.14148 10.8228 8.07379 10.9213 7.98899 11.0039C7.90418 11.0865 7.80391 11.1515 7.69393 11.1953C7.58395 11.2391 7.46641 11.2607 7.34805 11.259H1.86905C1.7507 11.2607 1.63316 11.2391 1.52318 11.1953C1.4132 11.1515 1.31293 11.0865 1.22812 11.0039C1.14332 10.9213 1.07563 10.8228 1.02894 10.7141C0.982258 10.6053 0.957489 10.4884 0.956055 10.37ZM11.6091 11.259C11.598 12.0555 11.2711 12.815 10.7004 13.3706C10.1296 13.9262 9.36154 14.2324 8.56505 14.222C7.76187 14.2249 6.98944 13.9134 6.41305 13.354C5.9931 12.9477 5.70379 12.4255 5.58205 11.854H7.34805C7.54546 11.8568 7.74147 11.8205 7.92484 11.7474C8.10822 11.6743 8.27535 11.5657 8.41666 11.4278C8.55797 11.2899 8.67067 11.1255 8.7483 10.944C8.82593 10.7625 8.86697 10.5674 8.86906 10.37V6.519H11.6091V11.259ZM11.6091 4.296C11.6094 4.12007 11.645 3.946 11.7137 3.78405C11.7824 3.62209 11.8828 3.47553 12.0091 3.353C12.2696 3.10362 12.6164 2.96442 12.9771 2.96442C13.3377 2.96442 13.6845 3.10362 13.9451 3.353C14.0722 3.47497 14.1733 3.62139 14.2424 3.78344C14.3115 3.94549 14.3471 4.11983 14.3471 4.296C14.3471 4.47216 14.3115 4.6465 14.2424 4.80855C14.1733 4.97061 14.0722 5.11702 13.9451 5.239C13.6852 5.48976 13.3382 5.62989 12.9771 5.62989C12.6159 5.62989 12.2689 5.48976 12.0091 5.239C11.8832 5.11704 11.7829 4.97114 11.7142 4.80989C11.6455 4.64863 11.6098 4.47527 11.6091 4.3V4.296ZM14.9561 10.222C14.9527 10.4783 14.8988 10.7315 14.7976 10.967C14.6963 11.2026 14.5497 11.4159 14.366 11.5947C14.1823 11.7736 13.9652 11.9145 13.7271 12.0094C13.4889 12.1043 13.2344 12.1514 12.9781 12.148C12.6914 12.1483 12.408 12.0869 12.1471 11.968C12.1938 11.7346 12.2172 11.4971 12.2171 11.259V6.519H14.9561V10.222Z"/></svg>