<svg data-name="Layer 1" xmlns="http://www.w3.org/2000/svg" viewBox="0 0 32 32"><path d="M22.13 17.75H9.87a.88.88 0 00-.62 1.5l6.13 6.13a.86.86 0 001.24 0l6.13-6.13a.88.88 0 00-.62-1.5zM16.62 6.63a.86.86 0 00-1.24 0l-6.13 6.13a.88.88 0 00.62 1.5h12.26a.88.88 0 00.62-1.5l-6.13-6.13zm13.47-4.72A6.32 6.32 0 0025.46 0H6.53A6.32 6.32 0 001.9 1.91 6.32 6.32 0 000 6.54v18.93a6.32 6.32 0 001.9 4.63A6.33 6.33 0 006.53 32h18.94A6.57 6.57 0 0032 25.46V6.54a6.34 6.34 0 00-1.91-4.63zm-1 23.56a3.65 3.65 0 01-3.64 3.64H6.53A3.5 3.5 0 014 28a3.5 3.5 0 01-1.1-2.54V6.54A3.5 3.5 0 014 4a3.5 3.5 0 012.53-1.1h18.93A3.5 3.5 0 0128 4a3.5 3.5 0 011.1 2.54z"/></svg>