<svg xmlns="http://www.w3.org/2000/svg" viewBox="0 0 16 15.996"><path d="M12.667 10.318a.911.911 0 00-1.276.03l-.352.352-.5.489a2.409 2.409 0 01-3.4.081l-.418-.416L4.649 8.78a2.411 2.411 0 01.082-3.405l.28-.273.216-.215.352-.354a.9.9 0 00.027-1.276L3.115.769a.9.9 0 00-1.275.03l-.56.631A4.37 4.37 0 00.046 3.675c-.293 1.83.781 5.338 3.844 8.4l.017.014a.089.089 0 00.014.017c3.062 3.062 6.571 4.138 8.4 3.845a4.369 4.369 0 002.245-1.233l.563-.633a.9.9 0 00.027-1.276z"/><path d="M12.667 10.318a.911.911 0 00-1.276.03l-.352.352-.5.489a2.409 2.409 0 01-3.4.081l-.418-.416L4.649 8.78a2.411 2.411 0 01.082-3.405l.28-.273.216-.215.352-.354a.9.9 0 00.027-1.276L3.115.769a.9.9 0 00-1.275.03l-.56.631A4.37 4.37 0 00.046 3.675c-.293 1.83.781 5.338 3.844 8.4l.017.014a.089.089 0 00.014.017c3.062 3.062 6.571 4.138 8.4 3.845a4.369 4.369 0 002.245-1.233l.563-.633a.9.9 0 00.027-1.276z"/><path d="M13.88 2.194C13.491.117 12.28-.006 11.91 0h-.165c-.371 0-1.581.117-1.97 2.194 0 0-.482 2.534-2.121 2.545v1.144H16V4.739c-1.638-.012-2.12-2.545-2.12-2.545zm-2.052 6.311a1.459 1.459 0 001.458-1.43h-2.915a1.457 1.457 0 001.457 1.43z"/></svg>