<svg data-name="Layer 1" xmlns="http://www.w3.org/2000/svg" viewBox="0 0 32 32"><path d="M18.35 23.21c-.28-.5-.5-1-.77-1.49a3.45 3.45 0 00-3.09-1.88h-1.65l-1-1.93-1.55-3.2 1-1.32a3.45 3.45 0 00.17-3.92l-1.38-2.59a2.7 2.7 0 00-2-1.55 2.9 2.9 0 00-2.37.61 10.4 10.4 0 00-3.31 4.91 5.87 5.87 0 00.39 4.3L8 25.58a5.71 5.71 0 003.14 2.87 10.47 10.47 0 003.48.61 10.86 10.86 0 002.65-.33 3 3 0 001.82-1.55 2.75 2.75 0 00-.06-2.37 10.22 10.22 0 00-.72-1.6zm-1.16 3a.44.44 0 01-.33.28 7.91 7.91 0 01-4.8-.22 3.54 3.54 0 01-1.93-1.77L4.84 14.16a3.47 3.47 0 01-.28-2.65 7.77 7.77 0 012.59-3.86.6.6 0 01.39-.17h.11a.74.74 0 01.44.39l1.32 2.59c.5 1 .17 1.49.06 1.6l-1.38 1.88A1.1 1.1 0 008 15.1L9.8 19a.05.05 0 00.06.06l1.38 2.54a1.05 1.05 0 001 .55l2.32-.06a1.25 1.25 0 011.1.66c.28.5.5 1 .77 1.49s.55 1 .77 1.55a.77.77 0 010 .5zM23 3.07A1.1 1.1 0 0022 5c3.7 2.1 5.85 6.18 5.68 11a1.06 1.06 0 001 1.1h.06a1.06 1.06 0 001.1-1C30 10.41 27.46 5.61 23 3.07zm-3.43 3.59a1.1 1.1 0 00-1 1.93 8.42 8.42 0 014.25 7.83 1.16 1.16 0 001.1 1.16 1.11 1.11 0 001.1-1.1 10.66 10.66 0 00-5.41-9.82zm-2.93 3.47a1.1 1.1 0 10-1 1.93 5.94 5.94 0 012.54 4.85 1.21 1.21 0 001.1 1.21A1.16 1.16 0 0020.34 17c.06-2.65-1.6-5.74-3.7-6.84z"/></svg>