<svg viewBox="0 0 16 16" xmlns="http://www.w3.org/2000/svg"><path d="M11.2257 3.33899H11.297C12.2192 3.33899 12.9989 2.57415 12.9989 1.66949C12.9989 0.69597 12.2192 0 11.297 0C10.3747 0 9.59504 0.764836 9.59504 1.66949C9.59504 2.57415 10.3045 3.27012 11.2257 3.33899ZM11.297 0.904656C11.7225 0.904656 12.0065 1.25212 12.0065 1.60063C12.0065 1.94809 11.6523 2.2966 11.297 2.2966H11.2257C10.8002 2.2966 10.5162 1.94913 10.5162 1.53176C10.5173 1.27299 10.7162 0.904656 11.297 0.904656ZM10.162 4.03496H5.83693C4.27646 4.03496 3 5.28707 3 6.81779C3 8.34851 4.27646 9.60063 5.83693 9.60063H10.1631C11.7235 9.60063 13 8.34851 13 6.81779C13 5.28707 11.7225 4.03496 10.162 4.03496ZM10.162 8.41737H5.83693C4.91469 8.41737 4.13499 7.65254 4.13499 6.74788C4.13499 5.84322 4.91469 5.07839 5.83693 5.07839H10.1631C11.0853 5.07839 11.865 5.84322 11.865 6.74788C11.864 7.65254 11.0842 8.41737 10.162 8.41737ZM10.162 10.4343H8.31858C6.75811 10.4343 5.48165 11.6864 5.48165 13.2172C5.48165 14.7479 6.75811 16 8.31858 16H10.162C11.7225 16 12.9989 14.7479 12.9989 13.2172C12.9989 11.6864 11.7225 10.4343 10.162 10.4343ZM10.162 14.8867H8.31858C7.39634 14.8867 6.61664 14.1218 6.61664 13.2172C6.61664 12.3125 7.39634 11.5477 8.31858 11.5477H10.162C11.0842 11.5477 11.864 12.3125 11.864 13.2172C11.864 14.1218 11.0842 14.8867 10.162 14.8867Z"/></svg>