<svg data-name="Layer 1" xmlns="http://www.w3.org/2000/svg" viewBox="0 0 32 32"><path d="M29.51 18.8a.29.29 0 010 .13 14.16 14.16 0 01-4.88 7.92 13.37 13.37 0 01-8.71 3 13.67 13.67 0 01-5.15-1A14 14 0 016.31 26L4 28.37a1.15 1.15 0 01-1.64 0 1.12 1.12 0 01-.36-.82v-8.17a1.12 1.12 0 01.35-.82 1.12 1.12 0 01.82-.35h8.13a1.16 1.16 0 01.82 2l-2.5 2.5a9.44 9.44 0 002.93 1.86 9.29 9.29 0 0011.36-3.79 22.16 22.16 0 001-2.13.55.55 0 01.55-.42h3.5a.59.59 0 01.58.58zM30 4.21v8.17a1.18 1.18 0 01-1.17 1.17h-8.2a1.16 1.16 0 01-.82-2L22.33 9A9.05 9.05 0 0016 6.55 9.3 9.3 0 008 11a21.48 21.48 0 00-1 2.13.55.55 0 01-.55.42H2.88A.59.59 0 012.3 13v-.13a14.23 14.23 0 014.92-7.95 13.46 13.46 0 018.75-3 13.73 13.73 0 015.18 1 14.14 14.14 0 014.47 2.85L28 3.4a1.17 1.17 0 012 .82z"/></svg>