<svg xmlns="http://www.w3.org/2000/svg" viewBox="0 0 32 32"><path d="M16 0C7.2 0 0 7.1 0 16c0 8.8 7.1 16 16 16 8.8 0 16-7.1 16-16 0-8.8-7.2-16-16-16zm8.1 26.9v-4.3h-2.6v5.8c-.5.2-1.1.4-1.6.6v-7.5h-7.8V29c-.6-.2-1.1-.4-1.6-.6v-5.8H7.9v4.3C4.6 24.4 2.5 20.4 2.5 16c0-7.5 6-13.6 13.5-13.6S29.6 8.5 29.6 16c0 4.4-2.2 8.4-5.5 10.9z"/><path d="M17.5 13.4h2.9v2.5h-2.9zm-5.8 0h2.9v2.5h-2.9z"/><path d="M16.6 7.7c.8-.3 1.4-1 1.4-1.9 0-1.1-.9-2-2-2s-2 .9-2 2c0 .9.6 1.6 1.4 1.9l-.5 2.2h-7v9.4H24V9.9h-7l-.4-2.2zm5.6 10H9.8v-6.1h12.5l-.1 6.1z"/></svg>