<svg data-name="Layer 1" xmlns="http://www.w3.org/2000/svg" viewBox="0 0 32 32"><path d="M26 2.76H6A3.7 3.7 0 002.21 6.4V20A3.71 3.71 0 006 23.72h8.39v2.76h-1.7a1.38 1.38 0 100 2.76h6.62a1.38 1.38 0 100-2.76h-1.65v-2.76H26A3.67 3.67 0 0029.79 20V6.4A3.7 3.7 0 0026 2.76zM6 5.52h20a1 1 0 011 .88v11.81H5V6.4a1.06 1.06 0 011-.88z"/><path d="M11.42 12.8a1 1 0 00.39.11h6.4l-1.32 1.38a1 1 0 000 1.43 1.16 1.16 0 00.33.22 1 1 0 001.16-.22l2.92-3 .06-.06a1.09 1.09 0 00.33-.77.92.92 0 00-.33-.77l-.06-.06-3-2.92a1 1 0 10-1.42 1.46l1.32 1.32h-6.34a1 1 0 00-1 1 1 1 0 00.61.83z"/></svg>