<svg viewBox="0 0 16 16" xmlns="http://www.w3.org/2000/svg"><path d="M8.07424 8.42799C7.67424 9.59099 7.29124 10.722 6.89824 11.85C6.85124 11.985 6.82024 11.975 7.01424 12.063C7.79017 12.2726 8.61189 12.2377 9.36724 11.963C9.13424 11.333 8.92324 10.763 8.71524 10.197C8.50724 9.63099 8.30024 9.04599 8.07424 8.42799ZM14.0002 0.999994H2.00024C1.86682 0.991974 1.73323 1.01235 1.60827 1.05976C1.48331 1.10718 1.36983 1.18057 1.27532 1.27508C1.18081 1.36958 1.10743 1.48306 1.06001 1.60802C1.01259 1.73298 0.992218 1.86658 1.00024 1.99999V14C0.992218 14.1334 1.01259 14.267 1.06001 14.392C1.10743 14.5169 1.18081 14.6304 1.27532 14.7249C1.36983 14.8194 1.48331 14.8928 1.60827 14.9402C1.73323 14.9876 1.86682 15.008 2.00024 15H14.0002C14.1337 15.008 14.2672 14.9876 14.3922 14.9402C14.5172 14.8928 14.6306 14.8194 14.7252 14.7249C14.8197 14.6304 14.8931 14.5169 14.9405 14.392C14.9879 14.267 15.0083 14.1334 15.0002 14V1.99999C15.0083 1.86658 14.9879 1.73298 14.9405 1.60802C14.8931 1.48306 14.8197 1.36958 14.7252 1.27508C14.6306 1.18057 14.5172 1.10718 14.3922 1.05976C14.2672 1.01235 14.1337 0.991974 14.0002 0.999994ZM7.96824 12.688C7.03364 12.6818 6.12222 12.3964 5.35098 11.8684C4.57973 11.3405 3.98384 10.5942 3.6398 9.72517C3.29575 8.85618 3.21925 7.9042 3.4201 6.99141C3.62096 6.07863 4.09 5.24669 4.76705 4.60238C5.44409 3.95807 6.29823 3.53079 7.21984 3.37538C8.14145 3.21997 9.08847 3.34351 9.93937 3.73016C10.7903 4.11681 11.5062 4.74892 11.9953 5.54536C12.4844 6.3418 12.7243 7.26623 12.6842 8.19999C12.6374 9.41491 12.1185 10.5636 11.2377 11.4018C10.357 12.2399 9.18398 12.7014 7.96824 12.688ZM6.12024 11.722C5.46524 9.92199 4.82624 8.17199 4.17924 6.39699C3.76173 7.3646 3.7302 8.45526 4.0911 9.44537C4.452 10.4355 5.178 11.25 6.12024 11.722ZM10.1612 11.565C11.0417 11.036 11.693 10.1973 11.9873 9.21319C12.2816 8.22907 12.1978 7.17052 11.7522 6.24499C11.6729 7.17521 11.439 8.08569 11.0602 8.93899C10.7642 9.80599 10.4672 10.673 10.1612 11.565ZM10.6772 7.07899C10.5512 6.81699 10.4032 6.56499 10.2592 6.31199C9.89524 5.67599 10.0282 5.01899 10.7052 4.86799C10.2669 4.4762 9.74931 4.18348 9.18766 4.00977C8.62602 3.83605 8.03353 3.78543 7.45055 3.86136C6.86758 3.93728 6.30781 4.13795 5.80939 4.44972C5.31096 4.76148 4.88559 5.17701 4.56224 5.66799C4.59527 5.67403 4.62869 5.67771 4.66224 5.67899C5.05424 5.66366 5.44657 5.64733 5.83924 5.62999C5.96224 5.62999 6.06824 5.62999 6.07124 5.80099C6.07424 5.97199 5.97124 6.00099 5.83824 6.00899C5.72024 6.01699 5.60324 6.03699 5.45724 6.05399C5.72024 6.83199 5.95724 7.55399 6.20624 8.26999C6.45524 8.98599 6.69124 9.69499 6.94224 10.43C6.98124 10.381 7.01024 10.359 7.01924 10.33C7.28624 9.52999 7.55324 8.73599 7.81124 7.93699C7.83495 7.84614 7.83042 7.75021 7.79824 7.66199C7.63624 7.20499 7.44424 6.76199 7.29824 6.29599C7.27776 6.20154 7.22132 6.11876 7.14087 6.06519C7.06042 6.01163 6.96229 5.99147 6.86724 6.00899C6.73224 6.00899 6.62524 6.00899 6.62524 5.82099C6.62524 5.63299 6.72524 5.62099 6.86224 5.62999C7.28724 5.64799 7.71324 5.67399 8.13824 5.67599C8.43824 5.67599 8.73824 5.64999 9.03824 5.62999C9.19824 5.61899 9.24724 5.70199 9.22224 5.84099C9.19524 5.99799 9.07524 6.00899 8.94224 6.00999C8.62524 6.00999 8.59724 6.05499 8.69624 6.34799C9.06224 7.42733 9.4289 8.50599 9.79624 9.58399C9.88924 9.85899 9.98324 10.133 10.0962 10.451C10.2962 9.79899 10.4962 9.20899 10.6692 8.61299C10.8685 8.1216 10.8713 7.57244 10.6772 7.07899Z"/></svg>