<svg viewBox="0 0 16 16" xmlns="http://www.w3.org/2000/svg"><path d="M15.8215 13.387L9.16094 1.20766C8.90488 0.739224 8.45522 0.505005 8.00556 0.505005C7.5559 0.505005 7.10625 0.739224 6.82209 1.20766L0.164643 13.387C-0.319052 14.3206 0.319245 15.495 1.34625 15.495H14.6674C15.6904 15.495 16.3305 14.3239 15.8215 13.387ZM1.65351 13.8889L7.97746 2.27168L14.357 13.8889H1.65351ZM8.00556 10.7136C7.46348 10.7136 7.02381 11.1847 7.02381 11.7656C7.02381 12.3464 7.46441 12.8175 8.00681 12.8175C8.54921 12.8175 8.98732 12.3464 8.98732 11.7656C8.98607 11.1854 8.5489 10.7136 8.00556 10.7136ZM7.25613 5.5909V8.80304C7.25613 9.24806 7.59338 9.60608 8.00556 9.60608C8.41775 9.60608 8.75499 9.24638 8.75499 8.80304V5.5909C8.75499 5.14923 8.42087 4.78786 8.00556 4.78786C7.59025 4.78786 7.25613 5.14923 7.25613 5.5909Z"/></svg>