<svg viewBox="0 0 16 16" xmlns="http://www.w3.org/2000/svg"><path d="M11.6819 10.4757C11.5501 10.4757 11.4212 10.4324 11.3116 10.3513C11.2019 10.2702 11.1165 10.1549 11.066 10.02C11.0156 9.88514 11.0024 9.73671 11.0281 9.59352C11.0538 9.45033 11.1173 9.31879 11.2105 9.21556C11.3038 9.11232 11.4226 9.04201 11.5519 9.01353C11.6812 8.98505 11.8152 8.99967 11.9371 9.05554C12.0589 9.11141 12.163 9.20602 12.2363 9.32742C12.3095 9.44881 12.3486 9.59153 12.3486 9.73753C12.3486 9.93331 12.2784 10.1211 12.1533 10.2595C12.0283 10.3979 11.8588 10.4757 11.6819 10.4757ZM4.31806 10.4757C4.1862 10.4757 4.05731 10.4324 3.94768 10.3513C3.83804 10.2702 3.75259 10.1549 3.70214 10.02C3.65168 9.88514 3.63848 9.73671 3.6642 9.59352C3.68992 9.45033 3.75342 9.31879 3.84665 9.21556C3.93989 9.11232 4.05867 9.04201 4.188 9.01353C4.31732 8.98505 4.45136 8.99967 4.57318 9.05554C4.695 9.11141 4.79911 9.20602 4.87237 9.32742C4.94562 9.44881 4.98472 9.59153 4.98472 9.73753C4.98472 9.93331 4.91448 10.1211 4.78946 10.2595C4.66444 10.3979 4.49487 10.4757 4.31806 10.4757ZM11.9208 6.03184L13.2525 3.47896C13.2737 3.44399 13.2882 3.40459 13.295 3.36318C13.3019 3.32177 13.301 3.27924 13.2925 3.23822C13.2839 3.1972 13.2678 3.15856 13.2452 3.12471C13.2226 3.09085 13.1939 3.0625 13.161 3.0414C13.1281 3.0203 13.0917 3.00691 13.0539 3.00205C13.0161 2.9972 12.9778 3.00098 12.9414 3.01316C12.9051 3.02535 12.8713 3.04568 12.8423 3.07289C12.8133 3.10011 12.7896 3.13363 12.7728 3.17138V3.17138L11.4244 5.75718C10.3474 5.22231 9.18039 4.9458 8 4.9458C6.81961 4.9458 5.65258 5.22231 4.57556 5.75718L3.22722 3.17138C3.21038 3.13363 3.18673 3.10011 3.15771 3.07289C3.1287 3.04568 3.09495 3.02535 3.05855 3.01316C3.02215 3.00098 2.98388 2.9972 2.94611 3.00205C2.90834 3.00691 2.87188 3.0203 2.83897 3.0414C2.80606 3.0625 2.77742 3.09085 2.75481 3.12471C2.7322 3.15856 2.71611 3.1972 2.70754 3.23822C2.69896 3.27924 2.69809 3.32177 2.70496 3.36318C2.71183 3.40459 2.72631 3.44399 2.7475 3.47896L4.07917 6.03184C1.7925 7.40887 0.228889 9.97191 0 13H16C15.7711 9.97191 14.2072 7.40887 11.9208 6.03184"/></svg>