<svg viewBox="0 0 16 16" xmlns="http://www.w3.org/2000/svg"><path d="M13.0225 2.18221C12.1538 1.32122 10.7382 1.32122 9.83927 2.18221L3.42814 8.30655C1.96397 9.73245 1.96397 12.0011 3.42814 13.3981C4.89163 14.7984 7.2665 14.7984 8.72899 13.3981L13.8276 8.52764C14.1429 8.22964 14.6527 8.22964 14.9379 8.52764C15.28 8.82884 15.28 9.31589 14.9379 9.58826L9.83927 14.4588C7.77636 16.4871 4.38177 16.4871 2.28968 14.4588C0.196776 12.4881 0.196776 9.2454 2.28968 7.24593L8.72899 1.09468C10.2284 -0.338241 12.6603 -0.338241 14.1328 1.09468C15.6624 2.52763 15.6624 4.85234 14.1328 6.25581L7.99774 12.1709C6.93778 13.1835 5.19352 13.0905 4.25766 11.9754C3.45866 11.0206 3.5385 9.64273 4.44215 8.77757L9.53403 3.91348C9.84934 3.61548 10.3592 3.61548 10.6443 3.91348C10.9865 4.21468 10.9865 4.70173 10.6443 4.9741L5.58263 9.86383C5.25726 10.1746 5.22707 10.6713 5.51554 11.0142C5.85097 11.4147 6.47823 11.4499 6.85727 11.0847L13.0225 5.19519C13.8947 4.36529 13.8947 3.01436 13.0225 2.18221Z"/></svg>