<svg viewBox="0 0 17 17" xmlns="http://www.w3.org/2000/svg"><path d="M7.79543 8.7513C8.01124 8.98579 8.34881 8.98579 8.56456 8.7513L12.8285 4.1012C13.0501 3.85929 13.058 3.45811 12.8459 3.20447C12.736 3.07527 12.59 3.01001 12.444 3.01001C12.3057 3.01001 12.1673 3.06864 12.0596 3.18587L8.18011 7.41704L4.30062 3.18597C4.05753 2.94475 3.72638 2.95215 3.51411 3.20579C3.30184 3.45943 3.30996 3.8605 3.53149 4.10226L7.79543 8.7513ZM12.444 8.08285C12.3057 8.08285 12.1673 8.14148 12.0596 8.25871L8.18011 12.4899L4.30062 8.25987C4.05753 8.0168 3.72638 8.02472 3.51411 8.27837C3.30184 8.53201 3.30996 8.93361 3.53149 9.17404L7.79543 13.8241C8.01124 14.0586 8.34881 14.0586 8.56456 13.8241L12.8285 9.17404C13.0501 8.93213 13.058 8.53095 12.8459 8.27731C12.736 8.1489 12.59 8.08285 12.444 8.08285Z"/></svg>