<svg viewBox="0 0 16 16" xmlns="http://www.w3.org/2000/svg"><path d="M15.774 13.827L13.7125 12.0603C14.1286 11.7436 14.4034 11.2181 14.4034 10.6242V2.72539C14.4034 1.76152 13.6845 1 12.8255 1H3.17823C2.59057 1 2.07944 1.35273 1.80112 1.87117L0.9704 1.14022C0.708581 0.916793 0.332983 0.966203 0.127804 1.25159C-0.0765492 1.53706 -0.0309623 1.94968 0.229656 2.17307L15.011 14.836C15.1439 14.9535 15.2739 15 15.3814 15C15.5596 15 15.7358 14.9136 15.854 14.7487C16.0816 14.4641 16.0341 14.0512 15.774 13.827ZM13.2033 10.625C13.2033 10.8643 13.022 11.0625 12.8032 11.0625H12.5484L2.80813 2.71418C2.80313 2.49215 2.99318 2.3125 3.20073 2.3125H12.8032C13.022 2.3125 13.2033 2.51074 13.2033 2.75V10.625ZM6.80167 12.7031V11.0625H3.20073C2.98193 11.0625 2.80063 10.8643 2.80063 10.625V6.03125L1.60031 5.00312L1.60031 10.625C1.60031 11.5889 2.31925 12.3504 3.17822 12.3504H5.55634V14.647C5.55634 14.9159 5.83192 15.0722 6.03447 14.9122L9.15778 12.3504L10.1575 12.351L8.69041 11.0938L6.80167 12.7031Z"/></svg>