<svg viewBox="0 0 16 16" xmlns="http://www.w3.org/2000/svg"><path d="M14.0238 0C13.8498 0 13.6681 0.0421875 13.495 0.132281C12.2457 0.784156 11.3195 1.00541 10.5473 1.00541C8.90781 1.00541 7.95488 0.00978125 6.0657 0.00946875C5.11879 0.00946875 3.93645 0.259562 2.31414 1.01103V0.75C2.3125 0.335937 2.01855 0 1.65625 0C1.29395 0 1 0.335937 1 0.75V15.25C1 15.6656 1.29395 16 1.65625 16C2.01855 16 2.3125 15.6641 2.3125 15.25V12C3.77785 11.2544 4.93805 11.0059 5.94375 11.0059C7.95707 11.0059 9.35898 11.9991 11.3742 11.9991C12.2468 11.9991 13.2341 11.8125 14.4121 11.2775C14.784 11.1219 15 10.7625 15 10.3781V0.960312C15 0.346875 14.5434 0 14.0238 0ZM13.6875 9.99375C12.8587 10.3319 12.0994 10.4969 11.3742 10.4969C10.532 10.4969 9.7798 10.2781 8.98328 10.0466C8.10801 9.79216 7.11598 9.50375 5.94539 9.50375C4.78738 9.50375 3.5941 9.78781 2.31414 10.3703V2.62937L2.80715 2.40122C4.10297 1.80122 5.1691 1.50934 6.06652 1.50934C6.83871 1.50947 7.40965 1.71906 8.07109 1.96184C8.76508 2.21647 9.55121 2.50528 10.5479 2.50528C11.5167 2.50528 12.5232 2.23978 13.6897 1.67372V9.99375H13.6875Z"/></svg>