<svg viewBox="0 0 16 16" xmlns="http://www.w3.org/2000/svg"><path d="M12.8687 6.49375C12.6937 6.80625 12.3594 6.97188 12 6.97188H6C5.64062 6.97188 5.30625 6.80625 5.13125 6.49375C4.95312 6.17813 4.95625 5.79375 5.14375 5.48438L8.14375 0.485625C8.32188 0.184281 8.65 0 9 0C9.35 0 9.67812 0.184312 9.85625 0.485625L12.8562 5.48438C13.0437 5.79375 13.0469 6.17813 12.8687 6.49375ZM9 1.97187L6.88438 5.47188H11.1156L9 1.97187ZM14.75 8.47188C15.4406 8.47188 16 9.05938 16 9.72188V14.25C16 14.9406 15.4406 15.5 14.75 15.5H10.25C9.55937 15.5 9 14.9406 9 14.25V9.72188C9 9.05938 9.55937 8.47188 10.25 8.47188H14.75ZM14.5 9.97188H10.5V14H14.5V9.97188ZM8 12C8 14.2094 6.20937 16 4 16C1.79094 16 0 14.2094 0 12C0 9.79063 1.79094 7.97188 4 7.97188C6.20937 7.97188 8 9.79063 8 12ZM4 9.47188C2.61937 9.47188 1.5 10.6187 1.5 12C1.5 13.3813 2.61937 14.5 4 14.5C5.38125 14.5 6.5 13.3813 6.5 12C6.5 10.6187 5.38125 9.47188 4 9.47188Z"/></svg>