<svg viewBox="0 0 16 16" xmlns="http://www.w3.org/2000/svg"><path d="M15.25 16H0.75C0.34 16 0 15.66 0 15.25V0.75C0 0.33 0.34 0 0.75 0C1.16 0 1.5 0.33 1.5 0.75V14.5H15.25C15.66 14.5 16 14.84 16 15.25C16 15.66 15.66 16 15.25 16Z"/><path d="M10.96 13.36C10.62 13.36 10.33 13.14 10.24 12.82L7.67 4.07L5.72 10.79C5.63 11.1 5.36 11.31 5.04 11.33C4.72 11.35 4.43 11.16 4.31 10.87L2.69 6.96C2.53 6.58 2.71 6.14 3.1 5.98C3.48 5.82 3.92 6 4.08 6.39L4.88 8.32L6.95 1.19C7.04 0.87 7.33 0.69 7.67 0.65C8 0.65 8.3 0.87 8.39 1.19L10.98 10.02L12.88 3.83C12.97 3.53 13.24 3.32 13.56 3.3C13.89 3.27 14.17 3.47 14.29 3.76L15.94 7.71C16.1 8.09 15.92 8.53 15.54 8.69C15.16 8.85 14.72 8.67 14.56 8.29L13.71 6.26L11.68 12.85C11.58 13.15 11.29 13.36 10.96 13.36Z"/></svg>