<svg viewBox="0 0 16 16" xmlns="http://www.w3.org/2000/svg"><path d="M3.85714 6V4C3.85714 1.79094 5.71172 0 8 0C10.2883 0 12.1429 1.79094 12.1429 4V6H13.1786C14.3211 6 15.25 6.89688 15.25 8V14C15.25 15.1031 14.3211 16 13.1786 16H2.82143C1.67729 16 0.75 15.1031 0.75 14V8C0.75 6.89688 1.67729 6 2.82143 6H3.85714ZM5.41071 6H10.5893V4C10.5893 2.61937 9.43058 1.5 8 1.5C6.56942 1.5 5.41071 2.61937 5.41071 4V6ZM2.30357 14C2.30357 14.275 2.53531 14.5 2.82143 14.5H13.1786C13.4634 14.5 13.6964 14.275 13.6964 14V8C13.6964 7.725 13.4634 7.5 13.1786 7.5H2.82143C2.53531 7.5 2.30357 7.725 2.30357 8V14Z"/></svg>