<svg viewBox="0 0 16 16" xmlns="http://www.w3.org/2000/svg"><path d="M11.25 5.42841H2.76562L6.74063 1.50692C7.05406 1.19777 7.08813 0.656547 6.81778 0.298327C6.54628 -0.0609639 6.07247 -0.102036 5.75997 0.209505L0.259969 5.60602C0.121875 5.79984 0 6.03556 0 6.28556C0 6.53442 0.0946562 6.77057 0.259687 6.93343L5.75969 12.3299C5.90128 12.4706 6.07625 12.5388 6.25 12.5388C6.45997 12.5388 6.66906 12.4383 6.8175 12.2419C7.088 11.8837 7.05381 11.3422 6.74034 11.0333L2.76534 7.11183H11.25C13.0419 7.11183 14.5 8.77792 14.5 10.794V15.0477C14.5 15.6179 14.8359 16 15.25 16C15.6641 16 16 15.6179 16 15.1428V10.8892C16 7.86416 13.8691 5.42841 11.25 5.42841Z"/></svg>