<svg viewBox="0 0 16 16" xmlns="http://www.w3.org/2000/svg"><path d="M10.2659 16C9.77585 16 9.28585 15.89 8.83585 15.67C7.00585 14.79 5.33585 13.59 3.86585 12.12C2.39585 10.65 1.20585 8.98 0.325852 7.16C-0.354148 5.75 0.0558524 4.02 1.31585 3.05L1.91585 2.58C2.76585 1.92 3.97585 1.98 4.72585 2.72C5.18585 3.17 5.60585 3.66 5.99585 4.18C6.48585 4.84 6.54585 5.68 6.16585 6.5L5.79585 7.27C5.63585 7.64 5.69585 8.06 5.95585 8.36C6.21585 8.65 6.48585 8.94 6.76585 9.22C7.04585 9.5 7.33585 9.77 7.62585 10.03C7.92585 10.29 8.35585 10.35 8.71585 10.19L9.60585 9.77C10.3259 9.44 11.1659 9.52 11.8059 9.99C12.3159 10.37 12.8059 10.8 13.2659 11.26C14.0359 12.04 14.0659 13.24 13.3359 14.17L12.9459 14.67C12.2859 15.53 11.2859 16 10.2659 16ZM3.23585 3.62C3.09585 3.62 2.94585 3.67 2.82585 3.76L2.22585 4.23C1.53585 4.77 1.29585 5.73 1.67585 6.5C2.48585 8.17 3.57585 9.71 4.92585 11.06C6.27585 12.41 7.81585 13.51 9.48585 14.32C10.2659 14.69 11.2159 14.46 11.7659 13.76L12.1559 13.26C12.4159 12.93 12.4359 12.56 12.1959 12.32C11.7959 11.91 11.3659 11.54 10.9159 11.21C10.7159 11.06 10.4559 11.04 10.2459 11.14L9.35585 11.56C8.45585 11.98 7.38585 11.83 6.63585 11.17C6.31585 10.89 6.00585 10.6 5.70585 10.3C5.40585 10 5.11585 9.69 4.83585 9.37C4.17585 8.61 4.01585 7.54 4.44585 6.64L4.79585 5.87C4.94585 5.55 4.93585 5.29 4.78585 5.07C4.45585 4.62 4.07585 4.19 3.66585 3.79C3.55585 3.68 3.39585 3.62 3.23585 3.62Z"/><path d="M15.2459 7H8.68585C8.26585 7 7.93585 6.67 7.93585 6.25C7.93585 5.83 8.26585 5.5 8.68585 5.5H15.2459C15.6559 5.5 15.9959 5.84 15.9959 6.25C15.9959 6.66 15.6559 7 15.2459 7Z"/><path d="M15.2459 4.25H8.68585C8.27585 4.25 7.93585 3.91 7.93585 3.5C7.93585 3.09 8.27585 2.75 8.68585 2.75H15.2459C15.6559 2.75 15.9959 3.09 15.9959 3.5C15.9959 3.91 15.6559 4.25 15.2459 4.25Z"/><path d="M15.2459 1.5H8.68585C8.27585 1.5 7.93585 1.16 7.93585 0.75C7.93585 0.34 8.26585 0 8.68585 0H15.2459C15.6559 0 15.9959 0.34 15.9959 0.75C15.9959 1.16 15.6559 1.5 15.2459 1.5Z"/></svg>