<svg viewBox="0 0 16 16" xmlns="http://www.w3.org/2000/svg"><path d="M15.2462 2.74875H9.80619L11.1562 1.39875C11.4462 1.10875 11.4462 0.628746 11.1562 0.338746C10.8662 0.0487463 10.3862 0.0487463 10.0962 0.338746L7.46619 2.96875C7.17619 3.25875 7.17619 3.73875 7.46619 4.02875L10.0962 6.65875C10.2462 6.80875 10.4362 6.87875 10.6262 6.87875C10.8162 6.87875 11.0062 6.80875 11.1562 6.65875C11.4462 6.36875 11.4462 5.88875 11.1562 5.59875L9.80619 4.24875H15.2462C15.6562 4.24875 15.9962 3.90875 15.9962 3.49875C15.9962 3.08875 15.6562 2.74875 15.2462 2.74875Z"/><path d="M11.8062 9.86875C11.1662 9.39875 10.3262 9.30875 9.60619 9.64875L8.71619 10.0587C8.34619 10.2287 7.92619 10.1687 7.62619 9.89875C7.33619 9.63875 7.04619 9.36875 6.76619 9.08875C6.48619 8.80875 6.21619 8.51875 5.95619 8.22875C5.69619 7.92875 5.62619 7.49875 5.79619 7.13875L6.15619 6.36875C6.53619 5.54875 6.47619 4.70875 5.98619 4.04875C5.60619 3.53875 5.17619 3.04875 4.71619 2.58875C3.95619 1.84875 2.74619 1.78875 1.90619 2.44875L1.30619 2.91875C0.0561914 3.88875 -0.353808 5.61875 0.326192 7.02875C1.20619 8.85875 2.40619 10.5287 3.87619 11.9987C5.34619 13.4687 7.01619 14.6587 8.84619 15.5487C9.30619 15.7687 9.78619 15.8787 10.2762 15.8787C11.2962 15.8787 12.2962 15.4187 12.9562 14.5687L13.3462 14.0687C14.0662 13.1387 14.0462 11.9387 13.2762 11.1587C12.8162 10.6787 12.3262 10.2487 11.8062 9.86875ZM12.1562 13.1287L11.7662 13.6287C11.2262 14.3287 10.2662 14.5587 9.48619 14.1887C7.81619 13.3787 6.27619 12.2887 4.92619 10.9287C3.57619 9.57875 2.48619 8.04875 1.67619 6.36875C1.29619 5.59875 1.53619 4.63875 2.22619 4.09875L2.82619 3.62875C2.94619 3.52875 3.09619 3.48875 3.23619 3.48875C3.39619 3.48875 3.54619 3.54875 3.66619 3.65875C4.07619 4.05875 4.44619 4.48875 4.77619 4.93875C4.93619 5.14875 4.93619 5.41875 4.78619 5.73875L4.43619 6.50875C4.01619 7.40875 4.17619 8.47875 4.83619 9.22875C5.11619 9.53875 5.40619 9.84875 5.70619 10.1587C6.00619 10.4587 6.31619 10.7487 6.63619 11.0287C7.38619 11.6887 8.44619 11.8387 9.35619 11.4187L10.2462 11.0087C10.4662 10.9087 10.7262 10.9287 10.9162 11.0787C11.3662 11.4087 11.7962 11.7887 12.1962 12.1887C12.4262 12.4187 12.4062 12.7987 12.1562 13.1287Z"/></svg>