<svg viewBox="0 0 16 16" xmlns="http://www.w3.org/2000/svg"><path d="M10.7329 4.96684L15.3794 5.64752C15.6522 5.6865 15.8765 5.87541 15.9644 6.13329C16.0493 6.39417 15.9796 6.67904 15.7856 6.86795L12.4151 10.1724L13.2122 14.8352C13.2577 15.1051 13.1456 15.381 12.9182 15.5399C12.6939 15.6988 12.3696 15.7198 12.1514 15.5909L7.99888 13.3959L3.82213 15.5909C3.6039 15.7198 3.30686 15.6988 3.07953 15.5399C2.85523 15.381 2.74309 15.1051 2.76127 14.8352L3.58268 10.1724L0.215517 6.86795C0.019713 6.67904 -0.0496973 6.39417 0.0363837 6.13329C0.122162 5.87541 0.348579 5.6865 0.621068 5.64752L5.2649 4.96684L7.34418 0.730422C7.46845 0.482409 7.72002 0.325012 7.99888 0.325012C8.27773 0.325012 8.53234 0.482439 8.65358 0.730422L10.7329 4.96684ZM7.97463 11.8606C8.12012 11.8606 8.2353 11.8876 8.34138 11.9446L11.53 13.6298L10.9178 10.0435C10.8783 9.81257 10.9572 9.57568 11.1239 9.41076L13.7275 6.85895L10.1418 6.3372C9.90236 6.30122 9.69625 6.15129 9.59319 5.93838L7.97463 2.6966V11.8606Z"/></svg>