<svg viewBox="0 0 16 16" xmlns="http://www.w3.org/2000/svg"><path d="M13.1333 0H4.73333C3.70229 0 2.86667 0.895313 2.86667 2V3H1.7C1.31354 3 1 3.3375 1 3.75C1 4.1625 1.31354 4.5 1.7 4.5H2.86667V7.25H1.7C1.31354 7.25 1 7.5875 1 8C1 8.4125 1.31354 8.75 1.7 8.75H2.86667V11.5H1.7C1.31354 11.5 1 11.8375 1 12.25C1 12.6625 1.31354 13 1.7 13H2.86667V14C2.86667 15.1047 3.70229 16 4.73333 16H13.1333C14.1644 16 15 15.1047 15 14V2C15 0.895313 14.1629 0 13.1333 0ZM4.26667 14V13H4.96667C5.35458 13 5.66667 12.6656 5.66667 12.25C5.66667 11.8344 5.35458 11.5 4.96667 11.5H4.26667V8.75H4.96667C5.35458 8.75 5.66667 8.41563 5.66667 8C5.66667 7.58437 5.35458 7.25 4.96667 7.25H4.26667V4.5H4.96667C5.35458 4.5 5.66667 4.16563 5.66667 3.75C5.66667 3.33437 5.35458 3 4.96667 3H4.26667V2C4.26667 1.72381 4.47562 1.5 4.73333 1.5H6.6V14.5H4.73333C4.47667 14.5 4.26667 14.275 4.26667 14ZM13.6 14C13.6 14.2761 13.3911 14.5 13.1333 14.5H8V1.5H13.1333C13.3911 1.5 13.6 1.72381 13.6 2V14Z"/></svg>