<svg viewBox="0 0 16 16" xmlns="http://www.w3.org/2000/svg"><path d="M8.01774 0C3.50064 0 0 3.30146 0 7.76072C0 10.0931 0.958387 12.1087 2.51839 13.501C2.78774 13.7433 2.73226 13.8836 2.77806 15.3795C2.78167 15.4843 2.81086 15.5866 2.86308 15.6775C2.9153 15.7684 2.98897 15.8451 3.07767 15.901C3.16636 15.9569 3.26738 15.9903 3.37192 15.9982C3.47646 16.0061 3.58134 15.9883 3.67742 15.9463C5.38419 15.1946 5.40613 15.1353 5.69548 15.214C10.6403 16.575 16 13.4104 16 7.76072C16 3.30146 12.5352 0 8.01774 0ZM12.8319 5.97224L10.4771 9.7005C10.3882 9.84069 10.2713 9.961 10.1337 10.0539C9.99607 10.1468 9.84078 10.2103 9.67751 10.2403C9.51425 10.2704 9.34653 10.2664 9.18487 10.2287C9.02322 10.1909 8.8711 10.1201 8.73806 10.0208L6.86452 8.6185C6.78076 8.55568 6.67889 8.52173 6.57419 8.52173C6.4695 8.52173 6.36763 8.55568 6.28387 8.6185L3.75581 10.536C3.41839 10.7918 2.97645 10.3876 3.20387 10.0305L5.55871 6.30226C5.6476 6.16203 5.76451 6.04167 5.9021 5.94875C6.03968 5.85583 6.19499 5.79234 6.35827 5.76226C6.52155 5.73218 6.68928 5.73617 6.85094 5.77397C7.01261 5.81177 7.16472 5.88256 7.29774 5.98192L9.17065 7.38393C9.2544 7.44675 9.35627 7.4807 9.46097 7.4807C9.56566 7.4807 9.66753 7.44675 9.75129 7.38393L12.2806 5.46834C12.6174 5.21091 13.0594 5.6148 12.8319 5.97224V5.97224Z"/></svg>