<svg viewBox="0 0 16 16" xmlns="http://www.w3.org/2000/svg"><path d="M13.6036 2.325C12.1071 0.825 10.1143 0 7.99643 0C3.625 0 0.0678571 3.55714 0.0678571 7.92857C0.0678571 9.325 0.432143 10.6893 1.125 11.8929L0 16L4.20357 14.8964C5.36071 15.5286 6.66429 15.8607 7.99286 15.8607H7.99643C12.3643 15.8607 16 12.3036 16 7.93214C16 5.81429 15.1 3.825 13.6036 2.325ZM7.99643 14.525C6.81071 14.525 5.65 14.2071 4.63929 13.6071L4.4 13.4643L1.90714 14.1179L2.57143 11.6857L2.41429 11.4357C1.75357 10.3857 1.40714 9.175 1.40714 7.92857C1.40714 4.29643 4.36429 1.33929 8 1.33929C9.76071 1.33929 11.4143 2.025 12.6571 3.27143C13.9 4.51786 14.6643 6.17143 14.6607 7.93214C14.6607 11.5679 11.6286 14.525 7.99643 14.525ZM11.6107 9.58929C11.4143 9.48929 10.4393 9.01071 10.2571 8.94643C10.075 8.87857 9.94286 8.84643 9.81071 9.04643C9.67857 9.24643 9.3 9.68929 9.18214 9.825C9.06786 9.95714 8.95 9.975 8.75357 9.875C7.58929 9.29286 6.825 8.83571 6.05714 7.51786C5.85357 7.16786 6.26071 7.19286 6.63929 6.43571C6.70357 6.30357 6.67143 6.18929 6.62143 6.08929C6.57143 5.98929 6.175 5.01429 6.01071 4.61786C5.85 4.23214 5.68571 4.28571 5.56429 4.27857C5.45 4.27143 5.31786 4.27143 5.18571 4.27143C5.05357 4.27143 4.83929 4.32143 4.65714 4.51786C4.475 4.71786 3.96429 5.19643 3.96429 6.17143C3.96429 7.14643 4.675 8.08929 4.77143 8.22143C4.87143 8.35357 6.16786 10.3536 8.15714 11.2143C9.41429 11.7571 9.90714 11.8036 10.5357 11.7107C10.9179 11.6536 11.7071 11.2321 11.8714 10.7679C12.0357 10.3036 12.0357 9.90714 11.9857 9.825C11.9393 9.73571 11.8071 9.68571 11.6107 9.58929Z"/></svg>