<svg viewBox="0 0 16 16" xmlns="http://www.w3.org/2000/svg"><path d="M5.43977 9.90312L4.8179 11.3469C4.7804 11.4406 4.68977 11.5 4.5929 11.5H2.24915C1.83508 11.5 1.49915 11.8359 1.49915 12.25C1.49915 12.6641 1.83508 13 2.24915 13H4.5929C5.29227 13 5.92477 12.5859 6.20227 11.9656L6.62415 10.9531L6.32727 10.7734C5.9554 10.5469 5.66165 10.2469 5.43977 9.90312ZM9.99915 3C10.8273 3 11.4991 2.32812 11.4991 1.5C11.4991 0.671875 10.8273 0 9.99915 0C9.17102 0 8.49915 0.671875 8.49915 1.5C8.49915 2.32812 9.17102 3 9.99915 3ZM13.7491 7.51562L12.2373 7.51172C12.1279 7.51172 12.0302 7.44141 11.999 7.33594L11.5652 5.89844C11.2762 4.95688 10.5027 4.23437 9.53774 4.01937L7.0929 3.46563C6.88977 3.41875 6.65852 3.39687 6.48352 3.39687C5.88133 3.39687 5.29258 3.59675 4.80477 3.97375L3.29227 5.14062C3.10133 5.2875 3.00165 5.50625 3.00165 5.73125C3.00165 6.12031 3.31065 6.4825 3.75102 6.4825C3.91221 6.4825 4.07446 6.43097 4.21008 6.32478L5.72165 5.16072C5.9434 4.98856 6.21321 4.89925 6.48665 4.89925C6.57936 4.89925 6.67255 4.9095 6.76449 4.93026L7.2304 5.03125L6.12415 7.7625C6.03665 7.97812 5.99602 8.2 5.99602 8.41875C5.99602 9.01625 6.30196 9.58938 6.84196 9.91813L9.45915 11.4963C9.53652 11.5427 9.58202 11.6259 9.58202 11.7129C9.58202 11.7357 9.5789 11.7587 9.57241 11.7814L8.5304 15.0437C8.51087 15.1124 8.50155 15.1817 8.50155 15.2499C8.50227 15.4969 8.68977 16 9.25227 16C9.5804 16 9.88102 15.7852 9.97477 15.4569L11.0138 12.1912C11.0599 12.0318 11.082 11.87 11.082 11.7097C11.082 11.1091 10.7701 10.5344 10.2364 10.2106L8.6179 9.23438L9.9304 5.9625C10.0163 6.07578 10.0866 6.19688 10.1296 6.3375L10.5671 7.775C10.7898 8.51313 11.4618 9.01313 12.2352 9.01313L13.7471 9.02094C14.1612 9.02094 14.5009 8.685 14.5009 8.27094C14.4991 7.85625 14.1679 7.51875 13.7491 7.51562Z"/></svg>