<svg viewBox="0 0 16 16" xmlns="http://www.w3.org/2000/svg"><path d="M6.15 15.67C5.62 15.67 5.09 15.47 4.69 15.07L0.61 10.99C0.21 10.59 0 10.07 0 9.52002C0 8.97002 0.22 8.45002 0.61 8.06002L7.73 0.940017C8.12 0.550017 8.64 0.330017 9.19 0.330017H13.27C14.41 0.330017 15.34 1.26002 15.34 2.40002V6.48002C15.34 7.03002 15.13 7.55002 14.74 7.94002L7.62 15.06C7.21 15.47 6.68 15.67 6.15 15.67ZM9.19 1.83002C9.04 1.83002 8.9 1.89002 8.79 2.00002L1.67 9.11002C1.56 9.22002 1.5 9.36002 1.5 9.52002C1.5 9.67002 1.56 9.81002 1.67 9.92002L5.75 14C5.96 14.22 6.34 14.21 6.55 14L13.67 6.88002C13.78 6.77002 13.84 6.63002 13.84 6.48002V2.40002C13.84 2.09002 13.59 1.83002 13.27 1.83002H9.19Z"/><path d="M11.34 5.32002C11.8923 5.32002 12.34 4.8723 12.34 4.32002C12.34 3.76773 11.8923 3.32002 11.34 3.32002C10.7877 3.32002 10.34 3.76773 10.34 4.32002C10.34 4.8723 10.7877 5.32002 11.34 5.32002Z"/><path d="M15.25 14.32H11.25C10.84 14.32 10.5 13.98 10.5 13.57C10.5 13.16 10.84 12.82 11.25 12.82H15.25C15.66 12.82 16 13.16 16 13.57C16 13.98 15.66 14.32 15.25 14.32Z"/></svg>