<svg viewBox="0 0 16 16" xmlns="http://www.w3.org/2000/svg"><path d="M15.8844 9.5391L13.9703 1.7828C13.8594 1.31187 13.4594 1 13 1H3C2.54094 1 2.14156 1.31187 2.03031 1.75629L0.116094 9.5391C0.039 9.85097 0 10.1722 0 10.4934V13.004C0 14.1065 0.895313 15 2 15H14C15.1047 15 16 14.1065 16 13.004V10.4944C16 10.1722 15.9625 9.85097 15.8844 9.5391ZM3.39375 2.52506H12.6094L14.2094 9.01203H11.5C11.2158 9.01203 10.9559 9.17186 10.8291 9.4262L10.0375 11.008H5.9625L5.17188 9.42682C5.04375 9.17108 4.78438 9.01203 4.5 9.01203H1.79125L3.39375 2.52506ZM14.5 13.004C14.5 13.2791 14.2757 13.503 14 13.503H2C1.72431 13.503 1.5 13.2791 1.5 13.004V10.509H4.03625L4.82937 12.0908C4.95625 12.346 5.21562 12.505 5.5 12.505H10.5C10.7842 12.505 11.0441 12.3452 11.1709 12.0908L11.9625 10.509H14.5V13.004Z"/></svg>