<svg viewBox="0 0 16 16" xmlns="http://www.w3.org/2000/svg"><path d="M13.0092 6.5675C12.8192 6.1975 12.3692 6.0575 11.9992 6.2475C11.6292 6.4375 11.4892 6.8875 11.6792 7.2575C11.9992 7.8775 11.8892 8.6375 11.3892 9.1275C11.0992 9.4175 11.0992 9.8975 11.3892 10.1875C11.5392 10.3375 11.7292 10.4075 11.9192 10.4075C12.1092 10.4075 12.2992 10.3375 12.4492 10.1875C13.4192 9.2275 13.6392 7.7675 13.0092 6.5675Z"/><path d="M13.7992 4.4075C13.4692 4.6575 13.3992 5.1275 13.6492 5.4575C14.9092 7.1275 14.7392 9.5075 13.2492 10.9975C12.9592 11.2875 12.9592 11.7675 13.2492 12.0575C13.3992 12.2075 13.5892 12.2775 13.7792 12.2775C13.9692 12.2775 14.1592 12.2075 14.3092 12.0575C16.3192 10.0475 16.5492 6.8275 14.8392 4.5575C14.6092 4.2275 14.1392 4.1575 13.7992 4.4075Z"/><path d="M15.7792 0.2175C15.4892 -0.0725 15.0092 -0.0725 14.7192 0.2175L9.97925 4.9575C9.97925 4.8875 9.99925 4.8175 9.99925 4.7475C9.99925 2.5375 8.20925 0.7475 5.99925 0.7475C3.78925 0.7475 1.99925 2.5375 1.99925 4.7475C1.99925 6.9575 3.78925 8.7475 5.99925 8.7475C6.06925 8.7475 6.13925 8.7275 6.20925 8.7275L5.04925 9.8775H4.00925C2.47925 9.8775 1.13925 10.9075 0.739249 12.3875L0.0292485 15.0475C-0.0607515 15.3775 0.0892485 15.7175 0.379248 15.8875C0.489248 15.9575 0.619249 15.9975 0.749249 15.9975C0.939249 15.9975 1.13925 15.9175 1.27925 15.7775L15.7792 1.2775C16.0692 0.9875 16.0692 0.5075 15.7792 0.2175ZM3.49925 4.7475C3.49925 3.3675 4.61925 2.2475 5.99925 2.2475C7.37925 2.2475 8.49925 3.3675 8.49925 4.7475C8.49925 6.1275 7.37925 7.2475 5.99925 7.2475C4.61925 7.2475 3.49925 6.1275 3.49925 4.7475ZM2.19925 12.7375C2.37925 12.1175 2.86925 11.6375 3.47925 11.4575L2.19925 12.7375Z"/><path d="M11.2992 12.3875C10.9692 11.1475 9.97925 10.2075 8.71925 9.9475C8.31925 9.8675 7.91925 10.1175 7.82925 10.5275C7.74925 10.9375 8.00925 11.3275 8.40925 11.4175C9.10925 11.5675 9.65925 12.0875 9.84925 12.7775L10.5592 15.4375C10.6492 15.7775 10.9492 15.9975 11.2792 15.9975C11.3392 15.9975 11.4092 15.9875 11.4692 15.9675C11.8692 15.8575 12.1092 15.4475 11.9992 15.0475L11.2992 12.3875Z"/></svg>