<svg viewBox="0 0 16 16" xmlns="http://www.w3.org/2000/svg"><path d="M13.7143 0H2.28571C1.02321 0 0 1.02321 0 2.28571V13.7143C0 14.9768 1.02321 16 2.28571 16H13.7143C14.9768 16 16 14.9768 16 13.7143V2.28571C16 1.02321 14.975 0 13.7143 0ZM14.2857 13.7143C14.2857 14.0294 14.0294 14.2857 13.7143 14.2857H2.28571C1.97064 14.2857 1.71429 14.0294 1.71429 13.7143V2.28571C1.71429 1.97064 1.97064 1.71429 2.28571 1.71429H13.7143C14.0294 1.71429 14.2857 1.97064 14.2857 2.28571V13.7143ZM11.6964 3.63214C11.3354 3.32579 10.7936 3.37154 10.4882 3.73314L8 6.67143L5.51071 3.73214C5.20714 3.37143 4.66429 3.325 4.30357 3.63214C3.94286 3.93571 3.89643 4.47857 4.20357 4.83929L6.87857 8L4.20429 11.1607C3.8985 11.5218 3.94368 12.0632 4.30529 12.3689C4.46429 12.5036 4.66071 12.5714 4.825 12.5714C5.06829 12.5714 5.31036 12.4682 5.48 12.2679L8 9.32857L10.4882 12.2693C10.6571 12.4679 10.9 12.5714 11.1429 12.5714C11.3382 12.5714 11.535 12.505 11.6957 12.3689C12.0571 12.0631 12.1025 11.5217 11.7967 11.1606L9.12143 8L11.7957 4.83929C12.1036 4.47857 12.0571 3.93571 11.6964 3.63214Z"/></svg>