<svg viewBox="0 0 16 16" xmlns="http://www.w3.org/2000/svg"><path d="M15.4889 3.18085C15.1686 2.94864 14.77 2.91775 14.4256 3.09657L11.5556 4.58238V3.98665C11.5556 2.87828 10.7597 1.97998 9.77778 1.97998H1.77778C0.795833 1.97998 0 2.87828 0 3.98665V12.0133C0 13.1217 0.795833 14.02 1.77778 14.02H9.77778C10.7597 14.02 11.5556 13.1217 11.5556 12.0133V11.417L14.425 12.9019C14.5734 12.9788 14.7314 13.017 14.8886 13.017C15.0978 13.017 15.3058 12.9499 15.4883 12.8176C15.8083 12.5871 16 12.192 16 11.7343V4.23748C16 3.80793 15.8083 3.416 15.4889 3.18085ZM10.2222 12.0133C10.2222 12.2899 10.0228 12.515 9.77778 12.515H1.77778C1.53272 12.515 1.33333 12.2899 1.33333 12.0133V3.98665C1.33333 3.71004 1.53272 3.48498 1.77778 3.48498H9.77778C10.0228 3.48498 10.2222 3.71004 10.2222 3.98665V12.0133ZM14.6667 11.3706L11.5556 9.76208V6.23788L14.6667 4.62847V11.3706Z"/></svg>