<svg data-name="Layer 1" xmlns="http://www.w3.org/2000/svg" viewBox="0 0 32 32"><path d="M30 5.5v2.33A1.19 1.19 0 0128.83 9H3.17a1.12 1.12 0 01-.82-.35A1.12 1.12 0 012 7.83V5.5a1.12 1.12 0 01.35-.82 1.13 1.13 0 01.82-.35h25.66A1.18 1.18 0 0130 5.5zm0 9.33v2.33a1.18 1.18 0 01-1.17 1.16H3.17a1.12 1.12 0 01-.82-.32 1.12 1.12 0 01-.35-.83v-2.34a1.12 1.12 0 01.35-.83 1.12 1.12 0 01.82-.35h25.66A1.18 1.18 0 0130 14.83zm0 9.34v2.33a1.18 1.18 0 01-1.17 1.17H3.17a1.13 1.13 0 01-.82-.35A1.12 1.12 0 012 26.5v-2.33a1.12 1.12 0 01.35-.82 1.12 1.12 0 01.82-.35h25.66A1.18 1.18 0 0130 24.17z"/></svg>