<svg data-name="Layer 1" xmlns="http://www.w3.org/2000/svg" viewBox="0 0 32 32"><path d="M2.25 31v-1.84c.24-.05.75-.16 1.75-.31a10.12 10.12 0 002-.53 3.05 3.05 0 00.24-.53 3.38 3.38 0 00.17-.65l.11-.64a5.42 5.42 0 00.06-.73v-1.94q0-19.17-.43-20a.75.75 0 00-.43-.28 5.45 5.45 0 00-.87-.21q-.52-.09-1-.14L3 3.09 2.37 3l-.08-1.59q1.91 0 6.64-.22T16.22 1h2.65a14.19 14.19 0 012.67.25 11 11 0 012.46.84 8.46 8.46 0 012.11 1.39 6.09 6.09 0 011.45 2 6.54 6.54 0 01.55 2.69 5.2 5.2 0 01-.32 1.87 5.31 5.31 0 01-.76 1.41 5.75 5.75 0 01-1.23 1.15 13.07 13.07 0 01-1.43.88q-.61.32-1.64.78a10.34 10.34 0 015 2.62 6.44 6.44 0 012 4.84 8.6 8.6 0 01-.68 3.51 7.18 7.18 0 01-1.83 2.55 10.28 10.28 0 01-2.7 1.67 13.55 13.55 0 01-3.19.95 20.88 20.88 0 01-3.44.27c-.57 0-1.43 0-2.58-.06s-2-.06-2.58-.06q-2.07 0-6 .21zm10.57-17.36a13.07 13.07 0 002.13.14 13.43 13.43 0 002.79-.25 6.45 6.45 0 002.15-.87 3.88 3.88 0 001.46-1.75 6.9 6.9 0 00.5-2.77 4.89 4.89 0 00-.57-2.39 4.16 4.16 0 00-1.54-1.6 7.66 7.66 0 00-2.11-.85A10.32 10.32 0 0015.2 3a16.34 16.34 0 00-2.54.25c0 .65 0 1.63.08 3s.08 2.3.08 3v3.1c-.02.54-.02.99 0 1.29zm.27 14.57a6.91 6.91 0 002.73.63q7.34 0 7.34-6.54a6.65 6.65 0 00-.8-3.52 6.25 6.25 0 00-1.2-1.44 6.49 6.49 0 00-1.32-.91 5.88 5.88 0 00-1.57-.49 13.52 13.52 0 00-1.64-.21h-1.85a6.66 6.66 0 00-2 .2v9.4c0 .49 0 1 .09 1.63a4.94 4.94 0 00.22 1.24z"/></svg>