<svg viewBox="0 0 40 40" xmlns="http://www.w3.org/2000/svg"><g fill="none" fill-rule="evenodd"><circle fill="#FFF" cx="20" cy="20" r="20"/><g fill="#A1D318"><path d="M18.637 24.57l6.9-6.893c.617-.616.617-1.6 0-2.215a1.562 1.562 0 00-2.217 0l-5.792 5.785L15.68 19.4a1.562 1.562 0 00-2.218 0 1.558 1.558 0 000 2.216l2.957 2.953c.309.308.678.431 1.11.431.43 0 .8-.123 1.108-.43z" fill-rule="nonzero"/><path d="M40 20c0 11.046-8.954 20-20 20S0 31.046 0 20 8.954 0 20 0s20 8.954 20 20zm-8-.25c0 5.4-5.393 9.75-11.985 9.75-1.722 0-3.445-.3-5.018-.9-1.873 1.5-4.195 2.4-6.591 2.4-.15 0-.3-.075-.375-.225-.075-.15 0-.3.075-.375 1.198-1.275 2.022-2.85 2.547-4.5-1.648-1.65-2.622-3.825-2.622-6.15 0-5.4 5.393-9.75 11.984-9.75C26.607 10 32 14.35 32 19.75z"/></g></g></svg>