<svg viewBox="0 0 32 32"><path d="M27.5 4.85l1.9-1.66a1.07 1.07 0 00.39-.9.86.86 0 000-.09.86.86 0 000-.13V2a.89.89 0 00-.12-.3v-.06a.91.91 0 00-.68-.34h-.09a1 1 0 00-.68.24L2.62 23.83a1 1 0 00-.12 1.48 1.16 1.16 0 00.77.39 1.29 1.29 0 00.73-.27l2.58-2.26a5.84 5.84 0 001.53.23h7.47a.82.82 0 01.62.28 56 56 0 004.71 4.52 1 1 0 001.59-.68c.12-1.41-.28-4 .89-4.09h.5a5.93 5.93 0 005.91-5.93v-8a5.89 5.89 0 00-2.3-4.65zM16 15.23a1.73 1.73 0 01-.32 0l2-1.78v.06A1.74 1.74 0 0116 15.23zm5.74 0a1.74 1.74 0 111.74-1.74 1.74 1.74 0 01-1.74 1.75zm-12.57-.39a1.73 1.73 0 01-.65-1.34 1.74 1.74 0 013.23-.89l10.33-9H8.11A5.93 5.93 0 002.2 9.5v8a5.9 5.9 0 00.72 2.8z"/></svg>