<svg data-name="Layer 1" xmlns="http://www.w3.org/2000/svg" viewBox="0 0 32 32"><path d="M9.65 16.83a4.67 4.67 0 004.69-4.63v-1.33a4.36 4.36 0 00-4.41-4.25h-.77A4.17 4.17 0 005 10.87v1.32a4.67 4.67 0 004.69 4.63zm2.1 1.38c-.06 0-.06 0-.11.06a5.1 5.1 0 01-4.3 0c-.05-.06-.05-.06-.17-.06-2.92 0-5 1.93-5 4.58v1.43c0 .33.11 1.16.44 1.16h13.78c.33 0 .17-.83.17-1.16v-1.43a4.49 4.49 0 00-4.81-4.58zm16.72-3.31H19a1.38 1.38 0 000 2.76h9.43a1.38 1.38 0 000-2.76zm0 5.51h-7a1.38 1.38 0 000 2.76h7a1.38 1.38 0 000-2.76zm0-11.03H19a1.38 1.38 0 000 2.76h9.43a1.38 1.38 0 000-2.76z"/></svg>