<svg data-name="Layer 1" xmlns="http://www.w3.org/2000/svg" viewBox="0 0 32 32"><path d="M20.49 10.73l.94 2.92a2.86 2.86 0 002.87 1.49h3.42a1.92 1.92 0 002-2.43 10.63 10.63 0 00-3-5.41 5.53 5.53 0 00-3.81-1.49H9.18a5.5 5.5 0 00-3.75 1.44 11.08 11.08 0 00-3.14 5.57 1.9 1.9 0 001.88 2.32c1.32 0 2.7-.06 4-.06a2.73 2.73 0 002.43-1.49l1.4-2.92z"/><path d="M15.91 26.18a1.37 1.37 0 01-1.38-1.38v-9.16a1.37 1.37 0 011.38-1.38 1.37 1.37 0 011.38 1.38v9.16a1.37 1.37 0 01-1.38 1.38z"/><path d="M15.91 26.18a1.42 1.42 0 01-1-.39l-4.08-4.14a1.37 1.37 0 011.93-1.93l3.14 3.2 3.2-3.15a1.37 1.37 0 011.9 1.94l-4.1 4.08a1.42 1.42 0 01-.99.39z"/></svg>