<svg data-name="Layer 1" xmlns="http://www.w3.org/2000/svg" viewBox="0 0 32 32"><path d="M18.08 2.15A13.85 13.85 0 004.56 13L2.19 9.71a1.14 1.14 0 00-1.82 1.38l4 5.46a1.11 1.11 0 001 .66.42.42 0 00.28-.06h.05a.05.05 0 00.05-.06c.05 0 .05-.06.11-.06S6 17 6 16.94l5.46-3.86a1.15 1.15 0 10-1.32-1.88l-3.38 2.48a11.57 11.57 0 1111.31 13.9 11.63 11.63 0 01-10.26-6.17 1.15 1.15 0 00-2 1 13.85 13.85 0 1012.3-20.3z"/><path d="M17.63 7.45a1.17 1.17 0 00-1.16 1.16v8.28A1.17 1.17 0 0017.63 18H25a1.16 1.16 0 000-2.32h-6.26V8.61a1.16 1.16 0 00-1.1-1.16z"/></svg>