<svg xmlns="http://www.w3.org/2000/svg" viewBox="0 0 16 16"><path d="M10.328 5.671L9.312 4.655l-4.499 4.5A2.153 2.153 0 007.857 12.2l6.09-6.091a3.588 3.588 0 000-5.075c-1.401-1.402-3.674-1.367-5.075.035L2.464 7.477a4.984 4.984 0 000 7.061c1.954 1.954 5.123 1.945 7.078-.009.004-.004.008-.013.013-.018v-.002l4.365-4.366-1.016-1.015-4.364 4.364-.013.013a3.573 3.573 0 01-5.048 0 3.573 3.573 0 010-5.048l.014-.014h.001l6.395-6.395a2.155 2.155 0 013.045 0c.838.84.838 2.206 0 3.045l-6.09 6.091a.718.718 0 01-1.015-1.015l4.499-4.498z"/></svg>