<svg xmlns="http://www.w3.org/2000/svg" viewBox="0 0 16 16"><path d="M9.484.826A1.059 1.059 0 009.089.75c-.174 0-.342.139-.483.252L4.179 5H2.273C1.508 5 1 5.465 1 6.168v3.666C1 10.535 1.508 11 2.273 11h1.905l4.427 3.999c.141.112.309.251.482.251.114 0 .288-.025.396-.076.272-.131.517-.426.517-.725V1.551c0-.299-.245-.594-.516-.725zm3.521 11.899a.552.552 0 01-.383-.156.547.547 0 01-.013-.775 5.423 5.423 0 001.533-3.79 5.421 5.421 0 00-1.537-3.792.55.55 0 01.789-.767c1.191 1.229 1.849 2.85 1.849 4.56s-.655 3.327-1.845 4.556a.556.556 0 01-.393.164z"/><path d="M11.787 5.516a.55.55 0 10-.79.765c.45.463.696 1.074.696 1.719s-.246 1.256-.696 1.719a.55.55 0 00.79.765c.648-.67 1.008-1.553 1.008-2.484s-.357-1.814-1.008-2.484z"/></svg>