<svg xmlns="http://www.w3.org/2000/svg" viewBox="0 0 24 24"><path d="M20 2H4a2 2 0 00-2 2v16c0 .057.012.11.017.166.092-.3.523-.485.71-.583.719-.378 3.605-.566 5.757-2.146.314-.259.676-.927.833-1.237.333.348 1.25 1.16 2.545 1.16.02 0 .037-.005.057-.005.02 0 .036.005.056.005l.025-.002.025.002c.02 0 .036-.005.056-.005.02 0 .037.005.057.005 1.295 0 2.211-.812 2.545-1.16.157.31.52.978.834 1.236 2.151 1.581 5.038 1.769 5.757 2.146.187.098.618.283.71.583.004-.055.016-.108.016-.165V4c.001-1.111-.886-2.078-2-2zm-3.509 7.532c-.058.817-.246 1.463-.545 1.554-.305.094-.344 1.515-1.113 2.523-.6.784-1.446 1.773-2.419 1.926a5.013 5.013 0 01-.831 0c-.97-.152-1.818-1.142-2.419-1.926-.765-1.007-.807-2.43-1.111-2.523-.296-.09-.482-.743-.542-1.554a7.39 7.39 0 01-.023-.566c0-.199.393-.5.454-.686a11.828 11.828 0 01-.107-1.814c.026-1.14.228-1.845.29-2.036.018-.016.033-.035.05-.051.604.229 1.027.026 1.276-.07a10.432 10.432 0 011.931-.563c2.384-.423 2.648.859 2.673 1.232 2.521-.171 1.962 3.384 1.989 3.26a7.077 7.077 0 00-.002.097c.04.185.47.464.47.669 0 .185-.008.355-.021.528z"/></svg>