<svg xmlns="http://www.w3.org/2000/svg" viewBox="0 0 16 16"><path d="M4 1H2a1 1 0 00-1 1v2a1 1 0 001 1h2a1 1 0 001-1V2a1 1 0 00-1-1zm5 0H7a1 1 0 00-1 1v2a1 1 0 001 1h2a1 1 0 001-1V2a1 1 0 00-1-1zm5 0h-2a1 1 0 00-1 1v2a1 1 0 001 1h2a1 1 0 001-1V2a1 1 0 00-1-1zM4 6H2a1 1 0 00-1 1v2a1 1 0 001 1h2a1 1 0 001-1V7a1 1 0 00-1-1zm5 0H7a1 1 0 00-1 1v2a1 1 0 001 1h2a1 1 0 001-1V7a1 1 0 00-1-1zm5 0h-2a1 1 0 00-1 1v2a1 1 0 001 1h2a1 1 0 001-1V7a1 1 0 00-1-1zM4 11H2a1 1 0 00-1 1v2a1 1 0 001 1h2a1 1 0 001-1v-2a1 1 0 00-1-1zm5 0H7a1 1 0 00-1 1v2a1 1 0 001 1h2a1 1 0 001-1v-2a1 1 0 00-1-1zm5 0h-2a1 1 0 00-1 1v2a1 1 0 001 1h2a1 1 0 001-1v-2a1 1 0 00-1-1z"/></svg>