<svg xmlns="http://www.w3.org/2000/svg" viewBox="0 0 16 16"><path d="M15.709 7.299L8.701.291a.99.99 0 00-1.402 0L.29 7.299a.992.992 0 000 1.402l7.009 7.009a.992.992 0 001.402 0l7.009-7.009a.992.992 0 00-.001-1.402zM8 13.606L2.394 7.999l2.628-2.628 1.396 1.4.02.02c.343.334.92.593 1.322.258a.857.857 0 00.32-.5c.005-.025.005-.137.002-.166a1.6 1.6 0 01.451-1.227c.611-.611 1.614-.591 2.246.031.621.631.652 1.625.04 2.235-.24.231-.521.372-.831.412-.131.027-.26.023-.39.009a.667.667 0 00-.142 0c-.241.04-.404.21-.508.335-.344.414-.089 1.01.236 1.361l.021.021 1.422 1.42L8 13.606z"/></svg>