<svg xmlns="http://www.w3.org/2000/svg" viewBox="0 0 16 16"><path d="M8 1.1c-3.811 0-6.9 3.077-6.9 6.874 0 3.797 3.089 6.927 6.9 6.927 3.81 0 6.9-3.13 6.9-6.928S11.81 1.1 8 1.1zm0 12.563c-3.127 0-5.662-2.568-5.662-5.684S4.873 2.338 8 2.338c3.126 0 5.662 2.524 5.662 5.64 0 3.116-2.536 5.685-5.662 5.685z"/><path d="M8 11.646c-1.68 0-3.235-.92-4.059-2.4a.5.5 0 11.873-.486C5.462 9.924 6.683 10.646 8 10.646s2.538-.723 3.186-1.887a.5.5 0 01.874.486A4.654 4.654 0 018 11.646z"/><circle cx="5.5" cy="6.25" r="1"/><circle cx="10.5" cy="6.25" r="1"/></svg>