<svg xmlns="http://www.w3.org/2000/svg" viewBox="0 0 16 16"><path d="M8 1.1a6.9 6.9 0 100 13.8A6.9 6.9 0 008 1.1zm4.401 9.87l-.311.349c-.362.363-.834.618-1.244.683-1.013.163-2.956-.433-4.651-2.128a.242.242 0 00-.007-.011.07.07 0 01-.009-.007C4.483 8.161 3.888 6.219 4.05 5.205c.065-.409.321-.881.683-1.244l.311-.349a.5.5 0 01.706-.017l1.379 1.379a.502.502 0 01-.015.707l-.196.196-.12.118-.154.151c-.533.534-.553 1.376-.046 1.885L7.747 9.18l.231.229c.509.507 1.351.487 1.884-.044l.275-.271.195-.194a.506.506 0 01.707-.018l1.379 1.38a.504.504 0 01-.017.708z"/></svg>