<svg xmlns="http://www.w3.org/2000/svg" viewBox="0 0 16 16"><path d="M9.054 13.444A1.97 1.97 0 019 13v-1.089c-.317.057-.65.089-1 .089-3.408 0-5.258-2.919-5.825-4C2.744 6.917 4.592 4 8 4c3.404 0 5.256 2.918 5.824 4a9.32 9.32 0 01-.614.984H15c.164 0 .321.041.474.078l.026.004c.205-.375.315-.629.335-.675L16 8l-.165-.392C15.739 7.38 13.413 2 8 2 2.581 2 .261 7.38.165 7.609L0 8l.165.391C.261 8.62 2.581 14 8 14c.426 0 .83-.037 1.217-.098-.007-.015-.01-.031-.017-.046a1.96 1.96 0 01-.112-.303c-.011-.036-.026-.071-.034-.109z"/><path d="M10.921 8A2.92 2.92 0 108 10.921c.359 0 .702-.068 1.021-.188l.003-.042c.03-.204.099-.395.188-.572l.026-.057c.09-.168.206-.318.338-.453l.055-.056a2.054 2.054 0 011.079-.526c.009-.002.016-.007.024-.008.119-.317.187-.66.187-1.019zM15 10h-4a1 1 0 00-1 1v2a1 1 0 001 1h1v1.5l1.5-1.5H15a1 1 0 001-1v-2a1 1 0 00-1-1z"/></svg>