<svg xmlns="http://www.w3.org/2000/svg" viewBox="0 0 16 16"><path d="M15 8h-5l-.628-.553C9.102 7.195 8.82 7 8.508 7H6a1 1 0 00-.999.961L5 8v7a1 1 0 001 1h9a1 1 0 001-1V9a1 1 0 00-1-1zm-2-4l1.5 3L16 4h-1V2a1 1 0 00-1-1h-1v1h1v2h-1z"/><path d="M11 0H1a1 1 0 00-1 1v10a1 1 0 001 1h3V9.533c-.203.267-.51.45-.871.45a1.113 1.113 0 01-.002-2.226c.364 0 .623.185.873.455v-.328c0-.447.198-.854.476-1.178A4.092 4.092 0 002 5.861V4.422c1.507 0 2.874.603 3.879 1.578h1.879A7.014 7.014 0 002 2.982V1.543c3.367 0 6.272 1.983 7.632 4.84.16.11.307.226.422.333l.323.284H12V1a1 1 0 00-1-1z"/></svg>