<svg xmlns="http://www.w3.org/2000/svg" viewBox="0 0 16 16"><path d="M13.449 5H13v2h.449c.276 0 .551.214.551.49v4c0 .276-.275.51-.551.51H6.45c-.275 0-.45-.234-.45-.51V11h3.45C10.828 11 12 9.869 12 8.49v-4C12 3.112 10.828 2 9.45 2h-7C1.072 2 0 3.112 0 4.49v4C0 9.869 1.072 11 2.45 11H3V9h-.55C2.175 9 2 8.766 2 8.49v-4c0-.276.175-.49.45-.49h7c.276 0 .55.214.55.49V5H6.45C5.071 5 4 6.112 4 7.49v4C4 12.869 5.071 14 6.45 14h6.999C14.828 14 16 12.869 16 11.49v-4C16 6.112 14.828 5 13.449 5zM6 8.49v-1c0-.276.224-.49.5-.49H10v1.49a.51.51 0 01-.5.51H6v-.51z"/></svg>