<svg xmlns="http://www.w3.org/2000/svg" viewBox="0 0 16 16"><path d="M15.376 13.181c-.278-.16-.939-.328-.994-1.492-.251.205-.222 1.289.476 1.504.778.24 1.267.644-.184 1.097-.957.302-1.12.396-1.878.976-.767.586-1.905.354-1.706-.883.103-.645.162-1.176-.012-1.736-.085-.273-.128-.625-.07-.871.114-.478.396-.623.671-.162.174.287.234.625.855.652.973.043 1.167-.865 1.479-.906.208-.028.416-.569.258-1.443-.17-.938-.769-2.415-1.538-3.165-.638-.624-1.041-1.17-1.293-1.95a6.078 6.078 0 01-.288-1.901c0-.887-.252-1.89-1.01-2.407-.476-.323-1.221-.497-1.896-.49-.377.001-.732.052-1.007.188-1.124.561-1.448 1.365-1.432 2.279.016.86.047 1.842.154 2.774-.126.429-.781 1.24-1.2 1.736-.564.512-.849 1.502-1.215 2.368-.194.461-.522.668-.55 1.262-.007.166-.001.595.172.472.659-.47 1.485.713 2.731 2.519.239.346 1.081 1.803-.396 1.99-.493.062-1.289-.264-2.059-.438-.691-.155-1.395-.247-1.789-.35-.236-.061-.334-.139-.355-.229-.055-.242.287-.581.305-.867s-.113-.435-.221-.668-.135-.41-.05-.511c.067-.077.204-.11.424-.09.28.024.619-.027.8-.129.307-.173.45-.523.312-.947 0 .414-.148.572-.519.761-.349.178-.889.033-1.137.231-.299.238.107.853.073 1.304-.024.347-.418.737-.243 1.085.177.35 1 .387 1.858.553 1.22.234 1.931.643 2.495.662.823.027.948-.748 2.239-.759a29.99 29.99 0 011.112-.033c.417-.005.835-.001 1.261.008.86.019.561.441 1.122.694.423.19 1.315.135 1.518-.043.273-.239 1.008-.816 1.571-1.078.705-.326 2.352-.886 1.156-1.567zm-4.907-8.41c.069-.067.106.115.292.225.149.085.293.021.331.196.026.125-.059.261-.172.243-.199-.031-.657-.466-.451-.664zM9.322 1.205c.032-.087-.064-.28.131-.291.075-.004.152.059.234.128.079.07.213.119.194.162-.041.098-.266.075-.315.091-.188.062-.24.227-.333.157-.091-.068.054-.15.089-.247zM4.664 7.868c.08-.127.064-.285.148-.262.083.022.037.111-.02.256-.048.125-.189.234-.24.228-.132-.015.039-.107.112-.222zm6.254 5.624c-.043.5-.192.993-.277 1.495-.288-.01-.261-.203-.167-.475.081-.238.212-.539.221-.826.007-.262-.024-.425-.095-.465-.072-.041-.184.041-.339.271-.328.487-1.044.702-1.712.78-.666.076-1.287.016-1.614-.322-.113-.116-.3.031-.321.062-.029.041.107.121.212.298.154.256.298.646-.062.824.004-.904-.307-.958-.627-1.51.623-.059.705-.665.412-.93-.241-.217-1.574-1.127-1.922-1.484-.162-.166-.38-.248-.472-.434-.213-.43-.363-1.043-.092-1.481.049-.08.081-.044.042.122-.212.938.453 1.705.6 1.312.101-.271.007-.758.061-1.144.096-.685.771-1.997 1.068-2.071-.458-.779.537-1.39.524-2.074-.007-.445.425.547.86.758.489.235 1.022-.444 1.782-.787.213-.098.489-.21.471-.293-.09-.4-.996.494-1.807.524-.371.014-.509-.066-.65-.193-.432-.384.044-.064.685-.171.285-.047.381-.09.684-.203.305-.113.649-.279.992-.365.239-.06.219-.225.127-.273-.054-.03-.133-.027-.195.073-.147.234-.84.369-1.055.43a3.04 3.04 0 01-.992.135c-.618-.023-.473-.284-.916-.516-.131-.07-.094-.248.078-.408.09-.083.338-.13.461-.319.017-.025.175-.178.3-.257.042-.027.045-.721-.343-.736-.328-.012-.422.223-.408.456.013.234.148.428.238.426.174-.001.012.175-.084.202-.144.043-.318-.52-.318-.791 0-.396.184-.78.57-.771.351.008.604.411.59 1.105-.002.118.568-.056.759.129.134.133-.449-1.322.873-1.324.353 0 .688.169.83.914.021.264.088.597-.13.658-.266.076-.43-.01-.277-.241.105-.235.003-.828-.535-.792-.537.034-.466.911-.318.928.147.017.519.259.777.306.85.152.226.601.335 1.143.125.611.564.45.958 2.071.083.099.409.192.727 1.438.286 1.121-.118 1.936.57 1.869.154-.016.381-.056.479-.373.258-.83-.128-1.819-.519-2.486-.227-.389-.44-.654-.556-.745.448.243 1.019 1.021 1.15 1.597.174.756.299 1.077.034 1.877.152.07.529.217.529.383-.391-.297-1.592-.35-1.623.359-.205.004-.359.02-.491.163-.48.527-.033 1.584-.082 2.152zM6.846 3.147c-.063.012-.076-.145.043-.117.051.012.176.175.136.396-.006.029-.021.031-.036.031-.084 0-.094-.07-.071-.181.017-.08-.035-.135-.072-.129zm2.519.137c-.001.03-.104.062-.104.049-.016-.134-.092-.259-.17-.28-.061-.017-.095-.073.028-.083.051-.004.252.098.246.314z"/></svg>