<svg xmlns="http://www.w3.org/2000/svg" viewBox="0 0 16 16"><path d="M12.203 9.719c-.29-.285-.77-.273-1.07.025l-.295.295-.417.41c-.808.807-2.084.836-2.854.068l-.349-.347-1.74-1.74c-.769-.772-.738-2.047.069-2.856l.235-.229.181-.18.295-.297c.301-.301.311-.781.023-1.07L4.192 1.711c-.288-.287-.766-.277-1.069.025l-.47.529c-.549.549-.936 1.264-1.035 1.883-.246 1.535.655 4.477 3.224 7.045l.014.012c.003.004.007.01.012.014 2.568 2.568 5.511 3.471 7.045 3.225.619-.098 1.335-.486 1.883-1.033l.472-.531c.301-.303.312-.781.023-1.07l-2.088-2.091z"/><path d="M12.203 9.719c-.29-.285-.77-.273-1.07.025l-.295.295-.417.41c-.808.807-2.084.836-2.854.068l-.349-.347-1.74-1.74c-.769-.772-.738-2.047.069-2.856l.235-.229.181-.18.295-.297c.301-.301.311-.781.023-1.07L4.192 1.711c-.288-.287-.766-.277-1.069.025l-.47.529c-.549.549-.936 1.264-1.035 1.883-.246 1.535.655 4.477 3.224 7.045l.014.012c.003.004.007.01.012.014 2.568 2.568 5.511 3.471 7.045 3.225.619-.098 1.335-.486 1.883-1.033l.472-.531c.301-.303.312-.781.023-1.07l-2.088-2.091z"/><path d="M13.221 2.906c-.326-1.742-1.341-1.842-1.652-1.84h-.139c-.311-.002-1.326.098-1.652 1.84 0 0-.404 2.125-1.779 2.135V6h7v-.959c-1.374-.01-1.778-2.135-1.778-2.135zM11.5 8.199c.668 0 1.209-.535 1.223-1.199h-2.445A1.222 1.222 0 0011.5 8.199z"/></svg>