<svg xmlns="http://www.w3.org/2000/svg" viewBox="0 0 16 16"><path d="M5.705 5.833c.216.07.246 1.119.787 1.861.425.578 1.025 1.308 1.713 1.42.081.017.507.017.588 0 .689-.112 1.289-.843 1.713-1.42.546-.744.573-1.792.789-1.861.256-.082.4-.76.4-1.541 0-.151-.305-.363-.333-.5l.002-.019C11.238 2.405 10.023 1 8.537 1h-.074C6.977 1 5.761 2.405 5.635 3.773c-.002.003.001.012.001.016-.029.136-.331.349-.331.501 0 .78.144 1.461.4 1.543zm9.004 6.326c-.369-.355-2.404-.796-3.855-1.862-.279-.229-.561-.945-.561-.945L8.5 10.587 6.707 9.354s-.281.713-.561.942c-1.451 1.065-3.486 1.508-3.855 1.863C1.619 12.81 1.377 14 1.271 15h14.457c-.105-1-.347-2.19-1.019-2.841zM4.584 6.729c-.45-.484-.68-1.299-.68-2.434 0-.05-.005.047.007-.146.012-.191.122-.27.159-.316.037-.046-.008-.073-.008-.073a1.945 1.945 0 00-.539-.098h-.046c-.928 0-1.688.864-1.766 1.719-.002.001 0 0 0 .003-.018.085-.207.216-.207.31 0 .488.091.909.25.96.135.043.154.698.492 1.162.266.361.641.817 1.069.887.051.011.317.011.367 0 .431-.07.806-.526 1.07-.887.046-.062.086-.128.121-.194-.134-.33-.22-.64-.286-.882-.001-.004-.001-.008-.003-.011zm-1.722 3.63c.61-.232 1.409-.537 2.081-.943-.165-.164-.323-.563-.323-.563l-1.12.771-1.12-.77s-.185.445-.358.589c-.66.483-1.522.76-2.022.961V13h.25c.248-.75.597-1.383 1.067-1.839.354-.34.829-.528 1.545-.802z"/></svg>