<svg xmlns="http://www.w3.org/2000/svg" viewBox="0 0 16 16"><path d="M8.5 10H10a1 1 0 001-1V7a1 1 0 00-1-1H6a1 1 0 00-.998.941C5 6.961 5 6.98 5 7v2a1 1 0 001 1h1v1.5L8.5 10z"/><path d="M5.122 3.226c2.462-1.5 5.604-.842 7.315 1.407l.361.468-1.187.721c.176.24.3.521.354.825l4.025 2.141-.004-5.64-1.576 1.004-.365-.497C11.8.527 7.494-.397 4.154 1.634a7.386 7.386 0 00-3.088 3.738l1.688.859c.404-1.208 1.195-2.292 2.368-3.005zm5.774 9.55c-2.463 1.498-5.606.842-7.315-1.407l-.357-.474 1.171-.71a1.961 1.961 0 01-.361-.84L.008 7.204l.02 5.65 1.596-.993.346.484c2.246 3.129 6.552 4.053 9.893 2.02a7.392 7.392 0 003.087-3.737l-1.69-.857c-.402 1.206-1.192 2.291-2.364 3.005z"/></svg>