<svg xmlns="http://www.w3.org/2000/svg" viewBox="0 0 16 16"><path d="M8.497 10.585l.003.002.003-.003-.003-.028zM5.705 5.833c.11.036.173.327.279.701.041.145.087.3.147.46v.001c.02.054.042.107.064.161l.015.032c.02.048.043.096.066.144l.015.028c.03.06.063.118.098.177l4.714-4.722a3.365 3.365 0 00-.556-.846c-.466-.52-1.093-.891-1.792-.956A1.978 1.978 0 008.537 1h-.074c-.073 0-.146.005-.218.013-1.385.129-2.491 1.46-2.61 2.761-.002.002.001.011.001.015-.028.136-.331.349-.331.5 0 .781.144 1.462.4 1.544zm5.149 4.464c-.279-.229-.561-.945-.561-.945l-1.79 1.232.003.026c1.01.007 1.475.469 1.306.779-.205.25-.777.672-1.12.823L9.5 15h6.229c-.105-1-.348-2.19-1.02-2.841-.369-.355-2.404-.796-3.855-1.862z"/><path d="M8.231 9.117c.055.007.16.01.269.01.127 0 .254-.004.295-.013.688-.112 1.288-.843 1.713-1.42.077-.106.143-.218.202-.333l.014-.028c.023-.048.046-.096.066-.144l.015-.033c.022-.054.044-.107.064-.161v-.001c.102-.273.168-.537.227-.745l4.591-4.598a.494.494 0 10-.692-.707L1.317 14.624l-.34.34a.502.502 0 00.709.708L2.358 15H7.5l.813-2.784c-.343-.148-.919-.576-1.126-.826-.169-.311.295-.772 1.307-.779l.003-.025-1.026-.707.76-.762z"/></svg>