<svg xmlns="http://www.w3.org/2000/svg" viewBox="0 0 24 24"><path d="M16.5 1.6c.6 0 1 .5 1 1s-.5 1-1 1h-.1c-.6 0-1-.5-1-1.1 0-.2.1-.5.3-.7.3-.1.5-.2.8-.2m0-1.3c-1.3 0-2.4 1.1-2.4 2.4 0 1.3 1 2.3 2.3 2.4h.1c1.3 0 2.4-1.1 2.4-2.4 0-1.4-1.1-2.4-2.4-2.4zm-1.6 16.6c1.3 0 2.4 1.1 2.4 2.4 0 1.3-1.1 2.4-2.4 2.4h-2.6c-1.3 0-2.4-1.1-2.4-2.4 0-1.3 1.1-2.4 2.4-2.4h2.6m0-1.6h-2.6c-2.2 0-4 1.8-4 4s1.8 4 4 4h2.6c2.2 0 4-1.8 4-4s-1.8-4-4-4zm0-7.7c1.3 0 2.4 1.1 2.4 2.4s-1.1 2.4-2.4 2.4H8.8c-1.3 0-2.4-1.1-2.4-2.4s1.1-2.4 2.4-2.4h6.1m0-1.5H8.8c-2.2 0-4 1.8-4 4s1.8 4 4 4h6.1c2.2 0 4-1.8 4-4s-1.8-4-4-4z"/></svg>