<svg xmlns="http://www.w3.org/2000/svg" viewBox="0 0 16 16"><path d="M8 1.098A6.9 6.9 0 108.002 14.9 6.9 6.9 0 008 1.098zm4.401 9.869l-.312.35c-.361.363-.834.617-1.243.684-1.013.162-2.956-.434-4.651-2.129l-.008-.01c-.002-.002-.005-.007-.008-.008-1.696-1.695-2.291-3.637-2.128-4.65.064-.41.32-.881.682-1.244l.311-.35c.2-.2.515-.206.705-.016l1.38 1.379a.503.503 0 01-.016.707l-.195.195-.119.117-.155.153c-.533.533-.553 1.375-.046 1.884l1.148 1.148.231.229c.509.508 1.351.488 1.884-.043l.275-.271.195-.195a.505.505 0 01.706-.018l1.379 1.381a.5.5 0 01-.015.707z"/></svg>