<svg xmlns="http://www.w3.org/2000/svg" viewBox="0 0 16 16"><path d="M9 2a1 1 0 01-2 0V1a1 1 0 012 0v1zm4 6a1 1 0 001 1h1a1 1 0 000-2h-1a1 1 0 00-1 1M3 8a1 1 0 01-1 1H1a1 1 0 010-2h1a1 1 0 011 1m6 7a1 1 0 01-2 0v-1a1 1 0 012 0v1zm3.949-10.536a.999.999 0 11-1.414-1.414l.707-.707a1 1 0 011.414 1.414l-.707.707zm-1.414 7.072a1 1 0 000 1.414l.707.707a1.001 1.001 0 001.414-1.414l-.707-.707a1 1 0 00-1.414 0m-7.07-7.071a1 1 0 01-1.414-.001l-.707-.707a.999.999 0 111.414-1.414l.707.707c.389.39.39 1.025 0 1.415m-.707 9.192a1 1 0 01-1.414-1.414l.707-.707a.999.999 0 111.414 1.414l-.707.707zM8 4.1a3.9 3.9 0 100 7.8 3.9 3.9 0 000-7.8"/></svg>