<svg data-name="Layer 1" xmlns="http://www.w3.org/2000/svg" viewBox="0 0 32 32"><path d="M2.87 14.61l12.63 5.68a1.31 1.31 0 00.44.11h.11a1.62 1.62 0 00.5-.11l12.63-6.12a1 1 0 00.61-1 1.15 1.15 0 00-.66-1L16.5 6.5a.78.78 0 00-.5-.05.82.82 0 00-.5.11L2.81 12.62a1 1 0 00-.61 1 1.15 1.15 0 00.66 1zM16 18.14L5.9 13.56 16 8.65l10.1 4.58z"/><path d="M29.13 19l-6.9-3.37a1.09 1.09 0 00-1.43.5 1 1 0 00.5 1.43L26.1 20 16 24.54 5.85 20 10 18a1 1 0 00.5-1.43A1.11 1.11 0 009.05 16l-6.23 3a1 1 0 00-.61 1 1.09 1.09 0 00.66 1l12.63 5.68a1.31 1.31 0 00.44.11h.11a1.29 1.29 0 00.44-.11L29.13 21a1.08 1.08 0 000-2z"/></svg>