<svg data-name="Layer 1" xmlns="http://www.w3.org/2000/svg" viewBox="0 0 32 32"><path d="M16 24.11c-4.25 0-6.45-2-7.56-3.7a1.16 1.16 0 011.93-1.27q1.74 2.65 5.63 2.65c2.65 0 4.52-.83 5.57-2.54a1.16 1.16 0 111.93 1.27c-1.1 1.66-3.25 3.59-7.5 3.59z"/><path d="M16 28.85a1.17 1.17 0 01-1.16-1.16V23a1.16 1.16 0 112.32 0v4.7A1.2 1.2 0 0116 28.85z"/><path d="M20.33 29.79h-8.67a1.17 1.17 0 01-1.16-1.16 1.13 1.13 0 011.16-1.16h8.66a1.16 1.16 0 010 2.32zm-4.2-27.58h-1.38c-2 0-3.2 1.54-3.2 3.59v2.48h3.7a.78.78 0 01.83.83.78.78 0 01-.83.83h-3.7v2.76h3.7a.83.83 0 010 1.66h-3.7v1.88a3.77 3.77 0 003.75 3.64h1.38c2 0 3.15-1.6 3.15-3.64V5.74a3.63 3.63 0 00-3.7-3.53z"/></svg>