<svg data-name="Layer 1" xmlns="http://www.w3.org/2000/svg" viewBox="0 0 32 32"><path d="M25.38 9.74h1.44a4.17 4.17 0 100-8.34H7.28c-2.21 0-5.19 1.71-5.73 3.91-1 3.85.82 7.56 2.57 11.15a29.09 29.09 0 012.36 5.8H5.17a4.17 4.17 0 100 8.34h19.52a4.16 4.16 0 00.76-.08l.23-.06c2-.43 4.18-1.92 4.63-3.77 1-3.85-.82-7.56-2.57-11.15a29.68 29.68 0 01-2.36-5.8zM19.71 8.1c.18 3 1.81 6 3.26 9h-2.88c-1.44-3-3.08-6-3.26-9zm-2.22 9H10c-.46-1-.94-1.92-1.39-2.88h7.53c.4.93.86 1.88 1.35 2.84zm-3.26-8.95a12.07 12.07 0 00.59 2.85H7.29a12.06 12.06 0 01-.58-2.88zM5.17 28.52a2.09 2.09 0 110-4.17h16.36a3.87 3.87 0 00.1 4.17zm6.75-6.26a15.62 15.62 0 00-.59-2h13a15.63 15.63 0 01.59 2zM26.24 3.7h.53a2 2 0 010 4h-1.62a7.56 7.56 0 011.09-4z"/></svg>