<svg data-name="Layer 1" xmlns="http://www.w3.org/2000/svg" viewBox="0 0 32 32"><path d="M14.85 25.5a1.11 1.11 0 01-1.1 1.1 1.14 1.14 0 01-.8-.3L7 20.5H2.45a1.11 1.11 0 01-1.1-1.1v-6.7a1.11 1.11 0 011.1-1.1H7l6-5.8a1.14 1.14 0 01.8-.3 1.11 1.11 0 011.1 1.1zm4-5.4a.6.6 0 01-.4.1 1.11 1.11 0 01-1.1-1.1c0-1.3 2.1-1 2.1-3.1s-2.1-1.7-2.1-3.1a1.11 1.11 0 011.1-1.1.6.6 0 01.4.1 4.25 4.25 0 012.7 4.1 4.35 4.35 0 01-2.7 4.1zm1.8 4.1a.6.6 0 01-.4.1A1.2 1.2 0 0119 23.2a1.09 1.09 0 01.7-1 5.67 5.67 0 001.3-.8 6.61 6.61 0 000-10.8c-.4-.3-.9-.5-1.3-.8a1.09 1.09 0 01-.7-1 1.11 1.11 0 011.1-1.1.9.9 0 01.5.1 9 9 0 015.5 8.2 8.89 8.89 0 01-5.45 8.2zm1.8 4.1a.75.75 0 01-.5.1 1.11 1.11 0 01-1.1-1.1 1.09 1.09 0 01.7-1 5.9 5.9 0 00.8-.4l1.5-.9a11.1 11.1 0 000-18l-1.5-.9a3 3 0 01-.8-.4 1.09 1.09 0 01-.7-1A1.11 1.11 0 0122 3.6a.9.9 0 01.5.1 13.33 13.33 0 010 24.6z"/></svg>