<svg data-name="Layer 1" xmlns="http://www.w3.org/2000/svg" viewBox="0 0 32 32"><path d="M16 2.21A13.79 13.79 0 1029.79 16 13.79 13.79 0 0016 2.21zm-1 5h2.06v8.07c0 .35 0 .7-.05 1.05s-.05.71-.09 1.08-.08.77-.13 1.19H15.3q-.07-.63-.13-1.19t-.09-1.08q0-.53-.05-1.05t0-1.07zm2.4 16.69a1.49 1.49 0 01-.32.48 1.47 1.47 0 01-.49.32 1.59 1.59 0 01-1.19 0 1.4 1.4 0 01-.48-.32 1.57 1.57 0 010-2.17 1.51 1.51 0 011.68-.33 1.56 1.56 0 01.49.33 1.49 1.49 0 01.32.49 1.55 1.55 0 01.12.6 1.53 1.53 0 01-.13.6z"/></svg>