<svg viewBox="0 0 16 16" xmlns="http://www.w3.org/2000/svg"><path d="M8 0C3.59 0 0 3.59 0 8C0 12.41 3.59 16 8 16C12.41 16 16 12.41 16 8C16 3.59 12.41 0 8 0ZM8 14.5C7.28 14.5 6.36 13.31 5.86 11.25H10.13C9.64 13.31 8.72 14.5 8 14.5ZM5.61 9.75C5.54 9.2 5.5 8.62 5.5 8C5.5 7.38 5.54 6.8 5.6 6.25H8.49C8.9 6.25 9.24 5.91 9.24 5.5C9.24 5.09 8.91 4.75 8.49 4.75H5.86C6.36 2.68 7.28 1.5 8 1.5C9.04 1.5 10.5 3.97 10.5 8C10.5 8.62 10.46 9.2 10.4 9.75H5.61ZM1.5 8C1.5 7.39 1.59 6.81 1.75 6.25H4.1C4.04 6.81 4 7.39 4 8C4 8.6 4.04 9.19 4.09 9.75H1.75C1.59 9.19 1.5 8.6 1.5 8ZM11.91 6.25H14.26C14.41 6.81 14.5 7.39 14.5 8C14.5 8.61 14.41 9.19 14.25 9.75H11.9C11.96 9.19 12 8.6 12 8C12 7.39 11.96 6.81 11.91 6.25ZM13.62 4.75H11.67C11.46 3.74 11.15 2.85 10.76 2.12C11.96 2.69 12.96 3.61 13.62 4.75ZM5.24 2.12C4.85 2.85 4.54 3.74 4.33 4.75H2.38C3.04 3.61 4.04 2.69 5.24 2.12ZM2.38 11.25H4.33C4.54 12.26 4.85 13.15 5.24 13.88C4.04 13.31 3.04 12.39 2.38 11.25ZM10.76 13.87C11.15 13.14 11.46 12.25 11.67 11.24H13.62C12.96 12.39 11.96 13.31 10.76 13.87Z"/></svg>