<svg data-name="Layer 1" xmlns="http://www.w3.org/2000/svg" viewBox="0 0 32 32"><title>add-user</title><path d="M13.1 17.55a6.91 6.91 0 0 0 6.9-6.9v-1.9a6.3 6.3 0 0 0-6.2-6.5h-1.2a6.69 6.69 0 0 0-6.5 6.5v1.9a7.07 7.07 0 0 0 7 6.9zM19.6 27.85c-.1-.3-.4-.4-.7-.5A3.35 3.35 0 0 1 15.5 24a2.12 2.12 0 0 1 .9-2 .75.75 0 0 0 .2-1l-.3-.7a.73.73 0 0 0-1-.4 7.83 7.83 0 0 1-5.2-.2l-.1-.1a.37.37 0 0 0-.3-.1c-4.4 0-7.4 2.8-7.4 6.7v2.1c0 .5.3.3.7.3h16c.3 0 .6.1.7-.1a.82.82 0 0 0 .1-.7zM28.6 22.65h-3.7V19a1.1 1.1 0 0 0-2.2 0v3.6h-3.4a1.1 1.1 0 1 0 0 2.2h3.4v3.8a1.1 1.1 0 0 0 2.2 0v-3.8h3.7a1.1 1.1 0 0 0 0-2.2z"/></svg>