<svg data-name="Layer 1" xmlns="http://www.w3.org/2000/svg" viewBox="0 0 32 32"><title>apps-alpha</title><path d="M12.57 16.29H4.72A3.72 3.72 0 0 1 1 12.57V4.72A3.72 3.72 0 0 1 4.72 1h7.85a3.72 3.72 0 0 1 3.71 3.71v7.85a3.72 3.72 0 0 1-3.71 3.73zm-7.85-13a1.43 1.43 0 0 0-1.43 1.43v7.85A1.43 1.43 0 0 0 4.72 14h7.85A1.43 1.43 0 0 0 14 12.57V4.72a1.43 1.43 0 0 0-1.43-1.43zM24.86 16.29h-3.93a2.43 2.43 0 0 1-2.43-2.43V9.93a2.43 2.43 0 0 1 2.43-2.43h3.93a2.43 2.43 0 0 1 2.43 2.43v3.93a2.43 2.43 0 0 1-2.43 2.43zm-3.93-6.5a.15.15 0 0 0-.15.15v3.93a.15.15 0 0 0 .15.15h3.93a.15.15 0 0 0 .15-.15V9.93a.15.15 0 0 0-.15-.15zM13.5 29.08h-5a2.78 2.78 0 0 1-2.79-2.78v-5a2.78 2.78 0 0 1 2.78-2.78h5a2.78 2.78 0 0 1 2.78 2.78v5a2.78 2.78 0 0 1-2.77 2.78zm-5-8.29a.5.5 0 0 0-.5.5v5a.5.5 0 0 0 .5.5h5a.5.5 0 0 0 .5-.5v-5a.5.5 0 0 0-.5-.5zM27.83 31h-6.16a3.16 3.16 0 0 1-3.16-3.16v-6.17a3.16 3.16 0 0 1 3.16-3.16h6.17A3.16 3.16 0 0 1 31 21.67v6.17A3.16 3.16 0 0 1 27.83 31zm-6.16-10.21a.88.88 0 0 0-.88.88v6.17a.88.88 0 0 0 .88.88h6.17a.88.88 0 0 0 .88-.88v-6.17a.88.88 0 0 0-.88-.88z"/></svg>