<svg data-name="Layer 1" xmlns="http://www.w3.org/2000/svg" viewBox="0 0 32 32"><title>arrow-right</title><path d="M15.33 2a2.2 2.2 0 0 1 1.62.67l11.72 11.7a2.3 2.3 0 0 1 .66 1.63 2.2 2.2 0 0 1-.66 1.62l-11.73 11.7a2.13 2.13 0 0 1-1.62.68 2.23 2.23 0 0 1-1.64-.68L12.35 28a2.3 2.3 0 0 1-.67-1.64 2.2 2.2 0 0 1 .67-1.62l5.28-5.28H5a2.21 2.21 0 0 1-1.62-.68 2.21 2.21 0 0 1-.68-1.62v-2.3a2.21 2.21 0 0 1 .68-1.62A2.21 2.21 0 0 1 5 12.55h12.63l-5.28-5.28a2.19 2.19 0 0 1-.67-1.62A2.29 2.29 0 0 1 12.35 4l1.35-1.35A2.3 2.3 0 0 1 15.33 2z"/></svg>