<svg data-name="Layer 1" xmlns="http://www.w3.org/2000/svg" viewBox="0 0 32 32"><title>arrow-down</title><path d="M30 15.33a2.2 2.2 0 0 1-.67 1.62L17.64 28.66a2.3 2.3 0 0 1-1.64.66 2.2 2.2 0 0 1-1.62-.66L2.68 16.94A2.13 2.13 0 0 1 2 15.33a2.23 2.23 0 0 1 .68-1.64L4 12.35a2.3 2.3 0 0 1 1.64-.67 2.2 2.2 0 0 1 1.62.67l5.28 5.28V5a2.21 2.21 0 0 1 .68-1.62 2.21 2.21 0 0 1 1.62-.68h2.3a2.21 2.21 0 0 1 1.62.68A2.21 2.21 0 0 1 19.45 5v12.63l5.28-5.28a2.19 2.19 0 0 1 1.62-.67 2.29 2.29 0 0 1 1.64.67l1.35 1.35a2.3 2.3 0 0 1 .66 1.63z"/></svg>