<svg data-name="Layer 1" xmlns="http://www.w3.org/2000/svg" viewBox="0 0 32 32"><title>assist</title><path d="M16 2.21A13.79 13.79 0 1 0 29.79 16 13.8 13.8 0 0 0 16 2.21zm11.53 13.24h-3.81a7.76 7.76 0 0 0-6.62-7.12V4.47a11.48 11.48 0 0 1 10.43 10.98zM16 21.57A5.57 5.57 0 1 1 21.57 16 5.56 5.56 0 0 1 16 21.57zm-1.1-17.1v3.86a7.71 7.71 0 0 0-6.62 7.12H4.47A11.48 11.48 0 0 1 14.9 4.47zM4.52 17.66h3.87a8 8 0 0 0 6.51 6v3.86a11.67 11.67 0 0 1-10.38-9.86zm12.58 9.87v-3.86a8.13 8.13 0 0 0 6.57-6h3.86a11.78 11.78 0 0 1-10.43 9.86z"/></svg>