<svg data-name="Layer 1" xmlns="http://www.w3.org/2000/svg" viewBox="0 0 32 32"><title>assist-off</title><path d="M29 11.25a1.13 1.13 0 0 0-1.43-.66 1.28 1.28 0 0 0-.66 1.55 11 11 0 0 1 .66 3.31h-4.9a1 1 0 0 0-1.1.94v.33c0 2.81-2.37 4.85-5.57 4.85a1.11 1.11 0 0 0-1.1 1.1v4.91a11.11 11.11 0 0 1-3.75-1 1.12 1.12 0 0 0-.94 2A15.73 15.73 0 0 0 16 29.79 13.8 13.8 0 0 0 29.79 16a14.08 14.08 0 0 0-.79-4.75zM17.1 27.53v-3.81c3.64-.44 6.34-2.76 6.62-6.07h3.75a11.67 11.67 0 0 1-10.37 9.88zM4.36 22.18a1.29 1.29 0 0 0 .44-.11.94.94 0 0 0 .55-1.32 9.88 9.88 0 0 1-.83-3.09h4.69a1.31 1.31 0 0 0 1-.88l.11-.33a.94.94 0 0 0 .06-.39A5.56 5.56 0 0 1 16 10.48a1.11 1.11 0 0 0 1.1-1.1V4.47a10.53 10.53 0 0 1 4.08 1.16 1.11 1.11 0 0 0 1-2A14.1 14.1 0 0 0 16 2.21 13.8 13.8 0 0 0 2.2 16a13.36 13.36 0 0 0 1.16 5.52 1.06 1.06 0 0 0 1 .66zM14.89 4.47v3.86a7.71 7.71 0 0 0-6.62 7.12h-3.8A11.48 11.48 0 0 1 14.89 4.47zM29.51 3.59A1.07 1.07 0 0 0 28 3.53L2.59 26.87a1.07 1.07 0 0 0-.06 1.55.9.9 0 0 0 .77.39 1.31 1.31 0 0 0 .77-.28L29.46 5.19a1.19 1.19 0 0 0 .06-1.6z"/></svg>