<svg data-name="Layer 1" xmlns="http://www.w3.org/2000/svg" viewBox="0 0 32 32"><title>bars</title><path d="M30 5.5v2.33A1.19 1.19 0 0 1 28.83 9H3.17a1.12 1.12 0 0 1-.82-.35A1.12 1.12 0 0 1 2 7.83V5.5a1.12 1.12 0 0 1 .35-.82 1.13 1.13 0 0 1 .82-.35h25.66A1.18 1.18 0 0 1 30 5.5zM30 14.83v2.33a1.18 1.18 0 0 1-1.17 1.16H3.17a1.12 1.12 0 0 1-.82-.32 1.12 1.12 0 0 1-.35-.83v-2.34a1.12 1.12 0 0 1 .35-.83 1.12 1.12 0 0 1 .82-.35h25.66A1.18 1.18 0 0 1 30 14.83zM30 24.17v2.33a1.18 1.18 0 0 1-1.17 1.17H3.17a1.13 1.13 0 0 1-.82-.35A1.12 1.12 0 0 1 2 26.5v-2.33a1.12 1.12 0 0 1 .35-.82 1.12 1.12 0 0 1 .82-.35h25.66A1.18 1.18 0 0 1 30 24.17z"/></svg>