<svg data-name="Layer 1" xmlns="http://www.w3.org/2000/svg" viewBox="0 0 32 32"><title>border-dotted</title><path d="M4.55 13h-3a1.49 1.49 0 0 0-1.49 1.49v3A1.49 1.49 0 0 0 1.54 19h3A1.49 1.49 0 0 0 6 17.5v-3A1.49 1.49 0 0 0 4.55 13zM13.22 13h-3a1.49 1.49 0 0 0-1.54 1.44v3.06a1.49 1.49 0 0 0 1.48 1.5h3a1.49 1.49 0 0 0 1.48-1.5v-3A1.49 1.49 0 0 0 13.2 13zM21.86 13h-3a1.49 1.49 0 0 0-1.54 1.44v3.06A1.49 1.49 0 0 0 18.8 19h3a1.49 1.49 0 0 0 1.52-1.46v-3A1.49 1.49 0 0 0 21.84 13zM30.53 13h-3A1.49 1.49 0 0 0 26 14.44v3.06a1.49 1.49 0 0 0 1.45 1.5h3a1.49 1.49 0 0 0 1.49-1.49v-3A1.49 1.49 0 0 0 30.47 13h.06z"/></svg>