<svg data-name="Layer 1" xmlns="http://www.w3.org/2000/svg" viewBox="0 0 32 32"><title>btn-group-choose</title><path d="M30.1 5.85a6.32 6.32 0 0 0-4.63-1.92H6.54a6.32 6.32 0 0 0-4.63 1.92A6.32 6.32 0 0 0 0 10.48v3.2a6.32 6.32 0 0 0 1.92 4.63 6.32 6.32 0 0 0 4.63 1.92h13.37l-.28-2.91h-2.39V6.84h8.21a3.65 3.65 0 0 1 3.64 3.64v3.2a3.69 3.69 0 0 1-.13 1l2.37 1.93a6.36 6.36 0 0 0 .66-2.93v-3.2a6.3 6.3 0 0 0-1.9-4.63zM14.75 17.32H6.54A3.5 3.5 0 0 1 4 16.25a3.5 3.5 0 0 1-1.1-2.57v-3.2A3.5 3.5 0 0 1 4 7.91a3.5 3.5 0 0 1 2.54-1.07h8.21v10.48zm16.82 1.88l-8.55-7a1.17 1.17 0 0 0-1.9 1l1.07 11a1.16 1.16 0 0 0 1.71.91l1.62-.87 1.71 3.19a1.16 1.16 0 0 0 1.58.48L31 26.77a1.16 1.16 0 0 0 .48-1.58L29.74 22l1.62-.87a1.14 1.14 0 0 0 .21-1.93z"/></svg>