<svg data-name="Layer 1" xmlns="http://www.w3.org/2000/svg" viewBox="0 0 32 32"><title>calendar-dots-month</title><path d="M24.5 16a2.5 2.5 0 1 1-2.5-2.5 2.5 2.5 0 0 1 2.5 2.5zM30.4 16a2.5 2.5 0 1 1-2.5-2.5 2.5 2.5 0 0 1 2.5 2.5zM18.5 16a2.5 2.5 0 1 1-2.5-2.5 2.5 2.5 0 0 1 2.5 2.5zM12.5 16a2.5 2.5 0 1 1-2.5-2.5 2.5 2.5 0 0 1 2.5 2.5zM6.6 16a2.5 2.5 0 1 1-2.5-2.5A2.5 2.5 0 0 1 6.6 16zM24.5 22a2.5 2.5 0 1 1-2.5-2.5 2.5 2.5 0 0 1 2.5 2.5zM18.5 22a2.5 2.5 0 1 1-2.5-2.5 2.5 2.5 0 0 1 2.5 2.5zM12.5 22a2.5 2.5 0 1 1-2.5-2.5 2.5 2.5 0 0 1 2.5 2.5zM6.6 22a2.5 2.5 0 1 1-2.5-2.5A2.5 2.5 0 0 1 6.6 22zM24.5 10A2.5 2.5 0 1 1 22 7.5a2.5 2.5 0 0 1 2.5 2.5zM30.4 10a2.5 2.5 0 1 1-2.5-2.5 2.5 2.5 0 0 1 2.5 2.5zM18.5 10A2.5 2.5 0 1 1 16 7.5a2.5 2.5 0 0 1 2.5 2.5zM12.5 10A2.5 2.5 0 1 1 10 7.5a2.5 2.5 0 0 1 2.5 2.5z"/></svg>