<svg data-name="Layer 1" xmlns="http://www.w3.org/2000/svg" viewBox="0 0 32 32"><title>calendar-days</title><path d="M29 8v20a2 2 0 0 1-2 2H5a1.92 1.92 0 0 1-1.41-.59A1.93 1.93 0 0 1 3 28V8a1.93 1.93 0 0 1 .59-1.41A1.93 1.93 0 0 1 5 6h2V4.5a2.41 2.41 0 0 1 .73-1.77A2.41 2.41 0 0 1 9.5 2h1a2.41 2.41 0 0 1 1.77.74A2.41 2.41 0 0 1 13 4.5V6h6V4.5a2.41 2.41 0 0 1 .73-1.77A2.41 2.41 0 0 1 21.5 2h1a2.41 2.41 0 0 1 1.77.74A2.41 2.41 0 0 1 25 4.5V6h2a2 2 0 0 1 2 2zM5 16.5h4.5V12H5zm0 6h4.5v-5H5zM5 28h4.5v-4.5H5zm6-19V4.5a.51.51 0 0 0-.5-.5h-1a.51.51 0 0 0-.5.5V9a.51.51 0 0 0 .5.5h1A.51.51 0 0 0 11 9zm-.5 7.5h5V12h-5zm0 6h5v-5h-5zm0 5.5h5v-4.5h-5zm6-11.5h5V12h-5zm0 6h5v-5h-5zm0 5.5h5v-4.5h-5zM23 9V4.5a.51.51 0 0 0-.5-.5h-1a.51.51 0 0 0-.5.5V9a.51.51 0 0 0 .5.5h1A.51.51 0 0 0 23 9zm-.5 7.5H27V12h-4.5zm0 6H27v-5h-4.5zm0 5.5H27v-4.5h-4.5z"/></svg>