<svg data-name="Layer 1" xmlns="http://www.w3.org/2000/svg" viewBox="0 0 32 32"><title>chat-off</title><path d="M29.57 5.9A1.12 1.12 0 0 0 28 5.79L2.54 22.95a1.12 1.12 0 0 0-.11 1.55 1 1 0 0 0 .83.39A1.16 1.16 0 0 0 4 24.6l1.77-1.16-.91 2.76a.53.53 0 0 0 .77.61l5.24-3a.43.43 0 0 1 .44-.06 14.41 14.41 0 0 0 4.69.83c6.45 0 11.64-4.36 11.64-9.77a8.68 8.68 0 0 0-1.66-5l3.48-2.37a1 1 0 0 0 .11-1.49zM22.62 6.84A13 13 0 0 0 16 5.13c-6.4 0-11.64 4.36-11.64 9.77a8.67 8.67 0 0 0 .88 3.7L22.62 6.84z"/></svg>