<svg viewBox="0 0 18 14.933" xmlns="http://www.w3.org/2000/svg"><defs><style>.chat-alert-muted{fill:#aaa;stroke:rgba(0,0,0,0)}.b{fill:red}</style></defs><path class="chat-alert-muted" d="M13.329 14.433a1.465 1.465 0 0 1-1.457-1.429h2.915a1.467 1.467 0 0 1-1.458 1.429zm-11.294-.216a.352.352 0 0 1-.227-.083.452.452 0 0 1-.156-.259v-.009a.116.116 0 0 1 0-.107.243.243 0 0 0 .018-.089c0-.012.01-.04.04-.085l.054-.08.04-.05.022-.027a50.006 50.006 0 0 1 .348-.388l.2-.218.051-.056.975 1.171c-.1.029-.2.056-.3.081a6.729 6.729 0 0 1-1.018.2zm1.79-.413L10.8 7.949l-.016.08c0 .021-.45 2.13-1.634 2.139h-.5v1.757H8.5a12.281 12.281 0 0 1-1.3-.072 9.734 9.734 0 0 1-3.375 1.951zM17.5 11.812H9.154v-1.143c1.622-.012 2.117-2.521 2.121-2.546a4.628 4.628 0 0 1 .2-.739l1.732-1.454h.215c.465 0 1.588.214 1.958 2.193 0 .025.5 2.534 2.119 2.546v1.142zM3.14 10.46a6.422 6.422 0 0 1-1.832-1.736A4.345 4.345 0 0 1 .5 6.214a4.279 4.279 0 0 1 .634-2.219A6.134 6.134 0 0 1 2.839 2.17 8.767 8.767 0 0 1 5.393.951 10.671 10.671 0 0 1 8.5.5a10.423 10.423 0 0 1 4.018.763 8.884 8.884 0 0 1 1 .489L3.141 10.46zm12.808-2.136a3.992 3.992 0 0 1-.075-.291A3.362 3.362 0 0 0 14.7 5.852a2.142 2.142 0 0 0-.928-.394l1.984-1.663a4.354 4.354 0 0 1 .744 2.419 4.3 4.3 0 0 1-.551 2.108z"/><path class="b" d="M2.284 11.831L15.307.904l1.285 1.532L3.57 13.363z"/></svg>