<svg xmlns="http://www.w3.org/2000/svg" viewBox="0 0 18 13.717"><defs><style>.chat-alert-1,.chat-alert-2{fill:#666}.chat-alert-3,.chat-alert-4{stroke:none}.chat-alert-4{fill:#fff}</style></defs><g id="Group_1" data-name="Group 1" transform="translate(-541 -278.571)"><path id="Path_30" data-name="Path 30" class="chat-alert-1" d="M14.929-8.585A4.453 4.453 0 0 1 16-5.714a4.453 4.453 0 0 1-1.071 2.871 7.236 7.236 0 0 1-2.911 2.08A10.379 10.379 0 0 1 8 0a12.212 12.212 0 0 1-1.295-.071A9.759 9.759 0 0 1 2.6 2.089a6.728 6.728 0 0 1-1.018.2.35.35 0 0 1-.272-.08.449.449 0 0 1-.156-.259v-.012a.118.118 0 0 1 0-.107.239.239 0 0 0 .018-.089q0-.018.04-.085l.054-.08q.009-.013.063-.076t.071-.08q.062-.071.277-.308l.301-.341q.094-.1.277-.353a3.629 3.629 0 0 0 .29-.455q.107-.205.241-.527a5.675 5.675 0 0 0 .232-.679 6.555 6.555 0 0 1-2.21-1.963A4.332 4.332 0 0 1 0-5.714a4.253 4.253 0 0 1 .634-2.219 6.09 6.09 0 0 1 1.705-1.826 8.69 8.69 0 0 1 2.554-1.219A10.617 10.617 0 0 1 8-11.429a10.379 10.379 0 0 1 4.018.763 7.236 7.236 0 0 1 2.911 2.081z" transform="translate(541 290)"/><g id="Path_29" data-name="Path 29" class="chat-alert-2"><path class="chat-alert-3" d="M16.845 7.449H7.499V5.309l.496-.004c1.188-.008 1.63-2.118 1.634-2.14.188-1.006.584-1.74 1.174-2.176.473-.35.955-.423 1.276-.423H12.265c.322 0 .804.073 1.277.423.59.437.986 1.17 1.174 2.179.004.019.446 2.129 1.632 2.137l.497.004V7.449z" transform="translate(541.655 282.934)"/><path class="chat-alert-4" d="M12.08 1.066c-.383 0-1.575.136-1.96 2.194 0 0-.482 2.533-2.121 2.545V6.95h8.346V5.805c-1.638-.012-2.12-2.545-2.12-2.545-.385-2.058-1.577-2.194-1.96-2.194H12.08m0-1H12.264c.559 0 2.418.217 2.942 3.006.108.543.544 1.729 1.145 1.733l.993.007V7.95H6.999V4.812l.993-.007c.602-.004 1.038-1.19 1.146-1.733C9.662.282 11.52.066 12.079.066z" transform="translate(541.655 282.934)"/></g></g></svg>