<svg data-name="Layer 1" xmlns="http://www.w3.org/2000/svg" viewBox="0 0 32 32"><title>chat-off-alpha</title><path d="M7 17.55a.92.92 0 0 0 .44-1 6.21 6.21 0 0 1-.28-1.77c0-4.41 4.41-8 9.82-8a11.88 11.88 0 0 1 4 .72A1 1 0 0 0 22 7.28a.9.9 0 0 0-.28-1.55A13.12 13.12 0 0 0 17 4.85c-6.4 0-11.7 4.47-11.7 9.88A7.83 7.83 0 0 0 5.63 17a1 1 0 0 0 1.38.5zM26.7 11.31a1 1 0 0 0-.33 1.1 6.41 6.41 0 0 1 .44 2.32c0 4.41-4.41 8-9.82 8A11.57 11.57 0 0 1 12.8 22a.78.78 0 0 0-.8 0l-4.44 2.77.44-1.1L6 25a.55.55 0 0 0-.22.28l-.26.72a.94.94 0 0 0 .28 1 1.26 1.26 0 0 0 .61.17.62.62 0 0 0 .44-.17l5.74-3.25a13.33 13.33 0 0 0 4.47.77c6.4 0 11.7-4.47 11.7-9.88a7.73 7.73 0 0 0-.55-3 1 1 0 0 0-1.49-.44zM29.52 5.52A1.12 1.12 0 0 0 28 5.41L2.59 22.73a1.12 1.12 0 0 0-.11 1.55 1 1 0 0 0 .83.39 1.16 1.16 0 0 0 .69-.28L29.41 7.06a1.12 1.12 0 0 0 .11-1.54z"/></svg>