<svg data-name="Layer 1" xmlns="http://www.w3.org/2000/svg" viewBox="0 0 32 32"><title>comment-ellipsis</title><path d="M2.2 9.5v8a5.93 5.93 0 0 0 5.91 5.9h7.47a.82.82 0 0 1 .62.28 56 56 0 0 0 4.71 4.52 1 1 0 0 0 1.59-.68c.12-1.41-.28-4 .89-4.09h.5a5.93 5.93 0 0 0 5.91-5.93v-8a5.93 5.93 0 0 0-5.9-5.92H8.11A5.93 5.93 0 0 0 2.2 9.5zm17.8 4a1.74 1.74 0 1 1 1.74 1.74A1.74 1.74 0 0 1 20 13.5zm-5.75 0A1.74 1.74 0 1 1 16 15.23a1.74 1.74 0 0 1-1.74-1.73zm-5.75 0a1.74 1.74 0 1 1 1.74 1.74 1.74 1.74 0 0 1-1.72-1.74z"/></svg>