<svg data-name="Layer 1" xmlns="http://www.w3.org/2000/svg" viewBox="0 0 32 32"><title>drop-down</title><path d="M28.46 3.54A5.06 5.06 0 0 0 24.75 2H7.25a5.07 5.07 0 0 0-3.71 1.54A5.06 5.06 0 0 0 2 7.25v17.5a5.05 5.05 0 0 0 1.54 3.71A5.06 5.06 0 0 0 7.25 30h17.5A5.26 5.26 0 0 0 30 24.75V7.25a5.06 5.06 0 0 0-1.54-3.71zm-3.13 21.21a.59.59 0 0 1-.58.58H7.25a.59.59 0 0 1-.58-.58V7.25a.59.59 0 0 1 .58-.58h17.5a.59.59 0 0 1 .58.58z"/><path d="M22.87 12a1.06 1.06 0 0 1-.09 1.2l-5.83 8.17a1.16 1.16 0 0 1-1.9 0l-5.83-8.2a1.16 1.16 0 0 1 .95-1.84h11.66a1.07 1.07 0 0 1 1.04.67z"/></svg>