<svg data-name="Layer 1" xmlns="http://www.w3.org/2000/svg" viewBox="0 0 32 32"><title>envelope</title><path d="M25.22 5H6.62c-2.37 0-4.3.5-4.41 2.87a.72.72 0 0 0 .44.66l11.59 5.9a3.69 3.69 0 0 0 1.71.39 4 4 0 0 0 1.6-.39L29.24 8.8a1 1 0 0 0 .55-.8v-.25c0-2.43-2.15-2.75-4.57-2.75z"/><path d="M3.26 12.44a.7.7 0 0 0-.66 0c-.44.22-.39.55-.39.88v10.1A3.58 3.58 0 0 0 5.79 27h20.8a3.2 3.2 0 0 0 3.2-3.2V13.1a.71.71 0 0 0-.5-.72 1.51 1.51 0 0 0-.88.11L17.44 18a3.39 3.39 0 0 1-3.09 0L3.26 12.44z"/></svg>