<svg data-name="Layer 1" xmlns="http://www.w3.org/2000/svg" viewBox="0 0 32 32"><title>eye</title><path d="M31 16a2.32 2.32 0 0 1-.33 1.15 17.75 17.75 0 0 1-6.3 6.17 16.21 16.21 0 0 1-16.72 0 17.89 17.89 0 0 1-6.3-6.16 2.16 2.16 0 0 1 0-2.31 17.89 17.89 0 0 1 6.3-6.16 16.19 16.19 0 0 1 16.72 0 17.89 17.89 0 0 1 6.3 6.16A2.33 2.33 0 0 1 31 16zm-2.14 0a16.47 16.47 0 0 0-6.38-5.91 7.34 7.34 0 0 1 1 3.77 7.23 7.23 0 0 1-2.2 5.3 7.22 7.22 0 0 1-5.3 2.2 7.22 7.22 0 0 1-5.3-2.2 7.23 7.23 0 0 1-2.2-5.3 7.32 7.32 0 0 1 1-3.77A16.46 16.46 0 0 0 3.14 16a17.29 17.29 0 0 0 5.58 5.47 14 14 0 0 0 14.55 0A17.29 17.29 0 0 0 28.86 16zm-12.29-5.86A.8.8 0 0 0 16 8.77a5.11 5.11 0 0 0-5.09 5.09.8.8 0 1 0 1.61 0A3.48 3.48 0 0 1 16 10.38a.78.78 0 0 0 .57-.24z"/></svg>