<svg data-name="Layer 1" xmlns="http://www.w3.org/2000/svg" viewBox="0 0 32 32"><title>feedback</title><path d="M30.94 3.22H1.07A1.07 1.07 0 0 0 0 4.28v17a1.07 1.07 0 0 0 1.07 1.07h11v5c0 1 .56 1.39.91 1.39a1.28 1.28 0 0 0 .91-.38l6-6h11A1.07 1.07 0 0 0 32 21.32v-17a1.06 1.06 0 0 0-1.06-1.06zm-2.71 15.52H3.78a.58.58 0 0 1-.58-.59v-1.23a.58.58 0 0 1 .58-.59h24.44a.58.58 0 0 1 .58.59v1.24a.57.57 0 0 1-.57.58zm0-4.8H3.78a.58.58 0 0 1-.58-.59v-1.23a.58.58 0 0 1 .58-.59h24.44a.58.58 0 0 1 .58.59v1.24a.58.58 0 0 1-.57.58zm0-4.8H13.38a.58.58 0 0 1-.57-.59V7.32a.58.58 0 0 1 .57-.59h14.84a.58.58 0 0 1 .58.59v1.24a.58.58 0 0 1-.57.58z"/></svg>