<svg data-name="Layer 1" xmlns="http://www.w3.org/2000/svg" viewBox="0 0 32 32"><title>fire</title><path d="M18.42 6.63A17.22 17.22 0 0 0 21 9.33c1.15 1.07 2 1.92 2.54 2.53a12.59 12.59 0 0 1 2 3.17 11.93 11.93 0 0 1 .81 4.42 10 10 0 0 1-1.4 5.17 10.48 10.48 0 0 1-3.77 3.77 10.25 10.25 0 0 1-10.34 0 10.48 10.48 0 0 1-3.77-3.77 10 10 0 0 1-1.4-5.17 10.29 10.29 0 0 1 .92-4.25 11.07 11.07 0 0 1 2-3 1.08 1.08 0 0 1 .92-.4 1.36 1.36 0 0 1 .91.37 1.25 1.25 0 0 1 .38.95v4.57a3.4 3.4 0 0 0 1 2.48 3.25 3.25 0 0 0 2.42 1 3.4 3.4 0 0 0 2.45-1 3.3 3.3 0 0 0 1-2.45 3.59 3.59 0 0 0-.67-2.15 14.19 14.19 0 0 0-1.62-1.83 12.92 12.92 0 0 1-2.1-2.42A4.88 4.88 0 0 1 12.61 8a11.87 11.87 0 0 1 2.31-5.17 1.13 1.13 0 0 1 .92-.59 1.36 1.36 0 0 1 1 .29 1.22 1.22 0 0 1 .43 1 5.14 5.14 0 0 0 1.15 3.1z"/></svg>