<svg data-name="Layer 1" xmlns="http://www.w3.org/2000/svg" viewBox="0 0 32 32"><title>home</title><path d="M31.86 16.57L30.63 18a.68.68 0 0 1-.42.22h-.06a.61.61 0 0 1-.42-.14L16 6.66 2.27 18.11a.76.76 0 0 1-.48.14.68.68 0 0 1-.42-.25L.14 16.57A.66.66 0 0 1 0 16.1a.58.58 0 0 1 .22-.43L14.49 3.78a2.46 2.46 0 0 1 3 0l4.84 4V4a.61.61 0 0 1 .67-.67h3.8a.61.61 0 0 1 .64.64v8.1l4.35 3.61a.59.59 0 0 1 .22.43.65.65 0 0 1-.15.46zm-4.43 1.37v9.53a1.29 1.29 0 0 1-1.27 1.27h-7.62v-7.63h-5.08v7.62H5.84a1.29 1.29 0 0 1-1.27-1.27v-9.52a.21.21 0 0 1 0-.06.31.31 0 0 0 0-.06L16 8.41l11.41 9.41a.3.3 0 0 1 .02.12z"/></svg>