<svg data-name="Layer 1" xmlns="http://www.w3.org/2000/svg" viewBox="0 0 32 32"><title>horz-container</title><path d="M30.08 1.92A6.3 6.3 0 0 0 25.46 0H6.54a6.3 6.3 0 0 0-4.62 1.92A6.3 6.3 0 0 0 0 6.54v18.91a6.3 6.3 0 0 0 1.92 4.63A6.31 6.31 0 0 0 6.54 32h18.92A6.55 6.55 0 0 0 32 25.46V6.54a6.3 6.3 0 0 0-1.92-4.62zm-1 23.54a3.65 3.65 0 0 1-3.64 3.64H6.54A3.5 3.5 0 0 1 4 28a3.5 3.5 0 0 1-1.07-2.57V6.54A3.5 3.5 0 0 1 4 4a3.5 3.5 0 0 1 2.54-1.1h18.92A3.5 3.5 0 0 1 28 4a3.5 3.5 0 0 1 1.07 2.57zm-5.58-13.1a.77.77 0 0 0-.54-.23.73.73 0 0 0-.54.23.74.74 0 0 0-.23.54v1.55H9.81V12.9a.72.72 0 0 0-.23-.54.77.77 0 0 0-.58-.23.72.72 0 0 0-.54.23l-3.1 3.1a.73.73 0 0 0-.23.54.72.72 0 0 0 .23.54l3.1 3.1a.74.74 0 0 0 .54.23.72.72 0 0 0 .54-.23.73.73 0 0 0 .23-.54v-1.55H22.2v1.55a.73.73 0 0 0 .23.54.74.74 0 0 0 .54.23.73.73 0 0 0 .54-.23l3.1-3.1a.73.73 0 0 0 .23-.54.72.72 0 0 0-.23-.54z"/></svg>