<svg id="Layer_1" data-name="Layer 1" xmlns="http://www.w3.org/2000/svg" width="24" height="24" viewBox="0 0 24 24"><defs
     id="defs3">
    <style
       id="style5">.cls-1{fill:none;}.cls-2{fill:#010101;}</style>
  </defs>
  <title
     id="title7">icon-iw-24-line-voicemail</title>
  <path
     class="cls-2"
     d="M10.06,23H9V22h1.09a4.18,4.18,0,0,0,3.76-2.32l0.7-1.39A0.5,0.5,0,0,1,15,18h0.5a7.48,7.48,0,0,0,0-15h-7a7.48,7.48,0,0,0,0,15H9v1H8.48a8.48,8.48,0,1,1,0-17h7a8.48,8.48,0,1,1,0,17H15.27l-0.56,1.12A5.17,5.17,0,0,1,10.06,23M16,7a3,3,0,0,0-2.22,5H10.22A3,3,0,1,0,8,13h8A3,3,0,0,0,16,7ZM6,10a2,2,0,1,1,2,2A2,2,0,0,1,6,10Zm8,0a2,2,0,1,1,2,2A2,2,0,0,1,14,10Z"
     id="path15" /></svg>
