<svg id="Layer_1" data-name="Layer 1" xmlns="http://www.w3.org/2000/svg" width="24" height="24" viewBox="0 0 24 24"><title>icon-iw-24-line-notification</title><path d="M22,18.84A1.58,1.58,0,0,1,20.4,20H16a4,4,0,0,1-4,4,4,4,0,0,1-2.92-1.29l0.7-.7a3,3,0,0,0,3.57.69A2.93,2.93,0,0,0,15,20h0V19.88A0.89,0.89,0,0,1,15.88,19H20.5a0.52,0.52,0,0,0,.5-0.52,0.5,0.5,0,0,0-.13-0.33l-0.07-.06L20.68,18A5.85,5.85,0,0,1,19,14.05h0V11a7,7,0,0,0-3.46-6,6.94,6.94,0,0,0-1.31-.62A1.74,1.74,0,0,1,13,2.74V2a1,1,0,1,0-2,0V2.74A1.74,1.74,0,0,1,9.77,4.38,6.94,6.94,0,0,0,8.46,5h0A7,7,0,0,0,5,11v3c0,2.93-1.19,3.51-1.69,4l-0.18.16h0a0.5,0.5,0,0,0-.14.34,0.52,0.52,0,0,0,.5.52H13v1H3.59A1.59,1.59,0,0,1,2,18.76a1.47,1.47,0,0,1,.51-1.42h0A4.69,4.69,0,0,0,4,14H4V11A8.07,8.07,0,0,1,6.77,5h0A8,8,0,0,1,9.15,3.53,1.35,1.35,0,0,0,10,2.14S10,2.05,10,2h0a2,2,0,0,1,3.93-.51A2,2,0,0,1,14,2s0,0.1,0,.14a1.35,1.35,0,0,0,.86,1.39A8.19,8.19,0,0,1,20,11v2h0c0,0.18,0,.34,0,0.51V14a4.82,4.82,0,0,0,1.39,3.29l0,0,0.06,0.06h0A1.47,1.47,0,0,1,22,18.84Z"/></svg>