<svg id="Layer_1" data-name="Layer 1" xmlns="http://www.w3.org/2000/svg" width="24" height="24" viewBox="0 0 24 24"><defs><style>.cls-1{fill:#0e0e0e;}</style></defs><title>icon-iw-24-line-help</title><path class="cls-1" d="M12,19a2.5,2.5,0,1,0,2.5,2.5A2.5,2.5,0,0,0,12,19Zm0,4a1.5,1.5,0,1,1,1.5-1.5A1.5,1.5,0,0,1,12,23ZM19,7a7,7,0,0,1-5,6.7v3.8H13V13.32a0.5,0.5,0,0,1,.38-0.49A6,6,0,1,0,6,7a0.5,0.5,0,0,0,.5.5h1A0.5,0.5,0,0,0,8,7a4,4,0,1,1,4,4,1,1,0,0,0-1,1v5.5H10V12a2,2,0,0,1,2-2A3,3,0,1,0,9,7,1.5,1.5,0,0,1,7.5,8.5h-1A1.5,1.5,0,0,1,5,7,7,7,0,0,1,19,7Z"/></svg>