<svg id="Layer_1" data-name="Layer 1" xmlns="http://www.w3.org/2000/svg" xmlns:xlink="http://www.w3.org/1999/xlink" viewBox="0 0 24 24"><defs><style>.cls-1{fill:none;clip-rule:evenodd;}.cls-2{clip-path:url(#clip-path);}.cls-3{clip-path:url(#clip-path-2);}.cls-4{fill:#282828;fill-rule:evenodd;}.cls-5{clip-path:url(#clip-path-3);}</style><clipPath id="clip-path"><polygon class="cls-1" points="189 273 182 273 178.182 279 176.909 281 175 284 168 284 168 286 175 286 178.182 281 179.455 279 182 275 189 275 189 273"/></clipPath><clipPath id="clip-path-2"><polygon class="cls-1" points="190 274 183 274 179.182 280 177.909 282 176 285 169 285 169 287 176 287 179.182 282 180.455 280 183 276 190 276 190 274"/></clipPath><clipPath id="clip-path-3"><path class="cls-1" d="M208,269v-4h-3v4h3Zm-6,0v-7h-3v7h3Zm-6,0V259h-3v10h3Zm-6,0V256h-3v13h3Z"/></clipPath></defs><title>ic</title><path class="cls-4" d="M1,16H9v2H1V16Z"/><path class="cls-4" d="M14,5L8,16l1,2L15,7Z"/><path class="cls-4" d="M14,5h8V7H14V5Z"/></svg>