<svg id="Layer_1" data-name="Layer 1" xmlns="http://www.w3.org/2000/svg" xmlns:xlink="http://www.w3.org/1999/xlink" viewBox="0 0 24 24"><defs><style>.cls-1{fill:none;clip-rule:evenodd;}.cls-2{clip-path:url(#clip-path);}.cls-3{clip-path:url(#clip-path-2);}.cls-4{clip-path:url(#clip-path-3);}.cls-5{fill:#282828;}</style><clipPath id="clip-path"><polygon class="cls-1" points="145 273 138 273 134.182 279 132.909 281 131 284 124 284 124 286 131 286 134.182 281 135.455 279 138 275 145 275 145 273"/></clipPath><clipPath id="clip-path-2"><polygon class="cls-1" points="146 274 139 274 135.182 280 133.909 282 132 285 125 285 125 287 132 287 135.182 282 136.455 280 139 276 146 276 146 274"/></clipPath><clipPath id="clip-path-3"><path class="cls-1" d="M164,269v-4h-3v4h3Zm-6,0v-7h-3v7h3Zm-6,0V259h-3v10h3Zm-6,0V256h-3v13h3Z"/></clipPath></defs><title>ic</title><path class="cls-5" d="M4,18V5H1V18H4Z"/><path class="cls-5" d="M10,18V8H7V18h3Z"/><path class="cls-5" d="M16,18V11H13v7h3Z"/><path class="cls-5" d="M22,18V14H19v4h3Z"/></svg>