<svg id="Layer_1" data-name="Layer 1" xmlns="http://www.w3.org/2000/svg" xmlns:xlink="http://www.w3.org/1999/xlink" viewBox="0 0 24 24"><defs><style>.cls-1{fill:none;clip-rule:evenodd;}.cls-2{clip-path:url(#clip-path);}.cls-3{clip-path:url(#clip-path-2);}.cls-4{clip-path:url(#clip-path-3);}.cls-5{fill:#282828;}</style><clipPath id="clip-path"><polygon class="cls-1" points="189 229 182 229 178.182 235 176.909 237 175 240 168 240 168 242 175 242 178.182 237 179.455 235 182 231 189 231 189 229"/></clipPath><clipPath id="clip-path-2"><polygon class="cls-1" points="190 230 183 230 179.182 236 177.909 238 176 241 169 241 169 243 176 243 179.182 238 180.455 236 183 232 190 232 190 230"/></clipPath><clipPath id="clip-path-3"><path class="cls-1" d="M208,225v-4h-3v4h3Zm-6,0v-7h-3v7h3Zm-6,0V215h-3v10h3Zm-6,0V212h-3v13h3Z"/></clipPath></defs><title>ic</title><path class="cls-5" d="M16,18V11H13v7h3Z"/><path class="cls-5" d="M22,18V14H19v4h3Z"/><rect class="cls-5" x="1" y="5" width="3" height="4"/><rect class="cls-5" x="1" y="11" width="3" height="7"/><rect class="cls-5" x="7" y="14" width="3" height="4"/><rect class="cls-5" x="7" y="8" width="3" height="4"/></svg>