<?xml version="1.0" encoding="iso-8859-1"?>
<!-- Generator: Adobe Illustrator 16.0.4, SVG Export Plug-In . SVG Version: 6.00 Build 0)  -->
<!DOCTYPE svg PUBLIC "-//W3C//DTD SVG 1.1//EN" "http://www.w3.org/Graphics/SVG/1.1/DTD/svg11.dtd">
<svg version="1.1" id="artwork" xmlns="http://www.w3.org/2000/svg" xmlns:xlink="http://www.w3.org/1999/xlink" x="0px" y="0px"
	 width="48px" height="48px" viewBox="0 0 48 48" style="enable-background:new 0 0 48 48;" xml:space="preserve">
<path style="fill:#3E464D;" d="M38.5,19.1c-2.819,0-5.107,2.168-5.353,4.924h-4.295C28.607,21.269,26.319,19.1,23.5,19.1
	c-2.818,0-5.107,2.169-5.352,4.924h-4.297C13.607,21.269,11.319,19.1,8.5,19.1c-2.982,0-5.4,2.419-5.4,5.4s2.418,5.4,5.4,5.4
	c2.819,0,5.107-2.169,5.352-4.924h4.297c0.244,2.755,2.533,4.924,5.352,4.924c2.819,0,5.107-2.169,5.353-4.924h4.295
	C33.393,27.73,35.681,29.9,38.5,29.9c2.982,0,5.4-2.42,5.4-5.4C43.9,21.518,41.482,19.1,38.5,19.1z M8.5,28.9
	c-2.426,0-4.4-1.974-4.4-4.4c0-2.426,1.975-4.4,4.4-4.4s4.4,1.975,4.4,4.4C12.9,26.927,10.926,28.9,8.5,28.9z M38.5,28.9
	c-2.426,0-4.4-1.974-4.4-4.4c0-2.426,1.975-4.4,4.4-4.4s4.4,1.975,4.4,4.4C42.9,26.927,40.926,28.9,38.5,28.9z"/>
</svg>
