<?xml version="1.0" encoding="iso-8859-1"?>
<!-- Generator: Adobe Illustrator 16.0.4, SVG Export Plug-In . SVG Version: 6.00 Build 0)  -->
<!DOCTYPE svg PUBLIC "-//W3C//DTD SVG 1.1//EN" "http://www.w3.org/Graphics/SVG/1.1/DTD/svg11.dtd">
<svg version="1.1" id="artwork" xmlns="http://www.w3.org/2000/svg" xmlns:xlink="http://www.w3.org/1999/xlink" x="0px" y="0px"
	 width="48px" height="48px" viewBox="0 0 48 48" style="enable-background:new 0 0 48 48;" xml:space="preserve">
<path style="fill:#3E464D;" d="M39.5,33.1c-2.812,0-5.094,2.157-5.35,4.9H25v-4.15c2.744-0.256,4.9-2.539,4.9-5.35
	s-2.156-5.094-4.9-5.35V19h9.15c0.256,2.743,2.539,4.9,5.35,4.9c2.982,0,5.4-2.42,5.4-5.4c0-2.982-2.418-5.4-5.4-5.4
	c-2.812,0-5.094,2.156-5.35,4.9H24v5.15c-2.576,0.24-4.609,2.273-4.85,4.85H14.85c-0.24-2.576-2.272-4.609-4.85-4.85V9h9.15
	c0.256,2.744,2.539,4.9,5.35,4.9c2.982,0,5.4-2.419,5.4-5.4s-2.418-5.4-5.4-5.4c-2.811,0-5.094,2.156-5.35,4.9H9v15.15
	c-2.744,0.256-4.9,2.539-4.9,5.35c0,2.981,2.418,5.4,5.4,5.4c2.811,0,5.094-2.157,5.35-4.9h4.301c0.24,2.576,2.273,4.609,4.85,4.85
	V39h10.15c0.256,2.743,2.538,4.9,5.35,4.9c2.982,0,5.4-2.419,5.4-5.4S42.482,33.1,39.5,33.1z"/>
</svg>
