<?xml version="1.0" encoding="iso-8859-1"?>
<!-- Generator: Adobe Illustrator 16.0.4, SVG Export Plug-In . SVG Version: 6.00 Build 0)  -->
<!DOCTYPE svg PUBLIC "-//W3C//DTD SVG 1.1//EN" "http://www.w3.org/Graphics/SVG/1.1/DTD/svg11.dtd">
<svg version="1.1" id="artwork" xmlns="http://www.w3.org/2000/svg" xmlns:xlink="http://www.w3.org/1999/xlink" x="0px" y="0px"
	 width="48px" height="48px" viewBox="0 0 48 48" style="enable-background:new 0 0 48 48;" xml:space="preserve">
<path style="fill:#3E464D;" d="M38.5,19.1c-2.811,0-5.094,2.156-5.35,4.9H28.85c-0.256-2.744-2.539-4.9-5.35-4.9
	s-5.094,2.156-5.35,4.9h-4.3c-0.256-2.744-2.539-4.9-5.35-4.9c-2.982,0-5.4,2.418-5.4,5.4c0,2.98,2.418,5.4,5.4,5.4
	c2.811,0,5.094-2.157,5.35-4.9h4.3c0.256,2.743,2.539,4.9,5.35,4.9s5.094-2.157,5.35-4.9h4.301c0.256,2.743,2.539,4.9,5.35,4.9
	c2.982,0,5.4-2.419,5.4-5.4S41.482,19.1,38.5,19.1z M8.5,28.9c-2.426,0-4.4-1.974-4.4-4.4c0-2.426,1.974-4.4,4.4-4.4
	s4.4,1.975,4.4,4.4C12.9,26.927,10.926,28.9,8.5,28.9z M23.5,28.9c-2.426,0-4.4-1.974-4.4-4.4c0-2.426,1.974-4.4,4.4-4.4
	s4.4,1.975,4.4,4.4C27.9,26.927,25.926,28.9,23.5,28.9z"/>
</svg>
