<?xml version="1.0" encoding="utf-8"?>
<!-- Generator: Adobe Illustrator 16.0.4, SVG Export Plug-In . SVG Version: 6.00 Build 0)  -->
<!DOCTYPE svg PUBLIC "-//W3C//DTD SVG 1.1//EN" "http://www.w3.org/Graphics/SVG/1.1/DTD/svg11.dtd">
<svg version="1.1" id="artwork" xmlns="http://www.w3.org/2000/svg" xmlns:xlink="http://www.w3.org/1999/xlink" x="0px" y="0px"
	 width="16px" height="16px" viewBox="0 0 16 16" enable-background="new 0 0 16 16" xml:space="preserve">
<g>
	<path fill="#3D464D" d="M10.476,1.11c-2.43,0-4.4,1.97-4.4,4.4c0,0.705,0.17,1.369,0.465,1.959l-5.53,5.559l1.77,1.768
		c0.584,0.586,1.471,0.704,1.979,0.052L5,14.497v-1.495V13h1.408L7,12.374V11h1.753l0.355-0.375c-0.672-0.225-1.29-0.574-1.83-1.009
		l-3.475,3.466l-0.707-0.707l4.004-4.042c0.807,0.964,2.019,1.579,3.375,1.579c2.429,0,4.4-1.97,4.4-4.4S12.905,1.11,10.476,1.11z
		 M11,6.775C10.02,6.775,9.225,5.98,9.225,5c0-0.98,0.795-1.774,1.775-1.774S12.775,4.02,12.775,5C12.775,5.98,11.98,6.775,11,6.775
		z"/>
</g>
</svg>
