<?xml version="1.0" encoding="utf-8"?>
<!-- Generator: Adobe Illustrator 16.0.4, SVG Export Plug-In . SVG Version: 6.00 Build 0)  -->
<!DOCTYPE svg PUBLIC "-//W3C//DTD SVG 1.1//EN" "http://www.w3.org/Graphics/SVG/1.1/DTD/svg11.dtd">
<svg version="1.1" id="artwork" xmlns="http://www.w3.org/2000/svg" xmlns:xlink="http://www.w3.org/1999/xlink" x="0px" y="0px"
	 width="16px" height="16px" viewBox="0 0 16 16" enable-background="new 0 0 16 16" xml:space="preserve">
<g>
	<polygon fill="#3D464D" points="3.947,8.405 5.049,8.405 4.499,7.271 	"/>
	<path fill="#3D464D" d="M8,1.098C4.19,1.098,1.1,4.189,1.1,8S4.19,14.902,8,14.902S14.9,11.811,14.9,8S11.811,1.098,8,1.098z
		 M5.843,10L5.359,9H3.636l-0.483,1H2.008L4.02,6h0.956l2.012,4H5.843z M8,10H7V6h1V10z M12.188,10l-1.189-1.3L9.81,10H8.48l1.853-2
		L8.48,6h1.328l1.189,1.3L12.186,6h1.326l-1.852,2l1.854,2H12.188z"/>
</g>
</svg>
