<?xml version="1.0" encoding="iso-8859-1"?>
<!-- Generator: Adobe Illustrator 16.0.4, SVG Export Plug-In . SVG Version: 6.00 Build 0)  -->
<!DOCTYPE svg PUBLIC "-//W3C//DTD SVG 1.1//EN" "http://www.w3.org/Graphics/SVG/1.1/DTD/svg11.dtd">
<svg version="1.1" id="artwork" xmlns="http://www.w3.org/2000/svg" xmlns:xlink="http://www.w3.org/1999/xlink" x="0px" y="0px"
	 width="16px" height="16px" viewBox="0 0 16 16" style="enable-background:new 0 0 16 16;" xml:space="preserve">
<path style="fill:#3D464D;" d="M2.861,9.685C3.051,9.852,3.285,9.934,3.52,9.934c0.278,0,0.555-0.115,0.752-0.341
	c0.391-0.444,0.605-1.017,0.605-1.61c0-0.542-0.184-1.073-0.516-1.498c-0.34-0.436-0.97-0.513-1.403-0.171
	c-0.435,0.34-0.512,0.971-0.171,1.404c0.041,0.055,0.09,0.142,0.09,0.266c0,0.136-0.059,0.231-0.107,0.289
	C2.404,8.688,2.445,9.32,2.861,9.685z"/>
<path style="fill:#3D464D;" d="M10.542,4.074l1.486-1.48C11.57,1.771,11.01,0.998,10.34,0.305C9.955-0.093,9.322-0.103,8.926,0.281
	C8.528,0.666,8.518,1.3,8.902,1.697C9.584,2.404,10.13,3.208,10.542,4.074z"/>
<path style="fill:#3D464D;" d="M11.255,6.179c0.119,0.588,0.182,1.191,0.182,1.805c0,2.375-0.911,4.618-2.566,6.316
	c-0.386,0.396-0.378,1.029,0.018,1.416c0.194,0.19,0.446,0.285,0.698,0.285c0.26,0,0.52-0.102,0.716-0.303
	c2.021-2.073,3.135-4.812,3.135-7.715c0-1.182-0.194-2.334-0.551-3.43l2.404-2.394c0.195-0.195,0.195-0.512,0-0.707
	c-0.185-0.183-0.475-0.191-0.671-0.029L1.08,14.9c-0.191,0.195-0.19,0.509,0.003,0.704c0.195,0.194,0.512,0.194,0.707,0l3.619-3.604
	l0.081-0.082C5.5,12.17,5.6,12.418,5.794,12.605s0.443,0.28,0.692,0.28c0.264,0,0.525-0.104,0.722-0.309
	c1.096-1.143,1.731-2.617,1.826-4.187L11.255,6.179z"/>
<path style="fill:#3D464D;" d="M7.016,7.583l1.689-1.681c-0.299-0.913-0.785-1.76-1.459-2.474C6.865,3.027,6.232,3.01,5.831,3.39
	S5.412,4.403,5.792,4.807C6.513,5.568,6.926,6.545,7.016,7.583z"/>
</svg>
