<?xml version="1.0" encoding="utf-8"?>
<!-- Generator: Adobe Illustrator 16.0.4, SVG Export Plug-In . SVG Version: 6.00 Build 0)  -->
<!DOCTYPE svg PUBLIC "-//W3C//DTD SVG 1.1//EN" "http://www.w3.org/Graphics/SVG/1.1/DTD/svg11.dtd">
<svg version="1.1" id="artwork" xmlns="http://www.w3.org/2000/svg" xmlns:xlink="http://www.w3.org/1999/xlink" x="0px" y="0px"
	 width="16px" height="16px" viewBox="0 0 16 16" enable-background="new 0 0 16 16" xml:space="preserve">
<path d="M10.328,5.671L9.312,4.655l-4.499,4.5c-0.841,0.84-0.841,2.203,0,3.045c0.84,0.841,2.204,0.841,3.044,0
	l6.09-6.091c1.402-1.402,1.402-3.674,0-5.075c-1.401-1.402-3.674-1.367-5.075,0.035c0,0-6.404,6.403-6.408,6.408
	c-1.955,1.955-1.955,5.106,0,7.061c1.954,1.954,5.123,1.945,7.078-0.009c0.004-0.004,0.008-0.013,0.013-0.018l0-0.002l4.365-4.366
	l-1.016-1.015l-4.364,4.364l0,0c-0.005,0.004-0.009,0.009-0.013,0.013c-1.392,1.392-3.656,1.392-5.048,0
	c-1.392-1.392-1.392-3.655,0-5.048c0.005-0.005,0.01-0.01,0.014-0.014L3.494,8.443l6.395-6.395c0.839-0.84,2.206-0.84,3.045,0
	c0.838,0.84,0.838,2.206,0,3.045l-6.09,6.091c-0.28,0.28-0.735,0.28-1.015,0c-0.28-0.279-0.28-0.735,0-1.015L10.328,5.671z"/>
</svg>
