<?xml version="1.0" encoding="utf-8"?>
<!-- Generator: Adobe Illustrator 16.0.4, SVG Export Plug-In . SVG Version: 6.00 Build 0)  -->
<!DOCTYPE svg PUBLIC "-//W3C//DTD SVG 1.1//EN" "http://www.w3.org/Graphics/SVG/1.1/DTD/svg11.dtd">
<svg version="1.1" id="artwork" xmlns="http://www.w3.org/2000/svg" xmlns:xlink="http://www.w3.org/1999/xlink" x="0px" y="0px"
	 width="16px" height="16px" viewBox="0 0 16 16" enable-background="new 0 0 16 16" xml:space="preserve">
<path d="M9.484,0.826C9.377,0.775,9.203,0.75,9.089,0.75c-0.174,0-0.342,0.139-0.483,0.252L4.179,5H2.273
	C1.508,5,1,5.465,1,6.168v3.666C1,10.535,1.508,11,2.273,11h1.905l4.427,3.999c0.141,0.112,0.309,0.251,0.482,0.251
	c0.114,0,0.288-0.025,0.396-0.076C9.755,15.043,10,14.748,10,14.449V1.551C10,1.252,9.755,0.957,9.484,0.826z"/>
<g>
	<path d="M13.005,12.725c-0.138,0-0.276-0.053-0.383-0.156c-0.218-0.211-0.224-0.56-0.013-0.775
		c0.988-1.021,1.533-2.367,1.533-3.79c0-1.424-0.547-2.771-1.537-3.792c-0.213-0.218-0.207-0.566,0.012-0.777
		c0.218-0.211,0.566-0.207,0.777,0.01c1.191,1.229,1.849,2.85,1.849,4.56s-0.655,3.327-1.845,4.556
		C13.292,12.668,13.148,12.725,13.005,12.725z"/>
</g>
<path d="M11.787,5.516c-0.211-0.219-0.561-0.223-0.777-0.013c-0.219,0.212-0.224,0.56-0.013,0.778
	c0.45,0.463,0.696,1.074,0.696,1.719s-0.246,1.256-0.696,1.719c-0.211,0.219-0.206,0.566,0.013,0.778s0.566,0.206,0.777-0.013
	c0.648-0.67,1.008-1.553,1.008-2.484S12.438,6.186,11.787,5.516z"/>
</svg>
