<?xml version="1.0" encoding="utf-8"?>
<!-- Generator: Adobe Illustrator 16.0.4, SVG Export Plug-In . SVG Version: 6.00 Build 0)  -->
<!DOCTYPE svg PUBLIC "-//W3C//DTD SVG 1.1//EN" "http://www.w3.org/Graphics/SVG/1.1/DTD/svg11.dtd">
<svg version="1.1" id="artwork" xmlns="http://www.w3.org/2000/svg" xmlns:xlink="http://www.w3.org/1999/xlink" x="0px" y="0px"
	 width="16px" height="16px" viewBox="0 0 16 16" enable-background="new 0 0 16 16" xml:space="preserve">
<path fill="#3D464D" d="M9.484,0.826C9.377,0.775,9.203,0.75,9.089,0.75c-0.174,0-0.342,0.139-0.483,0.252L4.179,5H2.273
	C1.508,5,1,5.465,1,6.168v3.666C1,10.535,1.508,11,2.273,11h1.905l4.427,3.999c0.141,0.112,0.309,0.251,0.482,0.251
	c0.114,0,0.288-0.025,0.396-0.076C9.755,15.043,10,14.748,10,14.449V1.551C10,1.252,9.755,0.957,9.484,0.826z"/>
</svg>
