<?xml version="1.0" encoding="utf-8"?>
<!-- Generator: Adobe Illustrator 16.0.4, SVG Export Plug-In . SVG Version: 6.00 Build 0)  -->
<!DOCTYPE svg PUBLIC "-//W3C//DTD SVG 1.1//EN" "http://www.w3.org/Graphics/SVG/1.1/DTD/svg11.dtd">
<svg version="1.1" id="artwork" xmlns="http://www.w3.org/2000/svg" xmlns:xlink="http://www.w3.org/1999/xlink" x="0px" y="0px"
	 width="16px" height="16px" viewBox="0 0 16 16" enable-background="new 0 0 16 16" xml:space="preserve">
<path d="M12.5,7.127c-0.276,0-0.5,0.224-0.5,0.5v1.385c0,2.223-1.777,4.031-4,4.031s-4-1.809-4-4.031V7.627
	c0-0.276-0.224-0.5-0.5-0.5S3,7.351,3,7.627v1.385c0,2.432,1.71,4.465,4,4.931V15H6.214c-0.276,0-0.5,0.224-0.5,0.5
	s0.224,0.5,0.5,0.5H7h2h0.786c0.276,0,0.5-0.224,0.5-0.5s-0.224-0.5-0.5-0.5H9v-1.058c2.29-0.466,4-2.499,4-4.931V7.627
	C13,7.351,12.776,7.127,12.5,7.127z"/>
<g>
	<path d="M11,4.328V4c0-0.104-0.005-0.205-0.016-0.307C10.831,2.181,9.553,1,8,1C6.343,1,5,2.344,5,4v0.328V6h6
		V4.328z"/>
	<path d="M5,7.627v1.328c0,1.656,1.343,3,3,3s3-1.344,3-3V7.627V7H5V7.627z"/>
</g>
</svg>
