<?xml version="1.0" encoding="utf-8"?>
<!-- Generator: Adobe Illustrator 16.0.4, SVG Export Plug-In . SVG Version: 6.00 Build 0)  -->
<!DOCTYPE svg PUBLIC "-//W3C//DTD SVG 1.1//EN" "http://www.w3.org/Graphics/SVG/1.1/DTD/svg11.dtd">
<svg version="1.1" id="artwork" xmlns="http://www.w3.org/2000/svg" xmlns:xlink="http://www.w3.org/1999/xlink" x="0px" y="0px"
	 width="16px" height="16px" viewBox="0 0 16 16" enable-background="new 0 0 16 16" xml:space="preserve">
<path d="M4.334,9.593C4.137,9.818,3.86,9.934,3.582,9.934c-0.234,0-0.469-0.082-0.658-0.249
	C2.508,9.32,2.467,8.688,2.832,8.271c0.049-0.057,0.107-0.152,0.107-0.288c0-0.124-0.049-0.212-0.09-0.266
	C2.509,7.283,2.586,6.653,3.021,6.312c0.434-0.341,1.063-0.264,1.403,0.172C4.756,6.908,4.939,7.44,4.939,7.981
	C4.939,8.576,4.725,9.147,4.334,9.593z M7.271,12.577c-0.196,0.204-0.458,0.308-0.722,0.308c-0.249,0-0.498-0.092-0.692-0.279
	c-0.397-0.383-0.411-1.017-0.028-1.416c0.83-0.865,1.288-2.005,1.288-3.206c0-1.188-0.448-2.317-1.262-3.178
	C5.475,4.403,5.492,3.77,5.894,3.39s1.034-0.362,1.414,0.039c1.166,1.234,1.809,2.853,1.809,4.555
	C9.116,9.705,8.461,11.336,7.271,12.577z M10.365,15.698C10.169,15.899,9.909,16,9.649,16c-0.252,0-0.504-0.095-0.698-0.284
	c-0.396-0.387-0.403-1.021-0.018-1.416c1.655-1.698,2.566-3.941,2.566-6.316c0-2.36-0.9-4.593-2.535-6.286
	C8.58,1.3,8.591,0.666,8.988,0.281c0.396-0.384,1.029-0.374,1.414,0.023C12.4,2.373,13.5,5.101,13.5,7.983
	C13.5,10.885,12.387,13.624,10.365,15.698z"/>
</svg>
