<?xml version="1.0" encoding="utf-8"?>
<!-- Generator: Adobe Illustrator 16.0.4, SVG Export Plug-In . SVG Version: 6.00 Build 0)  -->
<!DOCTYPE svg PUBLIC "-//W3C//DTD SVG 1.1//EN" "http://www.w3.org/Graphics/SVG/1.1/DTD/svg11.dtd">
<svg version="1.1" id="artwork" xmlns="http://www.w3.org/2000/svg" xmlns:xlink="http://www.w3.org/1999/xlink" x="0px" y="0px"
	 width="16px" height="16px" viewBox="0 0 16 16" enable-background="new 0 0 16 16" xml:space="preserve">
<path fill="#3D464D" d="M14.528,3.791l-1.443,1.443c-0.323,0.324-0.849,0.324-1.173,0l-1.15-1.15c-0.324-0.324-0.324-0.85,0-1.173
	l1.441-1.441c-0.279-0.076-0.572-0.12-0.875-0.12c-1.835,0-3.322,1.487-3.322,3.322c0,0.292,0.042,0.573,0.112,0.843L5.611,8.022
	l0,0L5.516,8.118h0c-0.27-0.071-0.552-0.112-0.844-0.112c-1.835,0-3.322,1.487-3.322,3.322c0,0.303,0.044,0.596,0.121,0.875
	l1.438-1.438c0.323-0.324,0.849-0.324,1.173,0l1.15,1.15c0.324,0.324,0.324,0.85,0,1.173l-1.44,1.44
	c0.281,0.077,0.575,0.122,0.88,0.122c1.835,0,3.322-1.487,3.322-3.322c0-0.31-0.046-0.607-0.125-0.892
	c0.004,0.013,0.01,0.026,0.014,0.039l0.091-0.091h0l2.505-2.505c0.271,0.072,0.555,0.114,0.849,0.114
	c1.835,0,3.322-1.487,3.322-3.322C14.65,4.366,14.605,4.072,14.528,3.791z"/>
</svg>
