<?xml version="1.0" encoding="utf-8"?>
<!-- Generator: Adobe Illustrator 16.0.4, SVG Export Plug-In . SVG Version: 6.00 Build 0)  -->
<!DOCTYPE svg PUBLIC "-//W3C//DTD SVG 1.1//EN" "http://www.w3.org/Graphics/SVG/1.1/DTD/svg11.dtd">
<svg version="1.1" id="artwork" xmlns="http://www.w3.org/2000/svg" xmlns:xlink="http://www.w3.org/1999/xlink" x="0px" y="0px"
	 width="16px" height="16px" viewBox="0 0 16 16" enable-background="new 0 0 16 16" xml:space="preserve">
<path d="M8,11.955c1.657,0,3-1.344,3-3V7.007l3.295-3.295c0.195-0.194,0.195-0.512,0-0.707
	c-0.195-0.194-0.512-0.194-0.707,0L2.384,14.209c-0.195,0.195-0.195,0.512,0,0.707c0.195,0.195,0.512,0.195,0.707,0l1.893-1.893
	C5.568,13.469,6.252,13.79,7,13.942V15H6.214c-0.276,0-0.5,0.224-0.5,0.5s0.224,0.5,0.5,0.5H7h2h0.786c0.276,0,0.5-0.224,0.5-0.5
	s-0.224-0.5-0.5-0.5H9v-1.058c2.29-0.466,4-2.499,4-4.931V7.627c0-0.276-0.224-0.5-0.5-0.5S12,7.351,12,7.627v1.385
	c0,2.223-1.777,4.031-4,4.031c-0.86,0-1.652-0.273-2.302-0.734l0.775-0.774C6.921,11.8,7.441,11.955,8,11.955z"/>
<g>
	<path d="M4,9.012V7.627c0-0.276-0.224-0.5-0.5-0.5S3,7.351,3,7.627v1.385c0,0.771,0.174,1.5,0.481,2.153
		l0.766-0.767C4.089,9.966,4,9.5,4,9.012z"/>
	<path d="M8,1C6.343,1,5,2.344,5,4v2h3.646l2.334-2.334C10.814,2.166,9.543,1,8,1z"/>
	<path d="M5,7v1.955c0,0.214,0.026,0.421,0.069,0.622L7.646,7H5z"/>
</g>
</svg>
