<?xml version="1.0" encoding="utf-8"?>
<!-- Generator: Adobe Illustrator 16.0.4, SVG Export Plug-In . SVG Version: 6.00 Build 0)  -->
<!DOCTYPE svg PUBLIC "-//W3C//DTD SVG 1.1//EN" "http://www.w3.org/Graphics/SVG/1.1/DTD/svg11.dtd">
<svg version="1.1" id="artwork" xmlns="http://www.w3.org/2000/svg" xmlns:xlink="http://www.w3.org/1999/xlink" x="0px" y="0px"
	 width="16px" height="16px" viewBox="0 0 16 16" enable-background="new 0 0 16 16" xml:space="preserve">
<path fill="#3D464D" d="M13.295,3.005c-0.195-0.194-0.512-0.194-0.707,0L2.134,13.459c-0.195,0.195-0.195,0.512,0,0.707
	c0.195,0.195,0.512,0.195,0.707,0l2.298-2.298l3.466,3.131c0.141,0.112,0.309,0.251,0.482,0.251c0.114,0,0.288-0.025,0.396-0.076
	C9.755,15.043,10,14.748,10,14.449V7.008l3.295-3.296C13.49,3.518,13.49,3.2,13.295,3.005z"/>
<g>
	<path fill="#3D464D" d="M10,1.551c0-0.299-0.245-0.594-0.516-0.725C9.377,0.775,9.203,0.75,9.089,0.75
		c-0.174,0-0.342,0.139-0.483,0.251L4.179,5H2.273C1.508,5,1,5.465,1,6.167v3.666C1,10.535,1.508,11,2.273,11h0.335L10,3.608V1.551z
		"/>
</g>
</svg>
