<?xml version="1.0" encoding="utf-8"?>
<!-- Generator: Adobe Illustrator 16.0.4, SVG Export Plug-In . SVG Version: 6.00 Build 0)  -->
<!DOCTYPE svg PUBLIC "-//W3C//DTD SVG 1.1//EN" "http://www.w3.org/Graphics/SVG/1.1/DTD/svg11.dtd">
<svg version="1.1" id="artwork" xmlns="http://www.w3.org/2000/svg" xmlns:xlink="http://www.w3.org/1999/xlink" x="0px" y="0px"
	 width="16px" height="16px" viewBox="0 0 16 16" enable-background="new 0 0 16 16" xml:space="preserve">
<g>
	<g>
		<path fill="#3D464D" d="M12.5,7.899c0.106,0,0.206,0.024,0.311,0.031L14,7h-3.917L16,1H5.5L2.25,9h3L2.5,16l5.48-4.289
			C8.356,9.551,10.234,7.899,12.5,7.899z"/>
	</g>
	<path fill="#3D464D" d="M12.5,9.3c-1.767,0-3.199,1.433-3.199,3.2c0,1.767,1.433,3.2,3.199,3.2c1.768,0,3.201-1.434,3.201-3.2
		C15.701,10.732,14.268,9.3,12.5,9.3z M13,14.508h-1V12h1V14.508z M13,11h-1V9.969h1V11z"/>
</g>
</svg>
