<?xml version="1.0" encoding="utf-8"?>
<!-- Generator: Adobe Illustrator 16.0.4, SVG Export Plug-In . SVG Version: 6.00 Build 0)  -->
<!DOCTYPE svg PUBLIC "-//W3C//DTD SVG 1.1//EN" "http://www.w3.org/Graphics/SVG/1.1/DTD/svg11.dtd">
<svg version="1.1" id="artwork" xmlns="http://www.w3.org/2000/svg" xmlns:xlink="http://www.w3.org/1999/xlink" x="0px" y="0px"
	 width="16px" height="16px" viewBox="0 0 16 16" enable-background="new 0 0 16 16" xml:space="preserve">
<path d="M16,1h-1.446l-0.009-0.038c0.195-0.194,0.195-0.512,0-0.707c-0.195-0.194-0.512-0.194-0.707,0L13.093,1l-2,2
	l-6,6l-4.209,4.209c-0.194,0.195-0.194,0.512,0,0.707c0.195,0.195,0.513,0.195,0.707,0l2.846-2.846l-0.131,0.333L2.5,16L14,7h-3.917
	L16,1z"/>
<g>
	<polygon points="5.5,1 2.25,9 3.111,9 11.111,1 	"/>
</g>
</svg>
