<?xml version="1.0" encoding="utf-8"?>
<!-- Generator: Adobe Illustrator 16.0.4, SVG Export Plug-In . SVG Version: 6.00 Build 0)  -->
<!DOCTYPE svg PUBLIC "-//W3C//DTD SVG 1.1//EN" "http://www.w3.org/Graphics/SVG/1.1/DTD/svg11.dtd">
<svg version="1.1" id="artwork" xmlns="http://www.w3.org/2000/svg" xmlns:xlink="http://www.w3.org/1999/xlink" x="0px" y="0px"
	 width="16px" height="16px" viewBox="0 0 16 16" enable-background="new 0 0 16 16" xml:space="preserve">
<g>
	<path fill="#3D464D" d="M15.771,0.793c-0.194-0.192-0.506-0.193-0.701-0.005c-0.002,0.002-0.005,0.003-0.006,0.005L0.615,15.141
		l-0.006,0.006c-0.195,0.195-0.195,0.512,0,0.707s0.512,0.195,0.707,0L2.17,15H14c0.553,0,1-0.447,1-1V3
		c0-0.209-0.064-0.402-0.174-0.562L15.771,1.5C15.966,1.306,15.966,0.988,15.771,0.793z M9,9v1H7.204l1.008-1H9z M7,11h2v1H7V11z
		 M10,11h2v1h-2V11z M10,10V9h2v1H10z M10,8V7.226L10.228,7H12v1H10z M6,11.195V12H5.188L6,11.195z M14,5v9H3.174l1.008-1H13V6
		h-1.765l1.008-1H14z"/>
	<path fill="#3D464D" d="M2,5h7.436l3.021-3H2C1.447,2,1,2.447,1,3v10.377l1-0.993V5z"/>
	<path fill="#3D464D" d="M5.407,9L7,7.418V7h0.422l1.007-1H3v5.391L4.4,10H4V9H5.407z M4,7h2v1H4V7z"/>
</g>
</svg>
