<?xml version="1.0" encoding="iso-8859-1"?>
<!-- Generator: Adobe Illustrator 16.0.4, SVG Export Plug-In . SVG Version: 6.00 Build 0)  -->
<!DOCTYPE svg PUBLIC "-//W3C//DTD SVG 1.1//EN" "http://www.w3.org/Graphics/SVG/1.1/DTD/svg11.dtd">
<svg version="1.1" id="artwork" xmlns="http://www.w3.org/2000/svg" xmlns:xlink="http://www.w3.org/1999/xlink" x="0px" y="0px"
	 width="16px" height="16px" viewBox="0 0 16 16" style="enable-background:new 0 0 16 16;" xml:space="preserve">
<g>
	<path style="fill:#3D464D;" d="M14.566,8.834L11.5,8.21V6.264l2.422-0.571c0.269-0.063,0.435-0.333,0.371-0.602
		s-0.334-0.436-0.602-0.372L7.5,6.161L1.308,4.719C1.041,4.655,0.77,4.822,0.707,5.091s0.102,0.538,0.371,0.602L3.5,6.264V8.21
		L0.434,8.834c-0.271,0.055-0.445,0.318-0.39,0.59c0.048,0.236,0.257,0.4,0.49,0.4c0.033,0,0.066-0.004,0.099-0.011L3.5,9.23v0.925
		v0.021c0,0.264,0.027,0.521,0.075,0.771l-2.67,2.567c-0.199,0.191-0.205,0.508-0.014,0.707c0.098,0.103,0.229,0.153,0.36,0.153
		c0.125,0,0.249-0.047,0.346-0.14l2.333-2.245C4.516,13.145,5.75,13.975,7,14.142v-0.021V7.746C7,7.473,7.226,7.25,7.5,7.25
		S8,7.473,8,7.746v6.375v0.021c1.25-0.167,2.484-0.997,3.068-2.151l2.333,2.245c0.097,0.093,0.221,0.14,0.346,0.14
		c0.131,0,0.262-0.051,0.36-0.153c0.191-0.199,0.186-0.516-0.014-0.707l-2.67-2.567c0.048-0.25,0.075-0.508,0.075-0.771v-0.021V9.23
		l2.867,0.583c0.033,0.007,0.066,0.011,0.099,0.011c0.233,0,0.442-0.164,0.49-0.4C15.011,9.152,14.837,8.889,14.566,8.834z"/>
	<path style="fill:#3D464D;" d="M10.5,4.208v-0.05c0-1.605-1.394-2.908-3-2.908s-3,1.303-3,2.908v0.05l3,0.674L10.5,4.208z"/>
</g>
</svg>
