<?xml version="1.0" encoding="utf-8"?>
<!-- Generator: Adobe Illustrator 16.0.4, SVG Export Plug-In . SVG Version: 6.00 Build 0)  -->
<!DOCTYPE svg PUBLIC "-//W3C//DTD SVG 1.1//EN" "http://www.w3.org/Graphics/SVG/1.1/DTD/svg11.dtd">
<svg version="1.1" id="artwork" xmlns="http://www.w3.org/2000/svg" xmlns:xlink="http://www.w3.org/1999/xlink" x="0px" y="0px"
	 width="16px" height="16px" viewBox="0 0 16 16" enable-background="new 0 0 16 16" xml:space="preserve">
<g>
	<path d="M2,1v1h1v1H2v1h1v1H2v1h1v1H2v1h1v1H2v1h1v1H2v1h1v1H2v1h1v1h11V1H2z M7,5.498c0-0.002,0-0.004,0-0.004
		c0-0.694,0.542-1.31,1.266-1.417c0.151-0.024,0.415-0.012,0.469,0C9.458,4.183,10,4.799,10,5.492c0,0,0,0.004,0,0.006
		c0,0.077,0.242,0.195,0.242,0.281c0,0.439-0.044,0.822-0.189,0.868C9.931,6.684,9.925,7.275,9.619,7.693
		C9.416,7.971,9.143,8.309,8.826,8.442c-0.181,0.085-0.513,0.07-0.656,0C7.852,8.309,7.575,7.971,7.371,7.693
		C7.065,7.275,7.05,6.684,6.928,6.646C6.783,6.6,6.758,6.218,6.758,5.778C6.758,5.693,7,5.574,7,5.498z M4.43,12
		c0.06-0.75,0.198-1.26,0.575-1.626c0.207-0.2,1.354-0.463,2.17-1.062c0.157-0.129,0.316-0.539,0.316-0.539L8.5,9.464l1.009-0.696
		c0,0,0.159,0.401,0.316,0.529c0.816,0.6,1.961,0.876,2.17,1.077C12.372,10.74,12.51,11.25,12.57,12H4.43z"/>
</g>
</svg>
