<?xml version="1.0" encoding="iso-8859-1"?>
<!-- Generator: Adobe Illustrator 16.0.4, SVG Export Plug-In . SVG Version: 6.00 Build 0)  -->
<!DOCTYPE svg PUBLIC "-//W3C//DTD SVG 1.1//EN" "http://www.w3.org/Graphics/SVG/1.1/DTD/svg11.dtd">
<svg version="1.1" id="artwork" xmlns="http://www.w3.org/2000/svg" xmlns:xlink="http://www.w3.org/1999/xlink" x="0px" y="0px"
	 width="16px" height="16px" viewBox="0 0 16 16" style="enable-background:new 0 0 16 16;" xml:space="preserve">
<g>
	<path style="fill:#3D464D;" d="M6,12H1.5v1.976C1.5,14.528,1.947,15,2.5,15h5v-2H6V12z"/>
	<path style="fill:#3D464D;" d="M10,13H8.5v1.976l5,0.01c0.553,0,1-0.447,1-1V12.01L10,12V13z"/>
	<path style="fill:#3D464D;" d="M14,4h-4V2.531V2.516V2.469C10,2.21,9.79,2,9.531,2H6.469C6.21,2,6,2.21,6,2.469v0.062V4H2
		C1.447,4,1,4.448,1,5v5c0,0.553,0.447,1,1,1h1.5H7v1h2v-1h3.464H14c0.553,0,1-0.447,1-1V5C15,4.448,14.553,4,14,4z M9.5,4h-3V3h3V4
		z"/>
</g>
</svg>
