<?xml version="1.0" encoding="iso-8859-1"?>
<!-- Generator: Adobe Illustrator 16.0.4, SVG Export Plug-In . SVG Version: 6.00 Build 0)  -->
<!DOCTYPE svg PUBLIC "-//W3C//DTD SVG 1.1//EN" "http://www.w3.org/Graphics/SVG/1.1/DTD/svg11.dtd">
<svg version="1.1" id="artwork" xmlns="http://www.w3.org/2000/svg" xmlns:xlink="http://www.w3.org/1999/xlink" x="0px" y="0px"
	 width="16px" height="16px" viewBox="0 0 16 16" style="enable-background:new 0 0 16 16;" xml:space="preserve">
<g>
	<path style="fill:#3D464D;" d="M15,1.592v11V14h-1.215c-0.816,0-2.853,0-4.317,1h5.317C15.337,15,16,14.145,16,13.592v-11
		C16,2.039,16,1.592,15,1.592z"/>
	<path style="fill:#3D464D;" d="M1,14v-1.408v-11c-1,0-1,0.447-1,1v11C0,14.145,0.232,15,0.785,15h5.249c-0.867-1-2.264-1-4.249-1H1
		z"/>
	<path style="fill:#3D464D;" d="M14,0.592c-2,0-3.607,0.5-4.607,1s-1.554,1-1.554,1c-0.415-0.416-0.836-0.74-1.369-1
		C4.431,0.596,2,0.592,2,0.592v12c4,0,6,2,6,2c1.917-2,6-2,6-2V0.592z M6.285,11h-3c-0.276,0-0.5-0.225-0.5-0.5
		c0-0.277,0.224-0.5,0.5-0.5h3c0.276,0,0.5,0.223,0.5,0.5C6.785,10.775,6.561,11,6.285,11z M6.285,9h-3c-0.276,0-0.5-0.225-0.5-0.5
		c0-0.277,0.224-0.5,0.5-0.5h3c0.276,0,0.5,0.223,0.5,0.5C6.785,8.775,6.561,9,6.285,9z M6.285,7h-3c-0.276,0-0.5-0.225-0.5-0.5
		c0-0.277,0.224-0.5,0.5-0.5h3c0.276,0,0.5,0.223,0.5,0.5C6.785,6.775,6.561,7,6.285,7z M6.285,5h-3c-0.276,0-0.5-0.225-0.5-0.5
		c0-0.277,0.224-0.5,0.5-0.5h3c0.276,0,0.5,0.223,0.5,0.5C6.785,4.775,6.561,5,6.285,5z M12.285,11h-3c-0.276,0-0.5-0.225-0.5-0.5
		c0-0.277,0.224-0.5,0.5-0.5h3c0.276,0,0.5,0.223,0.5,0.5C12.785,10.775,12.561,11,12.285,11z M12.285,9h-3
		c-0.276,0-0.5-0.225-0.5-0.5c0-0.277,0.224-0.5,0.5-0.5h3c0.276,0,0.5,0.223,0.5,0.5C12.785,8.775,12.561,9,12.285,9z M12.285,7h-3
		c-0.276,0-0.5-0.225-0.5-0.5c0-0.277,0.224-0.5,0.5-0.5h3c0.276,0,0.5,0.223,0.5,0.5C12.785,6.775,12.561,7,12.285,7z M12.285,5h-3
		c-0.276,0-0.5-0.225-0.5-0.5c0-0.277,0.224-0.5,0.5-0.5h3c0.276,0,0.5,0.223,0.5,0.5C12.785,4.775,12.561,5,12.285,5z"/>
</g>
</svg>
