<svg id="icons" xmlns="http://www.w3.org/2000/svg" viewBox="0 0 16 16"><title>break</title><path d="M12.5,5H3V9a4,4,0,0,0,4,4H8a4,4,0,0,0,3.86-3h.64a2.5,2.5,0,0,0,0-5Zm0,4H12V6h.5a1.5,1.5,0,0,1,0,3Z"/><path d="M4.5,4A.5.5,0,0,0,5,3.5v-1a.5.5,0,0,0-1,0v1A.5.5,0,0,0,4.5,4Z"/><path d="M6.5,4A.5.5,0,0,0,7,3.5v-2a.5.5,0,0,0-1,0v2A.5.5,0,0,0,6.5,4Z"/><path d="M8.5,4A.5.5,0,0,0,9,3.5v-2a.5.5,0,0,0-1,0v2A.5.5,0,0,0,8.5,4Z"/><path d="M10.5,4a.5.5,0,0,0,.5-.5v-1a.5.5,0,0,0-1,0v1A.5.5,0,0,0,10.5,4Z"/><path d="M11.5,14h-8a.5.5,0,0,0,0,1h8a.5.5,0,0,0,0-1Z"/></svg>