<?xml version="1.0" encoding="utf-8"?>
<!-- Generator: Adobe Illustrator 16.0.4, SVG Export Plug-In . SVG Version: 6.00 Build 0)  -->
<!DOCTYPE svg PUBLIC "-//W3C//DTD SVG 1.1//EN" "http://www.w3.org/Graphics/SVG/1.1/DTD/svg11.dtd">
<svg version="1.1" id="artwork" xmlns="http://www.w3.org/2000/svg" xmlns:xlink="http://www.w3.org/1999/xlink" x="0px" y="0px"
	 width="16px" height="16px" viewBox="0 0 16 16" enable-background="new 0 0 16 16" xml:space="preserve">
<path d="M12.814,12.487C14.119,11.875,15,10.771,15,9.5c0-0.582-0.2-1.123-0.523-1.605C13.727,6.773,12.237,6,10.5,6
	C8.015,6,6,7.566,6,9.5c0,0.518,0.153,1.006,0.413,1.447C7.122,12.156,8.681,13,10.5,13c0.022,0,0.042-0.005,0.063-0.005
	C11.22,13.868,12.542,15,15,15C15,15,13.023,14.341,12.814,12.487z"/>
<g>
	<path d="M4.6,9.5c0-2.702,2.646-4.9,5.9-4.9c1.27,0,2.48,0.345,3.473,0.949C13.676,2.999,10.892,1,7.5,1
		C3.91,1,1,3.238,1,6c0,1.48,0.837,2.811,2.167,3.727C3.5,12.161,1,13,1,13c2.065,0,3.444-0.511,4.354-1.111
		c-0.051-0.076-0.102-0.153-0.148-0.232C4.804,10.971,4.6,10.246,4.6,9.5z"/>
</g>
</svg>
