<?xml version="1.0" encoding="iso-8859-1"?>
<!-- Generator: Adobe Illustrator 16.0.4, SVG Export Plug-In . SVG Version: 6.00 Build 0)  -->
<!DOCTYPE svg PUBLIC "-//W3C//DTD SVG 1.1//EN" "http://www.w3.org/Graphics/SVG/1.1/DTD/svg11.dtd">
<svg version="1.1" id="artwork" xmlns="http://www.w3.org/2000/svg" xmlns:xlink="http://www.w3.org/1999/xlink" x="0px" y="0px"
	 width="92px" height="92px" viewBox="0 0 92 92" style="enable-background:new 0 0 92 92;" xml:space="preserve">
<g>
	<path style="fill:#3D464D;" d="M0,0v92h92V0H0z M73,63.7c0,1.894-1.405,3.3-3.3,3.3H22.4c-1.895,0-3.4-1.406-3.4-3.3V32.286
		C19,30.393,20.505,29,22.4,29h47.3c1.895,0,3.3,1.393,3.3,3.286V63.7z"/>
	<rect x="25" y="42" style="fill:#3D464D;" width="16" height="4"/>
	<path style="fill:#3D464D;" d="M58.054,52.771c-0.616-0.505-1.239-2.083-1.239-2.083l-3.958,2.726l-3.958-2.722
		c0,0-0.623,1.575-1.239,2.079c-3.201,2.351-7.694,3.251-8.511,4.036C37.669,58.243,37.234,61,37,63h31.821
		c-0.234-2-0.777-4.757-2.256-6.193C65.754,56.021,61.254,55.121,58.054,52.771z"/>
	<rect x="25" y="35" style="fill:#3D464D;" width="16" height="4"/>
	<path style="fill:#3D464D;" d="M46.683,42.918c0.476,0.149,0.542,2.468,1.741,4.106c0.944,1.279,2.263,2.89,3.783,3.138
		c0.174,0.036,1.118,0.036,1.299,0c1.52-0.248,2.846-1.858,3.783-3.138c1.199-1.639,1.259-3.957,1.734-4.106
		c0.569-0.181,0.884-1.679,0.884-3.403c0-0.335-0.67-0.801-0.73-1.102c0-0.01,0-0.017,0-0.023c-0.275-3.023-2.96-6.104-6.241-6.104
		c0,0,0,0-0.013,0c-0.027,0-0.054,0-0.067,0c-0.02,0-0.04,0-0.06,0c0,0-0.007,0-0.013,0h-0.007c-3.281,0-5.967,3.08-6.248,6.104
		c0,0.007,0,0.018,0,0.018c-0.06,0.307-0.723,0.772-0.723,1.107C45.806,41.239,46.121,42.737,46.683,42.918z"/>
</g>
</svg>
