<?xml version="1.0" encoding="iso-8859-1"?>
<!-- Generator: Adobe Illustrator 16.0.4, SVG Export Plug-In . SVG Version: 6.00 Build 0)  -->
<!DOCTYPE svg PUBLIC "-//W3C//DTD SVG 1.1//EN" "http://www.w3.org/Graphics/SVG/1.1/DTD/svg11.dtd">
<svg version="1.1" id="artwork" xmlns="http://www.w3.org/2000/svg" xmlns:xlink="http://www.w3.org/1999/xlink" x="0px" y="0px"
	 width="16px" height="16px" viewBox="0 0 16 16" style="enable-background:new 0 0 16 16;" xml:space="preserve">
<g>
	<polygon style="fill:#3D464D;" points="4.5,5.5 3.5,6.5 7.5,11.5 15.5,1.5 14.5,0.5 7.5,7.5 	"/>
	<path style="fill:#3D464D;" d="M14,8.182V5.616l-1,1.25v1.141C13.351,8.007,13.687,8.07,14,8.182z"/>
	<polygon style="fill:#3D464D;" points="2,2 11.021,2 12.021,1 1,1 1,14 9,14 9,13 2,13 	"/>
	<path style="fill:#3D464D;" d="M15.25,12H15v-1c0-1.099-0.901-1.993-2-1.993S11,9.901,11,11v1h-0.25C10.335,12,10,12.336,10,12.75
		v2.5c0,0.414,0.335,0.75,0.75,0.75h4.5c0.414,0,0.75-0.336,0.75-0.75v-2.5C16,12.336,15.664,12,15.25,12z M14,12h-2v-1
		c0-0.068,0.007-0.136,0.021-0.201c0.094-0.453,0.499-0.796,0.979-0.796c0.55,0,1,0.448,1,0.997V12z"/>
</g>
</svg>
