<?xml version="1.0" encoding="iso-8859-1"?>
<!-- Generator: Adobe Illustrator 16.0.4, SVG Export Plug-In . SVG Version: 6.00 Build 0)  -->
<!DOCTYPE svg PUBLIC "-//W3C//DTD SVG 1.1//EN" "http://www.w3.org/Graphics/SVG/1.1/DTD/svg11.dtd">
<svg version="1.1" id="art_layer" xmlns="http://www.w3.org/2000/svg" xmlns:xlink="http://www.w3.org/1999/xlink" x="0px" y="0px"
	 width="24px" height="24px" viewBox="0 0 24 24" style="enable-background:new 0 0 24 24;" xml:space="preserve">
<g>
	<g>
		<path style="fill:#555D66;" d="M21.5,2h-19C1.671,2,1,2.672,1,3.5v17C1,21.328,1.671,22,2.5,22h19c0.829,0,1.5-0.672,1.5-1.5v-17
			C23,2.672,22.329,2,21.5,2z M22,21H2V6h20V21z"/>
	</g>
</g>
<g>
	<g>
		<g>
			<path style="fill:#555D66;" d="M8.721,8.528c0,0-0.02,0.017-0.03,0.025c0.821,3.59,1.711,9.507,1.711,9.507
				s1.069-1.887,1.602-2.824c0.052,0.077,0.093,0.135,0.131,0.193c0.749,1.156,0.631,1.003,1.367,2.168
				c0.222,0.352,0.48,0.58,0.89,0.578c0.072-0.021,0.144-0.041,0.216-0.062c0.572-0.338,0.604-0.942,0.249-1.462
				c-0.748-1.101-0.58-0.93-1.305-2.049c-0.065-0.101-0.128-0.201-0.203-0.32c1.016-0.158,3.037-0.472,3.037-0.472L8.721,8.528z"/>
		</g>
	</g>
</g>
</svg>
