<?xml version="1.0" encoding="utf-8"?>
<!-- Generator: Adobe Illustrator 16.0.4, SVG Export Plug-In . SVG Version: 6.00 Build 0)  -->
<!DOCTYPE svg PUBLIC "-//W3C//DTD SVG 1.1//EN" "http://www.w3.org/Graphics/SVG/1.1/DTD/svg11.dtd">
<svg version="1.1" id="artwork" xmlns="http://www.w3.org/2000/svg" xmlns:xlink="http://www.w3.org/1999/xlink" x="0px" y="0px"
	 width="16px" height="16px" viewBox="0 0 16 16" enable-background="new 0 0 16 16" xml:space="preserve">
<g>
	<path fill="#3D464D" d="M13,3h-0.5h-10H2C1.448,3,1,3.447,1,4v0.5v5V10c0,0.553,0.448,1,1,1h0.5H5v3l3-3h2.5H13
		c0.552,0,1-0.447,1-1V9.5v-5V4C14,3.447,13.552,3,13,3z M9,6.009v1.983v0.45C9,8.742,8.77,9,8.465,9H4.602C4.297,9,4,8.742,4,8.442
		V5.558C4,5.258,4.297,5,4.602,5h3.862C8.77,5,9,5.258,9,5.558V6.009z M12,6.992v1.469c0,0.125-0.084,0.289-0.294,0.289H11.5
		L10,7.59V6.395l1.5-1.16h0.206c0.21,0,0.294,0.164,0.294,0.288V6.992z"/>
</g>
</svg>
