<?xml version="1.0" encoding="iso-8859-1"?>
<!-- Generator: Adobe Illustrator 16.0.4, SVG Export Plug-In . SVG Version: 6.00 Build 0)  -->
<!DOCTYPE svg PUBLIC "-//W3C//DTD SVG 1.1//EN" "http://www.w3.org/Graphics/SVG/1.1/DTD/svg11.dtd">
<svg version="1.1" id="art_layer" xmlns="http://www.w3.org/2000/svg" xmlns:xlink="http://www.w3.org/1999/xlink" x="0px" y="0px"
	 width="24px" height="24px" viewBox="0 0 24 24" style="enable-background:new 0 0 24 24;" xml:space="preserve">
<g>
	<path style="fill:#555D66;" d="M4.848,9.135c0.324,0.104,0.365,1.65,1.184,2.749c0.636,0.854,1.535,1.933,2.568,2.098
		C8.661,13.994,8.851,14,9.042,14c0.19,0,0.38-0.006,0.441-0.019c1.03-0.166,1.932-1.245,2.568-2.098
		c0.812-1.097,0.857-2.646,1.182-2.749c0.384-0.12,0.601-1.125,0.601-2.277c0-0.225-0.454-0.539-0.497-0.74
		c0-0.006,0.004-0.02,0.001-0.023c-0.188-2.021-2.013-4.095-4.242-4.095H9.09c-0.003,0-0.009,0-0.009,0C9.069,1.999,9.053,2,9.039,2
		c-0.01,0-0.028-0.001-0.043-0.001c0,0,0,0-0.004,0s-0.007,0-0.007,0c-2.23,0-4.053,2.074-4.241,4.095
		c0,0.004,0.003,0.022,0.003,0.028c-0.043,0.202-0.5,0.515-0.5,0.738C4.247,8.013,4.464,9.015,4.848,9.135z"/>
	<path style="fill:#555D66;" d="M14.122,10.852c0.243,0.076,0.277,1.238,0.885,2.061c0.479,0.64,1.154,1.449,1.927,1.573
		c0.047,0.009,0.188,0.014,0.331,0.014c0.144,0,0.285-0.005,0.331-0.014c0.776-0.124,1.45-0.934,1.928-1.573
		c0.613-0.824,0.645-1.984,0.888-2.061c0.288-0.091,0.451-0.842,0.451-1.707c0-0.168-0.344-0.401-0.375-0.553
		c0-0.005,0.002-0.018,0.002-0.021C20.347,7.055,18.98,5.5,17.308,5.5c0,0-0.002,0-0.005,0s-0.003,0-0.003,0
		c-0.011,0-0.023,0-0.032,0c-0.011,0-0.022,0-0.031,0c0,0-0.004,0-0.007,0h-0.005c-0.966,0-1.82,0.526-2.405,1.256
		c0.003,0.035,0.014,0.065,0.014,0.103c0,1.555-0.301,2.567-0.895,3.021c-0.03,0.097-0.063,0.218-0.092,0.317
		c-0.012,0.043-0.028,0.098-0.042,0.145C13.881,10.618,13.987,10.809,14.122,10.852z"/>
	<path style="fill:#555D66;" d="M17.016,18c-0.469-0.451-1.614-0.878-3.292-1.929c-0.302-0.19-0.615-0.394-0.951-0.627
		C12.088,14.967,11.992,14,11.992,14l-2.977,1.984L6.04,14c0,0-0.096,0.967-0.78,1.444C3.058,16.979,1.57,17.467,1.016,18
		c-0.897,0.869-0.791,2.62-0.976,4h17.952c-0.085-0.63-0.111-1.335-0.197-2C17.692,19.208,17.504,18.473,17.016,18z"/>
	<path style="fill:#555D66;" d="M23.284,17.5c-0.415-0.398-1.531-0.766-3.184-1.917c-0.513-0.358-0.585-1.083-0.585-1.083
		l-2.231,1.488L15.052,14.5c0,0-0.061,0.418-0.312,0.777c0.588,0.352,1.123,0.646,1.553,0.873c0.689,0.365,1.188,0.63,1.556,0.984
		c0.797,0.771,1.026,1.854,1.139,2.71C18.992,19.896,18.995,19.949,19,20h4.963C23.884,19.072,23.854,18.051,23.284,17.5z"/>
</g>
</svg>
