<?xml version="1.0" encoding="utf-8"?>
<!-- Generator: Adobe Illustrator 16.0.4, SVG Export Plug-In . SVG Version: 6.00 Build 0)  -->
<!DOCTYPE svg PUBLIC "-//W3C//DTD SVG 1.1//EN" "http://www.w3.org/Graphics/SVG/1.1/DTD/svg11.dtd">
<svg version="1.1" id="artwork" xmlns="http://www.w3.org/2000/svg" xmlns:xlink="http://www.w3.org/1999/xlink" x="0px" y="0px"
	 width="16px" height="16px" viewBox="0 0 16 16" enable-background="new 0 0 16 16" xml:space="preserve">
<path fill="#3D464D" d="M13,3h-0.493l1.288-1.288c0.195-0.194,0.195-0.512,0-0.707c-0.195-0.194-0.512-0.194-0.707,0L11.093,3
	l-9.709,9.709c-0.195,0.195-0.195,0.512,0,0.707c0.195,0.195,0.512,0.195,0.707,0L4.507,11H5v3l1.525-1.525L8,11h0.5h4H13
	c0.552,0,1-0.447,1-1V9.5v-5V4C14,3.447,13.552,3,13,3z"/>
<g>
	<path fill="#3D464D" d="M2.5,3H2C1.448,3,1,3.447,1,4v0.5v5V10c0,0.315,0.149,0.593,0.378,0.774L9.152,3H2.5z"/>
</g>
</svg>
