<?xml version="1.0" encoding="utf-8"?>
<!-- Generator: Adobe Illustrator 16.0.4, SVG Export Plug-In . SVG Version: 6.00 Build 0)  -->
<!DOCTYPE svg PUBLIC "-//W3C//DTD SVG 1.1//EN" "http://www.w3.org/Graphics/SVG/1.1/DTD/svg11.dtd">
<svg version="1.1" id="artwork" xmlns="http://www.w3.org/2000/svg" xmlns:xlink="http://www.w3.org/1999/xlink" x="0px" y="0px"
	 width="16px" height="16px" viewBox="0 0 16 16" enable-background="new 0 0 16 16" xml:space="preserve">
<g>
	<path d="M14.704,5.542L14.704,5.542c0.004,0.016,0.004,0.032,0.007,0.048l0.001,0.001L14.704,5.542z"/>
	<path d="M14.711,5.59c-0.989-2.891-3.453-4.84-6.492-4.84c-3.24,0-5.829,2.217-6.669,5.429
		c-0.043-0.004-0.084-0.01-0.133-0.01c-0.752,0-1.361,0.609-1.361,1.36V8.89c0,0.704,0.537,1.276,1.223,1.347l0.003,0.007
		l1.315,3.284c0.07,0.173,0.204,0.303,0.364,0.373c0.161,0.068,0.346,0.075,0.521,0.005c0.349-0.139,0.52-0.535,0.379-0.883
		l-1.33-3.32c0.002-0.004,0.004-0.009,0.005-0.013l-0.008,0h0.007c0.133-0.346,0.119-0.807,0.1-1.048
		c-0.007-0.092-0.013-0.345-0.01-0.436C2.743,4.712,5.108,2.11,8.22,2.11c2.375,0,4.311,1.519,5.149,3.789l0.042,0.109
		c0,0,0-0.001,0-0.002c0.138,0.301,0.474,0.469,0.804,0.38C14.567,6.293,14.779,5.943,14.711,5.59z"/>
	<path d="M8.174,7.043C8.332,7.026,8.407,7.257,8.61,7.175C8.455,7.112,8.349,6.973,8.174,7.043z"/>
	<path d="M8.705,7.386C8.72,7.39,8.735,7.392,8.75,7.392c0.046,0,0.087-0.016,0.126-0.031l0.131-0.046l-0.06-0.079
		C8.882,7.149,8.802,7.146,8.744,7.144L8.718,7.142c-0.039,0-0.106,0.015-0.125,0.116C8.585,7.299,8.598,7.327,8.61,7.343
		C8.637,7.379,8.679,7.384,8.705,7.386z"/>
	<path d="M12.551,7.578c-0.053-0.085-0.143-0.145-0.25-0.145c-0.115,0-0.211,0.066-0.262,0.161
		c0.003,0.092,0.002,0.184-0.001,0.275c-0.048,1.247-0.672,2.415-1.693,3.144c-0.003-0.013-0.312,0.19-0.303,0.196
		c-0.201,0.119-0.417,0.218-0.643,0.302c0.119-0.089,0.129-0.202,0.083-0.254c0.047-0.074,0.044-0.147,0.023-0.21
		c0.033-0.003,0.053-0.019,0.066-0.033c0.021-0.024,0.028-0.058,0.023-0.1c0-0.001,0-0.002,0-0.003c0.011,0,0.023-0.002,0.034-0.004
		c0.094-0.02,0.153-0.06,0.177-0.121c0.014-0.037,0.014-0.078-0.002-0.122c0.057,0.008,0.134-0.007,0.161-0.141
		c0.095-0.096,0.157-0.223,0.193-0.396c0.006-0.029,0.004-0.057,0.001-0.077c-0.001-0.01-0.002-0.026,0.009-0.036
		c0.027-0.011,0.053-0.029,0.079-0.045c0.022-0.015,0.056-0.037,0.068-0.037c0.01,0.001,0.02,0.001,0.03,0.001
		c0.139,0,0.181-0.107,0.204-0.165c0.028-0.072,0.059-0.157,0.066-0.255c0.013-0.169,0.023-0.314,0.137-0.427
		c0.015-0.014,0.031-0.031,0.046-0.053c0.042-0.066,0.056-0.129,0.041-0.189c-0.016-0.063-0.065-0.118-0.145-0.161
		c-0.026-0.015-0.052-0.03-0.077-0.045c-0.092-0.056-0.187-0.114-0.309-0.114c-0.02,0-0.04,0.001-0.055,0.004
		c-0.057-0.094-0.146-0.119-0.235-0.086c-0.002-0.005-0.005-0.01-0.008-0.015c-0.018-0.026-0.043-0.04-0.067-0.047
		c0.012-0.068,0-0.144-0.035-0.21C9.857,8.086,9.778,8.034,9.688,8.03c-0.14-0.007-0.222-0.072-0.325-0.19
		c-0.086-0.07-0.189-0.083-0.28-0.097C8.996,7.73,8.921,7.724,8.864,7.672L8.838,7.659H8.811c-0.015,0-0.028-0.003-0.038,0.001
		L8.75,7.654C8.619,7.661,8.458,7.67,8.369,7.834C8.356,7.832,8.35,7.837,8.34,7.838L8.214,7.797
		c-0.015-0.02-0.036-0.039-0.066-0.055c-0.003-0.016,0-0.04,0.013-0.096l0.012-0.049c0.016-0.083,0.003-0.153-0.039-0.206
		C8.088,7.333,8.022,7.315,7.974,7.31c0.008-0.016,0.017-0.035,0.02-0.051c0.081-0.141-0.01-0.229-0.04-0.251
		C7.889,6.956,7.799,6.962,7.729,6.985C7.624,7.009,7.587,7.093,7.567,7.137C7.562,7.145,7.55,7.164,7.497,7.169
		C7.489,7.161,7.474,7.127,7.468,7.112c-0.02-0.045-0.009-0.086,0.023-0.177L7.51,6.881C7.526,6.83,7.604,6.706,7.739,6.75
		c0.11,0.036,0.196-0.01,0.245-0.062C8.013,6.692,8.045,6.702,8.08,6.715C8.078,6.75,8.081,6.794,8.104,6.834
		c0.033,0.143,0.128,0.165,0.182,0.165l0.033-0.002c0.043-0.007,0.183-0.047,0.16-0.281L8.473,6.674
		C8.464,6.615,8.461,6.582,8.469,6.559C8.496,6.537,8.53,6.518,8.567,6.498c0.031-0.016,0.061-0.033,0.088-0.051
		c0.014-0.009,0.027-0.018,0.039-0.027c0.041-0.03,0.075-0.066,0.103-0.105c0.029-0.044,0.049-0.094,0.06-0.15
		c0.098-0.087,0.211-0.156,0.332-0.229C9.25,5.897,9.312,5.859,9.372,5.819C9.442,5.772,9.52,5.762,9.618,5.786l0.139-0.123
		l-0.02-0.129c-0.015-0.011-0.03-0.021-0.045-0.03C9.694,5.497,9.696,5.49,9.697,5.485h0.029c0.168,0,0.307-0.063,0.41-0.12
		c0.086-0.046,0.133-0.127,0.125-0.215c-0.007-0.089-0.076-0.16-0.16-0.171c-0.001-0.005-0.002-0.01-0.003-0.015
		c-0.005-0.019-0.007-0.038-0.009-0.058c-0.008-0.053-0.017-0.12-0.055-0.187L9.961,4.61L9.816,4.677
		C9.788,4.62,9.731,4.587,9.705,4.572c-0.06-0.036-0.128-0.054-0.197-0.054c-0.207,0-0.374,0.16-0.38,0.363L9.27,4.885L9.107,4.908
		c-0.03,0.017-0.077,0.041-0.121,0.079C8.938,4.927,8.864,4.908,8.837,4.901C8.829,4.9,8.811,4.888,8.795,4.878
		c-0.024-0.014-0.054-0.033-0.09-0.047c0.036-0.032,0.065-0.077,0.069-0.144l0.06-0.007V4.627c0.053-0.001,0.092-0.002,0.122-0.011
		L8.958,4.62c0.016-0.001,0.033-0.002,0.051-0.006v0.002c0.012,0,0.034,0,0.058-0.01L9.07,4.604c0.003,0,0.007-0.001,0.011-0.002
		l0.043-0.012l0.031-0.046L9.154,4.544C9.157,4.539,9.159,4.535,9.162,4.53c0.094,0.005,0.212,0.003,0.288-0.074
		c0.037-0.021,0.107-0.064,0.119-0.149c0.007-0.052-0.01-0.102-0.049-0.143L9.453,4.107H9.393c-0.062,0-0.102,0.034-0.13,0.06
		C9.234,4.035,9.121,4.029,9.098,4.029L9.053,4.034C8.928,4.062,8.88,4.147,8.862,4.224c0,0-0.009,0.004-0.037,0.004L8.789,4.226
		c-0.033-0.002-0.066-0.01-0.1-0.017C8.58,4.186,8.44,4.174,8.337,4.229C8.284,4.258,8.201,4.234,8.18,4.221
		C8.047,4.138,7.9,4.097,7.729,4.097c-0.093,0-0.183,0.013-0.258,0.024C7.334,4.142,7.208,4.136,7.073,4.103
		C6.735,4.019,6.378,4.036,6.012,4.156c-0.084,0.028-0.135,0.07-0.15,0.134L5.815,4.286c-0.102,0-0.187,0.051-0.229,0.134
		L5.545,4.503l0.021,0.025C5.441,4.557,5.399,4.656,5.38,4.702c-0.004,0.01-0.01,0.022-0.012,0.025
		C5.335,4.766,5.322,4.804,5.32,4.835C5.285,4.848,5.25,4.86,5.216,4.873l-0.12,0.088l0.113,0.275l0.137-0.067
		C5.358,5.164,5.37,5.158,5.385,5.154l0.039-0.014c0.067-0.021,0.149-0.047,0.222-0.113c0.013-0.003,0.027-0.007,0.04-0.011
		c0.028-0.006,0.057-0.014,0.083-0.022c0.023-0.008,0.045-0.018,0.072-0.03c0.015-0.008,0.027-0.015,0.04-0.023
		c0.071-0.047,0.167-0.052,0.27-0.058l0.129-0.006c0.088,0.001,0.099,0.026,0.108,0.048l0.055,0.078l0.071,0.005l0.005,0.005
		l0.093-0.008v0.054l-0.1-0.018l-0.008,0.04C6.489,5.147,6.468,5.247,6.51,5.344L6.473,5.42C6.452,5.464,6.416,5.508,6.379,5.555
		c-0.042,0.052-0.085,0.106-0.12,0.171C6.248,5.747,6.239,5.768,6.23,5.787C6.194,5.818,6.145,5.872,6.145,5.958L6.144,6.023
		c-0.005,0.12-0.012,0.3,0.152,0.43C6.283,6.516,6.293,6.578,6.324,6.639c0.004,0.122,0.065,0.213,0.115,0.29
		c0.012,0.019,0.025,0.037,0.036,0.057l0.188,0.312l0.052-0.245c0.01,0.012,0.02,0.02,0.022,0.021
		C6.674,7.279,6.826,7.377,6.895,7.421c0.083,0.055,0.153,0.09,0.224,0.111C7.165,7.546,7.213,7.559,7.26,7.571
		c0.13,0.035,0.253,0.067,0.359,0.14C7.64,7.725,7.66,7.737,7.682,7.75c0.021,0.011,0.051,0.029,0.057,0.037
		C7.795,7.94,7.919,8.004,8,8.045l0.021,0.008c0.04,0.032,0.08,0.039,0.109,0.039c0.016,0,0.032-0.002,0.058-0.011L8.264,8.04
		c0.036,0.1,0.014,0.185-0.07,0.259c-0.101,0.089-0.1,0.198-0.099,0.286c0,0.054,0,0.101-0.019,0.138
		C8.044,8.786,8.106,8.86,8.133,8.881c0.031,0.025,0.048,0.062,0.068,0.105c0.012,0.026,0.023,0.051,0.038,0.074
		c0.021,0.034,0.039,0.068,0.058,0.104c0.07,0.134,0.15,0.287,0.335,0.361C8.737,9.568,8.797,9.659,8.798,9.78
		c0,0.04,0,0.081-0.001,0.12c-0.001,0.062-0.002,0.123,0.001,0.185c0.006,0.104,0.014,0.209,0.021,0.314
		c0.012,0.151,0.022,0.301,0.029,0.452c0.003,0.079,0.037,0.132,0.067,0.18c0.008,0.011,0.015,0.023,0.022,0.036l0.021,0.037
		c0.05,0.081,0.059,0.109,0.021,0.152l-0.042,0.049l0.045,0.047c0.036,0.037,0.061,0.088,0.087,0.141
		c0.018,0.037,0.04,0.074,0.064,0.11c-1.181,0.348-2.401,0.131-3.362-0.5c-0.063-0.041-0.123-0.086-0.184-0.131
		c-0.038-0.013-0.078-0.021-0.121-0.021c-0.212,0-0.383,0.171-0.383,0.383c0,0.07,0.02,0.136,0.053,0.192
		c0.061,0.058,0.126,0.111,0.19,0.165c1.136,0.961,2.727,1.331,4.243,0.833c2.037-0.67,3.26-2.675,3.018-4.726
		C12.579,7.724,12.563,7.651,12.551,7.578z"/>
</g>
</svg>
