<?xml version="1.0" encoding="iso-8859-1"?>
<!-- Generator: Adobe Illustrator 16.0.4, SVG Export Plug-In . SVG Version: 6.00 Build 0)  -->
<!DOCTYPE svg PUBLIC "-//W3C//DTD SVG 1.1//EN" "http://www.w3.org/Graphics/SVG/1.1/DTD/svg11.dtd">
<svg version="1.1" id="artwork" xmlns="http://www.w3.org/2000/svg" xmlns:xlink="http://www.w3.org/1999/xlink" x="0px" y="0px"
	 width="92px" height="92px" viewBox="0 0 92 92" style="enable-background:new 0 0 92 92;" xml:space="preserve">
<path style="fill:#3D464D;" d="M0,0v92h92V0H0z M34.396,51.242c-0.673,0.766-1.612,1.156-2.557,1.156
	c-0.797,0-1.596-0.278-2.242-0.844c-1.41-1.239-1.551-3.387-0.312-4.799c0.167-0.192,0.368-0.516,0.368-0.979
	c0-0.419-0.168-0.721-0.309-0.9c-1.157-1.478-0.896-3.615,0.583-4.773c1.474-1.156,3.616-0.896,4.772,0.583
	c1.127,1.441,1.75,3.247,1.754,5.085C36.455,47.789,35.725,49.731,34.396,51.242z M41.926,62.422c-0.848,0-1.694-0.316-2.355-0.948
	c-1.353-1.3-1.397-3.453-0.096-4.808c2.824-2.94,4.379-6.809,4.379-10.889c0-4.037-1.523-7.868-4.289-10.791
	c-1.291-1.365-1.23-3.517,0.133-4.809c1.363-1.288,3.516-1.229,4.808,0.133c3.964,4.191,6.149,9.686,6.149,15.467
	c0,5.845-2.229,11.385-6.275,15.6C43.711,62.071,42.82,62.422,41.926,62.422z M54.9,71.975C54.233,72.658,53.35,73,52.467,73
	c-0.856,0-1.713-0.322-2.374-0.967c-1.345-1.311-1.371-3.465-0.06-4.807c5.628-5.766,8.726-13.383,8.726-21.449
	c0.001-8.016-3.06-15.596-8.621-21.346c-1.306-1.35-1.271-3.502,0.079-4.807c1.352-1.306,3.502-1.271,4.809,0.079
	c6.795,7.024,10.535,16.284,10.533,26.073C65.559,55.628,61.773,64.932,54.9,71.975z"/>
</svg>
