<?xml version="1.0" encoding="utf-8"?>
<!-- Generator: Adobe Illustrator 16.0.4, SVG Export Plug-In . SVG Version: 6.00 Build 0)  -->
<!DOCTYPE svg PUBLIC "-//W3C//DTD SVG 1.1//EN" "http://www.w3.org/Graphics/SVG/1.1/DTD/svg11.dtd">
<svg version="1.1" id="artwork" xmlns="http://www.w3.org/2000/svg" xmlns:xlink="http://www.w3.org/1999/xlink" x="0px" y="0px"
	 width="16px" height="16px" viewBox="0 0 16 16" enable-background="new 0 0 16 16" xml:space="preserve">
<g>
	<path d="M15,10h-4c-0.501,0-0.916,0.369-0.988,0.85C10.004,10.898,10,10.949,10,11v2c0,0.553,0.448,1,1,1h1v1.5
		l1.5-1.5H15c0.552,0,1-0.447,1-1v-2C16,10.447,15.552,10,15,10z"/>
	<path d="M9.033,13.345C8.75,13.703,8.409,13.9,8,13.9c-0.527,0-0.945-0.318-1.263-0.9H9v-1H6.361
		c-0.155-0.56-0.264-1.23-0.331-2h3.242C9.623,9.401,10.274,9,11,9h-0.037c0.018-0.33,0.029-0.662,0.029-0.996
		c0-0.336-0.012-0.67-0.03-1.004h2.884c0.054,0.318,0.088,0.643,0.088,0.977c0,0.35-0.036,0.689-0.095,1.023h0.975
		c0.05-0.336,0.085-0.678,0.085-1.027C14.9,4.176,11.81,1.1,8,1.1c-3.811,0-6.9,3.076-6.9,6.874c0,3.797,3.088,6.927,6.899,6.927h0
		h0c0.646,0,1.269-0.096,1.862-0.264C9.434,14.338,9.126,13.879,9.033,13.345z M10.032,9H5.968C5.956,8.678,5.944,8.353,5.944,8.004
		c0-0.351,0.011-0.678,0.023-1.004h4.064c0.012,0.326,0.023,0.653,0.023,1.004C10.056,8.353,10.044,8.678,10.032,9z M13.587,6
		h-2.707c-0.081-0.709-0.207-1.385-0.379-2h1.881C12.909,4.574,13.321,5.252,13.587,6z M11.196,3h-1.042
		C10.055,2.769,9.948,2.55,9.83,2.354C10.316,2.511,10.773,2.73,11.196,3z M8,2.108c0.523,0,0.938,0.317,1.256,0.892H6.743
		C7.061,2.426,7.476,2.108,8,2.108z M9.635,4c0.156,0.56,0.266,1.23,0.333,2H6.031c0.067-0.77,0.177-1.44,0.333-2H9.635z
		 M6.169,2.354C6.051,2.551,5.945,2.769,5.846,3H4.805C5.227,2.73,5.684,2.512,6.169,2.354z M3.618,4h1.88
		C5.326,4.615,5.2,5.291,5.119,6H2.413C2.68,5.252,3.092,4.574,3.618,4z M2.065,7.977C2.065,7.644,2.1,7.318,2.153,7h2.884
		c-0.018,0.334-0.03,0.668-0.03,1.004C5.007,8.338,5.019,8.67,5.037,9H2.16C2.102,8.666,2.065,8.326,2.065,7.977z M2.427,10h2.691
		c0.08,0.709,0.206,1.385,0.377,2H3.64C3.113,11.424,2.698,10.746,2.427,10z M4.826,13h1.016c0.097,0.228,0.2,0.443,0.315,0.637
		C5.684,13.48,5.239,13.264,4.826,13z"/>
</g>
</svg>
