<?xml version="1.0" encoding="utf-8"?>
<!-- Generator: Adobe Illustrator 16.0.4, SVG Export Plug-In . SVG Version: 6.00 Build 0)  -->
<!DOCTYPE svg PUBLIC "-//W3C//DTD SVG 1.1//EN" "http://www.w3.org/Graphics/SVG/1.1/DTD/svg11.dtd">
<svg version="1.1" id="artwork" xmlns="http://www.w3.org/2000/svg" xmlns:xlink="http://www.w3.org/1999/xlink" x="0px" y="0px"
	 width="16px" height="16px" viewBox="0 0 16 16" enable-background="new 0 0 16 16" xml:space="preserve">
<g>
	<polygon fill="#3D464D" points="0,2 0,14 8,14 8,13 1,13 1,3 15,3 15,13 13,13 13,14 16,14 16,2 	"/>
	<rect x="2" y="5" fill="#3D464D" width="4" height="1"/>
	<rect x="2" y="7" fill="#3D464D" width="4" height="1"/>
	<polygon fill="#3D464D" points="13.246,10.433 13.115,9.197 14.25,8.692 13.52,7.688 14.25,6.683 13.115,6.178 13.246,4.942 
		12.01,5.072 11.505,3.938 10.5,4.668 9.496,3.938 8.99,5.072 7.754,4.942 7.885,6.178 6.75,6.683 7.48,7.688 6.75,8.692 
		7.885,9.197 7.754,10.433 8.99,10.303 9,10.325 9,12.333 9,13.792 9,15.25 10.5,13.792 12,15.25 12,13.792 12,12.333 12,10.325 
		12.01,10.303 	"/>
</g>
</svg>
