<?xml version="1.0" encoding="iso-8859-1"?>
<!-- Generator: Adobe Illustrator 16.0.4, SVG Export Plug-In . SVG Version: 6.00 Build 0)  -->
<!DOCTYPE svg PUBLIC "-//W3C//DTD SVG 1.1//EN" "http://www.w3.org/Graphics/SVG/1.1/DTD/svg11.dtd">
<svg version="1.1" id="artwork" xmlns="http://www.w3.org/2000/svg" xmlns:xlink="http://www.w3.org/1999/xlink" x="0px" y="0px"
	 width="16px" height="16px" viewBox="0 0 16 16" style="enable-background:new 0 0 16 16;" xml:space="preserve">
<g>
	<path style="fill-rule:evenodd;clip-rule:evenodd;fill:#3D464D;" d="M10.868,6.021c-0.021-0.02-0.054-0.018-0.078-0.004L8.442,7.84
		C8.304,7.787,8.157,7.75,8,7.75C7.31,7.75,6.75,8.31,6.75,9S7.31,10.25,8,10.25S9.25,9.69,9.25,9c0-0.168-0.035-0.328-0.096-0.475
		c0.518-0.712,1.17-1.619,1.722-2.426C10.894,6.075,10.89,6.042,10.868,6.021z"/>
	<rect x="7" style="fill-rule:evenodd;clip-rule:evenodd;fill:#3D464D;" width="2" height="2"/>
	<path style="fill-rule:evenodd;clip-rule:evenodd;fill:#3D464D;" d="M13.954,4.461L12.54,3.048L11.4,4.186
		C10.438,3.505,9.266,3.1,8,3.1C4.747,3.1,2.1,5.747,2.1,9c0,3.254,2.646,5.901,5.9,5.901S13.9,12.254,13.9,9
		c0-1.266-0.404-2.438-1.086-3.399L13.954,4.461z M8,13.901c-2.702,0-4.9-2.2-4.9-4.901c0-2.7,2.198-4.9,4.9-4.9s4.9,2.2,4.9,4.9
		C12.9,11.701,10.702,13.901,8,13.901z"/>
</g>
</svg>
