<?xml version="1.0" encoding="iso-8859-1"?>
<!-- Generator: Adobe Illustrator 16.0.4, SVG Export Plug-In . SVG Version: 6.00 Build 0)  -->
<!DOCTYPE svg PUBLIC "-//W3C//DTD SVG 1.1//EN" "http://www.w3.org/Graphics/SVG/1.1/DTD/svg11.dtd">
<svg version="1.1" id="art_layer" xmlns="http://www.w3.org/2000/svg" xmlns:xlink="http://www.w3.org/1999/xlink" x="0px" y="0px"
	 width="24px" height="24px" viewBox="0 0 24 24" style="enable-background:new 0 0 24 24;" xml:space="preserve">
<g>
	<path style="fill:#555D66;" d="M21.645,17.713l-3.132-3.135c-0.436-0.428-1.154-0.41-1.605,0.04l-0.442,0.441l-0.626,0.617
		c-1.211,1.208-3.126,1.254-4.281,0.101l-0.523-0.521l-2.609-2.61c-1.153-1.156-1.106-3.07,0.104-4.282l0.353-0.344l0.271-0.268
		l0.442-0.445c0.451-0.453,0.466-1.172,0.034-1.605L6.495,2.567C6.063,2.136,5.347,2.151,4.893,2.605L4.187,3.399
		C3.363,4.222,2.783,5.294,2.635,6.223c-0.369,2.303,0.982,6.716,4.836,10.567c0.006,0.007,0.015,0.013,0.021,0.018
		c0.005,0.006,0.011,0.015,0.019,0.021c3.852,3.854,8.267,5.206,10.567,4.837c0.929-0.146,2.003-0.728,2.824-1.55l0.708-0.795
		C22.061,18.866,22.076,18.147,21.645,17.713z"/>
</g>
<path style="fill:#555D66;" d="M14,3v2h3.793l-5.121,5.121l1.311,1.415L19,6.414V10h2V3H14z"/>
</svg>
