<?xml version="1.0" encoding="iso-8859-1"?>
<!-- Generator: Adobe Illustrator 16.0.4, SVG Export Plug-In . SVG Version: 6.00 Build 0)  -->
<!DOCTYPE svg PUBLIC "-//W3C//DTD SVG 1.1//EN" "http://www.w3.org/Graphics/SVG/1.1/DTD/svg11.dtd">
<svg version="1.1" id="art_layer" xmlns="http://www.w3.org/2000/svg" xmlns:xlink="http://www.w3.org/1999/xlink" x="0px" y="0px"
	 width="24px" height="24px" viewBox="0 0 24 24" style="enable-background:new 0 0 24 24;" xml:space="preserve">
<g>
	<path style="fill:#555D66;" d="M12,2C7.844,2,4.279,3.931,2.484,6.73c-0.773,1.204-1.253,2.555-1.253,4.008
		c0,3.176,2.109,5.93,5.231,7.458c0.034,4.053-4.474,4.761-4.474,4.761c5.882,0,8.287-1.312,9.858-3.493
		c0.052,0,0.1,0.013,0.152,0.013c4.354,0,8.083-2.106,9.78-5.124c0.621-1.104,0.988-2.321,0.988-3.615C22.769,5.912,17.947,2,12,2z
		 M17,14H7c-0.552,0-1-0.448-1-1c0-0.552,0.448-1,1-1h10c0.553,0,1,0.448,1,1C18,13.552,17.553,14,17,14z M17,10H7
		c-0.552,0-1-0.448-1-1s0.448-1,1-1h10c0.553,0,1,0.448,1,1S17.553,10,17,10z"/>
</g>
</svg>
