<?xml version="1.0" encoding="utf-8"?>
<!-- Generator: Adobe Illustrator 16.0.4, SVG Export Plug-In . SVG Version: 6.00 Build 0)  -->
<!DOCTYPE svg PUBLIC "-//W3C//DTD SVG 1.1//EN" "http://www.w3.org/Graphics/SVG/1.1/DTD/svg11.dtd">
<svg version="1.1" id="artwork" xmlns="http://www.w3.org/2000/svg" xmlns:xlink="http://www.w3.org/1999/xlink" x="0px" y="0px"
	 width="16px" height="16px" viewBox="0 0 16 16" enable-background="new 0 0 16 16" xml:space="preserve">
<path d="M8,1.1c-3.811,0-6.9,3.076-6.9,6.874c0,3.797,3.088,6.927,6.899,6.927h0l0,0h0c3.81,0,6.9-3.129,6.9-6.928
	C14.9,4.176,11.81,1.1,8,1.1z M13.935,7.977c0,0.35-0.036,0.689-0.095,1.023h-2.876c0.018-0.33,0.029-0.662,0.029-0.996
	c0-0.336-0.012-0.67-0.03-1.004h2.884C13.9,7.318,13.935,7.643,13.935,7.977z M2.065,7.977C2.065,7.644,2.1,7.318,2.153,7h2.884
	c-0.018,0.334-0.03,0.668-0.03,1.004C5.007,8.338,5.019,8.67,5.037,9H2.16C2.102,8.666,2.065,8.326,2.065,7.977z M10.056,8.004
	c0,0.349-0.011,0.674-0.023,0.996H5.968C5.956,8.678,5.944,8.353,5.944,8.004c0-0.351,0.011-0.678,0.023-1.004h4.064
	C10.044,7.326,10.056,7.653,10.056,8.004z M6.361,12c-0.155-0.56-0.264-1.23-0.331-2h3.938c-0.067,0.77-0.177,1.44-0.332,2H6.361z
	 M9.263,13C8.944,13.582,8.526,13.9,8,13.9c-0.527,0-0.945-0.318-1.263-0.9H9.263z M6.031,6c0.067-0.77,0.177-1.44,0.333-2h3.271
	c0.156,0.56,0.266,1.23,0.333,2H6.031z M6.743,3C7.061,2.426,7.476,2.108,8,2.108c0.523,0,0.938,0.317,1.256,0.892H6.743z
	 M9.83,2.354C10.316,2.511,10.773,2.73,11.196,3h-1.042C10.055,2.769,9.948,2.55,9.83,2.354z M5.846,3H4.805
	c0.422-0.27,0.879-0.488,1.365-0.646C6.051,2.551,5.945,2.769,5.846,3z M5.498,4C5.326,4.615,5.2,5.291,5.119,6H2.413
	C2.68,5.252,3.092,4.574,3.618,4H5.498z M5.118,10c0.08,0.709,0.206,1.385,0.377,2H3.64c-0.527-0.576-0.942-1.254-1.213-2H5.118z
	 M5.842,13c0.097,0.228,0.2,0.443,0.315,0.637C5.684,13.48,5.239,13.264,4.826,13H5.842z M10.158,13h1.016
	c-0.413,0.264-0.858,0.48-1.332,0.637C9.957,13.443,10.061,13.228,10.158,13z M10.504,12c0.171-0.615,0.297-1.291,0.377-2h2.691
	c-0.271,0.747-0.686,1.424-1.213,2H10.504z M10.881,6c-0.081-0.709-0.207-1.385-0.379-2h1.881c0.526,0.574,0.938,1.252,1.205,2
	H10.881z"/>
</svg>
