<?xml version="1.0" encoding="iso-8859-1"?>
<!-- Generator: Adobe Illustrator 16.0.4, SVG Export Plug-In . SVG Version: 6.00 Build 0)  -->
<!DOCTYPE svg PUBLIC "-//W3C//DTD SVG 1.1//EN" "http://www.w3.org/Graphics/SVG/1.1/DTD/svg11.dtd">
<svg version="1.1" id="artwork" xmlns="http://www.w3.org/2000/svg" xmlns:xlink="http://www.w3.org/1999/xlink" x="0px" y="0px"
	 width="92px" height="92px" viewBox="0 0 92 92" style="enable-background:new 0 0 92 92;" xml:space="preserve">
<g>
	<path style="fill:#3D464D;" d="M0,0v92h92V0H0z M62.667,64.029l-0.589,0.023l-32.554,0.014h-0.002
		c-0.721,0-1.446-0.088-2.153-0.263c-4.791-0.886-8.428-5.287-8.428-10.425c0-4.153,2.355-7.781,5.856-9.538
		c0.416-6.548,5.831-11.749,12.431-11.749c2.108,0,4.141,0.537,5.934,1.515c1.102-1.781,2.369-3.271,3.789-4.468
		c3.285-3.039,6.816-3.444,9.512-3.444c7.457,0,13.527,6.121,13.527,13.651c0,1.552-0.26,3.077-0.77,4.545
		c2.361,2.181,3.845,5.409,3.845,8.745C73.063,58.853,68.539,63.752,62.667,64.029z"/>
</g>
</svg>
