<?xml version="1.0" encoding="utf-8"?>
<!-- Generator: Adobe Illustrator 16.0.4, SVG Export Plug-In . SVG Version: 6.00 Build 0)  -->
<!DOCTYPE svg PUBLIC "-//W3C//DTD SVG 1.1//EN" "http://www.w3.org/Graphics/SVG/1.1/DTD/svg11.dtd">
<svg version="1.1" id="artwork" xmlns="http://www.w3.org/2000/svg" xmlns:xlink="http://www.w3.org/1999/xlink" x="0px" y="0px"
	 width="16px" height="16px" viewBox="0 0 16 16" enable-background="new 0 0 16 16" xml:space="preserve">
<g>
	<polygon fill="#3D464D" points="13.369,9 11.633,9 12.5,9.869 	"/>
	<polygon fill="#3D464D" points="15.301,10.351 14.65,9.699 12.5,11.849 10.352,9.699 9.699,10.351 11.85,12.5 9.701,14.649 
		10.352,15.301 12.5,13.151 14.65,15.301 15.301,14.649 13.152,12.5 	"/>
	<path fill="#3D464D" d="M9.869,12.5l-0.5-0.5H6.352c-0.152-0.561-0.262-1.231-0.328-2h2.045L9.07,9H5.964
		c-0.012-0.32-0.02-0.65-0.02-0.996c0-0.348,0.008-0.681,0.02-1.004H6h4.036C10.049,7.323,10,7.656,10,8.004
		c0,0.005,0,0.008,0,0.013l0.324-0.297l0.65,0.636c0.002-0.117,0.012-0.234,0.012-0.352c0-0.335-0.002-0.671-0.021-1.004h2.889
		c0.053,0.318,0.082,0.644,0.082,0.977c0,0.161-0.01,0.32-0.021,0.479l0.736-0.736L14.9,7.97C14.898,4.174,11.809,1.1,8,1.1
		c-3.811,0-6.901,3.076-6.901,6.874c0,3.788,3.074,6.911,6.872,6.927l-0.25-0.251l0.965-0.966C8.482,13.825,8.254,13.9,8,13.9
		c-0.527,0-0.945-0.317-1.266-0.9h2.635L9.869,12.5z M13.594,6h-2.711c-0.082-0.708-0.205-1.386-0.377-2h1.887
		C12.916,4.574,13.328,5.253,13.594,6z M11.203,3h-1.045c-0.1-0.233-0.209-0.45-0.328-0.648C10.318,2.51,10.779,2.729,11.203,3z
		 M8,2.108c0.523,0,0.939,0.315,1.258,0.892H7H6.74C7.059,2.424,7.475,2.108,8,2.108z M7,4h2.645C9.799,4.56,9.91,5.231,9.977,6
		H6.025c0.066-0.769,0.176-1.44,0.33-2H7z M6.17,2.353C6.051,2.55,5.941,2.767,5.841,3H4.798C5.222,2.729,5.681,2.51,6.17,2.353z
		 M3.609,4h1.885c-0.17,0.614-0.295,1.292-0.375,2H2.406C2.673,5.253,3.083,4.574,3.609,4z M2.066,7.977
		c0-0.332,0.029-0.658,0.082-0.977h2.887C5.017,7.333,5.007,7.669,5.007,8.004c0,0.333,0.01,0.666,0.027,0.996H2.156
		C2.097,8.667,2.066,8.326,2.066,7.977z M2.419,10h2.697c0.08,0.708,0.205,1.386,0.375,2H3.632C3.105,11.424,2.691,10.746,2.419,10z
		 M4.818,13h1.02c0.098,0.23,0.206,0.443,0.321,0.639C5.683,13.482,5.234,13.266,4.818,13z"/>
</g>
</svg>
