<?xml version="1.0" encoding="iso-8859-1"?>
<!-- Generator: Adobe Illustrator 16.0.4, SVG Export Plug-In . SVG Version: 6.00 Build 0)  -->
<!DOCTYPE svg PUBLIC "-//W3C//DTD SVG 1.1//EN" "http://www.w3.org/Graphics/SVG/1.1/DTD/svg11.dtd">
<svg version="1.1" id="artwork" xmlns="http://www.w3.org/2000/svg" xmlns:xlink="http://www.w3.org/1999/xlink" x="0px" y="0px"
	 width="16px" height="16px" viewBox="0 0 16 16" style="enable-background:new 0 0 16 16;" xml:space="preserve">
<g>
	<path style="fill:#3D464D;" d="M8,1.1c-3.811,0-6.9,3.076-6.9,6.874s3.09,6.928,6.9,6.928s6.899-3.13,6.899-6.929
		C14.899,4.176,11.811,1.1,8,1.1z M8,13.901c-3.259,0-5.9-2.677-5.9-5.924S4.741,2.1,8,2.1c3.258,0,5.9,2.631,5.9,5.877
		C13.9,11.225,11.258,13.901,8,13.901z"/>
</g>
<g>
	<path style="fill:#3D464D;" d="M11,9c-0.041,0-4,0-4,0s0-4.969,0-5c0-0.276,0.224-0.5,0.5-0.5S8,3.724,8,4c0,0.092,0,4,0,4
		s2.911,0,3,0c0.276,0,0.5,0.225,0.5,0.5C11.5,8.776,11.276,9,11,9z"/>
</g>
</svg>
