<?xml version="1.0" encoding="iso-8859-1"?>
<!-- Generator: Adobe Illustrator 16.0.4, SVG Export Plug-In . SVG Version: 6.00 Build 0)  -->
<!DOCTYPE svg PUBLIC "-//W3C//DTD SVG 1.1//EN" "http://www.w3.org/Graphics/SVG/1.1/DTD/svg11.dtd">
<svg version="1.1" id="artwork" xmlns="http://www.w3.org/2000/svg" xmlns:xlink="http://www.w3.org/1999/xlink" x="0px" y="0px"
	 width="16px" height="16px" viewBox="0 0 16 16" style="enable-background:new 0 0 16 16;" xml:space="preserve">
<g>
	<g>
		<path style="fill:#3D464D;" d="M14.855,4.667L14.11,5.334c0.533,0.596,0.827,1.365,0.827,2.166s-0.294,1.57-0.827,2.167
			l0.745,0.667c0.697-0.78,1.082-1.787,1.082-2.834S15.553,5.447,14.855,4.667z"/>
		<path style="fill:#3D464D;" d="M12,5.204l2.764-2.794c0.195-0.195,0.18-0.512-0.016-0.707c-0.185-0.184-0.482-0.191-0.68-0.029
			L12,3.74l-1,0.999L6.663,9.072L5.735,10l-1.192,1.191l-2.202,2.2L1.342,14.39c-0.194,0.195-0.196,0.512-0.002,0.707
			c0.195,0.195,0.512,0.32,0.707,0.125L3.393,14h1.045h0.75c0.276,0,0.5-0.224,0.5-0.5S5.464,13,5.188,13H4.824l-0.062-0.494
			l2.059-2.122c0.017-0.014,0.045-0.02,0.067-0.028c1.353,0.685,4.202,2.13,4.223,2.147c0.147,0.128,0.388,0.096,0.566,0.015
			C11.854,12.436,12,12.195,12,12V8.5L13,8V7l-1-0.5V5.204z M11,6.204V7.25v4L7.641,9.563L11,6.204z"/>
		<path style="fill:#3D464D;" d="M2.068,11.683L6,7.783V6.25l2.905-1.446L9.021,4.73l2.274-2.29
			c-0.062,0.002-0.121,0.014-0.17,0.057C11.099,2.521,6.188,5,6.188,5h-5.25L0,6v3l0.938,1h0.863L2.068,11.683z"/>
	</g>
</g>
</svg>
