<?xml version="1.0" encoding="utf-8"?>
<!-- Generator: Adobe Illustrator 16.0.4, SVG Export Plug-In . SVG Version: 6.00 Build 0)  -->
<!DOCTYPE svg PUBLIC "-//W3C//DTD SVG 1.1//EN" "http://www.w3.org/Graphics/SVG/1.1/DTD/svg11.dtd">
<svg version="1.1" id="artwork" xmlns="http://www.w3.org/2000/svg" xmlns:xlink="http://www.w3.org/1999/xlink" x="0px" y="0px"
	 width="16px" height="16px" viewBox="0 0 16 16" enable-background="new 0 0 16 16" xml:space="preserve">
<g>
	<path d="M13,3H2C1.448,3,1,3.447,1,4v5.5V10c0,0.553,0.448,1,1,1h3v3l3-3h5c0.552,0,1-0.447,1-1V4
		C14,3.447,13.552,3,13,3z M11.863,6.654c-1.224,1.374-2.764,2.131-4.339,2.131c-1.626,0-3.192-0.764-4.407-2.153
		C2.783,6.25,2.823,5.672,3.205,5.338c0.384-0.334,0.966-0.293,1.3,0.088C5.114,6.12,6.132,6.948,7.524,6.948
		c1.333,0,2.346-0.822,2.961-1.512c0.337-0.379,0.918-0.417,1.3-0.076C12.167,5.696,12.201,6.276,11.863,6.654z"/>
</g>
</svg>
