<?xml version="1.0" encoding="utf-8"?>
<!-- Generator: Adobe Illustrator 16.0.4, SVG Export Plug-In . SVG Version: 6.00 Build 0)  -->
<!DOCTYPE svg PUBLIC "-//W3C//DTD SVG 1.1//EN" "http://www.w3.org/Graphics/SVG/1.1/DTD/svg11.dtd">
<svg version="1.1" id="artwork" xmlns="http://www.w3.org/2000/svg" xmlns:xlink="http://www.w3.org/1999/xlink" x="0px" y="0px"
	 width="16px" height="16px" viewBox="0 0 16 16" enable-background="new 0 0 16 16" xml:space="preserve">
<polygon points="13.151,11.5 15.301,9.351 14.649,8.699 12.5,10.849 10.352,8.699 9.699,9.351 11.85,11.5 
	9.7,13.648 10.352,14.301 12.5,12.151 14.649,14.301 15.301,13.648 "/>
<g>
	<path d="M7.719,9.35l2.634-2.63L12.5,8.869l2.149-2.15l0.348,0.348C14.997,7.045,15,7.022,15,7c0-2.762-3.134-5-7-5
		S1,4.238,1,7c0,1.415,0.826,2.69,2.149,3.6C3.59,13.133,1,14,1,14c3.213,0,4.77-1.236,5.475-2.123C6.967,11.955,7.476,12,8,12
		c0.512,0,1.008-0.043,1.488-0.119L9.869,11.5L7.719,9.35z"/>
</g>
</svg>
