<?xml version="1.0" encoding="utf-8"?>
<!-- Generator: Adobe Illustrator 16.0.4, SVG Export Plug-In . SVG Version: 6.00 Build 0)  -->
<!DOCTYPE svg PUBLIC "-//W3C//DTD SVG 1.1//EN" "http://www.w3.org/Graphics/SVG/1.1/DTD/svg11.dtd">
<svg version="1.1" xmlns="http://www.w3.org/2000/svg" xmlns:xlink="http://www.w3.org/1999/xlink" x="0px" y="0px" width="16px"
	 height="16px" viewBox="0 0 16 16" style="enable-background:new 0 0 16 16;" xml:space="preserve">
<style type="text/css">
<![CDATA[
	.st0{fill-rule:evenodd;clip-rule:evenodd;fill:#3D464D;}
	.st1{opacity:0.15;fill:#FF00FF;}
	.st2{opacity:0.25;fill:#66CCCC;}
	.st3{opacity:0.22;fill:#FBB03B;}
	.st4{opacity:0.25;fill:#CCCCCC;}
	.st5{fill:#999999;}
	.st6{opacity:0.2;fill:#CCCCCC;}
	.st7{opacity:0.2;}
	.st8{fill:none;}
	.st9{fill:#CCCCCC;}
	.st10{opacity:0.4;fill:#FFFFFF;}
	.st11{fill:#3D464D;}
]]>
</style>
<g id="copy">
</g>
<g id="guides">
</g>
<g id="artwork">
	<g>
		<rect x="4" y="1" class="st11" width="1" height="2"/>
		<rect x="11" y="1" class="st11" width="1" height="2"/>
		<path class="st11" d="M13,2v2h-3V2H6v2H3V2H1v13h14V2H13z M14,14H2V6h2.7l0.1-0.1l0,0c0.3-0.3,0.6-0.4,1-0.4c0.4,0,0.7,0.1,1,0.4
			L7,6h7V14z"/>
		<path class="st11" d="M5.6,6.6L5.3,6.9C5.1,7.2,4.9,7.5,4.8,7.8c-0.1,0.8,0.3,2.2,1.6,3.5c0,0,0,0,0,0c0,0,0,0,0,0
			c1.3,1.3,2.8,1.7,3.5,1.6c0.3,0,0.7-0.2,0.9-0.5l0.2-0.3c0.2-0.2,0.2-0.4,0-0.5l-1-1c-0.1-0.1-0.4-0.1-0.5,0l-0.1,0.1L9.2,11
			c-0.4,0.4-1,0.4-1.4,0l-0.2-0.2L6.7,10c-0.4-0.4-0.4-1,0-1.4l0.1-0.1L7,8.3l0.1-0.1c0.2-0.2,0.2-0.4,0-0.5l-1-1
			C6,6.5,5.7,6.5,5.6,6.6z"/>
	</g>
</g>
</svg>
