<?xml version="1.0" encoding="utf-8"?>
<!-- Generator: Adobe Illustrator 16.0.4, SVG Export Plug-In . SVG Version: 6.00 Build 0)  -->
<!DOCTYPE svg PUBLIC "-//W3C//DTD SVG 1.1//EN" "http://www.w3.org/Graphics/SVG/1.1/DTD/svg11.dtd">
<svg version="1.1" id="artwork" xmlns="http://www.w3.org/2000/svg" xmlns:xlink="http://www.w3.org/1999/xlink" x="0px" y="0px"
	 width="16px" height="16px" viewBox="0 0 16 16" enable-background="new 0 0 16 16" xml:space="preserve">
<g>
	<path d="M15.353,1.453c-0.174-0.174-0.439-0.186-0.634-0.051L1.142,14.9c-0.191,0.195-0.19,0.508,0.004,0.703
		c0.195,0.195,0.512,0.195,0.707,0L3.462,14l0.459-0.457c1.143,0.848,2.55,1.357,4.077,1.357H8c3.811,0,6.899-3.129,6.899-6.928
		c0-1.514-0.495-2.906-1.326-4.041l1.78-1.771C15.548,1.965,15.548,1.648,15.353,1.453z M10.042,7.447
		c0.006,0.184,0.014,0.361,0.014,0.557c0,0.35-0.012,0.672-0.023,0.996H8.484L10.042,7.447z M5.49,11.98
		c0.002,0.006,0.003,0.014,0.005,0.02H5.471L5.49,11.98z M4.826,13h1.016c0.098,0.229,0.2,0.443,0.315,0.637
		C5.684,13.48,5.238,13.264,4.826,13z M7.999,13.9c-0.526,0-0.944-0.318-1.263-0.9h2.526C8.943,13.582,8.525,13.9,7.999,13.9z
		 M6.361,12c-0.061-0.223-0.11-0.475-0.157-0.729L7.48,10h2.489c-0.067,0.77-0.178,1.439-0.332,2H6.361z M9.841,13.637
		c0.115-0.193,0.219-0.408,0.315-0.637h1.017C10.76,13.264,10.315,13.48,9.841,13.637z M12.359,12h-1.855
		c0.172-0.615,0.298-1.291,0.378-2h2.69C13.301,10.746,12.886,11.424,12.359,12z M13.934,7.977c0,0.35-0.036,0.689-0.095,1.023
		h-2.877c0.019-0.332,0.029-0.664,0.029-0.996c0-0.336-0.011-0.672-0.029-1.004h2.884C13.9,7.318,13.934,7.643,13.934,7.977z
		 M13.587,6h-2.092L12,5.498l0.862-0.857C13.154,5.062,13.412,5.508,13.587,6z"/>
	<path d="M3.221,11.443C2.9,10.998,2.617,10.523,2.427,10h2.244L5.96,8.715C5.953,8.482,5.944,8.252,5.944,8.004
		c0-0.352,0.011-0.678,0.023-1.004h1.718L8.69,6H6.031c0.067-0.77,0.177-1.439,0.332-2h3.272C9.708,4.266,9.77,4.559,9.824,4.871
		l0.712-0.709C10.522,4.111,10.516,4.051,10.501,4h0.197l1.486-1.479C11.024,1.633,9.577,1.1,8,1.1C4.189,1.1,1.1,4.176,1.1,7.975
		c0,1.562,0.531,3.008,1.414,4.172L3.221,11.443z M11.195,3h-1.042c-0.099-0.23-0.206-0.451-0.324-0.646
		C10.316,2.51,10.773,2.73,11.195,3z M7.999,2.107c0.523,0,0.938,0.316,1.258,0.893H6.743C7.06,2.424,7.476,2.107,7.999,2.107z
		 M6.168,2.354C6.051,2.549,5.944,2.77,5.845,3H4.804C5.226,2.73,5.683,2.51,6.168,2.354z M3.617,4h1.881
		C5.326,4.615,5.199,5.291,5.119,6H2.412C2.679,5.252,3.091,4.574,3.617,4z M2.065,7.977c0-0.332,0.034-0.658,0.088-0.977h2.884
		C5.019,7.332,5.007,7.668,5.007,8.004c0,0.332,0.012,0.664,0.028,0.996H2.159C2.101,8.666,2.065,8.326,2.065,7.977z"/>
</g>
</svg>
