<?xml version="1.0" encoding="iso-8859-1"?>
<!-- Generator: Adobe Illustrator 16.0.4, SVG Export Plug-In . SVG Version: 6.00 Build 0)  -->
<!DOCTYPE svg PUBLIC "-//W3C//DTD SVG 1.1//EN" "http://www.w3.org/Graphics/SVG/1.1/DTD/svg11.dtd">
<svg version="1.1" id="artwork" xmlns="http://www.w3.org/2000/svg" xmlns:xlink="http://www.w3.org/1999/xlink" x="0px" y="0px"
	 width="16px" height="16px" viewBox="0 0 16 16" style="enable-background:new 0 0 16 16;" xml:space="preserve">
<g>
	<path style="fill:#3D464D;" d="M8,1.399c-3.646,0-6.6,2.942-6.6,6.575s2.954,6.626,6.6,6.626c3.645,0,6.6-2.993,6.6-6.627
		C14.6,4.342,11.645,1.399,8,1.399z M11,9c-0.041,0-4,0-4,0s0-4.969,0-5c0-0.276,0.224-0.5,0.5-0.5S8,3.724,8,4c0,0.092,0,4,0,4
		s2.911,0,3,0c0.276,0,0.5,0.225,0.5,0.5C11.5,8.776,11.276,9,11,9z"/>
</g>
</svg>
