<?xml version="1.0" encoding="iso-8859-1"?>
<!-- Generator: Adobe Illustrator 16.0.4, SVG Export Plug-In . SVG Version: 6.00 Build 0)  -->
<!DOCTYPE svg PUBLIC "-//W3C//DTD SVG 1.1//EN" "http://www.w3.org/Graphics/SVG/1.1/DTD/svg11.dtd">
<svg version="1.1" id="artwork" xmlns="http://www.w3.org/2000/svg" xmlns:xlink="http://www.w3.org/1999/xlink" x="0px" y="0px"
	 width="16px" height="16px" viewBox="0 0 16 16" style="enable-background:new 0 0 16 16;" xml:space="preserve">
<g>
	<path style="fill:#3D464D;" d="M12,3c0-0.195-0.146-0.373-0.323-0.455c-0.179-0.081-0.403-0.176-0.551-0.048
		C11.099,2.521,6.188,5,6.188,5h-5.25L0,6v3l0.938,1h0.863l0.637,4h2h0.75c0.276,0,0.5-0.224,0.5-0.5S5.464,13,5.188,13H4.824
		l-0.467-3h1.83c0,0,4.896,2.479,4.923,2.503c0.147,0.128,0.388,0.096,0.566,0.015C11.854,12.436,12,12.195,12,12V8.5L13,8V7l-1-0.5
		V3z M11,7.25v4L6,8.739V6.25l5-2.489V7.25z"/>
	<path style="fill:#3D464D;" d="M14.855,4.667L14.11,5.334c0.533,0.596,0.827,1.365,0.827,2.166s-0.294,1.57-0.827,2.167
		l0.745,0.667c0.697-0.78,1.082-1.787,1.082-2.834S15.553,5.447,14.855,4.667z"/>
</g>
</svg>
