<?xml version="1.0" encoding="utf-8"?>
<!-- Generator: Adobe Illustrator 16.0.4, SVG Export Plug-In . SVG Version: 6.00 Build 0)  -->
<!DOCTYPE svg PUBLIC "-//W3C//DTD SVG 1.1//EN" "http://www.w3.org/Graphics/SVG/1.1/DTD/svg11.dtd">
<svg version="1.1" id="artwork" xmlns="http://www.w3.org/2000/svg" xmlns:xlink="http://www.w3.org/1999/xlink" x="0px" y="0px"
	 width="16px" height="16px" viewBox="0 0 16 16" enable-background="new 0 0 16 16" xml:space="preserve">
<path d="M13,13l-3,1.5l3,1.5v-1h2c0.553,0,1-0.447,1-1v-2h-1v2h-2V13z"/>
<g>
	<path d="M9.356,9.731C9.3,9.693,9.241,9.655,9.187,9.615c-0.26-0.213-0.521-0.872-0.521-0.872L8.663,8.745
		L8.662,8.743L7,9.89L5.336,8.743v0l-0.001,0c0,0-0.26,0.659-0.52,0.872C4.76,9.655,4.704,9.693,4.647,9.731l0,0l0,0
		c0,0.001,0,0.001,0,0.001C4.315,9.959,3.957,10.154,3.6,10.324c-0.891,0.425-1.767,0.694-2.177,0.91
		c-0.082,0.042-0.145,0.084-0.186,0.123C0.614,11.961,0.389,13,0.29,14h5.132H7h0.286L9,13.144v-0.227V11
		c0-0.138,0.014-0.321,0.042-0.453c0.06-0.293,0.187-0.56,0.359-0.788C9.387,9.75,9.373,9.742,9.359,9.732
		C9.359,9.732,9.356,9.732,9.356,9.731z"/>
</g>
<path d="M14,9.5L13,9v1h-2c-0.483,0-0.887,0.343-0.979,0.798C10.007,10.863,10,10.931,10,11v0.116V13h1v-2h2v1l1-0.5
	l2-1L14,9.5z"/>
<path d="M4.404,5.488c0.2,0.064,0.229,1.038,0.731,1.728C5.53,7.752,6.087,8.43,6.725,8.534
	c0.076,0.016,0.472,0.016,0.547,0C7.911,8.43,8.468,7.752,8.86,7.216c0.507-0.689,0.532-1.663,0.732-1.728
	c0.237-0.075,0.371-0.705,0.371-1.43c0-0.141-0.282-0.337-0.309-0.464c0-0.004,0.002-0.017,0.002-0.019C9.541,2.306,8.413,1,7.033,1
	c0,0-0.002,0-0.005,0C7.026,1,7.026,1,7.026,1C7.017,1,7.007,1,7,1C6.991,1,6.981,1,6.974,1c0,0-0.004,0-0.006,0H6.965
	c-1.38,0-2.509,1.306-2.626,2.576C4.337,3.578,4.34,3.588,4.34,3.591C4.314,3.717,4.034,3.916,4.034,4.056
	C4.034,4.781,4.167,5.413,4.404,5.488z"/>
</svg>
