<?xml version="1.0" encoding="utf-8"?>
<!-- Generator: Adobe Illustrator 16.0.4, SVG Export Plug-In . SVG Version: 6.00 Build 0)  -->
<!DOCTYPE svg PUBLIC "-//W3C//DTD SVG 1.1//EN" "http://www.w3.org/Graphics/SVG/1.1/DTD/svg11.dtd">
<svg version="1.1" id="artwork" xmlns="http://www.w3.org/2000/svg" xmlns:xlink="http://www.w3.org/1999/xlink" x="0px" y="0px"
	 width="16px" height="16px" viewBox="0 0 16 16" enable-background="new 0 0 16 16" xml:space="preserve">
<g>
	<g>
		<polygon points="1,8 1,14.543 7.544,8 		"/>
		<polygon points="12,0 5,0 5,7 8.544,7 12,3.544 		"/>
	</g>
	<path d="M10.954,8l4.84-4.84c0.195-0.195,0.195-0.512,0-0.707C15.61,2.27,15.32,2.262,15.124,2.424L2.54,15h0
		l-0.14,0.14c-0.195,0.195-0.195,0.512,0,0.707c0.195,0.195,0.512,0.195,0.707,0L3.954,15H8v-4.046l1-1V15h7V8H10.954z"/>
</g>
</svg>
