<?xml version="1.0" encoding="iso-8859-1"?>
<!-- Generator: Adobe Illustrator 16.0.4, SVG Export Plug-In . SVG Version: 6.00 Build 0)  -->
<!DOCTYPE svg PUBLIC "-//W3C//DTD SVG 1.1//EN" "http://www.w3.org/Graphics/SVG/1.1/DTD/svg11.dtd">
<svg version="1.1" id="artwork" xmlns="http://www.w3.org/2000/svg" xmlns:xlink="http://www.w3.org/1999/xlink" x="0px" y="0px"
	 width="92px" height="92px" viewBox="0 0 92 92" style="enable-background:new 0 0 92 92;" xml:space="preserve">
<g>
	<path style="fill:#3D464D;" d="M0,0v92h92V0H0z M74.333,45.393l-0.089,0.076c-0.038,0.051-0.056,0.102-0.103,0.158l-0.819,0.854
		c-0.344,0.355-0.778,0.536-1.211,0.549c-0.428,0.016-0.818-0.145-1.179-0.477L70,45.551V64H52V46H40v18H22V45.551l-0.867,1.002
		c-0.36,0.332-0.722,0.492-1.148,0.477c-0.434-0.013-0.85-0.193-1.191-0.549l-0.812-0.861c-0.048-0.049-0.059-0.105-0.103-0.155
		l-0.085-0.075c-0.495-0.584-0.447-1.412,0.059-1.961c0.072-0.1,0.108-0.205,0.198-0.293l26.167-23.041c0,0,0.835-0.88,1.882-0.88
		c0.935,0,1.816,0.88,1.816,0.88l26.162,23.041c0.089,0.085,0.125,0.193,0.196,0.293C74.78,43.977,74.828,44.805,74.333,45.393z"/>
</g>
</svg>
