<?xml version="1.0" encoding="utf-8"?>
<!-- Generator: Adobe Illustrator 16.0.4, SVG Export Plug-In . SVG Version: 6.00 Build 0)  -->
<!DOCTYPE svg PUBLIC "-//W3C//DTD SVG 1.1//EN" "http://www.w3.org/Graphics/SVG/1.1/DTD/svg11.dtd">
<svg version="1.1" id="artwork" xmlns="http://www.w3.org/2000/svg" xmlns:xlink="http://www.w3.org/1999/xlink" x="0px" y="0px"
	 width="16px" height="16px" viewBox="0 0 16 16" enable-background="new 0 0 16 16" xml:space="preserve">
<g>
	<polygon points="9,16 10.406,16 9,14.595 	"/>
	<path d="M12.606,9L12.606,9l0.259-0.258C13.18,8.428,13.572,8.225,14,8.148V4.5V4c0-0.552-0.447-1-1-1h-0.5h-10H2
		C1.447,3,1,3.448,1,4v0.5v5V10c0,0.553,0.447,1,1,1h0.5H5v3l3-3h2.606L12.606,9z"/>
	<path d="M15.269,10.085l-0.354-0.354c-0.293-0.293-0.767-0.293-1.06,0c-0.055,0.055-0.12,0.12-0.415,0.415
		l-0.01-0.01L9.716,13.87l1.414,1.414l3.599-3.618l0.01,0.01c0.413-0.412,0.469-0.467,0.53-0.529
		C15.562,10.853,15.562,10.378,15.269,10.085z"/>
</g>
</svg>
