<?xml version="1.0" encoding="utf-8"?>
<!-- Generator: Adobe Illustrator 16.0.4, SVG Export Plug-In . SVG Version: 6.00 Build 0)  -->
<!DOCTYPE svg PUBLIC "-//W3C//DTD SVG 1.1//EN" "http://www.w3.org/Graphics/SVG/1.1/DTD/svg11.dtd">
<svg version="1.1" id="artwork" xmlns="http://www.w3.org/2000/svg" xmlns:xlink="http://www.w3.org/1999/xlink" x="0px" y="0px"
	 width="16px" height="16px" viewBox="0 0 16 16" enable-background="new 0 0 16 16" xml:space="preserve">
<g>
	<polygon points="13.151,12.499 15.301,10.35 14.649,9.698 12.5,11.848 10.352,9.698 9.699,10.35 11.85,12.499 
		9.7,14.648 10.352,15.3 12.5,13.15 14.649,15.3 15.301,14.648 	"/>
</g>
<g>
	<path d="M4.405,5.488c0.2,0.064,0.229,1.038,0.731,1.728C5.531,7.752,6.088,8.43,6.726,8.534
		c0.076,0.016,0.472,0.016,0.547,0c0.64-0.104,1.196-0.782,1.589-1.318c0.507-0.689,0.532-1.663,0.732-1.728
		c0.237-0.075,0.371-0.705,0.371-1.43c0-0.141-0.282-0.337-0.309-0.464c0-0.004,0.002-0.017,0.002-0.019
		C9.542,2.306,8.414,1,7.034,1c0,0-0.002,0-0.005,0C7.027,1,7.027,1,7.027,1c-0.01,0-0.02,0-0.026,0C6.992,1,6.982,1,6.975,1
		c0,0-0.004,0-0.006,0H6.966C5.586,1,4.457,2.306,4.34,3.576C4.338,3.578,4.341,3.588,4.341,3.591
		C4.315,3.717,4.035,3.916,4.035,4.056C4.035,4.781,4.168,5.413,4.405,5.488z"/>
	<g>
		<path d="M7.719,10.349l1.157-1.156C8.754,8.969,8.664,8.751,8.664,8.751L7,9.898L5.336,8.751
			c0,0-0.261,0.659-0.521,0.872c-0.055,0.04-0.111,0.078-0.168,0.116L4.648,9.74c-1.331,0.906-3.083,1.304-3.411,1.621
			C0.614,11.965,0.389,13.25,0.29,14h5.132h2.946l1.501-1.501L7.719,10.349z"/>
	</g>
</g>
</svg>
