<?xml version="1.0" encoding="iso-8859-1"?>
<!-- Generator: Adobe Illustrator 16.0.4, SVG Export Plug-In . SVG Version: 6.00 Build 0)  -->
<!DOCTYPE svg PUBLIC "-//W3C//DTD SVG 1.1//EN" "http://www.w3.org/Graphics/SVG/1.1/DTD/svg11.dtd">
<svg version="1.1" id="art_layer" xmlns="http://www.w3.org/2000/svg" xmlns:xlink="http://www.w3.org/1999/xlink" x="0px" y="0px"
	 width="24px" height="24px" viewBox="0 0 24 24" style="enable-background:new 0 0 24 24;" xml:space="preserve">
<polygon style="fill:#555D66;" points="14,2 14,1 10,1 10,2 7,2 7,4 17,4 17,2 "/>
<path style="fill:#555D66;" d="M19,3h-1v2H6V3H5C3.896,3,3,3.896,3,5v16c0,1.104,0.896,2,2,2h14c1.104,0,2-0.896,2-2V5
	C21,3.896,20.104,3,19,3z M12,16.5L10,19l-4-5l1-1l3,2l2-2l5-5l1,1L12,16.5z"/>
</svg>
