<?xml version="1.0" encoding="utf-8"?>
<!-- Generator: Adobe Illustrator 16.0.4, SVG Export Plug-In . SVG Version: 6.00 Build 0)  -->
<!DOCTYPE svg PUBLIC "-//W3C//DTD SVG 1.1//EN" "http://www.w3.org/Graphics/SVG/1.1/DTD/svg11.dtd">
<svg version="1.1" id="artwork" xmlns="http://www.w3.org/2000/svg" xmlns:xlink="http://www.w3.org/1999/xlink" x="0px" y="0px"
	 width="16px" height="16px" viewBox="0 0 16 16" enable-background="new 0 0 16 16" xml:space="preserve">
<path d="M4.405,5.48c0.2,0.064,0.229,1.038,0.731,1.728c0.395,0.536,0.951,1.214,1.589,1.318
	c0.076,0.016,0.472,0.016,0.547,0c0.64-0.104,1.196-0.782,1.589-1.318C9.368,6.519,9.394,5.545,9.594,5.48
	c0.237-0.075,0.371-0.705,0.371-1.43c0-0.141-0.282-0.337-0.309-0.464c0-0.004,0.002-0.013,0.002-0.015C9.542,2.302,8.414,1,7.034,1
	c0,0-0.002,0-0.005,0C7.027,1,7.027,1,7.027,1c-0.01,0-0.02,0.001-0.026,0.001C6.992,1.001,6.982,1,6.975,1c0,0-0.004,0-0.006,0
	H6.966C5.586,1,4.457,2.302,4.34,3.572c-0.002,0.002,0.001,0.01,0.001,0.013C4.315,3.711,4.035,3.909,4.035,4.049
	C4.035,4.774,4.168,5.405,4.405,5.48z"/>
<polygon points="16,12 13,12 13,9 12,9 12,12 9,12 9,13 12,13 12,16 13,16 13,13 16,13 "/>
<g>
	<path d="M11,11v-0.418c-0.5-0.224-1.123-0.497-1.641-0.85c0,0-0.003,0-0.003-0.001
		C9.3,9.693,9.241,9.655,9.187,9.615c-0.26-0.213-0.521-0.872-0.521-0.872L7,9.891L5.336,8.743c0,0-0.261,0.659-0.521,0.872
		c-0.055,0.04-0.111,0.078-0.168,0.116c0,0.001,0.001,0.001,0.001,0.001c-1.331,0.906-3.083,1.308-3.411,1.625
		C0.614,11.961,0.389,13,0.29,14h5.132H8v-3H11z"/>
</g>
</svg>
