<?xml version="1.0" encoding="utf-8"?>
<!-- Generator: Adobe Illustrator 16.0.4, SVG Export Plug-In . SVG Version: 6.00 Build 0)  -->
<!DOCTYPE svg PUBLIC "-//W3C//DTD SVG 1.1//EN" "http://www.w3.org/Graphics/SVG/1.1/DTD/svg11.dtd">
<svg version="1.1" id="artwork" xmlns="http://www.w3.org/2000/svg" xmlns:xlink="http://www.w3.org/1999/xlink" x="0px" y="0px"
	 width="16px" height="16px" viewBox="0 0 16 16" enable-background="new 0 0 16 16" xml:space="preserve">
<g>
	<path fill="#3D464D" d="M13.156,6.768l1.575,1.586C14.903,7.923,15,7.47,15,7c0-2.762-3.134-5-7-5S1,4.238,1,7
		c0,1.415,0.826,2.69,2.149,3.6C3.59,13.133,1,14,1,14c3.213,0,4.77-1.236,5.475-2.123C6.967,11.955,7.476,12,8,12v-1v-1h1h2.129
		l-0.604-0.604L13.156,6.768z"/>
</g>
<polygon fill="#3D464D" points="12.5,9.401 14.082,11 9,11 9,12 14.082,12 12.5,13.599 13.152,14.25 15.884,11.499 13.152,8.75 "/>
</svg>
