<?xml version="1.0" encoding="iso-8859-1"?>
<!-- Generator: Adobe Illustrator 16.0.4, SVG Export Plug-In . SVG Version: 6.00 Build 0)  -->
<!DOCTYPE svg PUBLIC "-//W3C//DTD SVG 1.1//EN" "http://www.w3.org/Graphics/SVG/1.1/DTD/svg11.dtd">
<svg version="1.1" id="art_layer" xmlns="http://www.w3.org/2000/svg" xmlns:xlink="http://www.w3.org/1999/xlink" x="0px" y="0px"
	 width="24px" height="24px" viewBox="0 0 24 24" style="enable-background:new 0 0 24 24;" xml:space="preserve">
<path style="fill:#555D66;" d="M22.541,9h-3.34h-4.528l-1.611-4.512L12,1.516l-1.062,2.973L9.327,9H4.799h-3.34l2.675,2l3.535,2.643
	l-1.939,5.429l-1.217,3.407l2.897-2.166L12,16.881l4.59,3.432l2.897,2.166l-1.217-3.407l-1.939-5.429L19.866,11L22.541,9z
	 M15.627,11.672l-1.676,1.253l0.704,1.971l0.718,2.01l-1.703-1.273L12,14.384l-1.67,1.248l-1.703,1.273l0.718-2.01l0.704-1.971
	l-1.676-1.253L7.475,11h1.138h2.124l0.714-2L12,7.462L12.55,9l0.714,2h2.124h1.138L15.627,11.672z"/>
</svg>
