<?xml version="1.0" encoding="utf-8"?>
<!-- Generator: Adobe Illustrator 16.0.4, SVG Export Plug-In . SVG Version: 6.00 Build 0)  -->
<!DOCTYPE svg PUBLIC "-//W3C//DTD SVG 1.1//EN" "http://www.w3.org/Graphics/SVG/1.1/DTD/svg11.dtd">
<svg version="1.1" id="artwork" xmlns="http://www.w3.org/2000/svg" xmlns:xlink="http://www.w3.org/1999/xlink" x="0px" y="0px"
	 width="16px" height="16px" viewBox="0 0 16 16" enable-background="new 0 0 16 16" xml:space="preserve">
<circle fill="#3D464D" cx="5.5" cy="14.5" r="1.4"/>
<circle fill="#3D464D" cx="13.5" cy="14.5" r="1.4"/>
<path fill="#3D464D" d="M15.811,4.415C15.623,4.154,15.321,4,15,4H4.443L3.936,2.648C3.79,2.259,3.417,2,3,2H1C0.447,2,0,2.447,0,3
	s0.447,1,1,1h1.307l2.757,7.352C5.209,11.741,5.583,12,6,12h7c0.431,0,0.812-0.275,0.948-0.684l2-6
	C16.05,5.012,15.999,4.676,15.811,4.415z M12.279,10H6.693l-1.5-4h8.419L12.279,10z"/>
</svg>
