<?xml version="1.0" encoding="utf-8"?>
<!-- Generator: Adobe Illustrator 16.0.4, SVG Export Plug-In . SVG Version: 6.00 Build 0)  -->
<!DOCTYPE svg PUBLIC "-//W3C//DTD SVG 1.1//EN" "http://www.w3.org/Graphics/SVG/1.1/DTD/svg11.dtd">
<svg version="1.1" id="artwork" xmlns="http://www.w3.org/2000/svg" xmlns:xlink="http://www.w3.org/1999/xlink" x="0px" y="0px"
	 width="16px" height="16px" viewBox="0 0 16 16" enable-background="new 0 0 16 16" xml:space="preserve">
<g>
	<path d="M14.704,5.542L14.704,5.542c0.004,0.016,0.005,0.032,0.007,0.048l0.002,0.001L14.704,5.542z"/>
	<path d="M14.711,5.59c-0.988-2.891-3.453-4.84-6.491-4.84c-3.239,0-5.829,2.217-6.669,5.429
		c-0.043-0.004-0.085-0.01-0.134-0.01c-0.752,0-1.361,0.609-1.361,1.36V8.89c0,0.704,0.537,1.276,1.223,1.347l0.004,0.007
		l1.315,3.284c0.069,0.173,0.203,0.303,0.363,0.373c0.16,0.068,0.346,0.075,0.521,0.005c0.349-0.139,0.52-0.535,0.379-0.883
		l-1.33-3.32c0.002-0.004,0.004-0.009,0.006-0.013l-0.009,0h0.008c0.133-0.346,0.119-0.807,0.101-1.048
		C2.628,8.549,2.622,8.296,2.625,8.205C2.743,4.712,5.108,2.11,8.22,2.11c2.375,0,4.311,1.519,5.149,3.789l0.041,0.109V6.007
		c0.138,0.301,0.475,0.469,0.805,0.38C14.566,6.293,14.779,5.943,14.711,5.59z"/>
</g>
<g>
	<rect x="6" y="5" fill="none" width="4" height="6"/>
	<path d="M10,4H6C5.447,4,5,4.448,5,5v6.729V12c0,0.552,0.447,1,1,1h4c0.553,0,1-0.448,1-1v-0.271V5
		C11,4.448,10.553,4,10,4z M8.3,12.5H7.7c-0.249,0-0.45-0.224-0.45-0.5c0-0.276,0.201-0.5,0.45-0.5h0.6c0.249,0,0.45,0.224,0.45,0.5
		C8.75,12.276,8.549,12.5,8.3,12.5z M10,11H6V5h4V11z"/>
</g>
</svg>
