<?xml version="1.0" encoding="utf-8"?>
<!-- Generator: Adobe Illustrator 16.0.4, SVG Export Plug-In . SVG Version: 6.00 Build 0)  -->
<!DOCTYPE svg PUBLIC "-//W3C//DTD SVG 1.1//EN" "http://www.w3.org/Graphics/SVG/1.1/DTD/svg11.dtd">
<svg version="1.1" id="artwork" xmlns="http://www.w3.org/2000/svg" xmlns:xlink="http://www.w3.org/1999/xlink" x="0px" y="0px"
	 width="16px" height="16px" viewBox="0 0 16 16" enable-background="new 0 0 16 16" xml:space="preserve">
<path d="M4.404,5.488c0.2,0.064,0.229,1.038,0.731,1.728C5.53,7.752,6.087,8.43,6.725,8.534
	c0.076,0.016,0.472,0.016,0.547,0C7.911,8.43,8.468,7.752,8.86,7.216c0.507-0.689,0.532-1.663,0.732-1.728
	c0.237-0.075,0.371-0.705,0.371-1.43c0-0.141-0.282-0.337-0.309-0.464c0-0.004,0.002-0.017,0.002-0.019C9.541,2.306,8.413,1,7.033,1
	c0,0-0.002,0-0.005,0C7.026,1,7.026,1,7.026,1C7.017,1,7.007,1,7,1C6.991,1,6.981,1,6.974,1c0,0-0.004,0-0.006,0H6.965
	c-1.38,0-2.509,1.306-2.626,2.576C4.337,3.578,4.34,3.588,4.34,3.591C4.314,3.717,4.034,3.916,4.034,4.056
	C4.034,4.781,4.167,5.413,4.404,5.488z"/>
<g>
	<path d="M11.5,10.894v-0.1l-0.55-0.212c-0.5-0.224-1.099-0.497-1.616-0.85c0,0,0.01,0,0.01-0.001
		C9.287,9.693,9.234,9.655,9.18,9.615C8.92,9.402,8.662,8.743,8.662,8.743L6.999,9.891L5.335,8.743c0,0-0.261,0.659-0.521,0.872
		c-0.055,0.04-0.11,0.078-0.167,0.116c0,0.001,0.001,0.001,0.001,0.001c-1.331,0.906-3.083,1.308-3.411,1.625
		C0.614,11.961,0.389,13,0.29,14h5.132h4.214l-0.62-0.57L11.5,10.894z"/>
</g>
<polygon points="15.304,12.777 14,14.082 14,9 13,9 13,14.082 11.696,12.777 11.045,13.429 13.501,15.884 
	15.955,13.43 "/>
</svg>
