<?xml version="1.0" encoding="utf-8"?>
<!-- Generator: Adobe Illustrator 16.0.4, SVG Export Plug-In . SVG Version: 6.00 Build 0)  -->
<!DOCTYPE svg PUBLIC "-//W3C//DTD SVG 1.1//EN" "http://www.w3.org/Graphics/SVG/1.1/DTD/svg11.dtd">
<svg version="1.1" id="artwork" xmlns="http://www.w3.org/2000/svg" xmlns:xlink="http://www.w3.org/1999/xlink" x="0px" y="0px"
	 width="16px" height="16px" viewBox="0 0 16 16" enable-background="new 0 0 16 16" xml:space="preserve">
<g>
	<path fill="#3D464D" d="M14,6h-0.482h-6H7C6.448,6,6,6.447,6,7v0.562v3V11c0,0.553,0.448,1,1,1h0.519H11v2.025L13.018,12h0.5H14
		c0.552,0,1-0.447,1-1v-0.438v-3V7C15,6.447,14.552,6,14,6z"/>
	<path fill="#3D464D" d="M9,5V3.688V3.562V3c0-0.553-0.448-1-1-1H7.56h-6H1C0.448,2,0,2.447,0,3v0.562v3V7c0,0.553,0.448,1,1,1h0.56
		h0.5L4,10.025V8h0.406H5V6.844C5,5.766,5.781,5,6.812,5H9z"/>
</g>
</svg>
