<?xml version="1.0" encoding="utf-8"?>
<!-- Generator: Adobe Illustrator 16.0.4, SVG Export Plug-In . SVG Version: 6.00 Build 0)  -->
<!DOCTYPE svg PUBLIC "-//W3C//DTD SVG 1.1//EN" "http://www.w3.org/Graphics/SVG/1.1/DTD/svg11.dtd">
<svg version="1.1" id="artwork" xmlns="http://www.w3.org/2000/svg" xmlns:xlink="http://www.w3.org/1999/xlink" x="0px" y="0px"
	 width="16px" height="16px" viewBox="0 0 16 16" enable-background="new 0 0 16 16" xml:space="preserve">
<g>
	<polygon fill="#3D464D" points="9,16 10.406,16 9,14.595 	"/>
	<path fill="#3D464D" d="M12.606,9L12.606,9l0.259-0.258C13.18,8.428,13.572,8.225,14,8.148V4.5V4c0-0.552-0.447-1-1-1h-0.492
		l1.287-1.288c0.195-0.194,0.195-0.512,0-0.707c-0.195-0.194-0.512-0.194-0.707,0L11.093,3l-9.709,9.709
		c-0.194,0.195-0.194,0.512,0,0.707c0.195,0.195,0.513,0.195,0.707,0L4.507,11h0.001H5v3l3-3h2.606L12.606,9z"/>
	<path fill="#3D464D" d="M15.269,10.085l-0.354-0.354c-0.293-0.293-0.767-0.293-1.06,0c-0.044,0.044-0.091,0.091-0.259,0.259
		l-0.01-0.01l-3.871,3.89l1.414,1.414l3.6-3.617l0.009,0.009c0.413-0.412,0.469-0.467,0.53-0.529
		C15.562,10.853,15.562,10.378,15.269,10.085z"/>
</g>
<g>
	<path fill="#3D464D" d="M2.5,3H2C1.447,3,1,3.447,1,4v0.5v5V10c0,0.315,0.148,0.593,0.378,0.774L9.152,3H2.5z"/>
</g>
</svg>
