<?xml version="1.0" encoding="utf-8"?>
<!-- Generator: Adobe Illustrator 16.0.4, SVG Export Plug-In . SVG Version: 6.00 Build 0)  -->
<!DOCTYPE svg PUBLIC "-//W3C//DTD SVG 1.1//EN" "http://www.w3.org/Graphics/SVG/1.1/DTD/svg11.dtd">
<svg version="1.1" id="artwork" xmlns="http://www.w3.org/2000/svg" xmlns:xlink="http://www.w3.org/1999/xlink" x="0px" y="0px"
	 width="16px" height="16px" viewBox="0 0 16 16" enable-background="new 0 0 16 16" xml:space="preserve">
<g>
	<path d="M14.83,6.652c0.069-0.312,0.104-0.634,0.104-0.958c0-2.424-1.971-4.395-4.394-4.395
		c-1.508,0-2.887,0.78-3.684,2.001C6.413,3.105,5.931,3.006,5.431,3.006c-1.785,0-3.266,1.322-3.508,3.041
		C0.871,6.68,0.2,7.832,0.2,9.096C0.2,11.052,1.791,13,3.745,13h8.506h0.002c1.956,0,3.547-1.891,3.547-3.861
		C15.8,8.225,15.446,7.305,14.83,6.652z M12.075,11.051c-0.004,0-0.012,0.003-0.018,0.004l-8.342,0.003
		c-0.108,0-0.214-0.013-0.318-0.039c-0.806-0.15-1.418-0.865-1.418-1.728c0-0.907,0.679-1.654,1.549-1.749
		C3.493,7.385,3.473,7.221,3.473,7.05c0-1.242,0.993-2.248,2.216-2.248c0.766,0,1.44,0.393,1.839,0.991
		c0.351-0.943,0.797-1.57,1.28-1.976c0.59-0.546,1.183-0.656,1.811-0.656c1.374,0,2.491,1.136,2.491,2.528
		c0,0.33-0.062,0.649-0.183,0.952l-0.212,0.529c-0.002,0.021-0.002,0.045-0.003,0.065c0.696,0.289,1.186,1.072,1.186,1.863
		C13.898,10.156,13.142,11.051,12.075,11.051z"/>
</g>
</svg>
