<?xml version="1.0" encoding="iso-8859-1"?>
<!-- Generator: Adobe Illustrator 16.0.4, SVG Export Plug-In . SVG Version: 6.00 Build 0)  -->
<!DOCTYPE svg PUBLIC "-//W3C//DTD SVG 1.1//EN" "http://www.w3.org/Graphics/SVG/1.1/DTD/svg11.dtd">
<svg version="1.1" id="artwork" xmlns="http://www.w3.org/2000/svg" xmlns:xlink="http://www.w3.org/1999/xlink" x="0px" y="0px"
	 width="92px" height="92px" viewBox="0 0 92 92" style="enable-background:new 0 0 92 92;" xml:space="preserve">
<g>
	<path style="fill:#3D464D;" d="M82,10H10v24h72V10z M76,22H64v-6h12V22z"/>
	<path style="fill:#3D464D;" d="M73,53.799c-10.605,0-19.201,8.596-19.201,19.201S62.395,92.201,73,92.201S92.201,83.605,92.201,73
		S83.605,53.799,73,53.799z M85,76h-9v9h-6v-9h-9v-6h9v-9h6v9h9V76z"/>
	<path style="fill:#3D464D;" d="M64,49.283V46h12v1.805c2.092,0.246,4.096,0.756,6,1.479V40H10v24h39.284
		C51.855,57.229,57.229,51.855,64,49.283z"/>
	<path style="fill:#3D464D;" d="M47.805,70H40v6H13c-1.657,0-3,1.344-3,3s1.343,3,3,3h36.284c-1.065-2.801-1.673-5.826-1.673-9
		C47.611,71.983,47.688,70.986,47.805,70z"/>
</g>
</svg>
