<?xml version="1.0" encoding="utf-8"?>
<!-- Generator: Adobe Illustrator 16.0.4, SVG Export Plug-In . SVG Version: 6.00 Build 0)  -->
<!DOCTYPE svg PUBLIC "-//W3C//DTD SVG 1.1//EN" "http://www.w3.org/Graphics/SVG/1.1/DTD/svg11.dtd">
<svg version="1.1" id="artwork" xmlns="http://www.w3.org/2000/svg" xmlns:xlink="http://www.w3.org/1999/xlink" x="0px" y="0px"
	 width="16px" height="16px" viewBox="0 0 16 16" enable-background="new 0 0 16 16" xml:space="preserve">
<path d="M14.72,7.136c0.148-0.427,0.223-0.87,0.223-1.321c0-2.188-1.762-3.968-3.926-3.968
	c-0.782,0-1.807,0.118-2.761,1.001c-0.412,0.348-0.78,0.781-1.1,1.299c-0.521-0.284-1.11-0.44-1.722-0.44
	c-1.916,0-3.487,1.512-3.608,3.415c-1.016,0.511-1.7,1.565-1.7,2.772c0,1.493,1.056,2.772,2.446,3.03
	C2.778,12.975,2.989,13,3.198,13h0l9.449-0.004l0.171-0.007c1.704-0.081,3.018-1.505,3.018-3.312
	C15.836,8.708,15.405,7.77,14.72,7.136z"/>
</svg>
