<?xml version="1.0" encoding="iso-8859-1"?>
<!-- Generator: Adobe Illustrator 16.0.4, SVG Export Plug-In . SVG Version: 6.00 Build 0)  -->
<!DOCTYPE svg PUBLIC "-//W3C//DTD SVG 1.1//EN" "http://www.w3.org/Graphics/SVG/1.1/DTD/svg11.dtd">
<svg version="1.1" id="art_layer" xmlns="http://www.w3.org/2000/svg" xmlns:xlink="http://www.w3.org/1999/xlink" x="0px" y="0px"
	 width="24px" height="24px" viewBox="0 0 24 24" style="enable-background:new 0 0 24 24;" xml:space="preserve">
<g>
	<path style="fill:#555D66;" d="M20,2H4C2.896,2,2,2.896,2,4v15.986V20c0,0.057,0.012,0.11,0.017,0.166
		c0.092-0.3,0.523-0.485,0.71-0.583c0.719-0.378,3.605-0.566,5.757-2.146C8.798,17.178,9.16,16.51,9.317,16.2
		c0.333,0.348,1.25,1.16,2.545,1.16c0.02,0,0.037-0.005,0.057-0.005c0.02,0,0.036,0.005,0.056,0.005
		c0.009,0,0.017-0.002,0.025-0.002s0.017,0.002,0.025,0.002c0.02,0,0.036-0.005,0.056-0.005c0.02,0,0.037,0.005,0.057,0.005
		c1.295,0,2.211-0.812,2.545-1.16c0.157,0.31,0.52,0.978,0.834,1.236c2.151,1.581,5.038,1.769,5.757,2.146
		c0.187,0.098,0.618,0.283,0.71,0.583C21.988,20.11,22,20.057,22,20v-0.014V4C22.001,2.889,21.114,1.922,20,2z M16.491,9.532
		c-0.058,0.817-0.246,1.463-0.545,1.554c-0.305,0.094-0.344,1.515-1.113,2.523c-0.6,0.784-1.446,1.773-2.419,1.926
		c-0.114,0.023-0.717,0.023-0.831,0c-0.97-0.152-1.818-1.142-2.419-1.926c-0.765-1.007-0.807-2.43-1.111-2.523
		c-0.296-0.09-0.482-0.743-0.542-1.554C7.497,9.349,7.488,9.161,7.488,8.966c0-0.199,0.393-0.5,0.454-0.686
		C7.851,7.591,7.823,6.983,7.835,6.466c0.026-1.14,0.228-1.845,0.29-2.036c0.018-0.016,0.033-0.035,0.05-0.051
		c0.604,0.229,1.027,0.026,1.276-0.07c0.769-0.297,1.397-0.468,1.931-0.563c2.384-0.423,2.648,0.859,2.673,1.232
		c2.521-0.171,1.962,3.384,1.989,3.26c-0.001,0.032-0.002,0.093-0.002,0.097c0.04,0.185,0.47,0.464,0.47,0.669
		C16.512,9.189,16.504,9.359,16.491,9.532z"/>
</g>
</svg>
