<?xml version="1.0" encoding="utf-8"?>
<!-- Generator: Adobe Illustrator 16.0.4, SVG Export Plug-In . SVG Version: 6.00 Build 0)  -->
<!DOCTYPE svg PUBLIC "-//W3C//DTD SVG 1.1//EN" "http://www.w3.org/Graphics/SVG/1.1/DTD/svg11.dtd">
<svg version="1.1" id="artwork" xmlns="http://www.w3.org/2000/svg" xmlns:xlink="http://www.w3.org/1999/xlink" x="0px" y="0px"
	 width="16px" height="16px" viewBox="0 0 16 16" enable-background="new 0 0 16 16" xml:space="preserve">
<path d="M12.431,2H12v1H4V2H3.697C2.869,2,2,2.672,2,3.5v10C2,14.328,2.869,15,3.697,15h8.733
	c0.726,0,1.364-0.514,1.504-1.197C13.955,13.705,14,13.604,14,13.5v-10C14,2.672,13.26,2,12.431,2z M12,11H6v-1h6V11z M5,11H4v-1h1
	V11z M12,9H6V8h6V9z M5,9H4V8h1V9z M12,7H6V6h6V7z M5,7H4V6h1V7z"/>
<g>
	<path d="M11,1H9V0.963C9,0.431,8.569,0,8.037,0H8.028H8.021H7.963C7.431,0,7,0.431,7,0.963V1H5v1h6V1z"/>
</g>
</svg>
