<?xml version="1.0" encoding="utf-8"?>
<!-- Generator: Adobe Illustrator 16.0.4, SVG Export Plug-In . SVG Version: 6.00 Build 0)  -->
<!DOCTYPE svg PUBLIC "-//W3C//DTD SVG 1.1//EN" "http://www.w3.org/Graphics/SVG/1.1/DTD/svg11.dtd">
<svg version="1.1" id="artwork" xmlns="http://www.w3.org/2000/svg" xmlns:xlink="http://www.w3.org/1999/xlink" x="0px" y="0px"
	 width="16px" height="16px" viewBox="0 0 16 16" enable-background="new 0 0 16 16" xml:space="preserve">
<polygon fill="#3D464D" points="13.151,11.5 15.301,9.351 14.649,8.699 12.5,10.849 10.352,8.699 9.699,9.351 11.85,11.5 
	9.7,13.648 10.352,14.301 12.5,12.151 14.649,14.301 15.301,13.648 "/>
<g>
	<path fill="#3D464D" d="M10.353,6.72L12.5,8.869l1.5-1.5V4.5V4c0-0.553-0.448-1-1-1h-0.5h-10H2C1.448,3,1,3.447,1,4v0.5v5V10
		c0,0.553,0.448,1,1,1h0.5H5v3l3-3h1.369L7.718,9.35L10.353,6.72z"/>
</g>
</svg>
