<?xml version="1.0" encoding="iso-8859-1"?>
<!-- Generator: Adobe Illustrator 16.0.4, SVG Export Plug-In . SVG Version: 6.00 Build 0)  -->
<!DOCTYPE svg PUBLIC "-//W3C//DTD SVG 1.1//EN" "http://www.w3.org/Graphics/SVG/1.1/DTD/svg11.dtd">
<svg version="1.1" id="artwork" xmlns="http://www.w3.org/2000/svg" xmlns:xlink="http://www.w3.org/1999/xlink" x="0px" y="0px"
	 width="16px" height="16px" viewBox="0 0 16 16" style="enable-background:new 0 0 16 16;" xml:space="preserve">
<path style="fill:#3D464D;" d="M13.101,9.469l-0.896-0.81c-0.001-0.001-0.002-0.003-0.003-0.005h0
	C12.2,8.653,12.198,8.65,12.197,8.648v0.001c-0.009-0.01-0.014-0.017-0.021-0.024C12.207,8.42,12.226,8.213,12.226,8
	c0-0.212-0.02-0.419-0.051-0.623c0.008-0.009,0.013-0.016,0.021-0.024l0,0c0.002-0.002,0.003-0.004,0.004-0.005l0,0
	c0.001-0.002,0.002-0.004,0.003-0.006l0.896-0.81c0.425-0.365,0.545-0.766,0.306-1.173l-0.462-0.788
	c-0.239-0.408-0.646-0.499-1.172-0.306L10.635,4.65C10.31,4.384,9.946,4.167,9.552,4.008l-0.238-1.15C9.213,2.307,8.93,2,8.457,2
	H7.543C7.07,2,6.787,2.307,6.686,2.857l-0.238,1.15C6.054,4.167,5.69,4.384,5.365,4.65L4.228,4.266
	C3.702,4.072,3.295,4.163,3.056,4.571L2.593,5.359C2.354,5.767,2.474,6.167,2.899,6.532l0.896,0.81
	c0.001,0.002,0.002,0.004,0.003,0.006l0,0C3.8,7.349,3.801,7.351,3.803,7.353l0,0c0.009,0.009,0.014,0.016,0.021,0.024
	C3.793,7.581,3.774,7.788,3.774,8c0,0.213,0.02,0.42,0.051,0.625C3.817,8.633,3.812,8.64,3.803,8.649V8.648
	C3.802,8.65,3.8,8.653,3.799,8.654h0C3.798,8.656,3.797,8.658,3.795,8.659l-0.896,0.81c-0.424,0.366-0.545,0.765-0.306,1.173
	l0.462,0.789c0.239,0.408,0.646,0.497,1.173,0.305l1.138-0.384c0.324,0.266,0.687,0.482,1.081,0.642l0.239,1.149
	C6.787,13.695,7.07,14,7.543,14h0.914c0.473,0,0.756-0.305,0.857-0.857l0.239-1.149c0.394-0.159,0.756-0.376,1.081-0.642
	l1.138,0.384c0.526,0.192,0.934,0.104,1.173-0.305l0.462-0.789C13.646,10.233,13.525,9.835,13.101,9.469z M8,10.467
	c-1.362,0-2.466-1.104-2.466-2.466S6.638,5.534,8,5.534c1.363,0,2.466,1.104,2.466,2.467S9.363,10.467,8,10.467z"/>
</svg>
