<?xml version="1.0" encoding="utf-8"?>
<!-- Generator: Adobe Illustrator 16.0.4, SVG Export Plug-In . SVG Version: 6.00 Build 0)  -->
<!DOCTYPE svg PUBLIC "-//W3C//DTD SVG 1.1//EN" "http://www.w3.org/Graphics/SVG/1.1/DTD/svg11.dtd">
<svg version="1.1" id="artwork" xmlns="http://www.w3.org/2000/svg" xmlns:xlink="http://www.w3.org/1999/xlink" x="0px" y="0px"
	 width="16px" height="16px" viewBox="0 0 16 16" enable-background="new 0 0 16 16" xml:space="preserve">
<g>
	<path fill="#3D464D" d="M6.5,1L3,4.5V14h10V1H6.5z M12,13H4V5h3V2h5V13z"/>
	<path fill="#3D464D" d="M5.136,9.767l0.963-0.964c0.134-0.132,0.355-0.127,0.494,0.012L6.729,8.95l0.192,0.19
		c0.373,0.371,0.961,0.385,1.316,0.03l0.161-0.16l0.802-0.803C9.556,7.853,9.542,7.264,9.17,6.891L9.061,6.785L8.978,6.703
		L8.842,6.566c-0.139-0.14-0.144-0.361-0.011-0.494l0.964-0.964c0.133-0.132,0.354-0.128,0.493,0.012l0.217,0.244
		c0.253,0.253,0.432,0.583,0.477,0.868c0.114,0.709-0.302,2.066-1.487,3.25C9.493,9.485,9.49,9.486,9.488,9.488
		C9.487,9.49,9.485,9.492,9.482,9.494c-1.185,1.186-2.542,1.602-3.25,1.488c-0.286-0.045-0.616-0.225-0.869-0.477l-0.218-0.245
		C5.008,10.121,5.003,9.9,5.136,9.767z"/>
</g>
</svg>
