<?xml version="1.0" encoding="utf-8"?>
<!-- Generator: Adobe Illustrator 16.0.4, SVG Export Plug-In . SVG Version: 6.00 Build 0)  -->
<!DOCTYPE svg PUBLIC "-//W3C//DTD SVG 1.1//EN" "http://www.w3.org/Graphics/SVG/1.1/DTD/svg11.dtd">
<svg version="1.1" id="artwork" xmlns="http://www.w3.org/2000/svg" xmlns:xlink="http://www.w3.org/1999/xlink" x="0px" y="0px"
	 width="16px" height="16px" viewBox="0 0 16 16" enable-background="new 0 0 16 16" xml:space="preserve">
<rect x="5" y="7" width="6" height="1"/>
<polygon points="15,12 12,12 12,9 11,9 11,12 8,12 8,13 11,13 11,16 12,16 12,13 15,13 "/>
<rect x="5" y="9" width="5" height="1"/>
<polygon points="12,8 13,8 13,1 6.5,1 3,4.5 3,14 7,14 7,13 4,13 4,5 7,5 7,2 12,2 "/>
</svg>
