<?xml version="1.0" encoding="utf-8"?>
<!-- Generator: Adobe Illustrator 16.0.4, SVG Export Plug-In . SVG Version: 6.00 Build 0)  -->
<!DOCTYPE svg PUBLIC "-//W3C//DTD SVG 1.1//EN" "http://www.w3.org/Graphics/SVG/1.1/DTD/svg11.dtd">
<svg version="1.1" id="artwork" xmlns="http://www.w3.org/2000/svg" xmlns:xlink="http://www.w3.org/1999/xlink" x="0px" y="0px"
	 width="16px" height="16px" viewBox="0 0 16 16" enable-background="new 0 0 16 16" xml:space="preserve">
<path d="M13,13l-3,1.5l3,1.5v-1h2c0.553,0,1-0.447,1-1v-2h-1v2h-2V13z"/>
<path d="M14,4V3c0-0.553-0.447-1-1-1H1C0.447,2,0,2.447,0,3v1l6.973,4L14,4z"/>
<g>
	<path d="M10.875,9H12V7.137l2,0.994V5.339l-7.027,4L0,5.339V12c0,0.553,0.447,1,1,1h8v-2C9,9.908,9.809,9,10.875,9z
		"/>
</g>
<path d="M14,9.5L13,9v1h-2c-0.483,0-0.887,0.343-0.979,0.798C10.007,10.863,10,10.931,10,11v0.116V13h1v-2h2v1l1-0.5
	l2-1L14,9.5z"/>
</svg>
