<?xml version="1.0" encoding="iso-8859-1"?>
<!-- Generator: Adobe Illustrator 16.0.4, SVG Export Plug-In . SVG Version: 6.00 Build 0)  -->
<!DOCTYPE svg PUBLIC "-//W3C//DTD SVG 1.1//EN" "http://www.w3.org/Graphics/SVG/1.1/DTD/svg11.dtd">
<svg version="1.1" id="artwork" xmlns="http://www.w3.org/2000/svg" xmlns:xlink="http://www.w3.org/1999/xlink" x="0px" y="0px"
	 width="16px" height="16px" viewBox="0 0 16 16" style="enable-background:new 0 0 16 16;" xml:space="preserve">
<path style="fill:#3D464D;" d="M15.709,7.299L8.701,0.291c-0.388-0.388-1.015-0.388-1.402,0L0.29,7.299
	c-0.387,0.387-0.387,1.015,0,1.402l7.009,7.009c0.387,0.387,1.016,0.387,1.402,0l7.009-7.009
	C16.097,8.313,16.096,7.686,15.709,7.299z M8,13.606L2.394,7.999l2.628-2.628l1.396,1.4l0.02,0.02
	C6.781,7.125,7.358,7.384,7.76,7.049c0.121-0.101,0.271-0.252,0.32-0.5c0.005-0.025,0.005-0.137,0.002-0.166
	c-0.03-0.436,0.123-0.896,0.451-1.227c0.611-0.611,1.614-0.591,2.246,0.031c0.621,0.631,0.652,1.625,0.04,2.235
	c-0.24,0.231-0.521,0.372-0.831,0.412C9.857,7.861,9.728,7.857,9.598,7.843c-0.021-0.003-0.102-0.007-0.142,0
	c-0.241,0.04-0.404,0.21-0.508,0.335c-0.344,0.414-0.089,1.01,0.236,1.361L9.205,9.56l1.422,1.42L8,13.606z"/>
</svg>
