<?xml version="1.0" encoding="utf-8"?>
<!-- Generator: Adobe Illustrator 16.0.4, SVG Export Plug-In . SVG Version: 6.00 Build 0)  -->
<!DOCTYPE svg PUBLIC "-//W3C//DTD SVG 1.1//EN" "http://www.w3.org/Graphics/SVG/1.1/DTD/svg11.dtd">
<svg version="1.1" id="artwork" xmlns="http://www.w3.org/2000/svg" xmlns:xlink="http://www.w3.org/1999/xlink" x="0px" y="0px"
	 width="16px" height="16px" viewBox="0 0 16 16" enable-background="new 0 0 16 16" xml:space="preserve">
<path d="M13,2H1C0.447,2,0,2.447,0,3v1l6.973,4L14,4V3C14,2.447,13.553,2,13,2"/>
<g>
	<path d="M8.621,11.012C8.705,11.004,8.791,11,8.878,11h0.051h1.843h0.474l-0.401-0.4l-0.202-0.204l2.63-2.628
		L14,8.5V5.339l-7.027,4L0,5.339V12c0,0.553,0.447,1,1,1h4.757C6.15,11.82,7.25,11.104,8.621,11.012z"/>
</g>
<path d="M13.268,9.75l-0.651,0.651L14.197,12h-3.512H9c-1.104,0-2,0.896-2,2s0.896,2,2,2h2v-1H9
	c-0.553,0-1-0.447-1-1s0.447-1,1-1h5.197l-1.581,1.599l0.652,0.651L16,12.501L13.268,9.75z"/>
</svg>
