<?xml version="1.0" encoding="utf-8"?>
<!-- Generator: Adobe Illustrator 16.0.4, SVG Export Plug-In . SVG Version: 6.00 Build 0)  -->
<!DOCTYPE svg PUBLIC "-//W3C//DTD SVG 1.1//EN" "http://www.w3.org/Graphics/SVG/1.1/DTD/svg11.dtd">
<svg version="1.1" id="artwork" xmlns="http://www.w3.org/2000/svg" xmlns:xlink="http://www.w3.org/1999/xlink" x="0px" y="0px"
	 width="16px" height="16px" viewBox="0 0 16 16" enable-background="new 0 0 16 16" xml:space="preserve">
<path fill="#3D464D" d="M12,7.485l-5.027,2.861L0,6.347v6.661C0,13.561,0.448,14,1,14h12c0.552,0,1-0.439,1-0.992V9h-2V7.485z"/>
<g>
	<path fill="#3D464D" d="M9.023,3.592L9.615,3H1C0.448,3,0,3.455,0,4.008v1l6.973,4l4.724-2.688L11.6,6.174L9.023,3.592z"/>
</g>
<polygon fill="#3D464D" points="11.657,4.252 13,2.926 13,8 14,8 14,2.926 15.345,4.254 15.996,3.602 13.499,1.124 11.006,3.6 "/>
</svg>
