<?xml version="1.0" encoding="utf-8"?>
<!-- Generator: Adobe Illustrator 16.0.4, SVG Export Plug-In . SVG Version: 6.00 Build 0)  -->
<!DOCTYPE svg PUBLIC "-//W3C//DTD SVG 1.1//EN" "http://www.w3.org/Graphics/SVG/1.1/DTD/svg11.dtd">
<svg version="1.1" id="artwork" xmlns="http://www.w3.org/2000/svg" xmlns:xlink="http://www.w3.org/1999/xlink" x="0px" y="0px"
	 width="16px" height="16px" viewBox="0 0 16 16" enable-background="new 0 0 16 16" xml:space="preserve">
<path d="M13,2H1C0.448,2,0,2.447,0,3v1l6.973,4L14,4V3C14,2.447,13.552,2,13,2z"/>
<g>
	<path d="M10.524,10.396l2.632-2.628L14,8.617V5.339l-7.027,4L0,5.339V12c0,0.553,0.448,1,1,1h7v-2h3.091l-0.364-0.4
		L10.524,10.396z"/>
</g>
<polygon points="12.5,10.401 14.082,12 9,12 9,13 14.082,13 12.5,14.599 13.152,15.25 15.884,12.499 13.152,9.75 "/>
</svg>
