<?xml version="1.0" encoding="utf-8"?>
<!-- Generator: Adobe Illustrator 16.0.4, SVG Export Plug-In . SVG Version: 6.00 Build 0)  -->
<!DOCTYPE svg PUBLIC "-//W3C//DTD SVG 1.1//EN" "http://www.w3.org/Graphics/SVG/1.1/DTD/svg11.dtd">
<svg version="1.1" id="artwork" xmlns="http://www.w3.org/2000/svg" xmlns:xlink="http://www.w3.org/1999/xlink" x="0px" y="0px"
	 width="16px" height="16px" viewBox="0 0 16 16" enable-background="new 0 0 16 16" xml:space="preserve">
<g>
	<polygon points="15.301,10.351 14.649,9.699 12.5,11.849 10.352,9.699 9.699,10.351 11.85,12.5 9.7,14.649 
		10.352,15.301 12.5,13.151 14.649,15.301 15.301,14.649 13.151,12.5 	"/>
	<path d="M14,4V3c0-0.553-0.447-1-1-1H1C0.447,2,0,2.447,0,3v1l6.973,4L14,4z"/>
	<path d="M7.719,10.35l2.634-2.63L12.5,9.869l1.5-1.5v-3.03l-7.027,4L0,5.339V12c0,0.553,0.447,1,1,1h8.369l0.5-0.5
		L7.719,10.35z"/>
</g>
</svg>
