<?xml version="1.0" encoding="utf-8"?>
<!-- Generator: Adobe Illustrator 16.0.4, SVG Export Plug-In . SVG Version: 6.00 Build 0)  -->
<!DOCTYPE svg PUBLIC "-//W3C//DTD SVG 1.1//EN" "http://www.w3.org/Graphics/SVG/1.1/DTD/svg11.dtd">
<svg version="1.1" id="artwork" xmlns="http://www.w3.org/2000/svg" xmlns:xlink="http://www.w3.org/1999/xlink" x="0px" y="0px"
	 width="16px" height="16px" viewBox="0 0 16 16" enable-background="new 0 0 16 16" xml:space="preserve">
<path d="M3,2h12c0.552,0,1,0.447,1,1v1L9.027,8L2,4V3C2,2.447,2.448,2,3,2z"/>
<g>
	<path d="M5.476,10.396L2.844,7.768L2,8.617V5.339l7.027,4l6.973-4V12c0,0.553-0.448,1-1,1H8v-2H4.909l0.364-0.4
		L5.476,10.396z"/>
</g>
<polygon points="3.5,10.401 1.918,12 7,12 7,13 1.918,13 3.5,14.599 2.848,15.25 0.116,12.499 2.848,9.75 "/>
</svg>
