<?xml version="1.0" encoding="utf-8"?>
<!-- Generator: Adobe Illustrator 16.0.4, SVG Export Plug-In . SVG Version: 6.00 Build 0)  -->
<!DOCTYPE svg PUBLIC "-//W3C//DTD SVG 1.1//EN" "http://www.w3.org/Graphics/SVG/1.1/DTD/svg11.dtd">
<svg version="1.1" id="artwork" xmlns="http://www.w3.org/2000/svg" xmlns:xlink="http://www.w3.org/1999/xlink" x="0px" y="0px"
	 width="16px" height="16px" viewBox="0 0 16 16" enable-background="new 0 0 16 16" xml:space="preserve">
<g>
	<polygon fill="#3D464D" points="3.384,10.401 2.731,9.75 0,12.499 2.732,15.25 3.384,14.599 1.802,13 7,13 7,12 1.802,12 	"/>
	<path fill="#3D464D" d="M15.015,3H4.016C3.463,3,3,3.433,3,3.985v1.25l6.473,3.499L16,5.235v-1.25C16,3.433,15.567,3,15.015,3z"/>
	<path fill="#3D464D" d="M4.016,2H13V0.982C13,0.43,12.564,0,12.012,0H1.013C0.46,0,0,0.43,0,0.982v1.25l2.107,1.144
		C2.368,2.574,3.128,2,4.016,2z"/>
	<path fill="#3D464D" d="M3,6.574v1.48l2.352,2.341L5.153,10.6L4.716,11H8v2h7.015C15.567,13,16,12.537,16,11.984v-5.41l-6.527,3.5
		L3,6.574z"/>
	<path fill="#3D464D" d="M0.598,9.896L2,8.484V5.832V4.896V4.654L0,3.571v5.41C0,9.391,0.246,9.742,0.598,9.896z"/>
</g>
</svg>
