<?xml version="1.0" encoding="utf-8"?>
<!-- Generator: Adobe Illustrator 16.0.4, SVG Export Plug-In . SVG Version: 6.00 Build 0)  -->
<!DOCTYPE svg PUBLIC "-//W3C//DTD SVG 1.1//EN" "http://www.w3.org/Graphics/SVG/1.1/DTD/svg11.dtd">
<svg version="1.1" id="artwork" xmlns="http://www.w3.org/2000/svg" xmlns:xlink="http://www.w3.org/1999/xlink" x="0px" y="0px"
	 width="16px" height="16px" viewBox="0 0 16 16" enable-background="new 0 0 16 16" xml:space="preserve">
<g>
	<path fill="#3D464D" d="M12.501,7.899c0.921,0,1.779,0.275,2.499,0.744V5c0-0.552-0.448-1-1-1H8.113L6.372,2.447
		C6.102,2.195,5.82,2,5.508,2H2C1.448,2,1,2.448,1,3v10c0,0.552,0.448,1,1,1h6.157c-0.164-0.471-0.256-0.974-0.256-1.5
		C7.901,9.963,9.964,7.899,12.501,7.899z"/>
</g>
<path fill="#3D464D" d="M12.501,9.299c-1.767,0-3.2,1.434-3.2,3.201s1.433,3.199,3.2,3.199s3.2-1.432,3.2-3.199
	S14.268,9.299,12.501,9.299z M14.302,13H12v-2.302c0-0.276,0.224-0.5,0.5-0.5s0.5,0.224,0.5,0.5V12h1.302c0.276,0,0.5,0.224,0.5,0.5
	S14.578,13,14.302,13z"/>
</svg>
