<?xml version="1.0" encoding="utf-8"?>
<!-- Generator: Adobe Illustrator 16.0.4, SVG Export Plug-In . SVG Version: 6.00 Build 0)  -->
<!DOCTYPE svg PUBLIC "-//W3C//DTD SVG 1.1//EN" "http://www.w3.org/Graphics/SVG/1.1/DTD/svg11.dtd">
<svg version="1.1" id="artwork" xmlns="http://www.w3.org/2000/svg" xmlns:xlink="http://www.w3.org/1999/xlink" x="0px" y="0px"
	 width="16px" height="16px" viewBox="0 0 16 16" enable-background="new 0 0 16 16" xml:space="preserve">
<g>
	<path fill="#3D464D" d="M8,1.1c-3.811,0-6.9,3.076-6.9,6.874S4.189,14.9,8,14.9c3.81,0,6.9-3.129,6.9-6.928
		C14.9,4.176,11.81,1.1,8,1.1z M10.5,4.67c0.734,0,1.331,0.594,1.331,1.332c0,0.734-0.597,1.328-1.331,1.328
		S9.169,6.736,9.169,6.002C9.169,5.264,9.766,4.67,10.5,4.67z M5.5,4.67c0.734,0,1.331,0.594,1.331,1.332
		c0,0.734-0.597,1.328-1.331,1.328S4.169,6.736,4.169,6.002C4.169,5.264,4.766,4.67,5.5,4.67z M11.974,10.103
		C11.167,11.552,9.645,12.453,8,12.453s-3.167-0.9-3.973-2.35C3.941,9.95,3.92,9.772,3.969,9.604S4.128,9.296,4.281,9.21
		c0.097-0.054,0.208-0.083,0.319-0.083c0.238,0,0.458,0.129,0.574,0.337C5.749,10.497,6.832,11.139,8,11.139
		c1.168,0,2.251-0.642,2.826-1.676c0.116-0.208,0.336-0.337,0.575-0.337c0.111,0,0.221,0.028,0.318,0.082
		C12.036,9.386,12.15,9.786,11.974,10.103z"/>
</g>
</svg>
