<?xml version="1.0" encoding="utf-8"?>
<!-- Generator: Adobe Illustrator 16.0.4, SVG Export Plug-In . SVG Version: 6.00 Build 0)  -->
<!DOCTYPE svg PUBLIC "-//W3C//DTD SVG 1.1//EN" "http://www.w3.org/Graphics/SVG/1.1/DTD/svg11.dtd">
<svg version="1.1" id="artwork" xmlns="http://www.w3.org/2000/svg" xmlns:xlink="http://www.w3.org/1999/xlink" x="0px" y="0px"
	 width="16px" height="16px" viewBox="0 0 16 16" enable-background="new 0 0 16 16" xml:space="preserve">
<g>
	<g>
		<path d="M12.501,7.898c0.921,0,1.778,0.275,2.499,0.744V5c0-0.553-0.447-1-1-1H8.113L6.372,2.447
			C6.102,2.195,5.82,2,5.508,2H2C1.447,2,1,2.447,1,3v10c0,0.553,0.447,1,1,1h6.157C7.994,13.529,7.9,13.025,7.9,12.5
			C7.9,9.963,9.965,7.898,12.501,7.898z"/>
	</g>
	<g>
		<path d="M12.5,9.258c-1.791,0-3.242,1.451-3.242,3.242s1.451,3.242,3.242,3.242s3.242-1.451,3.242-3.242
			S14.291,9.258,12.5,9.258z M11,14.25v-3.5l3.5,1.751L11,14.25z"/>
	</g>
</g>
</svg>
