<?xml version="1.0" encoding="utf-8"?>
<!-- Generator: Adobe Illustrator 16.0.4, SVG Export Plug-In . SVG Version: 6.00 Build 0)  -->
<!DOCTYPE svg PUBLIC "-//W3C//DTD SVG 1.1//EN" "http://www.w3.org/Graphics/SVG/1.1/DTD/svg11.dtd">
<svg version="1.1" id="artwork" xmlns="http://www.w3.org/2000/svg" xmlns:xlink="http://www.w3.org/1999/xlink" x="0px" y="0px"
	 width="16px" height="16px" viewBox="0 0 16 16" enable-background="new 0 0 16 16" xml:space="preserve">
<g>
	<path fill="#3D464D" d="M15.847,1.703c-0.195-0.194-0.512-0.194-0.707,0L1.703,15.14c-0.194,0.195-0.194,0.512,0,0.707
		c0.195,0.195,0.513,0.195,0.707,0L4.257,14H14c0.552,0,1-0.448,1-1V5c0-0.474-0.33-0.868-0.771-0.972l1.619-1.619
		C16.042,2.215,16.042,1.898,15.847,1.703z"/>
	<path fill="#3D464D" d="M8.113,4L6.372,2.447C6.102,2.195,5.82,2,5.508,2H2C1.448,2,1,2.448,1,3v10
		c0,0.233,0.082,0.445,0.216,0.614L10.829,4H8.113z"/>
</g>
</svg>
