<?xml version="1.0" encoding="utf-8"?>
<!-- Generator: Adobe Illustrator 16.0.4, SVG Export Plug-In . SVG Version: 6.00 Build 0)  -->
<!DOCTYPE svg PUBLIC "-//W3C//DTD SVG 1.1//EN" "http://www.w3.org/Graphics/SVG/1.1/DTD/svg11.dtd">
<svg version="1.1" id="artwork" xmlns="http://www.w3.org/2000/svg" xmlns:xlink="http://www.w3.org/1999/xlink" x="0px" y="0px"
	 width="16px" height="16px" viewBox="0 0 16 16" enable-background="new 0 0 16 16" xml:space="preserve">
<g>
	<path fill="#3D464D" d="M8,1.1c-3.811,0-6.9,3.077-6.9,6.874c0,3.797,3.089,6.927,6.9,6.927c3.81,0,6.9-3.13,6.9-6.928
		C14.9,4.175,11.81,1.1,8,1.1z M8,13.663c-3.127,0-5.662-2.568-5.662-5.684c0-3.116,2.535-5.641,5.662-5.641
		c3.126,0,5.662,2.524,5.662,5.64C13.662,11.094,11.126,13.663,8,13.663z"/>
</g>
<g>
	<path fill="#3D464D" d="M8,11.646c-1.68,0-3.235-0.92-4.059-2.4c-0.135-0.241-0.048-0.545,0.193-0.68
		c0.242-0.134,0.546-0.048,0.68,0.194C5.462,9.924,6.683,10.646,8,10.646s2.538-0.723,3.186-1.887
		c0.134-0.241,0.438-0.328,0.68-0.194c0.242,0.134,0.328,0.438,0.194,0.68C11.236,10.727,9.68,11.646,8,11.646z"/>
</g>
<circle fill="#3D464D" cx="5.5" cy="6.25" r="1"/>
<circle fill="#3D464D" cx="10.5" cy="6.25" r="1"/>
</svg>
