<?xml version="1.0" encoding="utf-8"?>
<!-- Generator: Adobe Illustrator 16.0.4, SVG Export Plug-In . SVG Version: 6.00 Build 0)  -->
<!DOCTYPE svg PUBLIC "-//W3C//DTD SVG 1.1//EN" "http://www.w3.org/Graphics/SVG/1.1/DTD/svg11.dtd">
<svg version="1.1" id="artwork" xmlns="http://www.w3.org/2000/svg" xmlns:xlink="http://www.w3.org/1999/xlink" x="0px" y="0px"
	 width="16px" height="16px" viewBox="0 0 16 16" enable-background="new 0 0 16 16" xml:space="preserve">
<g>
	<path fill="#3D464D" d="M9.027,12.924c-0.038-0.352-0.077-0.723-0.077-1.101V6.717c0-1.148-0.346-2.029-1.08-2.643
		C7.141,3.465,6.191,3.16,4.988,3.16c-1.215,0-2.206,0.319-2.974,0.959C1.326,4.693,0.983,5.32,0.949,6h1.865
		c0.065-0.321,0.244-0.605,0.545-0.85c0.384-0.316,0.888-0.473,1.516-0.473c0.691,0,1.223,0.182,1.602,0.544
		c0.378,0.362,0.556,0.854,0.556,1.476v1.191H4.96c-1.405,0-2.517,0.215-3.339,0.786c-0.819,0.571-1.228,1.292-1.228,2.305
		c0,0.995,0.289,1.771,0.867,2.337c0.577,0.568,1.419,0.852,2.523,0.852c0.665,0,1.288-0.174,1.867-0.517
		c0.578-0.343,1.045-0.767,1.406-1.276c0.006,0.246,0.027,0.496,0.063,0.741c0.035,0.245,0.086,0.531,0.151,0.852h1.989
		C9.156,13.647,9.066,13.276,9.027,12.924z M7.033,10.773c0,0.464-0.523,0.875-1.084,1.234c-0.564,0.361-1.181,0.539-1.88,0.539
		c-0.576,0-1.009-0.122-1.305-0.396c-0.293-0.274-0.44-0.632-0.44-1.102c0-0.531,0.234-0.961,0.7-1.353
		c0.468-0.393,1.09-0.529,1.867-0.529h2.142V10.773z"/>
</g>
<g>
	<path fill="#3D464D" d="M13.349,13.994c-0.024-0.125-0.043-0.235-0.057-0.332s-0.021-0.192-0.024-0.29
		c-0.136,0.199-0.312,0.367-0.53,0.503c-0.218,0.133-0.452,0.2-0.703,0.2c-0.416,0-0.733-0.111-0.95-0.332
		c-0.218-0.222-0.327-0.527-0.327-0.917c0-0.397,0.155-0.708,0.463-0.932s0.728-0.336,1.257-0.336h0.79v-0.411
		c0-0.244-0.071-0.437-0.214-0.578c-0.143-0.143-0.345-0.214-0.605-0.214c-0.236,0-0.427,0.062-0.572,0.185
		c-0.146,0.123-0.218,0.271-0.218,0.441l-0.689,0.008l-0.008-0.022c-0.017-0.301,0.119-0.579,0.408-0.83
		c0.29-0.251,0.663-0.377,1.121-0.377c0.452,0,0.816,0.12,1.092,0.359s0.414,0.585,0.414,1.036v2.002
		c0,0.148,0.007,0.292,0.022,0.43c0.015,0.139,0.042,0.274,0.081,0.407H13.349z M12.143,13.44c0.263,0,0.5-0.07,0.712-0.211
		c0.211-0.141,0.349-0.302,0.413-0.484v-0.676h-0.815c-0.293,0-0.527,0.077-0.703,0.23c-0.176,0.154-0.264,0.334-0.264,0.542
		c0,0.185,0.055,0.33,0.167,0.438C11.763,13.388,11.926,13.44,12.143,13.44z"/>
</g>
</svg>
