<?xml version="1.0" encoding="iso-8859-1"?>
<!-- Generator: Adobe Illustrator 16.0.4, SVG Export Plug-In . SVG Version: 6.00 Build 0)  -->
<!DOCTYPE svg PUBLIC "-//W3C//DTD SVG 1.1//EN" "http://www.w3.org/Graphics/SVG/1.1/DTD/svg11.dtd">
<svg version="1.1" id="artwork" xmlns="http://www.w3.org/2000/svg" xmlns:xlink="http://www.w3.org/1999/xlink" x="0px" y="0px"
	 width="16px" height="16px" viewBox="0 0 16 16" style="enable-background:new 0 0 16 16;" xml:space="preserve">
<g>
	<path style="fill:#3D464D;" d="M15.016,13.083L13.723,8H13V4.636l1.742-1.771c0.195-0.194,0.161-0.512-0.034-0.707
		c-0.184-0.183-0.454-0.191-0.649-0.029L2.15,14L1.09,15.058c-0.195,0.195-0.199,0.504-0.004,0.699
		c0.193,0.194,0.505,0.204,0.7,0.015L3.559,14c0.631,0,1.332,0,2.191,0c1.104,0,0.855-1.121,0.855-1.121l-0.323-1.598L9.568,8h0.811
		l-0.986,4.879c0,0-0.248,1.121,0.857,1.121h3.854C15.043,14,15.074,13.417,15.016,13.083z"/>
	<g>
		<path style="fill:#3D464D;" d="M9,1v2H8H7V1H4v2H3v5H2.275l-1.214,4.771l-0.176,0.572c0.012-0.036,0.021-0.062,0.021-0.058
			l0.061-0.061l4.697-4.697l0.055-0.032L5.619,8h0.572L12,2.254V1H9z"/>
	</g>
</g>
</svg>
