<?xml version="1.0" encoding="utf-8"?>
<!-- Generator: Adobe Illustrator 16.0.4, SVG Export Plug-In . SVG Version: 6.00 Build 0)  -->
<!DOCTYPE svg PUBLIC "-//W3C//DTD SVG 1.1//EN" "http://www.w3.org/Graphics/SVG/1.1/DTD/svg11.dtd">
<svg version="1.1" id="artwork" xmlns="http://www.w3.org/2000/svg" xmlns:xlink="http://www.w3.org/1999/xlink" x="0px" y="0px"
	 width="16px" height="16px" viewBox="0 0 16 16" enable-background="new 0 0 16 16" xml:space="preserve">
<path fill="#3D464D" d="M14.734,8c0-0.552-0.448-1-1-1H7.875H2.016c-0.552,0-1,0.448-1,1H1l0.875,6h6h6l0.875-6H14.734z"/>
<g>
	<path fill="#3D464D" d="M8.113,4L6.372,2.447C6.102,2.195,5.82,2,5.508,2H3C2.447,2,2,2.448,2,3v3h8.637L8.636,4H8.113z"/>
</g>
<polygon fill="#3D464D" points="14.304,2.777 13,4.082 13,0 12,0 12,4.082 10.696,2.777 10.045,3.429 12.501,5.884 14.955,3.43 "/>
</svg>
