<?xml version="1.0" encoding="utf-8"?>
<!-- Generator: Adobe Illustrator 16.0.4, SVG Export Plug-In . SVG Version: 6.00 Build 0)  -->
<!DOCTYPE svg PUBLIC "-//W3C//DTD SVG 1.1//EN" "http://www.w3.org/Graphics/SVG/1.1/DTD/svg11.dtd">
<svg version="1.1" id="artwork" xmlns="http://www.w3.org/2000/svg" xmlns:xlink="http://www.w3.org/1999/xlink" x="0px" y="0px"
	 width="16px" height="16px" viewBox="0 0 16 16" enable-background="new 0 0 16 16" xml:space="preserve">
<g>
	<path d="M8,1.1c-3.811,0-6.9,3.077-6.9,6.874c0,3.797,3.089,6.927,6.9,6.927c3.81,0,6.9-3.13,6.9-6.928
		C14.9,4.175,11.81,1.1,8,1.1z M8,13.663c-3.127,0-5.662-2.568-5.662-5.684c0-3.116,2.535-5.641,5.662-5.641
		c3.126,0,5.662,2.524,5.662,5.64C13.662,11.094,11.126,13.663,8,13.663z"/>
</g>
<circle cx="5.5" cy="6.25" r="1"/>
<circle cx="10.5" cy="6.25" r="1"/>
</svg>
