<?xml version="1.0" encoding="utf-8"?>
<!-- Generator: Adobe Illustrator 16.0.4, SVG Export Plug-In . SVG Version: 6.00 Build 0)  -->
<!DOCTYPE svg PUBLIC "-//W3C//DTD SVG 1.1//EN" "http://www.w3.org/Graphics/SVG/1.1/DTD/svg11.dtd">
<svg version="1.1" id="artwork" xmlns="http://www.w3.org/2000/svg" xmlns:xlink="http://www.w3.org/1999/xlink" x="0px" y="0px"
	 width="16px" height="16px" viewBox="0 0 16 16" enable-background="new 0 0 16 16" xml:space="preserve">
<polygon fill="#3D464D" points="15,14 13,11 11,14 "/>
<g>
	<path fill="#3D464D" d="M9.027,12.924c-0.038-0.352-0.077-0.723-0.077-1.101V6.717c0-1.148-0.346-2.029-1.08-2.643
		C7.141,3.465,6.191,3.16,4.988,3.16c-1.215,0-2.206,0.319-2.974,0.959C1.326,4.693,0.983,5.32,0.949,6h1.865
		c0.065-0.321,0.244-0.605,0.545-0.85c0.384-0.316,0.888-0.473,1.516-0.473c0.691,0,1.223,0.182,1.602,0.544
		c0.378,0.362,0.556,0.854,0.556,1.476v1.191H4.96c-1.405,0-2.517,0.215-3.339,0.786c-0.819,0.571-1.228,1.292-1.228,2.305
		c0,0.995,0.289,1.771,0.867,2.337c0.577,0.568,1.419,0.852,2.523,0.852c0.665,0,1.288-0.174,1.867-0.517
		c0.578-0.343,1.045-0.767,1.406-1.276c0.006,0.246,0.027,0.496,0.063,0.741c0.035,0.245,0.086,0.531,0.151,0.852h1.989
		C9.156,13.647,9.066,13.276,9.027,12.924z M7.033,10.773c0,0.464-0.523,0.875-1.084,1.234c-0.564,0.361-1.181,0.539-1.88,0.539
		c-0.576,0-1.009-0.122-1.305-0.396c-0.293-0.274-0.44-0.632-0.44-1.102c0-0.531,0.234-0.961,0.7-1.353
		c0.468-0.393,1.09-0.529,1.867-0.529h2.142V10.773z"/>
</g>
</svg>
