<?xml version="1.0" encoding="iso-8859-1"?>
<!-- Generator: Adobe Illustrator 16.0.4, SVG Export Plug-In . SVG Version: 6.00 Build 0)  -->
<!DOCTYPE svg PUBLIC "-//W3C//DTD SVG 1.1//EN" "http://www.w3.org/Graphics/SVG/1.1/DTD/svg11.dtd">
<svg version="1.1" id="artwork" xmlns="http://www.w3.org/2000/svg" xmlns:xlink="http://www.w3.org/1999/xlink" x="0px" y="0px"
	 width="16px" height="16px" viewBox="0 0 16 16" style="enable-background:new 0 0 16 16;" xml:space="preserve">
<g>
	<path style="fill:#3D464D;" d="M15.016,13.083L13.723,8H13V3h-1V1H9v2H8H7V1H4v2H3v5H2.275l-1.293,5.083
		C0.926,13.417,0.957,14,1.896,14C3,14,4.082,14,5.75,14c1.104,0,0.855-1.121,0.855-1.121L5.619,8H8h2.379l-0.986,4.879
		c0,0-0.248,1.121,0.857,1.121h3.854C15.043,14,15.074,13.417,15.016,13.083z"/>
</g>
</svg>
