<?xml version="1.0" encoding="utf-8"?>
<!-- Generator: Adobe Illustrator 16.0.4, SVG Export Plug-In . SVG Version: 6.00 Build 0)  -->
<!DOCTYPE svg PUBLIC "-//W3C//DTD SVG 1.1//EN" "http://www.w3.org/Graphics/SVG/1.1/DTD/svg11.dtd">
<svg version="1.1" id="artwork" xmlns="http://www.w3.org/2000/svg" xmlns:xlink="http://www.w3.org/1999/xlink" x="0px" y="0px"
	 width="16px" height="16px" viewBox="0 0 16 16" enable-background="new 0 0 16 16" xml:space="preserve">
<g>
	<path fill="#3D464D" d="M8,1.1c-3.811,0-6.9,3.077-6.9,6.874c0,3.797,3.089,6.927,6.9,6.927c3.81,0,6.9-3.13,6.9-6.928
		C14.9,4.175,11.81,1.1,8,1.1z M8,13.663c-3.127,0-5.662-2.568-5.662-5.684c0-3.116,2.535-5.641,5.662-5.641
		c3.126,0,5.662,2.524,5.662,5.64C13.662,11.094,11.126,13.663,8,13.663z"/>
</g>
<g>
	<path fill="#3D464D" d="M4.459,11.006c-0.088,0-0.178-0.023-0.259-0.072c-0.236-0.144-0.311-0.451-0.167-0.688
		C4.814,8.96,6.224,8.252,8,8.252c1.776,0,3.185,0.708,3.966,1.991c0.144,0.236,0.069,0.544-0.167,0.688
		c-0.236,0.143-0.543,0.068-0.687-0.167C10.52,9.789,9.414,9.252,8,9.252c-1.414,0-2.52,0.538-3.113,1.514
		C4.793,10.92,4.628,11.006,4.459,11.006z"/>
</g>
<circle fill="#3D464D" cx="5.5" cy="6.25" r="1"/>
<circle fill="#3D464D" cx="10.5" cy="6.25" r="1"/>
</svg>
