<?xml version="1.0" encoding="utf-8"?>
<!-- Generator: Adobe Illustrator 16.0.4, SVG Export Plug-In . SVG Version: 6.00 Build 0)  -->
<!DOCTYPE svg PUBLIC "-//W3C//DTD SVG 1.1//EN" "http://www.w3.org/Graphics/SVG/1.1/DTD/svg11.dtd">
<svg version="1.1" id="artwork" xmlns="http://www.w3.org/2000/svg" xmlns:xlink="http://www.w3.org/1999/xlink" x="0px" y="0px"
	 width="16px" height="16px" viewBox="0 0 16 16" enable-background="new 0 0 16 16" xml:space="preserve">
<rect x="4.031" y="14.035" fill="#3D464D" width="7.922" height="0.934"/>
<path fill="#3D464D" d="M10,1v7.406C9.95,8.904,9.781,9.311,9.479,9.615c-0.361,0.364-0.829,0.547-1.4,0.547
	c-0.003,0-0.038,0.002-0.078,0.004c-0.04-0.002-0.075-0.004-0.078-0.004c-0.571,0-1.039-0.183-1.4-0.547
	C6.219,9.311,6.05,8.904,6,8.406V1H4v7.194c0,1.188,0.308,2.116,1.049,2.79c0.738,0.676,1.689,1.012,2.85,1.012
	c0.035,0,0.066-0.007,0.102-0.008c0.035,0.001,0.066,0.008,0.102,0.008c1.16,0,2.111-0.336,2.85-1.012
	C11.692,10.311,12,9.383,12,8.194V1H10z"/>
</svg>
