<?xml version="1.0" encoding="utf-8"?>
<!-- Generator: Adobe Illustrator 16.0.4, SVG Export Plug-In . SVG Version: 6.00 Build 0)  -->
<!DOCTYPE svg PUBLIC "-//W3C//DTD SVG 1.1//EN" "http://www.w3.org/Graphics/SVG/1.1/DTD/svg11.dtd">
<svg version="1.1" id="artwork" xmlns="http://www.w3.org/2000/svg" xmlns:xlink="http://www.w3.org/1999/xlink" x="0px" y="0px"
	 width="16px" height="16px" viewBox="0 0 16 16" enable-background="new 0 0 16 16" xml:space="preserve">
<polygon fill="#3D464D" points="16,12 13,12 13,9 12,9 12,12 9,12 9,13 12,13 12,16 13,16 13,13 16,13 "/>
<g>
	<path fill="#3D464D" d="M11,11V8h3v3h1V5c0-0.552-0.447-1-1-1H8.113L6.372,2.447C6.102,2.195,5.82,2,5.508,2H2C1.447,2,1,2.448,1,3
		v10c0,0.552,0.447,1,1,1h6v-3H11z"/>
</g>
</svg>
