<?xml version="1.0" encoding="utf-8"?>
<!-- Generator: Adobe Illustrator 16.0.4, SVG Export Plug-In . SVG Version: 6.00 Build 0)  -->
<!DOCTYPE svg PUBLIC "-//W3C//DTD SVG 1.1//EN" "http://www.w3.org/Graphics/SVG/1.1/DTD/svg11.dtd">
<svg version="1.1" id="artwork" xmlns="http://www.w3.org/2000/svg" xmlns:xlink="http://www.w3.org/1999/xlink" x="0px" y="0px"
	 width="16px" height="16px" viewBox="0 0 16 16" enable-background="new 0 0 16 16" xml:space="preserve">
<g>
	<path fill="#3D464D" d="M8,1.1c-3.811,0-6.9,3.076-6.9,6.874S4.189,14.9,8,14.9c3.81,0,6.9-3.129,6.9-6.928
		C14.9,4.176,11.81,1.1,8,1.1z M10.5,4.67c0.734,0,1.331,0.594,1.331,1.332c0,0.734-0.597,1.328-1.331,1.328
		S9.169,6.736,9.169,6.002C9.169,5.264,9.766,4.67,10.5,4.67z M5.5,4.67c0.734,0,1.331,0.594,1.331,1.332
		c0,0.734-0.597,1.328-1.331,1.328S4.169,6.736,4.169,6.002C4.169,5.264,4.766,4.67,5.5,4.67z M4.026,11.101
		C4.833,9.651,6.355,8.75,8,8.75s3.167,0.9,3.973,2.35c0.086,0.153,0.106,0.331,0.058,0.5s-0.159,0.308-0.312,0.394
		c-0.097,0.054-0.208,0.083-0.319,0.083c-0.238,0-0.458-0.129-0.574-0.337C10.251,10.706,9.168,10.064,8,10.064
		c-1.168,0-2.251,0.642-2.826,1.676c-0.116,0.208-0.336,0.337-0.575,0.337c-0.111,0-0.221-0.028-0.318-0.082
		C3.964,11.817,3.85,11.417,4.026,11.101z"/>
</g>
</svg>
