<?xml version="1.0" encoding="iso-8859-1"?>
<!-- Generator: Adobe Illustrator 16.0.4, SVG Export Plug-In . SVG Version: 6.00 Build 0)  -->
<!DOCTYPE svg PUBLIC "-//W3C//DTD SVG 1.1//EN" "http://www.w3.org/Graphics/SVG/1.1/DTD/svg11.dtd">
<svg version="1.1" id="artwork" xmlns="http://www.w3.org/2000/svg" xmlns:xlink="http://www.w3.org/1999/xlink" x="0px" y="0px"
	 width="16px" height="16px" viewBox="0 0 16 16" style="enable-background:new 0 0 16 16;" xml:space="preserve">
<path style="fill:#3D464D;" d="M7,12.875c-0.386,0-0.73-0.247-0.854-0.616L4.923,8.59l-1.087,2.719
	c-0.124,0.311-0.41,0.526-0.743,0.562c-0.329,0.032-0.655-0.117-0.842-0.396l-2-3c-0.275-0.413-0.164-0.972,0.25-1.248
	c0.413-0.278,0.972-0.164,1.248,0.25L2.8,9.052l1.364-3.411C4.305,5.29,4.652,5.088,5.026,5.075C5.404,5.086,5.734,5.332,5.854,5.69
	l0.973,2.917l1.295-5.828c0.09-0.402,0.44-0.692,0.853-0.704c0.42,0.009,0.778,0.257,0.892,0.652l1.364,4.775l0.966-1.931
	c0.144-0.287,0.429-0.476,0.749-0.496c0.318-0.013,0.626,0.131,0.805,0.399l2,3c0.275,0.413,0.164,0.972-0.25,1.248
	s-0.973,0.163-1.248-0.25l-1.14-1.709l-1.307,2.612c-0.166,0.331-0.518,0.523-0.888,0.494c-0.37-0.035-0.681-0.292-0.782-0.649
	L9.109,6.633l-1.23,5.537c-0.088,0.395-0.429,0.683-0.833,0.703C7.03,12.874,7.015,12.875,7,12.875z"/>
</svg>
