<svg id="icons" xmlns="http://www.w3.org/2000/svg" width="16" height="16" viewBox="0 0 16 16"><title>gear_remove</title><rect x="10" y="12" width="6" height="2"/><path d="M10,11h2.22l.54-.92a1,1,0,0,0-.36-1.37l-1-.94h0l0,0a4.51,4.51,0,0,0,0-1.46l0,0h0l1-.95a1,1,0,0,0,.36-1.37L12.22,3a1,1,0,0,0-1.37-.36l-1.33.45a4.88,4.88,0,0,0-1.26-.75L8,1C7.87.36,7.53,0,7,0H5.92c-.55,0-.88.36-1,1L4.64,2.34a4.88,4.88,0,0,0-1.26.75L2,2.64A1,1,0,0,0,.68,3l-.54.92A1,1,0,0,0,.5,5.29l1,.95h0l0,0a4.51,4.51,0,0,0,0,1.46l0,0h0l-1,.94a1,1,0,0,0-.36,1.37L.68,11A1,1,0,0,0,2,11.36l1.33-.45a4.86,4.86,0,0,0,1.26.75L4.92,13c.12.64.45,1,1,1H7c.55,0,.88-.36,1-1l.28-1.34a4.86,4.86,0,0,0,1.26-.75l.48.16ZM6.45,9.88A2.88,2.88,0,1,1,9.33,7,2.88,2.88,0,0,1,6.45,9.88Z"/></svg>