<?xml version="1.0" encoding="utf-8"?>
<!-- Generator: Adobe Illustrator 16.0.4, SVG Export Plug-In . SVG Version: 6.00 Build 0)  -->
<!DOCTYPE svg PUBLIC "-//W3C//DTD SVG 1.1//EN" "http://www.w3.org/Graphics/SVG/1.1/DTD/svg11.dtd">
<svg version="1.1" id="artwork" xmlns="http://www.w3.org/2000/svg" xmlns:xlink="http://www.w3.org/1999/xlink" x="0px" y="0px"
	 width="16px" height="16px" viewBox="0 0 16 16" enable-background="new 0 0 16 16" xml:space="preserve">
<g>
	<path d="M5.405,5.488c0.2,0.064,0.229,1.038,0.731,1.728C6.531,7.752,7.088,8.43,7.726,8.534
		c0.076,0.016,0.472,0.016,0.547,0c0.64-0.104,1.196-0.782,1.589-1.318c0.507-0.689,0.532-1.663,0.732-1.728
		c0.237-0.075,0.371-0.705,0.371-1.43c0-0.141-0.282-0.337-0.309-0.463c0-0.004,0.002-0.017,0.002-0.019
		C10.542,2.306,9.414,1,8.034,1c0,0-0.002,0-0.005,0C8.027,1,8.027,1,8.027,1c-0.01,0-0.02,0.001-0.026,0.001
		C7.992,1.001,7.982,1,7.975,1c0,0-0.004,0-0.006,0H7.966C6.586,1,5.457,2.306,5.34,3.576C5.338,3.579,5.341,3.587,5.341,3.591
		C5.315,3.717,5.035,3.916,5.035,4.056C5.035,4.781,5.168,5.413,5.405,5.488z"/>
	<path d="M10.185,9.623C9.925,9.41,9.664,8.751,9.664,8.751L7.999,9.898L6.336,8.755c0,0-0.261,0.663-0.521,0.875
		c-1.346,0.989-3.236,1.401-3.578,1.731C1.614,11.965,1.389,13.25,1.29,14h13.42c-0.099-0.75-0.323-2.034-0.947-2.638
		C13.42,11.032,11.531,10.611,10.185,9.623z"/>
	<g>
		<path d="M11.726,6.369c-0.063,0.229-0.145,0.519-0.271,0.829c0.023,0.041,0.045,0.083,0.072,0.122
			c0.24,0.342,0.58,0.773,0.969,0.84c0.046,0.01,0.287,0.01,0.333,0c0.389-0.066,0.729-0.498,0.969-0.84
			c0.306-0.439,0.323-1.06,0.444-1.101c0.145-0.048,0.227-0.434,0.227-0.896c0-0.089-0.171-0.198-0.187-0.278
			c0-0.003,0.002,0.027,0.001,0.025c-0.072-0.809-0.76-1.57-1.601-1.57h-0.002c-0.001,0-0.003,0-0.003,0c-0.005,0-0.011,0-0.016,0
			c-0.004,0-0.011,0-0.017,0c0,0,0,0-0.001,0c-0.002,0-0.003,0-0.003,0c-0.126,0-0.247,0.018-0.364,0.05
			c0.053,0.149,0.088,0.317,0.088,0.509C12.365,5.125,12.15,5.898,11.726,6.369z"/>
		<path d="M14.733,10.333c0.314,0.304,0.573,0.695,0.785,1.167H16V9.786c-0.403-0.181-1.32-0.402-2.007-0.93
			c-0.158-0.135-0.317-0.331-0.317-0.331l-1.014,0.701l-1.013-0.714c0,0-0.111,0.122-0.239,0.241
			c0.602,0.354,1.31,0.621,1.854,0.826C13.943,9.834,14.392,10.003,14.733,10.333z"/>
		<path d="M4.274,6.369c0.063,0.229,0.145,0.519,0.271,0.829C4.521,7.239,4.5,7.28,4.473,7.319
			c-0.24,0.342-0.58,0.773-0.969,0.84c-0.046,0.01-0.287,0.01-0.333,0c-0.389-0.066-0.729-0.498-0.969-0.84
			C1.896,6.88,1.879,6.259,1.758,6.219C1.613,6.17,1.531,5.785,1.531,5.323c0-0.089,0.171-0.198,0.187-0.278
			c0-0.003-0.002,0.027-0.001,0.025C1.789,4.261,2.477,3.5,3.317,3.5h0.002c0.001,0,0.003,0,0.003,0c0.005,0,0.011,0,0.016,0
			c0.004,0,0.011,0,0.017,0c0,0,0,0,0.001,0c0.002,0,0.003,0,0.003,0c0.126,0,0.247,0.018,0.364,0.05
			C3.67,3.699,3.635,3.867,3.635,4.059C3.635,5.125,3.85,5.898,4.274,6.369z"/>
		<path d="M1.267,10.333c-0.314,0.304-0.573,0.695-0.785,1.167H0V9.786c0.403-0.181,1.32-0.402,2.007-0.93
			C2.165,8.72,2.324,8.525,2.324,8.525l1.014,0.701l1.013-0.714c0,0,0.111,0.122,0.239,0.241C3.988,9.107,3.28,9.374,2.735,9.579
			C2.057,9.834,1.608,10.003,1.267,10.333z"/>
	</g>
</g>
</svg>
