<?xml version="1.0" encoding="utf-8"?>
<!-- Generator: Adobe Illustrator 16.0.4, SVG Export Plug-In . SVG Version: 6.00 Build 0)  -->
<!DOCTYPE svg PUBLIC "-//W3C//DTD SVG 1.1//EN" "http://www.w3.org/Graphics/SVG/1.1/DTD/svg11.dtd">
<svg version="1.1" id="artwork" xmlns="http://www.w3.org/2000/svg" xmlns:xlink="http://www.w3.org/1999/xlink" x="0px" y="0px"
	 width="16px" height="16px" viewBox="0 0 16 16" enable-background="new 0 0 16 16" xml:space="preserve">
<g>
	<path fill="#3D464D" d="M15,1H1C0.448,1,0,1.447,0,2v10c0,0.553,0.448,1,1,1h14c0.552,0,1-0.447,1-1V2C16,1.447,15.552,1,15,1z
		 M14,11H2V3h12V11z"/>
</g>
<polygon fill="#3D464D" points="6,14 10.25,14 10.5,15 5.75,15 "/>
<rect x="3" y="4" fill="#3D464D" width="10" height="1"/>
<rect x="12" y="6" fill="#3D464D" width="1" height="1"/>
<rect x="12" y="8" fill="#3D464D" width="1" height="1"/>
</svg>
