<?xml version="1.0" encoding="iso-8859-1"?>
<!-- Generator: Adobe Illustrator 16.0.4, SVG Export Plug-In . SVG Version: 6.00 Build 0)  -->
<!DOCTYPE svg PUBLIC "-//W3C//DTD SVG 1.1//EN" "http://www.w3.org/Graphics/SVG/1.1/DTD/svg11.dtd">
<svg version="1.1" id="artwork" xmlns="http://www.w3.org/2000/svg" xmlns:xlink="http://www.w3.org/1999/xlink" x="0px" y="0px"
	 width="16px" height="16px" viewBox="0 0 16 16" style="enable-background:new 0 0 16 16;" xml:space="preserve">
<g>
	<g>
		<path style="fill:#3D464D;" d="M6.625,7.822C6.074,7.018,5.75,6.048,5.75,5c0-0.343,0.035-0.677,0.101-1H1v7h3.79L6.625,7.822z"/>
		<path style="fill:#3D464D;" d="M10.75,1C9.273,1,7.998,1.81,7.305,3C7.124,3.311,6.983,3.645,6.892,4
			C6.808,4.321,6.75,4.652,6.75,5c0,0.658,0.174,1.27,0.455,1.816l1.081-1.872l2.334,4.042C10.664,8.988,10.706,9,10.75,9
			c2.209,0,4-1.791,4-4S12.959,1,10.75,1z"/>
		<polygon style="fill:#3D464D;" points="8.259,6.945 3.672,15 12.845,15 		"/>
	</g>
</g>
</svg>
