<?xml version="1.0" encoding="iso-8859-1"?>
<!-- Generator: Adobe Illustrator 16.0.4, SVG Export Plug-In . SVG Version: 6.00 Build 0)  -->
<!DOCTYPE svg PUBLIC "-//W3C//DTD SVG 1.1//EN" "http://www.w3.org/Graphics/SVG/1.1/DTD/svg11.dtd">
<svg version="1.1" id="artwork" xmlns="http://www.w3.org/2000/svg" xmlns:xlink="http://www.w3.org/1999/xlink" x="0px" y="0px"
	 width="16px" height="16px" viewBox="0 0 16 16" style="enable-background:new 0 0 16 16;" xml:space="preserve">
<g>
	<path style="fill:#3D464D;" d="M8.475,14.452l-0.077-0.08l0.073-0.084c0.062-0.072,0.049-0.12-0.035-0.259l-0.038-0.063
		c-0.012-0.021-0.025-0.042-0.038-0.062c-0.051-0.079-0.107-0.171-0.113-0.306c-0.011-0.258-0.029-0.514-0.049-0.771
		c-0.014-0.178-0.027-0.356-0.037-0.535c-0.006-0.104-0.004-0.209-0.002-0.312c0.002-0.069,0.004-0.137,0.003-0.205
		c-0.003-0.207-0.104-0.36-0.285-0.433c-0.315-0.127-0.451-0.387-0.572-0.616c-0.031-0.06-0.063-0.119-0.097-0.177
		c-0.025-0.041-0.045-0.083-0.064-0.126c-0.033-0.074-0.062-0.139-0.116-0.18c-0.045-0.035-0.15-0.163-0.097-0.271
		c0.034-0.063,0.033-0.144,0.033-0.233C6.961,9.588,6.959,9.401,7.131,9.251c0.144-0.126,0.181-0.271,0.12-0.44l-0.13,0.07
		C7.076,8.894,7.049,8.897,7.022,8.897c-0.05,0-0.119-0.013-0.187-0.065L6.801,8.817C6.662,8.748,6.451,8.64,6.355,8.378
		c-0.01-0.012-0.062-0.043-0.098-0.062C6.222,8.294,6.186,8.272,6.152,8.249c-0.181-0.125-0.391-0.18-0.613-0.238
		c-0.08-0.021-0.16-0.043-0.24-0.066c-0.12-0.037-0.24-0.098-0.381-0.188c-0.117-0.075-0.377-0.241-0.27-0.594
		C4.644,7.16,4.628,7.146,4.61,7.125L4.522,7.544L4.203,7.013c-0.02-0.033-0.041-0.064-0.062-0.096
		c-0.086-0.13-0.19-0.286-0.197-0.493C3.891,6.319,3.875,6.213,3.896,6.106C3.617,5.884,3.629,5.577,3.637,5.374l0.004-0.111
		c0-0.146,0.082-0.239,0.145-0.291c0.014-0.034,0.03-0.069,0.049-0.105c0.06-0.111,0.133-0.203,0.204-0.292
		c0.063-0.079,0.124-0.153,0.161-0.229l0.062-0.129C4.189,4.052,4.226,3.881,4.25,3.769L4.264,3.7l0.171,0.029V3.638L4.276,3.651
		L4.268,3.644l-0.121-0.01L4.053,3.5C4.037,3.466,4.019,3.422,3.868,3.421l-0.22,0.011C3.475,3.44,3.311,3.448,3.189,3.529
		C3.168,3.543,3.146,3.556,3.122,3.568C3.076,3.591,3.038,3.606,2.998,3.619c-0.044,0.015-0.092,0.028-0.141,0.04
		C2.834,3.664,2.811,3.671,2.788,3.678C2.693,3.765,2.589,3.81,2.493,3.843C1.619,4.999,1.1,6.438,1.1,8c0,3.811,3.09,6.9,6.9,6.9
		c0.242,0,0.482-0.013,0.719-0.037c-0.036-0.057-0.068-0.114-0.097-0.171C8.578,14.603,8.535,14.517,8.475,14.452z"/>
	<path style="fill:#3D464D;" d="M14.9,8c0-3.811-3.09-6.9-6.9-6.9c-1.249,0-2.42,0.333-3.43,0.914
		c0.221,0.005,0.438,0.034,0.652,0.087c0.229,0.057,0.443,0.065,0.675,0.03c0.13-0.02,0.281-0.04,0.44-0.04
		c0.292,0,0.544,0.069,0.77,0.211c0.036,0.023,0.178,0.063,0.266,0.016c0.178-0.095,0.416-0.074,0.602-0.035
		c0.057,0.012,0.114,0.024,0.17,0.027l0.062,0.004c0.048,0,0.062-0.008,0.062-0.008c0.031-0.129,0.112-0.274,0.326-0.321
		l0.076-0.009c0.039,0,0.23,0.012,0.28,0.236C9,2.166,9.068,2.108,9.174,2.108h0.103l0.112,0.097
		C9.455,2.274,9.484,2.36,9.473,2.448C9.452,2.595,9.333,2.665,9.27,2.702c-0.128,0.133-0.33,0.135-0.49,0.127
		C8.775,2.837,8.771,2.845,8.767,2.853l0.002,0.002L8.716,2.934L8.643,2.952c-0.007,0.002-0.014,0.004-0.02,0.005L8.617,2.959
		C8.576,2.974,8.539,2.975,8.519,2.976L8.518,2.972C8.488,2.978,8.459,2.98,8.432,2.982L8.43,2.976
		C8.379,2.991,8.312,2.993,8.223,2.993v0.092L8.121,3.099C8.113,3.21,8.064,3.288,8.004,3.342c0.061,0.023,0.11,0.056,0.152,0.081
		c0.024,0.016,0.056,0.036,0.07,0.039C8.272,3.474,8.397,3.506,8.48,3.608c0.076-0.066,0.154-0.107,0.207-0.135l0.277-0.039
		L8.723,3.426C8.733,3.08,9.019,2.809,9.37,2.809c0.117,0,0.233,0.031,0.335,0.092C9.75,2.927,9.846,2.982,9.895,3.078l0.246-0.111
		l0.125,0.187c0.064,0.114,0.079,0.229,0.092,0.318c0.004,0.033,0.008,0.066,0.016,0.099c0.003,0.008,0.005,0.017,0.007,0.025
		c0.143,0.019,0.259,0.139,0.271,0.29c0.014,0.149-0.065,0.287-0.212,0.366c-0.174,0.096-0.412,0.205-0.697,0.205L9.691,4.456
		c-0.002,0.01-0.004,0.02-0.008,0.03C9.71,4.503,9.735,4.52,9.76,4.538l0.035,0.221l-0.236,0.21c-0.17-0.04-0.301-0.023-0.421,0.058
		C9.035,5.095,8.93,5.158,8.825,5.222C8.62,5.346,8.426,5.463,8.26,5.611C8.242,5.708,8.208,5.793,8.158,5.868
		c-0.046,0.067-0.104,0.128-0.174,0.18C7.963,6.063,7.941,6.079,7.918,6.095c-0.048,0.03-0.1,0.06-0.151,0.088
		C7.704,6.216,7.645,6.249,7.6,6.285c-0.014,0.04-0.008,0.097,0.007,0.196l0.01,0.072C7.655,6.952,7.418,7.02,7.344,7.031
		L7.287,7.036c-0.092,0-0.254-0.036-0.311-0.28c-0.039-0.07-0.044-0.144-0.04-0.204C6.878,6.531,6.822,6.513,6.773,6.508
		C6.69,6.596,6.543,6.673,6.356,6.612C6.125,6.538,5.994,6.749,5.966,6.835L5.934,6.927C5.879,7.081,5.859,7.151,5.893,7.229
		C5.904,7.254,5.93,7.312,5.943,7.326c0.09-0.01,0.111-0.041,0.121-0.056c0.032-0.075,0.094-0.217,0.273-0.258
		C6.459,6.974,6.61,6.962,6.723,7.05c0.051,0.04,0.206,0.188,0.067,0.43c-0.005,0.026-0.02,0.059-0.034,0.086
		c0.082,0.01,0.194,0.04,0.273,0.14c0.071,0.091,0.094,0.209,0.065,0.351L7.076,8.14C7.053,8.233,7.047,8.276,7.053,8.302
		c0.05,0.027,0.086,0.061,0.112,0.095l0.214,0.069C7.396,8.464,7.407,8.455,7.43,8.458c0.15-0.279,0.426-0.294,0.649-0.306
		l0.038,0.01c0.018-0.007,0.039-0.001,0.064-0.001h0.047l0.043,0.021c0.098,0.089,0.226,0.101,0.373,0.121
		C8.8,8.326,8.975,8.348,9.122,8.468C9.298,8.671,9.438,8.78,9.676,8.792c0.155,0.007,0.29,0.097,0.371,0.248
		c0.059,0.111,0.078,0.24,0.059,0.357c0.041,0.012,0.084,0.034,0.113,0.081c0.006,0.007,0.01,0.016,0.014,0.024
		c0.15-0.057,0.304-0.014,0.399,0.146c0.027-0.005,0.062-0.008,0.095-0.008c0.208,0,0.37,0.099,0.527,0.193
		c0.043,0.026,0.086,0.053,0.131,0.077c0.137,0.074,0.22,0.166,0.247,0.274c0.026,0.101,0.003,0.209-0.069,0.319
		c-0.024,0.038-0.053,0.068-0.078,0.093c-0.193,0.191-0.212,0.438-0.233,0.727c-0.013,0.166-0.064,0.312-0.113,0.436
		c-0.038,0.097-0.109,0.279-0.347,0.279c-0.017,0-0.033-0.001-0.051-0.002c-0.021,0-0.078,0.038-0.115,0.062
		c-0.045,0.029-0.09,0.059-0.135,0.078c-0.02,0.016-0.017,0.043-0.015,0.061c0.003,0.037,0.008,0.082-0.003,0.132
		c-0.062,0.294-0.168,0.511-0.33,0.675c-0.045,0.227-0.176,0.253-0.272,0.239c0.026,0.074,0.027,0.144,0.003,0.207
		c-0.039,0.104-0.141,0.173-0.301,0.206c-0.02,0.004-0.039,0.006-0.059,0.008c0.001,0.002,0.001,0.003,0.001,0.003
		c0.011,0.073-0.003,0.13-0.04,0.171c-0.02,0.024-0.055,0.051-0.11,0.057c0.034,0.106,0.04,0.232-0.041,0.357
		c0.122,0.138,0.091,0.301,0.067,0.414c-0.004,0.021-0.006,0.037-0.008,0.056C12.531,14.12,14.9,11.337,14.9,8z"/>
</g>
</svg>
