<?xml version="1.0" encoding="utf-8"?>
<!-- Generator: Adobe Illustrator 16.0.4, SVG Export Plug-In . SVG Version: 6.00 Build 0)  -->
<!DOCTYPE svg PUBLIC "-//W3C//DTD SVG 1.1//EN" "http://www.w3.org/Graphics/SVG/1.1/DTD/svg11.dtd">
<svg version="1.1" id="artwork" xmlns="http://www.w3.org/2000/svg" xmlns:xlink="http://www.w3.org/1999/xlink" x="0px" y="0px"
	 width="16px" height="16px" viewBox="0 0 16 16" enable-background="new 0 0 16 16" xml:space="preserve">
<g>
	<path fill="#3D464D" d="M8.008,1.1l-0.33,0.016L6.277,4.986h1.227c0.724,0,1.135,0.582,0.882,1.26l-1.747,4.781H5.176L6.995,6H5.91
		l-1.836,5.027H2.61l3.525-9.66C3.256,2.186,1.1,4.829,1.1,8.008c0,3.258,2.25,5.996,5.303,6.719l3.525-9.74h2.69
		c0.755,0,1.149,0.584,0.897,1.244l-1.543,4.218c-0.109,0.313-0.504,0.581-0.834,0.581H9.204L7.788,14.9h0.204
		C11.8,14.9,14.9,11.8,14.9,8.008C14.9,4.2,11.8,1.1,8.008,1.1z"/>
	<polygon fill="#3D464D" points="10.729,10 12.189,6 11.073,6 9.609,10 	"/>
</g>
</svg>
