<?xml version="1.0" encoding="iso-8859-1"?>
<!-- Generator: Adobe Illustrator 16.0.4, SVG Export Plug-In . SVG Version: 6.00 Build 0)  -->
<!DOCTYPE svg PUBLIC "-//W3C//DTD SVG 1.1//EN" "http://www.w3.org/Graphics/SVG/1.1/DTD/svg11.dtd">
<svg version="1.1" id="artwork" xmlns="http://www.w3.org/2000/svg" xmlns:xlink="http://www.w3.org/1999/xlink" x="0px" y="0px"
	 width="16px" height="16px" viewBox="0 0 16 16" style="enable-background:new 0 0 16 16;" xml:space="preserve">
<g>
	<path style="fill:#3D464D;" d="M15.243,8.148C15.222,8.12,9.028,2.391,9.028,2.391s-0.25-0.25-0.516-0.25
		c-0.297,0-0.534,0.25-0.534,0.25S1.776,8.118,1.755,8.146C1.612,8.303,1.598,8.537,1.739,8.703l0.305,0.324
		C2.14,9.128,2.262,9.18,2.385,9.184c0.121,0.004,0.241-0.041,0.343-0.136L3,8.764V14h4V9h3v5h4V8.764l0.273,0.284
		c0.103,0.095,0.228,0.14,0.349,0.136c0.123-0.004,0.244-0.056,0.342-0.156l0.296-0.321C15.401,8.539,15.386,8.305,15.243,8.148z"/>
</g>
</svg>
