<?xml version="1.0" encoding="iso-8859-1"?>
<!-- Generator: Adobe Illustrator 16.0.4, SVG Export Plug-In . SVG Version: 6.00 Build 0)  -->
<!DOCTYPE svg PUBLIC "-//W3C//DTD SVG 1.1//EN" "http://www.w3.org/Graphics/SVG/1.1/DTD/svg11.dtd">
<svg version="1.1" id="artwork" xmlns="http://www.w3.org/2000/svg" xmlns:xlink="http://www.w3.org/1999/xlink" x="0px" y="0px"
	 width="16px" height="16px" viewBox="0 0 16 16" style="enable-background:new 0 0 16 16;" xml:space="preserve">
<path style="fill:#3D464D;" d="M15,8h-5L9.372,7.447C9.102,7.195,8.82,7,8.508,7H6C5.461,7,5.021,7.427,5.001,7.961
	C5,7.974,5,7.986,5,8v7c0,0.553,0.447,1,1,1h9c0.553,0,1-0.447,1-1V9C16,8.447,15.553,8,15,8z"/>
<g>
	<path style="fill:none;" d="M8.508,6c0.24,0,0.458,0.051,0.655,0.127L9.042,6H8.508z"/>
	<g>
		<path style="fill:#3D464D;" d="M13,4l1.5,3L16,4h-1V2c0-0.553-0.447-1-1-1h-1v1h1v2H13z"/>
		<path style="fill:#3D464D;" d="M3.5,7.75v-1V6H5V5.312V4.816V4.734c0-0.479,0.074-1.466,0.427-1.924C5.799,2.328,6.331,2,7.21,2
			c1.432,0,2.047,0.201,2.047,0.201L8.978,3.854c0,0-0.588-0.135-1.03-0.135C7.507,3.719,7,3.873,7,4.308v0.427v0.578V6
			c0,0,1.118,0,1.59,0c0.398,0,0.677,0.127,0.677,0.127c0.37,0.143,0.665,0.379,0.88,0.578L10.481,7H12V1c0-0.553-0.448-1-1-1H1
			C0.448,0,0,0.447,0,1v10c0,0.553,0.448,1,1,1h3V9.111V8H3.5V7.75z"/>
	</g>
</g>
</svg>
