<?xml version="1.0" encoding="iso-8859-1"?>
<!-- Generator: Adobe Illustrator 16.0.4, SVG Export Plug-In . SVG Version: 6.00 Build 0)  -->
<!DOCTYPE svg PUBLIC "-//W3C//DTD SVG 1.1//EN" "http://www.w3.org/Graphics/SVG/1.1/DTD/svg11.dtd">
<svg version="1.1" id="artwork" xmlns="http://www.w3.org/2000/svg" xmlns:xlink="http://www.w3.org/1999/xlink" x="0px" y="0px"
	 width="16px" height="16px" viewBox="0 0 16 16" style="enable-background:new 0 0 16 16;" xml:space="preserve">
<g>
	<path style="fill:#3D464D;" d="M15,8h-5L9.372,7.447C9.102,7.195,8.82,7,8.508,7H6C5.461,7,5.021,7.427,5.001,7.961
		C5,7.974,5,7.987,5,8v7c0,0.553,0.447,1,1,1h9c0.553,0,1-0.447,1-1V9C16,8.447,15.553,8,15,8z"/>
	<path style="fill:#3D464D;" d="M13,4l1.5,3L16,4h-1V2c0-0.553-0.447-1-1-1h-1v1h1v2H13z"/>
	<g>
		<path style="fill:#3D464D;" d="M11,0H1C0.448,0,0,0.447,0,1v10c0,0.553,0.448,1,1,1h3v-1.999C3.039,9.938,2.143,9.639,1.377,9.142
			C1.529,9.161,1.685,9.17,1.842,9.17c0.802,0,1.54-0.253,2.161-0.671l0-0.22C3.27,8.163,2.664,7.656,2.442,6.955
			c0.119,0.024,0.241,0.036,0.366,0.036c0.178,0,0.349-0.024,0.513-0.068C2.431,6.741,1.759,5.944,1.759,4.989
			c0-0.01,0-0.018,0-0.025C2.021,5.111,2.322,5.2,2.642,5.211C2.119,4.856,1.775,4.253,1.775,3.568c0-0.361,0.096-0.7,0.263-0.991
			c0.96,1.193,2.396,1.979,4.015,2.061c-0.033-0.145-0.05-0.295-0.05-0.449c0-1.09,0.873-1.973,1.948-1.973
			c0.561,0,1.067,0.239,1.422,0.623c0.444-0.089,0.861-0.253,1.237-0.479c-0.145,0.46-0.454,0.847-0.857,1.091
			c0.394-0.048,0.77-0.154,1.12-0.311c-0.262,0.396-0.592,0.743-0.973,1.021c0.003,0.083,0.005,0.169,0.005,0.255
			c0,0.633-0.118,1.289-0.344,1.92c0.19,0.122,0.36,0.256,0.491,0.379L10.377,7H12V1C12,0.447,11.552,0,11,0z"/>
	</g>
</g>
</svg>
