<?xml version="1.0" encoding="iso-8859-1"?>
<!-- Generator: Adobe Illustrator 16.0.4, SVG Export Plug-In . SVG Version: 6.00 Build 0)  -->
<!DOCTYPE svg PUBLIC "-//W3C//DTD SVG 1.1//EN" "http://www.w3.org/Graphics/SVG/1.1/DTD/svg11.dtd">
<svg version="1.1" id="artwork" xmlns="http://www.w3.org/2000/svg" xmlns:xlink="http://www.w3.org/1999/xlink" x="0px" y="0px"
	 width="16px" height="16px" viewBox="0 0 16 16" style="enable-background:new 0 0 16 16;" xml:space="preserve">
<g>
	<path style="fill:#3D464D;" d="M8,1.101c-3.811,0-6.9,3.09-6.9,6.901c0,3.81,3.089,6.898,6.9,6.898c3.811,0,6.9-3.089,6.9-6.898
		C14.9,4.19,11.811,1.101,8,1.101z M8,4l4,2.51L8,9V4z M11.401,11.97l-0.312,0.349c-0.361,0.363-0.834,0.618-1.243,0.684
		c-1.013,0.162-2.956-0.434-4.651-2.129c-0.003-0.004-0.006-0.007-0.008-0.01c-0.002-0.002-0.006-0.005-0.009-0.007
		C3.482,9.161,2.888,7.219,3.051,6.205c0.064-0.409,0.32-0.881,0.682-1.244l0.311-0.349c0.201-0.2,0.516-0.206,0.706-0.017
		l1.38,1.379c0.189,0.191,0.184,0.507-0.016,0.707L5.918,6.877L5.799,6.995L5.644,7.146C5.111,7.68,5.091,8.522,5.598,9.031
		l1.148,1.148l0.231,0.229c0.509,0.507,1.351,0.487,1.884-0.044l0.275-0.271l0.195-0.194c0.198-0.197,0.515-0.205,0.706-0.018
		l1.379,1.38C11.607,11.453,11.6,11.77,11.401,11.97z"/>
</g>
</svg>
