<?xml version="1.0" encoding="iso-8859-1"?>
<!-- Generator: Adobe Illustrator 17.1.0, SVG Export Plug-In . SVG Version: 6.00 Build 0)  -->
<!DOCTYPE svg PUBLIC "-//W3C//DTD SVG 1.1//EN" "http://www.w3.org/Graphics/SVG/1.1/DTD/svg11.dtd">
<svg version="1.1" id="artwork" xmlns="http://www.w3.org/2000/svg" xmlns:xlink="http://www.w3.org/1999/xlink" x="0px" y="0px"
	 viewBox="0 0 16 16" style="enable-background:new 0 0 16 16;" xml:space="preserve">
<g>
	<path style="fill:#3D464D;" d="M12.5,9c-1.919,0-3.475,1.556-3.475,3.475c0,1.919,1.556,3.475,3.475,3.475s3.475-1.556,3.475-3.475
		C15.975,10.556,14.419,9,12.5,9z M14.302,13H12v-2.302c0-0.276,0.224-0.5,0.5-0.5s0.5,0.224,0.5,0.5V12h1.302
		c0.276,0,0.5,0.224,0.5,0.5C14.802,12.776,14.578,13,14.302,13z"/>
	<path style="fill:#3D464D;" d="M6.918,5.877l-0.12,0.118L6.644,6.146C6.111,6.68,6.091,7.522,6.598,8.031L7.747,9.18l0.231,0.23
		C8.24,9.67,8.59,9.789,8.941,9.773C9.76,8.698,11.048,8,12.5,8c0.869,0,1.679,0.253,2.366,0.684C14.888,8.459,14.9,8.231,14.9,8
		c0-3.811-3.089-6.9-6.9-6.9c-3.811,0-6.9,3.09-6.9,6.9s3.089,6.9,6.9,6.9c0.244,0,0.484-0.013,0.722-0.038
		c-0.439-0.692-0.697-1.509-0.697-2.388c0-0.39,0.055-0.766,0.149-1.126c-0.652-0.345-1.333-0.831-1.978-1.476
		C6.192,9.869,6.19,9.866,6.188,9.863C6.185,9.861,6.181,9.858,6.179,9.856C4.483,8.161,3.888,6.219,4.05,5.205
		c0.065-0.409,0.321-0.881,0.683-1.244l0.311-0.349c0.2-0.2,0.516-0.206,0.706-0.017l1.379,1.379
		c0.19,0.191,0.184,0.507-0.015,0.707L6.918,5.877z"/>
</g>
</svg>
