<?xml version="1.0" encoding="iso-8859-1"?>
<!-- Generator: Adobe Illustrator 16.0.4, SVG Export Plug-In . SVG Version: 6.00 Build 0)  -->
<!DOCTYPE svg PUBLIC "-//W3C//DTD SVG 1.1//EN" "http://www.w3.org/Graphics/SVG/1.1/DTD/svg11.dtd">
<svg version="1.1" id="artwork" xmlns="http://www.w3.org/2000/svg" xmlns:xlink="http://www.w3.org/1999/xlink" x="0px" y="0px"
	 width="16px" height="16px" viewBox="0 0 16 16" style="enable-background:new 0 0 16 16;" xml:space="preserve">
<g>
	<path style="fill:#3D464D;" d="M15.917,4.805c-0.03-0.071-0.487-1.129-1.473-1.924l1.228-1.23c0.195-0.195,0.206-0.512,0.01-0.707
		c-0.195-0.195-0.506-0.195-0.702,0l-0.92,0.92l-0.479,0.479l-0.628,0.629l-0.417,0.417l-2.15,2.151L9.162,6.765L6.487,9.439
		l-1.591,1.592l-0.107,0.107l-0.983,0.982l-0.34,0.341c-0.195,0.195-0.194,0.512,0.001,0.707s0.513,0.195,0.708,0l0.671-0.671
		l0.672-0.674c2.399,2.103,4.988,2.845,6.394,2.619c0.619-0.098,1.335-0.485,1.883-1.033l0.472-0.53
		c0.301-0.303,0.312-0.782,0.023-1.071l-2.088-2.09c-0.29-0.285-0.77-0.273-1.07,0.026l-0.295,0.294l-0.417,0.411
		c-0.808,0.806-2.084,0.836-2.854,0.067L7.218,10.17l-0.024-0.023l2.744-2.75C10.489,7.748,11.172,8,12,8
		c2.707,0,3.87-2.689,3.917-2.805L16,5L15.917,4.805z M12,6.701c-0.385,0-0.739-0.129-1.024-0.346l2.378-2.382
		c0.217,0.285,0.347,0.64,0.347,1.026C13.701,5.938,12.939,6.701,12,6.701z"/>
	<path style="fill:#3D464D;" d="M5.475,8.426c-0.257-0.259-0.422-0.575-0.5-0.91C4.82,6.852,5.012,6.11,5.547,5.575l0.235-0.229
		l0.181-0.179L6.258,4.87C6.559,4.568,6.569,4.089,6.281,3.8L4.192,1.711C3.904,1.424,3.426,1.434,3.123,1.736l-0.47,0.529
		C2.104,2.814,1.717,3.529,1.618,4.148C1.433,5.305,1.899,7.26,3.238,9.252c0.183,0.271,0.384,0.543,0.6,0.814L5.475,8.426z"/>
	<path style="fill:#3D464D;" d="M8.29,5.605l3.595-3.602c-0.859,0.024-1.559,0.319-2.111,0.711C9.291,3.057,8.918,3.471,8.648,3.84
		C8.281,4.342,8.101,4.761,8.082,4.805L8,5l0.082,0.195C8.093,5.221,8.161,5.379,8.29,5.605z"/>
</g>
</svg>
