<?xml version="1.0" encoding="iso-8859-1"?>
<!-- Generator: Adobe Illustrator 16.0.4, SVG Export Plug-In . SVG Version: 6.00 Build 0)  -->
<!DOCTYPE svg PUBLIC "-//W3C//DTD SVG 1.1//EN" "http://www.w3.org/Graphics/SVG/1.1/DTD/svg11.dtd">
<svg version="1.1" id="artwork" xmlns="http://www.w3.org/2000/svg" xmlns:xlink="http://www.w3.org/1999/xlink" x="0px" y="0px"
	 width="16px" height="16px" viewBox="0 0 16 16" style="enable-background:new 0 0 16 16;" xml:space="preserve">
<g>
	<g>
		<path style="fill:#3D464D;" d="M8,1.1c-3.811,0-6.9,3.09-6.9,6.9s3.09,6.9,6.9,6.9s6.9-3.09,6.9-6.9S11.811,1.1,8,1.1z
			 M12.729,7.893L12.554,8.08c-0.058,0.059-0.13,0.09-0.202,0.092c-0.071,0.002-0.137-0.024-0.196-0.08L12,7.937V11H9V8H7v3H4V7.944
			L3.855,8.092c-0.061,0.056-0.12,0.082-0.191,0.08C3.592,8.17,3.522,8.139,3.466,8.08L3.289,7.891
			c-0.082-0.098-0.074-0.235,0.01-0.327c0.012-0.017,0.028-0.026,0.043-0.041l4.361-3.84c0,0,0.139-0.147,0.313-0.147
			c0.155,0,0.303,0.147,0.303,0.147l4.36,3.84c0.015,0.015,0.027,0.026,0.039,0.043C12.803,7.656,12.811,7.795,12.729,7.893z"/>
	</g>
</g>
</svg>
