<?xml version="1.0" encoding="iso-8859-1"?>
<!-- Generator: Adobe Illustrator 16.0.4, SVG Export Plug-In . SVG Version: 6.00 Build 0)  -->
<!DOCTYPE svg PUBLIC "-//W3C//DTD SVG 1.1//EN" "http://www.w3.org/Graphics/SVG/1.1/DTD/svg11.dtd">
<svg version="1.1" id="artwork" xmlns="http://www.w3.org/2000/svg" xmlns:xlink="http://www.w3.org/1999/xlink" x="0px" y="0px"
	 width="16px" height="16px" viewBox="0 0 16 16" style="enable-background:new 0 0 16 16;" xml:space="preserve">
<g>
	<path style="fill:#3D464D;" d="M14,1H2C1.447,1,1,1.447,1,2v12c0,0.553,0.447,1,1,1h12c0.553,0,1-0.447,1-1V2
		C15,1.447,14.553,1,14,1z M12,9c-0.041,0-5,0-5,0s0-5.969,0-6c0-0.276,0.224-0.5,0.5-0.5S8,2.724,8,3c0,0.092,0,5,0,5s3.911,0,4,0
		c0.276,0,0.5,0.224,0.5,0.5S12.276,9,12,9z"/>
</g>
</svg>
