<?xml version="1.0" encoding="iso-8859-1"?>
<!-- Generator: Adobe Illustrator 16.0.4, SVG Export Plug-In . SVG Version: 6.00 Build 0)  -->
<!DOCTYPE svg PUBLIC "-//W3C//DTD SVG 1.1//EN" "http://www.w3.org/Graphics/SVG/1.1/DTD/svg11.dtd">
<svg version="1.1" id="artwork" xmlns="http://www.w3.org/2000/svg" xmlns:xlink="http://www.w3.org/1999/xlink" x="0px" y="0px"
	 width="16px" height="16px" viewBox="0 0 16 16" style="enable-background:new 0 0 16 16;" xml:space="preserve">
<polygon style="fill:#3D464D;" points="13.185,9.758 12.532,10.405 14.114,12 9,12 9,13 14.114,13 12.532,14.603 13.185,15.256 
	15.916,12.506 "/>
<g>
	<g>
		<path style="fill:#3D464D;" d="M10.553,10.397L12,8.961V1c0-0.553-0.447-1-1-1H1C0.447,0,0,0.447,0,1v10c0,0.553,0.447,1,1,1h7v-1
			h3.172l-0.418-0.4L10.553,10.397z M9.906,4.418c0,2.605-1.959,5.611-5.542,5.611c-1.101,0-2.124-0.328-2.987-0.887
			C1.529,9.16,1.685,9.17,1.842,9.17c0.914,0,1.753-0.314,2.42-0.844C3.409,8.31,2.689,7.739,2.441,6.955
			c0.119,0.024,0.241,0.036,0.367,0.036c0.178,0,0.349-0.024,0.513-0.069c-0.891-0.18-1.562-0.978-1.562-1.934
			c0-0.01,0-0.018,0.001-0.024c0.262,0.147,0.562,0.237,0.882,0.247C2.119,4.857,1.775,4.253,1.775,3.568
			c0-0.361,0.096-0.7,0.264-0.992c0.96,1.194,2.396,1.979,4.015,2.062c-0.033-0.144-0.05-0.294-0.05-0.45
			c0-1.089,0.872-1.972,1.947-1.972c0.561,0,1.066,0.239,1.422,0.623c0.444-0.089,0.861-0.253,1.238-0.479
			c-0.146,0.46-0.455,0.847-0.857,1.091c0.395-0.048,0.77-0.154,1.119-0.311C10.611,3.536,10.281,3.884,9.9,4.162
			C9.904,4.246,9.906,4.331,9.906,4.418z"/>
	</g>
</g>
</svg>
