<?xml version="1.0" encoding="iso-8859-1"?>
<!-- Generator: Adobe Illustrator 16.0.4, SVG Export Plug-In . SVG Version: 6.00 Build 0)  -->
<!DOCTYPE svg PUBLIC "-//W3C//DTD SVG 1.1//EN" "http://www.w3.org/Graphics/SVG/1.1/DTD/svg11.dtd">
<svg version="1.1" id="artwork" xmlns="http://www.w3.org/2000/svg" xmlns:xlink="http://www.w3.org/1999/xlink" x="0px" y="0px"
	 width="16px" height="16px" viewBox="0 0 16 16" style="enable-background:new 0 0 16 16;" xml:space="preserve">
<g>
	<path style="fill:#3D464D;" d="M8,1.1c-3.811,0-6.9,3.09-6.9,6.9s3.09,6.9,6.9,6.9s6.9-3.09,6.9-6.9S11.811,1.1,8,1.1z
		 M5.129,11.983c-0.614,0-1.113-0.498-1.113-1.113s0.499-1.113,1.113-1.113c0.615,0,1.114,0.498,1.114,1.113
		S5.745,11.983,5.129,11.983z M8.138,12c0-2.281-1.857-4.139-4.138-4.139V6.422c3.075,0,5.578,2.502,5.578,5.578H8.138z M11.017,12
		c0-3.869-3.148-7.018-7.017-7.018V3.543c4.663,0,8.456,3.795,8.456,8.457H11.017z"/>
</g>
</svg>
