<?xml version="1.0" encoding="iso-8859-1"?>
<!-- Generator: Adobe Illustrator 16.0.4, SVG Export Plug-In . SVG Version: 6.00 Build 0)  -->
<!DOCTYPE svg PUBLIC "-//W3C//DTD SVG 1.1//EN" "http://www.w3.org/Graphics/SVG/1.1/DTD/svg11.dtd">
<svg version="1.1" id="artwork" xmlns="http://www.w3.org/2000/svg" xmlns:xlink="http://www.w3.org/1999/xlink" x="0px" y="0px"
	 width="16px" height="16px" viewBox="0 0 16 16" style="enable-background:new 0 0 16 16;" xml:space="preserve">
<g>
	<path style="fill:#3D464D;" d="M10.562,8.705c0.002-0.007,0.002-0.014,0.004-0.02c0.022-0.084,0.042-0.168,0.057-0.255
		C10.648,8.29,10.667,8.148,10.667,8c0-1.473-1.194-2.666-2.667-2.666S5.333,6.527,5.333,8c0,0.148,0.018,0.29,0.043,0.431
		c0.014,0.087,0.034,0.171,0.057,0.255c0.002,0.006,0.002,0.013,0.004,0.02c0,0,0.001,0.001,0.001,0.001
		c0.245,0.885,0.928,1.578,1.807,1.839l0.001,0.002c0.008,0.003,0.018,0.004,0.026,0.006c0.095,0.027,0.189,0.053,0.289,0.069
		C7.704,10.648,7.85,10.666,8,10.666s0.296-0.018,0.438-0.044c0.099-0.017,0.194-0.042,0.289-0.069
		c0.009-0.002,0.018-0.003,0.026-0.006l0.001-0.002c0.878-0.261,1.562-0.954,1.806-1.839C10.561,8.706,10.562,8.705,10.562,8.705z
		 M8,9.273c-0.704,0-1.273-0.57-1.273-1.273c0-0.704,0.57-1.273,1.273-1.273S9.273,7.296,9.273,8C9.273,8.703,8.704,9.273,8,9.273z"
		/>
	<path style="fill:#3D464D;" d="M10.006,11.994L13,13.15l2.994-1.156C15.991,11.444,15.576,11,15.063,11h-4.127
		C10.424,11,10.009,11.444,10.006,11.994z"/>
	<path style="fill:#3D464D;" d="M13,14.396l-3-1.156V15c0,0.553,0.417,1,0.933,1h4.134C15.583,16,16,15.553,16,15v-1.761L13,14.396z
		"/>
	<path style="fill:#3D464D;" d="M8.489,1.122c-0.08-0.007-0.161-0.009-0.241-0.013C8.181,1.107,8.115,1.1,8.047,1.1
		C8.031,1.1,8.016,1.102,8,1.102S7.969,1.1,7.953,1.1c-0.068,0-0.134,0.008-0.201,0.01C7.671,1.113,7.591,1.116,7.511,1.122
		C3.909,1.352,1.076,4.339,1.076,8c0,3.488,2.602,6.365,5.965,6.828c0.007,0.001,0.014,0.002,0.021,0.003
		C7.365,14.872,7.673,14.9,7.988,14.9c0.004,0,0.008-0.001,0.012-0.001S8.008,14.9,8.012,14.9c0.315,0,0.623-0.028,0.927-0.069
		c0.007-0.001,0.014-0.002,0.021-0.003C8.973,14.826,8.986,14.822,9,14.82v-2.778c-0.088,0.017-0.175,0.035-0.264,0.051
		C8.511,12.119,8.195,12.146,8,12.146c-0.233,0-0.67-0.044-0.671-0.041c-1.913-0.238-3.188-1.461-3.931-2.465
		C3.268,9.464,3.153,9.294,3.054,9.138C3.053,9.136,3.052,9.134,3.051,9.132C2.86,8.829,2.732,8.581,2.659,8.429
		c-0.009-0.02-0.018-0.038-0.025-0.055C2.618,8.341,2.605,8.313,2.598,8.298C2.595,8.289,2.587,8.273,2.586,8.27L2.472,8l0.114-0.27
		c0.011-0.027,0.071-0.163,0.175-0.361C3.266,6.406,4.897,3.854,8,3.854s4.734,2.553,5.239,3.516
		c0.104,0.198,0.164,0.334,0.175,0.361L13.528,8l-0.114,0.27c-0.001,0.004-0.009,0.02-0.012,0.028
		c-0.007,0.016-0.02,0.043-0.035,0.076c-0.007,0.017-0.016,0.035-0.025,0.055c-0.074,0.152-0.202,0.401-0.393,0.704
		c-0.001,0.002-0.002,0.003-0.003,0.005c-0.099,0.156-0.213,0.326-0.344,0.503C12.515,9.758,12.419,9.879,12.317,10h2.306
		c0.193-0.634,0.301-1.304,0.301-2C14.924,4.339,12.091,1.352,8.489,1.122z"/>
</g>
</svg>
