<?xml version="1.0" encoding="iso-8859-1"?>
<!-- Generator: Adobe Illustrator 16.0.4, SVG Export Plug-In . SVG Version: 6.00 Build 0)  -->
<!DOCTYPE svg PUBLIC "-//W3C//DTD SVG 1.1//EN" "http://www.w3.org/Graphics/SVG/1.1/DTD/svg11.dtd">
<svg version="1.1" id="artwork" xmlns="http://www.w3.org/2000/svg" xmlns:xlink="http://www.w3.org/1999/xlink" x="0px" y="0px"
	 width="16px" height="16px" viewBox="0 0 16 16" style="enable-background:new 0 0 16 16;" xml:space="preserve">
<g>
	<path style="fill:#3D464D;" d="M10.557,10.403L12,8.963V1c0-0.553-0.448-1-1-1H1C0.448,0,0,0.447,0,1v10c0,0.553,0.448,1,1,1h7v-1
		h3.116l-0.356-0.392L10.557,10.403z M3.129,9.983c-0.614,0-1.113-0.498-1.113-1.113s0.499-1.113,1.113-1.113
		c0.615,0,1.114,0.498,1.114,1.113S3.745,9.983,3.129,9.983z M6.138,10c0-2.281-1.857-4.139-4.138-4.139V4.422
		c3.075,0,5.578,2.502,5.578,5.578H6.138z M9.017,10c0-3.869-3.148-7.018-7.017-7.018V1.543c4.663,0,8.456,3.795,8.456,8.457H9.017z
		"/>
</g>
<polygon style="fill:#3D464D;" points="13.185,9.758 12.532,10.405 14.114,12 9,12 9,13 14.114,13 12.532,14.603 13.185,15.256 
	15.916,12.506 "/>
</svg>
