<?xml version="1.0" encoding="iso-8859-1"?>
<!-- Generator: Adobe Illustrator 16.0.4, SVG Export Plug-In . SVG Version: 6.00 Build 0)  -->
<!DOCTYPE svg PUBLIC "-//W3C//DTD SVG 1.1//EN" "http://www.w3.org/Graphics/SVG/1.1/DTD/svg11.dtd">
<svg version="1.1" id="artwork" xmlns="http://www.w3.org/2000/svg" xmlns:xlink="http://www.w3.org/1999/xlink" x="0px" y="0px"
	 width="16px" height="16px" viewBox="0 0 16 16" style="enable-background:new 0 0 16 16;" xml:space="preserve">
<g>
	<path style="fill:#3D464D;" d="M8,1.1c-3.811,0-6.9,3.09-6.9,6.9s3.089,6.9,6.9,6.9c3.811,0,6.9-3.09,6.9-6.9S11.811,1.1,8,1.1z
		 M12.401,10.97l-0.311,0.349c-0.362,0.363-0.834,0.618-1.244,0.683c-1.013,0.163-2.956-0.433-4.651-2.128
		C6.192,9.869,6.19,9.866,6.188,9.863C6.185,9.861,6.181,9.858,6.179,9.856C4.483,8.161,3.888,6.219,4.05,5.205
		c0.065-0.409,0.321-0.881,0.683-1.244l0.311-0.349c0.2-0.2,0.516-0.206,0.706-0.017l1.379,1.379
		c0.19,0.191,0.184,0.507-0.015,0.707L6.918,5.877l-0.12,0.118L6.644,6.146C6.111,6.68,6.091,7.522,6.598,8.031L7.747,9.18
		l0.231,0.229c0.509,0.507,1.351,0.487,1.884-0.044l0.275-0.271l0.195-0.194c0.199-0.197,0.515-0.205,0.707-0.018l1.379,1.38
		C12.607,10.453,12.6,10.77,12.401,10.97z"/>
</g>
</svg>
