<?xml version="1.0" encoding="iso-8859-1"?>
<!-- Generator: Adobe Illustrator 16.0.4, SVG Export Plug-In . SVG Version: 6.00 Build 0)  -->
<!DOCTYPE svg PUBLIC "-//W3C//DTD SVG 1.1//EN" "http://www.w3.org/Graphics/SVG/1.1/DTD/svg11.dtd">
<svg version="1.1" id="artwork" xmlns="http://www.w3.org/2000/svg" xmlns:xlink="http://www.w3.org/1999/xlink" x="0px" y="0px"
	 width="16px" height="16px" viewBox="0 0 16 16" style="enable-background:new 0 0 16 16;" xml:space="preserve">
<g>
	<path style="fill:#3D464D;" d="M8,9c0-0.553,0.447-1,1-1h6V5c0-0.553-0.447-1-1-1H8.113L6.372,2.447C6.102,2.195,5.82,2,5.508,2H2
		C1.447,2,1,2.447,1,3v10c0,0.553,0.447,1,1,1h6V9z"/>
	<g>
		<path style="fill:#3D464D;" d="M15,9h-5c-0.553,0-1,0.447-1,1v5c0,0.553,0.447,1,1,1h5c0.553,0,1-0.447,1-1v-5
			C16,9.447,15.553,9,15,9z M14.302,13H12v-2.302c0-0.276,0.224-0.5,0.5-0.5s0.5,0.224,0.5,0.5V12h1.302c0.276,0,0.5,0.224,0.5,0.5
			S14.578,13,14.302,13z"/>
	</g>
</g>
</svg>
