<?xml version="1.0" encoding="iso-8859-1"?>
<!-- Generator: Adobe Illustrator 16.0.4, SVG Export Plug-In . SVG Version: 6.00 Build 0)  -->
<!DOCTYPE svg PUBLIC "-//W3C//DTD SVG 1.1//EN" "http://www.w3.org/Graphics/SVG/1.1/DTD/svg11.dtd">
<svg version="1.1" id="artwork" xmlns="http://www.w3.org/2000/svg" xmlns:xlink="http://www.w3.org/1999/xlink" x="0px" y="0px"
	 width="16px" height="16px" viewBox="0 0 16 16" style="enable-background:new 0 0 16 16;" xml:space="preserve">
<g>
	<path style="fill:#3D464D;" d="M8,0.1C3.637,0.1,0.1,3.637,0.1,8s3.537,7.9,7.9,7.9s7.9-3.537,7.9-7.9S12.363,0.1,8,0.1z M8,13.925
		c-3.272,0-5.925-2.651-5.925-5.925c0-3.272,2.652-5.925,5.925-5.925S13.925,4.728,13.925,8C13.925,11.273,11.272,13.925,8,13.925z"
		/>
	<polygon style="fill:#3D464D;" points="9,4 7,4 7,7 4,7 4,9 7,9 7,12 9,12 9,9 12,9 12,7 9,7 	"/>
</g>
</svg>
