<?xml version="1.0" encoding="iso-8859-1"?>
<!-- Generator: Adobe Illustrator 16.0.4, SVG Export Plug-In . SVG Version: 6.00 Build 0)  -->
<!DOCTYPE svg PUBLIC "-//W3C//DTD SVG 1.1//EN" "http://www.w3.org/Graphics/SVG/1.1/DTD/svg11.dtd">
<svg version="1.1" id="artwork" xmlns="http://www.w3.org/2000/svg" xmlns:xlink="http://www.w3.org/1999/xlink" x="0px" y="0px"
	 width="16px" height="16px" viewBox="0 0 16 16" style="enable-background:new 0 0 16 16;" xml:space="preserve">
<g>
	<rect x="6" y="5" style="fill:#3D464D;" width="4" height="5"/>
	<path style="fill:#3D464D;" d="M8.5,11h-1C7.224,11,7,11.224,7,11.5S7.224,12,7.5,12h1C8.776,12,9,11.776,9,11.5S8.776,11,8.5,11z"
		/>
	<path style="fill:#3D464D;" d="M8,1.1c-3.811,0-6.9,3.09-6.9,6.9s3.089,6.9,6.9,6.9c3.811,0,6.9-3.09,6.9-6.9S11.811,1.1,8,1.1z
		 M11,12c0,0.553-0.448,1-1,1H6c-0.552,0-1-0.447-1-1V4c0-0.553,0.448-1,1-1h4c0.552,0,1,0.447,1,1V12z"/>
</g>
</svg>
