<?xml version="1.0" encoding="utf-8"?>
<!-- Generator: Adobe Illustrator 16.0.4, SVG Export Plug-In . SVG Version: 6.00 Build 0)  -->
<!DOCTYPE svg PUBLIC "-//W3C//DTD SVG 1.1//EN" "http://www.w3.org/Graphics/SVG/1.1/DTD/svg11.dtd">
<svg version="1.1" id="artwork" xmlns="http://www.w3.org/2000/svg" xmlns:xlink="http://www.w3.org/1999/xlink" x="0px" y="0px"
	 width="16px" height="16px" viewBox="0 0 16 16" enable-background="new 0 0 16 16" xml:space="preserve">
<path d="M15.835,7.608c-0.055-0.131-0.847-1.95-2.526-3.481l1.398-1.398c0.195-0.195,0.195-0.512,0-0.707
	c-0.194-0.195-0.512-0.195-0.707,0L1.98,14.042c-0.195,0.195-0.195,0.513,0,0.708c0.194,0.194,0.512,0.194,0.707,0l1.676-1.678
	C5.375,13.624,6.578,14,8,14c5.413,0,7.739-5.38,7.835-5.608L16,8L15.835,7.608z M8,12c-0.799,0-1.509-0.164-2.14-0.424l0.929-0.929
	C7.158,10.818,7.566,10.921,8,10.921c1.613,0,2.921-1.309,2.921-2.921c0-0.434-0.103-0.842-0.273-1.211l1.255-1.255
	c1,0.878,1.631,1.912,1.922,2.466C13.254,9.084,11.403,12,8,12z"/>
<g>
	<path d="M2.175,8C2.744,6.917,4.592,4,8,4c0.639,0,1.221,0.106,1.751,0.281l1.533-1.533C10.349,2.296,9.261,2,8,2
		C2.581,2,0.261,7.38,0.164,7.609L0,8l0.164,0.391c0.053,0.124,0.76,1.754,2.253,3.225l1.405-1.404C2.98,9.395,2.438,8.502,2.175,8z
		"/>
	<path d="M5.079,8c0,0.288,0.048,0.562,0.128,0.824l3.617-3.616C8.562,5.129,8.288,5.08,8,5.08
		C6.387,5.08,5.079,6.387,5.079,8z"/>
</g>
</svg>
