<?xml version="1.0" encoding="iso-8859-1"?>
<!-- Generator: Adobe Illustrator 16.0.4, SVG Export Plug-In . SVG Version: 6.00 Build 0)  -->
<!DOCTYPE svg PUBLIC "-//W3C//DTD SVG 1.1//EN" "http://www.w3.org/Graphics/SVG/1.1/DTD/svg11.dtd">
<svg version="1.1" id="artwork" xmlns="http://www.w3.org/2000/svg" xmlns:xlink="http://www.w3.org/1999/xlink" x="0px" y="0px"
	 width="16px" height="16px" viewBox="0 0 16 16" style="enable-background:new 0 0 16 16;" xml:space="preserve">
<g>
	<path style="fill:#3D464D;" d="M8,1.1c-3.811,0-6.9,3.09-6.9,6.9s3.09,6.9,6.9,6.9s6.9-3.09,6.9-6.9S11.811,1.1,8,1.1z M12.5,10
		c0,0.553-0.49,1-1.043,1H4.5c-0.553,0-1.025-0.447-1.025-1V7.245l4.55,1.505L12.5,7.245V10z M12.5,6.179l-4.491,1.5l-4.534-1.5V6
		c0-0.553,0.473-1,1.025-1h6.957C12.01,5,12.5,5.447,12.5,6V6.179z"/>
</g>
</svg>
