<?xml version="1.0" encoding="iso-8859-1"?>
<!-- Generator: Adobe Illustrator 16.0.4, SVG Export Plug-In . SVG Version: 6.00 Build 0)  -->
<!DOCTYPE svg PUBLIC "-//W3C//DTD SVG 1.1//EN" "http://www.w3.org/Graphics/SVG/1.1/DTD/svg11.dtd">
<svg version="1.1" id="artwork" xmlns="http://www.w3.org/2000/svg" xmlns:xlink="http://www.w3.org/1999/xlink" x="0px" y="0px"
	 width="16px" height="16px" viewBox="0 0 16 16" style="enable-background:new 0 0 16 16;" xml:space="preserve">
<g>
	<path style="fill:#3D464D;" d="M8,1.1c-3.811,0-6.9,3.09-6.9,6.9s3.09,6.9,6.9,6.9s6.9-3.09,6.9-6.9S11.811,1.1,8,1.1z M8,11
		c-0.386,0-0.752-0.054-1.104-0.131C5.711,11.992,4,12,4,12c0.978-0.488,1.236-1.215,1.248-1.832C4.482,9.622,4,8.855,4,8
		c0-1.656,1.791-3,4-3s4,1.344,4,3S10.209,11,8,11z"/>
</g>
</svg>
