<?xml version="1.0" encoding="iso-8859-1"?>
<!-- Generator: Adobe Illustrator 16.0.4, SVG Export Plug-In . SVG Version: 6.00 Build 0)  -->
<!DOCTYPE svg PUBLIC "-//W3C//DTD SVG 1.1//EN" "http://www.w3.org/Graphics/SVG/1.1/DTD/svg11.dtd">
<svg version="1.1" id="artwork" xmlns="http://www.w3.org/2000/svg" xmlns:xlink="http://www.w3.org/1999/xlink" x="0px" y="0px"
	 width="16px" height="16px" viewBox="0 0 16 16" style="enable-background:new 0 0 16 16;" xml:space="preserve">
<path style="fill:#3D464D;" d="M9.984,9.978V9.98V9H12V1c0-0.553-0.447-1-1-1H1C0.447,0,0,0.447,0,1v10c0,0.553,0.447,1,1,1h8.731
	L9.984,9.978z M4.364,10.028c-1.101,0-2.124-0.326-2.987-0.887C1.529,9.161,1.685,9.17,1.842,9.17c0.914,0,1.753-0.315,2.42-0.843
	C3.409,8.31,2.689,7.739,2.441,6.955c0.119,0.024,0.241,0.036,0.367,0.036c0.178,0,0.349-0.024,0.513-0.068
	C2.431,6.741,1.759,5.944,1.759,4.989c0-0.01,0-0.018,0.001-0.025C2.021,5.111,2.322,5.2,2.642,5.211
	C2.119,4.856,1.775,4.253,1.775,3.568c0-0.361,0.096-0.7,0.264-0.991c0.96,1.193,2.396,1.979,4.015,2.061
	c-0.033-0.145-0.05-0.295-0.05-0.449c0-1.09,0.872-1.973,1.947-1.973c0.561,0,1.066,0.239,1.422,0.623
	c0.444-0.089,0.861-0.253,1.238-0.479c-0.146,0.46-0.455,0.847-0.857,1.091c0.395-0.048,0.77-0.154,1.119-0.311
	C10.611,3.536,10.281,3.884,9.9,4.162c0.004,0.083,0.006,0.169,0.006,0.255C9.906,7.022,7.947,10.028,4.364,10.028z"/>
<polygon style="fill:#3D464D;" points="16,16 15.561,13 15.25,13 15,11 15,10 14,10 14,11 13,11 12,11 12,10 11,10 11,11 10.75,13 
	10.439,13 10,16 12.5,16 11.98,13 13,13 14.02,13 13.5,16 "/>
</svg>
