<?xml version="1.0" encoding="iso-8859-1"?>
<!-- Generator: Adobe Illustrator 16.0.4, SVG Export Plug-In . SVG Version: 6.00 Build 0)  -->
<!DOCTYPE svg PUBLIC "-//W3C//DTD SVG 1.1//EN" "http://www.w3.org/Graphics/SVG/1.1/DTD/svg11.dtd">
<svg version="1.1" id="artwork" xmlns="http://www.w3.org/2000/svg" xmlns:xlink="http://www.w3.org/1999/xlink" x="0px" y="0px"
	 width="16px" height="16px" viewBox="0 0 16 16" style="enable-background:new 0 0 16 16;" xml:space="preserve">
<g>
	<path style="fill:#3E464D;" d="M9,13v-0.98c-0.092,0.022-0.201,0.049-0.331,0.078C8.454,12.127,8.233,12.146,8,12.146
		c-3.744,0-5.348-3.718-5.414-3.877L2.472,8l0.114-0.27C2.652,7.571,4.256,3.854,8,3.854c3.74,0,5.348,3.718,5.414,3.876L13.528,8
		l-0.114,0.271C13.396,8.312,13.27,8.601,13.029,9h1.796c0.048-0.326,0.074-0.66,0.074-1c0-2.605-1.445-4.871-3.577-6.045
		c-0.009-0.005-0.016-0.012-0.024-0.017c-0.282-0.154-0.577-0.286-0.881-0.4c-0.028-0.011-0.057-0.021-0.085-0.03
		c-0.148-0.054-0.344-0.102-0.496-0.145C9.822,1.359,9.75,1.354,9.75,1.354V1.352C9.25,1.189,8.592,1.1,7.953,1.1
		c-3.811,0-6.877,3.09-6.877,6.9s3.102,6.9,6.912,6.9c0.647,0,1.271-0.096,1.866-0.264C9.338,14.274,9,13.677,9,13z"/>
	<path style="fill:#3E464D;" d="M5.333,8c0,1.473,1.194,2.666,2.667,2.666c0.264,0,0.515-0.045,0.753-0.119
		c0.113-0.025,0.218-0.047,0.317-0.068c0.181-0.676,0.716-1.207,1.381-1.4c0.028-0.115,0.063-0.237,0.11-0.373
		C10.627,8.48,10.667,8.246,10.667,8c0-1.473-1.194-2.666-2.667-2.666S5.333,6.527,5.333,8z M9.273,8
		c0,0.703-0.57,1.273-1.273,1.273S6.727,8.703,6.727,8c0-0.704,0.57-1.273,1.273-1.273S9.273,7.296,9.273,8z"/>
	<path style="fill:#3E464D;" d="M15,10h-4c-0.501,0-0.916,0.369-0.988,0.85C10.004,10.898,10,10.949,10,11v2c0,0.553,0.447,1,1,1h1
		v1.5l1.5-1.5H15c0.553,0,1-0.447,1-1v-2C16,10.447,15.553,10,15,10z"/>
</g>
</svg>
