<?xml version="1.0" encoding="iso-8859-1"?>
<!-- Generator: Adobe Illustrator 16.0.4, SVG Export Plug-In . SVG Version: 6.00 Build 0)  -->
<!DOCTYPE svg PUBLIC "-//W3C//DTD SVG 1.1//EN" "http://www.w3.org/Graphics/SVG/1.1/DTD/svg11.dtd">
<svg version="1.1" id="artwork" xmlns="http://www.w3.org/2000/svg" xmlns:xlink="http://www.w3.org/1999/xlink" x="0px" y="0px"
	 width="16px" height="16px" viewBox="0 0 16 16" style="enable-background:new 0 0 16 16;" xml:space="preserve">
<g>
	<g>
		<path style="fill:#3D464D;" d="M13.722,4.143c-0.633,0.088-1.534,0.586-2.058,1.017l1.165,1.123l0.198,0.191L8.474,7.632L9.526,3
			l0.177,0.184l1.093,1.137l0.009,0.005c0.532-0.464,1.435-1.013,2.078-1.199C11.635,1.874,9.908,1.1,8,1.1
			c-3.811,0-6.9,3.09-6.9,6.9s3.089,6.9,6.9,6.9c0.952,0,1.858-0.193,2.683-0.541l0.005-0.287c0.016,0.102,0.038,0.183,0.063,0.254
			C13.192,13.264,14.9,10.832,14.9,8C14.9,6.571,14.465,5.244,13.722,4.143z M12.401,10.97l-0.311,0.349
			c-0.362,0.363-0.834,0.618-1.244,0.683c-1.013,0.163-2.956-0.433-4.651-2.128C6.192,9.869,6.19,9.866,6.188,9.863
			C6.185,9.861,6.181,9.858,6.179,9.856C4.483,8.161,3.888,6.219,4.05,5.205c0.065-0.409,0.321-0.881,0.683-1.244l0.311-0.349
			c0.2-0.2,0.516-0.206,0.706-0.017l1.379,1.379c0.19,0.191,0.184,0.507-0.015,0.707L6.918,5.877l-0.12,0.118L6.644,6.146
			C6.111,6.68,6.091,7.522,6.598,8.031L7.747,9.18l0.231,0.229c0.509,0.507,1.351,0.487,1.884-0.044l0.275-0.271l0.195-0.194
			c0.199-0.197,0.515-0.205,0.707-0.018l1.379,1.38C12.607,10.453,12.6,10.77,12.401,10.97z"/>
	</g>
	<path style="fill:#3D464D;" d="M10.688,14.072l-0.005,0.287c0.023-0.01,0.045-0.022,0.068-0.033
		C10.726,14.255,10.704,14.174,10.688,14.072z"/>
</g>
</svg>
