<?xml version="1.0" encoding="utf-8"?>
<!-- Generator: Adobe Illustrator 16.0.4, SVG Export Plug-In . SVG Version: 6.00 Build 0)  -->
<!DOCTYPE svg PUBLIC "-//W3C//DTD SVG 1.1//EN" "http://www.w3.org/Graphics/SVG/1.1/DTD/svg11.dtd">
<svg version="1.1" id="artwork" xmlns="http://www.w3.org/2000/svg" xmlns:xlink="http://www.w3.org/1999/xlink" x="0px" y="0px"
	 width="16px" height="16px" viewBox="0 0 16 16" enable-background="new 0 0 16 16" xml:space="preserve">
<circle cx="8" cy="8" r="2.921"/>
<g>
	<path d="M15.835,7.608C15.739,7.38,13.413,2,8,2C2.581,2,0.261,7.38,0.164,7.609L0,8l0.164,0.391
		C0.261,8.62,2.581,14,8,14c0.453,0,0.877-0.049,1.287-0.119l-1.916-1.915C4.363,11.638,2.707,9.013,2.175,8
		C2.744,6.917,4.592,4,8,4c2.023,0,3.494,1.031,4.477,2.094c0.027,0.029,0.056,0.06,0.082,0.089C13.185,6.88,13.604,7.579,13.824,8
		c-0.08,0.151-0.188,0.342-0.318,0.552l0.826,2.065h0.141c0.885-1.129,1.322-2.13,1.362-2.226L16,8L15.835,7.608z"/>
	<polygon points="13.385,12.018 12.5,9.806 11.615,12.018 9.402,12.018 11.172,13.787 10.287,16 12.5,14.673 
		14.713,16 13.887,13.782 15.598,12.018 	"/>
</g>
</svg>
