<?xml version="1.0" encoding="utf-8"?>
<!-- Generator: Adobe Illustrator 16.0.4, SVG Export Plug-In . SVG Version: 6.00 Build 0)  -->
<!DOCTYPE svg PUBLIC "-//W3C//DTD SVG 1.1//EN" "http://www.w3.org/Graphics/SVG/1.1/DTD/svg11.dtd">
<svg version="1.1" id="artwork" xmlns="http://www.w3.org/2000/svg" xmlns:xlink="http://www.w3.org/1999/xlink" x="0px" y="0px"
	 width="16px" height="16px" viewBox="0 0 16 16" enable-background="new 0 0 16 16" xml:space="preserve">
<g>
	<path fill="#3D464D" d="M15.835,7.608C15.739,7.38,13.413,2,8,2C2.581,2,0.261,7.38,0.165,7.609L0,8l0.165,0.391
		C0.261,8.62,2.581,14,8,14c0.424,0,0.828-0.036,1.215-0.098c-0.303-0.571-0.505-1.16-0.578-1.707
		c-0.012-0.09-0.014-0.165-0.014-0.229C8.422,11.988,8.214,12,8,12c-3.409,0-5.257-2.919-5.825-4C2.744,6.917,4.592,4,8,4
		c3.404,0,5.256,2.918,5.824,4c-0.225,0.428-0.65,1.14-1.29,1.846l0.506,0.506c0.358,0.359,0.522,0.84,0.496,1.312
		c1.525-1.483,2.247-3.147,2.299-3.272L16,8L15.835,7.608z"/>
	<path fill="#3D464D" d="M10.921,8c0-1.613-1.308-2.92-2.921-2.92C6.387,5.08,5.079,6.387,5.079,8c0,1.612,1.308,2.921,2.921,2.921
		c0.261,0,0.513-0.038,0.753-0.102c0.142-0.397,0.381-0.783,0.693-1.104l0.208-0.234l0.029-0.029
		c0.293-0.293,0.671-0.469,1.077-0.505C10.863,8.65,10.921,8.332,10.921,8z"/>
	<path fill="#3D464D" d="M14.633,13.923c-0.062-0.061-0.142-0.091-0.224-0.091c-0.087,0-0.176,0.035-0.243,0.102l-0.128,0.129
		l-0.182,0.18c-0.182,0.181-0.417,0.271-0.649,0.271c-0.218,0-0.433-0.08-0.596-0.242l-0.152-0.152l-0.33-0.329l-0.429-0.429
		c-0.011-0.012-0.015-0.027-0.025-0.039c-0.302-0.339-0.285-0.866,0.055-1.207l0.103-0.1l0.079-0.078l0.129-0.129
		c0.131-0.132,0.135-0.341,0.01-0.467l-0.387-0.388l-0.008-0.007l-0.516-0.517c-0.061-0.061-0.141-0.091-0.223-0.091
		c-0.087,0-0.175,0.034-0.243,0.102l-0.205,0.231c-0.24,0.239-0.408,0.551-0.451,0.821c-0.018,0.111-0.006,0.255,0.006,0.398
		c0.003,0.042-0.004,0.073,0.001,0.117c0.066,0.493,0.301,1.117,0.735,1.748c0.138,0.201,0.294,0.402,0.474,0.601
		c0.063,0.069,0.12,0.14,0.188,0.208c0.001,0.002,0.004,0.004,0.006,0.004c0.002,0.002,0.003,0.005,0.005,0.006
		C12.437,15.58,13.57,16,14.276,16c0.083,0,0.16-0.006,0.23-0.018c0.27-0.042,0.582-0.211,0.821-0.449l0.206-0.232
		c0.131-0.131,0.136-0.341,0.01-0.467L14.633,13.923z"/>
</g>
</svg>
