<?xml version="1.0" encoding="iso-8859-1"?>
<!-- Generator: Adobe Illustrator 16.0.4, SVG Export Plug-In . SVG Version: 6.00 Build 0)  -->
<!DOCTYPE svg PUBLIC "-//W3C//DTD SVG 1.1//EN" "http://www.w3.org/Graphics/SVG/1.1/DTD/svg11.dtd">
<svg version="1.1" id="artwork" xmlns="http://www.w3.org/2000/svg" xmlns:xlink="http://www.w3.org/1999/xlink" x="0px" y="0px"
	 width="16px" height="16px" viewBox="0 0 16 16" style="enable-background:new 0 0 16 16;" xml:space="preserve">
<g>
	<polygon style="fill:#3D464D;" points="15.301,10.351 14.649,9.699 12.5,11.849 10.352,9.699 9.699,10.351 11.85,12.5 9.7,14.649 
		10.352,15.301 12.5,13.151 14.649,15.301 15.301,14.649 13.151,12.5 	"/>
	<g>
		<path style="fill:#3D464D;" d="M11,0H1C0.448,0,0,0.447,0,1v9.636v0.001V11c0,0.553,0.448,1,1,1h4V8H3.5V6H5V5.312V4.816V4.734
			c0-0.479,0.07-1.466,0.423-1.924C5.795,2.328,6.326,2,7.205,2c1.432,0,2.046,0.201,2.046,0.201L8.972,3.854
			c0,0-0.585-0.135-1.027-0.135C7.504,3.719,7,3.873,7,4.308v0.427V6h2.035L8.908,8H7v4h2.369L7.7,10.379l2.665-2.58L12,9.479V1
			C12,0.447,11.552,0,11,0z"/>
	</g>
</g>
</svg>
