<?xml version="1.0" encoding="utf-8"?>
<!-- Generator: Adobe Illustrator 16.0.4, SVG Export Plug-In . SVG Version: 6.00 Build 0)  -->
<!DOCTYPE svg PUBLIC "-//W3C//DTD SVG 1.1//EN" "http://www.w3.org/Graphics/SVG/1.1/DTD/svg11.dtd">
<svg version="1.1" id="artwork" xmlns="http://www.w3.org/2000/svg" xmlns:xlink="http://www.w3.org/1999/xlink" x="0px" y="0px"
	 width="16px" height="16px" viewBox="0 0 16 16" enable-background="new 0 0 16 16" xml:space="preserve">
<g>
	<path fill="#3D464D" d="M14,2H2C1.448,2,1,2.447,1,3v4.568c0,1.39,0.387,1.475,0.602,1.447c0.109,0,0.235-0.1,0.334-0.353
		c0.134-0.345,0.262-0.856,0.375-1.349l0.007-0.02c0.289-1.461,0.591-2.2,1.421-2.2c0.503,0,1.119,0.254,1.421,2.103
		c0.002,0.006,0.029,0.178,0.029,0.178s0.194,1.23,0.324,1.666c0.15,0.504,0.219,0.648,0.333,0.645c0.126,0,0.184-0.165,0.339-0.693
		c0.154-0.523,0.265-1.226,0.375-1.961c0.266-1.896,0.523-3.232,1.429-3.232c0.004,0,0.009,0,0.013,0s0.008,0,0.013,0
		c0.905,0,1.163,1.336,1.429,3.232c0.109,0.735,0.22,1.438,0.375,1.961c0.156,0.528,0.213,0.693,0.339,0.693
		c0.113,0.004,0.183-0.141,0.333-0.645c0.129-0.436,0.324-1.666,0.324-1.666s0.026-0.172,0.029-0.178
		c0.302-1.849,0.918-2.103,1.421-2.103c0.83,0,1.132,0.739,1.421,2.2l0.007,0.02c0.113,0.492,0.241,1.004,0.375,1.349
		c0.099,0.253,0.225,0.353,0.334,0.353C14.588,9.04,14.913,8.977,14.985,8C14.995,7.872,15,7.729,15,7.568V6.999V3
		C15,2.447,14.552,2,14,2z"/>
	<path fill="#3D464D" d="M12.981,8.387l-0.004-0.015c-0.098-0.494-0.223-0.999-0.347-1.382c-0.155-0.479-0.368-0.426-0.366-0.426
		c-0.005,0-0.449-0.165-0.718,1.754l-0.015,0.109c-0.299,2.75-0.848,2.902-1.381,2.902c-0.878,0-1.133-1.263-1.42-3.192
		C8.729,8.133,8.729,8.125,8.728,8.112C8.633,7.439,8.534,6.616,8.37,6.062C8.216,5.539,8.159,5.416,8.012,5.416
		C8.008,5.416,8.004,5.418,8,5.418S7.992,5.416,7.988,5.416c-0.147,0-0.204,0.123-0.358,0.646C7.466,6.616,7.367,7.439,7.272,8.112
		C7.271,8.125,7.271,8.133,7.27,8.138c-0.287,1.93-0.542,3.192-1.42,3.192c-0.533,0-1.082-0.152-1.381-2.902L4.454,8.318
		C4.185,6.399,3.741,6.564,3.736,6.564c0.001,0-0.211-0.053-0.366,0.426C3.246,7.373,3.121,7.878,3.023,8.372L3.019,8.387
		c-0.289,1.256-0.544,2.076-1.418,2.076C1.368,10.463,1.17,10.4,1,10.27V12v1c0,0.553,0.448,1,1,1h12c0.552,0,1-0.447,1-1v-1v-1.73
		c-0.17,0.131-0.368,0.193-0.601,0.193C13.526,10.463,13.27,9.643,12.981,8.387z"/>
</g>
</svg>
