<?xml version="1.0" encoding="utf-8"?>
<!-- Generator: Adobe Illustrator 16.0.4, SVG Export Plug-In . SVG Version: 6.00 Build 0)  -->
<!DOCTYPE svg PUBLIC "-//W3C//DTD SVG 1.1//EN" "http://www.w3.org/Graphics/SVG/1.1/DTD/svg11.dtd">
<svg version="1.1" id="artwork" xmlns="http://www.w3.org/2000/svg" xmlns:xlink="http://www.w3.org/1999/xlink" x="0px" y="0px"
	 width="16px" height="16px" viewBox="0 0 16 16" enable-background="new 0 0 16 16" xml:space="preserve">
<g>
	<path fill="#3D464D" d="M9.054,13.444C9.021,13.301,9,13.153,9,13v-1.089C8.683,11.968,8.35,12,8,12c-3.408,0-5.258-2.919-5.825-4
		C2.744,6.917,4.592,4,8,4c3.404,0,5.256,2.918,5.824,4c-0.134,0.254-0.338,0.592-0.614,0.984H15c0.164,0,0.321,0.041,0.474,0.078
		c0.009,0.002,0.019,0.002,0.026,0.004c0.205-0.375,0.315-0.629,0.335-0.675L16,8l-0.165-0.392C15.739,7.38,13.413,2,8,2
		C2.581,2,0.261,7.38,0.165,7.609L0,8l0.165,0.391C0.261,8.62,2.581,14,8,14c0.426,0,0.83-0.037,1.217-0.098
		c-0.007-0.015-0.01-0.031-0.017-0.046c-0.046-0.097-0.082-0.198-0.112-0.303C9.077,13.517,9.062,13.482,9.054,13.444z"/>
	<path fill="#3D464D" d="M10.921,8c0-1.613-1.308-2.92-2.921-2.92S5.079,6.387,5.079,8c0,1.612,1.308,2.921,2.921,2.921
		c0.359,0,0.702-0.068,1.021-0.188c0.001-0.014,0.001-0.028,0.003-0.042c0.03-0.204,0.099-0.395,0.188-0.572
		c0.01-0.02,0.017-0.039,0.026-0.057c0.09-0.168,0.206-0.318,0.338-0.453c0.02-0.019,0.036-0.037,0.055-0.056
		c0.138-0.129,0.292-0.237,0.46-0.324c0.022-0.012,0.044-0.022,0.067-0.032c0.173-0.082,0.357-0.142,0.552-0.17
		c0.009-0.002,0.016-0.007,0.024-0.008C10.853,8.702,10.921,8.359,10.921,8z"/>
</g>
<path fill="#3E464D" d="M15,10h-4c-0.501,0-0.916,0.369-0.988,0.85C10.004,10.898,10,10.949,10,11v2c0,0.553,0.447,1,1,1h1v1.5
	l1.5-1.5H15c0.553,0,1-0.447,1-1v-2C16,10.447,15.553,10,15,10z"/>
</svg>
