<?xml version="1.0" encoding="iso-8859-1"?>
<!-- Generator: Adobe Illustrator 16.0.4, SVG Export Plug-In . SVG Version: 6.00 Build 0)  -->
<!DOCTYPE svg PUBLIC "-//W3C//DTD SVG 1.1//EN" "http://www.w3.org/Graphics/SVG/1.1/DTD/svg11.dtd">
<svg version="1.1" id="artwork" xmlns="http://www.w3.org/2000/svg" xmlns:xlink="http://www.w3.org/1999/xlink" x="0px" y="0px"
	 width="16px" height="16px" viewBox="0 0 16 16" style="enable-background:new 0 0 16 16;" xml:space="preserve">
<g>
	<path style="fill:#3D464D;" d="M14.9,8c0-3.811-3.089-6.9-6.9-6.9c-3.811,0-6.9,3.09-6.9,6.9s3.089,6.9,6.9,6.9V11H6V9h2V7.344
		c0-1.808,1.082-2.877,2.695-2.877c0.772,0,1.452,0.058,1.567,0.083v1.979h-1.216C10.169,6.529,10,6.946,10,7.559v0.408V9h2.111
		l-0.272,2H10v3.604C12.835,13.746,14.9,11.114,14.9,8z"/>
</g>
</svg>
