<?xml version="1.0" encoding="iso-8859-1"?>
<!-- Generator: Adobe Illustrator 16.0.4, SVG Export Plug-In . SVG Version: 6.00 Build 0)  -->
<!DOCTYPE svg PUBLIC "-//W3C//DTD SVG 1.1//EN" "http://www.w3.org/Graphics/SVG/1.1/DTD/svg11.dtd">
<svg version="1.1" id="artwork" xmlns="http://www.w3.org/2000/svg" xmlns:xlink="http://www.w3.org/1999/xlink" x="0px" y="0px"
	 width="16px" height="16px" viewBox="0 0 16 16" style="enable-background:new 0 0 16 16;" xml:space="preserve">
<g>
	<path style="fill:#3D464D;" d="M8,1.1c-3.811,0-6.9,3.09-6.9,6.9s3.089,6.9,6.9,6.9c3.811,0,6.9-3.09,6.9-6.9S11.811,1.1,8,1.1z
		 M11.773,6.364c0.003,0.08,0.005,0.16,0.005,0.241c0,2.459-1.849,5.295-5.229,5.295c-1.039,0-2.004-0.309-2.818-0.836
		c0.144,0.018,0.29,0.025,0.438,0.025c0.861,0,1.654-0.297,2.283-0.796C5.647,10.278,4.969,9.74,4.735,9
		c0.113,0.023,0.228,0.033,0.346,0.033c0.167,0,0.33-0.021,0.483-0.064c-0.84-0.17-1.474-0.922-1.474-1.824c0,0,0-0.017,0-0.023
		c0.247,0.14,0.53,0.223,0.832,0.233C4.43,7.02,4.105,6.45,4.105,5.805c0-0.342,0.091-0.661,0.249-0.936
		c0.907,1.126,2.262,1.866,3.789,1.945C8.111,6.677,8.096,6.535,8.096,6.389c0-1.027,0.823-1.86,1.838-1.86
		c0.528,0,1.006,0.227,1.342,0.588c0.418-0.084,0.812-0.239,1.167-0.452c-0.137,0.435-0.429,0.799-0.808,1.03
		c0.371-0.045,0.726-0.146,1.055-0.293C12.443,5.773,12.132,6.102,11.773,6.364z"/>
</g>
</svg>
