<?xml version="1.0" encoding="iso-8859-1"?>
<!-- Generator: Adobe Illustrator 16.0.4, SVG Export Plug-In . SVG Version: 6.00 Build 0)  -->
<!DOCTYPE svg PUBLIC "-//W3C//DTD SVG 1.1//EN" "http://www.w3.org/Graphics/SVG/1.1/DTD/svg11.dtd">
<svg version="1.1" id="artwork" xmlns="http://www.w3.org/2000/svg" xmlns:xlink="http://www.w3.org/1999/xlink" x="0px" y="0px"
	 width="16px" height="16px" viewBox="0 0 16 16" style="enable-background:new 0 0 16 16;" xml:space="preserve">
<g>
	<g>
		<path style="fill:#3D464D;" d="M14,1H2C1.448,1,1,1.447,1,2v12c0,0.553,0.448,1,1,1h12c0.552,0,1-0.447,1-1V2
			C15,1.447,14.552,1,14,1z M13.414,8.271C13.348,8.429,11.74,12.146,8,12.146c-3.744,0-5.348-3.718-5.414-3.877L2.472,8l0.114-0.27
			C2.652,7.571,4.256,3.854,8,3.854c3.74,0,5.348,3.718,5.414,3.876L13.528,8L13.414,8.271z"/>
		<path style="fill:#3D464D;" d="M8,5.334C6.527,5.334,5.333,6.527,5.333,8S6.527,10.666,8,10.666S10.667,9.473,10.667,8
			S9.473,5.334,8,5.334z M8,9.273c-0.704,0-1.273-0.57-1.273-1.273c0-0.704,0.57-1.273,1.273-1.273S9.273,7.296,9.273,8
			C9.273,8.703,8.704,9.273,8,9.273z"/>
	</g>
</g>
</svg>
