<?xml version="1.0" encoding="iso-8859-1"?>
<!-- Generator: Adobe Illustrator 16.0.4, SVG Export Plug-In . SVG Version: 6.00 Build 0)  -->
<!DOCTYPE svg PUBLIC "-//W3C//DTD SVG 1.1//EN" "http://www.w3.org/Graphics/SVG/1.1/DTD/svg11.dtd">
<svg version="1.1" id="artwork" xmlns="http://www.w3.org/2000/svg" xmlns:xlink="http://www.w3.org/1999/xlink" x="0px" y="0px"
	 width="16px" height="16px" viewBox="0 0 16 16" style="enable-background:new 0 0 16 16;" xml:space="preserve">
<g>
	<polygon style="fill:#3D464D;" points="7,8.125 11,10.109 11,7.75 11,5.391 7,7.38 	"/>
	<path style="fill:#3D464D;" d="M8,1.1c-3.811,0-6.9,3.09-6.9,6.9s3.089,6.9,6.9,6.9s6.9-3.09,6.9-6.9S11.811,1.1,8,1.1z M12,8.554
		v2.5c0,0.196-0.12,0.423-0.298,0.504c-0.179,0.081-0.394,0.101-0.542-0.028C11.133,11.506,7.238,9.5,7.238,9.5H6.017l0.357,1.25
		h0.363c0.276,0,0.5,0.224,0.5,0.5s-0.224,0.5-0.5,0.5h-0.75h-1.5L3.851,9.5H3.488L2.5,8.554v-1.5L3.488,6h3.75
		c0,0,3.898-1.953,3.926-1.977c0.147-0.127,0.36-0.006,0.539,0.075C11.88,4.18,12,4.357,12,4.554v2.5l1,0.5v0.5L12,8.554z"/>
</g>
</svg>
