<?xml version="1.0" encoding="utf-8"?>
<!-- Generator: Adobe Illustrator 16.0.4, SVG Export Plug-In . SVG Version: 6.00 Build 0)  -->
<!DOCTYPE svg PUBLIC "-//W3C//DTD SVG 1.1//EN" "http://www.w3.org/Graphics/SVG/1.1/DTD/svg11.dtd">
<svg version="1.1" id="artwork" xmlns="http://www.w3.org/2000/svg" xmlns:xlink="http://www.w3.org/1999/xlink" x="0px" y="0px"
	 width="16px" height="16px" viewBox="0 0 16 16" enable-background="new 0 0 16 16" xml:space="preserve">
<g>
	<path fill="#3D464D" d="M15.812,1.005C15.619,0.812,15.307,0.812,15.111,1c-0.002,0.002-0.004,0.003-0.006,0.005l-1.014,1.014
		L9.395,6.716L8.638,7.473L7.136,8.975l-2.01,2.011L2.111,14l-0.703,0.703l-0.006,0.006c-0.195,0.195-0.195,0.512,0,0.707
		c0.195,0.195,0.512,0.195,0.707,0L3.524,14H14c0.552,0,1-0.447,1-1v-1v-1.73c-0.17,0.131-0.368,0.193-0.601,0.193
		c-0.874,0-1.129-0.82-1.418-2.076l-0.004-0.015c-0.098-0.494-0.223-0.999-0.347-1.382c-0.155-0.479-0.368-0.426-0.366-0.426
		c-0.005,0-0.449-0.165-0.718,1.754l-0.015,0.109c-0.299,2.75-0.848,2.902-1.381,2.902c-0.789,0-1.074-1.022-1.332-2.626
		l0.768-0.768c0.068,0.392,0.141,0.755,0.23,1.056c0.156,0.528,0.213,0.693,0.339,0.693c0.113,0.004,0.183-0.141,0.333-0.645
		c0.129-0.436,0.324-1.666,0.324-1.666s0.026-0.172,0.029-0.178c0.04-0.246,0.086-0.46,0.137-0.652l1.432-1.433
		c0.715,0.089,1.003,0.815,1.273,2.183l0.007,0.02c0.113,0.492,0.241,1.004,0.375,1.349c0.099,0.253,0.225,0.353,0.334,0.353
		C14.588,9.04,14.913,8.977,14.985,8C14.995,7.872,15,7.729,15,7.568V6.999V3c0-0.141-0.03-0.274-0.083-0.396l0.892-0.893
		C16.004,1.518,16.008,1.2,15.812,1.005z"/>
	<path fill="#3D464D" d="M1.602,9.016c0.109,0,0.235-0.1,0.334-0.353c0.134-0.345,0.262-0.856,0.375-1.349l0.007-0.02
		c0.289-1.461,0.591-2.2,1.421-2.2c0.503,0,1.119,0.254,1.421,2.103c0.002,0.006,0.029,0.178,0.029,0.178S5.313,8.163,5.43,8.701
		l1.029-1.028c0.034-0.209,0.067-0.423,0.1-0.642c0.266-1.896,0.523-3.232,1.429-3.232c0.004,0,0.009,0,0.013,0s0.008,0,0.013,0
		c0.538,0,0.844,0.479,1.062,1.259L12.135,2H2C1.448,2,1,2.447,1,3v4.568C1,8.958,1.387,9.043,1.602,9.016z"/>
	<path fill="#3D464D" d="M8,5.418c-0.004,0-0.008-0.002-0.012-0.002c-0.147,0-0.204,0.123-0.358,0.646
		C7.58,6.23,7.538,6.428,7.498,6.634l0.801-0.8c-0.103-0.32-0.166-0.418-0.287-0.418C8.008,5.416,8.004,5.418,8,5.418z"/>
	<path fill="#3D464D" d="M4.469,8.428L4.454,8.318C4.185,6.399,3.741,6.564,3.736,6.564c0.001,0-0.211-0.053-0.366,0.426
		C3.246,7.373,3.121,7.878,3.023,8.372L3.019,8.387c-0.289,1.256-0.544,2.076-1.418,2.076C1.368,10.463,1.17,10.4,1,10.27V12v1
		c0,0.038,0.018,0.069,0.021,0.106l3.601-3.599C4.566,9.2,4.514,8.848,4.469,8.428z"/>
</g>
</svg>
