<?xml version="1.0" encoding="iso-8859-1"?>
<!-- Generator: Adobe Illustrator 16.0.4, SVG Export Plug-In . SVG Version: 6.00 Build 0)  -->
<!DOCTYPE svg PUBLIC "-//W3C//DTD SVG 1.1//EN" "http://www.w3.org/Graphics/SVG/1.1/DTD/svg11.dtd">
<svg version="1.1" id="artwork" xmlns="http://www.w3.org/2000/svg" xmlns:xlink="http://www.w3.org/1999/xlink" x="0px" y="0px"
	 width="16px" height="16px" viewBox="0 0 16 16" style="enable-background:new 0 0 16 16;" xml:space="preserve">
<g>
	<path style="fill:#3D464D;" d="M3.822,10.211C2.981,9.395,2.438,8.501,2.175,8C2.744,6.917,4.592,4,8,4
		c0.639,0,1.22,0.106,1.751,0.281l1.533-1.533C10.349,2.296,9.261,2,8,2C2.581,2,0.261,7.38,0.165,7.609L0,8l0.165,0.391
		c0.052,0.124,0.76,1.754,2.252,3.225L3.822,10.211z"/>
	<path style="fill:#3D464D;" d="M5.079,8c0,0.288,0.048,0.562,0.128,0.824l3.617-3.616C8.562,5.129,8.288,5.08,8,5.08
		C6.387,5.08,5.079,6.387,5.079,8z"/>
	<path style="fill:#3D464D;" d="M15.835,7.608c-0.055-0.131-0.847-1.95-2.526-3.481l1.398-1.398c0.195-0.195,0.195-0.512,0-0.707
		c-0.195-0.195-0.512-0.195-0.707,0L1.98,14.042c-0.195,0.195-0.195,0.513,0,0.708c0.195,0.194,0.512,0.194,0.707,0l1.677-1.678
		C5.375,13.624,6.578,14,8,14c0.424,0,0.828-0.036,1.215-0.098c-0.303-0.571-0.505-1.16-0.578-1.707
		c-0.012-0.09-0.014-0.165-0.014-0.229C8.422,11.988,8.214,12,8,12c-0.799,0-1.509-0.164-2.14-0.424l0.928-0.929
		c0.37,0.171,0.777,0.273,1.211,0.273c0.261,0,0.513-0.038,0.753-0.102c0.142-0.397,0.381-0.783,0.693-1.104l0.208-0.234
		l0.029-0.029c0.293-0.293,0.671-0.469,1.077-0.505c0.102-0.297,0.16-0.615,0.16-0.947c0-0.434-0.103-0.842-0.273-1.211l1.255-1.255
		c1,0.878,1.631,1.912,1.922,2.466c-0.225,0.428-0.65,1.14-1.29,1.846l0.506,0.506c0.358,0.359,0.522,0.84,0.496,1.312
		c1.525-1.483,2.247-3.147,2.299-3.272L16,8L15.835,7.608z"/>
	<path style="fill:#3D464D;" d="M14.633,13.923c-0.062-0.061-0.142-0.091-0.224-0.091c-0.087,0-0.176,0.035-0.243,0.102
		l-0.128,0.129l-0.182,0.18c-0.182,0.181-0.417,0.271-0.649,0.271c-0.218,0-0.433-0.08-0.596-0.242l-0.152-0.152l-0.33-0.329
		l-0.429-0.429c-0.011-0.012-0.015-0.027-0.025-0.039c-0.302-0.339-0.285-0.866,0.055-1.207l0.103-0.1l0.079-0.078l0.129-0.129
		c0.131-0.132,0.135-0.341,0.01-0.467l-0.387-0.388l-0.008-0.007l-0.516-0.517c-0.061-0.061-0.141-0.091-0.223-0.091
		c-0.087,0-0.175,0.034-0.243,0.102l-0.205,0.231c-0.24,0.239-0.408,0.551-0.451,0.821c-0.018,0.111-0.006,0.255,0.006,0.398
		c0.003,0.042-0.004,0.073,0.001,0.117c0.066,0.493,0.301,1.117,0.735,1.748c0.138,0.201,0.294,0.402,0.474,0.601
		c0.063,0.069,0.12,0.14,0.188,0.208c0.001,0.002,0.004,0.004,0.006,0.004c0.002,0.002,0.003,0.005,0.005,0.006
		C12.437,15.58,13.57,16,14.276,16c0.083,0,0.16-0.006,0.23-0.018c0.27-0.042,0.582-0.211,0.821-0.449l0.206-0.232
		c0.131-0.131,0.136-0.341,0.01-0.467L14.633,13.923z"/>
</g>
</svg>
