<?xml version="1.0" encoding="iso-8859-1"?>
<!-- Generator: Adobe Illustrator 16.0.4, SVG Export Plug-In . SVG Version: 6.00 Build 0)  -->
<!DOCTYPE svg PUBLIC "-//W3C//DTD SVG 1.1//EN" "http://www.w3.org/Graphics/SVG/1.1/DTD/svg11.dtd">
<svg version="1.1" id="artwork" xmlns="http://www.w3.org/2000/svg" xmlns:xlink="http://www.w3.org/1999/xlink" x="0px" y="0px"
	 width="16px" height="16px" viewBox="0 0 16 16" style="enable-background:new 0 0 16 16;" xml:space="preserve">
<g>
	<path style="fill:#3D464D;" d="M12.5,9c-1.919,0-3.475,1.556-3.475,3.475c0,1.92,1.556,3.476,3.475,3.476s3.475-1.556,3.475-3.476
		C15.975,10.556,14.419,9,12.5,9z M14.302,13H12v-2.302c0-0.276,0.224-0.5,0.5-0.5s0.5,0.224,0.5,0.5V12h1.302
		c0.276,0,0.5,0.224,0.5,0.5S14.578,13,14.302,13z"/>
	<path style="fill:#3D464D;" d="M5.234,10.873c-0.003-0.004-0.006-0.007-0.008-0.01c-0.002-0.002-0.006-0.005-0.009-0.007
		C3.521,9.161,2.927,7.219,3.09,6.205c0.064-0.409,0.32-0.881,0.682-1.244l0.311-0.349c0.201-0.2,0.516-0.206,0.706-0.017
		l1.38,1.379c0.189,0.191,0.184,0.507-0.016,0.707L5.957,6.877L5.838,6.995L5.683,7.146C5.15,7.68,5.13,8.522,5.637,9.031
		l1.148,1.148l0.231,0.229c0.368,0.367,0.91,0.454,1.384,0.274c0.355-0.812,0.945-1.496,1.684-1.972
		C9.594,8.47,9.075,8.114,8.587,7.625C8.585,7.622,8.582,7.619,8.581,7.617C8.579,7.616,8.576,7.615,8.575,7.612
		c-1.177-1.177-1.59-2.524-1.478-3.229c0.045-0.282,0.223-0.61,0.474-0.861L7.788,3.28c0.138-0.14,0.357-0.145,0.489-0.013
		l0.957,0.957c0.131,0.133,0.128,0.352-0.011,0.49L9.088,4.851L9.005,4.934L8.897,5.039C8.528,5.407,8.514,5.993,8.866,6.347
		l0.798,0.798l0.159,0.158c0.354,0.352,0.938,0.339,1.308-0.031l0.191-0.188l0.135-0.135c0.137-0.137,0.357-0.143,0.491-0.013
		l0.955,0.958c0.038,0.038,0.062,0.084,0.077,0.132c0.703,0.075,1.355,0.315,1.923,0.678c0.023-0.231,0.036-0.466,0.036-0.703
		c0-3.811-3.09-6.9-6.9-6.9s-6.9,3.09-6.9,6.9s3.09,6.899,6.9,6.899c0.23,0,0.458-0.012,0.683-0.034
		c-0.397-0.627-0.642-1.359-0.685-2.147C7.156,12.393,6.159,11.798,5.234,10.873z"/>
</g>
</svg>
