<?xml version="1.0" encoding="iso-8859-1"?>
<!-- Generator: Adobe Illustrator 16.0.4, SVG Export Plug-In . SVG Version: 6.00 Build 0)  -->
<!DOCTYPE svg PUBLIC "-//W3C//DTD SVG 1.1//EN" "http://www.w3.org/Graphics/SVG/1.1/DTD/svg11.dtd">
<svg version="1.1" id="artwork" xmlns="http://www.w3.org/2000/svg" xmlns:xlink="http://www.w3.org/1999/xlink" x="0px" y="0px"
	 width="16px" height="16px" viewBox="0 0 16 16" style="enable-background:new 0 0 16 16;" xml:space="preserve">
<g>
	<path style="fill:#3D464D;" d="M8,1.1c-3.811,0-6.9,3.09-6.9,6.9s3.09,6.9,6.9,6.9s6.9-3.09,6.9-6.9S11.811,1.1,8,1.1z M12,6.5
		v3.024v0.5c0,0.553-0.447,1-1,1H9H8l-2,2v-2H5.5H5c-0.553,0-1-0.447-1-1v-0.5V6.5V6c0-0.553,0.447-1,1-1h0.5h5H11
		c0.553,0,1,0.447,1,1V6.5z"/>
</g>
</svg>
