<?xml version="1.0" encoding="iso-8859-1"?>
<!-- Generator: Adobe Illustrator 16.0.4, SVG Export Plug-In . SVG Version: 6.00 Build 0)  -->
<!DOCTYPE svg PUBLIC "-//W3C//DTD SVG 1.1//EN" "http://www.w3.org/Graphics/SVG/1.1/DTD/svg11.dtd">
<svg version="1.1" id="artwork" xmlns="http://www.w3.org/2000/svg" xmlns:xlink="http://www.w3.org/1999/xlink" x="0px" y="0px"
	 width="16px" height="16px" viewBox="0 0 16 16" style="enable-background:new 0 0 16 16;" xml:space="preserve">
<g>
	<path style="fill:#3D464D;" d="M15.543,14.562l-0.911-0.912c-0.062-0.06-0.142-0.09-0.224-0.09c-0.087,0-0.176,0.034-0.243,0.102
		l-0.128,0.129l-0.182,0.179c-0.182,0.181-0.417,0.272-0.649,0.272c-0.218,0-0.433-0.081-0.596-0.243l-0.152-0.151l-0.33-0.33
		l-0.429-0.429c-0.336-0.336-0.322-0.893,0.029-1.245l0.103-0.1l0.079-0.078l0.129-0.13c0.131-0.132,0.135-0.341,0.01-0.466
		l-0.387-0.388l-0.524-0.524c-0.061-0.061-0.141-0.09-0.223-0.09c-0.087,0-0.175,0.033-0.243,0.102l-0.205,0.23
		c-0.24,0.239-0.408,0.551-0.451,0.821c-0.023,0.145-0.018,0.322,0.008,0.517c0.086,0.649,0.463,1.526,1.209,2.348
		c0.063,0.069,0.12,0.14,0.188,0.208c0.001,0.002,0.004,0.004,0.006,0.005c0.002,0.002,0.003,0.004,0.005,0.006
		c1.002,1.003,2.136,1.424,2.842,1.424c0.083,0,0.16-0.006,0.23-0.018c0.27-0.043,0.582-0.211,0.821-0.45l0.206-0.231
		C15.664,14.897,15.669,14.688,15.543,14.562z"/>
	<g>
		<path style="fill:#3D464D;" d="M8,12.146c-3.744,0-5.348-3.718-5.414-3.877L2.472,8l0.114-0.27C2.652,7.571,4.256,3.854,8,3.854
			c3.74,0,5.348,3.718,5.414,3.876L13.528,8l-0.114,0.271c-0.026,0.062-0.286,0.661-0.812,1.37l0.438,0.439
			c0.656,0.658,0.666,1.723,0.033,2.402l0.081,0.08c1.081-1.215,1.746-2.809,1.746-4.562c0-2.605-1.445-4.871-3.577-6.045
			c-0.009-0.005-0.016-0.012-0.024-0.017c-0.282-0.154-0.577-0.286-0.881-0.4c-0.028-0.011-0.057-0.021-0.085-0.03
			c-0.148-0.054-0.344-0.102-0.496-0.145C9.822,1.359,9.75,1.354,9.75,1.354V1.352C9.25,1.189,8.592,1.1,7.953,1.1
			c-3.811,0-6.877,3.09-6.877,6.9s3.102,6.9,6.912,6.9c0.652,0,1.28-0.098,1.879-0.268c-0.626-0.799-1.049-1.693-1.198-2.535
			C8.454,12.127,8.233,12.146,8,12.146z"/>
		<path style="fill:#3D464D;" d="M8,5.334C6.527,5.334,5.333,6.527,5.333,8S6.527,10.666,8,10.666c0.264,0,0.515-0.045,0.753-0.119
			c0.142-0.396,0.381-0.783,0.693-1.103l0.208-0.235L9.684,9.18c0.245-0.244,0.548-0.407,0.878-0.475
			C10.627,8.48,10.667,8.246,10.667,8C10.667,6.527,9.473,5.334,8,5.334z M8,9.273c-0.704,0-1.273-0.57-1.273-1.273
			c0-0.704,0.57-1.273,1.273-1.273S9.273,7.296,9.273,8C9.273,8.703,8.704,9.273,8,9.273z"/>
	</g>
</g>
</svg>
