<?xml version="1.0" encoding="iso-8859-1"?>
<!-- Generator: Adobe Illustrator 16.0.4, SVG Export Plug-In . SVG Version: 6.00 Build 0)  -->
<!DOCTYPE svg PUBLIC "-//W3C//DTD SVG 1.1//EN" "http://www.w3.org/Graphics/SVG/1.1/DTD/svg11.dtd">
<svg version="1.1" id="artwork" xmlns="http://www.w3.org/2000/svg" xmlns:xlink="http://www.w3.org/1999/xlink" x="0px" y="0px"
	 width="16px" height="16px" viewBox="0 0 16 16" style="enable-background:new 0 0 16 16;" xml:space="preserve">
<g>
	<path style="fill:#3D464D;" d="M8,1.1c-3.811,0-6.9,3.09-6.9,6.9s3.089,6.9,6.9,6.9c3.811,0,6.9-3.09,6.9-6.9S11.811,1.1,8,1.1z
		 M9,13H7v-2h2V13z M9,8.816V10H7V8.816V8c0,0,0-1,1-1c0.552,0,1-0.447,1-1S8.552,5,8,5C7.828,5,7.674,5.055,7.533,5.131
		c-0.085,0.047-0.171,0.094-0.24,0.162C7.112,5.474,7,5.724,7,6H5c0-1.656,1.343-3,3-3s3,1.344,3,3C11,7.305,10.163,8.402,9,8.816z"
		/>
</g>
</svg>
