<?xml version="1.0" encoding="utf-8"?>
<!-- Generator: Adobe Illustrator 16.0.4, SVG Export Plug-In . SVG Version: 6.00 Build 0)  -->
<!DOCTYPE svg PUBLIC "-//W3C//DTD SVG 1.1//EN" "http://www.w3.org/Graphics/SVG/1.1/DTD/svg11.dtd">
<svg version="1.1" id="artwork" xmlns="http://www.w3.org/2000/svg" xmlns:xlink="http://www.w3.org/1999/xlink" x="0px" y="0px"
	 width="16px" height="16px" viewBox="0 0 16 16" enable-background="new 0 0 16 16" xml:space="preserve">
<g>
	<path d="M8,14c-5.419,0-7.739-5.38-7.836-5.609L0,8l0.164-0.391C0.261,7.38,2.581,2,8,2
		c5.413,0,7.739,5.38,7.835,5.608L16,8l-0.165,0.392C15.739,8.62,13.413,14,8,14z M2.175,8C2.742,9.081,4.592,12,8,12
		c3.403,0,5.254-2.916,5.824-4C13.256,6.918,11.404,4,8,4C4.592,4,2.744,6.917,2.175,8z"/>
	<circle cx="8" cy="8" r="2.921"/>
</g>
</svg>
