<?xml version="1.0" encoding="iso-8859-1"?>
<!-- Generator: Adobe Illustrator 16.0.4, SVG Export Plug-In . SVG Version: 6.00 Build 0)  -->
<!DOCTYPE svg PUBLIC "-//W3C//DTD SVG 1.1//EN" "http://www.w3.org/Graphics/SVG/1.1/DTD/svg11.dtd">
<svg version="1.1" id="artwork" xmlns="http://www.w3.org/2000/svg" xmlns:xlink="http://www.w3.org/1999/xlink" x="0px" y="0px"
	 width="16px" height="16px" viewBox="0 0 16 16" style="enable-background:new 0 0 16 16;" xml:space="preserve">
<g>
	<g>
		<g>
			<path style="fill:#3D464D;" d="M15,4H6L4,6v9c0,0.553,0.463,1,1.016,1H15c0.553,0,1-0.447,1-1V5C16,4.447,15.553,4,15,4z M7,5h6
				v4H7V5z M14,15H6v-4h8V15z"/>
			<rect x="8" y="6" style="fill:#3D464D;" width="2" height="2"/>
		</g>
		<g>
			<path style="fill:#3D464D;" d="M3,5.588V6v1H2v4h1v1H1.016C0.463,12,0,11.553,0,11V2l2-2h9c0.553,0,1,0.447,1,1v2H9V1H3v4V5.588z
				"/>
			<polygon style="fill:#3D464D;" points="4,4 4.592,4 5.29,3.296 5.584,3 6,3 6,2 4,2 			"/>
		</g>
	</g>
</g>
</svg>
