<?xml version="1.0" encoding="iso-8859-1"?>
<!-- Generator: Adobe Illustrator 16.0.4, SVG Export Plug-In . SVG Version: 6.00 Build 0)  -->
<!DOCTYPE svg PUBLIC "-//W3C//DTD SVG 1.1//EN" "http://www.w3.org/Graphics/SVG/1.1/DTD/svg11.dtd">
<svg version="1.1" id="artwork" xmlns="http://www.w3.org/2000/svg" xmlns:xlink="http://www.w3.org/1999/xlink" x="0px" y="0px"
	 width="16px" height="16px" viewBox="0 0 16 16" style="enable-background:new 0 0 16 16;" xml:space="preserve">
<g>
	<path style="fill:#3D464D;" d="M15,8h-5L9.372,7.447C9.102,7.195,8.82,7,8.508,7H6C5.461,7,5.021,7.427,5.001,7.961
		C5,7.974,5,7.987,5,8v7c0,0.553,0.447,1,1,1h9c0.553,0,1-0.447,1-1V9C16,8.447,15.553,8,15,8z"/>
	<path style="fill:#3D464D;" d="M13,4l1.5,3L16,4h-1V2c0-0.553-0.447-1-1-1h-1v1h1v2H13z"/>
</g>
<g>
	<path style="fill:#3D464D;" d="M11,0H1C0.448,0,0,0.447,0,1v10c0,0.553,0.448,1,1,1h3V9.533C3.797,9.8,3.49,9.983,3.129,9.983
		c-0.614,0-1.113-0.498-1.113-1.113s0.497-1.113,1.111-1.113C3.491,7.757,3.75,7.942,4,8.212V7.884C4,7.437,4.198,7.03,4.476,6.706
		C3.783,6.183,2.933,5.861,2,5.861V4.422c1.507,0,2.874,0.603,3.879,1.578H6h1.758C6.488,4.179,4.382,2.982,2,2.982V1.543
		c3.367,0,6.272,1.983,7.632,4.84c0.16,0.11,0.307,0.226,0.422,0.333L10.377,7H12V1C12,0.447,11.552,0,11,0z"/>
</g>
</svg>
