<?xml version="1.0" encoding="iso-8859-1"?>
<!-- Generator: Adobe Illustrator 16.0.4, SVG Export Plug-In . SVG Version: 6.00 Build 0)  -->
<!DOCTYPE svg PUBLIC "-//W3C//DTD SVG 1.1//EN" "http://www.w3.org/Graphics/SVG/1.1/DTD/svg11.dtd">
<svg version="1.1" id="artwork" xmlns="http://www.w3.org/2000/svg" xmlns:xlink="http://www.w3.org/1999/xlink" x="0px" y="0px"
	 width="16px" height="16px" viewBox="0 0 16 16" style="enable-background:new 0 0 16 16;" xml:space="preserve">
<path style="fill:#3D464D;" d="M14.291,11.809l-2.088-2.09c-0.29-0.285-0.77-0.273-1.07,0.026l-0.295,0.294l-0.417,0.411
	c-0.808,0.806-2.084,0.836-2.854,0.067L7.218,10.17l-1.74-1.74C4.709,7.659,4.74,6.383,5.547,5.575l0.235-0.229l0.181-0.179
	L6.258,4.87C6.559,4.568,6.569,4.089,6.281,3.8L4.192,1.711C3.904,1.424,3.426,1.434,3.123,1.736l-0.47,0.529
	C2.104,2.814,1.717,3.529,1.618,4.148c-0.246,1.535,0.655,4.478,3.224,7.045c0.004,0.005,0.01,0.009,0.014,0.012
	c0.003,0.004,0.007,0.01,0.012,0.014c2.568,2.569,5.511,3.471,7.045,3.225c0.619-0.098,1.335-0.485,1.883-1.033l0.472-0.53
	C14.568,12.577,14.579,12.098,14.291,11.809z"/>
<g>
	<path style="fill:#3D464D;" d="M15.917,4.805C15.87,4.689,14.707,2,12,2C9.291,2,8.13,4.689,8.082,4.805L8,5l0.082,0.195
		C8.13,5.311,9.291,8,12,8c2.707,0,3.87-2.689,3.917-2.805L16,5L15.917,4.805z M12,6.701c-0.94,0-1.701-0.763-1.701-1.701
		c0-0.939,0.761-1.7,1.701-1.7c0.939,0,1.701,0.761,1.701,1.7C13.701,5.938,12.939,6.701,12,6.701z"/>
</g>
</svg>
