<?xml version="1.0" encoding="iso-8859-1"?>
<!-- Generator: Adobe Illustrator 16.0.4, SVG Export Plug-In . SVG Version: 6.00 Build 0)  -->
<!DOCTYPE svg PUBLIC "-//W3C//DTD SVG 1.1//EN" "http://www.w3.org/Graphics/SVG/1.1/DTD/svg11.dtd">
<svg version="1.1" id="artwork" xmlns="http://www.w3.org/2000/svg" xmlns:xlink="http://www.w3.org/1999/xlink" x="0px" y="0px"
	 width="16px" height="16px" viewBox="0 0 16 16" style="enable-background:new 0 0 16 16;" xml:space="preserve">
<g>
	<polygon style="fill:#3D464D;" points="4,4.707 11.293,12 9,12 9,13 12,13 13,13 13,12 13,9 12,9 12,11.293 4.707,4 7,4 7,3 4,3 
		3,3 3,4 3,7 4,7 	"/>
	<path style="fill:#3D464D;" d="M1,1v14h14V1H1z M14,6H8.404l1,1H14v7H7V9.404l-1-1V14H2V2h12V6z"/>
</g>
</svg>
