<?xml version="1.0" encoding="iso-8859-1"?>
<!-- Generator: Adobe Illustrator 16.0.4, SVG Export Plug-In . SVG Version: 6.00 Build 0)  -->
<!DOCTYPE svg PUBLIC "-//W3C//DTD SVG 1.1//EN" "http://www.w3.org/Graphics/SVG/1.1/DTD/svg11.dtd">
<svg version="1.1" id="artwork" xmlns="http://www.w3.org/2000/svg" xmlns:xlink="http://www.w3.org/1999/xlink" x="0px" y="0px"
	 width="16px" height="16px" viewBox="0 0 16 16" style="enable-background:new 0 0 16 16;" xml:space="preserve">
<g>
	<path style="fill:#3D464D;" d="M14,8H6C5.447,8,5,8.447,5,9v0.344l5,2l5-2V9C15,8.447,14.553,8,14,8z"/>
	<path style="fill:#3D464D;" d="M5,10.589V15c0,0.553,0.447,1,1,1h8c0.553,0,1-0.447,1-1v-4.411l-5,2L5,10.589z"/>
	<path style="fill:#3D464D;" d="M3.5,7.75v-1V6H5V5.312V4.816V4.734c0-0.479,0.074-1.466,0.427-1.924C5.799,2.328,6.331,2,7.21,2
		c1.432,0,2.047,0.201,2.047,0.201L8.978,3.854c0,0-0.588-0.135-1.03-0.135C7.507,3.719,7,3.873,7,4.308v0.427v0.578V6h0.508h1.534
		L9.011,7H12V1c0-0.553-0.448-1-1-1H1C0.448,0,0,0.447,0,1v10c0,0.553,0.448,1,1,1h3V9.111V9c0-0.367,0.104-0.706,0.279-1H3.5V7.75z
		"/>
</g>
</svg>
