<?xml version="1.0" encoding="iso-8859-1"?>
<!-- Generator: Adobe Illustrator 16.0.4, SVG Export Plug-In . SVG Version: 6.00 Build 0)  -->
<!DOCTYPE svg PUBLIC "-//W3C//DTD SVG 1.1//EN" "http://www.w3.org/Graphics/SVG/1.1/DTD/svg11.dtd">
<svg version="1.1" id="artwork" xmlns="http://www.w3.org/2000/svg" xmlns:xlink="http://www.w3.org/1999/xlink" x="0px" y="0px"
	 width="16px" height="16px" viewBox="0 0 16 16" style="enable-background:new 0 0 16 16;" xml:space="preserve">
<g>
	<g>
		<path style="fill:#3D464D;" d="M8,15.9c4.363,0,7.9-3.537,7.9-7.9S12.363,0.1,8,0.1S0.1,3.637,0.1,8S3.637,15.9,8,15.9z M8,2.075
			c3.272,0,5.925,2.651,5.925,5.925c0,3.272-2.652,5.925-5.925,5.925S2.075,11.272,2.075,8C2.075,4.727,4.728,2.075,8,2.075z"/>
		<polygon style="fill:#3D464D;" points="4.94,10.474 8,7.414 11.059,10.473 12.473,9.059 8,4.585 3.526,9.059 		"/>
	</g>
</g>
</svg>
