<?xml version="1.0" encoding="utf-8"?>
<!-- Generator: Adobe Illustrator 16.0.4, SVG Export Plug-In . SVG Version: 6.00 Build 0)  -->
<!DOCTYPE svg PUBLIC "-//W3C//DTD SVG 1.1//EN" "http://www.w3.org/Graphics/SVG/1.1/DTD/svg11.dtd">
<svg version="1.1" id="artwork" xmlns="http://www.w3.org/2000/svg" xmlns:xlink="http://www.w3.org/1999/xlink" x="0px" y="0px"
	 width="16px" height="16px" viewBox="0 0 16 16" enable-background="new 0 0 16 16" xml:space="preserve">
<g>
	<path fill="#3D464D" d="M15.376,13.181c-0.278-0.16-0.939-0.328-0.994-1.492c-0.251,0.205-0.222,1.289,0.476,1.504
		c0.778,0.24,1.267,0.644-0.184,1.097c-0.957,0.302-1.12,0.396-1.878,0.976c-0.767,0.586-1.905,0.354-1.706-0.883
		c0.103-0.645,0.162-1.176-0.012-1.736c-0.085-0.273-0.128-0.625-0.07-0.871c0.114-0.478,0.396-0.623,0.671-0.162
		c0.174,0.287,0.234,0.625,0.855,0.652c0.973,0.043,1.167-0.865,1.479-0.906c0.208-0.028,0.416-0.569,0.258-1.443
		c-0.17-0.938-0.769-2.415-1.538-3.165c-0.638-0.624-1.041-1.17-1.293-1.95c-0.213-0.654-0.288-1.292-0.288-1.901
		c0-0.887-0.252-1.89-1.01-2.407c-0.476-0.323-1.221-0.497-1.896-0.49C7.869,0.005,7.514,0.056,7.239,0.192
		C6.115,0.753,5.791,1.557,5.807,2.471c0.016,0.86,0.047,1.842,0.154,2.774c-0.126,0.429-0.781,1.24-1.2,1.736
		C4.197,7.493,3.912,8.483,3.546,9.349c-0.194,0.461-0.522,0.668-0.55,1.262c-0.007,0.166-0.001,0.595,0.172,0.472
		c0.659-0.47,1.485,0.713,2.731,2.519c0.239,0.346,1.081,1.803-0.396,1.99c-0.493,0.062-1.289-0.264-2.059-0.438
		c-0.691-0.155-1.395-0.247-1.789-0.35c-0.236-0.061-0.334-0.139-0.355-0.229c-0.055-0.242,0.287-0.581,0.305-0.867
		s-0.113-0.435-0.221-0.668s-0.135-0.41-0.05-0.511c0.067-0.077,0.204-0.11,0.424-0.09c0.28,0.024,0.619-0.027,0.8-0.129
		c0.307-0.173,0.45-0.523,0.312-0.947c0,0.414-0.148,0.572-0.519,0.761c-0.349,0.178-0.889,0.033-1.137,0.231
		c-0.299,0.238,0.107,0.853,0.073,1.304c-0.024,0.347-0.418,0.737-0.243,1.085c0.177,0.35,1,0.387,1.858,0.553
		c1.22,0.234,1.931,0.643,2.495,0.662c0.823,0.027,0.948-0.748,2.239-0.759c0.376-0.019,0.744-0.028,1.112-0.033
		c0.417-0.005,0.835-0.001,1.261,0.008c0.86,0.019,0.561,0.441,1.122,0.694c0.423,0.19,1.315,0.135,1.518-0.043
		c0.273-0.239,1.008-0.816,1.571-1.078C14.925,14.422,16.572,13.862,15.376,13.181z M10.469,4.771
		c0.069-0.067,0.106,0.115,0.292,0.225c0.149,0.085,0.293,0.021,0.331,0.196c0.026,0.125-0.059,0.261-0.172,0.243
		C10.721,5.404,10.263,4.969,10.469,4.771z M9.322,1.205c0.032-0.087-0.064-0.28,0.131-0.291C9.528,0.91,9.605,0.973,9.687,1.042
		c0.079,0.07,0.213,0.119,0.194,0.162C9.84,1.302,9.615,1.279,9.566,1.295c-0.188,0.062-0.24,0.227-0.333,0.157
		C9.142,1.384,9.287,1.302,9.322,1.205z M4.664,7.868c0.08-0.127,0.064-0.285,0.148-0.262c0.083,0.022,0.037,0.111-0.02,0.256
		C4.744,7.987,4.603,8.096,4.552,8.09C4.42,8.075,4.591,7.983,4.664,7.868z M10.918,13.492c-0.043,0.5-0.192,0.993-0.277,1.495
		c-0.288-0.01-0.261-0.203-0.167-0.475c0.081-0.238,0.212-0.539,0.221-0.826c0.007-0.262-0.024-0.425-0.095-0.465
		c-0.072-0.041-0.184,0.041-0.339,0.271c-0.328,0.487-1.044,0.702-1.712,0.78c-0.666,0.076-1.287,0.016-1.614-0.322
		c-0.113-0.116-0.3,0.031-0.321,0.062c-0.029,0.041,0.107,0.121,0.212,0.298c0.154,0.256,0.298,0.646-0.062,0.824
		c0.004-0.904-0.307-0.958-0.627-1.51c0.623-0.059,0.705-0.665,0.412-0.93c-0.241-0.217-1.574-1.127-1.922-1.484
		c-0.162-0.166-0.38-0.248-0.472-0.434c-0.213-0.43-0.363-1.043-0.092-1.481c0.049-0.08,0.081-0.044,0.042,0.122
		c-0.212,0.938,0.453,1.705,0.6,1.312c0.101-0.271,0.007-0.758,0.061-1.144c0.096-0.685,0.771-1.997,1.068-2.071
		C5.376,6.735,6.371,6.124,6.358,5.44c-0.007-0.445,0.425,0.547,0.86,0.758C7.707,6.433,8.24,5.754,9,5.411
		c0.213-0.098,0.489-0.21,0.471-0.293c-0.09-0.4-0.996,0.494-1.807,0.524c-0.371,0.014-0.509-0.066-0.65-0.193
		C6.582,5.065,7.058,5.385,7.699,5.278C7.984,5.231,8.08,5.188,8.383,5.075C8.688,4.962,9.032,4.796,9.375,4.71
		c0.239-0.06,0.219-0.225,0.127-0.273C9.448,4.407,9.369,4.41,9.307,4.51c-0.147,0.234-0.84,0.369-1.055,0.43
		C7.975,5.018,7.668,5.09,7.26,5.075C6.642,5.052,6.787,4.791,6.344,4.559C6.213,4.489,6.25,4.311,6.422,4.151
		c0.09-0.083,0.338-0.13,0.461-0.319c0.017-0.025,0.175-0.178,0.3-0.257C7.225,3.548,7.228,2.854,6.84,2.839
		C6.512,2.827,6.418,3.062,6.432,3.295C6.445,3.529,6.58,3.723,6.67,3.721C6.844,3.72,6.682,3.896,6.586,3.923
		c-0.144,0.043-0.318-0.52-0.318-0.791c0-0.396,0.184-0.78,0.57-0.771c0.351,0.008,0.604,0.411,0.59,1.105
		C7.426,3.584,7.996,3.41,8.187,3.595C8.321,3.728,7.738,2.273,9.06,2.271c0.353,0,0.688,0.169,0.83,0.914
		c0.021,0.264,0.088,0.597-0.13,0.658C9.494,3.919,9.33,3.833,9.483,3.602C9.588,3.367,9.486,2.774,8.948,2.81
		C8.411,2.844,8.482,3.721,8.63,3.738c0.147,0.017,0.519,0.259,0.777,0.306c0.85,0.152,0.226,0.601,0.335,1.143
		c0.125,0.611,0.564,0.45,0.958,2.071c0.083,0.099,0.409,0.192,0.727,1.438c0.286,1.121-0.118,1.936,0.57,1.869
		c0.154-0.016,0.381-0.056,0.479-0.373c0.258-0.83-0.128-1.819-0.519-2.486c-0.227-0.389-0.44-0.654-0.556-0.745
		c0.448,0.243,1.019,1.021,1.15,1.597c0.174,0.756,0.299,1.077,0.034,1.877c0.152,0.07,0.529,0.217,0.529,0.383
		c-0.391-0.297-1.592-0.35-1.623,0.359c-0.205,0.004-0.359,0.02-0.491,0.163C10.52,11.867,10.967,12.924,10.918,13.492z
		 M6.846,3.147C6.783,3.159,6.77,3.002,6.889,3.03c0.051,0.012,0.176,0.175,0.136,0.396C7.019,3.455,7.004,3.457,6.989,3.457
		c-0.084,0-0.094-0.07-0.071-0.181C6.935,3.196,6.883,3.141,6.846,3.147z M9.365,3.284c-0.001,0.03-0.104,0.062-0.104,0.049
		c-0.016-0.134-0.092-0.259-0.17-0.28C9.03,3.036,8.996,2.98,9.119,2.97C9.17,2.966,9.371,3.068,9.365,3.284z"/>
</g>
</svg>
