<?xml version="1.0" encoding="utf-8"?>
<!-- Generator: Adobe Illustrator 16.0.4, SVG Export Plug-In . SVG Version: 6.00 Build 0)  -->
<!DOCTYPE svg PUBLIC "-//W3C//DTD SVG 1.1//EN" "http://www.w3.org/Graphics/SVG/1.1/DTD/svg11.dtd">
<svg version="1.1" id="artwork" xmlns="http://www.w3.org/2000/svg" xmlns:xlink="http://www.w3.org/1999/xlink" x="0px" y="0px"
	 width="16px" height="16px" viewBox="0 0 16 16" enable-background="new 0 0 16 16" xml:space="preserve">
<path d="M13.449,5H13v2h0.449C13.725,7,14,7.214,14,7.49v4c0,0.276-0.275,0.51-0.551,0.51H6.45
	C6.175,12,6,11.766,6,11.49V11h3.45C10.828,11,12,9.869,12,8.49v-1v-2v-1C12,3.112,10.828,2,9.45,2h-7C1.072,2,0,3.112,0,4.49v4
	C0,9.869,1.072,11,2.45,11H3V9H2.45C2.175,9,2,8.766,2,8.49v-4C2,4.214,2.175,4,2.45,4h7C9.726,4,10,4.214,10,4.49V5H6.45
	C5.071,5,4,6.112,4,7.49v1v2v1C4,12.869,5.071,14,6.45,14h6.999C14.828,14,16,12.869,16,11.49v-4C16,6.112,14.828,5,13.449,5z
	 M6,8.49v-1C6,7.214,6.224,7,6.5,7H10v0.49v1C10,8.766,9.775,9,9.5,9H6V8.49z"/>
</svg>
