<?xml version="1.0" encoding="utf-8"?>
<!-- Generator: Adobe Illustrator 16.0.4, SVG Export Plug-In . SVG Version: 6.00 Build 0)  -->
<!DOCTYPE svg PUBLIC "-//W3C//DTD SVG 1.1//EN" "http://www.w3.org/Graphics/SVG/1.1/DTD/svg11.dtd">
<svg version="1.1" id="artwork" xmlns="http://www.w3.org/2000/svg" xmlns:xlink="http://www.w3.org/1999/xlink" x="0px" y="0px"
	 width="16px" height="16px" viewBox="0 0 16 16" enable-background="new 0 0 16 16" xml:space="preserve">
<g>
	<rect x="5" y="3" width="10" height="1"/>
	<rect x="5" y="7" width="10" height="1"/>
	<rect x="5" y="11" width="10" height="1"/>
	<polygon points="2.912,4.98 3.308,4.98 3.308,2.128 2.281,2.234 2.281,2.527 2.912,2.52 	"/>
	<path d="M2.584,8.688l0.729-0.829c0.172-0.212,0.3-0.389,0.384-0.53c0.085-0.141,0.127-0.285,0.127-0.434
		c0-0.22-0.074-0.4-0.223-0.539c-0.148-0.14-0.352-0.208-0.61-0.208c-0.284,0-0.506,0.081-0.671,0.238
		C2.156,6.545,2.078,6.737,2.083,6.967l0.005,0.012h0.377c0-0.15,0.046-0.277,0.134-0.379C2.69,6.498,2.82,6.445,2.992,6.445
		c0.137,0,0.246,0.043,0.324,0.126c0.078,0.083,0.117,0.187,0.117,0.319c0,0.113-0.029,0.227-0.086,0.341
		c-0.059,0.11-0.168,0.263-0.331,0.452L2.108,8.734v0.259h1.799V8.696H2.588L2.584,8.688z"/>
	<path d="M3.449,11.5c0.122-0.059,0.217-0.141,0.286-0.245c0.068-0.105,0.104-0.224,0.104-0.351
		c0-0.248-0.075-0.438-0.221-0.566c-0.147-0.125-0.35-0.19-0.609-0.19c-0.257,0-0.467,0.073-0.631,0.217
		c-0.165,0.146-0.244,0.322-0.238,0.524L2.145,10.9h0.36c0-0.131,0.048-0.242,0.143-0.33s0.215-0.131,0.361-0.131
		c0.149,0,0.262,0.041,0.339,0.125c0.076,0.085,0.114,0.197,0.114,0.332c0,0.148-0.036,0.265-0.106,0.345
		c-0.068,0.081-0.188,0.122-0.356,0.122H2.688v0.288h0.311c0.174,0,0.301,0.042,0.382,0.128s0.122,0.212,0.122,0.384
		c0,0.151-0.044,0.271-0.133,0.365c-0.088,0.093-0.209,0.14-0.362,0.14c-0.154,0-0.281-0.045-0.377-0.137
		c-0.098-0.09-0.147-0.201-0.147-0.334h-0.36l-0.003,0.01c-0.007,0.226,0.08,0.408,0.261,0.543c0.18,0.139,0.39,0.207,0.627,0.207
		c0.258,0,0.468-0.07,0.63-0.215c0.16-0.141,0.242-0.336,0.242-0.587c0-0.157-0.037-0.292-0.11-0.405
		C3.697,11.639,3.59,11.555,3.449,11.5z"/>
</g>
</svg>
