<?xml version="1.0" encoding="utf-8"?>
<!-- Generator: Adobe Illustrator 16.0.4, SVG Export Plug-In . SVG Version: 6.00 Build 0)  -->
<!DOCTYPE svg PUBLIC "-//W3C//DTD SVG 1.1//EN" "http://www.w3.org/Graphics/SVG/1.1/DTD/svg11.dtd">
<svg version="1.1" id="Layer_1" xmlns="http://www.w3.org/2000/svg" xmlns:xlink="http://www.w3.org/1999/xlink" x="0px" y="0px"
	 width="16px" height="16px" viewBox="0 0 16 16" enable-background="new 0 0 16 16" xml:space="preserve">
<g>
	<defs>
		<rect id="SVGID_1_" width="16" height="16"/>
	</defs>
	<clipPath id="SVGID_2_">
		<use xlink:href="#SVGID_1_"  overflow="visible"/>
	</clipPath>
	<path clip-path="url(#SVGID_2_)" d="M14,1H2C1.448,1,1,1.447,1,2v12c0,0.553,0.448,1,1,1h12c0.552,0,1-0.447,1-1V2
		C15,1.447,14.552,1,14,1 M5,13H3V6h2V13z M4.001,5.3C3.281,5.3,2.7,4.718,2.7,4s0.581-1.3,1.301-1.3C4.718,2.7,5.3,3.282,5.3,4
		S4.718,5.3,4.001,5.3 M13,13h-2V9.5c0-0.811-0.277-1.757-1.425-1.757C8.411,7.743,8.01,8.587,8.01,9.5L8.002,13H6V6h2v1h0.059
		c0.299-0.55,1.145-1.17,2.232-1.17C12.344,5.83,13,7.235,13,9.119V13z"/>
</g>
</svg>
