<?xml version="1.0" encoding="iso-8859-1"?>
<!-- Generator: Adobe Illustrator 16.0.4, SVG Export Plug-In . SVG Version: 6.00 Build 0)  -->
<!DOCTYPE svg PUBLIC "-//W3C//DTD SVG 1.1//EN" "http://www.w3.org/Graphics/SVG/1.1/DTD/svg11.dtd">
<svg version="1.1" id="artwork" xmlns="http://www.w3.org/2000/svg" xmlns:xlink="http://www.w3.org/1999/xlink" x="0px" y="0px"
	 width="16px" height="16px" viewBox="0 0 16 16" style="enable-background:new 0 0 16 16;" xml:space="preserve">
<path style="fill:#3D464D;" d="M8,1C7.66,1,7.327,1.032,7,1.079V7H5l3,4l3-4H9V3.1c2.282,0.462,4,2.471,4,4.881
	C13,10.732,10.761,13,8,13c-2.762,0-5-2.268-5-5.019c0-1.625,0.791-3.056,2-3.965V1.68C2.637,2.8,1,5.193,1,7.973
	C1,11.825,4.134,15,8,15c3.865,0,7-3.175,7-7.028C15,4.12,11.865,1,8,1z"/>
</svg>
