<?xml version="1.0" encoding="utf-8"?>
<!-- Generator: Adobe Illustrator 16.0.4, SVG Export Plug-In . SVG Version: 6.00 Build 0)  -->
<!DOCTYPE svg PUBLIC "-//W3C//DTD SVG 1.1//EN" "http://www.w3.org/Graphics/SVG/1.1/DTD/svg11.dtd">
<svg version="1.1" id="artwork" xmlns="http://www.w3.org/2000/svg" xmlns:xlink="http://www.w3.org/1999/xlink" x="0px" y="0px"
	 width="16px" height="16px" viewBox="0 0 16 16" enable-background="new 0 0 16 16" xml:space="preserve">
<g>
	<path d="M11,11V8h2V1H3v13h5v-3H11z M5,4h6l0,0v1l0,0H5V4z M5,6h6l0,0v1l0,0H5V6z M5,9V8h4l0,0v1l0,0H5z"/>
</g>
<polygon points="16,12 13,12 13,9 12,9 12,12 9,12 9,13 12,13 12,16 13,16 13,13 16,13 "/>
</svg>
