<?xml version="1.0" encoding="iso-8859-1"?>
<!-- Generator: Adobe Illustrator 16.0.4, SVG Export Plug-In . SVG Version: 6.00 Build 0)  -->
<!DOCTYPE svg PUBLIC "-//W3C//DTD SVG 1.1//EN" "http://www.w3.org/Graphics/SVG/1.1/DTD/svg11.dtd">
<svg version="1.1" id="artwork" xmlns="http://www.w3.org/2000/svg" xmlns:xlink="http://www.w3.org/1999/xlink" x="0px" y="0px"
	 width="16px" height="16px" viewBox="0 0 16 16" style="enable-background:new 0 0 16 16;" xml:space="preserve">
<path style="fill:#3D464D;" d="M6.77,1.129C2.667,1.247,0.204,4.219,0.204,6.23c0,1.717,0.821,2.977,2.462,2.977
	s2.462,0.424,2.462,1.697c0,1.701,1.231,2.977,2.872,2.977c5.334,0,7.796-2.977,7.796-5.949C15.796,2.829,12,0.979,6.77,1.129z
	 M3,7.209c-0.662,0-1.2-0.537-1.2-1.199c0-0.664,0.538-1.201,1.2-1.201S4.2,5.346,4.2,6.01C4.2,6.672,3.662,7.209,3,7.209z
	 M5.75,5.178c-0.662,0-1.2-0.537-1.2-1.199s0.538-1.201,1.2-1.201s1.2,0.539,1.2,1.201S6.412,5.178,5.75,5.178z M7.486,12.178
	c-0.662,0-1.199-0.537-1.199-1.199s0.537-1.201,1.199-1.201c0.664,0,1.201,0.539,1.201,1.201S8.15,12.178,7.486,12.178z M9.25,5.178
	c-0.662,0-1.2-0.537-1.2-1.199s0.538-1.201,1.2-1.201s1.2,0.539,1.2,1.201S9.912,5.178,9.25,5.178z M12,7.209
	c-0.662,0-1.2-0.537-1.2-1.199c0-0.664,0.538-1.201,1.2-1.201s1.2,0.537,1.2,1.201C13.2,6.672,12.662,7.209,12,7.209z"/>
</svg>
