<?xml version="1.0" encoding="utf-8"?>
<!-- Generator: Adobe Illustrator 16.0.4, SVG Export Plug-In . SVG Version: 6.00 Build 0)  -->
<!DOCTYPE svg PUBLIC "-//W3C//DTD SVG 1.1//EN" "http://www.w3.org/Graphics/SVG/1.1/DTD/svg11.dtd">
<svg version="1.1" id="artwork" xmlns="http://www.w3.org/2000/svg" xmlns:xlink="http://www.w3.org/1999/xlink" x="0px" y="0px"
	 width="16px" height="16px" viewBox="0 0 16 16" enable-background="new 0 0 16 16" xml:space="preserve">
<g>
	<path d="M8,10h3V7h2.945c0.099-0.463,0.156-0.931,0.156-1.398C14.102,2.508,11.594,0,8.5,0
		C5.406,0,2.898,2.508,2.898,5.602C2.898,10.3,8.539,15,8.539,15s0.912-0.771,1.998-2H8V10z"/>
</g>
<polygon points="16,11 13,11 13,8 12,8 12,11 9,11 9,12 12,12 12,15 13,15 13,12 16,12 "/>
</svg>
