<?xml version="1.0" encoding="utf-8"?>
<!-- Generator: Adobe Illustrator 16.0.4, SVG Export Plug-In . SVG Version: 6.00 Build 0)  -->
<!DOCTYPE svg PUBLIC "-//W3C//DTD SVG 1.1//EN" "http://www.w3.org/Graphics/SVG/1.1/DTD/svg11.dtd">
<svg version="1.1" id="artwork" xmlns="http://www.w3.org/2000/svg" xmlns:xlink="http://www.w3.org/1999/xlink" x="0px" y="0px"
	 width="16px" height="16px" viewBox="0 0 16 16" enable-background="new 0 0 16 16" xml:space="preserve">
<g>
	<path fill="#3D464D" d="M15,6h-4c-0.552,0-1,0.447-1,1v8c0,0.553,0.448,1,1,1h4c0.552,0,1-0.447,1-1V7C16,6.447,15.552,6,15,6z
		 M13.5,15h-1c-0.276,0-0.5-0.225-0.5-0.5c0-0.277,0.224-0.5,0.5-0.5h1c0.276,0,0.5,0.223,0.5,0.5C14,14.775,13.776,15,13.5,15z
		 M15,13h-4V7h4V13z"/>
</g>
<path fill="#3D464D" d="M9,11H2V3h11v2h2V2c0-0.553-0.448-1-1-1H1C0.448,1,0,1.447,0,2v10c0,0.553,0.448,1,1,1h8V11z"/>
<polygon fill="#3D464D" points="9,14 6,14 5.75,15 9,15 "/>
</svg>
