<?xml version="1.0" encoding="utf-8"?>
<!-- Generator: Adobe Illustrator 16.0.4, SVG Export Plug-In . SVG Version: 6.00 Build 0)  -->
<!DOCTYPE svg PUBLIC "-//W3C//DTD SVG 1.1//EN" "http://www.w3.org/Graphics/SVG/1.1/DTD/svg11.dtd">
<svg version="1.1" id="artwork" xmlns="http://www.w3.org/2000/svg" xmlns:xlink="http://www.w3.org/1999/xlink" x="0px" y="0px"
	 width="16px" height="16px" viewBox="0 0 16 16" enable-background="new 0 0 16 16" xml:space="preserve">
<g>
	<path d="M5.705,5.833c0.216,0.07,0.246,1.119,0.787,1.861c0.425,0.578,1.025,1.308,1.713,1.42
		c0.081,0.017,0.507,0.017,0.588,0c0.689-0.112,1.289-0.843,1.713-1.42c0.546-0.744,0.573-1.792,0.789-1.861
		c0.256-0.082,0.4-0.76,0.4-1.541c0-0.151-0.305-0.363-0.333-0.5c0-0.004,0.002-0.016,0.002-0.019C11.238,2.405,10.023,1,8.537,1
		c0,0-0.002,0-0.005,0S8.529,1,8.529,1C8.52,1,8.508,1,8.501,1C8.491,1,8.48,1,8.473,1c0,0-0.004,0-0.006,0H8.463
		C6.977,1,5.761,2.405,5.635,3.773C5.633,3.776,5.636,3.785,5.636,3.789C5.607,3.925,5.305,4.138,5.305,4.29
		C5.305,5.07,5.449,5.751,5.705,5.833z"/>
	<path d="M14.709,12.159c-0.369-0.355-2.404-0.796-3.855-1.862c-0.279-0.229-0.561-0.945-0.561-0.945L8.5,10.587
		L6.707,9.354c0,0-0.281,0.713-0.561,0.942c-1.451,1.065-3.486,1.508-3.855,1.863C1.619,12.81,1.377,14,1.271,15h14.457
		C15.623,14,15.381,12.81,14.709,12.159z"/>
	<path d="M4.584,6.729c-0.45-0.484-0.68-1.299-0.68-2.434c0-0.05-0.005,0.047,0.007-0.146
		c0.012-0.191,0.122-0.27,0.159-0.316C4.107,3.787,4.062,3.76,4.062,3.76C3.913,3.71,3.686,3.662,3.523,3.662c0,0-0.002,0-0.003,0
		c-0.002,0-0.002,0-0.002,0c-0.007,0-0.014,0-0.018,0c-0.007,0-0.013,0-0.019,0c0,0-0.002,0-0.003,0H3.477
		c-0.928,0-1.688,0.864-1.766,1.719c-0.002,0.001,0,0,0,0.003C1.693,5.469,1.504,5.6,1.504,5.694c0,0.488,0.091,0.909,0.25,0.96
		c0.135,0.043,0.154,0.698,0.492,1.162c0.266,0.361,0.641,0.817,1.069,0.887c0.051,0.011,0.317,0.011,0.367,0
		c0.431-0.07,0.806-0.526,1.07-0.887c0.046-0.062,0.086-0.128,0.121-0.194c-0.134-0.33-0.22-0.64-0.286-0.882
		C4.586,6.736,4.586,6.732,4.584,6.729z"/>
	<path d="M2.862,10.359c0.61-0.232,1.409-0.537,2.081-0.943C4.778,9.252,4.62,8.853,4.62,8.853L3.5,9.624L2.38,8.854
		c0,0-0.185,0.445-0.358,0.589C1.362,9.926,0.5,10.203,0,10.404V13h0.25c0.248-0.75,0.597-1.383,1.067-1.839
		C1.671,10.821,2.146,10.633,2.862,10.359z"/>
</g>
</svg>
