<?xml version="1.0" encoding="utf-8"?>
<!-- Generator: Adobe Illustrator 16.0.4, SVG Export Plug-In . SVG Version: 6.00 Build 0)  -->
<!DOCTYPE svg PUBLIC "-//W3C//DTD SVG 1.1//EN" "http://www.w3.org/Graphics/SVG/1.1/DTD/svg11.dtd">
<svg version="1.1" id="artwork" xmlns="http://www.w3.org/2000/svg" xmlns:xlink="http://www.w3.org/1999/xlink" x="0px" y="0px"
	 width="16px" height="16px" viewBox="0 0 16 16" enable-background="new 0 0 16 16" xml:space="preserve">
<g>
	<path fill="#3D464D" d="M8.5,0C5.406,0,2.898,2.508,2.898,5.602C2.898,10.3,8.539,15,8.539,15s5.563-4.7,5.563-9.398
		C14.102,2.508,11.594,0,8.5,0z M10,3L9.25,6.5h-1.5L7,3H10z M8.483,10.202c-0.689,0-1.249-0.559-1.249-1.248
		c0-0.688,0.559-1.248,1.249-1.248c0.688,0,1.248,0.56,1.248,1.248C9.73,9.644,9.171,10.202,8.483,10.202z"/>
</g>
</svg>
