<?xml version="1.0" encoding="utf-8"?>
<!-- Generator: Adobe Illustrator 16.0.4, SVG Export Plug-In . SVG Version: 6.00 Build 0)  -->
<!DOCTYPE svg PUBLIC "-//W3C//DTD SVG 1.1//EN" "http://www.w3.org/Graphics/SVG/1.1/DTD/svg11.dtd">
<svg version="1.1" id="artwork" xmlns="http://www.w3.org/2000/svg" xmlns:xlink="http://www.w3.org/1999/xlink" x="0px" y="0px"
	 width="16px" height="16px" viewBox="0 0 16 16" enable-background="new 0 0 16 16" xml:space="preserve">
<path fill="#3D464D" d="M5.015,6.205c0.23,0.074,0.263,1.194,0.841,1.988C6.31,8.81,6.951,9.59,7.685,9.71
	c0.087,0.018,0.542,0.018,0.629,0c0.735-0.12,1.376-0.9,1.829-1.517c0.582-0.794,0.611-1.914,0.842-1.988
	c0.273-0.087,0.428-0.812,0.428-1.646c0-0.162-0.325-0.388-0.355-0.533c0-0.004,0.002-0.008,0.002-0.011
	c-0.134-1.462-1.432-2.953-3.02-2.953c0,0-0.002,0-0.005,0s-0.003,0-0.003,0c-0.011,0-0.022,0.001-0.03,0.001
	c-0.011,0-0.021-0.001-0.03-0.001c0,0-0.004,0-0.006,0H7.961c-1.589,0-2.887,1.491-3.021,2.953C4.938,4.019,4.94,4.023,4.94,4.027
	C4.911,4.172,4.588,4.398,4.588,4.56C4.588,5.394,4.741,6.118,5.015,6.205z"/>
<g>
	<path fill="#3D464D" d="M14.631,12.958c-0.395-0.379-2.568-0.849-4.117-1.987c-0.299-0.245-0.6-1.008-0.6-1.008l-1.915,1.318
		L6.085,9.965c0,0-0.3,0.763-0.599,1.007c-1.549,1.138-3.724,1.607-4.117,1.987c-0.717,0.695-0.977,2.017-1.09,3.031h15.441
		C15.607,14.976,15.349,13.653,14.631,12.958z"/>
</g>
</svg>
