<?xml version="1.0" encoding="utf-8"?>
<!-- Generator: Adobe Illustrator 16.0.4, SVG Export Plug-In . SVG Version: 6.00 Build 0)  -->
<!DOCTYPE svg PUBLIC "-//W3C//DTD SVG 1.1//EN" "http://www.w3.org/Graphics/SVG/1.1/DTD/svg11.dtd">
<svg version="1.1" id="Layer_1" xmlns="http://www.w3.org/2000/svg" xmlns:xlink="http://www.w3.org/1999/xlink" x="0px" y="0px"
	 width="16px" height="16px" viewBox="0 0 16 16" enable-background="new 0 0 16 16" xml:space="preserve">
<g>
	<defs>
		<rect id="SVGID_1_" width="16" height="16"/>
	</defs>
	<clipPath id="SVGID_2_">
		<use xlink:href="#SVGID_1_"  overflow="visible"/>
	</clipPath>
	<path clip-path="url(#SVGID_2_)" d="M8,0.812c-3.97,0-7.187,3.218-7.187,7.187c0,3.045,1.894,5.646,4.568,6.693
		c-0.063-0.568-0.12-1.441,0.025-2.062c0.13-0.56,0.843-3.572,0.843-3.572s-0.216-0.43-0.216-1.066c0-1,0.58-1.746,1.301-1.746
		c0.613,0,0.909,0.461,0.909,1.013c0,0.617-0.392,1.538-0.595,2.393c-0.169,0.716,0.359,1.299,1.065,1.299
		c1.277,0,2.259-1.347,2.259-3.292c0-1.721-1.236-2.924-3.001-2.924c-2.045,0-3.246,1.535-3.246,3.119
		c0,0.618,0.238,1.28,0.535,1.641c0.059,0.071,0.067,0.133,0.05,0.205c-0.055,0.228-0.176,0.716-0.2,0.815
		c-0.031,0.132-0.104,0.159-0.24,0.097C3.971,10.193,3.41,8.881,3.41,7.826c0-2.267,1.647-4.348,4.749-4.348
		c2.493,0,4.431,1.776,4.431,4.15c0,2.478-1.562,4.47-3.729,4.47c-0.729,0-1.414-0.378-1.647-0.824c0,0-0.36,1.373-0.448,1.709
		c-0.162,0.625-0.6,1.406-0.893,1.885c0.672,0.208,1.387,0.32,2.128,0.32c3.969,0,7.187-3.219,7.187-7.188
		C15.187,4.03,11.969,0.812,8,0.812"/>
</g>
</svg>
