<?xml version="1.0" encoding="utf-8"?>
<!-- Generator: Adobe Illustrator 16.0.4, SVG Export Plug-In . SVG Version: 6.00 Build 0)  -->
<!DOCTYPE svg PUBLIC "-//W3C//DTD SVG 1.1//EN" "http://www.w3.org/Graphics/SVG/1.1/DTD/svg11.dtd">
<svg version="1.1" id="artwork" xmlns="http://www.w3.org/2000/svg" xmlns:xlink="http://www.w3.org/1999/xlink" x="0px" y="0px"
	 width="16px" height="16px" viewBox="0 0 16 16" enable-background="new 0 0 16 16" xml:space="preserve">
<g>
	<path d="M12.203,9.719c-0.29-0.285-0.77-0.273-1.07,0.025l-0.295,0.295l-0.417,0.41
		c-0.808,0.807-2.084,0.836-2.854,0.068L7.218,10.17l-1.74-1.74C4.709,7.658,4.74,6.383,5.547,5.574l0.235-0.229l0.181-0.18
		l0.295-0.297c0.301-0.301,0.311-0.781,0.023-1.07L4.192,1.711C3.904,1.424,3.426,1.434,3.123,1.736l-0.47,0.529
		C2.104,2.814,1.717,3.529,1.618,4.148c-0.246,1.535,0.655,4.477,3.224,7.045c0.004,0.004,0.01,0.008,0.014,0.012
		c0.003,0.004,0.007,0.01,0.012,0.014c2.568,2.568,5.511,3.471,7.045,3.225c0.619-0.098,1.335-0.486,1.883-1.033l0.472-0.531
		c0.301-0.303,0.312-0.781,0.023-1.07L12.203,9.719z"/>
	<path d="M12.203,9.719c-0.29-0.285-0.77-0.273-1.07,0.025l-0.295,0.295l-0.417,0.41
		c-0.808,0.807-2.084,0.836-2.854,0.068L7.218,10.17l-1.74-1.74C4.709,7.658,4.74,6.383,5.547,5.574l0.235-0.229l0.181-0.18
		l0.295-0.297c0.301-0.301,0.311-0.781,0.023-1.07L4.192,1.711C3.904,1.424,3.426,1.434,3.123,1.736l-0.47,0.529
		C2.104,2.814,1.717,3.529,1.618,4.148c-0.246,1.535,0.655,4.477,3.224,7.045c0.004,0.004,0.01,0.008,0.014,0.012
		c0.003,0.004,0.007,0.01,0.012,0.014c2.568,2.568,5.511,3.471,7.045,3.225c0.619-0.098,1.335-0.486,1.883-1.033l0.472-0.531
		c0.301-0.303,0.312-0.781,0.023-1.07L12.203,9.719z"/>
	<path d="M13.221,2.906c-0.326-1.742-1.341-1.842-1.652-1.84c-0.022,0-0.117,0-0.139,0
		c-0.311-0.002-1.326,0.098-1.652,1.84c0,0-0.404,2.125-1.779,2.135V6h7V5.041C13.625,5.031,13.221,2.906,13.221,2.906z"/>
	<path d="M11.5,8.199c0.668,0,1.209-0.535,1.223-1.199h-2.445C10.291,7.664,10.832,8.199,11.5,8.199z"/>
</g>
</svg>
