<?xml version="1.0" encoding="utf-8"?>
<!-- Generator: Adobe Illustrator 16.0.4, SVG Export Plug-In . SVG Version: 6.00 Build 0)  -->
<!DOCTYPE svg PUBLIC "-//W3C//DTD SVG 1.1//EN" "http://www.w3.org/Graphics/SVG/1.1/DTD/svg11.dtd">
<svg version="1.1" id="artwork" xmlns="http://www.w3.org/2000/svg" xmlns:xlink="http://www.w3.org/1999/xlink" x="0px" y="0px"
	 width="16px" height="16px" viewBox="0 0 16 16" enable-background="new 0 0 16 16" xml:space="preserve">
<g>
	<path d="M14.291,11.809l-2.088-2.09c-0.29-0.285-0.77-0.273-1.07,0.026l-0.295,0.294l-0.417,0.411
		c-0.808,0.806-2.084,0.836-2.854,0.067L7.218,10.17L5.479,8.43C4.709,7.659,4.74,6.383,5.547,5.575l0.235-0.229l0.181-0.179
		L6.258,4.87C6.559,4.568,6.568,4.089,6.281,3.8l-2.09-2.089C3.904,1.424,3.426,1.434,3.123,1.736L2.652,2.266
		C2.104,2.814,1.717,3.529,1.618,4.148c-0.246,1.535,0.655,4.478,3.224,7.045c0.004,0.005,0.01,0.009,0.014,0.012
		c0.004,0.004,0.008,0.01,0.013,0.014c2.567,2.569,5.511,3.471,7.045,3.225c0.619-0.098,1.335-0.485,1.883-1.033l0.472-0.53
		C14.568,12.577,14.579,12.098,14.291,11.809z"/>
</g>
<path d="M11.5,1.258c-1.791,0-3.243,1.451-3.243,3.242S9.709,7.742,11.5,7.742s3.242-1.451,3.242-3.242
	S13.292,1.258,11.5,1.258z M13.25,5h-0.625H11V3.5V2.75c0-0.276,0.224-0.5,0.5-0.5S12,2.474,12,2.75V3.5V4h0.625h0.625
	c0.276,0,0.5,0.224,0.5,0.5S13.526,5,13.25,5z"/>
</svg>
