<?xml version="1.0" encoding="utf-8"?>
<!-- Generator: Adobe Illustrator 16.0.4, SVG Export Plug-In . SVG Version: 6.00 Build 0)  -->
<!DOCTYPE svg PUBLIC "-//W3C//DTD SVG 1.1//EN" "http://www.w3.org/Graphics/SVG/1.1/DTD/svg11.dtd">
<svg version="1.1" id="artwork" xmlns="http://www.w3.org/2000/svg" xmlns:xlink="http://www.w3.org/1999/xlink" x="0px" y="0px"
	 width="16px" height="16px" viewBox="0 0 16 16" enable-background="new 0 0 16 16" xml:space="preserve">
<g>
	<path fill="#3D464D" d="M14.291,11.809l-2.088-2.09c-0.29-0.285-0.77-0.273-1.07,0.025l-0.295,0.295l-0.417,0.41
		c-0.808,0.807-2.084,0.836-2.854,0.068L7.218,10.17l-1.74-1.74C4.709,7.658,4.74,6.383,5.547,5.574l0.235-0.229l0.181-0.18
		l0.295-0.297c0.301-0.301,0.311-0.781,0.023-1.07L4.192,1.711C3.904,1.424,3.426,1.434,3.123,1.736l-0.47,0.529
		C2.104,2.814,1.717,3.529,1.618,4.148c-0.246,1.535,0.655,4.477,3.224,7.045c0.004,0.004,0.01,0.008,0.014,0.012
		c0.003,0.004,0.007,0.01,0.012,0.014c2.568,2.568,5.511,3.471,7.045,3.225c0.619-0.098,1.335-0.486,1.883-1.033l0.472-0.531
		C14.568,12.576,14.579,12.098,14.291,11.809z"/>
	<polygon fill="#3D464D" points="14,2 14,1 13.5,1 13,1 13,2 13.5,2 	"/>
	<polygon fill="#3D464D" points="14,4 14,3 13.5,3 13,3 13,4 13.5,4 	"/>
	<polygon fill="#3D464D" points="14,6 14,5 13.5,5 13,5 13,6 13.5,6 	"/>
	<polygon fill="#3D464D" points="12,2 12,1 11.5,1 11,1 11,2 11.5,2 	"/>
	<polygon fill="#3D464D" points="12,4 12,3 11.5,3 11,3 11,4 11.5,4 	"/>
	<polygon fill="#3D464D" points="12,6 12,5 11.5,5 11,5 11,6 11.5,6 	"/>
	<polygon fill="#3D464D" points="12,8 12,7 11.5,7 11,7 11,8 11.5,8 	"/>
	<polygon fill="#3D464D" points="10,2 10,1 9.5,1 9,1 9,2 9.5,2 	"/>
	<polygon fill="#3D464D" points="10,4 10,3 9.5,3 9,3 9,4 9.5,4 	"/>
	<polygon fill="#3D464D" points="10,6 10,5 9.5,5 9,5 9,6 9.5,6 	"/>
</g>
</svg>
