<?xml version="1.0" encoding="utf-8"?>
<!-- Generator: Adobe Illustrator 16.0.4, SVG Export Plug-In . SVG Version: 6.00 Build 0)  -->
<!DOCTYPE svg PUBLIC "-//W3C//DTD SVG 1.1//EN" "http://www.w3.org/Graphics/SVG/1.1/DTD/svg11.dtd">
<svg version="1.1" id="artwork" xmlns="http://www.w3.org/2000/svg" xmlns:xlink="http://www.w3.org/1999/xlink" x="0px" y="0px"
	 width="16px" height="16px" viewBox="0 0 16 16" enable-background="new 0 0 16 16" xml:space="preserve">
<g>
	<rect x="5" y="5" width="6" height="1"/>
	<rect x="5" y="7" width="6" height="1"/>
	<rect x="5" y="9" width="6" height="1"/>
	<rect x="5" y="11" width="4" height="1"/>
	<path d="M13,2H3C2.448,2,2,2.447,2,3v12c0,0.553,0.448,1,1,1h10c0.552,0,1-0.447,1-1V3C14,2.447,13.552,2,13,2z
		 M13,15H3V3h10V15z"/>
	<path d="M12,1c0-0.553-0.448-1-1-1H1C0.448,0,0,0.447,0,1v12c0,0.553,0.448,1,1,1v-1V1h10H12z"/>
</g>
</svg>
