<?xml version="1.0" encoding="iso-8859-1"?>
<!-- Generator: Adobe Illustrator 16.0.4, SVG Export Plug-In . SVG Version: 6.00 Build 0)  -->
<!DOCTYPE svg PUBLIC "-//W3C//DTD SVG 1.1//EN" "http://www.w3.org/Graphics/SVG/1.1/DTD/svg11.dtd">
<svg version="1.1" id="artwork" xmlns="http://www.w3.org/2000/svg" xmlns:xlink="http://www.w3.org/1999/xlink" x="0px" y="0px"
	 width="16px" height="16px" viewBox="0 0 16 16" style="enable-background:new 0 0 16 16;" xml:space="preserve">
<g>
	<polygon style="fill:#3D464D;" points="2.861,11.725 1.103,14.916 4.275,13.139 6.043,11.371 4.629,9.957 	"/>
	<path style="fill:#3D464D;" d="M14.882,6.07l-4.95-4.952c-0.195-0.194-0.511-0.194-0.707,0c-0.195,0.195-0.195,0.512,0,0.708
		L9.87,2.471L5.256,6.342L4.248,5.334c-0.391-0.391-1.024-0.391-1.415,0c-0.39,0.391-0.39,1.023,0,1.413l6.418,6.419
		c0.391,0.391,1.024,0.391,1.414,0c0.391-0.391,0.391-1.023,0-1.414l-1.008-1.008l3.871-4.612l0.645,0.644
		c0.195,0.195,0.512,0.195,0.707,0S15.077,6.265,14.882,6.07z"/>
</g>
</svg>
