<?xml version="1.0" encoding="utf-8"?>
<!-- Generator: Adobe Illustrator 16.0.4, SVG Export Plug-In . SVG Version: 6.00 Build 0)  -->
<!DOCTYPE svg PUBLIC "-//W3C//DTD SVG 1.1//EN" "http://www.w3.org/Graphics/SVG/1.1/DTD/svg11.dtd">
<svg version="1.1" id="artwork" xmlns="http://www.w3.org/2000/svg" xmlns:xlink="http://www.w3.org/1999/xlink" x="0px" y="0px"
	 width="16px" height="16px" viewBox="0 0 16 16" enable-background="new 0 0 16 16" xml:space="preserve">
<g>
	<polygon points="12.166,1.748 11.514,2.4 13.096,4 8,4 8,5 13.096,5 11.514,6.598 12.166,7.249 14.897,4.498 	"/>
</g>
<path d="M14.291,11.809l-2.088-2.09c-0.29-0.285-0.77-0.273-1.07,0.026l-0.295,0.294l-0.417,0.411
	c-0.808,0.806-2.084,0.836-2.854,0.067L7.218,10.17l-1.74-1.74C4.709,7.659,4.74,6.383,5.547,5.575l0.235-0.229l0.181-0.179
	L6.258,4.87C6.559,4.568,6.569,4.089,6.281,3.8L4.192,1.711C3.904,1.424,3.426,1.434,3.123,1.736l-0.47,0.529
	C2.104,2.814,1.717,3.529,1.618,4.148c-0.246,1.535,0.655,4.478,3.224,7.045c0.004,0.005,0.01,0.009,0.014,0.012
	c0.003,0.004,0.007,0.01,0.012,0.014c2.568,2.569,5.511,3.471,7.045,3.225c0.619-0.098,1.335-0.485,1.883-1.033l0.472-0.53
	C14.568,12.577,14.579,12.098,14.291,11.809z"/>
</svg>
