<?xml version="1.0" encoding="utf-8"?>
<!-- Generator: Adobe Illustrator 16.0.4, SVG Export Plug-In . SVG Version: 6.00 Build 0)  -->
<!DOCTYPE svg PUBLIC "-//W3C//DTD SVG 1.1//EN" "http://www.w3.org/Graphics/SVG/1.1/DTD/svg11.dtd">
<svg version="1.1" id="artwork" xmlns="http://www.w3.org/2000/svg" xmlns:xlink="http://www.w3.org/1999/xlink" x="0px" y="0px"
	 width="16px" height="16px" viewBox="0 0 16 16" enable-background="new 0 0 16 16" xml:space="preserve">
<g>
	<rect x="4" y="3" width="6" height="1"/>
	<path d="M4,10h1.654c0.038-0.346,0.109-0.68,0.217-1H4V10z"/>
	<path d="M7.113,7H4v1h2.327C6.549,7.635,6.807,7.296,7.113,7z"/>
	<path d="M10,5.66V5H4v1h4.607C9.041,5.814,9.514,5.714,10,5.66z"/>
	<path d="M2,13V1h10v4.851c0.353,0.11,0.686,0.255,1,0.437V1c0-0.553-0.447-1-1-1H2C1.447,0,1,0.447,1,1v12
		c0,0.553,0.447,1,1,1h5.016c-0.291-0.297-0.529-0.639-0.739-1H2z"/>
	<path d="M15.762,14.568l-1.083-1.112c-0.188-0.188-0.444-0.251-0.689-0.216l-0.675-0.676
		c0.414-0.568,0.666-1.262,0.666-2.019c0-1.896-1.543-3.44-3.441-3.44c-1.897,0-3.44,1.545-3.44,3.44
		c0,1.899,1.543,3.442,3.44,3.442c0.76,0,1.457-0.255,2.026-0.674l0.694,0.694c-0.02,0.229,0.049,0.466,0.225,0.642l1.084,1.111
		c0.318,0.318,0.836,0.318,1.154,0c0.006-0.007,0.008-0.018,0.016-0.023c0.007-0.006,0.016-0.01,0.023-0.016
		C16.079,15.404,16.079,14.889,15.762,14.568z M10.539,12.776c-1.229,0-2.23-1.001-2.23-2.23c0-1.229,1.002-2.23,2.23-2.23
		s2.23,1.002,2.23,2.23C12.77,11.775,11.768,12.776,10.539,12.776z"/>
</g>
</svg>
