<?xml version="1.0" encoding="iso-8859-1"?>
<!-- Generator: Adobe Illustrator 16.0.4, SVG Export Plug-In . SVG Version: 6.00 Build 0)  -->
<!DOCTYPE svg PUBLIC "-//W3C//DTD SVG 1.1//EN" "http://www.w3.org/Graphics/SVG/1.1/DTD/svg11.dtd">
<svg version="1.1" id="artwork" xmlns="http://www.w3.org/2000/svg" xmlns:xlink="http://www.w3.org/1999/xlink" x="0px" y="0px"
	 width="16px" height="16px" viewBox="0 0 16 16" style="enable-background:new 0 0 16 16;" xml:space="preserve">
<path style="fill:#3D464D;" d="M8.956,11.278c1.601-1.292,2.04-2.557,2.117-3.425c-0.226,0.132-0.482,0.212-0.759,0.212
	c-0.864,0-1.563-0.727-1.563-1.623c0-0.897,0.699-1.624,1.563-1.624c0.195,0,0.375,0.051,0.545,0.12l-0.006-0.013
	c0,0,0.075,0.027,0.18,0.086c0.005,0.003,0.011,0.004,0.016,0.007c0.003,0.002,0.005,0.004,0.008,0.006
	c0.072,0.042,0.155,0.097,0.247,0.175c0.04,0.034,0.072,0.074,0.108,0.11c0.385,0.384,0.808,1.114,0.696,2.507
	c-0.065,1.089-0.557,2.719-2.523,4.306L8.956,11.278z M4.206,11.278c1.601-1.292,2.04-2.557,2.117-3.425
	C6.097,7.985,5.841,8.065,5.564,8.065c-0.864,0-1.563-0.727-1.563-1.623c0-0.897,0.699-1.624,1.563-1.624
	c0.195,0,0.375,0.051,0.545,0.12L6.103,4.926c0,0,0.075,0.027,0.18,0.086c0.005,0.003,0.011,0.004,0.016,0.007
	c0.003,0.002,0.005,0.004,0.008,0.006C6.38,5.066,6.463,5.121,6.555,5.199c0.04,0.034,0.072,0.074,0.108,0.11
	c0.385,0.384,0.808,1.114,0.696,2.507c-0.065,1.089-0.557,2.719-2.523,4.306L4.206,11.278z M8,1C4.134,1,1,4.134,1,8s3.134,7,7,7
	s7-3.134,7-7S11.866,1,8,1"/>
</svg>
