<?xml version="1.0" encoding="utf-8"?>
<!-- Generator: Adobe Illustrator 16.0.4, SVG Export Plug-In . SVG Version: 6.00 Build 0)  -->
<!DOCTYPE svg PUBLIC "-//W3C//DTD SVG 1.1//EN" "http://www.w3.org/Graphics/SVG/1.1/DTD/svg11.dtd">
<svg version="1.1" id="artwork" xmlns="http://www.w3.org/2000/svg" xmlns:xlink="http://www.w3.org/1999/xlink" x="0px" y="0px"
	 width="16px" height="16px" viewBox="0 0 16 16" enable-background="new 0 0 16 16" xml:space="preserve">
<g>
	<path d="M14,1H2C1.448,1,1,1.447,1,2v12c0,0.553,0.448,1,1,1h12c0.552,0,1-0.447,1-1V2C15,1.447,14.552,1,14,1z
		 M4,13.437c-0.792,0-1.436-0.643-1.436-1.437S3.207,10.563,4,10.563c0.793,0,1.437,0.643,1.437,1.437S4.793,13.437,4,13.437z
		 M7.862,13.5c0-3-2.362-5.362-5.362-5.362V6.28c4,0,7.22,3.22,7.22,7.22H7.862z M11.577,13.5c0-5-4.077-9.077-9.077-9.077V2.565
		c6,0,10.934,4.935,10.934,10.935H11.577z"/>
</g>
</svg>
