<?xml version="1.0" encoding="iso-8859-1"?>
<!-- Generator: Adobe Illustrator 16.0.4, SVG Export Plug-In . SVG Version: 6.00 Build 0)  -->
<!DOCTYPE svg PUBLIC "-//W3C//DTD SVG 1.1//EN" "http://www.w3.org/Graphics/SVG/1.1/DTD/svg11.dtd">
<svg version="1.1" id="artwork" xmlns="http://www.w3.org/2000/svg" xmlns:xlink="http://www.w3.org/1999/xlink" x="0px" y="0px"
	 width="16px" height="16px" viewBox="0 0 16 16" style="enable-background:new 0 0 16 16;" xml:space="preserve">
<g>
	<g>
		<path style="fill-rule:evenodd;clip-rule:evenodd;fill:#3D464D;" d="M8,3.062C5.239,3.062,3,5.273,3,8s2.239,4.938,5,4.938
			c2.762,0,5-2.211,5-4.938S10.762,3.062,8,3.062z M8,12.062c-2.209,0-4-1.791-4-4s1.791-4,4-4s4,1.791,4,4S10.209,12.062,8,12.062z
			 M8,5.262c-1.546,0-2.8,1.254-2.8,2.801s1.253,2.801,2.8,2.801s2.8-1.254,2.8-2.801S9.546,5.262,8,5.262z"/>
	</g>
</g>
</svg>
