<?xml version="1.0" encoding="utf-8"?>
<!-- Generator: Adobe Illustrator 16.0.4, SVG Export Plug-In . SVG Version: 6.00 Build 0)  -->
<!DOCTYPE svg PUBLIC "-//W3C//DTD SVG 1.1//EN" "http://www.w3.org/Graphics/SVG/1.1/DTD/svg11.dtd">
<svg version="1.1" id="artwork" xmlns="http://www.w3.org/2000/svg" xmlns:xlink="http://www.w3.org/1999/xlink" x="0px" y="0px"
	 width="16px" height="16px" viewBox="0 0 16 16" enable-background="new 0 0 16 16" xml:space="preserve">
<g>
	<path d="M8.5,10H10c0.553,0,1-0.447,1-1V7c0-0.553-0.447-1-1-1H6C5.499,6,5.084,6.369,5.012,6.85
		C5.007,6.88,5.004,6.91,5.002,6.941C5,6.961,5,6.98,5,7v0.023V9c0,0.553,0.447,1,1,1h1v1.5L8.5,10z"/>
	<path d="M5.122,3.226c2.462-1.5,5.604-0.842,7.315,1.407l0.361,0.468l-1.187,0.721
		c0.176,0.24,0.3,0.521,0.354,0.825l4.025,2.141l-0.004-5.64l-1.576,1.004l-0.365-0.497c-2.245-3.128-6.551-4.052-9.891-2.021
		c-1.479,0.9-2.525,2.234-3.088,3.738l1.688,0.859C3.158,5.023,3.949,3.939,5.122,3.226z"/>
	<path d="M10.896,12.776c-2.463,1.498-5.606,0.842-7.315-1.407l-0.357-0.474l1.171-0.71
		c-0.181-0.244-0.308-0.529-0.361-0.84L0.008,7.204l0.02,5.65l1.596-0.993l0.346,0.484c2.246,3.129,6.552,4.053,9.893,2.02
		c1.477-0.899,2.523-2.233,3.087-3.737L13.26,9.771C12.858,10.977,12.068,12.062,10.896,12.776z"/>
</g>
</svg>
