<?xml version="1.0" encoding="iso-8859-1"?>
<!-- Generator: Adobe Illustrator 16.0.4, SVG Export Plug-In . SVG Version: 6.00 Build 0)  -->
<!DOCTYPE svg PUBLIC "-//W3C//DTD SVG 1.1//EN" "http://www.w3.org/Graphics/SVG/1.1/DTD/svg11.dtd">
<svg version="1.1" id="artwork" xmlns="http://www.w3.org/2000/svg" xmlns:xlink="http://www.w3.org/1999/xlink" x="0px" y="0px"
	 width="16px" height="16px" viewBox="0 0 16 16" style="enable-background:new 0 0 16 16;" xml:space="preserve">
<path style="fill:#3D464D;" d="M10.055,6.991l2.459,0.828C12.552,8.476,13.084,9,13.75,9C14.44,9,15,8.44,15,7.75
	S14.44,6.5,13.75,6.5c-0.351,0-0.667,0.146-0.894,0.38l-1.791-0.603l2.069-1.462C13.319,4.922,13.521,5,13.75,5
	C14.44,5,15,4.44,15,3.75S14.44,2.5,13.75,2.5S12.5,3.06,12.5,3.75c0,0.09,0.033,0.169,0.051,0.253L9.893,5.881L3.495,3.726
	C3.481,3.047,2.932,2.5,2.25,2.5C1.56,2.5,1,3.06,1,3.75S1.56,5,2.25,5c0.334,0,0.635-0.136,0.859-0.35l5.772,1.945L6.06,8.59
	L3.495,7.726C3.481,7.047,2.932,6.5,2.25,6.5C1.56,6.5,1,7.06,1,7.75S1.56,9,2.25,9c0.334,0,0.635-0.136,0.859-0.35l1.939,0.653
	l-2.066,1.46C2.774,10.609,2.529,10.5,2.25,10.5C1.56,10.5,1,11.06,1,11.75S1.56,13,2.25,13s1.25-0.56,1.25-1.25
	c0-0.039-0.019-0.073-0.022-0.111l2.744-1.939l6.292,2.12C12.552,12.476,13.084,13,13.75,13c0.69,0,1.25-0.56,1.25-1.25
	s-0.56-1.25-1.25-1.25c-0.351,0-0.667,0.146-0.894,0.38L7.233,8.985L10.055,6.991z"/>
</svg>
