<?xml version="1.0" encoding="utf-8"?>
<!-- Generator: Adobe Illustrator 16.0.4, SVG Export Plug-In . SVG Version: 6.00 Build 0)  -->
<!DOCTYPE svg PUBLIC "-//W3C//DTD SVG 1.1//EN" "http://www.w3.org/Graphics/SVG/1.1/DTD/svg11.dtd">
<svg version="1.1" id="artwork" xmlns="http://www.w3.org/2000/svg" xmlns:xlink="http://www.w3.org/1999/xlink" x="0px" y="0px"
	 width="16px" height="16px" viewBox="0 0 16 16" enable-background="new 0 0 16 16" xml:space="preserve">
<g>
	<g>
		<path fill="#3D464D" d="M14.413,4.151l-0.365-0.497c-2.246-3.128-6.551-4.052-9.892-2.021c-1.479,0.9-2.524,2.234-3.087,3.738
			l1.688,0.859c0.402-1.208,1.193-2.292,2.366-3.006c2.462-1.5,5.604-0.842,7.315,1.407l0.362,0.468l-1.745,1.061l4.938,2.626
			l-0.003-5.64L14.413,4.151z"/>
	</g>
	<g>
		<path fill="#3D464D" d="M14.948,10.628l-1.689-0.857c-0.401,1.206-1.191,2.291-2.364,3.006c-2.463,1.498-5.606,0.842-7.315-1.407
			l-0.357-0.474l1.74-1.055L0.008,7.204l0.019,5.65l1.596-0.993l0.345,0.484c2.246,3.129,6.552,4.053,9.894,2.02
			C13.338,13.466,14.385,12.132,14.948,10.628z"/>
	</g>
</g>
</svg>
