<?xml version="1.0" encoding="utf-8"?>
<!-- Generator: Adobe Illustrator 16.0.4, SVG Export Plug-In . SVG Version: 6.00 Build 0)  -->
<!DOCTYPE svg PUBLIC "-//W3C//DTD SVG 1.1//EN" "http://www.w3.org/Graphics/SVG/1.1/DTD/svg11.dtd">
<svg version="1.1" id="artwork" xmlns="http://www.w3.org/2000/svg" xmlns:xlink="http://www.w3.org/1999/xlink" x="0px" y="0px"
	 width="16px" height="16px" viewBox="0 0 16 16" enable-background="new 0 0 16 16" xml:space="preserve">
<g>
	<path d="M6,10.25v0.117c0,0.484,0.142,0.865,0.538,1.143c0.396,0.277,0.843,0.416,1.399,0.416
		c0.689,0,1.202-0.18,1.537-0.536s0.503-0.815,0.503-1.372c0-0.604-0.154-1.076-0.462-1.41C9.205,8.272,8.77,8.104,8.208,8.112
		C8.006,8.117,7.819,8.137,7.648,8.188C7.541,8.219,7.45,8.252,7.366,8.289L7.518,7H9.75V6H6.469L6.062,9.25h1.147
		C7.254,9.181,7.31,9.117,7.376,9.074C7.5,8.994,7.833,8.953,8.065,8.953c0.282,0,0.556,0.098,0.7,0.291
		c0.144,0.194,0.217,0.455,0.217,0.783s-0.064,0.581-0.195,0.758c-0.132,0.178-0.468,0.266-0.756,0.266
		c-0.247,0-0.523-0.066-0.675-0.199c-0.153-0.133-0.213-0.317-0.213-0.555l0.002-0.046L6,10.25z"/>
	<path d="M10,2.084V0.047L6,2.463l0-2.416L1.588,2.712L6,5.328l0-2.372l4,2.372V3.921
		c1.82,0.773,3.105,2.543,3.105,4.646c0,2.816-2.284,5.098-5.105,5.098c-2.671,0-4.838-2.055-5.062-4.664H1.214
		C1.44,12.552,4.388,15.363,8,15.363c3.761,0,6.808-3.043,6.808-6.799C14.806,5.509,12.78,2.936,10,2.084z"/>
</g>
</svg>
