<?xml version="1.0" encoding="utf-8"?>
<!-- Generator: Adobe Illustrator 16.0.4, SVG Export Plug-In . SVG Version: 6.00 Build 0)  -->
<!DOCTYPE svg PUBLIC "-//W3C//DTD SVG 1.1//EN" "http://www.w3.org/Graphics/SVG/1.1/DTD/svg11.dtd">
<svg version="1.1" id="artwork" xmlns="http://www.w3.org/2000/svg" xmlns:xlink="http://www.w3.org/1999/xlink" x="0px" y="0px"
	 width="16px" height="16px" viewBox="0 0 16 16" enable-background="new 0 0 16 16" xml:space="preserve">
<path fill="#3D464D" d="M7.475,1.799l0.543-0.066L8,0.04l4.422,2.672L8.008,5.329l0.004-1.9l-0.54,0.093
	C4.902,3.788,2.895,5.93,2.895,8.566c0,2.816,2.284,5.098,5.105,5.098c2.819,0,5.105-2.281,5.105-5.098
	c0-1.129-0.368-2.174-0.991-3.018l-0.125-0.184l1.374-0.986c0.904,1.154,1.444,2.606,1.444,4.186c0,3.756-3.049,6.799-6.808,6.799
	c-3.761,0-6.808-3.043-6.808-6.799C1.194,4.989,3.963,2.066,7.475,1.799z"/>
</svg>
