<?xml version="1.0" encoding="utf-8"?>
<!-- Generator: Adobe Illustrator 16.0.4, SVG Export Plug-In . SVG Version: 6.00 Build 0)  -->
<!DOCTYPE svg PUBLIC "-//W3C//DTD SVG 1.1//EN" "http://www.w3.org/Graphics/SVG/1.1/DTD/svg11.dtd">
<svg version="1.1" id="artwork" xmlns="http://www.w3.org/2000/svg" xmlns:xlink="http://www.w3.org/1999/xlink" x="0px" y="0px"
	 width="16px" height="16px" viewBox="0 0 16 16" enable-background="new 0 0 16 16" xml:space="preserve">
<path d="M8.525,1.799L7.982,1.732L8,0.04L3.578,2.712l4.414,2.617l-0.004-1.9l0.54,0.093
	c2.569,0.267,4.577,2.408,4.577,5.045c0,2.816-2.284,5.098-5.105,5.098c-2.819,0-5.105-2.281-5.105-5.098
	c0-1.129,0.368-2.174,0.991-3.018l0.125-0.184L2.637,4.379C1.732,5.533,1.192,6.985,1.192,8.564c0,3.756,3.049,6.799,6.808,6.799
	c3.761,0,6.808-3.043,6.808-6.799C14.806,4.989,12.037,2.066,8.525,1.799z"/>
<circle cx="8.001" cy="8.5" r="1.494"/>
</svg>
