<?xml version="1.0" encoding="utf-8"?>
<!-- Generator: Adobe Illustrator 16.0.4, SVG Export Plug-In . SVG Version: 6.00 Build 0)  -->
<!DOCTYPE svg PUBLIC "-//W3C//DTD SVG 1.1//EN" "http://www.w3.org/Graphics/SVG/1.1/DTD/svg11.dtd">
<svg version="1.1" id="artwork" xmlns="http://www.w3.org/2000/svg" xmlns:xlink="http://www.w3.org/1999/xlink" x="0px" y="0px"
	 width="16px" height="16px" viewBox="0 0 16 16" enable-background="new 0 0 16 16" xml:space="preserve">
<g>
	<polygon fill="#3D464D" points="9,16 10.406,16 9,14.595 	"/>
	<g>
		<polygon fill="#3D464D" points="11.133,9.988 15,6 10,6 8,1 6,6 1,6 5,10 3,15 8,12 9.004,12.603 11.265,10.342 		"/>
	</g>
	<path fill="#3D464D" d="M15.269,10.085l-0.354-0.354c-0.293-0.293-0.767-0.293-1.06,0c-0.057,0.057-4.14,4.139-4.14,4.139
		l1.414,1.414c0,0,4.077-4.076,4.139-4.139C15.562,10.853,15.562,10.378,15.269,10.085z"/>
</g>
</svg>
