<?xml version="1.0" encoding="utf-8"?>
<!-- Generator: Adobe Illustrator 16.0.4, SVG Export Plug-In . SVG Version: 6.00 Build 0)  -->
<!DOCTYPE svg PUBLIC "-//W3C//DTD SVG 1.1//EN" "http://www.w3.org/Graphics/SVG/1.1/DTD/svg11.dtd">
<svg version="1.1" id="artwork" xmlns="http://www.w3.org/2000/svg" xmlns:xlink="http://www.w3.org/1999/xlink" x="0px" y="0px"
	 width="16px" height="16px" viewBox="0 0 16 16" enable-background="new 0 0 16 16" xml:space="preserve">
<path fill="#3D464D" d="M13.951,9.713l-1.046-0.945c-0.001-0.001-0.003-0.003-0.004-0.005h0c-0.001-0.002-0.003-0.004-0.004-0.006
	l0,0c-0.01-0.011-0.016-0.019-0.025-0.029C12.908,8.49,12.93,8.248,12.93,8c0-0.247-0.022-0.489-0.059-0.727
	c0.009-0.01,0.015-0.018,0.025-0.029l0,0c0.002-0.001,0.003-0.004,0.005-0.006v0c0.001-0.002,0.003-0.003,0.004-0.005l1.046-0.945
	c0.496-0.427,0.636-0.893,0.356-1.369l-0.539-0.919c-0.279-0.477-0.754-0.581-1.368-0.356l-1.327,0.448
	c-0.379-0.311-0.803-0.563-1.263-0.749L9.533,2c-0.118-0.644-0.448-1-1-1H7.467c-0.552,0-0.882,0.356-1,1L6.189,3.342
	C5.729,3.528,5.305,3.78,4.926,4.091L3.6,3.643c-0.614-0.225-1.089-0.12-1.368,0.356L1.692,4.918
	C1.413,5.395,1.553,5.86,2.049,6.287l1.046,0.945c0.001,0.001,0.003,0.003,0.004,0.005v0C3.101,7.24,3.102,7.242,3.104,7.244
	l0-0.001c0.01,0.011,0.016,0.019,0.025,0.029C3.092,7.51,3.07,7.752,3.07,8c0,0.248,0.022,0.49,0.059,0.728
	C3.12,8.738,3.114,8.746,3.104,8.757l0,0C3.102,8.758,3.101,8.761,3.099,8.763h0C3.098,8.765,3.096,8.767,3.095,8.768L2.049,9.713
	c-0.495,0.427-0.636,0.893-0.356,1.369l0.539,0.919c0.279,0.477,0.754,0.581,1.369,0.356l1.328-0.448
	c0.378,0.31,0.802,0.562,1.261,0.748L6.467,14c0.118,0.644,0.448,1,1,1h1.066c0.552,0,0.882-0.356,1-1l0.278-1.343
	c0.459-0.186,0.882-0.438,1.261-0.748l1.328,0.448c0.614,0.225,1.089,0.12,1.369-0.356l0.539-0.919
	C14.587,10.605,14.446,10.14,13.951,9.713z M8,10.877c-1.589,0-2.877-1.288-2.877-2.877c0-1.59,1.288-2.878,2.877-2.878
	c1.59,0,2.877,1.288,2.877,2.878C10.877,9.589,9.59,10.877,8,10.877z"/>
</svg>
