<?xml version="1.0" encoding="utf-8"?>
<!-- Generator: Adobe Illustrator 16.0.4, SVG Export Plug-In . SVG Version: 6.00 Build 0)  -->
<!DOCTYPE svg PUBLIC "-//W3C//DTD SVG 1.1//EN" "http://www.w3.org/Graphics/SVG/1.1/DTD/svg11.dtd">
<svg version="1.1" id="artwork" xmlns="http://www.w3.org/2000/svg" xmlns:xlink="http://www.w3.org/1999/xlink" x="0px" y="0px"
	 width="16px" height="16px" viewBox="0 0 16 16" enable-background="new 0 0 16 16" xml:space="preserve">
<g>
	<circle cx="10" cy="12" r="2.938"/>
	<path d="M15,11h-0.791c0.077,0.322,0.128,0.654,0.128,1s-0.051,0.678-0.128,1H15c0.552,0,1-0.448,1-1
		S15.552,11,15,11z"/>
	<path d="M1,11c-0.552,0-1,0.448-1,1s0.448,1,1,1h4.791c-0.077-0.322-0.128-0.654-0.128-1s0.051-0.678,0.128-1H1z"/>
	<circle cx="6" cy="4" r="2.938"/>
	<path d="M1,5h0.791C1.714,4.678,1.663,4.346,1.663,4s0.051-0.678,0.128-1H1C0.448,3,0,3.448,0,4S0.448,5,1,5z"/>
	<path d="M15,5c0.552,0,1-0.448,1-1s-0.448-1-1-1h-4.791c0.077,0.322,0.128,0.654,0.128,1s-0.051,0.678-0.128,1H15z"
		/>
</g>
</svg>
