<?xml version="1.0" encoding="utf-8"?>
<!-- Generator: Adobe Illustrator 16.0.4, SVG Export Plug-In . SVG Version: 6.00 Build 0)  -->
<!DOCTYPE svg PUBLIC "-//W3C//DTD SVG 1.1//EN" "http://www.w3.org/Graphics/SVG/1.1/DTD/svg11.dtd">
<svg version="1.1" id="artwork" xmlns="http://www.w3.org/2000/svg" xmlns:xlink="http://www.w3.org/1999/xlink" x="0px" y="0px"
	 width="16px" height="16px" viewBox="0 0 16 16" enable-background="new 0 0 16 16" xml:space="preserve">
<g>
	<path fill="none" d="M7.879,12.073c-0.013,0.141-0.021,0.282-0.021,0.427C7.858,12.355,7.866,12.214,7.879,12.073z"/>
	<path fill="none" d="M7.858,12.5c0,0.141,0.008,0.279,0.021,0.416C7.867,12.779,7.858,12.641,7.858,12.5z"/>
	<path fill="none" d="M7.935,11.677c-0.011,0.062-0.02,0.126-0.029,0.189C7.915,11.803,7.924,11.74,7.935,11.677z"/>
	<path fill="none" d="M8.018,11.312c-0.008,0.031-0.017,0.062-0.024,0.092C8.001,11.374,8.009,11.344,8.018,11.312z"/>
	<path d="M7.858,12.5c0-0.145,0.008-0.286,0.021-0.427c0.006-0.069,0.017-0.138,0.027-0.207
		c0.009-0.063,0.018-0.127,0.029-0.189c0.017-0.092,0.037-0.183,0.059-0.272c0.007-0.03,0.016-0.061,0.024-0.092
		c0.028-0.105,0.059-0.21,0.094-0.312H2V3h11v4.886c0.731,0.078,1.41,0.329,2,0.708V2c0-0.553-0.447-1-1-1H1C0.447,1,0,1.447,0,2v10
		c0,0.553,0.447,1,1,1h6.886c-0.003-0.027-0.004-0.056-0.007-0.084C7.866,12.779,7.858,12.641,7.858,12.5z"/>
	<path d="M7.906,11.866c-0.01,0.069-0.021,0.138-0.027,0.207C7.886,12.004,7.896,11.936,7.906,11.866z"/>
	<path d="M7.879,12.916C7.881,12.944,7.883,12.973,7.886,13l0,0C7.883,12.973,7.881,12.944,7.879,12.916z"/>
</g>
<path d="M5.75,14L5.5,15h3.095c-0.199-0.311-0.362-0.646-0.483-1H5.75z"/>
<g>
	<path d="M12.5,9.258c-1.791,0-3.243,1.451-3.243,3.242s1.452,3.242,3.243,3.242s3.242-1.451,3.242-3.242
		S14.292,9.258,12.5,9.258z M12,14h-1v-3h1V14z M14,14h-1v-3h1V14z"/>
</g>
</svg>
