<?xml version="1.0" encoding="utf-8"?>
<!-- Generator: Adobe Illustrator 16.0.4, SVG Export Plug-In . SVG Version: 6.00 Build 0)  -->
<!DOCTYPE svg PUBLIC "-//W3C//DTD SVG 1.1//EN" "http://www.w3.org/Graphics/SVG/1.1/DTD/svg11.dtd">
<svg version="1.1" id="artwork" xmlns="http://www.w3.org/2000/svg" xmlns:xlink="http://www.w3.org/1999/xlink" x="0px" y="0px"
	 width="16px" height="16px" viewBox="0 0 16 16" enable-background="new 0 0 16 16" xml:space="preserve">
<path d="M14.052,8.993l-0.516-1.007c-0.001-0.001-0.001-0.004-0.001-0.005c0,0,0,0,0-0.001
	c0-0.001-0.001-0.003-0.001-0.006l-0.001,0.001c-0.005-0.012-0.006-0.019-0.009-0.029c0.095-0.168,0.18-0.345,0.251-0.53
	c0.071-0.186,0.123-0.374,0.164-0.562c0.01-0.006,0.016-0.01,0.026-0.016l0,0c0.002,0,0.004-0.001,0.006-0.002l0-0.001
	c0.001,0,0.003-0.001,0.004-0.001L15.03,6.42c0.494-0.179,0.732-0.488,0.658-0.925l-0.142-0.844C15.472,4.213,15.146,4,14.62,3.993
	l-1.125-0.042c-0.196-0.341-0.442-0.651-0.734-0.923l0.174-1.087c0.096-0.517-0.051-0.879-0.465-1.035L11.669,0.6
	c-0.413-0.157-0.763,0.016-1.035,0.466l-0.592,0.928C9.644,2.002,9.254,2.071,8.88,2.197L8.011,1.481
	c-0.396-0.344-0.782-0.4-1.129-0.123L6.216,1.895C5.871,2.172,5.843,2.562,6.092,3.023l0.515,1.009c0,0.001,0.003,0.003,0.003,0.004
	v0c0,0.002,0,0.003,0.001,0.006V4.042c0.005,0.012,0.007,0.02,0.011,0.029c-0.095,0.169-0.181,0.343-0.251,0.53
	C6.3,4.788,6.247,4.976,6.208,5.165C6.198,5.169,6.191,5.174,6.18,5.179l0,0C6.179,5.18,6.176,5.181,6.174,5.182l0,0
	C6.172,5.184,6.171,5.185,6.169,5.186l-1.054,0.41c-0.495,0.179-0.732,0.49-0.658,0.927L4.6,7.367
	c0.072,0.438,0.399,0.65,0.926,0.658l1.124,0.043c0.195,0.34,0.442,0.651,0.733,0.921l-0.174,1.087
	c-0.095,0.517,0.05,0.878,0.465,1.037l0.802,0.304c0.414,0.158,0.763-0.015,1.035-0.466l0.592-0.928
	c0.398-0.008,0.789-0.077,1.161-0.202l0.868,0.715c0.398,0.345,0.784,0.401,1.129,0.124l0.668-0.537
	C14.274,9.846,14.303,9.456,14.052,8.993z M9.252,8.17c-1.194-0.455-1.793-1.79-1.341-2.983C8.366,3.994,9.7,3.396,10.893,3.848
	c1.195,0.454,1.794,1.789,1.341,2.983C11.779,8.023,10.445,8.624,9.252,8.17z"/>
<path d="M6.048,14.721l-0.175-0.732c0-0.001,0-0.003,0-0.004c0,0,0,0,0-0.001c0-0.001,0-0.002,0-0.004L5.872,13.98
	c-0.001-0.009-0.001-0.014-0.001-0.021c0.087-0.094,0.17-0.193,0.246-0.303c0.076-0.109,0.138-0.223,0.195-0.338
	c0.008-0.002,0.012-0.004,0.019-0.006l0,0c0.002,0.001,0.003,0,0.005-0.001v-0.001c0.001,0,0.002,0.001,0.003,0l0.747-0.1
	c0.347-0.038,0.55-0.2,0.571-0.495l0.042-0.567c0.021-0.294-0.156-0.484-0.496-0.57l-0.72-0.205
	C6.41,11.12,6.299,10.882,6.154,10.66l0.284-0.676C6.581,9.666,6.544,9.408,6.3,9.242L5.83,8.919
	C5.587,8.752,5.334,8.808,5.087,9.057L4.559,9.562C4.299,9.506,4.037,9.489,3.775,9.512l-0.449-0.6
	c-0.202-0.285-0.442-0.383-0.71-0.258L2.1,8.896c-0.267,0.125-0.346,0.372-0.257,0.71l0.173,0.733c0,0.001,0.002,0.003,0.002,0.004
	l0,0c0,0.002,0,0.002,0,0.004l0-0.001c0.001,0.008,0.001,0.015,0.002,0.021c-0.088,0.094-0.171,0.193-0.246,0.303
	s-0.139,0.223-0.194,0.339c-0.007,0.001-0.013,0.004-0.021,0.005l0,0c-0.001,0.001-0.003,0-0.004,0.001l0,0
	c-0.001,0.001-0.002,0.001-0.003,0.001l-0.747,0.1c-0.348,0.038-0.55,0.201-0.571,0.495l-0.041,0.568
	c-0.023,0.295,0.155,0.483,0.494,0.571l0.721,0.205c0.072,0.251,0.183,0.491,0.329,0.712l-0.284,0.676
	c-0.143,0.318-0.106,0.575,0.137,0.742l0.471,0.323c0.243,0.168,0.496,0.11,0.743-0.138l0.529-0.507
	c0.259,0.058,0.522,0.074,0.783,0.053l0.449,0.599c0.203,0.285,0.443,0.382,0.71,0.258l0.517-0.241
	C6.057,15.307,6.137,15.059,6.048,14.721z M3.075,13.432c-0.701-0.482-0.878-1.439-0.397-2.141c0.481-0.699,1.438-0.876,2.138-0.395
	c0.702,0.481,0.878,1.439,0.396,2.14C4.731,13.735,3.774,13.913,3.075,13.432z"/>
</svg>
