<?xml version="1.0" encoding="iso-8859-1"?>
<!-- Generator: Adobe Illustrator 16.0.4, SVG Export Plug-In . SVG Version: 6.00 Build 0)  -->
<!DOCTYPE svg PUBLIC "-//W3C//DTD SVG 1.1//EN" "http://www.w3.org/Graphics/SVG/1.1/DTD/svg11.dtd">
<svg version="1.1" id="artwork" xmlns="http://www.w3.org/2000/svg" xmlns:xlink="http://www.w3.org/1999/xlink" x="0px" y="0px"
	 width="16px" height="16px" viewBox="0 0 16 16" style="enable-background:new 0 0 16 16;" xml:space="preserve">
<g>
	<g>
		<path style="fill:#3D464D;" d="M13,8.545v2.343C13,12.072,12.079,13,10.896,13h-6C3.712,13,3,12.072,3,10.888v-6
			C3,3.705,3.712,3,4.896,3h2.344l2-2H3.896C2.238,1,1,2.231,1,3.888v8C1,13.545,2.238,15,3.896,15h8C13.553,15,15,13.545,15,11.888
			V6.545L13,8.545z"/>
	</g>
	
		<rect x="9.405" y="0.271" transform="matrix(0.7072 0.707 -0.707 0.7072 6.4357 -6.7818)" style="fill:#3D464D;" width="4.001" height="8.216"/>
	<polygon style="fill:#3D464D;" points="4.897,10.889 5.519,7.437 8.348,10.265 	"/>
</g>
</svg>
