<?xml version="1.0" encoding="utf-8"?>
<!-- Generator: Adobe Illustrator 16.0.4, SVG Export Plug-In . SVG Version: 6.00 Build 0)  -->
<!DOCTYPE svg PUBLIC "-//W3C//DTD SVG 1.1//EN" "http://www.w3.org/Graphics/SVG/1.1/DTD/svg11.dtd">
<svg version="1.1" id="artwork" xmlns="http://www.w3.org/2000/svg" xmlns:xlink="http://www.w3.org/1999/xlink" x="0px" y="0px"
	 width="16px" height="16px" viewBox="0 0 16 16" enable-background="new 0 0 16 16" xml:space="preserve">
<path d="M8,3.692l1.071,2.679L9.323,7H10h2.638l-2.223,2.292l-0.44,0.454l0.221,0.592l0.87,2.336l-2.551-1.531
	L8,10.834l-0.515,0.309l-2.455,1.473l0.898-2.244l0.245-0.612L5.707,9.293L3.414,7H6h0.677l0.251-0.629L8,3.692 M8,1L6,6H1l4,4l-2,5
	l5-3l5,3l-1.867-5.012L15,6h-5L8,1L8,1z"/>
</svg>
