<?xml version="1.0" encoding="utf-8"?>
<!-- Generator: Adobe Illustrator 16.0.4, SVG Export Plug-In . SVG Version: 6.00 Build 0)  -->
<!DOCTYPE svg PUBLIC "-//W3C//DTD SVG 1.1//EN" "http://www.w3.org/Graphics/SVG/1.1/DTD/svg11.dtd">
<svg version="1.1" id="artwork" xmlns="http://www.w3.org/2000/svg" xmlns:xlink="http://www.w3.org/1999/xlink" x="0px" y="0px"
	 width="16px" height="16px" viewBox="0 0 16 16" enable-background="new 0 0 16 16" xml:space="preserve">
<g>
	<polygon points="5.395,7.162 0.217,6.174 4.885,8.692 	"/>
	<polygon points="6.748,5.822 2.766,2.125 5.602,6.779 	"/>
	<polygon points="7.385,0.181 7.193,5.601 8.66,5.439 	"/>
	<polygon points="12.191,1.029 9.186,5.521 10.492,6.205 	"/>
	<polygon points="11.656,7.99 15.603,4.475 10.891,6.619 	"/>
	<path d="M4.461,12.709c0.055-1.975,5.267-2.3,11.503-2.507c-4.656-0.797-16.032,0.015-15.927,2.356
		c0.053,1.852,7.264,2.307,11.502,2.257C7.527,14.478,4.512,13.836,4.461,12.709z"/>
</g>
</svg>
