<?xml version="1.0" encoding="utf-8"?>
<!-- Generator: Adobe Illustrator 16.0.4, SVG Export Plug-In . SVG Version: 6.00 Build 0)  -->
<!DOCTYPE svg PUBLIC "-//W3C//DTD SVG 1.1//EN" "http://www.w3.org/Graphics/SVG/1.1/DTD/svg11.dtd">
<svg version="1.1" id="artwork" xmlns="http://www.w3.org/2000/svg" xmlns:xlink="http://www.w3.org/1999/xlink" x="0px" y="0px"
	 width="16px" height="16px" viewBox="0 0 16 16" enable-background="new 0 0 16 16" xml:space="preserve">
<path fill="#3D464D" d="M15,12v-1H6.704L9,8.704V10h1V7.703L10.704,7H12v3h2V7h1V6.033L12.884,4.82l1.928-1.929
	c0.195-0.194,0.195-0.512,0-0.707c-0.184-0.183-0.475-0.191-0.67-0.029L1.221,15.07c-0.195,0.195-0.195,0.512,0,0.707
	s0.512,0.195,0.707,0L3.704,14H16v-2H15z"/>
<polygon fill="#3D464D" points="1,11 1,12 0,12 0,14 0.316,14 3.316,11 "/>
<polygon fill="#3D464D" points="2,10 4,10 4,7 6,7 6,8.316 7,7.316 7,7 7.316,7 10.73,3.585 7.966,2 1,6.066 1,7 2,7 "/>
</svg>
