<?xml version="1.0" encoding="utf-8"?>
<!-- Generator: Adobe Illustrator 16.0.4, SVG Export Plug-In . SVG Version: 6.00 Build 0)  -->
<!DOCTYPE svg PUBLIC "-//W3C//DTD SVG 1.1//EN" "http://www.w3.org/Graphics/SVG/1.1/DTD/svg11.dtd">
<svg version="1.1" id="artwork" xmlns="http://www.w3.org/2000/svg" xmlns:xlink="http://www.w3.org/1999/xlink" x="0px" y="0px"
	 width="16px" height="16px" viewBox="0 0 16 16" enable-background="new 0 0 16 16" xml:space="preserve">
<path fill="#3D464D" d="M12.5,7H12V5c0-1.762-1.166-3.244-2.758-3.77c-0.002,0-0.004-0.001-0.005-0.001
	C9.05,1.167,8.861,1.114,8.664,1.08C8.448,1.039,8.228,1.013,8,1.013S7.552,1.039,7.336,1.08C7.139,1.114,6.95,1.167,6.763,1.229
	c-0.001,0-0.003,0.001-0.005,0.001C5.166,1.756,4,3.238,4,5v2H3.5C2.671,7,2,7.671,2,8.5v6C2,15.328,2.671,16,3.5,16h9
	c0.828,0,1.5-0.672,1.5-1.5v-6C14,7.671,13.328,7,12.5,7z M6,5c0-1.099,0.9-1.994,2-1.994S10,3.901,10,5v2H6V5z"/>
</svg>
