<?xml version="1.0" encoding="iso-8859-1"?>
<!-- Generator: Adobe Illustrator 16.0.4, SVG Export Plug-In . SVG Version: 6.00 Build 0)  -->
<!DOCTYPE svg PUBLIC "-//W3C//DTD SVG 1.1//EN" "http://www.w3.org/Graphics/SVG/1.1/DTD/svg11.dtd">
<svg version="1.1" id="artwork" xmlns="http://www.w3.org/2000/svg" xmlns:xlink="http://www.w3.org/1999/xlink" x="0px" y="0px"
	 width="16px" height="16px" viewBox="0 0 16 16" style="enable-background:new 0 0 16 16;" xml:space="preserve">
<g>
	<path style="fill:#3D464D;" d="M9,2c0,0.552-0.448,1-1,1S7,2.552,7,2V1c0-0.552,0.448-1,1-1s1,0.448,1,1V2z"/>
	<path style="fill:#3D464D;" d="M13,8c0,0.552,0.448,1,1,1h1c0.552,0,1-0.448,1-1s-0.448-1-1-1h-1C13.448,7,13,7.448,13,8"/>
	<path style="fill:#3D464D;" d="M3,8c0,0.552-0.448,1-1,1H1C0.448,9,0,8.552,0,8s0.448-1,1-1h1C2.552,7,3,7.448,3,8"/>
	<path style="fill:#3D464D;" d="M9,15c0,0.552-0.448,1-1,1s-1-0.448-1-1v-1c0-0.552,0.448-1,1-1s1,0.448,1,1V15z"/>
	<path style="fill:#3D464D;" d="M12.949,4.464c-0.39,0.391-1.023,0.391-1.414,0c-0.39-0.39-0.39-1.023,0-1.414l0.707-0.707
		c0.391-0.39,1.024-0.39,1.414,0c0.391,0.391,0.391,1.024,0,1.414L12.949,4.464z"/>
	<path style="fill:#3D464D;" d="M11.535,11.536c-0.39,0.39-0.39,1.023,0,1.414l0.707,0.707c0.391,0.39,1.025,0.391,1.415,0
		s0.39-1.024-0.001-1.414l-0.707-0.707C12.56,11.146,11.926,11.146,11.535,11.536"/>
	<path style="fill:#3D464D;" d="M4.465,4.465c-0.391,0.39-1.024,0.39-1.414-0.001L2.344,3.757c-0.391-0.39-0.391-1.023,0-1.414
		c0.39-0.39,1.023-0.39,1.414,0L4.465,3.05C4.854,3.44,4.855,4.075,4.465,4.465"/>
	<path style="fill:#3D464D;" d="M3.758,13.657c-0.391,0.39-1.024,0.39-1.414,0c-0.391-0.391-0.391-1.024,0-1.414l0.707-0.707
		c0.39-0.391,1.023-0.391,1.414,0c0.39,0.39,0.39,1.023,0,1.414L3.758,13.657z"/>
	<path style="fill:#3D464D;" d="M8,4.1C5.846,4.1,4.1,5.846,4.1,8s1.746,3.9,3.9,3.9s3.9-1.746,3.9-3.9S10.154,4.1,8,4.1"/>
</g>
</svg>
