<?xml version="1.0" encoding="utf-8"?>
<!-- Generator: Adobe Illustrator 16.0.4, SVG Export Plug-In . SVG Version: 6.00 Build 0)  -->
<!DOCTYPE svg PUBLIC "-//W3C//DTD SVG 1.1//EN" "http://www.w3.org/Graphics/SVG/1.1/DTD/svg11.dtd">
<svg version="1.1" id="artwork" xmlns="http://www.w3.org/2000/svg" xmlns:xlink="http://www.w3.org/1999/xlink" x="0px" y="0px"
	 width="16px" height="16px" viewBox="0 0 16 16" enable-background="new 0 0 16 16" xml:space="preserve">
<polygon points="16,12 13,12 13,9 12,9 12,12 9,12 9,13 12,13 12,16 13,16 13,13 16,13 "/>
<path d="M14,2H2v4h12V2z M13,4h-2V3h2V4z"/>
<polygon points="11,8.5 11,8 13,8 14,8 14,7 2,7 2,11 8,11 11,11 "/>
<path d="M7,12v1H2.5C2.224,13,2,13.224,2,13.5S2.224,14,2.5,14H8v-2H7z"/>
</svg>
