<?xml version="1.0" encoding="utf-8"?>
<!-- Generator: Adobe Illustrator 16.0.4, SVG Export Plug-In . SVG Version: 6.00 Build 0)  -->
<!DOCTYPE svg PUBLIC "-//W3C//DTD SVG 1.1//EN" "http://www.w3.org/Graphics/SVG/1.1/DTD/svg11.dtd">
<svg version="1.1" id="artwork" xmlns="http://www.w3.org/2000/svg" xmlns:xlink="http://www.w3.org/1999/xlink" x="0px" y="0px"
	 width="16px" height="16px" viewBox="0 0 16 16" enable-background="new 0 0 16 16" xml:space="preserve">
<g>
	<g>
		<polygon points="8.504,10.584 8.5,10.556 8.497,10.585 8.5,10.587 		"/>
		<g>
			<path d="M10.854,10.297c-0.279-0.229-0.561-0.945-0.561-0.945l-1.79,1.232l0.003,0.026
				c1.01,0.007,1.475,0.469,1.306,0.779c-0.205,0.25-0.777,0.672-1.12,0.823L9.5,15h6.229c-0.105-1-0.348-2.19-1.02-2.841
				C14.34,11.804,12.305,11.363,10.854,10.297z"/>
			<path d="M15.288,2.058c-0.008-0.003-0.008-0.014-0.017-0.016l0.391-0.392c0.195-0.195,0.206-0.512,0.011-0.707
				c-0.195-0.195-0.506-0.195-0.702,0L13.914,2l-3.656,3.656l-8.904,8.905l-0.032,0.033l-0.37,0.37
				c-0.195,0.195-0.194,0.512,0.001,0.707c0.195,0.196,0.513,0.196,0.708,0L2.332,15H7.5l0.813-2.784
				c-0.342-0.148-0.919-0.576-1.125-0.826c-0.169-0.31,0.295-0.772,1.306-0.779l0.003-0.025L7.456,9.869l0.752-0.754
				c0.086,0.017,0.504,0.017,0.585,0c0.689-0.112,1.289-0.843,1.713-1.42c0.16-0.218,0.275-0.462,0.363-0.701
				c-0.158-0.01-0.311-0.041-0.457-0.086L11.318,6H12v1.5L13.5,6H15c0.553,0,1-0.448,1-1V3C16,2.55,15.697,2.184,15.288,2.058z"/>
			<path d="M11.894,2H11c-0.501,0-0.916,0.369-0.988,0.85C10.004,2.898,10,2.949,10,3v0.895l0.218-0.218L11.894,2z"
				/>
			<path d="M5.693,5.833c0.199,0.064,0.241,0.964,0.673,1.686l2.622-2.624V3c0-0.102,0.008-0.203,0.023-0.303
				c0.08-0.533,0.375-0.994,0.788-1.3C9.417,1.175,8.984,1.042,8.525,1.042c0,0-0.002,0-0.005,0s-0.003,0-0.003,0
				c-0.01,0-0.021,0-0.028,0c-0.01,0-0.021,0-0.028,0c0,0-0.004,0-0.006,0H8.451c-1.486,0-2.702,1.384-2.828,2.752
				C5.621,3.797,5.624,3.795,5.624,3.8C5.596,3.936,5.293,4.144,5.293,4.295C5.293,5.076,5.438,5.751,5.693,5.833z"/>
		</g>
	</g>
</g>
</svg>
