<?xml version="1.0" encoding="utf-8"?>
<!-- Generator: Adobe Illustrator 16.0.4, SVG Export Plug-In . SVG Version: 6.00 Build 0)  -->
<!DOCTYPE svg PUBLIC "-//W3C//DTD SVG 1.1//EN" "http://www.w3.org/Graphics/SVG/1.1/DTD/svg11.dtd">
<svg version="1.1" id="artwork" xmlns="http://www.w3.org/2000/svg" xmlns:xlink="http://www.w3.org/1999/xlink" x="0px" y="0px"
	 width="16px" height="16px" viewBox="0 0 16 16" enable-background="new 0 0 16 16" xml:space="preserve">
<path fill="#3D464D" d="M14,10V3.508l1.354-1.348c0.195-0.195,0.195-0.512,0-0.707c-0.184-0.184-0.475-0.191-0.671-0.029L1.143,14.9
	c-0.191,0.195-0.19,0.509,0.003,0.703c0.195,0.195,0.512,0.195,0.707,0L3.463,14H9v-2H5.472L12,5.499V10h-1.985L13,14.74L15.985,10
	H14z"/>
<g>
	<polygon fill="#3D464D" points="4,6 5.985,6 3,1.26 0.015,6 2,6 2,12.127 4,10.127 	"/>
	<polygon fill="#3D464D" points="7,2 7,4 10.126,4 12.126,2 	"/>
</g>
</svg>
