<?xml version="1.0" encoding="iso-8859-1"?>
<!-- Generator: Adobe Illustrator 16.0.4, SVG Export Plug-In . SVG Version: 6.00 Build 0)  -->
<!DOCTYPE svg PUBLIC "-//W3C//DTD SVG 1.1//EN" "http://www.w3.org/Graphics/SVG/1.1/DTD/svg11.dtd">
<svg version="1.1" id="artwork" xmlns="http://www.w3.org/2000/svg" xmlns:xlink="http://www.w3.org/1999/xlink" x="0px" y="0px"
	 width="16px" height="16px" viewBox="0 0 16 16" style="enable-background:new 0 0 16 16;" xml:space="preserve">
<path style="fill:#3D464D;" d="M3.064,9.777C3.158,9.995,3.34,10,3.539,10l8.923-0.009c0.198,0,0.38-0.005,0.474-0.223
	c0.094-0.218,0.084-0.345-0.024-0.551L8.45,2.346C8.35,2.156,8.181,2.077,8,2.077c-0.181,0-0.351,0.131-0.45,0.321L3.089,9.217
	C2.98,9.424,2.97,9.559,3.064,9.777z"/>
<path style="fill:#3D464D;" d="M4,14h8c0.55,0,1-0.45,1-1l0,0c0-0.55-0.45-1-1-1H4c-0.55,0-1,0.45-1,1l0,0C3,13.55,3.45,14,4,14z"/>
</svg>
