<?xml version="1.0" encoding="utf-8"?>
<!-- Generator: Adobe Illustrator 16.0.4, SVG Export Plug-In . SVG Version: 6.00 Build 0)  -->
<!DOCTYPE svg PUBLIC "-//W3C//DTD SVG 1.1//EN" "http://www.w3.org/Graphics/SVG/1.1/DTD/svg11.dtd">
<svg version="1.1" id="artwork" xmlns="http://www.w3.org/2000/svg" xmlns:xlink="http://www.w3.org/1999/xlink" x="0px" y="0px"
	 width="16px" height="16px" viewBox="0 0 16 16" enable-background="new 0 0 16 16" xml:space="preserve">
<g>
	<path fill="#3D464D" d="M8,1.1c-3.811,0-6.9,3.077-6.9,6.874S4.189,14.9,8,14.9s6.9-3.13,6.9-6.928C14.9,4.176,11.811,1.1,8,1.1z
		 M4,9.555C3.142,9.555,2.446,8.858,2.446,8c0-0.857,0.696-1.555,1.554-1.555S5.554,7.143,5.554,8C5.554,8.858,4.858,9.555,4,9.555z
		 M12,9.555c-0.858,0-1.554-0.696-1.554-1.555c0-0.857,0.696-1.555,1.554-1.555S13.554,7.143,13.554,8
		C13.554,8.858,12.858,9.555,12,9.555z M8,9.555C7.142,9.555,6.446,8.858,6.446,8c0-0.857,0.696-1.555,1.554-1.555
		S9.554,7.143,9.554,8C9.554,8.858,8.858,9.555,8,9.555z"/>
</g>
</svg>
