<?xml version="1.0" encoding="utf-8"?>
<!-- Generator: Adobe Illustrator 16.0.4, SVG Export Plug-In . SVG Version: 6.00 Build 0)  -->
<!DOCTYPE svg PUBLIC "-//W3C//DTD SVG 1.1//EN" "http://www.w3.org/Graphics/SVG/1.1/DTD/svg11.dtd">
<svg version="1.1" id="artwork" xmlns="http://www.w3.org/2000/svg" xmlns:xlink="http://www.w3.org/1999/xlink" x="0px" y="0px"
	 width="16px" height="16px" viewBox="0 0 16 16" enable-background="new 0 0 16 16" xml:space="preserve">
<g>
	<g>
		<path fill="#3D464D" d="M10,12H4V3h6v3h1V2c0-0.553-0.448-1-1-1H4C3.448,1,3,1.447,3,2v12c0,0.553,0.448,1,1,1h6
			c0.552,0,1-0.447,1-1V9h-1V12z M7.5,14h-1C6.224,14,6,13.776,6,13.5S6.224,13,6.5,13h1C7.776,13,8,13.224,8,13.5S7.776,14,7.5,14z
			"/>
	</g>
</g>
<polygon fill="#3D464D" points="12.5,5.401 14.082,7 8,7 8,8 14.082,8 12.5,9.599 13.152,10.25 15.884,7.499 13.152,4.75 "/>
</svg>
