<?xml version="1.0" encoding="utf-8"?>
<!-- Generator: Adobe Illustrator 16.0.4, SVG Export Plug-In . SVG Version: 6.00 Build 0)  -->
<!DOCTYPE svg PUBLIC "-//W3C//DTD SVG 1.1//EN" "http://www.w3.org/Graphics/SVG/1.1/DTD/svg11.dtd">
<svg version="1.1" id="artwork" xmlns="http://www.w3.org/2000/svg" xmlns:xlink="http://www.w3.org/1999/xlink" x="0px" y="0px"
	 width="16px" height="16px" viewBox="0 0 16 16" enable-background="new 0 0 16 16" xml:space="preserve">
<path fill="#3D464D" d="M11.364,3.789c0-0.004,0.003-0.013,0.001-0.016c-0.12-1.301-1.225-2.632-2.61-2.761
	C8.683,1.005,8.61,1,8.537,1c0,0-0.002,0-0.004,0c0,0,0,0-0.001,0C8.529,1,8.529,1,8.529,1H8.527C8.52,1,8.51,1,8.5,1
	S8.48,1,8.473,1H8.471C8.47,1,8.469,1,8.468,1H8.467H8.463C8.39,1,8.317,1.005,8.245,1.013c-1.385,0.129-2.491,1.46-2.61,2.761
	C5.633,3.776,5.636,3.785,5.636,3.789c-0.028,0.136-0.331,0.349-0.331,0.5c0,0.781,0.145,1.461,0.4,1.543
	C5.857,5.882,5.918,6.42,6.131,6.993l0,0c0,0,0,0.001,0,0.001c0.02,0.054,0.042,0.107,0.064,0.161C6.2,7.167,6.205,7.178,6.21,7.188
	C6.23,7.236,6.253,7.284,6.276,7.332C6.281,7.341,6.286,7.351,6.291,7.36c0.059,0.115,0.125,0.228,0.202,0.333
	c0.425,0.578,1.025,1.308,1.713,1.42C8.246,9.123,8.373,9.127,8.5,9.127s0.254-0.004,0.295-0.013
	c0.688-0.112,1.288-0.843,1.713-1.42c0.077-0.106,0.143-0.218,0.202-0.333c0.005-0.01,0.009-0.019,0.014-0.028
	c0.023-0.048,0.046-0.096,0.066-0.144c0.005-0.011,0.01-0.022,0.015-0.033c0.022-0.054,0.044-0.107,0.064-0.161c0,0,0,0,0-0.001l0,0
	c0.213-0.573,0.273-1.111,0.426-1.161c0.256-0.082,0.4-0.762,0.4-1.543C11.695,4.138,11.393,3.925,11.364,3.789z"/>
<g>
	<path fill="#3D464D" d="M6.146,10.296c-1.451,1.065-3.486,1.508-3.855,1.863C1.619,12.81,1.377,14,1.271,15H7.5l0.813-2.784
		c-0.343-0.148-0.919-0.576-1.126-0.826c-0.169-0.311,0.295-0.772,1.307-0.779l0.003-0.025l-1.79-1.231
		C6.707,9.354,6.426,10.067,6.146,10.296z"/>
	<polygon fill="#3D464D" points="8.497,10.585 8.5,10.587 8.503,10.584 8.5,10.556 	"/>
	<path fill="#3D464D" d="M14.709,12.159c-0.369-0.355-2.404-0.796-3.855-1.862c-0.279-0.229-0.561-0.945-0.561-0.945l-1.79,1.232
		l0.003,0.026c1.01,0.007,1.475,0.469,1.306,0.779c-0.205,0.25-0.777,0.672-1.12,0.823L9.5,15h6.229
		C15.623,14,15.381,12.81,14.709,12.159z"/>
</g>
</svg>
