<?xml version="1.0" encoding="utf-8"?>
<!-- Generator: Adobe Illustrator 16.0.4, SVG Export Plug-In . SVG Version: 6.00 Build 0)  -->
<!DOCTYPE svg PUBLIC "-//W3C//DTD SVG 1.1//EN" "http://www.w3.org/Graphics/SVG/1.1/DTD/svg11.dtd">
<svg version="1.1" id="artwork" xmlns="http://www.w3.org/2000/svg" xmlns:xlink="http://www.w3.org/1999/xlink" x="0px" y="0px"
	 width="16px" height="16px" viewBox="0 0 16 16" enable-background="new 0 0 16 16" xml:space="preserve">
<path fill="#3D464D" d="M13,5H9C8.499,5,8.084,5.369,8.012,5.85C8.007,5.88,8.003,5.91,8.001,5.941C8,5.961,8,5.98,8,6v0.023V8
	c0,0.553,0.448,1,1,1h1v1.5L11.5,9H13c0.552,0,1-0.447,1-1V6C14,5.447,13.552,5,13,5z"/>
<g>
	<g>
		<path fill="#3D464D" d="M11,12H5V3h6v1h1V2c0-0.553-0.448-1-1-1H5C4.448,1,4,1.447,4,2v12c0,0.553,0.448,1,1,1h6
			c0.552,0,1-0.447,1-1v-3.5l-1,1V12z M8.5,14h-1C7.224,14,7,13.776,7,13.5S7.224,13,7.5,13h1C8.776,13,9,13.224,9,13.5
			S8.776,14,8.5,14z"/>
	</g>
</g>
</svg>
