<?xml version="1.0" encoding="iso-8859-1"?>
<!-- Generator: Adobe Illustrator 16.0.4, SVG Export Plug-In . SVG Version: 6.00 Build 0)  -->
<!DOCTYPE svg PUBLIC "-//W3C//DTD SVG 1.1//EN" "http://www.w3.org/Graphics/SVG/1.1/DTD/svg11.dtd">
<svg version="1.1" id="artwork" xmlns="http://www.w3.org/2000/svg" xmlns:xlink="http://www.w3.org/1999/xlink" x="0px" y="0px"
	 width="16px" height="16px" viewBox="0 0 16 16" style="enable-background:new 0 0 16 16;" xml:space="preserve">
<g>
	<path style="fill:#3D464D;" d="M14.816,0.681c-0.391-0.392-1.023-0.392-1.414-0.001l-1.801,1.801C10.599,1.894,9.405,1.498,8,1.498
		c-5.419,0-7.739,5.828-7.836,6.077L0,7.998l0.164,0.423c0.051,0.131,0.723,1.805,2.134,3.364l-1.502,1.502
		c-0.391,0.391-0.392,1.023,0,1.414c0.391,0.391,1.024,0.391,1.415,0L14.816,2.095C15.207,1.704,15.207,1.071,14.816,0.681z
		 M4.1,7.998c0-2.154,1.746-3.9,3.9-3.9c0.581,0,1.127,0.134,1.621,0.364L4.463,9.619C4.233,9.126,4.1,8.579,4.1,7.998z"/>
	<path style="fill:#3D464D;" d="M15.835,7.574c-0.04-0.103-0.475-1.179-1.352-2.396l-2.604,2.604
		C11.883,7.855,11.9,7.924,11.9,7.998c0,2.154-1.746,3.9-3.9,3.9c-0.073,0-0.143-0.018-0.215-0.021l-2.192,2.192
		C6.317,14.331,7.113,14.498,8,14.498c5.413,0,7.739-5.828,7.835-6.076L16,7.998L15.835,7.574z"/>
</g>
</svg>
