<?xml version="1.0" encoding="iso-8859-1"?>
<!-- Generator: Adobe Illustrator 16.0.4, SVG Export Plug-In . SVG Version: 6.00 Build 0)  -->
<!DOCTYPE svg PUBLIC "-//W3C//DTD SVG 1.1//EN" "http://www.w3.org/Graphics/SVG/1.1/DTD/svg11.dtd">
<svg version="1.1" id="artwork" xmlns="http://www.w3.org/2000/svg" xmlns:xlink="http://www.w3.org/1999/xlink" x="0px" y="0px"
	 width="16px" height="16px" viewBox="0 0 16 16" style="enable-background:new 0 0 16 16;" xml:space="preserve">
<g>
	<path style="fill:#3D464D;" d="M9.217,0.085c-0.182,0.099-0.186,0.29-0.186,0.498v6.792c0,0.208,0.004,0.399,0.186,0.498
		c0.183,0.099,0.288,0.089,0.46-0.025l5.065-3.396c0.158-0.104,0.225-0.283,0.225-0.473s-0.109-0.368-0.268-0.473L9.685,0.11
		C9.512-0.004,9.399-0.014,9.217,0.085z"/>
	<path style="fill:#3D464D;" d="M9.004,4.998H2.996C2.448,4.998,2,4.55,2,4.002l0,0c0-0.548,0.448-0.996,0.996-0.996h6.008
		C9.552,3.007,10,3.455,10,4.002l0,0C10,4.55,9.552,4.998,9.004,4.998z"/>
</g>
<g>
	<path style="fill:#3D464D;" d="M6.797,15.889c0.182-0.099,0.187-0.29,0.187-0.498V8.599c0-0.208-0.005-0.399-0.187-0.498
		C6.615,8.002,6.51,8.012,6.337,8.126l-5.065,3.396c-0.158,0.104-0.225,0.283-0.225,0.473s0.109,0.368,0.268,0.473l5.016,3.396
		C6.502,15.978,6.615,15.987,6.797,15.889z"/>
	<path style="fill:#3D464D;" d="M6.947,11.007h6.008c0.548,0,0.996,0.448,0.996,0.996l0,0c0,0.548-0.448,0.996-0.996,0.996H6.947
		c-0.548,0-0.996-0.448-0.996-0.996l0,0C5.951,11.455,6.399,11.007,6.947,11.007z"/>
</g>
</svg>
