<?xml version="1.0" encoding="iso-8859-1"?>
<!-- Generator: Adobe Illustrator 16.0.4, SVG Export Plug-In . SVG Version: 6.00 Build 0)  -->
<!DOCTYPE svg PUBLIC "-//W3C//DTD SVG 1.1//EN" "http://www.w3.org/Graphics/SVG/1.1/DTD/svg11.dtd">
<svg version="1.1" id="artwork" xmlns="http://www.w3.org/2000/svg" xmlns:xlink="http://www.w3.org/1999/xlink" x="0px" y="0px"
	 width="16px" height="16px" viewBox="0 0 16 16" style="enable-background:new 0 0 16 16;" xml:space="preserve">
<g>
	<path style="fill:#3D464D;" d="M8,1.098c-3.811,0-6.9,3.09-6.9,6.902c0,3.809,3.09,6.898,6.9,6.898s6.9-3.09,6.9-6.898
		C14.9,4.188,11.811,1.098,8,1.098z M12.401,10.967l-0.312,0.35c-0.361,0.363-0.834,0.617-1.243,0.684
		c-1.013,0.162-2.956-0.434-4.651-2.129c-0.003-0.004-0.006-0.008-0.008-0.01S6.182,9.855,6.179,9.854
		c-1.696-1.695-2.291-3.637-2.128-4.65c0.064-0.41,0.32-0.881,0.682-1.244l0.311-0.35C5.244,3.41,5.559,3.404,5.749,3.594
		l1.38,1.379C7.318,5.164,7.312,5.479,7.113,5.68L6.918,5.875L6.799,5.992L6.644,6.145C6.111,6.678,6.091,7.52,6.598,8.029
		l1.148,1.148l0.231,0.229c0.509,0.508,1.351,0.488,1.884-0.043l0.275-0.271l0.195-0.195c0.198-0.197,0.515-0.205,0.706-0.018
		l1.379,1.381C12.607,10.451,12.6,10.768,12.401,10.967z"/>
</g>
</svg>
