<?xml version="1.0" encoding="iso-8859-1"?>
<!-- Generator: Adobe Illustrator 16.0.4, SVG Export Plug-In . SVG Version: 6.00 Build 0)  -->
<!DOCTYPE svg PUBLIC "-//W3C//DTD SVG 1.1//EN" "http://www.w3.org/Graphics/SVG/1.1/DTD/svg11.dtd">
<svg version="1.1" id="artwork" xmlns="http://www.w3.org/2000/svg" xmlns:xlink="http://www.w3.org/1999/xlink" x="0px" y="0px"
	 width="16px" height="16px" viewBox="0 0 16 16" style="enable-background:new 0 0 16 16;" xml:space="preserve">
<path style="fill:#3D464D;" d="M14.824,5.909c0.077-0.201-0.04-0.324-0.171-0.455l-4.26-4.26c-0.131-0.131-0.254-0.248-0.454-0.17
	C9.737,1.102,9.663,1.189,9.604,1.393L7.86,7.396C7.805,7.582,7.866,7.744,7.985,7.863S8.3,8.011,8.486,7.955l5.964-1.704
	C14.654,6.191,14.746,6.111,14.824,5.909z"/>
<path style="fill:#3D464D;" d="M2.131,4.603c-0.469,0.472-0.807,1.076-0.9,1.599C0.995,7.494,1.694,9.941,3.8,12.045
	c0.004,0.002,0.009,0.007,0.011,0.01c0.002,0.001,0.004,0.004,0.006,0.007c0.002,0.002,0.006,0.004,0.007,0.005
	c0.002,0.002,0.007,0.007,0.01,0.011c2.104,2.105,4.552,2.805,5.843,2.569c0.523-0.093,1.128-0.432,1.6-0.9l0.452-0.404
	c0.259-0.261,0.275-0.661,0.04-0.897l-1.711-1.712c-0.238-0.235-0.638-0.219-0.898,0.04l-0.254,0.253l-0.151,0.155l-0.198,0.202
	c-0.692,0.691-1.762,0.741-2.395,0.112l-0.888-0.889L4.384,9.718C3.755,9.085,3.805,8.016,4.496,7.323l0.201-0.198l0.154-0.152
	L5.105,6.72C5.363,6.459,5.38,6.06,5.145,5.822L3.433,4.11C3.196,3.875,2.797,3.892,2.535,4.15L2.131,4.603z"/>
</svg>
