<?xml version="1.0" encoding="utf-8"?>
<!-- Generator: Adobe Illustrator 16.0.4, SVG Export Plug-In . SVG Version: 6.00 Build 0)  -->
<!DOCTYPE svg PUBLIC "-//W3C//DTD SVG 1.1//EN" "http://www.w3.org/Graphics/SVG/1.1/DTD/svg11.dtd">
<svg version="1.1" id="artwork" xmlns="http://www.w3.org/2000/svg" xmlns:xlink="http://www.w3.org/1999/xlink" x="0px" y="0px"
	 width="16px" height="16px" viewBox="0 0 16 16" enable-background="new 0 0 16 16" xml:space="preserve">
<g>
	<path fill="#3D464D" d="M15.25,12H15v-1c0-1.099-0.9-1.993-2-1.993S11,9.901,11,11v1h-0.25C10.336,12,10,12.335,10,12.75v2.5
		c0,0.414,0.336,0.75,0.75,0.75h4.5c0.414,0,0.75-0.336,0.75-0.75v-2.5C16,12.335,15.664,12,15.25,12z M14,12h-2v-1
		c0-0.068,0.007-0.136,0.021-0.201c0.094-0.453,0.499-0.796,0.979-0.796c0.55,0,1,0.448,1,0.997V12z"/>
	<path fill="#3D464D" d="M10,11c0-1.65,1.346-2.993,3-2.993c0.018,0,0.034,0.002,0.052,0.002L15,6h-5L8,1L6,6H1l4,4l-2,5l5-3
		l1.011,0.606c0.052-0.635,0.44-1.176,0.989-1.438V11z"/>
</g>
</svg>
