<?xml version="1.0" encoding="utf-8"?>
<!-- Generator: Adobe Illustrator 19.2.1, SVG Export Plug-In . SVG Version: 6.00 Build 0)  -->
<svg version="1.1" id="Layer_1" xmlns="http://www.w3.org/2000/svg" xmlns:xlink="http://www.w3.org/1999/xlink" x="0px" y="0px"
	 viewBox="0 0 24 24" style="enable-background:new 0 0 24 24;" xml:space="preserve">
<title>logo</title>
<path d="M16.5,1.6c0.6,0,1,0.5,1,1s-0.5,1-1,1l0,0l-0.1,0c-0.6,0-1-0.5-1-1.1c0-0.2,0.1-0.5,0.3-0.7C16,1.7,16.2,1.6,16.5,1.6
	 M16.5,0.3c-1.3,0-2.4,1.1-2.4,2.4c0,1.3,1,2.3,2.3,2.4c0,0,0.1,0,0.1,0c1.3,0,2.4-1.1,2.4-2.4C18.9,1.3,17.8,0.3,16.5,0.3
	C16.5,0.3,16.5,0.3,16.5,0.3z"/>
<path d="M14.9,16.9c1.3,0,2.4,1.1,2.4,2.4c0,1.3-1.1,2.4-2.4,2.4h-2.6c-1.3,0-2.4-1.1-2.4-2.4c0-1.3,1.1-2.4,2.4-2.4H14.9
	 M14.9,15.3h-2.6c-2.2,0-4,1.8-4,4s1.8,4,4,4h2.6c2.2,0,4-1.8,4-4S17.1,15.3,14.9,15.3C14.9,15.3,14.9,15.3,14.9,15.3z"/>
<path d="M14.9,7.6c1.3,0,2.4,1.1,2.4,2.4s-1.1,2.4-2.4,2.4H8.8c-1.3,0-2.4-1.1-2.4-2.4s1.1-2.4,2.4-2.4H14.9 M14.9,6.1H8.8
	c-2.2,0-4,1.8-4,4s1.8,4,4,4h6.1c2.2,0,4-1.8,4-4S17.1,6.1,14.9,6.1C14.9,6.1,14.9,6.1,14.9,6.1z"/>
</svg>
