<?xml version="1.0" encoding="utf-8"?>
<!-- Generator: Adobe Illustrator 16.0.4, SVG Export Plug-In . SVG Version: 6.00 Build 0)  -->
<!DOCTYPE svg PUBLIC "-//W3C//DTD SVG 1.1//EN" "http://www.w3.org/Graphics/SVG/1.1/DTD/svg11.dtd">
<svg version="1.1" id="artwork" xmlns="http://www.w3.org/2000/svg" xmlns:xlink="http://www.w3.org/1999/xlink" x="0px" y="0px"
	 width="16px" height="16px" viewBox="0 0 16 16" enable-background="new 0 0 16 16" xml:space="preserve">
<g>
	<g>
		<path d="M6,9H5v5c0,0.553,0.448,1,1,1h6c0.552,0,1-0.447,1-1V2c0-0.553-0.448-1-1-1H6C5.448,1,5,1.447,5,2v4h1V3h6
			v9H6V9z M8,13.5C8,13.224,8.224,13,8.5,13h1c0.276,0,0.5,0.224,0.5,0.5S9.776,14,9.5,14h-1C8.224,14,8,13.776,8,13.5z"/>
	</g>
</g>
<polygon points="3.5,5.401 1.918,7 8,7 8,8 1.918,8 3.5,9.599 2.848,10.25 0.116,7.499 2.848,4.75 "/>
</svg>
