<?xml version="1.0" encoding="iso-8859-1"?>
<!-- Generator: Adobe Illustrator 16.0.4, SVG Export Plug-In . SVG Version: 6.00 Build 0)  -->
<!DOCTYPE svg PUBLIC "-//W3C//DTD SVG 1.1//EN" "http://www.w3.org/Graphics/SVG/1.1/DTD/svg11.dtd">
<svg version="1.1" id="artwork" xmlns="http://www.w3.org/2000/svg" xmlns:xlink="http://www.w3.org/1999/xlink" x="0px" y="0px"
	 width="16px" height="16px" viewBox="0 0 16 16" style="enable-background:new 0 0 16 16;" xml:space="preserve">
<path style="fill:#3D464D;" d="M15.835,7.574C15.739,7.326,13.413,1.498,8,1.498c-5.419,0-7.739,5.828-7.836,6.077L0,7.998
	l0.164,0.423C0.261,8.67,2.581,14.498,8,14.498c5.413,0,7.739-5.828,7.835-6.076L16,7.998L15.835,7.574z M8,11.898
	c-2.154,0-3.9-1.746-3.9-3.9s1.746-3.9,3.9-3.9s3.9,1.746,3.9,3.9S10.154,11.898,8,11.898z"/>
<g>
	<path style="fill:#3D464D;" d="M8.125,6.873c0-0.204,0.042-0.396,0.11-0.576L8,6.068C6.922,6.077,6.05,6.953,6.05,8.034
		c0,1.086,0.881,1.968,1.968,1.968c0.933,0,1.71-0.651,1.912-1.521C9.87,8.487,9.812,8.498,9.75,8.498
		C8.853,8.498,8.125,7.771,8.125,6.873z"/>
</g>
</svg>
