<?xml version="1.0" encoding="utf-8"?>
<!-- Generator: Adobe Illustrator 16.0.4, SVG Export Plug-In . SVG Version: 6.00 Build 0)  -->
<!DOCTYPE svg PUBLIC "-//W3C//DTD SVG 1.1//EN" "http://www.w3.org/Graphics/SVG/1.1/DTD/svg11.dtd">
<svg version="1.1" id="artwork" xmlns="http://www.w3.org/2000/svg" xmlns:xlink="http://www.w3.org/1999/xlink" x="0px" y="0px"
	 width="16px" height="16px" viewBox="0 0 16 16" enable-background="new 0 0 16 16" xml:space="preserve">
<g>
	<polygon fill="none" points="8.177,11.568 7.852,11.179 8.185,11.578 	"/>
	<path fill="#3D464D" d="M8.185,11.578c0.02,0.028,0.046,0.059,0.068,0.088l0.003-0.002L8.185,11.578z"/>
</g>
<g>
	<path fill="#3D464D" d="M11.003,11H11c-0.747,0-1.169-0.559-1.232-0.641L4.795,4.393C4.409,3.854,3.424,3,2,3H0.031v2H2
		c0.756,0,1.163,0.548,1.17,0.559l4.682,5.62l0.325,0.39c0.002,0.003,0.006,0.007,0.008,0.01l0.071,0.086l-0.003,0.002
		C8.668,12.204,9.632,13,10.959,13c0.001,0,0.002,0,0.002,0l0.04,0.002L11,14.932L15.9,12l-4.896-2.9L11.003,11z"/>
	<path fill="#3D464D" d="M9.904,5.544c0.005-0.005,0.437-0.524,1.097-0.583L11,6.932L15.9,4l-4.896-2.9L11.003,2.95
		c-1.647,0.049-2.602,1.262-2.672,1.36l-0.89,1.07l1.301,1.562L9.904,5.544z"/>
	<path fill="#3D464D" d="M3.312,10.352C3.307,10.355,2.785,11,2.1,11H0v2h2.1c1.654,0,2.682-1.279,2.77-1.395l0.756-0.911
		L4.325,9.132L3.312,10.352z"/>
</g>
<g>
	<polygon fill="none" points="8.177,11.568 7.852,11.179 8.185,11.578 	"/>
	<path fill="#3D464D" d="M8.185,11.578c0.02,0.028,0.046,0.059,0.068,0.088l0.003-0.002L8.185,11.578z"/>
</g>
</svg>
