<?xml version="1.0" encoding="iso-8859-1"?>
<!-- Generator: Adobe Illustrator 16.0.4, SVG Export Plug-In . SVG Version: 6.00 Build 0)  -->
<!DOCTYPE svg PUBLIC "-//W3C//DTD SVG 1.1//EN" "http://www.w3.org/Graphics/SVG/1.1/DTD/svg11.dtd">
<svg version="1.1" id="artwork" xmlns="http://www.w3.org/2000/svg" xmlns:xlink="http://www.w3.org/1999/xlink" x="0px" y="0px"
	 width="16px" height="16px" viewBox="0 0 16 16" style="enable-background:new 0 0 16 16;" xml:space="preserve">
<g>
	<rect x="1" y="6" style="fill:#3D464D;" width="2" height="4"/>
	<polygon style="fill:#3D464D;" points="1,5 3,5 3,3 4.988,3 4.992,1 1,1 	"/>
	<rect x="13" y="6" style="fill:#3D464D;" width="2" height="4"/>
	<rect x="6" y="1" style="fill:#3D464D;" width="4" height="2"/>
	<polygon style="fill:#3D464D;" points="11.006,1 11.012,3 13,3 13,5 15,5 15,1 	"/>
	<polygon style="fill:#3D464D;" points="3,13 3,11 1,11 1,15 4.992,15 4.988,13 	"/>
	<rect x="6" y="13" style="fill:#3D464D;" width="4" height="2"/>
	<polygon style="fill:#3D464D;" points="13,13 11.012,13 11.006,15 15,15 15,11 13,11 	"/>
</g>
</svg>
