<?xml version="1.0" encoding="iso-8859-1"?>
<!-- Generator: Adobe Illustrator 16.0.4, SVG Export Plug-In . SVG Version: 6.00 Build 0)  -->
<!DOCTYPE svg PUBLIC "-//W3C//DTD SVG 1.1//EN" "http://www.w3.org/Graphics/SVG/1.1/DTD/svg11.dtd">
<svg version="1.1" id="artwork" xmlns="http://www.w3.org/2000/svg" xmlns:xlink="http://www.w3.org/1999/xlink" x="0px" y="0px"
	 width="16px" height="16px" viewBox="0 0 16 16" style="enable-background:new 0 0 16 16;" xml:space="preserve">
<g>
	<path style="fill:#3D464D;" d="M12,1H4C2.35,1,1,2.35,1,4v8c0,1.65,1.35,3,3,3h8c1.65,0,3-1.35,3-3v-2V9V4C15,2.35,13.65,1,12,1z
		 M11.535,10.119l-1.414,1.414L8,9.412l-2.122,2.121l-1.414-1.414l2.122-2.122L4.465,5.876l1.414-1.414L8,6.584l2.121-2.121
		l1.414,1.414L9.414,7.998L11.535,10.119z"/>
</g>
</svg>
