<?xml version="1.0" encoding="iso-8859-1"?>
<!-- Generator: Adobe Illustrator 16.0.4, SVG Export Plug-In . SVG Version: 6.00 Build 0)  -->
<!DOCTYPE svg PUBLIC "-//W3C//DTD SVG 1.1//EN" "http://www.w3.org/Graphics/SVG/1.1/DTD/svg11.dtd">
<svg version="1.1" id="artwork" xmlns="http://www.w3.org/2000/svg" xmlns:xlink="http://www.w3.org/1999/xlink" x="0px" y="0px"
	 width="16px" height="16px" viewBox="0 0 16 16" style="enable-background:new 0 0 16 16;" xml:space="preserve">
<path style="fill:#3D464D;" d="M12.5,10.1c-0.56,0-1.068,0.2-1.477,0.521L6.871,8.288C6.882,8.192,6.9,8.099,6.9,8
	S6.882,7.808,6.871,7.712l4.153-2.333C11.432,5.7,11.94,5.9,12.5,5.9c1.326,0,2.4-1.075,2.4-2.4s-1.074-2.4-2.4-2.4
	s-2.4,1.075-2.4,2.4c0,0.101,0.018,0.197,0.03,0.295l-4.148,2.33C5.572,5.801,5.062,5.6,4.5,5.6C3.174,5.6,2.1,6.675,2.1,8
	s1.074,2.4,2.4,2.4c0.562,0,1.072-0.201,1.481-0.525l4.148,2.33c-0.012,0.098-0.03,0.194-0.03,0.295c0,1.325,1.074,2.4,2.4,2.4
	s2.4-1.075,2.4-2.4S13.826,10.1,12.5,10.1z"/>
</svg>
