<?xml version="1.0" encoding="iso-8859-1"?>
<!-- Generator: Adobe Illustrator 16.0.4, SVG Export Plug-In . SVG Version: 6.00 Build 0)  -->
<!DOCTYPE svg PUBLIC "-//W3C//DTD SVG 1.1//EN" "http://www.w3.org/Graphics/SVG/1.1/DTD/svg11.dtd">
<svg version="1.1" id="artwork" xmlns="http://www.w3.org/2000/svg" xmlns:xlink="http://www.w3.org/1999/xlink" x="0px" y="0px"
	 width="16px" height="16px" viewBox="0 0 16 16" style="enable-background:new 0 0 16 16;" xml:space="preserve">
<path style="fill:#3D464D;" d="M12.936,2.262c-0.094-0.218-0.276-0.223-0.474-0.223L3.539,2.047c-0.198,0-0.38,0.005-0.474,0.223
	C2.97,2.488,2.98,2.615,3.089,2.821L7.55,9.693C7.65,9.882,7.819,9.961,8,9.961c0.181,0,0.351-0.131,0.45-0.32l4.461-6.82
	C13.02,2.615,13.03,2.48,12.936,2.262z"/>
<path style="fill:#3D464D;" d="M12,14H4c-0.55,0-1-0.45-1-1l0,0c0-0.55,0.45-1,1-1h8c0.55,0,1,0.45,1,1l0,0C13,13.55,12.55,14,12,14
	z"/>
</svg>
