<?xml version="1.0" encoding="utf-8"?>
<!-- Generator: Adobe Illustrator 16.0.4, SVG Export Plug-In . SVG Version: 6.00 Build 0)  -->
<!DOCTYPE svg PUBLIC "-//W3C//DTD SVG 1.1//EN" "http://www.w3.org/Graphics/SVG/1.1/DTD/svg11.dtd">
<svg version="1.1" id="artwork" xmlns="http://www.w3.org/2000/svg" xmlns:xlink="http://www.w3.org/1999/xlink" x="0px" y="0px"
	 width="16px" height="16px" viewBox="0 0 16 16" enable-background="new 0 0 16 16" xml:space="preserve">
<path d="M15,2h-4c-0.501,0-0.916,0.369-0.988,0.85C10.004,2.898,10,2.949,10,3v2c0,0.552,0.447,1,1,1h1v1.5L13.5,6
	H15c0.553,0,1-0.448,1-1V3C16,2.448,15.553,2,15,2z"/>
<path d="M5.705,5.833c0.216,0.07,0.246,1.119,0.787,1.861c0.425,0.578,1.025,1.308,1.713,1.42
	c0.081,0.017,0.507,0.017,0.588,0c0.689-0.112,1.289-0.843,1.713-1.42c0.16-0.218,0.275-0.462,0.363-0.701C9.828,6.926,9,6.059,9,5
	V3c0-0.102,0.008-0.203,0.023-0.303c0.08-0.533,0.375-0.994,0.788-1.3C9.429,1.175,8.996,1.042,8.537,1.042c0,0-0.002,0-0.005,0
	s-0.003,0-0.003,0c-0.01,0-0.021,0-0.028,0c-0.01,0-0.021,0-0.028,0c0,0-0.004,0-0.006,0H8.463c-1.486,0-2.702,1.384-2.828,2.752
	C5.633,3.797,5.636,3.795,5.636,3.8C5.607,3.936,5.305,4.144,5.305,4.295C5.305,5.076,5.449,5.751,5.705,5.833z"/>
<g>
	<path d="M6.146,10.296c-1.451,1.065-3.486,1.508-3.855,1.863C1.619,12.81,1.377,14,1.271,15H7.5l0.813-2.784
		c-0.343-0.148-0.919-0.576-1.126-0.826c-0.169-0.311,0.295-0.772,1.307-0.779l0.003-0.025l-1.79-1.231
		C6.707,9.354,6.426,10.067,6.146,10.296z"/>
	<polygon points="8.497,10.585 8.5,10.587 8.503,10.584 8.5,10.556 	"/>
	<path d="M14.709,12.159c-0.369-0.355-2.404-0.796-3.855-1.862c-0.279-0.229-0.561-0.945-0.561-0.945l-1.79,1.232
		l0.003,0.026c1.01,0.007,1.475,0.469,1.306,0.779c-0.205,0.25-0.777,0.672-1.12,0.823L9.5,15h6.229
		C15.623,14,15.381,12.81,14.709,12.159z"/>
</g>
</svg>
