<svg id="artwork" xmlns="http://www.w3.org/2000/svg" width="16" height="16" viewBox="0 0 16 15.9956">
	<defs>
		<style>
			.cls-1{
			fill:none;opacity:0.2;
			}
			.cls-2{
			fill:#3d464d;
			}
		</style>
	</defs>
	<title>ic_team_communicator</title>
	
	<path class="cls-2" d="M16.0146,15.9668h-8A4,4,0,0,1,16.0146,15.9668Zm-12-4a4,4,0,0,0-4,4h8A4,4,0,0,0,4.0146,11.9668ZM4,11A2,2,0,1,0,2,9,2.0022,2.0022,0,0,0,4,11Zm6-2a2,2,0,1,0,2-2A2.0021,2.0021,0,0,0,10,9ZM6.0146,5.9668a2.9863,2.9863,0,0,0,1.1305-.2242,3.9731,3.9731,0,0,1,0-5.5516A2.9988,2.9988,0,1,0,6.0146,5.9668Zm2-.7786a3.1,3.1,0,0,0,.4267.3225,3.84,3.84,0,0,1-.4267,1.4561l0.01-.0007L8.024,6.9668l0.0148-.0015c0.0225-.0007.2232-0.0268,0.4354-0.0708a1.9865,1.9865,0,0,0,1.3094-.95c0.0775,0.0061.1519,0.0222,0.231,0.0222A3.0269,3.0269,0,1,0,8.0146,5.1882Z"/>
</svg>