<?xml version="1.0" encoding="utf-8"?>
<!-- Generator: Adobe Illustrator 16.0.4, SVG Export Plug-In . SVG Version: 6.00 Build 0)  -->
<!DOCTYPE svg PUBLIC "-//W3C//DTD SVG 1.1//EN" "http://www.w3.org/Graphics/SVG/1.1/DTD/svg11.dtd">
<svg version="1.1" id="artwork" xmlns="http://www.w3.org/2000/svg" xmlns:xlink="http://www.w3.org/1999/xlink" x="0px" y="0px"
	 width="16px" height="16px" viewBox="0 0 16 16" enable-background="new 0 0 16 16" xml:space="preserve">
<g>
	<path fill="#3D464D" d="M8.777,8C9.73,8,10.5,7.225,10.5,6.271V6.229c0-0.619-0.329-1.159-0.819-1.464
		C9.881,4.483,10,4.142,10,3.771V3.729C10,2.775,9.23,2,8.277,2H6v6H8.777z M7,3h1.277C8.679,3,9,3.327,9,3.729v0.041
		C9,4.173,8.679,4.5,8.277,4.5H7V3z M7,5.5h1.777C9.179,5.5,9.5,5.827,9.5,6.229v0.041C9.5,6.673,9.179,7,8.777,7H7V5.5z"/>
	<path fill="#3D464D" d="M3.25,2h-1.5L0,8h1l0.291-1h2.418L4,8h1L3.25,2z M1.584,6L2.5,2.857L3.416,6H1.584z"/>
	<path fill="#3D464D" d="M15.234,6.663C14.919,6.884,14.551,7,14.17,7c-1.055,0-1.914-0.897-1.914-2s0.859-2,1.914-2
		c0.379,0,0.744,0.115,1.057,0.332l0.57-0.822C15.314,2.176,14.753,2,14.17,2c-1.606,0-2.914,1.346-2.914,3s1.308,3,2.914,3
		c0.588,0,1.153-0.179,1.637-0.518L15.234,6.663z"/>
	<polygon fill="#3D464D" points="7,12.148 5.586,10.734 4.172,12.148 7,14.977 11.521,10.455 10.107,9.041 	"/>
</g>
</svg>
