<?xml version="1.0" encoding="iso-8859-1"?>
<!-- Generator: Adobe Illustrator 16.0.4, SVG Export Plug-In . SVG Version: 6.00 Build 0)  -->
<!DOCTYPE svg PUBLIC "-//W3C//DTD SVG 1.1//EN" "http://www.w3.org/Graphics/SVG/1.1/DTD/svg11.dtd">
<svg version="1.1" id="artwork" xmlns="http://www.w3.org/2000/svg" xmlns:xlink="http://www.w3.org/1999/xlink" x="0px" y="0px"
	 width="16px" height="16px" viewBox="0 0 16 16" style="enable-background:new 0 0 16 16;" xml:space="preserve">
<g>
	<path style="fill:#3D464D;" d="M1,2.006v8.988h14V2.006H1z M5.988,8.587v-4.16L11,6.508L5.988,8.587z"/>
	<path style="fill:#3D464D;" d="M9,0.978C9,0.438,8.553,0,8,0S7,0.438,7,0.978v0.006h2V0.978z"/>
	<path style="fill:#3D464D;" d="M10.522,14H9v-1.938H7V14H5.478C5.214,14,5,14.214,5,14.478v0.045C5,14.786,5.214,15,5.478,15h5.045
		C10.786,15,11,14.786,11,14.522v-0.045C11,14.214,10.786,14,10.522,14z"/>
</g>
</svg>
