<?xml version="1.0" encoding="iso-8859-1"?>
<!-- Generator: Adobe Illustrator 16.0.4, SVG Export Plug-In . SVG Version: 6.00 Build 0)  -->
<!DOCTYPE svg PUBLIC "-//W3C//DTD SVG 1.1//EN" "http://www.w3.org/Graphics/SVG/1.1/DTD/svg11.dtd">
<svg version="1.1" id="artwork" xmlns="http://www.w3.org/2000/svg" xmlns:xlink="http://www.w3.org/1999/xlink" x="0px" y="0px"
	 width="13.787px" height="13.786px" viewBox="0 0 13.787 13.786" style="enable-background:new 0 0 13.787 13.786;"
	 xml:space="preserve">
<g>
	<circle style="fill:#3D464D;" cx="4.028" cy="6.893" r="1.063"/>
	<circle style="fill:#3D464D;" cx="6.894" cy="9.777" r="1.063"/>
	<circle style="fill:#3D464D;" cx="6.894" cy="4.027" r="1.063"/>
	<circle style="fill:#3D464D;" cx="9.777" cy="6.893" r="1.064"/>
	<g>
		<path style="fill:#3D464D;" d="M9.996,2.82l1.267-1.266c-2.523-2.075-6.181-2.072-8.717,0L3.811,2.82
			C5.639,1.432,8.176,1.43,9.996,2.82z"/>
		<path style="fill:#3D464D;" d="M10.985,9.994l1.266,1.265c2.057-2.525,2.042-6.185-0.003-8.711l-1.265,1.265
			C12.353,5.634,12.362,8.173,10.985,9.994z"/>
		<path style="fill:#3D464D;" d="M2.822,3.811L1.556,2.545c-2.073,2.536-2.075,6.192-0.001,8.716l1.266-1.266
			C1.431,8.176,1.432,5.639,2.822,3.811z"/>
		<path style="fill:#3D464D;" d="M3.813,10.982l-1.264,1.264c2.525,2.045,6.185,2.061,8.711,0.003l-1.266-1.266
			C8.173,12.361,5.634,12.353,3.813,10.982z"/>
	</g>
</g>
</svg>
