<?xml version="1.0" encoding="utf-8"?>
<!-- Generator: Adobe Illustrator 16.0.4, SVG Export Plug-In . SVG Version: 6.00 Build 0)  -->
<!DOCTYPE svg PUBLIC "-//W3C//DTD SVG 1.1//EN" "http://www.w3.org/Graphics/SVG/1.1/DTD/svg11.dtd">
<svg version="1.1" id="artwork" xmlns="http://www.w3.org/2000/svg" xmlns:xlink="http://www.w3.org/1999/xlink" x="0px" y="0px"
	 width="16px" height="16px" viewBox="0 0 16 16" enable-background="new 0 0 16 16" xml:space="preserve">
<path fill="#3D464D" d="M15.294,0.703C15.11,0.52,14.82,0.512,14.624,0.674L0.901,14.39c-0.195,0.195-0.195,0.512,0,0.707
	c0.195,0.195,0.512,0.195,0.707,0l1.46-1.461L7,15.732V9.704l1-1v7.028L15,12V4.545L8.895,7.81l2.485-2.484l3.027-1.619
	l-0.918-0.489l1.806-1.807C15.49,1.215,15.49,0.898,15.294,0.703z"/>
<g>
	<polygon fill="#3D464D" points="0,4.53 0,12 0.83,12.442 5.697,7.576 	"/>
	<polygon fill="#3D464D" points="7.458,0 0.523,3.698 6.421,6.852 11.25,2.022 	"/>
</g>
</svg>
