<?xml version="1.0" encoding="utf-8"?>
<!-- Generator: Adobe Illustrator 16.0.4, SVG Export Plug-In . SVG Version: 6.00 Build 0)  -->
<!DOCTYPE svg PUBLIC "-//W3C//DTD SVG 1.1//EN" "http://www.w3.org/Graphics/SVG/1.1/DTD/svg11.dtd">
<svg version="1.1" id="artwork" xmlns="http://www.w3.org/2000/svg" xmlns:xlink="http://www.w3.org/1999/xlink" x="0px" y="0px"
	 width="16px" height="16px" viewBox="0 0 16 16" enable-background="new 0 0 16 16" xml:space="preserve">
<path d="M2.049,7.475L1.982,8.018L0.29,8l2.672,4.422l2.617-4.414l-1.9,0.004l0.093-0.54
	C4.038,4.902,6.18,2.895,8.816,2.895c2.816,0,5.098,2.284,5.098,5.105c0,2.819-2.281,5.105-5.098,5.105
	c-1.129,0-2.174-0.368-3.018-0.991l-0.184-0.125l-0.986,1.374c1.154,0.904,2.606,1.444,4.186,1.444c3.756,0,6.799-3.049,6.799-6.808
	c0-3.761-3.043-6.808-6.799-6.808C5.239,1.194,2.316,3.963,2.049,7.475z"/>
<g>
	<path d="M11.75,9C11.709,9,8,9,8,9s0-3.969,0-4c0-0.276,0.224-0.5,0.5-0.5S9,4.724,9,5c0,0.092,0,3,0,3
		s2.661,0,2.75,0c0.276,0,0.5,0.224,0.5,0.5S12.026,9,11.75,9z"/>
</g>
</svg>
