<svg id="Layer_1" data-name="Layer 1" xmlns="http://www.w3.org/2000/svg" width="16" height="16" viewBox="0 0 16 16">
  <defs>
    <style>
      .cls-1 {
        fill: #3d464d;
      }
    </style>
  </defs>
  <title>Common_transfer</title>
  <path class="cls-1" d="M4,4.05c0-.14.28-.34.3-.47h0A2.85,2.85,0,0,1,7,1H7A2.85,2.85,0,0,1,9.66,3.57v0c0,.12.3.32.3.46,0,.73-.13,1.36-.37,1.43s-.22,1-.73,1.73A3,3,0,0,1,7.27,8.53H6.73A3,3,0,0,1,5.14,7.21c-.51-.69-.53-1.67-.73-1.73S4,4.77,4,4.05Zm7,6.52a10.8,10.8,0,0,1-1.65-.85h0l-.17-.11a2.93,2.93,0,0,1-.53-.87L7,9.88,5.34,8.74a2.83,2.83,0,0,1-.52.87l-.17.11h0c-1.33.9-3.08,1.3-3.41,1.61A4.27,4.27,0,0,0,.28,14H8V11h3Zm2.17-.85-.65.65L14.11,12H9v1h5.1l-1.58,1.59.65.66,2.73-2.76Z"/>
</svg>
