<?xml version="1.0" encoding="utf-8"?>
<!-- Generator: Adobe Illustrator 16.0.4, SVG Export Plug-In . SVG Version: 6.00 Build 0)  -->
<!DOCTYPE svg PUBLIC "-//W3C//DTD SVG 1.1//EN" "http://www.w3.org/Graphics/SVG/1.1/DTD/svg11.dtd">
<svg version="1.1" id="artwork" xmlns="http://www.w3.org/2000/svg" xmlns:xlink="http://www.w3.org/1999/xlink" x="0px" y="0px"
	 width="16px" height="16px" viewBox="0 0 16 16" enable-background="new 0 0 16 16" xml:space="preserve">
<g>
	<path fill="#3D464D" d="M14,1H2C1.447,1,1,1.447,1,2v12c0,0.553,0.447,1,1,1h12c0.553,0,1-0.447,1-1V2C15,1.447,14.553,1,14,1z
		 M12.094,6.062C12.098,6.149,12.1,6.239,12.1,6.33c0,2.739-2.06,5.899-5.826,5.899c-1.156,0-2.232-0.344-3.139-0.933
		c0.159,0.02,0.322,0.029,0.488,0.029c0.959,0,1.842-0.331,2.543-0.887C5.27,10.422,4.514,9.822,4.253,8.998
		c0.126,0.025,0.253,0.038,0.386,0.038c0.187,0,0.367-0.025,0.539-0.072c-0.937-0.19-1.643-1.029-1.643-2.033
		c0-0.01,0-0.019,0-0.026c0.275,0.155,0.592,0.249,0.928,0.26c-0.549-0.372-0.91-1.007-0.91-1.727c0-0.38,0.1-0.736,0.276-1.042
		c1.01,1.254,2.519,2.08,4.222,2.166C8.016,6.41,7.997,6.252,7.997,6.089c0-1.145,0.917-2.073,2.048-2.073
		c0.59,0,1.121,0.251,1.495,0.655c0.466-0.094,0.905-0.267,1.301-0.504c-0.153,0.484-0.478,0.891-0.901,1.147
		c0.414-0.05,0.811-0.163,1.178-0.327C12.842,5.403,12.494,5.769,12.094,6.062z"/>
</g>
</svg>
