<?xml version="1.0" encoding="iso-8859-1"?>
<!-- Generator: Adobe Illustrator 16.0.4, SVG Export Plug-In . SVG Version: 6.00 Build 0)  -->
<!DOCTYPE svg PUBLIC "-//W3C//DTD SVG 1.1//EN" "http://www.w3.org/Graphics/SVG/1.1/DTD/svg11.dtd">
<svg version="1.1" id="artwork" xmlns="http://www.w3.org/2000/svg" xmlns:xlink="http://www.w3.org/1999/xlink" x="0px" y="0px"
	 width="16px" height="16px" viewBox="0 0 16 16" style="enable-background:new 0 0 16 16;" xml:space="preserve">
<g>
	<path style="fill:#3D464D;" d="M0.051,8c0,2.702,2.191,5,4.894,5h6.11c2.702,0,4.894-2.298,4.894-5s-2.191-5-4.894-5h-6.11
		C2.243,3,0.051,5.298,0.051,8z M1.346,8c0-2.018,1.637-3.655,3.655-3.655c2.018,0,3.655,1.638,3.655,3.655
		s-1.638,3.655-3.655,3.655C2.983,11.655,1.346,10.018,1.346,8z"/>
</g>
<polygon style="fill:#3D464D;" points="6.769,6.939 6.062,6.232 5.001,7.293 3.941,6.232 3.234,6.939 4.294,8 3.234,9.061 
	3.941,9.768 5.001,8.707 6.062,9.768 6.769,9.061 5.708,8 "/>
</svg>
