<?xml version="1.0" encoding="utf-8"?>
<!-- Generator: Adobe Illustrator 16.0.4, SVG Export Plug-In . SVG Version: 6.00 Build 0)  -->
<!DOCTYPE svg PUBLIC "-//W3C//DTD SVG 1.1//EN" "http://www.w3.org/Graphics/SVG/1.1/DTD/svg11.dtd">
<svg version="1.1" id="artwork" xmlns="http://www.w3.org/2000/svg" xmlns:xlink="http://www.w3.org/1999/xlink" x="0px" y="0px"
	 width="16px" height="16px" viewBox="0 0 16 16" enable-background="new 0 0 16 16" xml:space="preserve">
<path d="M14.397,1H2.603L2.512,5H3.08c0.122-1.5,0.744-2.375,1.688-2.877C5.28,1.854,6,1.646,7,1.619v11.134
	c0,0.702-0.169,1.17-0.421,1.406C6.321,14.394,6,14.51,5,14.51V15h7v-0.49c-1,0-1.321-0.116-1.579-0.351
	C10.169,13.923,10,13.455,10,12.753V1.619c1,0.027,1.72,0.234,2.231,0.504C13.176,2.625,13.798,3.5,13.92,5h0.568L14.397,1z"/>
</svg>
