<?xml version="1.0" encoding="utf-8"?>
<!-- Generator: Adobe Illustrator 16.0.4, SVG Export Plug-In . SVG Version: 6.00 Build 0)  -->
<!DOCTYPE svg PUBLIC "-//W3C//DTD SVG 1.1//EN" "http://www.w3.org/Graphics/SVG/1.1/DTD/svg11.dtd">
<svg version="1.1" id="artwork" xmlns="http://www.w3.org/2000/svg" xmlns:xlink="http://www.w3.org/1999/xlink" x="0px" y="0px"
	 width="16px" height="16px" viewBox="0 0 16 16" enable-background="new 0 0 16 16" xml:space="preserve">
<path fill="#3D464D" d="M2,7C1.448,7,1,7.448,1,8v6c0,0.552,0.448,1,1,1h2V7H2z"/>
<g>
	<path fill="#3D464D" d="M14.438,7.768c0-1.296-2.472-1.905-3.627-1.905c-0.279-0.003-0.576,0.122-0.779,0.363
		c-0.246,0.292-0.589,0.02-0.605,0.004c-0.242-0.242,0.917-2.04,0.932-2.144c0.44-0.823,0.962-1.754,0.438-2.586
		c-0.029-0.046-0.239-0.26-0.266-0.281c-0.446-0.356-0.856-0.095-1.042,0.243C9.239,1.916,5,7.546,5,7.546v5.361
		c0.099,0.104,2.247,1.062,3.627,1.062c0.055,0.02,1.027,0,2.729,0c1.027,0,1.693-1.268,2.041-2.256
		c0.157-0.445,0.741-0.889,0.816-1.415c0.073-0.51-0.126-0.763-0.097-1.296C14.128,8.785,14.438,7.983,14.438,7.768z"/>
</g>
</svg>
