<?xml version="1.0" encoding="utf-8"?>
<!-- Generator: Adobe Illustrator 16.0.4, SVG Export Plug-In . SVG Version: 6.00 Build 0)  -->
<!DOCTYPE svg PUBLIC "-//W3C//DTD SVG 1.1//EN" "http://www.w3.org/Graphics/SVG/1.1/DTD/svg11.dtd">
<svg version="1.1" id="artwork" xmlns="http://www.w3.org/2000/svg" xmlns:xlink="http://www.w3.org/1999/xlink" x="0px" y="0px"
	 width="16px" height="16px" viewBox="0 0 16 16" enable-background="new 0 0 16 16" xml:space="preserve">
<path d="M14.901,3.528c-0.53,0.237-1.1,0.399-1.698,0.472c0.61-0.371,1.08-0.957,1.3-1.656
	c-0.571,0.343-1.205,0.592-1.878,0.727c-0.539-0.582-1.307-0.945-2.158-0.945c-1.633,0-2.956,1.34-2.956,2.993
	c0,0.235,0.025,0.464,0.076,0.683C5.131,5.676,2.952,4.484,1.494,2.673c-0.254,0.442-0.4,0.956-0.4,1.505
	c0,1.039,0.522,1.955,1.315,2.492C1.924,6.654,1.468,6.52,1.07,6.295c0,0.012,0,0.024,0,0.038c0,1.45,1.019,2.66,2.371,2.935
	C3.193,9.336,2.932,9.372,2.663,9.372c-0.191,0-0.375-0.018-0.556-0.054c0.376,1.19,1.468,2.055,2.761,2.08
	c-1.011,0.803-2.286,1.28-3.671,1.28c-0.239,0-0.474-0.014-0.705-0.042c1.308,0.85,2.862,1.346,4.532,1.346
	c5.438,0,8.412-4.562,8.412-8.517c0-0.13-0.003-0.26-0.009-0.388C14.004,4.656,14.505,4.129,14.901,3.528z"/>
</svg>
