<?xml version="1.0" encoding="utf-8"?>
<!-- Generator: Adobe Illustrator 16.0.4, SVG Export Plug-In . SVG Version: 6.00 Build 0)  -->
<!DOCTYPE svg PUBLIC "-//W3C//DTD SVG 1.1//EN" "http://www.w3.org/Graphics/SVG/1.1/DTD/svg11.dtd">
<svg version="1.1" id="artwork" xmlns="http://www.w3.org/2000/svg" xmlns:xlink="http://www.w3.org/1999/xlink" x="0px" y="0px"
	 width="16px" height="16px" viewBox="0 0 16 16" enable-background="new 0 0 16 16" xml:space="preserve">
<path d="M13.242,1.23c-0.002-0.001-0.004-0.002-0.005-0.002c-0.187-0.062-0.375-0.115-0.573-0.148
	C12.448,1.039,12.228,1.013,12,1.013s-0.448,0.026-0.664,0.067c-0.198,0.033-0.386,0.087-0.573,0.148
	c-0.001,0-0.003,0.001-0.005,0.002C9.166,1.756,8,3.237,8,5v2H3.5C2.671,7,2,7.67,2,8.5v6C2,15.328,2.671,16,3.5,16h9
	c0.828,0,1.5-0.672,1.5-1.5v-6C14,7.67,13.328,7,12.5,7H10V5c0-1.1,0.9-1.994,2-1.994S14,3.9,14,5v1h2V5
	C16,3.237,14.834,1.756,13.242,1.23z"/>
</svg>
