<?xml version="1.0" encoding="utf-8"?>
<!-- Generator: Adobe Illustrator 16.0.4, SVG Export Plug-In . SVG Version: 6.00 Build 0)  -->
<!DOCTYPE svg PUBLIC "-//W3C//DTD SVG 1.1//EN" "http://www.w3.org/Graphics/SVG/1.1/DTD/svg11.dtd">
<svg version="1.1" id="artwork" xmlns="http://www.w3.org/2000/svg" xmlns:xlink="http://www.w3.org/1999/xlink" x="0px" y="0px"
	 width="16px" height="16px" viewBox="0 0 16 16" enable-background="new 0 0 16 16" xml:space="preserve">
<g>
	<path fill="#3D464D" d="M1.5,2.98l1.734,2.208c0.65-0.595,1.407-1.122,2.261-1.548C9.408,1.692,13.818,2.6,15.348,5.67
		c1.224,2.456,0.23,5.552-2.222,7.688c-0.021,0.018-0.04,0.037-0.061,0.053c-0.157,0.125-0.245,0.125-0.293,0.082
		c-0.049-0.041-0.072-0.119,0.05-0.28c0.012-0.012,0.023-0.027,0.035-0.042c1.572-1.942,1.997-4.278,0.865-5.846
		c-1.465-2.03-4.986-1.994-7.863,0.083c-0.19,0.137-0.37,0.291-0.545,0.438L7,10H6.979h0.021H0.002L1.5,2.98z"/>
</g>
<g opacity="0.2">
	<g>
		<defs>
			<rect id="SVGID_7_" width="16" height="16"/>
		</defs>
		<clipPath id="SVGID_2_">
			<use xlink:href="#SVGID_7_"  overflow="visible"/>
		</clipPath>
	</g>
</g>
</svg>
