<?xml version="1.0" encoding="iso-8859-1"?>
<!-- Generator: Adobe Illustrator 16.0.4, SVG Export Plug-In . SVG Version: 6.00 Build 0)  -->
<!DOCTYPE svg PUBLIC "-//W3C//DTD SVG 1.1//EN" "http://www.w3.org/Graphics/SVG/1.1/DTD/svg11.dtd">
<svg version="1.1" id="artwork" xmlns="http://www.w3.org/2000/svg" xmlns:xlink="http://www.w3.org/1999/xlink" x="0px" y="0px"
	 width="16px" height="16px" viewBox="0 0 16 16" style="enable-background:new 0 0 16 16;" xml:space="preserve">
<path style="fill:#3D464D;" d="M12.5,5C10.567,5,9,6.566,9,8.5c0,0.98,0.406,1.865,1.056,2.5H5.944C6.594,10.365,7,9.48,7,8.5
	C7,6.566,5.433,5,3.5,5S0,6.566,0,8.5c0,1.859,1.453,3.363,3.282,3.479C3.28,11.985,3.579,11.992,3.578,12h8.594
	c0,0,0.298,0,0.328,0c1.933,0,3.5-1.566,3.5-3.5S14.433,5,12.5,5z M1,8.5C1,7.121,2.122,6,3.5,6S6,7.121,6,8.5S4.878,11,3.5,11
	S1,9.879,1,8.5z M12.5,11C11.122,11,10,9.879,10,8.5S11.122,6,12.5,6S15,7.121,15,8.5S13.878,11,12.5,11z"/>
</svg>
