<?xml version="1.0" encoding="utf-8"?>
<!-- Generator: Adobe Illustrator 16.0.4, SVG Export Plug-In . SVG Version: 6.00 Build 0)  -->
<!DOCTYPE svg PUBLIC "-//W3C//DTD SVG 1.1//EN" "http://www.w3.org/Graphics/SVG/1.1/DTD/svg11.dtd">
<svg version="1.1" id="artwork" xmlns="http://www.w3.org/2000/svg" xmlns:xlink="http://www.w3.org/1999/xlink" x="0px" y="0px"
	 width="16px" height="16px" viewBox="0 0 16 16" enable-background="new 0 0 16 16" xml:space="preserve">
<polygon points="16,12 13,12 13,9 12,9 12,12 9,12 9,13 12,13 12,16 13,16 13,13 16,13 "/>
<g>
	<path d="M14,11h0.925C14.977,10.91,15,10.803,15,10.688V3.312c0-0.311-0.169-0.562-0.59-0.562H14L11,5.5V8h3V11z"/>
	<path d="M9.948,11C9.981,10.885,10,10.763,10,10.637V9.133V4.867V3.363C10,2.609,9.377,2,8.607,2H1.391
		C1.343,2,1.295,2.002,1.249,2.007C0.548,2.076,0,2.656,0,3.363v0.001v7.271v0.001c0,0.66,0.477,1.209,1.11,1.336
		C1.201,11.99,1.295,12,1.391,12H8v-1H9.948z"/>
</g>
</svg>
