<?xml version="1.0" encoding="utf-8"?>
<!-- Generator: Adobe Illustrator 16.0.4, SVG Export Plug-In . SVG Version: 6.00 Build 0)  -->
<!DOCTYPE svg PUBLIC "-//W3C//DTD SVG 1.1//EN" "http://www.w3.org/Graphics/SVG/1.1/DTD/svg11.dtd">
<svg version="1.1" id="artwork" xmlns="http://www.w3.org/2000/svg" xmlns:xlink="http://www.w3.org/1999/xlink" x="0px" y="0px"
	 width="16px" height="16px" viewBox="0 0 16 16" enable-background="new 0 0 16 16" xml:space="preserve">
<path fill="#3D464D" d="M8,11h1.944C9.978,10.884,10,10.764,10,10.637V9.5V4.502V3.363C10,2.609,9.377,2,8.607,2H1.391
	C0.623,2,0,2.609,0,3.363v7.272C0,11.391,0.623,12,1.391,12H8v-0.75V11z"/>
<g>
	<path fill="#3D464D" d="M15,9.623V7V3.312c0-0.311-0.169-0.562-0.59-0.562H14L11,5.5v3l0.742,0.68l1.415-1.412L15,9.623z"/>
</g>
<polygon fill="#3D464D" points="12.5,10.401 14.082,12 9,12 9,13 14.082,13 12.5,14.599 13.152,15.25 15.884,12.499 13.152,9.75 "/>
</svg>
