<?xml version="1.0" encoding="utf-8"?>
<!-- Generator: Adobe Illustrator 16.0.4, SVG Export Plug-In . SVG Version: 6.00 Build 0)  -->
<!DOCTYPE svg PUBLIC "-//W3C//DTD SVG 1.1//EN" "http://www.w3.org/Graphics/SVG/1.1/DTD/svg11.dtd">
<svg version="1.1" id="artwork" xmlns="http://www.w3.org/2000/svg" xmlns:xlink="http://www.w3.org/1999/xlink" x="0px" y="0px"
	 width="16px" height="16px" viewBox="0 0 16 16" enable-background="new 0 0 16 16" xml:space="preserve">
<g>
	<path d="M8,13.5L8,13.5c-1.159,0-2.246-0.301-3.195-0.824L2.5,15h11l-2.305-2.324C10.245,13.199,9.158,13.5,8,13.5z
		"/>
	<path d="M14.267,1.006c-0.195-0.195-0.512-0.195-0.707,0L1.856,12.709c-0.195,0.195-0.195,0.512,0,0.707
		c0.195,0.195,0.512,0.195,0.707,0l2.042-2.042C5.553,12.08,6.726,12.5,8,12.5l0,0c2.553,0,4.711-1.676,5.432-3.99
		c0.166-0.535,0.256-1.101,0.256-1.689c0-0.59-0.09-1.154-0.256-1.688c-0.192-0.617-0.489-1.187-0.866-1.692
		c0.885-0.895,1.702-1.727,1.702-1.727C14.462,1.518,14.462,1.201,14.267,1.006z M10.591,7.918C10.165,8.928,9.165,9.637,8,9.637
		l0,0h0c-0.479,0-0.927-0.123-1.322-0.336l3.705-3.704c0.002,0.005,0.039-0.026,0.102-0.085c0.038,0.071,0.075,0.143,0.107,0.217
		c0.143,0.336,0.221,0.707,0.221,1.095S10.734,7.582,10.591,7.918z"/>
	<path d="M3.02,9.559l2.217-2.217C5.206,7.174,5.188,7,5.188,6.823c0-0.388,0.079-0.759,0.221-1.095
		C5.835,4.72,6.834,4.012,8,4.012h0c0.177,0,0.35,0.018,0.518,0.049l2.22-2.221C9.925,1.393,8.993,1.137,8,1.137
		c-2.553,0-4.712,1.681-5.432,3.995c-0.166,0.534-0.255,1.103-0.255,1.69c0,0.59,0.089,1.152,0.255,1.688
		C2.683,8.877,2.837,9.227,3.02,9.559z M7,2.484C7,2.217,7.216,2,7.482,2h0.001h1.034C8.784,2,9,2.217,9,2.484v0.033
		C9,2.785,8.784,3,8.517,3H7.483H7.482C7.216,3,7,2.785,7,2.518V2.484z"/>
</g>
</svg>
