<?xml version="1.0" encoding="utf-8"?>
<!-- Generator: Adobe Illustrator 16.0.4, SVG Export Plug-In . SVG Version: 6.00 Build 0)  -->
<!DOCTYPE svg PUBLIC "-//W3C//DTD SVG 1.1//EN" "http://www.w3.org/Graphics/SVG/1.1/DTD/svg11.dtd">
<svg version="1.1" id="artwork" xmlns="http://www.w3.org/2000/svg" xmlns:xlink="http://www.w3.org/1999/xlink" x="0px" y="0px"
	 width="16px" height="16px" viewBox="0 0 16 16" enable-background="new 0 0 16 16" xml:space="preserve">
<g>
	<rect x="4" y="12" width="8" height="2"/>
	<g>
		<path d="M15.975,7c0-0.305-0.021-0.605-0.051-0.905C15.818,5.072,15.537,4.018,15.117,3H0.883
			c-0.42,1.017-0.701,2.072-0.807,3.094C0.047,6.394,0.025,6.694,0.025,7s0.021,0.606,0.051,0.906C0.182,8.928,0.463,9.983,0.883,11
			h14.234c0.42-1.018,0.701-2.072,0.807-3.095C15.953,7.605,15.975,7.305,15.975,7z M3.5,6.375c-0.482,0-0.875-0.393-0.875-0.875
			c0-0.484,0.393-0.875,0.875-0.875S4.375,5.016,4.375,5.5C4.375,5.982,3.982,6.375,3.5,6.375z M8,9.812
			C6.447,9.812,5.188,8.554,5.188,7c0-1.553,1.26-2.812,2.812-2.812c1.554,0,2.812,1.26,2.812,2.812
			C10.812,8.554,9.554,9.812,8,9.812z"/>
	</g>
</g>
</svg>
