<?xml version="1.0" encoding="utf-8"?>
<!-- Generator: Adobe Illustrator 16.0.4, SVG Export Plug-In . SVG Version: 6.00 Build 0)  -->
<!DOCTYPE svg PUBLIC "-//W3C//DTD SVG 1.1//EN" "http://www.w3.org/Graphics/SVG/1.1/DTD/svg11.dtd">
<svg version="1.1" id="artwork" xmlns="http://www.w3.org/2000/svg" xmlns:xlink="http://www.w3.org/1999/xlink" x="0px" y="0px"
	 width="16px" height="16px" viewBox="0 0 16 16" enable-background="new 0 0 16 16" xml:space="preserve">
<g>
	<path fill="#3D464D" d="M8,13.5L8,13.5c-1.159,0-2.246-0.302-3.195-0.825L2.5,15h11l-2.305-2.325C10.245,13.198,9.158,13.5,8,13.5z
		"/>
	<path fill="#3D464D" d="M8,12.5c2.553,0,4.711-1.676,5.432-3.991c0.166-0.534,0.256-1.101,0.256-1.689s-0.09-1.154-0.256-1.688
		C12.712,2.816,10.553,1.136,8,1.136c-2.553,0-4.712,1.681-5.432,3.995C2.402,5.665,2.312,6.233,2.312,6.822
		s0.089,1.152,0.255,1.687C3.288,10.824,5.447,12.5,8,12.5z M7,2.483C7,2.217,7.216,2,7.482,2h0.001h1.034C8.784,2,9,2.217,9,2.483
		v0.034C9,2.784,8.784,3,8.517,3H7.483H7.482C7.216,3,7,2.784,7,2.518V2.483z M5.408,5.729C5.835,4.719,6.834,4.011,8,4.011h0
		c1.165,0,2.165,0.708,2.591,1.718c0.143,0.336,0.221,0.706,0.221,1.094c0,0.389-0.079,0.759-0.221,1.096
		C10.165,8.928,9.165,9.636,8,9.636h0c-1.165,0-2.165-0.708-2.591-1.718C5.266,7.581,5.188,7.211,5.188,6.822
		C5.188,6.435,5.266,6.064,5.408,5.729z"/>
</g>
</svg>
