<?xml version="1.0" encoding="utf-8"?>
<!-- Generator: Adobe Illustrator 16.0.4, SVG Export Plug-In . SVG Version: 6.00 Build 0)  -->
<!DOCTYPE svg PUBLIC "-//W3C//DTD SVG 1.1//EN" "http://www.w3.org/Graphics/SVG/1.1/DTD/svg11.dtd">
<svg version="1.1" id="artwork" xmlns="http://www.w3.org/2000/svg" xmlns:xlink="http://www.w3.org/1999/xlink" x="0px" y="0px"
	 width="16px" height="16px" viewBox="0 0 16 16" enable-background="new 0 0 16 16" xml:space="preserve">
<g>
	<g>
		<polygon fill="#3D464D" points="15.301,10.351 14.649,9.699 12.5,11.849 10.352,9.699 9.699,10.351 11.85,12.5 9.7,14.649 
			10.352,15.301 12.5,13.151 14.649,15.301 15.301,14.649 13.151,12.5 		"/>
		<g>
			<path fill="#3D464D" d="M14.649,7.719L15,8.07V3.312c0-0.311-0.169-0.562-0.59-0.562H14L11,5.5v2.867l1.5,1.502L14.649,7.719z"/>
			<path fill="#3D464D" d="M10,8.072V4.867V3.363C10,2.609,9.377,2,8.607,2H1.391C1.343,2,1.295,2.002,1.249,2.007
				C0.548,2.076,0,2.656,0,3.363v0.001v7.271v0.001c0,0.66,0.477,1.209,1.11,1.336C1.201,11.99,1.295,12,1.391,12h7.979l-1.651-1.65
				L10,8.072z"/>
		</g>
	</g>
</g>
</svg>
