<?xml version="1.0" encoding="utf-8"?>
<!-- Generator: Adobe Illustrator 16.0.4, SVG Export Plug-In . SVG Version: 6.00 Build 0)  -->
<!DOCTYPE svg PUBLIC "-//W3C//DTD SVG 1.1//EN" "http://www.w3.org/Graphics/SVG/1.1/DTD/svg11.dtd">
<svg version="1.1" id="artwork" xmlns="http://www.w3.org/2000/svg" xmlns:xlink="http://www.w3.org/1999/xlink" x="0px" y="0px"
	 width="16px" height="16px" viewBox="0 0 16 16" enable-background="new 0 0 16 16" xml:space="preserve">
<g>
	<path fill="#3D464D" d="M14.41,2.75H14L11,5.5v3l3,2.75h0.41c0.421,0,0.59-0.252,0.59-0.562V7V3.312
		C15,3.002,14.831,2.75,14.41,2.75z"/>
	<path fill="#3D464D" d="M13.104,1.402c0.195-0.194,0.195-0.51,0-0.705c-0.194-0.195-0.512-0.195-0.707,0L0.169,12.924
		c-0.194,0.195-0.194,0.512,0,0.707c0.195,0.195,0.513,0.195,0.707,0L2.507,12h6.102C9.377,12,10,11.391,10,10.637V4.5L13.104,1.402
		z"/>
</g>
<g>
	<path fill="#3D464D" d="M8.609,2H1.391C0.954,2,0.565,2.197,0.31,2.506C0.116,2.74,0,3.038,0,3.363v7.272
		c0,0.142,0.023,0.277,0.064,0.405l8.974-8.974C8.903,2.023,8.759,2,8.609,2z"/>
</g>
</svg>
