<?xml version="1.0" encoding="utf-8"?>
<!-- Generator: Adobe Illustrator 16.0.4, SVG Export Plug-In . SVG Version: 6.00 Build 0)  -->
<!DOCTYPE svg PUBLIC "-//W3C//DTD SVG 1.1//EN" "http://www.w3.org/Graphics/SVG/1.1/DTD/svg11.dtd">
<svg version="1.1" id="artwork" xmlns="http://www.w3.org/2000/svg" xmlns:xlink="http://www.w3.org/1999/xlink" x="0px" y="0px"
	 width="16px" height="16px" viewBox="0 0 16 16" enable-background="new 0 0 16 16" xml:space="preserve">
<g>
	<g>
		<path d="M3,4v8h10V4H3z M11,10H5V6h6V10z"/>
	</g>
	<g>
		<polygon points="2,3 4,3 4,1 0,1 0,5 2,5 		"/>
		<polygon points="2,13 4,13 4,15 0,15 0,11 2,11 		"/>
		<polygon points="14,13 12,13 12,15 16,15 16,11 14,11 		"/>
		<polygon points="14,3 12,3 12,1 16,1 16,5 14,5 		"/>
	</g>
</g>
</svg>
