<svg data-name="Layer 1" xmlns="http://www.w3.org/2000/svg" viewBox="0 0 32 32"><title>image</title><path d="M29.31 5.49a2.24 2.24 0 0 0-1.65-.69H4.33a2.25 2.25 0 0 0-1.65.69A2.25 2.25 0 0 0 2 7.13v17.74a2.25 2.25 0 0 0 .68 1.65 2.25 2.25 0 0 0 1.65.69h23.34A2.35 2.35 0 0 0 30 24.87V7.13a2.25 2.25 0 0 0-.69-1.64zm-1.18 19.38a.47.47 0 0 1-.47.47H4.33a.45.45 0 0 1-.33-.15.44.44 0 0 1-.14-.33V7.13a.47.47 0 0 1 .47-.47h23.34a.47.47 0 0 1 .47.47z"/><path d="M10.52 9.35a2.82 2.82 0 0 1 0 4 2.7 2.7 0 0 1-2 .82 2.79 2.79 0 0 1-2.8-2.8 2.79 2.79 0 0 1 2.8-2.8 2.7 2.7 0 0 1 2 .78zM26.27 16.93v6.54H5.73v-2.8L10.4 16l2.33 2.33 7.47-7.46 6.07 6.06z"/></svg>