<svg data-name="Layer 1" xmlns="http://www.w3.org/2000/svg" viewBox="0 0 32 32"><title>input</title><path d="M27.81 2.4H4.18A4.19 4.19 0 0 0 0 6.58v18.84a4.19 4.19 0 0 0 4.18 4.18h23.64A4.19 4.19 0 0 0 32 25.42V6.58a4.2 4.2 0 0 0-4.19-4.18zm.63 23a.63.63 0 0 1-.62.62H4.18a.63.63 0 0 1-.62-.62V6.58A.63.63 0 0 1 4.18 6h23.64a.63.63 0 0 1 .62.62zM12.26 11.2a1.33 1.33 0 0 0 0-2.66h-1.33a2.39 2.39 0 0 0-1.07.25 2.37 2.37 0 0 0-1.06-.26H7.46a1.33 1.33 0 0 0 0 2.66h1.07v9.6H7.46a1.33 1.33 0 1 0 0 2.66H8.8a2.37 2.37 0 0 0 1.07-.25 2.36 2.36 0 0 0 1.07.25h1.33a1.33 1.33 0 1 0 0-2.66H11.2V11.2z"/></svg>