<svg data-name="Layer 1" xmlns="http://www.w3.org/2000/svg" viewBox="0 0 32 32"><title>justify-left</title><path d="M22 6v2a1 1 0 0 1-1 1H3a1 1 0 0 1-1-1V6a1 1 0 0 1 1-1h18a1 1 0 0 1 1 1zm6 6v2a1 1 0 0 1-1 1H3a1 1 0 0 1-.7-.3A1 1 0 0 1 2 14v-2a1 1 0 0 1 .3-.7A1 1 0 0 1 3 11h24a1 1 0 0 1 1 1zm-4 6v2a1 1 0 0 1-1 1H3a1 1 0 0 1-.7-.3A1 1 0 0 1 2 20v-2a1 1 0 0 1 .3-.7A1 1 0 0 1 3 17h20a1 1 0 0 1 1 1zm6 6v2a1 1 0 0 1-1 1H3a1 1 0 0 1-.7-.3A1 1 0 0 1 2 26v-2a1 1 0 0 1 .3-.7A1 1 0 0 1 3 23h26a1 1 0 0 1 1 1z"/></svg>