<svg data-name="Layer 1" xmlns="http://www.w3.org/2000/svg" viewBox="0 0 32 32"><title>low-bandwidth</title><path d="M12.55 14.26l-2-3.92zM29.49 10.67A19 19 0 0 0 16 5a18.61 18.61 0 0 0-5 .66.28.28 0 0 0-.17.39l1.71 3.42a.2.2 0 0 0 .28.11A14.3 14.3 0 0 1 16 9.29a14.8 14.8 0 0 1 10.48 4.36 1 1 0 0 0 1.49 0l1.49-1.49a1 1 0 0 0 .33-.72c-.02-.27-.08-.66-.3-.77zM16 13.65a4.76 4.76 0 0 0-.88.06c-.17 0-.28.22-.22.39l1.93 3.81c.06.06.11.11.17.11a7 7 0 0 1 3.42 1.71 1 1 0 0 0 1.49 0l1.49-1.49a1 1 0 0 0 0-1.49 10.11 10.11 0 0 0-7.4-3.1zM16.19 21.43v-.06l-1.65-3.26-1.93-3.86-3.92-7.71-.39-.77a1.08 1.08 0 0 0-.55-.55 1.37 1.37 0 0 0-.94 0 1.11 1.11 0 0 0-.5 1.49l.39.77a20.64 20.64 0 0 0-4.08 3.15 1.07 1.07 0 0 0-.39.83.82.82 0 0 0 .33.72l1.49 1.49a1 1 0 0 0 1.49 0 13.83 13.83 0 0 1 3-2.32l2 3.86a8.8 8.8 0 0 0-1.93 1.55 1 1 0 0 0 0 1.49l1.49 1.49a1 1 0 0 0 1.49 0 5.53 5.53 0 0 1 .91-.74l1.65 3.2a2.84 2.84 0 0 0-.83 2 2.76 2.76 0 1 0 5.52 0 2.82 2.82 0 0 0-2.65-2.76z"/></svg>