<svg data-name="Layer 1" xmlns="http://www.w3.org/2000/svg" viewBox="0 0 32 32"><title>magnifying-glass-plus</title><path d="M27.81 24.17l-5.3-5.37a9.79 9.79 0 0 0 1.31-4.87 9.91 9.91 0 1 0-9.91 9.93 9.8 9.8 0 0 0 5-1.4l5.27 5.35a.65.65 0 0 0 .92 0l2.71-2.74a.65.65 0 0 0 0-.91zm-13.9-16.3a6.06 6.06 0 1 1-6 6.07 6.07 6.07 0 0 1 6-6.07z"/><path d="M13.42 17.63a.65.65 0 0 1-.65-.64v-1.9h-1.89a.66.66 0 0 1-.66-.64v-1a.65.65 0 0 1 .64-.65h1.89v-1.9a.65.65 0 0 1 .64-.65h1a.66.66 0 0 1 .65.64v1.89H17a.65.65 0 0 1 .65.64v1a.66.66 0 0 1-.64.64h-1.93V17a.67.67 0 0 1-.64.65h-1z"/><path d="M17 13.26h-2.44v-2.38a.15.15 0 0 0-.15-.15h-1a.15.15 0 0 0-.15.15v2.4h-2.39a.15.15 0 0 0-.15.15v1a.15.15 0 0 0 .15.15h2.4V17a.15.15 0 0 0 .15.15h1a.15.15 0 0 0 .15-.15v-2.4H17a.15.15 0 0 0 .15-.15v-1a.15.15 0 0 0-.15-.19z"/></svg>