<svg data-name="Layer 1" xmlns="http://www.w3.org/2000/svg" viewBox="0 0 32 32"><title>mic-off</title><path d="M23.26 19a1.08 1.08 0 0 0-1.49.33C20.67 21.08 18.74 22 16 22a7 7 0 0 1-4.69-1.49 3.78 3.78 0 0 1-1.49 1.6 9.14 9.14 0 0 0 6.18 2c4.3 0 6.45-1.93 7.56-3.59a1.07 1.07 0 0 0-.3-1.52z"/><path d="M16.09 28.85a1.16 1.16 0 0 1-1.16-1.1V23a1.12 1.12 0 0 1 1.16-1.1 1.16 1.16 0 0 1 1.16 1.1v4.8a1.19 1.19 0 0 1-1.16 1.05z"/><path d="M20.45 29.79h-8.78a1.1 1.1 0 0 1 0-2.21h8.77a1.1 1.1 0 0 1 0 2.21zM27.62 7.28a1.05 1.05 0 0 0-1.49-.11L4.5 26a1.05 1.05 0 0 0-.11 1.49 1.16 1.16 0 0 0 .77.39 1.29 1.29 0 0 0 .72-.28l9-7.83c.17 0 .44.06.61.06h1.32a3.55 3.55 0 0 0 3.53-3.64V15l7.06-6.18a1 1 0 0 0 .17-1.49zM11.62 14.35v2.15L14 14.29h-2.38zM16.36 2.21H15c-2.32 0-3.42 1.65-3.42 3.64v2.43h3.75a.83.83 0 1 1 0 1.66h-3.71v2.76h3.86l.33.17 4.08-3.81V5.85a3.58 3.58 0 0 0-3.53-3.64z"/></svg>