<svg data-name="Layer 1" xmlns="http://www.w3.org/2000/svg" viewBox="0 0 32 32"><title>mic-talking</title><path d="M11.34 24c-4.19 0-6.4-2-7.45-3.64a1.21 1.21 0 0 1 .33-1.6 1.21 1.21 0 0 1 1.6.33c1.16 1.77 3 2.59 5.57 2.59s4.47-.83 5.52-2.48a1.16 1.16 0 0 1 1.93 1.27c-1.21 1.65-3.31 3.53-7.5 3.53z"/><path d="M11.34 28.69a1.17 1.17 0 0 1-1.16-1.16v-4.69a1.16 1.16 0 0 1 2.32 0v4.69a1.29 1.29 0 0 1-1.16 1.16z"/><path d="M15.59 29.63H7a1.17 1.17 0 0 1-1.16-1.16A1.13 1.13 0 0 1 7 27.31h8.55a1.17 1.17 0 0 1 1.16 1.16 1.2 1.2 0 0 1-1.12 1.16zM11.45 2.37h-1.38c-2 0-3.14 1.54-3.14 3.53v2.43h3.64a.78.78 0 0 1 .83.83.78.78 0 0 1-.83.83H6.93v2.7h3.64a.83.83 0 1 1 0 1.66H6.93v1.88a3.71 3.71 0 0 0 3.7 3.59H12c2 0 3.09-1.6 3.09-3.59V5.85a3.61 3.61 0 0 0-3.64-3.48zM22.71 10.37a4.63 4.63 0 0 1 .77 2.63 5.09 5.09 0 0 1-.77 2.65 4.22 4.22 0 0 1-2.1 1.71 1 1 0 0 1-.44.11A1.13 1.13 0 0 1 19 16.33a.88.88 0 0 1 .22-.66 2.17 2.17 0 0 1 .55-.44 2.46 2.46 0 0 0 .61-.44 2.21 2.21 0 0 0 .55-.66 2.09 2.09 0 0 0 .22-1 2.09 2.09 0 0 0-.22-1 2.2 2.2 0 0 0-.55-.66 5.8 5.8 0 0 1-.61-.44 2.17 2.17 0 0 1-.55-.44.88.88 0 0 1-.22-.77 1.13 1.13 0 0 1 1.16-1.16 1 1 0 0 1 .44.11 3.37 3.37 0 0 1 2.11 1.6zm4-2.59a9.38 9.38 0 0 1 0 10.48 8.91 8.91 0 0 1-4.19 3.48 1.72 1.72 0 0 1-.44.11 1.13 1.13 0 0 1-1.16-1.16 1.17 1.17 0 0 1 .72-1.1 11.2 11.2 0 0 0 1.36-.83 6.41 6.41 0 0 0 2.15-2.54 7 7 0 0 0 0-6.4A7.26 7.26 0 0 0 23 7.28a15.19 15.19 0 0 0-1.43-.83 1.12 1.12 0 0 1-.72-1.1A1.13 1.13 0 0 1 22 4.19a1.62 1.62 0 0 1 .5.11 9 9 0 0 1 4.14 3.48z"/></svg>