<svg xmlns="http://www.w3.org/2000/svg" viewBox="0 0 32 24"><defs><style>.cls-1{fill:#b3b3b3}</style></defs><title>notification-email</title><g id="Layer_2" data-name="Layer 2"><path class="cls-1" d="M11.41 13.41c-8.29-6-8.92-6.55-10.83-8A1.49 1.49 0 0 1 0 4.19V3a3 3 0 0 1 3-3h26a3 3 0 0 1 3 3v1.19a1.48 1.48 0 0 1-.58 1.18c-1.91 1.5-2.54 2-10.83 8-1.05.8-3.14 2.63-4.59 2.63s-3.54-1.83-4.59-2.59zM32 8.22V21a3 3 0 0 1-3 3H3a3 3 0 0 1-3-3V8.23a.38.38 0 0 1 .61-.3C2 9 3.86 10.4 10.24 15c1.32 1 3.54 3 5.76 3s4.5-2.05 5.77-3c6.37-4.6 8.23-6 9.62-7.08a.38.38 0 0 1 .61.3z" id="Layer_1-2" data-name="Layer 1"/></g></svg>