<svg data-name="Layer 1" xmlns="http://www.w3.org/2000/svg" viewBox="0 0 32 32"><title>organization</title><path d="M25.16 18.73a4.1 4.1 0 0 0-1.43.22l-4.41-7.12a4.55 4.55 0 0 0 1.32-3.2 4.63 4.63 0 0 0-9.27 0 4.46 4.46 0 0 0 1.32 3.2L8.28 19a4.1 4.1 0 0 0-1.43-.22 4.63 4.63 0 1 0 0 9.27 4.6 4.6 0 0 0 4.15-2.7h10A4.6 4.6 0 0 0 25.16 28a4.63 4.63 0 1 0 0-9.27zm-14.9 1.38L14.68 13a4.1 4.1 0 0 0 1.43.22 4.1 4.1 0 0 0 1.43-.22L22 20.11a4.51 4.51 0 0 0-1.32 3h-9.1a4.46 4.46 0 0 0-1.32-3zm5.79-13.9a2.45 2.45 0 0 1 2.43 2.43A2.4 2.4 0 0 1 16.05 11a2.45 2.45 0 0 1-2.43-2.43 2.4 2.4 0 0 1 2.43-2.36zM7 25.74a2.43 2.43 0 1 1 2.43-2.43A2.45 2.45 0 0 1 7 25.74zm18.21 0a2.43 2.43 0 1 1 2.43-2.43 2.45 2.45 0 0 1-2.48 2.43z"/></svg>