<svg data-name="Layer 1" xmlns="http://www.w3.org/2000/svg" viewBox="0 0 32 32"><title>paint-bucket</title><path d="M27.14 16.23L15.61 4.75a.27.27 0 0 0-.39 0l-2.75 2.6-3.53-3.7C7 1.77 4.74 2 3.42 3.37c-1.21 1.16-1.65 3.31.22 5.24l3.86 3.87-5.18 5.07a.29.29 0 0 0-.11.22c0 .11.06.17.06.22L13.9 29.63c.06.06.11.06.22.06.06 0 .17-.06.22-.06l12.8-13a.61.61 0 0 0 0-.44zm-10.92-3.48l.06-.06a1.45 1.45 0 0 0-.22-1.6l-2-2 1.22-1.19 8.44 8.28H7l5.41-5.41 2 2a1.64 1.64 0 0 0 1 .39 1 1 0 0 0 .81-.41zm-7-2.15C8.5 9.88 5.79 7.35 5.41 7a1.33 1.33 0 0 1-.06-2 1.22 1.22 0 0 1 1.82.17l3.75 3.75-1.71 1.68zM26.7 20.26s-3.09 4.3-3.09 6a3.09 3.09 0 0 0 6.18 0c.06-1.7-3.09-6-3.09-6z"/></svg>