<svg data-name="Layer 1" xmlns="http://www.w3.org/2000/svg" viewBox="0 0 32 32"><title>paperclip</title><path d="M26.81 4.52a8.06 8.06 0 0 0-11.31 0L4.35 15.72l-.05.06-.05.06a4.79 4.79 0 0 0 0 6.79 4.8 4.8 0 0 0 6.73 0l8.77-8.77a1.79 1.79 0 0 0-2.54-2.54l-8.72 8.76a1.25 1.25 0 1 1-1.77-1.77l.05-.06.05-.06L18 7a4.42 4.42 0 0 1 3.15-1.32A4.3 4.3 0 0 1 24.32 7a4.52 4.52 0 0 1 1.32 3.14 4.3 4.3 0 0 1-1.32 3.15L10.86 26.76a1.77 1.77 0 0 0 0 2.54 1.84 1.84 0 0 0 1.27.5 2 2 0 0 0 1.27-.5l13.41-13.41a8 8 0 0 0 0-11.37z"/></svg>