<svg data-name="Layer 1" xmlns="http://www.w3.org/2000/svg" viewBox="0 0 32 32"><title>pc-group</title><path d="M10.73 17.3A5.24 5.24 0 0 0 16 12.05v-1.43A4.81 4.81 0 0 0 11 6h-.83a4.48 4.48 0 0 0-4.63 4.58v1.43a5.27 5.27 0 0 0 5.24 5.24zM13.1 18.84a.94.94 0 0 0-.39.06 5.28 5.28 0 0 1-4.47 0 1.08 1.08 0 0 0-.44-.06C4.61 18.84 2.18 21 2.18 24v1.55c0 .44.5.44 1 .44h14.67c.44 0 .88 0 .88-.5v-1.57c0-2.92-2.37-5.08-5.63-5.08zM27.56 14.81v-1A3.68 3.68 0 0 0 23.92 10h-.61a4 4 0 0 0-4 3.81v1a4.14 4.14 0 0 0 8.28 0zM25.46 20.33a.7.7 0 0 0-.33.06 3.9 3.9 0 0 1-3.15 0 .79.79 0 0 0-1 .28.91.91 0 0 0 0 1c.06.06.94 1.21.55 3.7-.06.22.06.28.22.44s.39.06.66.06h6.69c.44 0 .72.06.72-.44V24.3a4.09 4.09 0 0 0-4.36-3.97z"/></svg>