<svg data-name="Layer 1" xmlns="http://www.w3.org/2000/svg" viewBox="0 0 32 32"><title>phone-alpha</title><path d="M20.67 29.8a11.09 11.09 0 0 1-4-.72 6.46 6.46 0 0 1-3.59-3.26L6.82 13.58a6.92 6.92 0 0 1-.5-4.91 11.86 11.86 0 0 1 3.81-5.74 3 3 0 0 1 2.59-.66A3.2 3.2 0 0 1 14.88 4l1.55 3.09a3.92 3.92 0 0 1-.17 4.41L15 13.14l1.88 3.92 1.32 2.37 2.1-.06h.06a3.89 3.89 0 0 1 3.42 2.1c.28.61.61 1.16.88 1.77s.66 1.21.94 1.82a3 3 0 0 1-1.93 4.3 9.07 9.07 0 0 1-3 .44zm-8.5-25.38a.92.92 0 0 0-.61.22 9.47 9.47 0 0 0-3.08 4.64 4.22 4.22 0 0 0 .33 3.26L15 24.84A4.6 4.6 0 0 0 17.36 27a9.7 9.7 0 0 0 5.74.22 1 1 0 0 0 .55-.44.82.82 0 0 0 0-.72c-.33-.61-.61-1.21-.94-1.82s-.61-1.16-.94-1.77a1.59 1.59 0 0 0-1.43-.88l-2.76.06a1.23 1.23 0 0 1-1-.55l-1.65-3a.05.05 0 0 0-.06-.06l-2.15-4.52a1.23 1.23 0 0 1 .11-1.16l1.65-2.21c.17-.22.61-.77-.06-2.1L13 5a.92.92 0 0 0-.66-.55h-.17z"/></svg>