<svg data-name="Layer 1" xmlns="http://www.w3.org/2000/svg" viewBox="0 0 32 32"><title>phone-picker</title><path d="M20.47 22.48a3 3 0 0 0-2.65-1.6l-3.59.06-4.13-8.17 2.43-2.37a3.22 3.22 0 0 0 .06-3.53L10.87 3.5a2.15 2.15 0 0 0-3.37-.77 11.33 11.33 0 0 0-3.75 5.63 6 6 0 0 0 .44 4.47l2 4L8.83 22l2.1 4.08a6 6 0 0 0 3.26 3 11.51 11.51 0 0 0 7 .28 2.11 2.11 0 0 0 1.32-3c-.61-1.32-1.32-2.59-2-3.92zM27.92 7.42a1.49 1.49 0 0 0-2.1.22l-4.63 5.79-1.71-1.71a1.48 1.48 0 0 0-2.1 2.1l2.87 2.87a1.51 1.51 0 0 0 1 .44h.06a1.44 1.44 0 0 0 1.1-.55l5.68-7.12a1.38 1.38 0 0 0-.22-2z"/></svg>