<svg xmlns="http://www.w3.org/2000/svg" viewBox="0 0 16 15.997"><defs><style>.phone-ring-muted{fill:#aaa}.b{fill:red}</style></defs><path class="phone-ring-muted" d="M11.694 16a11.289 11.289 0 0 1-6.645-2.866l2.046-1.907.045.044a2.285 2.285 0 0 0 1.627.664 2.5 2.5 0 0 0 1.776-.745l.5-.489.351-.352a.937.937 0 0 1 .664-.276.869.869 0 0 1 .612.247l2.489 2.493a.905.905 0 0 1-.028 1.275l-.562.634a4.4 4.4 0 0 1-2.245 1.231 3.948 3.948 0 0 1-.63.047zm-9.036-5.3C.512 7.975-.2 5.21.047 3.675a4.393 4.393 0 0 1 1.234-2.246L1.841.8a.936.936 0 0 1 .665-.28.857.857 0 0 1 .609.248l2.491 2.489a.906.906 0 0 1-.028 1.276l-.351.354-.216.213-.281.273a2.417 2.417 0 0 0-.082 3.4l.029.029-2.018 1.889zM16 5.882h-3.178L14.739 4.1A1.64 1.64 0 0 0 16 4.739v1.142zm-8.185 0h-.16V4.739c1.584-.011 2.1-2.44 2.12-2.543C10.146.214 11.268 0 11.733 0h.189a1.7 1.7 0 0 1 1.394.752l-5.5 5.13z"/><path class="b" d="M2.039 12.27L14.472.676l1.364 1.463L3.403 13.733z"/></svg>