<svg data-name="Layer 1" xmlns="http://www.w3.org/2000/svg" viewBox="0 0 32 32"><title>progress-pie</title><path d="M29.86 8A15.88 15.88 0 0 0 24 2.14 15.64 15.64 0 0 0 16 0a15.67 15.67 0 0 0-8 2.14A16 16 0 0 0 2.14 8 15.69 15.69 0 0 0 0 16a15.68 15.68 0 0 0 2.14 8A15.88 15.88 0 0 0 8 29.86 15.64 15.64 0 0 0 16 32a15.73 15.73 0 0 0 8-2.14A15.88 15.88 0 0 0 29.86 24 15.69 15.69 0 0 0 32 16a15.73 15.73 0 0 0-2.14-8zm-2.73 8.67c0 .08 0 .1-.06.13H16v-12a.56.56 0 0 1 0-.1c0-.06.23 0 .29 0a4.61 4.61 0 0 1 .51 0 11.19 11.19 0 0 1 6.38 2.54 11.65 11.65 0 0 1 1.41 1.37 11 11 0 0 1 1.14 1.6 8.79 8.79 0 0 1 .78 1.79 13.83 13.83 0 0 1 .63 4.07v.54z"/></svg>