<svg data-name="Layer 1" xmlns="http://www.w3.org/2000/svg" viewBox="0 0 32 32"><title>question-with-screen</title><path d="M27.6.67H4.48A4.28 4.28 0 0 0 .06 4.81v15.82a4.29 4.29 0 0 0 4.27 4.31h9.83v3.2h-2a1.6 1.6 0 0 0 0 3.2h7.66a1.6 1.6 0 1 0 0-3.2H17.9v-3.21h9.66a4.25 4.25 0 0 0 4.38-4.11V4.88A4.28 4.28 0 0 0 27.63.67zM4.48 3.86H27.6a1.16 1.16 0 0 1 1.16 1v13.68H3.28V4.88a1.23 1.23 0 0 1 1.16-1z"/><path d="M19.42 8.7a.91.91 0 0 0 0-.45 3.41 3.41 0 0 0-6.77-.07.73.73 0 0 0 1.47 0 1.92 1.92 0 0 1 3.84 0v.26A1.94 1.94 0 0 1 17 10a3 3 0 0 0-1.73 2.45.68.68 0 0 0 .61.75H16a.72.72 0 0 0 .75-.68 1.56 1.56 0 0 1 1-1.24 3.46 3.46 0 0 0 1.67-2.58zM16.08 14.91a1.12 1.12 0 0 0 0 2.21h.17a1.12 1.12 0 0 0-.17-2.21z"/></svg>