<svg data-name="Layer 1" xmlns="http://www.w3.org/2000/svg" viewBox="0 0 32 32"><title>quote-right</title><path d="M29.79 12.52v-.33a6.62 6.62 0 1 0-6.62 6.62 7.8 7.8 0 0 0 2.26-.39 11.86 11.86 0 0 1-3.37 5.13 1.65 1.65 0 0 0-.06 2.33 1.61 1.61 0 0 0 2.32.11c5.57-5.08 5.52-13.08 5.52-13.41v-.06z"/><path d="M8.83 5.57a6.62 6.62 0 1 0 0 13.24 7.8 7.8 0 0 0 2.26-.39 12.94 12.94 0 0 1-3.37 5.13 1.65 1.65 0 0 0-.11 2.32 1.77 1.77 0 0 0 1.21.55A1.76 1.76 0 0 0 9.93 26c5.57-5.08 5.52-13.08 5.52-13.41v-.39a6.64 6.64 0 0 0-6.62-6.63z"/></svg>