<svg data-name="Layer 1" xmlns="http://www.w3.org/2000/svg" viewBox="0 0 32 32"><title>radio-button</title><path d="M28.12 9A14 14 0 0 0 23 3.88 13.69 13.69 0 0 0 16 2a13.69 13.69 0 0 0-7 1.88A13.94 13.94 0 0 0 3.88 9 13.69 13.69 0 0 0 2 16a13.69 13.69 0 0 0 1.88 7A13.94 13.94 0 0 0 9 28.12 13.69 13.69 0 0 0 16 30a13.69 13.69 0 0 0 7-1.88A14 14 0 0 0 28.12 23 13.69 13.69 0 0 0 30 16a13.69 13.69 0 0 0-1.88-7zm-3.54 12A9.88 9.88 0 0 1 21 24.59a10 10 0 0 1-10 0A9.87 9.87 0 0 1 7.42 21a10 10 0 0 1 0-10A9.88 9.88 0 0 1 11 7.41a10 10 0 0 1 10 0A9.89 9.89 0 0 1 24.58 11a10 10 0 0 1 0 10z"/><path d="M19.3 12.7a4.66 4.66 0 0 1 0 6.6 4.66 4.66 0 0 1-6.6 0 4.67 4.67 0 0 1 0-6.6 4.66 4.66 0 0 1 6.6 0z"/></svg>