<svg data-name="Layer 1" xmlns="http://www.w3.org/2000/svg" viewBox="0 0 32 32"><title>record</title><path d="M6.89 15.45a2 2 0 0 0 1.93-1.93v-1.38a.83.83 0 1 1 1.66 0v1.38a2 2 0 0 0 1.93 1.93H13a2 2 0 0 0 1.93-1.93v-5.8a.83.83 0 1 1 1.66 0v5.79a2 2 0 0 0 1.93 1.93H19a2 2 0 0 0 2-1.92v-1.38a.83.83 0 1 1 1.66 0v1.38a2 2 0 0 0 1.93 1.93h5.24a13.8 13.8 0 0 0-27.59 0h4.65zM24.55 17.66a2 2 0 0 0-1.93 1.93v.83a.83.83 0 1 1-1.66 0v-.83A2 2 0 0 0 19 17.66h-.55a2 2 0 0 0-1.93 1.93v5.24a.83.83 0 0 1-1.66 0v-5.24A2 2 0 0 0 13 17.65h-.55a2 2 0 0 0-1.93 1.93v.83a.83.83 0 0 1-1.66 0v-.83a2 2 0 0 0-1.93-1.93H2.31a13.78 13.78 0 0 0 27.37 0h-5.13z"/></svg>