<svg data-name="Layer 1" xmlns="http://www.w3.org/2000/svg" viewBox="0 0 32 32"><title>screen-small</title><path d="M12.09 0H9.54A.72.72 0 0 0 9 .2a.66.66 0 0 0-.19.5v8.16H.7A.72.72 0 0 0 .2 9a.66.66 0 0 0-.19.5v2.54a.67.67 0 0 0 .21.5.64.64 0 0 0 .5.21h11.41a.72.72 0 0 0 .5-.19.66.66 0 0 0 .19-.5V.7a.64.64 0 0 0-.21-.5.64.64 0 0 0-.52-.2zm7.31 12.58a.66.66 0 0 0 .5.19h11.41a.64.64 0 0 0 .5-.21.7.7 0 0 0 .21-.5V9.52A.72.72 0 0 0 31.8 9a.66.66 0 0 0-.5-.19h-8.16V.7A.72.72 0 0 0 23 .2a.66.66 0 0 0-.5-.19L19.9 0a.67.67 0 0 0-.5.21.7.7 0 0 0-.21.5v11.41a.6.6 0 0 0 .21.46zm-6.83 6.8a.66.66 0 0 0-.5-.19H.7a.64.64 0 0 0-.5.21.73.73 0 0 0-.21.5v2.54a.72.72 0 0 0 .19.5.66.66 0 0 0 .5.19h8.18v8.16a.72.72 0 0 0 .19.5.66.66 0 0 0 .5.19h2.54a.67.67 0 0 0 .5-.21.7.7 0 0 0 .21-.5V19.86a.74.74 0 0 0-.23-.48zm18.7-.18H19.86a.72.72 0 0 0-.5.19.66.66 0 0 0-.19.5v11.39a.64.64 0 0 0 .21.5.73.73 0 0 0 .5.21h2.54a.72.72 0 0 0 .5-.19.66.66 0 0 0 .19-.5v-8.16h8.16a.72.72 0 0 0 .5-.19.66.66 0 0 0 .19-.5v-2.54a.67.67 0 0 0-.21-.5.77.77 0 0 0-.48-.2z"/></svg>