<svg data-name="Layer 1" xmlns="http://www.w3.org/2000/svg" viewBox="0 0 32 32"><title>sms</title><path d="M29.1 1.6H2.9A2.91 2.91 0 0 0 0 4.5v18.2a2.91 2.91 0 0 0 2.9 2.9h19.5v3.94a.86.86 0 0 0 1.47.61l3.89-4.55h1.34a2.91 2.91 0 0 0 2.9-2.9V4.5a2.92 2.92 0 0 0-2.9-2.9zM9.22 21a3.8 3.8 0 0 1-2.06.59 4.22 4.22 0 0 1-1.92-.48 3.43 3.43 0 0 1-1.79-3.54.8.8 0 0 1 1.59.17A1.9 1.9 0 0 0 6 19.69a2.37 2.37 0 0 0 2.39 0 2 2 0 0 0 1-1.71c0-1.5-1.33-2.57-2.72-3.7s-3.27-2.69-3.26-4.9a3.7 3.7 0 0 1 2-3.49 4 4 0 0 1 4.46.74 4.17 4.17 0 0 1 1 3.27.81.81 0 0 1-.8.82.78.78 0 0 1-.8-.78 2.72 2.72 0 0 0-.55-2.24 2.43 2.43 0 0 0-2.59-.36A2.23 2.23 0 0 0 5 9.4c0 1.45 1.3 2.5 2.67 3.6 1.53 1.24 3.26 2.67 3.31 4.9A3.6 3.6 0 0 1 9.22 21zm10.51-.25a.8.8 0 1 1-1.6 0v-9.06l-1.37 4.49a.25.25 0 0 1 0 .08v.1a1 1 0 0 1-.12.15l-.06.06a.73.73 0 0 1-.25.13.68.68 0 0 1-.23 0 .57.57 0 0 1-.23 0 1 1 0 0 1-.25-.13l-.06-.06-.12-.15a.38.38 0 0 1 0-.1v-.08l-1.37-4.49v9.07a.8.8 0 0 1-1.6 0V6.33a.62.62 0 0 1 0-.17.29.29 0 0 1 0-.13l.09-.12a.33.33 0 0 1 .1-.11.54.54 0 0 1 .13-.08.76.76 0 0 1 .14-.08h.18a.53.53 0 0 1 .17 0 .35.35 0 0 1 .13 0l.13.09a.35.35 0 0 1 .11.1.54.54 0 0 1 .08.13.76.76 0 0 1 .08.14L16 13.23l2.17-7.11a1.19 1.19 0 0 1 .08-.15.37.37 0 0 1 .08-.11l.11-.1.13-.09h.52a.82.82 0 0 1 .14.08.39.39 0 0 1 .11.08s.06.08.1.11a1.26 1.26 0 0 1 .08.13v.14a1.58 1.58 0 0 1 0 .16v14.39zm7.14.21a3.8 3.8 0 0 1-2.06.59 4.23 4.23 0 0 1-1.92-.48 3.43 3.43 0 0 1-1.79-3.54.8.8 0 0 1 1.59.17 1.9 1.9 0 0 0 .92 1.94 2.37 2.37 0 0 0 2.39 0 2 2 0 0 0 1-1.71c0-1.5-1.33-2.57-2.72-3.7s-3.28-2.68-3.23-4.9a3.7 3.7 0 0 1 2-3.49 4 4 0 0 1 4.46.74 4.18 4.18 0 0 1 1 3.27.81.81 0 0 1-.8.82.78.78 0 0 1-.8-.78 2.72 2.72 0 0 0-.61-2.22 2.43 2.43 0 0 0-2.59-.36 2.23 2.23 0 0 0-1.11 2.06c0 1.45 1.28 2.51 2.65 3.62 1.53 1.24 3.26 2.67 3.31 4.9a3.57 3.57 0 0 1-1.7 3.11z"/></svg>