<svg data-name="Layer 1" xmlns="http://www.w3.org/2000/svg" viewBox="0 0 32 32"><title>sort-numeric-asc</title><path d="M15.62 25.11a.62.62 0 0 1-.17.4l-5.34 5.34a.55.55 0 0 1-.39.15.6.6 0 0 1-.39-.15L4 25.49a.51.51 0 0 1-.12-.59.5.5 0 0 1 .5-.33h3.2v-23a.52.52 0 0 1 .15-.39.51.51 0 0 1 .39-.18h3.21a.51.51 0 0 1 .39.15.52.52 0 0 1 .15.39v23h3.21a.51.51 0 0 1 .54.53zM28.18 24a9.57 9.57 0 0 1-.18 2 7.91 7.91 0 0 1-.69 1.91 6.44 6.44 0 0 1-1.14 1.6 4.92 4.92 0 0 1-1.65 1.1 6 6 0 0 1-3.94.14l-.7-.25.65-1.89a2.87 2.87 0 0 0 .52.19 3.72 3.72 0 0 0 1.25.22 2.82 2.82 0 0 0 2.25-1 5 5 0 0 0 1.11-2.44 2.43 2.43 0 0 1-1 .62 4.29 4.29 0 0 1-1.41.23 3.8 3.8 0 0 1-2.9-1.2 4.2 4.2 0 0 1 3.12-7.09 4.35 4.35 0 0 1 3.43 1.58A6.22 6.22 0 0 1 28.18 24zm-.5-12v1.91h-7.86v-1.96h2.8V4.72 4.4v-.55l-.12.2a2.92 2.92 0 0 1-.43.52l-1 1-1.43-1.47L22.85 1h2.06v10.95zm-1.85 11a3 3 0 0 0-.73-2 2.19 2.19 0 0 0-1.72-.89 1.72 1.72 0 0 0-1.39.62 2.37 2.37 0 0 0-.52 1.57 2.2 2.2 0 0 0 .61 1.59 2.31 2.31 0 0 0 1.75.64 2.27 2.27 0 0 0 1.42-.45 1.38 1.38 0 0 0 .58-1.08z"/></svg>