<svg data-name="Layer 1" xmlns="http://www.w3.org/2000/svg" viewBox="0 0 32 32"><title>thumbtack-on</title><path d="M25.69 20.33a1.06 1.06 0 0 1-1.06 1.06H17.4l-.84 8.12a.64.64 0 0 1-.17.34c-.11.11-.22.17-.34.11a.5.5 0 0 1-.56-.45l-1.29-8.18H7.38a1.1 1.1 0 0 1-1.06-1.06 5.82 5.82 0 0 1 1.34-3.75 3.8 3.8 0 0 1 3-1.68V6.33a2.16 2.16 0 0 1-1.6-3.64l.06-.06a2.16 2.16 0 0 1 1.5-.63h10.76a2.16 2.16 0 0 1 1.51.62 2.11 2.11 0 0 1 .06 3l-.06.06a2.16 2.16 0 0 1-1.51.62v8.6a3.72 3.72 0 0 1 3 1.68 6.15 6.15 0 0 1 1.31 3.75z"/></svg>