<svg data-name="Layer 1" xmlns="http://www.w3.org/2000/svg" viewBox="0 0 32 32"><title>thumbtack-off</title><path d="M7.34 21.3h.05L21.13 8.72V6.46a2.24 2.24 0 0 0 1.49-.61 1.92 1.92 0 0 0 .61-1.49 2.24 2.24 0 0 0-.61-1.49 1.89 1.89 0 0 0-1.49-.66H10.54a2.24 2.24 0 0 0-1.54.6 1.92 1.92 0 0 0-.56 1.49A2.24 2.24 0 0 0 9 5.79a1.92 1.92 0 0 0 1.49.61v8.5a3.63 3.63 0 0 0-2.92 1.66 5.73 5.73 0 0 0-1.32 3.7 1.09 1.09 0 0 0 .33.77 1.16 1.16 0 0 0 .72.28zM27.26 9.16a1.21 1.21 0 1 0-1.66-1.77L4.75 26.7a1.21 1.21 0 0 0-.05 1.71 1.1 1.1 0 0 0 .88.39 1.22 1.22 0 0 0 .83-.33l6.79-6.29.88-.83 1.27 8a.5.5 0 0 0 .55.44.47.47 0 0 0 .33-.17.48.48 0 0 0 .17-.33l.83-8h7.12a1.09 1.09 0 0 0 .75-.29 1 1 0 0 0 .33-.77 5.74 5.74 0 0 0-1.32-3.7 3.78 3.78 0 0 0-2.92-1.65v-.11l6.07-5.57z"/></svg>