<svg data-name="Layer 1" xmlns="http://www.w3.org/2000/svg" viewBox="0 0 32 32"><title>underline</title><path d="M1.94 2.86a6.77 6.77 0 0 1-.88-.08L1 1.06h.78Q3 1 4 1.12c1.72.09 2.8.14 3.24.14 1.12 0 2.21 0 3.28-.06l2.85-.1h1.68v1.7a16.76 16.76 0 0 1-2.42.17 1.89 1.89 0 0 0-1.54.49A6.44 6.44 0 0 0 10.82 6v5.6l.27 5.47a8.66 8.66 0 0 0 1 3.94A4.81 4.81 0 0 0 14 22.82a7.3 7.3 0 0 0 3.46.92 12.11 12.11 0 0 0 3.73-.55 6.28 6.28 0 0 0 1.93-1 5 5 0 0 0 1.27-1.25 8.67 8.67 0 0 0 1-2.23 17.65 17.65 0 0 0 .41-4.47c0-1 0-1.86-.07-2.5s-.12-1.44-.21-2.39-.19-2-.26-3.12l-.08-1.15a3.08 3.08 0 0 0-.47-1.72 2 2 0 0 0-1.5-.67h-2L21 2.68V1h1.7l4 .19A26.67 26.67 0 0 0 30.53 1h.35A7.8 7.8 0 0 1 31 2a5.25 5.25 0 0 1-.08.6 7.17 7.17 0 0 1-1.64.26 5.73 5.73 0 0 0-1.54.33 1.08 1.08 0 0 0-.29.8v1.13c0 .14.25 2.83.43 7.74a28.56 28.56 0 0 1-.29 5.94 8 8 0 0 1-.8 2.39 8.69 8.69 0 0 1-2.19 2.4 11 11 0 0 1-3.55 1.74 17.23 17.23 0 0 1-5 .65 15.2 15.2 0 0 1-5.55-.9 8.24 8.24 0 0 1-3.49-2.38 8.45 8.45 0 0 1-1.62-3.81 25.51 25.51 0 0 1-.31-4.63V7.78c0-2.45-.11-3.83-.33-4.16s-1.22-.72-2.81-.76zM31 30.37v-1.25a.61.61 0 0 0-.18-.45.61.61 0 0 0-.45-.18H1.62a.6.6 0 0 0-.62.62v1.25a.61.61 0 0 0 .18.45.61.61 0 0 0 .45.18h28.74a.6.6 0 0 0 .63-.63z"/></svg>