<svg data-name="Layer 1" xmlns="http://www.w3.org/2000/svg" viewBox="0 0 32 32"><title>undo</title><path d="M2 4.33v8.17a1.12 1.12 0 0 0 .35.82 1.12 1.12 0 0 0 .82.35h8.17a1.09 1.09 0 0 0 1.08-.73 1 1 0 0 0-.26-1.26L9.64 9.16a9.31 9.31 0 0 1 10-1.76 9.23 9.23 0 0 1 5 5 9.23 9.23 0 0 1 0 7.24 9.25 9.25 0 0 1-5 5 9.26 9.26 0 0 1-11-2.89.55.55 0 0 0-.42-.22.71.71 0 0 0-.46.16l-2.5 2.52a.5.5 0 0 0-.17.37.6.6 0 0 0 .14.41A13.72 13.72 0 0 0 10 28.68 13.93 13.93 0 0 0 16 30a13.61 13.61 0 0 0 5.43-1.11 13.83 13.83 0 0 0 7.46-7.45 13.83 13.83 0 0 0 0-10.86 13.83 13.83 0 0 0-7.46-7.45A13.79 13.79 0 0 0 10.81 3a14.17 14.17 0 0 0-4.45 2.87L4 3.52a1.05 1.05 0 0 0-1.28-.26A1.09 1.09 0 0 0 2 4.33z"/></svg>