<svg data-name="Layer 1" xmlns="http://www.w3.org/2000/svg" viewBox="0 0 32 32"><title>vert-container</title><path d="M30.08 1.92A6.3 6.3 0 0 0 25.46 0H6.55a6.29 6.29 0 0 0-4.63 1.92A6.3 6.3 0 0 0 0 6.54v18.92a6.3 6.3 0 0 0 1.92 4.63A6.3 6.3 0 0 0 6.55 32h18.9A6.55 6.55 0 0 0 32 25.46V6.54a6.3 6.3 0 0 0-1.91-4.62zm-1 23.54a3.65 3.65 0 0 1-3.64 3.64H6.55A3.5 3.5 0 0 1 4 28a3.5 3.5 0 0 1-1.07-2.57V6.54A3.5 3.5 0 0 1 4 4a3.5 3.5 0 0 1 2.55-1.1h18.9A3.5 3.5 0 0 1 28 4a3.5 3.5 0 0 1 1.07 2.57zM19.1 9.81a.73.73 0 0 0 .54-.23.74.74 0 0 0 .24-.58.73.73 0 0 0-.23-.54l-3.1-3.1a.73.73 0 0 0-.55-.2.72.72 0 0 0-.54.23l-3.1 3.1a.77.77 0 0 0-.23.54.73.73 0 0 0 .23.54.74.74 0 0 0 .54.23h1.55v12.4H12.9a.72.72 0 0 0-.54.23.77.77 0 0 0-.23.54.73.73 0 0 0 .23.54l3.1 3.1a.73.73 0 0 0 .54.23.73.73 0 0 0 .54-.23l3.1-3.1a.74.74 0 0 0 .23-.54.73.73 0 0 0-.23-.54.73.73 0 0 0-.54-.23h-1.55V9.81z"/></svg>