<svg data-name="Layer 1" xmlns="http://www.w3.org/2000/svg" viewBox="0 0 32 32"><title>video-off-alpha</title><path d="M3.15 21.23a1.09 1.09 0 0 0 1.27-1.1v-9.49a1.3 1.3 0 0 1 1.21-1.38h11.31A1.12 1.12 0 0 0 18 8.1 1.07 1.07 0 0 0 16.94 7H5.63a3.51 3.51 0 0 0-3.42 3.59v9.49a1.18 1.18 0 0 0 .94 1.16zM29.19 8.21a1.23 1.23 0 0 0-1.19.11l-5 4a3.78 3.78 0 0 0-2.26 3.31v5.85a1.3 1.3 0 0 1-1.21 1.38h-8.88a1.18 1.18 0 0 0-1.16.94 1.09 1.09 0 0 0 1.1 1.2h8.94A3.51 3.51 0 0 0 23 21.45V20l5 3.71a1 1 0 0 0 .66.22 1.62 1.62 0 0 0 .5-.11 1 1 0 0 0 .61-1V9.15a1.15 1.15 0 0 0-.61-.94zm-1.6 12.47L23 17.31v-2.15l4.63-3.64zM25.27 6.06a1.12 1.12 0 0 0-1.55-.11L2.59 24.38a1.12 1.12 0 0 0-.11 1.55 1 1 0 0 0 .83.39A1.16 1.16 0 0 0 4 26L25.16 7.6a1.12 1.12 0 0 0 .11-1.54z"/></svg>