<svg data-name="Layer 1" xmlns="http://www.w3.org/2000/svg" viewBox="0 0 32 32"><title>video-alpha</title><path d="M29.19 8.19A1.23 1.23 0 0 0 28 8.3l-5 4v-1.73A3.51 3.51 0 0 0 19.59 7h-14a3.51 3.51 0 0 0-3.42 3.59v10.84A3.51 3.51 0 0 0 5.63 25h13.9A3.51 3.51 0 0 0 23 21.43V20l5 3.7a1 1 0 0 0 .66.22 1.62 1.62 0 0 0 .5-.11 1 1 0 0 0 .61-1V9.19a1.16 1.16 0 0 0-.61-1zm-9.66 14.62H5.63a1.3 1.3 0 0 1-1.21-1.38V10.62a1.3 1.3 0 0 1 1.21-1.38h13.9a1.3 1.3 0 0 1 1.21 1.38v10.81a1.3 1.3 0 0 1-1.21 1.38zm8.06-2.15L23 17.3v-2.16l4.63-3.64z"/></svg>