<svg data-name="Layer 1" xmlns="http://www.w3.org/2000/svg" viewBox="0 0 32 32"><title>voicemail</title><path d="M24.41 10.48A5.51 5.51 0 0 0 19 16a6.17 6.17 0 0 0 1 3.31h-8A6.17 6.17 0 0 0 13 16a5.46 5.46 0 0 0-5.41-5.46 5.37 5.37 0 0 0-5.41 5.35 5.69 5.69 0 0 0 1.71 4 6.28 6.28 0 0 0 4 1.55c1.82.06 3.7.11 5.52.11h9c1.88 0 3.64-.06 5.19-1.21a5.52 5.52 0 0 0 2.15-4.36 5.38 5.38 0 0 0-5.35-5.46zm-20 5.41a3.2 3.2 0 1 1 3.2 3.2 3.2 3.2 0 0 1-3.17-3.2zm20 3.2a3.2 3.2 0 1 1 3.2-3.2 3.2 3.2 0 0 1-3.2 3.2z"/></svg>