<svg id="Layer_1" data-name="Layer 1" xmlns="http://www.w3.org/2000/svg" viewBox="0 0 584 584"><defs><style>.cls-1-whatsapp,.cls-2-whatsapp{fill-rule:evenodd}.cls-1-whatsapp{fill:url(#whatsapp-linear-gradient)}.cls-2-whatsapp{fill:#fff}</style><linearGradient id="linear-gradient" x1="356.97" y1="55.81" x2="356.97" y2="639.81" gradientTransform="matrix(1 0 0 -1 0 693.61)" gradientUnits="userSpaceOnUse"><stop offset="0" stop-color="#4fb848"/><stop offset="1" stop-color="#87c76c"/></linearGradient></defs><title>whatsapp</title><g data-name="WhatsApp Logo Icon"><path class="cls-1-whatsapp" d="M649 489.62c0 3.2-.1 10.13-.29 15.49-.47 13.11-1.51 30-3.08 37.73A126.07 126.07 0 0 1 635 574.45a112.57 112.57 0 0 1-49.55 49.49 126 126 0 0 1-31.79 10.58c-7.63 1.54-24.42 2.56-37.44 3-5.36.2-12.3.29-15.49.29h-287.6c-3.2 0-10.13-.1-15.49-.29-13.11-.47-30-1.51-37.73-3.08a126.26 126.26 0 0 1-31.58-10.63 112.57 112.57 0 0 1-49.49-49.55 125.64 125.64 0 0 1-10.58-31.79c-1.54-7.63-2.56-24.42-3-37.44-.2-5.36-.29-12.3-.29-15.48V202c0-3.2.1-10.13.29-15.49.47-13.11 1.51-30 3.08-37.73A125.86 125.86 0 0 1 79 117.17a112.47 112.47 0 0 1 49.55-49.49 125.64 125.64 0 0 1 31.76-10.58c7.63-1.54 24.42-2.56 37.44-3 5.36-.2 12.3-.29 15.48-.29h287.58c3.2 0 10.13.1 15.49.29 13.11.47 30 1.51 37.73 3.08a125.86 125.86 0 0 1 31.58 10.63 112.52 112.52 0 0 1 49.49 49.55 125.51 125.51 0 0 1 10.58 31.79c1.54 7.63 2.56 24.42 3 37.44.19 5.36.28 12.3.28 15.49z" transform="translate(-64.97 -53.81)" id="Icon_Shape" data-name="Icon Shape"/><path class="cls-2-whatsapp" d="M510.57 193.6a206.84 206.84 0 0 0-147.27-61c-114.75 0-208.15 93.36-208.19 208.11a207.61 207.61 0 0 0 27.79 104l-29.54 107.85 110.37-28.94A208.13 208.13 0 0 0 363.21 549h.09c114.7 0 208.14-93.41 208.19-208.17a206.83 206.83 0 0 0-60.92-147.23zM363.3 513.81h-.07a172.81 172.81 0 0 1-88.07-24.11l-6.32-3.7-65.49 17.18 17.48-63.83-4.12-6.55a172.54 172.54 0 0 1-26.45-92.06c0-95.37 77.66-173 173.11-173a173 173 0 0 1 173 173v.09c-.07 95.37-77.7 172.98-173.07 172.98zm94.91-129.55c-5.2-2.6-30.77-15.18-35.54-16.92s-8.24-2.6-11.71 2.6-13.43 16.87-16.47 20.38-6.07 3.91-11.27 1.31-22-8.1-41.83-25.82c-15.46-13.78-25.9-30.81-28.94-36s-.32-8 2.28-10.61c2.34-2.33 5.2-6.08 7.81-9.11s3.46-5.21 5.2-8.68.86-6.51-.44-9.11-11.7-28.2-16-38.61c-4.23-10.14-8.52-8.77-11.71-8.93-3-.15-6.5-.18-10-.18a19.1 19.1 0 0 0-13.87 6.51c-4.77 5.2-18.21 17.78-18.21 43.38s18.64 50.32 21.24 53.79 36.68 56 88.87 78.53a302.58 302.58 0 0 0 29.65 10.95c12.46 4 23.8 3.4 32.77 2.06 10-1.49 30.77-12.58 35.11-24.73s4.33-22.56 3-24.73-4.74-3.53-9.94-6.09z" transform="translate(-64.97 -53.81)" id="WA_Logo" data-name="WA Logo"/></g></svg>