<svg data-name="Layer 1" xmlns="http://www.w3.org/2000/svg" viewBox="0 0 32 32"><title>wrap-up-code</title><path d="M10.4 27.37a.68.68 0 0 0-.55-.28H6.48a.55.55 0 0 1-.55-.55V7.94a.55.55 0 0 1 .55-.55h3.31v1.77a1 1 0 0 0 1 1H20a1 1 0 0 0 1-1V7.39h3.3a.55.55 0 0 1 .55.55V11a.61.61 0 0 0 .33.55 8.32 8.32 0 0 1 1.27.83.41.41 0 0 0 .66-.33v-4.1a2.83 2.83 0 0 0-2.81-2.82h-5.51a3.39 3.39 0 0 0-3.37-2.92 3.3 3.3 0 0 0-3.31 2.92H6.59a2.83 2.83 0 0 0-2.81 2.82v18.53a2.83 2.83 0 0 0 2.81 2.82h4.52a.44.44 0 0 0 .33-.72 7.17 7.17 0 0 1-1-1.21zm5-22.9a1.17 1.17 0 0 1 1.16 1.16 1.13 1.13 0 0 1-1.16 1.16 1.16 1.16 0 1 1 0-2.32z"/><path d="M19.78 12.91a8.44 8.44 0 1 0 8.44 8.44 8.44 8.44 0 0 0-8.44-8.44zm5.41 6.34L19 25.43a1.47 1.47 0 0 1-2 0l-2.65-2.65a1.4 1.4 0 0 1 2-2L18 22.45l5.19-5.19a1.4 1.4 0 0 1 2 2z"/></svg>