<svg viewBox="0 0 16 16" xmlns="http://www.w3.org/2000/svg"><path d="M10.0002 13H8.66684C8.29878 13 8.00017 13.2986 8.00017 13.6667C8.00017 14.0347 8.30017 14.3334 8.66684 14.3334H10.0002C10.3682 14.3334 10.6418 14.0347 10.6418 13.6667C10.6418 13.2986 10.3668 13 10.0002 13ZM11.7529 9.44447H8.66684C8.30017 9.44447 8.00017 9.74447 8.00017 10.1111C8.00017 10.4778 8.30017 10.7778 8.66684 10.7778H11.7529C12.121 10.7778 12.4196 10.4792 12.4196 10.1111C12.4196 9.74308 12.1446 9.44447 11.7529 9.44447ZM13.5307 5.88892H8.66684C8.30017 5.88892 8.00017 6.18892 8.00017 6.55558C8.00017 6.92225 8.30017 7.22225 8.66684 7.22225H13.5307C13.8988 7.22225 14.1974 6.92364 14.1974 6.55558C14.1974 6.18753 13.9224 5.88892 13.5307 5.88892ZM15.3085 2.33336H8.66684C8.30017 2.33336 8.00017 2.63197 8.00017 3.00003C8.00017 3.36808 8.30017 3.66669 8.66684 3.66669H15.3085C15.6766 3.66669 15.9752 3.36808 15.9752 3.00003C15.9752 2.63197 15.7002 2.33336 15.3085 2.33336ZM5.7335 10.3084L4.22239 11.9695V2.55614C4.22239 2.1878 3.92517 1.88892 3.55572 1.88892C3.18628 1.88892 2.88906 2.1878 2.88906 2.55614V11.97L1.37878 10.3325C1.2477 10.1902 1.06878 10.1181 0.889335 10.1181C0.727891 10.1181 0.565446 10.1763 0.437113 10.2952C0.16628 10.5446 0.149891 10.9669 0.39978 11.238L3.04145 14.1296C3.29317 14.4024 3.76895 14.4024 4.02061 14.1296L6.66228 11.238C6.91228 10.9669 6.89578 10.5446 6.62495 10.2952C6.40295 10.0417 5.98072 10.0611 5.7335 10.3084Z"/></svg>