<svg viewBox="0 0 16 16" xmlns="http://www.w3.org/2000/svg"><path d="M14 3H12V2C12 0.895313 11.1047 0 10 0H6C4.89687 0 4 0.895313 4 2V3H2C0.895313 3 0 3.89687 0 5V13C0 14.1047 0.895313 15 2 15H14C15.1047 15 16 14.1047 16 13V5C16 3.89687 15.1031 3 14 3ZM6 1.5H10C10.2762 1.5 10.5 1.72384 10.5 2V3H5.5V2C5.5 1.72375 5.725 1.5 6 1.5ZM2 4.5H14C14.275 4.5 14.5 4.725 14.5 5V8H1.5V5C1.5 4.725 1.725 4.5 2 4.5ZM14 13.5H2C1.725 13.5 1.5 13.275 1.5 13V9.5H6V10C6 10.5522 6.44781 11 7 11H9C9.55219 11 10 10.5522 10 10V9.5H14.5V13C14.5 13.275 14.275 13.5 14 13.5Z"/></svg>