<svg viewBox="0 0 16 16" xmlns="http://www.w3.org/2000/svg"><g clip-path="url(#clip0_11902_178422)"><path d="M8.75 8C8.75 8.41562 8.41562 8.75 8 8.75H4.75C4.33437 8.75 4 8.41562 4 8C4 7.58437 4.33437 7.25 4.75 7.25H7.25V3.75C7.25 3.33437 7.58437 3 8 3C8.41562 3 8.75 3.33437 8.75 3.75V8ZM16 8C16 12.4187 12.4187 16 8 16C3.58125 16 0 12.4187 0 8C0 3.58125 3.58125 0 8 0C12.4187 0 16 3.58125 16 8ZM8 1.5C4.40938 1.5 1.5 4.40938 1.5 8C1.5 11.5906 4.40938 14.5 8 14.5C11.5906 14.5 14.5 11.5906 14.5 8C14.5 4.40938 11.5906 1.5 8 1.5Z"/></g><defs><clipPath><rect/></clipPath></defs></svg>