<svg viewBox="0 0 16 16" xmlns="http://www.w3.org/2000/svg"><g clip-path="url(#clip0_11902_178420)"><path d="M8 0C12.4187 0 16 3.58125 16 8C16 12.4187 12.4187 16 8 16C6.36875 16 4.85 15.5125 3.58437 14.6719C3.24062 14.4438 3.14687 13.9781 3.34687 13.6344C3.60312 13.2875 4.06875 13.1938 4.41563 13.4219C5.44063 14.1031 6.67188 14.5 8 14.5C11.5906 14.5 14.5 11.5906 14.5 8C14.5 4.40938 11.5906 1.5 8 1.5C5.7 1.5 3.67812 2.695 2.52156 4.5H4.25C4.66563 4.5 5 4.83437 5 5.25C5 5.66563 4.66563 6 4.25 6H0.75C0.335938 6 0 5.66563 0 5.25V1.75C0 1.33594 0.335938 1 0.75 1C1.16406 1 1.5 1.33594 1.5 1.75V3.33437C2.95156 1.31625 5.32188 0 8 0ZM8 4C8.41562 4 8.75 4.33437 8.75 4.75V7.69063L10.7531 9.71875C11.0719 10.0125 11.0719 10.4875 10.7531 10.7531C10.4875 11.0719 10.0125 11.0719 9.71875 10.7531L7.46875 8.50313C7.32812 8.39062 7.25 8.2 7.25 8V4.75C7.25 4.33437 7.58437 4 8 4Z"/></g><defs><clipPath><rect/></clipPath></defs></svg>