<svg viewBox="0 0 16 16" xmlns="http://www.w3.org/2000/svg"><path d="M14.7589 6.14808C14.1086 3.77261 12.236 1.90037 9.8601 1.25024C9.55998 0.515726 8.84095 0 8.00313 0C7.1653 0 6.44627 0.515726 6.14928 1.24712C3.77335 1.89725 1.90074 3.76949 1.25049 6.14495C0.515826 6.44501 0 7.1639 0 8.00156C0 8.83923 0.515827 9.55812 1.24736 9.85505C1.89762 12.2305 3.77022 14.1028 6.14615 14.7529C6.44314 15.4843 7.16217 16 8 16C8.83783 16 9.55686 15.4843 9.85385 14.7529C12.2298 14.1028 14.1024 12.2305 14.7526 9.85505C15.4842 9.55812 16 8.83923 16 8.00156C16 7.1639 15.4842 6.44501 14.7526 6.14808H14.7589ZM12.755 6.43876C12.2954 6.80445 12.0047 7.37019 12.0047 8.00156C12.0047 8.63294 12.2986 9.19867 12.755 9.56437C12.261 11.0709 11.0699 12.2586 9.56624 12.7525C9.20047 12.293 8.63462 12.0023 8.00313 12.0023C7.37163 12.0023 6.80578 12.2962 6.44002 12.7525C4.93318 12.2586 3.74521 11.0678 3.25127 9.56437C3.71082 9.19867 4.00156 8.63294 4.00156 8.00156C4.00156 7.37019 3.7077 6.80445 3.25127 6.43876C3.74521 4.93221 4.9363 3.74448 6.44002 3.25063C6.80578 3.7101 7.37163 4.00078 8.00313 4.00078C8.63462 4.00078 9.20047 3.70697 9.56624 3.25063C11.0731 3.74448 12.261 4.93534 12.755 6.43876Z"/></svg>