<svg viewBox="0 0 16 16" xmlns="http://www.w3.org/2000/svg"><path d="M12.11 4.3999C10.175 4.3999 8.73 6.1024 8 7.2124C7.27 6.1024 5.825 4.3999 3.89 4.3999C1.74375 4.3999 0 6.1949 0 8.3999C0 10.6049 1.74375 12.3999 3.89 12.3999C5.8275 12.3999 7.27 10.6974 8 9.5874C8.73 10.6974 10.175 12.3999 12.11 12.3999C14.2575 12.3999 16 10.6049 16 8.3999C16 6.1949 14.2575 4.3999 12.11 4.3999ZM3.89 11.1999C2.40625 11.1999 1.2 9.9449 1.2 8.3999C1.2 6.8549 2.40625 5.5999 3.89 5.5999C5.58375 5.5999 6.9025 7.65615 7.3175 8.3999C6.9 9.1449 5.585 11.1999 3.89 11.1999ZM12.11 11.1999C10.4163 11.1999 9.0975 9.14365 8.6825 8.3999C9.1 7.6549 10.415 5.5999 12.11 5.5999C13.595 5.5999 14.8 6.8549 14.8 8.3999C14.8 9.9449 13.595 11.1999 12.11 11.1999Z"/></svg>