<svg viewBox="0 0 16 16" xmlns="http://www.w3.org/2000/svg"><path d="M9 7.4999H6C3.93125 7.4999 2.1875 8.89677 1.6625 10.7968C1.55938 10.4093 1.5 9.97802 1.5 9.4999C1.5 7.29052 3.29063 5.4999 5.5 5.4999H9H9.75C10.1656 5.4999 10.5 5.16552 10.5 4.7499V3.9999V3.12177L14.2531 6.4999L10.5 9.87802V8.9999V8.2499C10.5 7.83427 10.1656 7.4999 9.75 7.4999H9ZM9 8.9999V10.4999V10.9999C9 11.3936 9.23125 11.753 9.59375 11.9124C9.95625 12.0718 10.375 12.0061 10.6687 11.7436L15.6687 7.24365C15.8781 7.05302 16 6.78427 16 6.4999C16 6.21552 15.8812 5.94677 15.6687 5.75615L10.6687 1.25615C10.375 0.990522 9.95312 0.924897 9.59375 1.0874C9.23438 1.2499 9 1.60615 9 1.9999V2.4999V3.9999H7.5H5.5C2.4625 3.9999 0 6.4624 0 9.4999C0 11.9374 1.20625 13.4436 2.14687 14.253C2.275 14.3624 2.4 14.4593 2.5125 14.5436C2.6125 14.6186 2.70625 14.6811 2.79063 14.7374C2.93125 14.8311 3.05 14.8968 3.12812 14.9405C3.20625 14.9843 3.29375 14.9999 3.38125 14.9999C3.72187 14.9999 3.99688 14.7218 3.99688 14.3843C3.99688 14.1718 3.88437 13.9718 3.7375 13.8186C3.72187 13.803 3.70937 13.7905 3.69375 13.7749C3.61875 13.703 3.53437 13.6155 3.45312 13.5061C3.4 13.4343 3.34687 13.3499 3.29688 13.2593C3.13125 12.9561 3 12.5436 3 12.003C3 10.3468 4.34375 9.00302 6 9.00302H7.5H9V8.9999Z"/></svg>