<svg viewBox="0 0 16 16" xmlns="http://www.w3.org/2000/svg"><path d="M3.55556 6.33339C3.55556 5.84172 3.95278 5.4445 4.44444 5.4445H11.5556C12.0472 5.4445 12.4444 5.84172 12.4444 6.33339V9.88894C12.4444 10.3806 12.0472 10.7778 11.5556 10.7778H4.44444C3.95278 10.7778 3.55556 10.3806 3.55556 9.88894V6.33339ZM11.1111 6.77783H4.88889V9.4445H11.1111V6.77783ZM16 4.55561V6.77783C15.2639 6.77783 14.6667 7.37505 14.6667 8.11117C14.6667 8.84728 15.2639 9.4445 16 9.4445V11.6667C16 12.6473 15.2028 13.4445 14.2222 13.4445H1.77778C0.795833 13.4445 0 12.6473 0 11.6667V9.4445C0.736389 9.4445 1.33333 8.84728 1.33333 8.11117C1.33333 7.37505 0.736389 6.77783 0 6.77783V4.55561C0 3.57367 0.795833 2.77783 1.77778 2.77783H14.2222C15.2028 2.77783 16 3.57367 16 4.55561ZM1.33333 5.80005C2.13028 6.26117 2.66667 7.12505 2.66667 8.11117C2.66667 9.09728 2.13028 9.96117 1.33333 10.4223V11.6667C1.33333 11.9112 1.53222 12.1112 1.77778 12.1112H14.2222C14.4667 12.1112 14.6667 11.9112 14.6667 11.6667V10.4223C13.8694 9.96117 13.3333 9.09728 13.3333 8.11117C13.3333 7.12505 13.8694 6.26117 14.6667 5.80005V4.55561C14.6667 4.31117 14.4667 4.11117 14.2222 4.11117H1.77778C1.53222 4.11117 1.33333 4.31117 1.33333 4.55561V5.80005Z"/></svg>