<svg viewBox="0 0 16 16" xmlns="http://www.w3.org/2000/svg"><path d="M0.0012207 6.18364C0.0012207 5.49344 0.552012 4.93395 1.23143 4.93395H4.92208C5.60151 4.93395 6.15229 5.49344 6.15229 6.18364V9.93273C6.15229 10.6229 5.60151 11.1824 4.92208 11.1824H1.23143C0.552012 11.1824 0.0012207 10.6229 0.0012207 9.93273V6.18364Z"/><path fill-rule="evenodd" clip-rule="evenodd" d="M0 14.4966C0 13.9804 0.325576 13.5619 0.727216 13.5619H15.2716C15.6733 13.5619 15.9988 13.9804 15.9988 14.4966C15.9988 15.0129 15.6733 15.4314 15.2716 15.4314H0.727216C0.325576 15.4314 0 15.0129 0 14.4966Z"/><path fill-rule="evenodd" clip-rule="evenodd" d="M0.0012207 1.49977C0.0012207 0.983505 0.326809 0.565001 0.728437 0.565001H15.2728C15.6744 0.565001 16 0.983505 16 1.49977C16 2.01603 15.6744 2.43455 15.2728 2.43455H0.728437C0.326809 2.43455 0.0012207 2.01603 0.0012207 1.49977Z"/></svg>