<svg viewBox="0 0 16 16" xmlns="http://www.w3.org/2000/svg"><path fill-rule="evenodd" clip-rule="evenodd" d="M0 1.43703C0 0.919517 0.325613 0.5 0.72727 0.5H15.2728C15.6743 0.5 16 0.919517 16 1.43703C16 1.95454 15.6743 2.37407 15.2728 2.37407H0.72727C0.325613 2.37407 0 1.95454 0 1.43703Z"/><path fill-rule="evenodd" clip-rule="evenodd" d="M0 14.5593C0 14.0418 0.3256 13.6223 0.727271 13.6223H15.2727C15.6744 13.6223 16 14.0418 16 14.5593C16 15.0769 15.6744 15.4964 15.2727 15.4964H0.727271C0.3256 15.4964 0 15.0769 0 14.5593Z"/><path fill-rule="evenodd" clip-rule="evenodd" d="M7.38184 10.185C7.38184 9.66741 7.68581 9.24789 8.06079 9.24789H15.3029C15.6778 9.24789 15.9818 9.66741 15.9818 10.185C15.9818 10.7024 15.6778 11.122 15.3029 11.122H8.06079C7.68581 11.122 7.38184 10.7024 7.38184 10.185Z"/><path d="M0 6.12298C0 5.43254 0.550833 4.87284 1.23031 4.87284H4.92122C5.60071 4.87284 6.15153 5.43254 6.15153 6.12298V9.87342C6.15153 10.5639 5.60071 11.1235 4.92122 11.1235H1.23031C0.550833 11.1235 0 10.5639 0 9.87342V6.12298Z"/></svg>