<svg data-name="Layer 1" xmlns="http://www.w3.org/2000/svg" viewBox="0 0 32 32"><path d="M29 11.25a1.13 1.13 0 00-1.43-.66 1.28 1.28 0 00-.66 1.55 11 11 0 01.66 3.31h-4.9a1 1 0 00-1.1.94v.33c0 2.81-2.37 4.85-5.57 4.85a1.11 1.11 0 00-1.1 1.1v4.91a11.11 11.11 0 01-3.75-1 1.12 1.12 0 00-.94 2A15.73 15.73 0 0016 29.79 13.8 13.8 0 0029.79 16a14.08 14.08 0 00-.79-4.75zM17.1 27.53v-3.81c3.64-.44 6.34-2.76 6.62-6.07h3.75a11.67 11.67 0 01-10.37 9.88zM4.36 22.18a1.29 1.29 0 00.44-.11.94.94 0 00.55-1.32 9.88 9.88 0 01-.83-3.09h4.69a1.31 1.31 0 001-.88l.11-.33a.94.94 0 00.06-.39A5.56 5.56 0 0116 10.48a1.11 1.11 0 001.1-1.1V4.47a10.53 10.53 0 014.08 1.16 1.11 1.11 0 001-2A14.1 14.1 0 0016 2.21 13.8 13.8 0 002.2 16a13.36 13.36 0 001.16 5.52 1.06 1.06 0 001 .66zM14.89 4.47v3.86a7.71 7.71 0 00-6.62 7.12h-3.8A11.48 11.48 0 0114.89 4.47zm14.62-.88A1.07 1.07 0 0028 3.53L2.59 26.87a1.07 1.07 0 00-.06 1.55.9.9 0 00.77.39 1.31 1.31 0 00.77-.28L29.46 5.19a1.19 1.19 0 00.06-1.6z"/></svg>