<svg viewBox="0 0 25 28" fill="none" xmlns="http://www.w3.org/2000/svg"><path clip-rule="evenodd" d="M14.358 18.958c1.107 0 2.159.616 2.657 1.625a135.692 135.692 0 002.048 3.978c.609 1.176-.055 2.69-1.329 3.025-2.269.617-4.76.56-6.974-.28a5.992 5.992 0 01-3.266-3.025l-2.103-4.146-2.657-5.266-2.047-4.09A6.156 6.156 0 01.244 6.24C.908 4 2.237 1.981 4.008.525c1.163-.952 2.713-.56 3.377.784l1.716 3.418c.719 1.456.609 2.689-.056 3.586L6.61 10.72l4.151 8.293 3.598-.056zM15.625 4a.613.613 0 00-.625.6c0 .331.28.6.625.6h.625v1.276c0 .712.33 1.388.9 1.844l2.1 1.68-2.1 1.68c-.57.456-.9 1.132-.9 1.844V14.8h-.625a.613.613 0 00-.625.6c0 .331.28.6.625.6h8.75a.613.613 0 00.625-.6c0-.331-.28-.6-.625-.6h-.625v-1.276c0-.712-.33-1.388-.9-1.844L20.75 10l2.1-1.68c.57-.456.9-1.132.9-1.844V5.2h.625A.613.613 0 0025 4.6c0-.331-.28-.6-.625-.6h-8.75zM22.5 6.422a1 1 0 01-.354.763l-1.5 1.269a1 1 0 01-1.292 0l-1.5-1.269a1 1 0 01-.354-.763V5h5v1.422z"/></svg>