<svg viewBox="0 0 27 24" fill="none" xmlns="http://www.w3.org/2000/svg"><path clip-rule="evenodd" d="M13.518 22.286C20.933 22.286 27 17.314 27 11.143 27 4.97 20.933 0 13.518 0 6.101 0 .034 4.971.034 11.143c0 2.657 1.095 5.143 2.95 7.028-.59 1.886-1.518 3.686-2.866 5.143-.084.086-.168.257-.084.429A.462.462 0 00.456 24c2.697 0 5.309-1.029 7.416-2.743 1.77.686 3.707 1.029 5.646 1.029zm1.065-15.088c.42-.326.69-.838.69-1.413A1.78 1.78 0 0013.5 4c-.979 0-1.773.8-1.773 1.785 0 .575.27 1.087.69 1.413V8.86H9a2 2 0 00-2 2V14a2 2 0 002 2h9a2 2 0 002-2v-3.14a2 2 0 00-2-2h-3.417V7.198zm-4.037 4.042c-.653 0-1.182.537-1.182 1.19 0 .652.529 1.19 1.181 1.19a1.19 1.19 0 001.182-1.19c0-.653-.529-1.19-1.181-1.19zm5.909 0c-.653 0-1.182.537-1.182 1.19 0 .652.529 1.19 1.181 1.19a1.19 1.19 0 001.182-1.19c0-.653-.529-1.19-1.181-1.19z"/></svg>