<svg viewBox="0 0 40 40" xmlns="http://www.w3.org/2000/svg"><g fill="none" fill-rule="evenodd"><circle fill="#FFF" cx="20" cy="20" r="20"/><g fill="#33383D"><path d="M20 40c11.046 0 20-8.954 20-20S31.046 0 20 0 0 8.954 0 20s8.954 20 20 20zm.015-10.5C26.607 29.5 32 25.15 32 19.75S26.607 10 20.015 10c-6.591 0-11.984 4.35-11.984 9.75 0 2.325.974 4.5 2.622 6.15-.525 1.65-1.349 3.225-2.547 4.5-.075.075-.15.225-.075.375s.225.225.374.225c2.397 0 4.72-.9 6.592-2.4 1.573.6 3.296.9 5.018.9z"/><path d="M19 15a1 1 0 112 0v9a1 1 0 11-2 0v-9z" fill-rule="nonzero"/><path d="M19.293 14.293a1 1 0 011.414 0l3 3a1 1 0 01-1.414 1.414L20 16.414l-2.293 2.293a1 1 0 01-1.414-1.414l3-3z"/></g></g></svg>