<svg viewBox="0 0 40 40" xmlns="http://www.w3.org/2000/svg"><g fill="none" fill-rule="evenodd"><circle fill="#FFF" cx="20" cy="20" r="20"/><g fill="#33383D"><path fill-rule="nonzero" d="M15.757 21.172l1.415-1.415L20 22.586l2.828-2.829 1.415 1.415L21.414 24l2.829 2.828-1.415 1.415L20 25.414l-2.828 2.829-1.415-1.415L18.586 24z"/><path d="M40 20c0 11.046-8.954 20-20 20S0 31.046 0 20 8.954 0 20 0s20 8.954 20 20zm-18.414-3.437H29v14.152c0 .341-.138.668-.383.909-.245.24-.577.376-.924.376H12.307c-.347 0-.68-.135-.924-.376a1.273 1.273 0 01-.383-.909V9.285c0-.341.138-.668.383-.909.245-.24.577-.376.924-.376h7.972v7.286c.003.34.141.664.386.904.245.239.576.373.921.373zm.436-8.034a2.8 2.8 0 01.491.39l5.544 5.449c.15.145.284.307.396.482h-6.431V8.53z"/></g></g></svg>