<svg viewBox="0 0 40 40" xmlns="http://www.w3.org/2000/svg"><g fill="none" fill-rule="evenodd"><circle fill="#FFF" cx="20" cy="20" r="20"/><path d="M40 20c0 11.046-8.954 20-20 20S0 31.046 0 20 8.954 0 20 0s20 8.954 20 20zM9.482 16.684v-4.1l4.02-1.264L15.982 8 20 9.272 24.018 8l2.48 3.32 4.02 1.264v4.1L33 20l-2.482 3.316v4.1l-4.02 1.264-2.48 3.32L20 30.728 15.982 32l-2.48-3.32-4.02-1.264v-4.1L7 20l2.482-3.316zM21.586 20l-4.293-4.293 1.414-1.414L24.414 20l-5.707 5.707-1.414-1.414L21.586 20z" fill="#33383D"/></g></svg>