<svg data-name="Layer 1" xmlns="http://www.w3.org/2000/svg" viewBox="0 0 32 32"><path d="M31 25.14a2.36 2.36 0 01-.71 1.72l-3.44 3.44a2.45 2.45 0 01-3.44 0L16 22.87l-7.43 7.42a2.35 2.35 0 01-1.72.7 2.35 2.35 0 01-1.72-.7l-3.42-3.43a2.44 2.44 0 010-3.44L9.13 16 1.71 8.58A2.33 2.33 0 011 6.86a2.35 2.35 0 01.71-1.72l3.43-3.43A2.33 2.33 0 016.86 1a2.33 2.33 0 011.72.71L16 9.13l7.42-7.42a2.44 2.44 0 013.44 0l3.44 3.43a2.36 2.36 0 01.7 1.72 2.35 2.35 0 01-.71 1.72L22.87 16l7.42 7.42a2.35 2.35 0 01.71 1.72z"/></svg>