<svg viewBox="0 0 16 16" xmlns="http://www.w3.org/2000/svg"><path d="M6.99371 2.745C6.77489 2.745 6.55152 2.80807 6.35964 2.94765L0.357424 7.32549C-0.119141 7.67765 -0.119141 8.32066 0.357424 8.67282L6.35745 13.0262C6.54995 13.1893 6.77496 13.2522 6.99371 13.2522C7.50933 13.2522 8.00059 12.9017 8.00059 12.3758V3.62252C7.97184 3.09552 7.50933 2.745 6.99371 2.745ZM6.47183 11.4435L1.77743 7.99861L6.49933 4.55367V11.4435H6.47183ZM15.4812 2.85308C15.1609 2.69917 14.7722 2.71157 14.4647 2.88214L9.34903 5.73332C8.99934 5.92784 8.8959 6.33393 9.11856 6.64011C9.34025 6.9463 9.80419 7.03632 10.1539 6.84147L14.5 4.41959V11.5804L10.1531 9.15823C9.80341 8.96327 9.33965 9.05349 9.11778 9.35959C8.89512 9.66578 8.99865 10.0718 9.34825 10.2664L14.4639 13.1176C14.627 13.2091 14.8111 13.255 14.9977 13.255C15.1627 13.255 15.332 13.2189 15.4814 13.1471C15.8 12.9895 16 12.6968 16 12.352V3.62142C16 3.30156 15.8 3.00714 15.4812 2.85308Z"/></svg>