<svg data-name="Layer 1" xmlns="http://www.w3.org/2000/svg" viewBox="0 0 32 32"><path d="M30 23a1.63 1.63 0 01-.94 1.49l-5.79 2.87a1.71 1.71 0 01-.72.17 1.52 1.52 0 01-.72-.17l-5.78-2.86c-.06 0-.06 0-.11-.06a.19.19 0 01-.11.06L10 27.37a1.71 1.71 0 01-.72.17 1.69 1.69 0 01-.72-.17L2.92 24.5A1.66 1.66 0 012 23v-5.35a1.7 1.7 0 011-1.55l5.57-2.37V8.61a1.7 1.7 0 011-1.55l5.79-2.48a1.4 1.4 0 01.64-.11 2.78 2.78 0 01.66.11l5.79 2.48a1.7 1.7 0 011 1.55v5.13L29 16.11a1.7 1.7 0 011 1.55zm-15.38-5.62l-5.19-2.21-5.18 2.21 5.19 2.21zm.55 5.62v-4l-5 2.1v4.41zm6.51-14.45L16 6.12l-5.68 2.43L16 11zm.11 5.19v-3.42l-5 2.1v3.42zm6 3.64l-5.19-2.21-5.19 2.21 5.19 2.21zm.57 5.62v-4l-5 2.1v4.41z"/></svg>