<svg data-name="Layer 1" xmlns="http://www.w3.org/2000/svg" viewBox="0 0 32 32"><path d="M8.43 5A4.21 4.21 0 114.21.79 4.21 4.21 0 018.43 5zm11.78 0A4.21 4.21 0 1116 .79 4.21 4.21 0 0120.21 5zM32 5A4.21 4.21 0 1127.79.79 4.21 4.21 0 0132 5zM8.43 15.79a4.21 4.21 0 11-4.21-4.21 4.21 4.21 0 014.21 4.21zm11.79 0A4.21 4.21 0 1116 11.58a4.21 4.21 0 014.21 4.21zm11.79 0a4.21 4.21 0 11-4.21-4.21 4.21 4.21 0 014.2 4.21zM8.43 27a4.21 4.21 0 11-4.21-4.21A4.21 4.21 0 018.43 27zm11.79 0A4.21 4.21 0 1116 22.78 4.21 4.21 0 0120.21 27zM32 27a4.21 4.21 0 11-4.21-4.21A4.21 4.21 0 0132 27z"/></svg>