<svg viewBox="0 0 16 16" xmlns="http://www.w3.org/2000/svg"><path d="M14.1355 3.88L11.1376 0.66C10.7466 0.24 10.2066 0 9.65724 0H3.34483C2.19034 0 1.25 1.01 1.25 2.25V13.75C1.25 14.99 2.19034 16 3.34483 16H10.5231C10.9048 16 11.2214 15.66 11.2214 15.25C11.2214 14.84 10.9048 14.5 10.5231 14.5H3.34483C2.9631 14.5 2.64655 14.16 2.64655 13.75V2.25C2.64655 1.84 2.9631 1.5 3.34483 1.5H8.93103V4C8.93103 4.34 9.00552 4.66 9.13586 4.95C8.77276 4.83 8.40035 4.75 8 4.75C5.82138 4.75 4.0431 6.66 4.0431 9C4.0431 11.34 5.82138 13.25 8 13.25C8.83793 13.25 9.61069 12.96 10.2531 12.48L13.3255 15.78C13.4559 15.92 13.6328 16 13.819 16H14.0517C14.4334 16 14.75 15.66 14.75 15.25V5.48C14.75 4.88 14.5359 4.31 14.1355 3.88ZM12.9717 4.75H11.0259C10.6441 4.75 10.3276 4.41 10.3276 4V1.91L12.9717 4.75ZM5.43966 9C5.43966 7.48 6.58483 6.25 8 6.25C9.41517 6.25 10.5603 7.48 10.5603 9C10.5603 10.52 9.41517 11.75 8 11.75C6.58483 11.75 5.43966 10.52 5.43966 9ZM11.24 11.42C11.6869 10.73 11.9569 9.9 11.9569 9C11.9569 7.95 11.5845 6.99 10.9886 6.25C10.9979 6.25 11.0072 6.25 11.0259 6.25H13.3534V13.69L11.24 11.42Z"/></svg>