<svg data-name="Layer 1" xmlns="http://www.w3.org/2000/svg" viewBox="0 0 32 32"><path d="M21.89 18.14H10.11a.52.52 0 00-.54.54v1.07a.52.52 0 00.15.38.51.51 0 00.39.15h11.78a.51.51 0 00.53-.53v-1.07a.51.51 0 00-.53-.54zm0 4.29H10.11a.51.51 0 00-.39.15.52.52 0 00-.15.38V24a.52.52 0 00.54.54h11.78a.51.51 0 00.53-.54v-1a.51.51 0 00-.53-.53zM9.72 14a.52.52 0 00-.15.38v1.07a.52.52 0 00.54.54h11.78a.51.51 0 00.53-.54v-1.06a.52.52 0 00-.15-.38.52.52 0 00-.39-.15H10.11a.52.52 0 00-.39.14z"/><path d="M28.52 8.63a3.87 3.87 0 00-.8-1.27L22.5 2.14a3.89 3.89 0 00-1.27-.8A3.85 3.85 0 0019.75 1h-15a1.55 1.55 0 00-1.14.47 1.55 1.55 0 00-.47 1.14v26.78A1.6 1.6 0 004.75 31h22.5a1.6 1.6 0 001.61-1.61V10.11a3.83 3.83 0 00-.34-1.48zm-8.23-5.35a1.85 1.85 0 01.69.37l5.24 5.24a1.84 1.84 0 01.37.69h-6.3zm6.43 25.58H5.29V3.14h12.85v7a1.6 1.6 0 001.61 1.61h7z"/></svg>