<svg xmlns="http://www.w3.org/2000/svg" viewBox="0 0 155.208 31.375"><g data-name="Layer 2"><g data-name="Layer 1"><path data-name="Path 10294" d="M151.418 8.095h-.77v-.3h1.88v.3h-.75v2.05h-.34z" fill="#fff"/><path data-name="Path 10295" d="M153.858 10.145l-.65-2v2h-.34v-2.35h.56l.61 2 .61-1.95h.56v2.35h-.34v-2l-.65 2z" fill="#fff"/><path data-name="Path 10296" d="M15.518 1.835a1.4 1.4 0 110 2.79h-.07a1.4 1.4 0 01.07-2.79m0-1.82a3.211 3.211 0 10-.15 6.42h.15a3.22 3.22 0 100-6.43z" fill="#ff4f1f"/><path data-name="Path 10297" d="M13.378 22.435a3.24 3.24 0 110 6.48h-3.51a3.24 3.24 0 110-6.48h3.51m0-2.11h-3.51a5.36 5.36 0 000 10.71h3.51a5.36 5.36 0 100-10.71z" fill="#ff4f1f"/><path data-name="Path 10298" d="M13.378 9.915a3.24 3.24 0 110 6.47h-8.25a3.24 3.24 0 010-6.47h8.25m0-2.12h-8.25a5.36 5.36 0 000 10.71h8.25a5.36 5.36 0 100-10.71z" fill="#ff4f1f"/><path data-name="Path 10299" d="M47.408 31.035V7.795h13.09v2.29h-10.77v8.05h9.66v2.26h-9.66v8.34h10.77v2.3z" fill="#fff"/><path data-name="Path 10300" d="M85.918 31.035V7.795h13.09v2.29h-10.76v8.05h9.66v2.26h-9.66v8.34h10.76v2.3z" fill="#fff"/><path data-name="Path 10301" d="M125.078 31.035v-9.63l-7.85-13.61h2.61l6.42 11.14 6.39-11.14h2.61l-7.85 13.61v9.63z" fill="#fff"/><path data-name="Path 10302" d="M81.158 31.035V7.795h-2.32v18.99l-11.51-18.99h-2.33v23.24h2.33v-18.99l11.51 18.99z" fill="#fff"/><path data-name="Path 10303" d="M35.118 21.015h5.57v1.85c0 4.55-2.88 6.17-5.57 6.17s-5.57-1.62-5.57-6.17v-7c0-4.55 2.87-6.17 5.57-6.17a5.27 5.27 0 015.47 4.76h2.33a7.512 7.512 0 00-7.8-7c-4.73 0-7.9 3.39-7.9 8.44v7c0 5.06 3.17 8.45 7.9 8.45s7.89-3.39 7.89-8.45v-4.11h-7.89z" fill="#fff"/><path data-name="Path 10304" d="M104.188 24.015a5 5 0 005.19 5.06c2.94 0 4.56-1.45 4.56-4.07a3.89 3.89 0 00-3.16-3.9l-3.93-1.09a6.1 6.1 0 01-4.61-6.26c0-3.77 2.69-6.3 6.69-6.3 4.58 0 6.59 3.18 7 6.38h-2.32c-.53-2.67-2.22-4.09-4.71-4.09-2.65 0-4.37 1.57-4.37 4a3.87 3.87 0 003 4l4.06 1.11a6.09 6.09 0 014.68 6.16c0 3.92-2.64 6.36-6.89 6.36-5.28 0-7.42-4-7.52-7.35z" fill="#fff"/><path data-name="Path 10305" d="M138.568 24.015a5 5 0 005.21 5.05c2.94 0 4.56-1.45 4.56-4.07a3.89 3.89 0 00-3.17-3.89l-3.94-1.09a6.1 6.1 0 01-4.61-6.26c0-3.77 2.69-6.3 6.69-6.3 4.58 0 6.59 3.18 7 6.38h-2.32c-.53-2.67-2.22-4.09-4.71-4.09-2.65 0-4.37 1.57-4.37 4a3.87 3.87 0 003 4l4.06 1.11a6.09 6.09 0 014.68 6.16c0 3.92-2.64 6.36-6.89 6.36-5.28 0-7.42-4-7.52-7.35z" fill="#fff"/></g></g></svg>