<svg data-name="Layer 1" xmlns="http://www.w3.org/2000/svg" viewBox="0 0 32 32"><path d="M9 3.88A13.69 13.69 0 0116 2a13.69 13.69 0 017 1.88A14 14 0 0128.12 9 13.69 13.69 0 0130 16a13.69 13.69 0 01-1.88 7A14 14 0 0123 28.12 13.7 13.7 0 0116 30a13.69 13.69 0 01-7-1.88A13.94 13.94 0 013.88 23 13.69 13.69 0 012 16a13.69 13.69 0 011.88-7A13.94 13.94 0 019 3.88zm12 7.62a1.08 1.08 0 00-.17.17.46.46 0 01-.25.17s.05 0 .08-.09l.09-.2a.47.47 0 01.06-.13 1.29 1.29 0 01.4-.27 4.59 4.59 0 01.95-.22.89.89 0 01.93.2s0-.1.17-.24a1.31 1.31 0 01.26-.22 1 1 0 01.27-.08.41.41 0 00.27-.14v-.4a.32.32 0 01-.32-.13.79.79 0 01-.12-.38s0 .07-.11.15c0-.09 0-.13-.08-.15a.45.45 0 00-.21 0h-.16a.71.71 0 01-.27-.14.61.61 0 01-.15-.3c0-.14-.06-.24-.07-.27a.46.46 0 00-.17-.19.5.5 0 01-.17-.19v-.1l-.06-.12a.36.36 0 00-.07-.1.14.14 0 00-.1 0s-.08 0-.13.09l-.14.18c0 .06-.07.09-.08.09a.15.15 0 00-.11 0h-.08l-.08.05-.09.06a.42.42 0 01-.15.05h-.16c.18-.06.18-.13 0-.2a.57.57 0 00-.29-.06.19.19 0 00.14-.22.44.44 0 00-.18-.17h.09s-.06-.1-.15-.16a2.23 2.23 0 00-.32-.15L20 7.54a2.08 2.08 0 00-.62-.17 1.15 1.15 0 00-.6 0 .27.27 0 00-.08.19 1.39 1.39 0 00.07.26.88.88 0 01.06.23.29.29 0 01-.1.24.35.35 0 00-.12.22c0 .09.08.18.26.28a.32.32 0 01.18.39.66.66 0 01-.29.29 1.23 1.23 0 00-.29.22.38.38 0 000 .34.66.66 0 00.19.3.07.07 0 010 .07.21.21 0 01-.06.08l-.1.07-.12.06h-.05a.3.3 0 01-.37-.11 1.19 1.19 0 01-.24-.47c-.09-.3-.18-.49-.29-.55-.28-.1-.45-.09-.53 0-.06-.16-.31-.32-.75-.47A2.13 2.13 0 0015.11 9c.07 0 .07-.1 0-.27s-.2-.26-.35-.22a.87.87 0 00.07-.32v-.25a.93.93 0 01.22-.42l.13-.16a2.14 2.14 0 00.17-.25V7a1.08 1.08 0 00.91-.2 1.38 1.38 0 00.21-.31 2.43 2.43 0 01.19-.31.45.45 0 01.26-.1.81.81 0 01.26.1.64.64 0 00.27.09c.17 0 .26-.05.28-.2a.4.4 0 00-.14-.37c.14 0 .16-.09.05-.31a.67.67 0 00-.15-.16.58.58 0 00-.49.09c-.1 0-.09.1 0 .15s-.07.05-.17.19a1.6 1.6 0 01-.3.32c-.1.07-.2 0-.29-.09a1.38 1.38 0 01-.1-.25c-.05-.15-.11-.23-.17-.25s-.19.09-.29.27c0-.1 0-.19-.2-.27a1.34 1.34 0 00-.44-.15c.23-.14.18-.31-.15-.49a.9.9 0 00-.37-.09.5.5 0 00-.36.07.52.52 0 00-.1.21.16.16 0 00.09.15l.19.1.21.07.15.05c.17.12.22.21.15.26l-.16.06-.21.08a.22.22 0 00-.11.07.31.31 0 000 .26v.26a.8.8 0 01-.12-.3 1.1 1.1 0 00-.13-.3q.13.16-.45.11h-.47a1.31 1.31 0 01-.37 0 .34.34 0 01-.25-.14.48.48 0 010-.37s0-.06.07 0l-.2-.17-.19-.13a10.3 10.3 0 00-1.71.75.44.44 0 00.22 0l.23-.19.18-.1q.62-.26.77-.13l.05-.09a4.82 4.82 0 01.36.46 1 1 0 00-.54 0c-.24.07-.38.14-.4.22a.45.45 0 01.09.33L11.34 6a1.44 1.44 0 00-.26-.2.76.76 0 00-.27-.09h-.4a11.52 11.52 0 00-4.28 4 .47.47 0 00.22.14s.08.07.09.16a.86.86 0 000 .2s.09 0 .21-.05a.26.26 0 01.06.35 7.16 7.16 0 01.8.49 2.85 2.85 0 01.38.38c0 .13 0 .24-.18.33a1 1 0 00-.16-.16c-.1-.09-.15-.11-.16-.07a.48.48 0 000 .34q.06.25.19.23c-.09 0-.14.1-.17.29a4 4 0 000 .65 2.93 2.93 0 010 .43 1.12 1.12 0 00.1.63c.1.27.23.39.39.35q-.24.05.36.78a.63.63 0 00.15.16l.22.14.27.18a.77.77 0 01.18.19 1.51 1.51 0 01.18.41.87.87 0 00.26.43c0 .07 0 .19.17.36a.62.62 0 01.19.42.62.62 0 00.28.26.68.68 0 01.28.24.93.93 0 010 .18.62.62 0 00.06.2s.07.06.15 0a2.15 2.15 0 00-.44-1.13l-.31-.53a1.1 1.1 0 01-.1-.28 1.56 1.56 0 00-.08-.26h.11l.15.06.14.07v.05a.39.39 0 000 .32 1.47 1.47 0 00.22.34l.31.35.22.24a1.75 1.75 0 01.26.35q.15.25 0 .25a.58.58 0 01.36.18 1.59 1.59 0 01.31.37 1.36 1.36 0 01.15.47 3.73 3.73 0 00.09.44.6.6 0 00.15.25.94.94 0 00.23.17l.29.15.24.13a2.58 2.58 0 01.34.19 2.48 2.48 0 00.39.21.86.86 0 00.32.26.89.89 0 00.26 0l.25-.06a.59.59 0 01.53.27 1.76 1.76 0 00.38.38 1.24 1.24 0 001 .2v.14a1.94 1.94 0 00.15.28l.16.27.1.15a1.79 1.79 0 00.33.27 1.73 1.73 0 01.33.27.28.28 0 00.13-.16c0 .1 0 .22.13.36s.23.21.33.18.26-.23.26-.58a.61.61 0 01-.89-.33.39.39 0 000-.1 1.15 1.15 0 01-.07-.15v-.16a.29.29 0 010-.14.09.09 0 01.09-.06c.11 0 .17 0 .18-.06a.43.43 0 000-.23c0-.11-.06-.19-.07-.24a.81.81 0 00-.2-.37l-.38-.26a.27.27 0 01-.29.14.36.36 0 01-.29-.16.72.72 0 010 .1.46.46 0 000 .12 1 1 0 01-.27 0 2 2 0 000-.32 2.47 2.47 0 01.06-.41 1 1 0 01.1-.22l.14-.27a.9.9 0 00.07-.23.16.16 0 00-.08-.17.54.54 0 00-.32 0 .5.5 0 00-.47.36l-.06.19a.58.58 0 01-.09.21.47.47 0 01-.16.13 1.07 1.07 0 01-.44 0 1.11 1.11 0 01-.44-.09 1.16 1.16 0 01-.41-.53 1.65 1.65 0 01-.17-.68 3.57 3.57 0 010-.48q0-.3.06-.45a1.25 1.25 0 00-.1-.45 1 1 0 00.16-.17 1.08 1.08 0 01.18-.19h.16a.07.07 0 00.07 0 .25.25 0 00.06-.11l-.07-.05-.02-.14a1 1 0 00.52 0c.26-.06.43 0 .5 0s.32.12.4 0a1.72 1.72 0 000-.17.38.38 0 010-.25c.06.33.24.38.53.16a.6.6 0 00.28.09 1 1 0 01.32.09L17 17l.1.08h.09a.56.56 0 00.16-.12 1.24 1.24 0 01.22.44c.13.49.25.75.35.8a.34.34 0 00.2 0s.07-.07.08-.17a2 2 0 000-.26v-.85a.41.41 0 01-.34-.22.39.39 0 010-.34 1.22 1.22 0 01.27-.34l.15-.06.28-.12a.85.85 0 00.23-.15c.26-.23.35-.44.27-.64.08 0 .15-.05.2-.16l-.09-.05-.17-.06h-.08c.11-.06.12-.16 0-.29a.34.34 0 00.14-.2.26.26 0 01.14-.18.23.23 0 00.38 0 .21.21 0 000-.29.61.61 0 01.37-.19c.19 0 .3-.1.34-.17s.14 0 .15 0a.89.89 0 000-.22.36.36 0 01.06-.22.62.62 0 01.27-.16l.24-.09.31-.2v-.07a.67.67 0 00.57-.2c.12-.13.09-.26-.11-.37a.12.12 0 00-.06-.17.94.94 0 00-.27-.1.65.65 0 01.21 0h.19c.18-.12.14-.22-.13-.29a1 1 0 00-.72.13zm-3 16a11.29 11.29 0 006.42-3.5.42.42 0 00-.23-.08.67.67 0 01-.23-.06 2.94 2.94 0 00-.44-.15.35.35 0 000-.24.47.47 0 00-.15-.16l-.23-.15-.2-.13-.16-.03-.13-.1-.14-.08a.21.21 0 00-.16 0h-.34l-.1.05-.07.06a2.26 2.26 0 00-.65-.4.49.49 0 01-.2-.1l-.19-.13a.28.28 0 00-.18 0 .42.42 0 00-.21.13.43.43 0 00-.11.27 1.68 1.68 0 010 .24q-.13-.09 0-.32c.09-.15.1-.26 0-.34a.16.16 0 00-.19-.08.66.66 0 00-.22.08l-.21.16-.16.12-.16.1a.64.64 0 00-.15.14.94.94 0 00-.11.22 1.28 1.28 0 01-.09.2.34.34 0 00-.21-.12c-.12 0-.17-.06-.17-.1a6.3 6.3 0 01.07.64 5.36 5.36 0 00.09.69.84.84 0 01-.22.87 1.52 1.52 0 00-.57.8c0 .27 0 .43.22.47a.86.86 0 01-.15.37.66.66 0 00-.13.39 1.59 1.59 0 00.06.26z"/></svg>