<svg xmlns="http://www.w3.org/2000/svg" viewBox="0 0 48 48"><path d="M38.5 19.1c-2.819 0-5.107 2.168-5.353 4.924h-4.295c-.245-2.755-2.533-4.924-5.352-4.924-2.818 0-5.107 2.169-5.352 4.924h-4.297C13.607 21.269 11.319 19.1 8.5 19.1a5.401 5.401 0 000 10.8c2.819 0 5.107-2.169 5.352-4.924h4.297c.244 2.755 2.533 4.924 5.352 4.924 2.819 0 5.107-2.169 5.353-4.924h4.295c.244 2.754 2.532 4.924 5.351 4.924a5.4 5.4 0 000-10.8zm-30 9.8a4.405 4.405 0 01-4.4-4.4c0-2.426 1.975-4.4 4.4-4.4s4.4 1.975 4.4 4.4c0 2.427-1.974 4.4-4.4 4.4zm30 0a4.405 4.405 0 01-4.4-4.4c0-2.426 1.975-4.4 4.4-4.4s4.4 1.975 4.4 4.4c0 2.427-1.974 4.4-4.4 4.4z"/></svg>