<svg xmlns="http://www.w3.org/2000/svg" viewBox="0 0 16 16"><path d="M15.771.793a.502.502 0 00-.701-.005l-.006.005L.615 15.141l-.006.006a.5.5 0 00.707.707L2.17 15H14a1 1 0 001-1V3a.987.987 0 00-.174-.562l.945-.938a.5.5 0 000-.707zM9 9v1H7.204l1.008-1H9zm-2 2h2v1H7v-1zm3 0h2v1h-2v-1zm0-1V9h2v1h-2zm0-2v-.774L10.228 7H12v1h-2zm-4 3.195V12h-.812L6 11.195zM14 5v9H3.174l1.008-1H13V6h-1.765l1.008-1H14zM2 5h7.436l3.021-3H2a1 1 0 00-1 1v10.377l1-.993V5z"/><path d="M5.407 9L7 7.418V7h.422l1.007-1H3v5.391L4.4 10H4V9h1.407zM4 7h2v1H4V7z"/></svg>