<svg xmlns="http://www.w3.org/2000/svg" viewBox="0 0 92 92"><path d="M0 0v92h92V0H0zm62.667 64.029l-.589.023-32.554.014h-.002a8.973 8.973 0 01-2.153-.263c-4.791-.886-8.428-5.287-8.428-10.425 0-4.153 2.355-7.781 5.856-9.538.416-6.548 5.831-11.749 12.431-11.749 2.108 0 4.141.537 5.934 1.515 1.102-1.781 2.369-3.271 3.789-4.468 3.285-3.039 6.816-3.444 9.512-3.444 7.457 0 13.527 6.121 13.527 13.651 0 1.552-.26 3.077-.77 4.545 2.361 2.181 3.845 5.409 3.845 8.745-.002 6.218-4.526 11.117-10.398 11.394z"/></svg>