<svg xmlns="http://www.w3.org/2000/svg" viewBox="0 0 24 24"><path d="M4.848 9.135c.324.104.365 1.65 1.184 2.749.636.854 1.535 1.933 2.568 2.098.061.012.251.018.442.018.19 0 .38-.006.441-.019 1.03-.166 1.932-1.245 2.568-2.098.812-1.097.857-2.646 1.182-2.749.384-.12.601-1.125.601-2.277 0-.225-.454-.539-.497-.74 0-.006.004-.02.001-.023-.188-2.021-2.013-4.095-4.242-4.095h-.015L9.039 2l-.043-.001h-.011c-2.23 0-4.053 2.074-4.241 4.095l.003.028c-.043.202-.5.515-.5.738 0 1.153.217 2.155.601 2.275zm9.274 1.717c.243.076.277 1.238.885 2.061.479.64 1.154 1.449 1.927 1.573.047.009.188.014.331.014.144 0 .285-.005.331-.014.776-.124 1.45-.934 1.928-1.573.613-.824.645-1.984.888-2.061.288-.091.451-.842.451-1.707 0-.168-.344-.401-.375-.553l.002-.021C20.347 7.055 18.98 5.5 17.308 5.5h-.083c-.966 0-1.82.526-2.405 1.256.003.035.014.065.014.103 0 1.555-.301 2.567-.895 3.021-.03.097-.063.218-.092.317a9.395 9.395 0 01-.042.145c.076.276.182.467.317.51z"/><path d="M17.016 18c-.469-.451-1.614-.878-3.292-1.929-.302-.19-.615-.394-.951-.627-.685-.477-.781-1.444-.781-1.444l-2.977 1.984L6.04 14s-.096.967-.78 1.444C3.058 16.979 1.57 17.467 1.016 18c-.897.869-.791 2.62-.976 4h17.952c-.085-.63-.111-1.335-.197-2-.103-.792-.291-1.527-.779-2zm6.268-.5c-.415-.398-1.531-.766-3.184-1.917-.513-.358-.585-1.083-.585-1.083l-2.231 1.488-2.232-1.488s-.061.418-.312.777c.588.352 1.123.646 1.553.873.689.365 1.188.63 1.556.984.797.771 1.026 1.854 1.139 2.71.004.052.007.105.012.156h4.963c-.079-.928-.109-1.949-.679-2.5z"/></svg>