<svg xmlns="http://www.w3.org/2000/svg" viewBox="0 0 16 16"><path d="M3.106 11.665l-.652-.663L0 13.444l2.455 2.464.651-.636L1.803 14H6v-1H1.803z"/><path d="M15.986 2.93a.989.989 0 00-.958-.924C15.041 2.002 15.04 2 15 2H2c-.553 0-1 .385-1 .938v7.536l1.465-1.457.991 1.008c.491-.193 1.229-.459 1.81-.887.168-.138.337-.574.337-.574l1.074.736 1.074-.74s.169.427.336.563c.869.638 2.089.933 2.31 1.146.402.39.549.981.613 1.731H7v1h7.999c.553 0 1.001-.51 1.001-1.062v-9c0-.003-.011-.005-.014-.008zM8.441 6.448c-.13.041-.156.67-.481 1.114-.255.348-.62.785-1.033.852a1.615 1.615 0 01-.212.007 1.58 1.58 0 01-.211-.007c-.413-.067-.775-.504-1.029-.852-.325-.444-.342-1.073-.471-1.114-.154-.049-.221-.456-.221-.924 0-.09.217-.216.217-.298V5.22c0-.822.764-1.47 1.654-1.47h.12c.888 0 1.726.648 1.726 1.469v.006c0 .013.008.029.015.045.042.079.165.179.165.254 0 .468-.084.875-.239.924zM15 7h-4V6h4v1zm0-2h-4V4h4v1z"/></svg>