<svg xmlns="http://www.w3.org/2000/svg" viewBox="0 0 16 16"><path d="M6.5 1L3 4.5V14h10V1H6.5zM12 13H4V5h3V2h5v11z"/><path d="M5.136 9.767l.963-.964a.351.351 0 01.494.012l.136.135.192.19c.373.371.961.385 1.316.03l.161-.16.802-.803c.356-.354.342-.943-.03-1.316l-.109-.106-.083-.082-.136-.137a.35.35 0 01-.011-.494l.964-.964a.35.35 0 01.493.012l.217.244c.253.253.432.583.477.868.114.709-.302 2.066-1.487 3.25l-.007.006a.017.017 0 01-.006.006c-1.185 1.186-2.542 1.602-3.25 1.488-.286-.045-.616-.225-.869-.477l-.218-.245a.35.35 0 01-.009-.493z"/></svg>