<svg xmlns="http://www.w3.org/2000/svg" viewBox="0 0 16 16"><path d="M15.597.953a.5.5 0 00-.671-.029L2.203 13.64a.5.5 0 00.707.707l2.633-2.634L3.672 15h9.173L9.004 8.253l.756-.756.86 1.489c.044.002.086.014.13.014a4 4 0 003.478-5.971l1.369-1.369a.5.5 0 000-.707zM6.406 7.469A4.963 4.963 0 015.851 4H1v7h1.875l3.531-3.531zm.999-.999l.881-1.525.236.409 3.955-3.955A3.952 3.952 0 0010.75 1c-1.477 0-2.752.81-3.445 2a3.921 3.921 0 00-.413 1 3.926 3.926 0 00-.142 1c0 .619.155 1.196.407 1.718l.248-.248z"/></svg>