<svg xmlns="http://www.w3.org/2000/svg" viewBox="0 0 16 16"><path d="M5.405 5.488c.2.064.229 1.038.731 1.728.395.536.952 1.214 1.59 1.318.076.016.472.016.547 0 .64-.104 1.196-.782 1.589-1.318.507-.689.532-1.663.732-1.728.237-.075.371-.705.371-1.43 0-.141-.282-.337-.309-.463l.002-.019C10.542 2.306 9.414 1 8.034 1h-.007l-.026.001L7.975 1h-.009C6.586 1 5.457 2.306 5.34 3.576c-.002.003.001.011.001.015-.026.126-.306.325-.306.465 0 .725.133 1.357.37 1.432zm4.78 4.135c-.26-.213-.521-.872-.521-.872L7.999 9.898 6.336 8.755s-.261.663-.521.875c-1.346.989-3.236 1.401-3.578 1.731-.623.604-.848 1.889-.947 2.639h13.42c-.099-.75-.323-2.034-.947-2.638-.343-.33-2.232-.751-3.578-1.739zm1.541-3.254a7.26 7.26 0 01-.271.829c.023.041.045.083.072.122.24.342.58.773.969.84.046.01.287.01.333 0 .389-.066.729-.498.969-.84.306-.439.323-1.06.444-1.101.145-.048.227-.434.227-.896 0-.089-.171-.198-.187-.278a.2.2 0 01.001.025c-.072-.809-.76-1.57-1.601-1.57h-.042c-.126 0-.247.018-.364.05.053.149.088.317.088.509.001 1.066-.214 1.839-.638 2.31zm3.007 3.964c.314.304.573.695.785 1.167H16V9.786c-.403-.181-1.32-.402-2.007-.93-.158-.135-.317-.331-.317-.331l-1.014.701-1.013-.714s-.111.122-.239.241c.602.354 1.31.621 1.854.826.679.255 1.128.424 1.469.754zM4.274 6.369c.063.229.145.519.271.829-.024.041-.045.082-.072.121-.24.342-.58.773-.969.84-.046.01-.287.01-.333 0-.389-.066-.729-.498-.969-.84-.306-.439-.323-1.06-.444-1.1-.145-.049-.227-.434-.227-.896 0-.089.171-.198.187-.278a.2.2 0 00-.001.025c.072-.809.76-1.57 1.6-1.57h.042c.126 0 .247.018.364.05a1.501 1.501 0 00-.088.509c0 1.066.215 1.839.639 2.31zm-3.007 3.964c-.314.304-.573.695-.785 1.167H0V9.786c.403-.181 1.32-.402 2.007-.93.158-.136.317-.331.317-.331l1.014.701 1.013-.714s.111.122.239.241c-.602.354-1.31.621-1.855.826-.678.255-1.127.424-1.468.754z"/></svg>