<svg xmlns="http://www.w3.org/2000/svg" viewBox="0 0 16 16"><path d="M2.175 8C2.744 6.917 4.592 4 8 4c.639 0 1.221.106 1.751.281l1.533-1.533A7.449 7.449 0 008 2C2.581 2 .261 7.38.164 7.609L0 8l.164.391c.053.124.76 1.754 2.253 3.225l1.405-1.404A8.988 8.988 0 012.175 8z"/><path d="M5.079 8c0 .288.048.562.128.824l3.617-3.616A2.84 2.84 0 008 5.08 2.92 2.92 0 005.079 8zM9 11.911a5.636 5.636 0 01-3.14-.335l.929-.929A2.87 2.87 0 008 10.921c.359 0 .703-.068 1.021-.188.002-.014 0-.028.003-.042a2.01 2.01 0 011.71-1.672c.118-.317.187-.66.187-1.02 0-.434-.103-.842-.273-1.211l1.255-1.255c1 .878 1.631 1.912 1.922 2.466a9.13 9.13 0 01-.614.993H15c.173 0 .34.031.5.073.205-.375.316-.629.335-.675L16 8l-.165-.392c-.055-.131-.847-1.95-2.526-3.481l1.398-1.398A.5.5 0 0014 2.022L1.98 14.042a.502.502 0 000 .708.502.502 0 00.707 0l1.676-1.678A7.481 7.481 0 008 14c.426 0 .83-.037 1.217-.098A1.997 1.997 0 019 13v-1.089z"/><path d="M15 10h-4a1 1 0 00-1 1v2a1 1 0 001 1h1v1.5l1.5-1.5H15a1 1 0 001-1v-2a1 1 0 00-1-1z"/></svg>