<svg xmlns="http://www.w3.org/2000/svg" viewBox="0 0 16 16"><path d="M15.917 4.805a5.428 5.428 0 00-1.473-1.924l1.228-1.23a.494.494 0 10-.692-.707l-.92.92-.479.479-.628.629-.417.417-2.15 2.151-1.224 1.225-2.675 2.674-1.591 1.592-.107.107-.983.982-.34.341a.5.5 0 00.709.707l.671-.671.672-.674c2.399 2.103 4.988 2.845 6.394 2.619.619-.098 1.335-.485 1.883-1.033l.472-.53c.301-.303.312-.782.023-1.071l-2.088-2.09c-.29-.285-.77-.273-1.07.026l-.295.294-.417.411c-.808.806-2.084.836-2.854.067l-.348-.346-.024-.023 2.744-2.75A3.776 3.776 0 0012 8c2.707 0 3.87-2.689 3.917-2.805L16 5l-.083-.195zM12 6.701c-.385 0-.739-.129-1.024-.346l2.378-2.382c.217.285.347.64.347 1.026 0 .939-.762 1.702-1.701 1.702zM5.475 8.426a1.893 1.893 0 01-.5-.91 2.084 2.084 0 01.572-1.941l.235-.229.181-.179.295-.297c.301-.302.311-.781.023-1.07L4.192 1.711c-.288-.287-.766-.277-1.069.025l-.47.529c-.549.549-.936 1.264-1.035 1.883-.185 1.157.281 3.112 1.62 5.104.183.271.384.543.6.814l1.637-1.64zM8.29 5.605l3.595-3.602a3.774 3.774 0 00-2.111.711A5.014 5.014 0 008.648 3.84c-.367.502-.547.921-.566.965L8 5l.082.195c.011.026.079.184.208.41z"/></svg>