<svg xmlns="http://www.w3.org/2000/svg" viewBox="0 0 16 16"><path d="M13.722 4.143c-.633.088-1.534.586-2.058 1.017l1.165 1.123.198.191-4.553 1.158L9.526 3l.177.184 1.093 1.137.009.005c.532-.464 1.435-1.013 2.078-1.199a6.9 6.9 0 10-2.2 11.232l.005-.287c.016.102.038.183.063.254a6.898 6.898 0 002.971-10.183zm-1.321 6.827l-.311.349c-.362.363-.834.618-1.244.683-1.013.163-2.956-.433-4.651-2.128a.242.242 0 00-.007-.011.07.07 0 01-.009-.007C4.483 8.161 3.888 6.219 4.05 5.205c.065-.409.321-.881.683-1.244l.311-.349a.5.5 0 01.706-.017l1.379 1.379a.502.502 0 01-.015.707l-.196.196-.12.118-.154.151c-.533.534-.553 1.376-.046 1.885L7.747 9.18l.231.229c.509.507 1.351.487 1.884-.044l.275-.271.195-.194a.506.506 0 01.707-.018l1.379 1.38a.504.504 0 01-.017.708z"/><path d="M10.688 14.072l-.005.287c.023-.01.045-.022.068-.033a1.403 1.403 0 01-.063-.254z"/></svg>