<svg xmlns="http://www.w3.org/2000/svg" viewBox="0 0 16 16"><path d="M3.822 10.211A8.968 8.968 0 012.175 8C2.744 6.917 4.592 4 8 4c.639 0 1.221.106 1.751.281l1.533-1.533A7.449 7.449 0 008 2C2.581 2 .261 7.38.164 7.609L0 8l.164.391c.053.124.76 1.754 2.253 3.225l1.405-1.405z"/><path d="M5.079 8c0 .288.048.562.128.824l3.617-3.616A2.84 2.84 0 008 5.08 2.92 2.92 0 005.079 8zm10.756-.392c-.055-.131-.847-1.95-2.526-3.481l1.398-1.398A.5.5 0 0014 2.022L1.98 14.042a.502.502 0 000 .708.502.502 0 00.707 0l1.676-1.678A7.481 7.481 0 008 14c.424 0 .828-.036 1.215-.098-.303-.571-.505-1.16-.578-1.707a1.678 1.678 0 01-.014-.229 5.56 5.56 0 01-2.763-.39l.929-.929A2.87 2.87 0 008 10.921c.261 0 .513-.038.753-.102a3.13 3.13 0 01.692-1.104l.209-.234.029-.029a1.733 1.733 0 011.077-.505c.103-.297.16-.615.16-.947 0-.434-.103-.842-.273-1.211l1.255-1.255c1 .878 1.631 1.912 1.922 2.466a9.155 9.155 0 01-1.29 1.846l.506.506c.358.359.522.84.496 1.312 1.525-1.483 2.247-3.147 2.299-3.272L16 8l-.165-.392z"/><path d="M14.633 13.923a.316.316 0 00-.224-.091.346.346 0 00-.243.102l-.129.129-.182.18a.919.919 0 01-.648.271.836.836 0 01-.596-.242l-.152-.152-.33-.329-.428-.429c-.012-.012-.016-.027-.025-.039a.878.878 0 01.055-1.207l.103-.1.079-.078.129-.129a.332.332 0 00.01-.467l-.388-.388-.008-.007-.517-.517a.312.312 0 00-.223-.091.341.341 0 00-.242.102l-.205.231c-.24.239-.408.551-.451.821-.019.111-.007.255.006.398.004.042-.004.073.002.117.065.493.301 1.117.734 1.748.139.201.295.402.475.601.062.069.12.14.188.208.001.002.005.004.006.004l.005.006C12.437 15.58 13.57 16 14.276 16c.083 0 .159-.006.229-.018.271-.042.582-.211.822-.449l.205-.232a.331.331 0 00.01-.467l-.909-.911z"/></svg>