<svg xmlns="http://www.w3.org/2000/svg" viewBox="0 0 16 16"><path d="M5 3h10v1H5zm0 4h10v1H5zm0 4h10v1H5zM2.912 4.98h.396V2.128l-1.027.106v.293l.631-.007zm-.328 3.708l.729-.829c.172-.212.3-.389.384-.53a.828.828 0 00.127-.434c0-.22-.074-.4-.223-.539-.148-.14-.352-.208-.61-.208-.284 0-.506.081-.671.238a.75.75 0 00-.237.581l.005.012h.377c0-.15.046-.277.134-.379.091-.102.221-.155.393-.155.137 0 .246.043.324.126a.443.443 0 01.117.319.759.759 0 01-.086.341c-.059.11-.168.263-.331.452l-.908 1.051v.259h1.799v-.297H2.588l-.004-.008zm.865 2.812a.701.701 0 00.286-.245.639.639 0 00.104-.351c0-.248-.075-.438-.221-.566-.147-.125-.35-.19-.609-.19a.921.921 0 00-.631.217.65.65 0 00-.238.524l.005.011h.36c0-.131.048-.242.143-.33s.215-.131.361-.131c.149 0 .262.041.339.125a.482.482 0 01.114.332.512.512 0 01-.106.345c-.068.081-.188.122-.356.122h-.312v.288h.311c.174 0 .301.042.382.128s.122.212.122.384a.506.506 0 01-.133.365.475.475 0 01-.362.14.524.524 0 01-.377-.137.435.435 0 01-.147-.334h-.36l-.003.01a.618.618 0 00.261.543c.18.139.39.207.627.207.258 0 .468-.07.63-.215.16-.141.242-.336.242-.587a.73.73 0 00-.11-.405.665.665 0 00-.322-.25z"/></svg>