<svg xmlns="http://www.w3.org/2000/svg" viewBox="0 0 16 16"><path d="M6.071 6.469c.88.301 1.639.813 1.639.813l1.513-5.089C6.519.167 3.36 1.85 3.36 1.85L1.848 6.977s.536-.253 1.446-.481c1.096-.276 2.344-.176 2.777-.027zm-1.386.73c-1.408-.097-3.104.675-3.104.675L.078 12.999c.696-.353 1.742-.53 2.948-.632 1.206-.098 2.905.984 2.905.984L7.459 8.21c-.242-.17-1.367-.913-2.774-1.011zm6.233 2.511C9.863 9.734 8.25 8.707 8.25 8.707l-1.506 5.098c.276.105 1.182.949 2.689 1.024 1.51.075 3.174-.688 3.174-.688s1.481-5.078 1.512-5.095a.152.152 0 01-.03.017c-1.411.542-2.13.623-3.171.647z"/><path d="M12.578 3.727a5.23 5.23 0 01-2.557-.998l-1.516 5.06s1.231 1.182 2.966 1.083c1.735-.099 2.678-.634 2.907-.71l1.505-5.104c0 .001-1.998.817-3.305.669z"/></svg>