<svg xmlns="http://www.w3.org/2000/svg" viewBox="0 0 16 16"><path d="M4 3h6v1H4zm0 7h1.654c.038-.346.109-.68.217-1H4v1zm3.113-3H4v1h2.327c.222-.365.48-.704.786-1zM10 5.66V5H4v1h4.607c.434-.186.907-.286 1.393-.34z"/><path d="M2 13V1h10v4.851c.353.11.686.255 1 .437V1a1 1 0 00-1-1H2a1 1 0 00-1 1v12a1 1 0 001 1h5.016a5.014 5.014 0 01-.739-1H2z"/><path d="M15.762 14.568l-1.083-1.112a.8.8 0 00-.689-.216l-.675-.676a3.414 3.414 0 00.666-2.019 3.445 3.445 0 00-3.441-3.44 3.445 3.445 0 00-3.44 3.44 3.444 3.444 0 003.44 3.442c.76 0 1.457-.255 2.026-.674l.694.694a.8.8 0 00.225.642l1.084 1.111a.817.817 0 001.154 0c.006-.007.008-.018.016-.023l.023-.016a.818.818 0 000-1.153zm-5.223-1.792a2.233 2.233 0 01-2.23-2.23c0-1.229 1.002-2.23 2.23-2.23s2.23 1.002 2.23 2.23a2.233 2.233 0 01-2.23 2.23z"/></svg>