<svg xmlns="http://www.w3.org/2000/svg" viewBox="0 0 16 16"><path d="M5.015 6.205c.23.074.263 1.194.841 1.988.454.617 1.095 1.397 1.829 1.517.087.018.542.018.629 0 .735-.12 1.376-.9 1.829-1.517.582-.794.611-1.914.842-1.988.273-.087.428-.812.428-1.646 0-.162-.325-.388-.355-.533l.002-.011c-.134-1.462-1.432-2.953-3.02-2.953h-.008l-.03.001-.03-.001h-.011c-1.589 0-2.887 1.491-3.021 2.953-.002.004 0 .008 0 .012-.029.145-.352.371-.352.533 0 .834.153 1.558.427 1.645zm9.616 6.753c-.395-.379-2.568-.849-4.117-1.987-.299-.245-.6-1.008-.6-1.008l-1.915 1.318-1.914-1.316s-.3.763-.599 1.007c-1.549 1.138-3.724 1.607-4.117 1.987-.717.695-.977 2.017-1.09 3.031H15.72c-.113-1.014-.371-2.337-1.089-3.032z"/></svg>