<svg xmlns="http://www.w3.org/2000/svg" viewBox="0 0 16 16"><path d="M0 2v12h16V2H0zm1 9.965v-.005c.055-.017.075-.022 0 .005zm11.709-1.894c-.777.08-2.658.518-3.612.768-.412.098-.966.164-1.871.097-.315-.049-.702-.097-1.053-.192-.089-.068-.173-.181-.173-.39V9.019c.254-.065.473-.194.639-.388a.517.517 0 00.498.321c.263 0 .471-.161.521-.37.007 0 .014.004.021.004.479 0 .866-.329.866-.734a.646.646 0 00-.169-.412c.231-.168.386-.409.386-.688 0-.506-.484-.916-1.083-.916l-.021.003c-.053-.31-.355-.553-.738-.553-.051 0-.096.018-.145.025-.271-.345-.735-.575-1.263-.575-.57 0-1.061.27-1.319.663a1.342 1.342 0 00-.523-.113c-.658 0-1.191.451-1.191 1.009 0 .187.076.352.181.501-.234.084-.398.279-.398.508 0 .238.182.436.434.512a.675.675 0 00-.083.296c0 .509.562.92 1.258.92.377 0 .705-.127.936-.318.054.055.129.087.193.131v1.414c0 .285-.361.461-.449.5-1.36.24-2.744.633-3.551 1.157V3h14v7.131c-.52-.127-1.337-.157-2.291-.06z"/><circle cx="12" cy="6.5" r="1.292"/></svg>