<svg xmlns="http://www.w3.org/2000/svg" viewBox="0 0 16 16"><path d="M8.504 10.584l-.004-.028-.003.029.003.002z"/><path d="M10.854 10.297c-.279-.229-.561-.945-.561-.945l-1.79 1.232.003.026c1.01.007 1.475.469 1.306.779-.205.25-.777.672-1.12.823L9.5 15h6.229c-.105-1-.348-2.19-1.02-2.841-.369-.355-2.404-.796-3.855-1.862z"/><path d="M15.288 2.058c-.008-.003-.008-.014-.017-.016l.391-.392a.5.5 0 00.011-.707.494.494 0 00-.702 0L13.914 2l-3.656 3.656-8.904 8.905-.032.033-.37.37a.5.5 0 00.709.707L2.332 15H7.5l.813-2.784c-.342-.148-.919-.576-1.125-.826-.169-.31.295-.772 1.306-.779l.003-.025-1.041-.717.752-.754c.086.017.504.017.585 0 .689-.112 1.289-.843 1.713-1.42.16-.218.275-.462.363-.701a1.975 1.975 0 01-.457-.086L11.318 6H12v1.5L13.5 6H15a1 1 0 001-1V3a.989.989 0 00-.712-.942zM11.894 2H11a1 1 0 00-1 1v.895l.218-.218L11.894 2zM5.693 5.833c.199.064.241.964.673 1.686l2.622-2.624V3a1.99 1.99 0 01.811-1.603 2.53 2.53 0 00-1.274-.355h-.074c-1.486 0-2.702 1.384-2.828 2.752-.002.003.001.001.001.006-.028.136-.331.344-.331.495 0 .781.145 1.456.4 1.538z"/></svg>