<svg xmlns="http://www.w3.org/2000/svg" viewBox="0 0 16 16"><path d="M14.901 3.528c-.53.237-1.1.399-1.698.472a2.996 2.996 0 001.3-1.656 5.9 5.9 0 01-1.878.727 2.933 2.933 0 00-2.158-.945c-1.633 0-2.956 1.34-2.956 2.993 0 .235.025.464.076.683a8.365 8.365 0 01-6.093-3.129c-.254.442-.4.956-.4 1.505 0 1.039.522 1.955 1.315 2.492a2.91 2.91 0 01-1.339-.375v.038c0 1.45 1.019 2.66 2.371 2.935a2.939 2.939 0 01-1.334.05 2.965 2.965 0 002.761 2.08 5.88 5.88 0 01-4.376 1.238 8.287 8.287 0 004.532 1.346c5.438 0 8.412-4.562 8.412-8.517 0-.13-.003-.26-.009-.388a6.02 6.02 0 001.474-1.549z"/></svg>