<svg xmlns="http://www.w3.org/2000/svg" viewBox="0 0 16 16"><path d="M15.41 2H15l-3 2.5v2L15 9h.41c.421 0 .59-.252.59-.562V2.562c0-.31-.169-.562-.59-.562zM5.412 4.921c.814.819.805 2.157-.02 2.985l-.277.278-.177.175-.229.223c-.199.2-.228.517-.051.693l.724.725H9.61c.137 0 .269-.021.394-.057.575-.166.996-.687.996-1.306V2.363C11 1.609 10.377 1 9.607 1H3.391C2.627 1 2.008 1.604 2 2.352c.549.006 1.062.22 1.447.605l1.965 1.964z"/><path d="M9.992 11.478c-.273-.269-.725-.257-1.007.024l-.278.277-.392.387c-.76.757-1.96.785-2.685.062l-.328-.326-1.635-1.637c-.724-.724-.694-1.925.064-2.685l.222-.215.17-.169.277-.278c.283-.284.292-.735.021-1.007L2.457 3.946c-.27-.271-.721-.261-1.005.024l-.442.499c-.517.516-.881 1.188-.973 1.77-.232 1.444.615 4.211 3.031 6.626.004.005.01.009.013.011l.013.014c2.414 2.416 5.182 3.264 6.625 3.032.582-.092 1.256-.456 1.771-.972l.443-.498c.283-.285.293-.736.021-1.008l-1.962-1.966z"/></svg>