<svg data-name="Layer 1" xmlns="http://www.w3.org/2000/svg" viewBox="0 0 32 32"><path d="M7.76 20.2a.55.55 0 01.16.41.56.56 0 01-.58.58H1.58a.56.56 0 01-.42-.19.56.56 0 01-.16-.39.56.56 0 01.16-.41.55.55 0 01.42-.2h5.77a.55.55 0 01.41.2zM19.59 9.87l-4.31.33-4.92-4.95a1.67 1.67 0 00-1.23-.5 1.75 1.75 0 00-1.23.49L5.25 7.87a1.65 1.65 0 00-.5 1.21 1.67 1.67 0 00.5 1.23l4.94 4.94-.32 4.33a5.24 5.24 0 01-1-.76L2.8 12.76a5.09 5.09 0 01-1.51-3.68 4.91 4.91 0 011.53-3.66l2.65-2.63a5 5 0 013.66-1.5 4.94 4.94 0 013.68 1.53l6 6a5.24 5.24 0 01.78 1.05zm-10.67 14L4.3 28.53a.6.6 0 01-.42.16.64.64 0 01-.42-.16.6.6 0 01-.16-.42.6.6 0 01.16-.41l4.62-4.61a.59.59 0 01.83.83zm3 .74v5.77a.56.56 0 01-.58.58.56.56 0 01-.58-.58v-5.73a.56.56 0 01.58-.58.56.56 0 01.58.58zm18.75-1.73a4.92 4.92 0 01-1.53 3.66l-2.65 2.63a5 5 0 01-3.66 1.5 4.94 4.94 0 01-3.68-1.53l-6-6a5.24 5.24 0 01-.76-1l4.31-.32 4.92 4.94a1.7 1.7 0 001.23.49 1.63 1.63 0 001.23-.48l2.65-2.63a1.65 1.65 0 00.5-1.21 1.67 1.67 0 00-.5-1.23l-4.94-5 .33-4.31a5.24 5.24 0 011 .76l6.06 6.06a5.09 5.09 0 011.53 3.71zm-9.48-21.3v5.76a.56.56 0 01-.16.42.61.61 0 01-.83 0 .56.56 0 01-.2-.42V1.58a.57.57 0 01.16-.42.61.61 0 01.83 0 .57.57 0 01.2.42zm7.34 2.72l-4.62 4.61a.64.64 0 01-.41.16.65.65 0 01-.42-.16.6.6 0 01-.16-.42.6.6 0 01.16-.41l4.62-4.61a.59.59 0 01.83.83zm2.31 6.7a.56.56 0 01.16.41.56.56 0 01-.16.42.57.57 0 01-.42.16h-5.76a.58.58 0 110-1.15h5.77a.57.57 0 01.41.16z"/></svg>