<svg viewBox="0 0 16 16" xmlns="http://www.w3.org/2000/svg"><g clip-path="url(#clip0)"><path d="M14.115 12.638V12.573C13.9946 12.3876 13.9177 12.1774 13.89 11.958C13.865 11.6935 13.7487 11.446 13.561 11.258L13.433 11.17L13.308 11.126C13.5622 10.3169 13.52 9.44381 13.189 8.663C12.8383 7.81405 12.3494 7.02908 11.742 6.34C11.132 5.74623 10.7612 4.94912 10.7 4.1C10.717 2.66 10.857 0.006 8.33802 0C8.23802 0 8.12902 0.006 8.01602 0.012C5.20002 0.234 5.94702 3.22 5.90002 4.214C5.87416 4.94007 5.63023 5.64153 5.20002 6.227C4.42253 7.11587 3.80962 8.13614 3.39002 9.24C3.19767 9.77084 3.13259 10.3394 3.20002 10.9L3.12502 10.988C2.95302 11.169 2.82502 11.388 2.68402 11.547C2.52553 11.6686 2.34531 11.7589 2.15302 11.813C2.03183 11.8476 1.91865 11.9058 1.81998 11.9842C1.72132 12.0626 1.63909 12.1597 1.57802 12.27C1.51738 12.3945 1.48722 12.5316 1.49002 12.67C1.4913 12.7896 1.50369 12.9087 1.52702 13.026C1.58139 13.2374 1.58991 13.458 1.55202 13.673C1.47368 13.8248 1.42723 13.991 1.41553 14.1615C1.40384 14.3319 1.42715 14.5029 1.48402 14.664C1.55628 14.769 1.6488 14.8584 1.75613 14.9271C1.86346 14.9958 1.98344 15.0423 2.10902 15.064C2.74038 15.1168 3.36223 15.2513 3.95902 15.464C4.48399 15.7712 5.10058 15.8831 5.70002 15.78C5.87211 15.7411 6.03329 15.6641 6.17173 15.5548C6.31017 15.4454 6.42235 15.3064 6.50002 15.148C6.89102 15.148 7.31902 14.967 8.00702 14.923C8.47302 14.883 9.05702 15.101 9.72602 15.055C9.74453 15.1324 9.77066 15.2078 9.80402 15.28C9.91359 15.5171 10.0945 15.7139 10.3216 15.843C10.5486 15.9721 10.8103 16.027 11.07 16C11.6636 15.9126 12.2008 15.6 12.57 15.127C13.037 14.7055 13.5727 14.3673 14.154 14.127C14.2687 14.077 14.3686 13.9985 14.4443 13.8989C14.5199 13.7992 14.5687 13.6819 14.586 13.558C14.573 13.381 14.5246 13.2083 14.4437 13.0503C14.3628 12.8923 14.251 12.7521 14.115 12.638ZM7.90702 3.276C7.90226 3.09973 7.9364 2.92458 8.00702 2.763C8.05932 2.61587 8.16066 2.49123 8.29402 2.41C8.40618 2.32079 8.54472 2.27121 8.68802 2.269H8.70002C8.84045 2.26853 8.97701 2.31499 9.08802 2.401C9.2121 2.49469 9.31189 2.61677 9.37902 2.757C9.44622 2.90923 9.48422 3.07274 9.49102 3.239V3.201V3.27V3.254V3.239C9.48985 3.40114 9.45583 3.56137 9.39102 3.71C9.36037 3.79508 9.31118 3.87227 9.24702 3.936L9.19102 3.907C9.12373 3.88673 9.05948 3.85746 9.00002 3.82C8.95249 3.80082 8.90328 3.78609 8.85302 3.776L8.97502 3.645C9.0093 3.5593 9.02825 3.46825 9.03102 3.376V3.364C9.0318 3.2742 9.01726 3.18492 8.98802 3.1C8.95846 3.02101 8.91844 2.94635 8.86902 2.878C8.82029 2.82916 8.75653 2.79816 8.68802 2.79H8.67902C8.64487 2.78917 8.61104 2.79676 8.58051 2.81211C8.54999 2.82746 8.52372 2.85009 8.50402 2.878C8.44079 2.93925 8.39431 3.01568 8.36902 3.1C8.3329 3.1842 8.31289 3.27443 8.31002 3.366V3.378C8.31103 3.4375 8.31504 3.49691 8.32202 3.556C8.19102 3.512 8.03202 3.466 7.91602 3.422L7.90702 3.29V3.276ZM6.25002 2.8C6.2885 2.66966 6.35315 2.54852 6.44002 2.444C6.47302 2.40232 6.51495 2.36855 6.56271 2.34519C6.61047 2.32183 6.66286 2.30946 6.71602 2.309H6.73702C6.83189 2.31196 6.92361 2.3437 7.00002 2.4C7.09737 2.4854 7.17514 2.5908 7.22802 2.709C7.28975 2.8502 7.3237 3.00196 7.32802 3.156C7.33379 3.21519 7.33379 3.27481 7.32802 3.334V3.388L7.27802 3.4C7.18702 3.43749 7.09937 3.48265 7.01602 3.535C7.02352 3.47557 7.02352 3.41543 7.01602 3.356V3.351C7.00851 3.27494 6.99068 3.20025 6.96302 3.129C6.94195 3.06063 6.90293 2.99916 6.85002 2.951L6.73402 2.91H6.71902C6.69293 2.91291 6.6681 2.92281 6.64716 2.93865C6.62621 2.95449 6.60993 2.97568 6.60002 3C6.55674 3.05175 6.52839 3.11433 6.51802 3.181C6.49879 3.2523 6.49269 3.32651 6.50002 3.4V3.406C6.5067 3.48317 6.52455 3.55896 6.55302 3.631C6.57332 3.69906 6.61087 3.76073 6.66202 3.81L6.68402 3.825C6.63702 3.866 6.60602 3.872 6.56902 3.916L6.48102 3.963C6.41156 3.88198 6.35089 3.79382 6.30002 3.7C6.23695 3.55925 6.20293 3.40721 6.20002 3.253C6.18886 3.10021 6.2058 2.94667 6.25002 2.8ZM6.31502 4.207C6.46202 4.119 6.56902 4.025 6.63402 3.981C6.69902 3.937 6.73402 3.913 6.75302 3.897C6.89736 3.71261 7.09178 3.57373 7.31302 3.497C7.41422 3.46642 7.5193 3.45059 7.62502 3.45C7.91684 3.44775 8.20135 3.54119 8.43502 3.716C8.65334 3.85012 8.88881 3.95406 9.13502 4.025C9.26514 4.08192 9.37595 4.17536 9.45402 4.294V4.2C9.47783 4.24847 9.49104 4.30145 9.49276 4.35542C9.49449 4.40939 9.48469 4.46311 9.46402 4.513C9.31111 4.78717 9.05582 4.9896 8.75402 5.076C8.57602 5.163 8.41902 5.298 8.23802 5.385C8.0332 5.50415 7.79996 5.56566 7.56302 5.563C7.46121 5.56762 7.35944 5.55303 7.26302 5.52C7.19162 5.4843 7.12248 5.44423 7.05602 5.4C6.92676 5.28796 6.79012 5.18473 6.64702 5.091C6.44579 4.98734 6.28417 4.82046 6.18702 4.616C6.15747 4.54373 6.15409 4.46342 6.17746 4.38892C6.20083 4.31443 6.24949 4.25043 6.31502 4.208V4.207ZM6.42202 14.647C6.41746 14.8559 6.33983 15.0567 6.20263 15.2144C6.06543 15.372 5.87734 15.4766 5.67102 15.51C5.11815 15.5886 4.55487 15.4798 4.07102 15.201C3.4644 14.9547 2.8185 14.8192 2.16402 14.801C2.06902 14.7947 1.97661 14.7673 1.89343 14.721C1.81026 14.6747 1.7384 14.6104 1.68302 14.533C1.60189 14.2583 1.63206 13.9627 1.76702 13.71C1.81987 13.4631 1.81371 13.2071 1.74902 12.963C1.69476 12.7566 1.70452 12.5387 1.77702 12.338C1.88302 12.113 2.04202 12.072 2.23602 11.982C2.45761 11.9179 2.66474 11.8116 2.84602 11.669C3.01502 11.494 3.14602 11.269 3.29302 11.112C3.34488 11.0438 3.41146 10.9881 3.48782 10.9491C3.56417 10.9102 3.64833 10.8889 3.73402 10.887H3.74302L3.84302 10.897C4.12673 10.9686 4.37136 11.148 4.52502 11.397L5.14002 12.5C5.36941 12.8909 5.63526 13.2592 5.93402 13.6C6.20492 13.8875 6.37603 14.2546 6.42202 14.647ZM6.37502 13.825C6.30063 13.6955 6.21026 13.5759 6.10602 13.469C6.05618 13.3862 5.99415 13.3113 5.92202 13.247C6.0265 13.2458 6.13038 13.2311 6.23102 13.203C6.32592 13.1576 6.40046 13.0785 6.44002 12.981C6.46537 12.8428 6.45766 12.7005 6.41751 12.5658C6.37736 12.4311 6.30592 12.3078 6.20902 12.206C5.87906 11.7966 5.47504 11.453 5.01802 11.193C4.65621 10.987 4.38258 10.6554 4.24902 10.261C4.14833 9.90165 4.14523 9.52195 4.24002 9.161C4.42496 8.50506 4.71288 7.88264 5.09302 7.317C5.16202 7.276 5.11802 7.408 4.82102 7.967C4.5728 8.34607 4.43391 8.78623 4.41962 9.23911C4.40533 9.69199 4.5162 10.14 4.74002 10.534C4.76689 9.87424 4.91291 9.22477 5.17102 8.617C5.76803 7.52162 6.1831 6.33651 6.40002 5.108C6.43102 5.133 6.54402 5.198 6.59402 5.242C6.73702 5.33 6.84702 5.464 6.98702 5.552C7.06469 5.62648 7.15643 5.68474 7.25688 5.72338C7.35732 5.76201 7.46445 5.78024 7.57202 5.777H7.64402C7.8739 5.77276 8.09921 5.71197 8.30002 5.6C8.49302 5.509 8.65002 5.375 8.79302 5.331C9.07042 5.26451 9.31589 5.10323 9.48702 4.875C9.77247 5.90532 10.1608 6.90434 10.646 7.857C10.993 8.4873 11.2409 9.16726 11.381 9.873C11.4962 9.87155 11.611 9.88636 11.722 9.917C11.8472 9.45155 11.8463 8.96119 11.7194 8.49621C11.5925 8.03123 11.3442 7.60837 11 7.271C10.85 7.14 10.844 7.049 10.916 7.049C11.4489 7.54425 11.8304 8.18056 12.016 8.884C12.1093 9.24949 12.1151 9.63183 12.033 10C12.0748 10.0222 12.1202 10.0371 12.167 10.044C12.855 10.4 13.111 10.669 12.986 11.069V11.041H12.858C12.958 10.728 12.736 10.488 12.148 10.222C11.539 9.956 11.048 9.997 10.967 10.531C10.9616 10.5611 10.9583 10.5915 10.957 10.622C10.9117 10.6399 10.8648 10.6536 10.817 10.663C10.6806 10.7526 10.5635 10.8687 10.4728 11.0044C10.3821 11.1401 10.3196 11.2927 10.289 11.453C10.2065 11.8641 10.1613 12.2818 10.154 12.701C10.109 13.0068 10.0367 13.308 9.93802 13.601C9.44151 14.0049 8.8313 14.2436 8.19255 14.284C7.55379 14.3243 6.91839 14.1642 6.37502 13.826V13.825ZM14.065 13.881C13.4621 14.1323 12.9078 14.4869 12.427 14.929C12.0962 15.3613 11.6089 15.6464 11.07 15.723C10.8534 15.7524 10.6331 15.7095 10.4433 15.6011C10.2535 15.4926 10.1047 15.3246 10.02 15.123C9.90263 14.7558 9.91463 14.3594 10.054 14C10.194 13.5878 10.2978 13.1642 10.364 12.734C10.3701 12.3266 10.413 11.9207 10.492 11.521C10.5135 11.3878 10.563 11.2608 10.6373 11.1482C10.7116 11.0356 10.809 10.9401 10.923 10.868L10.951 10.849C10.9445 11.0437 10.9971 11.2358 11.1021 11.3999C11.2071 11.564 11.3595 11.6924 11.539 11.768C11.7638 11.7807 11.9885 11.7414 12.1956 11.6532C12.4027 11.5649 12.5866 11.43 12.733 11.259L12.874 11.252C12.9756 11.238 13.079 11.2468 13.1767 11.2777C13.2745 11.3087 13.3641 11.3611 13.439 11.431C13.5765 11.5987 13.666 11.8005 13.698 12.015C13.7229 12.2719 13.8169 12.5173 13.97 12.725C14.1966 12.9201 14.347 13.1889 14.395 13.484C14.39 13.66 14.274 13.748 14.065 13.882V13.881ZM8.00002 3.864L8.09102 3.82C8.09702 3.773 8.03102 3.729 7.99102 3.729C7.96403 3.71667 7.9347 3.71029 7.90502 3.71029C7.87534 3.71029 7.84601 3.71667 7.81902 3.729L7.79702 3.764V3.776L7.90602 3.82L8.00002 3.864ZM6.67202 4.88C6.91783 5.06614 7.21406 5.17382 7.52202 5.189C7.8746 5.14115 8.21323 5.01987 8.51602 4.833C8.67396 4.73602 8.82652 4.63053 8.97302 4.517C9.09402 4.383 9.15402 4.304 9.07302 4.295C8.99202 4.286 8.99202 4.386 8.88902 4.476C8.75502 4.564 8.58902 4.698 8.45802 4.786C8.17689 4.96328 7.85722 5.07029 7.52602 5.098C7.24101 5.07546 6.96963 4.96663 6.74802 4.786C6.67018 4.70678 6.58734 4.63263 6.50002 4.564C6.45302 4.52 6.44102 4.439 6.36902 4.429C6.32202 4.429 6.30902 4.567 6.41902 4.655C6.48402 4.7 6.56902 4.789 6.67202 4.88ZM7.31602 3.817L7.42502 3.773V3.761L7.40602 3.726C7.3785 3.71367 7.34868 3.70729 7.31852 3.70729C7.28836 3.70729 7.25854 3.71367 7.23102 3.726L7.13102 3.814L7.22202 3.861L7.31602 3.817Z"/></g><defs><clipPath><rect/></clipPath></defs></svg>