<svg data-name="Layer 1" xmlns="http://www.w3.org/2000/svg" viewBox="0 0 32 32"><path d="M12.55 14.26l-2-3.92zm16.94-3.59A19 19 0 0016 5a18.61 18.61 0 00-5 .66.28.28 0 00-.17.39l1.71 3.42a.2.2 0 00.28.11A14.3 14.3 0 0116 9.29a14.8 14.8 0 0110.48 4.36 1 1 0 001.49 0l1.49-1.49a1 1 0 00.33-.72c-.02-.27-.08-.66-.3-.77zM16 13.65a4.76 4.76 0 00-.88.06c-.17 0-.28.22-.22.39l1.93 3.81c.06.06.11.11.17.11a7 7 0 013.42 1.71 1 1 0 001.49 0l1.49-1.49a1 1 0 000-1.49 10.11 10.11 0 00-7.4-3.1zm.19 7.78v-.06l-1.65-3.26-1.93-3.86-3.92-7.71-.39-.77a1.08 1.08 0 00-.55-.55 1.37 1.37 0 00-.94 0 1.11 1.11 0 00-.5 1.49l.39.77a20.64 20.64 0 00-4.08 3.15 1.07 1.07 0 00-.39.83.82.82 0 00.33.72l1.49 1.49a1 1 0 001.49 0 13.83 13.83 0 013-2.32l2 3.86a8.8 8.8 0 00-1.93 1.55 1 1 0 000 1.49l1.49 1.49a1 1 0 001.49 0 5.53 5.53 0 01.91-.74l1.65 3.2a2.84 2.84 0 00-.83 2 2.76 2.76 0 105.52 0 2.82 2.82 0 00-2.65-2.76z"/></svg>