<svg viewBox="0 0 16 16" xmlns="http://www.w3.org/2000/svg"><path d="M14.9131 6.05501H8.7231C8.3131 6.05501 7.9731 5.71501 7.9731 5.30501C7.9731 5.01501 8.1431 4.65501 8.4031 4.53501C8.6631 4.40501 8.8631 4.175 8.9531 3.895L9.6631 1.585C9.9631 0.625005 10.8131 0.00500488 11.8231 0.00500488C12.8331 0.00500488 13.6831 0.625005 13.9831 1.595L14.6931 3.905C14.7731 4.185 14.9731 4.41501 15.2431 4.53501C15.5031 4.65501 15.6731 4.925 15.6731 5.215V5.315C15.6631 5.715 15.3331 6.05501 14.9131 6.05501ZM10.3131 4.55501H13.3431C13.3131 4.48501 13.2931 4.41501 13.2631 4.34501L12.5531 2.045C12.3931 1.545 11.9531 1.505 11.8231 1.505C11.6931 1.505 11.2531 1.545 11.1031 2.035L10.3931 4.34501C10.3631 4.41501 10.3331 4.48501 10.3131 4.55501Z"/><path d="M12.2931 8.255H11.3431C10.9331 8.255 10.5931 7.915 10.5931 7.505C10.5931 7.095 10.9331 6.755 11.3431 6.755H12.2931C12.7031 6.755 13.0431 7.095 13.0431 7.505C13.0431 7.915 12.7131 8.255 12.2931 8.255Z"/><path d="M10.5931 15.995C10.1031 15.995 9.6131 15.885 9.1631 15.665C7.3331 14.785 5.6631 13.585 4.1931 12.115C2.7231 10.655 1.5331 8.98501 0.653096 7.155C-0.0269041 5.74501 0.383096 4.015 1.6331 3.045L2.2331 2.575C3.0831 1.915 4.2931 1.975 5.0431 2.715C5.5031 3.165 5.9331 3.655 6.3131 4.175C6.8031 4.845 6.8631 5.685 6.4831 6.505L6.1231 7.275C5.9531 7.635 6.0231 8.065 6.2831 8.365C6.5431 8.655 6.8131 8.94501 7.0931 9.22501C7.3731 9.50501 7.6631 9.775 7.9531 10.035C8.2531 10.295 8.6831 10.365 9.0431 10.195L9.9331 9.785C10.6531 9.455 11.4931 9.535 12.1331 10.005C12.6431 10.385 13.1431 10.815 13.5931 11.275C14.3631 12.055 14.3931 13.255 13.6631 14.185L13.2731 14.685C12.6131 15.535 11.6131 15.995 10.5931 15.995ZM3.5631 3.625C3.4231 3.625 3.2731 3.67501 3.1531 3.76501L2.5531 4.235C1.8631 4.775 1.6231 5.735 2.0031 6.505C2.8131 8.175 3.9031 9.71501 5.2631 11.065C6.6131 12.415 8.1431 13.515 9.8231 14.325C10.6031 14.695 11.5531 14.465 12.1031 13.765L12.4931 13.265C12.7431 12.935 12.7631 12.565 12.5331 12.325C12.1331 11.925 11.7031 11.545 11.2531 11.215C11.0531 11.065 10.7931 11.045 10.5831 11.145L9.6931 11.555C8.7831 11.975 7.7231 11.825 6.9731 11.165C6.6631 10.885 6.3531 10.595 6.0431 10.295C5.7331 9.99501 5.4431 9.675 5.1631 9.365C4.5031 8.615 4.3431 7.545 4.7631 6.645L5.1231 5.875C5.2731 5.555 5.2631 5.29501 5.1131 5.07501C4.7731 4.62501 4.4031 4.195 3.9931 3.795C3.8831 3.685 3.7231 3.625 3.5631 3.625Z"/></svg>