<svg viewBox="0 0 16 16" xmlns="http://www.w3.org/2000/svg"><path d="M13.3262 9.72434C12.9362 9.72434 12.5462 9.63434 12.1862 9.45434C10.9862 8.86434 9.88619 8.06434 8.90619 7.09434C7.93619 6.12434 7.13619 5.02433 6.54619 3.82433C5.99619 2.72433 6.30619 1.38433 7.26619 0.634335L7.61619 0.364335C8.28619 -0.155665 9.23619 -0.105665 9.83619 0.484335C10.1462 0.794335 10.4362 1.12433 10.6962 1.47433C11.0762 1.98433 11.1262 2.64433 10.8362 3.27433L10.7562 3.45433C10.6862 3.60433 10.7162 3.77434 10.8262 3.90434C11.0262 4.12434 11.2262 4.34433 11.4462 4.56433C11.6562 4.77433 11.8762 4.98433 12.1062 5.18433C12.2262 5.29433 12.4062 5.32433 12.5562 5.25433L12.8162 5.13434C13.3762 4.87434 14.0162 4.93434 14.4962 5.28434C14.8662 5.55434 15.2162 5.85433 15.5362 6.18433C16.1262 6.78433 16.1562 7.74434 15.6062 8.45434L15.3762 8.74434C14.8662 9.37434 14.1062 9.72434 13.3262 9.72434ZM8.65619 1.50433C8.61619 1.50433 8.57619 1.51433 8.53619 1.54433L8.18619 1.82433C7.78619 2.13433 7.65619 2.69434 7.88619 3.15434C8.40619 4.21433 9.10619 5.18434 9.96619 6.03434C10.8262 6.89434 11.7962 7.59434 12.8462 8.11434C13.3062 8.34434 13.8662 8.21433 14.1762 7.81433L14.4062 7.52433C14.4762 7.43433 14.5262 7.30433 14.4562 7.22433C14.1962 6.95433 13.9062 6.70433 13.6062 6.48433C13.5662 6.45433 13.4962 6.45433 13.4362 6.48433L13.1762 6.60433C12.4862 6.92433 11.6762 6.80434 11.1062 6.30434C10.8562 6.08434 10.6162 5.85433 10.3762 5.62433C10.1362 5.39433 9.90619 5.15434 9.68619 4.90434C9.18619 4.33434 9.06619 3.51433 9.38619 2.83433L9.46619 2.65434C9.54619 2.47434 9.49619 2.40433 9.48619 2.37433C9.27619 2.08433 9.03619 1.80433 8.77619 1.55433C8.74619 1.52433 8.70619 1.50433 8.65619 1.50433Z"/><path d="M10.2662 15.9943C9.77619 15.9943 9.28619 15.8843 8.83619 15.6643C7.01619 14.7843 5.33619 13.5843 3.86619 12.1143C2.39619 10.6543 1.20619 8.98434 0.326192 7.15434C-0.353808 5.74434 0.0561914 4.01433 1.30619 3.04433L1.90619 2.57433C2.75619 1.91433 3.96619 1.97433 4.71619 2.71433C5.17619 3.16433 5.60619 3.65434 5.98619 4.17434C6.47619 4.84434 6.53619 5.68433 6.15619 6.50433L5.79619 7.27433C5.62619 7.63433 5.69619 8.06434 5.95619 8.36434C6.21619 8.65434 6.48619 8.94434 6.76619 9.22434C7.04619 9.50434 7.33619 9.77434 7.62619 10.0343C7.92619 10.2943 8.35619 10.3643 8.71619 10.1943L9.60619 9.78434C10.3262 9.45434 11.1662 9.53434 11.8062 10.0043C12.3262 10.3843 12.8162 10.8143 13.2662 11.2743C14.0362 12.0543 14.0662 13.2543 13.3362 14.1843L12.9462 14.6843C12.2862 15.5343 11.2862 15.9943 10.2662 15.9943ZM3.23619 3.62434C3.09619 3.62434 2.94619 3.67434 2.82619 3.76434L2.22619 4.23433C1.53619 4.77433 1.29619 5.73433 1.67619 6.50433C2.48619 8.17433 3.57619 9.71434 4.93619 11.0643C6.28619 12.4143 7.81619 13.5143 9.49619 14.3243C10.2762 14.6943 11.2262 14.4643 11.7762 13.7743L12.1662 13.2743C12.4162 12.9443 12.4362 12.5743 12.2062 12.3343C11.8062 11.9343 11.3762 11.5543 10.9262 11.2243C10.7262 11.0743 10.4662 11.0543 10.2562 11.1543L9.36619 11.5643C8.46619 11.9843 7.39619 11.8343 6.64619 11.1743C6.33619 10.8943 6.02619 10.6043 5.71619 10.3043C5.40619 10.0043 5.11619 9.67434 4.83619 9.36434C4.17619 8.61434 4.01619 7.54433 4.43619 6.64433L4.79619 5.87433C4.94619 5.55433 4.93619 5.29434 4.78619 5.07434C4.44619 4.62434 4.07619 4.19434 3.66619 3.79434C3.55619 3.68434 3.39619 3.62434 3.23619 3.62434Z"/></svg>