<svg viewBox="0 0 16 17" xmlns="http://www.w3.org/2000/svg"><path d="M15.7785 2.00789C16.0714 1.69039 16.0714 1.17562 15.7785 0.85812C15.4856 0.54062 15.0107 0.54062 14.7178 0.85812L11.2481 4.61928L9.77847 3.02614C9.48557 2.70864 9.0107 2.70864 8.71781 3.02614C8.42492 3.34364 8.42492 3.85841 8.71781 4.17591L10.7178 6.34393C10.8585 6.4964 11.0492 6.58205 11.2481 6.58205C11.447 6.58205 11.6378 6.4964 11.7785 6.34393L15.7785 2.00789Z"/><path fill-rule="evenodd" clip-rule="evenodd" d="M9.60814 9.86661C10.3281 9.49804 11.1681 9.59561 11.8081 10.1051C12.3281 10.517 12.8181 10.9831 13.2781 11.5035C14.0481 12.349 14.0681 13.6498 13.3481 14.6579L12.9581 15.1999C12.2981 16.1214 11.2981 16.62 10.2781 16.62C9.78815 16.62 9.30815 16.5008 8.84815 16.2623C7.01815 15.2975 5.34815 14.0075 3.87814 12.414C2.40814 10.8205 1.20814 9.01024 0.328145 7.0265C-0.351855 5.49804 0.0581446 3.6227 1.30814 2.57121L1.90814 2.06173C2.74814 1.34628 3.95814 1.41132 4.71814 2.21349C5.17814 2.71214 5.60814 3.2433 5.98814 3.79615C6.47814 4.51159 6.53814 5.42216 6.15814 6.31105L5.79814 7.14574C5.62814 7.53598 5.69814 8.00211 5.95814 8.32731C6.21814 8.64168 6.48814 8.95604 6.76814 9.25956C7.04814 9.56309 7.33814 9.85577 7.62814 10.1376C7.92814 10.4303 8.34815 10.4953 8.71815 10.3111L9.60814 9.86661ZM11.7681 14.181L12.1581 13.639C12.4081 13.2812 12.4281 12.8693 12.1981 12.62C11.7981 12.1864 11.3681 11.7745 10.9181 11.4167C10.7281 11.2541 10.4681 11.2325 10.2481 11.3409L9.35814 11.7853C8.44814 12.2406 7.38814 12.078 6.63814 11.3625C6.31814 11.059 6.00814 10.7447 5.70814 10.4195C5.40814 10.0834 5.11814 9.74737 4.83814 9.41132C4.17814 8.59831 4.01814 7.43842 4.43814 6.46281L4.78814 5.62812C4.93814 5.28124 4.93814 4.98856 4.77814 4.76092C4.44814 4.27311 4.07814 3.80699 3.66814 3.37338C3.54814 3.25414 3.39814 3.1891 3.23814 3.1891C3.09814 3.1891 2.94814 3.23246 2.82814 3.34086L2.22814 3.85035C1.53814 4.43571 1.29814 5.47636 1.67814 6.31105C2.48814 8.13219 3.57814 9.79073 4.92814 11.2541C6.27814 12.7284 7.81814 13.91 9.48814 14.788C10.2681 15.1891 11.2281 14.9398 11.7681 14.181Z"/></svg>