<svg xmlns="http://www.w3.org/2000/svg" viewBox="0 0 10.241 33"><g data-name="Group 39"><g data-name="Rectangle 47" fill="#f5f5f5" stroke="#ebebeb"><rect width="10.241" height="33" rx="3" stroke="none"/><rect x=".5" y=".5" width="9.241" height="32" rx="2.5" fill="none"/></g><path data-name="Path 6" d="M3.618 12.279a1.19 1.19 0 01.433-.938 1.571 1.571 0 011.066-.375 1.5 1.5 0 011.066.386 1.261 1.261 0 01.415.964 1.219 1.219 0 01-.42.956 1.542 1.542 0 01-1.061.372 1.549 1.549 0 01-1.079-.378 1.265 1.265 0 01-.42-.987zm0 4.005a1.19 1.19 0 01.433-.938 1.571 1.571 0 011.066-.375 1.5 1.5 0 011.066.387 1.261 1.261 0 01.415.963 1.219 1.219 0 01-.42.956 1.542 1.542 0 01-1.061.372 1.549 1.549 0 01-1.079-.383 1.265 1.265 0 01-.42-.981zm0 4.005a1.19 1.19 0 01.433-.938 1.571 1.571 0 011.066-.375 1.5 1.5 0 011.066.39 1.261 1.261 0 01.415.96 1.219 1.219 0 01-.42.956 1.542 1.542 0 01-1.061.372 1.549 1.549 0 01-1.079-.378 1.265 1.265 0 01-.42-.986z" fill="#ccc"/></g></svg>