<svg viewBox="0 0 16 16" xmlns="http://www.w3.org/2000/svg"><path d="M0.750117 11.902C1.16018 11.902 1.50023 11.6045 1.50023 11.2457V5.93358L4.4807 8.06892C4.62072 8.16518 4.79075 8.21769 4.95077 8.21769C5.17081 8.21769 5.38084 8.13893 5.53086 7.97265C5.80091 7.69261 5.7609 7.28129 5.44085 7.05376L1.71027 4.38459C1.58025 4.28833 1.50023 4.1483 1.50023 3.99953V3.62322C1.50023 3.37818 1.72027 3.18565 2.00031 3.18565H10.7117C11.1217 3.18565 11.4618 2.88811 11.4618 2.5293C11.4618 2.1705 11.1317 1.87295 10.7117 1.87295H2.00031C0.900141 1.87295 0 2.66057 0 3.62322V11.2457C0 11.6045 0.340053 11.902 0.750117 11.902Z"/><path d="M15.7825 2.11799C16.0725 1.8642 16.0725 1.44413 15.7825 1.19034C15.4924 0.936553 15.0123 0.936553 14.7223 1.19034L0.220034 13.8798C-0.0700109 14.1336 -0.0700109 14.5537 0.220034 14.8075C0.370058 14.93 0.560088 15 0.750117 15C0.940147 15 1.13018 14.9387 1.2802 14.8075L2.06032 14.1249H13.9922C15.0924 14.1249 15.9925 13.3372 15.9925 12.3746V7.37756C15.9925 7.01875 15.6524 6.72121 15.2424 6.72121C14.8323 6.72121 14.4923 7.01875 14.4923 7.37756V12.3746C14.4923 12.6196 14.2722 12.8122 13.9922 12.8122H3.56056L7.18112 9.64416C7.45116 9.71417 7.73121 9.74918 8.00125 9.74918C8.73136 9.74918 9.46148 9.5304 10.0516 9.10158L15.2324 5.391C15.7125 5.0497 15.9925 4.53336 15.9925 3.99078V3.62322C15.9925 3.1594 15.7825 2.73933 15.4324 2.41553L15.7825 2.11799ZM14.4923 3.62322V3.99953C14.4923 4.1483 14.4123 4.28833 14.2822 4.38459L9.11142 8.09517C8.9914 8.18268 8.86138 8.2527 8.72136 8.3052L14.3822 3.35193C14.4523 3.42194 14.4923 3.51821 14.4923 3.62322Z"/></svg>