<svg viewBox="0 0 16 16" xmlns="http://www.w3.org/2000/svg"><path d="M8 1C6.61553 1 5.26216 1.41054 4.11101 2.17971C2.95987 2.94888 2.06266 4.04213 1.53285 5.32122C1.00303 6.6003 0.86441 8.00776 1.13451 9.36563C1.4046 10.7235 2.07129 11.9708 3.05026 12.9497C4.02922 13.9287 5.2765 14.5954 6.63437 14.8655C7.99224 15.1356 9.3997 14.997 10.6788 14.4672C11.9579 13.9373 13.0511 13.0401 13.8203 11.889C14.5895 10.7378 15 9.38447 15 8C14.9971 6.14438 14.2587 4.36559 12.9465 3.05347C11.6344 1.74134 9.85563 1.00291 8 1ZM3.7 12.327L3.674 12.3L6.852 7.534L8.466 9.148L3.7 12.327ZM9.135 8.486L7.514 6.866L12.3 3.673L12.324 3.698L9.135 8.486Z"/></svg>