<svg data-name="Layer 1" xmlns="http://www.w3.org/2000/svg" viewBox="0 0 32 32"><path d="M12.5 14l1.5.91v-.17a1 1 0 01.52-.87l.22-.13L13.5 13l-.41.41-.16.17a1.42 1.42 0 01-.19.19l-.06.05zm4.5 1a1 1 0 000 2 1 1 0 00.7-.3A1 1 0 0017 15z"/><path d="M29.61 22.22L21.68 16l7.92-6.22a.91.91 0 00.4-.87 1 1 0 00-.55-.8l-2-1A.94.94 0 0027 7a1 1 0 00-.48.13l-10.78 6-1.72-1-.19-.08a4.17 4.17 0 00.17-1.5 4.81 4.81 0 00-.87-2.31A6.9 6.9 0 0011 6.31 7.93 7.93 0 006.72 5a4.88 4.88 0 00-3.47 1.24 3.73 3.73 0 00-1 1.45A4 4 0 002 9.45a4.79 4.79 0 00.87 2.3 7.14 7.14 0 002 1.94A8 8 0 009.28 15a5.65 5.65 0 002.36-.48 1.33 1.33 0 00.34.34L13.89 16 12 17.14a1.33 1.33 0 00-.34.34A5.65 5.65 0 009.28 17a8 8 0 00-4.34 1.31 7.17 7.17 0 00-2 1.94A4.79 4.79 0 002 22.54a3.75 3.75 0 001.23 3.23A5 5 0 006.72 27 7.93 7.93 0 0011 25.69a7.16 7.16 0 002.06-1.93 4.76 4.76 0 00.94-2.31 4.17 4.17 0 00-.15-1.51l.19-.08 1.72-1 10.78 6A1 1 0 0027 25a.94.94 0 00.45-.11l2-1a1 1 0 00.55-.8.92.92 0 00-.39-.87zM11 11.94a2.51 2.51 0 01-1.77.56 5.46 5.46 0 01-3-.92 3.85 3.85 0 01-1.6-1.83A1.42 1.42 0 015 8.06a2.51 2.51 0 011.72-.56 5.48 5.48 0 013 .92 3.84 3.84 0 011.66 1.83 1.42 1.42 0 01-.38 1.69zm.33 9.81a3.84 3.84 0 01-1.66 1.83 5.46 5.46 0 01-3 .92A2.52 2.52 0 015 23.94a1.42 1.42 0 01-.33-1.69 3.85 3.85 0 011.66-1.83 5.46 5.46 0 013-.92 2.51 2.51 0 011.77.56 1.42 1.42 0 01.27 1.69zM16 17.5L13.5 19l-.41-.41-.17-.19-.17-.19-.11-.09-.14-.12 2.5-1.5v-1.77L27 8l2 1-11.5 9zM27 24l-9.09-5.11a.53.53 0 00.2-.11l2.76-2.16L29 23z"/></svg>