<svg data-name="Layer 1" xmlns="http://www.w3.org/2000/svg" viewBox="0 0 32 32"><path d="M12.09 0H.7a.72.72 0 00-.5.2.63.63 0 00-.2.5v11.39a.64.64 0 00.21.5.73.73 0 00.5.21h2.54a.72.72 0 00.5-.19.66.66 0 00.19-.5V3.93h8.16a.72.72 0 00.5-.19.66.66 0 00.19-.5V.7a.67.67 0 00-.21-.5.64.64 0 00-.49-.2zm7.79 3.94H28v8.16a.72.72 0 00.19.5.66.66 0 00.5.19h2.54a.67.67 0 00.5-.21.7.7 0 00.21-.5L32 .71a.72.72 0 00-.19-.5.66.66 0 00-.51-.21H19.9a.64.64 0 00-.5.21.73.73 0 00-.21.5v2.54a.72.72 0 00.19.5.65.65 0 00.5.18zm-7.3 24.34a.66.66 0 00-.5-.19H3.93v-8.18a.72.72 0 00-.19-.5.66.66 0 00-.5-.19H.7a.67.67 0 00-.5.21.7.7 0 00-.21.5L0 31.3a.72.72 0 00.19.5.61.61 0 00.51.2h11.4a.64.64 0 00.5-.21.7.7 0 00.21-.5v-2.54a.67.67 0 00-.23-.49zm19.22-8.9a.84.84 0 00-.51-.19h-2.54a.72.72 0 00-.5.19.66.66 0 00-.19.5v8.16H19.9a.72.72 0 00-.5.19.66.66 0 00-.19.5v2.54a.67.67 0 00.21.5.7.7 0 00.5.21L31.3 32a.72.72 0 00.5-.19.66.66 0 00.19-.5V19.9a.64.64 0 00-.19-.52z"/></svg>