<svg data-name="Layer 1" xmlns="http://www.w3.org/2000/svg" viewBox="0 0 32 32"><path d="M31.66 22a1.11 1.11 0 00-.81-.34H1.14a1.09 1.09 0 00-.8.34 1.11 1.11 0 00-.34.81v4.57a1.09 1.09 0 00.34.81 1.1 1.1 0 00.8.34h29.72a1.11 1.11 0 00.81-.34 1.1 1.1 0 00.34-.81v-4.52a1.12 1.12 0 00-.35-.86zM3.94 26.86a1.71 1.71 0 111.71-1.71 1.71 1.71 0 01-1.71 1.71zm5.66 0a1.71 1.71 0 111.71-1.71 1.72 1.72 0 01-1.71 1.71zm20.11-.57H18.29V24h11.42zm2-13.38a1.11 1.11 0 00-.81-.34H1.14a1.09 1.09 0 00-.8.34 1.11 1.11 0 00-.34.81v4.57a1.09 1.09 0 00.34.81 1.1 1.1 0 00.8.34h29.72a1.11 1.11 0 00.81-.34 1.1 1.1 0 00.34-.81v-4.57a1.1 1.1 0 00-.35-.81zm-27.77 4.8A1.71 1.71 0 115.66 16a1.71 1.71 0 01-1.72 1.71zm5.66 0A1.71 1.71 0 1111.31 16a1.72 1.72 0 01-1.71 1.71zm20.11-.57H18.29v-2.28h11.42zm2-13.37a1.11 1.11 0 00-.81-.34H1.14a1.09 1.09 0 00-.8.34 1.11 1.11 0 00-.34.81v4.56a1.09 1.09 0 00.34.81 1.1 1.1 0 00.8.34h29.72A1.15 1.15 0 0032 9.14V4.57a1.1 1.1 0 00-.34-.8zM3.94 8.58a1.71 1.71 0 111.72-1.72 1.71 1.71 0 01-1.72 1.72zm5.66 0a1.71 1.71 0 111.71-1.71A1.72 1.72 0 019.6 8.58zM29.71 8H18.29V5.71h11.42z"/></svg>