<svg viewBox="0 0 16 16" xmlns="http://www.w3.org/2000/svg"><path d="M5.77778 7.99999C6.75972 7.99999 7.55556 7.20416 7.55556 6.22222C7.55556 5.24027 6.75972 4.44444 5.77778 4.44444C4.79583 4.44444 4 5.24027 4 6.22222C4 7.20277 4.79722 7.99999 5.77778 7.99999ZM12.8889 7.33333H10.2222C9.85417 7.33333 9.55556 7.63194 9.55556 7.99999C9.55556 8.36805 9.85417 8.66666 10.2222 8.66666H12.8889C13.2569 8.66666 13.5556 8.36805 13.5556 7.99999C13.5556 7.63194 13.2583 7.33333 12.8889 7.33333ZM6.66667 8.88888H4.88889C3.66111 8.88888 2.66667 9.88333 2.66667 11.1111C2.66667 11.3555 2.86667 11.5555 3.11111 11.5555H8.44444C8.68989 11.5555 8.88889 11.3565 8.88889 11.1111C8.88889 9.88333 7.89444 8.88888 6.66667 8.88888ZM12.8889 5.1111H10.2222C9.85417 5.1111 9.55556 5.40972 9.55556 5.77777C9.55556 6.14583 9.85417 6.44444 10.2222 6.44444H12.8889C13.2569 6.44444 13.5556 6.14583 13.5556 5.77777C13.5556 5.40972 13.2583 5.1111 12.8889 5.1111ZM14.2222 1.77777H1.77778C0.795833 1.77777 0 2.5736 0 3.55555V12.4444C0 13.4264 0.795833 14.2222 1.77778 14.2222H14.2222C15.2042 14.2222 16 13.4264 16 12.4444V3.55555C16 2.5736 15.2028 1.77777 14.2222 1.77777ZM14.6667 12.4444C14.6667 12.6895 14.4673 12.8889 14.2222 12.8889H1.77778C1.53272 12.8889 1.33333 12.6895 1.33333 12.4444V3.55555C1.33333 3.31049 1.53272 3.1111 1.77778 3.1111H14.2222C14.4673 3.1111 14.6667 3.31049 14.6667 3.55555V12.4444Z"/></svg>