<svg viewBox="0 0 32 32" xmlns="http://www.w3.org/2000/svg"><g clip-path="url(#clip0_65666_649)"><path d="M0 16C0 24.8375 7.1625 32 16 32C24.8375 32 32 24.8375 32 16C32 7.1625 24.8375 0 16 0C7.1625 0 0 7.1625 0 16ZM9 16C9 15.1687 9.66875 14.5 10.5 14.5H14.5V10.5C14.5 9.66875 15.1687 9 16 9C16.8312 9 17.5 9.66875 17.5 10.5V14.5H21.5C22.3312 14.5 23 15.1687 23 16C23 16.8312 22.3312 17.5 21.5 17.5H17.5V21.5C17.5 22.3312 16.8312 23 16 23C15.1687 23 14.5 22.3312 14.5 21.5V17.5H10.5C9.66875 17.5 9 16.8312 9 16Z"/><path d="M14.5 17.5V21.5C14.5 22.3313 15.1687 23 16 23C16.8313 23 17.5 22.3313 17.5 21.5V17.5H21.5C22.3313 17.5 23 16.8313 23 16C23 15.1687 22.3313 14.5 21.5 14.5H17.5V10.5C17.5 9.66875 16.8313 9 16 9C15.1687 9 14.5 9.66875 14.5 10.5V14.5H10.5C9.66875 14.5 9 15.1687 9 16C9 16.8313 9.66875 17.5 10.5 17.5H14.5Z"/></g><defs><clipPath><rect/></clipPath></defs></svg>