<svg viewBox="0 0 32 32" xmlns="http://www.w3.org/2000/svg"><g clip-path="url(#clip0_65666_645)"><path d="M0 16C0 20.2435 1.68571 24.3131 4.68629 27.3137C7.68687 30.3143 11.7565 32 16 32C20.2435 32 24.3131 30.3143 27.3137 27.3137C30.3143 24.3131 32 20.2435 32 16C32 11.7565 30.3143 7.68687 27.3137 4.68629C24.3131 1.68571 20.2435 0 16 0C11.7565 0 7.68687 1.68571 4.68629 4.68629C1.68571 7.68687 0 11.7565 0 16ZM10.5063 19.8563C10.5125 19.8125 10.5187 19.7625 10.525 19.7125C10.5437 19.6187 10.5687 19.525 10.6062 19.4375C10.6812 19.2563 10.7875 19.0875 10.9375 18.9438C11.9187 17.9625 12.9 16.9813 13.875 16.0063C12.8938 15.025 11.9187 14.05 10.9375 13.0688C10.35 12.4813 10.35 11.5312 10.9375 10.95C11.2312 10.6562 11.6125 10.5125 12 10.5125C12.3875 10.5125 12.7688 10.6562 13.0625 10.95C14.0437 11.9312 15.025 12.9125 16 13.8875C16.9813 12.9062 17.9625 11.925 18.9375 10.95C19.2313 10.6562 19.6125 10.5125 20 10.5125C20.3875 10.5125 20.7687 10.6562 21.0625 10.95C21.65 11.5375 21.65 12.4875 21.0625 13.0688C20.0812 14.05 19.1063 15.025 18.125 16.0063C19.1063 16.9875 20.0875 17.9688 21.0625 18.9438C21.3563 19.2375 21.5 19.6187 21.5 20.0063C21.5 20.3938 21.3563 20.775 21.0625 21.0688C20.7687 21.3625 20.3875 21.5063 20 21.5063C19.6125 21.5063 19.2313 21.3625 18.9375 21.0688L16 18.1313C15.0188 19.1125 14.0437 20.0875 13.0625 21.0688C12.7688 21.3625 12.3875 21.5063 12 21.5063C11.6125 21.5063 11.2312 21.3625 10.9375 21.0688C10.7937 20.925 10.6812 20.75 10.6062 20.575C10.5687 20.4875 10.5437 20.3937 10.525 20.3C10.5125 20.2312 10.5 20.1562 10.5063 20.1625C10.5 20.0875 10.5 20.0875 10.5 20.0125C10.5 19.9188 10.5063 19.8937 10.5063 19.8687V19.8563Z"/><path d="M13.0625 10.9375C12.475 10.35 11.525 10.35 10.9438 10.9375C10.3625 11.525 10.3563 12.475 10.9438 13.0563L13.8813 15.9938L10.9438 18.9313C10.3563 19.5188 10.3563 20.4688 10.9438 21.05C11.5313 21.6313 12.4813 21.6375 13.0625 21.05L16 18.1125L18.9375 21.05C19.525 21.6375 20.475 21.6375 21.0563 21.05C21.6375 20.4625 21.6438 19.5125 21.0563 18.9313L18.1188 15.9938L21.0563 13.0563C21.6438 12.4688 21.6438 11.5188 21.0563 10.9375C20.4688 10.3563 19.5188 10.35 18.9375 10.9375L16 13.875L13.0625 10.9375Z"/></g><defs><clipPath><rect/></clipPath></defs></svg>