<svg viewBox="0 0 32 32" xmlns="http://www.w3.org/2000/svg"><g clip-path="url(#clip0_65666_648)"><path d="M0 16C0 20.2435 1.68571 24.3131 4.68629 27.3137C7.68687 30.3143 11.7565 32 16 32C20.2435 32 24.3131 30.3143 27.3137 27.3137C30.3143 24.3131 32 20.2435 32 16C32 11.7565 30.3143 7.68687 27.3137 4.68629C24.3131 1.68571 20.2435 0 16 0C11.7565 0 7.68687 1.68571 4.68629 4.68629C1.68571 7.68687 0 11.7565 0 16ZM8.5 16C8.5 15.6187 8.64375 15.2312 8.9375 14.9375C9.525 14.35 10.475 14.35 11.0562 14.9375L13.9937 17.875C16.3062 15.5625 18.6187 13.25 20.9312 10.9375C21.225 10.6438 21.6062 10.5 21.9937 10.5C22.3813 10.5 22.7625 10.6438 23.0562 10.9375C23.2 11.0813 23.3125 11.25 23.3875 11.4312C23.425 11.525 23.45 11.6125 23.4688 11.7063C23.4813 11.775 23.4875 11.8438 23.4875 11.8438C23.4937 11.9187 23.4937 11.9187 23.4937 12C23.4875 12.0938 23.4875 12.1188 23.4875 12.1438C23.4812 12.1875 23.475 12.2375 23.4688 12.2812C23.45 12.375 23.425 12.4688 23.3875 12.5562C23.3125 12.7375 23.2062 12.9062 23.0562 13.05C20.3875 15.7188 17.725 18.3812 15.0562 21.05C14.7625 21.3438 14.3812 21.4875 13.9937 21.4875C13.6062 21.4875 13.225 21.3438 12.9312 21.05C11.6 19.7188 10.2625 18.3812 8.93125 17.05C8.6375 16.7562 8.49375 16.375 8.49375 15.9875L8.5 16Z"/><path d="M23.0625 10.9375C23.65 11.525 23.65 12.475 23.0625 13.0563L15.0625 21.0625C14.475 21.65 13.525 21.65 12.9438 21.0625L8.9438 17.0625C8.3563 16.475 8.3563 15.525 8.9438 14.9438C9.5313 14.3625 10.4813 14.3563 11.0625 14.9438L14 17.8813L20.9375 10.9375C21.525 10.35 22.475 10.35 23.0563 10.9375H23.0625Z"/></g><defs><clipPath><rect/></clipPath></defs></svg>