<svg viewBox="0 0 96 82" xmlns="http://www.w3.org/2000/svg"><path opacity="0.4" d="M2.96021 14.8448V67.1552C2.96021 71.4871 6.49663 75.0017 10.8555 75.0017H84.5447C88.9035 75.0017 92.4399 71.4871 92.4399 67.1552V14.8448C92.4399 10.5129 88.9035 6.99828 84.5447 6.99828H10.8555C6.49663 6.99828 2.96021 10.5129 2.96021 14.8448ZM13.4872 58.0009C13.4872 51.4948 18.7836 46.231 25.3301 46.231H38.4889C45.0354 46.231 50.3318 51.4948 50.3318 58.0009C50.3318 58.7201 49.7397 59.3086 49.0159 59.3086C48.2922 59.3086 47.7001 58.7201 47.7001 58.0009H16.119C16.119 58.7201 15.5268 59.3086 14.8031 59.3086C14.0794 59.3086 13.4872 58.7201 13.4872 58.0009ZM42.4366 30.5379C42.4366 36.3084 37.7158 41 31.9095 41C26.1032 41 21.3825 36.3084 21.3825 30.5379C21.3825 24.7674 26.1032 20.0759 31.9095 20.0759C37.7158 20.0759 42.4366 24.7674 42.4366 30.5379ZM55.5953 26.6147C55.5953 25.8954 56.1875 25.3069 56.9112 25.3069H80.597C81.3208 25.3069 81.9129 25.8954 81.9129 26.6147C81.9129 27.3339 81.3208 27.9224 80.597 27.9224H56.9112C56.1875 27.9224 55.5953 27.3339 55.5953 26.6147ZM55.5953 39.6922C55.5953 38.973 56.1875 38.3845 56.9112 38.3845H80.597C81.3208 38.3845 81.9129 38.973 81.9129 39.6922C81.9129 40.4115 81.3208 41 80.597 41H56.9112C56.1875 41 55.5953 40.4115 55.5953 39.6922Z"/><path d="M84.5446 6.99827C88.9034 6.99827 92.4399 10.5129 92.4399 14.8448V67.1552C92.4399 71.4871 88.9034 75.0017 84.5446 75.0017H10.8554C6.49655 75.0017 2.96013 71.4871 2.96013 67.1552V14.8448C2.96013 10.5129 6.49655 6.99827 10.8554 6.99827H84.5446ZM10.8554 4.38275C5.04908 4.38275 0.328369 9.07434 0.328369 14.8448V67.1552C0.328369 72.9256 5.04908 77.6172 10.8554 77.6172H84.5446C90.3509 77.6172 95.0716 72.9256 95.0716 67.1552V14.8448C95.0716 9.07434 90.3509 4.38275 84.5446 4.38275H10.8554ZM24.0142 30.5379C24.0142 26.206 27.5506 22.6914 31.9095 22.6914C36.2683 22.6914 39.8047 26.206 39.8047 30.5379C39.8047 34.8699 36.2683 38.3845 31.9095 38.3845C27.5506 38.3845 24.0142 34.8699 24.0142 30.5379ZM42.4365 30.5379C42.4365 24.7674 37.7158 20.0759 31.9095 20.0759C26.1031 20.0759 21.3824 24.7674 21.3824 30.5379C21.3824 36.3084 26.1031 41 31.9095 41C37.7158 41 42.4365 36.3084 42.4365 30.5379ZM16.1189 58.0009C16.1189 52.9496 20.2475 48.8465 25.3301 48.8465H38.4888C43.5714 48.8465 47.7 52.9496 47.7 58.0009C47.7 58.7201 48.2921 59.3086 49.0159 59.3086C49.7396 59.3086 50.3317 58.7201 50.3317 58.0009C50.3317 51.4948 45.0353 46.231 38.4888 46.231H25.3301C18.7836 46.231 13.4872 51.4948 13.4872 58.0009C13.4872 58.7201 14.0793 59.3086 14.803 59.3086C15.5268 59.3086 16.1189 58.7201 16.1189 58.0009ZM56.9111 25.3069C56.1874 25.3069 55.5953 25.8954 55.5953 26.6146C55.5953 27.3339 56.1874 27.9224 56.9111 27.9224H80.597C81.3207 27.9224 81.9128 27.3339 81.9128 26.6146C81.9128 25.8954 81.3207 25.3069 80.597 25.3069H56.9111ZM56.9111 38.3845C56.1874 38.3845 55.5953 38.973 55.5953 39.6922C55.5953 40.4115 56.1874 41 56.9111 41H80.597C81.3207 41 81.9128 40.4115 81.9128 39.6922C81.9128 38.973 81.3207 38.3845 80.597 38.3845H56.9111Z"/></svg>