<svg viewBox="0 0 82 82" xmlns="http://www.w3.org/2000/svg"><path opacity="0.4" d="M7.6875 12.8125V28.1875C7.6875 31.0223 9.97773 33.3125 12.8125 33.3125H28.1875C31.0223 33.3125 33.3125 31.0223 33.3125 28.1875V12.8125C33.3125 9.97773 31.0223 7.6875 28.1875 7.6875H12.8125C9.97773 7.6875 7.6875 9.97773 7.6875 12.8125ZM7.6875 53.8125V69.1875C7.6875 72.0223 9.97773 74.3125 12.8125 74.3125H28.1875C31.0223 74.3125 33.3125 72.0223 33.3125 69.1875V53.8125C33.3125 50.9777 31.0223 48.6875 28.1875 48.6875H12.8125C9.97773 48.6875 7.6875 50.9777 7.6875 53.8125ZM48.6875 12.8125V28.1875C48.6875 31.0223 50.9777 33.3125 53.8125 33.3125H69.1875C72.0223 33.3125 74.3125 31.0223 74.3125 28.1875V12.8125C74.3125 9.97773 72.0223 7.6875 69.1875 7.6875H53.8125C50.9777 7.6875 48.6875 9.97773 48.6875 12.8125Z"/><path d="M28.1875 7.6875H12.8125C9.97773 7.6875 7.6875 9.97773 7.6875 12.8125V28.1875C7.6875 31.0223 9.97773 33.3125 12.8125 33.3125H28.1875C31.0223 33.3125 33.3125 31.0223 33.3125 28.1875V12.8125C33.3125 9.97773 31.0223 7.6875 28.1875 7.6875ZM12.8125 5.125H28.1875C32.4316 5.125 35.875 8.56836 35.875 12.8125V28.1875C35.875 32.4316 32.4316 35.875 28.1875 35.875H12.8125C8.56836 35.875 5.125 32.4316 5.125 28.1875V12.8125C5.125 8.56836 8.56836 5.125 12.8125 5.125ZM28.1875 48.6875H12.8125C9.97773 48.6875 7.6875 50.9777 7.6875 53.8125V69.1875C7.6875 72.0223 9.97773 74.3125 12.8125 74.3125H28.1875C31.0223 74.3125 33.3125 72.0223 33.3125 69.1875V53.8125C33.3125 50.9777 31.0223 48.6875 28.1875 48.6875ZM12.8125 46.125H28.1875C32.4316 46.125 35.875 49.5684 35.875 53.8125V69.1875C35.875 73.4316 32.4316 76.875 28.1875 76.875H12.8125C8.56836 76.875 5.125 73.4316 5.125 69.1875V53.8125C5.125 49.5684 8.56836 46.125 12.8125 46.125ZM53.8125 7.6875C50.9777 7.6875 48.6875 9.97773 48.6875 12.8125V28.1875C48.6875 31.0223 50.9777 33.3125 53.8125 33.3125H69.1875C72.0223 33.3125 74.3125 31.0223 74.3125 28.1875V12.8125C74.3125 9.97773 72.0223 7.6875 69.1875 7.6875H53.8125ZM46.125 12.8125C46.125 8.56836 49.5684 5.125 53.8125 5.125H69.1875C73.4316 5.125 76.875 8.56836 76.875 12.8125V28.1875C76.875 32.4316 73.4316 35.875 69.1875 35.875H53.8125C49.5684 35.875 46.125 32.4316 46.125 28.1875V12.8125ZM61.5 43.5625C62.2047 43.5625 62.7812 44.1391 62.7812 44.8438V60.2188H78.1562C78.8609 60.2188 79.4375 60.7953 79.4375 61.5C79.4375 62.2047 78.8609 62.7812 78.1562 62.7812H62.7812V78.1562C62.7812 78.8609 62.2047 79.4375 61.5 79.4375C60.7953 79.4375 60.2188 78.8609 60.2188 78.1562V62.7812H44.8438C44.1391 62.7812 43.5625 62.2047 43.5625 61.5C43.5625 60.7953 44.1391 60.2188 44.8438 60.2188H60.2188V44.8438C60.2188 44.1391 60.7953 43.5625 61.5 43.5625Z"/><path d="M61.4087 43.4161C62.1134 43.4161 62.6899 43.9927 62.6899 44.6974V60.0724H78.0649C78.7696 60.0724 79.3462 60.6489 79.3462 61.3536C79.3462 62.0583 78.7696 62.6349 78.0649 62.6349H62.6899V78.0099C62.6899 78.7145 62.1134 79.2911 61.4087 79.2911C60.704 79.2911 60.1274 78.7145 60.1274 78.0099V62.6349H44.7524C44.0478 62.6349 43.4712 62.0583 43.4712 61.3536C43.4712 60.6489 44.0478 60.0724 44.7524 60.0724H60.1274V44.6974C60.1274 43.9927 60.704 43.4161 61.4087 43.4161Z"/></svg>