<svg viewBox="0 0 90 83" xmlns="http://www.w3.org/2000/svg"><path opacity="0.4" d="M16.7344 77.9786H77.3438C82.7754 77.9786 87.1875 73.5525 87.1875 68.1036V11.675C87.1875 7.7779 84.041 4.62143 80.1563 4.62143H26.7188C22.834 4.62143 19.6875 7.7779 19.6875 11.675V70.925C19.6875 73.6935 18.5625 76.1799 16.7344 77.9786ZM30.9375 22.9607C30.9375 20.6154 32.8184 18.7286 35.1563 18.7286H49.2188C51.5566 18.7286 53.4375 20.6154 53.4375 22.9607V37.0679C53.4375 39.4132 51.5566 41.3 49.2188 41.3H35.1563C32.8184 41.3 30.9375 39.4132 30.9375 37.0679V22.9607ZM30.9375 51.175C30.9375 50.3991 31.5703 49.7643 32.3438 49.7643H74.5313C75.3047 49.7643 75.9375 50.3991 75.9375 51.175C75.9375 51.9509 75.3047 52.5857 74.5313 52.5857H32.3438C31.5703 52.5857 30.9375 51.9509 30.9375 51.175ZM30.9375 62.4607C30.9375 61.6848 31.5703 61.05 32.3438 61.05H74.5313C75.3047 61.05 75.9375 61.6848 75.9375 62.4607C75.9375 63.2366 75.3047 63.8714 74.5313 63.8714H32.3438C31.5703 63.8714 30.9375 63.2366 30.9375 62.4607ZM61.875 28.6036C61.875 27.8277 62.5078 27.1929 63.2813 27.1929H74.5313C75.3047 27.1929 75.9375 27.8277 75.9375 28.6036C75.9375 29.3795 75.3047 30.0143 74.5313 30.0143H63.2813C62.5078 30.0143 61.875 29.3795 61.875 28.6036ZM61.875 39.8893C61.875 39.1134 62.5078 38.4786 63.2813 38.4786H74.5313C75.3047 38.4786 75.9375 39.1134 75.9375 39.8893C75.9375 40.6652 75.3047 41.3 74.5313 41.3H63.2813C62.5078 41.3 61.875 40.6652 61.875 39.8893Z"/><path d="M26.7188 4.62142C22.834 4.62142 19.6875 7.77789 19.6875 11.675V70.925C19.6875 73.6935 18.5625 76.1799 16.7344 77.9786H77.3438C82.7754 77.9786 87.1875 73.5524 87.1875 68.1036V11.675C87.1875 7.77789 84.041 4.62142 80.1562 4.62142H26.7188ZM9.84375 77.9786C13.7285 77.9786 16.875 74.8221 16.875 70.925V11.675C16.875 6.2261 21.2871 1.79999 26.7188 1.79999H80.1562C85.5879 1.79999 90 6.2261 90 11.675V68.1036C90 75.1219 84.3398 80.8 77.3438 80.8H9.84375C4.41211 80.8 0 76.3739 0 70.925V20.1393C0 19.3634 0.632812 18.7286 1.40625 18.7286C2.17969 18.7286 2.8125 19.3634 2.8125 20.1393V70.925C2.8125 74.8221 5.95898 77.9786 9.84375 77.9786ZM61.875 28.6036C61.875 27.8277 62.5078 27.1928 63.2812 27.1928H74.5312C75.3047 27.1928 75.9375 27.8277 75.9375 28.6036C75.9375 29.3795 75.3047 30.0143 74.5312 30.0143H63.2812C62.5078 30.0143 61.875 29.3795 61.875 28.6036ZM61.875 39.8893C61.875 39.1134 62.5078 38.4786 63.2812 38.4786H74.5312C75.3047 38.4786 75.9375 39.1134 75.9375 39.8893C75.9375 40.6652 75.3047 41.3 74.5312 41.3H63.2812C62.5078 41.3 61.875 40.6652 61.875 39.8893ZM30.9375 51.175C30.9375 50.3991 31.5703 49.7643 32.3438 49.7643H74.5312C75.3047 49.7643 75.9375 50.3991 75.9375 51.175C75.9375 51.9509 75.3047 52.5857 74.5312 52.5857H32.3438C31.5703 52.5857 30.9375 51.9509 30.9375 51.175ZM30.9375 62.4607C30.9375 61.6848 31.5703 61.05 32.3438 61.05H74.5312C75.3047 61.05 75.9375 61.6848 75.9375 62.4607C75.9375 63.2366 75.3047 63.8714 74.5312 63.8714H32.3438C31.5703 63.8714 30.9375 63.2366 30.9375 62.4607ZM35.1562 21.55C34.3828 21.55 33.75 22.1848 33.75 22.9607V37.0678C33.75 37.8437 34.3828 38.4786 35.1562 38.4786H49.2188C49.9922 38.4786 50.625 37.8437 50.625 37.0678V22.9607C50.625 22.1848 49.9922 21.55 49.2188 21.55H35.1562ZM30.9375 22.9607C30.9375 20.6154 32.8184 18.7286 35.1562 18.7286H49.2188C51.5566 18.7286 53.4375 20.6154 53.4375 22.9607V37.0678C53.4375 39.4132 51.5566 41.3 49.2188 41.3H35.1562C32.8184 41.3 30.9375 39.4132 30.9375 37.0678V22.9607Z"/></svg>