<svg viewBox="0 0 78 82" xmlns="http://www.w3.org/2000/svg"><path opacity="0.4" d="M3.71997 32.8V46.3565H25.4924V32.8H3.71997ZM3.71997 49.0677V62.6242H25.4924V49.0677H3.71997ZM3.71997 65.3355V70.7581C3.71997 75.2486 7.37706 78.8919 11.8846 78.8919H25.4924V65.3355H3.71997ZM28.2139 32.8V46.3565H49.9863V32.8H28.2139ZM28.2139 49.0677V62.6242H49.9863V49.0677H28.2139ZM28.2139 65.3355V78.8919H49.9863V65.3355H28.2139ZM52.7079 32.8V46.3565H74.4803V32.8H52.7079ZM52.7079 49.0677V62.6242H74.4803V49.0677H52.7079ZM52.7079 65.3355V78.8919H66.3157C70.8232 78.8919 74.4803 75.2486 74.4803 70.7581V65.3355H52.7079Z"/><path d="M22.7707 1.62016C22.7707 0.874551 22.1584 0.264511 21.4099 0.264511C20.6615 0.264511 20.0492 0.874551 20.0492 1.62016V11.1097H11.8845C5.88007 11.1097 0.998291 15.9731 0.998291 21.9548V70.7581C0.998291 76.7399 5.88007 81.6032 11.8845 81.6032H66.3155C72.32 81.6032 77.2017 76.7399 77.2017 70.7581V21.9548C77.2017 15.9731 72.32 11.1097 66.3155 11.1097H58.1509V1.62016C58.1509 0.874551 57.5385 0.264511 56.7901 0.264511C56.0417 0.264511 55.4293 0.874551 55.4293 1.62016V11.1097H22.7707V1.62016ZM20.0492 13.821V17.8879C20.0492 18.6335 20.6615 19.2435 21.4099 19.2435C22.1584 19.2435 22.7707 18.6335 22.7707 17.8879V13.821H55.4293V17.8879C55.4293 18.6335 56.0417 19.2435 56.7901 19.2435C57.5385 19.2435 58.1509 18.6335 58.1509 17.8879V13.821H66.3155C70.8231 13.821 74.4802 17.4643 74.4802 21.9548V30.0887H3.71984V21.9548C3.71984 17.4643 7.37693 13.821 11.8845 13.821H20.0492ZM52.7078 32.8H74.4802V46.3565H52.7078V32.8ZM49.9862 32.8V46.3565H28.2138V32.8H49.9862ZM25.4923 32.8V46.3565H3.71984V32.8H25.4923ZM3.71984 49.0677H25.4923V62.6242H3.71984V49.0677ZM3.71984 65.3355H25.4923V78.8919H11.8845C7.37693 78.8919 3.71984 75.2486 3.71984 70.7581V65.3355ZM28.2138 78.8919V65.3355H49.9862V78.8919H28.2138ZM52.7078 78.8919V65.3355H74.4802V70.7581C74.4802 75.2486 70.8231 78.8919 66.3155 78.8919H52.7078ZM74.4802 62.6242H52.7078V49.0677H74.4802V62.6242ZM49.9862 62.6242H28.2138V49.0677H49.9862V62.6242Z"/></svg>