<svg viewBox="0 0 104 83" xmlns="http://www.w3.org/2000/svg"><path opacity="0.4" d="M3.17505 54.6125C3.17505 65.9355 12.3968 75.1125 23.775 75.1125H83.0001C92.9621 75.1125 101.025 67.0887 101.025 57.175C101.025 48.4945 94.829 41.2555 86.6051 39.5898C85.8647 39.4457 85.221 38.9652 84.8508 38.3086C84.4807 37.6519 84.4324 36.8512 84.706 36.1625C85.2532 34.7371 85.559 33.1836 85.559 31.55C85.559 24.4711 79.7974 18.7375 72.684 18.7375C70.0285 18.7375 67.5822 19.5383 65.5383 20.8996C64.9429 21.3 64.2186 21.4281 63.5266 21.268C62.8346 21.1078 62.2391 20.6594 61.885 20.0508C57.8777 13.132 50.378 8.48749 41.8 8.48749C29.0055 8.48749 18.625 18.8176 18.625 31.55C18.625 31.9504 18.6411 32.3348 18.6572 32.7191C18.7216 33.8562 18.0135 34.8812 16.9352 35.2656C8.92052 38.0683 3.17505 45.6758 3.17505 54.6125Z"/><path d="M84.7221 36.1625C85.2693 34.7371 85.5751 33.1836 85.5751 31.55C85.5751 24.4711 79.8135 18.7375 72.7001 18.7375C70.0446 18.7375 67.5984 19.5383 65.5545 20.8996C64.959 21.3 64.2348 21.4281 63.5428 21.268C62.8507 21.1078 62.2553 20.6594 61.9012 20.0508C57.8778 13.132 50.3781 8.48749 41.8001 8.48749C29.0056 8.48749 18.6251 18.8176 18.6251 31.55C18.6251 31.9504 18.6412 32.3348 18.6573 32.7191C18.7217 33.8562 18.0135 34.8812 16.9353 35.2656C8.92057 38.0683 3.1751 45.6758 3.1751 54.6125C3.1751 65.9355 12.3968 75.1125 23.7751 75.1125H83.0001C92.9621 75.1125 101.025 67.0887 101.025 57.175C101.025 48.4945 94.829 41.2555 86.6051 39.5898C85.8648 39.4457 85.221 38.9652 84.8509 38.3086C84.4807 37.6519 84.4324 36.8512 84.706 36.1625H84.7221ZM41.8001 5.92499C50.4263 5.92499 58.0548 10.1371 62.722 16.6074C63.2209 17.2961 63.6876 18.0168 64.1221 18.7535C64.6854 18.3691 65.2809 18.0328 65.8924 17.7285C67.9524 16.7355 70.2538 16.175 72.7001 16.175C81.2298 16.175 88.1501 23.0617 88.1501 31.55C88.1501 32.607 88.0374 33.632 87.8443 34.625C87.6673 35.4738 87.4259 36.3066 87.1201 37.0914C87.9731 37.2676 88.8099 37.4918 89.6146 37.7641C97.742 40.5027 103.6 48.1582 103.6 57.175C103.6 68.498 94.3784 77.675 83.0001 77.675H23.7751C10.9806 77.675 0.600098 67.3449 0.600098 54.6125C0.600098 44.5547 7.06978 36.0023 16.0823 32.8473C16.0662 32.4148 16.0501 31.9824 16.0501 31.55C16.0501 17.3922 27.5732 5.92499 41.8001 5.92499Z"/></svg>