<svg viewBox="0 0 81 82" xmlns="http://www.w3.org/2000/svg"><path opacity="0.4" d="M78.75 24.7665C78.75 29.45 77.175 33.796 74.475 37.4106C74.025 38.0153 73.8984 38.817 74.1656 39.5343L78.5391 51.5455L63.5203 46.0884C63.0562 45.9197 62.55 45.9056 62.0719 46.0603C59.5547 46.8479 56.8406 47.2839 54.0141 47.2839C40.1625 47.2839 29.2641 37.0308 29.2641 24.7806C29.2641 12.5303 40.1484 2.26315 54 2.26315C67.8516 2.26315 78.75 12.5162 78.75 24.7665ZM51.2719 56.1727C49.0359 66.3836 39.1641 74.2739 27 74.2739C24.1734 74.2739 21.4594 73.8379 18.9422 73.0502C18.4641 72.9096 17.9578 72.9096 17.5078 73.0784L2.48907 78.5354L6.8625 66.5243C7.11562 65.807 7.00312 65.0194 6.55312 64.4005C3.83906 60.7859 2.27813 56.4259 2.27813 51.7565C2.27813 41.433 10.0125 32.5302 20.7281 29.9845C23.2734 44.4007 36.1828 55.0054 51.3 56.1587L51.2719 56.1727Z"/><path d="M74.1516 39.5345C73.8984 38.8172 74.0109 38.0296 74.4609 37.4107C77.175 33.7961 78.7359 29.4361 78.7359 24.7667C78.7359 12.5164 67.8375 2.2633 53.9859 2.2633C40.1344 2.2633 29.2359 12.5164 29.2359 24.7667C29.2359 37.0169 40.1344 47.27 53.9859 47.27C56.8125 47.27 59.5266 46.834 62.0437 46.0464C62.5078 45.9057 63.0281 45.9057 63.4922 46.0745L78.525 51.5456L74.1516 39.5345ZM81 24.7667C81 29.9565 79.2563 34.7806 76.275 38.7609L80.8875 51.4472C80.9578 51.6582 81 51.8832 81 52.0942C81 53.149 80.1422 54.0069 79.0875 54.0069C78.8625 54.0069 78.6375 53.9647 78.4406 53.8944L62.7469 48.1842C60.0047 49.0421 57.0656 49.5063 54.0141 49.5063C39.1078 49.5063 27.0141 38.4234 27.0141 24.7526C27.0141 11.0818 39.0938 0.01297 54 0.01297C68.9062 0.01297 81 11.0959 81 24.7667ZM27 76.5244C23.9484 76.5244 21.0094 76.0602 18.2672 75.2023L2.57343 80.9125C2.3625 80.9828 2.1375 81.025 1.92657 81.025C0.87188 81.025 0.014061 80.1671 0.014061 79.1122C0.014061 78.8872 0.0562515 78.6622 0.126564 78.4653L4.73907 65.779C1.75781 61.7987 0.014061 56.9746 0.014061 51.7847C0.014061 40.1955 8.69063 30.4769 20.4047 27.7765C20.475 28.536 20.5875 29.2814 20.7141 30.0127C9.99844 32.5584 2.26406 41.4613 2.26406 51.7847C2.26406 56.4682 3.83907 60.8142 6.53906 64.4288C6.98906 65.0336 7.11562 65.8353 6.84844 66.5526L2.475 78.5637L17.4937 73.1067C17.9578 72.9379 18.4641 72.9238 18.9281 73.0785C21.4453 73.8661 24.1594 74.3021 26.9859 74.3021C39.15 74.3021 49.0219 66.4119 51.2578 56.201C52.0172 56.2573 52.7766 56.2854 53.5359 56.2995C51.2297 67.8184 40.2188 76.5525 26.9859 76.5525L27 76.5244Z"/></svg>