<svg viewBox="0 0 83 82" xmlns="http://www.w3.org/2000/svg"><path opacity="0.4" d="M2.7627 38.4375C2.7627 46.7176 5.77363 54.357 10.8506 60.443C11.5072 61.2277 11.6354 62.3168 11.1709 63.2297L3.25918 79.0371L23.2467 71.0453C23.8713 70.7891 24.576 70.8051 25.2006 71.0613C30.0693 73.1434 35.4826 74.2965 41.2002 74.2965C62.5811 74.2965 79.6377 58.0887 79.6377 38.4215C79.6377 18.7543 62.5811 2.5625 41.2002 2.5625C19.8193 2.5625 2.7627 18.7703 2.7627 38.4375Z"/><path d="M10.8506 60.443C11.5072 61.2277 11.6354 62.3168 11.1709 63.2297L3.25918 79.0371L23.2467 71.0453C23.8713 70.7891 24.576 70.8051 25.2006 71.0613C30.0693 73.1434 35.4826 74.2965 41.2002 74.2965C62.5811 74.2965 79.6377 58.0887 79.6377 38.4215C79.6377 18.7543 62.5811 2.5625 41.2002 2.5625C19.8193 2.5625 2.7627 18.7703 2.7627 38.4375C2.7627 46.7176 5.77363 54.357 10.8506 60.443ZM8.88066 62.0926C3.43535 55.5582 0.200195 47.3582 0.200195 38.4375C0.200195 17.2168 18.5541 0 41.2002 0C63.8463 0 82.2002 17.2168 82.2002 38.4375C82.2002 59.6582 63.8463 76.875 41.2002 76.875C35.1303 76.875 29.3807 75.6418 24.1916 73.4316L3.14707 81.8398C1.41738 82.5445 -0.440429 80.7188 0.424414 79.0051L8.88066 62.0926Z"/></svg>