<svg viewBox="0 0 83 82" xmlns="http://www.w3.org/2000/svg"><path opacity="0.4" d="M3.16272 38.4375C3.16272 46.7176 6.17366 54.357 11.2506 60.443C11.9073 61.2277 12.0354 62.3168 11.5709 63.2297L3.6592 79.0371L23.6467 71.0453C24.2713 70.7891 24.976 70.8051 25.6006 71.0613C30.4694 73.1434 35.8826 74.2965 41.6002 74.2965C62.9811 74.2965 80.0377 58.0887 80.0377 38.4215C80.0377 18.7543 62.9811 2.5625 41.6002 2.5625C20.2194 2.5625 3.16272 18.7703 3.16272 38.4375ZM31.7987 32.8641C31.7987 27.4508 36.1869 23.0625 41.6002 23.0625C47.0135 23.0625 51.4018 27.4508 51.4018 32.8641C51.4018 37.877 48.0385 40.4074 45.4119 41.5766C43.8905 42.2492 42.8655 43.5465 42.8655 44.8438C42.8655 45.5484 42.2889 46.125 41.5842 46.125C40.8795 46.125 40.303 45.5484 40.303 44.8438C40.303 42.1852 42.2729 40.1672 44.3549 39.2383C46.533 38.2613 48.8233 36.4355 48.8233 32.8641C48.8233 28.8602 45.5881 25.625 41.5842 25.625C37.5803 25.625 34.3451 28.8602 34.3451 32.8641C34.3451 33.5688 33.7686 34.1453 33.0639 34.1453C32.3592 34.1453 31.7826 33.5688 31.7826 32.8641H31.7987ZM44.1627 53.8125C44.1627 55.2219 43.0096 56.375 41.6002 56.375C40.1908 56.375 39.0377 55.2219 39.0377 53.8125C39.0377 52.4031 40.1908 51.25 41.6002 51.25C43.0096 51.25 44.1627 52.4031 44.1627 53.8125Z"/><path d="M11.2506 60.443C11.9073 61.2277 12.0354 62.3168 11.5709 63.2297L3.6592 79.0371L23.6467 71.0453C24.2713 70.7891 24.976 70.8051 25.6006 71.0613C30.4694 73.1434 35.8826 74.2965 41.6002 74.2965C62.9811 74.2965 80.0377 58.0887 80.0377 38.4215C80.0377 18.7543 62.9811 2.5625 41.6002 2.5625C20.2194 2.5625 3.16272 18.7703 3.16272 38.4375C3.16272 46.7176 6.17366 54.357 11.2506 60.443ZM9.28069 62.0926C3.83538 55.5582 0.60022 47.3582 0.60022 38.4375C0.60022 17.2168 18.9541 0 41.6002 0C64.2463 0 82.6002 17.2168 82.6002 38.4375C82.6002 59.6582 64.2463 76.875 41.6002 76.875C35.5303 76.875 29.7807 75.6418 24.5916 73.4316L3.5471 81.8398C1.81741 82.5445 -0.040405 80.7188 0.824439 79.0051L9.28069 62.0926ZM34.3612 32.8641C34.3612 28.8602 37.5963 25.625 41.6002 25.625C45.6041 25.625 48.8393 28.8602 48.8393 32.8641C48.8393 36.4355 46.549 38.2613 44.3709 39.2383C42.2889 40.1672 40.319 42.1852 40.319 44.8438C40.319 45.5484 40.8955 46.125 41.6002 46.125C42.3049 46.125 42.8815 45.5484 42.8815 44.8438C42.8815 43.5465 43.9065 42.2652 45.428 41.5766C48.0545 40.4074 51.4178 37.877 51.4178 32.8641C51.4178 27.4508 47.0295 23.0625 41.6162 23.0625C36.203 23.0625 31.8147 27.4508 31.8147 32.8641C31.8147 33.5688 32.3912 34.1453 33.0959 34.1453C33.8006 34.1453 34.3772 33.5688 34.3772 32.8641H34.3612ZM41.6002 56.375C43.0096 56.375 44.1627 55.2219 44.1627 53.8125C44.1627 52.4031 43.0096 51.25 41.6002 51.25C40.1908 51.25 39.0377 52.4031 39.0377 53.8125C39.0377 55.2219 40.1908 56.375 41.6002 56.375Z"/></svg>