<svg viewBox="0 0 69 83" xmlns="http://www.w3.org/2000/svg"><path opacity="0.4" d="M8.08569 22.5059H61.5143V39.3882C61.5143 54.0397 49.5536 65.9176 34.8 65.9176C20.0464 65.9176 8.08569 54.0397 8.08569 39.3882V22.5059Z"/><path d="M19.0143 0.799988C19.6822 0.799988 20.2286 1.34263 20.2286 2.00587V20.0941H49.3715V2.00587C49.3715 1.34263 49.9179 0.799988 50.5858 0.799988C51.2536 0.799988 51.8 1.34263 51.8 2.00587V20.0941H67.5858C68.2536 20.0941 68.8 20.6368 68.8 21.3C68.8 21.9632 68.2536 22.5059 67.5858 22.5059H63.9429V39.3882C63.9429 54.9743 51.542 67.6662 36.0143 68.2992V81.5941C36.0143 82.2573 35.4679 82.8 34.8 82.8C34.1322 82.8 33.5858 82.2573 33.5858 81.5941V68.2992C18.0581 67.6662 5.65719 54.9743 5.65719 39.3882V22.5059H2.01433C1.34648 22.5059 0.800049 21.9632 0.800049 21.3C0.800049 20.6368 1.34648 20.0941 2.01433 20.0941H17.8V2.00587C17.8 1.34263 18.3465 0.799988 19.0143 0.799988ZM8.08576 22.5059V39.3882C8.08576 54.0397 20.0465 65.9176 34.8 65.9176C49.5536 65.9176 61.5143 54.0397 61.5143 39.3882V22.5059H8.08576Z"/></svg>