<svg viewBox="0 0 94 82" xmlns="http://www.w3.org/2000/svg"><path opacity="0.4" d="M7.40015 43.8182V70.6364C7.40015 73.6031 9.75369 76 12.6668 76H17.9335C20.8466 76 23.2001 73.6031 23.2001 70.6364V43.8182C23.2001 40.8514 20.8466 38.4545 17.9335 38.4545H12.6668C9.75369 38.4545 7.40015 40.8514 7.40015 43.8182ZM70.6001 22.3636V70.6364C70.6001 73.6031 72.9537 76 75.8668 76H81.1335C84.0466 76 86.4001 73.6031 86.4001 70.6364V22.3636C86.4001 19.3969 84.0466 17 81.1335 17H75.8668C72.9537 17 70.6001 19.3969 70.6001 22.3636Z"/><path d="M49.5403 6.67802C52.461 6.67802 54.8206 9.03766 54.8206 11.9583V70.0417C54.8206 72.9623 52.461 75.322 49.5403 75.322H44.26C41.3393 75.322 38.9797 72.9623 38.9797 70.0417V11.9583C38.9797 9.03766 41.3393 6.67802 44.26 6.67802H49.5403ZM44.26 4.03787C39.8872 4.03787 36.3395 7.58558 36.3395 11.9583V70.0417C36.3395 74.4144 39.8872 77.9621 44.26 77.9621H49.5403C53.913 77.9621 57.4607 74.4144 57.4607 70.0417V11.9583C57.4607 7.58558 53.913 4.03787 49.5403 4.03787H44.26ZM17.8585 38.3598C20.7791 38.3598 23.1388 40.7195 23.1388 43.6401V70.0417C23.1388 72.9623 20.7791 75.322 17.8585 75.322H12.5782C9.6575 75.322 7.29787 72.9623 7.29787 70.0417V43.6401C7.29787 40.7195 9.6575 38.3598 12.5782 38.3598H17.8585ZM12.5782 35.7197C8.20542 35.7197 4.65771 39.2674 4.65771 43.6401V70.0417C4.65771 74.4144 8.20542 77.9621 12.5782 77.9621H17.8585C22.2312 77.9621 25.7789 74.4144 25.7789 70.0417V43.6401C25.7789 39.2674 22.2312 35.7197 17.8585 35.7197H12.5782ZM75.9418 17.2386H81.2221C84.1428 17.2386 86.5024 19.5983 86.5024 22.5189V70.0417C86.5024 72.9623 84.1428 75.322 81.2221 75.322H75.9418C73.0211 75.322 70.6615 72.9623 70.6615 70.0417V22.5189C70.6615 19.5983 73.0211 17.2386 75.9418 17.2386ZM68.0214 22.5189V70.0417C68.0214 74.4144 71.5691 77.9621 75.9418 77.9621H81.2221C85.5949 77.9621 89.1426 74.4144 89.1426 70.0417V22.5189C89.1426 18.1462 85.5949 14.5985 81.2221 14.5985H75.9418C71.5691 14.5985 68.0214 18.1462 68.0214 22.5189Z"/></svg>