<svg viewBox="0 0 83 83" xmlns="http://www.w3.org/2000/svg"><path opacity="0.4" d="M3.01074 78.4682C2.88261 78.9158 3.01074 79.3953 3.34707 79.715C3.6834 80.0347 4.14785 80.1626 4.59629 80.0507L25.0643 74.3762C26.9861 73.8487 28.7318 72.8257 30.1252 71.4191L65.1033 36.4932L46.6373 18.0631L11.6432 52.9731C10.2338 54.3797 9.2248 56.122 8.68027 58.0242L3.01074 78.4682Z"/><path d="M58.729 5.99492C60.4267 4.30057 62.7169 3.35749 65.1032 3.35749C67.4895 3.35749 69.7798 4.30057 71.4774 5.99492L77.195 11.7014C78.8927 13.3957 79.8376 15.6815 79.8376 18.0631C79.8376 20.4448 78.8927 22.7306 77.195 24.4249L66.913 34.6869L48.447 16.2569L58.729 5.99492ZM46.6372 18.0631L65.1032 36.4932L30.1251 71.4191C28.7157 72.8257 26.97 73.8327 25.0642 74.3762L4.58017 80.0347C4.13173 80.1626 3.65127 80.0347 3.33095 79.699C3.01064 79.3633 2.88252 78.8998 2.99463 78.4522L8.69619 58.0401C9.2247 56.122 10.2497 54.3797 11.6591 52.9891L46.6372 18.0631ZM65.1032 0.799988C62.0282 0.799988 59.0813 2.0148 56.9192 4.18868L9.8333 51.1828C8.11963 52.8932 6.87041 55.0351 6.21377 57.3688L0.544235 77.7809C0.175876 79.1076 0.544235 80.5462 1.5372 81.5212C2.53017 82.4963 3.95556 82.8799 5.28486 82.5123L25.7528 76.8378C28.0911 76.1824 30.2212 74.9516 31.9509 73.2253L79.0368 26.2312C81.1829 24.0733 82.4001 21.1322 82.4001 18.0631C82.4001 14.9941 81.1829 12.053 79.0048 9.89511L73.2872 4.18868C71.1251 2.0148 68.1782 0.799988 65.1032 0.799988Z"/></svg>