<svg viewBox="0 0 94 82" xmlns="http://www.w3.org/2000/svg"><path opacity="0.4" d="M28.8667 42.7196C29.7449 51.8482 37.5349 59 46.9999 59C57.0667 59 65.2145 50.9482 65.2145 41C65.2145 31.6464 57.9774 23.9482 48.7401 23.0804C49.293 24.6714 49.602 26.375 49.602 28.1429C49.602 36.6607 42.6089 43.5714 33.9895 43.5714C32.2006 43.5714 30.4767 43.2661 28.8667 42.7196Z"/><path d="M47 7.57143C34.7052 7.57143 24.7847 13.1 17.4501 19.8339C10.1481 26.5357 5.2529 34.5714 2.95982 40.0196C2.69961 40.6464 2.69961 41.3696 2.95982 41.9964C5.2529 47.4446 10.1318 55.4643 17.4501 62.1821C24.7847 68.9161 34.7052 74.4446 47 74.4446C59.2948 74.4446 69.2152 68.9161 76.5498 62.1821C83.8519 55.4804 88.747 47.4446 91.0401 41.9964C91.3003 41.3696 91.3003 40.6464 91.0401 40.0196C88.747 34.5714 83.8681 26.5518 76.5498 19.8339C69.2152 13.1 59.2948 7.57143 47 7.57143ZM15.6775 17.9536C23.3373 10.9143 33.8595 5 47 5C60.1404 5 70.6626 10.9143 78.3224 17.9536C85.9335 24.9446 91.0238 33.2857 93.447 39.0232C93.9837 40.2929 93.9837 41.7071 93.447 42.9768C91.0238 48.7143 85.9335 57.0714 78.3224 64.0464C70.6626 71.0696 60.1404 77 47 77C33.8595 77 23.3373 71.0857 15.6775 64.0464C8.06639 57.0554 2.97608 48.7143 0.552899 42.9768C0.0162211 41.7071 0.0162211 40.2929 0.552899 39.0232C2.97608 33.2857 8.06639 24.9286 15.6775 17.9536ZM47 59C57.0667 59 65.2145 50.9482 65.2145 41C65.2145 31.6464 57.9775 23.9482 48.7401 23.0804C49.293 24.6714 49.602 26.375 49.602 28.1429C49.602 36.6607 42.609 43.5714 33.9896 43.5714C32.2006 43.5714 30.4768 43.2661 28.8667 42.7196C29.7449 51.8482 37.5349 59 47 59ZM26.1833 41C26.1833 40.1964 26.2321 39.4089 26.3135 38.6375L26.3297 38.5411C27.4681 29.1554 34.9979 21.6982 44.5117 20.5732C45.3249 20.4768 46.1543 20.4286 47 20.4286H47.065C47.2114 20.4286 47.374 20.4286 47.5204 20.4286C58.7744 20.7018 67.8166 29.7982 67.8166 41C67.8166 52.3625 58.4979 61.5714 47 61.5714C35.502 61.5714 26.1833 52.3625 26.1833 41ZM28.8179 39.9393C30.3955 40.6143 32.1519 41 33.9896 41C41.1778 41 47 35.2464 47 28.1429C47 26.3268 46.6259 24.5911 45.9266 23.0321C36.7218 23.5625 29.3384 30.8429 28.8179 39.9393Z"/></svg>