<svg viewBox="0 0 82 82" xmlns="http://www.w3.org/2000/svg"><path opacity="0.4" d="M2.5625 41C2.5625 62.2207 19.7793 79.4375 41 79.4375C62.2207 79.4375 79.4375 62.2207 79.4375 41C79.4375 19.7793 62.2207 2.5625 41 2.5625C19.7793 2.5625 2.5625 19.7793 2.5625 41ZM16.6723 47.6145C16.5602 46.9098 17.0246 46.2531 17.7293 46.141L18.1297 46.077C22.6141 45.3242 26.7461 43.2102 29.9492 39.991L31.1344 38.8059C31.6309 38.3094 32.4477 38.3094 32.9441 38.8059C33.4406 39.3023 33.4406 40.1191 32.9441 40.6156L31.759 41.8008C28.1715 45.3883 23.559 47.7586 18.5461 48.6074L18.1457 48.6715C17.441 48.7836 16.7844 48.3191 16.6723 47.6145ZM27.1145 63.8223C30.1094 59.3379 35.2023 56.375 41 56.375C46.7977 56.375 51.8906 59.3379 54.8855 63.8223C55.2699 64.4148 55.1098 65.1996 54.5332 65.6C53.9566 66.0004 53.1559 65.8242 52.7555 65.2477C50.225 61.4359 45.9008 58.9375 41 58.9375C36.0992 58.9375 31.775 61.4359 29.2605 65.2316C28.8762 65.8242 28.0754 65.9844 27.4828 65.584C26.8902 65.1836 26.7301 64.3988 27.1305 63.8062L27.1145 63.8223ZM49.0559 38.8219C49.5523 38.3254 50.3691 38.3254 50.8656 38.8219L52.0508 40.007C55.2539 43.2102 59.3859 45.3402 63.8703 46.093L64.2707 46.157C64.9754 46.2691 65.4398 46.9258 65.3277 47.6305C65.2156 48.3352 64.559 48.7996 63.8543 48.6875L63.4539 48.6234C58.441 47.7906 53.8285 45.4043 50.241 41.8168L49.0559 40.6316C48.5594 40.1352 48.5594 39.3184 49.0559 38.8219Z"/><path d="M79.4375 41C79.4375 19.7793 62.2207 2.5625 41 2.5625C19.7793 2.5625 2.5625 19.7793 2.5625 41C2.5625 62.2207 19.7793 79.4375 41 79.4375C62.2207 79.4375 79.4375 62.2207 79.4375 41ZM0 41C0 18.3539 18.3539 0 41 0C63.6461 0 82 18.3539 82 41C82 63.6461 63.6461 82 41 82C18.3539 82 0 63.6461 0 41ZM29.2605 65.2316C28.8762 65.8242 28.0754 65.9844 27.4828 65.584C26.8902 65.1836 26.7301 64.3988 27.1305 63.8062C30.1094 59.3379 35.2023 56.375 41 56.375C46.7977 56.375 51.8906 59.3379 54.8855 63.8223C55.2699 64.4148 55.1098 65.1996 54.5332 65.6C53.9566 66.0004 53.1559 65.8242 52.7555 65.2477C50.225 61.4359 45.9008 58.9375 41 58.9375C36.0992 58.9375 31.775 61.4359 29.2605 65.2316ZM32.9441 38.8059C33.4406 39.3023 33.4406 40.1191 32.9441 40.6156L31.759 41.8008C28.1715 45.3883 23.559 47.7586 18.5461 48.6074L18.1457 48.6715C17.441 48.7836 16.7844 48.3191 16.6723 47.6145C16.5602 46.9098 17.0246 46.2531 17.7293 46.141L18.1297 46.077C22.6141 45.3242 26.7461 43.2102 29.9492 39.991L31.1344 38.8059C31.6309 38.3094 32.4477 38.3094 32.9441 38.8059ZM49.0719 40.6156C48.5754 40.1191 48.5754 39.3023 49.0719 38.8059C49.5684 38.3094 50.3852 38.3094 50.8816 38.8059L52.0668 39.991C55.2699 43.1941 59.402 45.3242 63.8863 46.077L64.2867 46.141C64.9914 46.2531 65.4559 46.9098 65.3438 47.6145C65.2316 48.3191 64.575 48.7836 63.8703 48.6715L63.4699 48.6074C58.457 47.7746 53.8445 45.3883 50.257 41.8008L49.0719 40.6156Z"/></svg>