<svg viewBox="0 0 83 82" xmlns="http://www.w3.org/2000/svg"><path opacity="0.4" d="M2.9624 41C2.9624 46.0477 3.95662 51.0459 5.88828 55.7094C7.81995 60.3728 10.6512 64.6102 14.2205 68.1794C17.7897 71.7487 22.0271 74.58 26.6905 76.5116C31.354 78.4433 36.3522 79.4375 41.3999 79.4375C46.4476 79.4375 51.4458 78.4433 56.1093 76.5116C60.7728 74.58 65.0101 71.7487 68.5793 68.1794C72.1486 64.6102 74.9799 60.3728 76.9115 55.7094C78.8432 51.0459 79.8374 46.0477 79.8374 41C79.8374 35.9523 78.8432 30.9541 76.9115 26.2906C74.9799 21.6272 72.1486 17.3898 68.5793 13.8206C65.0101 10.2513 60.7728 7.42005 56.1093 5.48838C51.4458 3.55672 46.4476 2.5625 41.3999 2.5625C36.3522 2.5625 31.354 3.55672 26.6905 5.48838C22.0271 7.42005 17.7897 10.2513 14.2205 13.8206C10.6512 17.3898 7.81995 21.6272 5.88828 26.2906C3.95662 30.9541 2.9624 35.9523 2.9624 41ZM19.7308 35.2504C21.8288 31.5027 25.112 29.4688 28.5394 29.4688C31.9667 29.4688 35.2339 31.5027 37.3479 35.2504C37.7003 35.875 37.4761 36.6437 36.8515 36.9961C36.2269 37.3484 35.4581 37.1242 35.1058 36.4996C33.3601 33.4086 30.8776 32.0312 28.5394 32.0312C26.2011 32.0312 23.7026 33.4086 21.9729 36.4996C21.6206 37.1242 20.8519 37.3324 20.2272 36.9961C19.6026 36.6598 19.3944 35.875 19.7308 35.2504ZM22.4214 53.268C22.021 52.6914 22.1491 51.8906 22.7417 51.4902C23.3343 51.0898 24.119 51.218 24.5194 51.8105C27.8507 56.5672 33.4882 61.5 41.3999 61.5C49.3116 61.5 54.9491 56.5672 58.2804 51.7945C58.6808 51.218 59.4815 51.0738 60.0581 51.4742C60.6347 51.8746 60.7788 52.6754 60.3784 53.252C56.7909 58.393 50.4808 64.0625 41.3999 64.0625C32.319 64.0625 26.0089 58.393 22.4054 53.268H22.4214ZM45.3558 35.2504C47.4538 31.5027 50.737 29.4688 54.1644 29.4688C57.5917 29.4688 60.8589 31.5027 62.9729 35.2504C63.3253 35.875 63.1011 36.6437 62.4765 36.9961C61.8519 37.3484 61.0831 37.1242 60.7308 36.4996C58.9851 33.4086 56.5026 32.0312 54.1644 32.0312C51.8261 32.0312 49.3276 33.4086 47.5979 36.4996C47.2456 37.1242 46.4769 37.3324 45.8522 36.9961C45.2276 36.6598 45.0194 35.875 45.3558 35.2504Z"/><path d="M79.8374 41C79.8374 35.9523 78.8432 30.9541 76.9115 26.2906C74.9799 21.6272 72.1486 17.3898 68.5793 13.8206C65.0101 10.2513 60.7728 7.42005 56.1093 5.48838C51.4458 3.55671 46.4476 2.5625 41.3999 2.5625C36.3522 2.5625 31.354 3.55671 26.6905 5.48838C22.0271 7.42005 17.7897 10.2513 14.2205 13.8206C10.6512 17.3898 7.81995 21.6272 5.88828 26.2906C3.95662 30.9541 2.9624 35.9523 2.9624 41C2.9624 46.0477 3.95662 51.0459 5.88828 55.7094C7.81995 60.3728 10.6512 64.6102 14.2205 68.1794C17.7897 71.7487 22.0271 74.58 26.6905 76.5116C31.354 78.4433 36.3522 79.4375 41.3999 79.4375C46.4476 79.4375 51.4458 78.4433 56.1093 76.5116C60.7728 74.58 65.0101 71.7487 68.5793 68.1794C72.1486 64.6102 74.9799 60.3728 76.9115 55.7094C78.8432 51.0459 79.8374 46.0477 79.8374 41ZM0.399902 41C0.399902 30.1261 4.71953 19.6976 12.4085 12.0086C20.0975 4.31963 30.526 0 41.3999 0C52.2738 0 62.7023 4.31963 70.3913 12.0086C78.0803 19.6976 82.3999 30.1261 82.3999 41C82.3999 51.8739 78.0803 62.3024 70.3913 69.9914C62.7023 77.6804 52.2738 82 41.3999 82C30.526 82 20.0975 77.6804 12.4085 69.9914C4.71953 62.3024 0.399902 51.8739 0.399902 41ZM24.5194 51.7945C27.8507 56.5672 33.4882 61.5 41.3999 61.5C49.3116 61.5 54.9491 56.5672 58.2804 51.7945C58.6808 51.218 59.4815 51.0738 60.0581 51.4742C60.6347 51.8746 60.7788 52.6754 60.3784 53.252C56.7909 58.393 50.4808 64.0625 41.3999 64.0625C32.319 64.0625 26.0089 58.393 22.4054 53.268C22.005 52.6914 22.1331 51.8906 22.7257 51.4902C23.3183 51.0898 24.103 51.218 24.5034 51.8105L24.5194 51.7945ZM28.5233 32.0312C26.1851 32.0312 23.6866 33.4086 21.9569 36.4996C21.6046 37.1242 20.8358 37.3324 20.2112 36.9961C19.5866 36.6598 19.3784 35.875 19.7147 35.2504C21.8128 31.5027 25.096 29.4688 28.5233 29.4688C31.9507 29.4688 35.2179 31.5027 37.3319 35.2504C37.6843 35.875 37.4601 36.6437 36.8354 36.9961C36.2108 37.3484 35.4421 37.1242 35.0897 36.4996C33.344 33.4086 30.8616 32.0312 28.5233 32.0312ZM47.5819 36.4996C47.2296 37.1242 46.4608 37.3324 45.8362 36.9961C45.2116 36.6598 45.0034 35.875 45.3397 35.2504C47.4378 31.5027 50.721 29.4688 54.1483 29.4688C57.5757 29.4688 60.8429 31.5027 62.9569 35.2504C63.3093 35.875 63.0851 36.6437 62.4604 36.9961C61.8358 37.3484 61.0671 37.1242 60.7147 36.4996C58.969 33.4086 56.4866 32.0312 54.1483 32.0312C51.8101 32.0312 49.3116 33.4086 47.5819 36.4996Z"/></svg>