<svg viewBox="0 0 66 82" xmlns="http://www.w3.org/2000/svg"><path opacity="0.4" d="M2.74634 10.25V71.75C2.74634 75.9941 6.43669 79.4375 10.9853 79.4375H54.9262C59.4748 79.4375 63.1651 75.9941 63.1651 71.75V28.8121C63.1651 28.6039 63.1479 28.3957 63.1308 28.1875H42.5678C38.7745 28.1875 35.702 25.3207 35.702 21.7812V2.59453C35.4789 2.5625 35.2558 2.5625 35.0326 2.5625H10.9853C6.43669 2.5625 2.74634 6.00586 2.74634 10.25Z"/><path d="M54.9262 79.4375C59.4747 79.4375 63.1651 75.9941 63.1651 71.75V28.8121C63.1651 28.6039 63.1479 28.3957 63.1308 28.1875H42.5678C38.7744 28.1875 35.702 25.3207 35.702 21.7812V2.59453C35.4789 2.5625 35.2557 2.5625 35.0326 2.5625H10.9852C6.43666 2.5625 2.74631 6.00586 2.74631 10.25V71.75C2.74631 75.9941 6.43666 79.4375 10.9852 79.4375H54.9262ZM61.9807 25.625C61.8434 25.4648 61.7061 25.3207 61.5688 25.1926L38.9118 4.06797C38.7573 3.92383 38.6028 3.7957 38.4483 3.68359V21.7812C38.4483 23.9113 40.2849 25.625 42.5678 25.625H61.9807ZM0 10.25C0 4.59648 4.92619 0 10.9852 0H35.0326C37.2125 0 39.3065 0.816797 40.8513 2.2582L63.4912 23.3668C65.036 24.8082 65.9114 26.7621 65.9114 28.7961V71.75C65.9114 77.4035 60.9852 82 54.9262 82H10.9852C4.92619 82 0 77.4035 0 71.75V10.25Z"/></svg>