<svg viewBox="0 0 93 83" xmlns="http://www.w3.org/2000/svg"><path opacity="0.4" d="M3.27515 14.9385V66.8615C3.27515 71.6392 7.13843 75.5154 11.9001 75.5154H80.9001C85.6619 75.5154 89.5251 71.6392 89.5251 66.8615V23.5923C89.5251 18.8147 85.6619 14.9385 80.9001 14.9385H54.0728C52.2041 14.9385 50.3892 14.3255 48.8978 13.2077L41.9978 8.01538C40.5064 6.89759 38.6916 6.28461 36.8228 6.28461H11.9001C7.13843 6.28461 3.27515 10.1608 3.27515 14.9385ZM29.1501 42.3423C29.1501 33.5803 36.2298 26.4769 44.9626 26.4769C53.6955 26.4769 60.7751 33.5803 60.7751 42.3423C60.7751 46.2005 59.3916 49.7521 57.1095 52.4925L64.6564 60.0646C65.2134 60.6235 65.2134 61.543 64.6564 62.1019C64.0994 62.6608 63.183 62.6608 62.6259 62.1019L55.0791 54.5298C52.3298 56.8195 48.808 58.2077 44.9626 58.2077C36.2298 58.2077 29.1501 51.1043 29.1501 42.3423Z"/><path d="M80.9001 75.5154H11.9001C7.13843 75.5154 3.27515 71.6392 3.27515 66.8615V14.9385C3.27515 10.1608 7.13843 6.28461 11.9001 6.28461H36.8228C38.6916 6.28461 40.5064 6.89759 41.9978 8.01538L48.8978 13.2077C50.3892 14.3255 52.2041 14.9385 54.0728 14.9385H80.9001C85.6619 14.9385 89.5251 18.8147 89.5251 23.5923V66.8615C89.5251 71.6392 85.6619 75.5154 80.9001 75.5154ZM11.9001 78.4H80.9001C87.2431 78.4 92.4001 73.2257 92.4001 66.8615V23.5923C92.4001 17.2281 87.2431 12.0538 80.9001 12.0538H54.0728C52.833 12.0538 51.6111 11.6572 50.6228 10.9L43.7228 5.70769C41.7283 4.21129 39.3025 3.39999 36.8228 3.39999H11.9001C5.55718 3.39999 0.400146 8.57427 0.400146 14.9385V66.8615C0.400146 73.2257 5.55718 78.4 11.9001 78.4ZM44.9626 29.65C51.9525 29.65 57.6126 35.3291 57.6126 42.3423C57.6126 49.3555 51.9525 55.0346 44.9626 55.0346C37.9728 55.0346 32.3126 49.3555 32.3126 42.3423C32.3126 35.3291 37.9728 29.65 44.9626 29.65ZM44.9626 58.2077C48.808 58.2077 52.3478 56.8195 55.0791 54.5298L62.6259 62.1019C63.183 62.6608 64.0994 62.6608 64.6564 62.1019C65.2134 61.543 65.2134 60.6236 64.6564 60.0647L57.1095 52.4925C59.3916 49.7341 60.7751 46.2005 60.7751 42.3423C60.7751 33.5803 53.6955 26.4769 44.9626 26.4769C36.2298 26.4769 29.1501 33.5803 29.1501 42.3423C29.1501 51.1043 36.2298 58.2077 44.9626 58.2077Z"/></svg>