<svg viewBox="0 0 95 83" xmlns="http://www.w3.org/2000/svg"><path opacity="0.4" d="M7.22706 66.7117C6.13142 70.2342 8.76781 73.8079 12.4485 73.8079H77.4167C79.8134 73.8079 81.9362 72.2519 82.6381 69.9606L91.1978 42.6019C92.2934 39.0795 89.6571 35.5058 85.9764 35.5058H21.0253C18.6286 35.5058 16.5058 37.0618 15.8039 39.3531L7.24418 66.7117H7.22706Z"/><path d="M12.4485 73.8081C8.75072 73.8081 6.11433 70.2343 7.22709 66.7119L15.7868 39.3533C16.5058 37.062 18.6115 35.5059 21.0082 35.5059H85.9764C89.6742 35.5059 92.3106 39.0797 91.1978 42.6021L82.6381 69.9608C81.9191 72.252 79.8134 73.8081 77.4167 73.8081H12.4485ZM34.1388 76.5439H77.4167C81.0118 76.5439 84.196 74.2185 85.2574 70.7815L93.8171 43.4229C95.4777 38.1392 91.5231 32.7701 85.9764 32.7701H21.0253C17.4303 32.7701 14.246 35.0956 13.1846 38.5325L4.62494 65.8912C4.43662 66.4725 4.33391 67.0368 4.28255 67.6182C4.12847 66.9684 4.02576 66.3015 4.02576 65.6005V16.3549C4.02576 11.8236 7.70643 8.14727 12.2431 8.14727H35.9877C37.7681 8.14727 39.4972 8.72865 40.9181 9.78879L47.492 14.7134C48.9129 15.7735 50.6419 16.3549 52.4223 16.3549H72.5034C77.0401 16.3549 80.7207 20.0312 80.7207 24.5625H83.4598C83.4598 18.5265 78.5466 13.619 72.5034 13.619H52.4052C51.224 13.619 50.0599 13.2428 49.1183 12.5247L42.5444 7.6001C40.6442 6.18087 38.3502 5.41141 35.9706 5.41141H12.226C6.1828 5.41141 1.26953 10.3189 1.26953 16.3549V65.6005C1.26953 71.6365 6.1828 76.5439 12.226 76.5439H34.1388Z"/></svg>