<svg viewBox="0 0 59 83" xmlns="http://www.w3.org/2000/svg"><path opacity="0.4" d="M3.01685 38.9882V72.7529C3.01685 76.7474 6.26424 79.9882 10.2668 79.9882H48.9335C52.9361 79.9882 56.1835 76.7474 56.1835 72.7529V38.9882C56.1835 34.9937 52.9361 31.7529 48.9335 31.7529H10.2668C6.26424 31.7529 3.01685 34.9937 3.01685 38.9882Z"/><path d="M12.6836 19.6941V29.3412H46.5169V19.6941C46.5169 10.3636 38.9497 2.81176 29.6002 2.81176C20.2507 2.81176 12.6836 10.3787 12.6836 19.6941ZM10.2669 29.3412V19.6941C10.2669 9.03713 18.9216 0.399994 29.6002 0.399994C40.2789 0.399994 48.9336 9.03713 48.9336 19.6941V29.3412C54.2653 29.3412 58.6002 33.6673 58.6002 38.9882V72.7529C58.6002 78.0739 54.2653 82.4 48.9336 82.4H10.2669C4.93512 82.4 0.60022 78.0739 0.60022 72.7529V38.9882C0.60022 33.6673 4.93512 29.3412 10.2669 29.3412ZM10.2669 31.7529C6.26428 31.7529 3.01689 34.9937 3.01689 38.9882V72.7529C3.01689 76.7474 6.26428 79.9882 10.2669 79.9882H48.9336C52.9362 79.9882 56.1836 76.7474 56.1836 72.7529V38.9882C56.1836 34.9937 52.9362 31.7529 48.9336 31.7529H10.2669Z"/></svg>