<svg viewBox="0 0 82 82" xmlns="http://www.w3.org/2000/svg"><path opacity="0.4" d="M2.5625 33.3125C2.5625 50.2891 16.3359 64.0625 33.3125 64.0625C50.2891 64.0625 64.0625 50.2891 64.0625 33.3125C64.0625 16.3359 50.2891 2.5625 33.3125 2.5625C16.3359 2.5625 2.5625 16.3359 2.5625 33.3125Z"/><path d="M64.0625 33.3125C64.0625 16.3359 50.2891 2.5625 33.3125 2.5625C16.3359 2.5625 2.5625 16.3359 2.5625 33.3125C2.5625 50.2891 16.3359 64.0625 33.3125 64.0625C50.2891 64.0625 64.0625 50.2891 64.0625 33.3125ZM55.9426 57.7523C50.0008 63.2617 42.057 66.625 33.3125 66.625C14.9105 66.625 0 51.7145 0 33.3125C0 14.9105 14.9105 0 33.3125 0C51.7145 0 66.625 14.9105 66.625 33.3125C66.625 42.057 63.2617 50.0008 57.7523 55.9426L81.6156 79.8059C82.1121 80.3023 82.1121 81.1191 81.6156 81.6156C81.1191 82.1121 80.3023 82.1121 79.8059 81.6156L55.9426 57.7523Z"/></svg>