<svg viewBox="0 0 83 83" xmlns="http://www.w3.org/2000/svg"><path opacity="0.4" d="M3.36255 33.7125C3.36255 37.7506 4.15792 41.7492 5.70325 45.48C7.24859 49.2108 9.51361 52.6006 12.369 55.456C15.2244 58.3114 18.6143 60.5765 22.345 62.1218C26.0758 63.6671 30.0744 64.4625 34.1125 64.4625C38.1507 64.4625 42.1493 63.6671 45.8801 62.1218C49.6108 60.5765 53.0007 58.3114 55.8561 55.456C58.7115 52.6006 60.9765 49.2108 62.5218 45.48C64.0672 41.7492 64.8625 37.7506 64.8625 33.7125C64.8625 29.6743 64.0672 25.6757 62.5218 21.945C60.9765 18.2142 58.7115 14.8244 55.8561 11.969C53.0007 9.11356 49.6108 6.84853 45.8801 5.3032C42.1493 3.75787 38.1507 2.96249 34.1125 2.96249C30.0744 2.96249 26.0758 3.75787 22.345 5.3032C18.6143 6.84853 15.2244 9.11356 12.369 11.969C9.51361 14.8244 7.24859 18.2142 5.70325 21.945C4.15792 25.6757 3.36255 29.6743 3.36255 33.7125Z"/><path d="M64.8625 33.7125C64.8625 29.6743 64.0672 25.6757 62.5218 21.945C60.9765 18.2142 58.7115 14.8244 55.8561 11.969C53.0007 9.11356 49.6108 6.84853 45.8801 5.3032C42.1493 3.75787 38.1507 2.96249 34.1125 2.96249C30.0744 2.96249 26.0758 3.75787 22.345 5.3032C18.6143 6.84853 15.2244 9.11356 12.369 11.969C9.51361 14.8244 7.24859 18.2142 5.70325 21.945C4.15792 25.6757 3.36255 29.6743 3.36255 33.7125C3.36255 37.7506 4.15792 41.7492 5.70325 45.48C7.24859 49.2108 9.51361 52.6006 12.369 55.456C15.2244 58.3114 18.6143 60.5765 22.345 62.1218C26.0758 63.6671 30.0744 64.4625 34.1125 64.4625C38.1507 64.4625 42.1493 63.6671 45.8801 62.1218C49.6108 60.5765 53.0007 58.3114 55.8561 55.456C58.7115 52.6006 60.9765 49.2108 62.5218 45.48C64.0672 41.7492 64.8625 37.7506 64.8625 33.7125ZM56.7426 58.1523C50.8008 63.6617 42.8571 67.025 34.1125 67.025C15.7106 67.025 0.800049 52.1144 0.800049 33.7125C0.800049 15.3105 15.7106 0.399994 34.1125 0.399994C52.5145 0.399994 67.425 15.3105 67.425 33.7125C67.425 42.457 64.0618 50.4008 58.5524 56.3426L82.4157 80.2058C82.9122 80.7023 82.9122 81.5191 82.4157 82.0156C81.9192 82.5121 81.1024 82.5121 80.6059 82.0156L56.7426 58.1523Z"/><path d="M27.2001 26.7125C27.2001 23.8637 29.6614 21.5562 32.7001 21.5562H34.9001C37.9389 21.5562 40.4001 23.8637 40.4001 26.7125V27.009C40.4001 28.5623 39.5751 30.0125 38.1933 30.8697L34.5976 33.1191C33.0714 34.073 32.1501 35.6844 32.1501 37.4117V37.5406C32.1501 38.3978 32.8858 39.0875 33.8001 39.0875C34.7145 39.0875 35.4501 38.3978 35.4501 37.5406V37.4117C35.4501 36.7221 35.8145 36.0775 36.4264 35.6973L40.022 33.4478C42.3183 32.0105 43.6933 29.6 43.6933 27.0154V26.7189C43.6933 22.1621 39.7539 18.4689 34.8933 18.4689H32.6933C27.8395 18.4625 23.9001 22.1557 23.9001 26.7125C23.9001 27.5697 24.6358 28.2594 25.5501 28.2594C26.4645 28.2594 27.2001 27.5697 27.2001 26.7125ZM33.8001 47.3375C34.3836 47.3375 34.9432 47.1202 35.3558 46.7334C35.7684 46.3466 36.0001 45.822 36.0001 45.275C36.0001 44.728 35.7684 44.2034 35.3558 43.8166C34.9432 43.4298 34.3836 43.2125 33.8001 43.2125C33.2167 43.2125 32.6571 43.4298 32.2445 43.8166C31.8319 44.2034 31.6001 44.728 31.6001 45.275C31.6001 45.822 31.8319 46.3466 32.2445 46.7334C32.6571 47.1202 33.2167 47.3375 33.8001 47.3375Z"/></svg>