<svg viewBox="0 0 82 82" xmlns="http://www.w3.org/2000/svg"><path opacity="0.4" d="M2.5625 15.375V51.25C2.5625 58.3289 8.29609 64.0625 15.375 64.0625H20.5C21.9094 64.0625 23.0625 65.2156 23.0625 66.625V78.7809C23.0625 79.1492 23.3828 79.4215 23.7191 79.4375C23.8473 79.4375 23.9914 79.4055 24.1035 79.3254C24.632 78.957 25.1125 78.6047 25.5609 78.3004L25.625 78.2523C26.698 77.4996 30.4938 74.809 44.3953 65.0074C45.2602 64.3988 46.2852 64.0625 47.3582 64.0625H66.625C73.7039 64.0625 79.4375 58.3289 79.4375 51.25V15.375C79.4375 8.29609 73.7039 2.5625 66.625 2.5625H15.375C8.29609 2.5625 2.5625 8.29609 2.5625 15.375Z"/><path d="M23.0625 73.784V66.625C23.0625 65.2156 21.9094 64.0625 20.5 64.0625H15.375C8.29609 64.0625 2.5625 58.3289 2.5625 51.25V15.375C2.5625 8.29609 8.29609 2.5625 15.375 2.5625H66.625C73.7039 2.5625 79.4375 8.29609 79.4375 15.375V51.25C79.4375 58.3289 73.7039 64.0625 66.625 64.0625H47.3422C46.2852 64.0625 45.2441 64.3828 44.3793 65.0074L28.1875 76.4426C28.1555 76.4746 27.2906 77.0672 25.625 78.2523L25.5609 78.3004C25.1125 78.6207 24.632 78.957 24.1035 79.3254C23.9914 79.4055 23.8473 79.4375 23.7191 79.4375C23.3828 79.4215 23.0625 79.1492 23.0625 78.7809V73.784ZM15.375 0C6.88672 0 0 6.88672 0 15.375V51.25C0 59.7383 6.88672 66.625 15.375 66.625H20.5V78.7809C20.5 80.5586 21.9414 82 23.7191 82C24.3918 82 25.0324 81.7918 25.577 81.4074L45.8527 67.0895C46.2852 66.7852 46.7977 66.625 47.3262 66.625H66.625C75.1133 66.625 82 59.7383 82 51.25V15.375C82 6.88672 75.1133 0 66.625 0H15.375Z"/></svg>