<svg viewBox="0 0 102 83" xmlns="http://www.w3.org/2000/svg"><path opacity="0.4" d="M17.8501 16.175C17.8501 9.09614 23.5557 3.36255 30.6001 3.36255H71.4001C77.9345 3.36255 83.3373 8.31138 84.0704 14.6856C84.0704 14.7176 84.0704 14.7497 84.0704 14.7817V53.1551C84.0704 53.3153 84.0704 53.4754 84.0545 53.6356C83.2895 59.9458 77.9185 64.8625 71.4001 64.8625H57.3113C56.2595 64.8625 55.2235 65.1829 54.3629 65.8075L36.3217 78.604L33.5804 80.2055C33.3254 80.1094 33.1501 79.8692 33.1501 79.5809V67.425C33.1501 66.0157 32.0026 64.8625 30.6001 64.8625C23.5557 64.8625 17.8501 59.129 17.8501 52.05V16.175ZM25.5001 31.55C25.5001 40.0383 32.3532 46.925 40.8001 46.925H61.2001C69.647 46.925 76.5001 40.0383 76.5001 31.55C76.5001 23.0618 69.647 16.175 61.2001 16.175H40.8001C32.3532 16.175 25.5001 23.0618 25.5001 31.55ZM28.4485 28.395C29.867 22.8696 34.8554 18.7696 40.8001 18.7536C34.8554 18.7375 29.851 22.8375 28.4485 28.395Z"/><path d="M17.8499 16.175V52.05C17.8499 59.129 23.5556 64.8625 30.5999 64.8625C32.0024 64.8625 33.1499 66.0157 33.1499 67.425V79.5809C33.1499 79.9493 33.4527 80.2375 33.8034 80.2375C33.9468 80.2375 34.0743 80.1895 34.1859 80.1094L54.3627 65.7915C55.2234 65.1829 56.2434 64.8465 57.3112 64.8465H71.3999C78.4443 64.8465 84.1499 59.1129 84.1499 52.034V16.159C84.1499 9.08013 78.4443 3.34653 71.3999 3.34653L30.5999 3.36255C23.5556 3.36255 17.8499 9.09614 17.8499 16.175ZM86.6999 16.175V28.9875H100.725C101.426 28.9875 102 29.5641 102 30.2688C102 30.9735 101.426 31.55 100.725 31.55H86.6999V52.05C86.6999 60.5383 79.8468 67.425 71.3999 67.425H57.3112C56.7852 67.425 56.2752 67.5852 55.8449 67.8895L35.6681 82.2075C35.1262 82.5918 34.4727 82.8 33.8193 82.8C32.0502 82.8 30.6159 81.3587 30.6159 79.5809V67.425C22.169 67.425 15.3159 60.5383 15.3159 52.05V31.55H1.29087C0.589619 31.55 0.0158691 30.9735 0.0158691 30.2688C0.0158691 29.5641 0.589619 28.9875 1.29087 28.9875H15.3159V16.175C15.3159 7.68677 22.169 0.800049 30.6159 0.800049H71.4159C79.8627 0.800049 86.7159 7.68677 86.7159 16.175H86.6999ZM40.7999 28.9875C42.2024 28.9875 43.3499 30.1407 43.3499 31.55C43.3499 32.9594 42.2024 34.1125 40.7999 34.1125C39.3974 34.1125 38.2499 32.9594 38.2499 31.55C38.2499 30.1407 39.3974 28.9875 40.7999 28.9875ZM58.6499 31.55C58.6499 30.1407 59.7974 28.9875 61.1999 28.9875C62.6024 28.9875 63.7499 30.1407 63.7499 31.55C63.7499 32.9594 62.6024 34.1125 61.1999 34.1125C59.7974 34.1125 58.6499 32.9594 58.6499 31.55ZM40.7999 18.7375C33.7556 18.7375 28.0499 24.4711 28.0499 31.55C28.0499 38.629 33.7556 44.3625 40.7999 44.3625H61.1999C68.2443 44.3625 73.9499 38.629 73.9499 31.55C73.9499 24.4711 68.2443 18.7375 61.1999 18.7375H40.7999ZM25.4999 31.55C25.4999 23.0618 32.3531 16.175 40.7999 16.175H61.1999C69.6468 16.175 76.4999 23.0618 76.4999 31.55C76.4999 40.0383 69.6468 46.925 61.1999 46.925H40.7999C32.3531 46.925 25.4999 40.0383 25.4999 31.55Z"/></svg>