<svg viewBox="0 0 83 83" xmlns="http://www.w3.org/2000/svg"><path opacity="0.4" d="M79.9221 11.05C79.9221 6.65102 76.3489 3.07776 71.9499 3.07776H37.7832C33.3843 3.07776 29.811 6.65102 29.811 11.05V38.3833C29.811 42.7823 33.3843 46.3555 37.7832 46.3555H51.7631C52.5603 46.3555 53.3433 46.6403 53.9555 47.1528L66.2555 57.4028V47.4944C66.2555 46.868 66.768 46.3555 67.3943 46.3555H71.9499C76.3489 46.3555 79.9221 42.7823 79.9221 38.3833V11.05Z"/><path d="M79.9222 11.05C79.9222 6.65103 76.3489 3.07777 71.95 3.07777H37.7833C33.3843 3.07777 29.8111 6.65103 29.8111 11.05V38.3833C29.8111 42.7823 33.3843 46.3555 37.7833 46.3555H51.7631C52.5604 46.3555 53.3434 46.6403 53.9555 47.1528L66.2555 57.4028V47.4944C66.2555 46.868 66.768 46.3555 67.3944 46.3555H71.95C76.3489 46.3555 79.9222 42.7823 79.9222 38.3833V11.05ZM71.95 0.799988C77.6159 0.799988 82.2 5.38402 82.2 11.05V38.3833C82.2 44.0493 77.6159 48.6333 71.95 48.6333H68.5333V58.0434C68.5333 59.1396 67.6506 60.0222 66.5545 60.0222C66.0989 60.0222 65.6434 59.8656 65.2875 59.5667L52.4892 48.9038C52.2899 48.733 52.0336 48.6333 51.7631 48.6333H37.7833C32.1173 48.6333 27.5333 44.0493 27.5333 38.3833V11.05C27.5333 5.38402 32.1173 0.799988 37.7833 0.799988H71.95ZM52.5888 58.2142L54.8666 60.1076V61.1611C54.8666 66.8271 50.2826 71.4111 44.6166 71.4111H30.6368C30.3663 71.4111 30.11 71.5108 29.9107 71.6816L17.1124 82.3444C16.7565 82.6434 16.3152 82.8 15.8454 82.8C14.7493 82.8 13.8666 81.9173 13.8666 80.8212V71.4111H10.45C4.78398 71.4111 0.199951 66.8271 0.199951 61.1611V33.8278C0.199951 28.1618 4.78398 23.5778 10.45 23.5778H20.7V25.8555H10.45C6.05099 25.8555 2.47773 29.4288 2.47773 33.8278V61.1611C2.47773 65.5601 6.05099 69.1333 10.45 69.1333H15.0055C15.6319 69.1333 16.1444 69.6458 16.1444 70.2722V80.1805L28.4444 69.9305C29.0565 69.418 29.8395 69.1333 30.6368 69.1333H44.6166C49.0156 69.1333 52.5888 65.5601 52.5888 61.1611V58.2142Z"/></svg>