<svg viewBox="0 0 96 82" xmlns="http://www.w3.org/2000/svg"><path opacity="0.4" d="M3.27271 16.556V64.444C3.27271 69.4011 7.27952 73.423 12.2182 73.423H16.1877L19.1136 64.5936C20.325 60.9272 23.7541 58.458 27.5932 58.458H68.3695C72.2272 58.458 75.6377 60.9272 76.8491 64.5936L79.775 73.423H83.7445C88.6832 73.423 92.69 69.4011 92.69 64.444V16.556C92.69 11.5988 88.6832 7.577 83.7445 7.577H12.2182C7.27952 7.577 3.27271 11.5988 3.27271 16.556ZM12.2182 34.514C12.2182 27.9107 17.5668 22.542 24.1454 22.542H71.8545C78.4332 22.542 83.7818 27.9107 83.7818 34.514C83.7818 41.1173 78.4332 46.486 71.8545 46.486H24.1454C17.5668 46.486 12.2182 41.1173 12.2182 34.514Z"/><path d="M83.7819 7.577C88.7206 7.577 92.7274 11.5988 92.7274 16.556V64.444C92.7274 69.4012 88.7206 73.423 83.7819 73.423H79.8124L76.8865 64.5936C75.6751 60.9272 72.246 58.458 68.4069 58.458H27.6306C23.7728 58.458 20.3624 60.9272 19.151 64.5936L16.1878 73.423H12.2183C7.27965 73.423 3.27283 69.4012 3.27283 64.444V16.556C3.27283 11.5988 7.27965 7.577 12.2183 7.577H83.7819ZM80.8001 76.416H83.7819C90.3606 76.416 95.7092 71.0473 95.7092 64.444V16.556C95.7092 9.95269 90.3606 4.584 83.7819 4.584H12.2183C5.63965 4.584 0.291016 9.95269 0.291016 16.556V64.444C0.291016 71.0473 5.63965 76.416 12.2183 76.416H80.8001ZM76.6628 73.423H19.3374L21.9465 65.5477C22.7665 63.0971 25.0401 61.451 27.6119 61.451H68.3883C70.9601 61.451 73.2337 63.0971 74.0537 65.5477L76.6628 73.423ZM24.1456 25.535C29.0842 25.535 33.091 29.5568 33.091 34.514C33.091 39.4712 29.0842 43.493 24.1456 43.493C19.2069 43.493 15.2001 39.4712 15.2001 34.514C15.2001 29.5568 19.2069 25.535 24.1456 25.535ZM24.1456 46.486H71.8546C78.4333 46.486 83.7819 41.1173 83.7819 34.514C83.7819 27.9107 78.4333 22.542 71.8546 22.542H24.1456C17.5669 22.542 12.2183 27.9107 12.2183 34.514C12.2183 41.1173 17.5669 46.486 24.1456 46.486ZM63.9715 43.493H32.0474C34.526 41.3044 36.0915 38.0869 36.0915 34.514C36.0915 30.9411 34.526 27.7236 32.0474 25.535H63.9715C61.4928 27.7236 59.9274 30.9411 59.9274 34.514C59.9274 38.0869 61.4928 41.3044 63.9715 43.493ZM71.8546 43.493C66.916 43.493 62.9092 39.4712 62.9092 34.514C62.9092 29.5568 66.916 25.535 71.8546 25.535C76.7933 25.535 80.8001 29.5568 80.8001 34.514C80.8001 39.4712 76.7933 43.493 71.8546 43.493Z"/></svg>