<svg viewBox="0 0 88 83" xmlns="http://www.w3.org/2000/svg"><path opacity="0.4" d="M2.91895 44.5333V71.8666C2.91895 76.3937 6.57227 80.0666 11.0752 80.0666H76.3252C80.8281 80.0666 84.4814 76.3937 84.4814 71.8666V44.5333C84.4814 40.0062 80.8281 36.3333 76.3252 36.3333H11.0752C6.57227 36.3333 2.91895 40.0062 2.91895 44.5333Z"/><path d="M84.4814 44.5333C84.4814 40.0062 80.8281 36.3333 76.3252 36.3333H11.0752C6.57227 36.3333 2.91895 40.0062 2.91895 44.5333V71.8667C2.91895 76.3937 6.57227 80.0667 11.0752 80.0667H76.3252C80.8281 80.0667 84.4814 76.3937 84.4814 71.8667V44.5333ZM76.3252 33.6C82.3234 33.6 87.2002 38.5029 87.2002 44.5333V71.8667C87.2002 77.8971 82.3234 82.8 76.3252 82.8H11.0752C5.07695 82.8 0.200195 77.8971 0.200195 71.8667V44.5333C0.200195 38.5029 5.07695 33.6 11.0752 33.6H76.3252ZM77.6846 17.2C78.4322 17.2 79.0439 17.815 79.0439 18.5667C79.0439 19.3183 78.4322 19.9333 77.6846 19.9333H9.71582C8.96816 19.9333 8.35645 19.3183 8.35645 18.5667C8.35645 17.815 8.96816 17.2 9.71582 17.2H77.6846ZM69.5283 0.799988C70.276 0.799988 70.8877 1.41499 70.8877 2.16665C70.8877 2.91832 70.276 3.53332 69.5283 3.53332H17.8721C17.1244 3.53332 16.5127 2.91832 16.5127 2.16665C16.5127 1.41499 17.1244 0.799988 17.8721 0.799988H69.5283Z"/></svg>