<svg viewBox="0 0 87 82" xmlns="http://www.w3.org/2000/svg"><path opacity="0.4" d="M12.5444 31.5V64.75C12.5444 71.3109 17.8896 76.625 24.4889 76.625H62.7111C69.3104 76.625 74.6555 71.3109 74.6555 64.75V31.5C74.6555 24.9391 69.3104 19.625 62.7111 19.625H24.4889C17.8896 19.625 12.5444 24.9391 12.5444 31.5ZM38.8222 43.375C38.8222 48.6148 34.5371 52.875 29.2667 52.875C23.9962 52.875 19.7111 48.6148 19.7111 43.375C19.7111 38.1352 23.9962 33.875 29.2667 33.875C34.5371 33.875 38.8222 38.1352 38.8222 43.375ZM22.1149 43.375C22.1 46.8188 24.5635 49.6984 27.8333 50.3516C24.5785 49.6836 22.1299 46.8039 22.1149 43.375ZM22.1149 43.375C22.1 39.9312 24.5635 37.0516 27.8333 36.3984C24.5785 37.0664 22.1299 39.9461 22.1149 43.375ZM24.4889 61.1875C24.4889 60.5344 25.0264 60 25.6833 60H31.6555C32.3125 60 32.85 60.5344 32.85 61.1875C32.85 61.8406 32.3125 62.375 31.6555 62.375H25.6833C25.0264 62.375 24.4889 61.8406 24.4889 61.1875ZM38.8222 61.1875C38.8222 60.5344 39.3597 60 40.0167 60H45.9889C46.6458 60 47.1833 60.5344 47.1833 61.1875C47.1833 61.8406 46.6458 62.375 45.9889 62.375H40.0167C39.3597 62.375 38.8222 61.8406 38.8222 61.1875ZM67.4889 43.375C67.4889 48.6148 63.2038 52.875 57.9333 52.875C52.6628 52.875 48.3778 48.6148 48.3778 43.375C48.3778 38.1352 52.6628 33.875 57.9333 33.875C63.2038 33.875 67.4889 38.1352 67.4889 43.375ZM53.1555 61.1875C53.1555 60.5344 53.693 60 54.35 60H61.5167C62.1736 60 62.7111 60.5344 62.7111 61.1875C62.7111 61.8406 62.1736 62.375 61.5167 62.375H54.35C53.693 62.375 53.1555 61.8406 53.1555 61.1875Z"/><path d="M44.7945 4.1875C44.7945 3.53438 44.257 3 43.6001 3C42.9432 3 42.4057 3.53438 42.4057 4.1875V17.25H24.489C16.5758 17.25 10.1557 23.6328 10.1557 31.5V64.75C10.1557 72.6172 16.5758 79 24.489 79H62.7112C70.6244 79 77.0445 72.6172 77.0445 64.75V31.5C77.0445 23.6328 70.6244 17.25 62.7112 17.25H44.7945V4.1875ZM43.6001 19.625H62.7112C69.3105 19.625 74.6557 24.9391 74.6557 31.5V64.75C74.6557 71.3109 69.3105 76.625 62.7112 76.625H24.489C17.8897 76.625 12.5445 71.3109 12.5445 64.75V31.5C12.5445 24.9391 17.8897 19.625 24.489 19.625H43.6001ZM24.489 61.1875C24.489 61.8406 25.0265 62.375 25.6834 62.375H31.6557C32.3126 62.375 32.8501 61.8406 32.8501 61.1875C32.8501 60.5344 32.3126 60 31.6557 60H25.6834C25.0265 60 24.489 60.5344 24.489 61.1875ZM38.8223 61.1875C38.8223 61.8406 39.3598 62.375 40.0168 62.375H45.989C46.6459 62.375 47.1834 61.8406 47.1834 61.1875C47.1834 60.5344 46.6459 60 45.989 60H40.0168C39.3598 60 38.8223 60.5344 38.8223 61.1875ZM53.1557 61.1875C53.1557 61.8406 53.6932 62.375 54.3501 62.375H61.5168C62.1737 62.375 62.7112 61.8406 62.7112 61.1875C62.7112 60.5344 62.1737 60 61.5168 60H54.3501C53.6932 60 53.1557 60.5344 53.1557 61.1875ZM29.2668 52.875C34.5373 52.875 38.8223 48.6148 38.8223 43.375C38.8223 38.1352 34.5373 33.875 29.2668 33.875C23.9963 33.875 19.7112 38.1352 19.7112 43.375C19.7112 48.6148 23.9963 52.875 29.2668 52.875ZM22.1001 43.375C22.1001 39.4414 25.3102 36.25 29.2668 36.25C33.2234 36.25 36.4334 39.4414 36.4334 43.375C36.4334 47.3086 33.2234 50.5 29.2668 50.5C25.3102 50.5 22.1001 47.3086 22.1001 43.375ZM67.489 43.375C67.489 38.1352 63.2039 33.875 57.9334 33.875C52.6629 33.875 48.3779 38.1352 48.3779 43.375C48.3779 48.6148 52.6629 52.875 57.9334 52.875C63.2039 52.875 67.489 48.6148 67.489 43.375ZM57.9334 36.25C61.89 36.25 65.1001 39.4414 65.1001 43.375C65.1001 47.3086 61.89 50.5 57.9334 50.5C53.9768 50.5 50.7668 47.3086 50.7668 43.375C50.7668 39.4414 53.9768 36.25 57.9334 36.25ZM2.98899 37.4375C2.98899 36.7844 2.45149 36.25 1.79454 36.25C1.1376 36.25 0.600098 36.7844 0.600098 37.4375V58.8125C0.600098 59.4656 1.1376 60 1.79454 60C2.45149 60 2.98899 59.4656 2.98899 58.8125V37.4375ZM85.4057 36.25C84.7487 36.25 84.2112 36.7844 84.2112 37.4375V58.8125C84.2112 59.4656 84.7487 60 85.4057 60C86.0626 60 86.6001 59.4656 86.6001 58.8125V37.4375C86.6001 36.7844 86.0626 36.25 85.4057 36.25Z"/></svg>