<svg viewBox="0 0 82 82" xmlns="http://www.w3.org/2000/svg"><path opacity="0.4" d="M4.82065 66.1914C1.82573 69.1805 1.82573 74.0398 4.82065 77.0449C7.81558 80.0499 12.6843 80.0339 15.6953 77.0449L45.8046 46.9782C46.173 46.6105 46.7335 46.4987 47.214 46.7065C50.0167 47.9213 53.1078 48.5926 56.3749 48.5926C69.1074 48.5926 79.4374 38.2827 79.4374 25.5751C79.4374 22.6819 78.9089 19.9166 77.932 17.3751L64.9753 30.3064C64.7351 30.5462 64.4148 30.6741 64.0624 30.6741H52.5312C51.8265 30.6741 51.2499 30.0986 51.2499 29.3953V17.8866C51.2499 17.5509 51.3781 17.2152 51.6183 16.9755L64.5749 4.04407C62.0285 3.06902 59.2578 2.54153 56.3589 2.54153C43.6265 2.54153 33.2964 12.8515 33.2964 25.5591C33.2964 28.8039 33.9691 31.9049 35.1863 34.7022C35.3945 35.1817 35.2824 35.7411 34.914 36.1088L4.82065 66.1914Z"/><path d="M30.75 25.575C30.75 11.4448 42.2172 0 56.375 0C60.3149 0 64.0465 0.895127 67.3778 2.47758C67.7461 2.65341 68.0184 3.00507 68.0825 3.42066C68.1465 3.83626 68.0184 4.25185 67.7301 4.53957L53.7965 18.446V28.1485H63.518L77.4516 14.2421C77.7399 13.9544 78.1723 13.8105 78.5727 13.8904C78.9731 13.9704 79.3254 14.2261 79.5176 14.5938C81.1032 17.9185 82 21.6589 82 25.575C82 39.7053 70.5329 51.1501 56.375 51.1501C53.0758 51.1501 49.9207 50.5267 47.0059 49.3918L17.5051 78.8511C13.5012 82.8472 7.01489 82.8472 3.01099 78.8511C-0.99292 74.855 -0.99292 68.3813 3.01099 64.3852L32.5118 34.9259C31.3747 32.0327 30.75 28.8838 30.75 25.575ZM56.375 2.5575C43.6426 2.5575 33.3125 12.8674 33.3125 25.575C33.3125 28.8199 33.9852 31.9209 35.2024 34.7181C35.4106 35.1977 35.2985 35.7571 34.9301 36.1248L4.82075 66.1914C1.82583 69.1805 1.82583 74.0398 4.82075 77.0448C7.81567 80.0499 12.6844 80.0339 15.6954 77.0448L45.8047 46.9782C46.1731 46.6105 46.7336 46.4986 47.2141 46.7064C50.0168 47.9212 53.1079 48.5926 56.375 48.5926C69.1075 48.5926 79.4375 38.2826 79.4375 25.575C79.4375 22.6819 78.909 19.9166 77.9321 17.375L64.9754 30.3064C64.7352 30.5462 64.4149 30.6741 64.0625 30.6741H52.5313C51.8266 30.6741 51.25 30.0986 51.25 29.3953V17.8865C51.25 17.5509 51.3782 17.2152 51.6184 16.9754L64.575 4.04405C62.0446 3.08499 59.2739 2.5575 56.375 2.5575Z"/></svg>