<svg viewBox="0 0 94 82" xmlns="http://www.w3.org/2000/svg"><path opacity="0.4" d="M2.64795 41L21.6796 49.7786C22.2589 50.0432 22.7057 50.5061 22.9705 51.0681L31.7747 70.0968L40.5624 51.0847C40.8272 50.5061 41.2906 50.0597 41.8532 49.7952L60.9015 41L41.8698 32.2214C41.2906 31.9569 40.8437 31.494 40.5789 30.9319L31.7747 11.9032L22.987 30.9153C22.7222 31.494 22.2589 31.9403 21.6962 32.2048L2.64795 41Z"/><path d="M82.0845 0C82.8127 0 83.4084 0.595161 83.4084 1.32258V10.5806H92.6761C93.4042 10.5806 94 11.1758 94 11.9032C94 12.6306 93.4042 13.2258 92.6761 13.2258H83.4084V22.4839C83.4084 23.2113 82.8127 23.8065 82.0845 23.8065C81.3563 23.8065 80.7606 23.2113 80.7606 22.4839V13.2258H71.493C70.7648 13.2258 70.169 12.6306 70.169 11.9032C70.169 11.1758 70.7648 10.5806 71.493 10.5806H80.7606V1.32258C80.7606 0.595161 81.3563 0 82.0845 0ZM76.7887 58.1936C77.5169 58.1936 78.1127 58.7887 78.1127 59.5161V68.7742H87.3803C88.1084 68.7742 88.7042 69.3694 88.7042 70.0968C88.7042 70.8242 88.1084 71.4194 87.3803 71.4194H78.1127V80.6774C78.1127 81.4048 77.5169 82 76.7887 82C76.0606 82 75.4648 81.4048 75.4648 80.6774V71.4194H66.1972C65.469 71.4194 64.8732 70.8242 64.8732 70.0968C64.8732 69.3694 65.469 68.7742 66.1972 68.7742H75.4648V59.5161C75.4648 58.7887 76.0606 58.1936 76.7887 58.1936ZM21.6796 32.2214L2.64789 41L21.6796 49.7786C22.2588 50.0431 22.7056 50.5061 22.9704 51.0681L31.7746 70.0968L40.5623 51.0847C40.8271 50.5061 41.2905 50.0597 41.8532 49.7952L60.9014 41L41.8697 32.2214C41.2905 31.9569 40.8437 31.494 40.5789 30.9319L31.7746 11.9032L22.987 30.9153C22.7222 31.494 22.2588 31.9403 21.6961 32.2048L21.6796 32.2214ZM20.5708 52.1923L1.53908 43.3972C0.595775 42.9673 0 42.025 0 41C0 39.975 0.595775 39.0327 1.53908 38.6028L20.5708 29.8242L29.3584 10.8121C29.7887 9.86976 30.732 9.2746 31.7581 9.2746C32.7842 9.2746 33.7275 9.86976 34.1577 10.8121L42.9454 29.8242L61.9771 38.6028C62.9204 39.0327 63.5162 39.975 63.5162 41C63.5162 42.025 62.9204 42.9673 61.9771 43.3972L42.9454 52.1758L34.1577 71.1879C33.7275 72.1302 32.7842 72.7254 31.7581 72.7254C30.732 72.7254 29.7887 72.1302 29.3584 71.1879L20.5708 52.1758V52.1923Z"/></svg>