<svg viewBox="0 0 82 83" xmlns="http://www.w3.org/2000/svg"><path d="M16.1071 0.199951H19.0357C19.8411 0.199951 20.5 0.85888 20.5 1.66424C20.5 2.46959 19.8411 3.12852 19.0357 3.12852H16.1071C8.82232 3.12852 2.92857 9.02227 2.92857 16.3071V19.2357C2.92857 20.041 2.26964 20.7 1.46429 20.7C0.658929 20.7 0 20.041 0 19.2357V16.3071C0 7.41156 7.21161 0.199951 16.1071 0.199951ZM1.46429 29.4857C2.26964 29.4857 2.92857 30.1446 2.92857 30.95V51.45C2.92857 52.2553 2.26964 52.9142 1.46429 52.9142C0.658929 52.9142 0 52.2553 0 51.45V30.95C0 30.1446 0.658929 29.4857 1.46429 29.4857ZM80.5357 29.4857C81.3411 29.4857 82 30.1446 82 30.95V51.45C82 52.2553 81.3411 52.9142 80.5357 52.9142C79.7304 52.9142 79.0714 52.2553 79.0714 51.45V30.95C79.0714 30.1446 79.7304 29.4857 80.5357 29.4857ZM80.5357 20.7C79.7304 20.7 79.0714 20.041 79.0714 19.2357V16.3071C79.0714 9.02227 73.1777 3.12852 65.8929 3.12852H62.9643C62.1589 3.12852 61.5 2.46959 61.5 1.66424C61.5 0.85888 62.1589 0.199951 62.9643 0.199951H65.8929C74.7884 0.199951 82 7.41156 82 16.3071V19.2357C82 20.041 81.3411 20.7 80.5357 20.7ZM82 63.1642V66.0928C82 74.9883 74.7884 82.2 65.8929 82.2H62.9643C62.1589 82.2 61.5 81.541 61.5 80.7357C61.5 79.9303 62.1589 79.2714 62.9643 79.2714H65.8929C73.1777 79.2714 79.0714 73.3776 79.0714 66.0928V63.1642C79.0714 62.3589 79.7304 61.7 80.5357 61.7C81.3411 61.7 82 62.3589 82 63.1642ZM2.92857 63.1642V66.0928C2.92857 73.3776 8.82232 79.2714 16.1071 79.2714H19.0357C19.8411 79.2714 20.5 79.9303 20.5 80.7357C20.5 81.541 19.8411 82.2 19.0357 82.2H16.1071C7.21161 82.2 0 74.9883 0 66.0928V63.1642C0 62.3589 0.658929 61.7 1.46429 61.7C2.26964 61.7 2.92857 62.3589 2.92857 63.1642ZM30.75 82.2C29.9446 82.2 29.2857 81.541 29.2857 80.7357C29.2857 79.9303 29.9446 79.2714 30.75 79.2714H51.25C52.0554 79.2714 52.7143 79.9303 52.7143 80.7357C52.7143 81.541 52.0554 82.2 51.25 82.2H30.75ZM29.2857 1.66424C29.2857 0.85888 29.9446 0.199951 30.75 0.199951H51.25C52.0554 0.199951 52.7143 0.85888 52.7143 1.66424C52.7143 2.46959 52.0554 3.12852 51.25 3.12852H30.75C29.9446 3.12852 29.2857 2.46959 29.2857 1.66424Z"/></svg>