<svg viewBox="0 0 83 83" xmlns="http://www.w3.org/2000/svg"><path opacity="0.4" d="M3.32837 11.9143V70.4857C3.32837 75.3361 7.26364 79.2714 12.1141 79.2714H70.6855C75.536 79.2714 79.4712 75.3361 79.4712 70.4857V11.9143C79.4712 7.06381 75.536 3.12854 70.6855 3.12854H12.1141C7.26364 3.12854 3.32837 7.06381 3.32837 11.9143ZM20.8998 41.2C20.8998 40.3946 21.5587 39.7357 22.3641 39.7357H39.9355V22.1643C39.9355 21.3589 40.5944 20.7 41.3998 20.7C42.2052 20.7 42.8641 21.3589 42.8641 22.1643V39.7357H60.4355C61.2409 39.7357 61.8998 40.3946 61.8998 41.2C61.8998 42.0053 61.2409 42.6643 60.4355 42.6643H42.8641V60.2357C42.8641 61.041 42.2052 61.7 41.3998 61.7C40.5944 61.7 39.9355 61.041 39.9355 60.2357V42.6643H22.3641C21.5587 42.6643 20.8998 42.0053 20.8998 41.2Z"/><path d="M12.1142 3.12852C7.26374 3.12852 3.32847 7.06379 3.32847 11.9142V70.4857C3.32847 75.3361 7.26374 79.2714 12.1142 79.2714H70.6856C75.5361 79.2714 79.4713 75.3361 79.4713 70.4857V11.9142C79.4713 7.06379 75.5361 3.12852 70.6856 3.12852H12.1142ZM0.399902 11.9142C0.399902 5.45308 5.65303 0.199951 12.1142 0.199951H70.6856C77.1468 0.199951 82.3999 5.45308 82.3999 11.9142V70.4857C82.3999 76.9468 77.1468 82.2 70.6856 82.2H12.1142C5.65303 82.2 0.399902 76.9468 0.399902 70.4857V11.9142ZM39.9356 60.2357V42.6642H22.3642C21.5588 42.6642 20.8999 42.0053 20.8999 41.2C20.8999 40.3946 21.5588 39.7357 22.3642 39.7357H39.9356V22.1642C39.9356 21.3589 40.5945 20.7 41.3999 20.7C42.2053 20.7 42.8642 21.3589 42.8642 22.1642V39.7357H60.4356C61.241 39.7357 61.8999 40.3946 61.8999 41.2C61.8999 42.0053 61.241 42.6642 60.4356 42.6642H42.8642V60.2357C42.8642 61.041 42.2053 61.7 41.3999 61.7C40.5945 61.7 39.9356 61.041 39.9356 60.2357Z"/></svg>