<svg viewBox="0 0 83 82" xmlns="http://www.w3.org/2000/svg"><path opacity="0.4" d="M3.52272 75.9781C2.786 77.9641 4.85201 80.0301 6.82194 79.2773L21.5083 73.768L9.03209 61.2918L3.52272 75.9781ZM10.0251 58.6652L24.1508 72.791L36.4188 68.1945L14.6215 46.3812L10.0251 58.6652ZM15.5985 43.7867C15.6626 43.8348 15.7426 43.8828 15.7907 43.9469L38.8532 67.0094C38.9172 67.0734 38.9653 67.1375 39.0133 67.2176L47.854 63.9023C49.5356 63.2777 50.0481 60.9555 48.7669 59.6902L23.1258 34.0332C21.8446 32.752 19.5383 33.2645 18.9137 34.9461L15.5985 43.7707V43.7867Z"/><path d="M26.9216 23.3348C26.3611 23.7672 26.265 24.568 26.6974 25.1285C27.1298 25.6891 27.9306 25.7852 28.4912 25.3527L29.4841 24.584C36.483 19.1387 40.9193 11.0348 41.7201 2.19415L41.8002 1.39336C41.8642 0.688677 41.3517 0.0640672 40.647 4.74043e-06C39.9423 -0.0640578 39.3177 0.448442 39.2537 1.15313L39.1736 1.95391C38.4369 10.0898 34.3529 17.5531 27.9146 22.566L26.9216 23.3348ZM8.48766 5.125C8.48766 4.44539 8.75764 3.79361 9.2382 3.31304C9.71876 2.83248 10.3705 2.5625 11.0502 2.5625C11.7298 2.5625 12.3816 2.83248 12.8621 3.31304C13.3427 3.79361 13.6127 4.44539 13.6127 5.125C13.6127 5.80462 13.3427 6.4564 12.8621 6.93697C12.3816 7.41753 11.7298 7.6875 11.0502 7.6875C10.3705 7.6875 9.71876 7.41753 9.2382 6.93697C8.75764 6.4564 8.48766 5.80462 8.48766 5.125ZM16.1752 5.125C16.1752 3.76577 15.6352 2.46221 14.6741 1.50108C13.713 0.539959 12.4094 4.74043e-06 11.0502 4.74043e-06C9.69093 4.74043e-06 8.38736 0.539959 7.42624 1.50108C6.46511 2.46221 5.92516 3.76577 5.92516 5.125C5.92516 6.48424 6.46511 7.7878 7.42624 8.74893C8.38736 9.71005 9.69093 10.25 11.0502 10.25C12.4094 10.25 13.713 9.71005 14.6741 8.74893C15.6352 7.7878 16.1752 6.48424 16.1752 5.125ZM3.52282 75.9781L9.03219 61.2918L21.5084 73.768L6.83805 79.2774C4.85211 80.0141 2.7861 77.9481 3.53883 75.9781H3.52282ZM24.1349 72.791L10.0252 58.6652L14.6216 46.3973L36.4189 68.1785L24.1509 72.775L24.1349 72.791ZM15.8068 43.9309C15.7427 43.8668 15.6787 43.8188 15.6146 43.7707L18.9298 34.9461C19.5545 33.2645 21.8767 32.752 23.142 34.0332L48.767 59.6742C50.0482 60.9555 49.5357 63.2617 47.8541 63.8863L39.0134 67.2016C38.9654 67.1375 38.9173 67.0574 38.8533 66.9934L15.7908 43.9309H15.8068ZM24.9517 32.2074C22.3572 29.6129 17.8088 30.6059 16.5275 34.0332L1.12047 75.0813C-0.401012 79.1172 3.68297 83.2012 7.71891 81.6797L48.7509 66.2887C52.1783 65.0074 53.1713 60.459 50.5767 57.8645L24.9357 32.2234L24.9517 32.2074ZM77.6752 23.0625C78.3548 23.0625 79.0066 23.3325 79.4871 23.813C79.9677 24.2936 80.2377 24.9454 80.2377 25.625C80.2377 26.3046 79.9677 26.9564 79.4871 27.437C79.0066 27.9175 78.3548 28.1875 77.6752 28.1875C76.9955 28.1875 76.3438 27.9175 75.8632 27.437C75.3826 26.9564 75.1127 26.3046 75.1127 25.625C75.1127 24.9454 75.3826 24.2936 75.8632 23.813C76.3438 23.3325 76.9955 23.0625 77.6752 23.0625ZM77.6752 30.75C79.0344 30.75 80.338 30.21 81.2991 29.2489C82.2602 28.2878 82.8002 26.9842 82.8002 25.625C82.8002 24.2658 82.2602 22.9622 81.2991 22.0011C80.338 21.04 79.0344 20.5 77.6752 20.5C76.3159 20.5 75.0124 21.04 74.0512 22.0011C73.0901 22.9622 72.5502 24.2658 72.5502 25.625C72.5502 26.9842 73.0901 28.2878 74.0512 29.2489C75.0124 30.21 76.3159 30.75 77.6752 30.75ZM75.1127 71.75C75.1127 71.0704 75.3826 70.4186 75.8632 69.938C76.3438 69.4575 76.9955 69.1875 77.6752 69.1875C78.3548 69.1875 79.0066 69.4575 79.4871 69.938C79.9677 70.4186 80.2377 71.0704 80.2377 71.75C80.2377 72.4296 79.9677 73.0814 79.4871 73.562C79.0066 74.0425 78.3548 74.3125 77.6752 74.3125C76.9955 74.3125 76.3438 74.0425 75.8632 73.562C75.3826 73.0814 75.1127 72.4296 75.1127 71.75ZM82.8002 71.75C82.8002 70.3908 82.2602 69.0872 81.2991 68.1261C80.338 67.165 79.0344 66.625 77.6752 66.625C76.3159 66.625 75.0124 67.165 74.0512 68.1261C73.0901 69.0872 72.5502 70.3908 72.5502 71.75C72.5502 73.1092 73.0901 74.4128 74.0512 75.3739C75.0124 76.3351 76.3159 76.875 77.6752 76.875C79.0344 76.875 80.338 76.3351 81.2991 75.3739C82.2602 74.4128 82.8002 73.1092 82.8002 71.75ZM57.6716 56.1027C58.2322 56.5352 59.033 56.4391 59.4654 55.8785L62.9728 51.3781C66.24 47.182 71.1088 44.5234 76.4099 44.043L81.647 43.5625C82.3517 43.4984 82.8642 42.8738 82.8002 42.1691C82.7361 41.4645 82.1115 40.952 81.4068 41.016L76.1697 41.4965C70.1638 42.041 64.6545 45.052 60.9548 49.8086L57.4474 54.309C57.015 54.8695 57.1111 55.6703 57.6716 56.1027ZM82.3677 2.24219C82.8963 1.77774 82.9443 0.960942 82.4799 0.432427C82.0154 -0.096089 81.1986 -0.144136 80.6701 0.320317L77.9795 2.69063C76.458 4.03594 74.472 4.75665 72.438 4.69258C67.1209 4.54844 62.5084 8.37618 61.6756 13.6453L60.5705 20.6762C59.8177 25.4969 55.8298 29.1484 50.9771 29.5008C48.2224 29.709 45.6119 30.766 43.4978 32.5598L42.2646 33.6168C41.7201 34.0813 41.656 34.882 42.1205 35.4266C42.5849 35.9711 43.3857 36.0352 43.9302 35.5707L45.1634 34.5137C46.8611 33.0883 48.9591 32.2234 51.1693 32.0633C57.2232 31.6148 62.156 27.0664 63.117 21.0766L64.222 14.0457C64.8466 10.0578 68.3381 7.15899 72.39 7.25508C75.0646 7.33516 77.6752 6.37422 79.6931 4.6125L82.3677 2.24219Z"/></svg>