<svg viewBox="0 0 83 83" xmlns="http://www.w3.org/2000/svg"><path opacity="0.4" d="M3.12842 26.5571V49.9856H39.7356V26.5571H3.12842ZM3.12842 52.9142V70.4856C3.12842 75.3361 7.06369 79.2714 11.9141 79.2714H39.7356V52.9142H3.12842ZM42.6641 26.5571V49.9856H79.2713V26.5571H42.6641ZM42.6641 52.9142V79.2714H70.4856C75.336 79.2714 79.2713 75.3361 79.2713 70.4856V52.9142H42.6641Z"/><path d="M3.12852 23.6285H79.2714V11.9142C79.2714 7.06379 75.3361 3.12852 70.4857 3.12852H11.9142C7.06379 3.12852 3.12852 7.06379 3.12852 11.9142V23.6285ZM3.12852 26.5571V49.9857H39.7357V26.5571H3.12852ZM42.6642 26.5571V49.9857H79.2714V26.5571H42.6642ZM39.7357 52.9142H3.12852V70.4857C3.12852 75.3361 7.06379 79.2714 11.9142 79.2714H39.7357V52.9142ZM42.6642 79.2714H70.4857C75.3361 79.2714 79.2714 75.3361 79.2714 70.4857V52.9142H42.6642V79.2714ZM11.9142 82.2C5.45308 82.2 0.199951 76.9468 0.199951 70.4857V11.9142C0.199951 5.45308 5.45308 0.199951 11.9142 0.199951H70.4857C76.9468 0.199951 82.2 5.45308 82.2 11.9142V70.4857C82.2 76.9468 76.9468 82.2 70.4857 82.2H11.9142Z"/></svg>