<svg viewBox="0 0 88 82" xmlns="http://www.w3.org/2000/svg"><path opacity="0.4" d="M3.64671 73.3558C3.01324 74.5346 3.03036 75.9696 3.73231 77.1312C4.43425 78.2929 5.66694 78.9933 7.01947 78.9933H80.9806C82.3331 78.9933 83.5829 78.2758 84.2677 77.1312C84.9525 75.9866 84.9868 74.5346 84.3533 73.3558L47.3728 5.02249C46.7051 3.79249 45.4039 3.00665 44 3.00665C42.5961 3.00665 41.2949 3.7754 40.6272 5.02249L3.64671 73.3558ZM42.6304 32.8C42.6304 32.0483 43.2467 31.4333 44 31.4333C44.7533 31.4333 45.3697 32.0483 45.3697 32.8V56.2554C45.3697 57.0071 44.7533 57.6221 44 57.6221C43.2467 57.6221 42.6304 57.0071 42.6304 56.2554V32.8Z"/><path d="M44.0001 3.00667C45.4039 3.00667 46.7051 3.77542 47.3728 5.0225L84.3534 73.3558C84.9868 74.5346 84.9697 75.9696 84.2678 77.1312C83.5658 78.2929 82.3331 78.9933 80.9806 78.9933H7.01951C5.66698 78.9933 4.41718 78.2758 3.73235 77.1312C3.04753 75.9867 3.01329 74.5346 3.64675 73.3558L40.6273 5.0225C41.295 3.7925 42.5962 3.00667 44.0001 3.00667ZM50.0265 3.5875C48.8281 1.38375 46.5168 0 44.0001 0C41.4833 0 39.172 1.38375 37.9736 3.5875L0.993052 71.9208C-0.15403 74.0392 -0.102669 76.6017 1.13002 78.6687C2.3627 80.7358 4.6055 82 7.01951 82H80.9806C83.3946 82 85.6203 80.7358 86.8701 78.6687C88.1199 76.6017 88.1541 74.0392 87.0071 71.9208L50.0265 3.5875ZM44.0001 31.4333C43.2467 31.4333 42.6304 32.0483 42.6304 32.8V56.2554C42.6304 57.0071 43.2467 57.6221 44.0001 57.6221C44.7534 57.6221 45.3697 57.0071 45.3697 56.2554V32.8C45.3697 32.0483 44.7534 31.4333 44.0001 31.4333ZM46.2771 65.6C46.2771 64.3358 45.2499 63.3279 44.0001 63.3279C42.7331 63.3279 41.7059 64.3358 41.7059 65.6C41.7059 66.8642 42.7331 67.8892 44.0001 67.8892C45.2499 67.8892 46.2771 66.8642 46.2771 65.6Z"/></svg>