<svg viewBox="0 0 72 82" xmlns="http://www.w3.org/2000/svg"><path opacity="0.4" d="M1.28564 82C1.99279 82 2.57136 81.4234 2.57136 80.7188V76.875C2.57136 62.7172 14.0785 51.25 28.2856 51.25H43.7142C57.9214 51.25 69.4285 62.7172 69.4285 76.875V80.7188C69.4285 81.4234 70.0071 82 70.7142 82H1.28564ZM53.9999 20.5C53.9999 30.4137 45.9481 38.4375 35.9999 38.4375C26.0517 38.4375 17.9999 30.4137 17.9999 20.5C17.9999 10.5863 26.0517 2.5625 35.9999 2.5625C45.9481 2.5625 53.9999 10.5863 53.9999 20.5Z"/><path d="M18 20.5C18 10.5863 26.0518 2.5625 36 2.5625C45.9482 2.5625 54 10.5863 54 20.5C54 30.4137 45.9482 38.4375 36 38.4375C26.0518 38.4375 18 30.4137 18 20.5ZM56.5714 20.5C56.5714 9.17695 47.3625 0 36 0C24.6375 0 15.4286 9.17695 15.4286 20.5C15.4286 31.823 24.6375 41 36 41C47.3625 41 56.5714 31.823 56.5714 20.5ZM2.57143 76.875C2.57143 62.7172 14.0786 51.25 28.2857 51.25H43.7143C57.9214 51.25 69.4286 62.7172 69.4286 76.875V80.7188C69.4286 81.4234 70.0071 82 70.7143 82C71.4214 82 72 81.4234 72 80.7188V76.875C72 61.3078 59.3357 48.6875 43.7143 48.6875H28.2857C12.6643 48.6875 0 61.3078 0 76.875V80.7188C0 81.4234 0.578571 82 1.28571 82C1.99286 82 2.57143 81.4234 2.57143 80.7188V76.875Z"/></svg>