<svg viewBox="0 0 93 82" xmlns="http://www.w3.org/2000/svg"><path opacity="0.4" d="M1.90161 81.984C2.50856 81.8879 2.95578 81.3594 2.95578 80.7188V76.875C2.95578 62.7172 14.3919 51.25 28.5113 51.25H43.8447C57.9641 51.25 69.4002 62.7172 69.4002 76.875V80.7188C69.4002 81.3113 69.7995 81.8238 70.3586 82C47.5343 82 24.7259 82 1.90161 81.984ZM5.128 61.2117C7.30022 57.5602 10.4467 54.5652 14.2162 52.5953C10.5905 54.7574 7.47592 57.7043 5.128 61.2117ZM18.2891 20.5C18.2891 10.5863 26.2912 2.5625 36.178 2.5625C39.053 2.5625 41.7683 3.25117 44.1801 4.45234C43.9565 5.49336 43.8447 6.58242 43.8447 7.6875V23.0625C43.8447 27.2426 45.5058 31.0223 48.1891 33.793C45.0106 36.6758 40.794 38.4375 36.178 38.4375C26.2912 38.4375 18.2891 30.4137 18.2891 20.5ZM59.0502 53.1719C61.8134 54.8055 64.2093 57.0156 66.062 59.6262C64.1134 57.0957 61.7336 54.9176 59.0502 53.1719Z"/><path d="M36.1779 38.4375C26.2911 38.4375 18.289 30.4137 18.289 20.5C18.289 10.5863 26.2911 2.5625 36.1779 2.5625C39.0529 2.5625 41.7682 3.25117 44.18 4.45234C44.3557 3.60352 44.6113 2.7707 44.9307 1.96992C42.2793 0.704688 39.3085 0 36.162 0C24.8696 0 15.7175 9.17695 15.7175 20.5C15.7175 31.823 24.8696 41 36.162 41C41.5606 41 46.464 38.902 50.1217 35.4746C49.4349 34.9621 48.78 34.4016 48.1731 33.777C44.9946 36.6598 40.7779 38.4215 36.162 38.4215L36.1779 38.4375ZM2.9557 76.875C2.9557 62.7172 14.3918 51.25 28.5113 51.25H43.8446C57.964 51.25 69.4001 62.7172 69.4001 76.875V80.7188C69.4001 81.4234 69.9751 82 70.6779 82C71.3807 82 71.9557 81.4234 71.9557 80.7188V76.875C71.9557 61.3078 59.3696 48.6875 43.8446 48.6875H28.5113C12.9863 48.6875 0.400146 61.3078 0.400146 76.875V80.7188C0.400146 81.4234 0.975146 82 1.67792 82C2.3807 82 2.9557 81.4234 2.9557 80.7188V76.875ZM64.289 30.75C64.289 29.3406 63.139 28.1875 61.7335 28.1875H59.1779C56.3508 28.1875 54.0668 25.8973 54.0668 23.0625V7.6875C54.0668 4.85273 56.3508 2.5625 59.1779 2.5625H84.7335C87.5606 2.5625 89.8446 4.85273 89.8446 7.6875V23.0625C89.8446 25.8973 87.5606 28.1875 84.7335 28.1875H74.5113C73.8404 28.1875 73.1856 28.4598 72.7064 28.9402L64.289 37.3805V30.75ZM51.5113 23.0625C51.5113 27.3066 54.9453 30.75 59.1779 30.75H61.7335V37.3805C61.7335 39.6707 64.4807 40.8078 66.0939 39.1902L74.5113 30.75H84.7335C88.9661 30.75 92.4001 27.3066 92.4001 23.0625V7.6875C92.4001 3.44336 88.9661 0 84.7335 0H59.1779C54.9453 0 51.5113 3.44336 51.5113 7.6875V23.0625Z"/></svg>