<svg viewBox="0 0 103 82" xmlns="http://www.w3.org/2000/svg"><path opacity="0.4" d="M25.0251 78C25.7264 78 26.3001 77.4258 26.3001 76.7241V70.3448C26.3001 59.0694 35.4323 49.931 46.7001 49.931H56.9001C68.168 49.931 77.3001 59.0694 77.3001 70.3448V76.7241C77.3001 77.4258 77.8739 78 78.5751 78H25.0251ZM36.5001 21.862C36.5001 13.4095 43.3533 6.5517 51.8001 6.5517C56.0236 6.5517 59.8486 8.25816 62.6217 11.0332C64.0083 12.4207 65.1239 14.0633 65.9048 15.8974C66.2873 16.8064 66.5901 17.7793 66.7973 18.7681C66.893 19.2784 66.9726 19.7888 67.0364 20.3151C67.0683 20.5702 67.0842 20.8254 67.1001 21.0806C67.1161 21.3198 67.1161 21.575 67.1161 21.8939C67.1161 22.4521 67.0842 22.9465 67.0364 23.4409C66.9886 23.9513 66.9089 24.4616 66.7973 24.956C66.5901 25.9448 66.2873 26.9176 65.9048 27.8267C65.1239 29.6607 64.0083 31.3034 62.6217 32.6909C59.8486 35.4659 56.0236 37.1724 51.8001 37.1724C43.3533 37.1724 36.5001 30.3146 36.5001 21.862Z"/><path d="M51.8 37.1724C60.2469 37.1724 67.1 30.3147 67.1 21.8621C67.1 13.4095 60.2469 6.55172 51.8 6.55172C43.3532 6.55172 36.5 13.4095 36.5 21.8621C36.5 30.3147 43.3532 37.1724 51.8 37.1724ZM51.8 4C61.6654 4 69.65 11.9901 69.65 21.8621C69.65 31.7341 61.6654 39.7241 51.8 39.7241C41.9347 39.7241 33.95 31.7341 33.95 21.8621C33.95 11.9901 41.9347 4 51.8 4ZM46.7 49.931C35.4322 49.931 26.3 59.0694 26.3 70.3448V76.7241C26.3 77.4259 25.7263 78 25.025 78C24.3238 78 23.75 77.4259 23.75 76.7241V70.3448C23.75 57.6659 34.0297 47.3793 46.7 47.3793H56.9C69.5704 47.3793 79.85 57.6659 79.85 70.3448V76.7241C79.85 77.4259 79.2763 78 78.5751 78C77.8738 78 77.3 77.4259 77.3 76.7241V70.3448C77.3 59.0694 68.1679 49.931 56.9 49.931H46.7ZM69.5544 40.1707C70.176 39.5647 70.7816 38.9108 71.3394 38.2409C73.1244 39.1819 75.1485 39.7082 77.3 39.7082C84.3444 39.7082 90.05 33.9987 90.05 26.9496C90.05 19.9004 84.3444 14.1909 77.3 14.1909C76.9175 14.1909 76.535 14.2069 76.1525 14.2388C75.8975 13.3935 75.5788 12.5802 75.2441 11.7668C75.9135 11.6711 76.6147 11.6233 77.3 11.6233C85.7469 11.6233 92.6 18.481 92.6 26.9336C92.6 35.3862 85.7469 42.244 77.3 42.244C74.4791 42.244 71.8335 41.4784 69.5544 40.1388V40.1707ZM26.3 11.6552C27.0013 11.6552 27.6866 11.703 28.356 11.7987C28.0054 12.5961 27.7025 13.4254 27.4475 14.2707C27.065 14.2388 26.6825 14.2228 26.3 14.2228C19.2557 14.2228 13.55 19.9323 13.55 26.9815C13.55 34.0306 19.2557 39.7401 26.3 39.7401C28.4516 39.7401 30.4757 39.2138 32.2607 38.2728C32.8185 38.9427 33.4241 39.5806 34.0457 40.2026C31.7825 41.5422 29.1369 42.3078 26.3 42.3078C17.8532 42.3078 11 35.45 11 26.9974C11 18.5448 17.8532 11.6871 26.3 11.6871V11.6552ZM81.0932 52.4828C80.4875 51.6056 79.8341 50.7444 79.1329 49.931H81.1091C93.0782 49.931 102.784 59.6435 102.784 71.6207V76.7241C102.784 77.4259 102.21 78 101.509 78C100.808 78 100.234 77.4259 100.234 76.7241V71.6207C100.234 61.047 91.6757 52.4828 81.1091 52.4828H81.0932ZM22.491 52.4828H22.475C11.9085 52.4828 3.35005 61.047 3.35005 71.6207V76.7241C3.35005 77.4259 2.7763 78 2.07505 78C1.3738 78 0.800049 77.4259 0.800049 76.7241V71.6207C0.800049 59.6435 10.506 49.931 22.475 49.931H24.4513C23.766 50.7444 23.1125 51.6056 22.491 52.4828Z"/></svg>