<svg width="32" height="32" viewBox="0 0 32 32" fill="none" xmlns="http://www.w3.org/2000/svg">
<path d="M0 0H32V32H0V0Z" fill="#CB2233"/>
<path fill-rule="evenodd" clip-rule="evenodd" d="M19.4298 14.2388H16.8341L16.2371 15.4154C16.1751 15.5507 16.1037 15.6811 16.0236 15.8055H15.9988C15.9988 15.8055 15.8808 15.5988 15.7841 15.4154L15.1965 14.2302H12.6127L14.6479 17.5052L12.621 20.7815H15.1611L15.8454 19.4129C15.9061 19.2937 15.9589 19.1704 16.0035 19.0437H16.0283C16.0283 19.0437 16.1227 19.2898 16.1864 19.4129L16.886 20.7815H19.4298L17.4028 17.5052L19.4298 14.2388ZM7.95949 19.1225C7.79341 19.1261 7.62828 19.0954 7.47357 19.0323C7.31886 18.9692 7.17761 18.8748 7.05792 18.7547C6.93823 18.6345 6.84245 18.4909 6.77608 18.332C6.7097 18.1732 6.67404 18.0022 6.67112 17.8289C6.68897 17.3197 6.89037 16.8362 7.23508 16.4751C8.28512 16.9674 9.24078 17.3465 9.24078 17.9852C9.24668 18.7163 8.75352 19.1225 7.95949 19.1225ZM8.03028 12.3975C8.72992 12.3975 9.15112 12.8037 9.15112 13.4252C9.14236 13.9074 9.0139 14.3789 8.77829 14.7938C7.83443 14.3705 7.06047 13.9975 7.06047 13.2677C7.05575 12.7877 7.3625 12.3975 8.03028 12.3975ZM10.6613 15.7625C10.7651 15.6308 11.7113 14.4283 11.7113 13.2258C11.7113 11.152 10.082 10 8.09399 10C5.59748 10 4.5085 11.5914 4.5085 13.2086C4.5085 14.1625 4.91436 14.8258 5.47832 15.3403C5.15269 15.6148 4 16.624 4 18.0615C4 19.8363 5.35916 21.52 7.95949 21.52C10.6058 21.52 11.9178 19.8191 11.9178 18.1194C11.9178 16.9994 11.3774 16.2782 10.6613 15.7625ZM24.0452 19.1225C23.8792 19.1259 23.7142 19.0951 23.5597 19.0319C23.4051 18.9688 23.264 18.8744 23.1444 18.7542C23.0249 18.6341 22.9292 18.4905 22.8629 18.3317C22.7966 18.1729 22.761 18.0021 22.758 17.8289C22.7759 17.3197 22.9773 16.8362 23.322 16.4751C24.372 16.9674 25.3277 17.3465 25.3277 17.9852C25.3277 18.7237 24.8345 19.1286 24.0476 19.1286L24.0452 19.1225ZM24.1172 12.3975C24.8168 12.3975 25.238 12.8037 25.238 13.4252C25.2296 13.9076 25.1007 14.3794 24.864 14.7938C23.9202 14.3705 23.1474 13.9975 23.1474 13.2677C23.1474 12.7877 23.4494 12.3975 24.1172 12.3975ZM26.7435 15.7625C26.8473 15.6222 27.7935 14.4197 27.7935 13.2258C27.7935 11.152 26.163 10 24.1762 10C21.6797 10 20.5907 11.5914 20.5907 13.2086C20.5907 14.1625 20.9966 14.8258 21.5605 15.3403C21.2349 15.6049 20.0822 16.6166 20.0822 18.048C20.0822 19.8228 21.4414 21.5065 24.0405 21.5065C26.688 21.5065 28 19.8068 28 18.1058C28 16.9994 27.4596 16.2782 26.7435 15.7625Z" fill="white"/>
</svg>
