<svg width="24" height="24" viewBox="0 0 24 24" fill="none" xmlns="http://www.w3.org/2000/svg">
<path d="M0 0H24V24H0V0Z" fill="#CB2233"/>
<path fill-rule="evenodd" clip-rule="evenodd" d="M14.5723 10.6791H12.6256L12.1779 11.5615C12.1313 11.663 12.0778 11.7608 12.0177 11.8542H11.9991C11.9991 11.8542 11.9106 11.6991 11.8381 11.5615L11.3974 10.6726H9.45954L10.9859 13.1289L9.46574 15.5862H11.3709L11.8841 14.5597C11.9296 14.4703 11.9692 14.3778 12.0027 14.2828H12.0212C12.0212 14.2828 12.092 14.4674 12.1398 14.5597L12.6645 15.5862H14.5723L13.0521 13.1289L14.5723 10.6791ZM5.96962 14.3418C5.84506 14.3445 5.72121 14.3216 5.60518 14.2742C5.48914 14.2269 5.38321 14.1561 5.29344 14.066C5.20367 13.9759 5.13184 13.8682 5.08206 13.749C5.03228 13.6299 5.00553 13.5016 5.00334 13.3717C5.01673 12.9897 5.16778 12.6271 5.42631 12.3563C6.21384 12.7255 6.93059 13.0098 6.93059 13.4889C6.93501 14.0372 6.56514 14.3418 5.96962 14.3418ZM6.02271 9.29815C6.54744 9.29815 6.86334 9.60277 6.86334 10.0689C6.85677 10.4305 6.76043 10.7842 6.58372 11.0954C5.87582 10.7778 5.29535 10.4982 5.29535 9.95077C5.29181 9.59077 5.52188 9.29815 6.02271 9.29815ZM7.99597 11.8218C8.07384 11.7231 8.7835 10.8212 8.7835 9.91938C8.7835 8.364 7.5615 7.5 6.07049 7.5C4.19811 7.5 3.38138 8.69354 3.38138 9.90646C3.38138 10.6218 3.68577 11.1194 4.10874 11.5052C3.86452 11.7111 3 12.468 3 13.5462C3 14.8772 4.01937 16.14 5.96962 16.14C7.95438 16.14 8.93835 14.8643 8.93835 13.5895C8.93835 12.7495 8.53308 12.2086 7.99597 11.8218ZM18.0339 14.3418C17.9094 14.3444 17.7857 14.3213 17.6697 14.274C17.5538 14.2266 17.448 14.1558 17.3583 14.0657C17.2686 13.9756 17.1969 13.8679 17.1472 13.7488C17.0974 13.6297 17.0707 13.5016 17.0685 13.3717C17.0819 12.9897 17.233 12.6271 17.4915 12.3563C18.279 12.7255 18.9958 13.0098 18.9958 13.4889C18.9958 14.0428 18.6259 14.3465 18.0357 14.3465L18.0339 14.3418ZM18.0879 9.29815C18.6126 9.29815 18.9285 9.60277 18.9285 10.0689C18.9222 10.4307 18.8255 10.7845 18.648 11.0954C17.9401 10.7778 17.3605 10.4982 17.3605 9.95077C17.3605 9.59077 17.5871 9.29815 18.0879 9.29815ZM20.0576 11.8218C20.1355 11.7166 20.8451 10.8148 20.8451 9.91938C20.8451 8.364 19.6223 7.5 18.1321 7.5C16.2598 7.5 15.443 8.69354 15.443 9.90646C15.443 10.6218 15.7474 11.1194 16.1704 11.5052C15.9262 11.7037 15.0616 12.4625 15.0616 13.536C15.0616 14.8671 16.081 16.1298 18.0304 16.1298C20.016 16.1298 21 14.8551 21 13.5794C21 12.7495 20.5947 12.2086 20.0576 11.8218Z" fill="white"/>
</svg>
