<svg width="32" height="32" viewBox="0 0 32 32" fill="none" xmlns="http://www.w3.org/2000/svg">
<g clip-path="url(#clip0_55681_261)">
<path fill-rule="evenodd" clip-rule="evenodd" d="M31.0818 4.26364C30.7772 3.47273 30.0727 2.36364 29.0727 1.57727C28.5 1.12727 27.809 0.690909 26.8636 0.409091C25.8545 0.104545 24.6136 0 23.0681 0H8.93177C7.38632 0 6.14541 0.104545 5.13632 0.409091C4.19086 0.690909 3.5045 1.12727 2.92723 1.57727C1.92723 2.36364 1.22268 3.47273 0.918137 4.26364C0.299956 5.85455 0.29541 7.66364 0.29541 8.8V23.2C0.29541 24.3364 0.299956 26.1455 0.918137 27.7364C1.22268 28.5273 1.92723 29.6364 2.92723 30.4227C3.5045 30.8727 4.19086 31.3091 5.13632 31.5909C6.14541 31.8955 7.38632 32 8.93177 32H23.0681C24.6136 32 25.8545 31.8955 26.8636 31.5909C27.809 31.3091 28.4954 30.8727 29.0727 30.4227C30.0727 29.6364 30.7772 28.5273 31.0818 27.7364C31.7 26.1455 31.7045 24.3364 31.7045 23.2V8.8C31.7045 7.66364 31.7 5.85455 31.0818 4.26364Z" fill="url(#paint0_linear_55681_261)"/>
<path fill-rule="evenodd" clip-rule="evenodd" d="M15.9998 5.55908C9.63614 5.55908 4.47705 9.89545 4.47705 15.25C4.47705 18.6545 6.46796 21.4864 9.55887 23.2864C10.5361 23.8545 9.62705 25.0091 8.77705 25.9182C8.32251 26.4045 8.39523 26.5545 8.98614 26.4C11.9589 25.6454 12.0452 24.4273 13.3861 24.6864C14.2225 24.85 15.0998 24.9364 15.9998 24.9364C22.3634 24.9364 27.518 20.6 27.518 15.25C27.518 9.89545 22.3634 5.55908 15.9998 5.55908Z" fill="white"/>
</g>
<defs>
<linearGradient id="paint0_linear_55681_261" x1="16.0001" y1="0.000136364" x2="16.0001" y2="32" gradientUnits="userSpaceOnUse">
<stop stop-color="#5DF877"/>
<stop offset="1" stop-color="#0ABB28"/>
</linearGradient>
<clipPath id="clip0_55681_261">
<rect width="32" height="32" fill="white"/>
</clipPath>
</defs>
</svg>
