<svg xmlns="http://www.w3.org/2000/svg" viewBox="0 0 691 704"><title>Messages for Business - Icon (2) (1)</title><defs><linearGradient x2="1" gradientUnits="userSpaceOnUse" gradientTransform="matrix(0,703.997,-690.997,0,345.503,.003)"><stop offset="0" stop-color="#5df877"/><stop offset="1" stop-color="#0abb28"/></linearGradient></defs><path fill-rule="evenodd" d="m677.3 93.8c-6.7-17.4-22.2-41.8-44.2-59.1-12.6-9.9-27.8-19.5-48.6-25.7-22.2-6.7-49.5-9-83.5-9h-311c-34 0-61.3 2.3-83.5 9-20.8 6.2-35.9 15.8-48.6 25.7-22 17.3-37.5 41.7-44.2 59.1-13.6 35-13.7 74.8-13.7 99.8v316.8c0 25 0.1 64.8 13.7 99.8 6.7 17.4 22.2 41.8 44.2 59.1 12.7 9.9 27.8 19.5 48.6 25.7 22.2 6.7 49.5 9 83.5 9h311c34 0 61.3-2.3 83.5-9 20.8-6.2 35.9-15.8 48.6-25.7 22-17.3 37.5-41.7 44.2-59.1 13.6-35 13.7-74.8 13.7-99.8v-316.8c0-25-0.1-64.8-13.7-99.8z"/><path fill-rule="evenodd" d="m345.5 122.3c-140 0-253.5 95.4-253.5 213.2 0 74.9 43.8 137.2 111.8 176.8 21.5 12.5 1.5 37.9-17.2 57.9-10 10.7-8.4 14 4.6 10.6 65.4-16.6 67.3-43.4 96.8-37.7 18.4 3.6 37.7 5.5 57.5 5.5 140 0 253.4-95.4 253.4-213.1 0-117.8-113.4-213.2-253.4-213.2z"/></svg>