<svg width="24" height="24" viewBox="0 0 24 24" fill="none" xmlns="http://www.w3.org/2000/svg">
<g clip-path="url(#clip0_55681_261)">
<path fill-rule="evenodd" clip-rule="evenodd" d="M23.3115 3.19773C23.083 2.60455 22.5546 1.77273 21.8046 1.18295C21.3751 0.845455 20.8569 0.518182 20.1478 0.306818C19.391 0.0784091 18.4603 0 17.3012 0H6.69895C5.53986 0 4.60918 0.0784091 3.85236 0.306818C3.14327 0.518182 2.6285 0.845455 2.19554 1.18295C1.44554 1.77273 0.917134 2.60455 0.688725 3.19773C0.225089 4.39091 0.22168 5.74773 0.22168 6.6V17.4C0.22168 18.2523 0.225089 19.6091 0.688725 20.8023C0.917134 21.3955 1.44554 22.2273 2.19554 22.817C2.6285 23.1545 3.14327 23.4818 3.85236 23.6932C4.60918 23.9216 5.53986 24 6.69895 24H17.3012C18.4603 24 19.391 23.9216 20.1478 23.6932C20.8569 23.4818 21.3717 23.1545 21.8046 22.817C22.5546 22.2273 23.083 21.3955 23.3115 20.8023C23.7751 19.6091 23.7785 18.2523 23.7785 17.4V6.6C23.7785 5.74773 23.7751 4.39091 23.3115 3.19773Z" fill="url(#paint0_linear_55681_261)"/>
<path fill-rule="evenodd" clip-rule="evenodd" d="M12 4.17145C7.22723 4.17145 3.35791 7.42372 3.35791 11.4396C3.35791 13.993 4.85109 16.1169 7.16927 17.4669C7.90223 17.893 7.22041 18.759 6.58291 19.4408C6.242 19.8055 6.29655 19.918 6.73973 19.8021C8.96927 19.2362 9.03405 18.3226 10.0397 18.5169C10.667 18.6396 11.325 18.7044 12 18.7044C16.7727 18.7044 20.6386 15.4521 20.6386 11.4396C20.6386 7.42372 16.7727 4.17145 12 4.17145Z" fill="white"/>
</g>
<defs>
<linearGradient id="paint0_linear_55681_261" x1="12.0002" y1="0.000102273" x2="12.0002" y2="24" gradientUnits="userSpaceOnUse">
<stop stop-color="#5DF877"/>
<stop offset="1" stop-color="#0ABB28"/>
</linearGradient>
<clipPath id="clip0_55681_261">
<rect width="24" height="24" fill="white"/>
</clipPath>
</defs>
</svg>
