<svg xmlns="http://www.w3.org/2000/svg" viewBox="0 0 24 24"><path fill-rule="evenodd" clip-rule="evenodd" d="M12 0C5.2401 0 0 4.9518 0 11.64C0 15.1383 1.4337 18.1614 3.7686 20.2494C3.9645 20.4249 4.083 20.6706 4.0911 20.9337L4.1565 23.0682C4.1775 23.7492 4.8807 24.192 5.5038 23.9172L7.8855 22.8657C8.0874 22.7766 8.3136 22.7601 8.5263 22.8186C9.6207 23.1195 10.7856 23.28 12 23.28C18.7599 23.28 24 18.3282 24 11.64C24 4.9518 18.7599 0 12 0Z"/><path fill-rule="evenodd" clip-rule="evenodd" d="M4.794 15.0441L8.319 9.4515C8.8797 8.5617 10.0803 8.3403 10.9218 8.9712L13.7253 11.0739C13.9824 11.2668 14.3364 11.2659 14.5926 11.0715L18.3789 8.1978C18.8844 7.8144 19.5441 8.4192 19.2057 8.9559L15.6807 14.5485C15.12 15.438 13.9191 15.6597 13.0779 15.0288L10.2741 12.9261C10.017 12.7332 9.663 12.7341 9.4068 12.9285L5.6205 15.8022C5.115 16.1856 4.4556 15.5808 4.794 15.0441Z"/><defs><radialGradient cx="0" cy="0" r="1" gradientUnits="userSpaceOnUse" gradientTransform="translate(4.59 23.8617) scale(26.16)"><stop stop-color="#0099FF"/><stop offset="0.61" stop-color="#A033FF"/><stop offset="0.93" stop-color="#FF5280"/><stop offset="1" stop-color="#FF7061"/></radialGradient></defs></svg>