<svg xmlns="http://www.w3.org/2000/svg" viewBox="0 0 24 24"><path d="M23.9521 12C23.9521 5.37264 18.5902 0 11.976 0C5.36192 0 0 5.37264 0 12C0 17.6275 3.86683 22.3498 9.08311 23.6467V15.6672H6.61365V12H9.08311V10.4198C9.08311 6.33552 10.9279 4.4424 14.9298 4.4424C15.6886 4.4424 16.9978 4.59168 17.5334 4.74048V8.06448C17.2508 8.03472 16.7598 8.01984 16.1499 8.01984C14.1863 8.01984 13.4275 8.76528 13.4275 10.703V12H17.3394L16.6673 15.6672H13.4275V23.9122C19.3576 23.1946 23.9521 18.1354 23.9521 12Z"/><path d="M16.6673 15.6672L17.3394 12H13.4275V10.703C13.4275 8.76528 14.1863 8.01984 16.1499 8.01984C16.7598 8.01984 17.2508 8.03472 17.5334 8.06448V4.74048C16.9978 4.59168 15.6886 4.4424 14.9298 4.4424C10.9279 4.4424 9.08311 6.33552 9.08311 10.4198V12H6.61365V15.6672H9.08311V23.6467C10.0096 23.8771 10.9782 24 11.9756 24C12.4666 24 12.9519 23.9698 13.4275 23.9122V15.6672H16.6673Z"/></svg>