<svg xmlns="http://www.w3.org/2000/svg" viewBox="0 0 11 11"><path d="M0.1875 0C3.54938 0 6.91125 0 10.375 0C10.4979 0.655519 10.5924 1.202 10.582 1.85156C10.5813 1.92652 10.5806 2.00148 10.5799 2.0787C10.5635 3.16122 10.4629 4.20214 10.1875 5.25C10.1707 5.31603 10.1707 5.31603 10.1536 5.38339C9.68791 7.19339 8.7181 9.00053 7.25 10.1875C7.19989 10.148 7.14978 10.1085 7.09814 10.0679C6.67576 9.73541 6.25248 9.40416 5.82812 9.07422C5.78143 9.03788 5.73474 9.00154 5.68663 8.9641C5.43797 8.77068 5.1889 8.57783 4.93921 8.38574C4.88855 8.34665 4.8379 8.30756 4.78571 8.26729C4.68904 8.19271 4.59225 8.11831 4.4953 8.04411C4.25043 7.85491 4.02545 7.66217 3.8125 7.4375C3.86463 7.40036 3.91675 7.36322 3.97046 7.32495C5.11549 6.4902 5.57892 5.53495 6 4.1875C4.08187 4.1875 2.16375 4.1875 0.1875 4.1875C0.1875 2.80562 0.1875 1.42375 0.1875 0Z"/></svg>