<svg xmlns="http://www.w3.org/2000/svg" viewBox="0 0 512 512">
  <circle fill="#FFF" cx="256" cy="256" r="256" />
  <path fill="#EA4436" d="M103.323 179.911c25.101-49.697 64.758-81.539 119.009-93.389 55.8-12.188 106.138 1.088 150.292 37.43.752.62 1.446 1.309 1.82 1.65l-50.786 50.79c-30.456-23.121-64.633-29.232-101.283-15.15-29.43 11.308-49.183 32.72-60.362 62.656-19.942-14.535-39.316-29.261-58.69-43.987z" />
  <path fill="#35A854" d="M162.13 289.847c6.993 18.759 17.637 34.972 33.427 47.519 34.435 27.362 83.578 30.422 122.351 7.737 8.625 6.318 16.568 12.611 24.624 18.758 10.418 7.948 20.926 15.78 31.396 23.66-14.936 14.942-32.734 25.387-52.293 32.946-83.036 32.093-178.902-5.576-217.746-85.99 19.522-15.165 38.882-29.898 58.241-44.63z" />
  <path fill="#4285F4" d="M374.243 387.338c-10.785-7.698-21.293-15.529-31.71-23.477-8.057-6.147-16-12.44-24.283-18.853 14.816-10.563 26.017-23.994 31.89-41.54 1.2-3.58 2.1-7.261 3.308-11.487h-93.182v-66.59h163.326c7.378 61.163-3.244 116.645-49.349 161.947z" />
  <path fill="#FBBC06" d="M162.102 289.46c-19.331 15.12-38.69 29.852-58.345 44.732-24.32-51.031-24.387-102.287-.608-153.949 19.548 14.394 38.922 29.12 58.645 43.953-6.252 21.69-6.622 43.279.308 65.263z" />
</svg>
