<svg width="24" height="24" viewBox="0 0 24 24" fill="none" xmlns="http://www.w3.org/2000/svg">
<g clip-path="url(#clip0_72473_5824)">
<path d="M24 12C24 5.37258 18.6274 0 12 0C5.37258 0 0 5.37258 0 12C0 18.6274 5.37258 24 12 24C18.6274 24 24 18.6274 24 12Z" fill="white"/>
<path d="M22 12.2273C22 11.5182 21.9351 10.8364 21.8145 10.1818H12.2041V14.05H17.6957C17.4592 15.3 16.7403 16.3591 15.6596 17.0682V19.5773H18.9574C20.8869 17.8364 22 15.2727 22 12.2273Z" fill="#4285F4"/>
<path d="M12.2042 22.0001C14.9593 22.0001 17.2691 21.1046 18.9574 19.5774L15.6596 17.0683C14.746 17.6683 13.5771 18.0228 12.2042 18.0228C9.54647 18.0228 7.29698 16.2637 6.49453 13.9001H3.08545V16.491C4.76453 19.7592 8.21535 22.0001 12.2042 22.0001Z" fill="#34A853"/>
<path d="M6.49439 13.9001C6.29031 13.3001 6.17439 12.6592 6.17439 12.0001C6.17439 11.341 6.29031 10.7001 6.49439 10.1001V7.50916H3.08531C2.39429 8.85916 2 10.3865 2 12.0001C2 13.6137 2.39429 15.141 3.08531 16.491L6.49439 13.9001Z" fill="#FBBC04"/>
<path d="M12.2042 5.9773C13.7023 5.9773 15.0474 6.4818 16.1049 7.4727L19.0317 4.6045C17.2645 2.9909 14.9546 2 12.2042 2C8.21535 2 4.76453 4.2409 3.08545 7.5091L6.49453 10.1C7.29698 7.7364 9.54647 5.9773 12.2042 5.9773Z" fill="#E94235"/>
</g>
<defs>
<clipPath id="clip0_72473_5824">
<rect width="24" height="24" fill="white"/>
</clipPath>
</defs>
</svg>
