<svg xmlns="http://www.w3.org/2000/svg" viewBox="0 0 24 24"><path d="M0 12C0 15.2618 0.0144029 15.6701 0.0720144 16.948C0.129626 18.2258 0.336067 19.1001 0.628926 19.8639C0.936187 20.6517 1.34427 21.3243 2.0116 21.9872C2.67413 22.6501 3.34627 23.0681 4.13363 23.3707C4.89698 23.6685 5.77075 23.8703 7.04781 23.9279C8.32967 23.9856 8.73775 24 11.9928 24C15.2527 24 15.6607 23.9856 16.9378 23.9279C18.2148 23.8703 19.0886 23.6637 19.852 23.3707C20.6393 23.0633 21.3115 22.6549 21.974 21.9872C22.6365 21.3243 23.0542 20.6517 23.3567 19.8639C23.6543 19.1001 23.856 18.2258 23.9136 16.948C23.9712 15.6653 23.9856 15.257 23.9856 12C23.9856 8.73819 23.9712 8.32986 23.9136 7.05204C23.856 5.77422 23.6495 4.89992 23.3567 4.13611C23.0494 3.34828 22.6413 2.67574 21.974 2.01281C21.3163 1.34508 20.6441 0.931946 19.8568 0.629304C19.0934 0.331465 18.2196 0.129704 16.9426 0.0720576C15.6607 0.0144115 15.2527 0 11.9976 0C8.73775 0 8.32967 0.0144115 7.05261 0.0720576C5.77555 0.129704 4.90178 0.336269 4.13843 0.629304C3.35107 0.93675 2.67894 1.34508 2.0164 2.01281C1.35387 2.68054 0.936187 3.34828 0.633727 4.13611C0.336067 4.89992 0.129626 5.77422 0.0720144 7.05204C0.0144029 8.32986 0 8.73819 0 12ZM2.16523 12C2.16523 8.79584 2.17964 8.41153 2.23725 7.14812C2.29006 5.97598 2.4869 5.33707 2.65013 4.91914C2.86617 4.36189 3.13023 3.95837 3.55271 3.53563C3.97519 3.11289 4.37367 2.85829 4.93539 2.63251C5.35787 2.46918 5.9964 2.27222 7.16303 2.21938C8.42568 2.16173 8.80496 2.14732 12.012 2.14732C15.219 2.14732 15.5983 2.16173 16.861 2.21938C18.0324 2.27222 18.6709 2.46918 19.0886 2.63251C19.6455 2.84868 20.0488 3.11289 20.4713 3.53563C20.8938 3.95837 21.1482 4.35709 21.3739 4.91914C21.5371 5.34187 21.7339 5.98079 21.7868 7.14812C21.8444 8.41153 21.8588 8.79103 21.8588 12C21.8588 15.209 21.8444 15.5885 21.7868 16.8519C21.7339 18.024 21.5371 18.6629 21.3739 19.0809C21.1578 19.6381 20.8938 20.0416 20.4713 20.4644C20.0488 20.8871 19.6503 21.1417 19.0886 21.3675C18.6661 21.5308 18.0276 21.7278 16.861 21.7806C15.5983 21.8383 15.219 21.8527 12.012 21.8527C8.80496 21.8527 8.42568 21.8383 7.16303 21.7806C5.9916 21.7278 5.35307 21.5308 4.93539 21.3675C4.37848 21.1513 3.97519 20.8871 3.55271 20.4644C3.13023 20.0416 2.87578 19.6429 2.65013 19.0809C2.4869 18.6581 2.29006 18.0192 2.23725 16.8519C2.17483 15.5885 2.16523 15.2042 2.16523 12Z"/><defs><linearGradient x1="14" y1="5.5" x2="9.99186" y2="24.4983" gradientUnits="userSpaceOnUse"><stop offset="0.2341" stop-color="#9E35A5" stop-opacity="0"/><stop offset="0.4512" stop-color="#D42F7F" stop-opacity="0.5"/><stop offset="0.7524" stop-color="#E9622C"/><stop offset="0.9624" stop-color="#F7D147"/></linearGradient></defs></svg>