<svg xmlns="http://www.w3.org/2000/svg" viewBox="0 0 24 24"><path d="M23.933 7.05204C23.8754 5.77422 23.669 4.89992 23.3761 4.13611C23.0689 3.34828 22.6608 2.67574 21.9934 2.01281C21.3261 1.34988 20.6588 0.931946 19.8714 0.629304C19.1081 0.331465 18.2343 0.129704 16.9572 0.0720576C15.6754 0.0144115 15.2673 0 12.0122 0C8.7524 0 8.34431 0.0144115 7.06726 0.0720576C5.7902 0.129704 4.91643 0.336269 4.15308 0.629304C3.36092 0.93675 2.68878 1.34508 2.02625 2.01281C1.36372 2.68054 0.946035 3.34828 0.643574 4.13611C0.350716 4.89992 0.144274 5.77422 0.0866628 7.05204C0.0290513 8.33467 0.0146484 8.743 0.0146484 12C0.0146484 15.2618 0.0290513 15.6701 0.0866628 16.948C0.144274 18.2258 0.350716 19.1001 0.643574 19.8639C0.950836 20.6517 1.35892 21.3243 2.02625 21.9872C2.68878 22.6549 3.36092 23.0681 4.14827 23.3707C4.91163 23.6685 5.7854 23.8703 7.06246 23.9279C8.34431 23.9856 8.7524 24 12.0074 24C15.2673 24 15.6754 23.9856 16.9524 23.9279C18.2295 23.8703 19.1033 23.6637 19.8666 23.3707C20.654 23.0633 21.3261 22.6549 21.9886 21.9872C22.6512 21.3195 23.0689 20.6517 23.3713 19.8639C23.669 19.1001 23.8706 18.2258 23.9282 16.948C23.9858 15.6653 24.0002 15.257 24.0002 12C24.0002 8.743 23.9906 8.32986 23.933 7.05204ZM21.7774 16.8519C21.7246 18.024 21.5278 18.6629 21.3645 19.0809C21.1485 19.6381 20.8844 20.0416 20.4619 20.4644C20.0395 20.8871 19.641 21.1417 19.0793 21.3675C18.6568 21.5308 18.0182 21.7278 16.8516 21.7806C15.589 21.8383 15.2097 21.8527 12.0026 21.8527C8.7956 21.8527 8.41633 21.8383 7.15368 21.7806C5.98224 21.7278 5.34371 21.5308 4.92603 21.3675C4.36912 21.1513 3.96584 20.8871 3.54335 20.4644C3.12087 20.0416 2.86642 19.6429 2.64077 19.0809C2.47754 18.6581 2.2807 18.0192 2.22789 16.8519C2.17028 15.5885 2.15588 15.209 2.15588 12C2.15588 8.79103 2.17028 8.41153 2.22789 7.14812C2.2807 5.97598 2.47754 5.33707 2.64077 4.91914C2.85682 4.36189 3.12087 3.95837 3.54335 3.53563C3.96584 3.11289 4.36432 2.85829 4.92603 2.63251C5.34852 2.46918 5.98704 2.27222 7.15368 2.21938C8.41633 2.16173 8.7956 2.14732 12.0026 2.14732C15.2097 2.14732 15.589 2.16173 16.8516 2.21938C18.0231 2.27222 18.6616 2.46918 19.0793 2.63251C19.6362 2.84868 20.0395 3.11289 20.4619 3.53563C20.8844 3.95837 21.1389 4.35709 21.3645 4.91914C21.5278 5.34187 21.7246 5.98079 21.7774 7.14812C21.835 8.41153 21.8494 8.79103 21.8494 12C21.8494 15.209 21.8302 15.5885 21.7774 16.8519Z"/><path d="M23.933 7.05204C23.8754 5.77422 23.669 4.89992 23.3761 4.13611C23.0689 3.34828 22.6608 2.67574 21.9934 2.01281C21.3261 1.34988 20.6588 0.931946 19.8714 0.629304C19.1081 0.331465 18.2343 0.129704 16.9572 0.0720576C15.6754 0.0144115 15.2673 0 12.0122 0C8.7524 0 8.34431 0.0144115 7.06726 0.0720576C5.7902 0.129704 4.91643 0.336269 4.15308 0.629304C3.36092 0.93675 2.68878 1.34508 2.02625 2.01281C1.36372 2.68054 0.946035 3.34828 0.643574 4.13611C0.350716 4.89992 0.144274 5.77422 0.0866628 7.05204C0.0290513 8.33467 0.0146484 8.743 0.0146484 12C0.0146484 15.2618 0.0290513 15.6701 0.0866628 16.948C0.144274 18.2258 0.350716 19.1001 0.643574 19.8639C0.950836 20.6517 1.35892 21.3243 2.02625 21.9872C2.68878 22.6549 3.36092 23.0681 4.14827 23.3707C4.91163 23.6685 5.7854 23.8703 7.06246 23.9279C8.34431 23.9856 8.7524 24 12.0074 24C15.2673 24 15.6754 23.9856 16.9524 23.9279C18.2295 23.8703 19.1033 23.6637 19.8666 23.3707C20.654 23.0633 21.3261 22.6549 21.9886 21.9872C22.6512 21.3195 23.0689 20.6517 23.3713 19.8639C23.669 19.1001 23.8706 18.2258 23.9282 16.948C23.9858 15.6653 24.0002 15.257 24.0002 12C24.0002 8.743 23.9906 8.32986 23.933 7.05204ZM21.7774 16.8519C21.7246 18.024 21.5278 18.6629 21.3645 19.0809C21.1485 19.6381 20.8844 20.0416 20.4619 20.4644C20.0395 20.8871 19.641 21.1417 19.0793 21.3675C18.6568 21.5308 18.0182 21.7278 16.8516 21.7806C15.589 21.8383 15.2097 21.8527 12.0026 21.8527C8.7956 21.8527 8.41633 21.8383 7.15368 21.7806C5.98224 21.7278 5.34371 21.5308 4.92603 21.3675C4.36912 21.1513 3.96584 20.8871 3.54335 20.4644C3.12087 20.0416 2.86642 19.6429 2.64077 19.0809C2.47754 18.6581 2.2807 18.0192 2.22789 16.8519C2.17028 15.5885 2.15588 15.209 2.15588 12C2.15588 8.79103 2.17028 8.41153 2.22789 7.14812C2.2807 5.97598 2.47754 5.33707 2.64077 4.91914C2.85682 4.36189 3.12087 3.95837 3.54335 3.53563C3.96584 3.11289 4.36432 2.85829 4.92603 2.63251C5.34852 2.46918 5.98704 2.27222 7.15368 2.21938C8.41633 2.16173 8.7956 2.14732 12.0026 2.14732C15.2097 2.14732 15.589 2.16173 16.8516 2.21938C18.0231 2.27222 18.6616 2.46918 19.0793 2.63251C19.6362 2.84868 20.0395 3.11289 20.4619 3.53563C20.8844 3.95837 21.1389 4.35709 21.3645 4.91914C21.5278 5.34187 21.7246 5.98079 21.7774 7.14812C21.835 8.41153 21.8494 8.79103 21.8494 12C21.8494 15.209 21.8302 15.5885 21.7774 16.8519Z"/><path d="M12.0028 5.83188C8.59413 5.83188 5.83838 8.59409 5.83838 12C5.83838 15.4107 8.59893 18.1681 12.0028 18.1681C15.4067 18.1681 18.1672 15.4011 18.1672 12C18.1672 8.58928 15.4115 5.83188 12.0028 5.83188ZM12.0028 16.0016C9.79437 16.0016 8.00361 14.2098 8.00361 12C8.00361 9.79025 9.79437 7.99841 12.0028 7.99841C14.2113 7.99841 16.002 9.79025 16.002 12C16.002 14.2098 14.2113 16.0016 12.0028 16.0016Z"/><path d="M12.0028 5.83188C8.59413 5.83188 5.83838 8.59409 5.83838 12C5.83838 15.4107 8.59893 18.1681 12.0028 18.1681C15.4067 18.1681 18.1672 15.4011 18.1672 12C18.1672 8.58928 15.4115 5.83188 12.0028 5.83188ZM12.0028 16.0016C9.79437 16.0016 8.00361 14.2098 8.00361 12C8.00361 9.79025 9.79437 7.99841 12.0028 7.99841C14.2113 7.99841 16.002 9.79025 16.002 12C16.002 14.2098 14.2113 16.0016 12.0028 16.0016Z"/><path d="M18.4071 7.03282C19.2025 7.03282 19.8474 6.38759 19.8474 5.59167C19.8474 4.79574 19.2025 4.15051 18.4071 4.15051C17.6116 4.15051 16.9668 4.79574 16.9668 5.59167C16.9668 6.38759 17.6116 7.03282 18.4071 7.03282Z"/><defs><linearGradient x1="20.2957" y1="1.8352" x2="2.93328" y2="23.1076" gradientUnits="userSpaceOnUse"><stop stop-color="#AE3DAE"/><stop offset="0.0468721" stop-color="#B23BA6"/><stop offset="0.1216" stop-color="#BD368E"/><stop offset="0.2148" stop-color="#CE2E69"/><stop offset="0.3216" stop-color="#E62361"/><stop offset="0.418" stop-color="#FF006F"/></linearGradient><radialGradient cx="0" cy="0" r="1" gradientUnits="userSpaceOnUse" gradientTransform="translate(0.999999 -1.5) rotate(70.71) scale(10.5948 43.6481)"><stop stop-color="#3771C8"/><stop offset="0.316261" stop-color="#6922F5"/><stop offset="1" stop-color="#6600FF" stop-opacity="0"/></radialGradient><linearGradient x1="14.9427" y1="7.05287" x2="8.63529" y2="17.6514" gradientUnits="userSpaceOnUse"><stop stop-color="#E12F6A"/><stop offset="0.1705" stop-color="#EA3751"/><stop offset="0.3563" stop-color="#F13D3E"/><stop offset="0.5467" stop-color="#F64133"/><stop offset="0.7469" stop-color="#F7422F"/><stop offset="0.7946" stop-color="#F74C2F"/><stop offset="0.8743" stop-color="#F7652F"/><stop offset="0.9757" stop-color="#F78F2E"/><stop offset="1" stop-color="#F79A2E"/></linearGradient><radialGradient cx="0" cy="0" r="1" gradientUnits="userSpaceOnUse" gradientTransform="translate(14.5 -4) rotate(101.889) scale(19.4165 79.9913)"><stop stop-color="#EA33AE"/><stop offset="1" stop-color="#EA33AC" stop-opacity="0.08"/></radialGradient></defs></svg>