<svg width="24" height="24" viewBox="0 0 24 24" fill="none" xmlns="http://www.w3.org/2000/svg">
<g clip-path="url(#clip0_32119_98)">
<path d="M16.7403 9.25H22.9395C23.5252 9.25 24 9.71786 24 10.295V15.8593C24 17.9805 22.255 19.7 20.1025 19.7H20.0841C17.9316 19.7003 16.1863 17.981 16.186 15.8599C16.186 15.8597 16.186 15.8595 16.186 15.8593V9.79616C16.186 9.49452 16.4342 9.25 16.7403 9.25Z" fill="#5059C9"/>
<path d="M20.9301 8.15001C22.3172 8.15001 23.4417 7.04192 23.4417 5.67501C23.4417 4.30811 22.3172 3.20001 20.9301 3.20001C19.543 3.20001 18.4185 4.30811 18.4185 5.67501C18.4185 7.04192 19.543 8.15001 20.9301 8.15001Z" fill="#5059C9"/>
<path d="M13.1162 8.15001C15.1198 8.15001 16.7441 6.54943 16.7441 4.575C16.7441 2.60058 15.1198 1 13.1162 1C11.1126 1 9.48828 2.60058 9.48828 4.575C9.48828 6.54943 11.1126 8.15001 13.1162 8.15001Z" fill="#7B83EB"/>
<path d="M17.9535 9.25H7.7206C7.1419 9.26411 6.68411 9.73737 6.69754 10.3077V16.6541C6.61673 20.0763 9.3643 22.9163 12.8371 23C16.3099 22.9163 19.0574 20.0763 18.9766 16.6541V10.3077C18.99 9.73737 18.5322 9.26411 17.9535 9.25Z" fill="#7B83EB"/>
<path opacity="0.1" d="M13.3952 9.25V18.1435C13.3925 18.5513 13.1417 18.9177 12.759 19.073C12.6371 19.1238 12.5061 19.15 12.3738 19.15H7.18872C7.11617 18.9685 7.04919 18.787 6.99337 18.6C6.798 17.9689 6.69831 17.3128 6.69755 16.653V10.306C6.68414 9.73663 7.14117 9.26411 7.71895 9.25H13.3952Z" fill="black"/>
<path opacity="0.2" d="M12.8371 9.25V18.6935C12.8371 18.8239 12.8105 18.9529 12.759 19.073C12.6014 19.4501 12.2296 19.6973 11.8157 19.7H7.45105C7.35617 19.5185 7.26687 19.337 7.18872 19.15C7.11058 18.963 7.04919 18.787 6.99337 18.6C6.798 17.9689 6.69831 17.3128 6.69755 16.653V10.306C6.68414 9.73663 7.14117 9.26411 7.71895 9.25H12.8371Z" fill="black"/>
<path opacity="0.2" d="M12.8371 9.25V17.5935C12.8328 18.1476 12.378 18.5958 11.8157 18.6H6.99337C6.798 17.9689 6.69831 17.3128 6.69755 16.653V10.306C6.68414 9.73663 7.14117 9.26411 7.71895 9.25H12.8371Z" fill="black"/>
<path opacity="0.2" d="M12.2789 9.25V17.5935C12.2747 18.1476 11.8199 18.5958 11.2576 18.6H6.99337C6.798 17.9689 6.69831 17.3128 6.69755 16.653V10.306C6.68414 9.73663 7.14117 9.26411 7.71895 9.25H12.2789Z" fill="black"/>
<path opacity="0.1" d="M13.3954 6.40651V8.13901C13.3005 8.14451 13.2112 8.15002 13.1163 8.15002C13.0214 8.15002 12.9321 8.14452 12.8372 8.13901C12.6488 8.12669 12.462 8.09724 12.2791 8.05102C11.1489 7.78726 10.2151 7.00617 9.76748 5.95002C9.69045 5.77266 9.63066 5.5885 9.58887 5.40002H12.374C12.9372 5.40213 13.3932 5.85151 13.3954 6.40651Z" fill="black"/>
<path opacity="0.2" d="M12.8373 6.9565V8.13901C12.6489 8.12669 12.4621 8.09723 12.2792 8.05101C11.149 7.78725 10.2152 7.00616 9.76758 5.95001H11.8159C12.3792 5.95211 12.8352 6.40151 12.8373 6.9565Z" fill="black"/>
<path opacity="0.2" d="M12.8373 6.9565V8.13901C12.6489 8.12669 12.4621 8.09723 12.2792 8.05101C11.149 7.78725 10.2152 7.00616 9.76758 5.95001H11.8159C12.3792 5.95211 12.8352 6.40151 12.8373 6.9565Z" fill="black"/>
<path opacity="0.2" d="M12.2792 6.95651V8.05101C11.149 7.78725 10.2152 7.00616 9.76758 5.95001H11.2578C11.821 5.95212 12.2771 6.40152 12.2792 6.95651Z" fill="black"/>
<path d="M1.02306 5.95001H11.256C11.821 5.95001 12.2791 6.40138 12.2791 6.95816V17.0419C12.2791 17.5986 11.821 18.05 11.256 18.05H1.02306C0.458037 18.05 0 17.5986 0 17.0419V6.95816C0 6.40138 0.458048 5.95001 1.02306 5.95001Z" fill="url(#paint0_linear_32119_98)"/>
<path d="M8.8322 9.78788H6.78661V15.2769H5.48336V9.78788H3.44727V8.72308H8.8322V9.78788Z" fill="white"/>
</g>
<defs>
<linearGradient id="paint0_linear_32119_98" x1="2.13312" y1="5.16226" x2="9.97068" y2="18.9375" gradientUnits="userSpaceOnUse">
<stop stop-color="#5A62C3"/>
<stop offset="0.5" stop-color="#4D55BD"/>
<stop offset="1" stop-color="#3940AB"/>
</linearGradient>
<clipPath id="clip0_32119_98">
<rect width="24" height="22" fill="white" transform="translate(0 1)"/>
</clipPath>
</defs>
</svg>
