<svg width="32" height="30" viewBox="0 0 32 30" fill="none" xmlns="http://www.w3.org/2000/svg">
<g clip-path="url(#clip0_32119_98)">
<path d="M22.3205 11.0769H30.5862C31.3671 11.0769 32.0002 11.7051 32.0002 12.48V19.951C32.0002 22.799 29.6735 25.1077 26.8035 25.1077H26.7789C23.9089 25.1081 21.582 22.7997 21.5815 19.9517C21.5815 19.9515 21.5815 19.9512 21.5815 19.951V11.8102C21.5816 11.4052 21.9124 11.0769 22.3205 11.0769Z" fill="#5059C9"/>
<path d="M27.9069 9.60001C29.7565 9.60001 31.2558 8.11222 31.2558 6.27694C31.2558 4.44165 29.7565 2.95386 27.9069 2.95386C26.0574 2.95386 24.5581 4.44165 24.5581 6.27694C24.5581 8.11222 26.0574 9.60001 27.9069 9.60001Z" fill="#5059C9"/>
<path d="M17.4886 9.60001C20.1601 9.60001 22.3258 7.45098 22.3258 4.80001C22.3258 2.14904 20.1601 0 17.4886 0C14.8171 0 12.6514 2.14904 12.6514 4.80001C12.6514 7.45098 14.8171 9.60001 17.4886 9.60001Z" fill="#7B83EB"/>
<path d="M23.9381 11.0769H10.2941C9.52253 11.0959 8.91215 11.7313 8.93005 12.497V21.0181C8.8223 25.613 12.4857 29.426 17.1161 29.5385C21.7465 29.426 25.4099 25.613 25.3022 21.0181V12.497C25.32 11.7313 24.7097 11.0959 23.9381 11.0769Z" fill="#7B83EB"/>
<path opacity="0.1" d="M17.8603 11.0769V23.0178C17.8566 23.5654 17.5222 24.0573 17.0119 24.2658C16.8495 24.334 16.6749 24.3692 16.4985 24.3692H9.58496C9.48822 24.1255 9.39892 23.8818 9.32449 23.6308C9.064 22.7834 8.93108 21.9025 8.93007 21.0166V12.4948C8.91218 11.7303 9.52156 11.0959 10.2919 11.0769H17.8603Z" fill="black"/>
<path opacity="0.2" d="M17.1161 11.0769V23.7563C17.1161 23.9313 17.0807 24.1046 17.0119 24.2658C16.8018 24.7722 16.3061 25.104 15.7543 25.1077H9.93474C9.80822 24.864 9.68915 24.6203 9.58496 24.3692C9.48077 24.1181 9.39892 23.8818 9.32449 23.6308C9.064 22.7834 8.93108 21.9025 8.93007 21.0166V12.4948C8.91218 11.7303 9.52156 11.0959 10.2919 11.0769H17.1161Z" fill="black"/>
<path opacity="0.2" d="M17.1161 11.0769V22.2794C17.1105 23.0234 16.504 23.6251 15.7543 23.6308H9.32449C9.064 22.7834 8.93108 21.9025 8.93007 21.0166V12.4948C8.91218 11.7303 9.52156 11.0959 10.2919 11.0769H17.1161Z" fill="black"/>
<path opacity="0.2" d="M16.3719 11.0769V22.2794C16.3663 23.0234 15.7598 23.6251 15.0101 23.6308H9.32449C9.064 22.7834 8.93108 21.9025 8.93007 21.0166V12.4948C8.91218 11.7303 9.52156 11.0959 10.2919 11.0769H16.3719Z" fill="black"/>
<path opacity="0.1" d="M17.8605 7.25909V9.58524C17.734 9.59262 17.6149 9.60001 17.4884 9.60001C17.3619 9.60001 17.2428 9.59263 17.1163 9.58524C16.8651 9.5687 16.616 9.52915 16.3721 9.46709C14.8652 9.11296 13.6201 8.06422 13.0233 6.64617C12.9206 6.40804 12.8409 6.16077 12.7852 5.90771H16.4986C17.2496 5.91054 17.8577 6.5139 17.8605 7.25909Z" fill="black"/>
<path opacity="0.2" d="M17.1165 7.99755V9.58525C16.8653 9.56871 16.6161 9.52916 16.3723 9.4671C14.8653 9.11296 13.6203 8.06423 13.0234 6.64618H15.7546C16.5055 6.649 17.1136 7.25238 17.1165 7.99755Z" fill="black"/>
<path opacity="0.2" d="M17.1165 7.99755V9.58525C16.8653 9.56871 16.6161 9.52916 16.3723 9.4671C14.8653 9.11296 13.6203 8.06423 13.0234 6.64618H15.7546C16.5055 6.649 17.1136 7.25238 17.1165 7.99755Z" fill="black"/>
<path opacity="0.2" d="M16.3723 7.99756V9.4671C14.8653 9.11296 13.6203 8.06422 13.0234 6.64618H15.0104C15.7614 6.64901 16.3694 7.2524 16.3723 7.99756Z" fill="black"/>
<path d="M1.36409 6.64618H15.008C15.7614 6.64618 16.3721 7.25221 16.3721 7.99977V21.5387C16.3721 22.2863 15.7613 22.8923 15.008 22.8923H1.36409C0.610716 22.8923 0 22.2863 0 21.5387V7.99977C0 7.25221 0.61073 6.64618 1.36409 6.64618Z" fill="url(#paint0_linear_32119_98)"/>
<path d="M11.7761 11.7992H9.04865V19.169H7.31098V11.7992H4.59619V10.3695H11.7761V11.7992Z" fill="white"/>
</g>
<defs>
<linearGradient id="paint0_linear_32119_98" x1="2.84416" y1="5.5885" x2="13.4047" y2="24.0206" gradientUnits="userSpaceOnUse">
<stop stop-color="#5A62C3"/>
<stop offset="0.5" stop-color="#4D55BD"/>
<stop offset="1" stop-color="#3940AB"/>
</linearGradient>
<clipPath id="clip0_32119_98">
<rect width="32" height="29.5385" fill="white"/>
</clipPath>
</defs>
</svg>
