<svg width="32" height="32" viewBox="0 0 32 32" fill="none" xmlns="http://www.w3.org/2000/svg">
<path d="M0 14C0 6.26801 6.26801 0 14 0H18C25.732 0 32 6.26801 32 14V18C32 25.732 25.732 32 18 32H14C6.26801 32 0 25.732 0 18V14Z" fill="url(#paint0_linear_32119_96)"/>
<path d="M9.03495 17.9231H4.76573C4.48252 17.9231 4.22028 17.7885 4.08392 17.5577C3.93706 17.2885 3.98951 16.9712 4.22028 16.7692L7.1888 14.0481H5.05944C4.47203 14.0481 4 13.6058 4 13.0769H7.93355C8.21677 13.0769 8.479 13.2115 8.61537 13.4423C8.76222 13.7115 8.70977 14.0288 8.479 14.2308L5.51048 16.9519H7.97551C8.56292 16.9519 9.03495 17.3942 9.03495 17.9231ZM25.944 13C25.3356 13 24.7796 13.2404 24.402 13.6346C24.0244 13.25 23.4685 13 22.8601 13C21.7272 13 20.7936 13.8846 20.7936 14.9231V17.9231C21.3811 17.9231 21.8531 17.4904 21.8531 16.9519V14.9135C21.8531 14.4135 22.2727 13.9904 22.8181 13.9712C23.395 13.9519 23.8671 14.375 23.8671 14.8942V16.9519C23.8671 17.4904 24.3391 17.9231 24.9265 17.9231V14.9135C24.9265 14.4135 25.3461 13.9904 25.8915 13.9712C26.4684 13.9519 26.9405 14.375 26.9405 14.8942V16.9519C26.9405 17.4904 27.4125 17.9231 27.9999 17.9231V14.9231C28.0104 13.8846 27.0768 13 25.944 13ZM14.3846 15.5C14.3846 16.875 13.1573 18 11.6573 18C10.1468 18 8.93005 16.875 8.93005 15.5C8.93005 14.125 10.1573 13 11.6573 13C13.1573 13 14.3846 14.125 14.3846 15.5ZM13.3251 15.5C13.3251 14.6538 12.5804 13.9712 11.6573 13.9712C10.7342 13.9712 9.98949 14.6538 9.98949 15.5C9.98949 16.3462 10.7342 17.0288 11.6573 17.0288C12.5804 17.0288 13.3251 16.3462 13.3251 15.5ZM20.2692 15.5C20.2692 16.875 19.0419 18 17.5419 18C16.0314 18 14.8146 16.875 14.8146 15.5C14.8146 14.125 16.0419 13 17.5419 13C19.0419 13 20.2692 14.125 20.2692 15.5ZM19.2097 15.5C19.2097 14.6538 18.465 13.9712 17.5419 13.9712C16.6188 13.9712 15.8741 14.6538 15.8741 15.5C15.8741 16.3462 16.6188 17.0288 17.5419 17.0288C18.465 17.0288 19.2097 16.3462 19.2097 15.5Z" fill="white"/>
<defs>
<linearGradient id="paint0_linear_32119_96" x1="6" y1="29" x2="26" y2="2.5" gradientUnits="userSpaceOnUse">
<stop stop-color="#084ACD"/>
<stop offset="0.505" stop-color="#0B5CFF"/>
<stop offset="1" stop-color="#236EF9"/>
</linearGradient>
</defs>
</svg>
