<svg width="24" height="24" viewBox="0 0 24 24" fill="none" xmlns="http://www.w3.org/2000/svg">
<path d="M0 10.5C0 4.70101 4.70101 0 10.5 0H13.5C19.299 0 24 4.70101 24 10.5V13.5C24 19.299 19.299 24 13.5 24H10.5C4.70101 24 0 19.299 0 13.5V10.5Z" fill="url(#paint0_linear_32119_96)"/>
<path d="M6.77621 13.4423H3.5743C3.36189 13.4423 3.16521 13.3413 3.06294 13.1683C2.9528 12.9663 2.99213 12.7284 3.16521 12.5769L5.3916 10.5361H3.79458C3.35402 10.5361 3 10.2043 3 9.80769H5.95016C6.16258 9.80769 6.35925 9.90865 6.46153 10.0817C6.57167 10.2837 6.53233 10.5216 6.35925 10.6731L4.13286 12.7139H5.98163C6.42219 12.7139 6.77621 13.0457 6.77621 13.4423ZM19.458 9.75C19.0017 9.75 18.5847 9.93029 18.3015 10.226C18.0183 9.9375 17.6013 9.75 17.1451 9.75C16.2954 9.75 15.5952 10.4135 15.5952 11.1923V13.4423C16.0358 13.4423 16.3898 13.1178 16.3898 12.7139V11.1851C16.3898 10.8101 16.7045 10.4928 17.1136 10.4784C17.5463 10.4639 17.9003 10.7813 17.9003 11.1707V12.7139C17.9003 13.1178 18.2543 13.4423 18.6949 13.4423V11.1851C18.6949 10.8101 19.0096 10.4928 19.4186 10.4784C19.8513 10.4639 20.2054 10.7813 20.2054 11.1707V12.7139C20.2054 13.1178 20.5594 13.4423 20.9999 13.4423V11.1923C21.0078 10.4135 20.3076 9.75 19.458 9.75ZM10.7884 11.625C10.7884 12.6562 9.86798 13.5 8.74299 13.5C7.61012 13.5 6.69754 12.6562 6.69754 11.625C6.69754 10.5938 7.61799 9.75 8.74299 9.75C9.86798 9.75 10.7884 10.5938 10.7884 11.625ZM9.99386 11.625C9.99386 10.9904 9.43529 10.4784 8.74299 10.4784C8.05068 10.4784 7.49212 10.9904 7.49212 11.625C7.49212 12.2596 8.05068 12.7716 8.74299 12.7716C9.43529 12.7716 9.99386 12.2596 9.99386 11.625ZM15.2019 11.625C15.2019 12.6562 14.2814 13.5 13.1564 13.5C12.0236 13.5 11.111 12.6562 11.111 11.625C11.111 10.5938 12.0314 9.75 13.1564 9.75C14.2814 9.75 15.2019 10.5938 15.2019 11.625ZM14.4073 11.625C14.4073 10.9904 13.8487 10.4784 13.1564 10.4784C12.4641 10.4784 11.9056 10.9904 11.9056 11.625C11.9056 12.2596 12.4641 12.7716 13.1564 12.7716C13.8487 12.7716 14.4073 12.2596 14.4073 11.625Z" fill="white"/>
<defs>
<linearGradient id="paint0_linear_32119_96" x1="4.5" y1="21.75" x2="19.5" y2="1.875" gradientUnits="userSpaceOnUse">
<stop stop-color="#084ACD"/>
<stop offset="0.505" stop-color="#0B5CFF"/>
<stop offset="1" stop-color="#236EF9"/>
</linearGradient>
</defs>
</svg>
