<svg viewBox="0 0 16 16" xmlns="http://www.w3.org/2000/svg"><path d="M3.6 2.40002C1.6125 2.40002 0 4.01252 0 6.00002V10C0 11.9875 1.6125 13.6 3.6 13.6C5.5875 13.6 7.2 11.9875 7.2 10V6.00002C7.2 4.01252 5.5875 2.40002 3.6 2.40002ZM1.2 6.00002C1.2 4.67502 2.275 3.60002 3.6 3.60002C4.925 3.60002 6 4.67502 6 6.00002V10C6 11.325 4.925 12.4 3.6 12.4C2.275 12.4 1.2 11.325 1.2 10V6.00002ZM12.4 2.40002C10.4125 2.40002 8.8 4.01252 8.8 6.00002V10C8.8 11.9875 10.4125 13.6 12.4 13.6C14.3875 13.6 16 11.9875 16 10V6.00002C16 4.01252 14.3875 2.40002 12.4 2.40002ZM10 6.00002C10 4.67502 11.075 3.60002 12.4 3.60002C13.725 3.60002 14.8 4.67502 14.8 6.00002V10C14.8 11.325 13.725 12.4 12.4 12.4C11.075 12.4 10 11.325 10 10V6.00002Z"/></svg>