<svg viewBox="0 0 16 17" xmlns="http://www.w3.org/2000/svg"><path d="M5 0.79375C4.46875 0.3 3.75625 0 2.975 0C1.33125 0 0 1.33125 0 2.975C0 3.5625 0.171875 4.10938 0.465625 4.57188L5 0.79375ZM8 3.5C9.45869 3.5 10.8576 4.07946 11.8891 5.11091C12.9205 6.14236 13.5 7.54131 13.5 9C13.5 10.4587 12.9205 11.8576 11.8891 12.8891C10.8576 13.9205 9.45869 14.5 8 14.5C6.54131 14.5 5.14236 13.9205 4.11091 12.8891C3.07946 11.8576 2.5 10.4587 2.5 9C2.5 7.54131 3.07946 6.14236 4.11091 5.11091C5.14236 4.07946 6.54131 3.5 8 3.5ZM8 16C9.6625 16 11.1906 15.4187 12.3906 14.4531L13.7188 15.7812C14.0125 16.075 14.4875 16.075 14.7781 15.7812C15.0687 15.4875 15.0719 15.0125 14.7781 14.7219L13.45 13.3938C14.4187 12.1938 14.9969 10.6656 14.9969 9.00313C15 5.13438 11.8656 2 8 2C4.13438 2 1 5.13438 1 9C1 10.6625 1.58125 12.1906 2.54688 13.3906L1.21875 14.7188C0.925 15.0125 0.925 15.4875 1.21875 15.7781C1.5125 16.0688 1.9875 16.0719 2.27813 15.7781L3.60625 14.45C4.80625 15.4187 6.33437 15.9969 7.99687 15.9969L8 16ZM15.5344 4.575C15.8281 4.1125 16 3.5625 16 2.975C16 1.33125 14.6687 0 13.025 0C12.2437 0 11.5312 0.3 11 0.79375L15.5344 4.575ZM8.75 5.75C8.75 5.33437 8.41562 5 8 5C7.58437 5 7.25 5.33437 7.25 5.75V9C7.25 9.2 7.32812 9.39062 7.46875 9.53125L8.96875 11.0312C9.2625 11.325 9.7375 11.325 10.0281 11.0312C10.3187 10.7375 10.3219 10.2625 10.0281 9.97188L8.74687 8.69063V5.75H8.75Z"/></svg>