<svg viewBox="0 0 16 16" xmlns="http://www.w3.org/2000/svg"><path d="M1.75 1.25C1.33437 1.25 1 1.58437 1 2C1 2.41562 1.33437 2.75 1.75 2.75H9.25C9.66562 2.75 10 2.41562 10 2C10 1.58437 9.66562 1.25 9.25 1.25H1.75ZM1.75 5.25C1.33437 5.25 1 5.58437 1 6C1 6.41563 1.33437 6.75 1.75 6.75H14.25C14.6656 6.75 15 6.41563 15 6C15 5.58437 14.6656 5.25 14.25 5.25H1.75ZM1 10C1 10.4156 1.33437 10.75 1.75 10.75H9.25C9.66562 10.75 10 10.4156 10 10C10 9.58438 9.66562 9.25 9.25 9.25H1.75C1.33437 9.25 1 9.58438 1 10ZM1.75 13.25C1.33437 13.25 1 13.5844 1 14C1 14.4156 1.33437 14.75 1.75 14.75H14.25C14.6656 14.75 15 14.4156 15 14C15 13.5844 14.6656 13.25 14.25 13.25H1.75Z"/></svg>