<svg viewBox="0 0 16 16" xmlns="http://www.w3.org/2000/svg"><path d="M4.75 1.25C4.33437 1.25 4 1.58437 4 2C4 2.41562 4.33437 2.75 4.75 2.75H11.25C11.6656 2.75 12 2.41562 12 2C12 1.58437 11.6656 1.25 11.25 1.25H4.75ZM1.75 5.25C1.33437 5.25 1 5.58437 1 6C1 6.41563 1.33437 6.75 1.75 6.75H14.25C14.6656 6.75 15 6.41563 15 6C15 5.58437 14.6656 5.25 14.25 5.25H1.75ZM4 10C4 10.4156 4.33437 10.75 4.75 10.75H11.25C11.6656 10.75 12 10.4156 12 10C12 9.58438 11.6656 9.25 11.25 9.25H4.75C4.33437 9.25 4 9.58438 4 10ZM1.75 13.25C1.33437 13.25 1 13.5844 1 14C1 14.4156 1.33437 14.75 1.75 14.75H14.25C14.6656 14.75 15 14.4156 15 14C15 13.5844 14.6656 13.25 14.25 13.25H1.75Z"/></svg>