<svg viewBox="0 0 16 16" xmlns="http://www.w3.org/2000/svg"><path d="M14.25 1.25C14.6656 1.25 15 1.58437 15 2C15 2.41562 14.6656 2.75 14.25 2.75H6.75C6.33437 2.75 6 2.41562 6 2C6 1.58437 6.33437 1.25 6.75 1.25H14.25ZM14.25 5.25C14.6656 5.25 15 5.58437 15 6C15 6.41563 14.6656 6.75 14.25 6.75H1.75C1.33437 6.75 1 6.41563 1 6C1 5.58437 1.33437 5.25 1.75 5.25H14.25ZM15 10C15 10.4156 14.6656 10.75 14.25 10.75H6.75C6.33437 10.75 6 10.4156 6 10C6 9.58438 6.33437 9.25 6.75 9.25H14.25C14.6656 9.25 15 9.58438 15 10ZM14.25 13.25C14.6656 13.25 15 13.5844 15 14C15 14.4156 14.6656 14.75 14.25 14.75H1.75C1.33437 14.75 1 14.4156 1 14C1 13.5844 1.33437 13.25 1.75 13.25H14.25Z"/></svg>