<svg viewBox="0 0 16 16" xmlns="http://www.w3.org/2000/svg"><path d="M8.88885 3.11111C8.88885 3.34686 8.7952 3.57295 8.6285 3.73965C8.4618 3.90635 8.23571 4 7.99996 4C7.76421 4 7.53812 3.90635 7.37142 3.73965C7.20472 3.57295 7.11107 3.34686 7.11107 3.11111C7.11107 2.87536 7.20472 2.64927 7.37142 2.48257C7.53812 2.31587 7.76421 2.22222 7.99996 2.22222C8.23571 2.22222 8.4618 2.31587 8.6285 2.48257C8.7952 2.64927 8.88885 2.87536 8.88885 3.11111ZM7.99996 0.888885C6.77218 0.888885 5.77774 1.88333 5.77774 3.11111C5.77774 4.10833 6.43607 4.95277 7.34163 5.23333C7.33607 5.26666 7.3333 5.3 7.3333 5.33333V6.22222H5.99996C5.63052 6.22222 5.3333 6.51944 5.3333 6.88889C5.3333 7.25833 5.63052 7.55555 5.99996 7.55555H7.3333V13.7778H6.66663C4.61941 13.7778 2.95274 12.15 2.89163 10.1167L3.34441 10.5056C3.62496 10.7444 4.04441 10.7139 4.2833 10.4333C4.52218 10.1528 4.49163 9.73333 4.21107 9.49444L2.65552 8.16111C2.40552 7.94722 2.03607 7.94722 1.78885 8.16111L0.233295 9.49444C-0.0472604 9.73333 -0.0778159 10.1556 0.161073 10.4333C0.399962 10.7111 0.822184 10.7444 1.09996 10.5056L1.55552 10.1139C1.61663 12.8833 3.8833 15.1111 6.66663 15.1111H9.33329C12.1166 15.1111 14.3833 12.8833 14.4444 10.1139L14.9 10.5056C15.1805 10.7444 15.6 10.7139 15.8389 10.4333C16.0777 10.1528 16.0472 9.73333 15.7666 9.49444L14.2111 8.16111C13.9611 7.94722 13.5944 7.94722 13.3444 8.16111L11.7889 9.49444C11.5083 9.73333 11.4777 10.1556 11.7166 10.4333C11.9555 10.7111 12.3777 10.7444 12.6555 10.5056L13.1083 10.1167C13.0472 12.15 11.3805 13.7778 9.33329 13.7778H8.66663V7.55555H9.99996C10.3694 7.55555 10.6666 7.25833 10.6666 6.88889C10.6666 6.51944 10.3694 6.22222 9.99996 6.22222H8.66663V5.33333C8.66663 5.3 8.66385 5.26666 8.6583 5.23333C9.56385 4.95277 10.2222 4.10833 10.2222 3.11111C10.2222 1.88333 9.22774 0.888885 7.99996 0.888885Z"/></svg>