<svg viewBox="0 0 16 16" xmlns="http://www.w3.org/2000/svg"><path d="M15 2.75C15 2.33437 14.6656 2 14.25 2C13.8344 2 13.5 2.33437 13.5 2.75V13.25C13.5 13.6656 13.8344 14 14.25 14C14.6656 14 15 13.6656 15 13.25V2.75ZM10.7625 8.54688C10.9125 8.40625 11 8.20625 11 8C11 7.79375 10.9156 7.59688 10.7625 7.45312L6.5125 3.45312C6.20937 3.16875 5.7375 3.18438 5.45312 3.48438C5.16875 3.78437 5.18437 4.25937 5.48438 4.54375L8.35938 7.25H1.75C1.33437 7.25 1 7.58437 1 8C1 8.41563 1.33437 8.75 1.75 8.75H8.35938L5.4875 11.4531C5.18438 11.7375 5.17188 12.2125 5.45625 12.5125C5.74063 12.8125 6.21562 12.8281 6.51562 12.5437L10.7656 8.54375L10.7625 8.54688Z"/></svg>