<svg viewBox="0 0 16 16" xmlns="http://www.w3.org/2000/svg"><path d="M8.53123 0.220312C8.23748 -0.0734375 7.76248 -0.0734375 7.47185 0.220312L4.46873 3.22031C4.17498 3.51406 4.17498 3.98906 4.46873 4.27969C4.76248 4.57031 5.23748 4.57344 5.5281 4.27969L7.24685 2.56094V13.4422L5.53123 11.7203C5.23748 11.4266 4.76248 11.4266 4.47185 11.7203C4.18123 12.0141 4.1781 12.4891 4.47185 12.7797L7.47185 15.7797C7.7656 16.0734 8.2406 16.0734 8.53123 15.7797L11.5312 12.7797C11.825 12.4859 11.825 12.0109 11.5312 11.7203C11.2375 11.4297 10.7625 11.4266 10.4719 11.7203L8.7531 13.4391V2.56094L10.4719 4.27969C10.7656 4.57344 11.2406 4.57344 11.5312 4.27969C11.8219 3.98594 11.825 3.51094 11.5312 3.22031L8.53123 0.220312Z"/></svg>