<svg viewBox="0 0 16 16" xmlns="http://www.w3.org/2000/svg"><path d="M3.28437 6.3313C3.525 5.65005 3.91562 5.00942 4.46562 4.46255C6.41875 2.50942 9.58438 2.50942 11.5375 4.46255L12.0719 5.00005H10.5C9.94687 5.00005 9.5 5.44692 9.5 6.00005C9.5 6.55317 9.94687 7.00005 10.5 7.00005H14.4844H14.4969C15.05 7.00005 15.4969 6.55317 15.4969 6.00005V2.00005C15.4969 1.44692 15.05 1.00005 14.4969 1.00005C13.9437 1.00005 13.4969 1.44692 13.4969 2.00005V3.60005L12.95 3.05005C10.2156 0.315674 5.78438 0.315674 3.05 3.05005C2.2875 3.81255 1.7375 4.70942 1.4 5.6688C1.21562 6.19067 1.49063 6.75942 2.00938 6.9438C2.52813 7.12817 3.1 6.85317 3.28437 6.33442V6.3313ZM1.21875 9.04067C1.0625 9.08755 0.9125 9.17192 0.790625 9.29692C0.665625 9.42192 0.58125 9.57192 0.5375 9.73442C0.528125 9.77192 0.51875 9.81255 0.5125 9.85317C0.503125 9.9063 0.5 9.95942 0.5 10.0125V14C0.5 14.5532 0.946875 15 1.5 15C2.05313 15 2.5 14.5532 2.5 14V12.4032L3.05 12.95C5.78438 15.6813 10.2156 15.6813 12.9469 12.95C13.7094 12.1875 14.2625 11.2907 14.6 10.3344C14.7844 9.81255 14.5094 9.2438 13.9906 9.05942C13.4719 8.87505 12.9 9.15005 12.7156 9.6688C12.475 10.35 12.0844 10.9907 11.5344 11.5375C9.58125 13.4907 6.41563 13.4907 4.4625 11.5375L4.45937 11.5344L3.925 11H5.5C6.05312 11 6.5 10.5532 6.5 10C6.5 9.44692 6.05312 9.00005 5.5 9.00005H1.5125C1.4625 9.00005 1.4125 9.00317 1.3625 9.00942C1.3125 9.01567 1.26562 9.02505 1.21875 9.04067Z"/></svg>