<svg viewBox="0 0 16 16" xmlns="http://www.w3.org/2000/svg"><path d="M10 1.71429C9.525 1.71429 9.14286 1.33036 9.14286 0.857143C9.14286 0.383929 9.525 0 10 0H15.1429C15.6179 0 16 0.383929 16 0.857143V6C16 6.475 15.6179 6.85714 15.1429 6.85714C14.6679 6.85714 14.2857 6.475 14.2857 6V2.925L7.14643 10.0036C6.84286 10.3679 6.3 10.3679 5.96429 10.0036C5.63214 9.7 5.63214 9.15714 5.96429 8.82143L13.075 1.71429H10ZM0 3.14286C0 2.03821 0.895357 1.14286 2 1.14286H6C6.475 1.14286 6.85714 1.52679 6.85714 2C6.85714 2.475 6.475 2.85714 6 2.85714H2C1.84214 2.85714 1.71429 2.98571 1.71429 3.14286V14C1.71429 14.1571 1.84214 14.2857 2 14.2857H12.8571C13.0143 14.2857 13.1429 14.1571 13.1429 14V10C13.1429 9.525 13.525 9.14286 14 9.14286C14.475 9.14286 14.8571 9.525 14.8571 10V14C14.8571 15.1036 13.9607 16 12.8571 16H2C0.895357 16 0 15.1036 0 14V3.14286Z"/></svg>