<svg viewBox="0 0 17 16" xmlns="http://www.w3.org/2000/svg"><path d="M0.174985 1.775C0.409985 1.5425 0.789985 1.5425 1.02499 1.775L3.99999 4.75V3.8C3.99999 3.4675 4.26749 3.2 4.59999 3.2C4.93249 3.2 5.19999 3.4675 5.19999 3.8V6.2C5.19999 6.5325 4.93249 6.8 4.59999 6.8H2.19999C1.86749 6.8 1.59999 6.5325 1.59999 6.2C1.59999 5.8675 1.86749 5.6 2.19999 5.6H3.15249L0.174985 2.625C-0.0575146 2.39 -0.0575146 2.01 0.174985 1.775ZM15.825 1.775C16.06 2.01 16.06 2.39 15.825 2.6225L12.85 5.5975H13.8C14.1325 5.5975 14.4 5.865 14.4 6.1975C14.4 6.53 14.1325 6.7975 13.8 6.7975H11.4C11.0675 6.7975 10.8 6.53 10.8 6.1975V3.8C10.8 3.4675 11.0675 3.2 11.4 3.2C11.7325 3.2 12 3.4675 12 3.8V4.7525L14.975 1.775C15.21 1.54 15.59 1.54 15.8225 1.775H15.825ZM6.39999 8C6.39999 7.57565 6.56856 7.16869 6.86862 6.86863C7.16867 6.56857 7.57564 6.4 7.99999 6.4C8.42433 6.4 8.8313 6.56857 9.13136 6.86863C9.43141 7.16869 9.59999 7.57565 9.59999 8C9.59999 8.42435 9.43141 8.83131 9.13136 9.13137C8.8313 9.43143 8.42433 9.6 7.99999 9.6C7.57564 9.6 7.16867 9.43143 6.86862 9.13137C6.56856 8.83131 6.39999 8.42435 6.39999 8ZM10.8 12.2V9.8C10.8 9.4675 11.0675 9.2 11.4 9.2H13.8C14.1325 9.2 14.4 9.4675 14.4 9.8C14.4 10.1325 14.1325 10.4 13.8 10.4H12.8475L15.825 13.375C16.06 13.61 16.06 13.99 15.825 14.2225C15.59 14.455 15.21 14.4575 14.9775 14.2225L12.0025 11.2475V12.2C12.0025 12.5325 11.735 12.8 11.4025 12.8C11.07 12.8 10.8025 12.5325 10.8025 12.2H10.8ZM5.19999 12.2C5.19999 12.5325 4.93249 12.8 4.59999 12.8C4.26749 12.8 3.99999 12.5325 3.99999 12.2V11.2475L1.02499 14.225C0.789985 14.46 0.409985 14.46 0.177485 14.225C-0.0550147 13.99 -0.0575146 13.61 0.177485 13.3775L3.15249 10.4025H2.19999C1.86749 10.4025 1.59999 10.135 1.59999 9.8025C1.59999 9.47 1.86749 9.2025 2.19999 9.2025H4.59999C4.93249 9.2025 5.19999 9.47 5.19999 9.8025V12.2025V12.2Z"/></svg>