<svg xmlns="http://www.w3.org/2000/svg" viewBox="0 0 640 640"><!--!Font Awesome Pro 7.0.0 by @fontawesome - https://fontawesome.com License - https://fontawesome.com/license (Commercial License) Copyright 2025 Fonticons, Inc.--><path d="M497 441L601 337C610.4 327.6 610.4 312.4 601 303.1L497 199C487.6 189.6 472.4 189.6 463.1 199C453.8 208.4 453.7 223.6 463.1 232.9L526.1 295.9L114 295.9L177 232.9C186.4 223.5 186.4 208.3 177 199C167.6 189.7 152.4 189.6 143.1 199L39 303C29.6 312.4 29.6 327.6 39 336.9L143 441C152.4 450.4 167.6 450.4 176.9 441C186.2 431.6 186.3 416.4 176.9 407.1L113.9 344.1L526 344.1L463 407.1C453.6 416.5 453.6 431.7 463 441C472.4 450.3 487.6 450.4 496.9 441z"/></svg>