<svg viewBox="0 0 16 16" xmlns="http://www.w3.org/2000/svg"><path d="M15.245 8.00012C15.245 8.3659 14.8963 8.66295 14.4669 8.66295H3.4739L7.77463 12.1579C8.08657 12.4106 8.09772 12.8317 7.80097 13.0948C7.50423 13.3597 7.01212 13.3692 6.70099 13.1173L0.996931 8.47943C0.842095 8.35624 0.755005 8.18232 0.755005 8.00012C0.755005 7.81792 0.842095 7.64677 0.99604 7.51978L6.7001 2.88196C7.00977 2.63102 7.50239 2.64041 7.80056 2.90542C8.0973 3.16768 8.08615 3.58868 7.77423 3.84237L3.4735 7.3373H14.4959C14.9242 7.33758 15.245 7.63572 15.245 8.00012Z"/></svg>