<svg viewBox="0 0 16 16" xmlns="http://www.w3.org/2000/svg"><path d="M9.22034 5.71875C8.92659 6.0125 8.92659 6.4875 9.22034 6.77812C9.51409 7.06875 9.98909 7.07187 10.2797 6.77812L14.4985 2.55938V5.25C14.4985 5.66563 14.8328 6 15.2485 6C15.6641 6 15.9985 5.66563 15.9985 5.25V0.75C15.9985 0.334375 15.6641 0 15.2485 0H10.7516C10.336 0 10.0016 0.334375 10.0016 0.75C10.0016 1.16562 10.336 1.5 10.7516 1.5H13.4422L9.22034 5.71875ZM6.78284 10.2812C7.07659 9.9875 7.07659 9.5125 6.78284 9.22188C6.48909 8.93125 6.01409 8.92813 5.72346 9.22188L1.50159 13.4406V10.75C1.50159 10.3344 1.16721 10 0.751587 10C0.335962 10 0.00158691 10.3344 0.00158691 10.75V15.25C0.00158691 15.6656 0.335962 16 0.751587 16H5.25159C5.66721 16 6.00159 15.6656 6.00159 15.25C6.00159 14.8344 5.66721 14.5 5.25159 14.5H2.56096L6.78284 10.2812Z"/></svg>