<svg viewBox="0 0 16 16" xmlns="http://www.w3.org/2000/svg"><path d="M3.00068 2.2C3.00068 1.8675 3.26818 1.6 3.60068 1.6C3.93318 1.6 4.20068 1.8675 4.20068 2.2V5.1525L4.77568 4.5775C5.01068 4.3425 5.39068 4.3425 5.62318 4.5775C5.85568 4.8125 5.85818 5.1925 5.62318 5.425L4.02318 7.025C3.78818 7.26 3.40818 7.26 3.17568 7.025L1.57568 5.425C1.34068 5.19 1.34068 4.81 1.57568 4.5775C1.81068 4.345 2.19068 4.3425 2.42318 4.5775L2.99818 5.1525V2.2H3.00068ZM10.3757 4.575C10.6107 4.34 10.9907 4.34 11.2232 4.575L11.7982 5.15V2.2C11.7982 1.8675 12.0657 1.6 12.3982 1.6C12.7307 1.6 12.9982 1.8675 12.9982 2.2V5.1525L13.5732 4.5775C13.8082 4.3425 14.1882 4.3425 14.4207 4.5775C14.6532 4.8125 14.6557 5.1925 14.4207 5.425L12.8207 7.025C12.5857 7.26 12.2057 7.26 11.9732 7.025L10.3732 5.425C10.1382 5.19 10.1382 4.81 10.3732 4.5775L10.3757 4.575ZM12.4007 8C12.6659 8 12.9203 8.10536 13.1078 8.29289C13.2953 8.48043 13.4007 8.73478 13.4007 9C13.4007 9.26521 13.2953 9.51957 13.1078 9.70711C12.9203 9.89464 12.6659 10 12.4007 10C12.1355 10 11.8811 9.89464 11.6936 9.70711C11.506 9.51957 11.4007 9.26521 11.4007 9C11.4007 8.73478 11.506 8.48043 11.6936 8.29289C11.8811 8.10536 12.1355 8 12.4007 8ZM12.0007 13.2H12.8007V11.6125C12.7507 11.605 12.6982 11.6 12.6457 11.6H12.1557C12.1032 11.6 12.0507 11.605 12.0007 11.6125V13.2ZM14.4732 13.885L14.0007 13.01V13.6C14.0007 14.0425 13.6432 14.4 13.2007 14.4H11.6007C11.1582 14.4 10.8007 14.0425 10.8007 13.6V13.0075L10.3282 13.8825C10.1707 14.175 9.80818 14.2825 9.51568 14.1275C9.22318 13.9725 9.11568 13.6075 9.27068 13.315L10.1782 11.6275C10.1357 11.585 10.0982 11.5375 10.0707 11.4825L9.59818 10.6075V11.6C9.59818 12.0425 9.24068 12.4 8.79818 12.4H7.20068C6.75818 12.4 6.40068 12.0425 6.40068 11.6V10.6075L5.92818 11.4825C5.89818 11.5375 5.86318 11.585 5.82068 11.6275L6.72818 13.315C6.88568 13.6075 6.77568 13.97 6.48318 14.1275C6.19068 14.285 5.82818 14.175 5.67068 13.8825L5.19818 13.0075V13.6C5.19818 14.0425 4.84068 14.4 4.39818 14.4H2.80068C2.35818 14.4 2.00068 14.0425 2.00068 13.6V13.0075L1.52818 13.8825C1.37068 14.175 1.00818 14.2825 0.715683 14.1275C0.423183 13.9725 0.315683 13.6075 0.470683 13.315L1.41818 11.5575C1.80068 10.845 2.54568 10.4 3.35568 10.4H3.84318C4.25068 10.4 4.64068 10.5125 4.97818 10.715L5.81818 9.1575C6.20068 8.445 6.94568 8 7.75568 8H8.24318C9.05318 8 9.79568 8.445 10.1807 9.1575L11.0207 10.715C11.3582 10.5125 11.7482 10.4 12.1557 10.4H12.6432C13.4532 10.4 14.1957 10.845 14.5807 11.5575L15.5282 13.315C15.6857 13.6075 15.5757 13.97 15.2832 14.1275C14.9907 14.285 14.6282 14.175 14.4707 13.8825L14.4732 13.885ZM7.00068 6.6C7.00068 6.33478 7.10604 6.08043 7.29358 5.89289C7.48111 5.70536 7.73547 5.6 8.00068 5.6C8.2659 5.6 8.52025 5.70536 8.70779 5.89289C8.89533 6.08043 9.00068 6.33478 9.00068 6.6C9.00068 6.86521 8.89533 7.11957 8.70779 7.30711C8.52025 7.49464 8.2659 7.6 8.00068 7.6C7.73547 7.6 7.48111 7.49464 7.29358 7.30711C7.10604 7.11957 7.00068 6.86521 7.00068 6.6ZM7.60068 9.2125V11.2H8.40068V9.2125C8.35068 9.205 8.29818 9.2 8.24568 9.2H7.75568C7.70318 9.2 7.65068 9.205 7.60068 9.2125ZM3.60068 8C3.8659 8 4.12025 8.10536 4.30779 8.29289C4.49533 8.48043 4.60068 8.73478 4.60068 9C4.60068 9.26521 4.49533 9.51957 4.30779 9.70711C4.12025 9.89464 3.8659 10 3.60068 10C3.33547 10 3.08111 9.89464 2.89358 9.70711C2.70604 9.51957 2.60068 9.26521 2.60068 9C2.60068 8.73478 2.70604 8.48043 2.89358 8.29289C3.08111 8.10536 3.33547 8 3.60068 8ZM3.20068 13.2H4.00068V11.6125C3.95068 11.605 3.89818 11.6 3.84568 11.6H3.35568C3.30318 11.6 3.25068 11.605 3.20068 11.6125V13.2Z"/></svg>