<svg viewBox="0 0 16 16" xmlns="http://www.w3.org/2000/svg"><path d="M2.9375 5.84688C3.775 3.87813 5.72813 2.5 8 2.5C9.24063 2.5 10.4312 2.99375 11.3094 3.87188L12.9406 5.5H11.25C10.8344 5.5 10.5 5.83437 10.5 6.25C10.5 6.66563 10.8344 7 11.25 7H14.75C15.1656 7 15.5 6.66563 15.5 6.25V2.75C15.5 2.33438 15.1656 2 14.75 2C14.3344 2 14 2.33438 14 2.75V4.44063L12.3719 2.80938C11.2125 1.65 9.64062 1 8 1C5.10625 1 2.62187 2.75625 1.55625 5.25938C1.39375 5.64062 1.57187 6.08125 1.95312 6.24375C2.33438 6.40625 2.775 6.22813 2.9375 5.84688ZM14.4375 10.7531C14.6 10.3719 14.425 9.93125 14.0437 9.76875C13.6625 9.60625 13.2219 9.78125 13.0594 10.1625C12.2188 12.1281 10.2688 13.5 8 13.5C6.75938 13.5 5.56875 13.0063 4.69063 12.1281L3.05938 10.5H4.75C5.16563 10.5 5.5 10.1656 5.5 9.75C5.5 9.33438 5.16563 9 4.75 9H1.25C0.834375 9 0.5 9.33438 0.5 9.75V13.25C0.5 13.6656 0.834375 14 1.25 14C1.66562 14 2 13.6656 2 13.25V11.5594L3.62812 13.1875C4.7875 14.35 6.35938 15 8 15C10.8906 15 13.3687 13.25 14.4375 10.7531Z"/></svg>