<svg viewBox="0 0 16 16" xmlns="http://www.w3.org/2000/svg"><path d="M3.19934 2C3.19934 1.78 3.37934 1.6 3.59934 1.6C3.81934 1.6 3.99934 1.78 3.99934 2V5.235L4.91684 4.3175C5.07184 4.1625 5.32684 4.1625 5.48184 4.3175C5.63684 4.4725 5.63684 4.7275 5.48184 4.8825L3.88184 6.4825C3.72684 6.6375 3.47184 6.6375 3.31684 6.4825L1.71684 4.8825C1.56184 4.7275 1.56184 4.4725 1.71684 4.3175C1.87184 4.1625 2.12684 4.1625 2.28184 4.3175L3.19934 5.235V2ZM10.5168 4.3175C10.6718 4.1625 10.9268 4.1625 11.0818 4.3175L11.9993 5.235V2C11.9993 1.78 12.1793 1.6 12.3993 1.6C12.6193 1.6 12.7993 1.78 12.7993 2V5.235L13.7168 4.3175C13.8718 4.1625 14.1268 4.1625 14.2818 4.3175C14.4368 4.4725 14.4368 4.7275 14.2818 4.8825L12.6818 6.4825C12.5268 6.6375 12.2718 6.6375 12.1168 6.4825L10.5168 4.8825C10.3618 4.7275 10.3618 4.4725 10.5168 4.3175ZM8.39934 6.4C8.39934 6.29391 8.35719 6.19217 8.28218 6.11716C8.20717 6.04214 8.10542 6 7.99934 6C7.89325 6 7.79151 6.04214 7.71649 6.11716C7.64148 6.19217 7.59934 6.29391 7.59934 6.4C7.59934 6.50608 7.64148 6.60783 7.71649 6.68284C7.79151 6.75786 7.89325 6.8 7.99934 6.8C8.10542 6.8 8.20717 6.75786 8.28218 6.68284C8.35719 6.60783 8.39934 6.50608 8.39934 6.4ZM6.79934 6.4C6.79934 6.08174 6.92577 5.77651 7.15081 5.55147C7.37585 5.32643 7.68108 5.2 7.99934 5.2C8.3176 5.2 8.62282 5.32643 8.84787 5.55147C9.07291 5.77651 9.19934 6.08174 9.19934 6.4C9.19934 6.71826 9.07291 7.02348 8.84787 7.24853C8.62282 7.47357 8.3176 7.6 7.99934 7.6C7.68108 7.6 7.37585 7.47357 7.15081 7.24853C6.92577 7.02348 6.79934 6.71826 6.79934 6.4ZM7.39934 11.6H8.59934V8.8375C8.50434 8.8125 8.40684 8.8 8.30434 8.8H7.69434C7.59434 8.8 7.49434 8.8125 7.39934 8.8375V11.6ZM10.4593 11.21L9.39934 9.4875V11.6C9.39934 12.0425 9.04184 12.4 8.59934 12.4H7.39934C6.95684 12.4 6.59934 12.0425 6.59934 11.6V9.4875L5.53934 11.21C5.53434 11.2175 5.53184 11.2225 5.52684 11.23C5.55434 11.27 5.58184 11.31 5.60934 11.3525L6.74184 13.19C6.85684 13.3775 6.79934 13.625 6.61184 13.74C6.42434 13.855 6.17684 13.7975 6.06184 13.61L4.99934 11.8875V13.6C4.99934 14.0425 4.64184 14.4 4.19934 14.4H2.99934C2.55684 14.4 2.19934 14.0425 2.19934 13.6V11.8875L1.13934 13.61C1.02434 13.7975 0.776837 13.8575 0.589337 13.74C0.401837 13.6225 0.341837 13.3775 0.459337 13.19L1.59184 11.3525C1.95434 10.76 2.59934 10.4 3.29434 10.4H3.90684C4.27184 10.4 4.62434 10.5 4.92684 10.68L5.98934 8.9525C6.35434 8.36 6.99934 8 7.69434 8H8.30684C9.00184 8 9.64684 8.36 10.0093 8.9525L11.0743 10.68C11.3793 10.5 11.7293 10.4 12.0943 10.4H12.7068C13.4018 10.4 14.0468 10.76 14.4093 11.3525L15.5418 13.19C15.6568 13.3775 15.5993 13.625 15.4118 13.74C15.2243 13.855 14.9768 13.7975 14.8618 13.61L13.7993 11.8875V13.6C13.7993 14.0425 13.4418 14.4 12.9993 14.4H11.7993C11.3568 14.4 10.9993 14.0425 10.9993 13.6V11.8875L9.93934 13.61C9.82434 13.7975 9.57684 13.8575 9.38934 13.74C9.20184 13.6225 9.14184 13.3775 9.25934 13.19L10.3918 11.3525C10.4168 11.31 10.4443 11.27 10.4743 11.23C10.4693 11.2225 10.4643 11.2175 10.4618 11.21H10.4593ZM3.59934 9.2C3.70542 9.2 3.80717 9.15786 3.88218 9.08284C3.95719 9.00783 3.99934 8.90609 3.99934 8.8C3.99934 8.69391 3.95719 8.59217 3.88218 8.51716C3.80717 8.44214 3.70542 8.4 3.59934 8.4C3.49325 8.4 3.39151 8.44214 3.31649 8.51716C3.24148 8.59217 3.19934 8.69391 3.19934 8.8C3.19934 8.90609 3.24148 9.00783 3.31649 9.08284C3.39151 9.15786 3.49325 9.2 3.59934 9.2ZM3.59934 7.6C3.9176 7.6 4.22282 7.72643 4.44787 7.95147C4.67291 8.17651 4.79934 8.48174 4.79934 8.8C4.79934 9.11826 4.67291 9.42348 4.44787 9.64853C4.22282 9.87357 3.9176 10 3.59934 10C3.28108 10 2.97585 9.87357 2.75081 9.64853C2.52577 9.42348 2.39934 9.11826 2.39934 8.8C2.39934 8.48174 2.52577 8.17651 2.75081 7.95147C2.97585 7.72643 3.28108 7.6 3.59934 7.6ZM2.99934 11.2375V13.6H4.19934V11.2375C4.10434 11.2125 4.00684 11.2 3.90434 11.2H3.29434C3.19434 11.2 3.09434 11.2125 2.99934 11.2375ZM12.7993 8.8C12.7993 8.69391 12.7572 8.59217 12.6822 8.51716C12.6072 8.44214 12.5054 8.4 12.3993 8.4C12.2933 8.4 12.1915 8.44214 12.1165 8.51716C12.0415 8.59217 11.9993 8.69391 11.9993 8.8C11.9993 8.90609 12.0415 9.00783 12.1165 9.08284C12.1915 9.15786 12.2933 9.2 12.3993 9.2C12.5054 9.2 12.6072 9.15786 12.6822 9.08284C12.7572 9.00783 12.7993 8.90609 12.7993 8.8ZM11.1993 8.8C11.1993 8.48174 11.3258 8.17651 11.5508 7.95147C11.7759 7.72643 12.0811 7.6 12.3993 7.6C12.7176 7.6 13.0228 7.72643 13.2479 7.95147C13.4729 8.17651 13.5993 8.48174 13.5993 8.8C13.5993 9.11826 13.4729 9.42348 13.2479 9.64853C13.0228 9.87357 12.7176 10 12.3993 10C12.0811 10 11.7759 9.87357 11.5508 9.64853C11.3258 9.42348 11.1993 9.11826 11.1993 8.8ZM11.7993 13.6H12.9993V11.2375C12.9043 11.2125 12.8068 11.2 12.7043 11.2H12.0943C11.9943 11.2 11.8943 11.2125 11.7993 11.2375V13.6Z"/></svg>