<svg viewBox="0 0 16 16" xmlns="http://www.w3.org/2000/svg"><path d="M1 3C1 2.44687 1.44687 2 2 2C2.55313 2 3 2.44687 3 3V13C3 13.5531 2.55313 14 2 14C1.44687 14 1 13.5531 1 13V3ZM5.29375 8.70625C4.90312 8.31563 4.90312 7.68125 5.29375 7.29063L9.29375 3.29063C9.68437 2.9 10.3188 2.9 10.7094 3.29063C11.1 3.68125 11.1 4.31563 10.7094 4.70625L8.41563 7H14C14.5531 7 15 7.44688 15 8C15 8.55312 14.5531 9 14 9H8.41563L10.7094 11.2937C11.1 11.6844 11.1 12.3188 10.7094 12.7094C10.3188 13.1 9.68437 13.1 9.29375 12.7094L5.29375 8.70938V8.70625Z"/></svg>