<svg viewBox="0 0 16 16" xmlns="http://www.w3.org/2000/svg"><path d="M6.97501 5.6275C7.21001 5.8625 7.59 5.8625 7.8225 5.6275C8.055 5.3925 8.0575 5.0125 7.8225 4.78L5.22501 2.1775C4.99001 1.9425 4.61001 1.9425 4.37751 2.1775L1.775 4.7775C1.54 5.0125 1.54 5.3925 1.775 5.625C2.01 5.8575 2.39 5.86 2.6225 5.625L4.1975 4.05V14.2025C4.1975 14.535 4.465 14.8025 4.7975 14.8025C5.13 14.8025 5.3975 14.535 5.3975 14.2025V4.05L6.97501 5.6275ZM13.375 11.1775L11.8 12.7525V2.6C11.8 2.2675 11.5325 2 11.2 2C10.8675 2 10.6 2.2675 10.6 2.6V12.7525L9.025 11.1775C8.79 10.9425 8.41 10.9425 8.1775 11.1775C7.945 11.4125 7.9425 11.7925 8.1775 12.025L10.7775 14.625C11.0125 14.86 11.3925 14.86 11.625 14.625L14.225 12.025C14.46 11.79 14.46 11.41 14.225 11.1775C13.99 10.945 13.61 10.9425 13.3775 11.1775H13.375Z"/></svg>