<svg viewBox="0 0 16 16" xmlns="http://www.w3.org/2000/svg"><path d="M15.2812 1.78125C15.575 1.4875 15.575 1.0125 15.2812 0.721874C14.9875 0.431249 14.5125 0.428124 14.2219 0.721874L10.0031 4.94062V2.25C10.0031 1.83437 9.66873 1.5 9.2531 1.5C8.83748 1.5 8.5031 1.83437 8.5031 2.25V6.75C8.5031 7.16562 8.83748 7.5 9.2531 7.5H13.75C14.1656 7.5 14.5 7.16562 14.5 6.75C14.5 6.33437 14.1656 6 13.75 6H11.0594L15.2812 1.78125ZM0.718726 14.2187C0.424976 14.5125 0.424976 14.9875 0.718726 15.2781C1.01248 15.5687 1.48748 15.5719 1.7781 15.2781L5.99685 11.0594V13.75C5.99685 14.1656 6.33123 14.5 6.74685 14.5C7.16248 14.5 7.49685 14.1656 7.49685 13.75V9.25C7.49685 8.83437 7.16248 8.5 6.74685 8.5H2.24998C1.83435 8.5 1.49998 8.83437 1.49998 9.25C1.49998 9.66562 1.83435 10 2.24998 10H4.9406L0.718726 14.2187Z"/></svg>