<svg viewBox="0 0 16 16" xmlns="http://www.w3.org/2000/svg"><path d="M6.78125 12.5312L10.7812 8.53125C11.075 8.2375 11.075 7.7625 10.7812 7.47188L6.78125 3.46875C6.4875 3.175 6.0125 3.175 5.72188 3.46875C5.43125 3.7625 5.42813 4.2375 5.72188 4.52812L8.44063 7.24687L0.75 7.25C0.334375 7.25 0 7.58437 0 8C0 8.41563 0.334375 8.75 0.75 8.75H8.44063L5.72188 11.4688C5.42813 11.7625 5.42813 12.2375 5.72188 12.5281C6.01562 12.8187 6.49062 12.8219 6.78125 12.5281V12.5312ZM10.75 2.5H13.25C13.9406 2.5 14.5 3.05938 14.5 3.75V12.25C14.5 12.9406 13.9406 13.5 13.25 13.5H10.75C10.3344 13.5 10 13.8344 10 14.25C10 14.6656 10.3344 15 10.75 15H13.25C14.7688 15 16 13.7688 16 12.25V3.75C16 2.23125 14.7688 1 13.25 1H10.75C10.3344 1 10 1.33437 10 1.75C10 2.16562 10.3344 2.5 10.75 2.5Z"/></svg>