<svg xmlns="http://www.w3.org/2000/svg" viewBox="0 0 640 640"><path d="M160 64C142.3 64 128 78.3 128 96C128 113.7 142.3 128 160 128L480 128C497.7 128 512 113.7 512 96C512 78.3 497.7 64 480 64L160 64zM342.6 201.4C330.1 188.9 309.8 188.9 297.3 201.4L169.3 329.4C156.8 341.9 156.8 362.2 169.3 374.7C181.8 387.2 202.1 387.2 214.6 374.7L288 301.3L288 544C288 561.7 302.3 576 320 576C337.7 576 352 561.7 352 544L352 301.3L425.4 374.7C437.9 387.2 458.2 387.2 470.7 374.7C483.2 362.2 483.2 341.9 470.7 329.4L342.7 201.4z"/></svg>