<svg viewBox="0 0 16 16" xmlns="http://www.w3.org/2000/svg"><path d="M1 13.25C1 13.6656 1.33437 14 1.75 14C2.16562 14 2.5 13.6656 2.5 13.25V2.75C2.5 2.33437 2.16562 2 1.75 2C1.33437 2 1 2.33437 1 2.75V13.25ZM5.2375 7.45312C5.0875 7.59375 5 7.79375 5 8C5 8.20625 5.08438 8.40312 5.2375 8.54688L9.4875 12.5469C9.79063 12.8313 10.2625 12.8156 10.5469 12.5156C10.8313 12.2156 10.8156 11.7406 10.5156 11.4563L7.64062 8.75H14.25C14.6656 8.75 15 8.41563 15 8C15 7.58437 14.6656 7.25 14.25 7.25H7.64062L10.5125 4.54688C10.8156 4.2625 10.8281 3.7875 10.5437 3.4875C10.2594 3.1875 9.78438 3.17188 9.48438 3.45625L5.23438 7.45625L5.2375 7.45312Z"/></svg>