<svg viewBox="0 0 16 16" xmlns="http://www.w3.org/2000/svg"><path d="M1.49985 1.76487C1.49985 1.341 1.16551 1 0.749927 1C0.334342 1 0 1.341 0 1.76487V7.11896C0 8.66782 1.23113 9.92348 2.74973 9.92348H13.4393L10.7208 12.6961C10.4271 12.9957 10.4271 13.4801 10.7208 13.7765C11.0145 14.0729 11.4895 14.0761 11.7801 13.7765L15.7797 9.70039C16.0734 9.40082 16.0734 8.9164 15.7797 8.62002L11.7801 4.53752C11.4864 4.23795 11.0114 4.23795 10.7208 4.53752C10.4302 4.8371 10.4271 5.32151 10.7208 5.6179L13.4393 8.39055H2.74973C2.05917 8.39055 1.49985 7.82009 1.49985 7.11577V1.76487Z"/></svg>