<svg viewBox="0 0 16 16" xmlns="http://www.w3.org/2000/svg"><path d="M13.1127 9.31393L8.47961 15.0105C8.35276 15.1626 8.18178 15.25 7.99976 15.25C7.81775 15.25 7.64567 15.163 7.52046 15.0093L2.88743 9.3127C2.63592 8.97408 2.64541 8.51123 2.90999 8.21346C3.17197 7.91711 3.59253 7.92824 3.84597 8.23976L7.3379 12.5344V1.52713C7.3379 1.09827 7.63436 0.75 7.97494 0.75C8.31553 0.75 8.66163 1.09827 8.66163 1.52713V12.5351L12.153 8.24C12.4055 7.92847 12.8261 7.91734 13.0889 8.2137C13.3553 8.51123 13.3636 8.97408 13.1127 9.31393Z"/></svg>