<svg viewBox="0 0 16 16" xmlns="http://www.w3.org/2000/svg"><path d="M7.99998 1C8.4156 1 8.74998 1.33437 8.74998 1.75V6.65312L12.8562 4.1125C13.2094 3.89375 13.6719 4.00312 13.8875 4.35625C14.1031 4.70937 13.9969 5.17188 13.6437 5.3875L9.42498 8L13.6437 10.6125C13.9969 10.8313 14.1062 11.2937 13.8875 11.6438C13.6687 11.9938 13.2062 12.1031 12.8562 11.8875L8.74998 9.34688V14.25C8.74998 14.6656 8.4156 15 7.99998 15C7.58435 15 7.24998 14.6656 7.24998 14.25V9.34688L3.14373 11.8875C2.7906 12.1062 2.3281 11.9969 2.11248 11.6438C1.89685 11.2906 2.0031 10.8281 2.35623 10.6125L6.57498 8L2.35623 5.3875C2.0031 5.16875 1.89373 4.70625 2.11248 4.35625C2.33123 4.00625 2.79373 3.89375 3.14373 4.1125L7.24998 6.65312V1.75C7.24998 1.33437 7.58435 1 7.99998 1Z"/></svg>