<svg viewBox="0 0 16 16" xmlns="http://www.w3.org/2000/svg"><path d="M8.24667 0.00406813C6.07333 -0.0645982 4.00667 0.738065 2.44367 2.25573C0.867667 3.78339 0 5.84004 0 8.04003C0 11.9934 2.92967 15.41 6.81667 15.99C6.85667 15.9967 6.89333 16 6.93333 16C7.323 16 7.664 15.7151 7.72333 15.3183C7.78843 14.8813 7.4874 14.474 7.05033 14.409C3.94333 13.9433 1.6 11.2067 1.6 8.04003C1.6 6.27537 2.29533 4.63005 3.55767 3.40339C4.80867 2.18973 6.43267 1.54239 8.19767 1.60239C11.6167 1.70673 14.4 4.73005 14.4 8.34337V8.97836C14.4 9.79336 13.7423 10.457 12.9333 10.457C12.1243 10.457 11.4667 9.79336 11.4667 8.9767V5.09005C11.4667 4.64838 11.1083 4.32005 10.6667 4.32005C10.2693 4.32005 9.954 4.61522 9.892 4.99505C9.28 4.53005 8.54 4.26672 7.73333 4.26672C5.675 4.26672 4 5.94171 4 7.97003C4 9.99836 5.675 11.6734 7.73333 11.6734C8.75833 11.6734 9.68733 11.2574 10.3627 10.586C10.9097 11.4327 11.855 11.9967 12.9333 11.9967C14.6243 11.9967 16 10.6154 16 8.91803V8.34337C16 3.87338 12.52 0.103401 8.24667 0.00406813ZM7.73333 10.1334C6.55667 10.1334 5.6 9.1767 5.6 8.03003C5.6 6.85371 6.55667 5.92671 7.73333 5.92671C8.91 5.92671 9.86667 6.88337 9.86667 8.03003C9.86667 9.1767 8.91 10.1334 7.73333 10.1334Z"/></svg>