<svg viewBox="0 0 16 17" xmlns="http://www.w3.org/2000/svg"><path d="M7.43128 0.171876C7.77503 -0.0562492 8.22503 -0.0562492 8.56878 0.171876L9.12503 0.537501C9.31253 0.659376 9.53128 0.718751 9.75315 0.706251L10.4188 0.665626C10.8313 0.640626 11.2188 0.865626 11.4032 1.23438L11.7032 1.83125C11.8032 2.03125 11.9657 2.19063 12.1625 2.29063L12.7657 2.59375C13.1344 2.77813 13.3594 3.16563 13.3344 3.57813L13.2938 4.24375C13.2813 4.46563 13.3407 4.6875 13.4625 4.87188L13.8313 5.42813C14.0594 5.77188 14.0594 6.22188 13.8313 6.56563L13.4625 7.125C13.3407 7.3125 13.2813 7.53125 13.2938 7.75313L13.3344 8.41875C13.3594 8.83125 13.1344 9.21875 12.7657 9.40313L12.1688 9.70313C11.9688 9.80313 11.8094 9.96563 11.7094 10.1625L11.4063 10.7656C11.2219 11.1344 10.8344 11.3594 10.4219 11.3344L9.75628 11.2938C9.5344 11.2813 9.31253 11.3406 9.12815 11.4625L8.5719 11.8313C8.22815 12.0594 7.77815 12.0594 7.4344 11.8313L6.87503 11.4625C6.68753 11.3406 6.46878 11.2813 6.2469 11.2938L5.58128 11.3344C5.16878 11.3594 4.78128 11.1344 4.5969 10.7656L4.2969 10.1688C4.1969 9.96875 4.0344 9.80938 3.83753 9.70938L3.2344 9.40625C2.86565 9.22188 2.64065 8.83438 2.66565 8.42188L2.70628 7.75625C2.71878 7.53438 2.6594 7.3125 2.53753 7.12813L2.1719 6.56875C1.94378 6.225 1.94378 5.775 2.1719 5.43125L2.53753 4.875C2.6594 4.6875 2.71878 4.46875 2.70628 4.24688L2.66565 3.58125C2.64065 3.16875 2.86565 2.78125 3.2344 2.59688L3.83128 2.29688C4.03128 2.19375 4.19378 2.03125 4.29378 1.83125L4.59378 1.23438C4.77815 0.865626 5.16565 0.640626 5.57815 0.665626L6.24378 0.706251C6.46565 0.718751 6.68753 0.659376 6.8719 0.537501L7.43128 0.171876ZM10.5 6C10.5 5.33696 10.2366 4.70108 9.7678 4.23223C9.29896 3.76339 8.66307 3.5 8.00003 3.5C7.33699 3.5 6.7011 3.76339 6.23226 4.23223C5.76342 4.70108 5.50003 5.33696 5.50003 6C5.50003 6.66304 5.76342 7.29893 6.23226 7.76777C6.7011 8.23661 7.33699 8.5 8.00003 8.5C8.66307 8.5 9.29896 8.23661 9.7678 7.76777C10.2366 7.29893 10.5 6.66304 10.5 6ZM2.04065 13.8063L3.38753 10.6031C3.39378 10.6063 3.3969 10.6094 3.40003 10.6156L3.70003 11.2125C4.06565 11.9375 4.82503 12.3781 5.63753 12.3313L6.30315 12.2906C6.3094 12.2906 6.31878 12.2906 6.32503 12.2969L6.88128 12.6656C7.04065 12.7688 7.2094 12.85 7.3844 12.9063L6.2094 15.6969C6.13753 15.8688 5.97815 15.9844 5.79378 16C5.6094 16.0156 5.43128 15.9313 5.33128 15.775L4.32503 14.2344L2.5719 14.4938C2.39378 14.5188 2.21565 14.4469 2.10315 14.3063C1.99065 14.1656 1.96878 13.9719 2.03753 13.8063H2.04065ZM9.79065 15.6938L8.61565 12.9063C8.79065 12.85 8.9594 12.7719 9.11878 12.6656L9.67503 12.2969C9.68128 12.2938 9.68753 12.2906 9.6969 12.2906L10.3625 12.3313C11.175 12.3781 11.9344 11.9375 12.3 11.2125L12.6 10.6156C12.6032 10.6094 12.6063 10.6063 12.6125 10.6031L13.9625 13.8063C14.0313 13.9719 14.0063 14.1625 13.8969 14.3063C13.7875 14.45 13.6063 14.5219 13.4282 14.4938L11.675 14.2344L10.6688 15.7719C10.5688 15.9281 10.3907 16.0125 10.2063 15.9969C10.0219 15.9813 9.86253 15.8625 9.79065 15.6938Z"/></svg>