<svg viewBox="0 0 16 16" xmlns="http://www.w3.org/2000/svg"><path d="M0.5 3.43478C0.5 3.05673 0.859933 2.75 1.30357 2.75H14.6964C15.1417 2.75 15.5 3.05673 15.5 3.43478C15.5 3.81427 15.1417 4.11957 14.6964 4.11957H1.30357C0.859933 4.11957 0.5 3.81427 0.5 3.43478ZM0.5 8C0.5 7.62052 0.859933 7.31522 1.30357 7.31522H14.6964C15.1417 7.31522 15.5 7.62052 15.5 8C15.5 8.37948 15.1417 8.68478 14.6964 8.68478H1.30357C0.859933 8.68478 0.5 8.37948 0.5 8ZM14.6964 13.25H1.30357C0.859933 13.25 0.5 12.9447 0.5 12.5652C0.5 12.1857 0.859933 11.8804 1.30357 11.8804H14.6964C15.1417 11.8804 15.5 12.1857 15.5 12.5652C15.5 12.9447 15.1417 13.25 14.6964 13.25Z"/></svg>