<svg viewBox="0 0 16 16" xmlns="http://www.w3.org/2000/svg"><path d="M8 1.6C7.5575 1.6 7.2 1.9575 7.2 2.4V2.8475C5.3875 3.135 4 4.705 4 6.6V7.435C4 8.57 3.6125 9.6725 2.905 10.5575L2.5325 11.025C2.3875 11.205 2.36 11.4525 2.46 11.66C2.56 11.8675 2.77 12 3 12H13C13.23 12 13.44 11.8675 13.54 11.66C13.64 11.4525 13.6125 11.205 13.4675 11.025L13.095 10.56C12.3875 9.6725 12 8.57 12 7.435V6.6C12 4.705 10.6125 3.135 8.8 2.8475V2.4C8.8 1.9575 8.4425 1.6 8 1.6ZM8 4H8.2C9.635 4 10.8 5.165 10.8 6.6V7.435C10.8 8.6325 11.1475 9.8 11.7925 10.8H4.2075C4.8525 9.8 5.2 8.6325 5.2 7.435V6.6C5.2 5.165 6.365 4 7.8 4H8ZM9.6 12.8H8H6.4C6.4 13.225 6.5675 13.6325 6.8675 13.9325C7.1675 14.2325 7.575 14.4 8 14.4C8.425 14.4 8.8325 14.2325 9.1325 13.9325C9.4325 13.6325 9.6 13.225 9.6 12.8ZM0 6.6C0 6.9325 0.2675 7.2 0.6 7.2H2.6C2.9325 7.2 3.2 6.9325 3.2 6.6C3.2 6.2675 2.9325 6 2.6 6H0.6C0.2675 6 0 6.2675 0 6.6ZM13.4 6C13.0675 6 12.8 6.2675 12.8 6.6C12.8 6.9325 13.0675 7.2 13.4 7.2H15.4C15.7325 7.2 16 6.9325 16 6.6C16 6.2675 15.7325 6 15.4 6H13.4ZM14.9375 2.1325C14.79 1.835 14.43 1.715 14.1325 1.865L12.5325 2.665C12.235 2.8125 12.115 3.1725 12.265 3.47C12.415 3.7675 12.7725 3.8875 13.07 3.7375L14.67 2.9375C14.9675 2.79 15.0875 2.43 14.9375 2.1325ZM1.3325 2.9375L2.9325 3.7375C3.23 3.885 3.59 3.765 3.7375 3.47C3.885 3.175 3.765 2.8125 3.47 2.665L1.87 1.865C1.5725 1.715 1.2125 1.835 1.0625 2.1325C0.9125 2.43 1.035 2.79 1.33 2.9375H1.3325Z"/></svg>