<svg viewBox="0 0 16 16" xmlns="http://www.w3.org/2000/svg"><path d="M7.99991 0C7.44674 0 6.99983 0.446875 6.99983 1V1.55938C4.734 1.91875 2.99948 3.88125 2.99948 6.25V7.29375C2.99948 8.7125 2.51506 10.0906 1.63061 11.1969L1.16494 11.7812C0.983675 12.0062 0.949297 12.3156 1.07431 12.575C1.19932 12.8344 1.46184 13 1.74937 13H14.2505C14.538 13 14.8005 12.8344 14.9255 12.575C15.0505 12.3156 15.0162 12.0062 14.8349 11.7812L14.3692 11.2C13.4848 10.0906 13.0003 8.7125 13.0003 7.29375V6.25C13.0003 3.88125 11.2658 1.91875 9 1.55938V1C9 0.446875 8.55309 0 7.99991 0ZM7.99991 3H8.24993C10.0438 3 11.5002 4.45625 11.5002 6.25V7.29375C11.5002 8.79062 11.9346 10.25 12.741 11.5H3.25887C4.06519 10.25 4.49961 8.79062 4.49961 7.29375V6.25C4.49961 4.45625 5.95598 3 7.74989 3H7.99991ZM10.0001 14H7.99991H5.99974C5.99974 14.5312 6.20913 15.0406 6.58416 15.4156C6.9592 15.7906 7.46862 16 7.99991 16C8.53121 16 9.04063 15.7906 9.41566 15.4156C9.79069 15.0406 10.0001 14.5312 10.0001 14Z"/></svg>