<svg viewBox="0 0 16 16" xmlns="http://www.w3.org/2000/svg"><path d="M0.970018 1.7275C0.710018 1.5225 0.332518 1.57 0.127518 1.83C-0.0774815 2.09 -0.0299815 2.4675 0.230018 2.6725L15.03 14.2725C15.29 14.4775 15.6675 14.43 15.8725 14.17C16.0775 13.91 16.03 13.5325 15.77 13.3275L13.565 11.6C13.6325 11.405 13.5975 11.1875 13.4675 11.025L13.095 10.56C12.3875 9.6725 12 8.57 12 7.435V6.6C12 4.705 10.6125 3.135 8.80002 2.8475V2.4C8.80002 1.9575 8.44252 1.6 8.00002 1.6C7.55752 1.6 7.20002 1.9575 7.20002 2.4V2.8475C6.10252 3.0225 5.16252 3.665 4.59002 4.565L0.970018 1.7275ZM5.54252 5.31C5.99002 4.5275 6.83252 4 7.80002 4H8.00002H8.20002C9.63502 4 10.8 5.165 10.8 6.6V7.435C10.8 8.2525 10.96 9.055 11.2675 9.7975L5.54252 5.31ZM10.155 12L8.63252 10.8H4.20752C4.73752 9.98 5.06752 9.0425 5.16752 8.0725L4.00002 7.1525V7.4375C4.00002 8.5725 3.61252 9.675 2.90502 10.56L2.53252 11.025C2.38752 11.205 2.36002 11.4525 2.46002 11.66C2.56002 11.8675 2.77002 12 3.00002 12H10.155ZM9.60002 12.8H8.00002H6.40002C6.40002 13.225 6.56752 13.6325 6.86752 13.9325C7.16752 14.2325 7.57502 14.4 8.00002 14.4C8.42502 14.4 8.83252 14.2325 9.13252 13.9325C9.43252 13.6325 9.60002 13.225 9.60002 12.8Z"/></svg>