<svg viewBox="0 0 16 16" xmlns="http://www.w3.org/2000/svg"><path d="M3 2C3 1.44687 3.44688 1 4 1H5C5.55312 1 6 1.44687 6 2V2.5H3V2ZM1.8625 4.9375C2.0125 4.10625 2.7375 3.5 3.58437 3.5H6.25C6.66563 3.5 7 3.83437 7 4.25V5H9V4.25C9 3.83437 9.33438 3.5 9.75 3.5H12.4156C13.2625 3.5 13.9875 4.10625 14.1375 4.9375L14.2937 5.79063C14.4062 6.4125 14.6313 7.00938 14.9563 7.55312L15.0375 7.69063C15.6656 8.74063 16 9.94063 16 11.1625V13.25C16 14.2156 15.2156 15 14.25 15H10.75C9.78438 15 9 14.2156 9 13.25V9H7V13.25C7 14.2156 6.21562 15 5.25 15H1.75C0.784375 15 0 14.2156 0 13.25V11.1625C0 9.9375 0.33125 8.7375 0.9625 7.6875L1.04375 7.55C1.36875 7.00625 1.59375 6.40937 1.70625 5.7875L1.8625 4.93437V4.9375ZM3.58437 5C3.4625 5 3.35938 5.0875 3.3375 5.20625L3.18125 6.05937C3.0375 6.85938 2.75 7.625 2.33125 8.325L2.25 8.4625C1.75937 9.27812 1.5 10.2094 1.5 11.1625V13.25C1.5 13.3875 1.6125 13.5 1.75 13.5H5.25C5.3875 13.5 5.5 13.3875 5.5 13.25V5H3.58437ZM12.4156 5H10.5V13.25C10.5 13.3875 10.6125 13.5 10.75 13.5H14.25C14.3875 13.5 14.5 13.3875 14.5 13.25V11.1625C14.5 10.2125 14.2406 9.27812 13.7531 8.4625L13.6719 8.325C13.2531 7.62812 12.9656 6.85938 12.8188 6.05937L12.6625 5.20625C12.6406 5.0875 12.5375 5 12.4156 5ZM11 1H12C12.5531 1 13 1.44687 13 2V2.5H10V2C10 1.44687 10.4469 1 11 1Z"/></svg>