<svg viewBox="0 0 16 16" xmlns="http://www.w3.org/2000/svg"><path d="M2 1.75C2 1.33437 2.33437 1 2.75 1H4.25H4.75H8.625C10.7656 1 12.5 2.73438 12.5 4.875C12.5 5.95937 12.0531 6.94375 11.3344 7.64687C12.6156 8.27812 13.5 9.59688 13.5 11.125C13.5 13.2656 11.7656 15 9.625 15H4.75H4.25H2.75C2.33437 15 2 14.6656 2 14.25C2 13.8344 2.33437 13.5 2.75 13.5H3.5V8V2.5H2.75C2.33437 2.5 2 2.16562 2 1.75ZM8.625 7.25C9.9375 7.25 11 6.1875 11 4.875C11 3.5625 9.9375 2.5 8.625 2.5H5V7.25H8.625ZM5 8.75V13.5H9.625C10.9375 13.5 12 12.4375 12 11.125C12 9.8125 10.9375 8.75 9.625 8.75H8.625H5Z"/></svg>