<svg viewBox="0 0 16 16" xmlns="http://www.w3.org/2000/svg"><path d="M12.0683 1.875e-05C12.8636 1.875e-05 13.4383 0.570625 13.2217 1.14406L10.9898 7H14.5417C15.3454 7 15.995 7.4875 15.995 8.09062C15.995 8.4125 15.8076 8.71563 15.4828 8.925L4.70623 15.7875C4.4897 15.925 4.21487 16 3.93047 16C3.13555 16 2.56174 15.4281 2.77994 14.8562L5.01021 9H1.40996C0.633778 9 0.00500488 8.52813 0.00500488 7.94688C0.00500488 7.6375 0.184684 7.34375 0.496781 7.14375L11.2938 0.215406C11.5103 0.0764063 11.7851 0 12.0683 0V1.875e-05ZM10.5651 2.65594L3.01812 7.5H6.33438C6.64668 7.5 6.94233 7.60938 7.13388 7.79688C7.32126 7.9875 7.37956 8.23125 7.29628 8.45625L5.43078 13.3594L13.0593 8.5H9.66563C9.35333 8.5 9.05768 8.39062 8.86613 8.20312C8.67875 8.0125 8.62045 7.76875 8.70373 7.54375L10.5651 2.65594Z"/></svg>