<svg viewBox="0 0 16 16" xmlns="http://www.w3.org/2000/svg"><path d="M2 1.50077C2 0.672649 2.67188 0.000774384 3.5 0.000774384V1.50077V13.7945L7.56563 10.8914C7.825 10.7039 8.17812 10.7039 8.4375 10.8914L12.5 13.7945V1.50077H3.5V0.000774384H12.5C13.3281 0.000774384 14 0.672649 14 1.50077V15.2508C14 15.532 13.8438 15.7883 13.5938 15.9164C13.3438 16.0445 13.0437 16.0226 12.8156 15.8601L8 12.4226L3.18438 15.8601C2.95625 16.0226 2.65625 16.0445 2.40625 15.9164C2.15625 15.7883 2 15.532 2 15.2508V1.50077Z"/></svg>