<svg viewBox="0 0 16 16" xmlns="http://www.w3.org/2000/svg"><g clip-path="url(#clip0_11902_178426)"><path d="M6 8C6 6.89687 6.89687 6 8 6C9.10312 6 10 6.89687 10 8C10 9.10312 9.10312 10 8 10C6.89687 10 6 9.10312 6 8ZM8 8.5C8.275 8.5 8.5 8.275 8.5 8C8.5 7.725 8.275 7.5 8 7.5C7.725 7.5 7.5 7.725 7.5 8C7.5 8.275 7.725 8.5 8 8.5ZM3 8C3 5.2375 5.2375 3 8 3C10.7625 3 13 5.2375 13 8C13 10.7625 10.7625 13 8 13C5.2375 13 3 10.7625 3 8ZM8 11.5C9.93437 11.5 11.5 9.93437 11.5 8C11.5 6.06563 9.93437 4.5 8 4.5C6.06563 4.5 4.5 6.06563 4.5 8C4.5 9.93437 6.06563 11.5 8 11.5ZM16 8C16 12.4187 12.4187 16 8 16C3.58125 16 0 12.4187 0 8C0 3.58125 3.58125 0 8 0C12.4187 0 16 3.58125 16 8ZM8 1.5C4.40938 1.5 1.5 4.40938 1.5 8C1.5 11.5906 4.40938 14.5 8 14.5C11.5906 14.5 14.5 11.5906 14.5 8C14.5 4.40938 11.5906 1.5 8 1.5Z"/></g><defs><clipPath><rect/></clipPath></defs></svg>