<svg viewBox="0 0 16 16" xmlns="http://www.w3.org/2000/svg"><path d="M6.27187 3.94919C8.45937 3.94919 10.5594 3.08044 12.1062 1.53294L13.2937 0.345753C13.9219 -0.284309 15 0.161847 15 1.05263V5.56169C15.5813 5.83669 16 6.57732 16 7.44919C16 8.32107 15.5813 9.06169 15 9.33669V13.8461C15 14.7367 13.9219 15.1836 13.2937 14.5523L12.1062 13.3648C10.6125 11.8711 8.60625 10.9836 6.5 10.9523V14.1992C6.5 15.1648 5.71562 15.9492 4.75 15.9492H3.75C2.78344 15.9492 2 15.1648 2 14.1992V10.9492C0.895313 10.9492 0 10.0523 0 8.94919V5.94919C0 4.84607 0.895313 3.94919 2 3.94919H6.27187ZM13.5 2.25982L13.1656 2.59357C11.3906 4.36794 9.00312 5.38669 6.5 5.44607V9.45232C9.00312 9.48357 11.3906 10.5304 13.1656 12.3054L13.5 12.6398V2.25982ZM3.5 14.1992C3.5 14.3367 3.6125 14.4492 3.75 14.4492H4.75C4.8875 14.4492 5 14.3367 5 14.1992V10.9492H3.5V14.1992ZM1.5 5.94919V8.94919C1.5 9.22419 1.72375 9.42107 2 9.42107H5V5.44919H2C1.72375 5.44919 1.5 5.67419 1.5 5.94919Z"/></svg>