<svg viewBox="0 0 16 16" xmlns="http://www.w3.org/2000/svg"><path d="M12.5 5.5V14C12.5 14.275 12.275 14.5 12 14.5H4C3.725 14.5 3.5 14.275 3.5 14V5.5H12.5ZM12.5 4H3.5V2C3.5 1.725 3.725 1.5 4 1.5H12C12.275 1.5 12.5 1.725 12.5 2V4ZM14 4V2C14 0.896875 13.1031 0 12 0H4C2.89688 0 2 0.896875 2 2V4V4.75V5.5V14C2 15.1031 2.89688 16 4 16H12C13.1031 16 14 15.1031 14 14V5.5V4.75V4ZM4.5 7.25C4.5 7.44891 4.57902 7.63968 4.71967 7.78033C4.86032 7.92098 5.05109 8 5.25 8C5.44891 8 5.63968 7.92098 5.78033 7.78033C5.92098 7.63968 6 7.44891 6 7.25C6 7.05109 5.92098 6.86032 5.78033 6.71967C5.63968 6.57902 5.44891 6.5 5.25 6.5C5.05109 6.5 4.86032 6.57902 4.71967 6.71967C4.57902 6.86032 4.5 7.05109 4.5 7.25ZM5.25 9.25C5.05109 9.25 4.86032 9.32902 4.71967 9.46967C4.57902 9.61032 4.5 9.80109 4.5 10C4.5 10.1989 4.57902 10.3897 4.71967 10.5303C4.86032 10.671 5.05109 10.75 5.25 10.75C5.44891 10.75 5.63968 10.671 5.78033 10.5303C5.92098 10.3897 6 10.1989 6 10C6 9.80109 5.92098 9.61032 5.78033 9.46967C5.63968 9.32902 5.44891 9.25 5.25 9.25ZM4.5 12.75C4.5 13.1656 4.83437 13.5 5.25 13.5H8C8.41563 13.5 8.75 13.1656 8.75 12.75C8.75 12.3344 8.41563 12 8 12H5.25C4.83437 12 4.5 12.3344 4.5 12.75ZM8 6.5C7.80109 6.5 7.61032 6.57902 7.46967 6.71967C7.32902 6.86032 7.25 7.05109 7.25 7.25C7.25 7.44891 7.32902 7.63968 7.46967 7.78033C7.61032 7.92098 7.80109 8 8 8C8.19891 8 8.38968 7.92098 8.53033 7.78033C8.67098 7.63968 8.75 7.44891 8.75 7.25C8.75 7.05109 8.67098 6.86032 8.53033 6.71967C8.38968 6.57902 8.19891 6.5 8 6.5ZM7.25 10C7.25 10.1989 7.32902 10.3897 7.46967 10.5303C7.61032 10.671 7.80109 10.75 8 10.75C8.19891 10.75 8.38968 10.671 8.53033 10.5303C8.67098 10.3897 8.75 10.1989 8.75 10C8.75 9.80109 8.67098 9.61032 8.53033 9.46967C8.38968 9.32902 8.19891 9.25 8 9.25C7.80109 9.25 7.61032 9.32902 7.46967 9.46967C7.32902 9.61032 7.25 9.80109 7.25 10ZM10.75 6.5C10.5511 6.5 10.3603 6.57902 10.2197 6.71967C10.079 6.86032 10 7.05109 10 7.25C10 7.44891 10.079 7.63968 10.2197 7.78033C10.3603 7.92098 10.5511 8 10.75 8C10.9489 8 11.1397 7.92098 11.2803 7.78033C11.421 7.63968 11.5 7.44891 11.5 7.25C11.5 7.05109 11.421 6.86032 11.2803 6.71967C11.1397 6.57902 10.9489 6.5 10.75 6.5ZM10 10C10 10.1989 10.079 10.3897 10.2197 10.5303C10.3603 10.671 10.5511 10.75 10.75 10.75C10.9489 10.75 11.1397 10.671 11.2803 10.5303C11.421 10.3897 11.5 10.1989 11.5 10C11.5 9.80109 11.421 9.61032 11.2803 9.46967C11.1397 9.32902 10.9489 9.25 10.75 9.25C10.5511 9.25 10.3603 9.32902 10.2197 9.46967C10.079 9.61032 10 9.80109 10 10ZM10.75 12C10.5511 12 10.3603 12.079 10.2197 12.2197C10.079 12.3603 10 12.5511 10 12.75C10 12.9489 10.079 13.1397 10.2197 13.2803C10.3603 13.421 10.5511 13.5 10.75 13.5C10.9489 13.5 11.1397 13.421 11.2803 13.2803C11.421 13.1397 11.5 12.9489 11.5 12.75C11.5 12.5511 11.421 12.3603 11.2803 12.2197C11.1397 12.079 10.9489 12 10.75 12Z"/></svg>