<svg viewBox="0 0 16 14" xmlns="http://www.w3.org/2000/svg"><path d="M3.53056 0C3.925 0 4.19722 0.293945 4.19722 0.65625V1.75H8.22222V0.65625C8.22222 0.293945 8.51944 0 8.88889 0C9.25833 0 9.55556 0.293945 9.55556 0.65625V1.75H10.6667C11.6472 1.75 12.4444 2.5334 12.4444 3.5V5.25H1.30833V12.25C1.30833 12.4906 1.53222 12.6875 1.75278 12.6875H7.90278C8.24167 13.2016 8.68056 13.6473 9.18889 14H1.77778C0.795833 14 0 13.2152 0 12.25V3.5C0 2.5334 0.795833 1.75 1.77778 1.75H2.88889V0.65625C2.88889 0.293945 3.18611 0 3.55556 0H3.53056ZM16 10.0625C16 12.2363 14.2083 14 12 14C9.79167 14 7.975 12.2363 7.975 10.0625C7.975 7.88867 9.79167 6.125 12 6.125C14.2083 6.125 16 7.88867 16 10.0625ZM11.5306 8.3125V10.0625C11.5306 10.3031 11.7556 10.5 11.975 10.5H13.3333C13.5778 10.5 13.7778 10.3031 13.7778 10.0625C13.7778 9.82187 13.5778 9.625 13.3333 9.625H12.4194V8.3125C12.4194 8.07187 12.2444 7.875 11.975 7.875C11.7556 7.875 11.5306 8.07187 11.5306 8.3125Z"/></svg>