<svg viewBox="0 0 16 16" xmlns="http://www.w3.org/2000/svg"><path d="M4.65938 2.025L4.33437 2.99976H2C0.896875 2.99976 0 3.89642 0 4.99928V12.9973C0 14.1002 0.896875 14.9969 2 14.9969H14C15.1031 14.9969 16 14.1002 16 12.9973V4.99928C16 3.89642 15.1031 2.99976 14 2.99976H11.6656L11.3406 2.025C11.1375 1.41264 10.5656 1.00024 9.91875 1.00024H6.08125C5.43438 1.00024 4.8625 1.41264 4.65938 2.025ZM8 5.99904C8.79565 5.99904 9.55871 6.31503 10.1213 6.8775C10.6839 7.43998 11 8.20285 11 8.99831C11 9.79377 10.6839 10.5566 10.1213 11.1191C9.55871 11.6816 8.79565 11.9976 8 11.9976C7.20435 11.9976 6.44129 11.6816 5.87868 11.1191C5.31607 10.5566 5 9.79377 5 8.99831C5 8.20285 5.31607 7.43998 5.87868 6.8775C6.44129 6.31503 7.20435 5.99904 8 5.99904Z"/></svg>