<svg viewBox="0 0 17 16" xmlns="http://www.w3.org/2000/svg"><g clip-path="url(#clip0_335_143)"><path d="M8.03059 7.5V0.518125C8.03059 0.236094 8.21068 0 8.50297 0C12.1551 0 15.1164 3.13438 15.1164 7C15.1164 7.28125 14.892 7.5 14.6263 7.5H8.03059ZM13.6136 6C13.2003 3.76562 11.5587 2.00125 9.44775 1.59063V6H13.6136ZM6.61342 1.55031V9L11.234 13.8906C11.4318 14.1 11.417 14.4438 11.1897 14.6156C10.0323 15.4875 8.61517 16 7.08581 16C3.17385 16 0 12.6438 0 8.5C0 4.70937 2.66013 1.57313 6.08494 1.07031C6.38314 1.03094 6.61342 1.26125 6.61342 1.55031ZM5.19626 9.62187V2.84094C2.99376 3.66563 1.41716 5.8875 1.41716 8.5C1.41716 11.8125 3.92967 14.5 7.08581 14.5C7.88887 14.5 8.62402 14.325 9.34146 14.0063L5.19626 9.62187ZM15.5415 9C15.8132 9 16.0317 9.24375 15.9962 9.53125C15.7689 11.2781 14.9717 12.8312 13.8144 13.9781C13.6372 14.1281 13.3597 14.1406 13.1885 13.9594L8.50297 9H15.5415Z"/></g><defs><clipPath><rect transform="translate(0.00195312)"/></clipPath></defs></svg>