<svg viewBox="0 0 17 16" xmlns="http://www.w3.org/2000/svg"><path d="M1.50195 13.4286C1.50195 13.9036 1.83789 14.2857 2.25195 14.2857H15.252C15.6676 14.2857 16.002 14.6679 16.002 15.1429C16.002 15.6179 15.6676 16 15.252 16H2.25195C1.00945 16 0.00195312 14.85 0.00195312 13.4286V0.857143C0.00195312 0.383929 0.337891 0 0.751953 0C1.16602 0 1.50195 0.383929 1.50195 0.857143V13.4286ZM11.2395 4.3C11.6488 3.83214 12.327 3.86071 12.7051 4.36429L14.6395 6.94643C14.8738 7.25714 15.002 7.65357 15.002 8.06429V11.4286C15.002 12.0607 14.5551 12.5714 14.002 12.5714H4.00195C3.44883 12.5714 3.00195 12.0607 3.00195 11.4286V7.56786C3.00195 7.11429 3.16133 6.675 3.44258 6.35357L6.2957 3.09286C6.68633 2.64643 7.31758 2.64643 7.7082 3.09286L10.002 5.71429L11.2395 4.3ZM7.00195 4.71071L4.50195 7.56786V10.8571H13.502V8.06429L11.9176 5.95L11.0613 6.925C10.7801 7.24643 10.3988 7.42857 10.002 7.42857C9.60508 7.42857 9.22383 7.24643 8.94258 6.925L7.00195 4.71071Z"/></svg>