<svg viewBox="0 0 16 17" xmlns="http://www.w3.org/2000/svg"><path d="M8 16.2531C10.1217 16.2531 12.1566 15.4103 13.6569 13.91C15.1571 12.4097 16 10.3748 16 8.25311C16 6.13138 15.1571 4.09655 13.6569 2.59626C12.1566 1.09597 10.1217 0.253113 8 0.253113C5.87827 0.253113 3.84344 1.09597 2.34315 2.59626C0.842855 4.09655 0 6.13138 0 8.25311C0 10.3748 0.842855 12.4097 2.34315 13.91C3.84344 15.4103 5.87827 16.2531 8 16.2531ZM7.25 11.0031V9.00311H5.25C4.83437 9.00311 4.5 8.66874 4.5 8.25311C4.5 7.83749 4.83437 7.50311 5.25 7.50311H7.25V5.50311C7.25 5.08749 7.58437 4.75311 8 4.75311C8.41562 4.75311 8.75 5.08749 8.75 5.50311V7.50311H10.75C11.1656 7.50311 11.5 7.83749 11.5 8.25311C11.5 8.66874 11.1656 9.00311 10.75 9.00311H8.75V11.0031C8.75 11.4187 8.41562 11.7531 8 11.7531C7.58437 11.7531 7.25 11.4187 7.25 11.0031Z"/></svg>