<svg viewBox="0 0 16 16" xmlns="http://www.w3.org/2000/svg"><path d="M12.7031 12.4875C12.1062 11.0281 10.6719 10 9 10H7C5.32812 10 3.89375 11.0281 3.29688 12.4875C2.18438 11.3188 1.5 9.74063 1.5 8C1.5 4.40937 4.40937 1.5 8 1.5C11.5906 1.5 14.5 4.40937 14.5 8C14.5 9.74063 13.8156 11.3188 12.7031 12.4875ZM11.45 13.5094C10.45 14.1375 9.26875 14.5 8 14.5C6.73125 14.5 5.55 14.1375 4.54688 13.5094C4.775 12.3625 5.7875 11.5 7 11.5H9C10.2125 11.5 11.225 12.3625 11.4531 13.5094H11.45ZM8 16C10.1217 16 12.1566 15.1571 13.6569 13.6569C15.1571 12.1566 16 10.1217 16 8C16 5.87827 15.1571 3.84344 13.6569 2.34315C12.1566 0.842855 10.1217 0 8 0C5.87827 0 3.84344 0.842855 2.34315 2.34315C0.842855 3.84344 0 5.87827 0 8C0 10.1217 0.842855 12.1566 2.34315 13.6569C3.84344 15.1571 5.87827 16 8 16ZM8 7.5C7.66848 7.5 7.35054 7.3683 7.11612 7.13388C6.8817 6.89946 6.75 6.58152 6.75 6.25C6.75 5.91848 6.8817 5.60054 7.11612 5.36612C7.35054 5.1317 7.66848 5 8 5C8.33152 5 8.64946 5.1317 8.88388 5.36612C9.1183 5.60054 9.25 5.91848 9.25 6.25C9.25 6.58152 9.1183 6.89946 8.88388 7.13388C8.64946 7.3683 8.33152 7.5 8 7.5ZM5.25 6.25C5.25 6.97935 5.53973 7.67882 6.05546 8.19454C6.57118 8.71027 7.27065 9 8 9C8.72935 9 9.42882 8.71027 9.94454 8.19454C10.4603 7.67882 10.75 6.97935 10.75 6.25C10.75 5.52065 10.4603 4.82118 9.94454 4.30546C9.42882 3.78973 8.72935 3.5 8 3.5C7.27065 3.5 6.57118 3.78973 6.05546 4.30546C5.53973 4.82118 5.25 5.52065 5.25 6.25Z"/></svg>