<svg viewBox="0 0 16 16" xmlns="http://www.w3.org/2000/svg"><path d="M8 16C12.4187 16 16 12.4187 16 8C16 3.58125 12.4187 0 8 0C3.58125 0 0 3.58125 0 8C0 12.4187 3.58125 16 8 16ZM11.5312 6.53125L7.53125 10.5312C7.2375 10.825 6.7625 10.825 6.47188 10.5312L4.47188 8.53125C4.17813 8.2375 4.17813 7.7625 4.47188 7.47188C4.76562 7.18125 5.24062 7.17813 5.53125 7.47188L7 8.94063L10.4688 5.46875C10.7625 5.175 11.2375 5.175 11.5281 5.46875C11.8187 5.7625 11.8219 6.2375 11.5281 6.52812L11.5312 6.53125Z"/></svg>