<svg viewBox="0 0 16 16" xmlns="http://www.w3.org/2000/svg"><path d="M0.867006 7.24844C1.25138 7.24844 1.57013 6.95781 1.65451 6.58281C1.82013 5.83594 2.11388 5.13906 2.51076 4.51406C2.71701 4.18906 2.69826 3.75781 2.42326 3.48594C2.10763 3.17031 1.58576 3.19219 1.33888 3.56406C0.770131 4.41719 0.360756 5.38594 0.154506 6.42656C0.0670064 6.86406 0.420131 7.24844 0.867006 7.24844ZM4.51701 2.51094C5.14201 2.11406 5.83888 1.82031 6.58576 1.65469C6.96076 1.57031 7.25138 1.25156 7.25138 0.867189C7.25138 0.420314 6.86701 0.0671895 6.42951 0.154689C5.38888 0.360939 4.42013 0.770314 3.56701 1.33906C3.19513 1.58594 3.17326 2.10781 3.48888 2.42344C3.76076 2.69531 4.19201 2.71719 4.51701 2.51094ZM8.75138 15.1328C8.75138 15.5797 9.13576 15.9328 9.57326 15.8453C10.6139 15.6391 11.5826 15.2297 12.4358 14.6609C12.8076 14.4141 12.8295 13.8922 12.5139 13.5766C12.242 13.3047 11.8108 13.2828 11.4858 13.4891C10.8608 13.8859 10.1639 14.1797 9.41701 14.3453C9.04201 14.4297 8.75138 14.7484 8.75138 15.1328ZM13.4889 11.4828C13.2826 11.8078 13.3014 12.2391 13.5764 12.5109C13.892 12.8266 14.4139 12.8047 14.6608 12.4328C15.2295 11.5797 15.6389 10.6109 15.8451 9.57031C15.9326 9.13281 15.5795 8.74844 15.1326 8.74844C14.7483 8.74844 14.4295 9.03906 14.3451 9.41406C14.1795 10.1609 13.8858 10.8578 13.4889 11.4828ZM3.48888 13.5703C3.17326 13.8859 3.19513 14.4078 3.56701 14.6547C4.42013 15.2234 5.38888 15.6328 6.42951 15.8391C6.86701 15.9266 7.25138 15.5734 7.25138 15.1266C7.25138 14.7422 6.96076 14.4234 6.58576 14.3391C5.83888 14.1734 5.14201 13.8797 4.51701 13.4828C4.19201 13.2766 3.76076 13.2953 3.48888 13.5703ZM1.34201 12.4328C1.58888 12.8047 2.11076 12.8266 2.42638 12.5109C2.69826 12.2391 2.72013 11.8078 2.51388 11.4828C2.11701 10.8578 1.82326 10.1609 1.65763 9.41406C1.57326 9.03906 1.25451 8.74844 0.870131 8.74844C0.423256 8.74844 0.0701314 9.13281 0.157631 9.57031C0.363881 10.6109 0.773256 11.5797 1.34201 12.4328ZM12.5139 2.42344C12.8295 2.10781 12.8076 1.58594 12.4358 1.33906C11.5826 0.770314 10.6139 0.360939 9.57326 0.154689C9.13576 0.0671895 8.75138 0.420314 8.75138 0.867189C8.75138 1.25156 9.04201 1.57031 9.41701 1.65469C10.1639 1.82031 10.8608 2.11406 11.4858 2.51094C11.8108 2.71719 12.242 2.69844 12.5139 2.42344ZM13.4889 4.51094C13.8858 5.13594 14.1795 5.83281 14.3451 6.57969C14.4295 6.95469 14.7483 7.24531 15.1326 7.24531C15.5795 7.24531 15.9326 6.86094 15.8451 6.42344C15.6389 5.38281 15.2295 4.41406 14.6608 3.56094C14.4139 3.18906 13.892 3.16719 13.5764 3.48281C13.3045 3.75469 13.2826 4.18594 13.4889 4.51094Z"/></svg>