<svg viewBox="0 0 16 16" xmlns="http://www.w3.org/2000/svg"><path d="M12 2H10.75H10.45C10.2188 0.859375 9.20937 0 8 0C6.79063 0 5.78125 0.859375 5.55 2H5.25H4C2.89688 2 2 2.89687 2 4V14C2 15.1031 2.89688 16 4 16H12C13.1031 16 14 15.1031 14 14V4C14 2.89687 13.1031 2 12 2ZM4.5 3.5V4.25C4.5 4.66563 4.83437 5 5.25 5H8H10.75C11.1656 5 11.5 4.66563 11.5 4.25V3.5H12C12.275 3.5 12.5 3.725 12.5 4V14C12.5 14.275 12.275 14.5 12 14.5H4C3.725 14.5 3.5 14.275 3.5 14V4C3.5 3.725 3.725 3.5 4 3.5H4.5ZM7.25 2.5C7.25 2.30109 7.32902 2.11032 7.46967 1.96967C7.61032 1.82902 7.80109 1.75 8 1.75C8.19891 1.75 8.38968 1.82902 8.53033 1.96967C8.67098 2.11032 8.75 2.30109 8.75 2.5C8.75 2.69891 8.67098 2.88968 8.53033 3.03033C8.38968 3.17098 8.19891 3.25 8 3.25C7.80109 3.25 7.61032 3.17098 7.46967 3.03033C7.32902 2.88968 7.25 2.69891 7.25 2.5ZM6.25 8.5C6.25 8.40151 6.2306 8.30398 6.19291 8.21299C6.15522 8.12199 6.09997 8.03931 6.03033 7.96967C5.96069 7.90003 5.87801 7.84478 5.78701 7.80709C5.69602 7.7694 5.59849 7.75 5.5 7.75C5.40151 7.75 5.30398 7.7694 5.21299 7.80709C5.12199 7.84478 5.03931 7.90003 4.96967 7.96967C4.90003 8.03931 4.84478 8.12199 4.80709 8.21299C4.7694 8.30398 4.75 8.40151 4.75 8.5C4.75 8.59849 4.7694 8.69602 4.80709 8.78701C4.84478 8.87801 4.90003 8.96069 4.96967 9.03033C5.03931 9.09997 5.12199 9.15522 5.21299 9.19291C5.30398 9.2306 5.40151 9.25 5.5 9.25C5.59849 9.25 5.69602 9.2306 5.78701 9.19291C5.87801 9.15522 5.96069 9.09997 6.03033 9.03033C6.09997 8.96069 6.15522 8.87801 6.19291 8.78701C6.2306 8.69602 6.25 8.59849 6.25 8.5ZM7.5 8C7.225 8 7 8.225 7 8.5C7 8.775 7.225 9 7.5 9H10.5C10.775 9 11 8.775 11 8.5C11 8.225 10.775 8 10.5 8H7.5ZM7.5 11C7.225 11 7 11.225 7 11.5C7 11.775 7.225 12 7.5 12H10.5C10.775 12 11 11.775 11 11.5C11 11.225 10.775 11 10.5 11H7.5ZM5.5 12.25C5.69891 12.25 5.88968 12.171 6.03033 12.0303C6.17098 11.8897 6.25 11.6989 6.25 11.5C6.25 11.3011 6.17098 11.1103 6.03033 10.9697C5.88968 10.829 5.69891 10.75 5.5 10.75C5.30109 10.75 5.11032 10.829 4.96967 10.9697C4.82902 11.1103 4.75 11.3011 4.75 11.5C4.75 11.6989 4.82902 11.8897 4.96967 12.0303C5.11032 12.171 5.30109 12.25 5.5 12.25Z"/></svg>