<svg viewBox="0 0 16 16" xmlns="http://www.w3.org/2000/svg"><path d="M3.5 3.5C3.76522 3.5 4.01957 3.39464 4.20711 3.20711C4.39464 3.01957 4.5 2.76522 4.5 2.5C4.5 2.23478 4.39464 1.98043 4.20711 1.79289C4.01957 1.60536 3.76522 1.5 3.5 1.5C3.23478 1.5 2.98043 1.60536 2.79289 1.79289C2.60536 1.98043 2.5 2.23478 2.5 2.5C2.5 2.76522 2.60536 3.01957 2.79289 3.20711C2.98043 3.39464 3.23478 3.5 3.5 3.5ZM6 2.5C6 3.61875 5.26562 4.56563 4.25 4.88438V8C4.87812 7.52812 5.65625 7.25 6.5 7.25H9.5C10.7437 7.25 11.75 6.24375 11.75 5V4.88438C10.7344 4.56563 10 3.61875 10 2.5C10 1.11875 11.1187 0 12.5 0C13.8813 0 15 1.11875 15 2.5C15 3.61875 14.2656 4.56563 13.25 4.88438V5C13.25 7.07188 11.5719 8.75 9.5 8.75H6.5C5.25625 8.75 4.25 9.75625 4.25 11V11.1156C5.26562 11.4344 6 12.3813 6 13.5C6 14.8813 4.88125 16 3.5 16C2.11875 16 1 14.8813 1 13.5C1 12.3813 1.73438 11.4344 2.75 11.1156V11V4.88438C1.73438 4.56563 1 3.61875 1 2.5C1 1.11875 2.11875 0 3.5 0C4.88125 0 6 1.11875 6 2.5ZM13.5 2.5C13.5 2.23478 13.3946 1.98043 13.2071 1.79289C13.0196 1.60536 12.7652 1.5 12.5 1.5C12.2348 1.5 11.9804 1.60536 11.7929 1.79289C11.6054 1.98043 11.5 2.23478 11.5 2.5C11.5 2.76522 11.6054 3.01957 11.7929 3.20711C11.9804 3.39464 12.2348 3.5 12.5 3.5C12.7652 3.5 13.0196 3.39464 13.2071 3.20711C13.3946 3.01957 13.5 2.76522 13.5 2.5ZM3.5 14.5C3.76522 14.5 4.01957 14.3946 4.20711 14.2071C4.39464 14.0196 4.5 13.7652 4.5 13.5C4.5 13.2348 4.39464 12.9804 4.20711 12.7929C4.01957 12.6054 3.76522 12.5 3.5 12.5C3.23478 12.5 2.98043 12.6054 2.79289 12.7929C2.60536 12.9804 2.5 13.2348 2.5 13.5C2.5 13.7652 2.60536 14.0196 2.79289 14.2071C2.98043 14.3946 3.23478 14.5 3.5 14.5Z"/></svg>