<svg viewBox="0 0 16 16" xmlns="http://www.w3.org/2000/svg"><path d="M9.9775 1.6275C9.66 1.53 9.325 1.705 9.2275 2.0225L5.6275 13.6225C5.53 13.94 5.705 14.275 6.0225 14.3725C6.34 14.47 6.675 14.295 6.7725 13.9775L10.3725 2.3775C10.47 2.06 10.295 1.725 9.9775 1.6275ZM11.7625 4.59C11.535 4.8325 11.5475 5.2125 11.79 5.4375L14.5225 8L11.79 10.5625C11.5475 10.79 11.535 11.17 11.7625 11.41C11.99 11.65 12.37 11.665 12.61 11.4375L15.81 8.4375C15.93 8.325 16 8.165 16 8C16 7.835 15.9325 7.675 15.81 7.5625L12.61 4.5625C12.3675 4.335 11.9875 4.3475 11.7625 4.59ZM4.2375 4.59C4.01 4.3475 3.63 4.335 3.39 4.5625L0.19 7.5625C0.0675 7.675 0 7.835 0 8C0 8.165 0.0675 8.325 0.19 8.4375L3.39 11.4375C3.6325 11.665 4.0125 11.6525 4.2375 11.41C4.4625 11.1675 4.4525 10.7875 4.21 10.5625L1.4775 8L4.21 5.4375C4.4525 5.21 4.465 4.83 4.2375 4.59Z"/></svg>