<svg viewBox="0 0 17 17" xmlns="http://www.w3.org/2000/svg"><path d="M5.25625 12.2812C4.7875 12.1125 4.26562 12.1844 3.8625 12.4812C3.60625 12.6687 3.16562 12.9437 2.63125 13.1906C2.80625 12.7312 2.94062 12.2125 2.98438 11.6469C3.01562 11.2437 2.88125 10.8437 2.61562 10.5375C1.8875 9.71561 1.5 8.75311 1.5 7.75311C1.5 5.26874 4.10313 2.75311 8 2.75311C11.8969 2.75311 14.5 5.26874 14.5 7.75311C14.5 10.2375 11.8969 12.7531 8 12.7531C7.0125 12.7531 6.08437 12.5812 5.25625 12.2812ZM0.821875 13.4969C0.771875 13.5812 0.71875 13.6656 0.6625 13.75L0.653125 13.7656C0.603125 13.8375 0.553125 13.9094 0.503125 13.9812C0.39375 14.1281 0.275 14.2719 0.15 14.4031C0.00625001 14.5469 -0.034375 14.7594 0.04375 14.9469C0.121875 15.1344 0.303125 15.2562 0.50625 15.2562C0.665625 15.2562 0.825 15.2469 0.984375 15.2312L1.00625 15.2281C1.14375 15.2125 1.28125 15.1937 1.41875 15.1687C1.44375 15.1656 1.46875 15.1594 1.49375 15.1531C2.05 15.0437 2.58438 14.8562 3.05938 14.65C3.775 14.3375 4.38438 13.9656 4.75625 13.6937C5.75 14.0531 6.85 14.2531 8.00937 14.2531C12.4281 14.2531 16.0094 11.3437 16.0094 7.75311C16.0094 4.16249 12.4187 1.25311 8 1.25311C3.58125 1.25311 0 4.16249 0 7.75311C0 9.16249 0.553125 10.4656 1.49063 11.5312C1.43125 12.2969 1.13437 12.9781 0.821875 13.4969ZM4.5 8.75311C4.76522 8.75311 5.01957 8.64776 5.20711 8.46022C5.39464 8.27268 5.5 8.01833 5.5 7.75311C5.5 7.4879 5.39464 7.23354 5.20711 7.04601C5.01957 6.85847 4.76522 6.75311 4.5 6.75311C4.23478 6.75311 3.98043 6.85847 3.79289 7.04601C3.60536 7.23354 3.5 7.4879 3.5 7.75311C3.5 8.01833 3.60536 8.27268 3.79289 8.46022C3.98043 8.64776 4.23478 8.75311 4.5 8.75311ZM9 7.75311C9 7.4879 8.89464 7.23354 8.70711 7.04601C8.51957 6.85847 8.26522 6.75311 8 6.75311C7.73478 6.75311 7.48043 6.85847 7.29289 7.04601C7.10536 7.23354 7 7.4879 7 7.75311C7 8.01833 7.10536 8.27268 7.29289 8.46022C7.48043 8.64776 7.73478 8.75311 8 8.75311C8.26522 8.75311 8.51957 8.64776 8.70711 8.46022C8.89464 8.27268 9 8.01833 9 7.75311ZM11.5 8.75311C11.7652 8.75311 12.0196 8.64776 12.2071 8.46022C12.3946 8.27268 12.5 8.01833 12.5 7.75311C12.5 7.4879 12.3946 7.23354 12.2071 7.04601C12.0196 6.85847 11.7652 6.75311 11.5 6.75311C11.2348 6.75311 10.9804 6.85847 10.7929 7.04601C10.6054 7.23354 10.5 7.4879 10.5 7.75311C10.5 8.01833 10.6054 8.27268 10.7929 8.46022C10.9804 8.64776 11.2348 8.75311 11.5 8.75311Z"/></svg>