<svg viewBox="0 0 16 16" xmlns="http://www.w3.org/2000/svg"><path d="M15.7063 2.20719L13.7922 0.293125C13.6063 0.105344 13.3501 0 13.0844 0H7.97203C6.86737 0 5.97207 0.895625 5.97207 2L5.97268 10C6.0002 11.1063 6.89705 12 8.00016 12H14C15.1 12 16 11.1 16 10V2.91406C16 2.64906 15.8938 2.39469 15.7063 2.20719ZM14.5 10C14.5 10.2761 14.2762 10.5 14 10.5H7.97203C7.69585 10.5 7.47204 10.2761 7.47204 10V2.00406C7.47204 1.72794 7.69591 1.50406 7.97203 1.50406H11.972L12.0001 3C12.0001 3.55219 12.4479 4 13.0001 4H14.4719V10H14.5ZM8.50015 14C8.50015 14.2761 8.27628 14.5 8.00016 14.5H1.97215C1.69597 14.5 1.47216 14.2761 1.47216 14L1.49966 6.00313C1.49966 5.727 1.72353 5.50313 1.99965 5.50313H5.00021V4H1.99996C0.895295 4 0 4.89531 0 6L0.000306244 14C0.000374993 15.1031 0.89592 16 2.00027 16H8.00016C9.10013 16 10.0001 15.1 10.0001 14V13H8.52827L8.50015 14Z"/></svg>