<svg viewBox="0 0 16 16" xmlns="http://www.w3.org/2000/svg"><path d="M14.2222 3.11111C14.4667 3.11111 14.6667 3.31111 14.6667 3.55556V4.44445H1.33333V3.55556C1.33333 3.31111 1.53333 3.11111 1.77778 3.11111H14.2222ZM14.6667 7.11111V12.4444C14.6667 12.6889 14.4667 12.8889 14.2222 12.8889H1.77778C1.53333 12.8889 1.33333 12.6889 1.33333 12.4444V7.11111H14.6667ZM1.77778 1.77778C0.797222 1.77778 0 2.575 0 3.55556V12.4444C0 13.425 0.797222 14.2222 1.77778 14.2222H14.2222C15.2028 14.2222 16 13.425 16 12.4444V3.55556C16 2.575 15.2028 1.77778 14.2222 1.77778H1.77778ZM3.33333 10.2222C2.96389 10.2222 2.66667 10.5194 2.66667 10.8889C2.66667 11.2583 2.96389 11.5556 3.33333 11.5556H4.66667C5.03611 11.5556 5.33333 11.2583 5.33333 10.8889C5.33333 10.5194 5.03611 10.2222 4.66667 10.2222H3.33333ZM6.88889 10.2222C6.51944 10.2222 6.22222 10.5194 6.22222 10.8889C6.22222 11.2583 6.51944 11.5556 6.88889 11.5556H10C10.3694 11.5556 10.6667 11.2583 10.6667 10.8889C10.6667 10.5194 10.3694 10.2222 10 10.2222H6.88889Z"/></svg>