<svg viewBox="0 0 16 16" xmlns="http://www.w3.org/2000/svg"><path d="M4 0.75C4 0.334375 3.66563 0 3.25 0C2.83437 0 2.5 0.334375 2.5 0.75V2.5H0.75C0.334375 2.5 0 2.83437 0 3.25C0 3.66563 0.334375 4 0.75 4H2.5V11.75C2.5 12.7156 3.28438 13.5 4.25 13.5H11V12H4.25C4.1125 12 4 11.8875 4 11.75V0.75ZM12 15.25C12 15.6656 12.3344 16 12.75 16C13.1656 16 13.5 15.6656 13.5 15.25V13.5H15.25C15.6656 13.5 16 13.1656 16 12.75C16 12.3344 15.6656 12 15.25 12H13.5V4.25C13.5 3.28438 12.7156 2.5 11.75 2.5H5V4H11.75C11.8875 4 12 4.1125 12 4.25V15.25Z"/></svg>