<svg viewBox="0 0 16 16" xmlns="http://www.w3.org/2000/svg"><g clip-path="url(#clip0_11902_178437)"><path d="M7.37813 0.183346C7.77813 0.0316582 8.22188 0.0316582 8.62187 0.183346L14.8719 2.55413C15.55 2.81194 16 3.46256 16 4.19069V11.8094C16 12.5376 15.55 13.1876 14.8719 13.4469L8.62187 15.8157C8.22188 15.9407 7.77813 15.9407 7.37813 15.8157L1.12937 13.4469C0.449687 13.1876 0 12.5376 0 11.8094V4.19069C0 3.46256 0.449687 2.81194 1.12937 2.55413L7.37813 0.183346ZM8.0875 1.58569C8.03125 1.56413 7.94062 1.56413 7.9125 1.58569L1.98812 3.83131L8 6.19381L14.0125 3.83131L8.0875 1.58569ZM1.66125 12.0438L7.25 14.1626V7.51256L1.5 5.25319V11.8094C1.5 11.9126 1.56438 12.0063 1.66125 12.0438ZM8.75 14.1626L14.3375 12.0438C14.4344 12.0063 14.5 11.9126 14.5 11.8094V5.25319L8.75 7.51256V14.1626Z"/></g><defs><clipPath><rect/></clipPath></defs></svg>