<svg viewBox="0 0 16 16" xmlns="http://www.w3.org/2000/svg"><path d="M8 16C4.13438 16 1 14.8813 1 13.5V2.5C1 1.11937 4.13438 0 8 0C11.8656 0 15 1.11937 15 2.5V13.5C15 14.8813 11.8656 16 8 16ZM13.5 2.68844L13.4812 2.67313C13.3156 2.53219 12.9844 2.3375 12.4438 2.145C11.3781 1.76406 9.80625 1.5 8 1.5C6.19375 1.5 4.62188 1.76406 3.55469 2.145C3.01531 2.3375 2.68469 2.53219 2.51781 2.67313L2.5 2.68844V5.45937C2.915 5.65937 3.48875 5.90313 4.2125 6.08125C5.27188 6.31563 6.57812 6.5 8 6.5C9.42188 6.5 10.7281 6.31563 11.7875 6.08125C12.5125 5.90313 13.0844 5.65937 13.5 5.45937V2.68844ZM13.5 7.1125C13.0844 7.27813 12.6281 7.41875 12.1469 7.5375C10.9531 7.83125 9.525 8 8 8C6.475 8 5.04688 7.83125 3.85344 7.5375C3.37281 7.41875 2.91625 7.27813 2.5 7.1125V9.45938C2.915 9.65938 3.48875 9.90312 4.2125 10.0813C5.27188 10.3156 6.57812 10.5 8 10.5C9.42188 10.5 10.7281 10.3156 11.7875 10.0813C12.5125 9.90312 13.0844 9.65938 13.5 9.45938V7.1125ZM2.51781 13.3281C2.68469 13.4406 3.015 13.6625 3.55469 13.8562C4.62188 14.2344 6.19375 14.5 7.97188 14.5C9.80625 14.5 11.3781 14.2344 12.4438 13.8562C12.9844 13.6625 13.3156 13.4406 13.4812 13.3281L13.5 13.2844V11.1125C13.0844 11.2781 12.6281 11.4188 12.1469 11.5375C10.9531 11.8313 9.525 12 7.97188 12C6.475 12 5.04688 11.8313 3.85344 11.5375C3.37281 11.4188 2.91625 11.2781 2.47187 11.1125V13.2844L2.51781 13.3281ZM13.5625 13.2469L13.5594 13.2531C13.5625 13.2219 13.5656 13.2469 13.5656 13.2469H13.5625ZM2.44062 13.2531C2.4375 13.2219 2.43594 13.2469 2.43562 13.2469L2.44062 13.2531ZM2.44062 2.74688C2.43687 2.75125 2.43562 2.75344 2.43562 2.75344L2.44062 2.74688ZM13.5656 2.75344C13.5656 2.75344 13.5625 2.75125 13.5594 2.74688L13.5656 2.75344Z"/></svg>