<svg viewBox="0 0 16 16" xmlns="http://www.w3.org/2000/svg"><path d="M5.14286 1.71429V5.14286H1.71429V1.71429H5.14286ZM1.71429 0C0.767857 0 0 0.767857 0 1.71429V5.14286C0 6.08929 0.767857 6.85714 1.71429 6.85714H2.57143V10.2857C2.57143 12.0214 3.97857 13.4286 5.71429 13.4286H9.14286V14.2857C9.14286 15.2321 9.91072 16 10.8571 16H14.2857C15.2321 16 16 15.2321 16 14.2857V10.8571C16 9.91072 15.2321 9.14286 14.2857 9.14286H10.8571C9.91072 9.14286 9.14286 9.91072 9.14286 10.8571V11.7143H5.71429C4.925 11.7143 4.28571 11.075 4.28571 10.2857V6.85714H5.14286C6.08929 6.85714 6.85714 6.08929 6.85714 5.14286V1.71429C6.85714 0.767857 6.08929 0 5.14286 0H1.71429ZM14.2857 10.8571V14.2857H10.8571V10.8571H14.2857Z"/></svg>