<svg viewBox="0 0 16 16" xmlns="http://www.w3.org/2000/svg"><path d="M3.77778 3.11111C3.9 3.11111 4 3.21111 4 3.33333V5.55556C4 5.67778 3.9 5.77778 3.77778 5.77778H1.55556C1.43333 5.77778 1.33333 5.67778 1.33333 5.55556V3.33333C1.33333 3.21111 1.43333 3.11111 1.55556 3.11111H3.77778ZM1.55556 1.77778C0.697222 1.77778 0 2.475 0 3.33333V5.55556C0 6.41389 0.697222 7.11111 1.55556 7.11111H3.77778C3.93333 7.11111 4.08611 7.08889 4.22778 7.04445L6.33611 9.85556C6.26111 10.0361 6.22222 10.2361 6.22222 10.4444V12.6667C6.22222 13.525 6.91944 14.2222 7.77778 14.2222H10C10.8583 14.2222 11.5556 13.525 11.5556 12.6667V10.4444C11.5556 9.58611 10.8583 8.88889 10 8.88889H7.77778C7.62222 8.88889 7.46944 8.91111 7.32778 8.95556L5.21944 6.14445C5.29444 5.96389 5.33333 5.76389 5.33333 5.55556V5.11111H10.6667V5.55556C10.6667 6.41389 11.3639 7.11111 12.2222 7.11111H14.4444C15.3028 7.11111 16 6.41389 16 5.55556V3.33333C16 2.475 15.3028 1.77778 14.4444 1.77778H12.2222C11.3639 1.77778 10.6667 2.475 10.6667 3.33333V3.77778H5.33333V3.33333C5.33333 2.475 4.63611 1.77778 3.77778 1.77778H1.55556ZM10 10.2222C10.1222 10.2222 10.2222 10.3222 10.2222 10.4444V12.6667C10.2222 12.7889 10.1222 12.8889 10 12.8889H7.77778C7.65556 12.8889 7.55556 12.7889 7.55556 12.6667V10.4444C7.55556 10.3222 7.65556 10.2222 7.77778 10.2222H10ZM12.2222 3.11111H14.4444C14.5667 3.11111 14.6667 3.21111 14.6667 3.33333V5.55556C14.6667 5.67778 14.5667 5.77778 14.4444 5.77778H12.2222C12.1 5.77778 12 5.67778 12 5.55556V3.33333C12 3.21111 12.1 3.11111 12.2222 3.11111Z"/></svg>