<svg viewBox="0 0 16 16" xmlns="http://www.w3.org/2000/svg"><path d="M1.77778 2.98301C1.53333 2.98301 1.33333 3.18296 1.33333 3.42735V11.4254C1.33333 11.6698 1.53333 11.8698 1.77778 11.8698H6.65278C6.66111 11.8698 6.66944 11.8698 6.675 11.8698H9.31944C9.32778 11.8698 9.33611 11.8698 9.34167 11.8698H14.2222C14.4667 11.8698 14.6667 11.6698 14.6667 11.4254V3.42735C14.6667 3.18296 14.4667 2.98301 14.2222 2.98301H1.77778ZM5.88056 13.2028H1.77778C0.797222 13.2028 0 12.4057 0 11.4254V3.42735C0 2.44703 0.797222 1.65 1.77778 1.65H14.2222C15.2028 1.65 16 2.44703 16 3.42735V11.4254C16 12.4057 15.2028 13.2028 14.2222 13.2028H10.1194L10.3417 14.5358H11.7778C12.1472 14.5358 12.4444 14.8329 12.4444 15.2023C12.4444 15.5716 12.1472 15.8688 11.7778 15.8688H4.22222C3.85278 15.8688 3.55556 15.5716 3.55556 15.2023C3.55556 14.8329 3.85278 14.5358 4.22222 14.5358H5.65833L5.88056 13.2028ZM7.23333 13.2028L7.01111 14.5358H8.99167L8.76944 13.2028H7.23056H7.23333Z"/></svg>