<svg viewBox="0 0 16 16" xmlns="http://www.w3.org/2000/svg"><path d="M0.5 7.1015L0.511399 7.08602C0.511399 7.09118 0.511399 7.09634 0.509119 7.1015H0.5ZM15.5 7.60179C15.5 6.18253 15.2473 4.87745 14.5617 3.65366C13.2271 1.28639 10.863 1.79391e-05 8.09412 1.79391e-05C3.53824 -0.00901374 0.985583 3.39367 0.511399 7.08602C1.89292 5.1084 4.32409 3.17078 7.68833 3.05402C7.68833 3.05402 11.26 3.05402 10.9262 6.4409H5.19918C5.40664 5.23484 5.80331 4.53779 6.31756 3.89493C3.87336 5.02066 2.34919 6.99473 2.38501 9.96938C2.41205 12.2741 4.01763 14.6413 6.31756 15.5174C9.03207 16.5444 12.5956 15.7497 14.138 14.8294V11.4609C11.5043 13.283 5.31643 13.4259 5.27116 9.28136H15.5V7.60179V7.60179Z"/></svg>