<svg viewBox="0 0 15 16" xmlns="http://www.w3.org/2000/svg"><path d="M10.5887 8.00012C10.5887 7.23824 11.2089 6.62012 11.9733 6.62012C12.7377 6.62012 13.3579 7.23824 13.3579 8.00012C13.3579 8.76199 12.7377 9.38012 11.9733 9.38012C11.2089 9.38012 10.5887 8.76199 10.5887 8.00012ZM5.97329 8.00012C5.97329 7.23824 6.59349 6.62012 7.35791 6.62012C8.12233 6.62012 8.74253 7.23824 8.74253 8.00012C8.74253 8.76199 8.12233 9.38012 7.35791 9.38012C6.59349 9.38012 5.97329 8.76199 5.97329 8.00012ZM4.12714 8.00012C4.12714 8.76199 3.50724 9.38012 2.74253 9.38012C1.97781 9.38012 1.35791 8.76199 1.35791 8.00012C1.35791 7.23824 1.97781 6.62012 2.74253 6.62012C3.50724 6.62012 4.12714 7.23824 4.12714 8.00012Z"/></svg>