<svg viewBox="0 0 16 16" xmlns="http://www.w3.org/2000/svg"><path d="M0 3.83333C0 2.68262 0.895313 1.75 2 1.75H14C15.1031 1.75 16 2.68262 16 3.83333V12.1667C16 13.3158 15.1031 14.25 14 14.25H2C0.895313 14.25 0 13.3158 0 12.1667V3.83333ZM1.5 3.83333V4.55273L6.89062 9.16211C7.53438 9.71549 8.46562 9.71549 9.10938 9.16211L14.5 4.55273V3.80404C14.5 3.54687 14.275 3.2832 14 3.2832H2C1.72375 3.2832 1.5 3.54687 1.5 3.80404V3.83333ZM1.5 6.57422V12.1667C1.5 12.4531 1.72375 12.6875 2 12.6875H14C14.275 12.6875 14.5 12.4531 14.5 12.1667V6.57422L10.0625 10.3698C8.8625 11.3952 7.1375 11.3952 5.90938 10.3698L1.5 6.57422Z"/></svg>