<svg viewBox="0 0 16 16" xmlns="http://www.w3.org/2000/svg"><path d="M0.969896 1.72749C0.709896 1.52249 0.332396 1.56999 0.127396 1.82999C-0.0776036 2.08999 -0.0301036 2.46749 0.229896 2.67249L15.0299 14.2725C15.2899 14.4775 15.6674 14.43 15.8724 14.17C16.0774 13.91 16.0299 13.5325 15.7699 13.3275L13.1399 11.2675C14.1299 10.2525 14.7999 9.11499 15.1374 8.30749C15.2199 8.10999 15.2199 7.88999 15.1374 7.69249C14.7649 6.79999 13.9824 5.49999 12.8124 4.41499C11.6374 3.31999 10.0199 2.39999 7.9999 2.39999C6.2949 2.39999 4.8749 3.05749 3.7674 3.91999L0.969896 1.72749ZM4.7449 4.68499C5.6499 4.04249 6.7374 3.59999 7.9999 3.59999C9.6299 3.59999 10.9699 4.33999 11.9974 5.29249C12.9599 6.18749 13.6249 7.24999 13.9649 7.99999C13.6499 8.69999 13.0499 9.66999 12.1924 10.5225L10.8474 9.46749C11.0749 9.02749 11.2024 8.52999 11.2024 7.99999C11.2024 6.23249 9.7699 4.79999 8.0024 4.79999C7.1974 4.79999 6.4599 5.09749 5.8974 5.58749L4.7449 4.68499ZM9.8724 8.70499L7.8349 7.10749C7.9399 6.89499 7.9999 6.65249 7.9999 6.39999C7.9999 6.26249 7.9824 6.12749 7.9499 5.99999C7.9674 5.99999 7.9824 5.99999 7.9999 5.99999C9.1049 5.99999 9.9999 6.89499 9.9999 7.99999C9.9999 8.24749 9.9549 8.48499 9.8724 8.70499ZM10.1074 11.9625C9.4699 12.235 8.7674 12.4 7.9999 12.4C6.3699 12.4 5.0299 11.66 4.0024 10.7075C3.0399 9.81249 2.3749 8.74999 2.0349 7.99999C2.2424 7.53999 2.5724 6.96249 3.0199 6.37999L2.0774 5.63749C1.5074 6.37999 1.0999 7.11999 0.862396 7.69249C0.779896 7.88999 0.779896 8.10999 0.862396 8.30749C1.2349 9.19999 2.0174 10.5 3.1874 11.585C4.3624 12.68 5.9799 13.6 7.9999 13.6C9.1949 13.6 10.2474 13.2775 11.1549 12.7875L10.1074 11.9625ZM4.7999 7.99999C4.7999 9.76749 6.2324 11.2 7.9999 11.2C8.3324 11.2 8.6524 11.15 8.9549 11.055L7.5499 9.94999C6.9624 9.81499 6.4724 9.41999 6.2074 8.89249L4.8049 7.78749C4.7999 7.85749 4.7974 7.92749 4.7974 7.99999H4.7999Z"/></svg>