<svg viewBox="0 0 16 16" xmlns="http://www.w3.org/2000/svg"><path d="M7.99857 3.1111C6.18746 3.1111 4.69857 3.93333 3.55691 4.99166C2.48746 5.9861 1.74857 7.16666 1.3708 7.99999C1.74857 8.83333 2.48746 10.0139 3.55413 11.0083C4.69857 12.0667 6.18746 12.8889 7.99857 12.8889C9.80968 12.8889 11.2986 12.0667 12.4402 11.0083C13.5097 10.0139 14.2486 8.83333 14.6263 7.99999C14.2486 7.16666 13.5097 5.9861 12.443 4.99166C11.2986 3.93333 9.80968 3.1111 7.99857 3.1111ZM2.64857 4.01666C3.95691 2.79999 5.75413 1.77777 7.99857 1.77777C10.243 1.77777 12.0402 2.79999 13.3486 4.01666C14.6486 5.22499 15.518 6.66666 15.9319 7.65833C16.0236 7.87777 16.0236 8.12222 15.9319 8.34166C15.518 9.33333 14.6486 10.7778 13.3486 11.9833C12.0402 13.2 10.243 14.2222 7.99857 14.2222C5.75413 14.2222 3.95691 13.2 2.64857 11.9833C1.34857 10.7778 0.479129 9.33333 0.0680176 8.34166C-0.0236491 8.12222 -0.0236491 7.87777 0.0680176 7.65833C0.479129 6.66666 1.34857 5.22222 2.64857 4.01666ZM7.99857 10.2222C9.22635 10.2222 10.2208 9.22777 10.2208 7.99999C10.2208 6.77222 9.22635 5.77777 7.99857 5.77777C7.97913 5.77777 7.96246 5.77777 7.94302 5.77777C7.97913 5.91944 7.99857 6.06944 7.99857 6.22222C7.99857 7.20277 7.20135 7.99999 6.2208 7.99999C6.06802 7.99999 5.91802 7.98055 5.77635 7.94444C5.77635 7.96388 5.77635 7.98055 5.77635 7.99999C5.77635 9.22777 6.7708 10.2222 7.99857 10.2222ZM7.99857 4.44444C8.94157 4.44444 9.84593 4.81904 10.5127 5.48584C11.1795 6.15263 11.5541 7.057 11.5541 7.99999C11.5541 8.94299 11.1795 9.84735 10.5127 10.5142C9.84593 11.1809 8.94157 11.5555 7.99857 11.5555C7.05558 11.5555 6.15121 11.1809 5.48442 10.5142C4.81762 9.84735 4.44302 8.94299 4.44302 7.99999C4.44302 7.057 4.81762 6.15263 5.48442 5.48584C6.15121 4.81904 7.05558 4.44444 7.99857 4.44444Z"/></svg>