<svg viewBox="0 0 16 16" xmlns="http://www.w3.org/2000/svg"><path d="M7.99857 3.11111C6.18746 3.11111 4.69857 3.93333 3.55691 4.99167C2.48746 5.98611 1.74857 7.16667 1.3708 8C1.74857 8.83333 2.48746 10.0139 3.55413 11.0083C4.69857 12.0667 6.18746 12.8889 7.99857 12.8889C9.80968 12.8889 11.2986 12.0667 12.4402 11.0083C13.5097 10.0139 14.2486 8.83333 14.6263 8C14.2486 7.16667 13.5097 5.98611 12.443 4.99167C11.2986 3.93333 9.80968 3.11111 7.99857 3.11111ZM2.64857 4.01667C3.95691 2.8 5.75413 1.77778 7.99857 1.77778C10.243 1.77778 12.0402 2.8 13.3486 4.01667C14.6486 5.225 15.518 6.66667 15.9319 7.65833C16.0236 7.87778 16.0236 8.12222 15.9319 8.34167C15.518 9.33333 14.6486 10.7778 13.3486 11.9833C12.0402 13.2 10.243 14.2222 7.99857 14.2222C5.75413 14.2222 3.95691 13.2 2.64857 11.9833C1.34857 10.7778 0.479129 9.33333 0.0680176 8.34167C-0.0236491 8.12222 -0.0236491 7.87778 0.0680176 7.65833C0.479129 6.66667 1.34857 5.22222 2.64857 4.01667ZM7.99857 10.2222C9.22635 10.2222 10.2208 9.22778 10.2208 8C10.2208 6.77222 9.22635 5.77778 7.99857 5.77778C7.97913 5.77778 7.96246 5.77778 7.94302 5.77778C7.97913 5.91945 7.99857 6.06945 7.99857 6.22222C7.99857 7.20278 7.20135 8 6.2208 8C6.06802 8 5.91802 7.98056 5.77635 7.94445C5.77635 7.96389 5.77635 7.98056 5.77635 8C5.77635 9.22778 6.7708 10.2222 7.99857 10.2222ZM7.99857 4.44445C8.94157 4.44445 9.84593 4.81905 10.5127 5.48584C11.1795 6.15264 11.5541 7.05701 11.5541 8C11.5541 8.94299 11.1795 9.84736 10.5127 10.5142C9.84593 11.181 8.94157 11.5556 7.99857 11.5556C7.05558 11.5556 6.15121 11.181 5.48442 10.5142C4.81762 9.84736 4.44302 8.94299 4.44302 8C4.44302 7.05701 4.81762 6.15264 5.48442 5.48584C6.15121 4.81905 7.05558 4.44445 7.99857 4.44445Z"/></svg>