<svg viewBox="0 0 16 16" xmlns="http://www.w3.org/2000/svg"><path d="M14.5 8C14.5 6.27609 13.8152 4.62279 12.5962 3.40381C11.3772 2.18482 9.72391 1.5 8 1.5C6.27609 1.5 4.62279 2.18482 3.40381 3.40381C2.18482 4.62279 1.5 6.27609 1.5 8C1.5 9.72391 2.18482 11.3772 3.40381 12.5962C4.62279 13.8152 6.27609 14.5 8 14.5C9.72391 14.5 11.3772 13.8152 12.5962 12.5962C13.8152 11.3772 14.5 9.72391 14.5 8ZM0 8C0 5.87827 0.842855 3.84344 2.34315 2.34315C3.84344 0.842855 5.87827 0 8 0C10.1217 0 12.1566 0.842855 13.6569 2.34315C15.1571 3.84344 16 5.87827 16 8C16 10.1217 15.1571 12.1566 13.6569 13.6569C12.1566 15.1571 10.1217 16 8 16C5.87827 16 3.84344 15.1571 2.34315 13.6569C0.842855 12.1566 0 10.1217 0 8ZM5.45625 12.0031C5.31563 12.3938 4.8875 12.5938 4.49687 12.4531C4.10625 12.3125 3.90625 11.8844 4.04688 11.4937C4.59062 9.98125 6.21562 9 8 9C9.78438 9 11.4094 9.98125 11.9563 11.4969C12.0969 11.8875 11.8938 12.3156 11.5063 12.4563C11.1188 12.5969 10.6875 12.3938 10.5469 12.0063C10.2563 11.2031 9.2875 10.5 8 10.5C6.7125 10.5 5.74375 11.2031 5.45625 12.0031ZM4.5125 6.5C4.5125 6.23478 4.61786 5.98043 4.80539 5.79289C4.99293 5.60536 5.24728 5.5 5.5125 5.5C5.77772 5.5 6.03207 5.60536 6.21961 5.79289C6.40714 5.98043 6.5125 6.23478 6.5125 6.5C6.5125 6.76522 6.40714 7.01957 6.21961 7.20711C6.03207 7.39464 5.77772 7.5 5.5125 7.5C5.24728 7.5 4.99293 7.39464 4.80539 7.20711C4.61786 7.01957 4.5125 6.76522 4.5125 6.5ZM10.5125 5.5C10.7777 5.5 11.0321 5.60536 11.2196 5.79289C11.4071 5.98043 11.5125 6.23478 11.5125 6.5C11.5125 6.76522 11.4071 7.01957 11.2196 7.20711C11.0321 7.39464 10.7777 7.5 10.5125 7.5C10.2473 7.5 9.99293 7.39464 9.80539 7.20711C9.61786 7.01957 9.5125 6.76522 9.5125 6.5C9.5125 6.23478 9.61786 5.98043 9.80539 5.79289C9.99293 5.60536 10.2473 5.5 10.5125 5.5Z"/></svg>