<svg viewBox="0 0 16 16" xmlns="http://www.w3.org/2000/svg"><path d="M8 16C10.1217 16 12.1566 15.1571 13.6569 13.6569C15.1571 12.1566 16 10.1217 16 8C16 5.87827 15.1571 3.84344 13.6569 2.34315C12.1566 0.842855 10.1217 0 8 0C5.87827 0 3.84344 0.842855 2.34315 2.34315C0.842855 3.84344 0 5.87827 0 8C0 10.1217 0.842855 12.1566 2.34315 13.6569C3.84344 15.1571 5.87827 16 8 16ZM3.025 9.81563C2.90625 9.3875 3.25625 9 3.7 9H12.3C12.7438 9 13.0969 9.3875 12.975 9.81563C12.3813 11.9375 10.3781 13.5 8 13.5C5.62187 13.5 3.61875 11.9375 3.025 9.81563ZM4.5125 6C4.5125 5.73478 4.61786 5.48043 4.80539 5.29289C4.99293 5.10536 5.24728 5 5.5125 5C5.77772 5 6.03207 5.10536 6.21961 5.29289C6.40714 5.48043 6.5125 5.73478 6.5125 6C6.5125 6.26522 6.40714 6.51957 6.21961 6.70711C6.03207 6.89464 5.77772 7 5.5125 7C5.24728 7 4.99293 6.89464 4.80539 6.70711C4.61786 6.51957 4.5125 6.26522 4.5125 6ZM10.5125 5C10.7777 5 11.0321 5.10536 11.2196 5.29289C11.4071 5.48043 11.5125 5.73478 11.5125 6C11.5125 6.26522 11.4071 6.51957 11.2196 6.70711C11.0321 6.89464 10.7777 7 10.5125 7C10.2473 7 9.99293 6.89464 9.80539 6.70711C9.61786 6.51957 9.5125 6.26522 9.5125 6C9.5125 5.73478 9.61786 5.48043 9.80539 5.29289C9.99293 5.10536 10.2473 5 10.5125 5Z"/></svg>