<svg viewBox="0 0 16 16" xmlns="http://www.w3.org/2000/svg"><path d="M14.5 8C14.5 6.27609 13.8152 4.62279 12.5962 3.40381C11.3772 2.18482 9.72391 1.5 8 1.5C6.27609 1.5 4.62279 2.18482 3.40381 3.40381C2.18482 4.62279 1.5 6.27609 1.5 8C1.5 9.72391 2.18482 11.3772 3.40381 12.5962C4.62279 13.8152 6.27609 14.5 8 14.5C9.72391 14.5 11.3772 13.8152 12.5962 12.5962C13.8152 11.3772 14.5 9.72391 14.5 8ZM0 8C0 5.87827 0.842855 3.84344 2.34315 2.34315C3.84344 0.842855 5.87827 0 8 0C10.1217 0 12.1566 0.842855 13.6569 2.34315C15.1571 3.84344 16 5.87827 16 8C16 10.1217 15.1571 12.1566 13.6569 13.6569C12.1566 15.1571 10.1217 16 8 16C5.87827 16 3.84344 15.1571 2.34315 13.6569C0.842855 12.1566 0 10.1217 0 8ZM4.08437 9.80937C3.95312 9.38437 4.30625 9 4.75 9H11.3906C11.8344 9 12.1875 9.3875 12.0562 9.80937C11.5312 11.5125 9.94375 12.75 8.06875 12.75C6.19375 12.75 4.60625 11.5125 4.08437 9.80937ZM4.5125 6C4.5125 5.73478 4.61786 5.48043 4.80539 5.29289C4.99293 5.10536 5.24728 5 5.5125 5C5.77772 5 6.03207 5.10536 6.21961 5.29289C6.40714 5.48043 6.5125 5.73478 6.5125 6C6.5125 6.26522 6.40714 6.51957 6.21961 6.70711C6.03207 6.89464 5.77772 7 5.5125 7C5.24728 7 4.99293 6.89464 4.80539 6.70711C4.61786 6.51957 4.5125 6.26522 4.5125 6ZM10.5125 5C10.7777 5 11.0321 5.10536 11.2196 5.29289C11.4071 5.48043 11.5125 5.73478 11.5125 6C11.5125 6.26522 11.4071 6.51957 11.2196 6.70711C11.0321 6.89464 10.7777 7 10.5125 7C10.2473 7 9.99293 6.89464 9.80539 6.70711C9.61786 6.51957 9.5125 6.26522 9.5125 6C9.5125 5.73478 9.61786 5.48043 9.80539 5.29289C9.99293 5.10536 10.2473 5 10.5125 5Z"/></svg>