<svg viewBox="0 0 16 16" xmlns="http://www.w3.org/2000/svg"><path d="M8 16C10.1217 16 12.1566 15.1571 13.6569 13.6569C15.1571 12.1566 16 10.1217 16 8C16 5.87827 15.1571 3.84344 13.6569 2.34315C12.1566 0.842855 10.1217 0 8 0C5.87827 0 3.84344 0.842855 2.34315 2.34315C0.842855 3.84344 0 5.87827 0 8C0 10.1217 0.842855 12.1566 2.34315 13.6569C3.84344 15.1571 5.87827 16 8 16ZM4.97813 12.1469C4.89687 12.4094 4.61562 12.5594 4.35313 12.475C4.09063 12.3906 3.94063 12.1125 4.025 11.85C4.5375 10.1906 6.13438 9 8 9C9.86563 9 11.4625 10.1906 11.9781 11.8531C12.0594 12.1156 11.9125 12.3969 11.65 12.4781C11.3875 12.5594 11.1062 12.4125 11.025 12.15C10.6406 10.9187 9.44063 10 8 10C6.55937 10 5.35938 10.9188 4.97813 12.1469ZM4.5125 6.5C4.5125 6.23478 4.61786 5.98043 4.80539 5.79289C4.99293 5.60536 5.24728 5.5 5.5125 5.5C5.77772 5.5 6.03207 5.60536 6.21961 5.79289C6.40714 5.98043 6.5125 6.23478 6.5125 6.5C6.5125 6.76522 6.40714 7.01957 6.21961 7.20711C6.03207 7.39464 5.77772 7.5 5.5125 7.5C5.24728 7.5 4.99293 7.39464 4.80539 7.20711C4.61786 7.01957 4.5125 6.76522 4.5125 6.5ZM10.5125 5.5C10.7777 5.5 11.0321 5.60536 11.2196 5.79289C11.4071 5.98043 11.5125 6.23478 11.5125 6.5C11.5125 6.76522 11.4071 7.01957 11.2196 7.20711C11.0321 7.39464 10.7777 7.5 10.5125 7.5C10.2473 7.5 9.99293 7.39464 9.80539 7.20711C9.61786 7.01957 9.5125 6.76522 9.5125 6.5C9.5125 6.23478 9.61786 5.98043 9.80539 5.79289C9.99293 5.60536 10.2473 5.5 10.5125 5.5Z"/></svg>