<svg viewBox="0 0 16 16" xmlns="http://www.w3.org/2000/svg"><path d="M11 13.5H12C12.2773 13.5 12.5 13.2773 12.5 13V12C12.5 11.7227 12.2773 11.5 12 11.5H11C10.7227 11.5 10.5 11.7227 10.5 12V13C10.5 13.2781 10.7219 13.5 11 13.5ZM11 10.5H12C12.2773 10.5 12.5 10.2773 12.5 10V9C12.5 8.72266 12.2773 8.5 12 8.5H11C10.7227 8.5 10.5 8.72266 10.5 9V10C10.5 10.2781 10.7219 10.5 11 10.5ZM8 10.5H9C9.27734 10.5 9.5 10.2773 9.5 10V9C9.5 8.72266 9.27734 8.5 9 8.5H8C7.72188 8.5 7.5 8.72188 7.5 9V10C7.5 10.2781 7.72188 10.5 8 10.5ZM14.5 6H5.5L5.47188 1.5H12.4125L13.5 2.56063V5H15V2.56063C15 2.16281 14.842 1.78125 14.5606 1.5L13.5 0.439375C13.2188 0.158031 12.8375 0 12.4406 0H5.47188C4.64344 0 3.97187 0.671562 3.97187 1.5L3.97206 4.07062C3.84063 4.02812 3.675 4 3.5 4H2C0.895313 4 0 4.89688 0 6V14C0 15.1047 0.895313 16 2 16H14.5C15.3272 16 16 15.3272 16 14.5V7.5C16 6.67188 15.3281 6 14.5 6ZM4 14C4 14.2757 3.77569 14.5 3.5 14.5H2C1.72431 14.5 1.5 14.2757 1.5 14V6C1.5 5.72431 1.72431 5.5 2 5.5H3.5C3.775 5.5 4 5.725 4 6V14ZM14.5 14.5H5.42812C5.47187 14.3406 5.5 14.175 5.5 14V7.5H14.5V14.5ZM8 13.5H9C9.27734 13.5 9.5 13.2773 9.5 13V12C9.5 11.7227 9.27734 11.5 9 11.5H8C7.72266 11.5 7.5 11.7227 7.5 12V13C7.5 13.2781 7.72188 13.5 8 13.5Z"/></svg>