<svg viewBox="0 0 16 16" xmlns="http://www.w3.org/2000/svg"><path fill-rule="evenodd" clip-rule="evenodd" d="M5.50819 0.0656738H10.4918C11.2745 0.0656738 12.025 0.376564 12.5784 0.92995C13.1318 1.48333 13.4427 2.23389 13.4427 3.01649C13.4427 3.79911 13.1318 4.54965 12.5784 5.10303C12.4239 5.25748 12.2541 5.39304 12.0725 5.50823C12.2541 5.62341 12.4239 5.75896 12.5784 5.91341C13.1318 6.4668 13.4427 7.21733 13.4427 7.99995C13.4427 8.78257 13.1318 9.53311 12.5784 10.0865C12.025 10.6399 11.2745 10.9508 10.4918 10.9508C9.73425 10.9508 9.00674 10.6595 8.45901 10.1389V12.9836C8.45901 13.7662 8.14812 14.5168 7.59473 15.0701C7.04135 15.6235 6.29081 15.9344 5.50819 15.9344C4.72558 15.9344 3.97503 15.6235 3.42165 15.0701C2.86826 14.5168 2.55737 13.7662 2.55737 12.9836C2.55737 12.201 2.86826 11.4504 3.42165 10.8971C3.57614 10.7426 3.74599 10.607 3.92762 10.4918C3.74599 10.3766 3.57614 10.241 3.42165 10.0865C2.86826 9.53311 2.55737 8.78257 2.55737 7.99995C2.55737 7.21733 2.86826 6.4668 3.42165 5.91341C3.57609 5.75897 3.7459 5.62341 3.92747 5.50822C3.7459 5.39304 3.5761 5.25748 3.42165 5.10303C2.86826 4.54965 2.55737 3.79911 2.55737 3.01649C2.55737 2.23389 2.86826 1.48334 3.42165 0.929951C3.97503 0.376564 4.72559 0.0656738 5.50819 0.0656738ZM7.54098 5.04913H5.50819C5.50191 5.04913 5.49563 5.04915 5.48935 5.04919C4.95703 5.04426 4.44757 4.83067 4.0708 4.45389C3.68957 4.07266 3.47541 3.55563 3.47541 3.01649C3.47541 2.47736 3.68957 1.96032 4.0708 1.5791C4.45202 1.19788 4.96906 0.983707 5.50819 0.983707H7.54098V5.04913ZM5.48935 5.96725C4.95703 5.97218 4.44757 6.18578 4.0708 6.56256C3.68957 6.94378 3.47541 7.46082 3.47541 7.99995C3.47541 8.53909 3.68957 9.05612 4.0708 9.43735C4.45202 9.81857 4.96906 10.0327 5.50819 10.0327H7.54098V5.96731H5.50819C5.50191 5.96731 5.49563 5.96729 5.48935 5.96725ZM10.4673 5.96731H10.4918L10.5107 5.96725C11.043 5.97218 11.5524 6.18578 11.9292 6.56256C12.3105 6.94378 12.5246 7.46082 12.5246 7.99995C12.5246 8.53909 12.3105 9.05612 11.9292 9.43735C11.548 9.81857 11.031 10.0327 10.4918 10.0327C9.9527 10.0327 9.43567 9.81857 9.05444 9.43735C8.67322 9.05612 8.45905 8.53909 8.45905 7.99995C8.45905 7.46082 8.67322 6.94378 9.05444 6.56256C9.42989 6.18711 9.93706 5.97369 10.4673 5.96731ZM10.5107 5.04919C11.043 5.04426 11.5524 4.83067 11.9292 4.45389C12.3105 4.07266 12.5246 3.55563 12.5246 3.01649C12.5246 2.47737 12.3105 1.96032 11.9292 1.5791C11.548 1.19787 11.031 0.983707 10.4918 0.983707H8.45905V5.04928H10.4623L10.4918 5.04913L10.5107 5.04919ZM5.50819 10.9508C4.96906 10.9508 4.45202 11.165 4.0708 11.5462C3.68957 11.9274 3.47541 12.4445 3.47541 12.9836C3.47541 13.5227 3.68957 14.0398 4.0708 14.421C4.45202 14.8022 4.96906 15.0164 5.50819 15.0164C6.04733 15.0164 6.56436 14.8022 6.94559 14.421C7.32681 14.0398 7.54098 13.5227 7.54098 12.9836V10.9508H5.50819Z"/></svg>