<svg viewBox="0 0 16 16" xmlns="http://www.w3.org/2000/svg"><path d="M15.3321 2.91812L12.6668 0.585625C12.2357 0.210687 11.6536 0 11.05 0H5.71429C4.45357 0 3.42857 0.895313 3.42857 2L3.42892 11C3.42892 12.1044 4.45214 13 5.71464 13H13.7146C14.9714 13 16 12.1 16 11V4.33125C16 3.80313 15.7607 3.29375 15.3321 2.91812ZM14.2857 11C14.2857 11.2761 14.0299 11.5 13.7143 11.5H5.71429C5.39864 11.5 5.14286 11.2761 5.14286 11V2.00406C5.14286 1.72794 5.39871 1.50406 5.71429 1.50406H10.2857V4C10.2857 4.55219 10.7975 5 11.4286 5H14.2854V11H14.2857ZM11.7143 16H4.28571C1.9225 16 0 14.3187 0 12.25V3.75C0 3.3375 0.383929 3 0.857143 3C1.33036 3 1.71429 3.3375 1.71429 3.75V12.25C1.71429 13.4906 2.86786 14.5 4.28571 14.5H11.7143C12.1875 14.5 12.5714 14.8359 12.5714 15.25C12.5714 15.6641 12.1893 16 11.7143 16Z"/></svg>