<svg viewBox="0 0 16 16" xmlns="http://www.w3.org/2000/svg"><path d="M14.0926 2.91812L11.4689 0.585625C11.0445 0.210687 10.4715 0 9.87734 0H3.5C2.25723 0 1.25 0.895313 1.25 2L1.25023 14C1.25023 15.1044 2.25746 16 3.50023 16H12.5C13.7375 16 14.75 15.1 14.75 14V4.33125C14.75 3.80313 14.5145 3.29375 14.0926 2.91812ZM13.0625 14C13.0625 14.2761 12.8106 14.5 12.5 14.5H3.5007C3.18999 14.5 2.9382 14.2761 2.9382 14L2.9375 2.00406C2.9375 1.72794 3.18936 1.50406 3.5 1.50406H9.125V4C9.125 4.55219 9.62879 5 10.25 5H13.0309V14H13.0625ZM8 8C7.53594 8 7.15625 8.3375 7.15625 8.75V12.75C7.15625 13.1641 7.53418 13.5 8 13.5C8.46582 13.5 8.84375 13.1641 8.84375 12.75V8.75C8.84375 8.3375 8.46758 8 8 8ZM10.25 12.75C10.25 13.1641 10.6279 13.5 11.0938 13.5C11.5596 13.5 11.9375 13.1641 11.9375 12.75V9.75C11.9375 9.3375 11.5613 9 11.0938 9C10.6262 9 10.25 9.3375 10.25 9.75V12.75ZM4.90625 10C4.44043 10 4.0625 10.3359 4.0625 10.75V12.75C4.0625 13.1641 4.44043 13.5 4.90625 13.5C5.37207 13.5 5.75 13.1656 5.75 12.75V10.75C5.75 10.3375 5.37383 10 4.90625 10Z"/></svg>