<svg viewBox="0 0 16 16" xmlns="http://www.w3.org/2000/svg"><path d="M14.0926 2.91812L11.4689 0.585625C11.0445 0.210687 10.4715 0 9.87734 0H3.5C2.25723 0 1.25 0.895313 1.25 2L1.25023 14C1.25023 15.1044 2.25746 16 3.50023 16H12.5C13.7375 16 14.75 15.1 14.75 14V4.33125C14.75 3.80313 14.5145 3.29375 14.0926 2.91812ZM13.0625 14C13.0625 14.2761 12.8106 14.5 12.5 14.5H3.5007C3.18999 14.5 2.9382 14.2761 2.9382 14L2.9375 2.00406C2.9375 1.72794 3.18936 1.50406 3.5 1.50406H9.125V4C9.125 4.55219 9.62879 5 10.25 5H13.0309V14H13.0625ZM4.625 4H7.4375C7.74688 4 8 3.775 8 3.5C8 3.225 7.74688 3 7.4375 3H4.625C4.31422 3 4.0625 3.225 4.0625 3.5C4.0625 3.775 4.31422 4 4.625 4ZM8 5.5C8 5.225 7.74688 5 7.4375 5H4.625C4.31422 5 4.0625 5.225 4.0625 5.5C4.0625 5.775 4.31422 6 4.625 6H7.4375C7.74688 6 8 5.775 8 5.5ZM8.19336 9.65L7.96836 9.6C7.1668 9.38125 7.18438 9.25312 7.2125 9.14062C7.26084 8.8965 7.79574 8.83691 8.27668 8.90234C8.47334 8.92871 8.68906 8.99022 8.89508 9.05372C9.26035 9.16603 9.66254 8.99316 9.78981 8.66809C9.91725 8.34184 9.72332 7.98559 9.35633 7.87216C9.10254 7.79453 8.89543 7.74472 8.70383 7.70737V7.5C8.70383 7.15531 8.38907 6.875 8.0007 6.875C7.61233 6.875 7.29758 7.15528 7.29758 7.5V7.68725C6.50938 7.8375 5.95391 8.275 5.82734 8.92813C5.56698 10.2669 6.99418 10.6391 7.60344 10.7981L7.80777 10.8509C8.83714 11.1126 8.82027 11.2006 8.78933 11.3596C8.74099 11.6037 8.20609 11.6643 7.72374 11.5979C7.47983 11.5657 7.16792 11.4661 6.89195 11.3782L6.73483 11.3274C6.36886 11.2151 5.96737 11.384 5.83764 11.7093C5.70855 12.0346 5.90026 12.3918 6.26655 12.5071L6.41653 12.554C6.68927 12.6411 6.99239 12.7287 7.29754 12.7887V13C7.29754 13.3447 7.6123 13.625 8.00067 13.625C8.38904 13.625 8.70379 13.3447 8.70379 13V12.8046C9.48989 12.6548 10.0471 12.2255 10.1744 11.5724C10.4363 10.2188 8.97734 9.84687 8.19336 9.65Z"/></svg>