<svg viewBox="0 0 16 16" xmlns="http://www.w3.org/2000/svg"><path d="M3.5 14V2C3.5 1.725 3.725 1.5 4 1.5H9V4C9 4.55312 9.44688 5 10 5H12.5V14C12.5 14.275 12.275 14.5 12 14.5H4C3.725 14.5 3.5 14.275 3.5 14ZM4 0C2.89688 0 2 0.896875 2 2V14C2 15.1031 2.89688 16 4 16H12C13.1031 16 14 15.1031 14 14V4.82812C14 4.29688 13.7906 3.7875 13.4156 3.4125L10.5844 0.584375C10.2094 0.209375 9.70312 0 9.17188 0H4ZM8 5.5C7.58437 5.5 7.25 5.83437 7.25 6.25V9.75C7.25 10.1656 7.58437 10.5 8 10.5C8.41563 10.5 8.75 10.1656 8.75 9.75V6.25C8.75 5.83437 8.41563 5.5 8 5.5ZM9 12.5C9 12.2348 8.89464 11.9804 8.70711 11.7929C8.51957 11.6054 8.26522 11.5 8 11.5C7.73478 11.5 7.48043 11.6054 7.29289 11.7929C7.10536 11.9804 7 12.2348 7 12.5C7 12.7652 7.10536 13.0196 7.29289 13.2071C7.48043 13.3946 7.73478 13.5 8 13.5C8.26522 13.5 8.51957 13.3946 8.70711 13.2071C8.89464 13.0196 9 12.7652 9 12.5Z"/></svg>