<svg viewBox="0 0 16 16" xmlns="http://www.w3.org/2000/svg"><path d="M2 14.5H5V16H2C0.896875 16 0 15.1031 0 14V2C0 0.896875 0.896875 0 2 0H7.17188C7.70312 0 8.2125 0.209375 8.5875 0.584375L11.4156 3.4125C11.7906 3.7875 12 4.29688 12 4.82812V9H10.5V5H8C7.44688 5 7 4.55312 7 4V1.5H2C1.725 1.5 1.5 1.725 1.5 2V14C1.5 14.275 1.725 14.5 2 14.5ZM7.5 11H9.5C9.67188 11 9.83438 11.0906 9.925 11.2375C10.0156 11.3844 10.025 11.5688 9.94687 11.725L8.30937 15H9.5C9.775 15 10 15.225 10 15.5C10 15.775 9.775 16 9.5 16H7.5C7.32812 16 7.16562 15.9094 7.075 15.7625C6.98438 15.6156 6.975 15.4312 7.05312 15.275L8.69063 12H7.5C7.225 12 7 11.775 7 11.5C7 11.225 7.225 11 7.5 11ZM12 11.5V15.5C12 15.775 11.775 16 11.5 16C11.225 16 11 15.775 11 15.5V11.5C11 11.225 11.225 11 11.5 11C11.775 11 12 11.225 12 11.5ZM13 11.5C13 11.225 13.225 11 13.5 11H14.25C15.2156 11 16 11.7844 16 12.75C16 13.7156 15.2156 14.5 14.25 14.5H14V15.5C14 15.775 13.775 16 13.5 16C13.225 16 13 15.775 13 15.5V11.5ZM14 13.5H14.25C14.6656 13.5 15 13.1656 15 12.75C15 12.3344 14.6656 12 14.25 12H14V13.5Z"/></svg>