<svg viewBox="0 0 16 16" xmlns="http://www.w3.org/2000/svg"><path d="M13.4156 2.91812L11.0834 0.585625C10.7063 0.210687 10.1969 0 9.66875 0H4C2.89531 0 2 0.895313 2 2L2.0002 14C2.0002 15.1044 2.89552 16 4.0002 16H12C13.1 16 14 15.1 14 14V4.33125C14 3.80313 13.7906 3.29375 13.4156 2.91812ZM12.5 14C12.5 14.2761 12.2761 14.5 12 14.5H4.00062C3.72444 14.5 3.50063 14.2761 3.50063 14L3.5 2.00406C3.5 1.72794 3.72388 1.50406 4 1.50406H9V4C9 4.55219 9.44781 5 10 5H12.4719V14H12.5ZM7.5 7.5C5.84312 7.5 4.5 8.84313 4.5 10.5C4.5 12.1569 5.84312 13.5 7.5 13.5C9.15688 13.5 10.5 12.1569 10.5 10.5H7.5V7.5ZM8.5 9.5H11.5C11.5 7.84312 10.1569 6.5 8.5 6.5V9.5Z"/></svg>