<svg viewBox="0 0 16 16" xmlns="http://www.w3.org/2000/svg"><path d="M14.0881 2.91812L11.4663 0.585625C11.0423 0.210687 10.4697 0 9.87595 0H3.50333C2.26148 0 1.255 0.895313 1.255 2L1.25523 14C1.25523 15.1044 2.26171 16 3.50356 16H12.4967C13.7332 16 14.745 15.1 14.745 14V4.33125C14.745 3.80313 14.5096 3.29375 14.0881 2.91812ZM13.0587 14C13.0587 14.2761 12.8071 14.5 12.4967 14.5H12.4405C12.17 13.0812 10.7928 12 9.12416 12H6.87583C5.20574 12 3.82899 13.0825 3.55989 14.5H3.50403C3.19355 14.5 2.94195 14.2761 2.94195 14L2.94125 2.00406C2.94125 1.72794 3.19292 1.50406 3.50333 1.50406H9.12416V4C9.12416 4.55219 9.62758 5 10.2483 5H13.0271V14H13.0587ZM8 7C6.7599 7 5.75166 7.89688 5.75166 9C5.75166 10.1044 6.75814 11 8 11C9.24185 11 10.2483 10.1044 10.2483 9C10.2483 7.89688 9.24009 7 8 7Z"/></svg>