<svg viewBox="0 0 16 16" xmlns="http://www.w3.org/2000/svg"><path d="M1.01888 1.1922C1.28029 0.935934 1.70437 0.935934 1.96578 1.1922L4.45803 3.63594L6.09852 2.02977C6.88249 1.26083 8.1547 1.26083 8.93867 2.02977L13.1626 6.1707C13.9494 6.93906 13.9494 8.18594 13.1626 8.9543L7.8506 14.1633C6.80437 15.1887 5.10809 15.1887 4.06186 14.1633L0.784523 10.9504C-0.261508 9.925 -0.261508 8.2625 0.784523 7.23711L3.51224 4.56289L1.01888 2.12027C0.757461 1.86406 0.757461 1.44844 1.01888 1.1922ZM6.37472 7.34648L4.45803 5.49258L1.73143 8.1668C1.52693 8.36641 1.40222 8.61523 1.35786 8.875H11.352L12.2168 8.00273C12.4791 7.77031 12.4791 7.35469 12.2168 7.09766L7.96777 2.95781C7.73063 2.7016 7.30656 2.7016 7.0443 2.95781L5.40661 4.56289L7.29819 6.44141C7.58276 6.69844 7.58276 7.11406 7.29819 7.34648C7.06104 7.62539 6.63697 7.62539 6.37472 7.34648ZM12.4289 13.25C12.4289 12.5609 13.3384 11.0734 13.8573 10.2777C14.0275 10.0207 14.4014 10.0207 14.5716 10.2777C15.0905 11.0734 16 12.5609 16 13.25C16 14.2152 15.1993 15 14.2144 15C13.2296 15 12.4289 14.2152 12.4289 13.25Z"/></svg>