<svg viewBox="0 0 16 16" xmlns="http://www.w3.org/2000/svg"><path d="M1.75 0C2.16562 0 2.5 0.334375 2.5 0.75V1.625L5.15625 0.9625C6.34688 0.665625 7.60313 0.803125 8.70312 1.35312C10.15 2.07812 11.8531 2.07812 13.3 1.35312L13.6 1.20312C14.2438 0.878125 15 1.34687 15 2.06562V10.8062C15 11.2219 14.7406 11.5969 14.35 11.7437L13.2656 12.15C11.8219 12.6906 10.2156 12.6062 8.8375 11.9187C7.65312 11.325 6.29688 11.1781 5.00938 11.5L2.5 12.125V15.25C2.5 15.6656 2.16562 16 1.75 16C1.33437 16 1 15.6656 1 15.25V0.75C1 0.334375 1.33437 0 1.75 0ZM2.5 4.70937L5 4.16563V2.54688L2.5 3.17188V4.7125V4.70937ZM2.5 6.24375V7.70937L5 7.16563V5.70312L2.5 6.24687V6.24375ZM2.5 9.24375V10.5781L4.64375 10.0406C4.7625 10.0125 4.88125 9.98438 5 9.9625V8.70312L2.5 9.24687V9.24375ZM6.5 9.83125C7.53438 9.85313 8.55937 10.1031 9.5 10.5719V9.01562L7.76875 8.50625C7.35625 8.38438 6.925 8.34688 6.5 8.39375V9.83125ZM11 10.9875C11.5844 11.0344 12.1781 10.9531 12.7375 10.7437L13.5 10.4594V9L12.6969 9.1875C12.1375 9.31563 11.5688 9.35938 11 9.32187V10.9937V10.9875ZM13.5 6L12.6969 6.1875C12.1375 6.31563 11.5688 6.35938 11 6.32188V7.81563C11.4531 7.85938 11.9125 7.82812 12.3594 7.725L13.5 7.4625V6ZM13.5 2.90313C12.7 3.22813 11.85 3.39062 11 3.39062V4.8125C11.4531 4.85625 11.9125 4.825 12.3594 4.72188L13.5 4.45937V2.90313ZM9.5 3.22187C8.99687 3.10625 8.50313 2.92812 8.03125 2.69375C7.55312 2.45312 7.02812 2.325 6.5 2.30938V3.89062C7.06875 3.85 7.64062 3.90938 8.19063 4.07188L9.5 4.45312V3.22187ZM9.5 6.01875L7.76875 5.50938C7.35625 5.3875 6.925 5.35 6.5 5.39687V6.89062C7.06875 6.85 7.64062 6.90938 8.19063 7.07188L9.5 7.45312V6.01562V6.01875Z"/></svg>