<svg viewBox="0 0 16 16" xmlns="http://www.w3.org/2000/svg"><path d="M8 8C6.74286 8 5.71429 9.02857 5.71429 10.2857C5.71429 11.5429 6.74286 12.5714 8 12.5714C9.25714 12.5714 10.2857 11.5429 10.2857 10.2857C10.2857 9.02857 9.25714 8 8 8ZM15.4679 3.46786L12.4714 0.471429C12.1821 0.180714 11.7429 0 11.2893 0H2.28571C1.02321 0 0 1.02321 0 2.28571V13.7143C0 14.9768 1.02321 16 2.28571 16H13.7143C14.9768 16 16 14.9768 16 13.7143V4.71071C16 4.25714 15.8179 3.81786 15.4679 3.46786ZM4.57143 1.71429H9.71429V4.57143H4.57143V1.71429ZM14.2857 13.7143C14.2857 14.0299 14.0299 14.2857 13.7143 14.2857H2.28571C1.97014 14.2857 1.71429 14.0299 1.71429 13.7143V2.28571C1.71429 1.97007 1.97014 1.71429 2.28571 1.71429H2.85714V5.42857C2.85714 5.90179 3.24107 6.28571 3.71429 6.28571H10.5714C11.0464 6.28571 11.4286 5.90357 11.4286 5.42857V1.85286L14.2232 4.6475C14.2643 4.68571 14.2857 4.74286 14.2857 4.79643V13.7143Z"/></svg>