<svg viewBox="0 0 16 16" xmlns="http://www.w3.org/2000/svg"><path d="M14 2.82143H8.62187L7.08437 1.35686C6.70937 0.968147 6.20312 0.75 5.67187 0.75H2C0.895625 0.75 0 1.67761 0 2.82143V13.1786C0 14.3224 0.895625 15.25 2 15.25H14C15.1044 15.25 16 14.3224 16 13.1786V4.89286C16 3.75033 15.1031 2.82143 14 2.82143ZM14.5 13.1786C14.5 13.4642 14.2756 13.6964 14 13.6964H2C1.72437 13.6964 1.5 13.4642 1.5 13.1786V2.82143C1.5 2.53583 1.72437 2.30357 2 2.30357H5.67187C5.80541 2.30357 5.93091 2.35743 6.02531 2.4553L8 4.375H14C14.2756 4.375 14.5 4.60726 14.5 4.89286V13.1786ZM10.5 8.25893H8.75V6.4173C8.72187 6.01596 8.41562 5.66964 8 5.66964C7.58437 5.66964 7.25 6.01596 7.25 6.4173V8.25893H5.47187C5.08437 8.25893 4.75 8.60525 4.75 9.03571C4.75 9.46489 5.08531 9.78337 5.47187 9.78337H7.22187V11.5959C7.25 12.0555 7.58437 12.4018 8 12.4018C8.41437 12.4018 8.72187 12.0542 8.72187 11.6541V9.78337H10.4719C10.9156 9.78337 11.25 9.46618 11.25 9.03571C11.25 8.60525 10.9156 8.25893 10.5 8.25893Z"/></svg>