<svg viewBox="0 0 16 16" xmlns="http://www.w3.org/2000/svg"><path d="M3.245 3.38875V12.6112C3.245 12.9763 3.62086 13.27 4.08412 13.27C4.54738 13.27 4.92324 12.9749 4.92324 12.6112V9.70726L10.9859 13.1081C11.1782 13.2151 11.4054 13.27 11.6362 13.27C11.811 13.27 11.9869 13.2383 12.1487 13.1731C12.5214 13.0221 12.755 12.7207 12.755 12.3914V3.60861C12.755 3.27923 12.5212 2.97785 12.1487 2.82689C11.9872 2.7622 11.8114 2.73003 11.6362 2.73003C11.4072 2.73008 11.1792 2.78498 10.9862 2.89381L4.92324 6.29274V3.38875C4.92324 3.02506 4.54738 2.73 4.08412 2.73C3.62086 2.73 3.245 3.02506 3.245 3.38875ZM4.92324 7.91217L11.0768 4.46196V11.538L4.92324 8.08783V7.91217Z"/></svg>