<svg viewBox="0 0 17 17" xmlns="http://www.w3.org/2000/svg"><path d="M2.80005 4.05311C2.80005 2.83811 3.78505 1.85311 5.00005 1.85311H6.00005C6.33255 1.85311 6.60005 2.12061 6.60005 2.45311C6.60005 2.78561 6.33255 3.05311 6.00005 3.05311H5.00005C4.44755 3.05311 4.00005 3.50061 4.00005 4.05311V6.65311H5.20005C5.53255 6.65311 5.80005 6.92061 5.80005 7.25311C5.80005 7.58561 5.53255 7.85311 5.20005 7.85311H4.00005V11.6206C4.00005 12.7406 3.15755 13.6831 2.04255 13.8081L1.66505 13.8506C1.33505 13.8881 1.04005 13.6506 1.00255 13.3206C0.965052 12.9906 1.20255 12.6956 1.53255 12.6581L1.91005 12.6156C2.41755 12.5581 2.80005 12.1306 2.80005 11.6206V7.85311H1.60005C1.26755 7.85311 1.00005 7.58561 1.00005 7.25311C1.00005 6.92061 1.26755 6.65311 1.60005 6.65311H2.80005V4.05311ZM8.90755 5.97311C8.21005 7.08061 7.80005 8.41561 7.80005 9.85311C7.80005 11.2906 8.21005 12.6256 8.90755 13.7331C9.08505 14.0131 9.00005 14.3831 8.72005 14.5606C8.44005 14.7381 8.07005 14.6531 7.89255 14.3731C7.07505 13.0756 6.60005 11.5206 6.60005 9.85311C6.60005 8.18561 7.07505 6.63061 7.89255 5.33311C8.07005 5.05311 8.44005 4.96811 8.72005 5.14561C9.00005 5.32311 9.08505 5.69311 8.90755 5.97311ZM14.6926 5.97311C14.5151 5.69311 14.6001 5.32311 14.8801 5.14561C15.1601 4.96811 15.5301 5.05311 15.7076 5.33311C16.5251 6.63061 17.0001 8.18561 17.0001 9.85311C17.0001 11.5206 16.5251 13.0756 15.7076 14.3731C15.5301 14.6531 15.1601 14.7381 14.8801 14.5606C14.6001 14.3831 14.5151 14.0131 14.6926 13.7331C15.3901 12.6256 15.8001 11.2906 15.8001 9.85311C15.8001 8.41561 15.3901 7.08061 14.6926 5.97311ZM10.8251 8.02811L11.8001 9.00311L12.7751 8.02811C13.0101 7.79311 13.3901 7.79311 13.6226 8.02811C13.8551 8.26311 13.8576 8.64311 13.6226 8.87561L12.6476 9.85061L13.6226 10.8256C13.8576 11.0606 13.8576 11.4406 13.6226 11.6731C13.3876 11.9056 13.0076 11.9081 12.7751 11.6731L11.8001 10.6981L10.8251 11.6731C10.5901 11.9081 10.2101 11.9081 9.97755 11.6731C9.74505 11.4381 9.74255 11.0581 9.97755 10.8256L10.9526 9.85061L9.97755 8.87561C9.74255 8.64061 9.74255 8.26061 9.97755 8.02811C10.2126 7.79561 10.5926 7.79311 10.8251 8.02811Z"/></svg>