<svg viewBox="0 0 16 16" xmlns="http://www.w3.org/2000/svg"><g clip-path="url(#clip0_11902_178429)"><path d="M5.26564 2.24995L8.00001 5.1562L10.7344 2.24995H5.26564ZM11.9969 3.09683L9.73439 5.49995H13.7656L11.9969 3.09683ZM13.5594 6.99995H8.00001H2.44064L8.00001 13.1343L13.5594 6.99995ZM2.23439 5.49995H6.26564L4.00314 3.09683L2.23439 5.49995ZM15.8063 6.75308L8.55626 14.7531C8.41251 14.9093 8.21251 15 8.00001 15C7.78751 15 7.58751 14.9093 7.44376 14.7531L0.193762 6.75308C-0.0468633 6.48745 -0.0656133 6.09058 0.146887 5.80308L3.64689 1.05308C3.78751 0.862451 4.01251 0.746826 4.25001 0.746826H11.75C11.9875 0.746826 12.2125 0.859326 12.3531 1.05308L15.8531 5.80308C16.0656 6.09058 16.0438 6.48745 15.8063 6.75308Z"/></g><defs><clipPath><rect/></clipPath></defs></svg>