<svg viewBox="0 0 16 16" xmlns="http://www.w3.org/2000/svg"><path d="M15.5775 4.27812L8.51 1.11563C8.3575 1.03844 8.18 1 8 1C7.82 1 7.6425 1.03844 7.47 1.115L0.40125 4.27812C0.16095 4.3875 0 4.675 0 5C0 5.325 0.16095 5.61406 0.40125 5.72156L1.90175 6.39375C1.6045 6.8875 1.39525 7.46125 1.288 8.07969C1.00125 8.23125 0.8 8.5875 0.8 9C0.8 9.31103 0.92035 9.57781 1.0985 9.76125L0.47775 14.4175C0.437 14.7219 0.625 15 0.87225 15H2.32775C2.57493 15 2.763 14.7225 2.72225 14.4178L2.1015 9.76156C2.27975 9.57812 2.4 9.28437 2.4 9C2.4 8.67844 2.27065 8.40531 2.082 8.22219C2.1883 7.66719 2.404 7.16531 2.7055 6.7525L7.4705 8.88469C7.6425 8.9625 7.82 9 8 9C8.18 9 8.35875 8.96159 8.53025 8.88488L15.5977 5.72237C15.84 5.6125 16 5.325 16 5C16 4.675 15.84 4.3875 15.5775 4.27812ZM8.1275 7.47188C8.0168 7.52138 7.92258 7.49318 7.87525 7.47206L4.3875 5.9125L8.1175 4.4775C8.32883 4.39644 8.4465 4.11656 8.38175 3.85187C8.3169 3.58819 8.0925 3.43719 7.8815 3.52219L3.13 5.35L2.349 5L7.8515 2.5275C7.9622 2.478 8.05643 2.50614 8.10375 2.52732L13.65 5L8.1275 7.47188ZM11.3075 8.70313L11.6 12.2094C11.6 12.5406 10.3625 13.5 8 13.5C5.6375 13.5 4.4 12.54 4.4 12.2081L4.693 8.705L3.541 8.18938L3.20325 12.13C3.2 14.0406 5.615 15 8 15C10.385 15 12.8 14.0409 12.7975 12.1309L12.4598 8.19031L11.3075 8.70313Z"/></svg>