<svg viewBox="0 0 16 16" xmlns="http://www.w3.org/2000/svg"><path d="M5.99994 2C5.99994 1.725 6.22494 1.5 6.49994 1.5C6.77494 1.5 6.99994 1.725 6.99994 2V6.25C6.99994 6.57188 7.20619 6.85938 7.51244 6.9625C7.81869 7.06563 8.15619 6.95937 8.34994 6.70312C8.44369 6.58125 8.58744 6.50313 8.74994 6.50313C9.02494 6.50313 9.24994 6.72813 9.24994 7.00313C9.24994 7.325 9.45619 7.6125 9.76244 7.71562C10.0687 7.81875 10.4062 7.7125 10.5999 7.45625C10.6937 7.33438 10.8374 7.25625 10.9999 7.25625C11.2437 7.25625 11.4468 7.43125 11.4906 7.6625C11.5406 7.91875 11.7187 8.13438 11.9624 8.225C12.2062 8.31563 12.4843 8.275 12.6906 8.1125C12.7749 8.04688 12.8812 8.00625 12.9999 8.00625C13.2749 8.00625 13.4999 8.23125 13.4999 8.50625V9.00625V12.25C13.4999 13.4937 12.4937 14.5 11.2499 14.5H9.49994H7.63432H7.60619C6.43744 14.5 5.34369 13.9156 4.69369 12.9406L2.58432 9.77812C2.43119 9.54688 2.49369 9.2375 2.72182 9.08438C2.94994 8.93125 3.26244 8.99375 3.41557 9.22188L4.62494 11.0375C4.80932 11.3125 5.14994 11.4344 5.46557 11.3406C5.78119 11.2469 5.99682 10.9531 5.99682 10.6219V10V2H5.99994ZM6.49994 0C5.39682 0 4.49994 0.896875 4.49994 2V8.17813C3.84994 7.4375 2.73432 7.275 1.89057 7.83437C0.971817 8.45 0.721816 9.69063 1.33744 10.6094L3.44682 13.775C4.37494 15.1656 5.93432 16 7.60619 16H7.63432H9.49994H11.2499C13.3218 16 14.9999 14.3219 14.9999 12.25V9V8.5C14.9999 7.39687 14.1031 6.5 12.9999 6.5C12.8593 6.5 12.7249 6.51562 12.5937 6.54063C12.2281 6.05938 11.6499 5.75 10.9999 5.75C10.7843 5.75 10.5781 5.78438 10.3843 5.84688C10.0218 5.33438 9.42494 5 8.74994 5C8.66557 5 8.58119 5.00625 8.49994 5.01562V2C8.49994 0.896875 7.60307 0 6.49994 0ZM7.99994 9.5C7.99994 9.225 7.77494 9 7.49994 9C7.22494 9 6.99994 9.225 6.99994 9.5V12.5C6.99994 12.775 7.22494 13 7.49994 13C7.77494 13 7.99994 12.775 7.99994 12.5V9.5ZM9.49994 9C9.22494 9 8.99994 9.225 8.99994 9.5V12.5C8.99994 12.775 9.22494 13 9.49994 13C9.77494 13 9.99994 12.775 9.99994 12.5V9.5C9.99994 9.225 9.77494 9 9.49994 9ZM11.9999 9.5C11.9999 9.225 11.7749 9 11.4999 9C11.2249 9 10.9999 9.225 10.9999 9.5V12.5C10.9999 12.775 11.2249 13 11.4999 13C11.7749 13 11.9999 12.775 11.9999 12.5V9.5Z"/></svg>