<svg viewBox="0 0 16 16" xmlns="http://www.w3.org/2000/svg"><path d="M16 5.5C16 4.39687 15.1031 3.5 14 3.5H8.1C7.9875 3.3375 7.8625 3.18125 7.72813 3.03437L7.15 2.4C6.62813 1.82813 5.89062 1.5 5.11562 1.5H4.79688C3.10938 1.5 1.54688 2.39688 0.69375 3.85625L0.646875 3.9375C0.221875 4.66563 0 5.49063 0 6.33125V10.25C0 12.3219 1.67812 14 3.75 14H4H7C8.10312 14 9 13.1031 9 12C9 11.9125 8.99375 11.825 8.98438 11.7406C9.59062 11.3969 10 10.7469 10 10C10 9.83438 9.97813 9.67188 9.94063 9.51562C10.5719 9.17812 11 8.51562 11 7.75C11 7.66563 10.9937 7.58125 10.9844 7.5H14C15.1031 7.5 16 6.60313 16 5.5ZM14 5C14.275 5 14.5 5.225 14.5 5.5C14.5 5.775 14.275 6 14 6H9.75C9.42813 6 9.14062 6.20625 9.0375 6.5125C8.93438 6.81875 9.04062 7.15625 9.29688 7.35C9.41875 7.44375 9.49687 7.5875 9.49687 7.75C9.49687 8.025 9.27187 8.25 8.99687 8.25H8.74687C8.425 8.25 8.1375 8.45625 8.03438 8.7625C7.93125 9.06875 8.0375 9.40625 8.29375 9.6C8.41562 9.69375 8.49375 9.8375 8.49375 10C8.49375 10.275 8.26875 10.5 7.99375 10.5C7.70937 10.5 7.45 10.6594 7.32188 10.9156C7.19375 11.1719 7.22188 11.475 7.39375 11.7C7.45625 11.7844 7.49375 11.8875 7.49375 12C7.49375 12.275 7.26875 12.5 6.99375 12.5H3.99375H3.74375C2.5 12.5 1.49375 11.4937 1.49375 10.25V6.33125C1.49375 5.75625 1.64688 5.19062 1.9375 4.69375L1.98438 4.6125C2.56562 3.6125 3.63438 3 4.79063 3H5.10938C5.4625 3 5.79688 3.15 6.03438 3.40937L6.57812 4H5.25C4.975 4 4.75 4.225 4.75 4.5C4.75 4.775 4.975 5 5.25 5H7.6875H7.75H14Z"/></svg>