<svg viewBox="0 0 16 16" xmlns="http://www.w3.org/2000/svg"><path d="M6.89687 1.01562C7.30312 1.09687 7.56562 1.49062 7.48438 1.89687L7.01562 4.25H10.4844L11.0125 1.60312C11.0937 1.19687 11.4875 0.934372 11.8938 1.01562C12.3 1.09687 12.5625 1.49062 12.4812 1.89687L12.0156 4.25H14.25C14.6656 4.25 15 4.58437 15 5C15 5.41562 14.6656 5.75 14.25 5.75H11.7156L10.8156 10.25H13.25C13.6656 10.25 14 10.5844 14 11C14 11.4156 13.6656 11.75 13.25 11.75H10.5156L9.9875 14.3969C9.90625 14.8031 9.5125 15.0656 9.10625 14.9844C8.7 14.9031 8.4375 14.5094 8.51875 14.1031L8.98438 11.75H5.51562L4.9875 14.3969C4.90625 14.8031 4.5125 15.0656 4.10625 14.9844C3.7 14.9031 3.4375 14.5094 3.51875 14.1031L3.98438 11.75H1.75C1.33437 11.75 1 11.4156 1 11C1 10.5844 1.33437 10.25 1.75 10.25H4.28437L5.18437 5.75H2.75C2.33437 5.75 2 5.41562 2 5C2 4.58437 2.33437 4.25 2.75 4.25H5.48438L6.0125 1.60312C6.09375 1.19687 6.4875 0.934372 6.89375 1.01562H6.89687ZM6.71562 5.75L5.81563 10.25H9.28438L10.1844 5.75H6.71562Z"/></svg>