<svg viewBox="0 0 16 16" xmlns="http://www.w3.org/2000/svg"><path d="M8 1.5C4.40937 1.5 1.5 4.40937 1.5 8V9.25C1.5 9.66563 1.16563 10 0.75 10C0.334375 10 0 9.66563 0 9.25V8C0 3.58125 3.58125 0 8 0C12.4187 0 16 3.58125 16 8V12.5031C16 14.0219 14.7687 15.2531 13.2469 15.2531L9.8 15.25C9.54063 15.6969 9.05625 16 8.5 16H7.5C6.67188 16 6 15.3281 6 14.5C6 13.6719 6.67188 13 7.5 13H8.5C9.05625 13 9.54063 13.3031 9.8 13.75L13.25 13.7531C13.9406 13.7531 14.5 13.1938 14.5 12.5031V8C14.5 4.40937 11.5906 1.5 8 1.5ZM4.5 6.5H5C5.55313 6.5 6 6.94687 6 7.5V11C6 11.5531 5.55313 12 5 12H4.5C3.39688 12 2.5 11.1031 2.5 10V8.5C2.5 7.39688 3.39688 6.5 4.5 6.5ZM11.5 6.5C12.6031 6.5 13.5 7.39688 13.5 8.5V10C13.5 11.1031 12.6031 12 11.5 12H11C10.4469 12 10 11.5531 10 11V7.5C10 6.94687 10.4469 6.5 11 6.5H11.5Z"/></svg>