<svg viewBox="0 0 16 16" xmlns="http://www.w3.org/2000/svg"><path d="M0.311375 9.1205C-0.103792 8.42641 -0.103792 7.57359 0.311375 6.8795L3.15317 2.1205C3.56834 1.42641 4.33109 1 5.16142 1H10.8418C11.6689 1 12.4349 1.42641 12.85 2.1205L15.6886 6.8795C16.1038 7.57359 16.1038 8.42641 15.6886 9.1205L12.8468 13.8795C12.4317 14.5736 11.6689 15 10.8386 15H5.1582C4.33109 15 3.56512 14.5736 3.14995 13.8795L0.311375 9.1205ZM8 4.01601C7.57196 4.01601 7.2276 4.34904 7.2276 4.76301V8.249C7.2276 8.66296 7.57196 8.996 8 8.996C8.42804 8.996 8.7724 8.66296 8.7724 8.249V4.76301C8.7724 4.34904 8.42804 4.01601 8 4.01601ZM9.02987 10.988C9.02987 10.4371 8.56965 9.992 8 9.992C7.43035 9.992 6.97013 10.4371 6.97013 10.988C6.97013 11.5389 7.43035 11.984 8 11.984C8.56965 11.984 9.02987 11.5389 9.02987 10.988Z"/></svg>