<svg viewBox="0 0 16 16" xmlns="http://www.w3.org/2000/svg"><path d="M4.71944 10.0722L3.66111 11.1306L5.09167 12.5611L6.15 11.5028C6.4 11.2528 6.73889 11.1111 7.09167 11.1111H8.425L8.875 10.4861L5.73611 7.34722L5.11111 7.79444V9.12777C5.11111 9.48055 4.96944 9.81944 4.71944 10.0694V10.0722ZM9.66389 9.38889L13.9667 3.39444C13.9889 3.36389 14 3.32777 14 3.29166C14 3.24444 13.9806 3.2 13.9472 3.16666L13.0556 2.275C13.0222 2.24166 12.9778 2.22222 12.9306 2.22222C12.8944 2.22222 12.8583 2.23333 12.8278 2.25555L6.83333 6.55833L9.66389 9.38889ZM8.42778 12.4444H7.09444L5.88056 13.6583C5.58333 13.9556 5.15833 14.05 4.78333 13.9389L3.87222 14.85C3.70556 15.0167 3.48056 15.1111 3.24444 15.1111H0.888889C0.397222 15.1111 0 14.7139 0 14.2222V14.0917C0 13.8556 0.0944444 13.6306 0.261111 13.4639L2.28333 11.4417C2.17222 11.0639 2.26667 10.6417 2.56389 10.3444L3.77778 9.12777V7.79444C3.77778 7.36389 3.98333 6.96111 4.33333 6.71111L12.05 1.17222C12.3056 0.988885 12.6139 0.888885 12.9306 0.888885C13.3306 0.888885 13.7139 1.04722 13.9972 1.33055L14.8917 2.225C15.175 2.50833 15.3333 2.89166 15.3333 3.29166C15.3333 3.60833 15.2333 3.91666 15.05 4.17222L9.51111 11.8889C9.26111 12.2389 8.85833 12.4444 8.42778 12.4444ZM3.13056 12.4806L1.83056 13.7778H3.05556L3.74167 13.0917L3.12778 12.4778L3.13056 12.4806ZM6.88889 13.7778H15.3333C15.7028 13.7778 16 14.075 16 14.4444C16 14.8139 15.7028 15.1111 15.3333 15.1111H6.88889C6.51944 15.1111 6.22222 14.8139 6.22222 14.4444C6.22222 14.075 6.51944 13.7778 6.88889 13.7778Z"/></svg>