<svg viewBox="0 0 16 16" xmlns="http://www.w3.org/2000/svg"><path d="M11.4 6.1001C11.675 6.1001 11.9 6.3026 11.9 6.6001V6.7001H13.4C13.675 6.7001 13.9 6.9026 13.9 7.2001C13.9 7.4751 13.675 7.7001 13.4 7.7001H13.35L13.31 7.8126C13.0875 8.4026 12.7475 8.9776 12.3175 9.4476C12.34 9.4601 12.3625 9.4526 12.385 9.4876L12.8575 9.7701C13.095 9.9126 13.17 10.2201 13.0275 10.4576C12.8875 10.6951 12.58 10.7701 12.3425 10.6276L11.87 10.3451C11.76 10.2776 11.6275 10.2076 11.5425 10.1326C11.28 10.3201 10.995 10.4826 10.695 10.6176L10.6025 10.6576C10.35 10.7701 10.055 10.6551 9.9425 10.4026C9.83 10.1501 9.945 9.8551 10.1975 9.7426L10.2875 9.7026C10.4475 9.6301 10.6025 9.5276 10.75 9.4576L10.4475 9.1526C10.25 8.9576 10.25 8.6426 10.4475 8.4476C10.6425 8.2501 10.9575 8.2501 11.1525 8.4476L11.5175 8.8101L11.5325 8.8026C11.8425 8.4976 12.095 8.1176 12.2775 7.6776H9.6C9.3025 7.6776 9.1 7.4751 9.1 7.1776C9.1 6.9026 9.3025 6.6776 9.6 6.6776H10.9V6.5776C10.9 6.3026 11.1025 6.0776 11.4 6.0776V6.1001ZM3.5025 8.9001L4 7.8301L4.475 8.9001H3.5025ZM14.4 3.6001C15.2825 3.6001 16 4.31635 16 5.2001V11.6001C16 12.4826 15.2825 13.2001 14.4 13.2001H1.6C0.71625 13.2001 0 12.4826 0 11.6001V5.2001C0 4.31635 0.71625 3.6001 1.6 3.6001H14.4ZM14.4 4.8001H8V12.0001H14.4C14.62 12.0001 14.8 11.8201 14.8 11.6001V5.2001C14.8 4.9801 14.62 4.8001 14.4 4.8001ZM4.4575 6.3976C4.3775 6.2176 4.1975 6.1001 4 6.1001C3.8025 6.1001 3.6225 6.2176 3.5425 6.3976L1.943 9.9976C1.831 10.2276 1.9445 10.5451 2.197 10.6576C2.44925 10.7701 2.745 10.6551 2.8575 10.4026L3.08 9.8776H4.92L5.1425 10.4026C5.255 10.6551 5.55 10.7701 5.8025 10.6576C6.055 10.5451 6.17 10.2276 6.0575 9.9976L4.4575 6.3976Z"/></svg>