<svg xmlns="http://www.w3.org/2000/svg" viewBox="0 0 640 640"><!--!Font Awesome Pro 7.0.0 by @fontawesome - https://fontawesome.com License - https://fontawesome.com/license (Commercial License) Copyright 2025 Fonticons, Inc.--><path d="M144 128C144 119.2 151.2 112 160 112L448 112C456.8 112 464 119.2 464 128L464 176L512 176L512 128C512 92.7 483.3 64 448 64L160 64C124.7 64 96 92.7 96 128L96 288L57.6 288C43.5 288 32 299.5 32 313.6C32 370.2 77.8 416 134.4 416L288 416L288 368L134.4 368C112.3 368 93.3 354.9 84.8 336L288 336L288 288L144 288L144 128zM400 528C391.2 528 384 520.8 384 512L384 288C384 279.2 391.2 272 400 272L512 272C520.8 272 528 279.2 528 288L528 512C528 520.8 520.8 528 512 528L400 528zM400 224C364.7 224 336 252.7 336 288L336 512C336 547.3 364.7 576 400 576L512 576C547.3 576 576 547.3 576 512L576 288C576 252.7 547.3 224 512 224L400 224zM440 448C426.7 448 416 458.7 416 472C416 485.3 426.7 496 440 496L472 496C485.3 496 496 485.3 496 472C496 458.7 485.3 448 472 448L440 448z"/></svg>