<svg viewBox="0 0 16 16" xmlns="http://www.w3.org/2000/svg"><path d="M0.969896 1.7275C0.709896 1.5225 0.332396 1.57 0.127396 1.83C-0.0776036 2.09 -0.0301036 2.4675 0.229896 2.6725L15.0299 14.2725C15.2899 14.4775 15.6674 14.43 15.8724 14.17C16.0774 13.91 16.0299 13.5325 15.7699 13.3275L15.2624 12.93C15.7174 12.4925 15.9999 11.88 15.9999 11.2C15.9999 10.7575 15.6424 10.4 15.1999 10.4H12.0349L3.3599 3.6H12.7999C13.0199 3.6 13.1999 3.78 13.1999 4V9.6H14.3999V4C14.3999 3.1175 13.6824 2.4 12.7999 2.4H3.1999C2.8399 2.4 2.5049 2.52 2.2374 2.7225L0.969896 1.7275ZM14.7299 11.6C14.6474 11.8325 14.4949 12.0325 14.2974 12.175L13.5624 11.6H14.7299ZM10.6574 12.4H2.3999C1.8774 12.4 1.4324 12.065 1.2674 11.6H9.6424L8.1199 10.4H0.799896C0.357396 10.4 -0.000103616 10.7575 -0.000103616 11.2C-0.000103616 12.525 1.0749 13.6 2.3999 13.6H12.1799L10.6574 12.4ZM2.7999 6.21L1.5999 5.265V9.6H2.7999V6.21Z"/></svg>