<svg viewBox="0 0 16 16" xmlns="http://www.w3.org/2000/svg"><path d="M0.970018 1.72749C0.710018 1.52249 0.332518 1.56999 0.127518 1.82999C-0.0774815 2.08999 -0.0299815 2.46749 0.230018 2.67249L15.03 14.2725C15.29 14.4775 15.6675 14.43 15.8725 14.17C16.0775 13.91 16.03 13.5325 15.77 13.3275L15.2625 12.93C15.7175 12.4925 16 11.88 16 11.2C16 10.7575 15.6425 10.4 15.2 10.4H12.035L3.36002 3.59999H12.8C13.02 3.59999 13.2 3.77999 13.2 3.99999V9.59999H14.4V3.99999C14.4 3.11749 13.6825 2.39999 12.8 2.39999H3.20002C2.84002 2.39999 2.50502 2.51999 2.23752 2.72249L0.970018 1.72749ZM14.73 11.6C14.6475 11.8325 14.495 12.0325 14.2975 12.175L13.5625 11.6H14.73ZM10.6575 12.4H2.40002C1.87752 12.4 1.43252 12.065 1.26752 11.6H9.64252L8.12002 10.4H0.800018C0.357518 10.4 1.84548e-05 10.7575 1.84548e-05 11.2C1.84548e-05 12.525 1.07502 13.6 2.40002 13.6H12.18L10.6575 12.4ZM2.80002 6.20999L1.60002 5.26499V9.59999H2.80002V6.20999Z"/></svg>