<svg xmlns="http://www.w3.org/2000/svg" viewBox="0 0 640 640"><!--!Font Awesome Pro 7.0.0 by @fontawesome - https://fontawesome.com License - https://fontawesome.com/license (Commercial License) Copyright 2025 Fonticons, Inc.--><path d="M527.7 142.7C540.3 138.4 547 124.8 542.7 112.3C538.4 99.8 524.8 93 512.3 97.3L112.3 233.3C102.6 236.6 96 245.7 96 256C96 266.3 102.5 275.4 112.3 278.7L512.3 414.7C524.8 419 538.5 412.3 542.7 399.7C546.9 387.1 540.3 373.5 527.7 369.3L194.6 256L527.7 142.7zM120 496C106.7 496 96 506.7 96 520C96 533.3 106.7 544 120 544L520 544C533.3 544 544 533.3 544 520C544 506.7 533.3 496 520 496L120 496z"/></svg>