<svg xmlns="http://www.w3.org/2000/svg" viewBox="0 0 640 640"><!--!Font Awesome Pro 7.0.0 by @fontawesome - https://fontawesome.com License - https://fontawesome.com/license (Commercial License) Copyright 2025 Fonticons, Inc.--><path d="M368 256C368 273 365.1 289.2 359.7 304.4C362.4 304.2 365.2 304 368 304L410 304C413.9 288.7 416 272.6 416 256C416 150 330 64 224 64C118 64 32 150 32 256C32 307.2 52 353.7 84.7 388.1C108.3 413 128 443.4 128 477.7L128 496C128 540.2 163.8 576 208 576L240 576C254.4 576 267.9 572.2 279.6 565.5C274.7 554 272 541.3 272 528L272 448L172.8 448C164.4 409 140.8 377.5 119.5 355.1C95 329.2 80 294.4 80 256C80 176.5 144.5 112 224 112C303.5 112 368 176.5 368 256zM176 248C176 225.9 193.9 208 216 208C229.3 208 240 197.3 240 184C240 170.7 229.3 160 216 160C167.4 160 128 199.4 128 248C128 261.3 138.7 272 152 272C165.3 272 176 261.3 176 248zM560 352L368 352C341.5 352 320 373.5 320 400L320 528C320 554.5 341.5 576 368 576L408 576L451.2 633.6C454.2 637.6 459 640 464 640C469 640 473.8 637.6 476.8 633.6L520 576L560 576C586.5 576 608 554.5 608 528L608 400C608 373.5 586.5 352 560 352z"/></svg>