<svg viewBox="0 0 16 16" xmlns="http://www.w3.org/2000/svg"><path d="M4.11173 4.14891C5.59826 2.40944 8.00792 2.40944 9.49445 4.14891C10.9096 5.80391 10.9863 8.46121 9.66638 10.2245L9.52619 10.4132C9.29343 10.7225 8.89402 10.7535 8.62951 10.4843C8.365 10.2152 8.33855 9.745 8.56868 9.43565L8.71151 9.24695C9.58967 8.07143 9.53942 6.30196 8.59513 5.19759C7.60587 4.01279 6.00031 4.01279 4.98725 5.19759L2.01234 8.7025C1.02202 9.86255 1.02202 11.7403 2.01234 12.8973C2.95583 13.9738 4.47146 14.0604 5.47394 13.0334L5.63794 12.8663C5.8998 12.5972 6.30185 12.6281 6.53197 12.9375C6.76474 13.2437 6.73564 13.7139 6.47378 13.9831L6.30978 14.1501C4.80209 15.6907 2.52998 15.604 1.1146 13.9459C-0.371533 12.2105 -0.371533 9.36451 1.1146 7.65381L4.11173 4.14891ZM11.8882 11.8517C10.4017 13.5902 7.99205 13.5902 6.50552 11.8517C5.0666 10.1688 5.0137 7.53935 6.33094 5.77607L6.45526 5.60903C6.68538 5.29968 7.08744 5.26874 7.35194 5.53788C7.61645 5.80701 7.6429 6.27722 7.41278 6.58656L7.28846 6.75361C6.40765 7.92913 6.46055 9.6986 7.4022 10.803C8.3941 11.9599 9.99966 11.9599 10.9916 10.803L13.9884 7.29806C14.9777 6.13801 14.9777 4.26027 13.9884 3.10331C13.0441 1.99956 11.5285 1.94047 10.526 2.96874L10.362 3.13425C10.1002 3.40338 9.69812 3.37244 9.468 3.06433C9.23523 2.75591 9.26433 2.28663 9.52619 2.01688L9.69018 1.85107C11.1979 0.308294 13.47 0.396829 14.8851 2.05339C16.3716 3.79006 16.3716 6.60822 14.8851 8.34675L11.8882 11.8517Z"/></svg>