<svg viewBox="0 0 16 16" xmlns="http://www.w3.org/2000/svg"><path d="M3.615 3C1.6175 3 0 4.6849 0 6.76562C0 8.60677 1.2775 10.1771 3.02 10.4792L3.0675 10.487C3.5025 10.5625 3.915 10.2552 3.9875 9.80208C4.06 9.34896 3.765 8.91927 3.33 8.84375L3.2825 8.83594C2.3125 8.66667 1.6 7.79167 1.6 6.76562C1.6 5.60677 2.5025 4.66667 3.615 4.66667H7.585C8.6975 4.66667 9.6 5.60677 9.6 6.76562C9.6 7.79167 8.8875 8.66667 7.915 8.83594L7.8675 8.84375C7.4325 8.91927 7.1375 9.34896 7.21 9.80208C7.2825 10.2552 7.695 10.5625 8.13 10.487L8.1775 10.4792C9.92 10.1771 11.1975 8.60417 11.1975 6.76562C11.2 4.6849 9.5825 3 7.585 3H3.615ZM12.385 13C14.3825 13 16 11.3151 16 9.23437C16 7.39323 14.7225 5.82292 12.98 5.52083L12.9325 5.51302C12.4975 5.4375 12.085 5.74479 12.0125 6.19792C11.94 6.65104 12.235 7.08073 12.67 7.15625L12.7175 7.16406C13.69 7.33333 14.4025 8.20833 14.4025 9.23437C14.4025 10.3932 13.5 11.3333 12.3875 11.3333H8.415C7.3025 11.3333 6.4 10.3932 6.4 9.23437C6.4 8.20833 7.1125 7.33333 8.085 7.16406L8.1325 7.15625C8.5675 7.08073 8.8625 6.65104 8.79 6.19792C8.7175 5.74479 8.305 5.4375 7.87 5.51302L7.8225 5.52083C6.0775 5.82292 4.8 7.39323 4.8 9.23437C4.8 11.3151 6.4175 13 8.415 13H12.385Z"/></svg>