<svg viewBox="0 0 16 16" xmlns="http://www.w3.org/2000/svg"><path d="M1.53033 2.55656C1.53033 2.18823 1.85366 1.88989 2.19699 1.88989H3.08588C3.48033 1.88989 3.75255 2.18823 3.75255 2.55656V5.88878H4.19699C4.59144 5.88878 4.86366 6.18878 4.86366 6.55545C4.86366 6.92489 4.59144 7.22212 4.19699 7.22212H1.97477C1.63144 7.22212 1.3081 6.92489 1.3081 6.55545C1.3081 6.18878 1.63144 5.88878 1.97477 5.88878H2.41922V3.22323H2.19699C1.85366 3.22323 1.53033 2.92461 1.53033 2.55656ZM3.29699 10.4777C3.11366 10.2721 2.78866 10.286 2.62894 10.511L2.32005 10.9416C2.10616 11.2416 1.68977 11.311 1.39005 11.0971C1.09033 10.8832 1.02116 10.4666 1.23505 10.1693L1.54394 9.736C2.20338 8.811 3.55255 8.74434 4.29977 9.59989C4.89144 10.2527 4.87755 11.2916 4.26922 11.9527L3.29977 12.9999H4.22199C4.59144 12.9999 4.88866 13.2971 4.88866 13.6666C4.88866 14.036 4.59144 14.3332 4.22199 14.3332H1.77755C1.51283 14.3332 1.2731 14.1777 1.16699 13.9332C1.0606 13.6916 1.1081 13.4082 1.28755 13.2138L3.28866 11.0471C3.43588 10.886 3.43866 10.6416 3.29699 10.4777ZM14.4442 2.99989C14.8137 2.99989 15.1109 3.2985 15.1109 3.66656C15.1109 4.036 14.8137 4.33323 14.4442 4.33323H6.88866C6.51922 4.33323 6.22199 4.036 6.22199 3.66656C6.22199 3.2985 6.51922 2.99989 6.88866 2.99989H14.4442ZM14.4442 7.44434C14.8137 7.44434 15.1109 7.74156 15.1109 8.111C15.1109 8.48045 14.8137 8.77767 14.4442 8.77767H6.88866C6.51922 8.77767 6.22199 8.48045 6.22199 8.111C6.22199 7.74156 6.51922 7.44434 6.88866 7.44434H14.4442ZM14.4442 11.8888C14.8137 11.8888 15.1109 12.186 15.1109 12.5554C15.1109 12.9249 14.8137 13.2221 14.4442 13.2221H6.88866C6.51922 13.2221 6.22199 12.9249 6.22199 12.5554C6.22199 12.186 6.51922 11.8888 6.88866 11.8888H14.4442Z"/></svg>