<svg viewBox="0 0 16 16" xmlns="http://www.w3.org/2000/svg"><path d="M2 1C1.46957 1 0.960859 1.21071 0.585786 1.58579C0.210714 1.96086 0 2.46957 0 3C0 3.53043 0.210714 4.03914 0.585786 4.41421C0.960859 4.78929 1.46957 5 2 5C2.53043 5 3.03914 4.78929 3.41421 4.41421C3.78929 4.03914 4 3.53043 4 3C4 2.46957 3.78929 1.96086 3.41421 1.58579C3.03914 1.21071 2.53043 1 2 1ZM5.75 2.25C5.33437 2.25 5 2.58438 5 3C5 3.41563 5.33437 3.75 5.75 3.75H15.25C15.6656 3.75 16 3.41563 16 3C16 2.58438 15.6656 2.25 15.25 2.25H5.75ZM5.75 7.25C5.33437 7.25 5 7.58437 5 8C5 8.41563 5.33437 8.75 5.75 8.75H15.25C15.6656 8.75 16 8.41563 16 8C16 7.58437 15.6656 7.25 15.25 7.25H5.75ZM5.75 12.25C5.33437 12.25 5 12.5844 5 13C5 13.4156 5.33437 13.75 5.75 13.75H15.25C15.6656 13.75 16 13.4156 16 13C16 12.5844 15.6656 12.25 15.25 12.25H5.75ZM2 8.75C1.80109 8.75 1.61032 8.67098 1.46967 8.53033C1.32902 8.38968 1.25 8.19891 1.25 8C1.25 7.80109 1.32902 7.61032 1.46967 7.46967C1.61032 7.32902 1.80109 7.25 2 7.25C2.19891 7.25 2.38968 7.32902 2.53033 7.46967C2.67098 7.61032 2.75 7.80109 2.75 8C2.75 8.19891 2.67098 8.38968 2.53033 8.53033C2.38968 8.67098 2.19891 8.75 2 8.75ZM2 6C1.46957 6 0.960859 6.21071 0.585786 6.58579C0.210714 6.96086 0 7.46957 0 8C0 8.53043 0.210714 9.03914 0.585786 9.41421C0.960859 9.78929 1.46957 10 2 10C2.53043 10 3.03914 9.78929 3.41421 9.41421C3.78929 9.03914 4 8.53043 4 8C4 7.46957 3.78929 6.96086 3.41421 6.58579C3.03914 6.21071 2.53043 6 2 6ZM1.25 13C1.25 12.8011 1.32902 12.6103 1.46967 12.4697C1.61032 12.329 1.80109 12.25 2 12.25C2.19891 12.25 2.38968 12.329 2.53033 12.4697C2.67098 12.6103 2.75 12.8011 2.75 13C2.75 13.1989 2.67098 13.3897 2.53033 13.5303C2.38968 13.671 2.19891 13.75 2 13.75C1.80109 13.75 1.61032 13.671 1.46967 13.5303C1.32902 13.3897 1.25 13.1989 1.25 13ZM4 13C4 12.4696 3.78929 11.9609 3.41421 11.5858C3.03914 11.2107 2.53043 11 2 11C1.46957 11 0.960859 11.2107 0.585786 11.5858C0.210714 11.9609 0 12.4696 0 13C0 13.5304 0.210714 14.0391 0.585786 14.4142C0.960859 14.7893 1.46957 15 2 15C2.53043 15 3.03914 14.7893 3.41421 14.4142C3.78929 14.0391 4 13.5304 4 13Z"/></svg>