<svg viewBox="0 0 16 16" xmlns="http://www.w3.org/2000/svg"><path d="M2 2C1.73478 2 1.48043 2.10536 1.29289 2.29289C1.10536 2.48043 1 2.73478 1 3C1 3.26522 1.10536 3.51957 1.29289 3.70711C1.48043 3.89464 1.73478 4 2 4C2.26522 4 2.51957 3.89464 2.70711 3.70711C2.89464 3.51957 3 3.26522 3 3C3 2.73478 2.89464 2.48043 2.70711 2.29289C2.51957 2.10536 2.26522 2 2 2ZM5.75 2.25C5.33437 2.25 5 2.58438 5 3C5 3.41562 5.33437 3.75 5.75 3.75H15.25C15.6656 3.75 16 3.41562 16 3C16 2.58438 15.6656 2.25 15.25 2.25H5.75ZM5.75 7.25C5.33437 7.25 5 7.58437 5 8C5 8.41563 5.33437 8.75 5.75 8.75H15.25C15.6656 8.75 16 8.41563 16 8C16 7.58437 15.6656 7.25 15.25 7.25H5.75ZM5.75 12.25C5.33437 12.25 5 12.5844 5 13C5 13.4156 5.33437 13.75 5.75 13.75H15.25C15.6656 13.75 16 13.4156 16 13C16 12.5844 15.6656 12.25 15.25 12.25H5.75ZM3 8C3 7.73478 2.89464 7.48043 2.70711 7.29289C2.51957 7.10536 2.26522 7 2 7C1.73478 7 1.48043 7.10536 1.29289 7.29289C1.10536 7.48043 1 7.73478 1 8C1 8.26522 1.10536 8.51957 1.29289 8.70711C1.48043 8.89464 1.73478 9 2 9C2.26522 9 2.51957 8.89464 2.70711 8.70711C2.89464 8.51957 3 8.26522 3 8ZM2 12C1.73478 12 1.48043 12.1054 1.29289 12.2929C1.10536 12.4804 1 12.7348 1 13C1 13.2652 1.10536 13.5196 1.29289 13.7071C1.48043 13.8946 1.73478 14 2 14C2.26522 14 2.51957 13.8946 2.70711 13.7071C2.89464 13.5196 3 13.2652 3 13C3 12.7348 2.89464 12.4804 2.70711 12.2929C2.51957 12.1054 2.26522 12 2 12Z"/></svg>