<svg viewBox="0 0 16 16" xmlns="http://www.w3.org/2000/svg"><path d="M15.7574 14.7188L11.5687 10.5312C12.4752 9.42188 13.0035 8.025 13.0035 6.5C13.0035 2.91031 10.0933 0 6.50175 0C2.91016 0 0 2.91031 0 6.5C0 10.0897 2.91109 13 6.50175 13C8.02684 13 9.42597 12.4716 10.5341 11.5925L14.7227 15.78C14.8696 15.9281 15.0634 16 15.2541 16C15.4448 16 15.638 15.9267 15.7846 15.7803C16.0762 15.4875 16.0762 15.0125 15.7574 14.7188ZM6.50175 11.5C3.74413 11.5 1.5004 9.25688 1.5004 6.5C1.5004 3.74312 3.74413 1.5 6.50175 1.5C9.25936 1.5 11.5031 3.74312 11.5031 6.5C11.5031 9.25688 9.25874 11.5 6.50175 11.5ZM9.00242 5.75H7.22382V4C7.22382 3.58562 6.8881 3.25 6.50175 3.25C6.11539 3.25 5.75155 3.58437 5.75155 4V5.75H3.97294C3.58534 5.75 3.25087 6.08437 3.25087 6.5C3.25087 6.91563 3.58628 7.25 3.97294 7.25H5.75155V9C5.75155 9.41438 6.08695 9.75 6.47361 9.75C6.8881 9.75 7.19568 9.41438 7.19568 9V7.25H8.94615C9.41816 7.25 9.75262 6.91563 9.75262 6.5C9.75262 6.08437 9.41816 5.75 9.00242 5.75Z"/></svg>