<svg viewBox="0 0 16 16" xmlns="http://www.w3.org/2000/svg"><path d="M15.7111 1.89444C15.8917 2.01944 16 2.225 16 2.44444V11.7778C16 12.0556 15.8278 12.3028 15.5694 12.4L10.9028 14.1778C10.7583 14.2333 10.6 14.2361 10.4556 14.1861L5.34722 12.4861L0.902778 14.1806C0.697222 14.2583 0.466667 14.2306 0.286111 14.1056C0.105556 13.9806 0 13.775 0 13.5556V4.22222C0 3.94444 0.169444 3.69722 0.430556 3.6L5.09722 1.82222C5.24167 1.76666 5.4 1.76388 5.54444 1.81388L10.6528 3.51388L15.0972 1.81944C15.3028 1.74166 15.5333 1.76944 15.7139 1.89444H15.7111ZM1.33333 4.68055V12.5889L4.66667 11.3194V3.41111L1.33333 4.68055ZM10 12.6306V4.70277L6 3.36944V11.2972L10 12.6306ZM11.3333 12.5889L14.6667 11.3194V3.41111L11.3333 4.68055V12.5889Z"/></svg>