<svg viewBox="0 0 16 16" xmlns="http://www.w3.org/2000/svg"><path d="M6.8 10.8003H4C3.78 10.8003 3.6 10.6203 3.6 10.4003V3.20028C3.6 2.98028 3.78 2.80028 4 2.80028H12C12.22 2.80028 12.4 2.98028 12.4 3.20028V10.4003C12.4 10.6203 12.22 10.8003 12 10.8003H8.9325L6.8 12.4003V10.8003ZM2.4 6.80028V10.4003C2.4 11.2828 3.1175 12.0003 4 12.0003H5.6V14.0003C5.6 14.1528 5.685 14.2903 5.82 14.3578C5.955 14.4253 6.1175 14.4103 6.24 14.3203L6.6675 14.0003L6.795 13.9053L6.8 13.9003L9.3325 12.0003H12C12.8825 12.0003 13.6 11.2828 13.6 10.4003V6.80028H14.5075C14.645 7.04028 14.905 7.20028 15.2 7.20028C15.6425 7.20028 16 6.84278 16 6.40028C16 5.95778 15.6425 5.60028 15.2 5.60028C14.905 5.60028 14.645 5.76028 14.5075 6.00028H13.6V3.20028C13.6 2.31778 12.8825 1.60028 12 1.60028H4C3.1175 1.60028 2.4 2.31778 2.4 3.20028V6.00028H1.4925C1.355 5.76028 1.095 5.60028 0.8 5.60028C0.3575 5.60028 0 5.95778 0 6.40028C0 6.84278 0.3575 7.20028 0.8 7.20028C1.095 7.20028 1.355 7.04028 1.4925 6.80028H2.4ZM4.4 4.80028V8.00028C4.4 8.44278 4.7575 8.80028 5.2 8.80028H10.8C11.2425 8.80028 11.6 8.44278 11.6 8.00028V4.80028C11.6 4.35778 11.2425 4.00028 10.8 4.00028H5.2C4.7575 4.00028 4.4 4.35778 4.4 4.80028ZM5.2 6.40028C5.2 6.18811 5.28429 5.98462 5.43431 5.8346C5.58434 5.68457 5.78783 5.60028 6 5.60028C6.21217 5.60028 6.41566 5.68457 6.56569 5.8346C6.71571 5.98462 6.8 6.18811 6.8 6.40028C6.8 6.61245 6.71571 6.81594 6.56569 6.96597C6.41566 7.11599 6.21217 7.20028 6 7.20028C5.78783 7.20028 5.58434 7.11599 5.43431 6.96597C5.28429 6.81594 5.2 6.61245 5.2 6.40028ZM10 5.60028C10.2122 5.60028 10.4157 5.68457 10.5657 5.8346C10.7157 5.98462 10.8 6.18811 10.8 6.40028C10.8 6.61245 10.7157 6.81594 10.5657 6.96597C10.4157 7.11599 10.2122 7.20028 10 7.20028C9.78783 7.20028 9.58434 7.11599 9.43431 6.96597C9.28429 6.81594 9.2 6.61245 9.2 6.40028C9.2 6.18811 9.28429 5.98462 9.43431 5.8346C9.58434 5.68457 9.78783 5.60028 10 5.60028Z"/></svg>