<svg viewBox="0 0 16 16" xmlns="http://www.w3.org/2000/svg"><path d="M14 0H2C0.898438 0 0 0.904697 0 1.98561V11.02C0 12.1292 0.898438 13.0056 2 13.0056H5V15.6206C5 15.9301 5.34437 16.1099 5.5975 15.9258L9.5 13.0622H14C15.1016 13.0622 16 12.1576 16 11.0766V1.98561C16 0.904697 15.1031 0 14 0ZM14.5 11.0766C14.5 11.352 14.2734 11.5801 14 11.5801H9L6.5 13.4682V11.5801H2C1.72656 11.5801 1.5 11.352 1.5 11.0766V2.01393C1.5 1.73859 1.72656 1.51045 2 1.51045H14C14.2734 1.51045 14.5 1.73859 14.5 2.01393V11.0766ZM10.5031 3.9964C10.2102 3.70139 9.73563 3.70139 9.4425 3.9964L8 5.47853L6.50313 3.9964C6.21016 3.70139 5.73563 3.70139 5.4425 3.9964C5.14938 4.29141 5.14953 4.76925 5.4425 5.06441L6.94063 6.54528L5.46875 8.02427C5.17578 8.31928 5.17578 8.79711 5.46875 9.09228C5.76172 9.38717 6.23594 9.38742 6.52938 9.09228L8 7.61204L9.46969 9.09197C9.76266 9.38685 10.2369 9.3871 10.5303 9.09197C10.8233 8.79696 10.8233 8.31912 10.5303 8.02395L9.05937 6.54528L10.5291 5.06536C10.8219 4.77051 10.8219 4.2922 10.5031 3.9964Z"/></svg>