<svg viewBox="0 0 16 16" xmlns="http://www.w3.org/2000/svg"><path d="M6.8 10.8003H4C3.78 10.8003 3.6 10.6203 3.6 10.4003V3.20027C3.6 2.98027 3.78 2.80027 4 2.80027H12C12.22 2.80027 12.4 2.98027 12.4 3.20027V10.4003C12.4 10.6203 12.22 10.8003 12 10.8003H8.9325L6.8 12.4003V10.8003ZM2.4 6.80027V10.4003C2.4 11.2828 3.1175 12.0003 4 12.0003H5.6V14.0003C5.6 14.1528 5.685 14.2903 5.82 14.3578C5.955 14.4253 6.1175 14.4103 6.24 14.3203L6.6675 14.0003L6.795 13.9053L6.8 13.9003L9.3325 12.0003H12C12.8825 12.0003 13.6 11.2828 13.6 10.4003V6.80027H14.5075C14.645 7.04027 14.905 7.20027 15.2 7.20027C15.6425 7.20027 16 6.84277 16 6.40027C16 5.95777 15.6425 5.60027 15.2 5.60027C14.905 5.60027 14.645 5.76027 14.5075 6.00027H13.6V3.20027C13.6 2.31777 12.8825 1.60027 12 1.60027H4C3.1175 1.60027 2.4 2.31777 2.4 3.20027V6.00027H1.4925C1.355 5.76027 1.095 5.60027 0.8 5.60027C0.3575 5.60027 0 5.95777 0 6.40027C0 6.84277 0.3575 7.20027 0.8 7.20027C1.095 7.20027 1.355 7.04027 1.4925 6.80027H2.4ZM4.4 4.80027V8.00027C4.4 8.44277 4.7575 8.80027 5.2 8.80027H10.8C11.2425 8.80027 11.6 8.44277 11.6 8.00027V4.80027C11.6 4.35777 11.2425 4.00027 10.8 4.00027H5.2C4.7575 4.00027 4.4 4.35777 4.4 4.80027ZM5.2 6.40027C5.2 6.1881 5.28429 5.98462 5.43431 5.83459C5.58434 5.68456 5.78783 5.60027 6 5.60027C6.21217 5.60027 6.41566 5.68456 6.56569 5.83459C6.71571 5.98462 6.8 6.1881 6.8 6.40027C6.8 6.61245 6.71571 6.81593 6.56569 6.96596C6.41566 7.11599 6.21217 7.20027 6 7.20027C5.78783 7.20027 5.58434 7.11599 5.43431 6.96596C5.28429 6.81593 5.2 6.61245 5.2 6.40027ZM10 5.60027C10.2122 5.60027 10.4157 5.68456 10.5657 5.83459C10.7157 5.98462 10.8 6.1881 10.8 6.40027C10.8 6.61245 10.7157 6.81593 10.5657 6.96596C10.4157 7.11599 10.2122 7.20027 10 7.20027C9.78783 7.20027 9.58434 7.11599 9.43431 6.96596C9.28429 6.81593 9.2 6.61245 9.2 6.40027C9.2 6.1881 9.28429 5.98462 9.43431 5.83459C9.58434 5.68456 9.78783 5.60027 10 5.60027Z"/></svg>