<svg viewBox="0 0 16 16" xmlns="http://www.w3.org/2000/svg"><path d="M5.5 0.75C5.5 0.334375 5.16563 0 4.75 0C4.33437 0 4 0.334375 4 0.75V2C2.89688 2 2 2.89688 2 4H0.75C0.334375 4 0 4.33437 0 4.75C0 5.16563 0.334375 5.5 0.75 5.5H2V7.25H0.75C0.334375 7.25 0 7.58437 0 8C0 8.41563 0.334375 8.75 0.75 8.75H2V10.5H0.75C0.334375 10.5 0 10.8344 0 11.25C0 11.6656 0.334375 12 0.75 12H2C2 13.1031 2.89688 14 4 14V15.25C4 15.6656 4.33437 16 4.75 16C5.16563 16 5.5 15.6656 5.5 15.25V14H7.25V15.25C7.25 15.6656 7.58437 16 8 16C8.41563 16 8.75 15.6656 8.75 15.25V14H10.5V15.25C10.5 15.6656 10.8344 16 11.25 16C11.6656 16 12 15.6656 12 15.25V14C13.1031 14 14 13.1031 14 12H15.25C15.6656 12 16 11.6656 16 11.25C16 10.8344 15.6656 10.5 15.25 10.5H14V8.75H15.25C15.6656 8.75 16 8.41563 16 8C16 7.58437 15.6656 7.25 15.25 7.25H14V5.5H15.25C15.6656 5.5 16 5.16563 16 4.75C16 4.33437 15.6656 4 15.25 4H14C14 2.89688 13.1031 2 12 2V0.75C12 0.334375 11.6656 0 11.25 0C10.8344 0 10.5 0.334375 10.5 0.75V2H8.75V0.75C8.75 0.334375 8.41563 0 8 0C7.58437 0 7.25 0.334375 7.25 0.75V2H5.5V0.75ZM5 4H11C11.5531 4 12 4.44687 12 5V11C12 11.5531 11.5531 12 11 12H5C4.44687 12 4 11.5531 4 11V5C4 4.44687 4.44687 4 5 4ZM11 5H5V11H11V5Z"/></svg>