<svg viewBox="0 0 16 16" xmlns="http://www.w3.org/2000/svg"><path d="M15.774 14.0351L11.7905 10.4979C12.1761 9.76439 12.4039 8.91506 12.4039 7.99976V6.86723C12.4039 6.49171 12.135 6.18755 11.8262 6.18755C11.5174 6.18755 11.2261 6.49171 11.2261 6.86723L11.2261 7.97455C11.2261 8.57239 11.0853 9.12747 10.8567 9.62392L10.2135 9.05298C10.3435 8.72164 10.4259 8.36112 10.4259 7.97455L10.3801 3.46882C10.3801 1.96785 9.3273 0.750081 8.00195 0.750081C6.6766 0.750081 5.5788 1.96785 5.5788 3.46882V5.00518L0.970327 0.894825C0.708507 0.663393 0.332907 0.714709 0.127853 1.01031C-0.0765017 1.30601 -0.0310396 1.73336 0.22958 1.96473L15.011 15.0798C15.1439 15.2019 15.2739 15.25 15.3814 15.25C15.5596 15.25 15.7355 15.1605 15.854 14.9897C16.0816 14.6949 16.0341 14.2673 15.774 14.0351ZM9.20227 8.00004C9.20227 8.06283 9.18527 8.11969 9.17799 8.18018L6.80163 6.07144V3.46882C6.80163 2.71833 7.33927 2.10945 8.00195 2.10945C8.66463 2.10945 9.20227 2.71833 9.20227 3.46882V8.00004ZM9.80243 13.8906L8.60211 13.8906V12.9343C9.121 12.8537 9.60913 12.6671 10.0542 12.4001L8.97946 11.446C8.57535 11.5934 8.13874 11.6581 7.68311 11.6074C6.02142 11.4239 4.8011 9.7304 4.8011 7.83862V7.73666L3.63079 6.69731C3.61828 6.72847 3.60078 6.80776 3.60078 6.86723L3.57827 7.77631C3.57827 10.3146 5.15619 12.5794 7.35678 12.9221V13.8892L6.20147 13.8906C5.86888 13.8906 5.60131 14.1937 5.60131 14.5703C5.60131 14.947 5.86888 15.25 6.20147 15.25H9.80243C10.1338 15.25 10.4026 14.9456 10.4026 14.5703C10.4026 14.1937 10.135 13.8906 9.80243 13.8906Z"/></svg>