<svg viewBox="0 0 16 16" xmlns="http://www.w3.org/2000/svg"><path d="M11.3409 0H4.65909C3.60462 0 2.75 0.895313 2.75 2V14C2.75 15.1047 3.60462 16 4.65909 16H11.3409C12.3954 16 13.25 15.1047 13.25 14V2C13.25 0.895313 12.3939 0 11.3409 0ZM11.8182 14C11.8182 14.2757 11.6041 14.5 11.3409 14.5H4.65909C4.39599 14.5 4.18182 14.275 4.18182 14V2C4.18182 1.72431 4.39593 1.5 4.65909 1.5H11.3409C11.6034 1.5 11.8182 1.72438 11.8182 2V14ZM8.95455 12.5H7.04545C6.78188 12.5 6.56818 12.7239 6.56818 13C6.56818 13.2761 6.78188 13.5 7.04545 13.5H8.95455C9.21818 13.5 9.43182 13.2761 9.43182 13C9.43182 12.7239 9.21705 12.5 8.95455 12.5Z"/></svg>