<svg viewBox="0 0 16 16" xmlns="http://www.w3.org/2000/svg"><path d="M15.5909 12.4252C15.5643 12.4252 15.5369 12.4274 15.5089 12.4322C15.0591 12.5087 14.6137 12.5454 14.1755 12.5454C10.3814 12.5454 7.20842 9.79056 7.20842 6.27791C7.20842 4.02125 8.56062 1.94602 10.7592 0.828226C11.098 0.656379 11.0129 0.197549 10.628 0.133981C10.1798 0.0597712 9.44625 0.000203295 8.99125 0.000203295C4.01377 -0.0311984 0 3.5793 0 8.00047C0 12.4145 4.00577 16 8.95596 16C11.7188 16 14.2423 14.8769 15.911 13.0384C16.1391 12.7538 15.891 12.4252 15.5909 12.4252ZM8.95596 14.2858C5.07824 14.2858 1.92085 11.4646 1.92085 8.00047C1.92085 5.27492 3.87251 2.95077 6.59091 2.07939C5.73053 3.32218 5.25032 4.77209 5.25032 6.27914C5.25032 9.83036 7.85667 12.8466 11.4491 13.8787C10.6647 14.1465 9.82034 14.2858 8.95596 14.2858Z"/></svg>