<svg viewBox="0 0 16 16" xmlns="http://www.w3.org/2000/svg"><path d="M15 0C14.8984 0 14.7969 0.0153 14.6992 0.0465625L5.19922 3.04688C4.78438 3.18125 4.5 3.5625 4.5 4V11.3469C4.03125 11.1164 3.51938 10.9994 3 10.9994C1.31563 11 0 12.1187 0 13.5C0 14.8813 1.31562 16 2.97187 16C4.515 16 5.76875 15.0275 5.93687 13.7772C5.96031 13.6912 5.97197 13.5912 5.97197 13.5014L6 8L14.5 5.31625V9.3475C14.0312 9.11703 13.5194 9 12.9997 9C11.3434 9 10.0278 10.1172 10.0278 11.4719C10.0278 12.8266 11.3434 13.9437 12.9997 13.9437C14.5428 13.9437 15.7969 12.9672 15.9688 11.7209C15.9883 11.635 15.9961 11.5491 16 11.4631V0.999687C16 0.44875 15.5562 0 15 0ZM3 14.5C2.11719 14.5 1.5 13.9725 1.5 13.5C1.5 13.0275 2.11719 12.5 3 12.5C3.88281 12.5 4.5 13.0275 4.5 13.5C4.5 13.9725 3.88125 14.5 3 14.5ZM14.5 11.5C14.5 11.9725 13.8828 12.5 13 12.5C12.1172 12.5 11.5 11.9725 11.5 11.5C11.5 11.0275 12.1172 10.5 13 10.5C13.8828 10.5 14.5 11.0281 14.5 11.5ZM14.5 3.74375L6 6.425V4.36875L14.5 1.685V3.74375Z"/></svg>