<svg xmlns="http://www.w3.org/2000/svg" viewBox="0 0 640 640"><path d="M475.8 133.5C483.3 122.5 480.4 107.6 469.4 100.2C458.4 92.8 443.5 95.6 436.1 106.6L378 192L120 192C106.7 192 96 202.7 96 216C96 229.3 106.7 240 120 240L345.4 240L236.6 400L120 400C106.7 400 96 410.7 96 424C96 437.3 106.7 448 120 448L203.9 448L164.1 506.5C156.6 517.5 159.5 532.4 170.5 539.8C181.5 547.2 196.4 544.4 203.8 533.5L262 448L520 448C533.3 448 544 437.3 544 424C544 410.7 533.3 400 520 400L294.6 400L403.4 240L520 240C533.3 240 544 229.3 544 216C544 202.7 533.3 192 520 192L436.1 192L475.9 133.5z"/></svg>