<svg viewBox="0 0 16 16" xmlns="http://www.w3.org/2000/svg"><path d="M1 2C1 1.58437 1.33437 1.25 1.75 1.25H14.25C14.6656 1.25 15 1.58437 15 2C15 2.41562 14.6656 2.75 14.25 2.75H1.75C1.33437 2.75 1 2.41562 1 2ZM7 6C7 5.58437 7.33437 5.25 7.75 5.25H14.25C14.6656 5.25 15 5.58437 15 6C15 6.41563 14.6656 6.75 14.25 6.75H7.75C7.33437 6.75 7 6.41563 7 6ZM7.75 9.25H14.25C14.6656 9.25 15 9.58438 15 10C15 10.4156 14.6656 10.75 14.25 10.75H7.75C7.33437 10.75 7 10.4156 7 10C7 9.58438 7.33437 9.25 7.75 9.25ZM1 14C1 13.5844 1.33437 13.25 1.75 13.25H14.25C14.6656 13.25 15 13.5844 15 14C15 14.4156 14.6656 14.75 14.25 14.75H1.75C1.33437 14.75 1 14.4156 1 14ZM1.21875 8.3875C0.975 8.1875 0.975 7.8125 1.21875 7.6125L4.18125 5.17188C4.50625 4.90313 5 5.13437 5 5.55937V10.4406C5 10.8625 4.50938 11.0938 4.18125 10.8281L1.21875 8.3875Z"/></svg>