<svg viewBox="0 0 16 16" xmlns="http://www.w3.org/2000/svg"><path d="M15.3935 6.96783L1.39372 0.124387C1.26685 0.0623719 1.1331 0 1.00061 0C0.731143 0 0.466242 0.124708 0.272495 0.358193C-0.0155708 0.738127 -0.0819664 1.25457 0.10553 1.68262L2.99994 8.01568L0.105624 14.3491C-0.0818727 14.7775 -0.0154677 15.2936 0.27262 15.6418C0.465992 15.8752 0.730736 16 1.00011 16C1.13292 16 1.26669 15.9699 1.39354 15.9075L15.3935 9.06353C15.7616 8.88422 16 8.47153 16 8.01533C15.9716 7.55948 15.7622 7.14604 15.3935 6.96783ZM2.09121 2.32665L11.981 7.1603H4.29992L2.09121 2.32665ZM4.29992 8.87107H11.9779L2.09058 13.704L4.29992 8.87107Z"/></svg>