<svg viewBox="0 0 16 16" xmlns="http://www.w3.org/2000/svg"><path d="M0.970018 1.7275C0.710018 1.5225 0.332518 1.57 0.127518 1.83C-0.0774815 2.09 -0.0299815 2.4675 0.230018 2.6725L15.03 14.2725C15.29 14.4775 15.6675 14.43 15.8725 14.17C16.0775 13.91 16.03 13.5325 15.77 13.3275L10.2475 9L13.9175 5.3325C14.465 4.785 14.5325 3.9425 14.1225 3.32C14.065 3.2325 13.995 3.1475 13.9175 3.07L12.9325 2.0825C12.3075 1.4575 11.295 1.4575 10.67 2.0825L6.60502 6.145L0.970018 1.7275ZM7.55752 6.89L9.62502 4.825L11.175 6.375L9.29752 8.2525L7.55752 6.89ZM3.91252 10.535L5.84502 8.6025L4.89502 7.855L3.06502 9.685C2.80502 9.945 2.61502 10.2675 2.51002 10.62L1.93502 12.575L1.62502 13.63C1.56252 13.84 1.62002 14.0675 1.77752 14.2225C1.93502 14.3775 2.16002 14.435 2.37002 14.375L3.42502 14.065L5.37752 13.49C5.68752 13.4 5.97002 13.2425 6.21252 13.03C6.24752 13 6.28002 12.9675 6.31252 12.935L8.52752 10.72L7.57752 9.9725L5.46252 12.0875C5.34502 12.205 5.19752 12.2925 5.03752 12.34L4.45252 12.5125L3.08252 12.915L3.48502 11.545L3.65752 10.96C3.70002 10.82 3.77002 10.69 3.86752 10.58C3.88252 10.565 3.89502 10.55 3.91002 10.535H3.91252Z"/></svg>