<svg viewBox="0 0 16 16" xmlns="http://www.w3.org/2000/svg"><path d="M13 5H11C9.89531 5 9 5.89531 9 7V10C9 10.5522 9.44781 11 10 11V15.25C10 15.6641 10.3359 16 10.75 16C11.1641 16 11.5 15.6641 11.5 15.25V11H12.5V15.25C12.5 15.6641 12.8359 16 13.25 16C13.6641 16 14 15.6656 14 15.25V11C14.5522 11 15 10.5522 15 10V7C15 5.89688 14.1031 5 13 5ZM13.5 9.5H10.5V7C10.5 6.72431 10.7243 6.5 11 6.5H13C13.2757 6.5 13.5 6.72431 13.5 7V9.5ZM12 4C13.1056 4 14 3.10563 14 2C14 0.894375 13.1056 0 12 0C10.8944 0 10 0.894375 10 2C10 3.10563 10.8937 4 12 4ZM4 4C5.10563 4 6 3.10563 6 2C6 0.894375 5.10625 0 4 0C2.89375 0 2 0.894375 2 2C2 3.10563 2.89469 4 4 4ZM5 5H3C1.89531 5 1 5.89688 1 7V10C1 10.5522 1.44781 11 2 11V15.25C2 15.6656 2.33594 16 2.75 16C3.16406 16 3.5 15.6641 3.5 15.25V11H4.5V15.25C4.5 15.6656 4.8375 16 5.25 16C5.6625 16 6 15.6656 6 15.25V11C6.55219 11 7 10.5522 7 10V7C7 5.89688 6.10312 5 5 5ZM5.5 9.5H2.5V7C2.5 6.72431 2.72431 6.5 3 6.5H5C5.27569 6.5 5.5 6.72431 5.5 7V9.5Z"/></svg>