<svg viewBox="0 0 16 16" xmlns="http://www.w3.org/2000/svg"><path d="M5.4401 9.90312L4.81831 11.3469C4.78082 11.4406 4.6902 11.5 4.59334 11.5H2.2499C1.83589 11.5 1.5 11.8359 1.5 12.25C1.5 12.6641 1.83589 13 2.2499 13H4.59334C5.29262 13 5.92504 12.5859 6.2025 11.9656L6.62432 10.9531L6.32749 10.7734C5.95566 10.5469 5.66195 10.2469 5.4401 9.90312ZM9.99888 3C10.8269 3 11.4987 2.32812 11.4987 1.5C11.4987 0.671875 10.8269 0 9.99888 0C9.17086 0 8.49907 0.671875 8.49907 1.5C8.49907 2.32812 9.17086 3 9.99888 3ZM13.7484 7.51562L12.2367 7.51172C12.1273 7.51172 12.0297 7.44141 11.9985 7.33594L11.5648 5.89844C11.2757 4.95687 10.5024 4.23438 9.53753 4.01937L7.09301 3.46563C6.88991 3.41875 6.65869 3.39687 6.48372 3.39687C5.88161 3.39687 5.29294 3.59675 4.80519 3.97375L3.29289 5.14062C3.10198 5.2875 3.0023 5.50625 3.0023 5.73125C3.0023 6.12031 3.31126 6.4825 3.75158 6.4825C3.91274 6.4825 4.07497 6.43097 4.21058 6.32478L5.72194 5.16072C5.94366 4.98856 6.21344 4.89925 6.48684 4.89925C6.57955 4.89925 6.67272 4.9095 6.76465 4.93026L7.23049 5.03125L6.12439 7.7625C6.0369 7.97812 5.99628 8.2 5.99628 8.41875C5.99628 9.01625 6.30218 9.58938 6.84211 9.91813L9.45895 11.4963C9.53631 11.5427 9.58181 11.6259 9.58181 11.7129C9.58181 11.7357 9.57868 11.7587 9.5722 11.7814L8.53032 15.0437C8.5108 15.1124 8.50148 15.1817 8.50148 15.2499C8.5022 15.4969 8.68967 16 9.2521 16C9.58018 16 9.88077 15.7852 9.9745 15.4569L11.0134 12.1912C11.0595 12.0318 11.0816 11.87 11.0816 11.7097C11.0816 11.1091 10.7697 10.5344 10.2361 10.2106L8.61781 9.23438L9.93013 5.9625C10.0161 6.07578 10.0864 6.19688 10.1293 6.3375L10.5668 7.775C10.7894 8.51313 11.4613 9.01313 12.2347 9.01313L13.7463 9.02094C14.1604 9.02094 14.5 8.685 14.5 8.27094C14.4983 7.85625 14.1671 7.51875 13.7484 7.51562Z"/></svg>