<svg viewBox="0 0 16 16" xmlns="http://www.w3.org/2000/svg"><path d="M15.0087 10.0094L11.9401 8.69439C11.2713 8.40436 10.4826 8.59723 10.0276 9.16157L9.17019 10.2084C7.77151 9.40314 6.59969 8.23126 5.79347 6.83127L6.84186 5.97252C7.40277 5.51564 7.59651 4.73127 7.28403 4.06565L5.99034 0.985338C5.67473 0.260339 4.88727 -0.135161 4.12168 0.0420891L1.269 0.700338C0.52185 0.87065 0 1.52596 0 2.29346C0 9.85314 6.14658 16 13.7056 16C14.4731 16 15.1283 15.4784 15.2993 14.7334L15.9574 11.8791C16.1367 11.1094 15.7368 10.3219 15.0087 10.0094ZM14.4962 11.5406L13.8372 14.3972C13.8212 14.4594 13.7712 14.5 13.7056 14.5C6.97467 14.5 1.47181 9.02501 1.47181 2.29346C1.47181 2.22802 1.51233 2.17677 1.5763 2.16212L4.45916 1.50346C4.46893 1.50102 4.47918 1.50004 4.48895 1.50004C4.54313 1.50004 4.59391 1.53276 4.61541 1.58157L5.93222 4.65438C5.95597 4.70939 5.94034 4.77502 5.89347 4.81252L4.36917 6.06158C4.09981 6.28127 4.01543 6.65939 4.16855 6.97189C5.20007 9.07282 6.92655 10.8 9.0277 11.8313C9.34012 11.9846 9.71798 11.9025 9.93859 11.633L11.1892 10.1055C11.2238 10.0616 11.2887 10.0449 11.3429 10.0704L14.4134 11.3857C14.4743 11.4125 14.5087 11.4781 14.4962 11.5406ZM10.8776 1.9394L11.9382 3.00002L10.8776 4.05939C10.5848 4.35218 10.5848 4.82721 10.8776 5.12002C11.1704 5.4128 11.6454 5.41283 11.9382 5.12003L12.9988 4.05941L14.0593 5.12003C14.3521 5.41281 14.8271 5.41285 15.1199 5.12005C15.4127 4.82727 15.4127 4.35224 15.1199 4.05943L14.0593 2.9988L15.1199 1.93818C15.4127 1.6454 15.4127 1.17037 15.1199 0.877556C14.8271 0.584776 14.3521 0.584744 14.0593 0.877541L12.9713 1.9394L11.9107 0.878775C11.6179 0.585994 11.1429 0.585963 10.8501 0.87876C10.5839 1.17159 10.5839 1.64659 10.8776 1.9394Z"/></svg>