<svg viewBox="0 0 16 16" fxmlns="http://www.w3.org/2000/svg"><path d="M6.325 2.7375C6.075 2.56562 6 2.38125 6 2.25H4.5C4.5 2.99375 4.92812 3.6 5.475 3.975L6.325 2.7375ZM1.75 4.5H5.79063V3H1.75V4.5ZM1.5 7.19063V4.75H0V7.19063H1.5ZM1.81562 7.94063C1.95 7.80938 2.10313 7.75 2.25 7.75V6.25C1.67188 6.25 1.15937 6.49062 0.778125 6.85625L1.81875 7.9375L1.81562 7.94063ZM2.25 7.75C2.55937 7.75 3 8.08438 3 8.75H4.5C4.5 7.48125 3.59687 6.25 2.25 6.25V7.75ZM3 8.75C3 9.41562 2.55937 9.75 2.25 9.75V11.25C3.59687 11.25 4.5 10.0187 4.5 8.75H3ZM2.25 9.75C2.10313 9.75 1.95312 9.69062 1.81562 9.55937L0.778125 10.6438C1.15937 11.0094 1.67188 11.25 2.25 11.25V9.75ZM1.5 14.25V10.3094H0V14.25H1.5ZM5.69063 14.5H1.75V16H5.69063V14.5ZM4.75 13.75C4.75 14.3281 4.99062 14.8406 5.35625 15.2219L6.4375 14.1812C6.30625 14.0469 6.24687 13.8937 6.24687 13.7469H4.75V13.75ZM7.25 11.5C5.98125 11.5 4.75 12.4031 4.75 13.75H6.25C6.25 13.4406 6.58438 13 7.25 13V11.5ZM9.75 13.75C9.75 12.4031 8.51875 11.5 7.25 11.5V13C7.91562 13 8.25 13.4406 8.25 13.75H9.75ZM9.14375 15.2219C9.50938 14.8406 9.75 14.3281 9.75 13.75H8.25C8.25 13.8969 8.19062 14.0469 8.05937 14.1844L9.14062 15.225L9.14375 15.2219ZM11.25 14.5H8.80937V16H11.25V14.5ZM11.5 10.2094V14.25H13V10.2094H11.5ZM13.75 10C13.6188 10 13.4344 9.925 13.2625 9.675L12.025 10.525C12.4 11.075 13.0063 11.5 13.75 11.5V10ZM14.5 8.75C14.5 9.15625 14.375 9.49375 14.2094 9.71562C14.0438 9.9375 13.875 10 13.75 10V11.5C14.4531 11.5 15.0313 11.1188 15.4094 10.6156C15.7875 10.1125 16 9.45 16 8.75H14.5ZM13.75 7.5C13.875 7.5 14.0469 7.56563 14.2094 7.78438C14.3719 8.00313 14.5 8.34375 14.5 8.75H16C16 8.05 15.7875 7.39063 15.4094 6.88438C15.0313 6.37813 14.4531 6 13.75 6V7.5ZM13.2625 7.825C13.4344 7.575 13.6188 7.5 13.75 7.5V6C13.0063 6 12.4 6.42812 12.025 6.975L13.2625 7.825ZM11.5 4.75V7.29063H13V4.75H11.5ZM8.70938 4.5H11.25V3H8.70938V4.5ZM8.5 2.25C8.5 2.38125 8.425 2.56562 8.175 2.7375L9.025 3.975C9.57187 3.6 10 2.99375 10 2.25H8.5ZM7.25 1.5C7.65625 1.5 7.99375 1.625 8.21562 1.79062C8.4375 1.95625 8.5 2.125 8.5 2.25H10C10 1.54688 9.61875 0.96875 9.11563 0.590625C8.6125 0.2125 7.95 0 7.25 0V1.5ZM6 2.25C6 2.125 6.06563 1.95312 6.28438 1.79062C6.50313 1.62812 6.84375 1.5 7.25 1.5V0C6.55 0 5.89063 0.2125 5.38438 0.590625C4.87813 0.96875 4.5 1.54688 4.5 2.25H6ZM9.25 3.54063C9.25 3.7375 9.14687 3.89062 9.025 3.975L8.175 2.7375C7.93125 2.90625 7.75 3.19375 7.75 3.54063H9.25ZM12.4594 10.75C12.2625 10.75 12.1094 10.6469 12.025 10.525L13.2625 9.675C13.0969 9.43125 12.8062 9.25 12.4625 9.25V10.75H12.4594ZM13 10.2094C13 10.5063 12.7594 10.75 12.4594 10.75V9.25C11.9281 9.25 11.5 9.68125 11.5 10.2094H13ZM11.25 16C12.2156 16 13 15.2156 13 14.25H11.5C11.5 14.3875 11.3875 14.5 11.25 14.5V16ZM7.75 14.9406C7.75 15.525 8.225 16 8.80937 16V14.5C9.05312 14.5 9.25 14.6969 9.25 14.9406H7.75ZM8.05937 14.1844C7.8875 14.3625 7.75 14.625 7.75 14.9406H9.25C9.25 15.0781 9.19063 15.1719 9.14375 15.2219L8.0625 14.1812L8.05937 14.1844ZM5.69063 16C6.275 16 6.75 15.525 6.75 14.9406H5.25C5.25 14.6969 5.44688 14.5 5.69063 14.5V16ZM1.05938 9.25C0.475 9.25 0 9.725 0 10.3094H1.5C1.5 10.5531 1.30313 10.75 1.05938 10.75V9.25ZM1.81562 9.55937C1.6375 9.39062 1.375 9.25 1.05938 9.25V10.75C0.921875 10.75 0.828125 10.6906 0.778125 10.6438L1.81875 9.5625L1.81562 9.55937ZM13 4.75C13 3.78438 12.2156 3 11.25 3V4.5C11.3875 4.5 11.5 4.6125 11.5 4.75H13ZM0 7.19063C0 7.775 0.475 8.25 1.05938 8.25V6.75C1.30313 6.75 1.5 6.94688 1.5 7.19063H0ZM12.4594 6.75C12.7563 6.75 13 6.99063 13 7.29063H11.5C11.5 7.82188 11.9313 8.25 12.4594 8.25V6.75ZM1.75 3C0.784375 3 0 3.78438 0 4.75H1.5C1.5 4.6125 1.6125 4.5 1.75 4.5V3ZM6.75 14.9406C6.75 14.625 6.60938 14.3625 6.44063 14.1844L5.35938 15.225C5.3125 15.175 5.25313 15.0813 5.25313 14.9438H6.75313L6.75 14.9406ZM12.025 6.975C12.1094 6.85312 12.2625 6.75 12.4594 6.75V8.25C12.8063 8.25 13.0937 8.06875 13.2594 7.825L12.0219 6.975H12.025ZM5.25 3.54063C5.25 3.24375 5.49063 3 5.79063 3V4.5C6.32188 4.5 6.75 4.06875 6.75 3.54063H5.25ZM8.70938 3C9.00625 3 9.25 3.24063 9.25 3.54063H7.75C7.75 4.07188 8.18125 4.5 8.70938 4.5V3ZM1.05938 8.25C1.375 8.25 1.6375 8.10938 1.81562 7.94063L0.778125 6.85625C0.828125 6.80937 0.921875 6.75 1.05938 6.75V8.25ZM0 14.25C0 15.2156 0.784375 16 1.75 16V14.5C1.6125 14.5 1.5 14.3875 1.5 14.25H0ZM5.475 3.975C5.35312 3.89062 5.25 3.7375 5.25 3.54063H6.75C6.75 3.19375 6.56875 2.90625 6.325 2.74062L5.475 3.97813V3.975Z"/></svg>