<svg viewBox="0 0 16 16" xmlns="http://www.w3.org/2000/svg"><path d="M6 3C5.44687 3 5 3.44687 5 4C5 4.55313 4.55313 5 4 5C3.44687 5 3 4.55313 3 4C3 2.34375 4.34375 1 6 1H9.03125C11.2219 1 13 2.77813 13 4.96875C13 6.60625 11.9937 8.075 10.4688 8.66875L8.5 9.43437V10C8.5 10.5531 8.05313 11 7.5 11C6.94687 11 6.5 10.5531 6.5 10V9.43437C6.5 8.60937 7.00625 7.86875 7.775 7.57188L9.74375 6.80625C10.5 6.50938 11 5.78125 11 4.96875C11 3.88125 10.1187 3 9.03125 3H6ZM7.5 15C6.80937 15 6.25 14.4406 6.25 13.75C6.25 13.0594 6.80937 12.5 7.5 12.5C8.19063 12.5 8.75 13.0594 8.75 13.75C8.75 14.4406 8.19063 15 7.5 15Z"/></svg>