<svg viewBox="0 0 16 16" xmlns="http://www.w3.org/2000/svg"><path d="M12.5714 1.75C10.6779 1.75 9.14286 3.42891 9.14286 5.5C9.14286 7.57109 10.6779 9.25 12.5714 9.25C13.1993 9.25 13.7796 9.05203 14.2857 8.73008V9.5625C14.2857 11.1133 13.1318 12.375 11.7143 12.375H11.1429C10.6696 12.375 10.2857 12.7949 10.2857 13.3125C10.2857 13.8301 10.6714 14.25 11.1429 14.25H11.7143C14.0786 14.25 16 12.1484 16 9.5625V5.5C16 3.39453 14.4643 1.75 12.5714 1.75ZM12.5714 7.375C11.6261 7.375 10.8571 6.53398 10.8571 5.5C10.8571 4.46602 11.6261 3.625 12.5714 3.625C13.5168 3.625 14.2857 4.46602 14.2857 5.5C14.2857 6.53398 13.5179 7.375 12.5714 7.375ZM3.42857 1.75C1.535 1.75 0 3.39453 0 5.5C0 7.60547 1.535 9.25 3.42857 9.25C4.05643 9.25 4.63679 9.05203 5.14286 8.73008V9.5625C5.14286 11.1133 3.98893 12.375 2.57143 12.375H2C1.52679 12.375 1.14286 12.7969 1.14286 13.3125C1.14286 13.8281 1.52679 14.25 2 14.25H2.57143C4.93571 14.25 6.85714 12.1484 6.85714 9.5625V5.5C6.85714 3.39453 5.32143 1.75 3.42857 1.75ZM3.42857 7.375C2.48321 7.375 1.71429 6.53516 1.71429 5.5C1.71429 4.46484 2.48321 3.625 3.42857 3.625C4.37393 3.625 5.14286 4.46484 5.14286 5.5C5.14286 6.53516 4.375 7.375 3.42857 7.375Z"/></svg>