<svg viewBox="0 0 16 16" xmlns="http://www.w3.org/2000/svg"><path d="M8.845 2.9525L10.1525 3.14C10.385 3.175 10.4825 3.4625 10.3125 3.635L9.3625 4.55L9.5875 5.8525C9.6225 6.085 9.3825 6.265 9.1675 6.1575L8.0025 5.5475L6.83 6.1675C6.615 6.275 6.3725 6.095 6.41 5.8625L6.635 4.56L5.685 3.635C5.515 3.465 5.6125 3.1775 5.845 3.14L7.1525 2.9525L7.745 1.7575C7.8525 1.5425 8.1575 1.55 8.255 1.7575L8.845 2.9525ZM6.8 9.2V13.2H9.2V9.2H6.8ZM5.6 9.2C5.6 8.5375 6.1375 8 6.8 8H9.2C9.8625 8 10.4 8.5375 10.4 9.2V13.2C10.4 13.8625 9.8625 14.4 9.2 14.4H6.8C6.1375 14.4 5.6 13.8625 5.6 13.2V9.2ZM1.2 10.8V13.2H3.6V10.8H1.2ZM0 10.8C0 10.1375 0.5375 9.6 1.2 9.6H3.6C4.2625 9.6 4.8 10.1375 4.8 10.8V13.2C4.8 13.8625 4.2625 14.4 3.6 14.4H1.2C0.5375 14.4 0 13.8625 0 13.2V10.8ZM14.8 11.6H12.4V13.2H14.8V11.6ZM12.4 10.4H14.8C15.4625 10.4 16 10.9375 16 11.6V13.2C16 13.8625 15.4625 14.4 14.8 14.4H12.4C11.7375 14.4 11.2 13.8625 11.2 13.2V11.6C11.2 10.9375 11.7375 10.4 12.4 10.4Z"/></svg>