<svg viewBox="0 0 16 16" xmlns="http://www.w3.org/2000/svg"><path d="M3.55556 6.33336C3.06389 6.33336 2.66667 5.93614 2.66667 5.44447C2.66667 4.9528 3.06389 4.55558 3.55556 4.55558C4.04722 4.55558 4.44444 4.9528 4.44444 5.44447C4.44444 5.93614 4.04722 6.33336 3.55556 6.33336ZM5.55556 5.44447C5.55556 5.07503 5.85278 4.7778 6.22222 4.7778H12.4444C12.8139 4.7778 13.1111 5.07503 13.1111 5.44447C13.1111 5.81392 12.8139 6.11114 12.4444 6.11114H6.22222C5.85278 6.11114 5.55556 5.81392 5.55556 5.44447ZM5.55556 8.11114C5.55556 7.74169 5.85278 7.44447 6.22222 7.44447H12.4444C12.8139 7.44447 13.1111 7.74169 13.1111 8.11114C13.1111 8.48058 12.8139 8.7778 12.4444 8.7778H6.22222C5.85278 8.7778 5.55556 8.48058 5.55556 8.11114ZM5.55556 10.7778C5.55556 10.4084 5.85278 10.1111 6.22222 10.1111H12.4444C12.8139 10.1111 13.1111 10.4084 13.1111 10.7778C13.1111 11.1472 12.8139 11.4445 12.4444 11.4445H6.22222C5.85278 11.4445 5.55556 11.1472 5.55556 10.7778ZM3.55556 7.22225C4.04722 7.22225 4.44444 7.61947 4.44444 8.11114C4.44444 8.60281 4.04722 9.00003 3.55556 9.00003C3.06389 9.00003 2.66667 8.60281 2.66667 8.11114C2.66667 7.61947 3.06389 7.22225 3.55556 7.22225ZM3.55556 11.6667C3.06389 11.6667 2.66667 11.2695 2.66667 10.7778C2.66667 10.2861 3.06389 9.88892 3.55556 9.88892C4.04722 9.88892 4.44444 10.2861 4.44444 10.7778C4.44444 11.2695 4.04722 11.6667 3.55556 11.6667ZM0 3.66669C0 2.68475 0.795833 1.88892 1.77778 1.88892H14.2222C15.2028 1.88892 16 2.68475 16 3.66669V12.5556C16 13.5361 15.2028 14.3334 14.2222 14.3334H1.77778C0.795833 14.3334 0 13.5361 0 12.5556V3.66669ZM1.33333 3.66669V12.5556C1.33333 12.8 1.53222 13 1.77778 13H14.2222C14.4667 13 14.6667 12.8 14.6667 12.5556V3.66669C14.6667 3.42114 14.4667 3.22225 14.2222 3.22225H1.77778C1.53222 3.22225 1.33333 3.42114 1.33333 3.66669Z"/></svg>