<svg viewBox="0 0 16 16" xmlns="http://www.w3.org/2000/svg"><path d="M0 13.6575C0 14.0675 0.3325 14.4 0.7425 14.4C3.785 14.4 6.8275 14.4 9.87 14.4C9.4125 14.0775 9.02 13.67 8.7125 13.2C6.22 13.2 3.725 13.2 1.2325 13.2C1.455 11.6175 2.815 10.4 4.4575 10.4C5.22 10.4 5.98 10.4 6.7425 10.4C7.19 10.4 7.615 10.49 8.0025 10.6525C8.0175 10.2325 8.0875 9.83 8.2125 9.4475C7.7525 9.2875 7.2575 9.2 6.7425 9.2C5.98 9.2 5.22 9.2 4.4575 9.2C1.995 9.2 0 11.195 0 13.6575ZM2.4 4.8C2.4 5.9425 3.01 7 4 7.5725C4.99 8.145 6.21 8.145 7.2 7.5725C8.19 7 8.8 5.945 8.8 4.8C8.8 3.655 8.19 2.6 7.2 2.0275C6.21 1.455 4.99 1.455 4 2.0275C3.01 2.6 2.4 3.6575 2.4 4.8ZM3.6 4.8C3.6 4.085 3.98 3.425 4.6 3.0675C5.22 2.71 5.98 2.71 6.6 3.0675C7.22 3.425 7.6 4.085 7.6 4.8C7.6 5.515 7.22 6.175 6.6 6.5325C5.98 6.89 5.22 6.89 4.6 6.5325C3.98 6.175 3.6 5.515 3.6 4.8ZM9.2825 9C8.64 10.115 8.64 11.485 9.2825 12.6C9.925 13.715 11.115 14.4 12.4 14.4C13.685 14.4 14.875 13.715 15.5175 12.6C16.16 11.485 16.16 10.115 15.5175 9C14.875 7.885 13.685 7.2 12.4 7.2C11.115 7.2 9.925 7.885 9.2825 9ZM10.5175 10.5175C10.985 10.05 11.45 9.585 11.9175 9.1175C12.0725 8.9625 12.3275 8.9625 12.4825 9.1175C12.6375 9.2725 12.6375 9.5275 12.4825 9.6825C12.2425 9.9225 12.005 10.16 11.765 10.4C12.51 10.4 13.255 10.4 14 10.4C14.22 10.4 14.4 10.58 14.4 10.8C14.4 11.02 14.22 11.2 14 11.2C13.255 11.2 12.51 11.2 11.765 11.2C12.005 11.44 12.2425 11.6775 12.4825 11.9175C12.6375 12.0725 12.6375 12.3275 12.4825 12.4825C12.3275 12.6375 12.0725 12.6375 11.9175 12.4825C11.45 12.015 10.985 11.55 10.5175 11.0825C10.36 10.9275 10.36 10.6725 10.5175 10.5175Z"/></svg>