<svg viewBox="0 0 16 16" xmlns="http://www.w3.org/2000/svg"><path d="M0.127396 2.58029C0.332396 2.32035 0.709896 2.27286 0.969896 2.47781C1.0899 2.57279 1.2099 2.66527 1.3299 2.76025C1.6149 2.50531 1.9899 2.35034 2.3999 2.35034C6.1349 2.35034 9.8674 2.35034 13.5999 2.35034C14.4824 2.35034 15.1999 3.06767 15.1999 3.94996C15.1999 6.34938 15.1999 8.7488 15.1999 11.1482C15.1999 11.888 14.6949 12.5129 14.0099 12.6953C14.5974 13.1552 15.1849 13.6151 15.7699 14.075C16.0299 14.28 16.0774 14.6574 15.8724 14.9173C15.6674 15.1772 15.2899 15.2247 15.0299 15.0198C10.0949 11.1532 5.1624 7.28915 0.229896 3.42259C-0.0301036 3.21764 -0.0776036 2.84023 0.127396 2.58029ZM0.799896 5.37961L1.9999 6.32438C1.9999 7.9315 1.9999 9.53861 1.9999 11.1482C1.9999 11.3682 2.1799 11.5481 2.3999 11.5481C3.8624 11.5481 5.3249 11.5481 6.7874 11.5481C6.7949 11.5481 6.8024 11.5481 6.8074 11.5481C7.4149 11.5481 8.0224 11.5481 8.6299 11.5481L10.1524 12.7478C10.0699 12.7478 9.9874 12.7478 9.9049 12.7478C9.9724 13.1477 10.0374 13.5476 10.1049 13.9475C10.5349 13.9475 10.9674 13.9475 11.3974 13.9475C11.7299 13.9475 11.9974 14.215 11.9974 14.5474C11.9974 14.8798 11.7299 15.1473 11.3974 15.1473C10.7974 15.1473 10.1974 15.1473 9.5974 15.1473C8.5299 15.1473 7.4649 15.1473 6.3974 15.1473C5.7974 15.1473 5.1974 15.1473 4.5974 15.1473C4.2649 15.1473 3.9974 14.8798 3.9974 14.5474C3.9974 14.215 4.2649 13.9475 4.5974 13.9475C5.0274 13.9475 5.4599 13.9475 5.8899 13.9475C5.9574 13.5476 6.0224 13.1477 6.0899 12.7478C4.8599 12.7478 3.6274 12.7478 2.3974 12.7478C1.5149 12.7478 0.797396 12.0305 0.797396 11.1482C0.797396 9.22618 0.797396 7.30165 0.797396 5.37961H0.799896ZM2.3424 3.55505L12.5449 11.5481C12.8974 11.5481 13.2474 11.5481 13.5999 11.5481C13.8199 11.5481 13.9999 11.3682 13.9999 11.1482C13.9999 8.7488 13.9999 6.34938 13.9999 3.94996C13.9999 3.73001 13.8199 3.55006 13.5999 3.55006C9.8649 3.55006 6.1324 3.55006 2.3999 3.55006C2.3799 3.55006 2.3624 3.55255 2.3424 3.55505ZM7.1099 13.9475C7.7049 13.9475 8.2974 13.9475 8.8924 13.9475C8.8249 13.5476 8.7599 13.1477 8.6924 12.7478C8.2299 12.7478 7.7699 12.7478 7.3074 12.7478C7.3099 12.7478 7.3074 12.7478 7.3099 12.7478L7.1099 13.9475Z"/></svg>