<svg viewBox="0 0 16 16" xmlns="http://www.w3.org/2000/svg"><path d="M7 7.5H10C12.0687 7.5 13.8125 8.89688 14.3375 10.7969C14.4406 10.4094 14.5 9.97813 14.5 9.5C14.5 7.29063 12.7094 5.5 10.5 5.5H7H6.25C5.83437 5.5 5.5 5.16563 5.5 4.75V4V3.12188L1.74688 6.5L5.5 9.87813V9V8.25C5.5 7.83438 5.83437 7.5 6.25 7.5H7ZM7 9V10.5V11C7 11.3938 6.76875 11.7531 6.40625 11.9125C6.04375 12.0719 5.625 12.0063 5.33125 11.7438L0.33125 7.24375C0.121875 7.05313 0 6.78438 0 6.5C0 6.21563 0.121875 5.94688 0.33125 5.75625L5.33125 1.25625C5.625 0.990629 6.04688 0.925004 6.40625 1.0875C6.76562 1.25 7 1.60625 7 2V2.5V4H8.5H10.5C13.5375 4 16 6.4625 16 9.5C16 11.9375 14.7937 13.4438 13.8531 14.2531C13.725 14.3625 13.6 14.4594 13.4875 14.5438C13.3875 14.6188 13.2938 14.6813 13.2094 14.7375C13.0688 14.8313 12.95 14.8969 12.8719 14.9406C12.7937 14.9844 12.7062 15 12.6187 15C12.2781 15 12.0031 14.7219 12.0031 14.3844C12.0031 14.1719 12.1156 13.9719 12.2625 13.8188C12.2781 13.8031 12.2906 13.7906 12.3062 13.775C12.3812 13.7031 12.4656 13.6156 12.5469 13.5063C12.6 13.4344 12.6531 13.35 12.7031 13.2594C12.8688 12.9563 13 12.5438 13 12.0031C13 10.3469 11.6562 9.00313 10 9.00313H8.5H7V9Z"/></svg>