<svg viewBox="0 0 16 16" xmlns="http://www.w3.org/2000/svg"><path d="M8.84211 11.9375C8.84211 12.1791 8.65358 12.375 8.42105 12.375H7.57895C7.34737 12.375 7.15789 12.1781 7.15789 11.9375C7.15789 11.6969 7.34737 11.5 7.57895 11.5H8.42105C8.65263 11.5 8.84211 11.6969 8.84211 11.9375ZM5.89474 11.5H4.63158C4.39905 11.5 4.21053 11.6958 4.21053 11.9375C4.21053 12.1781 4.4 12.375 4.63158 12.375H5.89474C6.12632 12.375 6.31579 12.1781 6.31579 11.9375C6.31579 11.6969 6.12632 11.5 5.89474 11.5ZM4.10526 8.10938C4.10526 7.08398 4.90789 6.25 5.89474 6.25C6.88158 6.25 7.68421 7.08398 7.68421 8.10938C7.68421 9.13449 6.88158 9.96875 5.89474 9.96875C4.90789 9.96875 4.10526 9.13477 4.10526 8.10938ZM5.36842 8.10938C5.36842 8.41125 5.60408 8.65625 5.89474 8.65625C6.18553 8.65625 6.42105 8.41139 6.42105 8.10938C6.42105 7.78398 6.18421 7.5625 5.89474 7.5625C5.58158 7.5625 5.36842 7.78398 5.36842 8.10938ZM11.8947 8.10938C11.8947 9.13449 11.09 9.94414 10.1034 9.94414C10.1028 9.94414 10.1041 9.94414 10.1034 9.94414C10.1028 9.94414 10.1041 9.94414 10.1034 9.94414C9.11658 9.94414 8.3121 9.11016 8.3121 8.10938C8.3121 7.08398 9.11684 6.27461 10.1034 6.27461C10.1041 6.27461 10.1028 6.27461 10.1034 6.27461C10.1041 6.27461 10.1028 6.27461 10.1034 6.27461C11.0895 6.25 11.8947 7.08398 11.8947 8.10938ZM10.6289 8.10938C10.6289 7.80805 10.3943 7.56414 10.1045 7.56277C9.81316 7.56523 9.57895 7.78398 9.57895 8.10938C9.57895 8.4107 9.81358 8.65461 10.1034 8.65598C10.3921 8.65352 10.6289 8.41016 10.6289 8.10938ZM11.3684 11.5H10.1053C9.87274 11.5 9.68421 11.6958 9.68421 11.9375C9.68421 12.1791 9.87274 12.375 10.1053 12.375H11.3684C11.6009 12.375 11.7895 12.1791 11.7895 11.9375C11.7895 11.6969 11.6 11.5 11.3684 11.5ZM13.8947 5.8125V12.8125C13.8947 14.0205 12.9521 15 11.7895 15H4.21053C3.04737 15 2.10526 14.0211 2.10526 12.8125V5.8125C2.10526 4.60391 3.04737 3.625 4.21053 3.625H7.36842V1.65625C7.36842 1.29395 7.65263 1 8 1C8.34737 1 8.63158 1.29395 8.63158 1.65625V3.625H11.7895C12.9526 3.625 13.8947 4.60391 13.8947 5.8125ZM12.6316 5.8125C12.6316 5.33016 12.2537 4.9375 11.7895 4.9375H4.21053C3.74632 4.9375 3.36842 5.33016 3.36842 5.8125V12.8125C3.36842 13.2948 3.74632 13.6875 4.21053 13.6875H11.7895C12.2537 13.6875 12.6316 13.2948 12.6316 12.8125V5.8125ZM15.1605 6.25H14.7368V11.5H15.16C15.6263 11.5 16 11.109 16 10.625V7.125C16 6.64102 15.6237 6.25 15.1605 6.25ZM0 7.125V10.625C0 11.1082 0.375263 11.5 0.840526 11.5H1.26316V6.25H0.842895C0.377895 6.25 0 6.64102 0 7.125Z"/></svg>