<svg viewBox="0 0 16 17" xmlns="http://www.w3.org/2000/svg"><path d="M11.5093 8.28125C10.1187 9.22188 7.46871 10.4125 6.01871 11.0312L4.92496 9.9375C5.56246 8.49687 6.77496 5.875 7.71558 4.4875C9.65933 1.625 12.45 1.30937 14.4281 1.57187C14.6937 3.55 14.375 6.34062 11.5125 8.28125H11.5093ZM3.70308 9C3.59058 9.25 3.49058 9.475 3.40933 9.6625C3.24683 10.0344 3.33121 10.4656 3.61871 10.7531L5.20308 12.3375C5.48746 12.6219 5.91246 12.7094 6.28121 12.5531C6.48433 12.4688 6.72808 12.3656 6.99996 12.2469V15.2531C6.99996 15.5219 7.14371 15.7719 7.37808 15.9062C7.61246 16.0406 7.89996 16.0375 8.13121 15.9L10.8968 14.2594C11.5812 13.8531 12 13.1187 12 12.325V9.75313C12.125 9.675 12.2406 9.6 12.3531 9.525C16.1281 6.96562 16.2531 3.15312 15.8343 0.878125C15.7687 0.515625 15.4843 0.234375 15.1218 0.165625C12.8468 -0.253125 9.03433 -0.128126 6.47496 3.64687C6.39996 3.75937 6.32183 3.875 6.24683 4H3.68121C2.88746 4 2.14996 4.41875 1.74683 5.10312L0.106207 7.86875C-0.0312929 8.1 -0.0344179 8.3875 0.0999571 8.62187C0.234332 8.85625 0.481207 9 0.749957 9H3.70308ZM12.75 4.5C12.75 4.16848 12.6183 3.85054 12.3838 3.61612C12.1494 3.3817 11.8315 3.25 11.5 3.25C11.1684 3.25 10.8505 3.3817 10.6161 3.61612C10.3817 3.85054 10.25 4.16848 10.25 4.5C10.25 4.83152 10.3817 5.14946 10.6161 5.38388C10.8505 5.6183 11.1684 5.75 11.5 5.75C11.8315 5.75 12.1494 5.6183 12.3838 5.38388C12.6183 5.14946 12.75 4.83152 12.75 4.5Z"/></svg>