<svg viewBox="0 0 16 16" xmlns="http://www.w3.org/2000/svg"><path d="M13.7063 4.86562C13.4812 5.225 13.2375 5.57187 13 5.8875C12.7656 5.57187 12.5188 5.225 12.2937 4.86562C11.7406 3.97812 11.5 3.32188 11.5 3C11.5 2.17188 12.1719 1.5 13 1.5C13.8281 1.5 14.5 2.17188 14.5 3C14.5 3.32188 14.2594 3.97812 13.7063 4.86562ZM13.3562 7.84375C14.1531 6.90938 16 4.56875 16 3C16 1.34375 14.6562 0 13 0C11.3438 0 10 1.34375 10 3C10 4.04063 10.8094 5.41563 11.5875 6.5H10.25C8.73125 6.5 7.5 7.73125 7.5 9.25C7.5 10.7688 8.73125 12 10.25 12H13.25C13.9406 12 14.5 12.5594 14.5 13.25C14.5 13.9406 13.9406 14.5 13.25 14.5H5.55625C5.47188 14.6187 5.38438 14.7375 5.3 14.85C4.96563 15.2938 4.63438 15.6906 4.3625 16H13.25C14.7688 16 16 14.7688 16 13.25C16 11.7312 14.7688 10.5 13.25 10.5H10.25C9.55937 10.5 9 9.94063 9 9.25C9 8.55937 9.55937 8 10.25 8H12.9031C13.0625 8.03438 13.2375 7.98125 13.3562 7.84375ZM3.71563 12.7625C3.4875 13.1062 3.2375 13.4406 3 13.7375C2.7625 13.4406 2.5125 13.1062 2.28437 12.7625C1.73125 11.9281 1.5 11.3094 1.5 11C1.5 10.1719 2.17188 9.5 3 9.5C3.82812 9.5 4.5 10.1719 4.5 11C4.5 11.3094 4.26875 11.9281 3.71563 12.7625ZM4.30937 14.5C5.11875 13.4656 6 12.0844 6 11C6 9.34375 4.65625 8 3 8C1.34375 8 0 9.34375 0 11C0 12.5781 1.86875 14.7812 2.65625 15.6375C2.84375 15.8406 3.15625 15.8406 3.34063 15.6375C3.34375 15.6344 3.34687 15.6313 3.35 15.6281C3.35938 15.6188 3.36875 15.6062 3.37812 15.5969C3.46563 15.5 3.56562 15.3875 3.675 15.2625C3.67812 15.2594 3.67813 15.2594 3.68125 15.2563C3.87188 15.0375 4.0875 14.7812 4.30625 14.5H4.30937Z"/></svg>