<svg viewBox="0 0 16 16" xmlns="http://www.w3.org/2000/svg"><g clip-path="url(#clip0_1_596)"><path d="M8.58406 8.58406L7.41594 7.41594L5.1875 10.8125L8.58406 8.58406ZM8 0.25C3.71875 0.25 0.25 3.71875 0.25 8C0.25 12.2812 3.71875 15.75 8 15.75C12.2812 15.75 15.75 12.2812 15.75 8C15.75 3.71875 12.2812 0.25 8 0.25ZM12.8703 5.71219L13.3322 5.52063C13.3625 5.50808 13.3951 5.50164 13.4279 5.50167C13.4607 5.5017 13.4932 5.5082 13.5236 5.52079C13.5539 5.53338 13.5814 5.55183 13.6046 5.57507C13.6278 5.59831 13.6462 5.6259 13.6587 5.65625V5.65625C13.6713 5.6866 13.6778 5.71913 13.6779 5.75198C13.6779 5.78484 13.6714 5.81738 13.6589 5.84774C13.6463 5.87809 13.6279 5.90568 13.6046 5.92891C13.5814 5.95214 13.5538 5.97056 13.5234 5.98313L13.0625 6.17406C13.0013 6.19941 12.9324 6.1994 12.8712 6.17402C12.81 6.14865 12.7613 6.09999 12.7359 6.03875V6.03875C12.7105 5.97762 12.7104 5.90891 12.7356 5.84769C12.7608 5.78647 12.8092 5.73774 12.8703 5.71219V5.71219ZM9.82594 2.9375L10.0172 2.47563C10.0427 2.41455 10.0915 2.36611 10.1527 2.34092C10.2139 2.31573 10.2826 2.31585 10.3438 2.34125V2.34125C10.405 2.36662 10.4536 2.41528 10.479 2.47651C10.5044 2.53775 10.5044 2.60656 10.4791 2.66781L10.2875 3.12969C10.2621 3.19093 10.2135 3.23958 10.1522 3.26496C10.091 3.29033 10.0222 3.29035 9.96094 3.265V3.265C9.93053 3.25241 9.9029 3.23394 9.87965 3.21065C9.8564 3.18736 9.83797 3.15971 9.82543 3.12929C9.81288 3.09886 9.80647 3.06625 9.80656 3.03334C9.80665 3.00043 9.81323 2.96786 9.82594 2.9375V2.9375ZM8 1.875C8.0663 1.875 8.12989 1.90134 8.17678 1.94822C8.22366 1.99511 8.25 2.0587 8.25 2.125V2.625C8.25 2.6913 8.22366 2.75489 8.17678 2.80178C8.12989 2.84866 8.0663 2.875 8 2.875C7.9337 2.875 7.87011 2.84866 7.82322 2.80178C7.77634 2.75489 7.75 2.6913 7.75 2.625V2.125C7.75 2.0587 7.77634 1.99511 7.82322 1.94822C7.87011 1.90134 7.9337 1.875 8 1.875V1.875ZM5.65625 2.34125C5.6866 2.32865 5.71913 2.32216 5.75198 2.32214C5.78484 2.32212 5.81738 2.32858 5.84774 2.34115C5.87809 2.35372 5.90568 2.37214 5.92891 2.39538C5.95214 2.41861 5.97056 2.4462 5.98313 2.47656L6.17406 2.9375C6.18738 2.96796 6.19448 3.00077 6.19496 3.034C6.19544 3.06724 6.18929 3.10024 6.17687 3.13107C6.16444 3.1619 6.146 3.18994 6.1226 3.21356C6.09921 3.23718 6.07134 3.25589 6.04063 3.26861C6.00992 3.28132 5.97698 3.28779 5.94374 3.28762C5.9105 3.28746 5.87763 3.28066 5.84704 3.26764C5.81646 3.25462 5.78878 3.23563 5.76563 3.21178C5.74247 3.18793 5.7243 3.1597 5.71219 3.12875L5.52063 2.66687C5.49559 2.60569 5.4958 2.53709 5.52122 2.47606C5.54663 2.41504 5.59519 2.36657 5.65625 2.34125V2.34125ZM3.66937 3.66906C3.71625 3.62221 3.77982 3.5959 3.84609 3.5959C3.91237 3.5959 3.97593 3.62221 4.02281 3.66906L4.375 4.0225C4.42156 4.06934 4.4477 4.1327 4.4477 4.19875C4.4477 4.2648 4.42156 4.32816 4.375 4.375C4.32812 4.42185 4.26456 4.44817 4.19828 4.44817C4.13201 4.44817 4.06844 4.42185 4.02156 4.375L3.66812 4.02156C3.62169 3.9746 3.59572 3.91117 3.5959 3.84512C3.59607 3.77907 3.62238 3.71578 3.66906 3.66906H3.66937ZM1.875 8C1.875 7.9337 1.90134 7.87011 1.94822 7.82322C1.99511 7.77634 2.0587 7.75 2.125 7.75H2.625C2.6913 7.75 2.75489 7.77634 2.80178 7.82322C2.84866 7.87011 2.875 7.9337 2.875 8C2.875 8.0663 2.84866 8.12989 2.80178 8.17678C2.75489 8.22366 2.6913 8.25 2.625 8.25H2.125C2.0587 8.25 1.99511 8.22366 1.94822 8.17678C1.90134 8.12989 1.875 8.0663 1.875 8ZM3.12969 10.2878L2.66781 10.4794C2.63747 10.4919 2.60494 10.4984 2.57211 10.4983C2.53927 10.4983 2.50676 10.4918 2.47644 10.4792C2.44611 10.4666 2.41856 10.4482 2.39537 10.4249C2.37217 10.4017 2.35378 10.3741 2.34125 10.3438C2.32865 10.3134 2.32216 10.2809 2.32214 10.248C2.32212 10.2152 2.32858 10.1826 2.34115 10.1523C2.35372 10.1219 2.37214 10.0943 2.39538 10.0711C2.41861 10.0479 2.4462 10.0294 2.47656 10.0169L2.9375 9.82594C2.99875 9.80059 3.06756 9.8006 3.1288 9.82598C3.19004 9.85135 3.23869 9.90001 3.26406 9.96125V9.96125C3.28947 10.0224 3.28958 10.0911 3.26439 10.1523C3.2392 10.2135 3.19076 10.2623 3.12969 10.2878V10.2878ZM3.265 6.03781C3.25253 6.06833 3.23415 6.09608 3.21091 6.11947C3.18767 6.14286 3.16004 6.16142 3.1296 6.17408C3.09916 6.18674 3.06652 6.19326 3.03355 6.19326C3.00058 6.19326 2.96794 6.18673 2.9375 6.17406L2.47563 5.98281C2.41455 5.95726 2.36611 5.90853 2.34092 5.84731C2.31573 5.78609 2.31585 5.71738 2.34125 5.65625C2.36662 5.59501 2.41528 5.54635 2.47651 5.52098C2.53775 5.4956 2.60656 5.49559 2.66781 5.52094L3.12969 5.7125C3.19085 5.73787 3.23945 5.78648 3.26482 5.84764C3.29018 5.90881 3.29025 5.97754 3.265 6.03875V6.03781ZM6.17406 13.0625L5.98281 13.5244C5.97025 13.5547 5.95184 13.5823 5.92863 13.6055C5.90541 13.6288 5.87785 13.6472 5.84751 13.6598C5.81717 13.6724 5.78465 13.6788 5.75181 13.6788C5.71897 13.6789 5.68644 13.6724 5.65609 13.6598C5.62575 13.6473 5.59817 13.6289 5.57494 13.6057C5.5517 13.5824 5.53327 13.5549 5.52069 13.5245C5.50811 13.4942 5.50163 13.4617 5.50162 13.4288C5.50161 13.396 5.50807 13.3635 5.52063 13.3331L5.71219 12.8713C5.7243 12.8403 5.74247 12.8121 5.76563 12.7882C5.78878 12.7644 5.81646 12.7454 5.84704 12.7324C5.87763 12.7193 5.9105 12.7125 5.94374 12.7124C5.97698 12.7122 6.00992 12.7187 6.04063 12.7314C6.07134 12.7441 6.09921 12.7628 6.1226 12.7864C6.146 12.8101 6.16444 12.8381 6.17687 12.8689C6.18929 12.8998 6.19544 12.9328 6.19496 12.966C6.19448 12.9992 6.18738 13.032 6.17406 13.0625V13.0625ZM8.25 13.875C8.25 13.9413 8.22366 14.0049 8.17678 14.0518C8.12989 14.0987 8.0663 14.125 8 14.125C7.9337 14.125 7.87011 14.0987 7.82322 14.0518C7.77634 14.0049 7.75 13.9413 7.75 13.875V13.375C7.75 13.3087 7.77634 13.2451 7.82322 13.1982C7.87011 13.1513 7.9337 13.125 8 13.125C8.0663 13.125 8.12989 13.1513 8.17678 13.1982C8.22366 13.2451 8.25 13.3087 8.25 13.375V13.875ZM10.3438 13.6587C10.3134 13.6713 10.2809 13.6778 10.248 13.6779C10.2152 13.6779 10.1826 13.6714 10.1523 13.6589C10.1219 13.6463 10.0943 13.6279 10.0711 13.6046C10.0479 13.5814 10.0294 13.5538 10.0169 13.5234L9.82594 13.0625C9.80059 13.0013 9.8006 12.9324 9.82598 12.8712C9.85135 12.81 9.90001 12.7613 9.96125 12.7359V12.7359C10.0225 12.7106 10.0913 12.7106 10.1525 12.736C10.2138 12.7614 10.2624 12.81 10.2878 12.8713L10.4794 13.3331C10.5044 13.3943 10.5042 13.4629 10.4788 13.5239C10.4534 13.585 10.4048 13.6334 10.3438 13.6587ZM12.3306 12.3309C12.2837 12.3778 12.2202 12.4041 12.1539 12.4041C12.0876 12.4041 12.0241 12.3778 11.9772 12.3309L11.625 11.9775C11.5784 11.9307 11.5523 11.8673 11.5523 11.8013C11.5523 11.7352 11.5784 11.6718 11.625 11.625C11.6719 11.5782 11.7354 11.5518 11.8017 11.5518C11.868 11.5518 11.9316 11.5782 11.9784 11.625L12.3319 11.9784C12.3783 12.0254 12.4043 12.0888 12.4041 12.1549C12.4039 12.2209 12.3776 12.2842 12.3309 12.3309H12.3306ZM8.94531 8.94531L3.44812 12.5519L7.05469 7.05469L12.5519 3.44812L8.94531 8.94531ZM13.6587 10.3438C13.6334 10.405 13.5847 10.4536 13.5235 10.479C13.4622 10.5044 13.3934 10.5044 13.3322 10.4791L12.8703 10.2875C12.8091 10.2621 12.7604 10.2135 12.735 10.1522C12.7097 10.091 12.7097 10.0222 12.735 9.96094V9.96094C12.7476 9.93053 12.7661 9.9029 12.7893 9.87965C12.8126 9.8564 12.8403 9.83797 12.8707 9.82543C12.9011 9.81288 12.9337 9.80647 12.9667 9.80656C12.9996 9.80665 13.0321 9.81323 13.0625 9.82594L13.5244 10.0172C13.5854 10.0427 13.6339 10.0915 13.6591 10.1527C13.6843 10.2139 13.6842 10.2826 13.6587 10.3438V10.3438ZM13.875 8.25H13.375C13.3087 8.25 13.2451 8.22366 13.1982 8.17678C13.1513 8.12989 13.125 8.0663 13.125 8C13.125 7.9337 13.1513 7.87011 13.1982 7.82322C13.2451 7.77634 13.3087 7.75 13.375 7.75H13.875C13.9413 7.75 14.0049 7.77634 14.0518 7.82322C14.0987 7.87011 14.125 7.9337 14.125 8C14.125 8.0663 14.0987 8.12989 14.0518 8.17678C14.0049 8.22366 13.9413 8.25 13.875 8.25Z"/></g><defs><clipPath><rect/></clipPath></defs></svg>