<svg viewBox="0 0 16 16" xmlns="http://www.w3.org/2000/svg"><g clip-path="url(#clip0_11902_178447)"><path d="M13.2531 8.96876C12.9602 8.67579 12.4856 8.67676 12.1925 8.96974C11.8994 9.26271 11.8995 9.73724 12.1925 10.0304L13.4406 11.25H10.375L8.56219 8.83313L7.65281 10.0828L9.42844 12.45C9.54062 12.6375 9.7625 12.75 10 12.75H13.4406L12.2209 13.9697C11.928 14.2627 11.928 14.7372 12.2209 15.0303C12.3656 15.1781 12.5562 15.25 12.75 15.25C12.9438 15.25 13.1334 15.1758 13.28 15.0293L15.7519 12.5299C16.0448 12.237 16.0448 11.7612 15.7519 11.4684L13.2531 8.96876ZM0.75 4.75001H3.625L5.43781 7.16688L6.34719 5.9172L4.6 3.55001C4.45937 3.36251 4.2375 3.25001 4 3.25001H0.75C0.335938 3.25001 0 3.58751 0 4.00001C0 4.41251 0.335938 4.75001 0.75 4.75001ZM13.4406 4.75001L12.2209 5.9697C11.928 6.26266 11.928 6.7372 12.2209 7.03032C12.3656 7.17813 12.5562 7.25001 12.75 7.25001C12.9438 7.25001 13.1337 7.17776 13.2803 7.03126L15.7522 4.53188C16.0452 4.23891 16.0451 3.76313 15.7521 3.47032L13.2803 0.970945C12.9873 0.677976 12.5128 0.677008 12.22 0.969967C11.9271 1.26293 11.927 1.73747 12.22 2.03059L13.4406 3.25001H10C9.76369 3.25001 9.54187 3.36132 9.40031 3.54982L3.625 11.25H0.75C0.335938 11.25 0 11.5875 0 12C0 12.4125 0.335938 12.75 0.75 12.75H4C4.23631 12.75 4.45813 12.6387 4.59969 12.4502L10.375 4.75001H13.4406Z"/></g><defs><clipPath><rect/></clipPath></defs></svg>