<svg viewBox="0 0 16 16" xmlns="http://www.w3.org/2000/svg"><path d="M0 13C0 13.5531 0.446875 14 1 14H2.70937C3.09375 14.8844 3.975 15.5 5 15.5C6.025 15.5 6.90625 14.8844 7.29063 14H15C15.5531 14 16 13.5531 16 13C16 12.4469 15.5531 12 15 12H7.29063C6.90625 11.1156 6.025 10.5 5 10.5C3.975 10.5 3.09375 11.1156 2.70937 12H1C0.446875 12 0 12.4469 0 13ZM4 13C4 12.7348 4.10536 12.4804 4.29289 12.2929C4.48043 12.1054 4.73478 12 5 12C5.26522 12 5.51957 12.1054 5.70711 12.2929C5.89464 12.4804 6 12.7348 6 13C6 13.2652 5.89464 13.5196 5.70711 13.7071C5.51957 13.8946 5.26522 14 5 14C4.73478 14 4.48043 13.8946 4.29289 13.7071C4.10536 13.5196 4 13.2652 4 13ZM10 8C10 7.73478 10.1054 7.48043 10.2929 7.29289C10.4804 7.10536 10.7348 7 11 7C11.2652 7 11.5196 7.10536 11.7071 7.29289C11.8946 7.48043 12 7.73478 12 8C12 8.26522 11.8946 8.51957 11.7071 8.70711C11.5196 8.89464 11.2652 9 11 9C10.7348 9 10.4804 8.89464 10.2929 8.70711C10.1054 8.51957 10 8.26522 10 8ZM11 5.5C9.975 5.5 9.09375 6.11562 8.70938 7H1C0.446875 7 0 7.44688 0 8C0 8.55313 0.446875 9 1 9H8.70938C9.09375 9.88437 9.975 10.5 11 10.5C12.025 10.5 12.9062 9.88437 13.2906 9H15C15.5531 9 16 8.55313 16 8C16 7.44688 15.5531 7 15 7H13.2906C12.9062 6.11562 12.025 5.5 11 5.5ZM6 4C5.73478 4 5.48043 3.89464 5.29289 3.70711C5.10536 3.51957 5 3.26522 5 3C5 2.73478 5.10536 2.48043 5.29289 2.29289C5.48043 2.10536 5.73478 2 6 2C6.26522 2 6.51957 2.10536 6.70711 2.29289C6.89464 2.48043 7 2.73478 7 3C7 3.26522 6.89464 3.51957 6.70711 3.70711C6.51957 3.89464 6.26522 4 6 4ZM8.29062 2C7.90625 1.11563 7.025 0.5 6 0.5C4.975 0.5 4.09375 1.11563 3.70937 2H1C0.446875 2 0 2.44687 0 3C0 3.55312 0.446875 4 1 4H3.70937C4.09375 4.88438 4.975 5.5 6 5.5C7.025 5.5 7.90625 4.88438 8.29062 4H15C15.5531 4 16 3.55312 16 3C16 2.44687 15.5531 2 15 2H8.29062Z"/></svg>