<svg viewBox="0 0 16 16" xmlns="http://www.w3.org/2000/svg"><path d="M5.42857 7.71429V11.7143C5.42857 12.1893 5.04643 12.5714 4.57143 12.5714C4.09643 12.5714 3.71429 12.1893 3.71429 11.7143V7.71429C3.71429 7.23929 4.09643 6.85714 4.57143 6.85714C5.04643 6.85714 5.42857 7.23929 5.42857 7.71429ZM7.14286 4.28571C7.14286 3.81071 7.525 3.42857 8 3.42857C8.475 3.42857 8.85714 3.81071 8.85714 4.28571V11.7143C8.85714 12.1893 8.475 12.5714 8 12.5714C7.525 12.5714 7.14286 12.1893 7.14286 11.7143V4.28571ZM12.2857 10V11.7143C12.2857 12.1893 11.9036 12.5714 11.4286 12.5714C10.9536 12.5714 10.5714 12.1893 10.5714 11.7143V10C10.5714 9.525 10.9536 9.14286 11.4286 9.14286C11.9036 9.14286 12.2857 9.525 12.2857 10ZM0 2.28571C0 1.02321 1.02321 0 2.28571 0H13.7143C14.975 0 16 1.02321 16 2.28571V13.7143C16 14.975 14.975 16 13.7143 16H2.28571C1.02321 16 0 14.975 0 13.7143V2.28571ZM1.71429 2.28571V13.7143C1.71429 14.0286 1.97 14.2857 2.28571 14.2857H13.7143C14.0286 14.2857 14.2857 14.0286 14.2857 13.7143V2.28571C14.2857 1.97 14.0286 1.71429 13.7143 1.71429H2.28571C1.97 1.71429 1.71429 1.97 1.71429 2.28571Z"/></svg>