<svg viewBox="0 0 16 17" xmlns="http://www.w3.org/2000/svg"><path d="M3.75 1.25311H4.25C4.66563 1.25311 5 1.58749 5 2.00311C5 2.41874 4.66563 2.75311 4.25 2.75311H3.75C3.05938 2.75311 2.5 3.31249 2.5 4.00311V4.50311C2.5 4.91874 2.16562 5.25311 1.75 5.25311C1.33437 5.25311 1 4.91874 1 4.50311V4.00311C1 2.48436 2.23125 1.25311 3.75 1.25311ZM1.75 6.25311C2.16562 6.25311 2.5 6.58749 2.5 7.00311V9.50311C2.5 9.91874 2.16562 10.2531 1.75 10.2531C1.33437 10.2531 1 9.91874 1 9.50311V7.00311C1 6.58749 1.33437 6.25311 1.75 6.25311ZM14.25 6.25311C14.6656 6.25311 15 6.58749 15 7.00311V9.50311C15 9.91874 14.6656 10.2531 14.25 10.2531C13.8344 10.2531 13.5 9.91874 13.5 9.50311V7.00311C13.5 6.58749 13.8344 6.25311 14.25 6.25311ZM14.25 5.25311C13.8344 5.25311 13.5 4.91874 13.5 4.50311V4.00311C13.5 3.31249 12.9406 2.75311 12.25 2.75311H11.75C11.3344 2.75311 11 2.41874 11 2.00311C11 1.58749 11.3344 1.25311 11.75 1.25311H12.25C13.7688 1.25311 15 2.48436 15 4.00311V4.50311C15 4.91874 14.6656 5.25311 14.25 5.25311ZM15 12.0031V12.5031C15 14.0219 13.7688 15.2531 12.25 15.2531H11.75C11.3344 15.2531 11 14.9187 11 14.5031C11 14.0875 11.3344 13.7531 11.75 13.7531H12.25C12.9406 13.7531 13.5 13.1937 13.5 12.5031V12.0031C13.5 11.5875 13.8344 11.2531 14.25 11.2531C14.6656 11.2531 15 11.5875 15 12.0031ZM2.5 12.0031V12.5031C2.5 13.1937 3.05938 13.7531 3.75 13.7531H4.25C4.66563 13.7531 5 14.0875 5 14.5031C5 14.9187 4.66563 15.2531 4.25 15.2531H3.75C2.23125 15.2531 1 14.0219 1 12.5031V12.0031C1 11.5875 1.33437 11.2531 1.75 11.2531C2.16562 11.2531 2.5 11.5875 2.5 12.0031ZM6.75 15.2531C6.33437 15.2531 6 14.9187 6 14.5031C6 14.0875 6.33437 13.7531 6.75 13.7531H9.25C9.66562 13.7531 10 14.0875 10 14.5031C10 14.9187 9.66562 15.2531 9.25 15.2531H6.75ZM6 2.00311C6 1.58749 6.33437 1.25311 6.75 1.25311H9.25C9.66562 1.25311 10 1.58749 10 2.00311C10 2.41874 9.66562 2.75311 9.25 2.75311H6.75C6.33437 2.75311 6 2.41874 6 2.00311Z"/></svg>