<svg viewBox="0 0 16 16" xmlns="http://www.w3.org/2000/svg"><path d="M2.28571 0C1.025 0 0 1.025 0 2.28571V13.7143C0 14.975 1.025 16 2.28571 16H13.7143C14.975 16 16 14.975 16 13.7143V2.28571C16 1.025 14.975 0 13.7143 0H2.28571ZM12.0357 6.32143L7.46429 10.8929C7.12857 11.2286 6.58571 11.2286 6.25357 10.8929L3.96786 8.60714C3.63214 8.27143 3.63214 7.72857 3.96786 7.39643C4.30357 7.06429 4.84643 7.06071 5.17857 7.39643L6.85714 9.075L10.8214 5.10714C11.1571 4.77143 11.7 4.77143 12.0321 5.10714C12.3643 5.44286 12.3679 5.98571 12.0321 6.31786L12.0357 6.32143Z"/></svg>