<svg viewBox="0 0 16 16" xmlns="http://www.w3.org/2000/svg"><path d="M4.5 0.751564C4.5 0.335939 4.83437 0.00156403 5.25 0.00156403H8.75C9.16562 0.00156403 9.5 0.335939 9.5 0.751564C9.5 1.16719 9.16562 1.50156 8.75 1.50156H7.75V3.04531C9.10625 3.20156 10.3375 3.77344 11.3062 4.63594L12.2188 3.72031C12.5125 3.42656 12.9875 3.42656 13.2781 3.72031C13.5687 4.01406 13.5719 4.48906 13.2781 4.77969L12.3094 5.74844C13.0594 6.80781 13.5 8.10156 13.5 9.49844C13.5 13.0891 10.5906 15.9984 7 15.9984C3.40937 15.9984 0.5 13.0922 0.5 9.50156C0.5 6.16406 3.0125 3.41719 6.25 3.04531V1.50156H5.25C4.83437 1.50156 4.5 1.16719 4.5 0.751564ZM7 14.5016C8.32608 14.5016 9.59785 13.9748 10.5355 13.0371C11.4732 12.0994 12 10.8276 12 9.50156C12 8.17548 11.4732 6.90371 10.5355 5.96603C9.59785 5.02835 8.32608 4.50156 7 4.50156C5.67392 4.50156 4.40215 5.02835 3.46447 5.96603C2.52678 6.90371 2 8.17548 2 9.50156C2 10.8276 2.52678 12.0994 3.46447 13.0371C4.40215 13.9748 5.67392 14.5016 7 14.5016ZM7.75 6.75156V10.0016C7.75 10.4172 7.41563 10.7516 7 10.7516C6.58437 10.7516 6.25 10.4172 6.25 10.0016V6.75156C6.25 6.33594 6.58437 6.00156 7 6.00156C7.41563 6.00156 7.75 6.33594 7.75 6.75156Z"/></svg>