<svg viewBox="0 0 16 16" xmlns="http://www.w3.org/2000/svg"><path d="M4.54688 4.3125C4.67188 3.64063 5.10625 3.14375 5.85 2.83125C6.62187 2.50625 7.70625 2.40313 8.97188 2.59688C9.37187 2.65938 10.6094 2.89375 11 2.99688C11.4 3.1 11.8094 2.8625 11.9156 2.45938C12.0219 2.05625 11.7812 1.65 11.3781 1.54375C10.9187 1.425 9.625 1.17813 9.2 1.1125C7.75625 0.890628 6.375 0.984378 5.27187 1.44688C4.14375 1.91875 3.29375 2.79375 3.06875 4.06875C3.06562 4.08125 3.06562 4.09688 3.0625 4.10938C2.975 4.84063 3.07812 5.49063 3.36875 6.05313C3.65625 6.60938 4.09375 7.02813 4.58125 7.35C4.65625 7.4 4.7375 7.45 4.81563 7.49688H0.75C0.334375 7.49688 0 7.83125 0 8.24688C0 8.6625 0.334375 8.99688 0.75 8.99688H15.25C15.6656 8.99688 16 8.6625 16 8.24688C16 7.83125 15.6656 7.49688 15.25 7.49688H9.24375C8.93437 7.4 8.62813 7.30938 8.33125 7.22188L8.32187 7.21875C7.14375 6.87188 6.11875 6.57188 5.40625 6.1C5.06563 5.875 4.8375 5.63438 4.7 5.36563C4.56875 5.10938 4.49375 4.775 4.54688 4.30938V4.3125ZM11.375 10.5344C11.4906 10.8031 11.5469 11.1625 11.4563 11.6688C11.3375 12.35 10.9 12.8531 10.15 13.1688C9.37812 13.4938 8.29375 13.5969 7.03125 13.4031C6.40312 13.3031 5.33437 12.9469 4.49375 12.6656C4.30938 12.6031 4.1375 12.5469 3.98438 12.4969C3.59063 12.3688 3.16875 12.5844 3.0375 12.9781C2.90625 13.3719 3.125 13.7969 3.51875 13.925C3.64375 13.9656 3.79375 14.0156 3.95625 14.0719C4.7875 14.35 6.03125 14.7656 6.79688 14.8906H6.8C8.24375 15.1125 9.625 15.0188 10.7281 14.5563C11.8562 14.0844 12.7062 13.2094 12.9312 11.9344C13.0562 11.2188 13.0062 10.575 12.775 10.0063H10.9875C11.1656 10.1719 11.2906 10.35 11.3719 10.5406L11.375 10.5344Z"/></svg>