<svg viewBox="0 0 16 16" xmlns="http://www.w3.org/2000/svg"><path d="M0.75 2C0.334375 2 0 2.33437 0 2.75C0 3.16562 0.334375 3.5 0.75 3.5H1.6L4.6 8L1.6 12.5H0.75C0.334375 12.5 0 12.8344 0 13.25C0 13.6656 0.334375 14 0.75 14H2C2.25 14 2.48438 13.875 2.625 13.6656L5.5 9.35312L8.375 13.6656C8.51562 13.875 8.75 14 9 14H10.25C10.6656 14 11 13.6656 11 13.25C11 12.8344 10.6656 12.5 10.25 12.5H9.4L6.4 8L9.4 3.5H10.25C10.6656 3.5 11 3.16562 11 2.75C11 2.33437 10.6656 2 10.25 2H9C8.75 2 8.51562 2.125 8.375 2.33437L5.5 6.64687L2.625 2.33437C2.48438 2.125 2.25 2 2 2H0.75ZM14.75 9.75C14.75 9.5 14.6281 9.26875 14.4219 9.12813C14.2156 8.9875 13.9531 8.95938 13.7219 9.05313L12.4719 9.55313C12.0875 9.70625 11.9 10.1438 12.0531 10.5281C12.2063 10.9125 12.6438 11.1 13.0281 10.9469L13.25 10.8594V14.5H12.75C12.3344 14.5 12 14.8344 12 15.25C12 15.6656 12.3344 16 12.75 16H14H15.25C15.6656 16 16 15.6656 16 15.25C16 14.8344 15.6656 14.5 15.25 14.5H14.75V9.75Z"/></svg>