<svg viewBox="0 0 16 17" xmlns="http://www.w3.org/2000/svg"><path d="M14.75 1.75C14.75 1.5 14.6281 1.26875 14.4219 1.12813C14.2156 0.9875 13.9531 0.959375 13.7219 1.05313L12.4719 1.55313C12.0875 1.70625 11.9 2.14375 12.0531 2.52813C12.2063 2.9125 12.6438 3.1 13.0281 2.94688L13.25 2.85938V6.5H12.75C12.3344 6.5 12 6.83438 12 7.25C12 7.66563 12.3344 8 12.75 8H14H15.25C15.6656 8 16 7.66563 16 7.25C16 6.83438 15.6656 6.5 15.25 6.5H14.75V1.75ZM0.75 3C0.334375 3 0 3.33438 0 3.75C0 4.16563 0.334375 4.5 0.75 4.5H1.6L4.6 9L1.6 13.5H0.75C0.334375 13.5 0 13.8344 0 14.25C0 14.6656 0.334375 15 0.75 15H2C2.25 15 2.48438 14.875 2.625 14.6656L5.5 10.3531L8.375 14.6656C8.51562 14.875 8.75 15 9 15H10.25C10.6656 15 11 14.6656 11 14.25C11 13.8344 10.6656 13.5 10.25 13.5H9.4L6.4 9L9.4 4.5H10.25C10.6656 4.5 11 4.16563 11 3.75C11 3.33438 10.6656 3 10.25 3H9C8.75 3 8.51562 3.125 8.375 3.33438L5.5 7.64688L2.625 3.33438C2.48438 3.125 2.25 3 2 3H0.75Z"/></svg>