<svg viewBox="0 0 16 16" xmlns="http://www.w3.org/2000/svg"><path d="M0 2.28571C0 1.02321 0.895313 0 2 0H14C15.1031 0 16 1.02321 16 2.28571V13.7143C16 14.975 15.1031 16 14 16H2C0.895313 16 0 14.975 0 13.7143V2.28571ZM6 4.85714H14.5V2.28571C14.5 1.97 14.275 1.71429 14 1.71429H6V4.85714ZM4.5 1.71429H2C1.72375 1.71429 1.5 1.97 1.5 2.28571V4.85714H4.5V1.71429ZM1.5 6.57143V9.42857H4.5V6.57143H1.5ZM1.5 11.1429V13.7143C1.5 14.0286 1.72375 14.2857 2 14.2857H4.5V11.1429H1.5ZM6 14.2857H14C14.275 14.2857 14.5 14.0286 14.5 13.7143V11.1429H6V14.2857ZM14.5 9.42857V6.57143H6V9.42857H14.5Z"/></svg>