<svg viewBox="0 0 16 16" xmlns="http://www.w3.org/2000/svg"><path d="M8 0C3.58 0 0 3.58 0 8C0 12.42 3.58 16 8 16C12.42 16 16 12.42 16 8C16 3.58 12.42 0 8 0ZM11.43 7.88C11.15 9.61 10.85 11.51 10.85 11.51C10.85 11.51 10.8 12.04 10.41 12.13C10.02 12.22 9.37 11.81 9.25 11.71C9.16 11.64 7.52 10.6 6.91 10.09C6.75 9.97 6.57 9.69 6.94 9.36C7.77 8.6 8.76 7.65 9.36 7.05C9.64 6.77 9.91 6.13 8.76 6.91C7.12 8.05 5.5 9.11 5.5 9.11C5.5 9.11 5.13 9.34 4.44 9.13C3.75 8.92 2.94 8.64 2.94 8.64C2.94 8.64 2.38 8.3 3.33 7.93C3.33 7.93 7.33 6.29 8.72 5.71C9.25 5.48 11.06 4.74 11.06 4.74C11.06 4.74 11.89 4.42 11.82 5.2C11.8 5.52 11.61 6.66 11.43 7.88Z"/></svg>