<svg viewBox="0 0 16 16" xmlns="http://www.w3.org/2000/svg"><path d="M0.970018 1.7275C0.710018 1.5225 0.332518 1.57 0.127518 1.83C-0.0774815 2.09 -0.0299815 2.4675 0.230018 2.6725L15.03 14.2725C15.29 14.4775 15.6675 14.43 15.8725 14.17C16.0775 13.91 16.03 13.5325 15.77 13.3275L8.72252 7.8025L9.91002 3.6H13.0325L12.82 4.455C12.74 4.7775 12.935 5.1025 13.2575 5.1825C13.58 5.2625 13.905 5.0675 13.985 4.745L14.26 3.6425C14.415 3.0125 13.9375 2.4 13.2875 2.4H4.91252C4.45252 2.4 4.05252 2.7125 3.94252 3.1575L3.75502 3.91L0.970018 1.7275ZM4.78752 4.72L5.06752 3.6H8.66252L7.70252 7.005L4.78752 4.72ZM6.22252 12.2375L6.17752 12.4H4.80002C4.46752 12.4 4.20002 12.6675 4.20002 13C4.20002 13.3325 4.46752 13.6 4.80002 13.6H8.80002C9.13252 13.6 9.40002 13.3325 9.40002 13C9.40002 12.6675 9.13252 12.4 8.80002 12.4H7.42252L8.01252 10.3125L6.99252 9.51L6.22252 12.2375Z"/></svg>