<svg viewBox="0 0 16 16" xmlns="http://www.w3.org/2000/svg"><path d="M1.2 4.8V3.6H4.2V12.4H3C2.6675 12.4 2.4 12.6675 2.4 13C2.4 13.3325 2.6675 13.6 3 13.6H6.6C6.9325 13.6 7.2 13.3325 7.2 13C7.2 12.6675 6.9325 12.4 6.6 12.4H5.4V3.6H8.4V4.8C8.4 5.1325 8.6675 5.4 9 5.4C9.3325 5.4 9.6 5.1325 9.6 4.8V3.4C9.6 2.8475 9.1525 2.4 8.6 2.4H1C0.4475 2.4 0 2.8475 0 3.4V4.8C0 5.1325 0.2675 5.4 0.6 5.4C0.9325 5.4 1.2 5.1325 1.2 4.8ZM9 9V8.4H11.4V12.4H10.6C10.2675 12.4 10 12.6675 10 13C10 13.3325 10.2675 13.6 10.6 13.6H13.4C13.7325 13.6 14 13.3325 14 13C14 12.6675 13.7325 12.4 13.4 12.4H12.6V8.4H14.8V9C14.8 9.3325 15.0675 9.6 15.4 9.6C15.7325 9.6 16 9.3325 16 9V8.2C16 7.6475 15.5525 7.2 15 7.2H8.8C8.2475 7.2 7.8 7.6475 7.8 8.2V9C7.8 9.3325 8.0675 9.6 8.4 9.6C8.7325 9.6 9 9.3325 9 9Z"/></svg>