<svg viewBox="0 0 16 16" xmlns="http://www.w3.org/2000/svg"><path d="M4 9.09531V1.42585C4 0.820776 3.55219 0.360889 3 0.360889H1C0.447812 0.360889 0 0.851594 0 1.42585V9.06551C0 9.67059 0.447812 10.1305 1 10.1305H3C3.55313 10.1911 4 9.70141 4 9.09531ZM15.0469 7.07838C15.0854 6.90401 15.1055 6.72499 15.1055 6.54282C15.1055 5.7655 14.748 5.06591 14.1905 4.64985C14.2037 4.54661 14.2105 4.44179 14.2105 4.33749C14.2105 3.57318 13.8649 2.87872 13.3096 2.45993C13.2334 1.27135 12.3261 0.330002 11.222 0.330002H9.58049C8.45736 0.330002 7.34455 0.736469 6.44611 1.47407L5.3 2.41548C5.10359 2.57677 5.00012 2.82126 5.00012 3.07055C5.00012 3.5075 5.32169 3.89376 5.75106 3.89376C5.90772 3.89376 6.06575 3.84017 6.20044 3.72902L7.34606 2.78699C7.98606 2.2617 8.77981 1.97166 9.58044 1.97166H11.222C11.5486 1.97166 11.8148 2.26262 11.8148 2.62056C11.8148 2.74042 11.7801 2.78973 11.7801 2.94437C11.7801 3.86791 12.7104 3.55766 12.7104 4.33601C12.7104 4.6529 12.5107 4.71132 12.5107 5.09792C12.5107 5.5763 12.8497 5.84956 13.1226 5.90572C13.4023 5.96294 13.6054 6.23038 13.6054 6.54128C13.6054 6.98781 13.2494 6.99911 13.2494 7.53125C13.2494 7.96066 13.5526 8.32158 13.9482 8.35103C14.2563 8.34538 14.5 8.65699 14.5 8.96176C14.5 9.31891 14.2339 9.60998 13.9072 9.60998H9.60625C9.2175 9.60998 8.85625 9.9531 8.85625 10.401C8.85625 10.5393 8.88813 10.6776 8.95206 10.8023C9.5125 11.9615 9.75 13.0607 9.75 13.3141C9.75 13.5895 9.563 14.026 9.06063 14.026C8.66906 14.026 8.61469 13.995 8.28125 13.0648C7.50781 10.9105 6.35188 9.64388 5.75063 9.64388C5.31938 9.64388 5 10.0298 5 10.4654C5 10.7065 5.09634 10.9455 5.28175 11.1078C7.44063 12.999 6.60625 15.67 9.05937 15.67C10.4312 15.67 11.25 14.4715 11.25 13.3141C11.25 12.8792 11.0835 12.1084 10.7866 11.2824H13.9072C15.0344 11.2834 16 10.2562 16 8.96176C16 8.19813 15.6219 7.48588 15.0469 7.07838Z"/></svg>