<svg viewBox="0 0 16 16" xmlns="http://www.w3.org/2000/svg"><path d="M7.25041 11H3.00008C2.69224 11 2.40128 10.8594 2.21183 10.6156C2.02229 10.3719 1.95518 10.0563 2.02986 9.75625L2.22508 8.97812C2.54723 7.6875 3.33073 6.60937 4.373 5.90312L4.71178 1.5H3.75014C3.61138 1.5 3.48168 1.4625 3.37011 1.39688C3.14884 1.26656 3.00008 1.02562 3.00008 0.75C3.00008 0.335938 3.33604 0 3.75014 0H12.2508C12.6665 0 13.0009 0.335938 13.0009 0.75C13.0009 1.02562 12.8509 1.26656 12.6321 1.39688C12.5196 1.4625 12.3883 1.5 12.2508 1.5H11.2882L11.6289 5.90312C12.6696 6.60937 13.454 7.6875 13.7759 8.97812L13.9697 9.75625C14.0447 10.0563 13.9791 10.3719 13.7884 10.6156C13.6009 10.8594 13.3103 11 13.0009 11H8.75053V15.25C8.75053 15.6656 8.41613 16 7.97235 16C7.58482 16 7.22229 15.6656 7.22229 15.25L7.25041 11ZM5.8128 6.74062L5.21588 7.14687C4.46926 7.65 3.91046 8.41875 3.68045 9.34062L3.64044 9.5H7.25041V6.75C7.25041 6.33437 7.58482 6 8.00047 6C8.41613 6 8.75053 6.33437 8.75053 6.75V9.5H12.3602L12.3196 9.34062C12.0914 8.41875 11.5039 7.65 10.7851 7.14687L10.16 6.74062L9.78499 1.5H6.21596L5.8128 6.74062Z"/></svg>