<svg viewBox="0 0 16 16" xmlns="http://www.w3.org/2000/svg"><path d="M7.99942 1C8.4432 1 8.85261 1.23437 9.07762 1.61875L15.8281 13.1187C16.0562 13.5062 16.0562 13.9844 15.8344 14.3719C15.6125 14.7594 15.1968 15 14.7499 15H1.24894C0.802029 15 0.386374 14.7594 0.164483 14.3719C-0.0574075 13.9844 -0.0542823 13.5031 0.170734 13.1187L6.92122 1.61875C7.14623 1.23437 7.55564 1 7.99942 1ZM7.99942 5C7.58377 5 7.24937 5.33437 7.24937 5.75V9.25C7.24937 9.66562 7.58377 10 7.99942 10C8.41507 10 8.74947 9.66562 8.74947 9.25V5.75C8.74947 5.33437 8.41507 5 7.99942 5ZM8.99949 12C8.99949 11.7348 8.89413 11.4804 8.70658 11.2929C8.51903 11.1054 8.26466 11 7.99942 11C7.73418 11 7.47981 11.1054 7.29226 11.2929C7.10471 11.4804 6.99935 11.7348 6.99935 12C6.99935 12.2652 7.10471 12.5196 7.29226 12.7071C7.47981 12.8946 7.73418 13 7.99942 13C8.26466 13 8.51903 12.8946 8.70658 12.7071C8.89413 12.5196 8.99949 12.2652 8.99949 12Z"/></svg>