<svg viewBox="0 0 16 16" xmlns="http://www.w3.org/2000/svg"><path d="M6.4 12.375C6.4 13.8242 5.325 15 4 15C2.6525 15 1.6 13.8242 1.6 12.375C0.71625 12.375 0 11.5902 0 10.625V2.75C0 1.7834 0.71625 1 1.6 1H8.8C9.6825 1 10.4 1.7834 10.4 2.75V3.625H11.4675C11.84 3.625 12.195 3.78633 12.4575 4.07344L14.79 6.62461C15.0525 6.91172 15.2 7.3 15.2 7.70742V11.0625H15.4C15.7325 11.0625 16 11.3551 16 11.7188C16 12.0824 15.7325 12.375 15.4 12.375H14.4C14.4 13.8242 13.325 15 12 15C10.6525 15 9.6 13.8242 9.6 12.375H6.4ZM8.8 2.3125H1.6C1.379 2.3125 1.2 2.50828 1.2 2.75V10.625C1.2 10.8656 1.379 11.0625 1.6 11.0625H1.921C2.336 10.2777 3.1125 9.75 4 9.75C4.8875 9.75 5.665 10.2777 6.08 11.0625H8.8C9.02 11.0625 9.2 10.8656 9.2 10.625V2.75C9.2 2.50828 9.02 2.3125 8.8 2.3125ZM11.61 5.00039C11.5725 4.95938 11.5225 4.9375 11.4675 4.9375H10.4V7.5625H13.95C13.9475 7.55977 13.945 7.5543 13.9425 7.55156L11.61 5.00039ZM4 11.0625C3.3375 11.0625 2.8 11.6504 2.8 12.375C2.8 13.0996 3.3375 13.6875 4 13.6875C4.6625 13.6875 5.2 13.0996 5.2 12.375C5.2 11.6504 4.6625 11.0625 4 11.0625ZM12 13.6875C12.6625 13.6875 13.2 13.0996 13.2 12.375C13.2 11.6504 12.6625 11.0625 12 11.0625C11.3375 11.0625 10.8 11.6504 10.8 12.375C10.8 13.0996 11.3375 13.6875 12 13.6875Z"/></svg>