<svg viewBox="0 0 16 16" xmlns="http://www.w3.org/2000/svg"><path d="M5.41071 6H13.1786C14.3211 6 15.25 6.89688 15.25 8V14C15.25 15.1031 14.3211 16 13.1786 16H2.82143C1.67729 16 0.75 15.1031 0.75 14V8C0.75 6.89688 1.67729 6 2.82143 6H3.85714V4C3.85714 1.79094 5.71172 0 8 0C9.81574 0 11.4049 1.16313 11.9422 2.76938C12.0749 3.1625 11.8224 3.5875 11.4437 3.7125C11.0327 3.84063 10.5958 3.59688 10.4631 3.23125C10.1297 2.22563 9.15223 1.5 7.97087 1.5C6.56942 1.5 5.38158 2.61937 5.38158 4L5.41071 6ZM2.30357 14C2.30357 14.275 2.53531 14.5 2.82143 14.5H13.1786C13.4634 14.5 13.6964 14.275 13.6964 14V8C13.6964 7.725 13.4634 7.5 13.1786 7.5H2.82143C2.53531 7.5 2.30357 7.725 2.30357 8V14Z"/></svg>