<svg viewBox="0 0 16 16" xmlns="http://www.w3.org/2000/svg"><path d="M14 9.50003H10V11H14C14.2757 11 14.5 11.2243 14.5 11.5V14C14.5 14.2757 14.2757 14.5 14 14.5H2C1.72431 14.5 1.5 14.2757 1.5 14V11.5C1.5 11.225 1.72438 11 2 11H6V9.50003H2C0.895313 9.50003 0 10.3953 0 11.5V14C0 15.1047 0.895313 16 2 16H14C15.1047 16 16 15.1047 16 14V11.5C16 10.3969 15.1031 9.50003 14 9.50003ZM4.25313 5.50317L7.25 2.56068V11C7.25 11.4141 7.58594 11.75 8 11.75C8.41406 11.75 8.75 11.4141 8.75 11V2.56068L11.7197 5.53036C11.8656 5.67817 12.0563 5.75004 12.25 5.75004C12.4437 5.75004 12.6338 5.67679 12.7803 5.53033C13.0733 5.23736 13.0733 4.76283 12.7803 4.46971L8.53031 0.219726C8.23734 -0.0732419 7.76281 -0.0732419 7.46969 0.219726L3.21969 4.46971C2.92672 4.76267 2.92672 5.2372 3.21969 5.53033C3.51266 5.82345 3.9875 5.82192 4.25313 5.50317ZM13.5 12.75C13.5 12.3356 13.1641 12 12.75 12C12.3359 12 12 12.3344 12 12.75C12 13.1641 12.3359 13.5 12.75 13.5C13.1641 13.5 13.5 13.1656 13.5 12.75Z"/></svg>