<svg viewBox="0 0 16 16" xmlns="http://www.w3.org/2000/svg"><path d="M2.4 5.05311C2.4 4.20442 2.73714 3.39049 3.33726 2.79037C3.93737 2.19025 4.75131 1.85311 5.6 1.85311C6.44869 1.85311 7.26263 2.19025 7.86274 2.79037C8.46286 3.39049 8.8 4.20442 8.8 5.05311C8.8 5.90181 8.46286 6.71574 7.86274 7.31585C7.26263 7.91597 6.44869 8.25311 5.6 8.25311C4.75131 8.25311 3.93737 7.91597 3.33726 7.31585C2.73714 6.71574 2.4 5.90181 2.4 5.05311ZM0 13.9106C0 11.4481 1.995 9.45311 4.4575 9.45311H6.7425C9.205 9.45311 11.2 11.4481 11.2 13.9106C11.2 14.3206 10.8675 14.6531 10.4575 14.6531H0.7425C0.3325 14.6531 0 14.3206 0 13.9106ZM15.2325 14.6531H11.785C11.92 14.4181 12 14.1456 12 13.8531V13.6531C12 12.1356 11.3225 10.7731 10.255 9.85811C10.315 9.85561 10.3725 9.85311 10.4325 9.85311H11.9675C14.195 9.85311 16 11.6581 16 13.8856C16 14.3106 15.655 14.6531 15.2325 14.6531ZM10.8 8.25311C10.025 8.25311 9.325 7.93811 8.8175 7.43061C9.31 6.76561 9.6 5.94311 9.6 5.05311C9.6 4.38311 9.435 3.75061 9.1425 3.19561C9.6075 2.85561 10.18 2.65311 10.8 2.65311C12.3475 2.65311 13.6 3.90561 13.6 5.45311C13.6 7.00061 12.3475 8.25311 10.8 8.25311Z"/></svg>