<svg viewBox="0 0 16 16" xmlns="http://www.w3.org/2000/svg"><path d="M5.69937 2.8C6.2298 2.8 6.73851 3.01071 7.11358 3.38578C7.48865 3.76086 7.69937 4.26957 7.69937 4.8C7.69937 5.33043 7.48865 5.83914 7.11358 6.21421C6.73851 6.58928 6.2298 6.8 5.69937 6.8C5.16893 6.8 4.66022 6.58928 4.28515 6.21421C3.91008 5.83914 3.69937 5.33043 3.69937 4.8C3.69937 4.26957 3.91008 3.76086 4.28515 3.38578C4.66022 3.01071 5.16893 2.8 5.69937 2.8ZM5.69937 8C6.54806 8 7.36199 7.66286 7.96211 7.06274C8.56222 6.46262 8.89937 5.64869 8.89937 4.8C8.89937 3.95131 8.56222 3.13737 7.96211 2.53726C7.36199 1.93714 6.54806 1.6 5.69937 1.6C4.85067 1.6 4.03674 1.93714 3.43662 2.53726C2.83651 3.13737 2.49937 3.95131 2.49937 4.8C2.49937 5.64869 2.83651 6.46262 3.43662 7.06274C4.03674 7.66286 4.85067 8 5.69937 8ZM4.55687 10.4H6.84187C8.48437 10.4 9.84437 11.6175 10.0669 13.2H1.33187C1.55437 11.6175 2.91437 10.4 4.55687 10.4ZM4.55687 9.2C2.09437 9.2 0.0993652 11.195 0.0993652 13.6575C0.0993652 14.0675 0.431865 14.4 0.841865 14.4H10.5569C10.9669 14.4 11.2994 14.0675 11.2994 13.6575C11.2994 11.195 9.30437 9.2 6.84187 9.2H4.55687ZM15.7244 6.025C15.9594 5.79 15.9594 5.41 15.7244 5.1775C15.4894 4.945 15.1094 4.9425 14.8769 5.1775L12.1019 7.9525L10.9269 6.7775C10.6919 6.5425 10.3119 6.5425 10.0794 6.7775C9.84687 7.0125 9.84437 7.3925 10.0794 7.625L11.6794 9.225C11.9144 9.46 12.2944 9.46 12.5269 9.225L15.7244 6.025Z"/></svg>