<svg viewBox="0 0 16 16" xmlns="http://www.w3.org/2000/svg"><path d="M5.8019 2.8C6.33234 2.8 6.84105 3.01071 7.21612 3.38578C7.59119 3.76086 7.8019 4.26957 7.8019 4.8C7.8019 5.33043 7.59119 5.83914 7.21612 6.21421C6.84105 6.58928 6.33234 6.8 5.8019 6.8C5.27147 6.8 4.76276 6.58928 4.38769 6.21421C4.01262 5.83914 3.8019 5.33043 3.8019 4.8C3.8019 4.26957 4.01262 3.76086 4.38769 3.38578C4.76276 3.01071 5.27147 2.8 5.8019 2.8ZM5.8019 8C6.6506 8 7.46453 7.66286 8.06465 7.06274C8.66476 6.46262 9.0019 5.64869 9.0019 4.8C9.0019 3.95131 8.66476 3.13737 8.06465 2.53726C7.46453 1.93714 6.6506 1.6 5.8019 1.6C4.95321 1.6 4.13928 1.93714 3.53916 2.53726C2.93905 3.13737 2.6019 3.95131 2.6019 4.8C2.6019 5.64869 2.93905 6.46262 3.53916 7.06274C4.13928 7.66286 4.95321 8 5.8019 8ZM4.6594 10.4H6.9444C8.5869 10.4 9.94691 11.6175 10.1694 13.2H1.4344C1.6569 11.6175 3.0169 10.4 4.6594 10.4ZM4.6594 9.2C2.1969 9.2 0.201904 11.195 0.201904 13.6575C0.201904 14.0675 0.534404 14.4 0.944404 14.4H10.6594C11.0694 14.4 11.4019 14.0675 11.4019 13.6575C11.4019 11.195 9.40691 9.2 6.9444 9.2H4.6594ZM11.5769 5.175C11.3419 5.41 11.3419 5.79 11.5769 6.0225L12.7519 7.1975L11.5769 8.3725C11.3419 8.6075 11.3419 8.9875 11.5769 9.22C11.8119 9.4525 12.1919 9.455 12.4244 9.22L13.5994 8.045L14.7744 9.22C15.0094 9.455 15.3894 9.455 15.6219 9.22C15.8544 8.985 15.8569 8.605 15.6219 8.3725L14.4469 7.1975L15.6219 6.0225C15.8569 5.7875 15.8569 5.4075 15.6219 5.175C15.3869 4.9425 15.0069 4.94 14.7744 5.175L13.5994 6.35L12.4244 5.175C12.1894 4.94 11.8094 4.94 11.5769 5.175Z"/></svg>