<svg viewBox="0 0 16 16" xmlns="http://www.w3.org/2000/svg"><path d="M5.6 8C7.3675 8 8.8 6.4889 8.8 4.625C8.8 2.7611 7.3675 1.25 5.6 1.25C3.8325 1.25 2.4 2.7611 2.4 4.625C2.4 6.4889 3.8325 8 5.6 8ZM5.6 2.51562C6.70275 2.51562 7.6 3.46194 7.6 4.625C7.6 5.78806 6.70275 6.73438 5.6 6.73438C4.4975 6.73438 3.6 5.78779 3.6 4.625C3.6 3.46194 4.4975 2.51562 5.6 2.51562ZM6.8675 9.26562H4.3325C1.94025 9.26562 0 11.3117 0 13.8351C0 14.3413 0.388 14.75 0.8665 14.75H10.334C10.8125 14.75 11.2 14.3413 11.2 13.8351C11.2 11.3117 9.26 9.26562 6.8675 9.26562ZM1.21775 13.4844C1.3845 11.8259 2.7175 10.5312 4.3325 10.5312H6.8675C8.48275 10.5312 9.795 11.8267 9.9825 13.4844H1.21775ZM15.4 6.52344H14.2V5.25781C14.2 4.90977 13.9325 4.625 13.6 4.625C13.2675 4.625 13 4.90845 13 5.25781V6.52344H11.8C11.47 6.52344 11.2 6.8082 11.2 7.15625C11.2 7.5043 11.4688 7.78906 11.8 7.78906H13V9.05469C13 9.40537 13.27 9.6875 13.6 9.6875C13.93 9.6875 14.2 9.40405 14.2 9.05469V7.78906H15.4C15.7325 7.78906 16 7.50693 16 7.15625C16 6.80557 15.7325 6.52344 15.4 6.52344Z"/></svg>