<svg viewBox="0 0 16 16" xmlns="http://www.w3.org/2000/svg"><path d="M8.85882 1.45902C8.73526 1.40295 8.60209 1.375 8.47176 1.375C8.24538 1.375 8.02206 1.45734 7.84618 1.61456L3.87647 5.16074H1.41176C0.632059 5.16074 0 5.79632 0 6.55376V9.36642C0 10.1505 0.632059 10.7594 1.41176 10.7594H3.87765L7.84529 14.3056C8.02059 14.5422 8.24412 14.625 8.47059 14.625C8.60112 14.625 8.73409 14.5975 8.85765 14.5411C9.19706 14.3884 9.41176 14.0512 9.41176 13.6786V2.32146C9.41176 1.9491 9.19706 1.58502 8.85882 1.45902ZM8 12.6257L4.41471 9.41965H1.41176V6.60699H4.41471L8 3.37554V12.6257ZM12.1353 5.80845C12.0038 5.70111 11.8454 5.64871 11.6882 5.64871C11.4839 5.64871 11.2815 5.73726 11.1426 5.90918C10.8954 6.21233 10.9395 6.65952 11.2419 6.90825C11.5735 7.18372 11.7647 7.58004 11.7647 8.00001C11.7647 8.41999 11.5735 8.8169 11.2409 9.09047C10.9385 9.33909 10.8944 9.78639 11.1416 10.0895C11.2804 10.2614 11.4834 10.3502 11.6875 10.3502C11.8447 10.3502 12.0037 10.2975 12.1343 10.1903C12.7971 9.64443 13.1765 8.84884 13.1765 8.00001C13.1765 7.15119 12.7971 6.3556 12.1353 5.80845ZM13.9147 3.62279C13.7837 3.51523 13.6252 3.46258 13.4676 3.46258C13.2637 3.46258 13.0612 3.55069 12.9212 3.72169C12.6739 4.02485 12.7181 4.47203 13.0195 4.72076C14.0176 5.54226 14.5882 6.73713 14.5882 8.00001C14.5882 9.26261 14.0165 10.4575 13.0203 11.28C12.7188 11.5286 12.6747 11.9759 12.9219 12.279C13.0616 12.45 13.2637 12.5387 13.4678 12.5387C13.6259 12.5387 13.784 12.4861 13.9155 12.3779C15.2412 11.2859 16 9.68879 16 8.00001C16 6.31124 15.2412 4.71414 13.9147 3.62279Z"/></svg>