<svg viewBox="0 0 16 16" xmlns="http://www.w3.org/2000/svg"><path d="M4.44167 6.49722L7.55556 3.73056V12.2694L4.44167 9.50278C4.31944 9.39445 4.16111 9.33333 4 9.33333H1.55556C1.43333 9.33333 1.33333 9.23333 1.33333 9.11111V6.88889C1.33333 6.76667 1.43333 6.66667 1.55556 6.66667H4C4.16389 6.66667 4.32222 6.60556 4.44167 6.49722ZM8.06111 1.77778C7.85833 1.77778 7.66389 1.85278 7.51111 1.98611L3.74722 5.33333H1.55556C0.697222 5.33333 0 6.03056 0 6.88889V9.11111C0 9.96945 0.697222 10.6667 1.55556 10.6667H3.74722L7.51111 14.0139C7.66389 14.1472 7.85833 14.2222 8.06111 14.2222C8.51944 14.2222 8.88889 13.8528 8.88889 13.3944V2.60556C8.88889 2.14722 8.51944 1.77778 8.06111 1.77778ZM11.8056 5.52778C11.5444 5.26667 11.1222 5.26667 10.8639 5.52778C10.6056 5.78889 10.6028 6.21111 10.8639 6.46945L12.3917 7.99722L10.8639 9.525C10.6028 9.78611 10.6028 10.2083 10.8639 10.4667C11.125 10.725 11.5472 10.7278 11.8056 10.4667L13.3333 8.93889L14.8611 10.4667C15.1222 10.7278 15.5444 10.7278 15.8028 10.4667C16.0611 10.2056 16.0639 9.78333 15.8028 9.525L14.275 7.99722L15.8028 6.46945C16.0639 6.20833 16.0639 5.78611 15.8028 5.52778C15.5417 5.26945 15.1194 5.26667 14.8611 5.52778L13.3333 7.05556L11.8056 5.52778Z"/></svg>