<svg viewBox="0 0 16 16" xmlns="http://www.w3.org/2000/svg"><path d="M6.51944 2.32811L5.47222 2.71978C5.38889 2.75034 5.33333 2.83089 5.33333 2.91978C5.33333 3.00867 5.38889 3.08922 5.47222 3.11978L6.51944 3.51145L6.91111 4.55867C6.94167 4.642 7.02222 4.69756 7.11111 4.69756C7.2 4.69756 7.28056 4.642 7.31111 4.55867L7.70278 3.51145L8.75 3.11978C8.83333 3.08922 8.88889 3.00867 8.88889 2.91978C8.88889 2.83089 8.83333 2.75034 8.75 2.71978L7.70278 2.32811L7.31111 1.28089C7.28056 1.19756 7.2 1.142 7.11111 1.142C7.02222 1.142 6.94167 1.19756 6.91111 1.28089L6.51944 2.32811ZM12.8167 2.47534L13.7778 3.43645L10.7278 6.48367L9.76667 5.52256L12.8167 2.47534ZM2.22222 13.0698L8.825 6.467L9.78611 7.42811L3.18333 14.0309L2.22222 13.0698ZM11.8722 1.53367L1.28056 12.1253C0.761111 12.6448 0.761111 13.4892 1.28056 14.0114L2.24167 14.9726C2.76111 15.492 3.60556 15.492 4.12778 14.9726L14.7194 4.37811C15.2389 3.85867 15.2389 3.01422 14.7194 2.492L13.7583 1.53367C13.2389 1.01422 12.3944 1.01422 11.8722 1.53367ZM0.208333 4.39756C0.0833333 4.44478 0 4.56422 0 4.69756C0 4.83089 0.0833333 4.95034 0.208333 4.99756L1.77778 5.58645L2.36667 7.15589C2.41389 7.28089 2.53333 7.36422 2.66667 7.36422C2.8 7.36422 2.91944 7.28089 2.96667 7.15589L3.55556 5.58645L5.125 4.99756C5.25 4.95034 5.33333 4.83089 5.33333 4.69756C5.33333 4.56422 5.25 4.44478 5.125 4.39756L3.55556 3.80867L2.96667 2.23922C2.91944 2.11422 2.8 2.03089 2.66667 2.03089C2.53333 2.03089 2.41389 2.11422 2.36667 2.23922L1.77778 3.80867L0.208333 4.39756ZM9.98611 11.5087C9.86111 11.5559 9.77778 11.6753 9.77778 11.8087C9.77778 11.942 9.86111 12.0614 9.98611 12.1087L11.5556 12.6976L12.1444 14.267C12.1917 14.392 12.3111 14.4753 12.4444 14.4753C12.5778 14.4753 12.6972 14.392 12.7444 14.267L13.3333 12.6976L14.9028 12.1087C15.0278 12.0614 15.1111 11.942 15.1111 11.8087C15.1111 11.6753 15.0278 11.5559 14.9028 11.5087L13.3333 10.9198L12.7444 9.35033C12.6972 9.22533 12.5778 9.142 12.4444 9.142C12.3111 9.142 12.1917 9.22533 12.1444 9.35033L11.5556 10.9198L9.98611 11.5087Z"/></svg>