<svg viewBox="0 0 16 16" xmlns="http://www.w3.org/2000/svg"><path d="M0.996518 6.2425C2.86402 4.5975 5.31402 3.6 7.99902 3.6C10.684 3.6 13.134 4.5975 15.0015 6.2425C15.249 6.4625 15.629 6.4375 15.849 6.1875C16.069 5.9375 16.044 5.56 15.794 5.34C13.7165 3.51 10.9865 2.4 7.99902 2.4C5.01152 2.4 2.28152 3.51 0.204018 5.34C-0.0434818 5.56 -0.0684818 5.9375 0.149018 6.1875C0.366518 6.4375 0.746518 6.46 0.996518 6.2425ZM7.99902 8C9.61402 8 11.0865 8.6175 12.189 9.63C12.434 9.855 12.8115 9.8375 13.0365 9.5925C13.2615 9.3475 13.244 8.97 12.999 8.745C11.684 7.5375 9.92652 6.8 7.99902 6.8C6.07152 6.8 4.31402 7.5375 2.99652 8.7475C2.75152 8.9725 2.73652 9.35 2.95902 9.595C3.18152 9.84 3.56152 9.855 3.80652 9.6325C4.91152 8.6175 6.38402 8 7.99902 8ZM9.39902 12.2C9.39902 12.0162 9.36281 11.8341 9.29245 11.6642C9.22209 11.4944 9.11897 11.3401 8.98897 11.2101C8.85897 11.08 8.70463 10.9769 8.53477 10.9066C8.36492 10.8362 8.18287 10.8 7.99902 10.8C7.81517 10.8 7.63312 10.8362 7.46326 10.9066C7.29341 10.9769 7.13907 11.08 7.00907 11.2101C6.87907 11.3401 6.77594 11.4944 6.70559 11.6642C6.63523 11.8341 6.59902 12.0162 6.59902 12.2C6.59902 12.3839 6.63523 12.5659 6.70559 12.7358C6.77594 12.9056 6.87907 13.0599 7.00907 13.19C7.13907 13.32 7.29341 13.4231 7.46326 13.4934C7.63312 13.5638 7.81517 13.6 7.99902 13.6C8.18287 13.6 8.36492 13.5638 8.53477 13.4934C8.70463 13.4231 8.85897 13.32 8.98897 13.19C9.11897 13.0599 9.22209 12.9056 9.29245 12.7358C9.36281 12.5659 9.39902 12.3839 9.39902 12.2Z"/></svg>