<svg viewBox="0 0 16 16" xmlns="http://www.w3.org/2000/svg"><path d="M1.73226 5.20645L5.00645 14.1742C2.71613 13.0645 1.13871 10.7161 1.13871 8C1.13871 7.00323 1.35161 6.06129 1.73226 5.20645V5.20645ZM12.6323 7.65484C12.6323 6.80645 12.329 6.21935 12.0677 5.76129C11.7194 5.19677 11.3935 4.71613 11.3935 4.15161C11.3935 3.51935 11.871 2.93226 12.5452 2.93226C12.5742 2.93226 12.6032 2.93548 12.6355 2.93871C11.4129 1.81935 9.7871 1.13548 8 1.13548C5.60323 1.13548 3.49355 2.36452 2.26452 4.22903C2.42581 4.23548 2.57742 4.23871 2.70645 4.23871C3.42258 4.23871 4.53548 4.15161 4.53548 4.15161C4.90645 4.12903 4.94839 4.67419 4.58065 4.71613C4.58065 4.71613 4.20968 4.75806 3.79677 4.78064L6.29677 12.2129L7.8 7.70968L6.73226 4.78064C6.36129 4.75806 6.0129 4.71613 6.0129 4.71613C5.64194 4.69355 5.6871 4.12903 6.05484 4.15161C6.05484 4.15161 7.1871 4.23871 7.86129 4.23871C8.57742 4.23871 9.69032 4.15161 9.69032 4.15161C10.0613 4.12903 10.1032 4.67419 9.73548 4.71613C9.73548 4.71613 9.36452 4.75806 8.95161 4.78064L11.4323 12.1581L12.1161 9.87097C12.4065 8.92258 12.6323 8.24194 12.6323 7.65484ZM8.11935 8.6L6.06129 14.5839C6.67742 14.7645 7.32581 14.8645 8 14.8645C8.8 14.8645 9.56452 14.7258 10.2774 14.4742C10.2581 14.4452 10.2419 14.4129 10.229 14.3806L8.11935 8.6ZM14.0226 4.70645C14.0516 4.92581 14.0677 5.15806 14.0677 5.4129C14.0677 6.10968 13.9387 6.89032 13.5452 7.87097L11.4484 13.9323C13.4903 12.7419 14.8613 10.5323 14.8613 8C14.8613 6.80645 14.5581 5.68387 14.0226 4.70645V4.70645ZM16 8C16 12.4129 12.4097 16 8 16C3.5871 16 0 12.4097 0 8C0 3.5871 3.5871 0 8 0C12.4097 0 16 3.5871 16 8ZM15.6323 8C15.6323 3.79032 12.2065 0.367742 8 0.367742C3.79032 0.367742 0.367742 3.79032 0.367742 8C0.367742 12.2097 3.79355 15.6323 8 15.6323C12.2097 15.6323 15.6323 12.2097 15.6323 8Z"/></svg>