<svg viewBox="0 0 16 16" xmlns="http://www.w3.org/2000/svg"><path d="M12.7494 11.7231C13.0419 12.0151 13.0419 12.4889 12.7494 12.781C12.4569 13.073 11.9823 13.073 11.6897 12.781L8.00051 9.07065L4.2851 12.7797C3.99258 13.0717 3.51797 13.0717 3.22542 12.7797C2.93287 12.4877 2.93291 12.0139 3.22542 11.7219L6.94209 8.01403L3.22439 4.27689C2.93188 3.98487 2.93188 3.51108 3.22439 3.21903C3.51691 2.92698 3.99152 2.92701 4.28407 3.21903L8.00051 6.95741L11.7159 3.24833C12.0084 2.95631 12.4831 2.95631 12.7756 3.24833C13.0682 3.54035 13.0681 4.01414 12.7756 4.30619L9.05894 8.01403L12.7494 11.7231Z"/></svg>