<svg viewBox="0 0 16 16" xmlns="http://www.w3.org/2000/svg"><path fill-rule="evenodd" clip-rule="evenodd" d="M0 0H16V16H0V0ZM3.62222 8.93333C3.63334 9.26111 3.9 9.51667 4.22778 9.51111C4.6 9.51111 4.82778 9.32778 4.82778 8.99444C4.82778 8.73783 4.45864 8.57235 4.0258 8.37833L4.0256 8.37824C3.98061 8.35807 3.93492 8.33759 3.88889 8.31667C3.72778 8.47778 3.62778 8.7 3.62222 8.92778V8.93333ZM4.78889 6.95C4.78889 6.67222 4.58889 6.48889 4.26111 6.48889C3.94445 6.48889 3.80556 6.66111 3.80556 6.87778C3.80556 7.21111 4.17222 7.37778 4.61111 7.56667C4.72222 7.37778 4.78333 7.16667 4.78889 6.95ZM5.98333 6.85556C5.98333 7.39444 5.54445 7.93889 5.49445 8C5.83333 8.23333 6.08333 8.55556 6.07778 9.06111C6.07778 9.82222 5.46111 10.5889 4.22222 10.5889C3.00556 10.5889 2.36667 9.83333 2.36667 9.03333C2.36667 8.38889 2.90556 7.92778 3.06111 7.81111C2.79445 7.57778 2.60556 7.27778 2.60556 6.85C2.60556 6.12222 3.11667 5.40556 4.28889 5.40556C5.21667 5.40556 5.98333 5.92222 5.98333 6.85556ZM8.38906 7.31107H9.60573L8.66684 8.7833L9.61684 10.2555H8.4224L8.09462 9.63885C8.06129 9.5833 8.01684 9.47218 8.01684 9.47218H8.00573C8.00573 9.47218 7.96129 9.5833 7.92795 9.63885L7.60573 10.2555H6.41129L7.36129 8.7833L6.40573 7.31107H7.6224L7.90018 7.84441C7.94462 7.92774 8.00018 8.02218 8.00018 8.02218H8.01129C8.05018 7.96663 8.08351 7.90552 8.11129 7.84441L8.38906 7.31107ZM11.7724 9.51111C11.4446 9.51667 11.178 9.26111 11.1724 8.93333V8.92778C11.178 8.7 11.2724 8.47778 11.4391 8.31667C11.4852 8.33762 11.5309 8.35813 11.576 8.37833C12.0088 8.57235 12.378 8.73783 12.378 8.99444C12.3724 9.32778 12.1446 9.51111 11.7724 9.51111ZM11.8057 6.48889C12.1335 6.48889 12.3335 6.67222 12.3335 6.95C12.328 7.16667 12.2668 7.37778 12.1557 7.56667C11.7168 7.37778 11.3502 7.21111 11.3502 6.87778C11.3502 6.66111 11.4946 6.48889 11.8057 6.48889ZM13.0391 8C13.0891 7.93889 13.528 7.39444 13.528 6.85556C13.528 5.92222 12.7613 5.40556 11.828 5.40556C10.6557 5.40556 10.1446 6.12222 10.1446 6.85C10.1446 7.27778 10.3335 7.57778 10.6002 7.81111C10.4446 7.92778 9.90573 8.38889 9.90573 9.03333C9.90573 9.83333 10.5446 10.5889 11.7613 10.5889C13.0002 10.5889 13.6168 9.82222 13.6168 9.06111C13.628 8.55556 13.378 8.23333 13.0391 8Z"/></svg>