<svg viewBox="0 0 16 16" xmlns="http://www.w3.org/2000/svg"><path d="M14.5 1H1.5C0.671562 1 0 1.67156 0 2.5V4.5C0 5.05 0.45 5.5 0.971875 5.5L1 13C1 14.1047 1.89531 15 3 15H13C14.1047 15 15 14.1047 15 13V5.5C15.55 5.5 16 5.05 16 4.52812V2.5C16 1.67156 15.3281 1 14.5 1ZM13 13.5H3C2.72384 13.5 2.5 13.2762 2.5 13V5.5H13.5V13C13.5 13.275 13.275 13.5 13 13.5ZM14.5 4H1.5V2.5H14.5V4ZM5.72188 8.5H10.2219C10.6656 8.5 11 8.16563 11 7.75C11 7.33437 10.6656 7 10.25 7H5.72188C5.33438 7 5 7.33438 5 7.72188C5 8.16563 5.33438 8.5 5.72188 8.5Z"/></svg>