<svg viewBox="0 0 16 16" xmlns="http://www.w3.org/2000/svg"><path d="M9.07186 1V1.55875C11.4994 1.91844 13.3578 3.88125 13.3578 6.25V7.29375C13.3578 8.7125 13.8768 10.0906 14.8244 11.2L15.3233 11.7812C15.5175 12.0062 15.5543 12.3156 15.4204 12.575C15.2865 12.8344 15.0052 13 14.6971 13H1.30362C0.994562 13 0.713131 12.8344 0.579329 12.575C0.445495 12.3156 0.48313 12.0062 0.676131 11.7812L1.17537 11.2C2.12531 10.0906 2.64297 8.7125 2.64297 7.29375V6.25C2.64297 3.88125 4.50132 1.91844 6.9289 1.55875V1C6.9289 0.447812 7.40771 0 8.00038 0C8.59304 0 9.07186 0.447812 9.07186 1ZM7.73251 3C5.81054 3 4.25019 4.45625 4.25019 6.25V7.29375C4.25019 8.79062 3.78544 10.25 2.92122 11.5H13.0799C12.216 10.25 11.7506 8.79062 11.7506 7.29375V6.25C11.7506 4.45625 10.1902 3 8.26825 3H7.73251ZM10.1433 14C10.1433 14.5031 9.919 15.0406 9.51719 15.4156C9.11539 15.7906 8.53947 16 8.00038 16C7.43115 16 6.88537 15.7906 6.48356 15.4156C6.08176 15.0406 5.85741 14.5031 5.85741 14H10.1433Z"/></svg>