<svg viewBox="0 0 16 16" xmlns="http://www.w3.org/2000/svg"><path d="M11 3.31387V3.41822C11 3.87958 10.6031 4.25183 10.1125 4.25183H5.8875C5.39687 4.25183 5 3.87958 5 3.41822V3.31387C5 1.75979 6.31562 0.5 8 0.5C9.65625 0.5 11 1.75979 11 3.31387ZM1.21969 3.51905C1.5125 3.24529 1.9875 3.24529 2.28031 3.51905L4.54375 5.64411C5.04062 5.35686 5.59688 5.18979 6.25 5.18979H9.75C10.375 5.18979 10.9594 5.35686 11.4563 5.64411L13.7188 3.51905C14.0125 3.24529 14.4875 3.24529 14.7531 3.51905C15.0719 3.79458 15.0719 4.24011 14.7531 4.48925L12.5156 6.63776C12.8219 7.10381 13 7.62555 13 8.23815H15.25C15.6656 8.23815 16 8.55178 16 8.94162C16 9.33146 15.6656 9.64509 15.25 9.64509H13V9.87958C13 10.6768 12.7875 11.4272 12.4125 12.0867L14.7531 14.3056C15.0719 14.5811 15.0719 15.0266 14.7531 15.2758C14.4875 15.5747 14.0125 15.5747 13.7188 15.2758L11.5063 13.224C10.6031 14.0564 9.36563 14.5694 8 14.5694C6.63437 14.5694 5.39688 14.0564 4.49375 13.224L2.28031 15.2758C1.9875 15.5747 1.5125 15.5747 1.21969 15.2758C0.926875 15.0266 0.926875 14.5811 1.21969 14.3056L3.5875 12.0867C3.2125 11.4272 3 10.6768 3 9.87958V9.64509H0.75C0.335938 9.64509 0 9.33146 0 8.94162C0 8.55178 0.335938 8.23815 0.75 8.23815H3C3 7.62555 3.17812 7.10381 3.48438 6.63776L1.21969 4.48925C0.926875 4.24011 0.926875 3.79458 1.21969 3.51905ZM4.5 9.87958C4.5 11.4507 5.67813 12.7638 7.25 13.0862V8.70713C7.25 8.31729 7.58437 8.00366 8 8.00366C8.41563 8.00366 8.75 8.31729 8.75 8.70713V13.0862C10.3219 12.7638 11.5 11.4507 11.5 9.87958V8.23815C11.5 7.33244 10.7156 6.59673 9.75 6.59673H6.25C5.28438 6.59673 4.5 7.33244 4.5 8.23815V9.87958Z"/></svg>