<svg viewBox="0 0 17 17" xmlns="http://www.w3.org/2000/svg"><path d="M4.30062 8.75015L8.18011 4.52103L12.0594 8.75015C12.1683 8.86902 12.305 8.92713 12.444 8.92713C12.5903 8.92713 12.7365 8.86191 12.8459 8.7315C13.0581 8.47807 13.0501 8.07692 12.8285 7.83496L8.56456 3.18584C8.34877 2.9514 8.01118 2.9514 7.79543 3.18584L3.53149 7.83496C3.30995 8.07655 3.30184 8.47807 3.51411 8.73166C3.72638 8.98524 4.05753 8.99317 4.30062 8.75015ZM8.56479 8.25882C8.349 8.02438 8.01141 8.02438 7.79566 8.25882L3.53173 12.9079C3.31014 13.1498 3.30217 13.5509 3.51435 13.8045C3.72652 14.0581 4.07862 14.0653 4.30086 13.8243L8.18011 9.5928L12.0594 13.8219C12.1683 13.9408 12.305 13.9989 12.444 13.9989C12.5903 13.9989 12.7365 13.9337 12.8459 13.8033C13.0581 13.5498 13.0501 13.1487 12.8285 12.9067L8.56479 8.25882Z"/></svg>