<svg viewBox="0 0 16 16" xmlns="http://www.w3.org/2000/svg"><path d="M2 14.5H9C9.275 14.5 9.5 14.275 9.5 14V12H11V14C11 15.1031 10.1031 16 9 16H2C0.895313 16 0 15.1031 0 14V7C0 5.89688 0.895313 5 2 5H4V6.5H2C1.72375 6.5 1.5 6.725 1.5 7V14C1.5 14.275 1.72375 14.5 2 14.5ZM5 2C5 0.895313 5.89688 0 7 0H14C15.1031 0 16 0.895313 16 2V9C16 10.1031 15.1031 11 14 11H7C5.89688 11 5 10.1031 5 9V2ZM7 9.5H14C14.275 9.5 14.5 9.275 14.5 9V2C14.5 1.72375 14.275 1.5 14 1.5H7C6.725 1.5 6.5 1.72375 6.5 2V9C6.5 9.275 6.725 9.5 7 9.5Z"/></svg>