<svg viewBox="0 0 16 16" xmlns="http://www.w3.org/2000/svg"><path d="M9.75 11C9.75 11.9656 8.96562 12.75 8 12.75C7.03438 12.75 6.25 11.9656 6.25 11C6.25 10.05 7.00625 9.27812 7.95 9.25L10.0625 4.44688C10.2313 4.06875 10.6719 3.89687 11.0531 4.0625C11.4313 4.23125 11.6031 4.67187 11.4094 5.05312L9.32187 9.85625C9.59062 10.1625 9.75 10.5344 9.75 11ZM0 8C0 3.58125 3.58125 0 8 0C12.4187 0 16 3.58125 16 8C16 12.4187 12.4187 16 8 16C3.58125 16 0 12.4187 0 8ZM8 14.5C11.5906 14.5 14.5 11.5906 14.5 8C14.5 4.40937 11.5906 1.5 8 1.5C4.40937 1.5 1.5 4.40937 1.5 8C1.5 11.5906 4.40937 14.5 8 14.5Z"/></svg>