<svg viewBox="0 0 16 16" xmlns="http://www.w3.org/2000/svg"><path d="M8 11C9.1625 11 9.975 10.4531 10.45 9.94063C10.7281 9.6375 11.2031 9.61563 11.5094 9.89688C11.8125 10.1781 11.8313 10.6531 11.55 10.9563C10.8656 11.7031 9.67813 12.5 8 12.5C6.32187 12.5 5.13437 11.7031 4.45 10.9563C4.16875 10.6531 4.15937 10.1781 4.49062 9.89688C4.79687 9.61563 5.27188 9.6375 5.55 9.94063C6.025 10.4531 6.8375 11 8 11ZM6.5125 6.5C6.5125 7.05313 6.0625 7.5 5.5125 7.5C4.95937 7.5 4.5125 7.05313 4.5125 6.5C4.5125 5.94687 4.95937 5.5 5.5125 5.5C6.0625 5.5 6.5125 5.94687 6.5125 6.5ZM9.5125 6.5C9.5125 5.94687 9.95937 5.5 10.5125 5.5C11.0625 5.5 11.5125 5.94687 11.5125 6.5C11.5125 7.05313 11.0625 7.5 10.5125 7.5C9.95937 7.5 9.5125 7.05313 9.5125 6.5ZM16 8C16 12.4187 12.4187 16 8 16C3.58125 16 0 12.4187 0 8C0 3.58125 3.58125 0 8 0C12.4187 0 16 3.58125 16 8ZM8 1.5C4.40937 1.5 1.5 4.40937 1.5 8C1.5 11.5906 4.40937 14.5 8 14.5C11.5906 14.5 14.5 11.5906 14.5 8C14.5 4.40937 11.5906 1.5 8 1.5Z"/></svg>