<svg viewBox="0 0 16 16" xmlns="http://www.w3.org/2000/svg"><path d="M14.0926 2.91813L11.4689 0.585628C11.0445 0.210691 10.4715 3.125e-06 9.87734 3.125e-06L3.5 0C2.25723 0 1.25 0.895313 1.25 2L1.25023 14C1.25023 15.1044 2.25746 16 3.50023 16H12.5C13.7375 16 14.75 15.1 14.75 14V4.33125C14.75 3.80313 14.5145 3.29375 14.0926 2.91813ZM13.0625 14C13.0625 14.2761 12.8106 14.5 12.5 14.5H3.5007C3.18999 14.5 2.9382 14.2761 2.9382 14L2.9375 2.00407C2.9375 1.72794 3.18936 1.50407 3.5 1.50407H9.125V4C9.125 4.55219 9.62879 5 10.25 5H13.0309V14H13.0625ZM4.625 8.75C4.625 9.16563 5.00469 9.5 5.46875 9.5H10.5312C10.9988 9.5 11.375 9.16563 11.375 8.75C11.375 8.33438 10.9988 8 10.5312 8H5.46875C5.00469 8 4.625 8.3375 4.625 8.75ZM10.5312 11H5.46875C5.00469 11 4.625 11.3375 4.625 11.75C4.625 12.1625 5.00293 12.5 5.46875 12.5H10.5312C10.9971 12.5 11.375 12.1641 11.375 11.75C11.375 11.3359 10.9988 11 10.5312 11Z"/></svg>