<svg viewBox="0 0 16 16" xmlns="http://www.w3.org/2000/svg"><path d="M3.76746 4.01486C4.87495 3.17259 6.29494 2.53124 7.99993 2.53124C10.0199 2.53124 11.6374 3.43064 12.8149 4.49899C13.9849 5.55855 14.7674 6.80609 15.1374 7.69964C15.2199 7.89251 15.2199 8.10735 15.1374 8.30022C14.8024 9.08878 14.1299 10.1996 13.1399 11.1908L15.7699 13.2025C16.0299 13.4027 16.0774 13.7714 15.8724 14.0253C15.6674 14.2792 15.2899 14.3255 15.0299 14.1254L0.229894 2.7971C-0.0309042 2.5974 -0.0766288 2.22924 0.127794 1.9745C0.332243 1.71982 0.70924 1.67517 0.970237 1.8748L3.76746 4.01486ZM4.74496 4.7651L5.89495 5.644C6.45744 5.16549 7.19493 4.87496 7.99993 4.87496C9.76741 4.87496 11.1999 6.27387 11.1999 7.99993C11.1999 8.5175 11.0724 9.00334 10.8449 9.43302L12.1899 10.4633C13.0274 9.63077 13.6474 8.66154 13.9649 7.99993C13.6024 7.24554 12.9599 6.22993 11.9974 5.35591C10.9699 4.42575 9.62991 3.68113 7.99993 3.68113C6.73744 3.68113 5.62745 4.13596 4.74496 4.7651ZM9.87241 8.6884C9.95491 8.47356 9.99991 8.24163 9.99991 7.97796C9.99991 6.92084 9.10492 6.02485 7.99993 6.02485C7.98243 6.02485 7.96743 6.04683 7.92743 6.04683C7.98243 6.17134 7.99993 6.30317 7.99993 6.41547C7.99993 6.68647 7.93993 6.92084 7.83493 7.12836L9.87241 8.6884ZM10.1074 11.8695L11.1549 12.6752C10.2474 13.1537 9.19492 13.4686 7.99993 13.4686C5.97994 13.4686 4.36246 12.5702 3.18497 11.5009C2.01548 10.4193 1.23348 9.17179 0.861488 8.30022C0.779489 8.10735 0.779489 7.89251 0.861488 7.69964C1.09999 7.14056 1.50723 6.41791 2.07723 5.69282L3.01997 6.41791C2.55247 6.98676 2.24398 7.55072 2.03623 7.97796C2.37547 8.73234 3.03997 9.76993 4.00246 10.6439C5.02995 11.5741 6.36994 12.2968 7.99993 12.2968C8.76742 12.2968 9.46991 12.1356 10.1074 11.8695ZM4.79995 7.97796C4.79995 7.92913 4.80245 7.86077 4.80745 7.79241L6.20994 8.8715C6.47244 9.38663 6.96244 9.77237 7.54993 9.88223L8.95492 10.9833C8.65242 11.0541 8.33242 11.1249 7.97743 11.1249C6.23244 11.1249 4.77745 9.72599 4.77745 7.97796H4.79995Z"/></svg>