<svg viewBox="0 0 16 16" xmlns="http://www.w3.org/2000/svg"><path d="M6.0022 15.1429C6.0022 15.6179 5.6677 16 5.25192 16H3.0011C1.34362 16 0 14.465 0 12.5714V3.42857C0 1.535 1.34362 0 3.0011 0H5.25192C5.6677 0 6.0022 0.383571 6.0022 0.857143C6.0022 1.33036 5.6677 1.71429 5.25192 1.71429H3.0011C2.1758 1.71429 1.50055 2.48571 1.50055 3.42857V12.5714C1.50055 13.5143 2.1758 14.2857 3.0011 14.2857H5.25192C5.6677 14.2857 6.0022 14.6679 6.0022 15.1429ZM15.8027 7.41429L11.8293 2.55714C11.545 2.21114 11.0703 2.19571 10.7693 2.52032C10.4674 2.84396 10.4529 3.38639 10.737 3.73139L13.5174 7.14286H5.72397C5.33633 7.14286 5.00183 7.52857 5.00183 8C5.00183 8.47143 5.33789 8.85714 5.72397 8.85714H13.4893L10.6783 12.27C10.394 12.6149 10.4087 13.1571 10.7105 13.4811C10.8852 13.6357 11.0697 13.7143 11.226 13.7143C11.4253 13.7143 11.6246 13.6239 11.7721 13.4442L15.7455 8.58707C16.0746 8.25714 16.0746 7.74286 15.8027 7.41429Z"/></svg>