<svg viewBox="0 0 16 16" xmlns="http://www.w3.org/2000/svg"><path fill-rule="evenodd" clip-rule="evenodd" d="M2.43542 6.30737H3.82171V9.69251H4.51771V6.30737H5.91313V5.62966H2.43542V6.30737ZM8.52227 0.889103C9.11307 0.881463 9.6828 1.10839 10.1066 1.52015C10.5303 1.93191 10.7735 2.49488 10.7828 3.08566C10.7795 3.58746 10.6054 4.07317 10.2893 4.46285C9.97314 4.85254 9.53374 5.12298 9.04341 5.22966V4.61366C9.04058 4.38834 8.99335 4.16578 8.90443 3.95873C8.81551 3.75168 8.68664 3.56418 8.52519 3.40698C8.36374 3.24978 8.17288 3.12595 7.96353 3.04258C7.75418 2.9592 7.53045 2.91792 7.30513 2.92109H6.26856C6.31944 2.36088 6.57976 1.84048 6.99754 1.46381C7.41532 1.08713 7.9598 0.881902 8.52227 0.889103ZM0 10.7085V4.61366C0.00163918 4.47839 0.029947 4.34477 0.0833022 4.22045C0.136657 4.09614 0.214012 3.98357 0.310936 3.88919C0.40786 3.79482 0.522449 3.72049 0.648141 3.67046C0.773833 3.62044 0.908159 3.5957 1.04343 3.59766H7.30513C7.4404 3.5957 7.57472 3.62044 7.70041 3.67046C7.82611 3.72049 7.9407 3.79482 8.03762 3.88919C8.13454 3.98357 8.2119 4.09614 8.26525 4.22045C8.31861 4.34477 8.34692 4.47839 8.34855 4.61366V10.7085C8.34692 10.8438 8.31861 10.9774 8.26525 11.1017C8.2119 11.226 8.13454 11.3386 8.03762 11.433C7.9407 11.5273 7.82611 11.6017 7.70041 11.6517C7.57472 11.7017 7.4404 11.7265 7.30513 11.7245H1.04343C0.908159 11.7265 0.773833 11.7017 0.648141 11.6517C0.522449 11.6017 0.40786 11.5273 0.310936 11.433C0.214012 11.3386 0.136657 11.226 0.0833022 11.1017C0.029947 10.9774 0.00163918 10.8438 0 10.7085ZM12.1748 11.7245C12.1622 12.6347 11.7887 13.5027 11.1363 14.1377C10.484 14.7727 9.60625 15.1227 8.69598 15.1108C7.77806 15.1141 6.89529 14.758 6.23656 14.1188C5.75662 13.6545 5.42597 13.0576 5.28685 12.4045H7.30513C7.53073 12.4077 7.75474 12.3663 7.96431 12.2827C8.17389 12.1991 8.3649 12.075 8.52639 11.9174C8.68788 11.7598 8.81668 11.5719 8.90541 11.3645C8.99413 11.157 9.04103 10.9341 9.04341 10.7085V6.30737H12.1748V11.7245ZM12.1748 3.76681C12.1753 3.56575 12.2159 3.36681 12.2944 3.18172C12.3729 2.99663 12.4877 2.82913 12.632 2.68909C12.9298 2.40409 13.3261 2.24501 13.7383 2.24501C14.1505 2.24501 14.5468 2.40409 14.8445 2.68909C14.9898 2.8285 15.1054 2.99582 15.1843 3.18103C15.2633 3.36623 15.304 3.56548 15.304 3.76681C15.304 3.96813 15.2633 4.16738 15.1843 4.35259C15.1054 4.53779 14.9898 4.70511 14.8445 4.84452C14.5476 5.1311 14.151 5.29126 13.7383 5.29126C13.3256 5.29126 12.929 5.1311 12.632 4.84452C12.4881 4.70514 12.3735 4.5384 12.295 4.35411C12.2165 4.16982 12.1757 3.97169 12.1748 3.77138V3.76681ZM16 10.5394C15.9961 10.8323 15.9345 11.1217 15.8188 11.3908C15.7031 11.66 15.5355 11.9038 15.3256 12.1082C15.1157 12.3126 14.8676 12.4736 14.5954 12.5821C14.3232 12.6906 14.0324 12.7444 13.7394 12.7405C13.4117 12.7408 13.0879 12.6706 12.7897 12.5348C12.8431 12.268 12.8699 11.9966 12.8697 11.7245V6.30737H16V10.5394Z"/></svg>