<svg viewBox="0 0 16 16" xmlns="http://www.w3.org/2000/svg"><path d="M11.29 6.55443C10.88 6.55443 10.54 6.89427 10.54 7.30408V8.00375C10.54 10.4926 8.51 12.5216 6.02 12.5216C3.53 12.5216 1.5 10.4926 1.5 8.00375V7.30408C1.5 6.89427 1.16 6.55443 0.75 6.55443C0.34 6.55443 0 6.89427 0 7.30408V8.00375C0 11.0723 2.31 13.6011 5.27 13.971V14.5007H3.63C3.22 14.5007 2.88 14.8405 2.88 15.2504C2.88 15.6602 3.21 16 3.63 16H8.42C8.83 16 9.17 15.6602 9.17 15.2504C9.17 14.8405 8.83 14.5007 8.41 14.5007H6.77V13.971C9.74 13.6011 12.04 11.0723 12.04 8.00375V7.30408C12.04 6.89427 11.71 6.55443 11.29 6.55443Z"/><path d="M6.02 10.9624C7.95 10.9624 9.52 9.3931 9.52 7.464V3.50586C9.52 1.57676 7.95 0.00749648 6.02 0.00749648C4.09 0.00749648 2.52 1.57676 2.52 3.50586V7.464C2.52 9.3931 4.09 10.9624 6.02 10.9624ZM4.02 3.50586C4.02 2.40637 4.92 1.50679 6.02 1.50679C7.12 1.50679 8.02 2.40637 8.02 3.50586V4.74528H5.77C5.36 4.74528 5.02 5.08512 5.02 5.49492C5.02 5.90473 5.36 6.24457 5.77 6.24457H8.02V7.474C8.02 8.57348 7.12 9.47306 6.02 9.47306C4.92 9.47306 4.02 8.57348 4.02 7.474V3.50586Z"/><path d="M14.43 0.217398C14.14 -0.072466 13.66 -0.072466 13.37 0.217398C13.08 0.507262 13.08 0.987037 13.37 1.2769C14.1 2.00656 14.5 2.97611 14.5 4.00562C14.5 5.03514 14.1 6.00469 13.37 6.72435C13.08 7.01421 13.08 7.49399 13.37 7.78385C13.52 7.93378 13.71 8.00375 13.9 8.00375C14.09 8.00375 14.28 7.93378 14.43 7.78385C15.44 6.77433 16 5.43495 16 4.00562C16 2.57629 15.44 1.23692 14.43 0.217398Z"/><path d="M12.59 2.05654C12.3 1.76667 11.82 1.76667 11.53 2.05654C11.24 2.3464 11.24 2.82618 11.53 3.11604C12.02 3.60581 12.02 4.39544 11.53 4.88521C11.24 5.17507 11.24 5.65485 11.53 5.94471C11.68 6.09464 11.87 6.16461 12.06 6.16461C12.25 6.16461 12.44 6.09464 12.59 5.94471C13.67 4.87522 13.67 3.13603 12.59 2.05654Z"/></svg>