<svg viewBox="0 0 16 16" xmlns="http://www.w3.org/2000/svg"><path d="M15.6227 7.45686C13.5932 5.22706 10.8896 4 7.98886 4C5.11056 4 2.407 5.22733 0.377461 7.45686C-0.0474192 7.9239 -0.121811 8.63879 0.196076 9.19502L1.41355 11.3327C1.74307 11.9146 2.40735 12.1502 2.99649 11.9002L5.43444 10.8302C5.98429 10.5948 6.29134 10.0002 6.25639 9.38124L6.15154 8.21905C7.36552 7.86012 8.65789 7.86093 9.87362 8.21905L9.76869 9.37584C9.70746 9.9991 10.0386 10.5972 10.5715 10.8294L13.006 11.8978C13.1639 11.9671 13.3278 12 13.4893 12C13.9254 12 14.3448 11.7584 14.5862 11.3327L15.8039 9.19397C16.122 8.63798 16.0471 7.92174 15.6227 7.45686ZM14.784 8.51365L13.5655 10.6534C13.5425 10.6957 13.4941 10.7126 13.4555 10.6957L11.0195 9.62644C10.9817 9.61039 10.9556 9.56055 10.9607 9.50819L11.114 7.82031C11.1409 7.52165 10.9755 7.24218 10.7138 7.14407C8.97108 6.49026 7.05163 6.49081 5.31167 7.14365C5.05005 7.24162 4.88454 7.52123 4.9115 7.81988L5.0644 9.50912C5.06947 9.5598 5.04334 9.61048 5.00472 9.62737L2.57276 10.695C2.5283 10.7144 2.48149 10.6967 2.45653 10.6519L1.23796 8.48933C1.21065 8.44159 1.21689 8.38289 1.25317 8.34321C3.05606 6.38656 5.45506 5.29734 7.98886 5.29734C10.5451 5.29734 12.9441 6.38737 14.7465 8.3677C14.8064 8.40554 14.8114 8.465 14.784 8.51365Z"/></svg>