<svg viewBox="0 0 16 16" xmlns="http://www.w3.org/2000/svg"><path d="M14.25 1H4.75C3.78438 1 3 1.78531 3 2.75V12.75C3 13.1631 2.66344 13.5 2.25 13.5C1.83656 13.5 1.5 13.1625 1.5 12.75V3.5C1.5 3.08594 1.16406 2.75 0.75 2.75C0.335938 2.75 0 3.08594 0 3.5V12.75C0 13.9906 1.00937 15 2.25 15H13.25C14.7666 15 16 13.7666 16 12.25V2.75C16 1.78531 15.2156 1 14.25 1ZM14.5 12.25C14.5 12.9394 13.9394 13.5 13.25 13.5H4.37187C4.45312 13.2656 4.5 13.0125 4.5 12.75V2.75C4.5 2.61231 4.61231 2.5 4.75 2.5H14.25C14.3877 2.5 14.5 2.61231 14.5 2.75V12.25ZM8.25 8.5H6.25C5.8375 8.5 5.5 8.8375 5.5 9.25C5.5 9.6625 5.8375 10 6.25 10H8.25C8.66563 10 9 9.66563 9 9.25C9 8.83437 8.66563 8.5 8.25 8.5ZM12.75 8.5H10.75C10.3375 8.5 10 8.8375 10 9.25C10 9.6625 10.3375 10 10.75 10H12.75C13.1641 10 13.5 9.66406 13.5 9.25C13.5 8.83594 13.1656 8.5 12.75 8.5ZM8.25 11H6.25C5.83594 11 5.5 11.3359 5.5 11.75C5.5 12.1641 5.83594 12.5 6.25 12.5H8.25C8.66406 12.5 9 12.1641 9 11.75C9 11.3359 8.66563 11 8.25 11ZM12.75 11H10.75C10.3375 11 10 11.3375 10 11.75C10 12.1625 10.3359 12.5 10.75 12.5H12.75C13.1641 12.5 13.5 12.1641 13.5 11.75C13.5 11.3359 13.1656 11 12.75 11ZM12.5 3.5H6.5C5.94781 3.5 5.5 3.94781 5.5 4.5V6.5C5.5 7.05219 5.94781 7.5 6.5 7.5H12.5C13.0522 7.5 13.5 7.05219 13.5 6.5V4.5C13.5 3.94687 13.0531 3.5 12.5 3.5Z"/></svg>