<svg viewBox="0 0 16 16" xmlns="http://www.w3.org/2000/svg"><path d="M0.827586 0C1.28448 0 1.65517 0.37077 1.65517 0.827765V4.34921C3.02414 2.05458 5.52759 0.555637 8.27931 0.555637C12.5379 0.555637 16 4.01811 16 8.27765C16 12.5372 12.5379 16 8.27931 16C6.47552 16 4.71724 15.3678 3.33103 14.2144C2.97966 13.9213 2.93241 13.3998 3.22545 13.0483C3.51855 12.6958 4.04131 12.6496 4.39131 12.9427C5.47931 13.8478 6.85862 14.3479 8.27586 14.3479C11.6217 14.3479 14.3448 11.6242 14.3448 8.27765C14.3448 4.93106 11.6207 2.20737 8.27586 2.20737C5.98138 2.20737 3.90345 3.52766 2.87931 5.51843H6.34483C6.80345 5.51843 7.17241 5.89092 7.17241 6.3462C7.17241 6.80147 6.80345 7.17396 6.34483 7.17396H0.827586C0.37069 7.17396 0 6.80491 0 6.3462V0.827765C0 0.37077 0.37069 0 0.827586 0Z"/></svg>