<svg viewBox="0 0 16 16" xmlns="http://www.w3.org/2000/svg"><path d="M8 4.5C6.06562 4.5 4.5 6.06562 4.5 8C4.5 9.93313 6.06687 11.5 8 11.5C9.93313 11.5 11.5 9.93313 11.5 8C11.5 6.06562 9.93438 4.5 8 4.5ZM8 10C6.89719 10 6 9.10281 6 8C6 6.89719 6.89719 6 8 6C9.10281 6 10 6.89719 10 8C10 9.10312 9.10312 10 8 10ZM8 3.5C8.41406 3.5 8.75 3.16406 8.75 2.75V0.75C8.75 0.335938 8.41563 0 8 0C7.58437 0 7.25 0.335938 7.25 0.75V2.75C7.25 3.16563 7.5875 3.5 8 3.5ZM8 12.5C7.58594 12.5 7.25 12.8359 7.25 13.25V15.25C7.25 15.6656 7.5875 16 8 16C8.4125 16 8.75 15.6641 8.75 15.25V13.25C8.75 12.8375 8.41563 12.5 8 12.5ZM15.25 7.25H13.25C12.8359 7.25 12.5 7.58594 12.5 8C12.5 8.41406 12.8359 8.75 13.25 8.75H15.25C15.6656 8.75 16 8.41563 16 8C16 7.58437 15.6656 7.25 15.25 7.25ZM3.5 8C3.5 7.58594 3.16406 7.25 2.75 7.25H0.75C0.335938 7.25 0 7.5875 0 8C0 8.4125 0.335938 8.75 0.75 8.75H2.75C3.16563 8.75 3.5 8.41563 3.5 8ZM12.2437 11.1812C11.9517 10.8883 11.4762 10.8884 11.1831 11.1813C10.89 11.4743 10.8902 11.9488 11.1831 12.2417L12.5972 13.6567C12.7432 13.8032 12.9356 13.8764 13.1275 13.8764C13.3194 13.8764 13.5112 13.8031 13.6578 13.6567C13.9508 13.3637 13.9508 12.8892 13.6578 12.596L12.2437 11.1812ZM3.75625 4.81875C3.90225 4.96525 4.09469 5.03847 4.28656 5.03847C4.47844 5.03847 4.67187 4.96562 4.81875 4.81875C5.11172 4.52578 5.11172 4.05125 4.81875 3.75844L3.40313 2.34281C3.11113 2.04984 2.63562 2.04984 2.3425 2.34281C2.04937 2.63578 2.04953 3.11031 2.3425 3.40344L3.75625 4.81875ZM11.7125 5.0375C11.9044 5.0375 12.0969 4.96425 12.2428 4.81778L13.6569 3.40278C13.9498 3.10981 13.9498 2.63528 13.6569 2.34216C13.3639 2.04903 12.8884 2.04919 12.5962 2.34216L11.1822 3.75716C10.8892 4.05012 10.8892 4.52466 11.1822 4.81747C11.3281 4.96562 11.5219 5.0375 11.7125 5.0375ZM3.75625 11.1812L2.34219 12.5962C2.04922 12.8892 2.04922 13.3637 2.34219 13.6569C2.48869 13.8034 2.68062 13.8766 2.8725 13.8766C3.06437 13.8766 3.25687 13.8033 3.40281 13.6569L4.81687 12.2419C5.10984 11.9489 5.10984 11.4744 4.81687 11.1816C4.52391 10.8887 4.05 10.8875 3.75625 11.1812Z"/></svg>