<svg viewBox="0 0 16 16" xmlns="http://www.w3.org/2000/svg"><path d="M10.14 16C9.66 16 9.18 15.9 8.72 15.68C6.92 14.81 5.27 13.63 3.82 12.18C2.37 10.73 1.19 9.08 0.319996 7.28C-0.350004 5.89 0.0599964 4.18 1.29 3.21L1.88 2.75C2.72 2.09 3.92 2.16 4.67 2.89C5.12 3.34 5.55 3.82 5.92 4.33C6.4 4.98 6.46 5.82 6.09 6.63L5.75 7.39C5.58 7.74 5.64 8.16 5.9 8.45C6.15 8.74 6.42 9.03 6.7 9.3C6.98 9.58 7.26 9.84 7.55 10.1C7.84 10.36 8.26 10.42 8.62 10.25L9.5 9.84C10.21 9.51 11.05 9.59 11.68 10.06C12.19 10.44 12.67 10.86 13.12 11.31C13.88 12.08 13.91 13.27 13.19 14.19L12.8 14.69C12.14 15.54 11.15 16 10.14 16ZM3.21 3.79C3.07 3.79 2.93 3.84 2.81 3.93L2.22 4.39C1.54 4.92 1.31 5.86 1.68 6.62C2.48 8.27 3.56 9.78 4.89 11.11C6.22 12.44 7.73 13.52 9.38 14.32C10.14 14.68 11.08 14.46 11.61 13.78L12 13.28C12.25 12.96 12.27 12.6 12.04 12.37C11.65 11.97 11.22 11.6 10.78 11.27C10.59 11.13 10.34 11.1 10.12 11.2L9.24 11.61C8.34 12.03 7.29 11.87 6.55 11.22C6.24 10.95 5.93 10.66 5.63 10.36C5.33 10.06 5.04 9.75 4.77 9.44C4.12 8.7 3.96 7.64 4.38 6.75L4.74 6C4.88 5.69 4.88 5.43 4.73 5.22C4.4 4.77 4.03 4.35 3.63 3.96C3.52 3.85 3.36 3.79 3.21 3.79Z"/><path d="M9.74 8.75C9.33 8.75 8.99 8.41 8.99 8C8.99 7.45 8.54 7.01 8 7.01C7.59 7.01 7.25 6.67 7.25 6.26C7.25 5.85 7.59 5.51 8 5.51C9.38 5.51 10.49 6.63 10.49 8C10.49 8.41 10.16 8.75 9.74 8.75Z"/><path d="M12.5 8.75C12.09 8.75 11.75 8.41 11.75 8C11.75 5.93 10.07 4.25 8 4.25C7.59 4.25 7.25 3.91 7.25 3.5C7.25 3.09 7.59 2.75 8 2.75C10.89 2.75 13.25 5.1 13.25 8C13.25 8.41 12.91 8.75 12.5 8.75Z"/><path d="M15.25 8.75C14.84 8.75 14.5 8.41 14.5 8C14.5 4.42 11.58 1.5 8 1.5C7.59 1.5 7.25 1.16 7.25 0.75C7.25 0.34 7.59 0 8 0C12.41 0 16 3.59 16 8C16 8.41 15.66 8.75 15.25 8.75Z"/></svg>