<svg viewBox="0 0 16 16" xmlns="http://www.w3.org/2000/svg"><path d="M8.00003 1C3.58128 1 0.000878902 3.90937 0.000878902 7.5C0.000878902 8.98844 0.623066 10.3516 1.65432 11.4438C1.18932 12.6781 0.220879 13.7213 0.205254 13.7328C-0.00177734 13.9516 -0.0564649 14.2719 0.0607226 14.5453C0.181841 14.8188 0.449404 15 0.750029 15C2.6719 15 4.1594 14.1953 5.0969 13.5547C5.9719 13.8375 6.97815 14 8.00003 14C12.4188 14 15.9719 11.0897 15.9719 7.5C15.9719 3.91031 12.4188 1 8.00003 1ZM8.00315 12.5C7.16722 12.5 6.34315 12.3711 5.55378 12.1213L4.84284 11.8986L4.23347 12.3283C3.78815 12.6445 3.17472 12.9964 2.43659 13.2345C2.66706 12.8558 2.88565 12.4298 3.05784 11.9767L3.38972 11.1017L2.74534 10.4183C2.1819 9.81563 1.50222 8.81875 1.50222 7.5C1.50222 4.74219 4.41628 2.5 8.00222 2.5C11.5882 2.5 14.5022 4.74219 14.5022 7.5C14.5022 10.2578 11.5875 12.5 8.00315 12.5Z"/></svg>