<svg viewBox="0 0 16 16" xmlns="http://www.w3.org/2000/svg"><path d="M4.64246 4.15406C6.05244 2.88985 8.10743 2.99606 9.41242 4.47408C10.4949 5.70033 10.7274 7.52981 10.1424 9.03926L11.2824 10.0503L13.6599 7.35705C14.5949 6.29505 14.5949 4.57603 13.6599 3.51714C12.7674 2.5064 11.3349 2.45231 10.3874 3.39367L10.2324 3.54518C9.98491 3.79156 9.60491 3.76324 9.38742 3.48118C9.16742 3.19883 9.19492 2.7695 9.44242 2.52226L9.59741 2.37047C11.0224 0.958175 13.1699 1.03914 14.5074 2.55596C15.9124 4.14556 15.9124 6.72552 14.5074 8.3171L12.2324 10.8942L15.7699 14.0349C16.0299 14.2671 16.0774 14.6948 15.8724 14.9893C15.6674 15.2838 15.2899 15.3376 15.0299 15.1054L0.229894 1.96464C-0.0309042 1.73298 -0.0766288 1.30592 0.127794 1.01043C0.332243 0.714991 0.70924 0.663194 0.970237 0.894767L4.64246 4.15406ZM5.62745 5.02915L9.15742 8.16417C9.41492 7.22678 9.21242 6.17045 8.56242 5.43412C7.76743 4.53072 6.52744 4.39761 5.62745 5.02915ZM6.58744 11.5258C5.83495 10.6762 5.48245 9.53486 5.53995 8.41339L6.89494 9.62265C7.00994 9.96533 7.19243 10.2882 7.43493 10.5657C7.80243 11.0047 8.31243 11.2624 8.81492 11.336L10.1724 12.5481C8.94492 12.9644 7.55743 12.6246 6.58744 11.5258ZM2.91497 6.07133L3.86496 6.91809L2.34073 8.64278C1.40473 9.70478 1.40473 11.4238 2.34073 12.483C3.23247 13.4685 4.66496 13.5478 5.61245 12.6076L5.76745 12.4547C6.01494 12.2083 6.39494 12.2366 6.61244 12.5198C6.82994 12.8002 6.80494 13.2306 6.55744 13.477L6.40244 13.6299C4.97745 15.0431 2.82997 14.961 1.49223 13.443C0.0876197 11.8543 0.0876197 9.24883 1.49223 7.68273L2.91497 6.07133Z"/></svg>