<svg viewBox="0 0 16 15" xmlns="http://www.w3.org/2000/svg"><path d="M7.9975 9C9.43275 9 10.575 7.836 10.575 6.4C10.575 4.964 9.4115 3.8 7.9975 3.8C6.56225 3.8 5.42 4.964 5.42 6.4C5.3975 7.835 6.5625 9 7.9975 9ZM7.9975 5C8.76875 5 9.3965 5.628 9.3965 6.4C9.3965 7.172 8.7675 7.8 7.9975 7.8C7.2275 7.8 6.5975 7.1725 6.5975 6.4C6.5975 5.6275 7.225 5 7.9975 5ZM12.8 5C13.9045 5 14.8 4.1045 14.8 3C14.8 1.8955 13.905 1 12.8 1C11.6955 1 10.8 1.8955 10.8 3C10.8 4.1045 11.695 5 12.8 5ZM9.2475 9.8H6.7525C4.79 9.8 3.2 11.2925 3.2 13.1325C3.2 13.5025 3.5175 13.8 3.91 13.8H12.09C12.4825 13.8 12.8 13.5025 12.8 13.1325C12.8 11.2925 11.21 9.8 9.2475 9.8ZM4.4525 12.6C4.71425 11.681 5.6365 11 6.731 11H9.2475C10.3418 11 11.264 11.681 11.526 12.6H4.4525ZM13.7975 5.8H12.2515C11.9315 5.8 11.6295 5.87593 11.355 6.006C11.37 6.1375 11.395 6.265 11.395 6.4C11.395 7.24275 11.0755 8.00525 10.566 8.6H15.5585C15.8025 8.6 16 8.39 16 8.1325C16 6.845 15.015 5.8 13.7975 5.8ZM4.5975 6.4C4.5975 6.26378 4.62206 6.13425 4.63773 6.00225C4.365 5.8525 4.065 5.8 3.7475 5.8H2.202C0.986 5.8 0 6.845 0 8.1325C0 8.39 0.197175 8.6 0.4405 8.6H5.428C4.9175 8.005 4.5975 7.2425 4.5975 6.4ZM3.2 5C4.3045 5 5.2 4.1045 5.2 3C5.2 1.8955 4.305 1 3.2 1C2.0955 1 1.2 1.8955 1.2 3C1.2 4.1045 2.0955 5 3.2 5Z"/></svg>