<svg viewBox="0 0 16 16" xmlns="http://www.w3.org/2000/svg"><path d="M9.46136 9.5H6.53864C3.57939 9.5 1.18033 11.9625 1.18033 15C1.18033 15.5522 1.6166 16 2.15457 16H13.8454C14.3834 16 14.8197 15.5522 14.8197 15C14.8197 11.9625 12.4206 9.5 9.46136 9.5ZM2.67183 14.5C2.91234 12.5281 4.55363 11 6.53864 11H9.46136C11.4452 11 13.0874 12.5297 13.3279 14.5H2.67183ZM8 8C10.1522 8 11.897 6.20906 11.897 4C11.897 1.79094 10.1522 0 8 0C5.84785 0 4.10304 1.79094 4.10304 4C4.10304 6.20937 5.84754 8 8 8ZM8 1.5C9.34293 1.5 10.4356 2.62156 10.4356 4C10.4356 5.37844 9.34293 6.5 8 6.5C6.65707 6.5 5.5644 5.37812 5.5644 4C5.5644 2.62156 6.65738 1.5 8 1.5Z"/></svg>