<svg viewBox="0 0 16 16" xmlns="http://www.w3.org/2000/svg"><path d="M11.1429 4H5.59643C5.12321 4 4.73929 4.38393 4.73929 4.85714C4.73929 5.33036 5.125 5.71429 5.59643 5.71429H9.07286L4.25143 10.5357C3.91661 10.8705 3.91661 11.4129 4.25143 11.7479C4.41786 11.9179 4.63571 12 4.85714 12C5.07857 12 5.29571 11.9163 5.46321 11.7489L10.2857 6.925V10.4014C10.2857 10.8746 10.6696 11.2586 11.1429 11.2586C11.6161 11.2586 12 10.8746 12 10.4014V4.85714C12 4.38571 11.6179 4 11.1429 4ZM13.7143 0H2.28571C1.02321 0 0 1.02357 0 2.28571V13.7143C0 14.9764 1.02321 16 2.28571 16H13.7143C14.9768 16 16 14.9764 16 13.7143V2.28571C16 1.02357 14.975 0 13.7143 0ZM14.2857 13.7143C14.2857 14.0293 14.0294 14.2857 13.7143 14.2857H2.28571C1.97064 14.2857 1.71429 14.0293 1.71429 13.7143V2.28571C1.71429 1.97071 1.97064 1.71429 2.28571 1.71429H13.7143C14.0294 1.71429 14.2857 1.97071 14.2857 2.28571V13.7143Z"/></svg>