<svg viewBox="0 0 16 16" xmlns="http://www.w3.org/2000/svg"><g clip-path="url(#clip0)"><path d="M12.4818 5.00003C12.4056 4.33571 12.1835 3.69646 11.8313 3.12803C11.4792 2.5596 11.0057 2.07606 10.4448 1.71203L10.9378 0.722031C10.9912 0.603275 10.9961 0.468385 10.9516 0.34604C10.9071 0.223695 10.8166 0.123547 10.6993 0.0668887C10.5821 0.0102307 10.4474 0.00153213 10.3239 0.0426427C10.2003 0.0837532 10.0977 0.17143 10.0378 0.287031L9.54181 1.30003L9.42581 1.24103C8.96592 1.08804 8.48449 1.00972 7.99981 1.00903C7.51551 1.01309 7.03478 1.09237 6.57481 1.24403L6.45981 1.30003L5.96281 0.284031C5.90131 0.169449 5.79925 0.0819519 5.67662 0.0386702C5.55399 -0.00461143 5.41962 -0.000560153 5.29981 0.0500309C5.18306 0.110973 5.09353 0.21365 5.04905 0.337621C5.00458 0.461592 5.00842 0.597765 5.05981 0.719031L5.55381 1.70903C4.9944 2.07538 4.52209 2.55992 4.17016 3.12851C3.81822 3.69711 3.5952 4.33594 3.51681 5.00003V5.49403H12.4818V5.00003ZM6.48181 4.01203C6.38407 4.01203 6.28852 3.98303 6.20726 3.92871C6.126 3.87438 6.06268 3.79717 6.02532 3.70684C5.98796 3.61652 5.97824 3.51714 5.99738 3.42129C6.01652 3.32543 6.06367 3.23741 6.13286 3.16837C6.20205 3.09932 6.29016 3.05235 6.38605 3.0334C6.48195 3.01445 6.58131 3.02438 6.67155 3.06192C6.7618 3.09946 6.83889 3.16294 6.89305 3.24431C6.94721 3.32568 6.97601 3.42128 6.97581 3.51903C6.97866 3.58422 6.9679 3.64929 6.94422 3.71009C6.92053 3.7709 6.88445 3.82611 6.83826 3.8722C6.79207 3.91829 6.73679 3.95426 6.67594 3.97782C6.61509 4.00138 6.55 4.01201 6.48481 4.00903L6.48181 4.01203ZM9.50981 4.01203C9.41207 4.01203 9.31652 3.98303 9.23526 3.92871C9.154 3.87438 9.09068 3.79717 9.05332 3.70684C9.01596 3.61652 9.00624 3.51714 9.02538 3.42129C9.04452 3.32543 9.09167 3.23741 9.16086 3.16837C9.23005 3.09932 9.31816 3.05235 9.41405 3.0334C9.50995 3.01445 9.6093 3.02438 9.69955 3.06192C9.7898 3.09946 9.86689 3.16294 9.92105 3.24431C9.97521 3.32568 10.004 3.42128 10.0038 3.51903C9.99909 3.64765 9.94581 3.7697 9.85471 3.86062C9.76361 3.95154 9.64144 4.00457 9.51281 4.00903L9.50981 4.01203ZM1.99981 5.98803C1.86946 5.98697 1.7402 6.01184 1.61955 6.0612C1.4989 6.11057 1.38928 6.18343 1.29705 6.27556C1.20483 6.36769 1.13185 6.47724 1.08237 6.59784C1.03289 6.71844 1.00788 6.84768 1.00881 6.97803V10.966C1.00881 11.2289 1.11322 11.4809 1.29907 11.6668C1.48492 11.8526 1.73698 11.957 1.99981 11.957C2.26264 11.957 2.51471 11.8526 2.70056 11.6668C2.88641 11.4809 2.99081 11.2289 2.99081 10.966V7.00603C2.99376 6.73981 2.89115 6.48325 2.70544 6.29248C2.51972 6.10171 2.26602 5.99224 1.99981 5.98803ZM3.48381 11.488C3.48592 11.8891 3.64645 12.273 3.93041 12.5563C4.21437 12.8395 4.59876 12.999 4.99981 13V15.009C4.9956 15.1418 5.0181 15.274 5.06598 15.3978C5.11385 15.5217 5.18614 15.6347 5.27853 15.73C5.37092 15.8254 5.48154 15.9012 5.60382 15.953C5.72609 16.0048 5.85752 16.0315 5.99031 16.0315C6.1231 16.0315 6.25454 16.0048 6.37681 15.953C6.49909 15.9012 6.60971 15.8254 6.7021 15.73C6.79449 15.6347 6.86677 15.5217 6.91465 15.3978C6.96253 15.274 6.98503 15.1418 6.98081 15.009V13H8.99081V15.009C8.9866 15.1418 9.0091 15.274 9.05697 15.3978C9.10485 15.5217 9.17714 15.6347 9.26953 15.73C9.36192 15.8254 9.47254 15.9012 9.59482 15.953C9.71709 16.0048 9.84852 16.0315 9.98131 16.0315C10.1141 16.0315 10.2455 16.0048 10.3678 15.953C10.4901 15.9012 10.6007 15.8254 10.6931 15.73C10.7855 15.6347 10.8578 15.5217 10.9057 15.3978C10.9535 15.274 10.976 15.1418 10.9718 15.009V13C11.3722 12.9979 11.7555 12.838 12.0386 12.5549C12.3217 12.2718 12.4817 11.8884 12.4838 11.488V5.98803H3.48381V11.488ZM13.9998 5.98803C13.8695 5.98697 13.7402 6.01184 13.6196 6.0612C13.4989 6.11057 13.3893 6.18343 13.2971 6.27556C13.2048 6.36769 13.1319 6.47724 13.0824 6.59784C13.0329 6.71844 13.0079 6.84768 13.0088 6.97803V10.966C13.017 11.2233 13.1249 11.4673 13.3098 11.6463C13.4947 11.8254 13.7419 11.9256 13.9993 11.9256C14.2567 11.9256 14.504 11.8254 14.6888 11.6463C14.8737 11.4673 14.9816 11.2233 14.9898 10.966V7.00603C14.9938 6.87361 14.9712 6.74174 14.9232 6.61825C14.8752 6.49477 14.8029 6.38219 14.7106 6.28722C14.6182 6.19224 14.5077 6.11681 14.3856 6.06542C14.2635 6.01402 14.1323 5.9877 13.9998 5.98803Z"/></g><defs><clipPath><rect/></clipPath></defs></svg>