<svg viewBox="0 0 16 16" xmlns="http://www.w3.org/2000/svg"><path d="M11.9538 8.4C11.9414 7.8565 12.0812 7.32036 12.3574 6.85209C12.6336 6.38383 13.0352 6.0021 13.5168 5.75C13.2133 5.32873 12.8161 4.9836 12.3567 4.74172C11.8972 4.49984 11.3879 4.36781 10.8688 4.356C9.75982 4.266 8.54682 5 8.09982 5C7.31632 4.74893 6.519 4.54326 5.71182 4.384C3.96782 4.412 2.11182 5.775 2.11182 8.547C2.11986 9.41212 2.27194 10.2699 2.56182 11.085C2.96182 12.232 4.40582 15.045 5.91182 14.998C6.69982 14.98 7.25582 14.439 8.28182 14.439C9.27482 14.439 9.79082 14.998 10.6688 14.998C12.1888 14.977 13.4948 12.42 13.8758 11.27C13.3069 11.0363 12.8203 10.6386 12.4781 10.1275C12.1358 9.61642 11.9533 9.01509 11.9538 8.4ZM10.1848 3.266C10.4611 2.96156 10.6705 2.60266 10.7997 2.21239C10.9288 1.82212 10.9749 1.40913 10.9348 1C10.1166 1.08787 9.36034 1.47671 8.81282 2.091C8.53232 2.39053 8.31653 2.74462 8.17889 3.13121C8.04125 3.5178 7.98472 3.9286 8.01282 4.338C8.43434 4.34696 8.85183 4.25421 9.22991 4.0676C9.60799 3.881 9.93554 3.60604 10.1848 3.266Z"/></svg>