<svg data-name="Layer 1" xmlns="http://www.w3.org/2000/svg" viewBox="0 0 32 32"><path d="M12.57 16.29H4.72A3.72 3.72 0 011 12.57V4.72A3.72 3.72 0 014.72 1h7.85a3.72 3.72 0 013.71 3.71v7.85a3.72 3.72 0 01-3.71 3.73zm-7.85-13a1.43 1.43 0 00-1.43 1.43v7.85A1.43 1.43 0 004.72 14h7.85A1.43 1.43 0 0014 12.57V4.72a1.43 1.43 0 00-1.43-1.43zm20.14 13h-3.93a2.43 2.43 0 01-2.43-2.43V9.93a2.43 2.43 0 012.43-2.43h3.93a2.43 2.43 0 012.43 2.43v3.93a2.43 2.43 0 01-2.43 2.43zM13.5 29.08h-5a2.78 2.78 0 01-2.79-2.78v-5a2.78 2.78 0 012.78-2.78h5a2.78 2.78 0 012.78 2.78v5a2.78 2.78 0 01-2.77 2.78zM27.83 31h-6.16a3.16 3.16 0 01-3.16-3.16v-6.17a3.16 3.16 0 013.16-3.16h6.17A3.16 3.16 0 0131 21.67v6.17A3.16 3.16 0 0127.83 31z"/></svg>