<svg data-name="Layer 1" xmlns="http://www.w3.org/2000/svg" viewBox="0 0 14 14"><path d="M8.922 4.09a3.587 3.587 0 00-3.11-2.51 1.976 1.976 0 00-3.9.446v6.266a5.173 5.173 0 00-.03.54 5.117 5.117 0 0010.235.002v-.001A5.118 5.118 0 008.922 4.09zM8.4 3.911a5.106 5.106 0 00-2.536-.067V2.016A3.163 3.163 0 018.4 3.911zm.254 1.24v3.13a3.158 3.158 0 01-5.493 2.125A1.972 1.972 0 005.864 8.57V4.285a4.682 4.682 0 012.703.131 3.167 3.167 0 01.087.734zM5.436 2.025V3.96a5.13 5.13 0 00-3.097 2.762V5.15a3.16 3.16 0 013.095-3.156l.002.032zM2.442 9.083a3.161 3.161 0 01-.102-.763 4.692 4.692 0 013.096-3.906V8.57a1.548 1.548 0 01-2.994.513zM2.34 2.026a1.548 1.548 0 013.029-.457 3.584 3.584 0 00-3.03 1.883zM7 13.523a4.69 4.69 0 01-4.445-3.197 3.583 3.583 0 006.526-2.045V5.15a3.613 3.613 0 00-.04-.537A4.688 4.688 0 017 13.523z"/></svg>