<svg data-name="Layer 1" xmlns="http://www.w3.org/2000/svg" viewBox="0 0 32 32"><path d="M30.64 17.26a1.2 1.2 0 01-.84 2h-4.2a10.92 10.92 0 01-1.26 5.44l3.9 3.92a1.18 1.18 0 010 1.69 1.18 1.18 0 01-1.69 0l-3.71-3.69a3.18 3.18 0 01-.28.24c-.13.1-.39.28-.79.54a11.48 11.48 0 01-1.22.68 8.51 8.51 0 01-1.54.54 7.12 7.12 0 01-1.82.24V12.1H14.8v16.8a7.43 7.43 0 01-1.9-.25 7.72 7.72 0 01-1.63-.65q-.68-.37-1.24-.73a7 7 0 01-.81-.61l-.28-.26-3.44 3.91a1.2 1.2 0 01-.9.39 1.22 1.22 0 01-.81-.3 1.26 1.26 0 01-.09-1.71l3.79-4.25A11.22 11.22 0 016.4 19.3H2.2a1.14 1.14 0 01-.84-.36 1.18 1.18 0 010-1.69 1.15 1.15 0 01.84-.36h4.2v-5.5L3.16 8.14A1.2 1.2 0 014 6.1a1.15 1.15 0 01.84.36L8.09 9.7h15.82l3.24-3.24a1.19 1.19 0 111.69 1.69l-3.24 3.24v5.51h4.2a1.16 1.16 0 01.84.36zM22 7.3H10a5.78 5.78 0 011.75-4.25A5.79 5.79 0 0116 1.3a5.79 5.79 0 014.25 1.75A5.78 5.78 0 0122 7.3z"/></svg>