<svg data-name="Layer 1" xmlns="http://www.w3.org/2000/svg" viewBox="0 0 32 32"><path d="M27.65 26.85a1.79 1.79 0 01-1.8 1.8H6.05a1.79 1.79 0 01-1.8-1.8v-18a1.79 1.79 0 011.8-1.8h1.8v-1.4a2.33 2.33 0 012.3-2.3H11a2.33 2.33 0 012.3 2.3v1.4h5.4v-1.4a2.33 2.33 0 012.3-2.3h.9a2.33 2.33 0 012.3 2.3v1.4H26a1.79 1.79 0 011.8 1.8v18zm-1.8 0v-14.4H6v14.4zm-14.4-21.2a.47.47 0 00-.5-.5H10a.47.47 0 00-.5.5v4.1a.47.47 0 00.5.5h.9a.47.47 0 00.5-.5zm10.8 0a.47.47 0 00-.5-.5h-.8a.47.47 0 00-.5.5v4.1a.47.47 0 00.5.5h.9a.47.47 0 00.5-.5v-4.1z"/></svg>