<svg data-name="Layer 1" xmlns="http://www.w3.org/2000/svg" viewBox="0 0 32 32"><path d="M24.5 16a2.5 2.5 0 11-2.5-2.5 2.5 2.5 0 012.5 2.5zm5.9 0a2.5 2.5 0 11-2.5-2.5 2.5 2.5 0 012.5 2.5zm-11.9 0a2.5 2.5 0 11-2.5-2.5 2.5 2.5 0 012.5 2.5zm-6 0a2.5 2.5 0 11-2.5-2.5 2.5 2.5 0 012.5 2.5zm-5.9 0a2.5 2.5 0 11-2.5-2.5A2.5 2.5 0 016.6 16zm17.9 6a2.5 2.5 0 11-2.5-2.5 2.5 2.5 0 012.5 2.5zm-6 0a2.5 2.5 0 11-2.5-2.5 2.5 2.5 0 012.5 2.5zm-6 0a2.5 2.5 0 11-2.5-2.5 2.5 2.5 0 012.5 2.5zm-5.9 0a2.5 2.5 0 11-2.5-2.5A2.5 2.5 0 016.6 22zm17.9-12A2.5 2.5 0 1122 7.5a2.5 2.5 0 012.5 2.5zm5.9 0a2.5 2.5 0 11-2.5-2.5 2.5 2.5 0 012.5 2.5zm-11.9 0A2.5 2.5 0 1116 7.5a2.5 2.5 0 012.5 2.5zm-6 0A2.5 2.5 0 1110 7.5a2.5 2.5 0 012.5 2.5z"/></svg>