<svg data-name="Layer 1" xmlns="http://www.w3.org/2000/svg" viewBox="0 0 32 32"><path d="M19.21 22.51a3 3 0 00-2.65-1.6L13 21l-4.16-8.26 2.43-2.37a3.22 3.22 0 00.06-3.53L9.61 3.47a2.15 2.15 0 00-3.36-.77 11.83 11.83 0 00-3.81 5.69 6 6 0 00.44 4.47l2 4 2.65 5.19 2.1 4.08a6 6 0 003.26 3 11.51 11.51 0 007 .28 2.11 2.11 0 001.32-3c-.66-1.32-1.32-2.59-2-3.92z"/><path d="M29.36 14.23l-.06-.06L25 9.88a1.48 1.48 0 00-2.1 2.1l1.93 1.88h-9.37A1.48 1.48 0 0014 15.34a1.54 1.54 0 00.88 1.38 2 2 0 00.61.11h9.38l-1.93 2a1.48 1.48 0 000 2.1 3.06 3.06 0 00.44.33 1.54 1.54 0 001.62-.35l4.3-4.36.06-.06a1.67 1.67 0 00.44-1.16 1.76 1.76 0 00-.44-1.1z"/></svg>