<svg data-name="Layer 1" xmlns="http://www.w3.org/2000/svg" viewBox="0 0 32 32"><path d="M17.15 21.75a2.65 2.65 0 00-2.37-1.43l-3.15.06L8 13.14l2.1-2.1a2.79 2.79 0 00.06-3.14L8.71 5a1.91 1.91 0 00-3-.66 10.29 10.29 0 00-3.31 5 5.36 5.36 0 00.39 3.92l1.77 3.53 2.32 4.58 1.82 3.64a5.09 5.09 0 002.87 2.59 10.56 10.56 0 006.12.28 1.84 1.84 0 001.16-2.65c-.5-1.1-1.1-2.26-1.71-3.42z"/><path d="M28.46 13.25h-13.3a1.38 1.38 0 000 2.76h13.3a1.38 1.38 0 000-2.76zm0 5.52H22a1.38 1.38 0 000 2.76h6.45a1.38 1.38 0 000-2.76zm0-11.03h-13.3a1.38 1.38 0 000 2.76h13.3a1.38 1.38 0 000-2.76z"/></svg>