<svg data-name="Layer 1" xmlns="http://www.w3.org/2000/svg" viewBox="0 0 32 32"><path d="M14.82 27.89a10.15 10.15 0 01-3.42-.61 5.7 5.7 0 01-3.09-2.81l-5.4-10.54a5.7 5.7 0 01-.39-4.25 10.29 10.29 0 013.26-4.91A2.67 2.67 0 018 4.16a2.8 2.8 0 011.91 1.49l1.33 2.65a3.51 3.51 0 01-.11 3.81L10 13.54l1.6 3.37 1.16 2h1.84a3.31 3.31 0 012.92 1.82c.28.5.5 1 .77 1.49s.55 1 .83 1.6a2.7 2.7 0 01.06 2.26 2.48 2.48 0 01-1.71 1.43 10.87 10.87 0 01-2.65.33zM7.49 6a.67.67 0 00-.5.22 8 8 0 00-2.65 4 3.86 3.86 0 00.28 2.81L10 23.64a3.77 3.77 0 002 1.88 8.45 8.45 0 005 .22.63.63 0 00.44-.39.6.6 0 000-.61c-.28-.55-.55-1-.83-1.55a13.33 13.33 0 01-.77-1.55 1.42 1.42 0 00-1.21-.77l-2.37.06a.91.91 0 01-.83-.5L10 17.85v-.06l-1.91-3.91a.93.93 0 01.11-1L9.64 11c.11-.17.5-.66-.06-1.82L8.2 6.54A.82.82 0 007.65 6h-.16z"/><path d="M29.44 13.16l-4.69-4.64a1.07 1.07 0 00-1.55 0 1.07 1.07 0 000 1.54l2.8 2.77H13.67a1.1 1.1 0 000 2.21H26l-2.76 2.76a1.07 1.07 0 000 1.55 1.07 1.07 0 001.54 0l4.63-4.63a1.12 1.12 0 00.06-1.55z"/></svg>