<svg data-name="Layer 1" xmlns="http://www.w3.org/2000/svg" viewBox="0 0 32 32"><path d="M29.65 24.91c-.55-1.1-1.16-2.21-1.71-3.37a2.5 2.5 0 00-2.26-1.38l-3.09.06-3.59-7 2-2a2.72 2.72 0 00.06-3l-1.4-2.95a1.83 1.83 0 00-2.87-.66 10 10 0 00-3.2 4.85 5.07 5.07 0 00.41 3.81l1.77 3.42L18 21.16l1.77 3.53a5.08 5.08 0 002.81 2.54 10 10 0 006 .28 1.89 1.89 0 001.1-2.59zM12 17.63l-5.41-.06 1.66-1.65a1.29 1.29 0 00-1.78-1.82l-3.86 3.8a.77.77 0 00-.17.22c0 .06-.06.06-.06.11s-.06.06-.06.11-.06.11-.06.17-.06.06-.06.11-.06.17-.06.28l.06.06a.21.21 0 00.06.17c0 .06.06.06.06.11s0 .06.06.11a.19.19 0 00.06.11c0 .06.06.06.06.11s.06.11.11.17a.05.05 0 00.06.06l3.81 3.86a1.29 1.29 0 00.94.39 1.1 1.1 0 00.88-.39 1.3 1.3 0 000-1.82l-1.66-1.73h5.46a1.25 1.25 0 001.27-1.27A1.29 1.29 0 0012 17.63z"/></svg>