<svg viewBox="0 0 28 28" fill="none" xmlns="http://www.w3.org/2000/svg"><path d="M17.431 20.583c-.51-1.009-1.583-1.625-2.713-1.625l-3.673.056-4.24-8.293 2.488-2.408c.678-.897.79-2.13.056-3.586L7.598 1.31C6.919-.035 5.337-.427 4.149.525A11.974 11.974 0 00.25 6.24a6.042 6.042 0 00.452 4.538l2.09 4.09 2.714 5.267 2.148 4.146c.678 1.4 1.865 2.466 3.334 3.025 2.261.84 4.805.897 7.122.28 1.3-.336 1.978-1.849 1.356-3.025-.678-1.344-1.356-2.633-2.034-3.977v-.001zM27.944 7.417V6.8s-.057-.169-.057-.225V6.52c-.056-.111-.112-.168-.17-.28 0-.056-.056-.056-.056-.112-.056-.055-.056-.111-.113-.111-.056-.056-.112-.112-.17-.112l-.056-.056c-.113-.056-.17-.112-.283-.112L20.934 3.44c-.79-.28-1.695.112-1.978.897-.282.785.113 1.68.905 1.961l2.6.953-8.705 3.81a1.514 1.514 0 00-.79 2.016c.226.56.79.897 1.412.897.227 0 .396-.056.622-.112l8.817-3.866L22.8 12.63c-.283.783.113 1.68.905 1.96.17.056.339.112.565.112a1.51 1.51 0 001.413-1.008L28 7.64v-.11c-.113 0-.113-.056-.056-.112z"/></svg>