<svg viewBox="0 0 27 24" fill="none" xmlns="http://www.w3.org/2000/svg"><path clip-rule="evenodd" d="M13.518 22.286C20.933 22.286 27 17.314 27 11.143 27 4.97 20.933 0 13.518 0 6.101 0 .034 4.971.034 11.143c0 2.657 1.095 5.143 2.95 7.028-.59 1.886-1.518 3.686-2.866 5.143-.084.086-.168.257-.084.429A.462.462 0 00.456 24c2.697 0 5.309-1.029 7.416-2.743 1.77.686 3.707 1.029 5.646 1.029zm4.766-13.408a.271.271 0 000-.372L17.05 7.272a.271.271 0 00-.373 0l-2.9 2.9-2.9-2.9a.271.271 0 00-.372 0L9.272 8.506a.27.27 0 000 .372l2.9 2.9-2.9 2.9a.27.27 0 000 .373l1.234 1.233a.27.27 0 00.372 0l2.9-2.9 2.9 2.9a.27.27 0 00.373 0l1.233-1.233a.271.271 0 000-.373l-2.9-2.9 2.9-2.9z"/></svg>