<svg viewBox="0 0 24 25" fill="none" xmlns="http://www.w3.org/2000/svg"><path d="M12 0C5.374 0 0 5.35 0 11.956c0 6.604 5.37 12.047 12 12.047 6.626 0 12-5.442 12-12.05C24.002 5.35 18.627 0 12 0zm10.323 11.96c0 .61-.062 1.2-.165 1.78h-5.002c.031-.574.05-1.151.05-1.732 0-.585-.02-1.165-.052-1.746h5.016c.092.553.153 1.118.153 1.699zm-20.645 0c0-.578.061-1.145.153-1.698h5.016c-.03.58-.052 1.161-.052 1.746 0 .58.021 1.158.052 1.732H1.844a10.345 10.345 0 01-.166-1.78zm13.899.048c0 .607-.02 1.172-.04 1.732h-7.07a45.19 45.19 0 01-.042-1.732c0-.61.02-1.18.04-1.746h7.068c.023.567.044 1.135.044 1.746zm-6.427 6.95c-.27-.974-.459-2.14-.575-3.479h6.849c-.117 1.34-.308 2.505-.578 3.479H9.15zm5.047 1.74c-.554 1.011-1.281 1.564-2.196 1.564-.917 0-1.644-.553-2.197-1.565h4.393zM8.578 8.521c.116-1.339.307-2.504.578-3.478h5.69c.27.974.462 2.14.579 3.478H8.576zm1.238-5.217c.553-.999 1.274-1.552 2.186-1.552.91 0 1.631.552 2.184 1.552h-4.37zm5.369-1.124c.845.273 1.64.654 2.376 1.124h-1.813a9.279 9.279 0 00-.563-1.124zm-6.93 1.124h-1.81A10.28 10.28 0 018.819 2.18a9.15 9.15 0 00-.563 1.124zm-.605 1.74a22.525 22.525 0 00-.659 3.478H2.284a10.244 10.244 0 012.095-3.478h3.27zm-.66 10.435c.138 1.233.358 2.41.655 3.479H4.418a10.43 10.43 0 01-2.11-3.479h4.68zm1.259 5.218c.168.397.347.77.547 1.108a10.356 10.356 0 01-2.315-1.108h1.768zm7.506 0h1.767c-.718.46-1.492.835-2.316 1.108.2-.337.38-.711.55-1.108zm.602-1.74c.297-1.069.516-2.245.656-3.478h4.68a10.413 10.413 0 01-2.11 3.479h-3.226zm.656-10.435a22.496 22.496 0 00-.66-3.478h3.272a10.242 10.242 0 012.096 3.478h-4.708z"/></svg>