<svg data-name="Layer 1" xmlns="http://www.w3.org/2000/svg" viewBox="0 0 32 32"><path d="M29 18.34a1.25 1.25 0 01.33 1.21 1.29 1.29 0 01-.88.88l-3.31.83.94 3.25a1.27 1.27 0 01-1.55 1.55l-3.25-.94-.83 3.31a1.2 1.2 0 01-.88.88c-.11 0-.22.06-.33.06a1.31 1.31 0 01-.84-.37L16 26.62 13.66 29a1.25 1.25 0 01-1.21.33 1.29 1.29 0 01-.88-.88l-.83-3.31-3.26.94a1.27 1.27 0 01-1.54-1.55l.94-3.26-3.32-.77a1.2 1.2 0 01-.88-.88A1.24 1.24 0 013 18.4L5.38 16 3 13.6a1.25 1.25 0 01-.33-1.21 1.29 1.29 0 01.88-.88l3.31-.83-.99-3.26a1.27 1.27 0 011.55-1.54l3.26.94.82-3.32a1.2 1.2 0 01.88-.88A1.24 1.24 0 0113.6 3L16 5.38 18.4 3a1.25 1.25 0 011.21-.33 1.2 1.2 0 01.88.88l.83 3.31 3.25-.94a1.27 1.27 0 011.55 1.54l-.94 3.26 3.31.83a1.2 1.2 0 01.88.88A1.24 1.24 0 0129 13.6L26.68 16z"/></svg>