<svg viewBox="0 0 16 16" xmlns="http://www.w3.org/2000/svg"><g clip-path="url(#clip0)"><path d="M6 2H1C0.734784 2 0.48043 2.10536 0.292893 2.29289C0.105357 2.48043 0 2.73478 0 3L0 13C0 13.2652 0.105357 13.5196 0.292893 13.7071C0.48043 13.8946 0.734784 14 1 14H6C6.26522 14 6.51957 13.8946 6.70711 13.7071C6.89464 13.5196 7 13.2652 7 13V7.515C5.92335 7.56002 4.87497 7.87315 3.95 8.426C3.65703 8.60383 3.38383 8.81233 3.135 9.048C3.049 9.131 2.987 9.199 2.948 9.248C2.928 9.271 2.914 9.287 2.907 9.297L2.9 9.3L2.5 9L2.1 8.7L2.106 8.692L2.125 8.668C2.141 8.649 2.163 8.622 2.191 8.59C2.248 8.525 2.33 8.436 2.439 8.332C2.73863 8.0468 3.06783 7.79438 3.421 7.579C4.50513 6.92779 5.73624 6.56111 7 6.513V3C7 2.73478 6.89464 2.48043 6.70711 2.29289C6.51957 2.10536 6.26522 2 6 2ZM14 2H9C8.73478 2 8.48043 2.10536 8.29289 2.29289C8.10536 2.48043 8 2.73478 8 3V6.513C9.20112 6.53988 10.3681 6.91775 11.357 7.6C11.5893 7.76686 11.8046 7.9561 12 8.165V6.5H13V10H9.5V9H11.4C11.2179 8.77475 11.0063 8.57496 10.771 8.406C9.95281 7.84754 8.99035 7.53806 8 7.515V13C8 13.2652 8.10536 13.5196 8.29289 13.7071C8.48043 13.8946 8.73478 14 9 14H14C14.2652 14 14.5196 13.8946 14.7071 13.7071C14.8946 13.5196 15 13.2652 15 13V3C15 2.73478 14.8946 2.48043 14.7071 2.29289C14.5196 2.10536 14.2652 2 14 2Z"/></g><defs><clipPath><rect/></clipPath></defs></svg>