<svg viewBox="0 0 40 40" xmlns="http://www.w3.org/2000/svg"><g fill="none" fill-rule="evenodd"><circle fill="#FFF" cx="20" cy="20" r="20"/><path d="M20 40c11.046 0 20-8.954 20-20S31.046 0 20 0 0 8.954 0 20s8.954 20 20 20zm-9.548-10.548l1.93-5.808 5.292 3.697-5.49 3.455c-.94.624-2.127-.288-1.732-1.344zm15.93-7.296c0 .096 0 .144.048.24l2.622 7.103c.346 1.009-.84 1.92-1.78 1.296l-6.778-4.559a2.295 2.295 0 00-.346-.144l-7.222-5.04-.05-.048-4.452-3.6c-.841-.671-.346-2.016.742-2.016h5.887c.495 0 .94-.288 1.089-.72l2.67-6.912c.348-1.008 1.832-1.008 2.178 0l2.572 6.864c0 .048.05.145.099.193l2.72 7.343zm-.05-6.768h4.502c1.088 0 1.583 1.345.742 2.016l-3.364 3.024-1.88-5.04z" fill="#33383D"/></g></svg>