<svg viewBox="0 0 16 16" xmlns="http://www.w3.org/2000/svg"><g clip-path="url(#clip0)"><path d="M13.707 2.293C13.5195 2.10545 13.2652 2.00006 13 2H12V4H4V2H3C2.73478 2 2.48043 2.10536 2.29289 2.29289C2.10536 2.48043 2 2.73478 2 3V14C2 14.2652 2.10536 14.5196 2.29289 14.7071C2.48043 14.8946 2.73478 15 3 15H13C13.2652 15 13.5196 14.8946 13.7071 14.7071C13.8946 14.5196 14 14.2652 14 14V3C13.9999 2.73481 13.8945 2.48049 13.707 2.293ZM10.95 11.108L10.108 11.951L8 9.844L5.894 11.951L5.051 11.108L7.158 9L5.051 6.894L5.894 6.051L8 8.158L10.107 6.051L10.95 6.894L8.843 9L10.95 11.108ZM11 1H9C9 0.734784 8.89464 0.48043 8.70711 0.292893C8.51957 0.105357 8.26522 0 8 0C7.73478 0 7.48043 0.105357 7.29289 0.292893C7.10536 0.48043 7 0.734784 7 1H5V3H11V1Z"/></g><defs><clipPath><rect/></clipPath></defs></svg>