<svg data-name="Layer 1" xmlns="http://www.w3.org/2000/svg" viewBox="0 0 32 32"><path d="M19.75 11.71a1.6 1.6 0 01-1.61-1.61V1H4.75a1.55 1.55 0 00-1.14.47 1.55 1.55 0 00-.47 1.14v26.78A1.6 1.6 0 004.75 31h22.5a1.6 1.6 0 001.61-1.61V11.71zM22.43 24a.51.51 0 01-.53.54H10.11a.52.52 0 01-.54-.54v-1a.52.52 0 01.15-.38.51.51 0 01.39-.15h11.78a.51.51 0 01.53.53zm0-4.29a.51.51 0 01-.53.53H10.11a.51.51 0 01-.39-.15.52.52 0 01-.15-.38v-1.03a.52.52 0 01.54-.54h11.78a.51.51 0 01.53.54zm0-4.29a.51.51 0 01-.53.54H10.11a.52.52 0 01-.54-.54v-1.03a.52.52 0 01.54-.53h11.78a.52.52 0 01.39.15.52.52 0 01.15.38z"/><path d="M27.72 9a3.5 3.5 0 01.47.6h-7.9V1.67a3.7 3.7 0 01.6.47z"/></svg>