<svg viewBox="0 0 16 16" xmlns="http://www.w3.org/2000/svg"><path d="M14.9369 6.97998C14.8581 6.1875 14.6386 5.41542 14.2889 4.69998C13.9344 3.99624 13.4372 3.37399 12.8292 2.87282C12.2211 2.37166 11.5154 2.00255 10.7569 1.78898L10.6699 1.76998C11.353 2.36391 11.8881 3.10898 12.2329 3.94598C12.5991 4.77434 12.7514 5.68142 12.6759 6.58398C12.5217 6.25185 12.3009 5.95495 12.0272 5.71171C11.7535 5.46847 11.4328 5.28408 11.0849 5.16998C11.1849 5.31198 11.2789 5.41898 11.3499 5.53898C11.7432 6.21139 11.9413 6.98018 11.9219 7.75898C11.9273 8.13719 11.8567 8.51265 11.7143 8.86307C11.5719 9.2135 11.3606 9.53176 11.0929 9.79897C10.5117 10.3737 9.7787 10.7709 8.97986 10.944C8.51787 11.0609 8.03524 11.0705 7.56897 10.972C7.10269 10.8736 6.66515 10.6697 6.28986 10.376L6.20486 10.296C6.25391 10.3025 6.30339 10.3052 6.35286 10.304C6.65977 10.3021 6.96631 10.2821 7.27086 10.244C7.60752 10.1784 7.92659 10.0427 8.20727 9.84557C8.48795 9.64845 8.72394 9.3944 8.89986 9.09998C8.91484 9.07135 8.93789 9.04776 8.96615 9.03211C8.99442 9.01647 9.02665 9.00947 9.05886 9.01198C9.17348 9.01431 9.28796 9.0029 9.39986 8.97798C9.49456 8.96482 9.5832 8.92373 9.65444 8.85997C9.72569 8.7962 9.77632 8.71265 9.79986 8.61998C9.81828 8.52739 9.81044 8.4315 9.77721 8.34315C9.74399 8.25479 9.68671 8.17749 9.61186 8.11998L9.46686 8.01998C9.29803 7.93174 9.11036 7.88566 8.91986 7.88566C8.72936 7.88566 8.54169 7.93174 8.37286 8.01998C8.15986 8.13198 7.95186 8.25798 7.73386 8.35898C7.51308 8.46519 7.28314 8.5512 7.04686 8.61598C6.73819 8.70391 6.40739 8.66781 6.12496 8.51538C5.84252 8.36296 5.63078 8.10625 5.53486 7.79998C5.45977 7.57402 5.47666 7.32758 5.58186 7.11398C5.94286 7.28598 6.29486 7.45298 6.66386 7.63098C6.62586 7.13098 6.58786 6.64898 6.54986 6.16498L6.66986 6.12998C7.04674 6.05337 7.40174 5.89347 7.70886 5.66198C7.85786 5.5463 7.97618 5.39581 8.05343 5.22371C8.13067 5.05162 8.16447 4.86319 8.15186 4.67498C8.15417 4.65432 8.15186 4.6334 8.14508 4.61375C8.13831 4.5941 8.12724 4.5762 8.11269 4.56136C8.09813 4.54652 8.08046 4.5351 8.06094 4.52795C8.04142 4.52079 8.02056 4.51806 7.99986 4.51998C7.77486 4.51098 7.55086 4.50598 7.32686 4.48098C6.97186 4.43998 6.61586 4.38598 6.26286 4.33598C6.18686 4.32498 6.14886 4.28698 6.16286 4.21098C6.19058 4.01453 6.23747 3.82128 6.30286 3.63398C6.57767 3.01606 6.96299 2.4535 7.43986 1.97398L7.51186 1.89998L7.48986 1.86198C6.9048 1.87867 6.33048 2.02322 5.80721 2.28545C5.28394 2.54769 4.82441 2.92127 4.46086 3.37998C4.11769 3.26009 3.74436 3.25798 3.39986 3.37398C3.42686 2.66598 3.45386 1.96298 3.48386 1.22498C3.42686 1.27698 3.39686 1.30198 3.36686 1.33198C2.95525 1.7241 2.60439 2.17539 2.32586 2.67098C1.36411 4.32761 0.907717 6.2293 1.01286 8.14198C1.04969 9.32828 1.41113 10.4818 2.05786 11.477C2.76932 12.6601 3.82149 13.6008 5.07659 14.1759C6.33169 14.751 7.7312 14.9337 9.09186 14.7C10.4162 14.5225 11.6511 13.9331 12.6219 13.015C13.6832 12.089 14.4452 10.8682 14.8109 9.50798C15.0123 8.68086 15.0551 7.82303 14.9369 6.97998Z"/></svg>