<svg xmlns="http://www.w3.org/2000/svg" viewBox="0 0 16 16"><path d="M14.528 3.791l-1.443 1.443a.83.83 0 01-1.173 0l-1.15-1.15a.83.83 0 010-1.173l1.441-1.441a3.322 3.322 0 00-4.197 3.202c0 .292.042.573.112.843L5.611 8.022l-.095.096a3.31 3.31 0 00-.844-.112 3.322 3.322 0 00-3.322 3.322c0 .303.044.596.121.875l1.438-1.438a.83.83 0 011.173 0l1.15 1.15a.83.83 0 010 1.173l-1.44 1.44c.281.077.575.122.88.122a3.322 3.322 0 003.322-3.322c0-.31-.046-.607-.125-.892l.014.039.091-.091 2.505-2.505a3.3 3.3 0 00.849.114 3.322 3.322 0 003.322-3.322c0-.305-.045-.599-.122-.88z"/></svg>