<svg xmlns="http://www.w3.org/2000/svg" viewBox="0 0 16 16"><path d="M15 1.592V14h-1.215c-.816 0-2.853 0-4.317 1h5.317c.552 0 1.215-.855 1.215-1.408v-11c0-.553 0-1-1-1zM1 14V1.592c-1 0-1 .447-1 1v11C0 14.145.232 15 .785 15h5.249c-.867-1-2.264-1-4.249-1H1z"/><path d="M14 .592c-2 0-3.607.5-4.607 1s-1.554 1-1.554 1a4.935 4.935 0 00-1.369-1C4.431.596 2 .592 2 .592v12c4 0 6 2 6 2 1.917-2 6-2 6-2v-12zM6.285 11h-3a.5.5 0 010-1h3a.5.5 0 110 1zm0-2h-3a.5.5 0 010-1h3a.5.5 0 110 1zm0-2h-3a.5.5 0 010-1h3a.5.5 0 110 1zm0-2h-3a.5.5 0 010-1h3a.5.5 0 110 1zm6 6h-3a.5.5 0 010-1h3a.5.5 0 110 1zm0-2h-3a.5.5 0 010-1h3a.5.5 0 110 1zm0-2h-3a.5.5 0 010-1h3a.5.5 0 110 1zm0-2h-3a.5.5 0 010-1h3a.5.5 0 110 1z"/></svg>