<svg xmlns="http://www.w3.org/2000/svg" viewBox="0 0 16 16"><path d="M15.353 1.453a.494.494 0 00-.634-.051L1.142 14.9a.5.5 0 00.711.703L3.462 14l.459-.457A6.819 6.819 0 007.998 14.9H8c3.811 0 6.899-3.129 6.899-6.928a6.81 6.81 0 00-1.326-4.041l1.78-1.771a.5.5 0 000-.707zm-5.311 5.994c.006.184.014.361.014.557 0 .35-.012.672-.023.996H8.484l1.558-1.553zM5.49 11.98l.005.02h-.024l.019-.02zM4.826 13h1.016c.098.229.2.443.315.637A5.93 5.93 0 014.826 13zm3.173.9c-.526 0-.944-.318-1.263-.9h2.526c-.319.582-.737.9-1.263.9zM6.361 12a9.167 9.167 0 01-.157-.729L7.48 10h2.489c-.067.77-.178 1.439-.332 2H6.361zm3.48 1.637c.115-.193.219-.408.315-.637h1.017c-.413.264-.858.48-1.332.637zM12.359 12h-1.855c.172-.615.298-1.291.378-2h2.69a5.997 5.997 0 01-1.213 2zm1.575-4.023c0 .35-.036.689-.095 1.023h-2.877a17.43 17.43 0 000-2h2.884c.054.318.088.643.088.977zM13.587 6h-2.092L12 5.498l.862-.857c.292.421.55.867.725 1.359zM3.221 11.443c-.321-.445-.604-.92-.794-1.443h2.244L5.96 8.715c-.007-.233-.016-.463-.016-.711 0-.352.011-.678.023-1.004h1.718L8.69 6H6.031c.067-.77.177-1.439.332-2h3.272c.073.266.135.559.189.871l.712-.709c-.014-.051-.02-.111-.035-.162h.197l1.486-1.479A6.856 6.856 0 008 1.1c-3.811 0-6.9 3.076-6.9 6.875 0 1.562.531 3.008 1.414 4.172l.707-.704zM11.195 3h-1.042a5.331 5.331 0 00-.324-.646c.487.156.944.376 1.366.646zm-3.196-.893c.523 0 .938.316 1.258.893H6.743c.317-.576.733-.893 1.256-.893zm-1.831.247A5.479 5.479 0 005.845 3H4.804c.422-.27.879-.49 1.364-.646zM3.617 4h1.881a12.812 12.812 0 00-.379 2H2.412a5.89 5.89 0 011.205-2zM2.065 7.977c0-.332.034-.658.088-.977h2.884c-.018.332-.03.668-.03 1.004 0 .332.012.664.028.996H2.159a5.96 5.96 0 01-.094-1.023z"/></svg>