<svg xmlns="http://www.w3.org/2000/svg" viewBox="0 0 92 92"><path d="M0 0v92h92V0H0zm34.396 51.242a3.391 3.391 0 01-2.557 1.156 3.402 3.402 0 01-2.554-5.643 1.47 1.47 0 00.368-.979 1.44 1.44 0 00-.309-.9 3.4 3.4 0 015.355-4.19 8.32 8.32 0 011.754 5.085 8.262 8.262 0 01-2.057 5.471zm7.53 11.18a3.402 3.402 0 01-2.451-5.756 15.648 15.648 0 004.379-10.889c0-4.037-1.523-7.868-4.289-10.791a3.404 3.404 0 01.133-4.809 3.406 3.406 0 014.808.133 22.423 22.423 0 016.149 15.467 22.424 22.424 0 01-6.275 15.6 3.399 3.399 0 01-2.454 1.045zM54.9 71.975A3.39 3.39 0 0152.467 73a3.398 3.398 0 01-2.434-5.774c5.628-5.766 8.726-13.383 8.726-21.449.001-8.016-3.06-15.596-8.621-21.346a3.4 3.4 0 014.888-4.728c6.795 7.024 10.535 16.284 10.533 26.073 0 9.852-3.786 19.156-10.659 26.199z"/></svg>