<svg xmlns="http://www.w3.org/2000/svg" viewBox="0 0 16 16"><path d="M14 1H2a1 1 0 00-1 1v11a1 1 0 001 1h12a1 1 0 001-1V2a1 1 0 00-1-1zm0 10H2V2h12v9z"/><path d="M6.842 9.974a.503.503 0 00.633-.316l2-6a.502.502 0 00-.316-.633.503.503 0 00-.634.317l-2 6a.501.501 0 00.317.632zM3.649 6.856l1.252 1.253c.194.194.513.194.707 0s.194-.513 0-.707L4.707 6.5l.94-.94c.194-.195.194-.513 0-.707s-.513-.194-.707 0L3.649 6.144l-.003.002c-.098.097-.146.226-.146.354s.048.257.146.354l.003.002zm7.644-.356l-.902.902c-.194.194-.194.513 0 .707s.513.194.707 0l1.252-1.253.004-.002c.098-.097.146-.226.146-.354s-.048-.257-.146-.354l-.004-.002-1.29-1.291c-.194-.194-.513-.194-.707 0s-.194.512 0 .707l.94.94z"/></svg>