<svg xmlns="http://www.w3.org/2000/svg" viewBox="0 0 16 16"><path d="M12.814 12.487C14.119 11.875 15 10.771 15 9.5c0-.582-.2-1.123-.523-1.605C13.727 6.773 12.237 6 10.5 6 8.015 6 6 7.566 6 9.5c0 .518.153 1.006.413 1.447C7.122 12.156 8.681 13 10.5 13c.022 0 .042-.005.063-.005C11.22 13.868 12.542 15 15 15c0 0-1.977-.659-2.186-2.513z"/><path d="M4.6 9.5c0-2.702 2.646-4.9 5.9-4.9 1.27 0 2.48.345 3.473.949C13.676 2.999 10.892 1 7.5 1 3.91 1 1 3.238 1 6c0 1.48.837 2.811 2.167 3.727C3.5 12.161 1 13 1 13c2.065 0 3.444-.511 4.354-1.111A4.224 4.224 0 014.6 9.5z"/></svg>