<svg xmlns="http://www.w3.org/2000/svg" viewBox="0 0 16 16"><path d="M13.151 12.499l2.15-2.149-.652-.652-2.149 2.15-2.148-2.15-.653.652 2.151 2.149-2.15 2.149.652.652 2.148-2.15 2.149 2.15.652-.652zM4.405 5.488c.2.064.229 1.038.731 1.728.395.536.952 1.214 1.59 1.318.076.016.472.016.547 0 .64-.104 1.196-.782 1.589-1.318.507-.689.532-1.663.732-1.728.237-.075.371-.705.371-1.43 0-.141-.282-.337-.309-.464l.002-.019C9.542 2.306 8.414 1 7.034 1h-.068C5.586 1 4.457 2.306 4.34 3.576c-.002.002.001.012.001.015-.026.126-.306.325-.306.465 0 .725.133 1.357.37 1.432z"/><path d="M7.719 10.349l1.157-1.156a5.178 5.178 0 01-.212-.442L7 9.898 5.336 8.751s-.261.659-.521.872c-.055.04-.111.078-.168.116l.001.001c-1.331.906-3.083 1.304-3.411 1.621C.614 11.965.389 13.25.29 14h8.078l1.501-1.501-2.15-2.15z"/></svg>