<svg xmlns="http://www.w3.org/2000/svg" viewBox="0 0 16 16"><path d="M15 2H2c-.553 0-1 .385-1 .938v9C1 12.49 1.447 13 2 13h12.999c.553 0 1.001-.51 1.001-1.062V3a1 1 0 00-1-1zM5 5.226V5.22c0-.822.764-1.47 1.654-1.47h.12c.888 0 1.726.648 1.726 1.469v.006c0 .013.008.029.015.045.042.079.165.179.165.254 0 .468-.084.875-.238.924-.13.041-.156.67-.481 1.114-.256.348-.621.785-1.034.852a1.615 1.615 0 01-.212.007 1.58 1.58 0 01-.211-.007c-.413-.067-.775-.504-1.029-.852-.325-.444-.342-1.073-.471-1.114-.154-.049-.221-.456-.221-.924 0-.09.217-.216.217-.298zM2.344 12c.063-.75.211-1.342.612-1.731.22-.213 1.441-.493 2.31-1.131.168-.138.337-.574.337-.574l1.074.736 1.074-.74s.169.427.336.563c.869.638 2.089.933 2.31 1.146.402.39.549.981.613 1.731H2.344zM15 7h-4V6h4v1zm0-2h-4V4h4v1z"/></svg>