<svg xmlns="http://www.w3.org/2000/svg" viewBox="0 0 16 16"><path d="M10.978 5.048v-.025A5.5 5.5 0 002.766.729c.176.004.35.026.521.068.181.047.353.053.537.025A2.43 2.43 0 014.175.79c.232 0 .434.056.613.168.029.019.142.051.212.013.142-.075.332-.059.479-.028.045.01.091.02.136.022l.05.003c.038 0 .05-.007.05-.007a.321.321 0 01.26-.256l.061-.007c.031 0 .184.009.223.188a.25.25 0 01.177-.081h.082l.09.076a.237.237 0 01.066.194c-.017.116-.112.172-.162.203-.102.105-.263.107-.391.102l-.01.018.001.001-.042.063-.058.015-.015.004-.005.001c-.033.013-.062.013-.079.013v-.003c-.024.005-.047.007-.069.009l-.002-.006a.566.566 0 01-.164.015v.072l-.081.012a.28.28 0 01-.094.193c.048.019.088.045.121.064.02.013.044.029.056.032.037.01.137.035.203.117.061-.053.123-.085.165-.107l.221-.03-.193-.009a.51.51 0 01.516-.491.51.51 0 01.267.073c.036.02.112.065.151.141l.196-.089.1.148c.052.093.063.183.073.254.003.026.006.053.012.078.003.009.005.014.006.022.114.014.206.11.216.231a.299.299 0 01-.169.292 1.149 1.149 0 01-.555.163h-.041a.098.098 0 01-.006.023l.061.041.028.176-.189.168c-.135-.032-.24-.019-.335.046-.082.055-.166.104-.249.155-.164.1-.318.192-.451.312a.54.54 0 01-.22.347.974.974 0 01-.173.107c-.05.027-.097.054-.133.081-.011.033-.007.078.006.157l.008.06c.031.316-.158.37-.217.379l-.046.003c-.073 0-.202-.028-.248-.224a.286.286 0 01-.032-.161.577.577 0 00-.13-.035.312.312 0 01-.332.083c-.185-.059-.289.11-.312.178l-.025.074c-.044.123-.059.177-.033.241.009.02.03.064.041.077.072-.009.089-.033.097-.044.025-.062.075-.173.218-.207.096-.031.217-.04.307.029.041.032.164.15.054.343a.309.309 0 01-.029.069.315.315 0 01.218.11c.057.073.075.168.052.28l-.014.067c-.019.075-.024.11-.019.129.04.021.068.049.089.076l.17.055c.014 0 .022-.008.041-.005.12-.224.339-.234.518-.245l.03.008c.014-.005.031 0 .052 0h.037l.034.017c.078.071.18.08.297.097.124.018.263.036.381.13.14.163.251.25.441.26.03.001.125.047.233.106a5.496 5.496 0 00-1.624 2.16c-.013-.121-.027-.229-.043-.235-.252-.102-.359-.309-.456-.491-.025-.048-.05-.096-.077-.142a.844.844 0 01-.051-.099c-.027-.06-.05-.112-.093-.144-.036-.028-.12-.13-.077-.216.027-.051.026-.114.026-.186-.001-.12-.003-.268.134-.389.114-.1.144-.215.096-.351l-.104.056a.235.235 0 01-.227-.039l-.028-.012c-.11-.054-.278-.141-.355-.35-.007-.009-.05-.032-.078-.049-.028-.018-.057-.035-.084-.054-.144-.1-.312-.144-.489-.189-.063-.018-.127-.034-.191-.054a1.21 1.21 0 01-.304-.149c-.093-.059-.3-.191-.215-.474a.137.137 0 01-.03-.029l-.07.334-.254-.424-.049-.076c-.069-.104-.152-.229-.158-.393a.386.386 0 01-.038-.254c-.222-.177-.213-.422-.207-.583l.003-.089c0-.116.065-.191.115-.232.011-.027.024-.055.039-.084.048-.087.106-.162.163-.232.05-.062.099-.122.128-.184l.05-.101c-.057-.131-.028-.268-.009-.358l.011-.055.136.024v-.073l-.126.011-.007-.007-.096-.007-.075-.107c-.013-.026-.027-.061-.147-.063l-.176.008c-.138.008-.269.014-.365.08a.76.76 0 01-.153.07 1.136 1.136 0 01-.112.032c-.019.004-.037.01-.055.015a.658.658 0 01-.235.132A5.474 5.474 0 000 5.5a5.502 5.502 0 005.022 5.479h.025a5.48 5.48 0 005.453 4.996 5.48 5.48 0 005.475-5.475 5.48 5.48 0 00-4.997-5.452zm-.478 9.927c-2.467 0-4.475-2.007-4.475-4.475S8.033 6.025 10.5 6.025s4.475 2.007 4.475 4.475-2.008 4.475-4.475 4.475z"/><path d="M12.75 10H11V7.5a.5.5 0 00-1 0V11h2.75a.5.5 0 000-1z"/></svg>