<svg xmlns="http://www.w3.org/2000/svg" viewBox="0 0 16 16"><path d="M13.101 9.469l-.896-.81-.003-.005-.005-.006v.001l-.021-.024a4.16 4.16 0 00.05-.625c0-.212-.02-.419-.051-.623l.021-.024.004-.005.003-.006.896-.81c.425-.365.545-.766.306-1.173l-.462-.788c-.239-.408-.646-.499-1.172-.306l-1.136.385a4.177 4.177 0 00-1.083-.642l-.238-1.15C9.213 2.307 8.93 2 8.457 2h-.914c-.473 0-.756.307-.857.857l-.238 1.15c-.394.16-.758.377-1.083.643l-1.137-.384c-.526-.194-.933-.103-1.172.305l-.463.788c-.239.408-.119.808.306 1.173l.896.81.003.006.005.005.021.024c-.031.204-.05.411-.05.623 0 .213.02.42.051.625l-.022.024v-.001a.031.031 0 01-.004.006l-.004.005-.896.81c-.424.366-.545.765-.306 1.173l.462.789c.239.408.646.497 1.173.305l1.138-.384c.324.266.687.482 1.081.642l.239 1.149c.101.552.384.857.857.857h.914c.473 0 .756-.305.857-.857l.239-1.149a4.165 4.165 0 001.081-.642l1.138.384c.526.192.934.104 1.173-.305l.462-.789c.239-.409.118-.807-.306-1.173zM8 10.467a2.466 2.466 0 110-4.932 2.466 2.466 0 010 4.932z"/></svg>