<svg xmlns="http://www.w3.org/2000/svg" viewBox="0 0 16 16"><path d="M15 14l-2-3-2 3zm-5.973-1.076a10.227 10.227 0 01-.077-1.101V6.717c0-1.148-.346-2.029-1.08-2.643-.729-.609-1.679-.914-2.882-.914-1.215 0-2.206.319-2.974.959C1.326 4.693.983 5.32.949 6h1.865c.065-.321.244-.605.545-.85.384-.316.888-.473 1.516-.473.691 0 1.223.182 1.602.544.378.362.556.854.556 1.476v1.191H4.96c-1.405 0-2.517.215-3.339.786C.802 9.245.393 9.966.393 10.979c0 .995.289 1.771.867 2.337.577.568 1.419.852 2.523.852.665 0 1.288-.174 1.867-.517a4.52 4.52 0 001.406-1.276c.006.246.027.496.063.741.035.245.086.531.151.852h1.989a5.522 5.522 0 01-.232-1.044zm-1.994-2.151c0 .464-.523.875-1.084 1.234a3.39 3.39 0 01-1.88.539c-.576 0-1.009-.122-1.305-.396-.293-.274-.44-.632-.44-1.102 0-.531.234-.961.7-1.353.468-.393 1.09-.529 1.867-.529h2.142v1.607z"/></svg>