<svg xmlns="http://www.w3.org/2000/svg" viewBox="0 0 16 16"><circle cx="8" cy="8" r="2.921"/><path d="M15.835 7.608C15.739 7.38 13.413 2 8 2 2.581 2 .261 7.38.164 7.609L0 8l.164.391C.261 8.62 2.581 14 8 14a7.57 7.57 0 001.287-.119l-1.916-1.915C4.363 11.638 2.707 9.013 2.175 8 2.744 6.917 4.592 4 8 4c2.023 0 3.494 1.031 4.477 2.094l.082.089A9.12 9.12 0 0113.824 8c-.08.151-.188.342-.318.552l.826 2.065h.141c.885-1.129 1.322-2.13 1.362-2.226L16 8l-.165-.392z"/><path d="M13.385 12.018L12.5 9.806l-.885 2.212H9.402l1.77 1.769L10.287 16l2.213-1.327L14.713 16l-.826-2.218 1.711-1.764z"/></svg>