<svg xmlns="http://www.w3.org/2000/svg" viewBox="0 0 16 16"><path d="M9.984 9.978v.002V9H12V1a1 1 0 00-1-1H1a1 1 0 00-1 1v10a1 1 0 001 1h8.731l.253-2.022zm-5.62.05a5.457 5.457 0 01-2.987-.887 3.883 3.883 0 002.885-.814 1.957 1.957 0 01-1.821-1.372 1.972 1.972 0 00.88-.032 1.97 1.97 0 01-1.562-1.934l.001-.025c.261.147.562.236.882.247a1.98 1.98 0 01-.867-1.643c0-.361.096-.7.264-.991a5.507 5.507 0 004.015 2.061 2.02 2.02 0 01-.05-.449c0-1.09.872-1.973 1.947-1.973.561 0 1.066.239 1.422.623a3.894 3.894 0 001.238-.479 1.98 1.98 0 01-.857 1.091c.395-.048.77-.154 1.119-.311A3.993 3.993 0 019.9 4.162c.004.083.006.169.006.255 0 2.605-1.959 5.611-5.542 5.611z"/><path d="M16 16l-.439-3h-.311L15 11v-1h-1v1h-2v-1h-1v1l-.25 2h-.311L10 16h2.5l-.52-3h2.04l-.52 3z"/></svg>