<svg xmlns="http://www.w3.org/2000/svg" viewBox="0 0 16 16"><path d="M15.835 7.608C15.739 7.38 13.413 2 8 2 2.581 2 .261 7.38.165 7.609L0 8l.165.391C.261 8.62 2.581 14 8 14c.424 0 .828-.036 1.215-.098-.303-.571-.505-1.16-.578-1.707a1.678 1.678 0 01-.014-.229A5.726 5.726 0 018 12c-3.409 0-5.257-2.919-5.825-4C2.744 6.917 4.592 4 8 4c3.404 0 5.256 2.918 5.824 4a9.155 9.155 0 01-1.29 1.846l.506.506c.358.359.522.84.496 1.312 1.525-1.483 2.247-3.147 2.299-3.272L16 8l-.165-.392z"/><path d="M10.921 8A2.92 2.92 0 108 10.921c.261 0 .513-.038.753-.102.142-.397.381-.783.693-1.104l.208-.234.029-.029a1.733 1.733 0 011.077-.505c.103-.297.161-.615.161-.947zm3.712 5.923a.316.316 0 00-.224-.091.346.346 0 00-.243.102l-.128.129-.182.18a.92.92 0 01-.649.271.84.84 0 01-.596-.242l-.152-.152-.33-.329-.429-.429c-.011-.012-.015-.027-.025-.039a.879.879 0 01.055-1.207l.103-.1.079-.078.129-.129a.332.332 0 00.01-.467l-.387-.388-.008-.007-.516-.517a.312.312 0 00-.223-.091.343.343 0 00-.243.102l-.205.231c-.24.239-.408.551-.451.821-.018.111-.006.255.006.398.003.042-.004.073.001.117.066.493.301 1.117.735 1.748.138.201.294.402.474.601.063.069.12.14.188.208.001.002.004.004.006.004l.005.006C12.437 15.58 13.57 16 14.276 16c.083 0 .16-.006.23-.018.27-.042.582-.211.821-.449l.206-.232a.331.331 0 00.01-.467l-.91-.911z"/></svg>