<svg xmlns="http://www.w3.org/2000/svg" viewBox="0 0 16 16"><path d="M8 1.1a6.9 6.9 0 100 13.8A6.9 6.9 0 008 1.1zm3.773 5.264c.003.08.005.16.005.241 0 2.459-1.849 5.295-5.229 5.295a5.165 5.165 0 01-2.818-.836 3.66 3.66 0 002.721-.771A1.842 1.842 0 014.735 9c.113.023.228.033.346.033.167 0 .33-.021.483-.064A1.855 1.855 0 014.09 7.145v-.023c.247.14.53.223.832.233a1.873 1.873 0 01-.817-1.55c0-.342.091-.661.249-.936a5.205 5.205 0 003.789 1.945 1.864 1.864 0 01-.047-.425 1.85 1.85 0 011.838-1.86c.528 0 1.006.227 1.342.588a3.676 3.676 0 001.167-.452 1.865 1.865 0 01-.808 1.03 3.67 3.67 0 001.055-.293c-.247.371-.558.7-.917.962z"/></svg>