<svg xmlns="http://www.w3.org/2000/svg" viewBox="0 0 16 16"><path d="M12.5 9a3.475 3.475 0 100 6.95 3.475 3.475 0 000-6.95zm1.802 4H12v-2.302a.5.5 0 011 0V12h1.302a.5.5 0 010 1z"/><path d="M5.234 10.873l-.008-.01a.07.07 0 00-.009-.007C3.521 9.161 2.927 7.219 3.09 6.205c.064-.409.32-.881.682-1.244l.311-.349a.5.5 0 01.706-.017l1.38 1.379a.502.502 0 01-.016.707l-.196.196-.119.118-.155.151c-.533.534-.553 1.376-.046 1.885l1.148 1.148.231.229c.368.367.91.454 1.384.274a4.489 4.489 0 011.684-1.972 5.638 5.638 0 01-1.497-1.085l-.006-.008c-.002-.001-.005-.002-.006-.005-1.177-1.177-1.59-2.524-1.478-3.229.045-.282.223-.61.474-.861l.217-.242a.344.344 0 01.489-.013l.957.957a.347.347 0 01-.011.49l-.135.137-.083.083-.108.105c-.369.368-.383.954-.031 1.308l.798.798.159.158c.354.352.938.339 1.308-.031l.191-.188.135-.135a.351.351 0 01.491-.013l.955.958a.317.317 0 01.077.132 4.437 4.437 0 011.923.678 6.9 6.9 0 10-6.181 6.162 4.455 4.455 0 01-.685-2.147c-.881-.326-1.878-.921-2.803-1.846z"/></svg>