<svg xmlns="http://www.w3.org/2000/svg" viewBox="0 0 16 16"><path d="M9 13v-.98c-.092.022-.201.049-.331.078a4.967 4.967 0 01-.669.048c-3.744 0-5.348-3.718-5.414-3.877L2.472 8l.114-.27C2.652 7.571 4.256 3.854 8 3.854c3.74 0 5.348 3.718 5.414 3.876l.114.27-.114.271c-.018.041-.144.33-.385.729h1.796a6.894 6.894 0 00-3.503-7.045c-.009-.005-.016-.012-.024-.017a6.864 6.864 0 00-.966-.43c-.148-.054-.344-.102-.496-.145a.974.974 0 00-.086-.009v-.002c-.5-.163-1.158-.252-1.797-.252-3.811 0-6.877 3.09-6.877 6.9s3.102 6.9 6.912 6.9a6.85 6.85 0 001.866-.264A1.995 1.995 0 019 13z"/><path d="M5.333 8A2.666 2.666 0 008 10.666c.264 0 .515-.045.753-.119l.317-.068a2.013 2.013 0 011.381-1.4c.028-.115.063-.237.11-.373.066-.226.106-.46.106-.706a2.666 2.666 0 00-5.334 0zm3.94 0a1.273 1.273 0 11-2.546 0 1.273 1.273 0 012.546 0zM15 10h-4a1 1 0 00-1 1v2a1 1 0 001 1h1v1.5l1.5-1.5H15a1 1 0 001-1v-2a1 1 0 00-1-1z"/></svg>