<svg xmlns="http://www.w3.org/2000/svg" viewBox="0 0 16 16"><path d="M10.562 8.705l.004-.02A3.041 3.041 0 0010.667 8a2.666 2.666 0 00-5.334 0c0 .148.018.29.043.431.014.087.034.171.057.255l.004.02.001.001a2.658 2.658 0 001.807 1.839l.001.002c.008.003.018.004.026.006.095.027.189.053.289.069.143.025.289.043.439.043s.296-.018.438-.044c.099-.017.194-.042.289-.069.009-.002.018-.003.026-.006l.001-.002a2.656 2.656 0 001.806-1.839l.002-.001zM8 9.273a1.272 1.272 0 11-.001-2.545A1.272 1.272 0 018 9.273zm2.006 2.721L13 13.15l2.994-1.156c-.003-.55-.418-.994-.931-.994h-4.127c-.512 0-.927.444-.93.994zM13 14.396l-3-1.156V15c0 .553.417 1 .933 1h4.134c.516 0 .933-.447.933-1v-1.761l-3 1.157z"/><path d="M8.489 1.122c-.08-.007-.161-.009-.241-.013-.067-.002-.133-.009-.201-.009L8 1.102 7.953 1.1c-.068 0-.134.008-.201.01A6.878 6.878 0 001.076 8c0 3.488 2.602 6.365 5.965 6.828l.021.003c.303.041.611.069.926.069L8 14.899l.012.001c.315 0 .623-.028.927-.069l.021-.003.04-.008v-2.778c-.088.017-.175.035-.264.051a7.63 7.63 0 01-.736.053c-.233 0-.67-.044-.671-.041-1.913-.238-3.188-1.461-3.931-2.465a8.64 8.64 0 01-.344-.502l-.003-.006a7.093 7.093 0 01-.392-.703l-.025-.055-.036-.076-.012-.028L2.472 8l.114-.27c.011-.027.071-.163.175-.361C3.266 6.406 4.897 3.854 8 3.854s4.734 2.553 5.239 3.516c.104.198.164.334.175.361l.114.269-.114.27-.012.028-.035.076-.025.055a7.36 7.36 0 01-.393.704l-.003.005a7.561 7.561 0 01-.629.862h2.306a6.878 6.878 0 00-6.134-8.878z"/></svg>