<svg xmlns="http://www.w3.org/2000/svg" viewBox="0 0 16 16"><path d="M15.835 7.608c-.055-.131-.847-1.95-2.526-3.481l1.398-1.398A.5.5 0 0014 2.022L1.98 14.042a.502.502 0 000 .708.502.502 0 00.707 0l1.676-1.678A7.481 7.481 0 008 14c5.413 0 7.739-5.38 7.835-5.608L16 8l-.165-.392zM8 12a5.56 5.56 0 01-2.14-.424l.929-.929A2.87 2.87 0 008 10.921 2.922 2.922 0 0010.921 8c0-.434-.103-.842-.273-1.211l1.255-1.255c1 .878 1.631 1.912 1.922 2.466-.571 1.084-2.422 4-5.825 4zM2.175 8C2.744 6.917 4.592 4 8 4c.639 0 1.221.106 1.751.281l1.533-1.533A7.449 7.449 0 008 2C2.581 2 .261 7.38.164 7.609L0 8l.164.391c.053.124.76 1.754 2.253 3.225l1.405-1.404A8.988 8.988 0 012.175 8z"/><path d="M5.079 8c0 .288.048.562.128.824l3.617-3.616A2.84 2.84 0 008 5.08 2.92 2.92 0 005.079 8z"/></svg>