<svg xmlns="http://www.w3.org/2000/svg" viewBox="0 0 16 16"><path d="M15.301 10.351l-.652-.652-2.149 2.15-2.148-2.15-.653.652L11.85 12.5 9.7 14.649l.652.652 2.148-2.15 2.149 2.15.652-.652-2.15-2.149z"/><path d="M10.365 7.799L12 9.461V1a1 1 0 00-1-1H1a1 1 0 00-1 1v10a1 1 0 001 1h8.369l-1.65-1.65 2.646-2.551zM1.377 9.143a3.872 3.872 0 002.885-.817 1.955 1.955 0 01-1.821-1.371 1.93 1.93 0 00.88-.033 1.966 1.966 0 01-1.562-1.934l.001-.024c.262.147.562.237.882.247a1.98 1.98 0 01-.867-1.643c0-.361.096-.7.264-.992a5.508 5.508 0 004.015 2.062 2.009 2.009 0 01-.05-.45c0-1.089.872-1.972 1.947-1.972.561 0 1.066.239 1.422.623a3.894 3.894 0 001.238-.479 1.98 1.98 0 01-.857 1.091c.395-.048.77-.154 1.119-.311A3.993 3.993 0 019.9 4.162c.004.084.006.169.006.256 0 2.605-1.959 5.611-5.542 5.611-1.1 0-2.124-.328-2.987-.886z"/></svg>