<svg xmlns="http://www.w3.org/2000/svg" xmlns:xlink="http://www.w3.org/1999/xlink" viewBox="0 0 16 16"><defs><path id="a" d="M0 0h16v16H0z"/></defs><clipPath id="b"><use xlink:href="#a" overflow="visible"/></clipPath><path clip-path="url(#b)" d="M14 1H2a1 1 0 00-1 1v12a1 1 0 001 1h12a1 1 0 001-1V2a1 1 0 00-1-1M5 13H3V6h2v7zm-.999-7.7a1.3 1.3 0 11-.003-2.6 1.3 1.3 0 01.003 2.6M13 13h-2V9.5c0-.811-.277-1.757-1.425-1.757-1.164 0-1.565.844-1.565 1.757L8.002 13H6V6h2v1h.059c.299-.55 1.145-1.17 2.232-1.17C12.344 5.83 13 7.235 13 9.119V13z"/></svg>