<svg xmlns="http://www.w3.org/2000/svg" viewBox="0 0 16 16"><path d="M15.793 9.124l-1.821-1.822c-.253-.249-.671-.239-.934.022l-.257.257-.364.358c-.704.704-1.817.729-2.489.059l-.304-.303-1.517-1.517c-.672-.672-.645-1.785.059-2.49l.206-.2.157-.155.258-.26c.262-.263.271-.681.02-.933L6.984.317c-.25-.25-.668-.241-.932.022l-.41.462c-.479.478-.816 1.102-.902 1.642-.215 1.339.572 3.906 2.812 6.145a.053.053 0 00.012.01.052.052 0 00.01.011c2.24 2.241 4.807 3.027 6.145 2.812.54-.085 1.164-.423 1.643-.9l.411-.463c.261-.263.271-.682.02-.934zm-9.184.516l-.072-.087A12.953 12.953 0 014.588 7H1a1 1 0 00-1 1v5a1 1 0 001 1h2v2l2-2h4a1 1 0 001-1v-.967c-1.078-.505-2.228-1.265-3.334-2.353l-.057-.04z"/></svg>