<svg xmlns="http://www.w3.org/2000/svg" viewBox="0 0 16 16"><path d="M10.854 10.297c-.279-.229-.561-.945-.561-.945L8.5 10.587 6.707 9.354s-.281.713-.561.942c-1.451 1.065-3.486 1.508-3.855 1.863C1.619 12.81 1.377 14 1.271 15h14.457c-.105-1-.348-2.19-1.02-2.841-.368-.355-2.403-.796-3.854-1.862zM15 2h-4a1 1 0 00-1 1v2a1 1 0 001 1h1v1.5L13.5 6H15a1 1 0 001-1V3a1 1 0 00-1-1zM4.584 6.729c-.45-.484-.68-1.299-.68-2.434 0-.05-.005.047.007-.146.012-.191.122-.27.159-.316.037-.046-.008-.073-.008-.073a1.945 1.945 0 00-.539-.098h-.046c-.928 0-1.688.864-1.766 1.719-.002.001 0 0 0 .003-.018.085-.207.216-.207.31 0 .488.091.909.25.96.135.043.154.698.492 1.162.266.361.641.817 1.069.887.051.011.317.011.367 0 .431-.07.806-.526 1.07-.887.046-.062.086-.128.121-.194-.134-.33-.22-.64-.286-.882-.001-.004-.001-.008-.003-.011zm-1.722 3.63c.61-.232 1.409-.537 2.081-.943-.165-.164-.323-.563-.323-.563l-1.12.771-1.12-.77s-.176.445-.35.589c-.659.483-1.509.761-2.013.962v2.58H.25c.248-.774.597-1.375 1.067-1.831.354-.341.829-.521 1.545-.795z"/><path d="M10.869 6.993A2 2 0 019 5V3a1.975 1.975 0 01.811-1.603c-.003-.001.02-.012.017-.014.016-.014.002-.013.002-.013s-.095-.055-.142-.08h-.002A2.466 2.466 0 008.537 1h-.074C6.977 1 5.761 2.405 5.635 3.773c-.002.003 0 .01.001.015l-.001.002c-.029.136-.33.349-.33.5v.004c0 .781.145 1.456.4 1.538.216.07.246 1.119.787 1.861.425.578 1.025 1.308 1.713 1.42.081.017.507.017.588 0 .689-.112 1.289-.843 1.713-1.42a2.838 2.838 0 00.363-.7z"/></svg>