<svg xmlns="http://www.w3.org/2000/svg" xmlns:xlink="http://www.w3.org/1999/xlink" viewBox="0 0 16 16"><defs><path id="a" d="M0 0h16v16H0z"/></defs><clipPath id="b"><use xlink:href="#a" overflow="visible"/></clipPath><path clip-path="url(#b)" d="M8 .812a7.187 7.187 0 00-2.619 13.88c-.063-.568-.12-1.441.025-2.062.13-.56.843-3.572.843-3.572s-.216-.43-.216-1.066c0-1 .58-1.746 1.301-1.746.613 0 .909.461.909 1.013 0 .617-.392 1.538-.595 2.393-.169.716.359 1.299 1.065 1.299 1.277 0 2.259-1.347 2.259-3.292 0-1.721-1.236-2.924-3.001-2.924-2.045 0-3.246 1.535-3.246 3.119 0 .618.238 1.28.535 1.641a.214.214 0 01.05.205l-.2.815c-.031.132-.104.159-.24.097-.899-.419-1.46-1.731-1.46-2.786 0-2.267 1.647-4.348 4.749-4.348 2.493 0 4.431 1.776 4.431 4.15 0 2.478-1.562 4.47-3.729 4.47-.729 0-1.414-.378-1.647-.824l-.448 1.709c-.162.625-.6 1.406-.893 1.885A7.188 7.188 0 108 .812"/></svg>