<svg xmlns="http://www.w3.org/2000/svg" viewBox="0 0 16 16"><path d="M4 4h2v2H4zm0 3h2v2H4zm0 3h2v2H4zm3-6h2v2H7zm0 3h2v2H7zm0 3h2v2H7zm3-3h2v2h-2zm0 3h2v2h-2zm6-2.104c0-1.06-.148-2.104-.445-3.133-.295-1.031-.711-1.844-1.248-2.763h-1.016c.486 1.294.82 2.234 1 3.145.18.898.269 1.85.271 2.855a14.655 14.655 0 01-.271 2.855c-.18.91-.514 1.851-1 3.145h1.016c.537-.919.953-1.732 1.248-2.764.297-1.028.445-2.073.445-3.132 0-.034-.003-.07-.004-.104.001-.034.004-.07.004-.104zM2.75 2H1.734C1.197 2.919.781 3.732.486 4.764a11.235 11.235 0 00-.445 3.132c0 .034.003.07.004.104-.001.034-.004.07-.004.104 0 1.06.148 2.104.445 3.133.295 1.031.711 1.844 1.248 2.763H2.75c-.486-1.294-.82-2.234-1-3.145A14.655 14.655 0 011.479 8c.002-1.006.091-1.957.271-2.855.18-.911.514-1.851 1-3.145z"/></svg>