<svg xmlns="http://www.w3.org/2000/svg" viewBox="0 0 16 16"><path d="M14.291 11.809l-2.088-2.09c-.29-.285-.77-.273-1.07.026l-.295.294-.417.411c-.808.806-2.084.836-2.854.067l-.349-.347-1.739-1.74c-.77-.771-.739-2.047.068-2.855l.235-.229.181-.179.295-.297c.301-.302.31-.781.023-1.07l-2.09-2.089c-.287-.287-.765-.277-1.068.025l-.471.53c-.548.548-.935 1.263-1.034 1.882-.246 1.535.655 4.478 3.224 7.045.004.005.01.009.014.012l.013.014c2.567 2.569 5.511 3.471 7.045 3.225.619-.098 1.335-.485 1.883-1.033l.472-.53c.299-.304.31-.783.022-1.072z"/><path d="M11.5 1.258a3.242 3.242 0 10-.002 6.484 3.242 3.242 0 00.002-6.484zM13.5 5h-4V4h4v1z"/></svg>