<svg xmlns="http://www.w3.org/2000/svg" viewBox="0 0 16 16"><path d="M14.816.681A.998.998 0 0013.402.68l-1.801 1.801A7.019 7.019 0 008 1.498C2.581 1.498.261 7.326.164 7.575L0 7.998l.164.423c.051.131.723 1.805 2.134 3.364L.796 13.287a1 1 0 101.415 1.414L14.816 2.095a.999.999 0 000-1.414zM4.1 7.998a3.9 3.9 0 013.9-3.9c.581 0 1.127.134 1.621.364L4.463 9.619A3.82 3.82 0 014.1 7.998zm11.735-.424c-.04-.103-.475-1.179-1.352-2.396l-2.604 2.604c.004.073.021.142.021.216a3.9 3.9 0 01-3.9 3.9c-.073 0-.143-.018-.215-.021l-2.192 2.192A7 7 0 008 14.498c5.413 0 7.739-5.828 7.835-6.076L16 7.998l-.165-.424z"/></svg>