<svg xmlns="http://www.w3.org/2000/svg" viewBox="0 0 16 16"><path fill="none" d="M8.177 11.568l-.325-.389.333.399z"/><path d="M8.185 11.578c.02.028.046.059.068.088l.003-.002-.071-.086z"/><path d="M11.003 11H11c-.747 0-1.169-.559-1.232-.641L4.795 4.393A3.531 3.531 0 002 3H.031v2H2c.756 0 1.163.548 1.17.559l4.682 5.62.325.39.008.01.071.086-.003.002C8.668 12.204 9.632 13 10.959 13h.002l.04.002-.001 1.93L15.9 12l-4.896-2.9-.001 1.9z"/><path d="M9.904 5.544c.005-.005.437-.524 1.097-.583L11 6.932 15.9 4l-4.896-2.9-.001 1.85c-1.647.049-2.602 1.262-2.672 1.36l-.89 1.07 1.301 1.562 1.162-1.398zm-6.592 4.808c-.005.003-.527.648-1.212.648H0v2h2.1c1.654 0 2.682-1.279 2.77-1.395l.756-.911-1.301-1.562-1.013 1.22z"/><path fill="none" d="M8.177 11.568l-.325-.389.333.399z"/><path d="M8.185 11.578c.02.028.046.059.068.088l.003-.002-.071-.086z"/></svg>