<svg xmlns="http://www.w3.org/2000/svg" viewBox="0 0 16 16"><path d="M8.777 8C9.73 8 10.5 7.225 10.5 6.271v-.042c0-.619-.329-1.159-.819-1.464.2-.282.319-.623.319-.994v-.042C10 2.775 9.23 2 8.277 2H6v6h2.777zM7 3h1.277c.402 0 .723.327.723.729v.041c0 .403-.321.73-.723.73H7V3zm0 2.5h1.777c.402 0 .723.327.723.729v.041c0 .403-.321.73-.723.73H7V5.5zM3.25 2h-1.5L0 8h1l.291-1h2.418L4 8h1L3.25 2zM1.584 6L2.5 2.857 3.416 6H1.584zm13.65.663A1.844 1.844 0 0114.17 7c-1.055 0-1.914-.897-1.914-2s.859-2 1.914-2c.379 0 .744.115 1.057.332l.57-.822A2.845 2.845 0 0014.17 2c-1.606 0-2.914 1.346-2.914 3s1.308 3 2.914 3c.588 0 1.153-.179 1.637-.518l-.573-.819zM7 12.148l-1.414-1.414-1.414 1.414L7 14.977l4.521-4.522-1.414-1.414z"/></svg>