<svg id="artwork" xmlns="http://www.w3.org/2000/svg" viewBox="0 0 16 16"><defs></defs><path d="M16.015 15.967h-8a4 4 0 018 0zm-12-4a4 4 0 00-4 4h8a4 4 0 00-4-4zM4 11a2 2 0 10-2-2 2.002 2.002 0 002 2zm6-2a2 2 0 102-2 2.002 2.002 0 00-2 2zM6.015 5.967a2.986 2.986 0 001.13-.224 3.973 3.973 0 010-5.552 2.999 2.999 0 10-1.13 5.776zm2-.779a3.1 3.1 0 00.426.323 3.84 3.84 0 01-.426 1.456h.01-.001l.015-.002c.022 0 .223-.026.435-.07a1.986 1.986 0 001.31-.95c.077.006.151.022.23.022a3.027 3.027 0 10-2-.779z"/></svg>
