<svg data-name="Layer 1" xmlns="http://www.w3.org/2000/svg" viewBox="0 0 16 16"><path d="M4 4.05c0-.14.28-.34.3-.47A2.85 2.85 0 017 1a2.85 2.85 0 012.66 2.57c0 .12.3.32.3.46 0 .73-.13 1.36-.37 1.43s-.22 1-.73 1.73a3 3 0 01-1.59 1.34h-.54a3 3 0 01-1.59-1.32c-.51-.69-.53-1.67-.73-1.73S4 4.77 4 4.05zm7 6.52a10.8 10.8 0 01-1.65-.85l-.17-.11a2.93 2.93 0 01-.53-.87L7 9.88 5.34 8.74a2.83 2.83 0 01-.52.87l-.17.11c-1.33.9-3.08 1.3-3.41 1.61A4.27 4.27 0 00.28 14H8v-3h3zm2.17-.85l-.65.65L14.11 12H9v1h5.1l-1.58 1.59.65.66 2.73-2.76z"/></svg>