<svg xmlns="http://www.w3.org/2000/svg" viewBox="0 0 16 16"><path d="M8 13.5a6.597 6.597 0 01-3.195-.824L2.5 15h11l-2.305-2.324A6.602 6.602 0 018 13.5z"/><path d="M14.267 1.006a.5.5 0 00-.707 0L1.856 12.709a.5.5 0 00.707.707l2.042-2.042a5.686 5.686 0 008.827-2.864 5.685 5.685 0 000-3.377 5.623 5.623 0 00-.866-1.692c.885-.895 1.702-1.727 1.702-1.727a.502.502 0 00-.001-.708zm-3.676 6.912A2.812 2.812 0 018 9.637c-.479 0-.927-.123-1.322-.336l3.705-3.704a.441.441 0 00.102-.085c.038.071.075.143.107.217.143.336.221.707.221 1.095s-.079.758-.222 1.094zM3.02 9.559l2.217-2.217A2.81 2.81 0 018 4.012c.177 0 .35.018.518.049l2.22-2.221a5.69 5.69 0 00-8.17 3.292 5.69 5.69 0 00-.255 1.69c0 .59.089 1.152.255 1.688.115.367.269.717.452 1.049zM7 2.484C7 2.217 7.216 2 7.482 2h1.035c.267 0 .483.217.483.484v.033A.482.482 0 018.517 3H7.482A.482.482 0 017 2.518v-.034z"/></svg>