<svg data-name="Layer 1" xmlns="http://www.w3.org/2000/svg" viewBox="0 0 32 32"><path d="M12.45 17.59a6.28 6.28 0 006.26-6.28V9.59a5.89 5.89 0 00-5.93-5.82h-1a5.65 5.65 0 00-5.6 5.7v1.8a6.27 6.27 0 006.22 6.32zm2.83 1.58H15a6.28 6.28 0 01-5.23 0h-.49c-4.08 0-6.91 2.61-6.91 6.21v1.85a1 1 0 001 1h17.74a.92.92 0 00.92-.92v-1.93c-.03-3.59-2.85-6.21-6.75-6.21zM27.91 5.18a1.09 1.09 0 00-1.73 1.3 7 7 0 01.38 7.4 1.1 1.1 0 00.44 1.49 1.65 1.65 0 00.5.11 1.15 1.15 0 001-.6 9.23 9.23 0 00-.6-9.69zm-5.73 1.63a1.07 1.07 0 00-.26 1.48 4.76 4.76 0 01.16 4.46 1.1 1.1 0 00.48 1.49 1.65 1.65 0 00.5.11 1.15 1.15 0 001-.6 6.94 6.94 0 00-.39-6.64 1 1 0 00-1.36-.38l-.14.09z"/></svg>