<svg data-name="Layer 1" xmlns="http://www.w3.org/2000/svg" viewBox="0 0 32 32"><path d="M6 31l.33-1.66 1.59-.42a11.59 11.59 0 002.18-.73 4.53 4.53 0 00.8-2q0-.14 1.21-5.64t2.23-10.64a54.46 54.46 0 001-5.79v-.48a3.51 3.51 0 00-1.07-.36 12.56 12.56 0 00-1.36-.16c-.51 0-.89-.07-1.13-.11l.37-2 2.34.13 2.92.14c.81 0 1.6.05 2.35.05s1.27 0 1.93-.05l2.36-.14L26 1a12.45 12.45 0 01-.37 1.74c-.39.13-1.05.32-2 .56a17.59 17.59 0 00-2.1.7 6.28 6.28 0 00-.27.83c-.08.3-.14.57-.17.78s-.09.51-.15.89l-.13.82q-.53 2.89-1.71 8.19t-1.52 6.94l-.25 1.13-.39 1.75q-.18.8-.31 1.63a6.17 6.17 0 00-.12 1.04v.35q.33.08 3.61.6a12.3 12.3 0 01-.31 1.93h-1.28a10.89 10.89 0 01-1.7-.2 10.86 10.86 0 00-1.68-.19h-4c-.66 0-1.59.06-2.79.18z"/></svg>