<svg viewBox="0 0 16 16" xmlns="http://www.w3.org/2000/svg"><path d="M14.0002 0.999994H2.00024C1.86682 0.991974 1.73323 1.01235 1.60827 1.05976C1.48331 1.10718 1.36983 1.18057 1.27532 1.27508C1.18081 1.36958 1.10743 1.48306 1.06001 1.60802C1.01259 1.73298 0.992218 1.86658 1.00024 1.99999V14C0.992218 14.1334 1.01259 14.267 1.06001 14.392C1.10743 14.5169 1.18081 14.6304 1.27532 14.7249C1.36983 14.8194 1.48331 14.8928 1.60827 14.9402C1.73323 14.9876 1.86682 15.008 2.00024 15H14.0002C14.1337 15.008 14.2672 14.9876 14.3922 14.9402C14.5172 14.8928 14.6306 14.8194 14.7252 14.7249C14.8197 14.6304 14.8931 14.5169 14.9405 14.392C14.9879 14.267 15.0083 14.1334 15.0002 14V1.99999C15.0083 1.86658 14.9879 1.73298 14.9405 1.60802C14.8931 1.48306 14.8197 1.36958 14.7252 1.27508C14.6306 1.18057 14.5172 1.10718 14.3922 1.05976C14.2672 1.01235 14.1337 0.991974 14.0002 0.999994ZM5.55024 12.333C5.55024 12.427 5.52324 12.464 5.42524 12.464C4.88257 12.46 4.33957 12.46 3.79624 12.464C3.68924 12.464 3.66824 12.421 3.66924 12.325C3.66924 11.375 3.66924 10.425 3.66924 9.47399C3.66924 8.52299 3.66924 7.58199 3.66924 6.63499C3.66924 6.52599 3.69524 6.48799 3.81024 6.48999C4.34524 6.49599 4.88124 6.48999 5.41624 6.48999C5.51624 6.48999 5.55224 6.51499 5.55124 6.61999C5.54857 8.52399 5.54824 10.4283 5.55024 12.333ZM4.60824 5.69999C4.39455 5.6996 4.18578 5.63582 4.00835 5.51673C3.83093 5.39764 3.69282 5.22859 3.6115 5.03098C3.53018 4.83337 3.50932 4.61607 3.55154 4.4066C3.59376 4.19712 3.69718 4.00488 3.8487 3.8542C4.00022 3.70352 4.19303 3.60118 4.40274 3.56012C4.61245 3.51906 4.82962 3.54114 5.02678 3.62355C5.22393 3.70597 5.39221 3.84501 5.51031 4.0231C5.62841 4.20119 5.69103 4.41031 5.69024 4.62399C5.69104 4.76603 5.66356 4.9068 5.6094 5.0381C5.55523 5.16941 5.47547 5.28861 5.37475 5.38877C5.27404 5.48892 5.15439 5.56802 5.02279 5.62146C4.89119 5.67489 4.75027 5.70159 4.60824 5.69999ZM12.3172 12.469C11.7932 12.469 11.2692 12.464 10.7452 12.469C10.6272 12.469 10.5912 12.433 10.5922 12.316C10.5922 11.338 10.5992 10.361 10.5922 9.38299C10.5927 9.13562 10.5669 8.88891 10.5152 8.64699C10.4865 8.45603 10.3864 8.28308 10.2351 8.163C10.0839 8.04293 9.89274 7.98468 9.70024 7.99999C9.56589 7.99598 9.43157 8.00841 9.30024 8.03699C9.11284 8.0866 8.94574 8.19378 8.82248 8.3434C8.69923 8.49303 8.62604 8.67756 8.61324 8.87099C8.58022 9.06557 8.56416 9.26264 8.56524 9.45999C8.56024 10.41 8.56524 11.36 8.56524 12.311C8.56524 12.463 8.56524 12.464 8.40924 12.464C7.88524 12.464 7.36224 12.464 6.83824 12.464C6.72224 12.464 6.68524 12.432 6.68524 12.313C6.68924 10.423 6.68924 8.53333 6.68524 6.64399C6.68524 6.49299 6.68524 6.49199 6.84024 6.49199C7.34024 6.49199 7.84924 6.49199 8.35324 6.49199C8.46024 6.49199 8.49624 6.52099 8.49324 6.62999C8.48624 6.84199 8.49324 7.05599 8.49324 7.26899C8.68637 6.98402 8.94402 6.74865 9.24524 6.58199C9.59642 6.38665 10.0001 6.30655 10.3992 6.35299C10.6417 6.37135 10.8824 6.40812 11.1192 6.46299C11.4273 6.54546 11.7052 6.71479 11.9197 6.95078C12.1343 7.18677 12.2764 7.47947 12.3292 7.79399C12.4151 8.1631 12.4623 8.54012 12.4702 8.91899C12.4882 10.051 12.4702 11.184 12.4802 12.319C12.4702 12.437 12.4302 12.465 12.3172 12.464V12.469Z"/></svg>