<svg xmlns="http://www.w3.org/2000/svg" viewBox="0 0 30.22 31.19"><g data-name="Layer 2"><g data-name="Layer 1"><path d="M21.56 26.66a5.2 5.2 0 01-.16 1.08 6.4 6.4 0 01-.32 1.05 4.08 4.08 0 01-1.87 1.62 5.94 5.94 0 01-2.84.78 7 7 0 01-.81-.05 7.89 7.89 0 01-.88-.19l-.68-.23-.85-.31-.75-.27a13.79 13.79 0 01-2.67-1.28 22.26 22.26 0 01-4-3.29 22.61 22.61 0 01-3.3-4.05 13.57 13.57 0 01-1.27-2.68l-.28-.75c-.15-.41-.26-.69-.31-.85s-.13-.4-.23-.73a7.89 7.89 0 01-.19-.88 7 7 0 010-.8A6 6 0 01.78 12a4.14 4.14 0 011.62-1.89 6.4 6.4 0 011.05-.32 5.26 5.26 0 011.08-.15.89.89 0 01.32 0q.29.09.81 1.17c.12.19.27.47.46.82l.54 1c.16.3.32.57.47.82l.27.39a3.57 3.57 0 01.33.54 1 1 0 01.11.44 1.27 1.27 0 01-.44.76 6.88 6.88 0 01-1 .84 10.91 10.91 0 00-1 .81 1.18 1.18 0 00-.43.71 1 1 0 00.07.34c.05.14.1.25.13.32s.11.19.22.36.16.28.17.3a16.36 16.36 0 002.67 3.59 16.2 16.2 0 003.6 2.67l.29.17.36.22.32.13a1 1 0 00.34.07 1.16 1.16 0 00.71-.43 10.91 10.91 0 00.81-1 6.88 6.88 0 01.84-.95 1.29 1.29 0 01.77-.44 1 1 0 01.43.11 4.16 4.16 0 01.55.33l.38.27.82.47 1 .54.83.46c.71.35 1.1.62 1.16.81a.85.85 0 01.12.38z"/><path d="M20.09 0l3.13 6.34 7 1.02-5.06 4.94 1.19 6.97-6.26-3.29-6.26 3.29 1.2-6.97-5.07-4.94 7-1.02L20.09 0z"/></g></g></svg>