<svg xmlns="http://www.w3.org/2000/svg" viewBox="0 0 33.39 29.42"><g data-name="Layer 2"><g data-name="Layer 1"><path d="M23.26 0l-3.13 6.34-7 1.02 5.07 4.94-1.2 6.97 6.26-3.29 6.26 3.29-1.19-6.97 5.06-4.94-7-1.02L23.26 0z"/><path d="M2.08 17.67l2.47 1.72c1.38.95 2.43 1.69 3.16 2.2l.52.37.65.46c.17.11.38.25.63.39a4.29 4.29 0 00.69.33 2 2 0 00.6.1 2 2 0 00.6-.1 4.81 4.81 0 00.7-.33c.24-.14.45-.28.62-.39l.66-.46.51-.37.74-.52.37-2.14L16 13l-.59-.57H1.93a1.71 1.71 0 00-1.43.63 2.44 2.44 0 00-.5 1.57 2.82 2.82 0 00.66 1.64 6.24 6.24 0 001.42 1.4z"/><path d="M17.93 21l-2.26 1.19-1.26.89c-.46.34-.83.61-1.11.79a6.64 6.64 0 01-1.14.58 3.47 3.47 0 01-1.33.3 3.38 3.38 0 01-1.32-.3 6 6 0 01-1.14-.58c-.29-.18-.66-.45-1.12-.79q-1.63-1.19-6-4.16A6.55 6.55 0 010 17.91v9.58a1.87 1.87 0 00.57 1.37 1.84 1.84 0 001.36.56H19.7a1.83 1.83 0 001.36-.56 1.87 1.87 0 00.57-1.37v-8.4z"/></g></g></svg>