<svg viewBox="0 0 16 16" xmlns="http://www.w3.org/2000/svg"><path d="M12.659 2.78001H12.648C11.3788 1.6375 9.73262 1.00366 8.02498 1.00001H7.99998C6.14346 0.956112 4.34555 1.65151 3.00176 2.93323C1.65796 4.21495 0.878371 5.97799 0.834478 7.83451C0.790585 9.69102 1.48599 11.4889 2.7677 12.8327C4.04942 14.1765 5.81246 14.9561 7.66898 15H7.99998C9.72043 15.0044 11.3811 14.3689 12.659 13.217C11.8356 13.7841 10.8588 14.0865 9.85898 14.084C9.04517 14.0746 8.24463 13.8766 7.52023 13.5056C6.79583 13.1347 6.16729 12.6008 5.68398 11.946C4.83234 10.8757 4.37349 9.54574 4.38398 8.17801V7.84701C4.38057 6.47281 4.83833 5.1372 5.68398 4.05401C6.1711 3.40321 6.80045 2.87229 7.52401 2.50176C8.24757 2.13123 9.0462 1.93088 9.85898 1.91601C10.8477 1.92555 11.8122 2.22263 12.635 2.77101C12.0079 2.4646 11.3152 2.31694 10.6178 2.341C9.92029 2.36506 9.2394 2.56011 8.63498 2.90901C10.415 3.29101 11.741 5.42701 11.741 7.99701C11.741 10.567 10.391 12.706 8.63498 13.089C9.24248 13.4414 9.92791 13.6375 10.6298 13.6599C11.3318 13.6822 12.0283 13.53 12.657 13.217C13.3932 12.5615 13.9824 11.7577 14.3859 10.8583C14.7894 9.95886 14.998 8.98426 14.998 7.99851C14.998 7.01275 14.7894 6.03815 14.3859 5.13874C13.9824 4.23934 13.3932 3.43549 12.657 2.78001H12.659Z"/></svg>