<svg data-name="Layer 1" xmlns="http://www.w3.org/2000/svg" viewBox="0 0 32 32"><path d="M25.16 18.73a4.1 4.1 0 00-1.43.22l-4.41-7.12a4.55 4.55 0 001.32-3.2 4.63 4.63 0 00-9.27 0 4.46 4.46 0 001.32 3.2L8.28 19a4.1 4.1 0 00-1.43-.22 4.63 4.63 0 100 9.27 4.6 4.6 0 004.15-2.7h10A4.6 4.6 0 0025.16 28a4.63 4.63 0 100-9.27zm-14.9 1.38L14.68 13a4.1 4.1 0 001.43.22 4.1 4.1 0 001.43-.22L22 20.11a4.51 4.51 0 00-1.32 3h-9.1a4.46 4.46 0 00-1.32-3zm5.79-13.9a2.45 2.45 0 012.43 2.43A2.4 2.4 0 0116.05 11a2.45 2.45 0 01-2.43-2.43 2.4 2.4 0 012.43-2.36zM7 25.74a2.43 2.43 0 112.43-2.43A2.45 2.45 0 017 25.74zm18.21 0a2.43 2.43 0 112.43-2.43 2.45 2.45 0 01-2.48 2.43z"/></svg>