<svg data-name="Layer 1" xmlns="http://www.w3.org/2000/svg" viewBox="0 0 32 32"><path d="M24.68 19.8V23a4.86 4.86 0 01-4.84 4.84h-14a4.67 4.67 0 01-3.42-1.42A4.66 4.66 0 011 23V9a4.67 4.67 0 011.42-3.42 4.67 4.67 0 013.42-1.42h14a4.63 4.63 0 012 .42.51.51 0 01.3.39.53.53 0 01-.15.49l-.82.82a.49.49 0 01-.54.13 3 3 0 00-.76-.1h-14a2.59 2.59 0 00-1.9.79A2.59 2.59 0 003.15 9v14a2.59 2.59 0 00.79 1.9 2.59 2.59 0 001.9.79h14A2.7 2.7 0 0022.52 23v-2.12a.51.51 0 01.15-.37l1.08-1.08a.51.51 0 01.59-.12.49.49 0 01.34.49zM23.06 7.39l4.84 4.84-11.3 11.3h-4.84v-4.84zm-7.13 14.53l2-1.95-2.56-2.56-1.95 2v.94H15v1.61zm7.4-12.11a.35.35 0 00-.55 0l-5.89 5.89a.38.38 0 10.54.54l5.89-5.89a.35.35 0 00.01-.54zm7.2-.2L29 11.16l-4.86-4.85 1.55-1.55a1.63 1.63 0 012.29 0l2.56 2.56a1.63 1.63 0 010 2.29z"/></svg>