<svg data-name="Layer 1" xmlns="http://www.w3.org/2000/svg" viewBox="0 0 32 32"><path d="M14.85 10.72a7.12 7.12 0 00-1.2-2.34 5.75 5.75 0 00-2-1.61 6.32 6.32 0 00-2.83-.59 6.66 6.66 0 00-2.68.53A3.45 3.45 0 004.35 8.4H4.3V6.5H2v19.32h2.3v-7.2h.05a3.7 3.7 0 00.93 1 4.85 4.85 0 001.18.66 6.33 6.33 0 001.26.35 6.93 6.93 0 001.15.11 6.5 6.5 0 002.8-.57 5.62 5.62 0 002-1.56 6.64 6.64 0 001.19-2.31 9.88 9.88 0 00.39-2.81 9.57 9.57 0 00-.4-2.77zm-2.25 4.65a5.29 5.29 0 01-.7 1.73 3.7 3.7 0 01-1.29 1.22 3.94 3.94 0 01-2 .46 4.28 4.28 0 01-2-.45 3.94 3.94 0 01-1.37-1.18 4.92 4.92 0 01-.77-1.69 8 8 0 01-.24-2 8.12 8.12 0 01.23-1.92 5 5 0 01.74-1.69 3.79 3.79 0 013.3-1.66 4.11 4.11 0 011.93.43 3.85 3.85 0 011.35 1.18 5.17 5.17 0 01.78 1.66 7.16 7.16 0 01.26 1.91 9.18 9.18 0 01-.21 2.01zm4.25-8.87h2.95l3.36 4.9 3.49-4.9h2.76l-4.82 6.44L30 20.49h-2.95l-3.89-5.79-3.9 5.79h-2.79l5.25-7.36-4.87-6.63z"/></svg>