<svg data-name="Layer 1" xmlns="http://www.w3.org/2000/svg" viewBox="0 0 32 32"><path d="M27.6.67H4.48A4.28 4.28 0 00.06 4.81v15.82a4.29 4.29 0 004.27 4.31h9.83v3.2h-2a1.6 1.6 0 000 3.2h7.66a1.6 1.6 0 100-3.2H17.9v-3.21h9.66a4.25 4.25 0 004.38-4.11V4.88A4.28 4.28 0 0027.63.67zM4.48 3.86H27.6a1.16 1.16 0 011.16 1v13.68H3.28V4.88a1.23 1.23 0 011.16-1z"/><path d="M19.42 8.7a.91.91 0 000-.45 3.41 3.41 0 00-6.77-.07.73.73 0 001.47 0 1.92 1.92 0 013.84 0v.26A1.94 1.94 0 0117 10a3 3 0 00-1.73 2.45.68.68 0 00.61.75H16a.72.72 0 00.75-.68 1.56 1.56 0 011-1.24 3.46 3.46 0 001.67-2.58zm-3.34 6.21a1.12 1.12 0 000 2.21h.17a1.12 1.12 0 00-.17-2.21z"/></svg>