<svg data-name="Layer 1" xmlns="http://www.w3.org/2000/svg" viewBox="0 0 32 32"><path d="M28.12 9A14 14 0 0023 3.88 13.69 13.69 0 0016 2a13.69 13.69 0 00-7 1.88A13.94 13.94 0 003.88 9 13.69 13.69 0 002 16a13.69 13.69 0 001.88 7A13.94 13.94 0 009 28.12 13.69 13.69 0 0016 30a13.69 13.69 0 007-1.88A14 14 0 0028.12 23 13.69 13.69 0 0030 16a13.69 13.69 0 00-1.88-7zm-3.54 12A9.88 9.88 0 0121 24.59a10 10 0 01-10 0A9.87 9.87 0 017.42 21a10 10 0 010-10A9.88 9.88 0 0111 7.41a10 10 0 0110 0A9.89 9.89 0 0124.58 11a10 10 0 010 10z"/><path d="M19.3 12.7a4.66 4.66 0 010 6.6 4.66 4.66 0 01-6.6 0 4.67 4.67 0 010-6.6 4.66 4.66 0 016.6 0z"/></svg>