<svg viewBox="0 0 32 32" xmlns="http://www.w3.org/2000/svg"><path stroke="null" d="M25.722 9.13h-9.15a2.286 2.286 0 00-2.26 1.944 2.07 2.07 0 00-.025.208c-.002.046-.002.09-.002.135v4.575a2.287 2.287 0 002.287 2.288h2.288v3.43l3.431-3.43h3.431a2.287 2.287 0 002.288-2.288v-4.575a2.287 2.287 0 00-2.288-2.288z"/><path d="M21.112 25.142H7.417V4.554h13.695v2.288h2.282V2.267a2.284 2.284 0 00-2.282-2.288H7.417a2.284 2.284 0 00-2.282 2.288v27.45a2.284 2.284 0 002.282 2.288h13.695a2.284 2.284 0 002.282-2.288v-8.006l-2.282 2.287v1.144zm-5.706 4.575h-2.283a1.143 1.143 0 010-2.287h2.283a1.143 1.143 0 010 2.287z" stroke="null"/></svg>