<svg data-name="Layer 1" xmlns="http://www.w3.org/2000/svg" viewBox="0 0 32 32"><path d="M10.4 27.37a.68.68 0 00-.55-.28H6.48a.55.55 0 01-.55-.55V7.94a.55.55 0 01.55-.55h3.31v1.77a1 1 0 001 1H20a1 1 0 001-1V7.39h3.3a.55.55 0 01.55.55V11a.61.61 0 00.33.55 8.32 8.32 0 011.27.83.41.41 0 00.66-.33v-4.1a2.83 2.83 0 00-2.81-2.82h-5.51a3.39 3.39 0 00-3.37-2.92 3.3 3.3 0 00-3.31 2.92H6.59a2.83 2.83 0 00-2.81 2.82v18.53a2.83 2.83 0 002.81 2.82h4.52a.44.44 0 00.33-.72 7.17 7.17 0 01-1-1.21zm5-22.9a1.17 1.17 0 011.16 1.16 1.13 1.13 0 01-1.16 1.16 1.16 1.16 0 110-2.32z"/><path d="M19.78 12.91a8.44 8.44 0 108.44 8.44 8.44 8.44 0 00-8.44-8.44zm5.41 6.34L19 25.43a1.47 1.47 0 01-2 0l-2.65-2.65a1.4 1.4 0 012-2L18 22.45l5.19-5.19a1.4 1.4 0 012 2z"/></svg>