<svg viewBox="0 0 16 16" xmlns="http://www.w3.org/2000/svg"><path d="M7.08024 9.33799L9.43224 7.99999L7.08024 6.66199V9.33799ZM14.0002 0.999994H2.00024C1.86682 0.991974 1.73323 1.01235 1.60827 1.05976C1.48331 1.10718 1.36983 1.18057 1.27532 1.27508C1.18081 1.36958 1.10743 1.48306 1.06001 1.60802C1.01259 1.73298 0.992218 1.86658 1.00024 1.99999V14C0.992218 14.1334 1.01259 14.267 1.06001 14.392C1.10743 14.5169 1.18081 14.6304 1.27532 14.7249C1.36983 14.8194 1.48331 14.8928 1.60827 14.9402C1.73323 14.9876 1.86682 15.008 2.00024 15H14.0002C14.1337 15.008 14.2672 14.9876 14.3922 14.9402C14.5172 14.8928 14.6306 14.8194 14.7252 14.7249C14.8197 14.6304 14.8931 14.5169 14.9405 14.392C14.9879 14.267 15.0083 14.1334 15.0002 14V1.99999C15.0083 1.86658 14.9879 1.73298 14.9405 1.60802C14.8931 1.48306 14.8197 1.36958 14.7252 1.27508C14.6306 1.18057 14.5172 1.10718 14.3922 1.05976C14.2672 1.01235 14.1337 0.991974 14.0002 0.999994ZM12.3122 10.18C12.2608 10.3718 12.1598 10.5467 12.0193 10.6871C11.8789 10.8275 11.704 10.9285 11.5122 10.98C10.347 11.1203 9.1738 11.1837 8.00024 11.17C6.82536 11.1842 5.65082 11.1211 4.48424 10.981C4.29244 10.9295 4.11755 10.8285 3.97713 10.6881C3.83671 10.5477 3.7357 10.3728 3.68424 10.181C3.55582 9.46122 3.49422 8.73111 3.50024 7.99999C3.49561 7.26909 3.55854 6.53932 3.68824 5.81999C3.7397 5.62819 3.84071 5.4533 3.98113 5.31288C4.12155 5.17246 4.29644 5.07145 4.48824 5.01999C5.65347 4.87972 6.82667 4.81625 8.00024 4.82999C9.17512 4.81574 10.3497 4.87888 11.5162 5.01899C11.708 5.07045 11.8829 5.17146 12.0233 5.31188C12.1638 5.4523 12.2648 5.62719 12.3162 5.81899C12.4447 6.53877 12.5063 7.26888 12.5002 7.99999C12.5049 8.7309 12.4419 9.46067 12.3122 10.18Z"/></svg>