<svg viewBox="0 0 16 16" xmlns="http://www.w3.org/2000/svg"><path d="M7.97187 3.71715C8.42533 3.71715 8.76702 4.07517 8.76702 4.52018V8.26768C8.76702 8.7127 8.42533 9.07072 7.97187 9.07072C7.5759 9.07072 7.20547 8.7127 7.20547 8.26768V4.52018C7.20547 4.07517 7.5759 3.71715 7.97187 3.71715ZM9.02249 11.2121C9.02249 11.8044 8.56584 12.2829 7.97187 12.2829C7.43539 12.2829 6.95 11.8044 6.95 11.2121C6.95 10.6199 7.43539 10.1414 7.97187 10.1414C8.56584 10.1414 9.02249 10.6199 9.02249 11.2121ZM0.335256 6.74861L3.2904 1.66138C3.70554 0.943328 4.45278 0.505005 5.22558 0.505005H10.7469C11.5484 0.505005 12.2957 0.943328 12.7108 1.66138L15.6647 6.74861C16.1118 7.51818 16.1118 8.48183 15.6647 9.2514L12.7108 14.3373C12.2957 15.0567 11.5484 15.495 10.7469 15.495H5.22558C4.45278 15.495 3.70554 15.0567 3.2904 14.3373L0.335256 9.2514C-0.111752 8.48183 -0.111752 7.51818 0.335256 6.74861ZM1.64454 7.58176C1.49541 7.8394 1.49541 8.16061 1.64454 8.41825L4.59968 13.5041C4.73699 13.7417 4.98608 13.8889 5.22558 13.8889H10.7469C11.0152 13.8889 11.2642 13.7417 11.4016 13.5041L14.3554 8.41825C14.5055 8.16061 14.5055 7.8394 14.3554 7.58176L11.4016 2.49653C11.2642 2.2573 11.0152 2.11108 10.7469 2.11108H5.22558C4.98608 2.11108 4.73699 2.2573 4.59968 2.49653L1.64454 7.58176ZM12.7108 1.66138L11.4016 2.49653L12.7108 1.66138ZM0.335256 9.2514L1.64454 8.41825L0.335256 9.2514Z"/></svg>