<svg viewBox="0 0 16 16" xmlns="http://www.w3.org/2000/svg"><path d="M12.0028 6.44076L10.7194 8L12.0028 9.52995C12.2861 9.83594 12.2861 10.3307 12.0028 10.6074C11.7667 10.9395 11.3444 10.9395 11.0833 10.6074L9.77778 9.10352L8.44722 10.6074C8.21111 10.9395 7.78889 10.9395 7.52778 10.6074C7.26944 10.3307 7.26944 9.83594 7.52778 9.52995L8.83611 8L7.52778 6.44076C7.26944 6.16406 7.26944 5.66927 7.52778 5.36328C7.78889 5.06055 8.21111 5.06055 8.44722 5.36328L9.77778 6.89648L11.0833 5.36328C11.3444 5.06055 11.7667 5.06055 12.0028 5.36328C12.2861 5.66927 12.2861 6.16406 12.0028 6.44076ZM14.2222 1.75C15.2028 1.75 16 2.68262 16 3.83333V12.1667C16 13.3158 15.2028 14.25 14.2222 14.25H5.70278C5.23056 14.25 4.77778 14.0319 4.44444 13.6413L0.260333 8.73568C0.0936389 8.54036 0 8.27669 0 8C0 7.72331 0.0936667 7.45964 0.260333 7.26432L4.44444 2.36035C4.77778 1.9694 5.23056 1.75 5.70278 1.75H14.2222ZM14.6667 3.83333C14.6667 3.54687 14.4667 3.3125 14.2222 3.3125H5.70278C5.58333 3.3125 5.46944 3.36784 5.38611 3.46549L1.5175 8L5.38611 12.5345C5.46944 12.6322 5.58333 12.6875 5.70278 12.6875H14.2222C14.4667 12.6875 14.6667 12.4531 14.6667 12.1667V3.83333Z"/></svg>