<svg viewBox="0 0 16 16" xmlns="http://www.w3.org/2000/svg"><path d="M3.5 10.5C3.5 9.94687 3.94781 9.5 4.5 9.5C5.05313 9.5 5.5 9.94687 5.5 10.5C5.5 11.0531 5.05313 11.5 4.5 11.5C3.94781 11.5 3.5 11.0531 3.5 10.5ZM10.5 10.5C10.5 9.94687 10.9469 9.5 11.5 9.5C12.0531 9.5 12.5 9.94687 12.5 10.5C12.5 11.0531 12.0531 11.5 11.5 11.5C10.9469 11.5 10.5 11.0531 10.5 10.5ZM1.31875 2.18844C2.12062 1.21094 4.24375 0 8 0C12.0188 0 13.9375 1.20719 14.7 2.20469C14.9344 2.51 15 2.85875 15 3.1375V11.75C15 12.5031 14.6031 13.1906 14 13.6219V15.25C14 15.6656 13.6656 16 13.25 16C12.8344 16 12.5 15.6656 12.5 15.25V14H3.5V15.25C3.5 15.6656 3.16406 16 2.75 16C2.33594 16 2 15.6656 2 15.25V13.6219C1.39688 13.1906 1 12.5031 1 11.75V3.1375C1 2.86188 1.06391 2.49906 1.31875 2.18844ZM2.60844 3H13.4125C12.9188 2.46531 11.475 1.5 8 1.5C4.80625 1.5 3.18188 2.44594 2.60844 3ZM13.5 4.5H2.5V7H13.5V4.5ZM13.5 8.5H2.5V11.75C2.5 12.1656 2.83594 12.5 3.25 12.5H12.75C13.1656 12.5 13.5 12.1656 13.5 11.75V8.5Z"/></svg>