<svg viewBox="0 0 16 16" xmlns="http://www.w3.org/2000/svg"><path d="M7.7434 10.5719C7.97816 10.3375 8.06799 9.99375 7.98207 9.67344C7.81382 9.02906 7.80991 9.11875 7.98207 8.47406C8.06808 8.14969 7.97816 7.80594 7.7434 7.57156C7.27701 7.09688 7.29579 7.175 7.15181 6.53125C7.07043 6.2125 6.79498 5.9625 6.50701 5.875C5.86847 5.7 5.94672 5.74688 5.48033 5.275C5.25183 5.04063 4.88561 4.94688 4.59764 5.03125C3.96004 5.20313 4.05019 5.20313 3.41634 5.03125C3.09864 4.94688 2.76215 5.04063 2.53146 5.275C2.06195 5.74688 2.1402 5.7 1.50635 5.875C1.18959 5.9625 0.94575 6.2125 0.859672 6.53125C0.691429 7.17969 0.734468 7.0975 0.269022 7.57031C0.0381764 7.80469 -0.0543182 8.14844 0.031697 8.47281C0.19994 9.11719 0.19994 9.0275 0.031697 9.67219C-0.0543808 9.9925 0.0381764 10.3363 0.269022 10.5706C0.734468 11.0431 0.691586 10.965 0.859672 11.6097C0.94575 11.9341 1.18959 12.1841 1.50666 12.2697C1.95646 12.3908 1.86663 12.3634 2.00341 12.4259V16L4.00637 15L6.00932 16V12.425C6.14235 12.3625 6.05624 12.3898 6.50607 12.2688C6.81902 12.1828 7.04132 11.9328 7.1515 11.6088C7.29579 10.9625 7.27701 11.0437 7.7434 10.5719ZM4.00605 11C2.89894 11 2.0031 10.1056 2.0031 9C2.0031 7.89438 2.89925 7 4.00605 7C5.11286 7 6.00901 7.89438 6.00901 9C6.00901 10.1056 5.11411 11 4.00605 11ZM15.4403 2.91813L13.1043 0.585628C12.7265 0.210691 12.2163 3.125e-06 11.6873 3.125e-06L5.98115 0C4.87466 0 3.97788 0.895312 3.97788 2L3.97821 4.15437C3.97821 4.15437 4.66746 3.82 5.48066 4.13081L5.5085 2.00407C5.5085 1.72794 5.73274 1.50407 6.00932 1.50407H11.0175V4C11.0175 4.55219 11.466 5 12.0191 5H14.495V14C14.495 14.2761 14.2708 14.5 13.9942 14.5H7.01095L6.98278 16L13.9942 16C15.096 16 15.9975 15.1 15.9975 14V4.33125C16.0257 3.80313 15.8159 3.29375 15.4403 2.91813Z"/></svg>