<svg viewBox="0 0 18 16" xmlns="http://www.w3.org/2000/svg"><path d="M16.2324 8.75C16.0341 8.75259 15.8448 8.83244 15.7046 8.97253C15.5644 9.11263 15.4845 9.30189 15.4819 9.5C15.4819 10.1613 15.2197 10.7957 14.7528 11.2642C14.2858 11.7328 13.6521 11.9974 12.9904 12H10.869C10.6701 12.0002 10.4793 12.0793 10.3387 12.22L7.83713 14.72C7.69659 14.8606 7.61765 15.0512 7.61765 15.25C7.61765 15.4488 7.69659 15.6394 7.83713 15.78C7.97784 15.9205 8.16859 15.9993 8.36746 15.9993C8.56634 15.9993 8.75708 15.9205 8.89779 15.78L11.1792 13.5H12.9904C14.0519 13.5 15.0699 13.0786 15.8205 12.3284C16.5712 11.5783 16.9929 10.5609 16.9929 9.5C16.9902 9.30017 16.9089 9.10942 16.7666 8.96905C16.6243 8.82868 16.4323 8.74998 16.2324 8.75Z"/><path d="M8.39752 12.75C8.39493 12.5519 8.31503 12.3626 8.17485 12.2225C8.03467 12.0824 7.84528 12.0026 7.64705 12H4.98539C4.32274 11.9974 3.68799 11.7331 3.21943 11.2649C2.75086 10.7966 2.48646 10.1622 2.48383 9.5V4C2.48646 3.33777 2.75086 2.70341 3.21943 2.23514C3.68799 1.76687 4.32274 1.50263 4.98539 1.5H8.16738C8.36561 1.49741 8.55499 1.41756 8.69517 1.27747C8.83536 1.13737 8.91525 0.948107 8.91785 0.75C8.91525 0.551893 8.83536 0.362629 8.69517 0.222534C8.55499 0.0824391 8.36561 0.00258996 8.16738 0L4.98539 0C3.92386 0 2.90581 0.421427 2.15519 1.17157C1.40458 1.92172 0.982887 2.93913 0.982887 4L0.982887 9.5C0.982887 10.5609 1.40458 11.5783 2.15519 12.3284C2.90581 13.0786 3.92386 13.5 4.98539 13.5H7.64705C7.84528 13.4974 8.03467 13.4176 8.17485 13.2775C8.31503 13.1374 8.39493 12.9481 8.39752 12.75V12.75Z"/><path d="M11.4493 4.28005L11.059 5.74005C11.0201 5.89103 11.028 6.05027 11.0816 6.19668C11.1352 6.3431 11.232 6.46981 11.3592 6.56005C11.4863 6.65049 11.6385 6.69909 11.7945 6.69909C11.9505 6.69909 12.1027 6.65049 12.2298 6.56005L13.4906 5.75005L14.7514 6.56005C14.8745 6.64611 15.0214 6.69157 15.1716 6.69005C15.337 6.68939 15.4979 6.63693 15.6319 6.54005C15.7573 6.44852 15.8522 6.32125 15.9039 6.17492C15.9557 6.02859 15.962 5.87004 15.9221 5.72005L15.5318 4.27005L16.6926 3.33005C16.8198 3.23981 16.9166 3.1131 16.9702 2.96668C17.0238 2.82027 17.0317 2.66103 16.9928 2.51005C16.941 2.35652 16.8409 2.22387 16.7074 2.13194C16.5739 2.04 16.4143 1.99373 16.2523 2.00005L14.7514 1.92005L14.221 0.500051C14.1655 0.351767 14.0655 0.224199 13.9348 0.134727C13.8041 0.0452545 13.649 -0.00177292 13.4906 5.11223e-05V5.11223e-05C13.3364 0.00013676 13.1859 0.0470428 13.059 0.134551C12.9322 0.22206 12.8349 0.346038 12.7801 0.490051L12.2398 1.89005L10.7388 2.00005C10.5829 2.0057 10.4326 2.05978 10.3089 2.15477C10.1851 2.24976 10.0941 2.38094 10.0484 2.53005C9.9997 2.67888 9.99755 2.83901 10.0422 2.98909C10.0869 3.13917 10.1764 3.27206 10.2986 3.37005L11.4493 4.28005ZM12.4499 2.89005C12.6003 2.88468 12.7458 2.83542 12.8685 2.74834C12.9912 2.66127 13.0857 2.54019 13.1403 2.40005L13.5106 1.40005L13.8908 2.40005C13.9432 2.54055 14.0355 2.6627 14.1564 2.75152C14.2772 2.84034 14.4214 2.89196 14.5712 2.90005H15.5719L14.7514 3.57005C14.6344 3.66087 14.5479 3.78506 14.5032 3.92614C14.4586 4.06723 14.4579 4.21855 14.5012 4.36005L14.7714 5.36005L13.8808 4.79005C13.7545 4.71217 13.609 4.67093 13.4605 4.67093C13.3121 4.67093 13.1666 4.71217 13.0403 4.79005L12.1497 5.36005L12.4099 4.36005C12.4642 4.21269 12.4703 4.05187 12.4271 3.90086C12.3839 3.74985 12.2938 3.61648 12.1697 3.52005L11.3893 3.00005L12.4499 2.89005Z"/></svg>