<svg viewBox="0 0 16 16" xmlns="http://www.w3.org/2000/svg"><path d="M15.2498 6.58H8.33984C7.92984 6.58 7.58984 6.24 7.58984 5.83V5.72C7.58984 5.43 7.75984 5.17 8.01984 5.04C8.32984 4.89 8.56984 4.62 8.67984 4.28L9.47984 1.71C9.78984 0.67 10.7098 0 11.7898 0C12.8698 0 13.7898 0.67 14.1098 1.71L14.9098 4.28C15.0098 4.61 15.2498 4.89 15.5698 5.04C15.8298 5.17 15.9998 5.43 15.9998 5.72V5.83C15.9998 6.24 15.6598 6.58 15.2498 6.58ZM9.96984 5.08H13.6098C13.5598 4.97 13.5098 4.85 13.4798 4.73L12.6798 2.16C12.5298 1.68 12.1198 1.5 11.7898 1.5C11.4598 1.5 11.0498 1.67 10.8998 2.16L10.0998 4.73C10.0698 4.85 10.0298 4.97 9.96984 5.08Z"/><path d="M12.3298 8.75H11.2698C10.8598 8.75 10.5198 8.41 10.5198 8C10.5198 7.59 10.8598 7.25 11.2698 7.25H12.3298C12.7398 7.25 13.0798 7.59 13.0798 8C13.0798 8.41 12.7398 8.75 12.3298 8.75Z"/><path d="M0 1.98561C0 0.904697 0.898438 0 2 0H8V1.51045H2C1.72656 1.51045 1.5 1.73859 1.5 2.01393V11.0766C1.5 11.352 1.72656 11.5801 2 11.5801H6.5V13.4682L9 11.5801H14C14.2734 11.5801 14.5 11.352 14.5 11.0766V7.99999H16V11.0766C16 12.1576 15.1016 13.0622 14 13.0622H9.5L5.5975 15.9258C5.34437 16.1099 5 15.9301 5 15.6206V13.0056H2C0.898438 13.0056 0 12.1292 0 11.02V1.98561Z"/></svg>