<svg viewBox="0 0 16 16" xmlns="http://www.w3.org/2000/svg"><path d="M11.1429 7.14286C11.6179 7.14286 12 7.525 12 8C12 8.475 11.6179 8.85714 11.1429 8.85714H4.85714C4.38214 8.85714 4 8.475 4 8C4 7.525 4.38214 7.14286 4.85714 7.14286H11.1429ZM0 2.28571C0 1.02321 1.02321 0 2.28571 0H13.7143C14.975 0 16 1.02321 16 2.28571V13.7143C16 14.975 14.975 16 13.7143 16H2.28571C1.02321 16 0 14.975 0 13.7143V2.28571ZM1.71429 2.28571V13.7143C1.71429 14.0286 1.97 14.2857 2.28571 14.2857H13.7143C14.0286 14.2857 14.2857 14.0286 14.2857 13.7143V2.28571C14.2857 1.97 14.0286 1.71429 13.7143 1.71429H2.28571C1.97 1.71429 1.71429 1.97 1.71429 2.28571Z"/></svg>