<svg viewBox="0 0 16 16" xmlns="http://www.w3.org/2000/svg"><path d="M4.01203 7.99993L8.24589 4.12073C8.4872 3.89841 8.47977 3.5465 8.22606 3.33423C7.97234 3.12196 7.57101 3.12984 7.33036 3.35138L2.67603 7.61526C2.44132 7.83107 2.44132 8.16863 2.67603 8.38438L7.33036 12.6483C7.57249 12.8699 7.97403 12.8778 8.22791 12.6656C8.35643 12.5558 8.42254 12.4098 8.42254 12.2638C8.42254 12.1255 8.36386 11.9871 8.24652 11.8794L4.01203 7.99993ZM13.3228 11.8791L9.08896 7.99993L13.3228 4.12073C13.5641 3.89841 13.5567 3.5465 13.303 3.33423C13.0493 3.12196 12.6477 3.13 12.4054 3.35161L7.7511 7.61549C7.5164 7.8313 7.5164 8.16887 7.7511 8.38461L12.4054 12.6485C12.6476 12.8701 13.0491 12.8781 13.303 12.6659C13.4339 12.5558 13.5 12.4098 13.5 12.2638C13.5 12.1248 13.4418 11.9881 13.3228 11.8791Z"/></svg>