<svg viewBox="0 0 16 16" xmlns="http://www.w3.org/2000/svg"><path d="M8.2461 7.61543L3.5921 3.3515C3.35121 3.12996 2.94953 3.12185 2.69594 3.33412C2.56531 3.4435 2.5 3.58973 2.5 3.73595C2.5 3.87427 2.55868 4.01264 2.67601 4.1204L6.91072 8.00011L2.67717 11.8794C2.43588 12.1017 2.44331 12.4536 2.697 12.6659C2.9507 12.8781 3.35226 12.8701 3.59448 12.6485L8.24848 8.38456C8.48145 8.16928 8.48145 7.83095 8.2461 7.61543ZM13.3232 7.61543L8.66919 3.3515C8.42856 3.12996 8.02662 3.12185 7.77277 3.33412C7.6432 3.4435 7.57709 3.58973 7.57709 3.73595C7.57709 3.87427 7.63577 4.01264 7.7531 4.1204L11.9878 8.00011L7.75426 11.8794C7.51297 12.1017 7.5204 12.4536 7.77409 12.6659C8.02779 12.8781 8.42935 12.8701 8.67157 12.6485L13.3256 8.38456C13.5585 8.16928 13.5585 7.83095 13.3232 7.61543Z"/></svg>