<svg viewBox="0 0 16 16" xmlns="http://www.w3.org/2000/svg"><path d="M0 8C0 6.54375 0.389688 5.175 1.07094 3.97187L4.50313 9.94687C5.1875 11.1719 6.49688 12 8 12C8.44688 12 8.84687 11.9281 9.275 11.7937L6.89062 15.925C2.99688 15.3844 0 12.0406 0 8ZM11.4094 10.05C11.7938 9.45 12 8.72188 12 8C12 6.80625 11.475 5.73438 10.6469 5H15.4187C15.7937 5.925 16 6.94062 16 8C16 12.4187 12.4187 15.9719 8 16L11.4094 10.05ZM14.9312 4H8C6.03437 4 4.44688 5.37812 4.07812 7.20937L1.69344 3.07719C3.15625 1.20406 5.4375 0 8 0C10.9625 0 13.5469 1.60875 14.9312 4ZM5.25 8C5.25 6.48125 6.48125 5.25 8 5.25C9.51875 5.25 10.75 6.48125 10.75 8C10.75 9.51875 9.51875 10.75 8 10.75C6.48125 10.75 5.25 9.51875 5.25 8Z"/></svg>