<svg viewBox="0 0 16 16" xmlns="http://www.w3.org/2000/svg"><path d="M16 8C16 12.4187 12.4187 16 8 16C3.58125 16 0 12.4187 0 8C0 3.58125 3.58125 0 8 0C12.4187 0 16 3.58125 16 8ZM8 3.25C7.80938 3.25 7.63437 3.35938 7.55312 3.52813L6.42188 5.82188L3.89062 6.19063C3.70312 6.21875 3.54687 6.35 3.4875 6.53125C3.42812 6.7125 3.47812 6.9125 3.6125 7.04375L5.44375 8.83125L5.0125 11.3531C4.98125 11.5406 5.05625 11.7312 5.2125 11.8406C5.36875 11.95 5.57188 11.9688 5.7375 11.8781L8 10.6906L10.2656 11.8813C10.4344 11.9688 10.6375 11.9562 10.7937 11.8438C10.95 11.7313 11.025 11.5437 10.9937 11.3562L10.5625 8.83438L12.3938 7.04688C12.5313 6.9125 12.5781 6.71563 12.5188 6.53438C12.4594 6.35313 12.3031 6.22187 12.1156 6.19375L9.58438 5.825L8.45312 3.53125C8.36875 3.35938 8.19375 3.25312 8.00625 3.25312L8 3.25Z"/></svg>