<svg xmlns="http://www.w3.org/2000/svg" xmlns:xlink="http://www.w3.org/1999/xlink" x="0px" y="0px" viewBox="0 0 16 16" xml:space="preserve"><path d="M8,0C3.58,0,0,3.58,0,8s3.58,8,8,8s8-3.58,8-8S12.42,0,8,0z M13.36,7.21L11.16,9l0.34,1.27
	c0.07,0.27-0.09,0.54-0.35,0.61c-0.26,0.07-0.54-0.09-0.61-0.35L10.2,9.26c-0.1-0.38,0.03-0.79,0.34-1.03l2.2-1.79L9.9,6.29
	C9.5,6.26,9.16,6.01,9.02,5.65L8,3L6.98,5.65C6.84,6.01,6.49,6.26,6.1,6.29L3.27,6.44l2.2,1.79c0.31,0.25,0.44,0.65,0.34,1.03
	L5.08,12l2.38-1.54c0.33-0.21,0.76-0.21,1.09,0l2.51,1.63c0.23,0.15,0.3,0.46,0.15,0.69C11.1,12.92,10.94,13,10.78,13
	c-0.09,0-0.19-0.03-0.27-0.08L8,11.29l-2.38,1.54c-0.35,0.23-0.79,0.21-1.13-0.03C4.15,12.56,4,12.14,4.11,11.74L4.84,9l-2.2-1.79
	C2.32,6.95,2.19,6.52,2.32,6.13s0.48-0.67,0.9-0.69l2.83-0.15l1.02-2.64C7.22,2.25,7.58,2,8,2s0.78,0.25,0.93,0.64l1.02,2.64
	l2.83,0.15c0.42,0.02,0.77,0.29,0.9,0.69S13.68,6.94,13.36,7.21z"/></svg>