<svg viewBox="0 0 16 16" xmlns="http://www.w3.org/2000/svg"><path d="M0 2.00009C0 0.896914 0.896875 0 2 0H14C15.1031 0 16 0.896914 16 2.00009V11.0005C16 12.1036 15.1031 13.0006 14 13.0006H9.66562L5.8 15.9007C5.65 16.0132 5.44688 16.0319 5.275 15.9476C5.10313 15.8632 5 15.6913 5 15.5007V13.0006H2C0.896875 13.0006 0 12.1036 0 11.0005V2.00009ZM5.25 5.75025C4.83437 5.75025 4.5 6.08464 4.5 6.50028C4.5 6.91592 4.83437 7.25031 5.25 7.25031H10.75C11.1656 7.25031 11.5 6.91592 11.5 6.50028C11.5 6.08464 11.1656 5.75025 10.75 5.75025H5.25Z"/></svg>