<svg viewBox="0 0 16 16" xmlns="http://www.w3.org/2000/svg"><path d="M1.75278 14.2969H7.90278C8.23611 14.8539 8.66389 15.3413 9.15833 15.7288C9.07222 15.7409 8.98056 15.75 8.88889 15.75H1.77778C0.795833 15.75 0 14.8812 0 13.8125V2.1875C0 1.11733 0.795833 0.25 1.77778 0.25H6.375C6.84722 0.25 7.29722 0.454134 7.63056 0.817627L10.1472 3.55889C10.4806 3.92217 10.6667 4.4126 10.6667 4.92725V6.2623C10.1889 6.41064 9.73889 6.63467 9.33333 6.92529V5.09375H7.11111C6.61944 5.09375 6.22222 4.66084 6.22222 4.125V1.70312H1.77778C1.53222 1.70312 1.33333 1.91988 1.33333 2.1875V13.8125C1.33333 14.0789 1.53222 14.2969 1.77778 14.2969H1.75278ZM7.975 11.3906C7.975 8.98389 9.79167 7.03125 12 7.03125C14.2083 7.03125 16 8.98389 16 11.3906C16 13.7974 14.2083 15.75 12 15.75C9.79167 15.75 7.975 13.7974 7.975 11.3906ZM13.6472 10.2796C13.8222 10.0919 13.8222 9.78311 13.6472 9.59541C13.475 9.40469 13.1917 9.40469 13.0194 9.59541L12 10.7064L10.9806 9.59541C10.8083 9.40469 10.525 9.40469 10.3528 9.59541C10.1778 9.78311 10.1778 10.0919 10.3528 10.2796L11.3722 11.3906L10.3528 12.5017C10.1778 12.6894 10.1778 12.9981 10.3528 13.1858C10.525 13.3766 10.8083 13.3766 10.9806 13.1858L12 12.0748L13.0194 13.1858C13.1917 13.3766 13.475 13.3766 13.6472 13.1858C13.8222 12.9981 13.8222 12.6894 13.6472 12.5017L12.6278 11.3906L13.6472 10.2796Z"/></svg>