<svg viewBox="0 0 16 16" xmlns="http://www.w3.org/2000/svg"><path d="M8 0C9.15 0 10.15 0.646875 10.6531 1.59687C11.6812 1.28125 12.8438 1.53125 13.6562 2.34375C14.4688 3.15625 14.7187 4.32188 14.4031 5.34688C15.3531 5.85 16 6.85 16 8C16 9.15 15.3531 10.15 14.4031 10.6531C14.7187 11.6812 14.4688 12.8438 13.6562 13.6562C12.8438 14.4688 11.6781 14.7187 10.6531 14.4031C10.15 15.3531 9.15 16 8 16C6.85 16 5.85 15.3531 5.34688 14.4031C4.31875 14.7187 3.15625 14.4688 2.34375 13.6562C1.53125 12.8438 1.28125 11.6781 1.59687 10.6531C0.646875 10.15 0 9.15 0 8C0 6.85 0.646875 5.85 1.59687 5.34688C1.28125 4.31875 1.53125 3.15625 2.34375 2.34375C3.15625 1.53125 4.32188 1.28125 5.34688 1.59687C5.85 0.646875 6.85 0 8 0ZM11.0312 7.03125C11.325 6.7375 11.325 6.2625 11.0312 5.97188C10.7375 5.68125 10.2625 5.67813 9.97188 5.97188L7.00313 8.94063L5.78438 7.72188C5.49063 7.42813 5.01562 7.42813 4.725 7.72188C4.43437 8.01563 4.43125 8.49062 4.725 8.78125L6.475 10.5312C6.76875 10.825 7.24375 10.825 7.53438 10.5312L11.0312 7.03125Z"/></svg>