<svg viewBox="0 0 16 16" xmlns="http://www.w3.org/2000/svg"><path fill-rule="evenodd" clip-rule="evenodd" d="M11.22 8.75H9.5C9.30109 8.75 9.11032 8.82902 8.96967 8.96967C8.82902 9.11032 8.75 9.30109 8.75 9.5C8.75 9.69891 8.82902 9.88968 8.96967 10.0303C9.11032 10.171 9.30109 10.25 9.5 10.25H12.5C12.5396 10.2501 12.579 10.2468 12.618 10.24C12.7156 10.225 12.8093 10.1908 12.8936 10.1393C12.9779 10.0878 13.0511 10.0201 13.109 9.94C13.1737 9.8509 13.2174 9.74835 13.237 9.64C13.2469 9.58794 13.2513 9.53498 13.25 9.482V6.5C13.25 6.30109 13.171 6.11032 13.0303 5.96967C12.8897 5.82902 12.6989 5.75 12.5 5.75C12.3011 5.75 12.1103 5.82902 11.9697 5.96967C11.829 6.11032 11.75 6.30109 11.75 6.5V7.136C10.7186 6.21911 9.37977 5.72426 8 5.75C6.87492 5.72554 5.76988 6.05014 4.83677 6.6792C3.90366 7.30825 3.1883 8.21088 2.789 9.263C2.7328 9.4495 2.75136 9.65055 2.84075 9.8236C2.93015 9.99666 3.08337 10.1282 3.26798 10.1903C3.4526 10.2524 3.65414 10.2402 3.82995 10.1564C4.00576 10.0725 4.14206 9.92355 4.21 9.741C4.50778 8.98567 5.0318 8.34087 5.71028 7.89494C6.38876 7.449 7.18852 7.22374 8 7.25C8.61692 7.22884 9.23011 7.35367 9.78966 7.61433C10.3492 7.87499 10.8393 8.26411 11.22 8.75ZM6.75 8.8C6.55939 8.79934 6.37569 8.87137 6.23634 9.00144C6.09699 9.1315 6.01247 9.30979 6 9.5V13C6 13.1326 5.94732 13.2598 5.85355 13.3536C5.75979 13.4473 5.63261 13.5 5.5 13.5H2C1.86739 13.5 1.74021 13.4473 1.64645 13.3536C1.55268 13.2598 1.5 13.1326 1.5 13V3C1.5 2.86739 1.55268 2.74021 1.64645 2.64645C1.74021 2.55268 1.86739 2.5 2 2.5H5.5C5.63261 2.5 5.75979 2.55268 5.85355 2.64645C5.94732 2.74021 6 2.86739 6 3V4C6 4.19891 6.07902 4.38968 6.21967 4.53033C6.36032 4.67098 6.55109 4.75 6.75 4.75C6.94891 4.75 7.13968 4.67098 7.28033 4.53033C7.42098 4.38968 7.5 4.19891 7.5 4V3C7.5 2.46957 7.28929 1.96086 6.91421 1.58579C6.53914 1.21071 6.03043 1 5.5 1H2C1.46957 1 0.960859 1.21071 0.585786 1.58579C0.210714 1.96086 0 2.46957 0 3V13C0 13.5304 0.210714 14.0391 0.585786 14.4142C0.960859 14.7893 1.46957 15 2 15H5.5C6.03043 15 6.53914 14.7893 6.91421 14.4142C7.28929 14.0391 7.5 13.5304 7.5 13V9.5C7.48753 9.30979 7.40301 9.1315 7.26366 9.00144C7.12431 8.87137 6.94061 8.79934 6.75 8.8ZM14 1H10.5C9.96957 1 9.46086 1.21071 9.08579 1.58579C8.71071 1.96086 8.5 2.46957 8.5 3V4C8.5 4.19891 8.57902 4.38968 8.71967 4.53033C8.86032 4.67098 9.05109 4.75 9.25 4.75C9.44891 4.75 9.63968 4.67098 9.78033 4.53033C9.92098 4.38968 10 4.19891 10 4V3C10 2.86739 10.0527 2.74021 10.1464 2.64645C10.2402 2.55268 10.3674 2.5 10.5 2.5H14C14.1326 2.5 14.2598 2.55268 14.3536 2.64645C14.4473 2.74021 14.5 2.86739 14.5 3V13C14.5 13.1326 14.4473 13.2598 14.3536 13.3536C14.2598 13.4473 14.1326 13.5 14 13.5H10.5C10.3674 13.5 10.2402 13.4473 10.1464 13.3536C10.0527 13.2598 10 13.1326 10 13V12C10 11.984 10 11.967 10 11.95C10 11.7511 9.92098 11.5603 9.78033 11.4197C9.63968 11.279 9.44891 11.2 9.25 11.2C9.05109 11.2 8.86032 11.279 8.71967 11.4197C8.57902 11.5603 8.5 11.7511 8.5 11.95C8.5 11.967 8.5 11.984 8.5 12V13C8.5 13.5304 8.71071 14.0391 9.08579 14.4142C9.46086 14.7893 9.96957 15 10.5 15H14C14.5304 15 15.0391 14.7893 15.4142 14.4142C15.7893 14.0391 16 13.5304 16 13V3C16 2.46957 15.7893 1.96086 15.4142 1.58579C15.0391 1.21071 14.5304 1 14 1Z"/></svg>