<svg viewBox="0 0 16 16" xmlns="http://www.w3.org/2000/svg"><path d="M3.53056 0.75C3.925 0.75 4.19722 1.05444 4.19722 1.42969V2.5625H8.22222V1.42969C8.22222 1.05444 8.51944 0.75 8.88889 0.75C9.25833 0.75 9.55556 1.05444 9.55556 1.42969V2.5625H10.6667C11.6472 2.5625 12.4444 3.37388 12.4444 4.375V6.1875H1.30833V13.4375C1.30833 13.6867 1.53222 13.8906 1.75278 13.8906H7.90278C8.24167 14.423 8.68056 14.8847 9.18889 15.25H1.77778C0.795833 15.25 0 14.4372 0 13.4375V4.375C0 3.37388 0.795833 2.5625 1.77778 2.5625H2.88889V1.42969C2.88889 1.05444 3.18611 0.75 3.55556 0.75H3.53056ZM16 11.1719C16 13.4233 14.2083 15.25 12 15.25C9.79167 15.25 7.975 13.4233 7.975 11.1719C7.975 8.92041 9.79167 7.09375 12 7.09375C14.2083 7.09375 16 8.92041 16 11.1719ZM11.5306 9.35938V11.1719C11.5306 11.4211 11.7556 11.625 11.975 11.625H13.3333C13.5778 11.625 13.7778 11.4211 13.7778 11.1719C13.7778 10.9227 13.5778 10.7188 13.3333 10.7188H12.4194V9.35938C12.4194 9.11016 12.2444 8.90625 11.975 8.90625C11.7556 8.90625 11.5306 9.11016 11.5306 9.35938Z"/></svg>