<svg viewBox="0 0 16 16" xmlns="http://www.w3.org/2000/svg"><path d="M0 2.00009C0 0.896914 0.896875 0 2 0H14C15.1031 0 16 0.896914 16 2.00009V11.0005C16 12.1036 15.1031 13.0006 14 13.0006H9.66562L5.8 15.9007C5.65 16.0132 5.44688 16.0319 5.275 15.9476C5.10313 15.8632 5 15.6913 5 15.5007V13.0006H2C0.896875 13.0006 0 12.1036 0 11.0005V2.00009ZM11.5312 4.78146C11.825 4.48769 11.825 4.01267 11.5312 3.72204C11.2375 3.4314 10.7625 3.42827 10.4719 3.72204L7.00313 7.19094L5.53438 5.72212C5.24063 5.42836 4.76562 5.42836 4.475 5.72212C4.18437 6.01588 4.18125 6.49091 4.475 6.78154L6.475 8.78163C6.76875 9.07539 7.24375 9.07539 7.53438 8.78163L11.5312 4.78146Z"/></svg>