<svg viewBox="0 0 16 16" xmlns="http://www.w3.org/2000/svg"><g clip-path="url(#clip0_1_796)"><path d="M14.0926 2.91812L11.4689 0.585625C11.0445 0.210687 10.4715 0 9.87734 0H3.5C2.25723 0 1.25 0.895313 1.25 2L1.25023 14C1.25023 15.1044 2.25746 16 3.50023 16H12.5C13.7375 16 14.75 15.1 14.75 14V4.33125C14.75 3.80313 14.5145 3.29375 14.0926 2.91812ZM13.0625 14C13.0625 14.2761 12.8106 14.5 12.5 14.5H3.5007C3.18999 14.5 2.9382 14.2761 2.9382 14L2.9375 2.00406C2.9375 1.72794 3.18936 1.50406 3.5 1.50406H9.125V4C9.125 4.55219 9.62879 5 10.25 5H13.0309V14H13.0625ZM4.625 4H7.4375C7.74688 4 8 3.775 8 3.5C8 3.225 7.74688 3 7.4375 3H4.625C4.31422 3 4.0625 3.225 4.0625 3.5C4.0625 3.775 4.31422 4 4.625 4ZM4.625 6H7.4375C7.74688 6 8 5.775 8 5.5C8 5.225 7.74688 5 7.4375 5H4.625C4.31422 5 4.0625 5.225 4.0625 5.5C4.0625 5.775 4.31422 6 4.625 6ZM8.16172 11.3562L7.67375 10.0553C7.56055 9.74687 7.24062 9.54062 6.875 9.54062C6.50938 9.54062 6.18945 9.74766 6.0752 10.0562L5.43359 11.7625C5.38086 11.9031 5.2332 12 5.06094 12H4.625C4.31299 12 4.0625 12.2227 4.0625 12.5C4.0625 12.7773 4.31316 13 4.625 13H5.06023C5.71484 13 6.29527 12.6288 6.50164 12.0781L6.875 11.0813L7.46914 12.6562C7.53945 12.8516 7.73281 12.9844 7.96133 13H8C8.1793 13 8.40852 12.8945 8.50098 12.7227L8.77344 12.242C8.87187 12.0719 9.05117 12.05 9.125 12.05C9.19883 12.05 9.37988 12.0695 9.48078 12.2531C9.74023 12.7156 10.2641 13 10.8406 13H11.375C11.687 13 11.9375 12.7773 11.9375 12.5C11.9375 12.2227 11.6879 12 11.375 12H10.8389C10.6938 12 10.5532 11.9219 10.4831 11.7969C10.0672 11.05 8.85781 10.8469 8.16172 11.3562Z"/></g><defs><clipPath><rect transform="translate(1.25)"/></clipPath></defs></svg>