<svg viewBox="0 0 16 16" xmlns="http://www.w3.org/2000/svg"><path d="M7.25 3.75C7.25 3.33437 7.58437 3 8 3C8.41563 3 8.75 3.33437 8.75 3.75V7.6L11.4156 9.375C11.7594 9.60625 11.8531 10.0719 11.5969 10.4156C11.3938 10.7594 10.9281 10.8531 10.5844 10.5969L7.58437 8.59688C7.375 8.48438 7.25 8.25 7.25 7.97188V3.75ZM8 0C12.4187 0 16 3.58125 16 8C16 12.4187 12.4187 16 8 16C3.58125 16 0 12.4187 0 8C0 3.58125 3.58125 0 8 0ZM1.5 8C1.5 11.5906 4.40937 14.5 8 14.5C11.5906 14.5 14.5 11.5906 14.5 8C14.5 4.40937 11.5906 1.5 8 1.5C4.40937 1.5 1.5 4.40937 1.5 8Z"/></svg>