<svg viewBox="0 0 16 16" xmlns="http://www.w3.org/2000/svg"><path d="M12.28 14.25C11.87 14.25 11.53 13.91 11.53 13.5C11.53 13.09 11.87 12.75 12.28 12.75C13.5 12.75 14.5 11.76 14.5 10.53C14.5 9.68004 14.02 8.92004 13.25 8.55004C12.89 8.37004 12.73 7.94004 12.9 7.57004C13.09 7.15004 13.19 6.71004 13.19 6.25004C13.19 4.48004 11.75 3.04004 9.99 3.04004C8.76 3.04004 7.66 3.73004 7.12 4.83004C6.93 5.20004 6.49 5.35004 6.13 5.19004C5.88 5.08004 5.63 5.03004 5.37 5.03004C4.33 5.03004 3.48 5.88004 3.48 6.92004C3.48 7.09004 3.51 7.27004 3.58 7.49004C3.64 7.68004 3.62 7.89004 3.53 8.07004C3.43 8.23004 3.27 8.36004 3.08 8.42004C2.14 8.71004 1.5 9.56004 1.5 10.53C1.5 11.75 2.49 12.75 3.72 12.75H9.79C10.2 12.75 10.54 13.09 10.54 13.5C10.54 13.91 10.2 14.25 9.79 14.25H3.72C1.67 14.25 0 12.58 0 10.53C0 9.12004 0.78 7.88004 2 7.25004C1.99 7.13004 1.98 7.02004 1.98 6.91004C1.98 5.04004 3.5 3.52004 5.37 3.52004C5.62 3.52004 5.86 3.55004 6.09 3.60004C6.96 2.32004 8.4 1.54004 9.98 1.54004C12.57 1.54004 14.68 3.65004 14.68 6.25004C14.68 6.70004 14.62 7.14004 14.49 7.56004C15.43 8.25004 15.99 9.34004 15.99 10.53C16 12.58 14.33 14.25 12.28 14.25Z"/></svg>