<svg viewBox="0 0 16 16" xmlns="http://www.w3.org/2000/svg"><path d="M2.80312 3.55459V2.60309C2.80312 2.27184 3.07062 1.98059 3.40312 1.98059C3.73562 1.98059 4.00312 2.27184 4.00312 2.60309V5.00309C4.00312 5.33559 3.73562 5.60309 3.40312 5.60309H1.00312C0.671869 5.60309 0.380619 5.33559 0.380619 5.00309C0.380619 4.67059 0.671869 4.40309 1.00312 4.40309H1.95462L0.378869 2.82734C0.144544 2.59309 0.144544 2.21309 0.378869 1.97884C0.613119 1.74452 0.993119 1.74452 1.22737 1.97884L2.80312 3.55459ZM6.40312 8.00309C6.40312 7.12059 7.12062 6.40309 8.00312 6.40309C8.88562 6.40309 9.60312 7.12059 9.60312 8.00309C9.60312 8.88559 8.88562 9.60309 8.00312 9.60309C7.12062 9.60309 6.40312 8.88559 6.40312 8.00309ZM12.6656 7.70059C12.7606 7.89309 12.7606 8.11309 12.6656 8.30559C12.0381 9.56309 10.4356 11.6031 8.00312 11.6031C5.57062 11.6031 3.96812 9.56309 3.34062 8.30559C3.24562 8.11309 3.24562 7.89309 3.34062 7.70059C3.96812 6.44309 5.57062 4.40309 8.00312 4.40309C10.4356 4.40309 12.0381 6.44309 12.6656 7.70059ZM11.4656 8.00309C10.8481 6.90559 9.61562 5.60309 8.00312 5.60309C6.39062 5.60309 5.15812 6.90559 4.54062 8.00309C5.15812 9.10059 6.39062 10.4031 8.00312 10.4031C9.61562 10.4031 10.8481 9.10059 11.4656 8.00309ZM15.6056 2.82734L14.0506 4.40309H15.0031C15.3356 4.40309 15.6031 4.67059 15.6031 5.00309C15.6031 5.33559 15.3356 5.60309 15.0031 5.60309H12.6031C12.2706 5.60309 12.0031 5.33559 12.0031 5.00309V2.60309C12.0031 2.27184 12.2706 1.98059 12.6031 1.98059C12.9356 1.98059 13.2031 2.27184 13.2031 2.60309V3.55459L14.7781 1.97884C15.0131 1.74452 15.3931 1.74452 15.6056 1.97884C15.8606 2.21309 15.8606 2.59309 15.6056 2.82734ZM1.22737 14.0056C0.993119 14.2606 0.613119 14.2606 0.378869 14.0056C0.144544 13.7931 0.144544 13.4131 0.378869 13.1781L1.95462 11.6031H1.00312C0.671869 11.6031 0.380619 11.3356 0.380619 11.0031C0.380619 10.6706 0.671869 10.4031 1.00312 10.4031H3.40312C3.73562 10.4031 4.00312 10.6706 4.00312 11.0031V13.4031C4.00312 13.7356 3.73562 14.0031 3.40312 14.0031C3.07062 14.0031 2.80312 13.7356 2.80312 13.4031V12.4506L1.22737 14.0056ZM15.6056 14.0056C15.3931 14.2606 15.0131 14.2606 14.7781 14.0056L13.2031 12.4506V13.4031C13.2031 13.7356 12.9356 14.0031 12.6031 14.0031C12.2706 14.0031 12.0031 13.7356 12.0031 13.4031V11.0031C12.0031 10.6706 12.2706 10.4031 12.6031 10.4031H15.0031C15.3356 10.4031 15.6031 10.6706 15.6031 11.0031C15.6031 11.3356 15.3356 11.6031 15.0031 11.6031H14.0506L15.6056 13.1781C15.8606 13.4131 15.8606 13.7931 15.6056 14.0056Z"/></svg>