<svg viewBox="0 0 16 16" xmlns="http://www.w3.org/2000/svg"><path d="M15.7449 0.234383C15.4322 -0.0781275 14.9258 -0.0781275 14.613 0.234383L11.8989 2.94714L10.3304 1.37942C10.1261 1.17551 9.8535 1.06774 9.57569 1.06774C9.43839 1.06774 9.29971 1.09414 9.16748 1.14818C8.76827 1.31328 8.5088 1.70253 8.5088 2.13354V6.63702C8.5088 7.07871 8.86699 7.40705 9.30922 7.40705H13.8449C14.2765 7.40705 14.6663 7.14714 14.8308 6.74869C14.9965 6.34968 14.9048 5.89133 14.5994 5.58632L13.0306 4.01861L15.7446 1.30585C16.0851 1.05308 16.0851 0.547059 15.7449 0.234383ZM6.64016 8.53365H2.10447C1.67291 8.53365 1.28304 8.79356 1.11862 9.19201C0.982887 9.59035 1.0746 10.0504 1.37976 10.3537L2.94858 11.9214L0.234497 14.6342C-0.0781657 14.9467 -0.0781657 15.4529 0.234497 15.7656C0.54716 16.0782 1.05359 16.0781 1.36642 15.7656L4.0805 13.0528L5.64898 14.6205C5.85332 14.8244 6.12556 14.9328 6.40371 14.9328C6.54101 14.9328 6.67982 14.9058 6.81225 14.8518C7.21146 14.6867 7.47093 14.2974 7.47093 13.8664V9.33368C7.44058 8.89033 7.11374 8.53365 6.64016 8.53365Z"/></svg>