<svg viewBox="0 0 16 16" xmlns="http://www.w3.org/2000/svg"><path d="M11.9159 2.73C11.4526 2.73 11.0768 3.02507 11.0768 3.38875V6.29274L5.01379 2.89387C4.8208 2.7849 4.59284 2.73 4.36383 2.73C4.18859 2.73 4.0128 2.76217 3.85127 2.82687C3.47856 2.97783 3.245 3.27921 3.245 3.60858V12.3672C3.245 12.6966 3.4788 12.998 3.85127 13.1489C4.01315 13.2371 4.18901 13.27 4.36383 13.27C4.59326 13.27 4.82045 13.2151 5.01379 13.1062L11.0768 9.70726V12.6113C11.0768 12.9749 11.4526 13.27 11.9159 13.27C12.3791 13.27 12.755 12.9763 12.755 12.6113V3.38875C12.755 3.02507 12.3809 2.73 11.9159 2.73ZM11.0768 8.08784L4.92324 11.538V4.46197L11.0768 7.91217V8.08784Z"/></svg>