<svg viewBox="0 0 16 16" xmlns="http://www.w3.org/2000/svg"><path d="M9 2.9375C9 2.41875 8.57812 2 8.0625 2C7.86562 2 7.67187 2.0625 7.5125 2.17812L0.309375 7.39375C0.115625 7.53438 0 7.75938 0 8C0 8.24062 0.115625 8.46562 0.309375 8.60625L7.50938 13.8219C7.66875 13.9375 7.8625 14 8.05937 14C8.57812 14 8.99687 13.5813 8.99687 13.0625V9.96562L14.5219 13.8313C14.6813 13.9406 14.8688 14 15.0625 14C15.5813 14 16.0031 13.5781 16.0031 13.0594V2.94062C16 2.42187 15.5781 2 15.0594 2C14.8656 2 14.6781 2.05938 14.5188 2.16875L9 6.03438V2.9375ZM9 7.86562L14.5 4.01562V11.9844L9 8.13437V7.86562ZM2.02813 8L7.5 4.0375V11.9625L2.02813 8Z"/></svg>