<svg viewBox="0 0 16 16" xmlns="http://www.w3.org/2000/svg"><path d="M14.9613 2.745C14.7355 2.745 14.5052 2.80814 14.3068 2.9477L8.77419 7.23091V3.62165C8.77419 3.09561 8.26774 2.745 7.73548 2.745C7.50968 2.745 7.27935 2.80814 7.08097 2.9477L1.54839 7.23091V3.40269C1.54839 3.04005 1.20194 2.74582 0.774194 2.74582C0.346774 2.74582 0 3.03977 0 3.37806V12.5716C0 12.9345 0.346774 13.2285 0.774194 13.2285C1.20194 13.2285 1.54839 12.9345 1.54839 12.5716V8.7992L7.08064 13.0497C7.27742 13.192 7.50968 13.255 7.73548 13.255C8.26774 13.255 8.77419 12.9047 8.77419 12.3545V8.7992L14.3065 13.0497C14.5032 13.192 14.7355 13.255 14.9613 13.255C15.4935 13.255 16 12.9047 16 12.3545V3.62165C16 3.09561 15.4935 2.745 14.9613 2.745ZM7.22581 11.3911L2.83226 8.01368L7.22581 4.61436V11.3911ZM14.4516 11.3911L10.0581 8.01368L14.4516 4.61436V11.3911Z"/></svg>