<svg viewBox="0 0 16 16" xmlns="http://www.w3.org/2000/svg"><path d="M7 2.9375C7 2.41875 7.42188 2 7.9375 2C8.13438 2 8.32813 2.0625 8.4875 2.17812L15.6906 7.39375C15.8844 7.53438 16 7.75938 16 8C16 8.24062 15.8844 8.46562 15.6906 8.60625L8.49063 13.8219C8.33125 13.9375 8.1375 14 7.94063 14C7.42188 14 7.00313 13.5813 7.00313 13.0625V9.96562L1.47812 13.8313C1.31875 13.9406 1.13125 14 0.9375 14C0.421875 14 0 13.5781 0 13.0594V2.94062C0 2.42187 0.421875 2 0.940625 2C1.13438 2 1.32188 2.05938 1.48125 2.16875L7 6.03438V2.9375ZM7 7.86562L1.5 4.01562V11.9844L7 8.13437V7.86562ZM13.9719 8L8.5 4.0375V11.9625L13.9719 8Z"/></svg>