<svg viewBox="0 0 16 16" xmlns="http://www.w3.org/2000/svg"><path d="M14.7686 13.825L9.7624 9.63125L10.9311 8.65312L15.7311 12.675C16.0498 12.9406 16.0905 13.4156 15.8248 13.7312C15.5592 14.05 15.0842 14.0906 14.7686 13.825ZM3.49997 0C5.43432 0 6.99993 1.56687 6.99993 3.5C6.99993 4.05937 6.86868 4.5875 6.63743 5.05625L8.98429 7.02187L14.7686 2.175C15.0842 1.90906 15.5592 1.95094 15.8248 2.26844C16.0905 2.58594 16.0498 3.05875 15.7311 3.325L6.63743 10.9438C6.86868 11.4125 6.99993 11.9406 6.99993 12.5C6.99993 14.4344 5.43432 16 3.49997 16C1.56686 16 0 14.4344 0 12.5C0 10.5656 1.56686 9 3.49997 9C4.33121 9 5.09683 9.29062 5.69682 9.775L7.81555 8L5.69682 6.225C5.09683 6.70937 4.33121 7 3.49997 7C1.56686 7 9.37491e-06 5.43438 9.37491e-06 3.5C9.37491e-06 1.56687 1.56686 9.375e-06 3.49997 9.375e-06V0ZM1.49999 3.5C1.49999 4.60312 2.39529 5.5 3.49997 5.5C4.60308 5.5 5.49995 4.60312 5.49995 3.5C5.49995 2.39531 4.60308 1.5 3.49997 1.5C2.39529 1.5 1.49999 2.39531 1.49999 3.5ZM3.49997 10.5C2.39529 10.5 1.49999 11.3969 1.49999 12.5C1.49999 13.6031 2.39529 14.5 3.49997 14.5C4.60308 14.5 5.49995 13.6031 5.49995 12.5C5.49995 11.3969 4.60308 10.5 3.49997 10.5Z"/></svg>