<svg viewBox="0 0 16 16" xmlns="http://www.w3.org/2000/svg"><path d="M4.5 9.03571C4.5 7.03225 6.06562 5.41071 8 5.41071C9.93438 5.41071 11.5 7.03225 11.5 9.03571C11.5 11.0392 9.93438 12.6607 8 12.6607C6.06562 12.6607 4.5 11.0392 4.5 9.03571ZM8 6.96429C6.89688 6.96429 6 7.89319 6 9.03571C6 10.1782 6.89688 11.1071 8 11.1071C9.10312 11.1071 10 10.1782 10 9.03571C10 7.89319 9.10312 6.96429 8 6.96429ZM11.3406 1.81225L11.6656 2.82143H14C15.1031 2.82143 16 3.75033 16 4.89286V13.1786C16 14.3211 15.1031 15.25 14 15.25H2C0.895313 15.25 0 14.3211 0 13.1786V4.89286C0 3.75033 0.895313 2.82143 2 2.82143H4.33437L4.65938 1.81225C4.8625 1.17788 5.43438 0.75 6.08125 0.75H9.91875C10.5656 0.75 11.1375 1.17788 11.3406 1.81225ZM2 4.375C1.72375 4.375 1.5 4.60804 1.5 4.89286V13.1786C1.5 13.4634 1.72375 13.6964 2 13.6964H14C14.275 13.6964 14.5 13.4634 14.5 13.1786V4.89286C14.5 4.60804 14.275 4.375 14 4.375H10.5844L9.91875 2.30357H6.08125L5.41563 4.375H2Z"/></svg>