<svg viewBox="0 0 16 16" xmlns="http://www.w3.org/2000/svg"><path d="M1.83226 10.1033L11.3465 0.586572C12.1286 -0.195524 13.3987 -0.195524 14.1808 0.586572L15.4133 1.82019C15.5103 1.91781 15.5948 2.02324 15.6699 2.13431C16.1829 2.91146 16.0984 3.968 15.4133 4.65317L5.89692 14.1674C5.85625 14.208 5.81558 14.2205 5.77178 14.2862C5.47146 14.5522 5.11483 14.7211 4.72692 14.8619L0.962584 15.9694C0.699177 16.0477 0.414185 15.9757 0.219915 15.7536C0.0256391 15.5878 -0.0469948 15.303 0.0305255 15.0371L1.13777 11.2734C1.26791 10.8322 1.5066 10.4286 1.83226 10.1033ZM2.57837 11.6957L1.85948 14.1423L4.30459 13.4227C4.47665 13.3633 4.68625 13.2538 4.83641 13.1067L11.9815 5.95781L10.0138 3.9899L2.89402 11.1639C2.87556 11.1826 2.85773 11.2014 2.84053 11.2233C2.71977 11.3578 2.62999 11.5205 2.57837 11.6957Z"/></svg>