<svg viewBox="0 0 16 16" xmlns="http://www.w3.org/2000/svg"><path d="M14.1176 1C13.0779 1 12.2353 1.89531 12.2353 3C12.2353 4.10469 13.0779 5 14.1176 5C15.1574 5 16 4.10469 16 3C16 1.89531 15.1559 1 14.1176 1ZM13.4176 5.89687L8.74412 10.0375C8.06206 10.64 6.99882 10.6397 6.31853 10.038L1.41176 5.69375V5C1.41176 4.72431 1.62288 4.5 1.88235 4.5H11.6853C11.4441 4.05719 11.2941 3.54937 11.2941 3H1.88235C0.842647 3 0 3.89531 0 5V13C0 14.1047 0.842647 15 1.88235 15H13.1765C14.2162 15 15.0588 14.1047 15.0588 13V5.81563C14.7618 5.92813 14.45 6 14.1176 6C13.8735 6 13.6441 5.95625 13.4176 5.89687ZM13.6471 13C13.6471 13.2757 13.4359 13.5 13.1765 13.5H1.88235C1.62288 13.5 1.41176 13.2757 1.41176 13V7.64687L5.41471 11.1906C6.00882 11.7125 6.75882 12 7.52941 12C8.3 12 9.05147 11.713 9.64618 11.1881L13.6471 7.64687V13Z"/></svg>