<svg viewBox="0 0 16 16" xmlns="http://www.w3.org/2000/svg"><path d="M14.3437 14.2537H1.65625C1.15592 14.2537 0.75 14.638 0.75 15.1115C0.75 15.6143 1.15592 16 1.65625 16H14.3437C14.8441 16 15.25 15.6157 15.25 15.1422C15.25 14.668 14.846 14.2537 14.3437 14.2537ZM3.82634 6.29722L7.09375 3.01177V11.7111C7.09375 12.1846 7.49967 12.5699 8 12.5699C8.50033 12.5699 8.90625 12.1846 8.90625 11.7111V3.01177L12.1737 6.29651C12.3538 6.47578 12.5917 6.56505 12.8333 6.56505C13.0563 6.56505 13.2793 6.48799 13.4541 6.33165C13.8187 6.00781 13.8363 5.46493 13.493 5.11996L8.65971 0.25964C8.31753 -0.0865465 7.68247 -0.0865465 7.34036 0.25964L2.50703 5.11996C2.16375 5.46514 2.1815 6.00796 2.54589 6.33293C2.90952 6.6579 3.4831 6.61148 3.82634 6.29722Z"/></svg>