<svg viewBox="0 0 16 16" xmlns="http://www.w3.org/2000/svg"><path d="M8 16C12.4187 16 16 12.4187 16 8C16 3.58125 12.4187 0 8 0C3.58125 0 0 3.58125 0 8C0 12.4187 3.58125 16 8 16ZM5.12813 10.1719C5.6875 10.8188 6.64375 11.5 8 11.5C9.35625 11.5 10.3125 10.8188 10.8719 10.1719C11.0531 9.9625 11.3688 9.94062 11.5781 10.1219C11.7875 10.3031 11.8094 10.6188 11.6281 10.8281C10.9313 11.6281 9.72187 12.5 8 12.5C6.27813 12.5 5.06875 11.6281 4.37187 10.8281C4.19062 10.6188 4.2125 10.3031 4.42188 10.1219C4.63125 9.94062 4.94688 9.9625 5.12813 10.1719ZM6.5125 6.5C6.5125 7.05313 6.06562 7.5 5.5125 7.5C4.95937 7.5 4.5125 7.05313 4.5125 6.5C4.5125 5.94687 4.95937 5.5 5.5125 5.5C6.06562 5.5 6.5125 5.94687 6.5125 6.5ZM10.5125 7.5C9.95937 7.5 9.5125 7.05313 9.5125 6.5C9.5125 5.94687 9.95937 5.5 10.5125 5.5C11.0656 5.5 11.5125 5.94687 11.5125 6.5C11.5125 7.05313 11.0656 7.5 10.5125 7.5Z"/></svg>