<svg viewBox="0 0 16 17" xmlns="http://www.w3.org/2000/svg"><path d="M12.5925 10.9781C12.98 10.2393 13.2 9.39629 13.2 8.50001C13.2 7.99473 13.13 7.5047 12.9775 7.04259C12.9075 6.72013 13.0925 6.38243 13.4125 6.28849C13.73 6.19708 14.0625 6.38497 14.1525 6.70743C14.315 7.27618 14.4 7.87794 14.4 8.50001C14.4 9.44961 14.1775 10.3535 13.8375 11.1686C13.455 10.9502 13.01 10.8639 12.5925 10.9781ZM11.2025 12.6615C11.1825 13.0906 11.315 13.5045 11.595 13.8777C10.57 14.5861 9.33251 15 8.00001 15C6.46751 15 5.06001 14.4516 3.95751 13.5375L4.28251 13.2049C4.46501 12.9967 4.57751 12.8012 4.68501 12.5701C5.58501 13.3268 6.74001 13.7813 8.00001 13.7813C9.20751 13.7813 10.32 13.3623 11.2025 12.6615ZM2.00102 10.4627C1.95852 10.4297 1.91477 10.4018 1.87027 10.3738C1.69452 9.78223 1.60002 9.15254 1.60002 8.50001C1.60002 4.90978 4.46501 2.00002 8.00001 2.00002C8.94251 2.00002 9.84001 2.20773 10.6475 2.5812C10.95 2.7206 11.0825 3.08191 10.945 3.38812C10.81 3.69458 10.4525 3.82991 10.1525 3.69052C9.49751 3.38761 8.76751 3.21876 8.00001 3.21876C5.12751 3.21876 2.80002 5.58263 2.80002 8.50001C2.80002 9.06876 2.88752 9.61465 3.05252 10.1275C2.68252 10.1225 2.31377 10.2342 2.00102 10.4627ZM5.19251 10.0412C5.43751 9.8127 5.81751 9.83047 6.04001 10.0768C6.42001 10.4932 7.07001 10.9375 8.00001 10.9375C8.93001 10.9375 9.58001 10.4932 9.96001 10.0768C10.1825 9.83047 10.5625 9.8127 10.8075 10.0412C11.05 10.2697 11.065 10.6557 10.84 10.902C10.2925 11.5088 9.34251 12.1563 8.00001 12.1563C6.65751 12.1563 5.70751 11.5088 5.16001 10.902C4.93501 10.6557 4.92751 10.2697 5.19251 10.0412ZM4.64751 7.85509C4.44751 7.66212 4.43751 7.3422 4.62501 7.13653C4.99001 6.74298 5.50751 6.57032 5.99001 6.57032C6.45251 6.57032 6.99251 6.74298 7.35501 7.13653C7.54501 7.3422 7.53501 7.66212 7.33251 7.85509C7.13001 8.04551 6.81501 8.03536 6.62501 7.83223C6.49001 7.68243 6.25751 7.58594 5.99001 7.58594C5.70251 7.58594 5.49251 7.68243 5.35501 7.83223C5.16751 8.03536 4.85001 8.04551 4.64751 7.85509ZM9.99001 7.58594C9.70251 7.58594 9.49251 7.68243 9.35501 7.83223C9.16751 8.03536 8.85001 8.04551 8.64751 7.85509C8.44751 7.66212 8.43751 7.3422 8.62501 7.13653C8.99001 6.74298 9.50751 6.57032 9.99001 6.57032C10.4525 6.57032 10.9925 6.74298 11.355 7.13653C11.545 7.3422 11.535 7.66212 11.3325 7.85509C11.13 8.04551 10.815 8.03536 10.625 7.83223C10.49 7.68243 10.2575 7.58594 9.99001 7.58594ZM14.3425 2.292C14.7225 1.90462 15.3375 1.90462 15.715 2.292C16.095 2.67947 16.095 3.30737 15.715 3.69484L14.33 5.11036C14.1475 5.29571 13.8525 5.29571 13.6725 5.11036L12.285 3.69331C11.905 3.30585 11.905 2.67794 12.285 2.29048C12.6625 1.90317 13.2775 1.90317 13.6575 2.29048L14 2.64163L14.3425 2.292ZM15.715 13.4436L14.33 14.8604C14.1475 15.0457 13.8525 15.0457 13.6725 14.8604L12.285 13.4436C11.905 13.0551 11.905 12.4279 12.285 12.0395C12.6625 11.6535 13.2775 11.6535 13.6575 12.0395L14 12.3924L14.3425 12.042C14.7225 11.6535 15.3375 11.6535 15.715 12.042C16.095 12.4305 16.095 13.0576 15.715 13.4436ZM2.34277 11.2295C2.72252 10.841 3.33751 10.841 3.71501 11.2295C4.09501 11.618 4.09501 12.2451 3.71501 12.6311L2.33002 14.0479C2.14827 14.2332 1.85327 14.2332 1.67152 14.0479L0.284268 12.6311C-0.0947561 12.2426 -0.0947561 11.6154 0.284268 11.227C0.663518 10.841 1.27802 10.841 1.65727 11.227L2.00077 11.5799L2.34277 11.2295Z"/></svg>