<svg viewBox="0 0 16 16" xmlns="http://www.w3.org/2000/svg"><path d="M4.75865 3.59821C3.92875 3.59821 3.25601 4.29376 3.25601 5.15179C3.25601 6.00981 3.92875 6.70536 4.75865 6.70536C5.58854 6.70536 6.26129 6.00981 6.26129 5.15179C6.26129 4.29376 5.58823 3.59821 4.75865 3.59821ZM13.9968 0.75H1.97563C0.897174 0.75 0 1.67729 0 2.82143V13.1786C0 14.3227 0.896889 15.25 1.97535 15.25H13.9965C15.1031 15.25 16 14.3227 16 13.1786V2.82143C16.0003 1.67729 15.13 0.75 13.9968 0.75ZM14.4976 12.9617L10.2151 6.94487C10.1369 6.79598 9.95841 6.70536 9.76745 6.70536C9.57609 6.70536 9.39743 6.79495 9.2913 6.94419L5.95419 11.6081L4.79308 10.1161C4.68536 9.97757 4.51341 9.89568 4.33071 9.89568C4.14783 9.89568 3.97602 9.97753 3.86802 10.1161L1.50387 13.1523C1.50387 13.1514 1.50387 13.1533 1.50387 13.1523L1.50261 2.82143C1.50261 2.5359 1.72732 2.30357 2.00349 2.30357H14.0246C14.3008 2.30357 14.5255 2.5359 14.5255 2.82143V12.9617H14.4976Z"/></svg>