<svg viewBox="0 0 17 16" xmlns="http://www.w3.org/2000/svg"><path d="M1.50195 13.4286C1.50195 13.9036 1.83789 14.2857 2.25195 14.2857H15.252C15.6676 14.2857 16.002 14.6679 16.002 15.1429C16.002 15.6179 15.6676 16 15.252 16H2.25195C1.00945 16 0.00195312 14.85 0.00195312 13.4286V0.857143C0.00195312 0.383929 0.337891 0 0.751953 0C1.16602 0 1.50195 0.383929 1.50195 0.857143V13.4286ZM10.5051 9.71786C10.2395 10.0821 9.76445 10.0821 9.4707 9.71786L6.97383 6.925L4.50508 9.71786C4.23945 10.0821 3.76445 10.0821 3.4707 9.71786C3.18008 9.41429 3.18008 8.87143 3.4707 8.53571L6.4707 5.10714C6.61133 4.94643 6.80195 4.85714 6.97383 4.85714C7.20195 4.85714 7.39258 4.94643 7.50508 5.10714L10.002 7.93214L13.7207 3.67857C14.0145 3.34643 14.4895 3.34643 14.7551 3.67857C15.0738 4.01429 15.0738 4.55714 14.7551 4.86071L10.5051 9.71786Z"/></svg>