<svg viewBox="0 0 16 16" xmlns="http://www.w3.org/2000/svg"><path d="M0.75 0C1.16406 0 1.5 0.383929 1.5 0.857143V13.4286C1.5 13.9036 1.83594 14.2857 2.25 14.2857H15.25C15.6656 14.2857 16 14.6679 16 15.1429C16 15.6179 15.6656 16 15.25 16H2.25C1.0075 16 0 14.85 0 13.4286V0.857143C0 0.383929 0.335938 0 0.75 0ZM4 9.71429C4 8.76786 4.67188 8 5.5 8C6.32812 8 7 8.76786 7 9.71429C7 10.6607 6.32812 11.4286 5.5 11.4286C4.67188 11.4286 4 10.6607 4 9.71429ZM13 9.14286C13 10.4036 12.1031 11.4286 11 11.4286C9.89688 11.4286 9 10.4036 9 9.14286C9 7.88214 9.89688 6.85714 11 6.85714C12.1031 6.85714 13 7.88214 13 9.14286ZM11 8.28571C10.5844 8.28571 10.25 8.66786 10.25 9.14286C10.25 9.61786 10.5844 10 11 10C11.4156 10 11.75 9.61786 11.75 9.14286C11.75 8.66786 11.4156 8.28571 11 8.28571ZM6 5.14286C6 4.19643 6.67188 3.42857 7.5 3.42857C8.32812 3.42857 9 4.19643 9 5.14286C9 6.08929 8.32812 6.85714 7.5 6.85714C6.67188 6.85714 6 6.08929 6 5.14286ZM14 3.42857C14 4.68929 13.1031 5.71429 12 5.71429C10.8969 5.71429 10 4.68929 10 3.42857C10 2.16607 10.8969 1.14286 12 1.14286C13.1031 1.14286 14 2.16607 14 3.42857ZM12 2.57143C11.5844 2.57143 11.25 2.95357 11.25 3.42857C11.25 3.90357 11.5844 4.28571 12 4.28571C12.4156 4.28571 12.75 3.90357 12.75 3.42857C12.75 2.95357 12.4156 2.57143 12 2.57143Z"/></svg>