<svg viewBox="0 0 16 16" xmlns="http://www.w3.org/2000/svg"><path d="M4.44464 8C4.44464 6.02734 6.03638 4.42857 8.00035 4.42857C9.96432 4.42857 11.5561 6.02734 11.5561 8C11.5561 9.97266 9.96432 11.5714 8.00035 11.5714C6.03638 11.5714 4.44464 9.97266 4.44464 8ZM8.00035 10.2321C9.22818 10.2321 10.2227 9.23326 10.2227 8C10.2227 6.76674 9.22818 5.76786 8.00035 5.76786C7.9809 5.76786 7.96424 5.76786 7.91979 5.76786C7.9809 5.91016 8.00035 6.06083 8.00035 6.21429C8.00035 7.19922 7.20309 8 6.22249 8C6.06971 8 5.9197 7.98047 5.77803 7.91909C5.77803 7.96373 5.77803 7.98047 5.77803 7.97489C5.77803 9.23326 6.77252 10.2321 8.00035 10.2321ZM2.65067 3.99888C3.95851 2.7779 5.75581 1.75 8.00035 1.75C10.2449 1.75 12.0422 2.7779 13.3506 3.99888C14.6506 5.20982 15.5201 6.6356 15.9312 7.65681C16.0229 7.87723 16.0229 8.12277 15.9312 8.34319C15.5201 9.33929 14.6506 10.7651 13.3506 12.0011C12.0422 13.2232 10.2449 14.25 8.00035 14.25C5.75581 14.25 3.95851 13.2232 2.65067 12.0011C1.35062 10.7651 0.481691 9.33929 0.0683675 8.34319C-0.0227892 8.12277 -0.0227892 7.87723 0.0683675 7.65681C0.481691 6.6356 1.35062 5.20982 2.65067 3.99888ZM8.00035 3.08929C6.18916 3.08929 4.70021 3.91518 3.55849 4.97824C2.489 5.97712 1.75063 7.13784 1.3734 8C1.75063 8.83705 2.489 10.0229 3.55849 11.0218C4.70021 12.0848 6.18916 12.9107 8.00035 12.9107C9.81154 12.9107 11.3005 12.0848 12.4422 11.0218C13.5117 10.0229 14.2256 8.83705 14.6284 8C14.2256 7.13784 13.5117 5.97712 12.4422 4.97824C11.3005 3.91518 9.81154 3.08929 8.00035 3.08929Z"/></svg>