<svg viewBox="0 0 16 16" xmlns="http://www.w3.org/2000/svg"><path d="M10.5 4.5C10.5 3.94687 10.9469 3.5 11.5 3.5C12.0531 3.5 12.5 3.94687 12.5 4.5C12.5 5.05313 12.0531 5.5 11.5 5.5C10.9469 5.5 10.5 5.05313 10.5 4.5ZM10.5 11C10.2031 11 9.9125 10.9781 9.62813 10.9312L8.75313 11.7531C8.64063 11.9219 8.45 12 8.25 12H7V13.25C7 13.6656 6.66563 14 6.25 14H5V15.25C5 15.6656 4.66563 16 4.25 16H0.75C0.335938 16 0 15.6656 0 15.25V11.75C0 11.55 0.0790312 11.3594 0.219656 11.2188L5.06875 6.37187C5.025 6.0875 5 5.79688 5 5.5C5 2.4625 7.4625 0 10.5 0C13.5375 0 16 2.4625 16 5.5C16 8.5375 13.5375 11 10.5 11ZM10.5 9.5C12.7094 9.5 14.5 7.70937 14.5 5.5C14.5 3.29063 12.7094 1.5 10.5 1.5C8.29063 1.5 6.5 3.29063 6.5 5.5C6.5 5.71563 6.51563 5.92813 6.55 6.13438L6.66875 6.89062L1.47187 12.0594V14.5H3.47187V12.5H5.47188V10.5H7.94063L9.10938 9.33125L9.86563 9.45C10.0719 9.48437 10.2844 9.5 10.5 9.5Z"/></svg>