<svg viewBox="0 0 16 16" xmlns="http://www.w3.org/2000/svg"><g clip-path="url(#clip0_1_583)"><path d="M7.9 3.85313C7.93125 3.86876 7.95625 3.90626 7.99375 3.90626C8.02812 3.90626 8.08125 3.89376 8.08437 3.85938C8.09062 3.81563 8.025 3.78751 7.98437 3.76876C7.93125 3.74688 7.8625 3.73751 7.8125 3.76563C7.8 3.77188 7.7875 3.78751 7.79375 3.80001C7.80312 3.84063 7.86562 3.83438 7.9 3.85313V3.85313ZM7.21562 3.90626C7.25312 3.90626 7.27812 3.86876 7.30937 3.85313C7.34375 3.83438 7.40625 3.84063 7.41875 3.80313C7.425 3.79063 7.4125 3.77501 7.4 3.76876C7.35 3.74063 7.28125 3.75001 7.22812 3.77188C7.1875 3.79063 7.12187 3.81876 7.12812 3.86251C7.13125 3.89376 7.18437 3.90938 7.21562 3.90626V3.90626ZM14.125 12.6188C14.0125 12.4938 13.9594 12.2563 13.9 12.0031C13.8437 11.75 13.7781 11.4781 13.5719 11.3031C13.5312 11.2688 13.4906 11.2375 13.4469 11.2125C13.4062 11.1875 13.3625 11.1656 13.3187 11.15C13.6062 10.2969 13.4937 9.44688 13.2031 8.67813C12.8469 7.73751 12.225 6.91563 11.75 6.35313C11.2156 5.68126 10.6969 5.04376 10.7062 4.10313C10.7219 2.66876 10.8656 0.00313404 8.3375 9.0367e-06C5.1375 -0.00624096 5.9375 3.23126 5.90312 4.22501C5.85 4.95626 5.70312 5.53126 5.2 6.24688C4.60937 6.95001 3.77812 8.08438 3.38437 9.26876C3.19687 9.82813 3.10937 10.3969 3.19062 10.9344C2.9875 11.1156 2.83437 11.3938 2.67187 11.5656C2.54062 11.7 2.35 11.75 2.14062 11.825C1.93125 11.9 1.70312 12.0125 1.5625 12.2781C1.49687 12.4 1.475 12.5313 1.475 12.6656C1.475 12.7875 1.49375 12.9125 1.5125 13.0344C1.55 13.2875 1.59062 13.525 1.5375 13.6844C1.375 14.1344 1.35312 14.4469 1.46875 14.675C1.5875 14.9031 1.825 15.0031 2.09687 15.0594C2.6375 15.1719 3.37187 15.1438 3.95 15.45C4.56875 15.775 5.19687 15.8906 5.69687 15.775C6.05937 15.6938 6.35625 15.475 6.50625 15.1438C6.89687 15.1406 7.32812 14.975 8.01562 14.9375C8.48125 14.9 9.06562 15.1031 9.7375 15.0656C9.75625 15.1375 9.78125 15.2094 9.81562 15.275V15.2781C10.075 15.8 10.5594 16.0375 11.075 15.9969C11.5937 15.9563 12.1406 15.6531 12.5844 15.125C13.0094 14.6125 13.7094 14.4 14.175 14.1188C14.4062 13.9781 14.5937 13.8031 14.6094 13.5469C14.6219 13.2906 14.4719 13.0063 14.125 12.6188ZM7.99062 2.72813C8.29687 2.03438 9.05937 2.04688 9.36562 2.71563C9.56875 3.15938 9.47812 3.68126 9.23125 3.97813C9.18125 3.95313 9.04687 3.89688 8.8375 3.82501C8.87187 3.78751 8.93437 3.74063 8.95937 3.68126C9.10937 3.31251 8.95312 2.83751 8.675 2.82813C8.44687 2.81251 8.24062 3.16563 8.30625 3.54688C8.17812 3.48438 8.0125 3.43751 7.9 3.40938C7.86875 3.19376 7.89062 2.95313 7.99062 2.72813V2.72813ZM6.71875 2.36876C7.03437 2.36876 7.36875 2.81251 7.31562 3.41563C7.20625 3.44688 7.09375 3.49376 6.99687 3.55938C7.03437 3.28126 6.89375 2.93126 6.69687 2.94688C6.43437 2.96876 6.39062 3.60938 6.64062 3.82501C6.67187 3.85001 6.7 3.81876 6.45625 3.99688C5.96875 3.54063 6.12812 2.36876 6.71875 2.36876V2.36876ZM6.29375 4.26563C6.4875 4.12188 6.71875 3.95313 6.73437 3.93751C6.88125 3.80001 7.15625 3.49376 7.60625 3.49376C7.82812 3.49376 8.09375 3.56563 8.41562 3.77188C8.6125 3.90001 8.76875 3.90938 9.12187 4.06251C9.38437 4.17188 9.55 4.36563 9.45 4.63126C9.36875 4.85313 9.10625 5.08126 8.74062 5.19688C8.39375 5.30938 8.12187 5.69688 7.54687 5.66251C7.425 5.65626 7.32812 5.63126 7.24687 5.59688C6.99687 5.48751 6.86562 5.27188 6.62187 5.12813C6.35312 4.97813 6.20937 4.80313 6.1625 4.65001C6.11875 4.49688 6.1625 4.36876 6.29375 4.26563V4.26563ZM6.39687 14.7031C6.3125 15.8 5.025 15.7781 4.04375 15.2656C3.10937 14.7719 1.9 15.0625 1.65312 14.5813C1.57812 14.4344 1.57812 14.1844 1.73437 13.7563V13.75C1.80937 13.5125 1.75312 13.25 1.71562 13.0031C1.67812 12.7594 1.65937 12.5344 1.74375 12.3781C1.85312 12.1688 2.00937 12.0938 2.20625 12.025C2.52812 11.9094 2.575 11.9188 2.81875 11.7156C2.99062 11.5375 3.11562 11.3125 3.26562 11.1531C3.425 10.9813 3.57812 10.9 3.81875 10.9375C4.07187 10.975 4.29062 11.15 4.50312 11.4375L5.11562 12.55C5.4125 13.1719 6.4625 14.0625 6.39687 14.7031V14.7031ZM6.35312 13.8938C6.225 13.6875 6.05312 13.4688 5.90312 13.2813C6.125 13.2813 6.34687 13.2125 6.425 13.0031C6.49687 12.8094 6.425 12.5375 6.19375 12.225C5.77187 11.6563 4.99687 11.2094 4.99687 11.2094C4.575 10.9469 4.3375 10.625 4.22812 10.275C4.11875 9.92501 4.13437 9.54688 4.21875 9.17501C4.38125 8.45938 4.8 7.76251 5.06875 7.32501C5.14062 7.27188 5.09375 7.42501 4.79687 7.97501C4.53125 8.47813 4.03437 9.64063 4.71562 10.55C4.73437 9.90313 4.8875 9.24376 5.14687 8.62813C5.52187 7.77188 6.3125 6.28751 6.375 5.10626C6.40937 5.13126 6.51875 5.20626 6.56875 5.23438C6.7125 5.31876 6.82187 5.44376 6.9625 5.55626C7.35 5.86876 7.85312 5.84376 8.2875 5.59376C8.48125 5.48438 8.6375 5.35938 8.78437 5.31251C9.09375 5.21563 9.34062 5.04376 9.48125 4.84376C9.72187 5.79376 10.2844 7.16563 10.6437 7.83438C10.8344 8.19063 11.2156 8.94376 11.3812 9.85313C11.4844 9.85001 11.6 9.86563 11.7219 9.89688C12.1531 8.78126 11.3562 7.57813 10.9937 7.24376C10.8469 7.10001 10.8406 7.03751 10.9125 7.04063C11.3062 7.39063 11.825 8.09376 12.0125 8.88438C12.1 9.24688 12.1156 9.62501 12.025 10C12.5375 10.2125 13.1469 10.5594 12.9844 11.0875C12.9156 11.0844 12.8844 11.0875 12.8531 11.0875C12.9531 10.7719 12.7312 10.5375 12.1406 10.2719C11.5281 10.0031 11.0156 10.0031 10.9437 10.6625C10.5656 10.7938 10.3719 11.1219 10.275 11.5156C10.1875 11.8656 10.1625 12.2875 10.1375 12.7625C10.1219 13.0031 10.025 13.325 9.925 13.6688C8.92187 14.3844 7.52812 14.6969 6.35312 13.8938V13.8938ZM14.3969 13.5344C14.3687 14.0594 13.1094 14.1563 12.4219 14.9875C12.0094 15.4781 11.5031 15.75 11.0594 15.7844C10.6156 15.8188 10.2312 15.6344 10.0062 15.1813C9.85937 14.8344 9.93125 14.4594 10.0406 14.0469C10.1562 13.6031 10.3281 13.1469 10.35 12.7781C10.375 12.3031 10.4031 11.8875 10.4812 11.5688C10.5625 11.2469 10.6875 11.0313 10.9094 10.9094C10.9187 10.9031 10.9312 10.9 10.9406 10.8938C10.9656 11.3063 11.1687 11.725 11.5281 11.8156C11.9219 11.9188 12.4875 11.5813 12.7281 11.3063C13.0094 11.2969 13.2187 11.2781 13.4344 11.4656C13.7437 11.7313 13.6562 12.4125 13.9687 12.7656C14.3 13.1281 14.4062 13.375 14.3969 13.5344ZM6.41562 4.64688C6.47812 4.70626 6.5625 4.78751 6.66562 4.86876C6.87187 5.03126 7.15937 5.20001 7.51875 5.20001C7.88125 5.20001 8.22187 5.01563 8.5125 4.86251C8.66562 4.78126 8.85312 4.64376 8.975 4.53751C9.09687 4.43126 9.15937 4.34063 9.07187 4.33126C8.98437 4.32188 8.99062 4.41251 8.88437 4.49063C8.74687 4.59063 8.58125 4.72188 8.45 4.79688C8.21875 4.92813 7.84062 5.11563 7.51562 5.11563C7.19062 5.11563 6.93125 4.96563 6.7375 4.81251C6.64062 4.73438 6.55937 4.65626 6.49687 4.59688C6.45 4.55313 6.4375 4.45313 6.3625 4.44376C6.31875 4.44063 6.30625 4.55938 6.41562 4.64688V4.64688Z"/></g><defs><clipPath><rect transform="translate(1)"/></clipPath></defs></svg>