<svg viewBox="0 0 17 16" xmlns="http://www.w3.org/2000/svg"><path fill-rule="evenodd" clip-rule="evenodd" d="M14 7.75V5.25C14 2.35 11.65 0 8.75 0C5.85 0 3.5 2.35 3.5 5.25V7.75C2.4 7.75 1.5 8.65 1.5 9.75V14C1.5 15.1 2.4 16 3.5 16H11.5C11.91 16 12.25 15.66 12.25 15.25C12.25 14.84 11.91 14.5 11.5 14.5H3.5C3.22 14.5 3 14.28 3 14V9.75C3 9.47 3.22 9.25 3.5 9.25H14C14.28 9.25 14.5 9.47 14.5 9.75V14C14.5 14.28 14.28 14.5 14 14.5C13.59 14.5 13.25 14.84 13.25 15.25C13.25 15.66 13.59 16 14 16C15.1 16 16 15.1 16 14V9.75C16 8.65 15.1 7.75 14 7.75ZM5 5.25C5 3.18 6.68 1.5 8.75 1.5C10.82 1.5 12.5 3.18 12.5 5.25V7.75H11V5.25C11 4.01 9.99 3 8.75 3C7.51 3 6.5 4.01 6.5 5.25V7.75H5V5.25ZM9.5 7.75H8V5.25C8 4.83 8.33 4.5 8.75 4.5C9.17 4.5 9.5 4.84 9.5 5.25V7.75Z"/><path d="M7 10C7.41421 10 7.75 10.3358 7.75 10.75V12.75C7.75 13.1642 7.41421 13.5 7 13.5C6.58579 13.5 6.25 13.1642 6.25 12.75V10.75C6.25 10.3358 6.58579 10 7 10Z"/><path d="M11.25 10.75C11.25 10.3358 10.9142 10 10.5 10C10.0858 10 9.75 10.3358 9.75 10.75V12.75C9.75 13.1642 10.0858 13.5 10.5 13.5C10.9142 13.5 11.25 13.1642 11.25 12.75V10.75Z"/></svg>