<svg viewBox="0 0 16 16" xmlns="http://www.w3.org/2000/svg"><path d="M10.625 7H5.375C4.89375 7 4.5 7.3375 4.5 7.75C4.5 8.1625 4.89375 8.5 5.375 8.5H10.625C11.1099 8.5 11.5 8.16563 11.5 7.75C11.5 7.33437 11.1099 7 10.625 7ZM7.125 10H5.375C4.89375 10 4.5 10.3375 4.5 10.75C4.5 11.1625 4.89193 11.5 5.375 11.5H7.125C7.60807 11.5 8 11.1641 8 10.75C8 10.3359 7.6099 10 7.125 10ZM10.625 4H5.375C4.89375 4 4.5 4.3375 4.5 4.75C4.5 5.1625 4.89375 5.5 5.375 5.5H10.625C11.1099 5.5 11.5 5.16563 11.5 4.75C11.5 4.33437 11.1099 4 10.625 4ZM12.6667 0H3.33333C2.04453 0 1 0.895313 1 2V14C1 15.1047 2.04453 16 3.33333 16H12.6667C13.9555 16 15 15.1047 15 14V2C15 0.895313 13.9536 0 12.6667 0ZM13.25 14C13.25 14.2757 12.9883 14.5 12.6667 14.5H3.33333C3.0117 14.5 2.75 14.2757 2.75 14V2C2.75 1.72431 3.0117 1.5 3.33333 1.5H12.6667C12.9883 1.5 13.25 1.72431 13.25 2V14Z"/></svg>