<svg viewBox="0 0 17 16" xmlns="http://www.w3.org/2000/svg"><path d="M16.0452 14.6152L15.2923 11.7239C14.9208 10.2883 13.6157 9.28442 12.1399 9.28442H8.56597C7.08017 9.28442 5.78511 10.2883 5.40362 11.7239L4.65069 14.6152C4.55029 15.0168 4.79123 15.4284 5.1928 15.5288C5.59437 15.6392 6.00598 15.3882 6.10637 14.9867L6.85931 12.0954C7.04001 11.4228 7.60221 10.9409 8.26479 10.8305L9.4193 11.985C9.66024 12.2259 9.98149 12.3665 10.3329 12.3665C10.6843 12.3665 11.0055 12.2359 11.2465 11.985L12.411 10.8204C13.0836 10.9308 13.6458 11.4127 13.8265 12.0854L14.5795 14.9766C14.6698 15.318 14.971 15.5388 15.3023 15.5388C15.3625 15.5388 15.4328 15.5288 15.493 15.5188C15.9046 15.4284 16.1456 15.0168 16.0452 14.6152ZM10.3229 11.1116L10.0016 10.7903H10.6541L10.3229 11.1116Z"/><path d="M3.93804 9.28442C2.45224 9.28442 1.15719 10.2883 0.775696 11.7239L0.0227564 14.6152C-0.0776355 15.0168 0.163305 15.4284 0.564873 15.5288C0.635147 15.5489 0.695382 15.5589 0.755617 15.5589C1.08691 15.5589 1.39813 15.3381 1.48848 14.9967L2.24142 12.1054C2.4422 11.3324 3.14494 10.7903 3.93804 10.7903C4.34965 10.7903 4.69098 10.449 4.69098 10.0374C4.69098 9.62576 4.34965 9.28442 3.93804 9.28442Z"/><path d="M6.02588 3.90328V4.61607C6.02588 5.04775 6.36721 5.38908 6.78886 5.4192C7.28078 6.92508 8.68626 8.02939 10.3528 8.02939C12.0193 8.02939 13.4248 6.92508 13.9167 5.4192C14.3384 5.38908 14.6696 5.04775 14.6696 4.61607V3.90328C14.6696 3.4716 14.3384 3.13027 13.9167 3.10015C13.4147 1.59427 12.0193 0.5 10.3528 0.5C8.68626 0.5 7.28078 1.59427 6.78886 3.10015C6.36721 3.13027 6.02588 3.4716 6.02588 3.90328ZM10.3528 2.00588C11.5977 2.00588 12.6116 3.01984 12.6116 4.26469C12.6116 5.50955 11.5977 6.52351 10.3528 6.52351C9.61991 6.52351 8.98744 6.17214 8.56579 5.64006C9.12799 5.76053 9.75042 5.82077 10.3428 5.82077C10.6841 5.82077 10.9652 5.53967 10.9652 5.19834C10.9652 4.85701 10.6841 4.57591 10.3428 4.57591C9.18822 4.57591 8.39513 4.35505 8.09395 4.18438C8.15419 2.96964 9.13803 2.00588 10.3528 2.00588Z"/><path d="M2.17112 5.4192C2.66304 6.92508 4.06853 8.02939 5.73503 8.02939C6.14664 8.02939 6.48797 7.68806 6.48797 7.27645C6.48797 6.86484 6.14664 6.52351 5.73503 6.52351C4.49017 6.52351 3.47622 5.50955 3.47622 4.26469C3.47622 3.01984 4.49017 2.00588 5.73503 2.00588C6.14664 2.00588 6.48797 1.66455 6.48797 1.25294C6.48797 0.841332 6.14664 0.5 5.73503 0.5C4.06853 0.5 2.66304 1.59427 2.17112 3.10015C1.75952 3.14031 1.42822 3.48164 1.42822 3.90328V4.61607C1.42822 5.03771 1.75952 5.37904 2.17112 5.4192Z"/></svg>