<svg viewBox="0 0 16 16" xmlns="http://www.w3.org/2000/svg"><path d="M10.2812 8.95938C10.6344 8.52813 11.2281 8.38125 11.7406 8.60312L15.2406 10.1031C15.7906 10.3375 16.0969 10.9312 15.9719 11.5125L15.2219 15.0125C15.0969 15.5875 14.5875 16 14 16C13.8094 16 13.6187 15.9969 13.4312 15.9875H13.4281C13.1156 15.975 12.8094 15.9531 12.5031 15.9187C5.475 15.175 0 9.225 0 2C0 1.40938 0.4125 0.9 0.9875 0.778125L4.4875 0.028125C5.07188 -0.096875 5.6625 0.209375 5.89687 0.759375L7.39687 4.25938C7.61562 4.77187 7.47188 5.36562 7.04063 5.71875L5.77187 6.75625C6.60625 8.19375 7.80625 9.39375 9.24375 10.2281L10.2812 8.95938ZM14.4625 11.4L11.325 10.0562L10.4062 11.175C9.94063 11.7438 9.13125 11.8906 8.49375 11.5219C6.82812 10.5563 5.44062 9.16875 4.475 7.50313C4.10625 6.86563 4.25313 6.05625 4.82188 5.59062L5.94375 4.67188L4.6 1.53437L1.50312 2.20312C1.60938 8.94375 7.05625 14.3906 13.7969 14.5L14.4625 11.4Z"/><path d="M15.3091 5.13333H9.68182C9.30909 5.13333 9 4.84485 9 4.49697C9 4.25091 9.15455 3.94545 9.39091 3.84364C9.62727 3.73333 9.80909 3.53818 9.89091 3.30061L10.5364 1.34061C10.8091 0.526061 11.5818 0 12.5 0C13.4182 0 14.1909 0.526061 14.4636 1.34909L15.1091 3.30909C15.1818 3.54667 15.3636 3.74182 15.6091 3.84364C15.8455 3.94545 16 4.17455 16 4.42061V4.50545C15.9909 4.84485 15.6909 5.13333 15.3091 5.13333ZM11.1273 3.86061H13.8818C13.8545 3.80121 13.8364 3.74182 13.8091 3.68242L13.1636 1.73091C13.0182 1.30667 12.6182 1.27273 12.5 1.27273C12.3818 1.27273 11.9818 1.30667 11.8455 1.72242L11.2 3.68242C11.1727 3.74182 11.1455 3.80121 11.1273 3.86061Z"/><path d="M12.9273 7H12.0636C11.6909 7 11.3818 6.71152 11.3818 6.36364C11.3818 6.01576 11.6909 5.72727 12.0636 5.72727H12.9273C13.3 5.72727 13.6091 6.01576 13.6091 6.36364C13.6091 6.71152 13.3091 7 12.9273 7Z"/></svg>