<svg xmlns="http://www.w3.org/2000/svg" xmlns:xlink="http://www.w3.org/1999/xlink" x="0px" y="0px" viewBox="0 0 16 16" xml:space="preserve"><path d="M10.27,16c-0.49,0-0.98-0.11-1.43-0.33c-1.83-0.88-3.5-2.08-4.97-3.55C2.4,10.65,1.21,8.98,0.33,7.16
			c-0.68-1.41-0.27-3.14,0.99-4.11l0.6-0.47c0.85-0.66,2.06-0.6,2.81,0.14C5.19,3.17,5.61,3.66,6,4.18c0.49,0.66,0.55,1.5,0.17,2.32
			L5.8,7.27C5.64,7.64,5.7,8.06,5.96,8.36c0.26,0.29,0.53,0.58,0.81,0.86c0.28,0.28,0.57,0.55,0.86,0.81
			c0.3,0.26,0.73,0.32,1.09,0.16l0.89-0.42c0.72-0.33,1.56-0.25,2.2,0.22c0.51,0.38,1,0.81,1.46,1.27l0,0
			c0.77,0.78,0.8,1.98,0.07,2.91l-0.39,0.5C12.29,15.53,11.29,16,10.27,16z M3.24,3.62c-0.14,0-0.29,0.05-0.41,0.14l-0.6,0.47
			C1.54,4.77,1.3,5.73,1.68,6.5c0.81,1.67,1.9,3.21,3.25,4.56c1.35,1.35,2.89,2.45,4.56,3.26c0.78,0.37,1.73,0.14,2.28-0.56
			l0.39-0.5c0.26-0.33,0.28-0.7,0.04-0.94c0,0,0,0,0,0c-0.4-0.41-0.83-0.78-1.28-1.11c-0.2-0.15-0.46-0.17-0.67-0.07l-0.89,0.42
			c-0.9,0.42-1.97,0.27-2.72-0.39c-0.32-0.28-0.63-0.57-0.93-0.87c-0.3-0.3-0.59-0.61-0.87-0.93C4.18,8.61,4.02,7.54,4.45,6.64
			L4.8,5.87c0.15-0.32,0.14-0.58-0.01-0.8C4.46,4.62,4.08,4.19,3.67,3.79C3.56,3.68,3.4,3.62,3.24,3.62z"/><path d="M15.25,7H8.69C8.27,7,7.94,6.67,7.94,6.25S8.27,5.5,8.69,5.5h6.56C15.66,5.5,16,5.84,16,6.25S15.66,7,15.25,7z
		"/><path d="M15.25,4.25H8.69c-0.41,0-0.75-0.34-0.75-0.75s0.34-0.75,0.75-0.75h6.56C15.66,2.75,16,3.09,16,3.5
		S15.66,4.25,15.25,4.25z"/><path d="M15.25,1.5H8.69c-0.41,0-0.75-0.34-0.75-0.75S8.27,0,8.69,0h6.56C15.66,0,16,0.34,16,0.75S15.66,1.5,15.25,1.5
		z"/></svg>