<svg viewBox="0 0 16 16" xmlns="http://www.w3.org/2000/svg"><path d="M15.6227 10.2293C13.5919 8.13711 10.8867 6.96152 7.98415 6.96152C5.10407 6.96152 2.39884 8.11451 0.36805 10.209C-0.0568436 10.6477 -0.10905 11.3193 0.186577 11.8419L1.40455 13.85C1.73428 14.3967 2.39897 14.6181 2.98822 14.3832L5.42742 13.378C5.97834 13.1797 6.28558 12.5982 6.25061 12.0396L6.1457 10.9479C7.36018 10.6107 8.65359 10.6114 9.87007 10.9479L9.76508 12.0346C9.70381 12.6201 10.0351 13.182 10.5682 13.4001L13.0039 14.4038C13.1623 14.4695 13.3047 14.5 13.487 14.5C13.9234 14.5 14.3428 14.2731 14.5844 13.8731L15.8028 11.8639C16.1223 11.3389 16.0474 10.6686 15.6227 10.2293ZM14.7834 11.2018L13.5642 13.2119C13.5412 13.2516 13.4928 13.2675 13.4542 13.2516L11.017 12.2471C10.9791 12.2321 10.953 12.1852 10.958 12.1361L11.1114 10.5504C11.1383 10.2698 10.9728 10.0073 10.711 9.91514C8.9672 9.30094 7.04657 9.30145 5.30553 9.91474C5.04375 10.0068 4.87814 10.2694 4.90511 10.55L5.05811 12.1369C5.06318 12.1845 5.03704 12.2321 4.99841 12.248L2.56495 13.2509C2.52047 13.2692 2.47363 13.2525 2.44865 13.2105L1.22993 11.2005C1.20235 11.1789 1.20859 11.123 1.24481 11.085C3.0483 9.22637 5.44878 8.18027 7.98415 8.18027C10.542 8.18027 12.9425 9.20377 14.746 11.0646C14.8059 11.123 14.8109 11.1789 14.7834 11.2018ZM3.01083 5.5625C3.3418 5.5625 3.58785 5.28955 3.58785 4.95312V3.58051L4.97243 4.98816C5.73604 5.74023 6.76018 6.17187 7.8068 6.17187C8.85342 6.17187 9.87831 5.74023 10.6194 4.98791L12.8276 2.74312C13.0617 2.50509 13.0617 2.11953 12.8276 1.88137C12.5934 1.64333 12.2141 1.64333 11.9798 1.88137L9.77165 4.12615C8.73827 5.17682 6.87658 5.17682 5.84495 4.12615L4.43713 2.71875H5.7875C6.11847 2.71875 6.36451 2.4458 6.36451 2.10937C6.36451 1.77295 6.1407 1.5 5.80848 1.5H3.01083C2.68111 1.5 2.41183 1.77295 2.41183 2.10937V4.95312C2.41183 5.29082 2.68111 5.5625 3.01083 5.5625Z"/></svg>