<svg viewBox="0 0 16 16" xmlns="http://www.w3.org/2000/svg"><path d="M10.2812 8.95938C10.6344 8.52813 11.2281 8.38125 11.7406 8.60312L15.2406 10.1031C15.7906 10.3375 16.0969 10.9312 15.9719 11.5125L15.2219 15.0125C15.0969 15.5875 14.5875 16 14 16C13.8094 16 13.6187 15.9969 13.4312 15.9875H13.4281C13.1156 15.975 12.8094 15.9531 12.5031 15.9187C5.475 15.175 0 9.225 0 2C0 1.40938 0.4125 0.9 0.9875 0.778125L4.4875 0.028125C5.07188 -0.096875 5.6625 0.209375 5.89687 0.759375L7.39687 4.25938C7.61562 4.77187 7.47188 5.36562 7.04063 5.71875L5.77187 6.75625C6.60625 8.19375 7.80625 9.39375 9.24375 10.2281L10.2812 8.95938ZM14.4625 11.4L11.325 10.0562L10.4062 11.175C9.94063 11.7438 9.13125 11.8906 8.49375 11.5219C6.82812 10.5563 5.44062 9.16875 4.475 7.50313C4.10625 6.86563 4.25313 6.05625 4.82188 5.59062L5.94375 4.67188L4.6 1.53437L1.50312 2.20312C1.60938 8.94375 7.05625 14.3906 13.7969 14.5L14.4625 11.4Z"/><path d="M12 8C9.79909 8 8 6.208 8 3.99543C8 1.78286 9.79909 0 12 0C14.2009 0 16 1.792 16 3.99543C16 6.19886 14.21 8 12 8ZM12 1.37143C10.5571 1.37143 9.36986 2.55086 9.36986 4.00457C9.36986 5.45829 10.5479 6.63771 12 6.63771C13.4521 6.63771 14.6301 5.45829 14.6301 4.00457C14.6301 2.55086 13.4521 1.37143 12 1.37143Z"/><path d="M13.032 5.04686C12.9589 5.04686 12.8767 5.02857 12.8037 4.98286L11.7808 4.38857C11.6347 4.30629 11.5525 4.16 11.5525 3.99543V2.39543C11.5525 2.13943 11.7534 1.93829 12.0091 1.93829C12.2648 1.93829 12.4658 2.13943 12.4658 2.39543V3.73029L13.2603 4.19657C13.4795 4.32457 13.5525 4.59886 13.4247 4.81829C13.3425 4.96457 13.1872 5.04686 13.032 5.04686Z"/></svg>