<svg viewBox="0 0 16 16" xmlns="http://www.w3.org/2000/svg"><path d="M15.774 13.2026L13.7125 11.6252C14.1286 11.3425 14.4034 10.8733 14.4034 10.343V3.29053C14.4034 2.42993 13.6845 1.75 12.8255 1.75H3.17823C2.59057 1.75 2.07944 2.06494 1.80112 2.52783L0.9704 1.8752C0.708581 1.67571 0.332983 1.71982 0.127804 1.97463C-0.0765492 2.22952 -0.0309623 2.59792 0.229656 2.79739L15.011 14.1035C15.1439 14.2085 15.2739 14.25 15.3814 14.25C15.5596 14.25 15.7358 14.1729 15.854 14.0256C16.0816 13.7715 16.0341 13.4028 15.774 13.2026ZM13.2033 10.3438C13.2033 10.5574 13.0221 10.7344 12.8032 10.7344H12.5484L2.80813 3.28052C2.80313 3.08228 2.99318 2.92188 3.20073 2.92188H12.8032C13.0221 2.92188 13.2033 3.09888 13.2033 3.3125V10.3438ZM6.80167 12.1992V10.7344H3.20073C2.98193 10.7344 2.80063 10.5574 2.80063 10.3438V6.24219L1.60031 5.32422L1.60031 10.3438C1.60031 11.2043 2.31925 11.8843 3.17822 11.8843H5.55634V13.9348C5.55634 14.175 5.83192 14.3145 6.03447 14.1716L9.15778 11.8843L10.1575 11.8849L8.69041 10.7623L6.80167 12.1992Z"/></svg>