<svg viewBox="0 0 16 16" xmlns="http://www.w3.org/2000/svg"><path d="M15.9925 9.9675C15.9925 7.7475 13.8318 5.9475 11.171 5.9475C10.7309 5.9475 10.3107 6.0175 9.90059 6.1075L6.3895 9.6075C6.37949 9.7275 6.33948 9.8475 6.33948 9.9675C6.33948 12.1875 8.50016 13.9875 11.161 13.9875C11.7412 13.9875 12.2913 13.9075 12.8015 13.7475C12.8915 13.7175 12.9916 13.7275 13.0716 13.7775L14.1219 14.3875C14.352 14.5175 14.492 14.4175 14.422 14.1575L14.2019 13.2975C14.1719 13.1975 14.2119 13.0975 14.302 13.0375C15.3323 12.2975 15.9925 11.1975 15.9925 9.9675ZM9.56049 9.3275C9.20037 9.3275 8.91028 9.0375 8.91028 8.6775C8.91028 8.3175 9.20037 8.0275 9.56049 8.0275C9.9206 8.0275 10.2107 8.3175 10.2107 8.6775C10.2107 9.0375 9.9206 9.3275 9.56049 9.3275ZM12.7615 9.3275C12.4014 9.3275 12.1113 9.0375 12.1113 8.6775C12.1113 8.3175 12.4014 8.0275 12.7615 8.0275C13.1216 8.0275 13.4117 8.3175 13.4117 8.6775C13.4117 9.0375 13.1216 9.3275 12.7615 9.3275Z"/><path d="M2.02813 9.9775C2.14817 10.0575 2.19819 10.2075 2.15817 10.3475L1.88809 11.3675C1.85808 11.4775 1.86808 11.5575 1.89809 11.6175L8.04001 5.4775C7.93998 5.5175 7.83995 5.5475 7.71991 5.5475C7.28978 5.5475 6.94967 5.2075 6.94967 4.7775C6.95967 4.3475 7.30978 3.9975 7.72992 3.9975C8.15005 3.9975 8.50016 4.3475 8.50016 4.7675C8.50016 4.8775 8.47015 4.9875 8.43013 5.0875L10.2707 3.2475C9.21038 2.1775 7.59987 1.4975 5.80932 1.4975C2.60831 1.4975 0.00750233 3.6575 0.00750233 6.3175C0.00750233 7.7775 0.787746 9.0975 2.02813 9.9775ZM3.85871 3.9975C4.28884 3.9975 4.62895 4.3375 4.62895 4.7675C4.62895 5.1975 4.28884 5.5375 3.85871 5.5375C3.42857 5.5375 3.08846 5.1975 3.08846 4.7675C3.08846 4.3475 3.43857 3.9975 3.85871 3.9975Z"/><path d="M0.747734 15.9975C0.557674 15.9975 0.367615 15.9275 0.217568 15.7775C-0.0725227 15.4875 -0.0725227 15.0075 0.217568 14.7175L14.7221 0.2175C15.0122 -0.0725 15.4923 -0.0725 15.7824 0.2175C16.0725 0.5075 16.0725 0.9875 15.7824 1.2775L1.2779 15.7775C1.13786 15.9175 0.937793 15.9975 0.747734 15.9975Z"/></svg>