<svg viewBox="0 0 16 16" xmlns="http://www.w3.org/2000/svg"><path d="M3.56122 9.9575C3.57122 9.9275 3.57122 9.8975 3.59122 9.8675L5.76122 6.4375C6.11122 5.8775 6.86122 5.7275 7.40122 6.1075L11.8812 1.6275C10.7512 0.9075 9.41122 0.4875 7.98122 0.4975C3.96122 0.4975 0.671218 3.8175 0.711218 7.8475C0.721218 9.2475 1.14122 10.5575 1.84122 11.6575L3.56122 9.9575Z"/><path d="M15.7812 0.2175C15.4912 -0.0725 15.0112 -0.0725 14.7212 0.2175L0.221218 14.7175C-0.0687816 15.0075 -0.0687816 15.4875 0.221218 15.7775C0.371218 15.9175 0.561218 15.9975 0.751218 15.9975C0.941218 15.9975 1.13122 15.9275 1.28122 15.7775L3.21122 13.8475V14.8575C3.21122 15.3275 3.70122 15.6375 4.12122 15.4475L5.45122 14.8375C5.63122 14.7575 5.83122 14.7475 6.01122 14.7975C6.64122 14.9775 7.30122 15.0675 7.98122 15.0675C11.9912 15.0675 15.2712 11.7975 15.2712 7.7775C15.2712 6.0875 14.6912 4.5475 13.7312 3.3075L15.7612 1.2775C16.0712 0.9875 16.0712 0.5075 15.7812 0.2175ZM9.78122 7.2975L11.9412 5.5375C12.2912 5.2475 12.7812 5.6775 12.5312 6.0675L10.3612 9.4975C10.0012 10.0575 9.25122 10.2075 8.71122 9.8175L7.85122 9.2075L9.72122 7.3375C9.74122 7.3175 9.76122 7.3175 9.78122 7.2975Z"/></svg>