<svg viewBox="0 0 16 16" xmlns="http://www.w3.org/2000/svg"><path d="M2.28571 0C1.025 0 0 1.025 0 2.28571V13.7143C0 14.975 1.025 16 2.28571 16H13.7143C14.975 16 16 14.975 16 13.7143V2.28571C16 1.025 14.975 0 13.7143 0H2.28571ZM3.42857 3.71429C3.42857 3.23929 3.81071 2.85714 4.28571 2.85714C9.17857 2.85714 13.1429 6.82143 13.1429 11.7143C13.1429 12.1893 12.7607 12.5714 12.2857 12.5714C11.8107 12.5714 11.4286 12.1893 11.4286 11.7143C11.4286 7.76786 8.23214 4.57143 4.28571 4.57143C3.81071 4.57143 3.42857 4.18929 3.42857 3.71429ZM3.42857 7.14286C3.42857 6.66786 3.81071 6.28571 4.28571 6.28571C7.28214 6.28571 9.71429 8.71786 9.71429 11.7143C9.71429 12.1893 9.33214 12.5714 8.85714 12.5714C8.38214 12.5714 8 12.1893 8 11.7143C8 9.66429 6.33571 8 4.28571 8C3.81071 8 3.42857 7.61786 3.42857 7.14286ZM5.71429 11.4286C5.71429 12.0607 5.20357 12.5714 4.57143 12.5714C3.93929 12.5714 3.42857 12.0607 3.42857 11.4286C3.42857 10.7964 3.93929 10.2857 4.57143 10.2857C5.20357 10.2857 5.71429 10.7964 5.71429 11.4286Z"/></svg>