<svg viewBox="0 0 16 16" xmlns="http://www.w3.org/2000/svg"><path d="M13 0H3C1.35 0 0 1.34 0 3V9.25C0 10.9 1.35 12.25 3 12.25H5.75V14.5H5.25C4.84 14.5 4.5 14.84 4.5 15.25C4.5 15.66 4.83 16 5.25 16H10.75C11.16 16 11.5 15.66 11.5 15.25C11.5 14.84 11.16 14.5 10.75 14.5H10.25V11.5C10.25 11.09 9.91 10.75 9.5 10.75H3C2.17 10.75 1.5 10.08 1.5 9.25V3C1.5 2.17 2.17 1.5 3 1.5H13C13.83 1.5 14.5 2.17 14.5 3V9.25C14.5 10.08 13.83 10.75 13 10.75H12C11.59 10.75 11.25 11.09 11.25 11.5C11.25 11.91 11.59 12.25 12 12.25H13C14.65 12.25 16 10.9 16 9.25V3C16 1.34 14.66 0 13 0ZM8.75 14.5H7.25V12.25H8.75V14.5Z"/><path d="M8.35 9.27994C8.49 9.42994 8.69 9.49994 8.88 9.49994C9.07 9.49994 9.26 9.42994 9.41 9.27994L12.03 6.65994C12.32 6.36994 12.32 5.88994 12.03 5.59994L9.41 2.96994C9.12 2.67994 8.64 2.67994 8.35 2.96994C8.06 3.25994 8.06 3.73994 8.35 4.02994L9.69 5.36994H4.5C4.09 5.36994 3.75 5.70994 3.75 6.11994C3.75 6.52994 4.08 6.86994 4.5 6.86994H9.69L8.35 8.21994C8.05 8.50994 8.05 8.98994 8.35 9.27994Z"/></svg>