<svg viewBox="0 0 16 16" xmlns="http://www.w3.org/2000/svg"><path d="M14.6667 9.5H13.3333V3.5C13.3333 2.12156 12.3361 1 11.1111 1H2.22222C0.996944 1 0 2.12156 0 3.5V5C0 5.82844 0.596944 6.5 1.33333 6.5H2.22222V5H1.33333V3.5C1.33333 2.94937 1.73278 2.5 2.22222 2.5C2.71167 2.5 3.11111 2.94937 3.11111 3.5V12.5C3.11111 13.8781 4.10833 15 5.33333 15H12.7389C14.5361 15 16 13.3531 16 11.3313V11C16 10.1719 15.4028 9.5 14.6667 9.5ZM6.22222 10.5V12.5C6.22222 13.0506 5.82278 13.5 5.33333 13.5C4.84389 13.5 4.44444 13.0506 4.44444 12.5V3.5C4.44444 3.14406 4.37575 2.80687 4.25608 2.5H11.1111C11.6 2.5 12 2.95 12 3.5V9.5H7.11111C6.61944 9.5 6.22222 9.94687 6.22222 10.5ZM14.6667 11.3313C14.6667 12.5281 13.8028 13.5 12.7389 13.5H7.36667C7.48611 13.1937 7.55556 12.8562 7.55556 12.5V11H14.6667V11.3313Z"/></svg>