<svg viewBox="0 0 16 16" xmlns="http://www.w3.org/2000/svg"><path d="M4.88686 8C4.88686 6.31562 6.2522 5 8.00022 5C9.71905 5 11.1136 6.31562 11.1136 8C11.1136 9.65625 9.71905 11 8.00022 11C6.2522 11 4.88686 9.65625 4.88686 8ZM8.00022 6.5C7.1408 6.5 6.44354 7.17188 6.44354 8C6.44354 8.82812 7.1408 9.5 8.00022 9.5C8.85963 9.5 9.5569 8.82812 9.5569 8C9.5569 7.17188 8.85963 6.5 8.00022 6.5ZM9.2034 9.375e-06C9.92336 9.375e-06 10.5493 0.474688 10.7179 1.14813L10.9709 2.16281C11.2465 2.2925 11.5092 2.43969 11.7589 2.6025L12.8 2.30719C13.4908 2.11125 14.2302 2.39594 14.5902 2.99594L15.7933 5.00313C16.1501 5.60313 16.0366 6.3625 15.5177 6.84062L14.7296 7.53438C14.7393 7.70625 14.7458 7.85313 14.7458 8C14.7458 8.14687 14.7393 8.29375 14.7296 8.4375L15.5177 9.15938C16.0366 9.6375 16.1501 10.3969 15.7933 10.9969L14.5902 13.0031C14.2302 13.6031 13.4908 13.8875 12.8 13.6938L11.7589 13.3969C11.5092 13.5594 11.2465 13.7062 10.9709 13.8375L10.7179 14.8531C10.5493 15.525 9.92336 16 9.2034 16H6.79704C6.07707 16 5.45116 15.525 5.28252 14.8531L5.02956 13.8375C4.75389 13.7062 4.49121 13.5594 4.24149 13.3969L3.17127 13.6938C2.51066 13.8875 1.77156 13.6031 1.4119 13.0031L0.208717 10.9969C-0.15094 10.3969 -0.0371732 9.6375 0.48373 9.15938L1.26985 8.4375C1.2598 8.29375 1.25461 8.14688 1.25461 7.97188C1.25461 7.85313 1.2598 7.70625 1.26985 7.53438L0.48373 6.84062C-0.0372056 6.3625 -0.15094 5.60313 0.208717 5.00313L1.4119 2.99594C1.77156 2.39594 2.51066 2.11125 3.17127 2.30719L4.24149 2.6025C4.49121 2.43969 4.75389 2.2925 5.02956 2.16281L5.28252 1.14813C5.45116 0.474375 6.07707 0 6.79704 0L9.2034 9.375e-06ZM6.36246 3.2375L5.99924 3.38438C5.58737 3.55 5.20468 3.76562 4.85767 4.02187L4.54309 4.25313L2.76005 3.74688L1.55654 5.75313L2.90242 6.9875L2.8528 7.3625C2.82556 7.57188 2.81129 7.78437 2.81129 8C2.81129 8.21563 2.82556 8.42812 2.8528 8.6375L2.90242 9.0125L1.55687 10.2469L2.76005 12.2531L4.54309 11.7469L4.85767 11.9781C5.20468 12.2344 5.58737 12.45 5.99924 12.6156L6.36246 12.7625L6.79704 14.5H9.2034L9.63797 12.7625L10.0012 12.6156C10.4131 12.45 10.7958 12.2344 11.1428 11.9781L11.4573 11.7469L13.241 12.2531L14.4442 10.2469L13.0983 9.0125L13.147 8.6375C13.1762 8.42812 13.1891 8.21563 13.1891 8C13.1891 7.78437 13.1762 7.57188 13.147 7.3625L13.0983 6.9875L14.4442 5.75313L13.241 3.74688L11.4573 4.25313L11.1428 4.02187C10.7958 3.76562 10.4131 3.55 10.0012 3.38438L9.63797 3.2375L9.2034 1.5H6.79704L6.36246 3.2375Z"/></svg>