<svg viewBox="0 0 16 16" xmlns="http://www.w3.org/2000/svg"><path fill-rule="evenodd" clip-rule="evenodd" d="M1.87024 0.0732953C1.37277 0.239484 1.03656 0.594677 0.876644 1.12309C0.830823 1.2744 0.825243 1.64213 0.825243 4.50655C0.825243 6.55107 0.814051 7.72023 0.794472 7.72023C0.77754 7.72023 0.697058 7.67882 0.615651 7.62822C0.428731 7.51201 0.304883 7.48503 0.183904 7.53417C0.00176722 7.60812 -0.0534607 7.84451 0.0561342 8.08099C0.122459 8.22411 0.618968 8.72165 0.981967 9.00867C1.52047 9.43453 2.45852 9.98289 3.16095 10.2825C3.50144 10.4277 3.49978 10.4252 3.42414 10.6696C3.33282 10.9646 3.21997 11.6167 3.18815 12.0336C3.08311 13.4084 3.45944 14.5242 4.281 15.2738C5.22052 16.1311 6.57978 16.2443 7.31219 15.5264C7.545 15.2982 7.62927 15.151 7.71476 14.8234C7.77206 14.6037 7.77656 14.4668 7.77656 12.935C7.77656 12.0266 7.78437 11.2834 7.79391 11.2834C7.80347 11.2834 7.90391 11.3062 8.01711 11.3341L8.22297 11.3848V12.9857C8.22297 14.4673 8.22757 14.6042 8.28477 14.8234C8.37026 15.151 8.45454 15.2982 8.68734 15.5264C9.46857 16.2921 10.927 16.1086 11.8702 15.1258C12.7355 14.2242 13.0255 12.859 12.7006 11.2166C12.6576 10.9993 12.6013 10.7532 12.5754 10.6696C12.4998 10.4252 12.4981 10.4277 12.8386 10.2825C13.541 9.98289 14.4791 9.43453 15.0176 9.00867C15.3806 8.72165 15.8771 8.22411 15.9434 8.08099C16.0564 7.83713 15.9952 7.59712 15.8042 7.53536C15.6778 7.49441 15.5348 7.5286 15.3609 7.64141C15.2941 7.68476 15.2325 7.72023 15.2239 7.72023C15.2154 7.72023 15.2041 6.26799 15.1988 4.49305C15.1897 1.45531 15.1856 1.25577 15.1304 1.09396C15.0433 0.839255 14.9599 0.69132 14.7975 0.503659C14.6161 0.294119 14.3916 0.151217 14.1096 0.0658251L13.8921 0L2.08477 0.00162531L1.87024 0.0732953ZM13.3089 0.843287C13.6639 0.879107 13.79 0.914332 13.9574 1.02454C14.1319 1.13944 14.237 1.28528 14.3224 1.53126L14.3931 1.73471L14.4107 8.21858L14.2159 8.31497C13.504 8.66726 12.676 8.93775 11.9697 9.04877C11.312 9.15217 11.0431 9.16826 9.92892 9.17092L8.78099 9.17364L8.62156 9.26091C8.42887 9.36636 8.29985 9.53521 8.24989 9.74741L8.21271 9.90525L8.11421 9.83655C8.06003 9.79876 7.89374 9.66464 7.74467 9.53852C7.28263 9.14763 7.40422 9.17408 6.05467 9.17089C5.13837 9.16873 4.80264 9.15654 4.47628 9.1135C3.52347 8.98792 2.81118 8.78613 1.9731 8.40446L1.68424 8.2729L1.70213 1.6722L1.77611 1.45822C1.91156 1.06633 2.18231 0.889859 2.71852 0.84385C3.11114 0.810187 12.9755 0.809656 13.3089 0.843287ZM5.29628 4.87469C4.34701 5.12599 3.74751 5.96283 3.87971 6.85204C3.97888 7.51895 4.50332 8.10378 5.19373 8.31735C5.4825 8.40668 5.94243 8.42737 6.24599 8.36467C6.96581 8.21602 7.55055 7.69042 7.72953 7.0312C7.79053 6.80647 7.78893 6.4167 7.72605 6.17756C7.57172 5.59079 7.09348 5.11886 6.42137 4.89007C6.17199 4.80517 5.58894 4.7972 5.29628 4.87469ZM9.89741 4.86387C9.55887 4.94411 9.25187 5.11661 8.98689 5.37547C8.60775 5.74585 8.44618 6.11496 8.44618 6.61065C8.44618 7.09527 8.60753 7.47006 8.97231 7.83279C9.73925 8.59537 11.0477 8.59728 11.8283 7.83698C12.8386 6.8531 12.3381 5.2321 10.9139 4.87506C10.6212 4.80167 10.1804 4.79683 9.89741 4.86387Z"/></svg>