<svg viewBox="0 0 16 16" xmlns="http://www.w3.org/2000/svg"><path d="M4.57482 5.53832C4.02016 5.53832 3.60298 5.98673 3.60298 6.54528C3.60298 7.10384 4.04828 7.55225 4.57482 7.55225C5.10136 7.55225 5.54666 7.10384 5.54666 6.54528C5.54666 5.98673 5.13105 5.53832 4.57482 5.53832ZM8.07468 5.53832C7.52002 5.53832 7.07504 5.98673 7.07504 6.54528C7.07504 7.10384 7.52033 7.55225 8.07468 7.55225C8.62935 7.55225 9.04652 7.10384 9.04652 6.54528C9.04652 5.98673 8.63091 5.53832 8.07468 5.53832ZM11.5745 5.53832C11.0199 5.53832 10.6027 5.98673 10.6027 6.54528C10.6027 7.10384 11.048 7.55225 11.5745 7.55225C12.1011 7.55225 12.5464 7.10384 12.5464 6.54528C12.5464 5.98673 12.1308 5.53832 11.5745 5.53832ZM13.9995 0H1.99992C0.898402 0 0 0.904697 0 1.98561V11.02C0 12.1292 0.898402 13.0056 1.99992 13.0056H4.9998V15.6206C4.9998 15.9301 5.34417 16.1099 5.59728 15.9258L9.50025 12.9773H14.0001C15.1016 12.9773 16 12.0726 16 10.9917V1.98561C15.9994 0.904697 15.1275 0 13.9995 0ZM14.5276 11.0766C14.5276 11.352 14.301 11.5801 14.0276 11.5801H9.02777L6.52787 13.4682V11.5801H2.02805C1.75462 11.5801 1.52807 11.352 1.52807 11.0766V2.01393C1.52807 1.73859 1.75462 1.51045 2.02805 1.51045H14.0276C14.301 1.51045 14.5276 1.73859 14.5276 2.01393V11.0766Z"/></svg>