<svg viewBox="0 0 16 16" xmlns="http://www.w3.org/2000/svg"><path d="M10.7062 4.29687C10.475 4.77812 10.25 5.27812 10.25 5.78437C10.25 7.02187 11.2312 8 12.4375 8H13C14.6562 8 16 9.31562 16 11V11.25C16 12.2156 15.2156 13 14.25 13H1.75C0.783437 13 0 12.2156 0 11.25V11C0 9.31562 1.34312 8 3 8H3.53437C4.77187 8 5.75 7.02187 5.75 5.78437C5.75 5.27812 5.525 4.77812 5.29375 4.29687C5.10625 3.90312 5 3.46562 5 3C5 1.34312 6.31562 0 8 0C9.65625 0 11 1.34312 11 3C11 3.46562 10.8937 3.90312 10.7062 4.29687ZM9.5 3C9.5 2.17156 8.82812 1.5 8 1.5C7.17187 1.5 6.5 2.17156 6.5 3C6.5 3.23437 6.55312 3.45312 6.64687 3.64687L6.62812 3.66562C6.84687 4.12187 7.25 4.90312 7.25 5.78437C7.25 7.85 5.6 9.5 3.53437 9.5H3C2.17156 9.5 1.5 10.1719 1.5 11V11.25C1.5 11.3875 1.61187 11.5 1.75 11.5H14.25C14.3875 11.5 14.5 11.3875 14.5 11.25V11C14.5 10.1719 13.8281 9.5 13 9.5H12.4375C10.4 9.5 8.75 7.85 8.75 5.78437C8.75 4.90312 9.125 4.12187 9.34375 3.66562L9.35312 3.64687C9.44687 3.45312 9.5 3.23437 9.5 3ZM1 15C1 14.4469 1.44781 14 2 14H14C14.5531 14 15 14.4469 15 15C15 15.5531 14.5531 16 14 16H2C1.44781 16 1 15.5531 1 15Z"/></svg>