<svg viewBox="0 0 16 16" xmlns="http://www.w3.org/2000/svg"><path d="M2.92605 4.09647C2.92605 3.44908 3.45018 2.92605 4.09647 2.92605C4.74386 2.92605 5.26689 3.44908 5.26689 4.09647C5.26689 4.74386 4.74386 5.26689 4.09647 5.26689C3.45018 5.26689 2.92605 4.74386 2.92605 4.09647ZM7.22368 0C7.84547 0 8.43799 0.24652 8.8769 0.685793L15.3142 7.12127C16.2286 8.03566 16.2286 9.52063 15.3142 10.435L10.435 15.3142C9.52063 16.2286 8.03566 16.2286 7.12127 15.3142L0.685793 8.8769C0.246629 8.43799 0 7.84547 0 7.22368V1.75563C0 0.78601 0.78601 0 1.75563 0H7.22368ZM1.92717 7.63699L8.36484 14.0743C8.59161 14.3047 8.96468 14.3047 9.19145 14.0743L14.0743 9.19145C14.3047 8.96468 14.3047 8.59161 14.0743 8.36484L7.63699 1.92717C7.52726 1.81744 7.3773 1.75563 7.22368 1.75563H1.75563V7.22368C1.75563 7.3773 1.81744 7.52726 1.92717 7.63699Z"/></svg>