<svg viewBox="0 0 16 16" xmlns="http://www.w3.org/2000/svg"><path d="M10.2812 8.95939C10.6344 8.52814 11.2281 8.38126 11.7406 8.60314L15.2406 10.1031C15.7906 10.3375 16.0969 10.9313 15.9719 11.5125L15.2219 15.0125C15.0969 15.5875 14.5875 16 14 16C13.8094 16 13.6187 15.9969 13.4312 15.9875H13.4281C13.1156 15.975 12.8094 15.9531 12.5031 15.9188C5.475 15.175 0 9.22501 0 2.00001C0 1.40939 0.4125 0.900015 0.9875 0.77814L4.4875 0.0281397C5.07188 -0.0968603 5.6625 0.20939 5.89687 0.75939L7.39687 4.25939C7.61562 4.77189 7.47188 5.36564 7.04063 5.71876L5.77187 6.75626C6.60625 8.19376 7.80625 9.39376 9.24375 10.2281L10.2812 8.95939ZM14.4625 11.4L11.325 10.0563L10.4062 11.175C9.94063 11.7438 9.13125 11.8906 8.49375 11.5219C6.82812 10.5563 5.44062 9.16877 4.475 7.50314C4.10625 6.86564 4.25313 6.05626 4.82188 5.59064L5.94375 4.67189L4.6 1.53439L1.50312 2.20314C1.60938 8.94376 7.05625 14.3906 13.7969 14.5L14.4625 11.4Z"/><path d="M10.2766 8.00001C9.90171 8.00001 9.59086 7.68916 9.59086 7.3143C9.59086 6.81144 9.17943 6.40916 8.68571 6.40916C8.31086 6.40916 8 6.0983 8 5.72344C8 5.34859 8.31086 5.03773 8.68571 5.03773C9.94743 5.03773 10.9623 6.06173 10.9623 7.3143C10.9623 7.68916 10.6606 8.00001 10.2766 8.00001Z"/><path d="M12.8 8.00001C12.4251 8.00001 12.1143 7.68916 12.1143 7.3143C12.1143 5.42173 10.5783 3.88573 8.68571 3.88573C8.31086 3.88573 8 3.57487 8 3.20001C8 2.82516 8.31086 2.5143 8.68571 2.5143C11.328 2.5143 13.4857 4.66287 13.4857 7.3143C13.4857 7.68916 13.1749 8.00001 12.8 8.00001Z"/></svg>