<svg viewBox="0 0 16 16" xmlns="http://www.w3.org/2000/svg"><path d="M5.5 7.25H1.75C0.79 7.25 0 6.46 0 5.5V1.75C0 0.78 0.79 0 1.75 0H5.5C6.46 0 7.25 0.79 7.25 1.75V5.5C7.25 6.46 6.46 7.25 5.5 7.25ZM1.75 1.5C1.61 1.5 1.5 1.61 1.5 1.75V5.5C1.5 5.64 1.61 5.75 1.75 5.75H5.5C5.64 5.75 5.75 5.64 5.75 5.5V1.75C5.75 1.61 5.64 1.5 5.5 1.5H1.75Z"/><path d="M13 7.25H10.5C9.54 7.25 8.75 6.46 8.75 5.5V3C8.75 2.04 9.54 1.25 10.5 1.25H13C13.96 1.25 14.75 2.04 14.75 3V5.5C14.75 6.46 13.97 7.25 13 7.25ZM10.5 2.75C10.36 2.75 10.25 2.86 10.25 3V5.5C10.25 5.64 10.36 5.75 10.5 5.75H13C13.14 5.75 13.25 5.64 13.25 5.5V3C13.25 2.86 13.14 2.75 13 2.75H10.5Z"/><path d="M5.5 14.75H3C2.04 14.75 1.25 13.96 1.25 13V10.5C1.25 9.54 2.04 8.75 3 8.75H5.5C6.46 8.75 7.25 9.54 7.25 10.5V13C7.25 13.97 6.47 14.75 5.5 14.75ZM3 10.25C2.86 10.25 2.75 10.36 2.75 10.5V13C2.75 13.14 2.86 13.25 3 13.25H5.5C5.64 13.25 5.75 13.14 5.75 13V10.5C5.75 10.36 5.64 10.25 5.5 10.25H3Z"/><path d="M14.25 16H10.5C9.54 16 8.75 15.21 8.75 14.25V10.5C8.75 9.54 9.54 8.75 10.5 8.75H14.25C15.21 8.75 16 9.54 16 10.5V14.25C16 15.21 15.21 16 14.25 16ZM10.5 10.25C10.36 10.25 10.25 10.36 10.25 10.5V14.25C10.25 14.39 10.36 14.5 10.5 14.5H14.25C14.39 14.5 14.5 14.39 14.5 14.25V10.5C14.5 10.36 14.39 10.25 14.25 10.25H10.5Z"/></svg>