<svg viewBox="0 0 16 16" xmlns="http://www.w3.org/2000/svg"><path d="M15.7699 13.4107L12.8174 11.0598C13.7999 10.1328 14.3999 8.92419 14.3999 7.59372C14.3999 4.67634 11.5349 2.33532 8.02242 2.33532C6.32892 2.33532 4.79492 2.88198 3.64992 3.76913L0.97017 1.62989C0.70842 1.4224 0.33292 1.46828 0.12767 1.73331C-0.0765049 1.99839 -0.0309299 2.38153 0.22962 2.58897L15.0071 14.3474C15.1399 14.4568 15.2699 14.5 15.3774 14.5C15.5555 14.5 15.7317 14.4198 15.8499 14.2666C16.0774 14.0023 16.0299 13.6189 15.7699 13.4107ZM11.8649 10.3004L4.60742 4.52399C5.51992 3.90827 6.70242 3.53122 8.00242 3.53122C10.8724 3.53122 13.2024 5.353 13.2024 7.59372C13.2024 8.63473 12.6924 9.5818 11.8649 10.3004ZM8.00242 11.6562C7.33367 11.6562 6.67417 11.5515 6.04292 11.3485L5.47242 11.1687L4.98492 11.5166C4.62867 11.7735 4.13792 12.0594 3.54742 12.2529C3.7318 11.9452 3.90692 11.5991 4.04442 11.2309L4.30992 10.52L3.79442 9.96444C3.34492 9.47516 2.80242 8.66774 2.80242 7.59372C2.80242 7.16614 2.88837 6.75456 3.0456 6.36735L2.07817 5.59802C1.77292 6.21501 1.60067 6.88786 1.60067 7.57087C1.60067 8.78022 2.09842 9.88776 2.92342 10.7777C2.55142 11.7806 1.77667 12.6282 1.76417 12.6376C1.59855 12.8153 1.55482 13.0756 1.64857 13.2977C1.74542 13.5427 1.95942 13.6875 2.19992 13.6875C3.73742 13.6875 4.92742 13.0337 5.67742 12.5132C6.39942 12.7417 7.18117 12.875 7.99992 12.875C8.93767 12.875 9.82692 12.7045 10.6299 12.4052L9.47667 11.4874C9.00992 11.5953 8.51492 11.6562 8.00242 11.6562Z"/></svg>