<svg viewBox="0 0 16 16" xmlns="http://www.w3.org/2000/svg"><path d="M7.99888 0.304993C8.27773 0.304993 8.53234 0.462829 8.65358 0.711459L10.7329 4.95892L15.3794 5.64137C15.6522 5.68045 15.8765 5.86986 15.9644 6.12841C16.0493 6.38997 15.9796 6.67558 15.7856 6.86498L12.4151 10.178L13.2122 14.853C13.2577 15.1236 13.1456 15.4002 12.9182 15.5595C12.6939 15.7189 12.3696 15.7399 12.1514 15.6106L7.99888 13.4099L3.82213 15.6106C3.6039 15.7399 3.30686 15.7189 3.07953 15.5595C2.85523 15.4002 2.74309 15.1236 2.76127 14.853L3.58268 10.178L0.215517 6.86498C0.019713 6.67558 -0.0496973 6.38997 0.0363837 6.12841C0.122162 5.86986 0.348579 5.68045 0.621068 5.64137L5.2649 4.95892L7.34418 0.711459C7.46845 0.462799 7.72002 0.304993 7.99888 0.304993ZM7.99888 2.67855L6.40759 5.93299C6.3015 6.14645 6.0954 6.29677 5.85898 6.33285L2.27267 6.85596L4.87692 9.41442C5.04363 9.57977 5.11941 9.81728 5.08 10.0488L4.46774 13.6444L7.65637 11.9548C7.87157 11.8406 8.12921 11.8406 8.34138 11.9548L11.53 13.6444L10.9178 10.0488C10.8783 9.81728 10.9572 9.57977 11.1239 9.41442L13.7275 6.85596L10.1418 6.33285C9.90236 6.29677 9.69625 6.14645 9.59319 5.93299L7.99888 2.67855Z"/></svg>