<svg viewBox="0 0 16 16" xmlns="http://www.w3.org/2000/svg"><path d="M11.9049 15.9979C11.3549 15.9979 10.8049 15.8779 10.2849 15.6279C8.15488 14.5979 6.21488 13.2079 4.50488 11.4979C2.79488 9.78791 1.40488 7.83791 0.374879 5.70791C-0.395121 4.11791 0.0748792 2.15791 1.49488 1.04791L2.19488 0.507908C3.13488 -0.222092 4.48488 -0.162092 5.32488 0.667908C5.85488 1.18791 6.34488 1.75791 6.79488 2.35791C7.33488 3.08791 7.40488 4.03791 6.97488 4.94791L6.55488 5.84791C6.33488 6.31791 6.41488 6.87791 6.76488 7.26791C7.07488 7.60791 7.38488 7.94791 7.72488 8.28791C8.04488 8.61791 8.38488 8.93791 8.73488 9.23791C9.12488 9.57791 9.67488 9.65791 10.1549 9.43791L11.1949 8.94791C11.9949 8.57791 12.9249 8.66791 13.6349 9.19791C14.2349 9.63791 14.8049 10.1379 15.3349 10.6679C16.1849 11.5379 16.2149 12.8679 15.4049 13.9079L14.9449 14.4979C14.1949 15.4679 13.0649 15.9979 11.9049 15.9979ZM3.67488 1.49791C3.47488 1.49791 3.28488 1.55791 3.11488 1.68791L2.41488 2.22791C1.54488 2.90791 1.25488 4.09791 1.72488 5.05791C2.68488 7.03791 3.97488 8.84791 5.56488 10.4379C7.15488 12.0279 8.96488 13.3179 10.9449 14.2779C11.9049 14.7479 13.0949 14.4579 13.7649 13.5879L14.2249 12.9979C14.5649 12.5579 14.5849 12.0479 14.2649 11.7279C13.7949 11.2479 13.2849 10.8079 12.7449 10.4079C12.4749 10.2079 12.1249 10.1779 11.8249 10.3179L10.7849 10.8079C9.76488 11.2779 8.57488 11.1079 7.73488 10.3679C7.36488 10.0379 7.00488 9.69791 6.65488 9.34791C6.30488 8.98791 5.96488 8.62791 5.63488 8.25791C4.89488 7.42791 4.72488 6.22791 5.19488 5.21791L5.61488 4.31791C5.74488 4.02791 5.85488 3.60791 5.58488 3.25791C5.18488 2.71791 4.74488 2.20791 4.26488 1.74791C4.10488 1.57791 3.89488 1.49791 3.67488 1.49791Z"/></svg>