<svg viewBox="0 0 16 16" xmlns="http://www.w3.org/2000/svg"><path d="M12.6525 4.15343C12.2033 3.54958 11.116 2.30776 9.585 2.02484C9.0225 1.92443 8.45025 2.1328 7.99975 2.57001C7.55 2.15867 6.9775 1.9476 6.4125 2.05059C4.42 2.41913 3.1675 4.42586 3.115 4.51268C2.9189 4.83272 2.97673 5.28269 3.24313 5.5177C3.35015 5.61221 3.47515 5.65712 3.59787 5.65712C3.78302 5.65712 3.96513 5.55608 4.08238 5.36427C4.09253 5.34742 5.08713 3.75031 6.59488 3.47129C6.7813 3.44252 6.96938 3.49135 7.13388 3.60551L5.68 5.38388C5.37 5.75211 5.1775 6.21914 5.1775 6.77C5.1775 7.29391 5.3478 7.78609 5.6565 8.15583C5.9875 8.52735 6.3975 8.70399 6.835 8.70399C7.2725 8.70399 7.6835 8.50002 7.99275 8.12948L8.2765 7.78968L11.3815 10.8104C11.4393 10.8666 11.4479 10.9676 11.394 11.049L10.7018 12.1193C10.6557 12.1867 10.5705 12.197 10.5229 12.1511L9.96735 11.5916L9.3126 12.4224C9.254 12.5084 9.179 12.529 9.13995 12.5337C9.09855 12.5384 9.0259 12.5374 8.96965 12.4822L8.1594 11.6542L7.7675 12.093L7.6972 12.1809C7.5511 12.3952 7.34495 12.53 7.1152 12.5581C6.87848 12.5825 6.65895 12.5057 6.5027 12.3551L4.2575 9.92246H2.4V4.18935H0V11.8415L1.6 11.8427C1.8935 11.8427 2.13925 11.6419 2.2785 11.3595H3.7945L5.721 13.445C6.0925 13.8084 6.5475 14 7.02 14C7.09187 14 7.16452 13.9963 7.2364 13.9869C7.5769 13.9448 7.89665 13.8054 8.17315 13.5827L8.19581 13.6071C8.49656 13.9027 8.8778 14.0385 9.26305 13.9897C9.5928 13.9485 9.89505 13.7791 10.1108 13.5301C10.6381 13.7753 11.2631 13.6003 11.6421 13.037L12.3343 11.9668C12.7961 11.2836 12.7086 10.2759 12.1382 9.72113L9.13071 6.7944L9.34023 6.54346C9.5746 6.26276 9.5746 5.80789 9.34023 5.52737C9.10585 5.24667 8.72623 5.24667 8.49173 5.52737L7.145 7.13824C6.98 7.33882 6.6925 7.33882 6.5275 7.13824C6.4447 7.03998 6.39938 6.909 6.39938 6.7697C6.39938 6.62935 6.44468 6.49834 6.5314 6.39458L8.67915 3.77082C8.87445 3.53596 9.1424 3.41905 9.40265 3.47055C10.8964 3.74657 11.9077 5.34855 11.9177 5.36531C11.9949 5.48971 12.0992 5.57326 12.2136 5.61607H13.6V10.8582C13.6 11.3872 13.9582 11.8177 14.3775 11.8177L16 11.8445V4.18337L12.6525 4.15343ZM1.2 10.8865C0.98125 10.8865 0.8 10.6696 0.8 10.4078C0.8 10.142 0.98125 9.92905 1.2 9.92905C1.41875 9.92905 1.6 10.144 1.6 10.4104C1.6 10.6709 1.41875 10.8865 1.2 10.8865ZM14.8 10.8865C14.5813 10.8865 14.4 10.6696 14.4 10.4078C14.4 10.142 14.5813 9.92905 14.8 9.92905C15.0188 9.92905 15.2 10.1421 15.2 10.4078C15.2 10.6709 15.02 10.8865 14.8 10.8865Z"/></svg>