<svg viewBox="0 0 16 16" xmlns="http://www.w3.org/2000/svg"><path d="M7.16107 9.33712H4.63363C2.0746 9.33712 0 11.4825 0 14.1287C0 14.6098 0.377272 14.9999 0.842478 14.9999H10.9522C11.4174 14.9999 11.7947 14.6098 11.7947 14.1287C11.7947 11.4825 9.72009 9.33712 7.16107 9.33712ZM1.28978 13.6931C1.49777 11.9752 2.91708 10.6439 4.63363 10.6439H7.16107C8.87656 10.6439 10.2967 11.9766 10.5047 13.6931H1.28978ZM5.89735 8.03032C7.75844 8.03032 9.26726 6.47006 9.26726 4.54553C9.26726 2.62099 7.75844 1.06073 5.89735 1.06073C4.03626 1.06073 2.52744 2.62099 2.52744 4.54553C2.52744 6.47033 4.036 8.03032 5.89735 8.03032ZM5.89735 2.36753C7.05865 2.36753 8.00355 3.34463 8.00355 4.54553C8.00355 5.74642 7.05865 6.72353 5.89735 6.72353C4.73605 6.72353 3.79115 5.74615 3.79115 4.54553C3.79115 3.34463 4.73631 2.36753 5.89735 2.36753Z"/><path d="M12.4227 10.1288C12.2631 10.1288 12.1035 10.07 11.9776 9.94402C11.734 9.70048 11.734 9.29737 11.9776 9.05383C12.2547 8.7767 12.4059 8.41558 12.4059 8.02927C12.4059 7.64297 12.2547 7.27345 11.9776 7.00472C11.734 6.76118 11.734 6.35807 11.9776 6.11453C12.2211 5.87099 12.6242 5.87099 12.8678 6.11453C13.38 6.62681 13.6656 7.30705 13.6656 8.02927C13.6656 8.7515 13.38 9.43174 12.8678 9.94402C12.7418 10.07 12.5822 10.1288 12.4227 10.1288Z"/><path d="M14.0771 11.7832C13.9175 11.7832 13.758 11.7244 13.632 11.5984C13.3884 11.3549 13.3884 10.9518 13.632 10.7082C14.3458 9.99441 14.7405 9.04543 14.7405 8.02927C14.7405 7.01312 14.3458 6.06414 13.632 5.35031C13.3884 5.10677 13.3884 4.70366 13.632 4.46012C13.8755 4.21658 14.2786 4.21658 14.5222 4.46012C15.4711 5.4091 16.0002 6.6772 16.0002 8.02927C16.0002 9.38135 15.4795 10.6411 14.5222 11.5984C14.3962 11.7244 14.2366 11.7832 14.0771 11.7832Z"/><path fill-rule="evenodd" clip-rule="evenodd" d="M0.46967 15.5C0.176777 15.2071 0.176777 14.7322 0.46967 14.4393L14.409 0.500004C14.7019 0.207111 15.1768 0.207111 15.4697 0.500004C15.7626 0.792898 15.7626 1.26777 15.4697 1.56066L1.53033 15.5C1.23744 15.7929 0.762563 15.7929 0.46967 15.5Z"/></svg>