<svg viewBox="0 0 16 16" xmlns="http://www.w3.org/2000/svg"><path d="M5.77778 8.22222C6.75972 8.22222 7.55556 7.42639 7.55556 6.44444C7.55556 5.4625 6.75972 4.66667 5.77778 4.66667C4.79583 4.66667 4 5.4625 4 6.44444C4 7.425 4.79722 8.22222 5.77778 8.22222ZM12.8889 7.55556H10.2222C9.85417 7.55556 9.55556 7.85417 9.55556 8.22222C9.55556 8.59028 9.85417 8.88889 10.2222 8.88889H12.8889C13.2569 8.88889 13.5556 8.59028 13.5556 8.22222C13.5556 7.85417 13.2583 7.55556 12.8889 7.55556ZM6.66667 9.11111H4.88889C3.66111 9.11111 2.66667 10.1056 2.66667 11.3333C2.66667 11.5778 2.86667 11.7778 3.11111 11.7778H8.44444C8.68989 11.7778 8.88889 11.5788 8.88889 11.3333C8.88889 10.1056 7.89444 9.11111 6.66667 9.11111ZM12.8889 5.33333H10.2222C9.85417 5.33333 9.55556 5.63194 9.55556 6C9.55556 6.36806 9.85417 6.66667 10.2222 6.66667H12.8889C13.2569 6.66667 13.5556 6.36806 13.5556 6C13.5556 5.63194 13.2583 5.33333 12.8889 5.33333ZM14.2222 2H1.77778C0.795833 2 0 2.79583 0 3.77778V12.6667C0 13.6486 0.795833 14.4444 1.77778 14.4444H14.2222C15.2042 14.4444 16 13.6486 16 12.6667V3.77778C16 2.79583 15.2028 2 14.2222 2ZM14.6667 12.6667C14.6667 12.9117 14.4673 13.1111 14.2222 13.1111H1.77778C1.53272 13.1111 1.33333 12.9117 1.33333 12.6667V3.77778C1.33333 3.53272 1.53272 3.33333 1.77778 3.33333H14.2222C14.4673 3.33333 14.6667 3.53272 14.6667 3.77778V12.6667Z"/></svg>