<svg viewBox="0 0 16 16" xmlns="http://www.w3.org/2000/svg"><path d="M13.8084 1.558C13.4161 1.19242 11.8283 0.0269432 8.2881 0.0113202C8.2881 0.0113202 4.11464 -0.241773 2.08197 1.64549C0.951339 2.7891 0.552837 4.46701 0.509588 6.54487C0.46634 8.62274 0.413824 12.516 4.12391 13.5721H4.127L4.12391 15.1844C4.12391 15.1844 4.0992 15.8375 4.5255 15.9687C5.0383 16.1312 5.34104 15.6344 5.83222 15.1C6.10097 14.8063 6.47167 14.3751 6.75279 14.0471C9.29208 14.2627 11.2413 13.769 11.4638 13.6971C11.9766 13.5284 14.8773 13.1534 15.3468 9.26016C15.8349 5.24191 15.1121 2.70473 13.8084 1.558V1.558ZM14.2378 8.96644C13.8393 12.216 11.4885 12.4223 11.056 12.5629C10.8706 12.6222 9.15616 13.0534 7.00301 12.9128C7.00301 12.9128 5.39665 14.872 4.8962 15.3813C4.73247 15.5469 4.5533 15.5312 4.55639 15.2032C4.55639 14.9876 4.56875 12.5254 4.56875 12.5254C4.56566 12.5254 4.56566 12.5254 4.56875 12.5254C1.42398 11.6442 1.60933 8.32903 1.64331 6.59487C1.67729 4.86071 2.00165 3.43901 2.95929 2.48288C4.67996 0.904958 8.22323 1.1393 8.22323 1.1393C11.2166 1.1518 12.65 2.06419 12.9836 2.3704C14.0865 3.32653 14.6487 5.61374 14.2378 8.96644V8.96644ZM9.94389 6.44176C9.95625 6.71048 9.55775 6.72923 9.54539 6.46051C9.51141 5.7731 9.19323 5.43876 8.53832 5.40127C8.27266 5.38564 8.29737 4.98257 8.55995 4.99819C9.42183 5.04506 9.90065 5.545 9.94389 6.44176ZM10.571 6.79484C10.6019 5.47001 9.78326 4.43264 8.22941 4.31703C7.96683 4.29828 7.99463 3.89521 8.25721 3.91395C10.0489 4.04519 11.0035 5.29191 10.9695 6.80422C10.9664 7.07293 10.5648 7.06043 10.571 6.79484V6.79484ZM12.0229 7.21354C12.026 7.48226 11.6244 7.48538 11.6244 7.21666C11.6059 4.67011 9.92845 3.28278 7.89269 3.26716C7.63011 3.26404 7.63011 2.86409 7.89269 2.86409C10.1694 2.87971 12.0013 4.47013 12.0229 7.21354V7.21354ZM11.6738 10.2788V10.285C11.3402 10.8787 10.7162 11.5349 10.0736 11.3255L10.0675 11.3161C9.41565 11.1318 7.88033 10.3319 6.91034 9.55075C6.40989 9.1508 5.95269 8.67898 5.60053 8.22591C5.28235 7.82284 4.96107 7.34477 4.64907 6.76985C3.99108 5.56687 3.84588 5.02944 3.84588 5.02944C3.63891 4.37952 4.28455 3.74835 4.87458 3.41089H4.88075C5.16496 3.26091 5.4368 3.31091 5.61906 3.53275C5.61906 3.53275 6.00212 3.99519 6.16585 4.22329C6.32031 4.43576 6.52728 4.77635 6.6354 4.96695C6.82384 5.30753 6.70645 5.65436 6.5211 5.79809L6.1504 6.09806C5.96196 6.25116 5.98668 6.5355 5.98668 6.5355C5.98668 6.5355 6.53655 8.63836 8.59084 9.16954C8.59084 9.16954 8.87195 9.19454 9.02332 9.00394L9.31988 8.62899C9.46199 8.44151 9.80488 8.32278 10.1416 8.51338C10.5957 8.77272 11.1734 9.17579 11.5564 9.54137C11.7727 9.71947 11.8221 9.99132 11.6738 10.2788Z"/></svg>