<svg viewBox="0 0 16 16" xmlns="http://www.w3.org/2000/svg"><path d="M3.2 2.62857C3.2 2.85357 3.06929 3.05 2.87964 3.11071C2.80393 3.17857 2.71857 3.2 2.62857 3.2H0.571429C0.481429 3.2 0.396071 3.17857 0.320429 3.11071C0.130679 3.05 0 2.85357 0 2.62857V0.571429C0 0.255714 0.255857 0 0.571429 0H2.62857C2.94429 0 3.2 0.255714 3.2 0.571429V2.62857ZM2.05714 2.05714V1.14286H1.14286V2.05714H2.05714ZM2.62857 4.26786C2.71857 4.26786 2.80393 4.28571 2.87964 4.325C3.06929 4.41786 3.2 4.61429 3.2 4.83929V6.89643C3.2 7.12143 3.06929 7.31429 2.87964 7.40714C2.80393 7.44643 2.71857 7.46786 2.62857 7.46786H0.571429C0.481429 7.46786 0.396071 7.44643 0.320429 7.40714C0.130679 7.31429 0 7.12143 0 6.89643V4.83929C0 4.61429 0.130679 4.41786 0.320429 4.325C0.396071 4.28571 0.481429 4.26786 0.571429 4.26786H2.62857ZM2.05714 6.325V5.41071H1.14286V6.325H2.05714ZM2.62857 8.53214C2.71857 8.53214 2.80393 8.55357 2.87964 8.59286C3.06929 8.68571 3.2 8.87857 3.2 9.10357V11.1607C3.2 11.3857 3.06929 11.5821 2.87964 11.675C2.80393 11.7107 2.71857 11.7321 2.62857 11.7321H0.571429C0.481429 11.7321 0.396071 11.7107 0.320429 11.675C0.130679 11.5821 0 11.3857 0 11.1607V9.10357C0 8.87857 0.130679 8.68571 0.320429 8.59286C0.396071 8.55357 0.481429 8.53214 0.571429 8.53214H2.62857ZM2.05714 10.5893V9.675H1.14286V10.5893H2.05714ZM0.571429 12.8H2.62857C2.71857 12.8 2.80393 12.7893 2.87964 12.8571C3.06929 12.95 3.2 13.1464 3.2 13.3714V15.4286C3.2 15.7429 2.94429 16 2.62857 16H0.571429C0.255857 16 0 15.7429 0 15.4286V13.3714C0 13.1464 0.130679 12.95 0.320429 12.8571C0.396071 12.7893 0.481429 12.8 0.571429 12.8ZM2.05714 14.8571V13.9429H1.14286V14.8571H2.05714ZM7.46786 2.62857C7.46786 2.85357 7.33571 3.05 7.14643 3.11071C7.03929 3.17857 6.98571 3.2 6.89643 3.2H4.83929C4.74643 3.2 4.66429 3.17857 4.58571 3.11071C4.39643 3.05 4.26786 2.85357 4.26786 2.62857V0.571429C4.26786 0.255714 4.52143 0 4.83929 0H6.89643C7.21071 0 7.46786 0.255714 7.46786 0.571429V2.62857ZM6.325 2.05714V1.14286H5.41071V2.05714H6.325ZM6.89643 4.26786C6.98571 4.26786 7.03929 4.28571 7.14643 4.325C7.33571 4.41786 7.46786 4.61429 7.46786 4.83929V6.89643C7.46786 7.12143 7.33571 7.31429 7.14643 7.40714C7.03929 7.44643 6.98571 7.46786 6.89643 7.46786H4.83929C4.74643 7.46786 4.66429 7.44643 4.58571 7.40714C4.39643 7.31429 4.26786 7.12143 4.26786 6.89643V4.83929C4.26786 4.61429 4.39643 4.41786 4.58571 4.325C4.66429 4.28571 4.74643 4.26786 4.83929 4.26786H6.89643ZM6.325 6.325V5.41071H5.41071V6.325H6.325ZM6.89643 8.53214C6.98571 8.53214 7.03929 8.55357 7.14643 8.59286C7.33571 8.68571 7.46786 8.87857 7.46786 9.10357V11.1607C7.46786 11.3857 7.33571 11.5821 7.14643 11.675C7.03929 11.7107 6.98571 11.7321 6.89643 11.7321H4.83929C4.74643 11.7321 4.66429 11.7107 4.58571 11.675C4.39643 11.5821 4.26786 11.3857 4.26786 11.1607V9.10357C4.26786 8.87857 4.39643 8.68571 4.58571 8.59286C4.66429 8.55357 4.74643 8.53214 4.83929 8.53214H6.89643ZM6.325 10.5893V9.675H5.41071V10.5893H6.325ZM4.83929 12.8H6.89643C6.98571 12.8 7.03929 12.7893 7.14643 12.8571C7.33571 12.95 7.46786 13.1464 7.46786 13.3714V15.4286C7.46786 15.7429 7.21071 16 6.89643 16H4.83929C4.52143 16 4.26786 15.7429 4.26786 15.4286V13.3714C4.26786 13.1464 4.39643 12.95 4.58571 12.8571C4.66429 12.7893 4.74643 12.8 4.83929 12.8ZM6.325 14.8571V13.9429H5.41071V14.8571H6.325ZM11.1607 3.2H9.10357C9.01429 3.2 8.92857 3.17857 8.85357 3.11071C8.66429 3.05 8.53214 2.85357 8.53214 2.62857V0.571429C8.53214 0.255714 8.78929 0 9.10357 0H11.1607C11.4786 0 11.7321 0.255714 11.7321 0.571429V2.62857C11.7321 2.85357 11.6036 3.05 11.4143 3.11071C11.3357 3.17857 11.2536 3.2 11.1607 3.2ZM9.675 1.14286V2.05714H10.5893V1.14286H9.675ZM11.7321 4.83929V6.89643C11.7321 7.12143 11.6036 7.31429 11.4143 7.40714C11.3357 7.44643 11.2536 7.46786 11.1607 7.46786H9.10357C9.01429 7.46786 8.92857 7.44643 8.85357 7.40714C8.66429 7.31429 8.53214 7.12143 8.53214 6.89643V4.83929C8.53214 4.61429 8.66429 4.41786 8.85357 4.325C8.92857 4.28571 9.01429 4.26786 9.10357 4.26786H11.1607C11.2536 4.26786 11.3357 4.28571 11.4143 4.325C11.6036 4.41786 11.7321 4.61429 11.7321 4.83929ZM9.675 5.41071V6.325H10.5893V5.41071H9.675ZM11.7321 9.10357V11.1607C11.7321 11.3857 11.6036 11.5821 11.4143 11.675C11.3357 11.7107 11.2536 11.7321 11.1607 11.7321H9.10357C9.01429 11.7321 8.92857 11.7107 8.85357 11.675C8.66429 11.5821 8.53214 11.3857 8.53214 11.1607V9.10357C8.53214 8.87857 8.66429 8.68571 8.85357 8.59286C8.92857 8.55357 9.01429 8.53214 9.10357 8.53214H11.1607C11.2536 8.53214 11.3357 8.55357 11.4143 8.59286C11.6036 8.68571 11.7321 8.87857 11.7321 9.10357ZM9.675 9.675V10.5893H10.5893V9.675H9.675ZM11.4143 12.8571C11.6036 12.95 11.7321 13.1464 11.7321 13.3714V15.4286C11.7321 15.7429 11.4786 16 11.1607 16H9.10357C8.78929 16 8.53214 15.7429 8.53214 15.4286V13.3714C8.53214 13.1464 8.66429 12.95 8.85357 12.8571C8.92857 12.7893 9.01429 12.8 9.10357 12.8H11.1607C11.2536 12.8 11.3357 12.7893 11.4143 12.8571ZM9.675 13.9429V14.8571H10.5893V13.9429H9.675ZM16 2.62857C16 2.85357 15.8679 3.05 15.6786 3.11071C15.6036 3.17857 15.5179 3.2 15.4286 3.2H13.3714C13.2821 3.2 13.1964 3.17857 13.1214 3.11071C12.9321 3.05 12.8 2.85357 12.8 2.62857V0.571429C12.8 0.255714 13.0571 0 13.3714 0H15.4286C15.7429 0 16 0.255714 16 0.571429V2.62857ZM14.8571 2.05714V1.14286H13.9429V2.05714H14.8571ZM15.4286 4.26786C15.5179 4.26786 15.6036 4.28571 15.6786 4.325C15.8679 4.41786 16 4.61429 16 4.83929V6.89643C16 7.12143 15.8679 7.31429 15.6786 7.40714C15.6036 7.44643 15.5179 7.46786 15.4286 7.46786H13.3714C13.2821 7.46786 13.1964 7.44643 13.1214 7.40714C12.9321 7.31429 12.8 7.12143 12.8 6.89643V4.83929C12.8 4.61429 12.9321 4.41786 13.1214 4.325C13.1964 4.28571 13.2821 4.26786 13.3714 4.26786H15.4286ZM14.8571 6.325V5.41071H13.9429V6.325H14.8571ZM15.4286 8.53214C15.5179 8.53214 15.6036 8.55357 15.6786 8.59286C15.8679 8.68571 16 8.87857 16 9.10357V11.1607C16 11.3857 15.8679 11.5821 15.6786 11.675C15.6036 11.7107 15.5179 11.7321 15.4286 11.7321H13.3714C13.2821 11.7321 13.1964 11.7107 13.1214 11.675C12.9321 11.5821 12.8 11.3857 12.8 11.1607V9.10357C12.8 8.87857 12.9321 8.68571 13.1214 8.59286C13.1964 8.55357 13.2821 8.53214 13.3714 8.53214H15.4286ZM14.8571 10.5893V9.675H13.9429V10.5893H14.8571ZM13.3714 12.8H15.4286C15.5179 12.8 15.6036 12.7893 15.6786 12.8571C15.8679 12.95 16 13.1464 16 13.3714V15.4286C16 15.7429 15.7429 16 15.4286 16H13.3714C13.0571 16 12.8 15.7429 12.8 15.4286V13.3714C12.8 13.1464 12.9321 12.95 13.1214 12.8571C13.1964 12.7893 13.2821 12.8 13.3714 12.8ZM14.8571 14.8571V13.9429H13.9429V14.8571H14.8571Z"/></svg>