<svg viewBox="0 0 16 16" xmlns="http://www.w3.org/2000/svg"><path d="M12.3775 4.5C10.4125 4.5 8.8 6.06771 8.8 8C8.8 8.89931 9.1595 9.71354 9.7345 10.3333H6.2645C6.84 9.71354 7.2 8.89931 7.2 8C7.2 6.06771 5.5875 4.5 3.6 4.5C1.6125 4.5 0 6.06771 0 8C0 9.93229 1.61225 11.5 3.5775 11.5H12.3775C14.3875 11.5 16 9.93229 16 8C16 6.06771 14.3875 4.5 12.3775 4.5ZM1.2 8C1.2 6.71181 2.275 5.66667 3.6 5.66667C4.925 5.66667 6 6.71181 6 8C6 9.28819 4.925 10.3333 3.6 10.3333C2.275 10.3333 1.2 9.28819 1.2 8ZM12.4 10.3333C11.075 10.3333 10 9.28819 10 8C10 6.71181 11.075 5.66667 12.4 5.66667C13.725 5.66667 14.8 6.71181 14.8 8C14.8 9.28819 13.725 10.3333 12.4 10.3333Z"/></svg>