<svg viewBox="0 0 16 16" xmlns="http://www.w3.org/2000/svg"><path d="M15.7692 14.6594L13.5505 12.4847C14.5971 11.3375 15.1994 9.71566 15.1994 8.00004C15.1994 6.21505 14.5536 4.52819 13.428 3.4032C13.3167 3.28954 13.182 3.23395 13.0481 3.23395C12.8749 3.23395 12.7028 3.32704 12.5838 3.50769C12.3737 3.82801 12.4112 4.30082 12.6674 4.56331C13.515 5.40318 13.9998 6.66568 13.9998 8.00004C13.9998 9.3341 13.514 10.5966 12.6675 11.4657C12.6414 11.4925 12.6276 11.529 12.606 11.5598L11.4982 10.4742C11.5109 10.4752 11.5224 10.4843 11.5351 10.4843C11.6687 10.4843 11.8038 10.4287 11.9147 10.3154C12.4778 9.73753 12.8002 8.89691 12.8002 8.00004C12.8002 7.10474 12.4776 6.26193 11.9145 5.68568C11.8028 5.57228 11.6682 5.51693 11.5347 5.51693C11.361 5.51693 11.1891 5.6105 11.0711 5.79215C10.861 6.11246 10.8985 6.58527 11.1554 6.84777C11.4382 7.13755 11.6007 7.5563 11.6007 8.00004C11.6007 8.44379 11.4382 8.86316 11.1556 9.15254C10.9626 9.34985 10.8934 9.66535 10.96 9.94597L9.60137 8.61567V2.00008C9.60137 1.60664 9.41801 1.24977 9.13054 1.08883C9.02556 1.02958 8.9124 1.00005 8.80166 1.00005C8.60931 1.00005 8.41955 1.08705 8.2701 1.25318L5.37539 4.47194L0.974716 0.159807C0.713059 -0.0955667 0.337694 -0.038942 0.132767 0.287244C-0.0714346 0.613523 -0.0260259 1.08508 0.234431 1.34039L15.0066 15.8122C15.1394 15.9469 15.2693 16 15.3768 16C15.5549 16 15.7307 15.9012 15.8491 15.7127C16.0766 15.3875 16.0291 14.9156 15.7692 14.6594ZM8.4018 7.43755L6.33505 5.41256L8.4018 3.11382V7.43755ZM8.4018 12.8875L5.3554 9.50004H2.80381V6.52818H3.55404L2.22277 5.19694C1.85565 5.45318 1.60424 5.90943 1.60424 6.50005V9.50004C1.60424 10.3285 2.1413 10.9719 2.80381 10.9719H4.89906L8.27035 14.7188C8.4193 14.9125 8.60923 15 8.80166 15C8.91257 15 9.02556 14.9709 9.13054 14.9113C9.41894 14.75 9.60137 14.3938 9.60137 14V12.4269L8.4018 11.2513V12.8875Z"/></svg>