<svg viewBox="0 0 16 16" xmlns="http://www.w3.org/2000/svg"><path d="M12.7346 1.45902C12.5937 1.40295 12.442 1.375 12.2934 1.375C12.0353 1.37506 11.7807 1.4574 11.5801 1.61456L7.05443 5.16074H4.24451C3.3556 5.16074 2.63501 5.79632 2.63501 6.55376V9.36642C2.63501 10.1505 3.3556 10.7594 4.24451 10.7594H7.05577L11.5791 14.3056C11.779 14.5422 12.0338 14.625 12.292 14.625C12.4408 14.625 12.5924 14.5975 12.7333 14.5411C13.1202 14.3884 13.365 14.0512 13.365 13.6786V2.32146C13.365 1.9491 13.1202 1.58502 12.7346 1.45902ZM11.7555 12.6257L7.66805 9.41965H4.24451V6.60699H7.66805L11.7555 3.37554V12.6257Z"/></svg>