<svg viewBox="0 0 180 71" xmlns="http://www.w3.org/2000/svg"><path d="M143 17.7381V53.2619C143 63.0587 135.089 71 125.332 71C120.852 71 116.76 69.3251 113.645 66.5644C113.45 66.3695 113.253 66.1861 113.051 66.0143C113.049 66.0128 113.042 66.0071 113.041 66.0056C109.816 63.2666 105.533 63.2781 102.318 66.0316C102.123 66.1977 101.93 66.3767 101.743 66.5644C98.6275 69.3251 94.5371 71 90.0554 71H54.6693C44.9106 71 37 63.0587 37 53.2619C37 43.4652 44.9106 35.5253 54.6693 35.5253C66.7207 35.5253 72.3875 24.9185 72.3875 17.7381C72.3875 7.94135 80.2981 0 90.0554 0C94.5371 0 98.6275 1.6749 101.743 4.43561C101.757 4.4486 101.756 4.44716 101.757 4.4486C101.938 4.62909 102.124 4.80091 102.312 4.96262C105.534 7.7291 109.836 7.73487 113.064 4.97273C113.261 4.80524 113.643 4.43561 113.645 4.43416C116.76 1.6749 120.852 0 125.332 0C130.211 0 134.628 1.98534 137.825 5.19509C141.022 8.40484 143 12.839 143 17.7381Z"/></svg>