<svg viewBox="0 0 180 71" xmlns="http://www.w3.org/2000/svg"><defs><linearGradient x1="0%" y1="0%" x2="100%" y2="0%"><stop offset="0%" stop-color="var(--gradient-start)"/><stop offset="100%" stop-color="var(--gradient-end)"/></linearGradient><clipPath><rect/></clipPath></defs><g clip-path="url(#clip0_65666_502)"><path d="M178.5 17.8429C178.5 27.6156 170.577 35.5375 160.804 35.5375C148.734 35.5375 143.059 46.1182 143.059 53.281C143.059 63.0522 135.136 70.9741 125.363 70.9741H125.362C120.779 70.9741 116.603 69.2327 113.461 66.3751C113.311 66.2253 113 65.9415 113 65.9415C109.771 63.0868 105.531 63.0522 102.276 65.8465C102.084 66.0092 101.707 66.3722 101.704 66.3751C98.5805 69.1434 94.4721 70.8243 89.9705 70.8243C85.4688 70.8243 81.3849 69.1535 78.2661 66.401H78.2647L78.2503 66.3866C78.0688 66.2066 77.8829 66.0352 77.6942 65.8738C74.4617 63.1098 70.1501 63.1127 66.9205 65.8695C66.7246 66.0352 66.5344 66.2109 66.3471 66.3996C66.3471 66.3996 66.3462 66.4 66.3443 66.401C63.2241 69.1535 59.1272 70.8243 54.6385 70.8243H19.197C9.42294 70.8243 1.5 62.9024 1.5 53.1312C1.5 43.3599 9.42294 35.4366 19.197 35.4366C31.2672 35.4366 36.9429 24.8573 36.9429 17.6931C36.9429 7.92186 44.8659 0 54.6385 0C59.1272 0 63.2241 1.67079 66.3443 4.42328C66.3457 4.42472 66.7274 4.78048 66.9205 4.95476C70.0666 7.80663 74.4617 7.71445 77.6942 4.95044C77.8829 4.78912 78.2604 4.4276 78.2661 4.42328C81.3849 1.67079 85.4832 0 89.9705 0C94.4577 0 98.5301 1.66071 101.646 4.39879C101.65 4.40167 101.655 4.40599 101.659 4.40887C101.663 4.41175 102.025 4.75888 102.208 4.91443C105.425 7.65251 109.902 7.68996 113.153 5.03542C113.392 4.84097 113.856 4.40023 113.859 4.39735C116.952 1.75001 120.971 0.149795 125.362 0.149795H160.804C170.577 0.149795 178.5 8.07165 178.5 17.8429Z"/></g></svg>